<?xml version="1.0" encoding="utf-8" standalone="no"?>
<!DOCTYPE svg PUBLIC "-//W3C//DTD SVG 1.1//EN"
  "http://www.w3.org/Graphics/SVG/1.1/DTD/svg11.dtd">
<svg height="576pt" version="1.1" viewBox="0 0 576 576" width="576pt" xmlns="http://www.w3.org/2000/svg" xmlns:xlink="http://www.w3.org/1999/xlink">
 <metadata>
  <rdf:RDF xmlns:cc="http://creativecommons.org/ns#" xmlns:dc="http://purl.org/dc/elements/1.1/" xmlns:rdf="http://www.w3.org/1999/02/22-rdf-syntax-ns#">
   <cc:Work>
    <dc:type rdf:resource="http://purl.org/dc/dcmitype/StillImage"/>
    <dc:date>2022-02-26T04:12:23.260508</dc:date>
    <dc:format>image/svg+xml</dc:format>
    <dc:creator>
     <cc:Agent>
      <dc:title>Matplotlib v3.4.3, https://matplotlib.org/</dc:title>
     </cc:Agent>
    </dc:creator>
   </cc:Work>
  </rdf:RDF>
 </metadata>
 <defs>
  <style type="text/css">*{stroke-linecap:butt;stroke-linejoin:round;}</style>
 </defs>
 <g id="figure_1">
  <g id="patch_1">
   <path d="M 0 576 
L 576 576 
L 576 0 
L 0 0 
z
" style="fill:#ffffff;"/>
  </g>
  <g id="patch_2">
   <path d="M 23.4 565.2 
L 552.6 565.2 
L 552.6 36 
L 23.4 36 
z
" style="fill:#ffffff;"/>
  </g>
  <g id="pane3d_1">
   <g id="patch_3">
    <path d="M 63.358249 434.71624 
L 238.117372 288.229677 
L 235.688053 76.969868 
L 52.565805 210.604144 
" style="fill:#f2f2f2;opacity:0.5;stroke:#f2f2f2;stroke-linejoin:miter;"/>
   </g>
  </g>
  <g id="pane3d_2">
   <g id="patch_4">
    <path d="M 238.117372 288.229677 
L 518.54341 369.738455 
L 528.550827 151.202044 
L 235.688053 76.969868 
" style="fill:#e6e6e6;opacity:0.5;stroke:#e6e6e6;stroke-linejoin:miter;"/>
   </g>
  </g>
  <g id="pane3d_3">
   <g id="patch_5">
    <path d="M 63.358249 434.71624 
L 360.623546 531.803085 
L 518.54341 369.738455 
L 238.117372 288.229677 
" style="fill:#ececec;opacity:0.5;stroke:#ececec;stroke-linejoin:miter;"/>
   </g>
  </g>
  <g id="axis3d_1">
   <g id="line2d_1">
    <path d="M 63.358249 434.71624 
L 360.623546 531.803085 
" style="fill:none;stroke:#000000;stroke-linecap:square;stroke-width:0.8;"/>
   </g>
   <g id="text_1">
    <!-- x (m) -->
    <g transform="translate(178.329241 515.594496)rotate(-341.912962)scale(0.1 -0.1)">
     <defs>
      <path d="M 3513 3500 
L 2247 1797 
L 3578 0 
L 2900 0 
L 1881 1375 
L 863 0 
L 184 0 
L 1544 1831 
L 300 3500 
L 978 3500 
L 1906 2253 
L 2834 3500 
L 3513 3500 
z
" id="DejaVuSans-78" transform="scale(0.015625)"/>
      <path id="DejaVuSans-20" transform="scale(0.015625)"/>
      <path d="M 1984 4856 
Q 1566 4138 1362 3434 
Q 1159 2731 1159 2009 
Q 1159 1288 1364 580 
Q 1569 -128 1984 -844 
L 1484 -844 
Q 1016 -109 783 600 
Q 550 1309 550 2009 
Q 550 2706 781 3412 
Q 1013 4119 1484 4856 
L 1984 4856 
z
" id="DejaVuSans-28" transform="scale(0.015625)"/>
      <path d="M 3328 2828 
Q 3544 3216 3844 3400 
Q 4144 3584 4550 3584 
Q 5097 3584 5394 3201 
Q 5691 2819 5691 2113 
L 5691 0 
L 5113 0 
L 5113 2094 
Q 5113 2597 4934 2840 
Q 4756 3084 4391 3084 
Q 3944 3084 3684 2787 
Q 3425 2491 3425 1978 
L 3425 0 
L 2847 0 
L 2847 2094 
Q 2847 2600 2669 2842 
Q 2491 3084 2119 3084 
Q 1678 3084 1418 2786 
Q 1159 2488 1159 1978 
L 1159 0 
L 581 0 
L 581 3500 
L 1159 3500 
L 1159 2956 
Q 1356 3278 1631 3431 
Q 1906 3584 2284 3584 
Q 2666 3584 2933 3390 
Q 3200 3197 3328 2828 
z
" id="DejaVuSans-6d" transform="scale(0.015625)"/>
      <path d="M 513 4856 
L 1013 4856 
Q 1481 4119 1714 3412 
Q 1947 2706 1947 2009 
Q 1947 1309 1714 600 
Q 1481 -109 1013 -844 
L 513 -844 
Q 928 -128 1133 580 
Q 1338 1288 1338 2009 
Q 1338 2731 1133 3434 
Q 928 4138 513 4856 
z
" id="DejaVuSans-29" transform="scale(0.015625)"/>
     </defs>
     <use xlink:href="#DejaVuSans-78"/>
     <use x="59.179688" xlink:href="#DejaVuSans-20"/>
     <use x="90.966797" xlink:href="#DejaVuSans-28"/>
     <use x="129.980469" xlink:href="#DejaVuSans-6d"/>
     <use x="227.392578" xlink:href="#DejaVuSans-29"/>
    </g>
   </g>
   <g id="Line3DCollection_1">
    <path d="M 99.619913 446.559299 
L 272.457739 298.211066 
L 271.48501 86.043353 
" style="fill:none;stroke:#b0b0b0;stroke-width:0.8;"/>
    <path d="M 132.057698 457.153479 
L 303.145451 307.130773 
L 303.490031 94.155693 
" style="fill:none;stroke:#b0b0b0;stroke-width:0.8;"/>
    <path d="M 164.878584 467.872781 
L 334.165479 316.14707 
L 335.856658 102.35969 
" style="fill:none;stroke:#b0b0b0;stroke-width:0.8;"/>
    <path d="M 198.089399 478.719433 
L 365.523252 325.261537 
L 368.591053 110.656905 
" style="fill:none;stroke:#b0b0b0;stroke-width:0.8;"/>
    <path d="M 231.697133 489.695718 
L 397.224315 334.475784 
L 401.699521 119.048936 
" style="fill:none;stroke:#b0b0b0;stroke-width:0.8;"/>
    <path d="M 265.708944 500.803976 
L 429.274336 343.79146 
L 435.18851 127.537419 
" style="fill:none;stroke:#b0b0b0;stroke-width:0.8;"/>
    <path d="M 300.132165 512.0466 
L 461.67911 353.210248 
L 469.064619 136.124025 
" style="fill:none;stroke:#b0b0b0;stroke-width:0.8;"/>
    <path d="M 334.974304 523.426042 
L 494.444559 362.733871 
L 503.334598 144.810466 
" style="fill:none;stroke:#b0b0b0;stroke-width:0.8;"/>
   </g>
   <g id="xtick_1">
    <g id="line2d_2">
     <path d="M 101.125381 445.267143 
L 96.602497 449.149174 
" style="fill:none;stroke:#000000;stroke-linecap:square;stroke-width:0.8;"/>
    </g>
    <g id="text_2">
     <!-- −0.030 -->
     <g transform="translate(73.610063 469.902716)scale(0.1 -0.1)">
      <defs>
       <path d="M 678 2272 
L 4684 2272 
L 4684 1741 
L 678 1741 
L 678 2272 
z
" id="DejaVuSans-2212" transform="scale(0.015625)"/>
       <path d="M 2034 4250 
Q 1547 4250 1301 3770 
Q 1056 3291 1056 2328 
Q 1056 1369 1301 889 
Q 1547 409 2034 409 
Q 2525 409 2770 889 
Q 3016 1369 3016 2328 
Q 3016 3291 2770 3770 
Q 2525 4250 2034 4250 
z
M 2034 4750 
Q 2819 4750 3233 4129 
Q 3647 3509 3647 2328 
Q 3647 1150 3233 529 
Q 2819 -91 2034 -91 
Q 1250 -91 836 529 
Q 422 1150 422 2328 
Q 422 3509 836 4129 
Q 1250 4750 2034 4750 
z
" id="DejaVuSans-30" transform="scale(0.015625)"/>
       <path d="M 684 794 
L 1344 794 
L 1344 0 
L 684 0 
L 684 794 
z
" id="DejaVuSans-2e" transform="scale(0.015625)"/>
       <path d="M 2597 2516 
Q 3050 2419 3304 2112 
Q 3559 1806 3559 1356 
Q 3559 666 3084 287 
Q 2609 -91 1734 -91 
Q 1441 -91 1130 -33 
Q 819 25 488 141 
L 488 750 
Q 750 597 1062 519 
Q 1375 441 1716 441 
Q 2309 441 2620 675 
Q 2931 909 2931 1356 
Q 2931 1769 2642 2001 
Q 2353 2234 1838 2234 
L 1294 2234 
L 1294 2753 
L 1863 2753 
Q 2328 2753 2575 2939 
Q 2822 3125 2822 3475 
Q 2822 3834 2567 4026 
Q 2313 4219 1838 4219 
Q 1578 4219 1281 4162 
Q 984 4106 628 3988 
L 628 4550 
Q 988 4650 1302 4700 
Q 1616 4750 1894 4750 
Q 2613 4750 3031 4423 
Q 3450 4097 3450 3541 
Q 3450 3153 3228 2886 
Q 3006 2619 2597 2516 
z
" id="DejaVuSans-33" transform="scale(0.015625)"/>
      </defs>
      <use xlink:href="#DejaVuSans-2212"/>
      <use x="83.789062" xlink:href="#DejaVuSans-30"/>
      <use x="147.412109" xlink:href="#DejaVuSans-2e"/>
      <use x="179.199219" xlink:href="#DejaVuSans-30"/>
      <use x="242.822266" xlink:href="#DejaVuSans-33"/>
      <use x="306.445312" xlink:href="#DejaVuSans-30"/>
     </g>
    </g>
   </g>
   <g id="xtick_2">
    <g id="line2d_3">
     <path d="M 133.548634 455.846113 
L 129.069368 459.773873 
" style="fill:none;stroke:#000000;stroke-linecap:square;stroke-width:0.8;"/>
    </g>
    <g id="text_3">
     <!-- −0.025 -->
     <g transform="translate(106.064782 480.60945)scale(0.1 -0.1)">
      <defs>
       <path d="M 1228 531 
L 3431 531 
L 3431 0 
L 469 0 
L 469 531 
Q 828 903 1448 1529 
Q 2069 2156 2228 2338 
Q 2531 2678 2651 2914 
Q 2772 3150 2772 3378 
Q 2772 3750 2511 3984 
Q 2250 4219 1831 4219 
Q 1534 4219 1204 4116 
Q 875 4013 500 3803 
L 500 4441 
Q 881 4594 1212 4672 
Q 1544 4750 1819 4750 
Q 2544 4750 2975 4387 
Q 3406 4025 3406 3419 
Q 3406 3131 3298 2873 
Q 3191 2616 2906 2266 
Q 2828 2175 2409 1742 
Q 1991 1309 1228 531 
z
" id="DejaVuSans-32" transform="scale(0.015625)"/>
       <path d="M 691 4666 
L 3169 4666 
L 3169 4134 
L 1269 4134 
L 1269 2991 
Q 1406 3038 1543 3061 
Q 1681 3084 1819 3084 
Q 2600 3084 3056 2656 
Q 3513 2228 3513 1497 
Q 3513 744 3044 326 
Q 2575 -91 1722 -91 
Q 1428 -91 1123 -41 
Q 819 9 494 109 
L 494 744 
Q 775 591 1075 516 
Q 1375 441 1709 441 
Q 2250 441 2565 725 
Q 2881 1009 2881 1497 
Q 2881 1984 2565 2268 
Q 2250 2553 1709 2553 
Q 1456 2553 1204 2497 
Q 953 2441 691 2322 
L 691 4666 
z
" id="DejaVuSans-35" transform="scale(0.015625)"/>
      </defs>
      <use xlink:href="#DejaVuSans-2212"/>
      <use x="83.789062" xlink:href="#DejaVuSans-30"/>
      <use x="147.412109" xlink:href="#DejaVuSans-2e"/>
      <use x="179.199219" xlink:href="#DejaVuSans-30"/>
      <use x="242.822266" xlink:href="#DejaVuSans-32"/>
      <use x="306.445312" xlink:href="#DejaVuSans-35"/>
     </g>
    </g>
   </g>
   <g id="xtick_3">
    <g id="line2d_4">
     <path d="M 166.354541 466.549934 
L 161.920241 470.524236 
" style="fill:none;stroke:#000000;stroke-linecap:square;stroke-width:0.8;"/>
    </g>
    <g id="text_4">
     <!-- −0.020 -->
     <g transform="translate(138.903528 491.442874)scale(0.1 -0.1)">
      <use xlink:href="#DejaVuSans-2212"/>
      <use x="83.789062" xlink:href="#DejaVuSans-30"/>
      <use x="147.412109" xlink:href="#DejaVuSans-2e"/>
      <use x="179.199219" xlink:href="#DejaVuSans-30"/>
      <use x="242.822266" xlink:href="#DejaVuSans-32"/>
      <use x="306.445312" xlink:href="#DejaVuSans-30"/>
     </g>
    </g>
   </g>
   <g id="xtick_4">
    <g id="line2d_5">
     <path d="M 199.549914 477.380829 
L 195.161968 481.402506 
" style="fill:none;stroke:#000000;stroke-linecap:square;stroke-width:0.8;"/>
    </g>
    <g id="text_5">
     <!-- −0.015 -->
     <g transform="translate(172.133158 502.40525)scale(0.1 -0.1)">
      <defs>
       <path d="M 794 531 
L 1825 531 
L 1825 4091 
L 703 3866 
L 703 4441 
L 1819 4666 
L 2450 4666 
L 2450 531 
L 3481 531 
L 3481 0 
L 794 0 
L 794 531 
z
" id="DejaVuSans-31" transform="scale(0.015625)"/>
      </defs>
      <use xlink:href="#DejaVuSans-2212"/>
      <use x="83.789062" xlink:href="#DejaVuSans-30"/>
      <use x="147.412109" xlink:href="#DejaVuSans-2e"/>
      <use x="179.199219" xlink:href="#DejaVuSans-30"/>
      <use x="242.822266" xlink:href="#DejaVuSans-31"/>
      <use x="306.445312" xlink:href="#DejaVuSans-35"/>
     </g>
    </g>
   </g>
   <g id="xtick_5">
    <g id="line2d_6">
     <path d="M 233.14173 488.341075 
L 228.801569 492.410978 
" style="fill:none;stroke:#000000;stroke-linecap:square;stroke-width:0.8;"/>
    </g>
    <g id="text_6">
     <!-- −0.010 -->
     <g transform="translate(205.760694 513.498894)scale(0.1 -0.1)">
      <use xlink:href="#DejaVuSans-2212"/>
      <use x="83.789062" xlink:href="#DejaVuSans-30"/>
      <use x="147.412109" xlink:href="#DejaVuSans-2e"/>
      <use x="179.199219" xlink:href="#DejaVuSans-30"/>
      <use x="242.822266" xlink:href="#DejaVuSans-31"/>
      <use x="306.445312" xlink:href="#DejaVuSans-30"/>
     </g>
    </g>
   </g>
   <g id="xtick_6">
    <g id="line2d_7">
     <path d="M 267.137135 499.433002 
L 262.846227 503.552004 
" style="fill:none;stroke:#000000;stroke-linecap:square;stroke-width:0.8;"/>
    </g>
    <g id="text_7">
     <!-- −0.005 -->
     <g transform="translate(239.793325 524.726178)scale(0.1 -0.1)">
      <use xlink:href="#DejaVuSans-2212"/>
      <use x="83.789062" xlink:href="#DejaVuSans-30"/>
      <use x="147.412109" xlink:href="#DejaVuSans-2e"/>
      <use x="179.199219" xlink:href="#DejaVuSans-30"/>
      <use x="242.822266" xlink:href="#DejaVuSans-30"/>
      <use x="306.445312" xlink:href="#DejaVuSans-35"/>
     </g>
    </g>
   </g>
   <g id="xtick_7">
    <g id="line2d_8">
     <path d="M 301.543446 510.658998 
L 297.303305 514.827994 
" style="fill:none;stroke:#000000;stroke-linecap:square;stroke-width:0.8;"/>
    </g>
    <g id="text_8">
     <!-- 0.000 -->
     <g transform="translate(278.428259 536.089532)scale(0.1 -0.1)">
      <use xlink:href="#DejaVuSans-30"/>
      <use x="63.623047" xlink:href="#DejaVuSans-2e"/>
      <use x="95.410156" xlink:href="#DejaVuSans-30"/>
      <use x="159.033203" xlink:href="#DejaVuSans-30"/>
      <use x="222.65625" xlink:href="#DejaVuSans-30"/>
     </g>
    </g>
   </g>
   <g id="xtick_8">
    <g id="line2d_9">
     <path d="M 336.368157 522.021509 
L 332.180341 526.241414 
" style="fill:none;stroke:#000000;stroke-linecap:square;stroke-width:0.8;"/>
    </g>
    <g id="text_9">
     <!-- 0.005 -->
     <g transform="translate(313.293353 547.591443)scale(0.1 -0.1)">
      <use xlink:href="#DejaVuSans-30"/>
      <use x="63.623047" xlink:href="#DejaVuSans-2e"/>
      <use x="95.410156" xlink:href="#DejaVuSans-30"/>
      <use x="159.033203" xlink:href="#DejaVuSans-30"/>
      <use x="222.65625" xlink:href="#DejaVuSans-35"/>
     </g>
    </g>
   </g>
  </g>
  <g id="axis3d_2">
   <g id="line2d_10">
    <path d="M 518.54341 369.738455 
L 360.623546 531.803085 
" style="fill:none;stroke:#000000;stroke-linecap:square;stroke-width:0.8;"/>
   </g>
   <g id="text_10">
    <!-- y (m) -->
    <g transform="translate(462.753334 486.601399)rotate(-45.742112)scale(0.1 -0.1)">
     <defs>
      <path d="M 2059 -325 
Q 1816 -950 1584 -1140 
Q 1353 -1331 966 -1331 
L 506 -1331 
L 506 -850 
L 844 -850 
Q 1081 -850 1212 -737 
Q 1344 -625 1503 -206 
L 1606 56 
L 191 3500 
L 800 3500 
L 1894 763 
L 2988 3500 
L 3597 3500 
L 2059 -325 
z
" id="DejaVuSans-79" transform="scale(0.015625)"/>
     </defs>
     <use xlink:href="#DejaVuSans-79"/>
     <use x="59.179688" xlink:href="#DejaVuSans-20"/>
     <use x="90.966797" xlink:href="#DejaVuSans-28"/>
     <use x="129.980469" xlink:href="#DejaVuSans-6d"/>
     <use x="227.392578" xlink:href="#DejaVuSans-29"/>
    </g>
   </g>
   <g id="Line3DCollection_2">
    <path d="M 58.197968 206.494049 
L 68.713446 430.227407 
L 365.483486 526.815591 
" style="fill:none;stroke:#b0b0b0;stroke-width:0.8;"/>
    <path d="M 82.048441 189.089059 
L 91.404902 411.206979 
L 386.061787 505.697192 
" style="fill:none;stroke:#b0b0b0;stroke-width:0.8;"/>
    <path d="M 105.374108 172.06705 
L 113.618747 392.586894 
L 406.18408 485.046769 
" style="fill:none;stroke:#b0b0b0;stroke-width:0.8;"/>
    <path d="M 128.192103 155.415516 
L 135.369903 374.354643 
L 425.865355 464.848939 
" style="fill:none;stroke:#b0b0b0;stroke-width:0.8;"/>
    <path d="M 150.518821 139.122494 
L 156.672677 356.498236 
L 445.119954 445.088984 
" style="fill:none;stroke:#b0b0b0;stroke-width:0.8;"/>
    <path d="M 172.369959 123.176529 
L 177.540792 339.006168 
L 463.961603 425.752817 
" style="fill:none;stroke:#b0b0b0;stroke-width:0.8;"/>
    <path d="M 193.760552 107.566649 
L 197.987416 321.867402 
L 482.403446 406.826949 
" style="fill:none;stroke:#b0b0b0;stroke-width:0.8;"/>
    <path d="M 214.705009 92.282338 
L 218.025193 305.071341 
L 500.458076 388.298458 
" style="fill:none;stroke:#b0b0b0;stroke-width:0.8;"/>
   </g>
   <g id="xtick_9">
    <g id="line2d_11">
     <path d="M 362.982176 526.001503 
L 370.492596 528.44588 
" style="fill:none;stroke:#000000;stroke-linecap:square;stroke-width:0.8;"/>
    </g>
    <g id="text_11">
     <!-- −0.030 -->
     <g transform="translate(359.897237 547.879693)scale(0.1 -0.1)">
      <use xlink:href="#DejaVuSans-2212"/>
      <use x="83.789062" xlink:href="#DejaVuSans-30"/>
      <use x="147.412109" xlink:href="#DejaVuSans-2e"/>
      <use x="179.199219" xlink:href="#DejaVuSans-30"/>
      <use x="242.822266" xlink:href="#DejaVuSans-33"/>
      <use x="306.445312" xlink:href="#DejaVuSans-30"/>
     </g>
    </g>
   </g>
   <g id="xtick_10">
    <g id="line2d_12">
     <path d="M 383.579702 504.901239 
L 391.032326 507.291138 
" style="fill:none;stroke:#000000;stroke-linecap:square;stroke-width:0.8;"/>
    </g>
    <g id="text_12">
     <!-- −0.025 -->
     <g transform="translate(380.33691 526.604073)scale(0.1 -0.1)">
      <use xlink:href="#DejaVuSans-2212"/>
      <use x="83.789062" xlink:href="#DejaVuSans-30"/>
      <use x="147.412109" xlink:href="#DejaVuSans-2e"/>
      <use x="179.199219" xlink:href="#DejaVuSans-30"/>
      <use x="242.822266" xlink:href="#DejaVuSans-32"/>
      <use x="306.445312" xlink:href="#DejaVuSans-35"/>
     </g>
    </g>
   </g>
   <g id="xtick_11">
    <g id="line2d_13">
     <path d="M 403.720986 484.268354 
L 411.116518 486.605575 
" style="fill:none;stroke:#000000;stroke-linecap:square;stroke-width:0.8;"/>
    </g>
    <g id="text_13">
     <!-- −0.020 -->
     <g transform="translate(400.323514 505.800054)scale(0.1 -0.1)">
      <use xlink:href="#DejaVuSans-2212"/>
      <use x="83.789062" xlink:href="#DejaVuSans-30"/>
      <use x="147.412109" xlink:href="#DejaVuSans-2e"/>
      <use x="179.199219" xlink:href="#DejaVuSans-30"/>
      <use x="242.822266" xlink:href="#DejaVuSans-32"/>
      <use x="306.445312" xlink:href="#DejaVuSans-30"/>
     </g>
    </g>
   </g>
   <g id="xtick_12">
    <g id="line2d_14">
     <path d="M 423.42102 464.087487 
L 430.760158 466.373754 
" style="fill:none;stroke:#000000;stroke-linecap:square;stroke-width:0.8;"/>
    </g>
    <g id="text_14">
     <!-- −0.015 -->
     <g transform="translate(419.871945 485.452126)scale(0.1 -0.1)">
      <use xlink:href="#DejaVuSans-2212"/>
      <use x="83.789062" xlink:href="#DejaVuSans-30"/>
      <use x="147.412109" xlink:href="#DejaVuSans-2e"/>
      <use x="179.199219" xlink:href="#DejaVuSans-30"/>
      <use x="242.822266" xlink:href="#DejaVuSans-31"/>
      <use x="306.445312" xlink:href="#DejaVuSans-35"/>
     </g>
    </g>
   </g>
   <g id="xtick_13">
    <g id="line2d_15">
     <path d="M 442.694148 444.343947 
L 449.977586 446.580908 
" style="fill:none;stroke:#000000;stroke-linecap:square;stroke-width:0.8;"/>
    </g>
    <g id="text_15">
     <!-- −0.010 -->
     <g transform="translate(438.996459 465.545454)scale(0.1 -0.1)">
      <use xlink:href="#DejaVuSans-2212"/>
      <use x="83.789062" xlink:href="#DejaVuSans-30"/>
      <use x="147.412109" xlink:href="#DejaVuSans-2e"/>
      <use x="179.199219" xlink:href="#DejaVuSans-30"/>
      <use x="242.822266" xlink:href="#DejaVuSans-31"/>
      <use x="306.445312" xlink:href="#DejaVuSans-30"/>
     </g>
    </g>
   </g>
   <g id="xtick_14">
    <g id="line2d_16">
     <path d="M 461.554098 425.023669 
L 468.782525 427.212902 
" style="fill:none;stroke:#000000;stroke-linecap:square;stroke-width:0.8;"/>
    </g>
    <g id="text_16">
     <!-- −0.005 -->
     <g transform="translate(457.710695 446.065839)scale(0.1 -0.1)">
      <use xlink:href="#DejaVuSans-2212"/>
      <use x="83.789062" xlink:href="#DejaVuSans-30"/>
      <use x="147.412109" xlink:href="#DejaVuSans-2e"/>
      <use x="179.199219" xlink:href="#DejaVuSans-30"/>
      <use x="242.822266" xlink:href="#DejaVuSans-30"/>
      <use x="306.445312" xlink:href="#DejaVuSans-35"/>
     </g>
    </g>
   </g>
   <g id="xtick_15">
    <g id="line2d_17">
     <path d="M 480.014016 406.113188 
L 487.188113 408.256204 
" style="fill:none;stroke:#000000;stroke-linecap:square;stroke-width:0.8;"/>
    </g>
    <g id="text_17">
     <!-- 0.000 -->
     <g transform="translate(480.21756 426.999684)scale(0.1 -0.1)">
      <use xlink:href="#DejaVuSans-30"/>
      <use x="63.623047" xlink:href="#DejaVuSans-2e"/>
      <use x="95.410156" xlink:href="#DejaVuSans-30"/>
      <use x="159.033203" xlink:href="#DejaVuSans-30"/>
      <use x="222.65625" xlink:href="#DejaVuSans-30"/>
     </g>
    </g>
   </g>
   <g id="xtick_16">
    <g id="line2d_18">
     <path d="M 498.086495 387.599602 
L 505.206939 389.697849 
" style="fill:none;stroke:#000000;stroke-linecap:square;stroke-width:0.8;"/>
    </g>
    <g id="text_18">
     <!-- 0.005 -->
     <g transform="translate(498.149881 408.333964)scale(0.1 -0.1)">
      <use xlink:href="#DejaVuSans-30"/>
      <use x="63.623047" xlink:href="#DejaVuSans-2e"/>
      <use x="95.410156" xlink:href="#DejaVuSans-30"/>
      <use x="159.033203" xlink:href="#DejaVuSans-30"/>
      <use x="222.65625" xlink:href="#DejaVuSans-35"/>
     </g>
    </g>
   </g>
  </g>
  <g id="axis3d_3">
   <g id="line2d_19">
    <path d="M 518.54341 369.738455 
L 528.550827 151.202044 
" style="fill:none;stroke:#000000;stroke-linecap:square;stroke-width:0.8;"/>
   </g>
   <g id="text_19">
    <!-- z (m) -->
    <g transform="translate(566.10943 270.534657)rotate(-87.378092)scale(0.1 -0.1)">
     <defs>
      <path d="M 353 3500 
L 3084 3500 
L 3084 2975 
L 922 459 
L 3084 459 
L 3084 0 
L 275 0 
L 275 525 
L 2438 3041 
L 353 3041 
L 353 3500 
z
" id="DejaVuSans-7a" transform="scale(0.015625)"/>
     </defs>
     <use xlink:href="#DejaVuSans-7a"/>
     <use x="52.490234" xlink:href="#DejaVuSans-20"/>
     <use x="84.277344" xlink:href="#DejaVuSans-28"/>
     <use x="123.291016" xlink:href="#DejaVuSans-6d"/>
     <use x="220.703125" xlink:href="#DejaVuSans-29"/>
    </g>
   </g>
   <g id="Line3DCollection_3">
    <path d="M 519.644011 345.704138 
L 237.849697 264.95194 
L 62.173092 410.10568 
" style="fill:none;stroke:#b0b0b0;stroke-width:0.8;"/>
    <path d="M 520.684074 322.991837 
L 237.59686 242.964543 
L 61.052721 386.840449 
" style="fill:none;stroke:#b0b0b0;stroke-width:0.8;"/>
    <path d="M 521.733818 300.068107 
L 237.341781 220.782251 
L 59.921522 363.350377 
" style="fill:none;stroke:#b0b0b0;stroke-width:0.8;"/>
    <path d="M 522.79338 276.929982 
L 237.084431 198.402462 
L 58.779339 339.632187 
" style="fill:none;stroke:#b0b0b0;stroke-width:0.8;"/>
    <path d="M 523.862898 253.574439 
L 236.82478 175.822527 
L 57.626008 315.682541 
" style="fill:none;stroke:#b0b0b0;stroke-width:0.8;"/>
    <path d="M 524.942513 229.9984 
L 236.562796 153.039749 
L 56.461368 291.498034 
" style="fill:none;stroke:#b0b0b0;stroke-width:0.8;"/>
    <path d="M 526.032369 206.198728 
L 236.298448 130.051382 
L 55.285251 267.075194 
" style="fill:none;stroke:#b0b0b0;stroke-width:0.8;"/>
    <path d="M 527.132612 182.172225 
L 236.031704 106.854631 
L 54.097486 242.410481 
" style="fill:none;stroke:#b0b0b0;stroke-width:0.8;"/>
    <path d="M 528.243392 157.915634 
L 235.762531 83.446649 
L 52.897899 217.500283 
" style="fill:none;stroke:#b0b0b0;stroke-width:0.8;"/>
   </g>
   <g id="xtick_17">
    <g id="line2d_20">
     <path d="M 517.278436 345.026249 
L 524.380816 347.061538 
" style="fill:none;stroke:#000000;stroke-linecap:square;stroke-width:0.8;"/>
    </g>
    <g id="text_20">
     <!-- 0.94 -->
     <g transform="translate(526.875314 350.717324)scale(0.1 -0.1)">
      <defs>
       <path d="M 703 97 
L 703 672 
Q 941 559 1184 500 
Q 1428 441 1663 441 
Q 2288 441 2617 861 
Q 2947 1281 2994 2138 
Q 2813 1869 2534 1725 
Q 2256 1581 1919 1581 
Q 1219 1581 811 2004 
Q 403 2428 403 3163 
Q 403 3881 828 4315 
Q 1253 4750 1959 4750 
Q 2769 4750 3195 4129 
Q 3622 3509 3622 2328 
Q 3622 1225 3098 567 
Q 2575 -91 1691 -91 
Q 1453 -91 1209 -44 
Q 966 3 703 97 
z
M 1959 2075 
Q 2384 2075 2632 2365 
Q 2881 2656 2881 3163 
Q 2881 3666 2632 3958 
Q 2384 4250 1959 4250 
Q 1534 4250 1286 3958 
Q 1038 3666 1038 3163 
Q 1038 2656 1286 2365 
Q 1534 2075 1959 2075 
z
" id="DejaVuSans-39" transform="scale(0.015625)"/>
       <path d="M 2419 4116 
L 825 1625 
L 2419 1625 
L 2419 4116 
z
M 2253 4666 
L 3047 4666 
L 3047 1625 
L 3713 1625 
L 3713 1100 
L 3047 1100 
L 3047 0 
L 2419 0 
L 2419 1100 
L 313 1100 
L 313 1709 
L 2253 4666 
z
" id="DejaVuSans-34" transform="scale(0.015625)"/>
      </defs>
      <use xlink:href="#DejaVuSans-30"/>
      <use x="63.623047" xlink:href="#DejaVuSans-2e"/>
      <use x="95.410156" xlink:href="#DejaVuSans-39"/>
      <use x="159.033203" xlink:href="#DejaVuSans-34"/>
     </g>
    </g>
   </g>
   <g id="xtick_18">
    <g id="line2d_21">
     <path d="M 518.307127 322.319887 
L 525.443674 324.337352 
" style="fill:none;stroke:#000000;stroke-linecap:square;stroke-width:0.8;"/>
    </g>
    <g id="text_21">
     <!-- 0.96 -->
     <g transform="translate(527.998741 328.027686)scale(0.1 -0.1)">
      <defs>
       <path d="M 2113 2584 
Q 1688 2584 1439 2293 
Q 1191 2003 1191 1497 
Q 1191 994 1439 701 
Q 1688 409 2113 409 
Q 2538 409 2786 701 
Q 3034 994 3034 1497 
Q 3034 2003 2786 2293 
Q 2538 2584 2113 2584 
z
M 3366 4563 
L 3366 3988 
Q 3128 4100 2886 4159 
Q 2644 4219 2406 4219 
Q 1781 4219 1451 3797 
Q 1122 3375 1075 2522 
Q 1259 2794 1537 2939 
Q 1816 3084 2150 3084 
Q 2853 3084 3261 2657 
Q 3669 2231 3669 1497 
Q 3669 778 3244 343 
Q 2819 -91 2113 -91 
Q 1303 -91 875 529 
Q 447 1150 447 2328 
Q 447 3434 972 4092 
Q 1497 4750 2381 4750 
Q 2619 4750 2861 4703 
Q 3103 4656 3366 4563 
z
" id="DejaVuSans-36" transform="scale(0.015625)"/>
      </defs>
      <use xlink:href="#DejaVuSans-30"/>
      <use x="63.623047" xlink:href="#DejaVuSans-2e"/>
      <use x="95.410156" xlink:href="#DejaVuSans-39"/>
      <use x="159.033203" xlink:href="#DejaVuSans-36"/>
     </g>
    </g>
   </g>
   <g id="xtick_19">
    <g id="line2d_22">
     <path d="M 519.345391 299.402236 
L 526.516434 301.401456 
" style="fill:none;stroke:#000000;stroke-linecap:square;stroke-width:0.8;"/>
    </g>
    <g id="text_22">
     <!-- 0.98 -->
     <g transform="translate(529.13261 305.127154)scale(0.1 -0.1)">
      <defs>
       <path d="M 2034 2216 
Q 1584 2216 1326 1975 
Q 1069 1734 1069 1313 
Q 1069 891 1326 650 
Q 1584 409 2034 409 
Q 2484 409 2743 651 
Q 3003 894 3003 1313 
Q 3003 1734 2745 1975 
Q 2488 2216 2034 2216 
z
M 1403 2484 
Q 997 2584 770 2862 
Q 544 3141 544 3541 
Q 544 4100 942 4425 
Q 1341 4750 2034 4750 
Q 2731 4750 3128 4425 
Q 3525 4100 3525 3541 
Q 3525 3141 3298 2862 
Q 3072 2584 2669 2484 
Q 3125 2378 3379 2068 
Q 3634 1759 3634 1313 
Q 3634 634 3220 271 
Q 2806 -91 2034 -91 
Q 1263 -91 848 271 
Q 434 634 434 1313 
Q 434 1759 690 2068 
Q 947 2378 1403 2484 
z
M 1172 3481 
Q 1172 3119 1398 2916 
Q 1625 2713 2034 2713 
Q 2441 2713 2670 2916 
Q 2900 3119 2900 3481 
Q 2900 3844 2670 4047 
Q 2441 4250 2034 4250 
Q 1625 4250 1398 4047 
Q 1172 3844 1172 3481 
z
" id="DejaVuSans-38" transform="scale(0.015625)"/>
      </defs>
      <use xlink:href="#DejaVuSans-30"/>
      <use x="63.623047" xlink:href="#DejaVuSans-2e"/>
      <use x="95.410156" xlink:href="#DejaVuSans-39"/>
      <use x="159.033203" xlink:href="#DejaVuSans-38"/>
     </g>
    </g>
   </g>
   <g id="xtick_20">
    <g id="line2d_23">
     <path d="M 520.393361 276.270333 
L 527.599235 278.250878 
" style="fill:none;stroke:#000000;stroke-linecap:square;stroke-width:0.8;"/>
    </g>
    <g id="text_23">
     <!-- 1.00 -->
     <g transform="translate(530.277067 282.012772)scale(0.1 -0.1)">
      <use xlink:href="#DejaVuSans-31"/>
      <use x="63.623047" xlink:href="#DejaVuSans-2e"/>
      <use x="95.410156" xlink:href="#DejaVuSans-30"/>
      <use x="159.033203" xlink:href="#DejaVuSans-30"/>
     </g>
    </g>
   </g>
   <g id="xtick_21">
    <g id="line2d_24">
     <path d="M 521.451174 252.921159 
L 528.692218 254.882589 
" style="fill:none;stroke:#000000;stroke-linecap:square;stroke-width:0.8;"/>
    </g>
    <g id="text_24">
     <!-- 1.02 -->
     <g transform="translate(531.432261 258.681532)scale(0.1 -0.1)">
      <use xlink:href="#DejaVuSans-31"/>
      <use x="63.623047" xlink:href="#DejaVuSans-2e"/>
      <use x="95.410156" xlink:href="#DejaVuSans-30"/>
      <use x="159.033203" xlink:href="#DejaVuSans-32"/>
     </g>
    </g>
   </g>
   <g id="xtick_22">
    <g id="line2d_25">
     <path d="M 522.51897 229.35164 
L 529.795529 231.293504 
" style="fill:none;stroke:#000000;stroke-linecap:square;stroke-width:0.8;"/>
    </g>
    <g id="text_25">
     <!-- 1.04 -->
     <g transform="translate(532.598345 235.130368)scale(0.1 -0.1)">
      <use xlink:href="#DejaVuSans-31"/>
      <use x="63.623047" xlink:href="#DejaVuSans-2e"/>
      <use x="95.410156" xlink:href="#DejaVuSans-30"/>
      <use x="159.033203" xlink:href="#DejaVuSans-34"/>
     </g>
    </g>
   </g>
   <g id="xtick_23">
    <g id="line2d_26">
     <path d="M 523.59689 205.55864 
L 530.909314 207.480478 
" style="fill:none;stroke:#000000;stroke-linecap:square;stroke-width:0.8;"/>
    </g>
    <g id="text_26">
     <!-- 1.06 -->
     <g transform="translate(533.775472 211.356154)scale(0.1 -0.1)">
      <use xlink:href="#DejaVuSans-31"/>
      <use x="63.623047" xlink:href="#DejaVuSans-2e"/>
      <use x="95.410156" xlink:href="#DejaVuSans-30"/>
      <use x="159.033203" xlink:href="#DejaVuSans-36"/>
     </g>
    </g>
   </g>
   <g id="xtick_24">
    <g id="line2d_27">
     <path d="M 524.68508 181.538966 
L 532.033723 183.440307 
" style="fill:none;stroke:#000000;stroke-linecap:square;stroke-width:0.8;"/>
    </g>
    <g id="text_27">
     <!-- 1.08 -->
     <g transform="translate(534.963801 187.355708)scale(0.1 -0.1)">
      <use xlink:href="#DejaVuSans-31"/>
      <use x="63.623047" xlink:href="#DejaVuSans-2e"/>
      <use x="95.410156" xlink:href="#DejaVuSans-30"/>
      <use x="159.033203" xlink:href="#DejaVuSans-38"/>
     </g>
    </g>
   </g>
   <g id="xtick_25">
    <g id="line2d_28">
     <path d="M 525.783686 157.289364 
L 533.168908 159.169727 
" style="fill:none;stroke:#000000;stroke-linecap:square;stroke-width:0.8;"/>
    </g>
    <g id="text_28">
     <!-- 1.10 -->
     <g transform="translate(536.163492 163.125785)scale(0.1 -0.1)">
      <use xlink:href="#DejaVuSans-31"/>
      <use x="63.623047" xlink:href="#DejaVuSans-2e"/>
      <use x="95.410156" xlink:href="#DejaVuSans-31"/>
      <use x="159.033203" xlink:href="#DejaVuSans-30"/>
     </g>
    </g>
   </g>
  </g>
  <g id="axes_1">
   <g id="line2d_29">
    <path clip-path="url(#p2fd1bf8c42)" d="M 427.171364 296.271349 
L 427.177528 296.040123 
L 426.719004 309.858547 
L 426.27199 315.877432 
L 425.653731 320.655963 
L 425.043345 323.937285 
L 424.233871 327.267846 
L 423.198889 330.641745 
L 421.917687 334.055759 
L 420.369956 337.490782 
L 418.545604 340.949328 
L 416.432128 344.419826 
L 414.02106 347.898369 
L 411.303621 351.382895 
L 408.268292 354.866946 
L 404.906119 358.350505 
L 401.207352 361.82995 
L 397.165071 365.304698 
L 392.77609 368.774792 
L 388.040176 372.238801 
L 382.960542 375.696837 
L 377.542221 379.14768 
L 371.791781 382.590006 
L 365.715734 386.022499 
L 359.320374 389.443765 
L 352.61208 392.852342 
L 349.090618 394.414605 
L 345.441711 395.836432 
L 341.66736 397.117603 
L 337.770395 398.25776 
L 329.642522 400.168152 
L 321.149334 401.728306 
L 312.335134 402.931866 
L 303.27848 403.881875 
L 294.043542 404.607299 
L 279.987374 405.33116 
L 270.565283 405.634338 
L 256.468443 405.85079 
L 242.524646 405.849478 
L 224.352141 405.587301 
L 206.886289 405.083503 
L 190.388261 404.382936 
L 175.105643 403.501255 
L 161.234366 402.44918 
L 151.846624 401.551729 
L 143.387578 400.560368 
L 135.905324 399.474153 
L 129.445177 398.288408 
L 124.044191 397.000484 
L 121.044704 396.084246 
L 118.531105 395.121871 
L 116.505062 394.113387 
L 114.965884 393.059226 
L 113.91144 391.959868 
L 113.338781 390.815363 
L 113.231848 390.226323 
L 113.24368 389.626222 
L 113.373571 389.015168 
L 113.984816 387.759843 
L 115.058559 386.461166 
L 116.586147 385.120202 
L 118.557568 383.737692 
L 120.960814 382.315521 
L 123.782868 380.854808 
L 128.769099 378.595861 
L 134.612857 376.260487 
L 141.258962 373.855617 
L 148.650368 371.387446 
L 159.560717 368.011298 
L 171.539258 364.554786 
L 187.77573 360.151489 
L 205.126719 355.693651 
L 226.991203 350.327749 
L 253.296925 344.129763 
L 283.481704 337.252771 
L 323.433362 328.393186 
L 422.974106 306.455488 
L 437.858701 302.898625 
L 446.087266 300.739742 
L 450.806531 299.308021 
L 453.178242 298.387245 
L 454.093736 297.813787 
L 454.223885 297.546346 
L 454.06665 297.331519 
L 453.449094 297.120153 
L 452.098027 296.963227 
L 449.316321 296.911143 
L 444.061307 297.088353 
L 434.286185 297.695686 
L 418.4827 298.683598 
L 415.570568 298.664183 
L 414.952647 298.503113 
L 414.967337 298.381418 
L 415.272517 298.192986 
L 416.371334 297.81498 
L 419.209815 297.102662 
L 425.276865 295.832454 
L 437.551042 293.520733 
L 447.990132 291.531464 
L 447.875901 291.520801 
L 446.203032 291.697479 
L 441.762968 292.22167 
L 443.220307 291.951209 
L 444.145331 291.803752 
L 437.048017 293.077547 
L 433.920386 293.698719 
L 433.920386 293.698719 
" style="fill:none;stroke:#1f77b4;stroke-linecap:square;stroke-opacity:0.7;stroke-width:1.5;"/>
   </g>
   <g id="line2d_30">
    <path clip-path="url(#p2fd1bf8c42)" d="M 427.171364 296.271349 
L 426.900495 302.641417 
L 426.620392 304.443628 
L 426.247807 305.588957 
L 425.745896 306.42178 
L 425.232329 306.912651 
L 424.696468 307.152831 
L 424.191233 307.174081 
L 423.618401 307.003862 
L 422.982593 306.610725 
L 422.109664 305.773214 
L 421.163451 304.532029 
L 419.951357 302.509556 
L 418.677692 299.938346 
L 417.142914 296.33311 
L 415.143238 290.984737 
L 412.554595 283.302884 
L 410.423456 276.341425 
L 408.970114 270.871482 
L 407.963333 266.265081 
L 407.336824 262.491148 
L 406.969734 259.004385 
L 406.875858 255.844579 
L 407.01777 253.421105 
L 407.36426 251.277261 
L 407.910212 249.42393 
L 408.511702 248.104796 
L 409.240468 246.988269 
L 410.09028 246.067111 
L 411.053824 245.329624 
L 412.121884 244.76091 
L 413.524715 244.277159 
L 415.29568 243.944294 
L 417.435543 243.794819 
L 420.952075 243.819947 
L 423.901426 243.774514 
L 425.328067 243.558535 
L 426.300214 243.190907 
L 426.895694 242.722291 
L 427.214341 242.225241 
L 427.38302 241.609517 
L 427.374755 240.662181 
L 427.120056 239.508763 
L 426.496021 237.846838 
L 425.358592 235.528518 
L 423.341905 231.98109 
L 413.057226 214.515929 
L 410.450983 209.43439 
L 408.430667 204.991481 
L 406.971739 201.243692 
L 405.997381 198.185248 
L 405.312207 195.308033 
L 404.982111 193.073749 
L 404.88486 191.008105 
L 405.030135 189.128474 
L 405.325287 187.769162 
L 405.781269 186.54572 
L 406.39816 185.464033 
L 407.174556 184.528963 
L 408.10751 183.744349 
L 409.1925 183.112814 
L 410.423543 182.635484 
L 411.79336 182.311559 
L 413.687743 182.117613 
L 415.766267 182.148018 
L 418.006026 182.388065 
L 420.868457 182.92764 
L 423.870294 183.707682 
L 427.465911 184.866692 
L 431.56217 186.428811 
L 435.933867 188.34302 
L 440.164866 190.446073 
L 443.34454 192.266651 
L 444.877212 193.349768 
L 445.342121 193.874663 
L 445.308071 194.069767 
L 444.997173 194.13412 
L 444.227555 194.026535 
L 442.478505 193.525626 
L 439.623205 192.471272 
L 435.521986 190.726035 
L 430.194879 188.206473 
L 424.453566 185.233669 
L 418.692617 181.985038 
L 413.79448 178.977398 
L 409.421117 176.028961 
L 406.150769 173.562304 
L 403.876285 171.593727 
L 402.42471 170.089878 
L 401.475948 168.787268 
L 401.093165 167.874441 
L 401.064618 167.266589 
L 401.289058 166.773709 
L 401.770441 166.4005 
L 402.511052 166.150666 
L 403.801953 166.015711 
L 405.495111 166.079972 
L 408.04369 166.418586 
L 411.687442 167.16227 
L 416.6353 168.436618 
L 423.008897 170.33615 
L 430.771124 172.890444 
L 440.425991 176.310767 
L 451.04051 180.304074 
L 459.965651 183.877655 
L 464.080557 185.735257 
L 464.955041 186.30406 
L 464.928538 186.453067 
L 464.524425 186.477651 
L 463.234831 186.294201 
L 459.40365 185.470076 
L 437.245201 180.435326 
L 429.777844 179.018931 
L 423.230694 177.986798 
L 417.774781 177.330029 
L 412.744487 176.948977 
L 408.890452 176.865552 
L 405.555992 177.021524 
L 403.235018 177.340469 
L 401.377314 177.832737 
L 400.251266 178.350074 
L 399.464516 178.974383 
L 399.105997 179.510301 
L 398.951284 180.101559 
L 399.003592 180.745079 
L 399.264546 181.437165 
L 399.936863 182.427948 
L 400.975953 183.485559 
L 402.373829 184.596672 
L 404.608406 186.038643 
L 407.358346 187.511352 
L 410.590309 188.983476 
L 414.264981 190.423379 
L 418.33677 191.799564 
L 422.753698 193.08061 
L 427.457151 194.235846 
L 432.380973 195.236813 
L 437.450527 196.058806 
L 442.582646 196.681774 
L 447.686711 197.090448 
L 452.666482 197.273926 
L 457.422207 197.225223 
L 461.85334 196.941254 
L 465.862989 196.423304 
L 468.708206 195.84487 
L 471.190422 195.127961 
L 473.281147 194.283101 
L 474.961116 193.324736 
L 475.94449 192.542023 
L 476.687825 191.713659 
L 477.189966 190.848411 
L 477.450817 189.955284 
L 477.471194 189.043463 
L 477.2528 188.122244 
L 476.798235 187.201146 
L 476.111019 186.289899 
L 475.19566 185.398213 
L 473.630149 184.25623 
L 471.685949 183.187662 
L 469.3844 182.212248 
L 466.751636 181.347047 
L 463.818293 180.606133 
L 460.618786 180.000327 
L 456.302601 179.44419 
L 451.70846 179.119115 
L 446.920366 179.027861 
L 442.025844 179.168293 
L 437.114233 179.533824 
L 432.274518 180.114619 
L 427.593665 180.899 
L 423.155893 181.873543 
L 419.042218 183.022622 
L 415.330069 184.328535 
L 412.699014 185.473032 
L 410.407823 186.694399 
L 408.490013 187.980867 
L 406.975835 189.319699 
L 406.120714 190.349848 
L 405.515888 191.395253 
L 405.168085 192.449054 
L 405.08197 193.503973 
L 405.260213 194.552319 
L 405.703561 195.586102 
L 406.410963 196.597108 
L 407.379579 197.577146 
L 408.604767 198.518201 
L 410.079989 199.4128 
L 412.42094 200.521704 
L 415.165384 201.522677 
L 418.281437 202.405734 
L 421.73176 203.163699 
L 425.474609 203.791439 
L 430.495377 204.387494 
L 435.807917 204.7697 
L 441.311916 204.935918 
L 446.902059 204.886728 
L 452.469155 204.625434 
L 457.901583 204.157818 
L 463.086686 203.492187 
L 467.912969 202.639777 
L 472.274266 201.614854 
L 475.364298 200.68323 
L 478.055015 199.665818 
L 480.314028 198.578383 
L 482.117434 197.439624 
L 483.160954 196.56446 
L 483.934413 195.681796 
L 484.434926 194.801564 
L 484.660992 193.933959 
L 484.612387 193.08905 
L 484.290251 192.276457 
L 483.697298 191.505118 
L 482.838081 190.783178 
L 481.719191 190.11786 
L 479.838785 189.329771 
L 477.538674 188.666148 
L 474.850399 188.136588 
L 471.809665 187.747772 
L 467.572678 187.465174 
L 462.927807 187.409904 
L 457.962139 187.578465 
L 452.766733 187.96321 
L 447.435115 188.553068 
L 440.989802 189.512824 
L 434.644485 190.722229 
L 429.54664 191.899175 
L 424.715975 193.209423 
L 420.238153 194.632083 
L 416.19542 196.144602 
L 412.666086 197.722873 
L 410.262044 199.015849 
L 408.269153 200.32125 
L 406.719166 201.625043 
L 405.863683 202.592965 
L 405.281614 203.545055 
L 404.979858 204.47438 
L 404.963006 205.373767 
L 405.233216 206.236009 
L 405.790134 207.054009 
L 406.63076 207.82125 
L 407.749377 208.531943 
L 409.137554 209.181411 
L 411.388508 209.946035 
L 414.067282 210.589625 
L 417.137172 211.108559 
L 421.462605 211.578596 
L 426.250153 211.847933 
L 431.407632 211.916224 
L 436.836544 211.7857 
L 442.432784 211.461239 
L 449.216277 210.826117 
L 455.891828 209.938156 
L 461.230983 209.019442 
L 466.245244 207.953139 
L 470.8232 206.755168 
L 474.861133 205.444419 
L 477.641787 204.330393 
L 479.981906 203.174386 
L 481.853144 201.994356 
L 483.235693 200.810791 
L 483.944213 199.934364 
L 484.36784 199.07849 
L 484.50539 198.252763 
L 484.35736 197.466318 
L 483.926108 196.727403 
L 483.216073 196.043299 
L 482.234037 195.420342 
L 480.98911 194.863819 
L 478.940084 194.232649 
L 476.475644 193.735124 
L 473.631591 193.376041 
L 469.602088 193.124878 
L 465.121589 193.091963 
L 460.27655 193.271262 
L 454.108817 193.752347 
L 447.707131 194.50178 
L 441.233221 195.492983 
L 434.847115 196.696019 
L 428.705752 198.077847 
L 422.961752 199.60246 
L 417.762007 201.230951 
L 413.945617 202.637424 
L 410.680434 204.061876 
L 408.037606 205.478244 
L 406.415091 206.587624 
L 405.260954 207.660715 
L 404.716843 208.433002 
L 404.456518 209.170466 
L 404.484692 209.866861 
L 404.803343 210.516177 
L 405.411492 211.112954 
L 406.305122 211.652561 
L 407.477205 212.131322 
L 409.455992 212.670561 
L 411.883251 213.092973 
L 415.496116 213.453228 
L 419.682848 213.625197 
L 424.362287 213.608716 
L 430.503196 213.343401 
L 437.060712 212.818734 
L 443.857726 212.0484 
L 450.708858 211.049684 
L 457.423399 209.842985 
L 463.807692 208.452042 
L 468.735912 207.171675 
L 473.191532 205.799479 
L 477.073814 204.355542 
L 479.707876 203.164959 
L 481.883254 201.959082 
L 483.572893 200.755718 
L 484.509921 199.867045 
L 485.158199 199.000294 
L 485.514995 198.164803 
L 485.579637 197.369292 
L 485.353534 196.621905 
L 484.840305 195.929819 
L 484.045865 195.299147 
L 482.978498 194.73504 
L 481.149059 194.093245 
L 478.882822 193.583741 
L 476.213888 193.210603 
L 472.368615 192.937749 
L 468.031401 192.877038 
L 463.286321 193.020452 
L 457.178487 193.445004 
L 450.768663 194.12097 
L 444.216704 195.02058 
L 436.605148 196.311743 
L 429.265132 197.812089 
L 422.438692 199.463755 
L 417.172686 200.952935 
L 412.593669 202.466418 
L 408.831361 203.961258 
L 406.406071 205.161149 
L 404.975433 206.07279 
L 404.027426 206.92746 
L 403.646145 207.52338 
L 403.554492 208.074877 
L 403.755679 208.577151 
L 404.249714 209.026107 
L 405.033339 209.418502 
L 406.517147 209.849849 
L 408.481657 210.173228 
L 411.569441 210.423013 
L 415.299027 210.500064 
L 420.519164 210.36552 
L 426.418912 209.98851 
L 433.95287 209.25665 
L 441.930824 208.234076 
L 450.06646 206.95086 
L 458.061885 205.441289 
L 464.572595 203.996467 
L 470.563463 202.440914 
L 475.022295 201.080935 
L 478.886846 199.682984 
L 482.067837 198.269474 
L 484.072176 197.145983 
L 485.56706 196.04736 
L 486.343244 195.251042 
L 486.819073 194.487624 
L 486.993278 193.765418 
L 486.86711 193.092002 
L 486.444284 192.474422 
L 485.73083 191.918376 
L 484.735072 191.42861 
L 482.986452 190.88459 
L 480.784081 190.469895 
L 478.161926 190.187038 
L 474.351161 190.018546 
L 470.022112 190.050843 
L 464.262276 190.341057 
L 458.03165 190.883596 
L 450.38024 191.798166 
L 442.560764 192.969699 
L 434.827603 194.345492 
L 427.430939 195.868844 
L 420.613882 197.480016 
L 414.609062 199.116496 
L 409.634569 200.713476 
L 406.342271 202.000795 
L 404.36992 202.984527 
L 403.337252 203.696691 
L 402.813259 204.330627 
L 402.762738 204.748949 
L 403.008568 205.114627 
L 403.54971 205.425196 
L 404.722723 205.750926 
L 406.394839 205.973909 
L 409.148726 206.107224 
L 413.348701 206.054799 
L 418.414381 205.77488 
L 425.239342 205.17303 
L 433.950396 204.150652 
L 443.253602 202.814233 
L 452.725401 201.214435 
L 460.803672 199.642051 
L 468.368469 197.95072 
L 474.213034 196.439043 
L 479.270482 194.900046 
L 482.760337 193.619647 
L 485.502415 192.365319 
L 487.115231 191.39949 
L 488.18866 190.484749 
L 488.633219 189.842721 
L 488.767801 189.246284 
L 488.594786 188.702124 
L 488.119164 188.216078 
L 487.348228 187.792755 
L 485.877384 187.332032 
L 483.925414 186.9945 
L 480.857556 186.749029 
L 477.157865 186.698302 
L 471.993677 186.885414 
L 466.176312 187.32506 
L 458.769409 188.123042 
L 450.936326 189.182307 
L 441.791201 190.64627 
L 432.805034 192.301259 
L 424.351953 194.059684 
L 416.793256 195.831475 
L 410.469783 197.524731 
L 406.195823 198.869283 
L 403.615983 199.871853 
L 402.305489 200.575331 
L 401.836859 201.04012 
L 401.83178 201.327662 
L 402.125166 201.561172 
L 402.976689 201.787216 
L 404.761596 201.932536 
L 407.904979 201.907895 
L 412.833686 201.612105 
L 419.90756 200.941919 
L 429.319381 199.810127 
L 440.967257 198.164702 
L 453.102451 196.212724 
L 463.742817 194.287167 
L 472.441858 192.513504 
L 479.097218 190.96395 
L 483.857946 189.669818 
L 487.572634 188.438198 
L 489.774017 187.486126 
L 490.912753 186.790913 
L 491.394938 186.317051 
L 491.557255 185.890307 
L 491.402333 185.515784 
L 490.935746 185.198414 
L 490.165346 184.941838 
L 489.100933 184.748994 
L 488.695796 184.809265 
L 487.831457 185.281786 
L 486.896565 186.223307 
L 485.892288 187.627577 
L 484.820049 189.492004 
L 483.080479 193.088522 
L 480.494389 199.169618 
L 474.990957 212.207366 
L 472.095207 218.430121 
L 469.917189 222.712065 
L 467.510371 227.097165 
L 464.840299 231.560055 
L 461.878977 236.094483 
L 458.60217 240.697701 
L 454.98433 245.355727 
L 451.009227 250.067494 
L 446.660761 254.82227 
L 441.929181 259.613428 
L 436.808937 264.434196 
L 431.29639 269.273064 
L 425.393713 274.124141 
L 419.103525 278.977 
L 412.432052 283.82425 
L 405.387295 288.659271 
L 397.977785 293.473699 
L 390.214653 298.262681 
L 382.109553 303.020317 
L 373.675591 307.742001 
L 369.339719 310.088154 
L 364.874689 312.277492 
L 360.2834 314.309478 
L 355.56971 316.183309 
L 350.73844 317.897919 
L 345.795377 319.451972 
L 340.761136 320.892778 
L 335.642491 322.218705 
L 330.446727 323.428019 
L 325.181644 324.518883 
L 314.482974 326.374327 
L 303.631958 327.880247 
L 292.698123 329.022271 
L 281.753814 329.866343 
L 270.868712 330.427919 
L 260.10771 330.719161 
L 249.525692 330.796588 
L 239.182023 330.65523 
L 229.115925 330.348 
L 219.371004 329.891582 
L 205.435168 328.965543 
L 192.39912 327.822546 
L 180.341015 326.514597 
L 169.325913 325.075867 
L 159.393367 323.552873 
L 150.584695 321.96369 
L 142.930243 320.328868 
L 136.460723 318.658341 
L 132.819463 317.529265 
L 129.72581 316.387897 
L 127.186303 315.236059 
L 125.206536 314.074957 
L 123.792907 312.902382 
L 122.945729 311.722464 
L 122.735345 311.129109 
L 122.666922 310.533631 
L 122.739759 309.936687 
L 122.952976 309.338961 
L 123.305513 308.741158 
L 124.426354 307.543747 
L 126.091209 306.349004 
L 128.285966 305.162219 
L 130.995074 303.987049 
L 134.199671 302.829302 
L 137.882547 301.689128 
L 144.258261 300.019355 
L 151.599992 298.389046 
L 159.835779 296.79902 
L 168.891867 295.249385 
L 182.108218 293.256433 
L 196.458956 291.356874 
L 211.753728 289.56219 
L 227.800191 287.878739 
L 248.623689 285.930785 
L 274.249564 283.805899 
L 304.240747 281.573028 
L 361.014746 277.649341 
L 417.659505 273.629413 
L 455.492569 270.749704 
L 466.220428 269.703667 
L 471.368249 268.98792 
L 473.836612 268.419931 
L 474.555132 268.087712 
L 474.727797 267.868911 
L 474.662503 267.651946 
L 474.365804 267.436546 
L 473.502257 267.116062 
L 471.609532 266.693505 
L 468.145113 266.174842 
L 462.561445 265.570862 
L 453.124031 264.807168 
L 440.539329 264.020304 
L 420.62797 263.025978 
L 400.098929 261.962635 
L 391.344082 261.314247 
L 385.087934 260.637019 
L 380.931435 259.954003 
L 378.373289 259.310913 
L 376.926688 258.763886 
L 375.894952 258.156538 
L 375.281461 257.485663 
L 375.10408 257.002207 
L 375.110196 256.489391 
L 375.297315 255.94736 
L 375.910737 255.079416 
L 376.912593 254.146513 
L 378.289456 253.149242 
L 380.683228 251.721074 
L 383.679901 250.182656 
L 388.209727 248.110313 
L 394.6746 245.419455 
L 403.413381 242.034166 
L 416.068803 237.382485 
L 440.458702 228.717642 
L 459.729609 221.795591 
L 470.368016 217.757806 
L 477.400497 214.875331 
L 482.499278 212.576963 
L 486.811494 210.381379 
L 489.647625 208.70675 
L 491.910667 207.113471 
L 493.222653 205.977208 
L 494.201358 204.895781 
L 494.847122 203.872907 
L 495.162817 202.912012 
L 495.153461 202.015911 
L 494.825947 201.18653 
L 494.18885 200.425109 
L 493.252239 199.731857 
L 492.027606 199.106257 
L 489.969026 198.375032 
L 487.455009 197.757172 
L 484.522768 197.246836 
L 480.331 196.749882 
L 474.640788 196.341328 
L 468.376589 196.113431 
L 460.556496 196.041996 
L 450.089081 196.193711 
L 437.405653 196.621594 
L 407.523683 197.75663 
L 405.793076 197.586567 
L 405.511482 197.412086 
L 405.644007 197.245178 
L 406.27794 196.976506 
L 408.188486 196.480874 
L 412.426401 195.664916 
L 420.11654 194.433551 
L 434.297918 192.40747 
L 479.577081 186.082565 
L 486.819897 184.821133 
L 490.821904 183.93952 
L 492.941453 183.278163 
L 493.643819 182.898371 
L 493.793303 182.65145 
L 493.622135 182.440713 
L 493.136083 182.269557 
L 492.012174 182.107123 
L 489.876339 182.015232 
L 485.623368 182.095679 
L 479.176704 182.468768 
L 469.22084 183.295499 
L 455.45222 184.677081 
L 435.025607 186.977581 
L 406.263708 190.22553 
L 402.001649 190.507235 
L 400.946871 190.407862 
L 401.003035 190.292073 
L 401.553939 190.072973 
L 403.382631 189.614753 
L 408.258282 188.665544 
L 418.225194 186.995478 
L 433.567257 184.659159 
L 457.318515 181.28786 
L 490.522777 176.592233 
L 494.976369 175.768891 
L 495.517728 175.555896 
L 495.477235 175.539047 
L 494.727027 175.541028 
L 491.713349 175.861264 
L 485.125533 176.817432 
L 473.854017 178.696042 
L 457.585164 181.647915 
L 437.455658 185.543161 
L 417.705106 189.597464 
L 404.52735 192.503845 
L 398.381071 194.042071 
L 396.90372 194.58288 
L 396.881711 194.654882 
L 396.923229 194.681494 
L 397.438102 194.726047 
L 399.655372 194.572566 
L 405.538713 193.878411 
L 418.285809 192.103949 
L 441.012531 188.68674 
L 464.996736 184.866324 
L 479.027328 182.435996 
L 487.076179 180.839133 
L 491.23117 179.816166 
L 492.85665 179.240058 
L 493.214022 178.962787 
L 493.105792 178.816583 
L 492.473039 178.709231 
L 490.928489 178.720952 
L 487.45523 179.010414 
L 481.004146 179.819347 
L 470.700072 181.363486 
L 455.138046 183.940165 
L 436.458017 187.26628 
L 417.967255 190.776143 
L 406.043167 193.228934 
L 403.339715 193.950737 
L 403.346376 193.994476 
L 403.399382 194.008422 
L 404.158376 194.001212 
L 407.539931 193.685101 
L 418.315364 192.412386 
L 475.417621 185.266972 
L 493.667374 182.853657 
L 495.228492 182.589282 
L 486.367015 184.064214 
L 473.684642 186.506766 
L 456.391471 190.061321 
L 437.717344 194.112206 
L 421.305992 197.881197 
L 408.748907 200.98615 
L 401.787714 202.904894 
L 398.324815 204.049146 
L 397.101508 204.642726 
L 396.973888 204.903046 
L 397.244445 205.026434 
L 398.09118 205.096034 
L 400.376821 205.001304 
L 405.200724 204.518255 
L 412.760652 203.523137 
L 424.417893 201.750724 
L 439.061306 199.292369 
L 453.052126 196.738112 
L 465.218223 194.312904 
L 474.943372 192.150063 
L 481.278755 190.537453 
L 485.632521 189.241356 
L 488.863293 188.062639 
L 490.646819 187.199858 
L 491.468155 186.605015 
L 491.732349 186.221567 
L 491.69896 185.895917 
L 491.373384 185.630321 
L 490.762551 185.426147 
L 489.518945 185.249516 
L 487.308423 185.178905 
L 483.767029 185.301787 
L 478.553247 185.703599 
L 470.457691 186.570188 
L 460.176411 187.899964 
L 447.010062 189.839752 
L 433.071152 192.115679 
L 419.336853 194.574845 
L 409.729108 196.502628 
L 407.173556 197.182883 
L 407.115038 197.267821 
L 407.157657 197.286784 
L 407.836511 197.313773 
L 410.975634 197.096728 
L 421.166727 196.093252 
L 476.369107 190.468749 
L 492.301373 189.081333 
L 495.833253 188.929592 
L 496.025991 188.984544 
L 495.967952 189.046559 
L 495.17991 189.295332 
L 491.562585 190.105098 
L 456.076637 197.722726 
L 435.118629 202.512746 
L 415.314034 207.254762 
L 398.289408 211.553665 
L 390.346218 213.74286 
L 390.31805 213.77304 
L 390.434187 213.768488 
L 392.319957 213.416572 
L 404.179389 210.888155 
L 472.011216 196.097826 
L 483.004202 193.480191 
L 488.861201 191.897979 
L 492.243597 190.785137 
L 493.776948 190.063404 
L 494.098113 189.712816 
L 493.977934 189.521731 
L 493.555594 189.393383 
L 492.536646 189.319361 
L 490.079329 189.40954 
L 485.218846 189.872446 
L 476.983514 190.912252 
L 462.549288 192.991301 
L 440.696253 196.387099 
L 404.257139 202.243853 
L 407.733047 201.755777 
L 426.415331 199.323469 
L 451.738921 196.245044 
L 476.27335 193.477756 
L 490.008256 192.120568 
L 491.846744 192.083414 
L 491.676963 192.17175 
L 490.033298 192.571915 
L 481.219402 194.361457 
L 473.06187 195.986437 
L 473.06187 195.986437 
" style="fill:none;stroke:#d62728;stroke-linecap:square;stroke-opacity:0.7;stroke-width:1.5;"/>
   </g>
   <g id="line2d_31">
    <path clip-path="url(#p2fd1bf8c42)" d="M 427.176677 296.072057 
L 427.176677 296.072057 
" style="fill:none;stroke:#000000;stroke-dasharray:5.55,2.4;stroke-dashoffset:0;stroke-opacity:0.595;stroke-width:1.5;"/>
   </g>
   <g id="legend_1">
    <g id="patch_6">
     <path d="M 460.49375 88.034375 
L 545.6 88.034375 
Q 547.6 88.034375 547.6 86.034375 
L 547.6 43 
Q 547.6 41 545.6 41 
L 460.49375 41 
Q 458.49375 41 458.49375 43 
L 458.49375 86.034375 
Q 458.49375 88.034375 460.49375 88.034375 
z
" style="fill:#ffffff;opacity:0.8;stroke:#cccccc;stroke-linejoin:miter;"/>
    </g>
    <g id="line2d_32">
     <path d="M 462.49375 49.098437 
L 482.49375 49.098437 
" style="fill:none;stroke:#1f77b4;stroke-linecap:square;stroke-opacity:0.7;stroke-width:1.5;"/>
    </g>
    <g id="line2d_33"/>
    <g id="text_29">
     <!-- DSLPID -->
     <g transform="translate(490.49375 52.598437)scale(0.1 -0.1)">
      <defs>
       <path d="M 1259 4147 
L 1259 519 
L 2022 519 
Q 2988 519 3436 956 
Q 3884 1394 3884 2338 
Q 3884 3275 3436 3711 
Q 2988 4147 2022 4147 
L 1259 4147 
z
M 628 4666 
L 1925 4666 
Q 3281 4666 3915 4102 
Q 4550 3538 4550 2338 
Q 4550 1131 3912 565 
Q 3275 0 1925 0 
L 628 0 
L 628 4666 
z
" id="DejaVuSans-44" transform="scale(0.015625)"/>
       <path d="M 3425 4513 
L 3425 3897 
Q 3066 4069 2747 4153 
Q 2428 4238 2131 4238 
Q 1616 4238 1336 4038 
Q 1056 3838 1056 3469 
Q 1056 3159 1242 3001 
Q 1428 2844 1947 2747 
L 2328 2669 
Q 3034 2534 3370 2195 
Q 3706 1856 3706 1288 
Q 3706 609 3251 259 
Q 2797 -91 1919 -91 
Q 1588 -91 1214 -16 
Q 841 59 441 206 
L 441 856 
Q 825 641 1194 531 
Q 1563 422 1919 422 
Q 2459 422 2753 634 
Q 3047 847 3047 1241 
Q 3047 1584 2836 1778 
Q 2625 1972 2144 2069 
L 1759 2144 
Q 1053 2284 737 2584 
Q 422 2884 422 3419 
Q 422 4038 858 4394 
Q 1294 4750 2059 4750 
Q 2388 4750 2728 4690 
Q 3069 4631 3425 4513 
z
" id="DejaVuSans-53" transform="scale(0.015625)"/>
       <path d="M 628 4666 
L 1259 4666 
L 1259 531 
L 3531 531 
L 3531 0 
L 628 0 
L 628 4666 
z
" id="DejaVuSans-4c" transform="scale(0.015625)"/>
       <path d="M 1259 4147 
L 1259 2394 
L 2053 2394 
Q 2494 2394 2734 2622 
Q 2975 2850 2975 3272 
Q 2975 3691 2734 3919 
Q 2494 4147 2053 4147 
L 1259 4147 
z
M 628 4666 
L 2053 4666 
Q 2838 4666 3239 4311 
Q 3641 3956 3641 3272 
Q 3641 2581 3239 2228 
Q 2838 1875 2053 1875 
L 1259 1875 
L 1259 0 
L 628 0 
L 628 4666 
z
" id="DejaVuSans-50" transform="scale(0.015625)"/>
       <path d="M 628 4666 
L 1259 4666 
L 1259 0 
L 628 0 
L 628 4666 
z
" id="DejaVuSans-49" transform="scale(0.015625)"/>
      </defs>
      <use xlink:href="#DejaVuSans-44"/>
      <use x="77.001953" xlink:href="#DejaVuSans-53"/>
      <use x="140.478516" xlink:href="#DejaVuSans-4c"/>
      <use x="196.191406" xlink:href="#DejaVuSans-50"/>
      <use x="256.494141" xlink:href="#DejaVuSans-49"/>
      <use x="285.986328" xlink:href="#DejaVuSans-44"/>
     </g>
    </g>
    <g id="line2d_34">
     <path d="M 462.49375 63.776562 
L 482.49375 63.776562 
" style="fill:none;stroke:#d62728;stroke-linecap:square;stroke-opacity:0.7;stroke-width:1.5;"/>
    </g>
    <g id="line2d_35"/>
    <g id="text_30">
     <!-- LSTM -->
     <g transform="translate(490.49375 67.276562)scale(0.1 -0.1)">
      <defs>
       <path d="M -19 4666 
L 3928 4666 
L 3928 4134 
L 2272 4134 
L 2272 0 
L 1638 0 
L 1638 4134 
L -19 4134 
L -19 4666 
z
" id="DejaVuSans-54" transform="scale(0.015625)"/>
       <path d="M 628 4666 
L 1569 4666 
L 2759 1491 
L 3956 4666 
L 4897 4666 
L 4897 0 
L 4281 0 
L 4281 4097 
L 3078 897 
L 2444 897 
L 1241 4097 
L 1241 0 
L 628 0 
L 628 4666 
z
" id="DejaVuSans-4d" transform="scale(0.015625)"/>
      </defs>
      <use xlink:href="#DejaVuSans-4c"/>
      <use x="55.712891" xlink:href="#DejaVuSans-53"/>
      <use x="119.189453" xlink:href="#DejaVuSans-54"/>
      <use x="180.273438" xlink:href="#DejaVuSans-4d"/>
     </g>
    </g>
    <g id="line2d_36">
     <path d="M 462.49375 78.454687 
L 482.49375 78.454687 
" style="fill:none;stroke:#000000;stroke-dasharray:5.55,2.4;stroke-dashoffset:0;stroke-opacity:0.595;stroke-width:1.5;"/>
    </g>
    <g id="line2d_37"/>
    <g id="text_31">
     <!-- Referencia -->
     <g transform="translate(490.49375 81.954687)scale(0.1 -0.1)">
      <defs>
       <path d="M 2841 2188 
Q 3044 2119 3236 1894 
Q 3428 1669 3622 1275 
L 4263 0 
L 3584 0 
L 2988 1197 
Q 2756 1666 2539 1819 
Q 2322 1972 1947 1972 
L 1259 1972 
L 1259 0 
L 628 0 
L 628 4666 
L 2053 4666 
Q 2853 4666 3247 4331 
Q 3641 3997 3641 3322 
Q 3641 2881 3436 2590 
Q 3231 2300 2841 2188 
z
M 1259 4147 
L 1259 2491 
L 2053 2491 
Q 2509 2491 2742 2702 
Q 2975 2913 2975 3322 
Q 2975 3731 2742 3939 
Q 2509 4147 2053 4147 
L 1259 4147 
z
" id="DejaVuSans-52" transform="scale(0.015625)"/>
       <path d="M 3597 1894 
L 3597 1613 
L 953 1613 
Q 991 1019 1311 708 
Q 1631 397 2203 397 
Q 2534 397 2845 478 
Q 3156 559 3463 722 
L 3463 178 
Q 3153 47 2828 -22 
Q 2503 -91 2169 -91 
Q 1331 -91 842 396 
Q 353 884 353 1716 
Q 353 2575 817 3079 
Q 1281 3584 2069 3584 
Q 2775 3584 3186 3129 
Q 3597 2675 3597 1894 
z
M 3022 2063 
Q 3016 2534 2758 2815 
Q 2500 3097 2075 3097 
Q 1594 3097 1305 2825 
Q 1016 2553 972 2059 
L 3022 2063 
z
" id="DejaVuSans-65" transform="scale(0.015625)"/>
       <path d="M 2375 4863 
L 2375 4384 
L 1825 4384 
Q 1516 4384 1395 4259 
Q 1275 4134 1275 3809 
L 1275 3500 
L 2222 3500 
L 2222 3053 
L 1275 3053 
L 1275 0 
L 697 0 
L 697 3053 
L 147 3053 
L 147 3500 
L 697 3500 
L 697 3744 
Q 697 4328 969 4595 
Q 1241 4863 1831 4863 
L 2375 4863 
z
" id="DejaVuSans-66" transform="scale(0.015625)"/>
       <path d="M 2631 2963 
Q 2534 3019 2420 3045 
Q 2306 3072 2169 3072 
Q 1681 3072 1420 2755 
Q 1159 2438 1159 1844 
L 1159 0 
L 581 0 
L 581 3500 
L 1159 3500 
L 1159 2956 
Q 1341 3275 1631 3429 
Q 1922 3584 2338 3584 
Q 2397 3584 2469 3576 
Q 2541 3569 2628 3553 
L 2631 2963 
z
" id="DejaVuSans-72" transform="scale(0.015625)"/>
       <path d="M 3513 2113 
L 3513 0 
L 2938 0 
L 2938 2094 
Q 2938 2591 2744 2837 
Q 2550 3084 2163 3084 
Q 1697 3084 1428 2787 
Q 1159 2491 1159 1978 
L 1159 0 
L 581 0 
L 581 3500 
L 1159 3500 
L 1159 2956 
Q 1366 3272 1645 3428 
Q 1925 3584 2291 3584 
Q 2894 3584 3203 3211 
Q 3513 2838 3513 2113 
z
" id="DejaVuSans-6e" transform="scale(0.015625)"/>
       <path d="M 3122 3366 
L 3122 2828 
Q 2878 2963 2633 3030 
Q 2388 3097 2138 3097 
Q 1578 3097 1268 2742 
Q 959 2388 959 1747 
Q 959 1106 1268 751 
Q 1578 397 2138 397 
Q 2388 397 2633 464 
Q 2878 531 3122 666 
L 3122 134 
Q 2881 22 2623 -34 
Q 2366 -91 2075 -91 
Q 1284 -91 818 406 
Q 353 903 353 1747 
Q 353 2603 823 3093 
Q 1294 3584 2113 3584 
Q 2378 3584 2631 3529 
Q 2884 3475 3122 3366 
z
" id="DejaVuSans-63" transform="scale(0.015625)"/>
       <path d="M 603 3500 
L 1178 3500 
L 1178 0 
L 603 0 
L 603 3500 
z
M 603 4863 
L 1178 4863 
L 1178 4134 
L 603 4134 
L 603 4863 
z
" id="DejaVuSans-69" transform="scale(0.015625)"/>
       <path d="M 2194 1759 
Q 1497 1759 1228 1600 
Q 959 1441 959 1056 
Q 959 750 1161 570 
Q 1363 391 1709 391 
Q 2188 391 2477 730 
Q 2766 1069 2766 1631 
L 2766 1759 
L 2194 1759 
z
M 3341 1997 
L 3341 0 
L 2766 0 
L 2766 531 
Q 2569 213 2275 61 
Q 1981 -91 1556 -91 
Q 1019 -91 701 211 
Q 384 513 384 1019 
Q 384 1609 779 1909 
Q 1175 2209 1959 2209 
L 2766 2209 
L 2766 2266 
Q 2766 2663 2505 2880 
Q 2244 3097 1772 3097 
Q 1472 3097 1187 3025 
Q 903 2953 641 2809 
L 641 3341 
Q 956 3463 1253 3523 
Q 1550 3584 1831 3584 
Q 2591 3584 2966 3190 
Q 3341 2797 3341 1997 
z
" id="DejaVuSans-61" transform="scale(0.015625)"/>
      </defs>
      <use xlink:href="#DejaVuSans-52"/>
      <use x="64.982422" xlink:href="#DejaVuSans-65"/>
      <use x="126.505859" xlink:href="#DejaVuSans-66"/>
      <use x="161.710938" xlink:href="#DejaVuSans-65"/>
      <use x="223.234375" xlink:href="#DejaVuSans-72"/>
      <use x="262.097656" xlink:href="#DejaVuSans-65"/>
      <use x="323.621094" xlink:href="#DejaVuSans-6e"/>
      <use x="387" xlink:href="#DejaVuSans-63"/>
      <use x="441.980469" xlink:href="#DejaVuSans-69"/>
      <use x="469.763672" xlink:href="#DejaVuSans-61"/>
     </g>
    </g>
   </g>
  </g>
  <g id="text_32">
   <!-- Vista 3D -->
   <g transform="translate(254.48625 23.6775)scale(0.16 -0.16)">
    <defs>
     <path d="M 1831 0 
L 50 4666 
L 709 4666 
L 2188 738 
L 3669 4666 
L 4325 4666 
L 2547 0 
L 1831 0 
z
" id="DejaVuSans-56" transform="scale(0.015625)"/>
     <path d="M 2834 3397 
L 2834 2853 
Q 2591 2978 2328 3040 
Q 2066 3103 1784 3103 
Q 1356 3103 1142 2972 
Q 928 2841 928 2578 
Q 928 2378 1081 2264 
Q 1234 2150 1697 2047 
L 1894 2003 
Q 2506 1872 2764 1633 
Q 3022 1394 3022 966 
Q 3022 478 2636 193 
Q 2250 -91 1575 -91 
Q 1294 -91 989 -36 
Q 684 19 347 128 
L 347 722 
Q 666 556 975 473 
Q 1284 391 1588 391 
Q 1994 391 2212 530 
Q 2431 669 2431 922 
Q 2431 1156 2273 1281 
Q 2116 1406 1581 1522 
L 1381 1569 
Q 847 1681 609 1914 
Q 372 2147 372 2553 
Q 372 3047 722 3315 
Q 1072 3584 1716 3584 
Q 2034 3584 2315 3537 
Q 2597 3491 2834 3397 
z
" id="DejaVuSans-73" transform="scale(0.015625)"/>
     <path d="M 1172 4494 
L 1172 3500 
L 2356 3500 
L 2356 3053 
L 1172 3053 
L 1172 1153 
Q 1172 725 1289 603 
Q 1406 481 1766 481 
L 2356 481 
L 2356 0 
L 1766 0 
Q 1100 0 847 248 
Q 594 497 594 1153 
L 594 3053 
L 172 3053 
L 172 3500 
L 594 3500 
L 594 4494 
L 1172 4494 
z
" id="DejaVuSans-74" transform="scale(0.015625)"/>
    </defs>
    <use xlink:href="#DejaVuSans-56"/>
    <use x="66.158203" xlink:href="#DejaVuSans-69"/>
    <use x="93.941406" xlink:href="#DejaVuSans-73"/>
    <use x="146.041016" xlink:href="#DejaVuSans-74"/>
    <use x="185.25" xlink:href="#DejaVuSans-61"/>
    <use x="246.529297" xlink:href="#DejaVuSans-20"/>
    <use x="278.316406" xlink:href="#DejaVuSans-33"/>
    <use x="341.939453" xlink:href="#DejaVuSans-44"/>
   </g>
  </g>
 </g>
 <defs>
  <clipPath id="p2fd1bf8c42">
   <rect height="529.2" width="529.2" x="23.4" y="36"/>
  </clipPath>
 </defs>
</svg>
