<?xml version="1.0" encoding="utf-8" standalone="no"?>
<!DOCTYPE svg PUBLIC "-//W3C//DTD SVG 1.1//EN"
  "http://www.w3.org/Graphics/SVG/1.1/DTD/svg11.dtd">
<svg height="288pt" version="1.1" viewBox="0 0 576 288" width="576pt" xmlns="http://www.w3.org/2000/svg" xmlns:xlink="http://www.w3.org/1999/xlink">
 <metadata>
  <rdf:RDF xmlns:cc="http://creativecommons.org/ns#" xmlns:dc="http://purl.org/dc/elements/1.1/" xmlns:rdf="http://www.w3.org/1999/02/22-rdf-syntax-ns#">
   <cc:Work>
    <dc:type rdf:resource="http://purl.org/dc/dcmitype/StillImage"/>
    <dc:date>2022-02-26T04:12:23.467485</dc:date>
    <dc:format>image/svg+xml</dc:format>
    <dc:creator>
     <cc:Agent>
      <dc:title>Matplotlib v3.4.3, https://matplotlib.org/</dc:title>
     </cc:Agent>
    </dc:creator>
   </cc:Work>
  </rdf:RDF>
 </metadata>
 <defs>
  <style type="text/css">*{stroke-linecap:butt;stroke-linejoin:round;}</style>
 </defs>
 <g id="figure_1">
  <g id="patch_1">
   <path d="M 0 288 
L 576 288 
L 576 0 
L 0 0 
z
" style="fill:#ffffff;"/>
  </g>
  <g id="axes_1">
   <g id="patch_2">
    <path d="M 97.49 231.64 
L 257.94 231.64 
L 257.94 66.48 
L 97.49 66.48 
z
" style="fill:#ffffff;"/>
   </g>
   <g id="matplotlib.axis_1">
    <g id="xtick_1">
     <g id="line2d_1">
      <path clip-path="url(#pfe8373ffbf)" d="M 115.498206 231.64 
L 115.498206 66.48 
" style="fill:none;stroke:#b0b0b0;stroke-linecap:square;stroke-width:0.8;"/>
     </g>
     <g id="line2d_2">
      <defs>
       <path d="M 0 0 
L 0 3.5 
" id="m6382a926e9" style="stroke:#000000;stroke-width:0.8;"/>
      </defs>
      <g>
       <use style="stroke:#000000;stroke-width:0.8;" x="115.498206" xlink:href="#m6382a926e9" y="231.64"/>
      </g>
     </g>
     <g id="text_1">
      <!-- −0.03 -->
      <g transform="translate(100.17555 246.238438)scale(0.1 -0.1)">
       <defs>
        <path d="M 678 2272 
L 4684 2272 
L 4684 1741 
L 678 1741 
L 678 2272 
z
" id="DejaVuSans-2212" transform="scale(0.015625)"/>
        <path d="M 2034 4250 
Q 1547 4250 1301 3770 
Q 1056 3291 1056 2328 
Q 1056 1369 1301 889 
Q 1547 409 2034 409 
Q 2525 409 2770 889 
Q 3016 1369 3016 2328 
Q 3016 3291 2770 3770 
Q 2525 4250 2034 4250 
z
M 2034 4750 
Q 2819 4750 3233 4129 
Q 3647 3509 3647 2328 
Q 3647 1150 3233 529 
Q 2819 -91 2034 -91 
Q 1250 -91 836 529 
Q 422 1150 422 2328 
Q 422 3509 836 4129 
Q 1250 4750 2034 4750 
z
" id="DejaVuSans-30" transform="scale(0.015625)"/>
        <path d="M 684 794 
L 1344 794 
L 1344 0 
L 684 0 
L 684 794 
z
" id="DejaVuSans-2e" transform="scale(0.015625)"/>
        <path d="M 2597 2516 
Q 3050 2419 3304 2112 
Q 3559 1806 3559 1356 
Q 3559 666 3084 287 
Q 2609 -91 1734 -91 
Q 1441 -91 1130 -33 
Q 819 25 488 141 
L 488 750 
Q 750 597 1062 519 
Q 1375 441 1716 441 
Q 2309 441 2620 675 
Q 2931 909 2931 1356 
Q 2931 1769 2642 2001 
Q 2353 2234 1838 2234 
L 1294 2234 
L 1294 2753 
L 1863 2753 
Q 2328 2753 2575 2939 
Q 2822 3125 2822 3475 
Q 2822 3834 2567 4026 
Q 2313 4219 1838 4219 
Q 1578 4219 1281 4162 
Q 984 4106 628 3988 
L 628 4550 
Q 988 4650 1302 4700 
Q 1616 4750 1894 4750 
Q 2613 4750 3031 4423 
Q 3450 4097 3450 3541 
Q 3450 3153 3228 2886 
Q 3006 2619 2597 2516 
z
" id="DejaVuSans-33" transform="scale(0.015625)"/>
       </defs>
       <use xlink:href="#DejaVuSans-2212"/>
       <use x="83.789062" xlink:href="#DejaVuSans-30"/>
       <use x="147.412109" xlink:href="#DejaVuSans-2e"/>
       <use x="179.199219" xlink:href="#DejaVuSans-30"/>
       <use x="242.822266" xlink:href="#DejaVuSans-33"/>
      </g>
     </g>
    </g>
    <g id="xtick_2">
     <g id="line2d_3">
      <path clip-path="url(#pfe8373ffbf)" d="M 153.224868 231.64 
L 153.224868 66.48 
" style="fill:none;stroke:#b0b0b0;stroke-linecap:square;stroke-width:0.8;"/>
     </g>
     <g id="line2d_4">
      <g>
       <use style="stroke:#000000;stroke-width:0.8;" x="153.224868" xlink:href="#m6382a926e9" y="231.64"/>
      </g>
     </g>
     <g id="text_2">
      <!-- −0.02 -->
      <g transform="translate(137.902212 246.238438)scale(0.1 -0.1)">
       <defs>
        <path d="M 1228 531 
L 3431 531 
L 3431 0 
L 469 0 
L 469 531 
Q 828 903 1448 1529 
Q 2069 2156 2228 2338 
Q 2531 2678 2651 2914 
Q 2772 3150 2772 3378 
Q 2772 3750 2511 3984 
Q 2250 4219 1831 4219 
Q 1534 4219 1204 4116 
Q 875 4013 500 3803 
L 500 4441 
Q 881 4594 1212 4672 
Q 1544 4750 1819 4750 
Q 2544 4750 2975 4387 
Q 3406 4025 3406 3419 
Q 3406 3131 3298 2873 
Q 3191 2616 2906 2266 
Q 2828 2175 2409 1742 
Q 1991 1309 1228 531 
z
" id="DejaVuSans-32" transform="scale(0.015625)"/>
       </defs>
       <use xlink:href="#DejaVuSans-2212"/>
       <use x="83.789062" xlink:href="#DejaVuSans-30"/>
       <use x="147.412109" xlink:href="#DejaVuSans-2e"/>
       <use x="179.199219" xlink:href="#DejaVuSans-30"/>
       <use x="242.822266" xlink:href="#DejaVuSans-32"/>
      </g>
     </g>
    </g>
    <g id="xtick_3">
     <g id="line2d_5">
      <path clip-path="url(#pfe8373ffbf)" d="M 190.95153 231.64 
L 190.95153 66.48 
" style="fill:none;stroke:#b0b0b0;stroke-linecap:square;stroke-width:0.8;"/>
     </g>
     <g id="line2d_6">
      <g>
       <use style="stroke:#000000;stroke-width:0.8;" x="190.95153" xlink:href="#m6382a926e9" y="231.64"/>
      </g>
     </g>
     <g id="text_3">
      <!-- −0.01 -->
      <g transform="translate(175.628874 246.238438)scale(0.1 -0.1)">
       <defs>
        <path d="M 794 531 
L 1825 531 
L 1825 4091 
L 703 3866 
L 703 4441 
L 1819 4666 
L 2450 4666 
L 2450 531 
L 3481 531 
L 3481 0 
L 794 0 
L 794 531 
z
" id="DejaVuSans-31" transform="scale(0.015625)"/>
       </defs>
       <use xlink:href="#DejaVuSans-2212"/>
       <use x="83.789062" xlink:href="#DejaVuSans-30"/>
       <use x="147.412109" xlink:href="#DejaVuSans-2e"/>
       <use x="179.199219" xlink:href="#DejaVuSans-30"/>
       <use x="242.822266" xlink:href="#DejaVuSans-31"/>
      </g>
     </g>
    </g>
    <g id="xtick_4">
     <g id="line2d_7">
      <path clip-path="url(#pfe8373ffbf)" d="M 228.678192 231.64 
L 228.678192 66.48 
" style="fill:none;stroke:#b0b0b0;stroke-linecap:square;stroke-width:0.8;"/>
     </g>
     <g id="line2d_8">
      <g>
       <use style="stroke:#000000;stroke-width:0.8;" x="228.678192" xlink:href="#m6382a926e9" y="231.64"/>
      </g>
     </g>
     <g id="text_4">
      <!-- 0.00 -->
      <g transform="translate(217.54538 246.238438)scale(0.1 -0.1)">
       <use xlink:href="#DejaVuSans-30"/>
       <use x="63.623047" xlink:href="#DejaVuSans-2e"/>
       <use x="95.410156" xlink:href="#DejaVuSans-30"/>
       <use x="159.033203" xlink:href="#DejaVuSans-30"/>
      </g>
     </g>
    </g>
    <g id="text_5">
     <!-- x (m) -->
     <g transform="translate(164.394687 259.916562)scale(0.1 -0.1)">
      <defs>
       <path d="M 3513 3500 
L 2247 1797 
L 3578 0 
L 2900 0 
L 1881 1375 
L 863 0 
L 184 0 
L 1544 1831 
L 300 3500 
L 978 3500 
L 1906 2253 
L 2834 3500 
L 3513 3500 
z
" id="DejaVuSans-78" transform="scale(0.015625)"/>
       <path id="DejaVuSans-20" transform="scale(0.015625)"/>
       <path d="M 1984 4856 
Q 1566 4138 1362 3434 
Q 1159 2731 1159 2009 
Q 1159 1288 1364 580 
Q 1569 -128 1984 -844 
L 1484 -844 
Q 1016 -109 783 600 
Q 550 1309 550 2009 
Q 550 2706 781 3412 
Q 1013 4119 1484 4856 
L 1984 4856 
z
" id="DejaVuSans-28" transform="scale(0.015625)"/>
       <path d="M 3328 2828 
Q 3544 3216 3844 3400 
Q 4144 3584 4550 3584 
Q 5097 3584 5394 3201 
Q 5691 2819 5691 2113 
L 5691 0 
L 5113 0 
L 5113 2094 
Q 5113 2597 4934 2840 
Q 4756 3084 4391 3084 
Q 3944 3084 3684 2787 
Q 3425 2491 3425 1978 
L 3425 0 
L 2847 0 
L 2847 2094 
Q 2847 2600 2669 2842 
Q 2491 3084 2119 3084 
Q 1678 3084 1418 2786 
Q 1159 2488 1159 1978 
L 1159 0 
L 581 0 
L 581 3500 
L 1159 3500 
L 1159 2956 
Q 1356 3278 1631 3431 
Q 1906 3584 2284 3584 
Q 2666 3584 2933 3390 
Q 3200 3197 3328 2828 
z
" id="DejaVuSans-6d" transform="scale(0.015625)"/>
       <path d="M 513 4856 
L 1013 4856 
Q 1481 4119 1714 3412 
Q 1947 2706 1947 2009 
Q 1947 1309 1714 600 
Q 1481 -109 1013 -844 
L 513 -844 
Q 928 -128 1133 580 
Q 1338 1288 1338 2009 
Q 1338 2731 1133 3434 
Q 928 4138 513 4856 
z
" id="DejaVuSans-29" transform="scale(0.015625)"/>
      </defs>
      <use xlink:href="#DejaVuSans-78"/>
      <use x="59.179688" xlink:href="#DejaVuSans-20"/>
      <use x="90.966797" xlink:href="#DejaVuSans-28"/>
      <use x="129.980469" xlink:href="#DejaVuSans-6d"/>
      <use x="227.392578" xlink:href="#DejaVuSans-29"/>
     </g>
    </g>
   </g>
   <g id="matplotlib.axis_2">
    <g id="ytick_1">
     <g id="line2d_9">
      <path clip-path="url(#pfe8373ffbf)" d="M 97.49 230.227516 
L 257.94 230.227516 
" style="fill:none;stroke:#b0b0b0;stroke-linecap:square;stroke-width:0.8;"/>
     </g>
     <g id="line2d_10">
      <defs>
       <path d="M 0 0 
L -3.5 0 
" id="m73b040edfa" style="stroke:#000000;stroke-width:0.8;"/>
      </defs>
      <g>
       <use style="stroke:#000000;stroke-width:0.8;" x="97.49" xlink:href="#m73b040edfa" y="230.227516"/>
      </g>
     </g>
     <g id="text_6">
      <!-- −0.030 -->
      <g transform="translate(53.482188 234.026735)scale(0.1 -0.1)">
       <use xlink:href="#DejaVuSans-2212"/>
       <use x="83.789062" xlink:href="#DejaVuSans-30"/>
       <use x="147.412109" xlink:href="#DejaVuSans-2e"/>
       <use x="179.199219" xlink:href="#DejaVuSans-30"/>
       <use x="242.822266" xlink:href="#DejaVuSans-33"/>
       <use x="306.445312" xlink:href="#DejaVuSans-30"/>
      </g>
     </g>
    </g>
    <g id="ytick_2">
     <g id="line2d_11">
      <path clip-path="url(#pfe8373ffbf)" d="M 97.49 209.38941 
L 257.94 209.38941 
" style="fill:none;stroke:#b0b0b0;stroke-linecap:square;stroke-width:0.8;"/>
     </g>
     <g id="line2d_12">
      <g>
       <use style="stroke:#000000;stroke-width:0.8;" x="97.49" xlink:href="#m73b040edfa" y="209.38941"/>
      </g>
     </g>
     <g id="text_7">
      <!-- −0.025 -->
      <g transform="translate(53.482188 213.188628)scale(0.1 -0.1)">
       <defs>
        <path d="M 691 4666 
L 3169 4666 
L 3169 4134 
L 1269 4134 
L 1269 2991 
Q 1406 3038 1543 3061 
Q 1681 3084 1819 3084 
Q 2600 3084 3056 2656 
Q 3513 2228 3513 1497 
Q 3513 744 3044 326 
Q 2575 -91 1722 -91 
Q 1428 -91 1123 -41 
Q 819 9 494 109 
L 494 744 
Q 775 591 1075 516 
Q 1375 441 1709 441 
Q 2250 441 2565 725 
Q 2881 1009 2881 1497 
Q 2881 1984 2565 2268 
Q 2250 2553 1709 2553 
Q 1456 2553 1204 2497 
Q 953 2441 691 2322 
L 691 4666 
z
" id="DejaVuSans-35" transform="scale(0.015625)"/>
       </defs>
       <use xlink:href="#DejaVuSans-2212"/>
       <use x="83.789062" xlink:href="#DejaVuSans-30"/>
       <use x="147.412109" xlink:href="#DejaVuSans-2e"/>
       <use x="179.199219" xlink:href="#DejaVuSans-30"/>
       <use x="242.822266" xlink:href="#DejaVuSans-32"/>
       <use x="306.445312" xlink:href="#DejaVuSans-35"/>
      </g>
     </g>
    </g>
    <g id="ytick_3">
     <g id="line2d_13">
      <path clip-path="url(#pfe8373ffbf)" d="M 97.49 188.551303 
L 257.94 188.551303 
" style="fill:none;stroke:#b0b0b0;stroke-linecap:square;stroke-width:0.8;"/>
     </g>
     <g id="line2d_14">
      <g>
       <use style="stroke:#000000;stroke-width:0.8;" x="97.49" xlink:href="#m73b040edfa" y="188.551303"/>
      </g>
     </g>
     <g id="text_8">
      <!-- −0.020 -->
      <g transform="translate(53.482188 192.350522)scale(0.1 -0.1)">
       <use xlink:href="#DejaVuSans-2212"/>
       <use x="83.789062" xlink:href="#DejaVuSans-30"/>
       <use x="147.412109" xlink:href="#DejaVuSans-2e"/>
       <use x="179.199219" xlink:href="#DejaVuSans-30"/>
       <use x="242.822266" xlink:href="#DejaVuSans-32"/>
       <use x="306.445312" xlink:href="#DejaVuSans-30"/>
      </g>
     </g>
    </g>
    <g id="ytick_4">
     <g id="line2d_15">
      <path clip-path="url(#pfe8373ffbf)" d="M 97.49 167.713197 
L 257.94 167.713197 
" style="fill:none;stroke:#b0b0b0;stroke-linecap:square;stroke-width:0.8;"/>
     </g>
     <g id="line2d_16">
      <g>
       <use style="stroke:#000000;stroke-width:0.8;" x="97.49" xlink:href="#m73b040edfa" y="167.713197"/>
      </g>
     </g>
     <g id="text_9">
      <!-- −0.015 -->
      <g transform="translate(53.482188 171.512416)scale(0.1 -0.1)">
       <use xlink:href="#DejaVuSans-2212"/>
       <use x="83.789062" xlink:href="#DejaVuSans-30"/>
       <use x="147.412109" xlink:href="#DejaVuSans-2e"/>
       <use x="179.199219" xlink:href="#DejaVuSans-30"/>
       <use x="242.822266" xlink:href="#DejaVuSans-31"/>
       <use x="306.445312" xlink:href="#DejaVuSans-35"/>
      </g>
     </g>
    </g>
    <g id="ytick_5">
     <g id="line2d_17">
      <path clip-path="url(#pfe8373ffbf)" d="M 97.49 146.875091 
L 257.94 146.875091 
" style="fill:none;stroke:#b0b0b0;stroke-linecap:square;stroke-width:0.8;"/>
     </g>
     <g id="line2d_18">
      <g>
       <use style="stroke:#000000;stroke-width:0.8;" x="97.49" xlink:href="#m73b040edfa" y="146.875091"/>
      </g>
     </g>
     <g id="text_10">
      <!-- −0.010 -->
      <g transform="translate(53.482188 150.67431)scale(0.1 -0.1)">
       <use xlink:href="#DejaVuSans-2212"/>
       <use x="83.789062" xlink:href="#DejaVuSans-30"/>
       <use x="147.412109" xlink:href="#DejaVuSans-2e"/>
       <use x="179.199219" xlink:href="#DejaVuSans-30"/>
       <use x="242.822266" xlink:href="#DejaVuSans-31"/>
       <use x="306.445312" xlink:href="#DejaVuSans-30"/>
      </g>
     </g>
    </g>
    <g id="ytick_6">
     <g id="line2d_19">
      <path clip-path="url(#pfe8373ffbf)" d="M 97.49 126.036985 
L 257.94 126.036985 
" style="fill:none;stroke:#b0b0b0;stroke-linecap:square;stroke-width:0.8;"/>
     </g>
     <g id="line2d_20">
      <g>
       <use style="stroke:#000000;stroke-width:0.8;" x="97.49" xlink:href="#m73b040edfa" y="126.036985"/>
      </g>
     </g>
     <g id="text_11">
      <!-- −0.005 -->
      <g transform="translate(53.482188 129.836203)scale(0.1 -0.1)">
       <use xlink:href="#DejaVuSans-2212"/>
       <use x="83.789062" xlink:href="#DejaVuSans-30"/>
       <use x="147.412109" xlink:href="#DejaVuSans-2e"/>
       <use x="179.199219" xlink:href="#DejaVuSans-30"/>
       <use x="242.822266" xlink:href="#DejaVuSans-30"/>
       <use x="306.445312" xlink:href="#DejaVuSans-35"/>
      </g>
     </g>
    </g>
    <g id="ytick_7">
     <g id="line2d_21">
      <path clip-path="url(#pfe8373ffbf)" d="M 97.49 105.198878 
L 257.94 105.198878 
" style="fill:none;stroke:#b0b0b0;stroke-linecap:square;stroke-width:0.8;"/>
     </g>
     <g id="line2d_22">
      <g>
       <use style="stroke:#000000;stroke-width:0.8;" x="97.49" xlink:href="#m73b040edfa" y="105.198878"/>
      </g>
     </g>
     <g id="text_12">
      <!-- 0.000 -->
      <g transform="translate(61.861875 108.998097)scale(0.1 -0.1)">
       <use xlink:href="#DejaVuSans-30"/>
       <use x="63.623047" xlink:href="#DejaVuSans-2e"/>
       <use x="95.410156" xlink:href="#DejaVuSans-30"/>
       <use x="159.033203" xlink:href="#DejaVuSans-30"/>
       <use x="222.65625" xlink:href="#DejaVuSans-30"/>
      </g>
     </g>
    </g>
    <g id="ytick_8">
     <g id="line2d_23">
      <path clip-path="url(#pfe8373ffbf)" d="M 97.49 84.360772 
L 257.94 84.360772 
" style="fill:none;stroke:#b0b0b0;stroke-linecap:square;stroke-width:0.8;"/>
     </g>
     <g id="line2d_24">
      <g>
       <use style="stroke:#000000;stroke-width:0.8;" x="97.49" xlink:href="#m73b040edfa" y="84.360772"/>
      </g>
     </g>
     <g id="text_13">
      <!-- 0.005 -->
      <g transform="translate(61.861875 88.159991)scale(0.1 -0.1)">
       <use xlink:href="#DejaVuSans-30"/>
       <use x="63.623047" xlink:href="#DejaVuSans-2e"/>
       <use x="95.410156" xlink:href="#DejaVuSans-30"/>
       <use x="159.033203" xlink:href="#DejaVuSans-30"/>
       <use x="222.65625" xlink:href="#DejaVuSans-35"/>
      </g>
     </g>
    </g>
    <g id="text_14">
     <!-- y (m) -->
     <g transform="translate(47.4025 162.380313)rotate(-90)scale(0.1 -0.1)">
      <defs>
       <path d="M 2059 -325 
Q 1816 -950 1584 -1140 
Q 1353 -1331 966 -1331 
L 506 -1331 
L 506 -850 
L 844 -850 
Q 1081 -850 1212 -737 
Q 1344 -625 1503 -206 
L 1606 56 
L 191 3500 
L 800 3500 
L 1894 763 
L 2988 3500 
L 3597 3500 
L 2059 -325 
z
" id="DejaVuSans-79" transform="scale(0.015625)"/>
      </defs>
      <use xlink:href="#DejaVuSans-79"/>
      <use x="59.179688" xlink:href="#DejaVuSans-20"/>
      <use x="90.966797" xlink:href="#DejaVuSans-28"/>
      <use x="129.980469" xlink:href="#DejaVuSans-6d"/>
      <use x="227.392578" xlink:href="#DejaVuSans-29"/>
     </g>
    </g>
   </g>
   <g id="line2d_25">
    <path clip-path="url(#pfe8373ffbf)" d="M 228.678192 105.198878 
L 207.173699 128.786672 
L 192.573187 144.358139 
L 142.842553 197.11031 
L 117.53067 224.132727 
L 119.797577 221.575092 
L 136.656118 203.09611 
L 174.221437 162.234311 
L 208.232145 125.542756 
L 228.604902 103.853094 
L 236.971798 95.218538 
L 238.274224 94.062417 
L 238.280194 94.093735 
L 238.036489 94.467697 
L 236.428015 96.426154 
L 231.026161 102.591697 
L 224.308871 110.030655 
L 233.732579 99.717195 
L 236.199152 97.12733 
L 234.484334 99.071835 
L 231.115223 102.620527 
L 234.826912 98.67846 
L 231.115223 102.620527 
" style="fill:none;stroke:#1f77b4;stroke-linecap:square;stroke-opacity:0.7;stroke-width:1.5;"/>
   </g>
   <g id="line2d_26">
    <path clip-path="url(#pfe8373ffbf)" d="M 228.678192 105.198878 
L 221.883867 101.457489 
L 217.858688 98.933683 
L 214.122827 96.34726 
L 211.269027 94.134742 
L 212.888034 95.576642 
L 219.261105 101.56748 
L 226.971765 109.05271 
L 230.748733 112.983005 
L 232.779186 115.380729 
L 233.789427 116.904503 
L 234.115606 117.770343 
L 234.094498 118.20484 
L 233.864502 118.481137 
L 233.433825 118.597765 
L 232.670414 118.528648 
L 231.477401 118.168434 
L 229.783943 117.410899 
L 227.567116 116.164561 
L 224.874262 114.373774 
L 222.119732 112.268112 
L 219.48869 109.978697 
L 217.160316 107.645927 
L 215.461874 105.627775 
L 214.359122 103.984337 
L 213.760504 102.717836 
L 213.54558 101.792398 
L 213.587841 101.151701 
L 213.836775 100.641994 
L 214.294231 100.272995 
L 214.958638 100.052117 
L 216.021412 99.98817 
L 217.357916 100.14271 
L 219.230106 100.586895 
L 221.718387 101.411806 
L 224.846571 102.686114 
L 228.538332 104.434036 
L 232.209031 106.404592 
L 235.578672 108.455292 
L 238.114122 110.249073 
L 239.803952 111.717963 
L 240.651339 112.703257 
L 241.104274 113.564947 
L 241.171393 114.176374 
L 241.023265 114.590305 
L 240.700596 114.934355 
L 240.062651 115.263346 
L 238.977266 115.50765 
L 237.579918 115.588294 
L 235.616835 115.481229 
L 233.033554 115.109124 
L 229.843624 114.404175 
L 226.523973 113.442797 
L 222.894229 112.144308 
L 219.86227 110.839652 
L 217.213857 109.477906 
L 215.295527 108.275973 
L 213.877002 107.131071 
L 213.101476 106.21007 
L 212.811999 105.501068 
L 212.848223 104.9775 
L 213.143389 104.522124 
L 213.700337 104.140053 
L 214.712551 103.783116 
L 216.089302 103.539297 
L 218.125646 103.395937 
L 221.337449 103.420906 
L 225.514013 103.687467 
L 231.488514 104.310522 
L 239.613 105.398758 
L 248.177483 106.753054 
L 248.240946 106.782482 
L 248.001199 106.797572 
L 244.604045 106.581353 
L 238.160312 106.273097 
L 232.974392 106.242297 
L 228.555454 106.434185 
L 224.766154 106.82739 
L 221.719686 107.369505 
L 219.411418 107.989523 
L 217.519991 108.733622 
L 216.282741 109.456698 
L 215.550201 110.107774 
L 215.106934 110.791112 
L 214.969096 111.352207 
L 215.028402 111.917892 
L 215.286155 112.479776 
L 215.884422 113.162898 
L 216.77949 113.806875 
L 217.954395 114.391752 
L 219.702361 114.986845 
L 221.776443 115.432244 
L 224.125879 115.693822 
L 226.694569 115.739568 
L 229.421395 115.540558 
L 231.767355 115.169874 
L 234.137666 114.601675 
L 236.490763 113.830752 
L 238.783816 112.858093 
L 240.973131 111.69089 
L 243.014627 110.341824 
L 244.86435 108.828079 
L 246.479289 107.170498 
L 247.575051 105.757006 
L 248.476754 104.280805 
L 249.170041 102.75723 
L 249.645299 101.202926 
L 249.89826 99.6357 
L 249.92974 98.074339 
L 249.744558 96.538428 
L 249.350295 95.048117 
L 248.756456 93.623883 
L 247.974098 92.286303 
L 247.015754 91.055847 
L 245.895389 89.95259 
L 244.628298 88.995565 
L 243.230991 88.201861 
L 241.721099 87.585693 
L 240.117246 87.157643 
L 238.438755 86.924235 
L 236.70526 86.887885 
L 234.936447 87.047161 
L 233.151942 87.397169 
L 230.928887 88.090541 
L 228.749166 89.048046 
L 226.649227 90.243004 
L 224.664119 91.644841 
L 222.827085 93.220822 
L 221.169213 94.936837 
L 219.719125 96.757554 
L 218.502727 98.646509 
L 217.543054 100.566247 
L 216.860195 102.478534 
L 216.470989 104.344608 
L 216.379574 105.778027 
L 216.487643 107.137123 
L 216.795554 108.402339 
L 217.300305 109.554529 
L 217.995636 110.575113 
L 218.872368 111.446283 
L 219.918862 112.151428 
L 221.121487 112.675971 
L 222.465028 113.00836 
L 223.93301 113.140966 
L 225.50794 113.070593 
L 227.171443 112.79831 
L 229.346141 112.181153 
L 231.59034 111.269971 
L 233.86363 110.083398 
L 236.124387 108.64382 
L 238.330085 106.977248 
L 240.437657 105.113099 
L 242.40391 103.083703 
L 244.185998 100.923938 
L 245.742341 98.671164 
L 247.034555 96.365251 
L 248.030524 94.048529 
L 248.59838 92.217205 
L 248.955482 90.430955 
L 249.100098 88.713787 
L 249.034638 87.089947 
L 248.764819 85.583697 
L 248.298834 84.219013 
L 247.646668 83.01891 
L 246.819761 82.004416 
L 245.830985 81.193446 
L 244.694762 80.59985 
L 243.427074 80.232865 
L 242.045169 80.097061 
L 240.567093 80.192611 
L 239.011249 80.515691 
L 237.396128 81.058933 
L 235.322029 82.031342 
L 233.220149 83.304797 
L 231.126078 84.847514 
L 229.074738 86.623603 
L 227.100066 88.59474 
L 224.877496 91.1618 
L 222.865508 93.882576 
L 221.113361 96.685207 
L 219.884053 99.03049 
L 218.889306 101.339008 
L 218.149517 103.567852 
L 217.682286 105.674348 
L 217.501733 107.616529 
L 217.569879 109.024542 
L 217.828613 110.281238 
L 218.27596 111.367554 
L 218.906698 112.266023 
L 219.712634 112.961705 
L 220.68298 113.443301 
L 221.80476 113.704153 
L 223.063255 113.742631 
L 224.442508 113.561538 
L 225.925616 113.166925 
L 227.898477 112.386044 
L 229.969628 111.303813 
L 232.101202 109.943063 
L 234.253925 108.330362 
L 236.808132 106.105361 
L 239.263206 103.619348 
L 241.547054 100.935531 
L 243.267578 98.596765 
L 244.778436 96.209345 
L 246.041195 93.816921 
L 247.022793 91.465048 
L 247.698827 89.200851 
L 248.010253 87.484928 
L 248.11579 85.88067 
L 248.018161 84.412718 
L 247.723458 83.105161 
L 247.240216 81.980707 
L 246.578712 81.059485 
L 245.750798 80.357809 
L 244.770008 79.887205 
L 243.651533 79.654019 
L 242.411891 79.659646 
L 241.068368 79.901157 
L 239.638527 80.37196 
L 237.756707 81.267749 
L 235.80205 82.481176 
L 233.808959 83.981344 
L 231.811532 85.732844 
L 229.456034 88.112072 
L 227.198709 90.728114 
L 225.093195 93.509433 
L 223.189919 96.382935 
L 221.535486 99.274336 
L 220.172096 102.108679 
L 219.13701 104.810971 
L 218.548431 106.908456 
L 218.225542 108.820782 
L 218.180024 110.507514 
L 218.347711 111.668658 
L 218.697008 112.642865 
L 219.2248 113.414454 
L 219.924912 113.97115 
L 220.788356 114.305136 
L 221.803721 114.413624 
L 222.957697 114.298453 
L 224.235686 113.964924 
L 225.983827 113.252669 
L 227.869232 112.229452 
L 229.857799 110.917038 
L 232.329687 108.996767 
L 234.833682 106.748789 
L 237.302544 104.231372 
L 239.667352 101.507753 
L 241.858379 98.645377 
L 243.806073 95.715559 
L 245.194384 93.276411 
L 246.330738 90.887353 
L 247.185077 88.594786 
L 247.736276 86.446043 
L 247.974177 84.488712 
L 247.939174 83.092309 
L 247.708776 81.871706 
L 247.290556 80.848166 
L 246.694183 80.039772 
L 245.931112 79.460253 
L 245.014494 79.118267 
L 243.958972 79.017344 
L 242.780289 79.156354 
L 241.494829 79.530186 
L 239.763232 80.314449 
L 237.923563 81.429063 
L 236.008663 82.844787 
L 233.657672 84.892608 
L 231.301839 87.258581 
L 228.996287 89.872864 
L 226.440998 93.140969 
L 224.106912 96.533251 
L 222.068558 99.931809 
L 220.60816 102.75999 
L 219.452516 105.43144 
L 218.634441 107.873239 
L 218.230605 109.681672 
L 218.093169 111.242675 
L 218.180928 112.288847 
L 218.446366 113.136996 
L 218.888176 113.773803 
L 219.501951 114.190164 
L 220.280307 114.381922 
L 221.213277 114.349729 
L 222.288912 114.097937 
L 223.813747 113.484888 
L 225.512553 112.556253 
L 227.737922 111.054256 
L 230.113789 109.170039 
L 232.580116 106.954566 
L 235.48723 104.028411 
L 238.326345 100.829736 
L 240.989437 97.465234 
L 243.049121 94.534849 
L 244.830885 91.639775 
L 246.270009 88.856766 
L 247.167225 86.680049 
L 247.764568 84.682199 
L 248.0495 82.909353 
L 248.051308 81.683203 
L 247.856177 80.650871 
L 247.471421 79.830687 
L 246.906865 79.23706 
L 246.174256 78.879682 
L 245.286917 78.763188 
L 244.259404 78.8874 
L 243.107152 79.247915 
L 241.515792 80.018411 
L 239.786325 81.123248 
L 237.573961 82.849864 
L 235.264859 84.957652 
L 232.914726 87.379962 
L 230.194409 90.508882 
L 227.578118 93.853774 
L 225.147037 97.296948 
L 222.977321 100.719554 
L 221.138889 104.002775 
L 219.694222 107.029431 
L 218.81044 109.333325 
L 218.284081 111.297188 
L 218.134926 112.628272 
L 218.211569 113.469979 
L 218.464377 114.099153 
L 218.892067 114.50707 
L 219.49027 114.689833 
L 220.251734 114.64822 
L 221.166821 114.38662 
L 222.509252 113.760782 
L 224.378252 112.594242 
L 226.483779 111.008829 
L 229.169504 108.68954 
L 232.016397 105.945121 
L 235.343298 102.410292 
L 238.601841 98.597867 
L 241.272023 95.162489 
L 243.659585 91.75419 
L 245.65687 88.491519 
L 246.981931 85.903025 
L 247.773083 83.952038 
L 248.257755 82.236252 
L 248.427182 80.798826 
L 248.337175 79.875456 
L 248.052883 79.171274 
L 247.583426 78.698318 
L 246.940117 78.463912 
L 246.135764 78.470603 
L 245.184238 78.716451 
L 243.810225 79.350743 
L 242.258906 80.330356 
L 240.206446 81.925017 
L 237.996807 83.924349 
L 235.293041 86.682349 
L 232.142869 90.257964 
L 229.050024 94.118741 
L 226.136828 98.087886 
L 223.518912 101.987538 
L 221.302956 105.641304 
L 219.584328 108.877643 
L 218.553115 111.238901 
L 218.056612 112.833186 
L 217.933119 113.817405 
L 218.030274 114.362559 
L 218.302963 114.684769 
L 218.749282 114.781915 
L 219.364378 114.65603 
L 220.359091 114.193093 
L 221.858723 113.209278 
L 223.980951 111.513235 
L 226.811468 108.934293 
L 230.369934 105.363939 
L 234.565625 100.803296 
L 238.739432 95.909784 
L 242.224942 91.486109 
L 244.914773 87.742896 
L 246.821397 84.757212 
L 248.208502 82.166131 
L 248.928267 80.347868 
L 249.178659 79.16848 
L 249.149606 78.468322 
L 248.922132 77.997849 
L 248.626542 77.800562 
L 248.074597 77.748066 
L 247.164985 77.995553 
L 245.69148 78.653814 
L 244.268202 79.502033 
L 242.639359 80.746396 
L 241.026943 82.265854 
L 239.039878 84.43913 
L 235.929292 88.18789 
L 224.330558 102.465531 
L 217.215953 110.747841 
L 210.304293 118.44523 
L 202.484544 126.788272 
L 195.35143 134.016643 
L 187.603119 141.537169 
L 179.460357 149.101375 
L 171.136932 156.475609 
L 162.837114 163.466423 
L 154.741797 169.930398 
L 146.99951 175.771959 
L 139.726666 180.928462 
L 133.012555 185.357979 
L 128.382653 188.18825 
L 124.121141 190.592101 
L 120.245592 192.563752 
L 116.769662 194.10066 
L 113.707592 195.199746 
L 111.073266 195.859298 
L 109.562103 196.054117 
L 108.251349 196.053919 
L 107.145688 195.859043 
L 106.248363 195.471648 
L 105.561986 194.89493 
L 105.089536 194.132213 
L 104.831499 193.189373 
L 104.788622 192.072404 
L 104.959862 190.788963 
L 105.342972 189.34761 
L 106.308251 186.909206 
L 107.729546 184.167215 
L 109.590106 181.152559 
L 111.872948 177.894436 
L 114.556545 174.423263 
L 117.617962 170.769543 
L 122.243469 165.667718 
L 127.43231 160.369376 
L 133.115953 154.945165 
L 139.220597 149.461148 
L 145.668258 143.977516 
L 152.378177 138.548647 
L 159.267986 133.224101 
L 168.006416 126.784683 
L 176.73567 120.662358 
L 185.307052 114.931312 
L 193.593143 109.656407 
L 201.49082 104.893098 
L 208.915376 100.684358 
L 215.791192 97.057835 
L 222.049202 94.023983 
L 227.632931 91.575949 
L 232.50302 89.695408 
L 236.639117 88.358628 
L 239.416497 87.663842 
L 241.725065 87.288004 
L 243.572221 87.217883 
L 244.661151 87.357731 
L 245.502343 87.655914 
L 246.102669 88.106264 
L 246.470056 88.702401 
L 246.613491 89.437687 
L 246.54296 90.305221 
L 246.135199 91.655175 
L 245.395218 93.209533 
L 244.050293 95.411329 
L 241.906027 98.382834 
L 238.823082 102.21811 
L 233.708037 108.172389 
L 220.77776 123.093531 
L 216.609095 128.275239 
L 214.280144 131.512306 
L 213.54568 132.844522 
L 213.555542 133.061625 
L 213.596147 133.068999 
L 213.906235 132.913083 
L 214.792946 132.135491 
L 216.689599 130.132274 
L 219.658253 126.672235 
L 223.764214 121.559703 
L 228.919348 114.78989 
L 234.330588 107.316011 
L 239.104014 100.354135 
L 243.003938 94.286519 
L 245.962447 89.280882 
L 248.034047 85.349543 
L 249.357063 82.40279 
L 250.223694 79.912269 
L 250.585991 78.221875 
L 250.623201 76.904195 
L 250.425566 76.127169 
L 250.034041 75.599315 
L 249.618648 75.366293 
L 248.910608 75.269129 
L 248.036487 75.408913 
L 246.728524 75.900535 
L 245.20511 76.719688 
L 243.131726 78.091435 
L 240.440341 80.152017 
L 237.112975 82.989287 
L 233.211419 86.608941 
L 228.905247 90.896033 
L 224.124401 95.98412 
L 219.870354 100.851043 
L 217.188063 104.2275 
L 216.089763 105.925782 
L 215.984976 106.395538 
L 216.155258 106.474477 
L 216.638115 106.313182 
L 217.802839 105.620227 
L 220.372159 103.764449 
L 225.016267 100.097009 
L 233.40874 93.147608 
L 242.277504 85.527805 
L 247.357659 80.903499 
L 249.62747 78.580827 
L 250.067499 77.915037 
L 249.915261 77.947262 
L 249.166905 78.499215 
L 247.141473 80.344954 
L 243.49207 84.00079 
L 237.246427 90.612724 
L 228.358238 100.379994 
L 216.888548 113.007277 
L 216.77351 113.068977 
L 216.847861 112.918836 
L 217.705096 111.831574 
L 221.100457 107.94551 
L 228.533836 99.811229 
L 249.28079 77.336242 
L 250.048039 76.182313 
L 249.976895 76.172506 
L 249.493764 76.553178 
L 247.989581 78.100524 
L 245.076177 81.439889 
L 240.5034 87.02258 
L 233.977069 95.361516 
L 226.694485 105.042758 
L 220.860086 113.138726 
L 217.788733 117.72296 
L 217.406605 118.565167 
L 217.573841 118.48978 
L 218.303887 117.803504 
L 220.766594 115.099786 
L 226.382285 108.556466 
L 235.233241 97.897681 
L 241.498977 90.047546 
L 245.348897 84.915224 
L 247.690964 81.464256 
L 248.9914 79.166037 
L 249.434287 78.00294 
L 249.451728 77.431006 
L 249.243485 77.240752 
L 248.847737 77.28844 
L 248.105845 77.676781 
L 246.88299 78.604373 
L 244.757578 80.555787 
L 241.816497 83.5763 
L 237.276995 88.591705 
L 231.218974 95.65528 
L 223.840299 104.627191 
L 217.715034 112.260671 
L 218.998853 110.78794 
L 229.181296 99.301037 
L 247.332454 78.88849 
L 249.492543 76.111883 
L 249.746142 75.56108 
L 249.719887 75.559223 
L 249.403625 75.775984 
L 248.29798 76.895461 
L 246.013113 79.547308 
L 242.234666 84.28266 
L 236.918878 91.313054 
L 230.881892 99.661769 
L 225.308698 107.730847 
L 221.210944 114.024087 
L 218.967338 117.823436 
L 218.222594 119.427265 
L 218.216256 119.833331 
L 218.436353 119.800816 
L 218.961943 119.421893 
L 220.356016 118.061667 
L 222.951626 115.161181 
L 227.051793 110.204492 
L 232.244596 103.549866 
L 237.210092 96.816057 
L 241.077864 91.209951 
L 243.76308 86.981358 
L 245.676358 83.622137 
L 247.08611 80.704691 
L 247.848708 78.63879 
L 248.159614 77.268444 
L 248.179347 76.244205 
L 247.992529 75.684606 
L 247.633317 75.359652 
L 247.109712 75.268387 
L 246.430379 75.405958 
L 245.376619 75.886757 
L 243.839158 76.88612 
L 241.72016 78.571503 
L 238.958649 81.070698 
L 235.171351 84.836898 
L 230.843669 89.463993 
L 225.573641 95.446725 
L 220.101708 102.014895 
L 216.804066 106.268508 
L 216.810943 106.289581 
L 216.902321 106.228891 
L 218.068078 105.08882 
L 237.692314 85.316029 
L 247.512796 75.827416 
L 249.568613 74.043174 
L 249.625947 74.069239 
L 249.618749 74.10795 
L 249.307754 74.656412 
L 247.207213 77.644031 
L 239.183007 89.032336 
L 232.691189 98.617837 
L 226.338747 108.387575 
L 220.546206 117.70829 
L 216.935294 123.892129 
L 216.857048 124.100055 
L 217.048897 123.879801 
L 218.979672 121.112328 
L 234.914083 97.582692 
L 242.435689 86.240161 
L 245.798818 80.816438 
L 247.666618 77.403967 
L 248.473296 75.521441 
L 248.699644 74.4933 
L 248.617409 74.116756 
L 248.35592 73.987273 
L 247.922713 74.100642 
L 247.152374 74.571785 
L 245.679141 75.805239 
L 243.192201 78.254659 
L 239.440522 82.28993 
L 233.576735 88.944183 
L 225.00005 99.042922 
L 216.673337 109.00431 
L 217.604865 108.028307 
L 225.398985 99.940991 
L 234.758805 90.535506 
L 243.317659 82.230169 
L 247.860221 78.085964 
L 248.875281 77.378439 
L 248.984491 77.444857 
L 248.888445 77.749622 
L 248.255263 78.845191 
L 245.953533 82.270133 
L 243.078678 86.397648 
L 243.078678 86.397648 
" style="fill:none;stroke:#d62728;stroke-linecap:square;stroke-opacity:0.7;stroke-width:1.5;"/>
   </g>
   <g id="line2d_27">
    <path clip-path="url(#pfe8373ffbf)" d="M 228.678192 105.198878 
L 228.678192 105.198878 
" style="fill:none;stroke:#000000;stroke-dasharray:5.55,2.4;stroke-dashoffset:0;stroke-opacity:0.595;stroke-width:1.5;"/>
   </g>
   <g id="patch_3">
    <path d="M 97.49 231.64 
L 97.49 66.48 
" style="fill:none;stroke:#000000;stroke-linecap:square;stroke-linejoin:miter;stroke-width:0.8;"/>
   </g>
   <g id="patch_4">
    <path d="M 257.94 231.64 
L 257.94 66.48 
" style="fill:none;stroke:#000000;stroke-linecap:square;stroke-linejoin:miter;stroke-width:0.8;"/>
   </g>
   <g id="patch_5">
    <path d="M 97.49 231.64 
L 257.94 231.64 
" style="fill:none;stroke:#000000;stroke-linecap:square;stroke-linejoin:miter;stroke-width:0.8;"/>
   </g>
   <g id="patch_6">
    <path d="M 97.49 66.48 
L 257.94 66.48 
" style="fill:none;stroke:#000000;stroke-linecap:square;stroke-linejoin:miter;stroke-width:0.8;"/>
   </g>
   <g id="text_15">
    <!-- Plano xy -->
    <g transform="translate(152.270312 60.48)scale(0.12 -0.12)">
     <defs>
      <path d="M 1259 4147 
L 1259 2394 
L 2053 2394 
Q 2494 2394 2734 2622 
Q 2975 2850 2975 3272 
Q 2975 3691 2734 3919 
Q 2494 4147 2053 4147 
L 1259 4147 
z
M 628 4666 
L 2053 4666 
Q 2838 4666 3239 4311 
Q 3641 3956 3641 3272 
Q 3641 2581 3239 2228 
Q 2838 1875 2053 1875 
L 1259 1875 
L 1259 0 
L 628 0 
L 628 4666 
z
" id="DejaVuSans-50" transform="scale(0.015625)"/>
      <path d="M 603 4863 
L 1178 4863 
L 1178 0 
L 603 0 
L 603 4863 
z
" id="DejaVuSans-6c" transform="scale(0.015625)"/>
      <path d="M 2194 1759 
Q 1497 1759 1228 1600 
Q 959 1441 959 1056 
Q 959 750 1161 570 
Q 1363 391 1709 391 
Q 2188 391 2477 730 
Q 2766 1069 2766 1631 
L 2766 1759 
L 2194 1759 
z
M 3341 1997 
L 3341 0 
L 2766 0 
L 2766 531 
Q 2569 213 2275 61 
Q 1981 -91 1556 -91 
Q 1019 -91 701 211 
Q 384 513 384 1019 
Q 384 1609 779 1909 
Q 1175 2209 1959 2209 
L 2766 2209 
L 2766 2266 
Q 2766 2663 2505 2880 
Q 2244 3097 1772 3097 
Q 1472 3097 1187 3025 
Q 903 2953 641 2809 
L 641 3341 
Q 956 3463 1253 3523 
Q 1550 3584 1831 3584 
Q 2591 3584 2966 3190 
Q 3341 2797 3341 1997 
z
" id="DejaVuSans-61" transform="scale(0.015625)"/>
      <path d="M 3513 2113 
L 3513 0 
L 2938 0 
L 2938 2094 
Q 2938 2591 2744 2837 
Q 2550 3084 2163 3084 
Q 1697 3084 1428 2787 
Q 1159 2491 1159 1978 
L 1159 0 
L 581 0 
L 581 3500 
L 1159 3500 
L 1159 2956 
Q 1366 3272 1645 3428 
Q 1925 3584 2291 3584 
Q 2894 3584 3203 3211 
Q 3513 2838 3513 2113 
z
" id="DejaVuSans-6e" transform="scale(0.015625)"/>
      <path d="M 1959 3097 
Q 1497 3097 1228 2736 
Q 959 2375 959 1747 
Q 959 1119 1226 758 
Q 1494 397 1959 397 
Q 2419 397 2687 759 
Q 2956 1122 2956 1747 
Q 2956 2369 2687 2733 
Q 2419 3097 1959 3097 
z
M 1959 3584 
Q 2709 3584 3137 3096 
Q 3566 2609 3566 1747 
Q 3566 888 3137 398 
Q 2709 -91 1959 -91 
Q 1206 -91 779 398 
Q 353 888 353 1747 
Q 353 2609 779 3096 
Q 1206 3584 1959 3584 
z
" id="DejaVuSans-6f" transform="scale(0.015625)"/>
     </defs>
     <use xlink:href="#DejaVuSans-50"/>
     <use x="60.302734" xlink:href="#DejaVuSans-6c"/>
     <use x="88.085938" xlink:href="#DejaVuSans-61"/>
     <use x="149.365234" xlink:href="#DejaVuSans-6e"/>
     <use x="212.744141" xlink:href="#DejaVuSans-6f"/>
     <use x="273.925781" xlink:href="#DejaVuSans-20"/>
     <use x="305.712891" xlink:href="#DejaVuSans-78"/>
     <use x="364.892578" xlink:href="#DejaVuSans-79"/>
    </g>
   </g>
  </g>
  <g id="axes_2">
   <g id="patch_7">
    <path d="M 318.35 231.64 
L 478.8 231.64 
L 478.8 66.48 
L 318.35 66.48 
z
" style="fill:#ffffff;"/>
   </g>
   <g id="matplotlib.axis_3">
    <g id="xtick_5">
     <g id="line2d_28">
      <path clip-path="url(#pa4f529ed3e)" d="M 325.643182 231.64 
L 325.643182 66.48 
" style="fill:none;stroke:#b0b0b0;stroke-linecap:square;stroke-width:0.8;"/>
     </g>
     <g id="line2d_29">
      <g>
       <use style="stroke:#000000;stroke-width:0.8;" x="325.643182" xlink:href="#m6382a926e9" y="231.64"/>
      </g>
     </g>
     <g id="text_16">
      <!-- 0 -->
      <g transform="translate(322.461932 246.238438)scale(0.1 -0.1)">
       <use xlink:href="#DejaVuSans-30"/>
      </g>
     </g>
    </g>
    <g id="xtick_6">
     <g id="line2d_30">
      <path clip-path="url(#pa4f529ed3e)" d="M 362.11669 231.64 
L 362.11669 66.48 
" style="fill:none;stroke:#b0b0b0;stroke-linecap:square;stroke-width:0.8;"/>
     </g>
     <g id="line2d_31">
      <g>
       <use style="stroke:#000000;stroke-width:0.8;" x="362.11669" xlink:href="#m6382a926e9" y="231.64"/>
      </g>
     </g>
     <g id="text_17">
      <!-- 5 -->
      <g transform="translate(358.93544 246.238438)scale(0.1 -0.1)">
       <use xlink:href="#DejaVuSans-35"/>
      </g>
     </g>
    </g>
    <g id="xtick_7">
     <g id="line2d_32">
      <path clip-path="url(#pa4f529ed3e)" d="M 398.590197 231.64 
L 398.590197 66.48 
" style="fill:none;stroke:#b0b0b0;stroke-linecap:square;stroke-width:0.8;"/>
     </g>
     <g id="line2d_33">
      <g>
       <use style="stroke:#000000;stroke-width:0.8;" x="398.590197" xlink:href="#m6382a926e9" y="231.64"/>
      </g>
     </g>
     <g id="text_18">
      <!-- 10 -->
      <g transform="translate(392.227697 246.238438)scale(0.1 -0.1)">
       <use xlink:href="#DejaVuSans-31"/>
       <use x="63.623047" xlink:href="#DejaVuSans-30"/>
      </g>
     </g>
    </g>
    <g id="xtick_8">
     <g id="line2d_34">
      <path clip-path="url(#pa4f529ed3e)" d="M 435.063705 231.64 
L 435.063705 66.48 
" style="fill:none;stroke:#b0b0b0;stroke-linecap:square;stroke-width:0.8;"/>
     </g>
     <g id="line2d_35">
      <g>
       <use style="stroke:#000000;stroke-width:0.8;" x="435.063705" xlink:href="#m6382a926e9" y="231.64"/>
      </g>
     </g>
     <g id="text_19">
      <!-- 15 -->
      <g transform="translate(428.701205 246.238438)scale(0.1 -0.1)">
       <use xlink:href="#DejaVuSans-31"/>
       <use x="63.623047" xlink:href="#DejaVuSans-35"/>
      </g>
     </g>
    </g>
    <g id="xtick_9">
     <g id="line2d_36">
      <path clip-path="url(#pa4f529ed3e)" d="M 471.537213 231.64 
L 471.537213 66.48 
" style="fill:none;stroke:#b0b0b0;stroke-linecap:square;stroke-width:0.8;"/>
     </g>
     <g id="line2d_37">
      <g>
       <use style="stroke:#000000;stroke-width:0.8;" x="471.537213" xlink:href="#m6382a926e9" y="231.64"/>
      </g>
     </g>
     <g id="text_20">
      <!-- 20 -->
      <g transform="translate(465.174713 246.238438)scale(0.1 -0.1)">
       <use xlink:href="#DejaVuSans-32"/>
       <use x="63.623047" xlink:href="#DejaVuSans-30"/>
      </g>
     </g>
    </g>
    <g id="text_21">
     <!-- Tiempo (s) -->
     <g transform="translate(372.0125 259.916562)scale(0.1 -0.1)">
      <defs>
       <path d="M -19 4666 
L 3928 4666 
L 3928 4134 
L 2272 4134 
L 2272 0 
L 1638 0 
L 1638 4134 
L -19 4134 
L -19 4666 
z
" id="DejaVuSans-54" transform="scale(0.015625)"/>
       <path d="M 603 3500 
L 1178 3500 
L 1178 0 
L 603 0 
L 603 3500 
z
M 603 4863 
L 1178 4863 
L 1178 4134 
L 603 4134 
L 603 4863 
z
" id="DejaVuSans-69" transform="scale(0.015625)"/>
       <path d="M 3597 1894 
L 3597 1613 
L 953 1613 
Q 991 1019 1311 708 
Q 1631 397 2203 397 
Q 2534 397 2845 478 
Q 3156 559 3463 722 
L 3463 178 
Q 3153 47 2828 -22 
Q 2503 -91 2169 -91 
Q 1331 -91 842 396 
Q 353 884 353 1716 
Q 353 2575 817 3079 
Q 1281 3584 2069 3584 
Q 2775 3584 3186 3129 
Q 3597 2675 3597 1894 
z
M 3022 2063 
Q 3016 2534 2758 2815 
Q 2500 3097 2075 3097 
Q 1594 3097 1305 2825 
Q 1016 2553 972 2059 
L 3022 2063 
z
" id="DejaVuSans-65" transform="scale(0.015625)"/>
       <path d="M 1159 525 
L 1159 -1331 
L 581 -1331 
L 581 3500 
L 1159 3500 
L 1159 2969 
Q 1341 3281 1617 3432 
Q 1894 3584 2278 3584 
Q 2916 3584 3314 3078 
Q 3713 2572 3713 1747 
Q 3713 922 3314 415 
Q 2916 -91 2278 -91 
Q 1894 -91 1617 61 
Q 1341 213 1159 525 
z
M 3116 1747 
Q 3116 2381 2855 2742 
Q 2594 3103 2138 3103 
Q 1681 3103 1420 2742 
Q 1159 2381 1159 1747 
Q 1159 1113 1420 752 
Q 1681 391 2138 391 
Q 2594 391 2855 752 
Q 3116 1113 3116 1747 
z
" id="DejaVuSans-70" transform="scale(0.015625)"/>
       <path d="M 2834 3397 
L 2834 2853 
Q 2591 2978 2328 3040 
Q 2066 3103 1784 3103 
Q 1356 3103 1142 2972 
Q 928 2841 928 2578 
Q 928 2378 1081 2264 
Q 1234 2150 1697 2047 
L 1894 2003 
Q 2506 1872 2764 1633 
Q 3022 1394 3022 966 
Q 3022 478 2636 193 
Q 2250 -91 1575 -91 
Q 1294 -91 989 -36 
Q 684 19 347 128 
L 347 722 
Q 666 556 975 473 
Q 1284 391 1588 391 
Q 1994 391 2212 530 
Q 2431 669 2431 922 
Q 2431 1156 2273 1281 
Q 2116 1406 1581 1522 
L 1381 1569 
Q 847 1681 609 1914 
Q 372 2147 372 2553 
Q 372 3047 722 3315 
Q 1072 3584 1716 3584 
Q 2034 3584 2315 3537 
Q 2597 3491 2834 3397 
z
" id="DejaVuSans-73" transform="scale(0.015625)"/>
      </defs>
      <use xlink:href="#DejaVuSans-54"/>
      <use x="57.958984" xlink:href="#DejaVuSans-69"/>
      <use x="85.742188" xlink:href="#DejaVuSans-65"/>
      <use x="147.265625" xlink:href="#DejaVuSans-6d"/>
      <use x="244.677734" xlink:href="#DejaVuSans-70"/>
      <use x="308.154297" xlink:href="#DejaVuSans-6f"/>
      <use x="369.335938" xlink:href="#DejaVuSans-20"/>
      <use x="401.123047" xlink:href="#DejaVuSans-28"/>
      <use x="440.136719" xlink:href="#DejaVuSans-73"/>
      <use x="492.236328" xlink:href="#DejaVuSans-29"/>
     </g>
    </g>
   </g>
   <g id="matplotlib.axis_4">
    <g id="ytick_9">
     <g id="line2d_38">
      <path clip-path="url(#pa4f529ed3e)" d="M 318.35 221.931884 
L 478.8 221.931884 
" style="fill:none;stroke:#b0b0b0;stroke-linecap:square;stroke-width:0.8;"/>
     </g>
     <g id="line2d_39">
      <g>
       <use style="stroke:#000000;stroke-width:0.8;" x="318.35" xlink:href="#m73b040edfa" y="221.931884"/>
      </g>
     </g>
     <g id="text_22">
      <!-- 0.925 -->
      <g transform="translate(282.721875 225.731102)scale(0.1 -0.1)">
       <defs>
        <path d="M 703 97 
L 703 672 
Q 941 559 1184 500 
Q 1428 441 1663 441 
Q 2288 441 2617 861 
Q 2947 1281 2994 2138 
Q 2813 1869 2534 1725 
Q 2256 1581 1919 1581 
Q 1219 1581 811 2004 
Q 403 2428 403 3163 
Q 403 3881 828 4315 
Q 1253 4750 1959 4750 
Q 2769 4750 3195 4129 
Q 3622 3509 3622 2328 
Q 3622 1225 3098 567 
Q 2575 -91 1691 -91 
Q 1453 -91 1209 -44 
Q 966 3 703 97 
z
M 1959 2075 
Q 2384 2075 2632 2365 
Q 2881 2656 2881 3163 
Q 2881 3666 2632 3958 
Q 2384 4250 1959 4250 
Q 1534 4250 1286 3958 
Q 1038 3666 1038 3163 
Q 1038 2656 1286 2365 
Q 1534 2075 1959 2075 
z
" id="DejaVuSans-39" transform="scale(0.015625)"/>
       </defs>
       <use xlink:href="#DejaVuSans-30"/>
       <use x="63.623047" xlink:href="#DejaVuSans-2e"/>
       <use x="95.410156" xlink:href="#DejaVuSans-39"/>
       <use x="159.033203" xlink:href="#DejaVuSans-32"/>
       <use x="222.65625" xlink:href="#DejaVuSans-35"/>
      </g>
     </g>
    </g>
    <g id="ytick_10">
     <g id="line2d_40">
      <path clip-path="url(#pa4f529ed3e)" d="M 318.35 201.007908 
L 478.8 201.007908 
" style="fill:none;stroke:#b0b0b0;stroke-linecap:square;stroke-width:0.8;"/>
     </g>
     <g id="line2d_41">
      <g>
       <use style="stroke:#000000;stroke-width:0.8;" x="318.35" xlink:href="#m73b040edfa" y="201.007908"/>
      </g>
     </g>
     <g id="text_23">
      <!-- 0.950 -->
      <g transform="translate(282.721875 204.807127)scale(0.1 -0.1)">
       <use xlink:href="#DejaVuSans-30"/>
       <use x="63.623047" xlink:href="#DejaVuSans-2e"/>
       <use x="95.410156" xlink:href="#DejaVuSans-39"/>
       <use x="159.033203" xlink:href="#DejaVuSans-35"/>
       <use x="222.65625" xlink:href="#DejaVuSans-30"/>
      </g>
     </g>
    </g>
    <g id="ytick_11">
     <g id="line2d_42">
      <path clip-path="url(#pa4f529ed3e)" d="M 318.35 180.083933 
L 478.8 180.083933 
" style="fill:none;stroke:#b0b0b0;stroke-linecap:square;stroke-width:0.8;"/>
     </g>
     <g id="line2d_43">
      <g>
       <use style="stroke:#000000;stroke-width:0.8;" x="318.35" xlink:href="#m73b040edfa" y="180.083933"/>
      </g>
     </g>
     <g id="text_24">
      <!-- 0.975 -->
      <g transform="translate(282.721875 183.883152)scale(0.1 -0.1)">
       <defs>
        <path d="M 525 4666 
L 3525 4666 
L 3525 4397 
L 1831 0 
L 1172 0 
L 2766 4134 
L 525 4134 
L 525 4666 
z
" id="DejaVuSans-37" transform="scale(0.015625)"/>
       </defs>
       <use xlink:href="#DejaVuSans-30"/>
       <use x="63.623047" xlink:href="#DejaVuSans-2e"/>
       <use x="95.410156" xlink:href="#DejaVuSans-39"/>
       <use x="159.033203" xlink:href="#DejaVuSans-37"/>
       <use x="222.65625" xlink:href="#DejaVuSans-35"/>
      </g>
     </g>
    </g>
    <g id="ytick_12">
     <g id="line2d_44">
      <path clip-path="url(#pa4f529ed3e)" d="M 318.35 159.159958 
L 478.8 159.159958 
" style="fill:none;stroke:#b0b0b0;stroke-linecap:square;stroke-width:0.8;"/>
     </g>
     <g id="line2d_45">
      <g>
       <use style="stroke:#000000;stroke-width:0.8;" x="318.35" xlink:href="#m73b040edfa" y="159.159958"/>
      </g>
     </g>
     <g id="text_25">
      <!-- 1.000 -->
      <g transform="translate(282.721875 162.959177)scale(0.1 -0.1)">
       <use xlink:href="#DejaVuSans-31"/>
       <use x="63.623047" xlink:href="#DejaVuSans-2e"/>
       <use x="95.410156" xlink:href="#DejaVuSans-30"/>
       <use x="159.033203" xlink:href="#DejaVuSans-30"/>
       <use x="222.65625" xlink:href="#DejaVuSans-30"/>
      </g>
     </g>
    </g>
    <g id="ytick_13">
     <g id="line2d_46">
      <path clip-path="url(#pa4f529ed3e)" d="M 318.35 138.235983 
L 478.8 138.235983 
" style="fill:none;stroke:#b0b0b0;stroke-linecap:square;stroke-width:0.8;"/>
     </g>
     <g id="line2d_47">
      <g>
       <use style="stroke:#000000;stroke-width:0.8;" x="318.35" xlink:href="#m73b040edfa" y="138.235983"/>
      </g>
     </g>
     <g id="text_26">
      <!-- 1.025 -->
      <g transform="translate(282.721875 142.035202)scale(0.1 -0.1)">
       <use xlink:href="#DejaVuSans-31"/>
       <use x="63.623047" xlink:href="#DejaVuSans-2e"/>
       <use x="95.410156" xlink:href="#DejaVuSans-30"/>
       <use x="159.033203" xlink:href="#DejaVuSans-32"/>
       <use x="222.65625" xlink:href="#DejaVuSans-35"/>
      </g>
     </g>
    </g>
    <g id="ytick_14">
     <g id="line2d_48">
      <path clip-path="url(#pa4f529ed3e)" d="M 318.35 117.312008 
L 478.8 117.312008 
" style="fill:none;stroke:#b0b0b0;stroke-linecap:square;stroke-width:0.8;"/>
     </g>
     <g id="line2d_49">
      <g>
       <use style="stroke:#000000;stroke-width:0.8;" x="318.35" xlink:href="#m73b040edfa" y="117.312008"/>
      </g>
     </g>
     <g id="text_27">
      <!-- 1.050 -->
      <g transform="translate(282.721875 121.111227)scale(0.1 -0.1)">
       <use xlink:href="#DejaVuSans-31"/>
       <use x="63.623047" xlink:href="#DejaVuSans-2e"/>
       <use x="95.410156" xlink:href="#DejaVuSans-30"/>
       <use x="159.033203" xlink:href="#DejaVuSans-35"/>
       <use x="222.65625" xlink:href="#DejaVuSans-30"/>
      </g>
     </g>
    </g>
    <g id="ytick_15">
     <g id="line2d_50">
      <path clip-path="url(#pa4f529ed3e)" d="M 318.35 96.388033 
L 478.8 96.388033 
" style="fill:none;stroke:#b0b0b0;stroke-linecap:square;stroke-width:0.8;"/>
     </g>
     <g id="line2d_51">
      <g>
       <use style="stroke:#000000;stroke-width:0.8;" x="318.35" xlink:href="#m73b040edfa" y="96.388033"/>
      </g>
     </g>
     <g id="text_28">
      <!-- 1.075 -->
      <g transform="translate(282.721875 100.187252)scale(0.1 -0.1)">
       <use xlink:href="#DejaVuSans-31"/>
       <use x="63.623047" xlink:href="#DejaVuSans-2e"/>
       <use x="95.410156" xlink:href="#DejaVuSans-30"/>
       <use x="159.033203" xlink:href="#DejaVuSans-37"/>
       <use x="222.65625" xlink:href="#DejaVuSans-35"/>
      </g>
     </g>
    </g>
    <g id="ytick_16">
     <g id="line2d_52">
      <path clip-path="url(#pa4f529ed3e)" d="M 318.35 75.464058 
L 478.8 75.464058 
" style="fill:none;stroke:#b0b0b0;stroke-linecap:square;stroke-width:0.8;"/>
     </g>
     <g id="line2d_53">
      <g>
       <use style="stroke:#000000;stroke-width:0.8;" x="318.35" xlink:href="#m73b040edfa" y="75.464058"/>
      </g>
     </g>
     <g id="text_29">
      <!-- 1.100 -->
      <g transform="translate(282.721875 79.263276)scale(0.1 -0.1)">
       <use xlink:href="#DejaVuSans-31"/>
       <use x="63.623047" xlink:href="#DejaVuSans-2e"/>
       <use x="95.410156" xlink:href="#DejaVuSans-31"/>
       <use x="159.033203" xlink:href="#DejaVuSans-30"/>
       <use x="222.65625" xlink:href="#DejaVuSans-30"/>
      </g>
     </g>
    </g>
    <g id="text_30">
     <!-- z (m) -->
     <g transform="translate(276.642188 162.045156)rotate(-90)scale(0.1 -0.1)">
      <defs>
       <path d="M 353 3500 
L 3084 3500 
L 3084 2975 
L 922 459 
L 3084 459 
L 3084 0 
L 275 0 
L 275 525 
L 2438 3041 
L 353 3041 
L 353 3500 
z
" id="DejaVuSans-7a" transform="scale(0.015625)"/>
      </defs>
      <use xlink:href="#DejaVuSans-7a"/>
      <use x="52.490234" xlink:href="#DejaVuSans-20"/>
      <use x="84.277344" xlink:href="#DejaVuSans-28"/>
      <use x="123.291016" xlink:href="#DejaVuSans-6d"/>
      <use x="220.703125" xlink:href="#DejaVuSans-29"/>
     </g>
    </g>
   </g>
   <g id="line2d_54">
    <path clip-path="url(#pa4f529ed3e)" d="M 325.643182 159.302357 
L 325.947128 160.172475 
L 326.251074 160.442947 
L 326.615809 160.453811 
L 327.436463 160.174105 
L 328.986587 159.705891 
L 330.779867 159.416125 
L 333.424197 159.233972 
L 338.469699 159.149075 
L 361.995111 159.138565 
L 398.620592 159.224289 
L 398.74217 160.368882 
L 398.954932 165.169728 
L 399.47164 183.689833 
L 400.505056 219.361297 
L 400.778608 224.067206 
L 400.839397 224.124272 
L 400.869792 224.041824 
L 401.021764 222.940226 
L 401.32571 218.476709 
L 403.088597 189.153287 
L 403.878856 180.856884 
L 404.69951 174.552527 
L 405.520164 169.889784 
L 406.310423 166.604279 
L 407.100682 164.233525 
L 407.921336 162.460609 
L 408.772385 161.127954 
L 409.684223 160.106579 
L 410.656849 159.356942 
L 411.751055 158.801311 
L 413.088417 158.381223 
L 414.790514 158.091062 
L 417.28287 157.912237 
L 421.781269 157.847669 
L 439.197369 157.950855 
L 471.506818 158.150031 
L 471.506818 158.150031 
" style="fill:none;stroke:#1f77b4;stroke-linecap:square;stroke-opacity:0.7;stroke-width:1.5;"/>
   </g>
   <g id="line2d_55">
    <path clip-path="url(#pa4f529ed3e)" d="M 325.643182 159.302357 
L 326.919755 164.747187 
L 327.953171 168.319092 
L 328.226722 168.743245 
L 328.378695 168.704297 
L 328.561062 168.350128 
L 328.834614 167.166098 
L 329.229743 164.218386 
L 330.141581 154.943894 
L 332.542754 131.315235 
L 334.366429 115.559739 
L 335.855764 104.509642 
L 337.101942 96.794707 
L 338.226542 91.211954 
L 339.442326 86.296875 
L 340.59732 82.530894 
L 341.691525 79.700656 
L 342.84652 77.326035 
L 343.819147 75.790731 
L 344.670195 74.839396 
L 345.460454 74.282501 
L 346.189925 74.029909 
L 346.949789 74.005301 
L 347.709654 74.205724 
L 348.651886 74.701153 
L 350.323589 75.879218 
L 351.600161 77.023077 
L 352.694367 78.323754 
L 354.183702 80.468997 
L 357.223161 84.909423 
L 363.849181 93.055716 
L 365.03457 93.963262 
L 369.532969 96.848875 
L 370.475202 97.24953 
L 371.447829 97.411285 
L 373.393082 97.43837 
L 375.703071 97.55744 
L 377.070828 97.522512 
L 378.165033 97.212993 
L 383.301719 95.543885 
L 384.365529 95.123385 
L 388.01288 93.416801 
L 389.836555 92.871747 
L 391.295496 92.357964 
L 393.57509 91.402255 
L 395.307582 90.872688 
L 397.192046 90.587957 
L 398.499014 90.323907 
L 398.620592 90.368296 
L 398.74217 91.437886 
L 398.954932 96.260442 
L 399.350062 112.037695 
L 400.748213 171.40029 
L 400.960975 173.314155 
L 401.021764 173.325856 
L 401.052159 173.267545 
L 401.204132 172.437432 
L 401.538473 168.790002 
L 402.207153 161.74142 
L 402.602283 159.683474 
L 402.936624 158.948901 
L 403.210175 158.821682 
L 403.878856 158.711637 
L 404.182802 158.318123 
L 404.517142 157.446583 
L 404.912272 155.689888 
L 405.459375 152.015017 
L 410.322509 116.064718 
L 411.477503 109.580505 
L 412.267763 106.267228 
L 413.544335 102.139679 
L 414.942487 98.264516 
L 416.5534 94.460385 
L 417.981946 91.558193 
L 419.228124 89.563948 
L 420.869432 87.425335 
L 422.054821 86.180297 
L 423.270604 85.227708 
L 424.486388 84.532467 
L 425.519804 84.206107 
L 426.614009 84.096445 
L 429.957414 84.183615 
L 431.537933 84.534984 
L 433.027268 85.130538 
L 436.705013 86.730266 
L 438.74145 87.630881 
L 442.662352 89.641769 
L 446.431282 90.893755 
L 449.835476 92.522995 
L 454.333875 94.032542 
L 456.005577 94.662298 
L 456.826231 94.689634 
L 460.412793 94.638905 
L 461.658971 94.950343 
L 463.452252 95.415262 
L 464.880798 95.438688 
L 469.044856 95.232135 
L 470.503797 95.14951 
L 471.506818 94.79464 
L 471.506818 94.79464 
" style="fill:none;stroke:#d62728;stroke-linecap:square;stroke-opacity:0.7;stroke-width:1.5;"/>
   </g>
   <g id="line2d_56">
    <path clip-path="url(#pa4f529ed3e)" d="M 325.643182 159.159958 
L 471.506818 159.159958 
L 471.506818 159.159958 
" style="fill:none;stroke:#000000;stroke-dasharray:5.55,2.4;stroke-dashoffset:0;stroke-opacity:0.595;stroke-width:1.5;"/>
   </g>
   <g id="patch_8">
    <path d="M 318.35 231.64 
L 318.35 66.48 
" style="fill:none;stroke:#000000;stroke-linecap:square;stroke-linejoin:miter;stroke-width:0.8;"/>
   </g>
   <g id="patch_9">
    <path d="M 478.8 231.64 
L 478.8 66.48 
" style="fill:none;stroke:#000000;stroke-linecap:square;stroke-linejoin:miter;stroke-width:0.8;"/>
   </g>
   <g id="patch_10">
    <path d="M 318.35 231.64 
L 478.8 231.64 
" style="fill:none;stroke:#000000;stroke-linecap:square;stroke-linejoin:miter;stroke-width:0.8;"/>
   </g>
   <g id="patch_11">
    <path d="M 318.35 66.48 
L 478.8 66.48 
" style="fill:none;stroke:#000000;stroke-linecap:square;stroke-linejoin:miter;stroke-width:0.8;"/>
   </g>
   <g id="text_31">
    <!-- Plano z -->
    <g transform="translate(377.08375 60.48)scale(0.12 -0.12)">
     <use xlink:href="#DejaVuSans-50"/>
     <use x="60.302734" xlink:href="#DejaVuSans-6c"/>
     <use x="88.085938" xlink:href="#DejaVuSans-61"/>
     <use x="149.365234" xlink:href="#DejaVuSans-6e"/>
     <use x="212.744141" xlink:href="#DejaVuSans-6f"/>
     <use x="273.925781" xlink:href="#DejaVuSans-20"/>
     <use x="305.712891" xlink:href="#DejaVuSans-7a"/>
    </g>
   </g>
  </g>
  <g id="text_32">
   <!-- Vista planos -->
   <g transform="translate(239.4 17.9175)scale(0.16 -0.16)">
    <defs>
     <path d="M 1831 0 
L 50 4666 
L 709 4666 
L 2188 738 
L 3669 4666 
L 4325 4666 
L 2547 0 
L 1831 0 
z
" id="DejaVuSans-56" transform="scale(0.015625)"/>
     <path d="M 1172 4494 
L 1172 3500 
L 2356 3500 
L 2356 3053 
L 1172 3053 
L 1172 1153 
Q 1172 725 1289 603 
Q 1406 481 1766 481 
L 2356 481 
L 2356 0 
L 1766 0 
Q 1100 0 847 248 
Q 594 497 594 1153 
L 594 3053 
L 172 3053 
L 172 3500 
L 594 3500 
L 594 4494 
L 1172 4494 
z
" id="DejaVuSans-74" transform="scale(0.015625)"/>
    </defs>
    <use xlink:href="#DejaVuSans-56"/>
    <use x="66.158203" xlink:href="#DejaVuSans-69"/>
    <use x="93.941406" xlink:href="#DejaVuSans-73"/>
    <use x="146.041016" xlink:href="#DejaVuSans-74"/>
    <use x="185.25" xlink:href="#DejaVuSans-61"/>
    <use x="246.529297" xlink:href="#DejaVuSans-20"/>
    <use x="278.316406" xlink:href="#DejaVuSans-70"/>
    <use x="341.792969" xlink:href="#DejaVuSans-6c"/>
    <use x="369.576172" xlink:href="#DejaVuSans-61"/>
    <use x="430.855469" xlink:href="#DejaVuSans-6e"/>
    <use x="494.234375" xlink:href="#DejaVuSans-6f"/>
    <use x="555.416016" xlink:href="#DejaVuSans-73"/>
   </g>
  </g>
  <g id="legend_1">
   <g id="patch_12">
    <path d="M 483.89375 167.517188 
L 569 167.517188 
Q 571 167.517188 571 165.517188 
L 571 122.482812 
Q 571 120.482812 569 120.482812 
L 483.89375 120.482812 
Q 481.89375 120.482812 481.89375 122.482812 
L 481.89375 165.517188 
Q 481.89375 167.517188 483.89375 167.517188 
z
" style="fill:#ffffff;opacity:0.8;stroke:#cccccc;stroke-linejoin:miter;"/>
   </g>
   <g id="line2d_57">
    <path d="M 485.89375 128.58125 
L 505.89375 128.58125 
" style="fill:none;stroke:#1f77b4;stroke-linecap:square;stroke-opacity:0.7;stroke-width:1.5;"/>
   </g>
   <g id="line2d_58"/>
   <g id="text_33">
    <!-- DSLPID -->
    <g transform="translate(513.89375 132.08125)scale(0.1 -0.1)">
     <defs>
      <path d="M 1259 4147 
L 1259 519 
L 2022 519 
Q 2988 519 3436 956 
Q 3884 1394 3884 2338 
Q 3884 3275 3436 3711 
Q 2988 4147 2022 4147 
L 1259 4147 
z
M 628 4666 
L 1925 4666 
Q 3281 4666 3915 4102 
Q 4550 3538 4550 2338 
Q 4550 1131 3912 565 
Q 3275 0 1925 0 
L 628 0 
L 628 4666 
z
" id="DejaVuSans-44" transform="scale(0.015625)"/>
      <path d="M 3425 4513 
L 3425 3897 
Q 3066 4069 2747 4153 
Q 2428 4238 2131 4238 
Q 1616 4238 1336 4038 
Q 1056 3838 1056 3469 
Q 1056 3159 1242 3001 
Q 1428 2844 1947 2747 
L 2328 2669 
Q 3034 2534 3370 2195 
Q 3706 1856 3706 1288 
Q 3706 609 3251 259 
Q 2797 -91 1919 -91 
Q 1588 -91 1214 -16 
Q 841 59 441 206 
L 441 856 
Q 825 641 1194 531 
Q 1563 422 1919 422 
Q 2459 422 2753 634 
Q 3047 847 3047 1241 
Q 3047 1584 2836 1778 
Q 2625 1972 2144 2069 
L 1759 2144 
Q 1053 2284 737 2584 
Q 422 2884 422 3419 
Q 422 4038 858 4394 
Q 1294 4750 2059 4750 
Q 2388 4750 2728 4690 
Q 3069 4631 3425 4513 
z
" id="DejaVuSans-53" transform="scale(0.015625)"/>
      <path d="M 628 4666 
L 1259 4666 
L 1259 531 
L 3531 531 
L 3531 0 
L 628 0 
L 628 4666 
z
" id="DejaVuSans-4c" transform="scale(0.015625)"/>
      <path d="M 628 4666 
L 1259 4666 
L 1259 0 
L 628 0 
L 628 4666 
z
" id="DejaVuSans-49" transform="scale(0.015625)"/>
     </defs>
     <use xlink:href="#DejaVuSans-44"/>
     <use x="77.001953" xlink:href="#DejaVuSans-53"/>
     <use x="140.478516" xlink:href="#DejaVuSans-4c"/>
     <use x="196.191406" xlink:href="#DejaVuSans-50"/>
     <use x="256.494141" xlink:href="#DejaVuSans-49"/>
     <use x="285.986328" xlink:href="#DejaVuSans-44"/>
    </g>
   </g>
   <g id="line2d_59">
    <path d="M 485.89375 143.259375 
L 505.89375 143.259375 
" style="fill:none;stroke:#d62728;stroke-linecap:square;stroke-opacity:0.7;stroke-width:1.5;"/>
   </g>
   <g id="line2d_60"/>
   <g id="text_34">
    <!-- LSTM -->
    <g transform="translate(513.89375 146.759375)scale(0.1 -0.1)">
     <defs>
      <path d="M 628 4666 
L 1569 4666 
L 2759 1491 
L 3956 4666 
L 4897 4666 
L 4897 0 
L 4281 0 
L 4281 4097 
L 3078 897 
L 2444 897 
L 1241 4097 
L 1241 0 
L 628 0 
L 628 4666 
z
" id="DejaVuSans-4d" transform="scale(0.015625)"/>
     </defs>
     <use xlink:href="#DejaVuSans-4c"/>
     <use x="55.712891" xlink:href="#DejaVuSans-53"/>
     <use x="119.189453" xlink:href="#DejaVuSans-54"/>
     <use x="180.273438" xlink:href="#DejaVuSans-4d"/>
    </g>
   </g>
   <g id="line2d_61">
    <path d="M 485.89375 157.9375 
L 505.89375 157.9375 
" style="fill:none;stroke:#000000;stroke-dasharray:5.55,2.4;stroke-dashoffset:0;stroke-opacity:0.595;stroke-width:1.5;"/>
   </g>
   <g id="line2d_62"/>
   <g id="text_35">
    <!-- Referencia -->
    <g transform="translate(513.89375 161.4375)scale(0.1 -0.1)">
     <defs>
      <path d="M 2841 2188 
Q 3044 2119 3236 1894 
Q 3428 1669 3622 1275 
L 4263 0 
L 3584 0 
L 2988 1197 
Q 2756 1666 2539 1819 
Q 2322 1972 1947 1972 
L 1259 1972 
L 1259 0 
L 628 0 
L 628 4666 
L 2053 4666 
Q 2853 4666 3247 4331 
Q 3641 3997 3641 3322 
Q 3641 2881 3436 2590 
Q 3231 2300 2841 2188 
z
M 1259 4147 
L 1259 2491 
L 2053 2491 
Q 2509 2491 2742 2702 
Q 2975 2913 2975 3322 
Q 2975 3731 2742 3939 
Q 2509 4147 2053 4147 
L 1259 4147 
z
" id="DejaVuSans-52" transform="scale(0.015625)"/>
      <path d="M 2375 4863 
L 2375 4384 
L 1825 4384 
Q 1516 4384 1395 4259 
Q 1275 4134 1275 3809 
L 1275 3500 
L 2222 3500 
L 2222 3053 
L 1275 3053 
L 1275 0 
L 697 0 
L 697 3053 
L 147 3053 
L 147 3500 
L 697 3500 
L 697 3744 
Q 697 4328 969 4595 
Q 1241 4863 1831 4863 
L 2375 4863 
z
" id="DejaVuSans-66" transform="scale(0.015625)"/>
      <path d="M 2631 2963 
Q 2534 3019 2420 3045 
Q 2306 3072 2169 3072 
Q 1681 3072 1420 2755 
Q 1159 2438 1159 1844 
L 1159 0 
L 581 0 
L 581 3500 
L 1159 3500 
L 1159 2956 
Q 1341 3275 1631 3429 
Q 1922 3584 2338 3584 
Q 2397 3584 2469 3576 
Q 2541 3569 2628 3553 
L 2631 2963 
z
" id="DejaVuSans-72" transform="scale(0.015625)"/>
      <path d="M 3122 3366 
L 3122 2828 
Q 2878 2963 2633 3030 
Q 2388 3097 2138 3097 
Q 1578 3097 1268 2742 
Q 959 2388 959 1747 
Q 959 1106 1268 751 
Q 1578 397 2138 397 
Q 2388 397 2633 464 
Q 2878 531 3122 666 
L 3122 134 
Q 2881 22 2623 -34 
Q 2366 -91 2075 -91 
Q 1284 -91 818 406 
Q 353 903 353 1747 
Q 353 2603 823 3093 
Q 1294 3584 2113 3584 
Q 2378 3584 2631 3529 
Q 2884 3475 3122 3366 
z
" id="DejaVuSans-63" transform="scale(0.015625)"/>
     </defs>
     <use xlink:href="#DejaVuSans-52"/>
     <use x="64.982422" xlink:href="#DejaVuSans-65"/>
     <use x="126.505859" xlink:href="#DejaVuSans-66"/>
     <use x="161.710938" xlink:href="#DejaVuSans-65"/>
     <use x="223.234375" xlink:href="#DejaVuSans-72"/>
     <use x="262.097656" xlink:href="#DejaVuSans-65"/>
     <use x="323.621094" xlink:href="#DejaVuSans-6e"/>
     <use x="387" xlink:href="#DejaVuSans-63"/>
     <use x="441.980469" xlink:href="#DejaVuSans-69"/>
     <use x="469.763672" xlink:href="#DejaVuSans-61"/>
    </g>
   </g>
  </g>
 </g>
 <defs>
  <clipPath id="pfe8373ffbf">
   <rect height="165.16" width="160.45" x="97.49" y="66.48"/>
  </clipPath>
  <clipPath id="pa4f529ed3e">
   <rect height="165.16" width="160.45" x="318.35" y="66.48"/>
  </clipPath>
 </defs>
</svg>
