<?xml version="1.0" encoding="utf-8" standalone="no"?>
<!DOCTYPE svg PUBLIC "-//W3C//DTD SVG 1.1//EN"
  "http://www.w3.org/Graphics/SVG/1.1/DTD/svg11.dtd">
<svg height="576pt" version="1.1" viewBox="0 0 576 576" width="576pt" xmlns="http://www.w3.org/2000/svg" xmlns:xlink="http://www.w3.org/1999/xlink">
 <metadata>
  <rdf:RDF xmlns:cc="http://creativecommons.org/ns#" xmlns:dc="http://purl.org/dc/elements/1.1/" xmlns:rdf="http://www.w3.org/1999/02/22-rdf-syntax-ns#">
   <cc:Work>
    <dc:type rdf:resource="http://purl.org/dc/dcmitype/StillImage"/>
    <dc:date>2022-02-28T02:22:03.601865</dc:date>
    <dc:format>image/svg+xml</dc:format>
    <dc:creator>
     <cc:Agent>
      <dc:title>Matplotlib v3.4.3, https://matplotlib.org/</dc:title>
     </cc:Agent>
    </dc:creator>
   </cc:Work>
  </rdf:RDF>
 </metadata>
 <defs>
  <style type="text/css">*{stroke-linecap:butt;stroke-linejoin:round;}</style>
 </defs>
 <g id="figure_1">
  <g id="patch_1">
   <path d="M 0 576 
L 576 576 
L 576 0 
L 0 0 
z
" style="fill:#ffffff;"/>
  </g>
  <g id="patch_2">
   <path d="M 10.8 565.2 
L 565.2 565.2 
L 565.2 10.8 
L 10.8 10.8 
z
" style="fill:#ffffff;"/>
  </g>
  <g id="pane3d_1">
   <g id="patch_3">
    <path d="M 52.661023 428.502727 
L 235.742009 275.040614 
L 233.197008 53.720814 
L 41.354653 193.718627 
" style="fill:#f2f2f2;opacity:0.5;stroke:#f2f2f2;stroke-linejoin:miter;"/>
   </g>
  </g>
  <g id="pane3d_2">
   <g id="patch_4">
    <path d="M 235.742009 275.040614 
L 529.521668 360.430763 
L 540.005628 131.487856 
L 233.197008 53.720814 
" style="fill:#e6e6e6;opacity:0.5;stroke:#e6e6e6;stroke-linejoin:miter;"/>
   </g>
  </g>
  <g id="pane3d_3">
   <g id="patch_5">
    <path d="M 52.661023 428.502727 
L 364.08181 530.212756 
L 529.521668 360.430763 
L 235.742009 275.040614 
" style="fill:#ececec;opacity:0.5;stroke:#ececec;stroke-linejoin:miter;"/>
   </g>
  </g>
  <g id="axis3d_1">
   <g id="line2d_1">
    <path d="M 52.661023 428.502727 
L 364.08181 530.212756 
" style="fill:none;stroke:#000000;stroke-linecap:square;stroke-width:0.8;"/>
   </g>
   <g id="text_1">
    <!-- x (m) -->
    <g transform="translate(174.526236 511.624996)rotate(-341.912962)scale(0.1 -0.1)">
     <defs>
      <path d="M 3513 3500 
L 2247 1797 
L 3578 0 
L 2900 0 
L 1881 1375 
L 863 0 
L 184 0 
L 1544 1831 
L 300 3500 
L 978 3500 
L 1906 2253 
L 2834 3500 
L 3513 3500 
z
" id="DejaVuSans-78" transform="scale(0.015625)"/>
      <path id="DejaVuSans-20" transform="scale(0.015625)"/>
      <path d="M 1984 4856 
Q 1566 4138 1362 3434 
Q 1159 2731 1159 2009 
Q 1159 1288 1364 580 
Q 1569 -128 1984 -844 
L 1484 -844 
Q 1016 -109 783 600 
Q 550 1309 550 2009 
Q 550 2706 781 3412 
Q 1013 4119 1484 4856 
L 1984 4856 
z
" id="DejaVuSans-28" transform="scale(0.015625)"/>
      <path d="M 3328 2828 
Q 3544 3216 3844 3400 
Q 4144 3584 4550 3584 
Q 5097 3584 5394 3201 
Q 5691 2819 5691 2113 
L 5691 0 
L 5113 0 
L 5113 2094 
Q 5113 2597 4934 2840 
Q 4756 3084 4391 3084 
Q 3944 3084 3684 2787 
Q 3425 2491 3425 1978 
L 3425 0 
L 2847 0 
L 2847 2094 
Q 2847 2600 2669 2842 
Q 2491 3084 2119 3084 
Q 1678 3084 1418 2786 
Q 1159 2488 1159 1978 
L 1159 0 
L 581 0 
L 581 3500 
L 1159 3500 
L 1159 2956 
Q 1356 3278 1631 3431 
Q 1906 3584 2284 3584 
Q 2666 3584 2933 3390 
Q 3200 3197 3328 2828 
z
" id="DejaVuSans-6d" transform="scale(0.015625)"/>
      <path d="M 513 4856 
L 1013 4856 
Q 1481 4119 1714 3412 
Q 1947 2706 1947 2009 
Q 1947 1309 1714 600 
Q 1481 -109 1013 -844 
L 513 -844 
Q 928 -128 1133 580 
Q 1338 1288 1338 2009 
Q 1338 2731 1133 3434 
Q 928 4138 513 4856 
z
" id="DejaVuSans-29" transform="scale(0.015625)"/>
     </defs>
     <use xlink:href="#DejaVuSans-78"/>
     <use x="59.179688" xlink:href="#DejaVuSans-20"/>
     <use x="90.966797" xlink:href="#DejaVuSans-28"/>
     <use x="129.980469" xlink:href="#DejaVuSans-6d"/>
     <use x="227.392578" xlink:href="#DejaVuSans-29"/>
    </g>
   </g>
   <g id="Line3DCollection_1">
    <path d="M 69.988422 434.161856 
L 252.156145 279.811556 
L 250.304967 58.057183 
" style="fill:none;stroke:#b0b0b0;stroke-width:0.8;"/>
    <path d="M 110.834907 447.502317 
L 290.817806 291.048974 
L 290.61679 68.275055 
" style="fill:none;stroke:#b0b0b0;stroke-width:0.8;"/>
    <path d="M 152.264031 461.033069 
L 329.985166 302.433379 
L 331.478726 78.632365 
" style="fill:none;stroke:#b0b0b0;stroke-width:0.8;"/>
    <path d="M 194.28835 474.758212 
L 369.668213 313.967674 
L 372.902116 89.131987 
" style="fill:none;stroke:#b0b0b0;stroke-width:0.8;"/>
    <path d="M 236.920784 488.681965 
L 409.877197 325.654839 
L 414.89861 99.776874 
" style="fill:none;stroke:#b0b0b0;stroke-width:0.8;"/>
    <path d="M 280.174628 502.80867 
L 450.622646 337.497932 
L 457.480186 110.570062 
" style="fill:none;stroke:#b0b0b0;stroke-width:0.8;"/>
    <path d="M 324.063568 517.142798 
L 491.915366 349.500096 
L 500.659155 121.514672 
" style="fill:none;stroke:#b0b0b0;stroke-width:0.8;"/>
   </g>
   <g id="xtick_1">
    <g id="line2d_2">
     <path d="M 71.574694 432.817811 
L 66.809073 436.855711 
" style="fill:none;stroke:#000000;stroke-linecap:square;stroke-width:0.8;"/>
    </g>
    <g id="text_2">
     <!-- −0.02 -->
     <g transform="translate(47.150512 457.435627)scale(0.1 -0.1)">
      <defs>
       <path d="M 678 2272 
L 4684 2272 
L 4684 1741 
L 678 1741 
L 678 2272 
z
" id="DejaVuSans-2212" transform="scale(0.015625)"/>
       <path d="M 2034 4250 
Q 1547 4250 1301 3770 
Q 1056 3291 1056 2328 
Q 1056 1369 1301 889 
Q 1547 409 2034 409 
Q 2525 409 2770 889 
Q 3016 1369 3016 2328 
Q 3016 3291 2770 3770 
Q 2525 4250 2034 4250 
z
M 2034 4750 
Q 2819 4750 3233 4129 
Q 3647 3509 3647 2328 
Q 3647 1150 3233 529 
Q 2819 -91 2034 -91 
Q 1250 -91 836 529 
Q 422 1150 422 2328 
Q 422 3509 836 4129 
Q 1250 4750 2034 4750 
z
" id="DejaVuSans-30" transform="scale(0.015625)"/>
       <path d="M 684 794 
L 1344 794 
L 1344 0 
L 684 0 
L 684 794 
z
" id="DejaVuSans-2e" transform="scale(0.015625)"/>
       <path d="M 1228 531 
L 3431 531 
L 3431 0 
L 469 0 
L 469 531 
Q 828 903 1448 1529 
Q 2069 2156 2228 2338 
Q 2531 2678 2651 2914 
Q 2772 3150 2772 3378 
Q 2772 3750 2511 3984 
Q 2250 4219 1831 4219 
Q 1534 4219 1204 4116 
Q 875 4013 500 3803 
L 500 4441 
Q 881 4594 1212 4672 
Q 1544 4750 1819 4750 
Q 2544 4750 2975 4387 
Q 3406 4025 3406 3419 
Q 3406 3131 3298 2873 
Q 3191 2616 2906 2266 
Q 2828 2175 2409 1742 
Q 1991 1309 1228 531 
z
" id="DejaVuSans-32" transform="scale(0.015625)"/>
      </defs>
      <use xlink:href="#DejaVuSans-2212"/>
      <use x="83.789062" xlink:href="#DejaVuSans-30"/>
      <use x="147.412109" xlink:href="#DejaVuSans-2e"/>
      <use x="179.199219" xlink:href="#DejaVuSans-30"/>
      <use x="242.822266" xlink:href="#DejaVuSans-32"/>
     </g>
    </g>
   </g>
   <g id="xtick_2">
    <g id="line2d_3">
     <path d="M 112.403056 446.139176 
L 107.691835 450.234489 
" style="fill:none;stroke:#000000;stroke-linecap:square;stroke-width:0.8;"/>
    </g>
    <g id="text_3">
     <!-- 0.00 -->
     <g transform="translate(92.206764 470.911213)scale(0.1 -0.1)">
      <use xlink:href="#DejaVuSans-30"/>
      <use x="63.623047" xlink:href="#DejaVuSans-2e"/>
      <use x="95.410156" xlink:href="#DejaVuSans-30"/>
      <use x="159.033203" xlink:href="#DejaVuSans-30"/>
     </g>
    </g>
   </g>
   <g id="xtick_3">
    <g id="line2d_4">
     <path d="M 153.813376 459.650422 
L 149.1586 463.80438 
" style="fill:none;stroke:#000000;stroke-linecap:square;stroke-width:0.8;"/>
    </g>
    <g id="text_4">
     <!-- 0.02 -->
     <g transform="translate(133.657147 484.579363)scale(0.1 -0.1)">
      <use xlink:href="#DejaVuSans-30"/>
      <use x="63.623047" xlink:href="#DejaVuSans-2e"/>
      <use x="95.410156" xlink:href="#DejaVuSans-30"/>
      <use x="159.033203" xlink:href="#DejaVuSans-32"/>
     </g>
    </g>
   </g>
   <g id="xtick_4">
    <g id="line2d_5">
     <path d="M 195.818188 473.355637 
L 191.22197 477.569509 
" style="fill:none;stroke:#000000;stroke-linecap:square;stroke-width:0.8;"/>
    </g>
    <g id="text_5">
     <!-- 0.04 -->
     <g transform="translate(175.704114 498.444236)scale(0.1 -0.1)">
      <defs>
       <path d="M 2419 4116 
L 825 1625 
L 2419 1625 
L 2419 4116 
z
M 2253 4666 
L 3047 4666 
L 3047 1625 
L 3713 1625 
L 3713 1100 
L 3047 1100 
L 3047 0 
L 2419 0 
L 2419 1100 
L 313 1100 
L 313 1709 
L 2253 4666 
z
" id="DejaVuSans-34" transform="scale(0.015625)"/>
      </defs>
      <use xlink:href="#DejaVuSans-30"/>
      <use x="63.623047" xlink:href="#DejaVuSans-2e"/>
      <use x="95.410156" xlink:href="#DejaVuSans-30"/>
      <use x="159.033203" xlink:href="#DejaVuSans-34"/>
     </g>
    </g>
   </g>
   <g id="xtick_5">
    <g id="line2d_6">
     <path d="M 238.430386 487.259027 
L 233.894916 491.53412 
" style="fill:none;stroke:#000000;stroke-linecap:square;stroke-width:0.8;"/>
    </g>
    <g id="text_6">
     <!-- 0.06 -->
     <g transform="translate(218.360638 512.510108)scale(0.1 -0.1)">
      <defs>
       <path d="M 2113 2584 
Q 1688 2584 1439 2293 
Q 1191 2003 1191 1497 
Q 1191 994 1439 701 
Q 1688 409 2113 409 
Q 2538 409 2786 701 
Q 3034 994 3034 1497 
Q 3034 2003 2786 2293 
Q 2538 2584 2113 2584 
z
M 3366 4563 
L 3366 3988 
Q 3128 4100 2886 4159 
Q 2644 4219 2406 4219 
Q 1781 4219 1451 3797 
Q 1122 3375 1075 2522 
Q 1259 2794 1537 2939 
Q 1816 3084 2150 3084 
Q 2853 3084 3261 2657 
Q 3669 2231 3669 1497 
Q 3669 778 3244 343 
Q 2819 -91 2113 -91 
Q 1303 -91 875 529 
Q 447 1150 447 2328 
Q 447 3434 972 4092 
Q 1497 4750 2381 4750 
Q 2619 4750 2861 4703 
Q 3103 4656 3366 4563 
z
" id="DejaVuSans-36" transform="scale(0.015625)"/>
      </defs>
      <use xlink:href="#DejaVuSans-30"/>
      <use x="63.623047" xlink:href="#DejaVuSans-2e"/>
      <use x="95.410156" xlink:href="#DejaVuSans-30"/>
      <use x="159.033203" xlink:href="#DejaVuSans-36"/>
     </g>
    </g>
   </g>
   <g id="xtick_6">
    <g id="line2d_7">
     <path d="M 281.66324 501.364924 
L 277.190784 505.702581 
" style="fill:none;stroke:#000000;stroke-linecap:square;stroke-width:0.8;"/>
    </g>
    <g id="text_7">
     <!-- 0.08 -->
     <g transform="translate(261.640071 526.781382)scale(0.1 -0.1)">
      <defs>
       <path d="M 2034 2216 
Q 1584 2216 1326 1975 
Q 1069 1734 1069 1313 
Q 1069 891 1326 650 
Q 1584 409 2034 409 
Q 2484 409 2743 651 
Q 3003 894 3003 1313 
Q 3003 1734 2745 1975 
Q 2488 2216 2034 2216 
z
M 1403 2484 
Q 997 2584 770 2862 
Q 544 3141 544 3541 
Q 544 4100 942 4425 
Q 1341 4750 2034 4750 
Q 2731 4750 3128 4425 
Q 3525 4100 3525 3541 
Q 3525 3141 3298 2862 
Q 3072 2584 2669 2484 
Q 3125 2378 3379 2068 
Q 3634 1759 3634 1313 
Q 3634 634 3220 271 
Q 2806 -91 2034 -91 
Q 1263 -91 848 271 
Q 434 634 434 1313 
Q 434 1759 690 2068 
Q 947 2378 1403 2484 
z
M 1172 3481 
Q 1172 3119 1398 2916 
Q 1625 2713 2034 2713 
Q 2441 2713 2670 2916 
Q 2900 3119 2900 3481 
Q 2900 3844 2670 4047 
Q 2441 4250 2034 4250 
Q 1625 4250 1398 4047 
Q 1172 3844 1172 3481 
z
" id="DejaVuSans-38" transform="scale(0.015625)"/>
      </defs>
      <use xlink:href="#DejaVuSans-30"/>
      <use x="63.623047" xlink:href="#DejaVuSans-2e"/>
      <use x="95.410156" xlink:href="#DejaVuSans-30"/>
      <use x="159.033203" xlink:href="#DejaVuSans-38"/>
     </g>
    </g>
   </g>
   <g id="xtick_7">
    <g id="line2d_8">
     <path d="M 325.530409 515.677783 
L 321.123315 520.079388 
" style="fill:none;stroke:#000000;stroke-linecap:square;stroke-width:0.8;"/>
    </g>
    <g id="text_8">
     <!-- 0.10 -->
     <g transform="translate(305.556157 541.262592)scale(0.1 -0.1)">
      <defs>
       <path d="M 794 531 
L 1825 531 
L 1825 4091 
L 703 3866 
L 703 4441 
L 1819 4666 
L 2450 4666 
L 2450 531 
L 3481 531 
L 3481 0 
L 794 0 
L 794 531 
z
" id="DejaVuSans-31" transform="scale(0.015625)"/>
      </defs>
      <use xlink:href="#DejaVuSans-30"/>
      <use x="63.623047" xlink:href="#DejaVuSans-2e"/>
      <use x="95.410156" xlink:href="#DejaVuSans-31"/>
      <use x="159.033203" xlink:href="#DejaVuSans-30"/>
     </g>
    </g>
   </g>
  </g>
  <g id="axis3d_2">
   <g id="line2d_9">
    <path d="M 529.521668 360.430763 
L 364.08181 530.212756 
" style="fill:none;stroke:#000000;stroke-linecap:square;stroke-width:0.8;"/>
   </g>
   <g id="text_9">
    <!-- y (m) -->
    <g transform="translate(470.139263 480.978729)rotate(-45.742112)scale(0.1 -0.1)">
     <defs>
      <path d="M 2059 -325 
Q 1816 -950 1584 -1140 
Q 1353 -1331 966 -1331 
L 506 -1331 
L 506 -850 
L 844 -850 
Q 1081 -850 1212 -737 
Q 1344 -625 1503 -206 
L 1606 56 
L 191 3500 
L 800 3500 
L 1894 763 
L 2988 3500 
L 3597 3500 
L 2059 -325 
z
" id="DejaVuSans-79" transform="scale(0.015625)"/>
     </defs>
     <use xlink:href="#DejaVuSans-79"/>
     <use x="59.179688" xlink:href="#DejaVuSans-20"/>
     <use x="90.966797" xlink:href="#DejaVuSans-28"/>
     <use x="129.980469" xlink:href="#DejaVuSans-6d"/>
     <use x="227.392578" xlink:href="#DejaVuSans-29"/>
    </g>
   </g>
   <g id="Line3DCollection_2">
    <path d="M 72.946247 170.664521 
L 82.714334 403.311446 
L 391.339643 502.239514 
" style="fill:none;stroke:#b0b0b0;stroke-width:0.8;"/>
    <path d="M 101.807938 149.602573 
L 110.203499 380.269483 
L 416.237214 476.688481 
" style="fill:none;stroke:#b0b0b0;stroke-width:0.8;"/>
    <path d="M 129.928939 129.081148 
L 137.017402 357.793538 
L 440.491376 451.797744 
" style="fill:none;stroke:#b0b0b0;stroke-width:0.8;"/>
    <path d="M 157.337401 109.079701 
L 163.180621 335.863009 
L 464.126751 427.542035 
" style="fill:none;stroke:#b0b0b0;stroke-width:0.8;"/>
    <path d="M 184.060067 89.578716 
L 188.716558 314.45828 
L 487.166721 403.897358 
" style="fill:none;stroke:#b0b0b0;stroke-width:0.8;"/>
    <path d="M 210.122359 70.559642 
L 213.647505 293.560666 
L 509.633504 380.840911 
" style="fill:none;stroke:#b0b0b0;stroke-width:0.8;"/>
   </g>
   <g id="xtick_8">
    <g id="line2d_10">
     <path d="M 388.739934 501.406192 
L 396.545728 503.908294 
" style="fill:none;stroke:#000000;stroke-linecap:square;stroke-width:0.8;"/>
    </g>
    <g id="text_10">
     <!-- 0.00 -->
     <g transform="translate(392.981773 523.141781)scale(0.1 -0.1)">
      <use xlink:href="#DejaVuSans-30"/>
      <use x="63.623047" xlink:href="#DejaVuSans-2e"/>
      <use x="95.410156" xlink:href="#DejaVuSans-30"/>
      <use x="159.033203" xlink:href="#DejaVuSans-30"/>
     </g>
    </g>
   </g>
   <g id="xtick_9">
    <g id="line2d_11">
     <path d="M 413.661032 475.876828 
L 421.3961 478.313839 
" style="fill:none;stroke:#000000;stroke-linecap:square;stroke-width:0.8;"/>
    </g>
    <g id="text_11">
     <!-- 0.02 -->
     <g transform="translate(417.719072 497.409363)scale(0.1 -0.1)">
      <use xlink:href="#DejaVuSans-30"/>
      <use x="63.623047" xlink:href="#DejaVuSans-2e"/>
      <use x="95.410156" xlink:href="#DejaVuSans-30"/>
      <use x="159.033203" xlink:href="#DejaVuSans-32"/>
     </g>
    </g>
   </g>
   <g id="xtick_10">
    <g id="line2d_12">
     <path d="M 437.93838 451.006927 
L 445.603748 453.381354 
" style="fill:none;stroke:#000000;stroke-linecap:square;stroke-width:0.8;"/>
    </g>
    <g id="text_12">
     <!-- 0.04 -->
     <g transform="translate(441.816925 472.342113)scale(0.1 -0.1)">
      <use xlink:href="#DejaVuSans-30"/>
      <use x="63.623047" xlink:href="#DejaVuSans-2e"/>
      <use x="95.410156" xlink:href="#DejaVuSans-30"/>
      <use x="159.033203" xlink:href="#DejaVuSans-34"/>
     </g>
    </g>
   </g>
   <g id="xtick_11">
    <g id="line2d_13">
     <path d="M 461.596604 426.771261 
L 469.193287 429.085484 
" style="fill:none;stroke:#000000;stroke-linecap:square;stroke-width:0.8;"/>
    </g>
    <g id="text_13">
     <!-- 0.06 -->
     <g transform="translate(465.299811 447.914569)scale(0.1 -0.1)">
      <use xlink:href="#DejaVuSans-30"/>
      <use x="63.623047" xlink:href="#DejaVuSans-2e"/>
      <use x="95.410156" xlink:href="#DejaVuSans-30"/>
      <use x="159.033203" xlink:href="#DejaVuSans-36"/>
     </g>
    </g>
   </g>
   <g id="xtick_12">
    <g id="line2d_14">
     <path d="M 484.659088 403.145875 
L 492.188093 405.402155 
" style="fill:none;stroke:#000000;stroke-linecap:square;stroke-width:0.8;"/>
    </g>
    <g id="text_14">
     <!-- 0.08 -->
     <g transform="translate(488.190973 424.102553)scale(0.1 -0.1)">
      <use xlink:href="#DejaVuSans-30"/>
      <use x="63.623047" xlink:href="#DejaVuSans-2e"/>
      <use x="95.410156" xlink:href="#DejaVuSans-30"/>
      <use x="159.033203" xlink:href="#DejaVuSans-38"/>
     </g>
    </g>
   </g>
   <g id="xtick_13">
    <g id="line2d_15">
     <path d="M 507.148056 380.108003 
L 514.610378 382.30849 
" style="fill:none;stroke:#000000;stroke-linecap:square;stroke-width:0.8;"/>
    </g>
    <g id="text_15">
     <!-- 0.10 -->
     <g transform="translate(510.512498 400.883088)scale(0.1 -0.1)">
      <use xlink:href="#DejaVuSans-30"/>
      <use x="63.623047" xlink:href="#DejaVuSans-2e"/>
      <use x="95.410156" xlink:href="#DejaVuSans-31"/>
      <use x="159.033203" xlink:href="#DejaVuSans-30"/>
     </g>
    </g>
   </g>
  </g>
  <g id="axis3d_3">
   <g id="line2d_16">
    <path d="M 529.521668 360.430763 
L 540.005628 131.487856 
" style="fill:none;stroke:#000000;stroke-linecap:square;stroke-width:0.8;"/>
   </g>
   <g id="text_16">
    <!-- z (m) -->
    <g transform="translate(577.326905 256.136884)rotate(-87.378092)scale(0.1 -0.1)">
     <defs>
      <path d="M 353 3500 
L 3084 3500 
L 3084 2975 
L 922 459 
L 3084 459 
L 3084 0 
L 275 0 
L 275 525 
L 2438 3041 
L 353 3041 
L 353 3500 
z
" id="DejaVuSans-7a" transform="scale(0.015625)"/>
     </defs>
     <use xlink:href="#DejaVuSans-7a"/>
     <use x="52.490234" xlink:href="#DejaVuSans-20"/>
     <use x="84.277344" xlink:href="#DejaVuSans-28"/>
     <use x="123.291016" xlink:href="#DejaVuSans-6d"/>
     <use x="220.703125" xlink:href="#DejaVuSans-29"/>
    </g>
   </g>
   <g id="Line3DCollection_3">
    <path d="M 529.732325 355.830541 
L 235.690766 270.584357 
L 52.434216 423.792925 
" style="fill:none;stroke:#b0b0b0;stroke-width:0.8;"/>
    <path d="M 531.020364 327.703074 
L 235.377539 243.345374 
L 51.047097 394.988504 
" style="fill:none;stroke:#b0b0b0;stroke-width:0.8;"/>
    <path d="M 532.322646 299.264563 
L 235.061014 215.819542 
L 49.644055 365.853424 
" style="fill:none;stroke:#b0b0b0;stroke-width:0.8;"/>
    <path d="M 533.639409 270.509819 
L 234.741138 188.002309 
L 48.224814 336.381961 
" style="fill:none;stroke:#b0b0b0;stroke-width:0.8;"/>
    <path d="M 534.970896 241.433538 
L 234.417858 159.88902 
L 46.789091 306.568253 
" style="fill:none;stroke:#b0b0b0;stroke-width:0.8;"/>
    <path d="M 536.317356 212.030298 
L 234.091118 131.474926 
L 45.336599 276.406305 
" style="fill:none;stroke:#b0b0b0;stroke-width:0.8;"/>
    <path d="M 537.679042 182.294551 
L 233.760864 102.755172 
L 43.867041 245.889979 
" style="fill:none;stroke:#b0b0b0;stroke-width:0.8;"/>
    <path d="M 539.056215 152.220626 
L 233.427038 73.724799 
L 42.380114 215.012993 
" style="fill:none;stroke:#b0b0b0;stroke-width:0.8;"/>
   </g>
   <g id="xtick_14">
    <g id="line2d_17">
     <path d="M 527.264403 355.115061 
L 534.674045 357.263205 
" style="fill:none;stroke:#000000;stroke-linecap:square;stroke-width:0.8;"/>
    </g>
    <g id="text_17">
     <!-- 0.98 -->
     <g transform="translate(536.892772 360.824205)scale(0.1 -0.1)">
      <defs>
       <path d="M 703 97 
L 703 672 
Q 941 559 1184 500 
Q 1428 441 1663 441 
Q 2288 441 2617 861 
Q 2947 1281 2994 2138 
Q 2813 1869 2534 1725 
Q 2256 1581 1919 1581 
Q 1219 1581 811 2004 
Q 403 2428 403 3163 
Q 403 3881 828 4315 
Q 1253 4750 1959 4750 
Q 2769 4750 3195 4129 
Q 3622 3509 3622 2328 
Q 3622 1225 3098 567 
Q 2575 -91 1691 -91 
Q 1453 -91 1209 -44 
Q 966 3 703 97 
z
M 1959 2075 
Q 2384 2075 2632 2365 
Q 2881 2656 2881 3163 
Q 2881 3666 2632 3958 
Q 2384 4250 1959 4250 
Q 1534 4250 1286 3958 
Q 1038 3666 1038 3163 
Q 1038 2656 1286 2365 
Q 1534 2075 1959 2075 
z
" id="DejaVuSans-39" transform="scale(0.015625)"/>
      </defs>
      <use xlink:href="#DejaVuSans-30"/>
      <use x="63.623047" xlink:href="#DejaVuSans-2e"/>
      <use x="95.410156" xlink:href="#DejaVuSans-39"/>
      <use x="159.033203" xlink:href="#DejaVuSans-38"/>
     </g>
    </g>
   </g>
   <g id="xtick_15">
    <g id="line2d_18">
     <path d="M 528.538363 326.994868 
L 535.990306 329.12118 
" style="fill:none;stroke:#000000;stroke-linecap:square;stroke-width:0.8;"/>
    </g>
    <g id="text_18">
     <!-- 1.00 -->
     <g transform="translate(538.279386 332.723238)scale(0.1 -0.1)">
      <use xlink:href="#DejaVuSans-31"/>
      <use x="63.623047" xlink:href="#DejaVuSans-2e"/>
      <use x="95.410156" xlink:href="#DejaVuSans-30"/>
      <use x="159.033203" xlink:href="#DejaVuSans-30"/>
     </g>
    </g>
   </g>
   <g id="xtick_16">
    <g id="line2d_19">
     <path d="M 529.826405 298.563837 
L 537.321135 300.667701 
" style="fill:none;stroke:#000000;stroke-linecap:square;stroke-width:0.8;"/>
    </g>
    <g id="text_19">
     <!-- 1.02 -->
     <g transform="translate(539.681313 304.311972)scale(0.1 -0.1)">
      <use xlink:href="#DejaVuSans-31"/>
      <use x="63.623047" xlink:href="#DejaVuSans-2e"/>
      <use x="95.410156" xlink:href="#DejaVuSans-30"/>
      <use x="159.033203" xlink:href="#DejaVuSans-32"/>
     </g>
    </g>
   </g>
   <g id="xtick_17">
    <g id="line2d_20">
     <path d="M 531.128764 269.816784 
L 538.666774 271.897567 
" style="fill:none;stroke:#000000;stroke-linecap:square;stroke-width:0.8;"/>
    </g>
    <g id="text_20">
     <!-- 1.04 -->
     <g transform="translate(541.098805 275.585241)scale(0.1 -0.1)">
      <use xlink:href="#DejaVuSans-31"/>
      <use x="63.623047" xlink:href="#DejaVuSans-2e"/>
      <use x="95.410156" xlink:href="#DejaVuSans-30"/>
      <use x="159.033203" xlink:href="#DejaVuSans-34"/>
     </g>
    </g>
   </g>
   <g id="xtick_18">
    <g id="line2d_21">
     <path d="M 532.445681 240.74841 
L 540.027473 242.805463 
" style="fill:none;stroke:#000000;stroke-linecap:square;stroke-width:0.8;"/>
    </g>
    <g id="text_21">
     <!-- 1.06 -->
     <g transform="translate(542.532125 246.53776)scale(0.1 -0.1)">
      <use xlink:href="#DejaVuSans-31"/>
      <use x="63.623047" xlink:href="#DejaVuSans-2e"/>
      <use x="95.410156" xlink:href="#DejaVuSans-30"/>
      <use x="159.033203" xlink:href="#DejaVuSans-36"/>
     </g>
    </g>
   </g>
   <g id="xtick_19">
    <g id="line2d_22">
     <path d="M 533.7774 211.353298 
L 541.403484 213.385954 
" style="fill:none;stroke:#000000;stroke-linecap:square;stroke-width:0.8;"/>
    </g>
    <g id="text_22">
     <!-- 1.08 -->
     <g transform="translate(543.981538 217.164127)scale(0.1 -0.1)">
      <use xlink:href="#DejaVuSans-31"/>
      <use x="63.623047" xlink:href="#DejaVuSans-2e"/>
      <use x="95.410156" xlink:href="#DejaVuSans-30"/>
      <use x="159.033203" xlink:href="#DejaVuSans-38"/>
     </g>
    </g>
   </g>
   <g id="xtick_20">
    <g id="line2d_23">
     <path d="M 535.124173 181.625908 
L 542.79507 183.633483 
" style="fill:none;stroke:#000000;stroke-linecap:square;stroke-width:0.8;"/>
    </g>
    <g id="text_23">
     <!-- 1.10 -->
     <g transform="translate(545.447317 187.458818)scale(0.1 -0.1)">
      <use xlink:href="#DejaVuSans-31"/>
      <use x="63.623047" xlink:href="#DejaVuSans-2e"/>
      <use x="95.410156" xlink:href="#DejaVuSans-31"/>
      <use x="159.033203" xlink:href="#DejaVuSans-30"/>
     </g>
    </g>
   </g>
   <g id="xtick_21">
    <g id="line2d_24">
     <path d="M 536.486256 151.560574 
L 544.202494 153.542363 
" style="fill:none;stroke:#000000;stroke-linecap:square;stroke-width:0.8;"/>
    </g>
    <g id="text_24">
     <!-- 1.12 -->
     <g transform="translate(546.929742 157.416183)scale(0.1 -0.1)">
      <use xlink:href="#DejaVuSans-31"/>
      <use x="63.623047" xlink:href="#DejaVuSans-2e"/>
      <use x="95.410156" xlink:href="#DejaVuSans-31"/>
      <use x="159.033203" xlink:href="#DejaVuSans-32"/>
     </g>
    </g>
   </g>
  </g>
  <g id="axes_1">
   <g id="line2d_25">
    <path clip-path="url(#pb292d7e826)" d="M 139.380533 388.609894 
L 139.441963 390.609833 
L 139.248847 381.460286 
L 139.382452 375.877433 
L 139.644641 372.168673 
L 140.111519 368.268441 
L 140.839209 364.235422 
L 141.873865 360.115774 
L 143.251938 355.937982 
L 144.373313 353.143311 
L 145.664463 350.343908 
L 147.129552 347.549717 
L 148.77287 344.763803 
L 150.598588 341.98755 
L 152.609989 339.225879 
L 154.810515 336.478599 
L 157.202374 333.748242 
L 159.787077 331.035776 
L 162.564873 328.34204 
L 167.090661 324.340753 
L 172.040234 320.388206 
L 177.401733 316.486538 
L 183.161239 312.635581 
L 189.302726 308.835826 
L 195.808215 305.086112 
L 202.656619 301.387085 
L 209.823855 297.738675 
L 217.283262 294.140582 
L 227.634082 289.42268 
L 238.383651 284.795505 
L 249.460645 280.260199 
L 263.655834 274.724256 
L 278.102268 269.342815 
L 295.565069 263.101022 
L 315.811581 256.138217 
L 338.352989 248.639365 
L 367.491787 239.204863 
L 436.003952 217.166897 
L 448.929449 212.724219 
L 457.837618 209.429402 
L 463.766001 206.999431 
L 467.57638 205.211796 
L 469.938548 203.899483 
L 471.573172 202.764039 
L 472.584842 201.781405 
L 473.027934 201.062722 
L 473.171449 200.421773 
L 473.073647 199.846931 
L 472.716083 199.229337 
L 471.978492 198.501349 
L 469.290431 196.187634 
L 469.190671 195.696069 
L 469.328046 195.270312 
L 469.759696 194.765387 
L 470.608432 194.175873 
L 471.988627 193.497672 
L 474.428514 192.57721 
L 478.16646 191.428939 
L 484.17333 189.846235 
L 497.194387 186.507195 
L 497.191182 186.500917 
L 497.014022 186.446224 
L 495.876976 186.431487 
L 495.234017 186.38683 
L 495.343079 186.325018 
L 496.402961 186.083734 
L 496.58373 186.061552 
L 487.39889 187.705329 
L 487.242201 190.911337 
L 486.789021 198.953964 
L 486.214903 205.071134 
L 485.670399 208.935805 
L 484.909851 212.894781 
L 483.872108 216.888148 
L 482.999134 219.563573 
L 481.963482 222.237474 
L 480.753227 224.911482 
L 479.357304 227.580905 
L 477.766957 230.244614 
L 475.97539 232.902259 
L 473.97733 235.551552 
L 471.769524 238.192298 
L 469.349903 240.82204 
L 466.718121 243.439741 
L 463.875206 246.04501 
L 459.220062 249.928306 
L 454.106995 253.781994 
L 448.551976 257.605186 
L 442.573242 261.396579 
L 436.190587 265.15319 
L 429.425685 268.87178 
L 422.302454 272.546669 
L 414.847522 276.171035 
L 404.443683 280.929172 
L 393.577954 285.600836 
L 382.326741 290.182125 
L 370.767518 294.673279 
L 356.002701 300.145834 
L 341.027776 305.446739 
L 322.991304 311.568301 
L 302.170665 318.365182 
L 276.307452 326.530897 
L 204.717793 348.906403 
L 190.642779 353.631335 
L 180.218723 357.354736 
L 171.531989 360.70332 
L 165.416956 363.286692 
L 160.460807 365.615432 
L 156.579869 367.700217 
L 154.097925 369.260875 
L 152.234909 370.670205 
L 150.926214 371.937206 
L 150.105187 373.071526 
L 149.75426 373.890441 
L 149.638043 374.636697 
L 149.722673 375.315902 
L 150.060615 376.079083 
L 150.59872 376.75715 
L 151.577682 377.584245 
L 153.171795 378.569981 
L 155.899895 380.187016 
L 156.368004 380.728095 
L 156.445819 381.1271 
L 156.276515 381.526651 
L 155.858412 381.93066 
L 154.92609 382.480229 
L 153.209744 383.186812 
L 150.229906 384.131166 
L 145.226658 385.44622 
L 134.258239 388.024944 
L 128.648499 389.464679 
L 127.209005 390.020743 
L 127.102448 390.202015 
L 127.110068 390.211715 
L 127.343537 390.305941 
L 128.288801 390.37774 
L 129.12194 390.425997 
L 128.904061 390.500739 
L 127.192875 390.852969 
L 129.047915 390.581278 
L 131.316 390.16796 
L 131.316 390.16796 
" style="fill:none;stroke:#1f77b4;stroke-linecap:square;stroke-opacity:0.7;stroke-width:1.5;"/>
   </g>
   <g id="line2d_26">
    <path clip-path="url(#pb292d7e826)" d="M 139.380533 388.609894 
L 139.687224 401.895128 
L 139.645881 402.069226 
L 139.584552 401.966736 
L 139.36557 400.742261 
L 138.539071 394.226507 
L 137.425358 386.11603 
L 134.618717 368.852258 
L 133.654497 363.673193 
L 132.593923 358.179275 
L 132.217899 354.363455 
L 131.588261 348.264885 
L 130.973007 342.971611 
L 130.701051 337.23374 
L 130.36253 335.070006 
L 130.114884 333.498355 
L 129.920315 329.916562 
L 129.624955 328.507787 
L 129.496205 327.85751 
L 129.498306 325.494251 
L 129.28251 324.092823 
L 129.222404 323.670737 
L 129.304461 322.442003 
L 129.179004 321.07466 
L 129.064262 320.841895 
L 129.023232 320.901824 
L 129.019006 320.996899 
L 129.154468 319.884673 
L 129.02685 318.801839 
L 128.945776 318.709351 
L 128.901865 318.784402 
L 128.898074 319.073381 
L 129.022268 317.944454 
L 128.868723 317.229405 
L 128.808115 317.353947 
L 128.826912 317.792583 
L 128.834933 317.793213 
L 128.907776 317.667109 
L 128.972889 317.04031 
L 128.855491 316.237802 
L 128.815541 316.241711 
L 128.789621 316.296196 
L 128.76137 316.79835 
L 128.826163 316.926384 
L 128.874602 316.870363 
L 128.949724 316.463687 
L 128.880827 315.608714 
L 128.819646 315.51368 
L 128.766196 315.609765 
L 128.752145 316.177204 
L 128.81526 316.274747 
L 128.862947 316.216203 
L 128.929385 315.811026 
L 128.842049 315.031391 
L 128.787855 314.997822 
L 128.747535 315.069819 
L 128.692639 315.641633 
L 128.763642 315.932951 
L 128.808281 315.895138 
L 128.867359 315.533087 
L 128.772125 314.861849 
L 128.728799 314.857203 
L 128.697774 314.91039 
L 128.629795 315.44026 
L 128.70939 315.857863 
L 128.736986 315.841463 
L 128.805408 315.574793 
L 128.745116 314.858615 
L 128.694374 314.805186 
L 128.645085 314.888056 
L 128.590942 315.480013 
L 128.673784 315.797682 
L 128.712448 315.768309 
L 128.784704 315.427813 
L 128.711391 314.740204 
L 128.671922 314.719792 
L 128.634185 314.785518 
L 128.580662 315.354655 
L 128.664162 315.669275 
L 128.694288 315.65369 
L 128.775662 315.390838 
L 128.748705 314.678455 
L 128.685489 314.566528 
L 128.640132 314.648721 
L 128.594724 315.231345 
L 128.685087 315.546586 
L 128.716136 315.532236 
L 128.798889 315.27452 
L 128.77225 314.579217 
L 128.709545 314.471115 
L 128.664979 314.553575 
L 128.62295 315.137549 
L 128.72566 315.476998 
L 128.746364 315.467627 
L 128.82323 315.263971 
L 128.815697 314.607071 
L 128.737502 314.389983 
L 128.684108 314.478438 
L 128.650258 315.054032 
L 128.748602 315.345599 
L 128.779354 315.325828 
L 128.85564 315.052907 
L 128.811411 314.339915 
L 128.751831 314.245442 
L 128.701805 314.320288 
L 128.641926 314.876907 
L 128.728605 315.316486 
L 128.756437 315.304763 
L 128.822773 315.055196 
L 128.755266 314.387017 
L 128.70281 314.356004 
L 128.661771 314.429993 
L 128.596135 314.995936 
L 128.687553 315.452733 
L 128.706211 315.443283 
L 128.775824 315.201455 
L 128.71732 314.524902 
L 128.667224 314.483916 
L 128.62769 314.549483 
L 128.564972 315.096716 
L 128.650995 315.537445 
L 128.670624 315.533207 
L 128.746224 315.348404 
L 128.740467 314.706113 
L 128.525151 312.857465 
L 128.596252 310.773807 
L 128.856477 308.971307 
L 129.248962 307.424136 
L 129.881128 305.709321 
L 130.823345 303.822305 
L 132.145204 301.758385 
L 133.910797 299.515758 
L 136.172681 297.108802 
L 138.974359 294.548596 
L 142.348078 291.856299 
L 146.316173 289.054751 
L 150.893569 286.159213 
L 156.083727 283.195013 
L 161.884142 280.174128 
L 168.282158 277.112888 
L 175.258312 274.01734 
L 182.784128 270.891804 
L 193.610457 266.666237 
L 208.257826 261.246718 
L 227.089116 254.554321 
L 246.74972 247.844541 
L 263.374591 242.412395 
L 279.929338 237.230114 
L 299.378202 231.399523 
L 324.048247 224.265882 
L 369.261696 211.211993 
L 386.588178 205.991779 
L 397.937862 202.34081 
L 406.377698 199.380616 
L 413.94726 196.452026 
L 420.705623 193.589451 
L 428.925196 189.841105 
L 439.303438 184.833377 
L 445.890526 181.44311 
L 450.058297 179.054203 
L 453.075828 177.090381 
L 455.648186 175.177826 
L 457.82135 173.298323 
L 459.63521 171.420055 
L 461.358424 169.255208 
L 464.722645 164.810724 
L 465.725603 163.991274 
L 467.680739 162.603628 
L 468.576031 161.553765 
L 469.541947 160.0489 
L 471.318624 157.156288 
L 472.073144 156.375423 
L 473.207073 155.587078 
L 474.080894 154.832445 
L 474.856213 153.83765 
L 475.670629 152.408845 
L 477.408675 149.099364 
L 477.949291 148.651304 
L 478.517617 148.175261 
L 478.971595 147.433913 
L 479.407073 146.248009 
L 480.11908 143.932287 
L 480.160408 143.947105 
L 480.302629 143.901603 
L 480.474055 143.517713 
L 480.675617 142.488307 
L 480.794108 140.986134 
L 480.960236 141.031326 
L 481.103352 139.982621 
L 481.311055 137.350982 
L 481.359002 137.812027 
L 481.442962 136.844328 
L 481.401825 136.269431 
L 481.335231 136.705893 
L 481.353225 137.080205 
L 481.441337 136.754681 
L 481.47137 135.629914 
L 481.442874 135.528184 
L 481.386652 135.779219 
L 481.384617 136.440051 
L 481.442367 136.281881 
L 481.505815 135.350705 
L 481.461467 134.991022 
L 481.398704 135.312214 
L 481.398894 135.968281 
L 481.463292 135.790719 
L 481.517711 134.878925 
L 481.479698 134.590916 
L 481.41048 134.930187 
L 481.414825 135.61461 
L 481.465454 135.486709 
L 481.529561 134.670758 
L 481.490068 134.285219 
L 481.420427 134.636213 
L 481.422428 135.356711 
L 481.472758 135.243258 
L 481.537712 134.454476 
L 481.498593 134.07959 
L 481.428049 134.437903 
L 481.426251 135.191837 
L 481.475843 135.091907 
L 481.541302 134.324788 
L 481.502676 133.951071 
L 481.431357 134.306435 
L 481.432653 135.0801 
L 481.475952 134.987076 
L 481.543862 134.223286 
L 481.502069 133.820195 
L 481.437387 134.146974 
L 481.437737 134.938207 
L 481.474341 134.879855 
L 481.551795 134.265715 
L 481.513721 133.61642 
L 481.45469 133.896731 
L 481.453045 134.740377 
L 481.474237 134.71938 
L 481.548703 134.297649 
L 481.517196 133.338959 
L 481.511037 133.339744 
L 481.459653 133.541023 
L 481.443659 134.411107 
L 481.456991 134.401882 
L 481.527207 134.078602 
L 481.523926 133.064006 
L 481.506674 133.040868 
L 481.461487 133.189047 
L 481.414258 134.2056 
L 481.436476 134.245227 
L 481.49246 134.089705 
L 481.528803 133.236444 
L 481.496911 133.094643 
L 481.43303 133.362076 
L 481.415822 134.413458 
L 481.464912 134.320014 
L 481.518074 133.598051 
L 481.482341 133.33081 
L 481.414934 133.644903 
L 481.413499 134.641187 
L 481.46431 134.515499 
L 481.511455 133.727309 
L 481.480665 133.538241 
L 481.409271 133.888573 
L 481.414378 134.808926 
L 481.428612 134.795564 
L 481.496395 134.463446 
L 481.478315 133.673772 
L 481.454681 133.727961 
L 481.376875 134.537201 
L 481.415944 134.915109 
L 481.480368 134.707601 
L 481.500062 133.803979 
L 481.480203 133.762583 
L 481.431923 133.945689 
L 481.403838 134.981132 
L 481.423439 134.982415 
L 481.460088 134.887735 
L 481.519181 134.136431 
L 481.481606 133.825177 
L 481.410495 134.196715 
L 481.411146 135.035975 
L 481.446361 134.989474 
L 481.517645 134.406523 
L 481.483418 133.866568 
L 481.412411 134.230605 
L 481.412293 135.06261 
L 481.447403 135.015176 
L 481.518909 134.429908 
L 481.485167 133.881637 
L 481.414252 134.23848 
L 481.413421 135.063962 
L 481.448464 135.015638 
L 481.518551 134.482253 
L 481.485824 135.269852 
L 481.152643 140.539479 
L 480.730902 144.051104 
L 480.131598 147.166753 
L 479.450114 149.591058 
L 478.500371 152.057388 
L 477.211524 154.532171 
L 476.131238 156.190986 
L 474.85267 157.859852 
L 473.359661 159.544225 
L 471.638556 161.253893 
L 468.60103 163.874059 
L 464.987847 166.590049 
L 460.771016 169.417791 
L 455.931813 172.376523 
L 450.456758 175.472865 
L 444.338942 178.707066 
L 437.578379 182.074025 
L 430.182522 185.564359 
L 419.360413 190.385427 
L 410.551656 194.089067 
L 401.184435 197.832172 
L 391.297398 201.571308 
L 380.936542 205.251638 
L 370.159099 208.831082 
L 359.028756 212.250564 
L 347.621152 215.475708 
L 336.018646 218.466817 
L 324.310889 221.196007 
L 312.589775 223.650715 
L 300.944099 225.826208 
L 289.454981 227.734457 
L 278.193977 229.39645 
L 263.638246 231.292405 
L 246.346388 233.27097 
L 212.573524 237.01194 
L 199.389921 238.736606 
L 187.642234 240.522687 
L 177.336492 242.353173 
L 170.103392 243.841471 
L 163.726072 245.346637 
L 158.15152 246.863668 
L 153.321006 248.385214 
L 149.174844 249.904799 
L 145.656207 251.414996 
L 142.712547 252.907065 
L 140.294961 254.371883 
L 138.356268 255.803506 
L 136.849775 257.200539 
L 135.728927 258.566183 
L 134.947654 259.905952 
L 134.460883 261.229767 
L 134.225534 262.550038 
L 134.201526 263.877073 
L 134.413425 265.548463 
L 134.939476 267.540906 
L 135.671045 269.443622 
L 136.67014 271.438541 
L 137.859694 273.33704 
L 141.020263 278.078567 
L 141.078039 278.704849 
L 140.915151 279.154097 
L 140.510455 279.58496 
L 139.731178 280.042335 
L 138.274747 280.604107 
L 132.918766 282.507274 
L 131.291037 283.371302 
L 130.108991 284.233958 
L 129.263453 285.1076 
L 128.686915 286.004897 
L 128.335002 286.970162 
L 128.209666 287.996023 
L 128.299819 289.352198 
L 128.313462 290.590428 
L 128.134863 293.015071 
L 128.160014 293.475743 
L 128.160014 293.475743 
" style="fill:none;stroke:#d62728;stroke-linecap:square;stroke-opacity:0.7;stroke-width:1.5;"/>
   </g>
   <g id="line2d_27">
    <path clip-path="url(#pb292d7e826)" d="M 139.380533 388.609894 
L 139.435411 393.772453 
L 139.266025 394.197725 
L 139.125338 394.081441 
L 138.775605 393.347597 
L 136.025666 386.613773 
L 134.767413 384.459199 
L 133.301162 382.43294 
L 131.633269 380.526172 
L 129.535943 378.491324 
L 126.976398 376.322854 
L 123.39764 373.59746 
L 118.24441 369.967371 
L 105.023961 360.823352 
L 102.130455 358.472176 
L 100.147284 356.591194 
L 98.641631 354.870024 
L 97.551496 353.299852 
L 96.755614 351.773634 
L 96.16324 350.143089 
L 95.637537 347.956388 
L 95.104183 346.014115 
L 94.642073 345.136667 
L 94.092857 344.553814 
L 93.485474 344.226034 
L 92.8867 344.143547 
L 92.35558 344.285393 
L 91.923691 344.630826 
L 91.557259 345.228853 
L 91.185527 346.320456 
L 90.496605 349.24013 
L 89.868207 352.690294 
L 89.52179 355.884134 
L 89.200976 361.32043 
L 89.093644 365.574696 
L 89.042724 362.911304 
L 89.049358 359.126029 
L 89.224813 356.45398 
L 89.653483 353.518991 
L 90.218868 351.193219 
L 91.061377 348.782846 
L 92.243991 346.296915 
L 93.825878 343.732874 
L 95.127464 341.978714 
L 97.481067 339.278876 
L 100.34433 336.496522 
L 103.739365 333.634593 
L 107.678989 330.69631 
L 112.166303 327.690934 
L 117.197545 324.623728 
L 122.761739 321.501626 
L 128.841986 318.331536 
L 135.416505 315.118076 
L 144.90462 310.776611 
L 155.151626 306.373354 
L 166.078339 301.913519 
L 180.568184 296.2755 
L 195.833869 290.593371 
L 211.714655 284.89873 
L 231.349811 278.100105 
L 251.344589 271.400461 
L 274.762828 263.78244 
L 301.158976 255.422888 
L 332.819156 245.627639 
L 380.998068 230.9985 
L 409.389452 222.26784 
L 425.385046 217.114366 
L 437.39183 213.006631 
L 446.208616 209.783529 
L 453.690705 206.841506 
L 459.881042 204.183202 
L 464.837628 201.807134 
L 468.07703 200.039186 
L 470.55726 198.459067 
L 472.331126 197.059606 
L 473.279439 196.063956 
L 473.841784 195.172756 
L 474.048966 194.380465 
L 473.990101 193.847686 
L 473.762391 193.36471 
L 473.219221 192.79369 
L 472.431193 192.30001 
L 471.149276 191.781236 
L 469.253769 191.284597 
L 466.673769 190.847534 
L 462.57347 190.412595 
L 446.990134 189.025284 
L 444.703165 188.525507 
L 443.123375 187.967776 
L 442.087028 187.372102 
L 441.353382 186.674687 
L 440.890849 185.888398 
L 440.661689 185.029007 
L 440.63453 183.975608 
L 440.831759 182.725427 
L 441.334361 181.008816 
L 443.615148 174.090493 
L 443.623446 173.092259 
L 443.431949 172.52909 
L 443.099703 172.222038 
L 442.674078 172.136691 
L 442.127013 172.259615 
L 441.435594 172.660018 
L 440.734873 173.33139 
L 440.133275 174.216822 
L 439.677908 175.299095 
L 439.324828 176.765082 
L 438.839884 179.963941 
L 438.187019 185.757598 
L 437.48414 193.934876 
L 437.210691 200.046982 
L 436.947427 205.073499 
L 436.521601 208.539472 
L 436.072055 210.713546 
L 435.412192 212.909173 
L 434.487637 215.108728 
L 433.249045 217.288264 
L 431.659704 219.45186 
L 429.694508 221.607236 
L 427.339529 223.771916 
L 424.587612 225.956374 
L 421.437552 228.174267 
L 417.89036 230.431335 
L 412.549144 233.513597 
L 406.519688 236.681659 
L 399.819734 239.929632 
L 392.475285 243.244213 
L 384.520888 246.604656 
L 375.999366 249.988066 
L 366.960063 253.370393 
L 357.457209 256.730436 
L 345.014798 260.873605 
L 332.056319 264.928353 
L 318.70546 268.873894 
L 302.347728 273.453727 
L 283.082203 278.598799 
L 205.488059 299.028759 
L 185.727404 304.592533 
L 168.232042 309.753966 
L 153.171343 314.441774 
L 141.865041 318.184799 
L 132.474704 321.536523 
L 125.755389 324.165333 
L 120.338549 326.525655 
L 116.648656 328.345411 
L 113.756393 329.987911 
L 111.578034 331.465273 
L 110.026547 332.791135 
L 109.14911 333.790267 
L 108.595649 334.701795 
L 108.316837 335.533798 
L 108.264866 336.294591 
L 108.437828 337.125408 
L 108.871696 338.000214 
L 109.727535 339.117193 
L 111.424726 341.19676 
L 111.76894 341.969177 
L 111.863704 342.66217 
L 111.747477 343.382428 
L 111.349529 344.248476 
L 110.676022 345.16618 
L 109.480046 346.387865 
L 107.613094 347.954208 
L 104.229825 350.458329 
L 97.388022 355.478848 
L 94.645361 357.774141 
L 92.635607 359.73514 
L 91.280994 361.354956 
L 90.399151 362.751548 
L 89.911048 363.936574 
L 89.712371 364.997073 
L 89.747087 366.090785 
L 90.023377 369.011116 
L 89.753738 370.109894 
L 88.900951 372.80319 
L 88.950911 372.155868 
L 89.114268 367.969761 
L 89.50302 360.686613 
L 89.50302 360.686613 
" style="fill:none;stroke:#9467bd;stroke-linecap:square;stroke-opacity:0.7;stroke-width:1.5;"/>
   </g>
   <g id="line2d_28">
    <path clip-path="url(#pb292d7e826)" d="M 139.380533 388.609894 
L 139.802034 398.955752 
L 140.003225 400.241266 
L 140.018115 400.23455 
L 140.092691 399.978519 
L 140.242204 398.399597 
L 141.232792 385.244459 
L 144.363918 357.053745 
L 145.434435 347.740296 
L 145.736012 342.870528 
L 146.060726 338.576667 
L 146.313259 335.284205 
L 146.270033 333.310397 
L 146.3386 333.330451 
L 146.689906 333.613933 
L 146.686176 333.470526 
L 146.667297 328.76395 
L 146.90972 325.786442 
L 147.398219 323.122039 
L 148.018344 321.004361 
L 148.915485 318.821783 
L 150.139917 316.585648 
L 151.735855 314.297747 
L 153.738286 311.95896 
L 156.173433 309.566493 
L 159.05789 307.121051 
L 162.399706 304.621578 
L 166.198694 302.066786 
L 170.446782 299.457726 
L 176.785895 295.88901 
L 183.857434 292.20957 
L 191.613979 288.415552 
L 202.198191 283.512768 
L 213.674807 278.43293 
L 228.459216 272.150177 
L 244.136325 265.751082 
L 260.477473 259.328294 
L 277.256933 252.957682 
L 299.927376 244.618292 
L 328.034754 234.547512 
L 413.044565 204.275944 
L 451.311552 190.296961 
L 477.011327 180.751603 
L 477.276768 180.504643 
L 477.255103 180.486935 
L 476.954474 180.453786 
L 475.580725 180.599447 
L 469.779166 181.315956 
L 467.925494 181.333378 
L 466.855751 181.153488 
L 466.35457 180.885758 
L 466.155297 180.568691 
L 466.164647 180.16319 
L 466.457417 179.558784 
L 467.185806 178.694137 
L 468.509037 177.506987 
L 470.833263 175.757334 
L 474.437075 173.346082 
L 479.797032 170.041774 
L 488.984707 164.67856 
L 499.485013 158.496873 
L 503.228166 156.054761 
L 504.830817 154.773547 
L 505.297125 154.170855 
L 505.302928 153.890333 
L 505.066269 153.72408 
L 504.488501 153.647944 
L 503.102404 153.737027 
L 497.87922 154.214858 
L 497.108893 154.048267 
L 496.790773 153.783531 
L 496.72178 153.444658 
L 496.880624 152.944462 
L 497.388028 152.177404 
L 498.623197 150.788454 
L 500.124662 149.049624 
L 500.191905 148.695429 
L 500.010767 148.594136 
L 499.487672 148.622039 
L 497.918734 149.003015 
L 497.725206 149.02247 
L 498.146963 148.839168 
L 498.630169 148.822858 
L 498.731935 148.998626 
L 498.653815 149.498277 
L 498.693057 149.939865 
L 499.024222 150.377742 
L 499.136433 150.754494 
L 499.135152 153.020379 
L 498.8266 158.32061 
L 498.409341 162.114581 
L 497.814921 165.402714 
L 497.138379 167.941506 
L 496.198188 170.51564 
L 494.931735 173.096799 
L 493.879385 174.822967 
L 492.644626 176.554288 
L 490.427278 179.168991 
L 487.747869 181.817138 
L 484.589152 184.516971 
L 480.940822 187.278861 
L 476.799449 190.112166 
L 472.166161 193.019079 
L 467.046972 196.001204 
L 461.450678 199.052609 
L 453.269089 203.220239 
L 444.300011 207.484397 
L 434.590754 211.824725 
L 424.197253 216.21492 
L 413.183929 220.626813 
L 401.622 225.028493 
L 389.587878 229.387068 
L 377.161357 233.670245 
L 364.424327 237.848026 
L 351.460117 241.897566 
L 335.063376 246.755484 
L 318.605998 251.372988 
L 302.245801 255.745799 
L 282.950521 260.680096 
L 252.208764 268.248728 
L 224.039855 275.236658 
L 206.258977 279.869511 
L 190.303996 284.266331 
L 178.189583 287.811099 
L 167.571177 291.123513 
L 158.464601 294.191934 
L 150.855173 297.012613 
L 145.627989 299.172957 
L 141.373498 301.160529 
L 138.042352 302.97728 
L 136.003083 304.31032 
L 134.483801 305.539534 
L 133.448382 306.66866 
L 132.966421 307.452284 
L 132.718381 308.184167 
L 132.687115 308.866828 
L 132.855265 309.502516 
L 133.20534 310.094284 
L 133.924938 310.81899 
L 134.895728 311.475465 
L 136.40044 312.208084 
L 138.530879 312.971598 
L 141.302966 313.727469 
L 145.446313 314.616799 
L 153.56253 316.306976 
L 155.379527 316.937396 
L 156.298119 317.463697 
L 156.756414 317.948175 
L 156.930258 318.481515 
L 156.86493 318.94698 
L 156.532406 319.580598 
L 155.778979 320.420134 
L 154.443642 321.511261 
L 152.086977 323.088962 
L 148.050944 325.474845 
L 132.632304 334.361372 
L 128.21418 337.259191 
L 125.052309 339.583954 
L 122.697663 341.560501 
L 120.852146 343.398316 
L 119.652799 344.899626 
L 118.941341 346.103796 
L 118.534111 347.202477 
L 118.413441 348.194833 
L 118.555998 349.081844 
L 118.933833 349.865939 
L 119.515551 350.551289 
L 120.386867 351.221998 
L 121.568459 351.847873 
L 123.199433 352.455108 
L 125.542913 353.066459 
L 129.70553 353.860945 
L 131.807176 354.375717 
L 132.626612 354.77886 
L 132.96846 355.174435 
L 133.046876 355.602257 
L 132.90228 356.230321 
L 132.705971 357.117473 
L 132.868909 357.343465 
L 133.221233 357.427552 
L 133.916391 357.348724 
L 135.130804 356.975413 
L 136.844864 356.213943 
L 138.833861 355.085078 
L 140.702558 353.766236 
L 142.172466 352.46788 
L 143.343328 351.140377 
L 144.228268 349.801572 
L 144.927612 348.336962 
L 145.543999 346.500072 
L 146.204356 343.765304 
L 146.843004 340.223892 
L 147.039907 337.96758 
L 146.966122 336.31292 
L 146.608486 334.272584 
L 146.418206 333.397479 
L 146.418206 333.397479 
" style="fill:none;stroke:#bcbd22;stroke-linecap:square;stroke-opacity:0.7;stroke-width:1.5;"/>
   </g>
   <g id="line2d_29">
    <path clip-path="url(#pb292d7e826)" d="M 139.380533 388.609894 
L 139.804959 398.96903 
L 140.164071 402.355685 
L 140.626039 404.87261 
L 141.17566 406.744584 
L 141.676674 407.772286 
L 142.059526 408.166181 
L 142.377175 408.249463 
L 142.702414 408.123832 
L 143.115489 407.691189 
L 143.614516 406.826736 
L 144.44414 404.849266 
L 146.010616 400.477733 
L 146.848879 397.516622 
L 147.454326 394.605741 
L 147.923718 391.266085 
L 148.251291 387.233431 
L 148.419882 382.276561 
L 148.440295 373.66244 
L 148.527366 364.352152 
L 148.793231 351.103532 
L 148.482338 342.712528 
L 148.737128 340.186632 
L 149.276207 335.641088 
L 149.413131 334.415642 
L 149.46209 333.650988 
L 149.483416 333.331441 
L 149.471389 328.780861 
L 149.718347 325.809258 
L 150.21291 323.148335 
L 150.838775 321.032411 
L 151.74197 318.851496 
L 152.971938 316.617499 
L 154.572068 314.332368 
L 156.576606 311.997132 
L 159.011095 309.60923 
L 161.891449 307.170007 
L 165.225205 304.678384 
L 169.011767 302.133011 
L 173.242819 299.534807 
L 179.551955 295.982497 
L 186.585599 292.321009 
L 194.29723 288.545169 
L 204.816839 283.663374 
L 218.597529 277.569065 
L 233.448126 271.273884 
L 249.145315 264.872868 
L 265.463108 258.457735 
L 284.987042 251.048628 
L 307.515078 242.751587 
L 343.395052 229.823388 
L 390.861106 212.691518 
L 430.608105 198.074066 
L 472.451029 182.705368 
L 478.102837 180.546502 
L 478.345333 180.364606 
L 478.276107 180.331934 
L 477.588926 180.394337 
L 470.221283 181.443373 
L 469.131505 181.324441 
L 468.72058 181.104852 
L 468.593804 180.829135 
L 468.672798 180.466271 
L 469.044064 179.914469 
L 470.001933 178.983469 
L 471.897498 177.521717 
L 475.352629 175.192543 
L 481.416818 171.416615 
L 498.946382 160.644298 
L 503.028588 157.819585 
L 505.18465 156.081741 
L 506.156403 155.03502 
L 506.39206 154.498692 
L 506.302493 154.219017 
L 506.003738 154.054092 
L 505.32205 153.979247 
L 503.872777 154.096122 
L 499.613088 154.546801 
L 499.101974 154.37144 
L 498.97608 154.125537 
L 499.059813 153.751546 
L 499.46737 153.111812 
L 500.566903 151.875987 
L 502.671512 149.525062 
L 502.855296 149.034551 
L 502.728377 148.856324 
L 502.369041 148.806248 
L 501.494815 148.955292 
L 500.651627 149.130977 
L 500.821565 149.00539 
L 501.536706 148.7404 
L 501.659451 148.827822 
L 501.659096 148.845865 
L 501.702991 149.680907 
L 502.004827 150.041982 
L 502.072411 150.915126 
L 501.705254 157.618582 
L 501.289158 161.413618 
L 500.697819 164.70668 
L 500.025433 167.252365 
L 499.091111 169.835881 
L 497.831923 172.42804 
L 496.784872 174.162331 
L 495.55548 175.902336 
L 493.34573 178.530922 
L 490.672617 181.193656 
L 487.518088 183.908343 
L 483.87113 186.685048 
L 479.727701 189.532776 
L 475.08848 192.453635 
L 469.959177 195.449231 
L 464.348388 198.513562 
L 456.140552 202.697554 
L 447.137464 206.977267 
L 437.386792 211.332659 
L 426.944904 215.737666 
L 415.876683 220.164302 
L 404.253849 224.580767 
L 392.153396 228.95404 
L 379.655794 233.251498 
L 366.84364 237.442429 
L 353.800952 241.503383 
L 337.302418 246.372494 
L 320.740392 250.997556 
L 304.274154 255.374309 
L 284.851889 260.308857 
L 256.89745 267.143939 
L 225.547172 274.842833 
L 207.647387 279.469568 
L 191.586946 283.866452 
L 179.39418 287.416247 
L 168.709277 290.738118 
L 159.54838 293.820026 
L 153.068756 296.201804 
L 147.61452 298.412885 
L 143.149693 300.452956 
L 139.626684 302.323263 
L 137.448084 303.69943 
L 135.802552 304.971581 
L 134.654285 306.142797 
L 133.965183 307.217102 
L 133.725738 307.962115 
L 133.704848 308.657782 
L 133.884979 309.306285 
L 134.248446 309.910651 
L 134.987749 310.651702 
L 135.979929 311.323858 
L 137.513077 312.074853 
L 139.679047 312.858009 
L 142.492711 313.63303 
L 146.691594 314.54283 
L 154.894163 316.245315 
L 156.722716 316.870063 
L 157.643253 317.389352 
L 158.098886 317.866448 
L 158.266393 318.391341 
L 158.193539 318.84953 
L 157.848819 319.473718 
L 157.077185 320.3019 
L 155.716673 321.38038 
L 153.323598 322.944083 
L 148.860761 325.529291 
L 135.718797 333.010421 
L 131.083934 335.961833 
L 127.693013 338.36839 
L 125.113942 340.443013 
L 123.043035 342.395317 
L 121.654021 344.007072 
L 120.79202 345.311439 
L 120.253863 346.511064 
L 120.025893 347.602811 
L 120.0622 348.451891 
L 120.295648 349.221481 
L 120.792456 350.021067 
L 121.5 350.718835 
L 122.522129 351.399239 
L 123.880214 352.029027 
L 125.732955 352.629838 
L 128.20485 353.177855 
L 131.688024 353.691727 
L 136.200026 354.358719 
L 136.950815 354.678242 
L 137.217106 355.007196 
L 137.235147 355.41119 
L 137.189382 356.264893 
L 137.452427 356.370129 
L 138.055623 356.337457 
L 139.225162 356.030138 
L 141.008715 355.321936 
L 143.02089 354.288291 
L 144.903712 353.076808 
L 146.409454 351.850546 
L 147.564342 350.625918 
L 148.383124 349.44485 
L 148.969129 348.208273 
L 149.346332 346.877079 
L 149.552783 345.29386 
L 150.104277 336.218339 
L 149.855813 335.093597 
L 149.640629 333.939734 
L 149.550047 333.621212 
L 149.550047 333.621212 
" style="fill:none;stroke:#2ca02c;stroke-linecap:square;stroke-opacity:0.7;stroke-width:1.5;"/>
   </g>
   <g id="line2d_30">
    <path clip-path="url(#pb292d7e826)" d="M 139.380533 388.609894 
L 139.80509 398.970051 
L 140.185433 402.564825 
L 140.742543 405.630196 
L 141.483936 408.453194 
L 142.449753 411.300712 
L 143.761626 414.498669 
L 145.502363 418.158278 
L 152.736866 432.18302 
L 155.154595 436.300301 
L 156.890409 438.883925 
L 158.234748 440.549297 
L 159.452649 441.694953 
L 160.316443 442.206693 
L 160.891718 442.346773 
L 161.400624 442.276856 
L 161.840988 442.001892 
L 162.211631 441.526347 
L 162.597427 440.604117 
L 162.860221 439.384174 
L 163.017818 437.499487 
L 162.989753 435.305563 
L 162.720515 432.38129 
L 162.209004 429.206678 
L 161.329898 425.229423 
L 160.175343 420.996218 
L 158.567918 415.916891 
L 156.223724 409.318241 
L 153.352617 401.928633 
L 149.783312 393.360901 
L 145.714365 384.17824 
L 141.740861 375.738857 
L 138.003636 368.31028 
L 134.59928 362.044026 
L 132.514424 358.138319 
L 132.293006 357.273132 
L 132.353013 356.705756 
L 132.643925 356.157464 
L 133.301836 355.469362 
L 137.17318 351.858088 
L 139.101444 349.608102 
L 141.090745 346.938453 
L 143.232071 343.681753 
L 145.090189 340.467737 
L 145.867641 338.742594 
L 146.260441 337.90894 
L 147.150286 336.886059 
L 149.023927 334.720648 
L 149.113449 334.327195 
L 149.132028 333.984363 
L 149.465465 333.264545 
L 149.434057 329.254025 
L 149.621571 326.379694 
L 150.035723 323.772191 
L 150.580562 321.684274 
L 151.384896 319.527053 
L 152.500592 317.309293 
L 153.972723 315.042334 
L 155.838863 312.725275 
L 158.127661 310.355402 
L 160.857873 307.934924 
L 164.040128 305.461529 
L 167.67627 302.935031 
L 171.760482 300.355385 
L 176.280731 297.721617 
L 182.958003 294.116605 
L 190.336976 290.399003 
L 200.474948 285.59045 
L 211.538566 280.600667 
L 225.882391 274.395984 
L 241.185769 268.036888 
L 257.222549 261.619936 
L 273.768039 255.22767 
L 293.417869 247.873394 
L 318.703684 238.653984 
L 412.222806 204.827369 
L 478.323084 180.384484 
L 478.334149 180.327715 
L 478.274941 180.310111 
L 477.58748 180.373431 
L 470.218089 181.426451 
L 469.12797 181.308338 
L 468.716848 181.089278 
L 468.58993 180.813988 
L 468.668806 180.451536 
L 469.039967 179.900207 
L 469.997766 178.969808 
L 471.893356 177.508756 
L 475.348714 175.180365 
L 481.413535 171.405245 
L 498.945725 160.634446 
L 503.028708 157.810149 
L 505.185249 156.072627 
L 506.157284 155.026166 
L 506.393077 154.490026 
L 506.303575 154.2105 
L 506.004851 154.045723 
L 505.32316 153.971082 
L 503.873807 154.088268 
L 499.613706 154.539887 
L 499.102506 154.364778 
L 498.976566 154.119048 
L 499.060262 153.745237 
L 499.467792 153.105731 
L 500.567309 151.870259 
L 502.671854 149.520038 
L 502.855587 149.029782 
L 502.728635 148.851725 
L 502.369277 148.801817 
L 501.495091 148.951075 
L 500.6522 149.126902 
L 500.822242 149.001403 
L 501.537099 148.736882 
L 501.659511 148.824616 
L 501.659123 148.842687 
L 501.702324 149.678133 
L 502.00353 150.03903 
L 502.070444 150.911487 
L 501.703289 157.614976 
L 501.287192 161.410023 
L 500.69585 164.70309 
L 500.023459 167.248776 
L 499.089131 169.832291 
L 497.829935 172.42445 
L 496.782878 174.15874 
L 495.553479 175.898746 
L 493.343719 178.527333 
L 490.670595 181.190069 
L 487.516055 183.904759 
L 483.869089 186.681469 
L 479.725652 189.529204 
L 475.086426 192.450074 
L 469.957122 195.445684 
L 464.346334 198.510033 
L 456.138508 202.694054 
L 447.135437 206.973801 
L 437.384789 211.329231 
L 426.942933 215.734283 
L 415.87475 220.160969 
L 404.25196 224.577487 
L 392.151556 228.950819 
L 379.654007 233.248342 
L 366.841909 237.439346 
L 353.799281 241.500379 
L 337.300822 246.369603 
L 320.738872 250.994791 
L 304.272706 255.371679 
L 284.850521 260.306401 
L 256.896183 267.141755 
L 225.545991 274.840969 
L 207.646239 279.467879 
L 191.585818 283.864907 
L 179.393057 287.414802 
L 168.708151 290.736753 
L 159.547243 293.818721 
L 153.067603 296.200537 
L 147.613347 298.411642 
L 143.148495 300.451728 
L 139.625457 302.322038 
L 137.44683 303.698201 
L 135.801267 304.970344 
L 134.652966 306.141548 
L 133.963825 307.215838 
L 133.724349 307.960838 
L 133.703426 308.656491 
L 133.883521 309.304979 
L 134.246949 309.909329 
L 134.986196 310.65036 
L 135.978316 311.322495 
L 137.511384 312.073468 
L 139.677247 312.856602 
L 142.490774 313.631604 
L 146.68944 314.541393 
L 154.891432 316.243953 
L 156.719769 316.868763 
L 157.640141 317.388113 
L 158.095638 317.86527 
L 158.26301 318.39023 
L 158.19005 318.848478 
L 157.845203 319.472744 
L 157.073424 320.301026 
L 155.712759 321.379629 
L 153.319517 322.943496 
L 148.856516 325.528935 
L 135.714584 333.01051 
L 131.079883 335.962016 
L 127.689142 338.368614 
L 125.110259 340.443244 
L 123.039554 342.395527 
L 121.650724 344.007243 
L 120.788883 345.311561 
L 120.250879 346.511124 
L 120.023054 347.602798 
L 120.059475 348.451808 
L 120.293025 349.221322 
L 120.789936 350.020813 
L 121.497561 350.718481 
L 122.519758 351.398765 
L 123.877883 352.028419 
L 125.730619 352.629069 
L 128.202429 353.176903 
L 131.685329 353.690554 
L 136.196479 354.357327 
L 136.946909 354.676838 
L 137.212912 355.005812 
L 137.230677 355.409856 
L 137.184449 356.263726 
L 137.447405 356.368992 
L 138.050518 356.336337 
L 139.219989 356.029015 
L 141.003541 355.320791 
L 143.015823 354.287111 
L 144.898853 353.075603 
L 146.404868 351.849344 
L 147.560075 350.624744 
L 148.379204 349.443712 
L 148.965607 348.207156 
L 149.343273 346.875959 
L 149.550298 345.292682 
L 150.106983 336.236157 
L 149.863484 335.114632 
L 149.642306 333.941075 
L 149.551052 333.61696 
L 149.551052 333.61696 
" style="fill:none;stroke:#17becf;stroke-linecap:square;stroke-opacity:0.7;stroke-width:1.5;"/>
   </g>
   <g id="line2d_31">
    <path clip-path="url(#pb292d7e826)" d="M 139.372981 388.364034 
L 477.902511 190.909991 
L 139.372981 388.364034 
" style="fill:none;stroke:#000000;stroke-dasharray:5.55,2.4;stroke-dashoffset:0;stroke-opacity:0.595;stroke-width:1.5;"/>
   </g>
   <g id="legend_1">
    <g id="patch_6">
     <path d="M 453.510938 122.9375 
L 558.2 122.9375 
Q 560.2 122.9375 560.2 120.9375 
L 560.2 17.8 
Q 560.2 15.8 558.2 15.8 
L 453.510938 15.8 
Q 451.510938 15.8 451.510938 17.8 
L 451.510938 120.9375 
Q 451.510938 122.9375 453.510938 122.9375 
z
" style="fill:#ffffff;opacity:0.8;stroke:#cccccc;stroke-linejoin:miter;"/>
    </g>
    <g id="line2d_32">
     <path d="M 455.510938 23.898438 
L 475.510938 23.898438 
" style="fill:none;stroke:#1f77b4;stroke-linecap:square;stroke-opacity:0.7;stroke-width:1.5;"/>
    </g>
    <g id="line2d_33"/>
    <g id="text_25">
     <!-- DSLPID -->
     <g transform="translate(483.510938 27.398438)scale(0.1 -0.1)">
      <defs>
       <path d="M 1259 4147 
L 1259 519 
L 2022 519 
Q 2988 519 3436 956 
Q 3884 1394 3884 2338 
Q 3884 3275 3436 3711 
Q 2988 4147 2022 4147 
L 1259 4147 
z
M 628 4666 
L 1925 4666 
Q 3281 4666 3915 4102 
Q 4550 3538 4550 2338 
Q 4550 1131 3912 565 
Q 3275 0 1925 0 
L 628 0 
L 628 4666 
z
" id="DejaVuSans-44" transform="scale(0.015625)"/>
       <path d="M 3425 4513 
L 3425 3897 
Q 3066 4069 2747 4153 
Q 2428 4238 2131 4238 
Q 1616 4238 1336 4038 
Q 1056 3838 1056 3469 
Q 1056 3159 1242 3001 
Q 1428 2844 1947 2747 
L 2328 2669 
Q 3034 2534 3370 2195 
Q 3706 1856 3706 1288 
Q 3706 609 3251 259 
Q 2797 -91 1919 -91 
Q 1588 -91 1214 -16 
Q 841 59 441 206 
L 441 856 
Q 825 641 1194 531 
Q 1563 422 1919 422 
Q 2459 422 2753 634 
Q 3047 847 3047 1241 
Q 3047 1584 2836 1778 
Q 2625 1972 2144 2069 
L 1759 2144 
Q 1053 2284 737 2584 
Q 422 2884 422 3419 
Q 422 4038 858 4394 
Q 1294 4750 2059 4750 
Q 2388 4750 2728 4690 
Q 3069 4631 3425 4513 
z
" id="DejaVuSans-53" transform="scale(0.015625)"/>
       <path d="M 628 4666 
L 1259 4666 
L 1259 531 
L 3531 531 
L 3531 0 
L 628 0 
L 628 4666 
z
" id="DejaVuSans-4c" transform="scale(0.015625)"/>
       <path d="M 1259 4147 
L 1259 2394 
L 2053 2394 
Q 2494 2394 2734 2622 
Q 2975 2850 2975 3272 
Q 2975 3691 2734 3919 
Q 2494 4147 2053 4147 
L 1259 4147 
z
M 628 4666 
L 2053 4666 
Q 2838 4666 3239 4311 
Q 3641 3956 3641 3272 
Q 3641 2581 3239 2228 
Q 2838 1875 2053 1875 
L 1259 1875 
L 1259 0 
L 628 0 
L 628 4666 
z
" id="DejaVuSans-50" transform="scale(0.015625)"/>
       <path d="M 628 4666 
L 1259 4666 
L 1259 0 
L 628 0 
L 628 4666 
z
" id="DejaVuSans-49" transform="scale(0.015625)"/>
      </defs>
      <use xlink:href="#DejaVuSans-44"/>
      <use x="77.001953" xlink:href="#DejaVuSans-53"/>
      <use x="140.478516" xlink:href="#DejaVuSans-4c"/>
      <use x="196.191406" xlink:href="#DejaVuSans-50"/>
      <use x="256.494141" xlink:href="#DejaVuSans-49"/>
      <use x="285.986328" xlink:href="#DejaVuSans-44"/>
     </g>
    </g>
    <g id="line2d_34">
     <path d="M 455.510938 38.576563 
L 475.510938 38.576563 
" style="fill:none;stroke:#d62728;stroke-linecap:square;stroke-opacity:0.7;stroke-width:1.5;"/>
    </g>
    <g id="line2d_35"/>
    <g id="text_26">
     <!-- LSTMCNN_8 -->
     <g transform="translate(483.510938 42.076563)scale(0.1 -0.1)">
      <defs>
       <path d="M -19 4666 
L 3928 4666 
L 3928 4134 
L 2272 4134 
L 2272 0 
L 1638 0 
L 1638 4134 
L -19 4134 
L -19 4666 
z
" id="DejaVuSans-54" transform="scale(0.015625)"/>
       <path d="M 628 4666 
L 1569 4666 
L 2759 1491 
L 3956 4666 
L 4897 4666 
L 4897 0 
L 4281 0 
L 4281 4097 
L 3078 897 
L 2444 897 
L 1241 4097 
L 1241 0 
L 628 0 
L 628 4666 
z
" id="DejaVuSans-4d" transform="scale(0.015625)"/>
       <path d="M 4122 4306 
L 4122 3641 
Q 3803 3938 3442 4084 
Q 3081 4231 2675 4231 
Q 1875 4231 1450 3742 
Q 1025 3253 1025 2328 
Q 1025 1406 1450 917 
Q 1875 428 2675 428 
Q 3081 428 3442 575 
Q 3803 722 4122 1019 
L 4122 359 
Q 3791 134 3420 21 
Q 3050 -91 2638 -91 
Q 1578 -91 968 557 
Q 359 1206 359 2328 
Q 359 3453 968 4101 
Q 1578 4750 2638 4750 
Q 3056 4750 3426 4639 
Q 3797 4528 4122 4306 
z
" id="DejaVuSans-43" transform="scale(0.015625)"/>
       <path d="M 628 4666 
L 1478 4666 
L 3547 763 
L 3547 4666 
L 4159 4666 
L 4159 0 
L 3309 0 
L 1241 3903 
L 1241 0 
L 628 0 
L 628 4666 
z
" id="DejaVuSans-4e" transform="scale(0.015625)"/>
       <path d="M 3263 -1063 
L 3263 -1509 
L -63 -1509 
L -63 -1063 
L 3263 -1063 
z
" id="DejaVuSans-5f" transform="scale(0.015625)"/>
      </defs>
      <use xlink:href="#DejaVuSans-4c"/>
      <use x="55.712891" xlink:href="#DejaVuSans-53"/>
      <use x="119.189453" xlink:href="#DejaVuSans-54"/>
      <use x="180.273438" xlink:href="#DejaVuSans-4d"/>
      <use x="266.552734" xlink:href="#DejaVuSans-43"/>
      <use x="336.376953" xlink:href="#DejaVuSans-4e"/>
      <use x="411.181641" xlink:href="#DejaVuSans-4e"/>
      <use x="485.986328" xlink:href="#DejaVuSans-5f"/>
      <use x="535.986328" xlink:href="#DejaVuSans-38"/>
     </g>
    </g>
    <g id="line2d_36">
     <path d="M 455.510938 53.532813 
L 475.510938 53.532813 
" style="fill:none;stroke:#9467bd;stroke-linecap:square;stroke-opacity:0.7;stroke-width:1.5;"/>
    </g>
    <g id="line2d_37"/>
    <g id="text_27">
     <!-- LSTMCNN_16 -->
     <g transform="translate(483.510938 57.032813)scale(0.1 -0.1)">
      <use xlink:href="#DejaVuSans-4c"/>
      <use x="55.712891" xlink:href="#DejaVuSans-53"/>
      <use x="119.189453" xlink:href="#DejaVuSans-54"/>
      <use x="180.273438" xlink:href="#DejaVuSans-4d"/>
      <use x="266.552734" xlink:href="#DejaVuSans-43"/>
      <use x="336.376953" xlink:href="#DejaVuSans-4e"/>
      <use x="411.181641" xlink:href="#DejaVuSans-4e"/>
      <use x="485.986328" xlink:href="#DejaVuSans-5f"/>
      <use x="535.986328" xlink:href="#DejaVuSans-31"/>
      <use x="599.609375" xlink:href="#DejaVuSans-36"/>
     </g>
    </g>
    <g id="line2d_38">
     <path d="M 455.510938 68.489063 
L 475.510938 68.489063 
" style="fill:none;stroke:#bcbd22;stroke-linecap:square;stroke-opacity:0.7;stroke-width:1.5;"/>
    </g>
    <g id="line2d_39"/>
    <g id="text_28">
     <!-- LSTMCNN_32 -->
     <g transform="translate(483.510938 71.989063)scale(0.1 -0.1)">
      <defs>
       <path d="M 2597 2516 
Q 3050 2419 3304 2112 
Q 3559 1806 3559 1356 
Q 3559 666 3084 287 
Q 2609 -91 1734 -91 
Q 1441 -91 1130 -33 
Q 819 25 488 141 
L 488 750 
Q 750 597 1062 519 
Q 1375 441 1716 441 
Q 2309 441 2620 675 
Q 2931 909 2931 1356 
Q 2931 1769 2642 2001 
Q 2353 2234 1838 2234 
L 1294 2234 
L 1294 2753 
L 1863 2753 
Q 2328 2753 2575 2939 
Q 2822 3125 2822 3475 
Q 2822 3834 2567 4026 
Q 2313 4219 1838 4219 
Q 1578 4219 1281 4162 
Q 984 4106 628 3988 
L 628 4550 
Q 988 4650 1302 4700 
Q 1616 4750 1894 4750 
Q 2613 4750 3031 4423 
Q 3450 4097 3450 3541 
Q 3450 3153 3228 2886 
Q 3006 2619 2597 2516 
z
" id="DejaVuSans-33" transform="scale(0.015625)"/>
      </defs>
      <use xlink:href="#DejaVuSans-4c"/>
      <use x="55.712891" xlink:href="#DejaVuSans-53"/>
      <use x="119.189453" xlink:href="#DejaVuSans-54"/>
      <use x="180.273438" xlink:href="#DejaVuSans-4d"/>
      <use x="266.552734" xlink:href="#DejaVuSans-43"/>
      <use x="336.376953" xlink:href="#DejaVuSans-4e"/>
      <use x="411.181641" xlink:href="#DejaVuSans-4e"/>
      <use x="485.986328" xlink:href="#DejaVuSans-5f"/>
      <use x="535.986328" xlink:href="#DejaVuSans-33"/>
      <use x="599.609375" xlink:href="#DejaVuSans-32"/>
     </g>
    </g>
    <g id="line2d_40">
     <path d="M 455.510938 83.445313 
L 475.510938 83.445313 
" style="fill:none;stroke:#2ca02c;stroke-linecap:square;stroke-opacity:0.7;stroke-width:1.5;"/>
    </g>
    <g id="line2d_41"/>
    <g id="text_29">
     <!-- LSTMCNN_64 -->
     <g transform="translate(483.510938 86.945313)scale(0.1 -0.1)">
      <use xlink:href="#DejaVuSans-4c"/>
      <use x="55.712891" xlink:href="#DejaVuSans-53"/>
      <use x="119.189453" xlink:href="#DejaVuSans-54"/>
      <use x="180.273438" xlink:href="#DejaVuSans-4d"/>
      <use x="266.552734" xlink:href="#DejaVuSans-43"/>
      <use x="336.376953" xlink:href="#DejaVuSans-4e"/>
      <use x="411.181641" xlink:href="#DejaVuSans-4e"/>
      <use x="485.986328" xlink:href="#DejaVuSans-5f"/>
      <use x="535.986328" xlink:href="#DejaVuSans-36"/>
      <use x="599.609375" xlink:href="#DejaVuSans-34"/>
     </g>
    </g>
    <g id="line2d_42">
     <path d="M 455.510938 98.401563 
L 475.510938 98.401563 
" style="fill:none;stroke:#17becf;stroke-linecap:square;stroke-opacity:0.7;stroke-width:1.5;"/>
    </g>
    <g id="line2d_43"/>
    <g id="text_30">
     <!-- LSTMCNN_128 -->
     <g transform="translate(483.510938 101.901563)scale(0.1 -0.1)">
      <use xlink:href="#DejaVuSans-4c"/>
      <use x="55.712891" xlink:href="#DejaVuSans-53"/>
      <use x="119.189453" xlink:href="#DejaVuSans-54"/>
      <use x="180.273438" xlink:href="#DejaVuSans-4d"/>
      <use x="266.552734" xlink:href="#DejaVuSans-43"/>
      <use x="336.376953" xlink:href="#DejaVuSans-4e"/>
      <use x="411.181641" xlink:href="#DejaVuSans-4e"/>
      <use x="485.986328" xlink:href="#DejaVuSans-5f"/>
      <use x="535.986328" xlink:href="#DejaVuSans-31"/>
      <use x="599.609375" xlink:href="#DejaVuSans-32"/>
      <use x="663.232422" xlink:href="#DejaVuSans-38"/>
     </g>
    </g>
    <g id="line2d_44">
     <path d="M 455.510938 113.357813 
L 475.510938 113.357813 
" style="fill:none;stroke:#000000;stroke-dasharray:5.55,2.4;stroke-dashoffset:0;stroke-opacity:0.595;stroke-width:1.5;"/>
    </g>
    <g id="line2d_45"/>
    <g id="text_31">
     <!-- Referencia -->
     <g transform="translate(483.510938 116.857813)scale(0.1 -0.1)">
      <defs>
       <path d="M 2841 2188 
Q 3044 2119 3236 1894 
Q 3428 1669 3622 1275 
L 4263 0 
L 3584 0 
L 2988 1197 
Q 2756 1666 2539 1819 
Q 2322 1972 1947 1972 
L 1259 1972 
L 1259 0 
L 628 0 
L 628 4666 
L 2053 4666 
Q 2853 4666 3247 4331 
Q 3641 3997 3641 3322 
Q 3641 2881 3436 2590 
Q 3231 2300 2841 2188 
z
M 1259 4147 
L 1259 2491 
L 2053 2491 
Q 2509 2491 2742 2702 
Q 2975 2913 2975 3322 
Q 2975 3731 2742 3939 
Q 2509 4147 2053 4147 
L 1259 4147 
z
" id="DejaVuSans-52" transform="scale(0.015625)"/>
       <path d="M 3597 1894 
L 3597 1613 
L 953 1613 
Q 991 1019 1311 708 
Q 1631 397 2203 397 
Q 2534 397 2845 478 
Q 3156 559 3463 722 
L 3463 178 
Q 3153 47 2828 -22 
Q 2503 -91 2169 -91 
Q 1331 -91 842 396 
Q 353 884 353 1716 
Q 353 2575 817 3079 
Q 1281 3584 2069 3584 
Q 2775 3584 3186 3129 
Q 3597 2675 3597 1894 
z
M 3022 2063 
Q 3016 2534 2758 2815 
Q 2500 3097 2075 3097 
Q 1594 3097 1305 2825 
Q 1016 2553 972 2059 
L 3022 2063 
z
" id="DejaVuSans-65" transform="scale(0.015625)"/>
       <path d="M 2375 4863 
L 2375 4384 
L 1825 4384 
Q 1516 4384 1395 4259 
Q 1275 4134 1275 3809 
L 1275 3500 
L 2222 3500 
L 2222 3053 
L 1275 3053 
L 1275 0 
L 697 0 
L 697 3053 
L 147 3053 
L 147 3500 
L 697 3500 
L 697 3744 
Q 697 4328 969 4595 
Q 1241 4863 1831 4863 
L 2375 4863 
z
" id="DejaVuSans-66" transform="scale(0.015625)"/>
       <path d="M 2631 2963 
Q 2534 3019 2420 3045 
Q 2306 3072 2169 3072 
Q 1681 3072 1420 2755 
Q 1159 2438 1159 1844 
L 1159 0 
L 581 0 
L 581 3500 
L 1159 3500 
L 1159 2956 
Q 1341 3275 1631 3429 
Q 1922 3584 2338 3584 
Q 2397 3584 2469 3576 
Q 2541 3569 2628 3553 
L 2631 2963 
z
" id="DejaVuSans-72" transform="scale(0.015625)"/>
       <path d="M 3513 2113 
L 3513 0 
L 2938 0 
L 2938 2094 
Q 2938 2591 2744 2837 
Q 2550 3084 2163 3084 
Q 1697 3084 1428 2787 
Q 1159 2491 1159 1978 
L 1159 0 
L 581 0 
L 581 3500 
L 1159 3500 
L 1159 2956 
Q 1366 3272 1645 3428 
Q 1925 3584 2291 3584 
Q 2894 3584 3203 3211 
Q 3513 2838 3513 2113 
z
" id="DejaVuSans-6e" transform="scale(0.015625)"/>
       <path d="M 3122 3366 
L 3122 2828 
Q 2878 2963 2633 3030 
Q 2388 3097 2138 3097 
Q 1578 3097 1268 2742 
Q 959 2388 959 1747 
Q 959 1106 1268 751 
Q 1578 397 2138 397 
Q 2388 397 2633 464 
Q 2878 531 3122 666 
L 3122 134 
Q 2881 22 2623 -34 
Q 2366 -91 2075 -91 
Q 1284 -91 818 406 
Q 353 903 353 1747 
Q 353 2603 823 3093 
Q 1294 3584 2113 3584 
Q 2378 3584 2631 3529 
Q 2884 3475 3122 3366 
z
" id="DejaVuSans-63" transform="scale(0.015625)"/>
       <path d="M 603 3500 
L 1178 3500 
L 1178 0 
L 603 0 
L 603 3500 
z
M 603 4863 
L 1178 4863 
L 1178 4134 
L 603 4134 
L 603 4863 
z
" id="DejaVuSans-69" transform="scale(0.015625)"/>
       <path d="M 2194 1759 
Q 1497 1759 1228 1600 
Q 959 1441 959 1056 
Q 959 750 1161 570 
Q 1363 391 1709 391 
Q 2188 391 2477 730 
Q 2766 1069 2766 1631 
L 2766 1759 
L 2194 1759 
z
M 3341 1997 
L 3341 0 
L 2766 0 
L 2766 531 
Q 2569 213 2275 61 
Q 1981 -91 1556 -91 
Q 1019 -91 701 211 
Q 384 513 384 1019 
Q 384 1609 779 1909 
Q 1175 2209 1959 2209 
L 2766 2209 
L 2766 2266 
Q 2766 2663 2505 2880 
Q 2244 3097 1772 3097 
Q 1472 3097 1187 3025 
Q 903 2953 641 2809 
L 641 3341 
Q 956 3463 1253 3523 
Q 1550 3584 1831 3584 
Q 2591 3584 2966 3190 
Q 3341 2797 3341 1997 
z
" id="DejaVuSans-61" transform="scale(0.015625)"/>
      </defs>
      <use xlink:href="#DejaVuSans-52"/>
      <use x="64.982422" xlink:href="#DejaVuSans-65"/>
      <use x="126.505859" xlink:href="#DejaVuSans-66"/>
      <use x="161.710938" xlink:href="#DejaVuSans-65"/>
      <use x="223.234375" xlink:href="#DejaVuSans-72"/>
      <use x="262.097656" xlink:href="#DejaVuSans-65"/>
      <use x="323.621094" xlink:href="#DejaVuSans-6e"/>
      <use x="387" xlink:href="#DejaVuSans-63"/>
      <use x="441.980469" xlink:href="#DejaVuSans-69"/>
      <use x="469.763672" xlink:href="#DejaVuSans-61"/>
     </g>
    </g>
   </g>
  </g>
 </g>
 <defs>
  <clipPath id="pb292d7e826">
   <rect height="554.4" width="554.4" x="10.8" y="10.8"/>
  </clipPath>
 </defs>
</svg>
