<?xml version="1.0" encoding="utf-8" standalone="no"?>
<!DOCTYPE svg PUBLIC "-//W3C//DTD SVG 1.1//EN"
  "http://www.w3.org/Graphics/SVG/1.1/DTD/svg11.dtd">
<svg height="288pt" version="1.1" viewBox="0 0 576 288" width="576pt" xmlns="http://www.w3.org/2000/svg" xmlns:xlink="http://www.w3.org/1999/xlink">
 <metadata>
  <rdf:RDF xmlns:cc="http://creativecommons.org/ns#" xmlns:dc="http://purl.org/dc/elements/1.1/" xmlns:rdf="http://www.w3.org/1999/02/22-rdf-syntax-ns#">
   <cc:Work>
    <dc:type rdf:resource="http://purl.org/dc/dcmitype/StillImage"/>
    <dc:date>2022-02-28T02:22:03.824192</dc:date>
    <dc:format>image/svg+xml</dc:format>
    <dc:creator>
     <cc:Agent>
      <dc:title>Matplotlib v3.4.3, https://matplotlib.org/</dc:title>
     </cc:Agent>
    </dc:creator>
   </cc:Work>
  </rdf:RDF>
 </metadata>
 <defs>
  <style type="text/css">*{stroke-linecap:butt;stroke-linejoin:round;}</style>
 </defs>
 <g id="figure_1">
  <g id="patch_1">
   <path d="M 0 288 
L 576 288 
L 576 0 
L 0 0 
z
" style="fill:#ffffff;"/>
  </g>
  <g id="axes_1">
   <g id="patch_2">
    <path d="M 82.82 231.64 
L 253.755 231.64 
L 253.755 41.28 
L 82.82 41.28 
z
" style="fill:#ffffff;"/>
   </g>
   <g id="matplotlib.axis_1">
    <g id="xtick_1">
     <g id="line2d_1">
      <path clip-path="url(#pe021b0708c)" d="M 113.970317 231.64 
L 113.970317 41.28 
" style="fill:none;stroke:#b0b0b0;stroke-linecap:square;stroke-width:0.8;"/>
     </g>
     <g id="line2d_2">
      <defs>
       <path d="M 0 0 
L 0 3.5 
" id="mcefc435235" style="stroke:#000000;stroke-width:0.8;"/>
      </defs>
      <g>
       <use style="stroke:#000000;stroke-width:0.8;" x="113.970317" xlink:href="#mcefc435235" y="231.64"/>
      </g>
     </g>
     <g id="text_1">
      <!-- 0.00 -->
      <g transform="translate(102.837505 246.238438)scale(0.1 -0.1)">
       <defs>
        <path d="M 2034 4250 
Q 1547 4250 1301 3770 
Q 1056 3291 1056 2328 
Q 1056 1369 1301 889 
Q 1547 409 2034 409 
Q 2525 409 2770 889 
Q 3016 1369 3016 2328 
Q 3016 3291 2770 3770 
Q 2525 4250 2034 4250 
z
M 2034 4750 
Q 2819 4750 3233 4129 
Q 3647 3509 3647 2328 
Q 3647 1150 3233 529 
Q 2819 -91 2034 -91 
Q 1250 -91 836 529 
Q 422 1150 422 2328 
Q 422 3509 836 4129 
Q 1250 4750 2034 4750 
z
" id="DejaVuSans-30" transform="scale(0.015625)"/>
        <path d="M 684 794 
L 1344 794 
L 1344 0 
L 684 0 
L 684 794 
z
" id="DejaVuSans-2e" transform="scale(0.015625)"/>
       </defs>
       <use xlink:href="#DejaVuSans-30"/>
       <use x="63.623047" xlink:href="#DejaVuSans-2e"/>
       <use x="95.410156" xlink:href="#DejaVuSans-30"/>
       <use x="159.033203" xlink:href="#DejaVuSans-30"/>
      </g>
     </g>
    </g>
    <g id="xtick_2">
     <g id="line2d_3">
      <path clip-path="url(#pe021b0708c)" d="M 174.718452 231.64 
L 174.718452 41.28 
" style="fill:none;stroke:#b0b0b0;stroke-linecap:square;stroke-width:0.8;"/>
     </g>
     <g id="line2d_4">
      <g>
       <use style="stroke:#000000;stroke-width:0.8;" x="174.718452" xlink:href="#mcefc435235" y="231.64"/>
      </g>
     </g>
     <g id="text_2">
      <!-- 0.05 -->
      <g transform="translate(163.585639 246.238438)scale(0.1 -0.1)">
       <defs>
        <path d="M 691 4666 
L 3169 4666 
L 3169 4134 
L 1269 4134 
L 1269 2991 
Q 1406 3038 1543 3061 
Q 1681 3084 1819 3084 
Q 2600 3084 3056 2656 
Q 3513 2228 3513 1497 
Q 3513 744 3044 326 
Q 2575 -91 1722 -91 
Q 1428 -91 1123 -41 
Q 819 9 494 109 
L 494 744 
Q 775 591 1075 516 
Q 1375 441 1709 441 
Q 2250 441 2565 725 
Q 2881 1009 2881 1497 
Q 2881 1984 2565 2268 
Q 2250 2553 1709 2553 
Q 1456 2553 1204 2497 
Q 953 2441 691 2322 
L 691 4666 
z
" id="DejaVuSans-35" transform="scale(0.015625)"/>
       </defs>
       <use xlink:href="#DejaVuSans-30"/>
       <use x="63.623047" xlink:href="#DejaVuSans-2e"/>
       <use x="95.410156" xlink:href="#DejaVuSans-30"/>
       <use x="159.033203" xlink:href="#DejaVuSans-35"/>
      </g>
     </g>
    </g>
    <g id="xtick_3">
     <g id="line2d_5">
      <path clip-path="url(#pe021b0708c)" d="M 235.466586 231.64 
L 235.466586 41.28 
" style="fill:none;stroke:#b0b0b0;stroke-linecap:square;stroke-width:0.8;"/>
     </g>
     <g id="line2d_6">
      <g>
       <use style="stroke:#000000;stroke-width:0.8;" x="235.466586" xlink:href="#mcefc435235" y="231.64"/>
      </g>
     </g>
     <g id="text_3">
      <!-- 0.10 -->
      <g transform="translate(224.333774 246.238438)scale(0.1 -0.1)">
       <defs>
        <path d="M 794 531 
L 1825 531 
L 1825 4091 
L 703 3866 
L 703 4441 
L 1819 4666 
L 2450 4666 
L 2450 531 
L 3481 531 
L 3481 0 
L 794 0 
L 794 531 
z
" id="DejaVuSans-31" transform="scale(0.015625)"/>
       </defs>
       <use xlink:href="#DejaVuSans-30"/>
       <use x="63.623047" xlink:href="#DejaVuSans-2e"/>
       <use x="95.410156" xlink:href="#DejaVuSans-31"/>
       <use x="159.033203" xlink:href="#DejaVuSans-30"/>
      </g>
     </g>
    </g>
    <g id="text_4">
     <!-- x (m) -->
     <g transform="translate(154.967187 259.916562)scale(0.1 -0.1)">
      <defs>
       <path d="M 3513 3500 
L 2247 1797 
L 3578 0 
L 2900 0 
L 1881 1375 
L 863 0 
L 184 0 
L 1544 1831 
L 300 3500 
L 978 3500 
L 1906 2253 
L 2834 3500 
L 3513 3500 
z
" id="DejaVuSans-78" transform="scale(0.015625)"/>
       <path id="DejaVuSans-20" transform="scale(0.015625)"/>
       <path d="M 1984 4856 
Q 1566 4138 1362 3434 
Q 1159 2731 1159 2009 
Q 1159 1288 1364 580 
Q 1569 -128 1984 -844 
L 1484 -844 
Q 1016 -109 783 600 
Q 550 1309 550 2009 
Q 550 2706 781 3412 
Q 1013 4119 1484 4856 
L 1984 4856 
z
" id="DejaVuSans-28" transform="scale(0.015625)"/>
       <path d="M 3328 2828 
Q 3544 3216 3844 3400 
Q 4144 3584 4550 3584 
Q 5097 3584 5394 3201 
Q 5691 2819 5691 2113 
L 5691 0 
L 5113 0 
L 5113 2094 
Q 5113 2597 4934 2840 
Q 4756 3084 4391 3084 
Q 3944 3084 3684 2787 
Q 3425 2491 3425 1978 
L 3425 0 
L 2847 0 
L 2847 2094 
Q 2847 2600 2669 2842 
Q 2491 3084 2119 3084 
Q 1678 3084 1418 2786 
Q 1159 2488 1159 1978 
L 1159 0 
L 581 0 
L 581 3500 
L 1159 3500 
L 1159 2956 
Q 1356 3278 1631 3431 
Q 1906 3584 2284 3584 
Q 2666 3584 2933 3390 
Q 3200 3197 3328 2828 
z
" id="DejaVuSans-6d" transform="scale(0.015625)"/>
       <path d="M 513 4856 
L 1013 4856 
Q 1481 4119 1714 3412 
Q 1947 2706 1947 2009 
Q 1947 1309 1714 600 
Q 1481 -109 1013 -844 
L 513 -844 
Q 928 -128 1133 580 
Q 1338 1288 1338 2009 
Q 1338 2731 1133 3434 
Q 928 4138 513 4856 
z
" id="DejaVuSans-29" transform="scale(0.015625)"/>
      </defs>
      <use xlink:href="#DejaVuSans-78"/>
      <use x="59.179688" xlink:href="#DejaVuSans-20"/>
      <use x="90.966797" xlink:href="#DejaVuSans-28"/>
      <use x="129.980469" xlink:href="#DejaVuSans-6d"/>
      <use x="227.392578" xlink:href="#DejaVuSans-29"/>
     </g>
    </g>
   </g>
   <g id="matplotlib.axis_2">
    <g id="ytick_1">
     <g id="line2d_7">
      <path clip-path="url(#pe021b0708c)" d="M 82.82 205.308897 
L 253.755 205.308897 
" style="fill:none;stroke:#b0b0b0;stroke-linecap:square;stroke-width:0.8;"/>
     </g>
     <g id="line2d_8">
      <defs>
       <path d="M 0 0 
L -3.5 0 
" id="m3d18dc83b9" style="stroke:#000000;stroke-width:0.8;"/>
      </defs>
      <g>
       <use style="stroke:#000000;stroke-width:0.8;" x="82.82" xlink:href="#m3d18dc83b9" y="205.308897"/>
      </g>
     </g>
     <g id="text_5">
      <!-- 0.00 -->
      <g transform="translate(53.554375 209.108116)scale(0.1 -0.1)">
       <use xlink:href="#DejaVuSans-30"/>
       <use x="63.623047" xlink:href="#DejaVuSans-2e"/>
       <use x="95.410156" xlink:href="#DejaVuSans-30"/>
       <use x="159.033203" xlink:href="#DejaVuSans-30"/>
      </g>
     </g>
    </g>
    <g id="ytick_2">
     <g id="line2d_9">
      <path clip-path="url(#pe021b0708c)" d="M 82.82 176.866465 
L 253.755 176.866465 
" style="fill:none;stroke:#b0b0b0;stroke-linecap:square;stroke-width:0.8;"/>
     </g>
     <g id="line2d_10">
      <g>
       <use style="stroke:#000000;stroke-width:0.8;" x="82.82" xlink:href="#m3d18dc83b9" y="176.866465"/>
      </g>
     </g>
     <g id="text_6">
      <!-- 0.02 -->
      <g transform="translate(53.554375 180.665683)scale(0.1 -0.1)">
       <defs>
        <path d="M 1228 531 
L 3431 531 
L 3431 0 
L 469 0 
L 469 531 
Q 828 903 1448 1529 
Q 2069 2156 2228 2338 
Q 2531 2678 2651 2914 
Q 2772 3150 2772 3378 
Q 2772 3750 2511 3984 
Q 2250 4219 1831 4219 
Q 1534 4219 1204 4116 
Q 875 4013 500 3803 
L 500 4441 
Q 881 4594 1212 4672 
Q 1544 4750 1819 4750 
Q 2544 4750 2975 4387 
Q 3406 4025 3406 3419 
Q 3406 3131 3298 2873 
Q 3191 2616 2906 2266 
Q 2828 2175 2409 1742 
Q 1991 1309 1228 531 
z
" id="DejaVuSans-32" transform="scale(0.015625)"/>
       </defs>
       <use xlink:href="#DejaVuSans-30"/>
       <use x="63.623047" xlink:href="#DejaVuSans-2e"/>
       <use x="95.410156" xlink:href="#DejaVuSans-30"/>
       <use x="159.033203" xlink:href="#DejaVuSans-32"/>
      </g>
     </g>
    </g>
    <g id="ytick_3">
     <g id="line2d_11">
      <path clip-path="url(#pe021b0708c)" d="M 82.82 148.424032 
L 253.755 148.424032 
" style="fill:none;stroke:#b0b0b0;stroke-linecap:square;stroke-width:0.8;"/>
     </g>
     <g id="line2d_12">
      <g>
       <use style="stroke:#000000;stroke-width:0.8;" x="82.82" xlink:href="#m3d18dc83b9" y="148.424032"/>
      </g>
     </g>
     <g id="text_7">
      <!-- 0.04 -->
      <g transform="translate(53.554375 152.22325)scale(0.1 -0.1)">
       <defs>
        <path d="M 2419 4116 
L 825 1625 
L 2419 1625 
L 2419 4116 
z
M 2253 4666 
L 3047 4666 
L 3047 1625 
L 3713 1625 
L 3713 1100 
L 3047 1100 
L 3047 0 
L 2419 0 
L 2419 1100 
L 313 1100 
L 313 1709 
L 2253 4666 
z
" id="DejaVuSans-34" transform="scale(0.015625)"/>
       </defs>
       <use xlink:href="#DejaVuSans-30"/>
       <use x="63.623047" xlink:href="#DejaVuSans-2e"/>
       <use x="95.410156" xlink:href="#DejaVuSans-30"/>
       <use x="159.033203" xlink:href="#DejaVuSans-34"/>
      </g>
     </g>
    </g>
    <g id="ytick_4">
     <g id="line2d_13">
      <path clip-path="url(#pe021b0708c)" d="M 82.82 119.981599 
L 253.755 119.981599 
" style="fill:none;stroke:#b0b0b0;stroke-linecap:square;stroke-width:0.8;"/>
     </g>
     <g id="line2d_14">
      <g>
       <use style="stroke:#000000;stroke-width:0.8;" x="82.82" xlink:href="#m3d18dc83b9" y="119.981599"/>
      </g>
     </g>
     <g id="text_8">
      <!-- 0.06 -->
      <g transform="translate(53.554375 123.780818)scale(0.1 -0.1)">
       <defs>
        <path d="M 2113 2584 
Q 1688 2584 1439 2293 
Q 1191 2003 1191 1497 
Q 1191 994 1439 701 
Q 1688 409 2113 409 
Q 2538 409 2786 701 
Q 3034 994 3034 1497 
Q 3034 2003 2786 2293 
Q 2538 2584 2113 2584 
z
M 3366 4563 
L 3366 3988 
Q 3128 4100 2886 4159 
Q 2644 4219 2406 4219 
Q 1781 4219 1451 3797 
Q 1122 3375 1075 2522 
Q 1259 2794 1537 2939 
Q 1816 3084 2150 3084 
Q 2853 3084 3261 2657 
Q 3669 2231 3669 1497 
Q 3669 778 3244 343 
Q 2819 -91 2113 -91 
Q 1303 -91 875 529 
Q 447 1150 447 2328 
Q 447 3434 972 4092 
Q 1497 4750 2381 4750 
Q 2619 4750 2861 4703 
Q 3103 4656 3366 4563 
z
" id="DejaVuSans-36" transform="scale(0.015625)"/>
       </defs>
       <use xlink:href="#DejaVuSans-30"/>
       <use x="63.623047" xlink:href="#DejaVuSans-2e"/>
       <use x="95.410156" xlink:href="#DejaVuSans-30"/>
       <use x="159.033203" xlink:href="#DejaVuSans-36"/>
      </g>
     </g>
    </g>
    <g id="ytick_5">
     <g id="line2d_15">
      <path clip-path="url(#pe021b0708c)" d="M 82.82 91.539166 
L 253.755 91.539166 
" style="fill:none;stroke:#b0b0b0;stroke-linecap:square;stroke-width:0.8;"/>
     </g>
     <g id="line2d_16">
      <g>
       <use style="stroke:#000000;stroke-width:0.8;" x="82.82" xlink:href="#m3d18dc83b9" y="91.539166"/>
      </g>
     </g>
     <g id="text_9">
      <!-- 0.08 -->
      <g transform="translate(53.554375 95.338385)scale(0.1 -0.1)">
       <defs>
        <path d="M 2034 2216 
Q 1584 2216 1326 1975 
Q 1069 1734 1069 1313 
Q 1069 891 1326 650 
Q 1584 409 2034 409 
Q 2484 409 2743 651 
Q 3003 894 3003 1313 
Q 3003 1734 2745 1975 
Q 2488 2216 2034 2216 
z
M 1403 2484 
Q 997 2584 770 2862 
Q 544 3141 544 3541 
Q 544 4100 942 4425 
Q 1341 4750 2034 4750 
Q 2731 4750 3128 4425 
Q 3525 4100 3525 3541 
Q 3525 3141 3298 2862 
Q 3072 2584 2669 2484 
Q 3125 2378 3379 2068 
Q 3634 1759 3634 1313 
Q 3634 634 3220 271 
Q 2806 -91 2034 -91 
Q 1263 -91 848 271 
Q 434 634 434 1313 
Q 434 1759 690 2068 
Q 947 2378 1403 2484 
z
M 1172 3481 
Q 1172 3119 1398 2916 
Q 1625 2713 2034 2713 
Q 2441 2713 2670 2916 
Q 2900 3119 2900 3481 
Q 2900 3844 2670 4047 
Q 2441 4250 2034 4250 
Q 1625 4250 1398 4047 
Q 1172 3844 1172 3481 
z
" id="DejaVuSans-38" transform="scale(0.015625)"/>
       </defs>
       <use xlink:href="#DejaVuSans-30"/>
       <use x="63.623047" xlink:href="#DejaVuSans-2e"/>
       <use x="95.410156" xlink:href="#DejaVuSans-30"/>
       <use x="159.033203" xlink:href="#DejaVuSans-38"/>
      </g>
     </g>
    </g>
    <g id="ytick_6">
     <g id="line2d_17">
      <path clip-path="url(#pe021b0708c)" d="M 82.82 63.096733 
L 253.755 63.096733 
" style="fill:none;stroke:#b0b0b0;stroke-linecap:square;stroke-width:0.8;"/>
     </g>
     <g id="line2d_18">
      <g>
       <use style="stroke:#000000;stroke-width:0.8;" x="82.82" xlink:href="#m3d18dc83b9" y="63.096733"/>
      </g>
     </g>
     <g id="text_10">
      <!-- 0.10 -->
      <g transform="translate(53.554375 66.895952)scale(0.1 -0.1)">
       <use xlink:href="#DejaVuSans-30"/>
       <use x="63.623047" xlink:href="#DejaVuSans-2e"/>
       <use x="95.410156" xlink:href="#DejaVuSans-31"/>
       <use x="159.033203" xlink:href="#DejaVuSans-30"/>
      </g>
     </g>
    </g>
    <g id="text_11">
     <!-- y (m) -->
     <g transform="translate(47.474688 149.780313)rotate(-90)scale(0.1 -0.1)">
      <defs>
       <path d="M 2059 -325 
Q 1816 -950 1584 -1140 
Q 1353 -1331 966 -1331 
L 506 -1331 
L 506 -850 
L 844 -850 
Q 1081 -850 1212 -737 
Q 1344 -625 1503 -206 
L 1606 56 
L 191 3500 
L 800 3500 
L 1894 763 
L 2988 3500 
L 3597 3500 
L 2059 -325 
z
" id="DejaVuSans-79" transform="scale(0.015625)"/>
      </defs>
      <use xlink:href="#DejaVuSans-79"/>
      <use x="59.179688" xlink:href="#DejaVuSans-20"/>
      <use x="90.966797" xlink:href="#DejaVuSans-28"/>
      <use x="129.980469" xlink:href="#DejaVuSans-6d"/>
      <use x="227.392578" xlink:href="#DejaVuSans-29"/>
     </g>
    </g>
   </g>
   <g id="line2d_19">
    <path clip-path="url(#pe021b0708c)" d="M 113.970317 205.308897 
L 119.458229 198.717617 
L 177.729905 129.007974 
L 201.293973 101.222289 
L 217.727707 82.158285 
L 227.9624 70.595629 
L 232.470729 65.787603 
L 233.675215 64.741703 
L 233.748074 64.753202 
L 233.74092 64.834496 
L 233.444461 65.386669 
L 232.398658 66.905689 
L 233.321915 65.785781 
L 240.695106 56.912356 
L 242.500648 54.900605 
L 242.195908 55.330952 
L 242.292302 55.226108 
L 240.756513 56.982874 
L 237.925368 60.441045 
L 235.06835 63.977262 
L 230.550244 69.20971 
L 219.293042 81.797049 
L 178.014885 127.775742 
L 159.037436 149.316014 
L 144.502238 166.122719 
L 133.061272 179.659556 
L 125.002652 189.532038 
L 120.337016 195.57194 
L 118.098204 198.790607 
L 117.421412 200.085316 
L 117.450476 200.398721 
L 117.69059 200.362309 
L 118.293816 199.98574 
L 119.707978 198.792652 
L 120.186647 198.365222 
L 119.453147 199.169122 
L 113.668736 205.56905 
L 110.00564 209.90808 
L 109.659922 210.446983 
L 109.801325 210.355637 
L 110.426695 209.70837 
L 109.721897 210.472344 
L 110.346111 209.735363 
L 111.163171 208.737512 
L 111.163171 208.737512 
" style="fill:none;stroke:#1f77b4;stroke-linecap:square;stroke-opacity:0.7;stroke-width:1.5;"/>
   </g>
   <g id="line2d_20">
    <path clip-path="url(#pe021b0708c)" d="M 113.970317 205.308897 
L 113.691187 205.047451 
L 113.269303 204.927341 
L 111.72456 204.691681 
L 110.161147 203.876936 
L 109.351139 203.270865 
L 108.497212 202.281283 
L 107.426983 201.170103 
L 106.938977 200.499379 
L 106.560331 200.022774 
L 106.132335 199.974367 
L 105.95251 200.027337 
L 105.956318 199.90794 
L 105.959589 199.873563 
L 105.851623 199.929094 
L 105.841609 199.887083 
L 105.762503 200.04127 
L 105.963416 199.768012 
L 109.476881 195.28302 
L 123.724793 177.486495 
L 134.565901 164.280797 
L 145.925161 150.839531 
L 169.206752 123.442971 
L 177.65911 113.095554 
L 185.25324 103.459235 
L 193.421621 92.703935 
L 200.743876 82.703801 
L 206.931001 73.887348 
L 216.460027 60.147464 
L 218.443475 57.702284 
L 219.924764 56.214356 
L 221.156385 55.276412 
L 222.254545 54.711333 
L 223.148921 54.506755 
L 224.146425 54.543634 
L 225.876413 54.622787 
L 226.854485 54.449628 
L 227.620216 54.109063 
L 228.128719 53.628727 
L 228.832234 52.589724 
L 229.667811 50.849584 
L 230.103378 50.143074 
L 230.363951 50.005845 
L 230.39892 50.076082 
L 230.446814 50.133715 
L 230.519862 50.075827 
L 230.631801 49.946702 
L 230.488117 50.223701 
L 228.656866 52.890501 
L 225.313589 57.391732 
L 220.23722 63.841802 
L 213.90883 71.481466 
L 206.951675 79.490958 
L 199.980848 87.159496 
L 193.524042 93.965466 
L 186.563047 101.006228 
L 179.21668 108.14155 
L 170.118059 116.643722 
L 158.0295 127.580703 
L 138.789935 144.94682 
L 131.767673 151.596223 
L 126.591212 156.761437 
L 122.063548 161.579421 
L 118.195648 166.046687 
L 114.973911 170.164804 
L 112.837362 173.212937 
L 110.673411 176.725072 
L 109.016298 179.91958 
L 107.805917 182.813023 
L 106.987553 185.423044 
L 106.51242 187.767006 
L 106.334292 189.861055 
L 106.406822 191.719599 
L 106.683244 193.355804 
L 107.21995 195.044274 
L 107.912039 196.455679 
L 108.83346 197.78551 
L 109.801402 198.808955 
L 110.880421 199.645526 
L 111.966012 200.222816 
L 113.001603 200.52334 
L 113.694199 200.509594 
L 113.916911 200.333693 
L 113.863881 200.107206 
L 113.523503 199.804995 
L 112.766399 199.465443 
L 111.652136 199.223716 
L 110.408464 199.187882 
L 109.28864 199.374018 
L 108.399642 199.731858 
L 107.7457 200.217993 
L 107.319546 200.810083 
L 107.146806 201.427251 
L 107.215743 201.959772 
L 107.244345 201.991408 
L 107.024818 201.729081 
L 106.994695 201.783032 
L 106.998238 201.852152 
L 106.98944 201.798642 
" style="fill:none;stroke:#d62728;stroke-linecap:square;stroke-opacity:0.7;stroke-width:1.5;"/>
   </g>
   <g id="line2d_21">
    <path clip-path="url(#pe021b0708c)" d="M 113.970317 205.308897 
L 109.813881 207.415403 
L 105.684714 209.455453 
L 99.617112 212.183378 
L 95.277309 213.936954 
L 94.272414 214.15292 
L 93.641287 214.024402 
L 93.198344 214.117653 
L 92.578447 214.499422 
L 90.706473 215.943624 
L 91.168689 215.474962 
L 95.962191 210.156681 
L 130.796299 170.95994 
L 148.399839 150.764571 
L 166.275575 129.90352 
L 183.080968 109.939655 
L 199.568513 89.998498 
L 217.223768 68.272616 
L 226.22195 57.321314 
L 228.373863 54.985018 
L 229.221966 54.320127 
L 229.490429 54.298322 
L 229.578389 54.477546 
L 229.525521 55.040469 
L 229.104519 56.446136 
L 227.886923 59.59553 
L 224.176622 68.384065 
L 221.613458 74.077294 
L 220.769571 75.504836 
L 220.425098 75.754495 
L 220.246179 75.653575 
L 220.078884 75.253081 
L 219.838378 73.911264 
L 219.23208 70.430999 
L 218.789545 69.119615 
L 218.401377 68.569826 
L 218.102042 68.483159 
L 217.846061 68.645996 
L 217.532486 69.150321 
L 217.005474 70.007461 
L 216.787819 69.919762 
L 216.351049 69.729452 
L 216.004204 69.82614 
L 215.91659 69.926516 
L 213.397317 72.900783 
L 189.915542 100.711061 
L 176.449838 117.252898 
L 160.140721 137.634559 
L 142.614623 159.894266 
L 126.189218 181.101115 
L 111.957869 199.837243 
L 102.411605 212.365411 
L 101.509031 213.236333 
L 101.25469 213.268065 
L 101.156998 213.06133 
L 101.144147 212.356298 
L 101.136324 210.285505 
L 100.920027 209.46692 
L 100.588631 208.9711 
L 100.171989 208.701653 
L 99.652639 208.611008 
L 98.974999 208.717946 
L 98.060994 209.110435 
L 96.923894 209.865749 
L 95.554636 211.064269 
L 93.983182 212.756304 
L 92.178733 215.050898 
L 91.233791 216.135016 
L 91.144252 216.019638 
L 90.989825 215.620147 
L 90.935951 215.653828 
L 90.714941 216.019529 
L 90.594797 216.239905 
L 90.927971 215.831182 
L 90.977476 215.780372 
L 90.977476 215.780372 
" style="fill:none;stroke:#9467bd;stroke-linecap:square;stroke-opacity:0.7;stroke-width:1.5;"/>
   </g>
   <g id="line2d_22">
    <path clip-path="url(#pe021b0708c)" d="M 113.970317 205.308897 
L 114.253698 205.487173 
L 116.308154 206.655886 
L 116.803797 206.678164 
L 117.110819 206.47598 
L 117.437003 205.945891 
L 117.833735 205.420456 
L 118.148548 205.352302 
L 118.517862 205.520565 
L 119.135894 205.824169 
L 119.347964 205.846038 
L 119.508286 206.057114 
L 119.575328 206.017645 
L 119.990125 205.676597 
L 121.771181 203.957007 
L 124.445843 201.012919 
L 127.921682 196.852763 
L 132.36291 191.206518 
L 138.358308 183.203065 
L 146.045722 172.532967 
L 156.308503 157.864909 
L 168.105103 140.602063 
L 189.600278 108.639853 
L 204.454366 86.715619 
L 212.281264 75.548762 
L 217.259877 68.787507 
L 221.028189 63.993893 
L 223.824092 60.737194 
L 226.16814 58.328374 
L 227.835435 56.903486 
L 229.207104 56.027803 
L 230.140642 55.68344 
L 230.899458 55.656349 
L 231.391385 55.840588 
L 231.79014 56.188445 
L 232.170791 56.825339 
L 232.477568 57.838025 
L 232.666289 59.2831 
L 232.711693 61.409806 
L 232.539459 64.898264 
L 232.282441 70.021309 
L 232.422588 71.339968 
L 232.665333 71.852021 
L 232.929916 71.981928 
L 233.265007 71.897097 
L 233.741606 71.537839 
L 234.478346 70.696311 
L 235.640599 69.007773 
L 237.401847 66.032506 
L 240.359592 60.54073 
L 244.161703 53.530054 
L 244.954244 52.480563 
L 245.196016 52.412663 
L 245.290148 52.616465 
L 245.281964 53.314335 
L 245.001053 55.022693 
L 244.230698 58.254528 
L 243.696616 59.875004 
L 243.68504 59.854033 
L 243.716945 59.437029 
L 244.184054 56.801739 
L 243.806523 58.029566 
L 243.585944 58.557249 
L 243.578769 58.380603 
L 243.749751 57.6734 
L 243.763384 57.702076 
L 243.787606 57.830923 
L 243.868447 57.662856 
L 243.996198 57.488494 
L 243.630973 57.976184 
L 241.494106 60.60701 
L 237.343093 65.330702 
L 228.456637 75.021673 
L 207.552329 97.792456 
L 185.490431 122.222975 
L 164.27515 146.042942 
L 147.237981 165.493089 
L 133.995456 180.939861 
L 123.45018 193.583003 
L 116.41457 202.345485 
L 112.883085 207.050892 
L 112.694251 207.365684 
L 113.32825 206.579296 
L 115.025476 204.093285 
L 116.840495 201.055035 
L 118.154073 198.432173 
L 118.88649 196.516029 
L 119.175565 195.168218 
L 119.131803 194.421974 
L 118.895303 194.034315 
L 118.552754 193.905126 
L 118.003297 193.989829 
L 117.201843 194.384799 
L 116.12058 195.177378 
L 114.618294 196.570538 
L 112.720638 198.661193 
L 110.568983 201.393274 
L 108.546627 204.323394 
L 106.906474 207.077845 
L 105.897812 209.176429 
L 105.52662 210.414682 
L 105.574824 210.861229 
L 105.763707 210.942554 
L 106.09557 210.806629 
L 106.712589 210.287673 
L 107.738924 209.105897 
L 109.265715 206.971753 
L 110.557106 205.249588 
L 110.759987 205.253983 
L 110.922916 205.554281 
L 111.509914 206.852396 
L 111.965449 207.252932 
L 112.491576 207.415629 
L 113.134935 207.371383 
L 113.971986 207.077661 
L 115.281863 206.349362 
L 116.852847 205.525892 
L 117.593995 205.386 
L 118.282161 205.48907 
L 119.485828 205.726694 
L 119.629762 205.659012 
L 119.600686 205.803592 
L 119.525655 205.988441 
L 119.525655 205.988441 
" style="fill:none;stroke:#bcbd22;stroke-linecap:square;stroke-opacity:0.7;stroke-width:1.5;"/>
   </g>
   <g id="line2d_23">
    <path clip-path="url(#pe021b0708c)" d="M 113.970317 205.308897 
L 120.528431 210.136986 
L 122.499854 211.441112 
L 122.898043 211.502763 
L 122.935113 211.311279 
L 122.742787 210.756554 
L 121.260167 207.163991 
L 121.148415 207.034181 
L 120.96299 206.649476 
L 120.905251 206.038895 
L 121.023063 205.817618 
L 121.045699 205.825454 
L 121.368429 205.895502 
L 123.005785 204.381161 
L 125.393988 201.817895 
L 128.598676 198.036514 
L 132.775682 192.762019 
L 138.491546 185.138237 
L 145.112527 175.928284 
L 154.151441 162.956361 
L 164.749639 147.366683 
L 180.085294 124.349808 
L 205.140739 86.700228 
L 212.869061 75.522388 
L 217.790806 68.753114 
L 221.522404 63.953037 
L 224.297391 60.691689 
L 226.631116 58.279525 
L 228.298004 56.853085 
L 229.677055 55.977251 
L 230.622665 55.633861 
L 231.398871 55.608683 
L 231.908464 55.795108 
L 232.42001 56.25691 
L 232.807867 56.939351 
L 233.134012 57.998377 
L 233.35941 59.486105 
L 233.476174 61.900013 
L 233.414312 66.810177 
L 233.477608 69.762606 
L 233.693076 71.115352 
L 233.992807 71.780186 
L 234.295941 72.024439 
L 234.665053 72.050955 
L 235.174222 71.814946 
L 235.848782 71.215116 
L 236.805283 70.026242 
L 238.066487 68.081008 
L 239.822302 64.918116 
L 242.105867 60.295992 
L 245.802368 52.717104 
L 245.929471 52.696252 
L 245.947178 52.723592 
L 245.984819 53.059487 
L 245.843126 54.376757 
L 244.952116 59.899037 
L 245.457396 57.721468 
L 245.598631 56.71432 
L 245.47287 57.04995 
L 245.102884 58.360282 
L 245.499155 57.35338 
L 245.498335 57.359292 
L 245.424921 57.447375 
L 243.022432 60.455928 
L 238.884317 65.177895 
L 230.747004 74.046001 
L 205.603274 101.330733 
L 181.888024 127.472781 
L 161.910348 149.802151 
L 146.170852 167.701083 
L 133.991016 181.865463 
L 124.147257 193.647384 
L 117.384916 202.078935 
L 113.872448 206.785969 
L 113.410546 207.559462 
L 113.560949 207.437506 
L 114.465179 206.294995 
L 116.219436 203.726262 
L 117.927438 200.834126 
L 119.112096 198.415148 
L 119.80723 196.508582 
L 120.041212 195.291227 
L 119.982928 194.52413 
L 119.729735 194.118765 
L 119.370589 193.975319 
L 118.890765 194.019636 
L 118.195434 194.301305 
L 117.123672 195.002283 
L 115.762012 196.171495 
L 114.001246 197.997564 
L 112.087382 200.306958 
L 110.190829 202.927074 
L 108.515615 205.603096 
L 107.326559 207.895041 
L 106.698407 209.533204 
L 106.51944 210.553991 
L 106.639696 211.032705 
L 106.895054 211.174432 
L 107.26519 211.111586 
L 107.89155 210.754746 
L 108.863416 209.912573 
L 110.233629 208.397286 
L 113.097523 205.087508 
L 113.280581 205.250629 
L 114.435735 206.914556 
L 114.974745 207.092052 
L 115.643445 207.077078 
L 116.493759 206.828059 
L 117.65896 206.236712 
L 120.027569 204.963822 
L 120.448855 205.015402 
L 120.800301 205.296092 
L 121.262718 205.647528 
L 121.384621 205.518538 
L 121.326221 205.74208 
L 121.294134 205.869702 
L 121.294134 205.869702 
" style="fill:none;stroke:#2ca02c;stroke-linecap:square;stroke-opacity:0.7;stroke-width:1.5;"/>
   </g>
   <g id="line2d_24">
    <path clip-path="url(#pe021b0708c)" d="M 113.970317 205.308897 
L 119.264126 209.457226 
L 132.942447 220.226356 
L 136.079772 222.350031 
L 137.324172 222.97828 
L 137.501006 222.921959 
L 137.424752 222.690092 
L 136.906378 222.004739 
L 135.297573 220.331214 
L 132.143336 217.396866 
L 127.320203 213.23405 
L 122.470142 209.341986 
L 118.480613 206.411173 
L 115.51427 204.479961 
L 113.307827 203.292144 
L 111.897385 202.750203 
L 110.964759 202.595953 
L 110.393441 202.699143 
L 110.079421 202.952183 
L 109.914477 203.398075 
L 109.946424 204.055383 
L 110.24386 205.006946 
L 110.869269 206.218488 
L 111.818589 207.557655 
L 112.866907 208.66862 
L 113.82934 209.397298 
L 114.648636 209.765876 
L 115.312973 209.841082 
L 115.877937 209.683368 
L 116.37856 209.293837 
L 116.826793 208.641923 
L 117.274743 207.560194 
L 118.116883 205.363186 
L 118.382216 205.270618 
L 118.664093 205.424171 
L 119.163986 206.010919 
L 119.880906 206.788112 
L 120.186282 206.823947 
L 120.454146 206.608089 
L 121.001551 205.832829 
L 121.081887 205.987593 
L 121.166878 206.092405 
L 121.217267 206.033497 
L 121.433943 205.830754 
L 122.994756 204.383186 
L 125.383003 201.820835 
L 128.587869 198.040092 
L 132.765203 192.766045 
L 138.481595 185.142546 
L 145.103236 175.932679 
L 154.143094 162.960639 
L 164.742421 147.370619 
L 180.079712 124.353012 
L 205.137759 86.701923 
L 212.866841 75.523582 
L 217.789045 68.753991 
L 221.520968 63.953674 
L 224.296173 60.692149 
L 226.630058 58.279837 
L 228.297036 56.853295 
L 229.676137 55.977378 
L 230.621759 55.633933 
L 231.397955 55.60871 
L 231.907525 55.795106 
L 232.419025 56.25688 
L 232.806817 56.939299 
L 233.132867 57.998307 
L 233.358132 59.486021 
L 233.474677 61.899912 
L 233.412336 66.810021 
L 233.475288 69.76236 
L 233.690552 71.115013 
L 233.990143 71.779749 
L 234.29319 72.023915 
L 234.662233 72.050332 
L 235.171346 71.814191 
L 235.845876 71.214194 
L 236.802389 70.025085 
L 238.063679 68.07954 
L 239.819701 64.916199 
L 242.103648 60.293445 
L 245.800985 52.713213 
L 245.928121 52.69226 
L 245.945832 52.719581 
L 245.983485 53.055387 
L 245.841756 54.372565 
L 244.950434 59.894843 
L 245.455634 57.717135 
L 245.596839 56.710014 
L 245.471068 57.045671 
L 245.101119 58.355654 
L 245.496753 57.351144 
L 245.381977 57.497638 
L 243.275508 60.148128 
L 239.361947 64.639748 
L 232.219139 72.450155 
L 203.321469 103.826447 
L 179.475381 130.148102 
L 159.678876 152.315604 
L 144.265853 169.891103 
L 132.479302 183.647996 
L 123.093262 194.933211 
L 116.794332 202.838583 
L 113.705293 207.031853 
L 113.409008 207.558236 
L 113.607011 207.383666 
L 114.670563 206.009676 
L 116.469494 203.326043 
L 118.03748 200.624044 
L 119.190256 198.225264 
L 119.846397 196.355385 
L 120.045308 195.177409 
L 119.955703 194.449901 
L 119.727282 194.118059 
L 119.368104 193.974716 
L 118.888254 194.019138 
L 118.192903 194.30093 
L 117.12113 195.002061 
L 115.759478 196.171427 
L 113.998749 197.997647 
L 112.084955 200.307149 
L 110.188502 202.927311 
L 108.51341 205.603301 
L 107.324474 207.895136 
L 106.696417 209.533139 
L 106.517512 210.55374 
L 106.637795 211.032279 
L 106.893158 211.173856 
L 107.26328 211.11086 
L 107.889593 210.753825 
L 108.86135 209.911417 
L 110.23134 208.395877 
L 113.094217 205.08593 
L 113.277134 205.249103 
L 114.405193 206.898039 
L 114.970893 207.090652 
L 115.639529 207.07562 
L 116.489784 206.826488 
L 117.65495 206.234917 
L 120.023855 204.961198 
L 120.445382 205.012536 
L 120.797193 205.293 
L 121.260354 205.644189 
L 121.382621 205.515019 
L 121.324532 205.73837 
L 121.292561 205.865906 
L 121.292561 205.865906 
" style="fill:none;stroke:#17becf;stroke-linecap:square;stroke-opacity:0.7;stroke-width:1.5;"/>
   </g>
   <g id="line2d_25">
    <path clip-path="url(#pe021b0708c)" d="M 113.970317 205.308897 
L 235.466586 63.096733 
L 113.970317 205.308897 
" style="fill:none;stroke:#000000;stroke-dasharray:5.55,2.4;stroke-dashoffset:0;stroke-opacity:0.595;stroke-width:1.5;"/>
   </g>
   <g id="patch_3">
    <path d="M 82.82 231.64 
L 82.82 41.28 
" style="fill:none;stroke:#000000;stroke-linecap:square;stroke-linejoin:miter;stroke-width:0.8;"/>
   </g>
   <g id="patch_4">
    <path d="M 253.755 231.64 
L 253.755 41.28 
" style="fill:none;stroke:#000000;stroke-linecap:square;stroke-linejoin:miter;stroke-width:0.8;"/>
   </g>
   <g id="patch_5">
    <path d="M 82.82 231.64 
L 253.755 231.64 
" style="fill:none;stroke:#000000;stroke-linecap:square;stroke-linejoin:miter;stroke-width:0.8;"/>
   </g>
   <g id="patch_6">
    <path d="M 82.82 41.28 
L 253.755 41.28 
" style="fill:none;stroke:#000000;stroke-linecap:square;stroke-linejoin:miter;stroke-width:0.8;"/>
   </g>
   <g id="text_12">
    <!-- Plano xy -->
    <g transform="translate(142.842812 35.28)scale(0.12 -0.12)">
     <defs>
      <path d="M 1259 4147 
L 1259 2394 
L 2053 2394 
Q 2494 2394 2734 2622 
Q 2975 2850 2975 3272 
Q 2975 3691 2734 3919 
Q 2494 4147 2053 4147 
L 1259 4147 
z
M 628 4666 
L 2053 4666 
Q 2838 4666 3239 4311 
Q 3641 3956 3641 3272 
Q 3641 2581 3239 2228 
Q 2838 1875 2053 1875 
L 1259 1875 
L 1259 0 
L 628 0 
L 628 4666 
z
" id="DejaVuSans-50" transform="scale(0.015625)"/>
      <path d="M 603 4863 
L 1178 4863 
L 1178 0 
L 603 0 
L 603 4863 
z
" id="DejaVuSans-6c" transform="scale(0.015625)"/>
      <path d="M 2194 1759 
Q 1497 1759 1228 1600 
Q 959 1441 959 1056 
Q 959 750 1161 570 
Q 1363 391 1709 391 
Q 2188 391 2477 730 
Q 2766 1069 2766 1631 
L 2766 1759 
L 2194 1759 
z
M 3341 1997 
L 3341 0 
L 2766 0 
L 2766 531 
Q 2569 213 2275 61 
Q 1981 -91 1556 -91 
Q 1019 -91 701 211 
Q 384 513 384 1019 
Q 384 1609 779 1909 
Q 1175 2209 1959 2209 
L 2766 2209 
L 2766 2266 
Q 2766 2663 2505 2880 
Q 2244 3097 1772 3097 
Q 1472 3097 1187 3025 
Q 903 2953 641 2809 
L 641 3341 
Q 956 3463 1253 3523 
Q 1550 3584 1831 3584 
Q 2591 3584 2966 3190 
Q 3341 2797 3341 1997 
z
" id="DejaVuSans-61" transform="scale(0.015625)"/>
      <path d="M 3513 2113 
L 3513 0 
L 2938 0 
L 2938 2094 
Q 2938 2591 2744 2837 
Q 2550 3084 2163 3084 
Q 1697 3084 1428 2787 
Q 1159 2491 1159 1978 
L 1159 0 
L 581 0 
L 581 3500 
L 1159 3500 
L 1159 2956 
Q 1366 3272 1645 3428 
Q 1925 3584 2291 3584 
Q 2894 3584 3203 3211 
Q 3513 2838 3513 2113 
z
" id="DejaVuSans-6e" transform="scale(0.015625)"/>
      <path d="M 1959 3097 
Q 1497 3097 1228 2736 
Q 959 2375 959 1747 
Q 959 1119 1226 758 
Q 1494 397 1959 397 
Q 2419 397 2687 759 
Q 2956 1122 2956 1747 
Q 2956 2369 2687 2733 
Q 2419 3097 1959 3097 
z
M 1959 3584 
Q 2709 3584 3137 3096 
Q 3566 2609 3566 1747 
Q 3566 888 3137 398 
Q 2709 -91 1959 -91 
Q 1206 -91 779 398 
Q 353 888 353 1747 
Q 353 2609 779 3096 
Q 1206 3584 1959 3584 
z
" id="DejaVuSans-6f" transform="scale(0.015625)"/>
     </defs>
     <use xlink:href="#DejaVuSans-50"/>
     <use x="60.302734" xlink:href="#DejaVuSans-6c"/>
     <use x="88.085938" xlink:href="#DejaVuSans-61"/>
     <use x="149.365234" xlink:href="#DejaVuSans-6e"/>
     <use x="212.744141" xlink:href="#DejaVuSans-6f"/>
     <use x="273.925781" xlink:href="#DejaVuSans-20"/>
     <use x="305.712891" xlink:href="#DejaVuSans-78"/>
     <use x="364.892578" xlink:href="#DejaVuSans-79"/>
    </g>
   </g>
  </g>
  <g id="axes_2">
   <g id="patch_7">
    <path d="M 307.865 231.64 
L 478.8 231.64 
L 478.8 41.28 
L 307.865 41.28 
z
" style="fill:#ffffff;"/>
   </g>
   <g id="matplotlib.axis_3">
    <g id="xtick_4">
     <g id="line2d_26">
      <path clip-path="url(#pa5aa1ed699)" d="M 315.634773 231.64 
L 315.634773 41.28 
" style="fill:none;stroke:#b0b0b0;stroke-linecap:square;stroke-width:0.8;"/>
     </g>
     <g id="line2d_27">
      <g>
       <use style="stroke:#000000;stroke-width:0.8;" x="315.634773" xlink:href="#mcefc435235" y="231.64"/>
      </g>
     </g>
     <g id="text_13">
      <!-- 0 -->
      <g transform="translate(312.453523 246.238438)scale(0.1 -0.1)">
       <use xlink:href="#DejaVuSans-30"/>
      </g>
     </g>
    </g>
    <g id="xtick_5">
     <g id="line2d_28">
      <path clip-path="url(#pa5aa1ed699)" d="M 354.491732 231.64 
L 354.491732 41.28 
" style="fill:none;stroke:#b0b0b0;stroke-linecap:square;stroke-width:0.8;"/>
     </g>
     <g id="line2d_29">
      <g>
       <use style="stroke:#000000;stroke-width:0.8;" x="354.491732" xlink:href="#mcefc435235" y="231.64"/>
      </g>
     </g>
     <g id="text_14">
      <!-- 5 -->
      <g transform="translate(351.310482 246.238438)scale(0.1 -0.1)">
       <use xlink:href="#DejaVuSans-35"/>
      </g>
     </g>
    </g>
    <g id="xtick_6">
     <g id="line2d_30">
      <path clip-path="url(#pa5aa1ed699)" d="M 393.34869 231.64 
L 393.34869 41.28 
" style="fill:none;stroke:#b0b0b0;stroke-linecap:square;stroke-width:0.8;"/>
     </g>
     <g id="line2d_31">
      <g>
       <use style="stroke:#000000;stroke-width:0.8;" x="393.34869" xlink:href="#mcefc435235" y="231.64"/>
      </g>
     </g>
     <g id="text_15">
      <!-- 10 -->
      <g transform="translate(386.98619 246.238438)scale(0.1 -0.1)">
       <use xlink:href="#DejaVuSans-31"/>
       <use x="63.623047" xlink:href="#DejaVuSans-30"/>
      </g>
     </g>
    </g>
    <g id="xtick_7">
     <g id="line2d_32">
      <path clip-path="url(#pa5aa1ed699)" d="M 432.205649 231.64 
L 432.205649 41.28 
" style="fill:none;stroke:#b0b0b0;stroke-linecap:square;stroke-width:0.8;"/>
     </g>
     <g id="line2d_33">
      <g>
       <use style="stroke:#000000;stroke-width:0.8;" x="432.205649" xlink:href="#mcefc435235" y="231.64"/>
      </g>
     </g>
     <g id="text_16">
      <!-- 15 -->
      <g transform="translate(425.843149 246.238438)scale(0.1 -0.1)">
       <use xlink:href="#DejaVuSans-31"/>
       <use x="63.623047" xlink:href="#DejaVuSans-35"/>
      </g>
     </g>
    </g>
    <g id="xtick_8">
     <g id="line2d_34">
      <path clip-path="url(#pa5aa1ed699)" d="M 471.062608 231.64 
L 471.062608 41.28 
" style="fill:none;stroke:#b0b0b0;stroke-linecap:square;stroke-width:0.8;"/>
     </g>
     <g id="line2d_35">
      <g>
       <use style="stroke:#000000;stroke-width:0.8;" x="471.062608" xlink:href="#mcefc435235" y="231.64"/>
      </g>
     </g>
     <g id="text_17">
      <!-- 20 -->
      <g transform="translate(464.700108 246.238438)scale(0.1 -0.1)">
       <use xlink:href="#DejaVuSans-32"/>
       <use x="63.623047" xlink:href="#DejaVuSans-30"/>
      </g>
     </g>
    </g>
    <g id="text_18">
     <!-- Tiempo (s) -->
     <g transform="translate(366.77 259.916562)scale(0.1 -0.1)">
      <defs>
       <path d="M -19 4666 
L 3928 4666 
L 3928 4134 
L 2272 4134 
L 2272 0 
L 1638 0 
L 1638 4134 
L -19 4134 
L -19 4666 
z
" id="DejaVuSans-54" transform="scale(0.015625)"/>
       <path d="M 603 3500 
L 1178 3500 
L 1178 0 
L 603 0 
L 603 3500 
z
M 603 4863 
L 1178 4863 
L 1178 4134 
L 603 4134 
L 603 4863 
z
" id="DejaVuSans-69" transform="scale(0.015625)"/>
       <path d="M 3597 1894 
L 3597 1613 
L 953 1613 
Q 991 1019 1311 708 
Q 1631 397 2203 397 
Q 2534 397 2845 478 
Q 3156 559 3463 722 
L 3463 178 
Q 3153 47 2828 -22 
Q 2503 -91 2169 -91 
Q 1331 -91 842 396 
Q 353 884 353 1716 
Q 353 2575 817 3079 
Q 1281 3584 2069 3584 
Q 2775 3584 3186 3129 
Q 3597 2675 3597 1894 
z
M 3022 2063 
Q 3016 2534 2758 2815 
Q 2500 3097 2075 3097 
Q 1594 3097 1305 2825 
Q 1016 2553 972 2059 
L 3022 2063 
z
" id="DejaVuSans-65" transform="scale(0.015625)"/>
       <path d="M 1159 525 
L 1159 -1331 
L 581 -1331 
L 581 3500 
L 1159 3500 
L 1159 2969 
Q 1341 3281 1617 3432 
Q 1894 3584 2278 3584 
Q 2916 3584 3314 3078 
Q 3713 2572 3713 1747 
Q 3713 922 3314 415 
Q 2916 -91 2278 -91 
Q 1894 -91 1617 61 
Q 1341 213 1159 525 
z
M 3116 1747 
Q 3116 2381 2855 2742 
Q 2594 3103 2138 3103 
Q 1681 3103 1420 2742 
Q 1159 2381 1159 1747 
Q 1159 1113 1420 752 
Q 1681 391 2138 391 
Q 2594 391 2855 752 
Q 3116 1113 3116 1747 
z
" id="DejaVuSans-70" transform="scale(0.015625)"/>
       <path d="M 2834 3397 
L 2834 2853 
Q 2591 2978 2328 3040 
Q 2066 3103 1784 3103 
Q 1356 3103 1142 2972 
Q 928 2841 928 2578 
Q 928 2378 1081 2264 
Q 1234 2150 1697 2047 
L 1894 2003 
Q 2506 1872 2764 1633 
Q 3022 1394 3022 966 
Q 3022 478 2636 193 
Q 2250 -91 1575 -91 
Q 1294 -91 989 -36 
Q 684 19 347 128 
L 347 722 
Q 666 556 975 473 
Q 1284 391 1588 391 
Q 1994 391 2212 530 
Q 2431 669 2431 922 
Q 2431 1156 2273 1281 
Q 2116 1406 1581 1522 
L 1381 1569 
Q 847 1681 609 1914 
Q 372 2147 372 2553 
Q 372 3047 722 3315 
Q 1072 3584 1716 3584 
Q 2034 3584 2315 3537 
Q 2597 3491 2834 3397 
z
" id="DejaVuSans-73" transform="scale(0.015625)"/>
      </defs>
      <use xlink:href="#DejaVuSans-54"/>
      <use x="57.958984" xlink:href="#DejaVuSans-69"/>
      <use x="85.742188" xlink:href="#DejaVuSans-65"/>
      <use x="147.265625" xlink:href="#DejaVuSans-6d"/>
      <use x="244.677734" xlink:href="#DejaVuSans-70"/>
      <use x="308.154297" xlink:href="#DejaVuSans-6f"/>
      <use x="369.335938" xlink:href="#DejaVuSans-20"/>
      <use x="401.123047" xlink:href="#DejaVuSans-28"/>
      <use x="440.136719" xlink:href="#DejaVuSans-73"/>
      <use x="492.236328" xlink:href="#DejaVuSans-29"/>
     </g>
    </g>
   </g>
   <g id="matplotlib.axis_4">
    <g id="ytick_7">
     <g id="line2d_36">
      <path clip-path="url(#pa5aa1ed699)" d="M 307.865 222.811593 
L 478.8 222.811593 
" style="fill:none;stroke:#b0b0b0;stroke-linecap:square;stroke-width:0.8;"/>
     </g>
     <g id="line2d_37">
      <g>
       <use style="stroke:#000000;stroke-width:0.8;" x="307.865" xlink:href="#m3d18dc83b9" y="222.811593"/>
      </g>
     </g>
     <g id="text_19">
      <!-- 0.98 -->
      <g transform="translate(278.599375 226.610811)scale(0.1 -0.1)">
       <defs>
        <path d="M 703 97 
L 703 672 
Q 941 559 1184 500 
Q 1428 441 1663 441 
Q 2288 441 2617 861 
Q 2947 1281 2994 2138 
Q 2813 1869 2534 1725 
Q 2256 1581 1919 1581 
Q 1219 1581 811 2004 
Q 403 2428 403 3163 
Q 403 3881 828 4315 
Q 1253 4750 1959 4750 
Q 2769 4750 3195 4129 
Q 3622 3509 3622 2328 
Q 3622 1225 3098 567 
Q 2575 -91 1691 -91 
Q 1453 -91 1209 -44 
Q 966 3 703 97 
z
M 1959 2075 
Q 2384 2075 2632 2365 
Q 2881 2656 2881 3163 
Q 2881 3666 2632 3958 
Q 2384 4250 1959 4250 
Q 1534 4250 1286 3958 
Q 1038 3666 1038 3163 
Q 1038 2656 1286 2365 
Q 1534 2075 1959 2075 
z
" id="DejaVuSans-39" transform="scale(0.015625)"/>
       </defs>
       <use xlink:href="#DejaVuSans-30"/>
       <use x="63.623047" xlink:href="#DejaVuSans-2e"/>
       <use x="95.410156" xlink:href="#DejaVuSans-39"/>
       <use x="159.033203" xlink:href="#DejaVuSans-38"/>
      </g>
     </g>
    </g>
    <g id="ytick_8">
     <g id="line2d_38">
      <path clip-path="url(#pa5aa1ed699)" d="M 307.865 199.840359 
L 478.8 199.840359 
" style="fill:none;stroke:#b0b0b0;stroke-linecap:square;stroke-width:0.8;"/>
     </g>
     <g id="line2d_39">
      <g>
       <use style="stroke:#000000;stroke-width:0.8;" x="307.865" xlink:href="#m3d18dc83b9" y="199.840359"/>
      </g>
     </g>
     <g id="text_20">
      <!-- 1.00 -->
      <g transform="translate(278.599375 203.639578)scale(0.1 -0.1)">
       <use xlink:href="#DejaVuSans-31"/>
       <use x="63.623047" xlink:href="#DejaVuSans-2e"/>
       <use x="95.410156" xlink:href="#DejaVuSans-30"/>
       <use x="159.033203" xlink:href="#DejaVuSans-30"/>
      </g>
     </g>
    </g>
    <g id="ytick_9">
     <g id="line2d_40">
      <path clip-path="url(#pa5aa1ed699)" d="M 307.865 176.869126 
L 478.8 176.869126 
" style="fill:none;stroke:#b0b0b0;stroke-linecap:square;stroke-width:0.8;"/>
     </g>
     <g id="line2d_41">
      <g>
       <use style="stroke:#000000;stroke-width:0.8;" x="307.865" xlink:href="#m3d18dc83b9" y="176.869126"/>
      </g>
     </g>
     <g id="text_21">
      <!-- 1.02 -->
      <g transform="translate(278.599375 180.668345)scale(0.1 -0.1)">
       <use xlink:href="#DejaVuSans-31"/>
       <use x="63.623047" xlink:href="#DejaVuSans-2e"/>
       <use x="95.410156" xlink:href="#DejaVuSans-30"/>
       <use x="159.033203" xlink:href="#DejaVuSans-32"/>
      </g>
     </g>
    </g>
    <g id="ytick_10">
     <g id="line2d_42">
      <path clip-path="url(#pa5aa1ed699)" d="M 307.865 153.897893 
L 478.8 153.897893 
" style="fill:none;stroke:#b0b0b0;stroke-linecap:square;stroke-width:0.8;"/>
     </g>
     <g id="line2d_43">
      <g>
       <use style="stroke:#000000;stroke-width:0.8;" x="307.865" xlink:href="#m3d18dc83b9" y="153.897893"/>
      </g>
     </g>
     <g id="text_22">
      <!-- 1.04 -->
      <g transform="translate(278.599375 157.697111)scale(0.1 -0.1)">
       <use xlink:href="#DejaVuSans-31"/>
       <use x="63.623047" xlink:href="#DejaVuSans-2e"/>
       <use x="95.410156" xlink:href="#DejaVuSans-30"/>
       <use x="159.033203" xlink:href="#DejaVuSans-34"/>
      </g>
     </g>
    </g>
    <g id="ytick_11">
     <g id="line2d_44">
      <path clip-path="url(#pa5aa1ed699)" d="M 307.865 130.926659 
L 478.8 130.926659 
" style="fill:none;stroke:#b0b0b0;stroke-linecap:square;stroke-width:0.8;"/>
     </g>
     <g id="line2d_45">
      <g>
       <use style="stroke:#000000;stroke-width:0.8;" x="307.865" xlink:href="#m3d18dc83b9" y="130.926659"/>
      </g>
     </g>
     <g id="text_23">
      <!-- 1.06 -->
      <g transform="translate(278.599375 134.725878)scale(0.1 -0.1)">
       <use xlink:href="#DejaVuSans-31"/>
       <use x="63.623047" xlink:href="#DejaVuSans-2e"/>
       <use x="95.410156" xlink:href="#DejaVuSans-30"/>
       <use x="159.033203" xlink:href="#DejaVuSans-36"/>
      </g>
     </g>
    </g>
    <g id="ytick_12">
     <g id="line2d_46">
      <path clip-path="url(#pa5aa1ed699)" d="M 307.865 107.955426 
L 478.8 107.955426 
" style="fill:none;stroke:#b0b0b0;stroke-linecap:square;stroke-width:0.8;"/>
     </g>
     <g id="line2d_47">
      <g>
       <use style="stroke:#000000;stroke-width:0.8;" x="307.865" xlink:href="#m3d18dc83b9" y="107.955426"/>
      </g>
     </g>
     <g id="text_24">
      <!-- 1.08 -->
      <g transform="translate(278.599375 111.754645)scale(0.1 -0.1)">
       <use xlink:href="#DejaVuSans-31"/>
       <use x="63.623047" xlink:href="#DejaVuSans-2e"/>
       <use x="95.410156" xlink:href="#DejaVuSans-30"/>
       <use x="159.033203" xlink:href="#DejaVuSans-38"/>
      </g>
     </g>
    </g>
    <g id="ytick_13">
     <g id="line2d_48">
      <path clip-path="url(#pa5aa1ed699)" d="M 307.865 84.984193 
L 478.8 84.984193 
" style="fill:none;stroke:#b0b0b0;stroke-linecap:square;stroke-width:0.8;"/>
     </g>
     <g id="line2d_49">
      <g>
       <use style="stroke:#000000;stroke-width:0.8;" x="307.865" xlink:href="#m3d18dc83b9" y="84.984193"/>
      </g>
     </g>
     <g id="text_25">
      <!-- 1.10 -->
      <g transform="translate(278.599375 88.783412)scale(0.1 -0.1)">
       <use xlink:href="#DejaVuSans-31"/>
       <use x="63.623047" xlink:href="#DejaVuSans-2e"/>
       <use x="95.410156" xlink:href="#DejaVuSans-31"/>
       <use x="159.033203" xlink:href="#DejaVuSans-30"/>
      </g>
     </g>
    </g>
    <g id="ytick_14">
     <g id="line2d_50">
      <path clip-path="url(#pa5aa1ed699)" d="M 307.865 62.01296 
L 478.8 62.01296 
" style="fill:none;stroke:#b0b0b0;stroke-linecap:square;stroke-width:0.8;"/>
     </g>
     <g id="line2d_51">
      <g>
       <use style="stroke:#000000;stroke-width:0.8;" x="307.865" xlink:href="#m3d18dc83b9" y="62.01296"/>
      </g>
     </g>
     <g id="text_26">
      <!-- 1.12 -->
      <g transform="translate(278.599375 65.812178)scale(0.1 -0.1)">
       <use xlink:href="#DejaVuSans-31"/>
       <use x="63.623047" xlink:href="#DejaVuSans-2e"/>
       <use x="95.410156" xlink:href="#DejaVuSans-31"/>
       <use x="159.033203" xlink:href="#DejaVuSans-32"/>
      </g>
     </g>
    </g>
    <g id="text_27">
     <!-- z (m) -->
     <g transform="translate(272.519688 149.445156)rotate(-90)scale(0.1 -0.1)">
      <defs>
       <path d="M 353 3500 
L 3084 3500 
L 3084 2975 
L 922 459 
L 3084 459 
L 3084 0 
L 275 0 
L 275 525 
L 2438 3041 
L 353 3041 
L 353 3500 
z
" id="DejaVuSans-7a" transform="scale(0.015625)"/>
      </defs>
      <use xlink:href="#DejaVuSans-7a"/>
      <use x="52.490234" xlink:href="#DejaVuSans-20"/>
      <use x="84.277344" xlink:href="#DejaVuSans-28"/>
      <use x="123.291016" xlink:href="#DejaVuSans-6d"/>
      <use x="220.703125" xlink:href="#DejaVuSans-29"/>
     </g>
    </g>
   </g>
   <g id="line2d_52">
    <path clip-path="url(#pa5aa1ed699)" d="M 315.634773 200.035774 
L 315.958581 201.22594 
L 316.250008 201.574388 
L 316.573816 201.616858 
L 317.15667 201.388914 
L 319.002376 200.585412 
L 320.556654 200.203829 
L 322.629025 199.941651 
L 325.834724 199.785262 
L 332.667073 199.725712 
L 362.457408 199.64407 
L 362.586931 198.335995 
L 362.878359 191.830276 
L 365.015491 134.631247 
L 365.857392 121.111682 
L 366.731674 110.566522 
L 367.541194 103.29001 
L 368.318333 98.202633 
L 369.095472 94.514167 
L 369.937373 91.56314 
L 370.811654 89.263187 
L 371.685936 87.555212 
L 372.560217 86.320517 
L 373.499261 85.382076 
L 374.535446 84.66265 
L 375.701155 84.122979 
L 377.093529 83.728936 
L 378.971616 83.444662 
L 381.691603 83.278037 
L 386.710627 83.231603 
L 408.697189 83.406614 
L 424.466638 83.62287 
L 424.596161 84.902971 
L 424.887589 91.245029 
L 427.154245 150.3516 
L 427.963765 163.509092 
L 428.740904 172.651281 
L 429.550424 179.638373 
L 430.424705 185.342239 
L 431.266606 189.476675 
L 432.076126 192.38441 
L 432.853265 194.395835 
L 433.695166 195.971172 
L 434.601828 197.199554 
L 435.540872 198.110266 
L 436.577057 198.80208 
L 437.775147 199.326361 
L 439.264663 199.72712 
L 441.175131 200.000329 
L 444.089402 200.170305 
L 449.788423 200.237546 
L 471.030227 200.205565 
L 471.030227 200.205565 
" style="fill:none;stroke:#1f77b4;stroke-linecap:square;stroke-opacity:0.7;stroke-width:1.5;"/>
   </g>
   <g id="line2d_53">
    <path clip-path="url(#pa5aa1ed699)" d="M 315.634773 200.035774 
L 315.9262 202.476522 
L 316.73572 210.707767 
L 316.897624 211.019686 
L 316.930005 211.008096 
L 317.059528 210.731005 
L 317.286193 209.428034 
L 317.674763 205.500533 
L 318.646187 195.303016 
L 320.39475 181.249549 
L 321.463317 175.893159 
L 322.175694 172.148429 
L 322.693787 170.657327 
L 323.179499 169.109043 
L 324.604254 163.958735 
L 325.219489 162.941968 
L 325.705201 161.473867 
L 326.352817 159.562206 
L 326.709006 159.174966 
L 327.227099 158.755454 
L 327.615668 157.991555 
L 328.587092 155.88414 
L 328.9109 155.822426 
L 329.267089 155.73879 
L 329.558516 155.414168 
L 330.011847 154.510614 
L 330.497559 153.614421 
L 330.756606 153.499121 
L 331.177556 153.633167 
L 331.468983 153.585821 
L 331.792791 153.250434 
L 332.828977 151.888396 
L 333.185166 152.079508 
L 333.541355 152.169672 
L 333.832782 151.982129 
L 334.221351 151.428038 
L 334.707063 150.778688 
L 334.96611 150.770138 
L 335.38706 151.089266 
L 335.710868 151.186258 
L 336.002295 151.023031 
L 336.423246 150.462268 
L 336.844196 149.991886 
L 337.103242 150.011621 
L 337.588954 150.428681 
L 337.912762 150.516968 
L 338.20419 150.345584 
L 338.657521 149.751758 
L 339.01371 149.418735 
L 339.272756 149.470621 
L 340.179418 149.970179 
L 340.503226 149.690965 
L 341.183223 148.996481 
L 341.44227 149.117727 
L 342.25179 149.718919 
L 342.543217 149.547916 
L 343.385117 148.88265 
L 343.676545 149.134354 
L 344.227018 149.631318 
L 344.518445 149.573406 
L 344.874634 149.233679 
L 345.327965 148.809465 
L 345.554631 148.855234 
L 345.91082 149.2282 
L 346.33177 149.567636 
L 346.623197 149.512913 
L 346.979386 149.178073 
L 347.465098 148.734341 
L 347.691764 148.79638 
L 348.080333 149.211471 
L 348.468903 149.480944 
L 348.76033 149.406771 
L 349.116519 149.055791 
L 349.56985 148.637834 
L 349.796516 148.686712 
L 350.152704 149.061038 
L 350.573655 149.400984 
L 350.865082 149.355362 
L 351.221271 149.029162 
L 351.706983 148.58332 
L 351.933648 148.631329 
L 352.289837 149.00412 
L 352.710788 149.358364 
L 353.002215 149.323195 
L 353.358404 149.004452 
L 353.876496 148.520725 
L 354.103162 148.573304 
L 354.459351 148.943081 
L 354.84792 149.258634 
L 355.139348 149.221909 
L 355.495536 148.899491 
L 356.013629 148.406421 
L 356.240295 148.471562 
L 356.628864 148.911909 
L 357.017434 149.226287 
L 357.308861 149.179448 
L 357.66505 148.854975 
L 358.118381 148.468585 
L 358.345047 148.537373 
L 358.733616 148.981453 
L 359.122186 149.30409 
L 359.413613 149.264003 
L 359.769802 148.945417 
L 360.223133 148.548529 
L 360.449799 148.607407 
L 360.838368 149.039332 
L 361.226938 149.355508 
L 361.518365 149.312227 
L 361.874554 148.991038 
L 362.360266 148.567533 
L 362.52217 148.447547 
L 362.716455 147.667317 
L 363.007882 145.348801 
L 363.461213 139.68156 
L 365.145014 113.043072 
L 365.857392 103.744113 
L 366.472627 98.541289 
L 368.350714 86.355115 
L 369.224995 80.782752 
L 370.261181 73.984318 
L 370.714512 72.624616 
L 371.232605 71.065642 
L 372.592598 66.223629 
L 373.272595 65.133756 
L 373.758307 63.604575 
L 374.341161 61.903886 
L 374.664969 61.525968 
L 375.344966 61.013145 
L 375.733536 60.139091 
L 376.445913 58.452181 
L 376.73734 58.267087 
L 377.449718 58.095796 
L 377.773526 57.550157 
L 378.583046 56.007439 
L 378.842092 55.960631 
L 379.55447 56.048898 
L 379.845897 55.674397 
L 380.720179 54.324926 
L 380.979225 54.378614 
L 381.626841 54.649233 
L 381.885888 54.419968 
L 382.40398 53.540103 
L 382.760169 53.184332 
L 383.019216 53.23286 
L 383.796355 53.636621 
L 384.087782 53.352623 
L 384.897302 52.368541 
L 385.156348 52.479554 
L 385.868726 52.961089 
L 386.127772 52.776956 
L 387.099196 51.819845 
L 387.390623 52.065132 
L 387.876335 52.470843 
L 388.135382 52.39266 
L 388.45919 52.011165 
L 388.977283 51.404972 
L 389.203948 51.413762 
L 389.495375 51.675485 
L 389.981087 52.108887 
L 390.240134 52.045604 
L 390.563942 51.682429 
L 391.082034 51.099901 
L 391.3087 51.116982 
L 391.600127 51.38902 
L 392.11822 51.845972 
L 392.377266 51.762975 
L 392.733455 51.341187 
L 393.186786 50.867764 
L 393.413452 50.889289 
L 393.704879 51.168699 
L 394.222972 51.649159 
L 394.482018 51.578865 
L 394.838207 51.173079 
L 395.291538 50.71195 
L 395.518204 50.736041 
L 395.809631 51.02039 
L 396.327724 51.522641 
L 396.58677 51.464108 
L 396.910578 51.11593 
L 397.39629 50.614837 
L 397.622956 50.636589 
L 397.914383 50.920081 
L 398.432476 51.434314 
L 398.691522 51.38294 
L 399.01533 51.039419 
L 399.533423 50.50747 
L 399.760089 50.542264 
L 400.083897 50.878512 
L 400.537228 51.321888 
L 400.796274 51.280138 
L 401.120082 50.939659 
L 401.670556 50.352659 
L 401.897221 50.389274 
L 402.221029 50.731304 
L 402.674361 51.178411 
L 402.933407 51.135719 
L 403.257215 50.787192 
L 403.840069 50.147038 
L 404.066735 50.194467 
L 404.390543 50.543359 
L 404.843874 50.950922 
L 405.10292 50.8789 
L 405.459109 50.463593 
L 405.91244 49.957059 
L 406.139106 49.962509 
L 406.430533 50.243847 
L 406.981007 50.831913 
L 407.240053 50.784897 
L 407.596242 50.405401 
L 408.049573 49.986243 
L 408.276239 50.039369 
L 408.600047 50.411648 
L 409.085759 50.946589 
L 409.344805 50.921191 
L 409.668613 50.605694 
L 410.154325 50.151259 
L 410.380991 50.201457 
L 410.704799 50.56733 
L 411.190511 51.098469 
L 411.449557 51.073483 
L 411.773365 50.756885 
L 412.259077 50.291796 
L 412.485743 50.334917 
L 412.77717 50.645979 
L 413.295263 51.213471 
L 413.554309 51.185976 
L 413.878117 50.865654 
L 414.363829 50.388822 
L 414.590495 50.425429 
L 414.881922 50.729236 
L 415.432395 51.300109 
L 415.691442 51.241875 
L 416.047631 50.853448 
L 416.468581 50.455912 
L 416.695247 50.487915 
L 416.986674 50.786575 
L 417.537147 51.353177 
L 417.796194 51.294995 
L 418.152382 50.906061 
L 418.573333 50.503538 
L 418.799998 50.531671 
L 419.091426 50.826063 
L 419.641899 51.389349 
L 419.900946 51.331388 
L 420.257134 50.942277 
L 420.710466 50.526077 
L 420.937131 50.579571 
L 421.260939 50.937582 
L 421.71427 51.399594 
L 421.973317 51.370505 
L 422.297125 51.047863 
L 422.782837 50.548184 
L 423.009502 50.569333 
L 423.30093 50.856062 
L 423.851403 51.410724 
L 424.110449 51.351036 
L 424.499019 51.038953 
L 424.5314 51.119165 
L 424.693304 52.080281 
L 424.984731 55.565121 
L 425.826632 70.023116 
L 426.862817 88.876848 
L 427.639957 102.524152 
L 428.028526 105.84382 
L 428.352334 106.915612 
L 428.935189 107.787428 
L 430.068516 109.231253 
L 430.975179 110.490495 
L 431.396129 111.702137 
L 432.6266 115.603416 
L 434.180878 119.416751 
L 435.314206 121.634362 
L 436.318011 123.127629 
L 437.418958 124.360033 
L 438.876094 125.633954 
L 441.013227 127.189035 
L 442.76179 128.211586 
L 444.316068 128.859072 
L 445.99987 129.311633 
L 448.655095 129.75755 
L 452.994122 130.260718 
L 457.009341 130.49533 
L 464.586448 130.657364 
L 471.030227 130.702939 
L 471.030227 130.702939 
" style="fill:none;stroke:#d62728;stroke-linecap:square;stroke-opacity:0.7;stroke-width:1.5;"/>
   </g>
   <g id="line2d_54">
    <path clip-path="url(#pa5aa1ed699)" d="M 315.634773 200.035774 
L 316.379531 203.858613 
L 316.670958 204.489974 
L 316.832862 204.473701 
L 317.027147 204.091357 
L 317.318574 202.852202 
L 317.933809 198.858456 
L 318.937614 192.89904 
L 320.200465 186.877694 
L 321.495697 181.673191 
L 322.726168 177.609746 
L 323.891876 174.487874 
L 324.992824 172.149692 
L 325.996628 170.509368 
L 326.935672 169.374216 
L 327.842334 168.612623 
L 328.716616 168.155571 
L 329.623278 167.931182 
L 330.562321 167.928088 
L 331.598507 168.154353 
L 332.731835 168.635108 
L 334.059447 169.451385 
L 335.710868 170.748951 
L 338.301332 173.109563 
L 342.867025 177.261593 
L 345.716535 179.547055 
L 348.080333 181.170108 
L 350.217466 182.373559 
L 352.257456 183.270691 
L 354.297447 183.924377 
L 356.369818 184.352271 
L 358.539331 184.569048 
L 360.935511 184.577859 
L 362.457408 184.442722 
L 362.586931 183.896657 
L 362.845978 181.346628 
L 363.299309 174.024743 
L 366.084058 125.110819 
L 366.925958 114.980771 
L 367.767859 107.579342 
L 368.965949 99.115812 
L 370.099277 92.688995 
L 371.297366 87.159088 
L 372.430694 82.909762 
L 373.499261 79.793549 
L 374.503065 77.449744 
L 375.377347 75.930115 
L 376.186867 74.931176 
L 376.964006 74.309179 
L 377.708764 73.987353 
L 378.453523 73.898462 
L 379.263043 74.032655 
L 380.137324 74.412613 
L 381.17351 75.125944 
L 382.436361 76.28788 
L 384.02302 78.072087 
L 385.998249 80.643034 
L 391.762031 88.425392 
L 393.219167 89.822324 
L 394.708684 90.945564 
L 396.295343 91.859821 
L 397.979145 92.570607 
L 399.857231 93.117052 
L 402.059125 93.517313 
L 404.746732 93.767187 
L 408.502904 93.872559 
L 417.083816 93.818002 
L 424.466638 93.822667 
L 424.596161 94.428368 
L 424.855208 97.209459 
L 425.599966 109.204352 
L 426.830437 126.344324 
L 427.542814 133.976556 
L 428.19043 138.587622 
L 429.80947 147.605526 
L 431.234225 154.410291 
L 433.274216 163.079584 
L 435.346587 170.952475 
L 436.771342 175.587668 
L 438.098955 179.180935 
L 439.297044 181.815676 
L 440.495134 183.914643 
L 441.725604 185.624114 
L 443.020836 187.046942 
L 444.348449 188.183878 
L 445.708442 189.063452 
L 447.068436 189.681442 
L 448.396049 190.045067 
L 449.756042 190.189689 
L 451.180797 190.118156 
L 452.735076 189.81409 
L 454.51602 189.229997 
L 456.685533 188.27086 
L 459.632186 186.703896 
L 469.054999 181.523687 
L 471.030227 180.739239 
L 471.030227 180.739239 
" style="fill:none;stroke:#9467bd;stroke-linecap:square;stroke-opacity:0.7;stroke-width:1.5;"/>
   </g>
   <g id="line2d_55">
    <path clip-path="url(#pa5aa1ed699)" d="M 315.634773 200.035774 
L 316.930005 207.174596 
L 317.383336 208.881496 
L 317.610001 209.08785 
L 317.771905 208.877635 
L 317.998571 208.075282 
L 318.35476 205.798962 
L 320.103323 192.947856 
L 321.787125 183.224216 
L 323.017595 177.503368 
L 324.248065 172.717301 
L 325.510916 168.709144 
L 326.709006 165.627127 
L 327.907096 163.132385 
L 329.137566 161.076223 
L 330.400417 159.398008 
L 331.695649 158.041074 
L 333.055643 156.935193 
L 334.512779 156.037487 
L 336.131819 155.30478 
L 338.009905 154.705167 
L 340.179418 154.248357 
L 342.640359 153.963743 
L 345.748916 153.841474 
L 350.865082 153.896595 
L 362.425027 154.067749 
L 362.52217 153.845134 
L 362.716455 152.507927 
L 363.072643 148.028482 
L 365.565965 111.600992 
L 366.505008 102.089606 
L 367.670717 92.51533 
L 368.544998 87.019048 
L 369.386899 83.159171 
L 370.682131 78.360612 
L 374.146877 66.752711 
L 375.344966 63.450736 
L 376.381152 61.205277 
L 377.352576 59.612254 
L 378.421142 58.288679 
L 379.813516 56.933948 
L 381.464937 55.635641 
L 383.343023 54.439956 
L 384.962063 53.663345 
L 386.45158 53.19391 
L 388.103001 52.911625 
L 390.07823 52.808265 
L 392.571551 52.911192 
L 395.615346 53.265342 
L 405.782917 54.64767 
L 409.895279 54.880696 
L 414.914303 54.92817 
L 424.499019 54.877646 
L 424.660923 55.93478 
L 424.95235 59.715246 
L 425.794251 75.15984 
L 427.963765 112.303954 
L 428.579 118.320211 
L 429.647566 125.907465 
L 430.975179 134.082298 
L 432.335172 141.019153 
L 434.051355 148.566256 
L 437.451339 162.437981 
L 438.649428 166.454571 
L 439.717995 169.289095 
L 440.75418 171.417852 
L 441.757985 172.996699 
L 442.697028 174.085176 
L 443.60369 174.809611 
L 444.445591 175.210232 
L 445.287492 175.36669 
L 446.129393 175.289761 
L 446.971294 174.987965 
L 447.910337 174.405249 
L 448.978903 173.465657 
L 450.274135 172.008982 
L 451.828413 169.913427 
L 453.738881 166.943335 
L 457.624576 160.798603 
L 459.049332 159.059369 
L 460.409325 157.741198 
L 461.83408 156.669345 
L 463.355978 155.804521 
L 465.039779 155.10446 
L 466.982627 154.540631 
L 469.184522 154.132413 
L 471.030227 153.938444 
L 471.030227 153.938444 
" style="fill:none;stroke:#bcbd22;stroke-linecap:square;stroke-opacity:0.7;stroke-width:1.5;"/>
   </g>
   <g id="line2d_56">
    <path clip-path="url(#pa5aa1ed699)" d="M 315.634773 200.035774 
L 316.994766 207.536414 
L 318.225237 213.142351 
L 318.516664 213.719381 
L 318.678568 213.681923 
L 318.872853 213.252738 
L 319.16428 211.875767 
L 319.714753 207.77409 
L 321.430936 194.819104 
L 322.758549 186.357592 
L 324.0214 179.73914 
L 325.154728 174.859216 
L 326.190913 171.40629 
L 327.615668 167.329736 
L 328.943281 164.280053 
L 330.173751 161.981927 
L 331.468983 160.017495 
L 332.764215 158.454129 
L 334.059447 157.226467 
L 335.451822 156.212746 
L 336.973719 155.38824 
L 338.689902 154.716331 
L 340.729892 154.164141 
L 343.158452 153.745431 
L 346.267009 153.447647 
L 350.152704 153.308333 
L 356.46696 153.339027 
L 362.457408 153.374638 
L 362.586931 152.85689 
L 362.845978 150.479281 
L 363.33169 143.234616 
L 364.691683 122.358877 
L 365.857392 108.089614 
L 366.958339 97.822076 
L 367.994525 89.945231 
L 368.804045 85.424928 
L 369.80785 81.211839 
L 371.45927 75.346448 
L 374.244019 66.139489 
L 375.409728 63.085356 
L 376.478294 60.876369 
L 377.482099 59.300428 
L 378.615427 57.941994 
L 380.104944 56.520692 
L 381.821126 55.187334 
L 383.634451 54.050302 
L 385.188729 53.327355 
L 386.710627 52.865937 
L 388.45919 52.578806 
L 390.693465 52.451954 
L 393.542975 52.515729 
L 397.040101 52.831414 
L 404.973397 53.610688 
L 409.668613 53.810706 
L 416.274296 53.841867 
L 424.466638 53.820183 
L 424.596161 54.430842 
L 424.855208 57.263662 
L 425.373301 66.377534 
L 427.510433 105.317858 
L 428.158049 113.807815 
L 428.805665 119.416373 
L 430.295182 129.488167 
L 431.558033 136.628224 
L 433.079931 143.886005 
L 435.994203 156.269457 
L 437.807527 163.314545 
L 438.908475 166.736908 
L 439.912279 169.16265 
L 440.883703 170.956918 
L 441.822747 172.254002 
L 442.729409 173.136184 
L 443.57131 173.660569 
L 444.41321 173.928608 
L 445.22273 173.961371 
L 446.064631 173.768274 
L 446.938913 173.335144 
L 447.910337 172.601394 
L 449.043665 171.4512 
L 450.403658 169.729376 
L 452.022698 167.294771 
L 456.782676 159.838311 
L 458.17505 158.257295 
L 459.535044 157.040823 
L 460.959799 156.060114 
L 462.514077 155.259958 
L 464.295021 154.599043 
L 466.367392 154.073197 
L 468.860714 153.676706 
L 471.030227 153.469346 
L 471.030227 153.469346 
" style="fill:none;stroke:#2ca02c;stroke-linecap:square;stroke-opacity:0.7;stroke-width:1.5;"/>
   </g>
   <g id="line2d_57">
    <path clip-path="url(#pa5aa1ed699)" d="M 315.634773 200.035774 
L 316.994766 207.536528 
L 318.225237 213.140873 
L 319.358565 217.32536 
L 320.362369 220.962002 
L 320.912843 222.800877 
L 321.139509 222.983045 
L 321.301413 222.801875 
L 321.528078 222.100585 
L 321.851886 220.228583 
L 322.467121 214.944226 
L 323.859496 203.338128 
L 325.802344 188.895724 
L 326.903291 182.356283 
L 327.971857 177.352453 
L 329.202328 172.613299 
L 330.303275 169.222265 
L 331.533745 166.147044 
L 332.861358 163.413958 
L 334.15659 161.237789 
L 335.419441 159.541682 
L 336.747054 158.132629 
L 338.139428 156.975736 
L 339.661326 156.003527 
L 341.312746 155.211429 
L 343.158452 154.576963 
L 345.327965 154.075153 
L 348.145095 153.665093 
L 351.512698 153.402204 
L 355.786964 153.308373 
L 362.489789 153.254305 
L 362.651693 152.363178 
L 362.94312 149.198522 
L 363.590736 138.867104 
L 364.724064 121.886162 
L 365.857392 108.060002 
L 366.958339 97.796205 
L 367.994525 89.922762 
L 368.804045 85.405213 
L 369.80785 81.195362 
L 371.45927 75.334547 
L 374.244019 66.133037 
L 375.409728 63.080037 
L 376.478294 60.871855 
L 377.482099 59.296547 
L 378.615427 57.938724 
L 380.104944 56.518113 
L 381.821126 55.185471 
L 383.634451 54.049092 
L 385.188729 53.326596 
L 386.710627 52.865516 
L 388.45919 52.578674 
L 390.693465 52.452076 
L 393.542975 52.516123 
L 397.040101 52.832111 
L 404.941016 53.60899 
L 409.636232 53.810139 
L 416.241915 53.841998 
L 424.466638 53.820108 
L 424.596161 54.430772 
L 424.855208 57.263612 
L 425.373301 66.377531 
L 427.510433 105.317881 
L 428.158049 113.807801 
L 428.805665 119.416431 
L 430.295182 129.488457 
L 431.558033 136.62861 
L 433.079931 143.886488 
L 435.994203 156.270248 
L 437.807527 163.315504 
L 438.908475 166.737906 
L 439.912279 169.163669 
L 440.883703 170.957957 
L 441.822747 172.255089 
L 442.729409 173.137341 
L 443.57131 173.661802 
L 444.41321 173.929919 
L 445.22273 173.962768 
L 446.064631 173.769761 
L 446.938913 173.336709 
L 447.910337 172.603046 
L 449.043665 171.452977 
L 450.403658 169.731338 
L 452.022698 167.297013 
L 456.815056 159.799173 
L 458.207431 158.226073 
L 459.567424 157.016418 
L 460.99218 156.04151 
L 462.546458 155.246169 
L 464.327402 154.589229 
L 466.399773 154.066599 
L 468.925475 153.668785 
L 471.030227 153.469082 
L 471.030227 153.469082 
" style="fill:none;stroke:#17becf;stroke-linecap:square;stroke-opacity:0.7;stroke-width:1.5;"/>
   </g>
   <g id="line2d_58">
    <path clip-path="url(#pa5aa1ed699)" d="M 315.634773 199.840359 
L 362.392647 199.840359 
L 362.52217 84.984193 
L 424.401877 84.984193 
L 424.5314 199.840359 
L 471.030227 199.840359 
L 471.030227 199.840359 
" style="fill:none;stroke:#000000;stroke-dasharray:5.55,2.4;stroke-dashoffset:0;stroke-opacity:0.595;stroke-width:1.5;"/>
   </g>
   <g id="patch_8">
    <path d="M 307.865 231.64 
L 307.865 41.28 
" style="fill:none;stroke:#000000;stroke-linecap:square;stroke-linejoin:miter;stroke-width:0.8;"/>
   </g>
   <g id="patch_9">
    <path d="M 478.8 231.64 
L 478.8 41.28 
" style="fill:none;stroke:#000000;stroke-linecap:square;stroke-linejoin:miter;stroke-width:0.8;"/>
   </g>
   <g id="patch_10">
    <path d="M 307.865 231.64 
L 478.8 231.64 
" style="fill:none;stroke:#000000;stroke-linecap:square;stroke-linejoin:miter;stroke-width:0.8;"/>
   </g>
   <g id="patch_11">
    <path d="M 307.865 41.28 
L 478.8 41.28 
" style="fill:none;stroke:#000000;stroke-linecap:square;stroke-linejoin:miter;stroke-width:0.8;"/>
   </g>
   <g id="text_28">
    <!-- Plano z -->
    <g transform="translate(371.84125 35.28)scale(0.12 -0.12)">
     <use xlink:href="#DejaVuSans-50"/>
     <use x="60.302734" xlink:href="#DejaVuSans-6c"/>
     <use x="88.085938" xlink:href="#DejaVuSans-61"/>
     <use x="149.365234" xlink:href="#DejaVuSans-6e"/>
     <use x="212.744141" xlink:href="#DejaVuSans-6f"/>
     <use x="273.925781" xlink:href="#DejaVuSans-20"/>
     <use x="305.712891" xlink:href="#DejaVuSans-7a"/>
    </g>
   </g>
  </g>
  <g id="legend_1">
   <g id="patch_12">
    <path d="M 464.310938 197.56875 
L 569 197.56875 
Q 571 197.56875 571 195.56875 
L 571 92.43125 
Q 571 90.43125 569 90.43125 
L 464.310938 90.43125 
Q 462.310938 90.43125 462.310938 92.43125 
L 462.310938 195.56875 
Q 462.310938 197.56875 464.310938 197.56875 
z
" style="fill:#ffffff;opacity:0.8;stroke:#cccccc;stroke-linejoin:miter;"/>
   </g>
   <g id="line2d_59">
    <path d="M 466.310938 98.529688 
L 486.310938 98.529688 
" style="fill:none;stroke:#1f77b4;stroke-linecap:square;stroke-opacity:0.7;stroke-width:1.5;"/>
   </g>
   <g id="line2d_60"/>
   <g id="text_29">
    <!-- DSLPID -->
    <g transform="translate(494.310938 102.029688)scale(0.1 -0.1)">
     <defs>
      <path d="M 1259 4147 
L 1259 519 
L 2022 519 
Q 2988 519 3436 956 
Q 3884 1394 3884 2338 
Q 3884 3275 3436 3711 
Q 2988 4147 2022 4147 
L 1259 4147 
z
M 628 4666 
L 1925 4666 
Q 3281 4666 3915 4102 
Q 4550 3538 4550 2338 
Q 4550 1131 3912 565 
Q 3275 0 1925 0 
L 628 0 
L 628 4666 
z
" id="DejaVuSans-44" transform="scale(0.015625)"/>
      <path d="M 3425 4513 
L 3425 3897 
Q 3066 4069 2747 4153 
Q 2428 4238 2131 4238 
Q 1616 4238 1336 4038 
Q 1056 3838 1056 3469 
Q 1056 3159 1242 3001 
Q 1428 2844 1947 2747 
L 2328 2669 
Q 3034 2534 3370 2195 
Q 3706 1856 3706 1288 
Q 3706 609 3251 259 
Q 2797 -91 1919 -91 
Q 1588 -91 1214 -16 
Q 841 59 441 206 
L 441 856 
Q 825 641 1194 531 
Q 1563 422 1919 422 
Q 2459 422 2753 634 
Q 3047 847 3047 1241 
Q 3047 1584 2836 1778 
Q 2625 1972 2144 2069 
L 1759 2144 
Q 1053 2284 737 2584 
Q 422 2884 422 3419 
Q 422 4038 858 4394 
Q 1294 4750 2059 4750 
Q 2388 4750 2728 4690 
Q 3069 4631 3425 4513 
z
" id="DejaVuSans-53" transform="scale(0.015625)"/>
      <path d="M 628 4666 
L 1259 4666 
L 1259 531 
L 3531 531 
L 3531 0 
L 628 0 
L 628 4666 
z
" id="DejaVuSans-4c" transform="scale(0.015625)"/>
      <path d="M 628 4666 
L 1259 4666 
L 1259 0 
L 628 0 
L 628 4666 
z
" id="DejaVuSans-49" transform="scale(0.015625)"/>
     </defs>
     <use xlink:href="#DejaVuSans-44"/>
     <use x="77.001953" xlink:href="#DejaVuSans-53"/>
     <use x="140.478516" xlink:href="#DejaVuSans-4c"/>
     <use x="196.191406" xlink:href="#DejaVuSans-50"/>
     <use x="256.494141" xlink:href="#DejaVuSans-49"/>
     <use x="285.986328" xlink:href="#DejaVuSans-44"/>
    </g>
   </g>
   <g id="line2d_61">
    <path d="M 466.310938 113.207813 
L 486.310938 113.207813 
" style="fill:none;stroke:#d62728;stroke-linecap:square;stroke-opacity:0.7;stroke-width:1.5;"/>
   </g>
   <g id="line2d_62"/>
   <g id="text_30">
    <!-- LSTMCNN_8 -->
    <g transform="translate(494.310938 116.707813)scale(0.1 -0.1)">
     <defs>
      <path d="M 628 4666 
L 1569 4666 
L 2759 1491 
L 3956 4666 
L 4897 4666 
L 4897 0 
L 4281 0 
L 4281 4097 
L 3078 897 
L 2444 897 
L 1241 4097 
L 1241 0 
L 628 0 
L 628 4666 
z
" id="DejaVuSans-4d" transform="scale(0.015625)"/>
      <path d="M 4122 4306 
L 4122 3641 
Q 3803 3938 3442 4084 
Q 3081 4231 2675 4231 
Q 1875 4231 1450 3742 
Q 1025 3253 1025 2328 
Q 1025 1406 1450 917 
Q 1875 428 2675 428 
Q 3081 428 3442 575 
Q 3803 722 4122 1019 
L 4122 359 
Q 3791 134 3420 21 
Q 3050 -91 2638 -91 
Q 1578 -91 968 557 
Q 359 1206 359 2328 
Q 359 3453 968 4101 
Q 1578 4750 2638 4750 
Q 3056 4750 3426 4639 
Q 3797 4528 4122 4306 
z
" id="DejaVuSans-43" transform="scale(0.015625)"/>
      <path d="M 628 4666 
L 1478 4666 
L 3547 763 
L 3547 4666 
L 4159 4666 
L 4159 0 
L 3309 0 
L 1241 3903 
L 1241 0 
L 628 0 
L 628 4666 
z
" id="DejaVuSans-4e" transform="scale(0.015625)"/>
      <path d="M 3263 -1063 
L 3263 -1509 
L -63 -1509 
L -63 -1063 
L 3263 -1063 
z
" id="DejaVuSans-5f" transform="scale(0.015625)"/>
     </defs>
     <use xlink:href="#DejaVuSans-4c"/>
     <use x="55.712891" xlink:href="#DejaVuSans-53"/>
     <use x="119.189453" xlink:href="#DejaVuSans-54"/>
     <use x="180.273438" xlink:href="#DejaVuSans-4d"/>
     <use x="266.552734" xlink:href="#DejaVuSans-43"/>
     <use x="336.376953" xlink:href="#DejaVuSans-4e"/>
     <use x="411.181641" xlink:href="#DejaVuSans-4e"/>
     <use x="485.986328" xlink:href="#DejaVuSans-5f"/>
     <use x="535.986328" xlink:href="#DejaVuSans-38"/>
    </g>
   </g>
   <g id="line2d_63">
    <path d="M 466.310938 128.164063 
L 486.310938 128.164063 
" style="fill:none;stroke:#9467bd;stroke-linecap:square;stroke-opacity:0.7;stroke-width:1.5;"/>
   </g>
   <g id="line2d_64"/>
   <g id="text_31">
    <!-- LSTMCNN_16 -->
    <g transform="translate(494.310938 131.664063)scale(0.1 -0.1)">
     <use xlink:href="#DejaVuSans-4c"/>
     <use x="55.712891" xlink:href="#DejaVuSans-53"/>
     <use x="119.189453" xlink:href="#DejaVuSans-54"/>
     <use x="180.273438" xlink:href="#DejaVuSans-4d"/>
     <use x="266.552734" xlink:href="#DejaVuSans-43"/>
     <use x="336.376953" xlink:href="#DejaVuSans-4e"/>
     <use x="411.181641" xlink:href="#DejaVuSans-4e"/>
     <use x="485.986328" xlink:href="#DejaVuSans-5f"/>
     <use x="535.986328" xlink:href="#DejaVuSans-31"/>
     <use x="599.609375" xlink:href="#DejaVuSans-36"/>
    </g>
   </g>
   <g id="line2d_65">
    <path d="M 466.310938 143.120313 
L 486.310938 143.120313 
" style="fill:none;stroke:#bcbd22;stroke-linecap:square;stroke-opacity:0.7;stroke-width:1.5;"/>
   </g>
   <g id="line2d_66"/>
   <g id="text_32">
    <!-- LSTMCNN_32 -->
    <g transform="translate(494.310938 146.620313)scale(0.1 -0.1)">
     <defs>
      <path d="M 2597 2516 
Q 3050 2419 3304 2112 
Q 3559 1806 3559 1356 
Q 3559 666 3084 287 
Q 2609 -91 1734 -91 
Q 1441 -91 1130 -33 
Q 819 25 488 141 
L 488 750 
Q 750 597 1062 519 
Q 1375 441 1716 441 
Q 2309 441 2620 675 
Q 2931 909 2931 1356 
Q 2931 1769 2642 2001 
Q 2353 2234 1838 2234 
L 1294 2234 
L 1294 2753 
L 1863 2753 
Q 2328 2753 2575 2939 
Q 2822 3125 2822 3475 
Q 2822 3834 2567 4026 
Q 2313 4219 1838 4219 
Q 1578 4219 1281 4162 
Q 984 4106 628 3988 
L 628 4550 
Q 988 4650 1302 4700 
Q 1616 4750 1894 4750 
Q 2613 4750 3031 4423 
Q 3450 4097 3450 3541 
Q 3450 3153 3228 2886 
Q 3006 2619 2597 2516 
z
" id="DejaVuSans-33" transform="scale(0.015625)"/>
     </defs>
     <use xlink:href="#DejaVuSans-4c"/>
     <use x="55.712891" xlink:href="#DejaVuSans-53"/>
     <use x="119.189453" xlink:href="#DejaVuSans-54"/>
     <use x="180.273438" xlink:href="#DejaVuSans-4d"/>
     <use x="266.552734" xlink:href="#DejaVuSans-43"/>
     <use x="336.376953" xlink:href="#DejaVuSans-4e"/>
     <use x="411.181641" xlink:href="#DejaVuSans-4e"/>
     <use x="485.986328" xlink:href="#DejaVuSans-5f"/>
     <use x="535.986328" xlink:href="#DejaVuSans-33"/>
     <use x="599.609375" xlink:href="#DejaVuSans-32"/>
    </g>
   </g>
   <g id="line2d_67">
    <path d="M 466.310938 158.076563 
L 486.310938 158.076563 
" style="fill:none;stroke:#2ca02c;stroke-linecap:square;stroke-opacity:0.7;stroke-width:1.5;"/>
   </g>
   <g id="line2d_68"/>
   <g id="text_33">
    <!-- LSTMCNN_64 -->
    <g transform="translate(494.310938 161.576563)scale(0.1 -0.1)">
     <use xlink:href="#DejaVuSans-4c"/>
     <use x="55.712891" xlink:href="#DejaVuSans-53"/>
     <use x="119.189453" xlink:href="#DejaVuSans-54"/>
     <use x="180.273438" xlink:href="#DejaVuSans-4d"/>
     <use x="266.552734" xlink:href="#DejaVuSans-43"/>
     <use x="336.376953" xlink:href="#DejaVuSans-4e"/>
     <use x="411.181641" xlink:href="#DejaVuSans-4e"/>
     <use x="485.986328" xlink:href="#DejaVuSans-5f"/>
     <use x="535.986328" xlink:href="#DejaVuSans-36"/>
     <use x="599.609375" xlink:href="#DejaVuSans-34"/>
    </g>
   </g>
   <g id="line2d_69">
    <path d="M 466.310938 173.032813 
L 486.310938 173.032813 
" style="fill:none;stroke:#17becf;stroke-linecap:square;stroke-opacity:0.7;stroke-width:1.5;"/>
   </g>
   <g id="line2d_70"/>
   <g id="text_34">
    <!-- LSTMCNN_128 -->
    <g transform="translate(494.310938 176.532813)scale(0.1 -0.1)">
     <use xlink:href="#DejaVuSans-4c"/>
     <use x="55.712891" xlink:href="#DejaVuSans-53"/>
     <use x="119.189453" xlink:href="#DejaVuSans-54"/>
     <use x="180.273438" xlink:href="#DejaVuSans-4d"/>
     <use x="266.552734" xlink:href="#DejaVuSans-43"/>
     <use x="336.376953" xlink:href="#DejaVuSans-4e"/>
     <use x="411.181641" xlink:href="#DejaVuSans-4e"/>
     <use x="485.986328" xlink:href="#DejaVuSans-5f"/>
     <use x="535.986328" xlink:href="#DejaVuSans-31"/>
     <use x="599.609375" xlink:href="#DejaVuSans-32"/>
     <use x="663.232422" xlink:href="#DejaVuSans-38"/>
    </g>
   </g>
   <g id="line2d_71">
    <path d="M 466.310938 187.989063 
L 486.310938 187.989063 
" style="fill:none;stroke:#000000;stroke-dasharray:5.55,2.4;stroke-dashoffset:0;stroke-opacity:0.595;stroke-width:1.5;"/>
   </g>
   <g id="line2d_72"/>
   <g id="text_35">
    <!-- Referencia -->
    <g transform="translate(494.310938 191.489063)scale(0.1 -0.1)">
     <defs>
      <path d="M 2841 2188 
Q 3044 2119 3236 1894 
Q 3428 1669 3622 1275 
L 4263 0 
L 3584 0 
L 2988 1197 
Q 2756 1666 2539 1819 
Q 2322 1972 1947 1972 
L 1259 1972 
L 1259 0 
L 628 0 
L 628 4666 
L 2053 4666 
Q 2853 4666 3247 4331 
Q 3641 3997 3641 3322 
Q 3641 2881 3436 2590 
Q 3231 2300 2841 2188 
z
M 1259 4147 
L 1259 2491 
L 2053 2491 
Q 2509 2491 2742 2702 
Q 2975 2913 2975 3322 
Q 2975 3731 2742 3939 
Q 2509 4147 2053 4147 
L 1259 4147 
z
" id="DejaVuSans-52" transform="scale(0.015625)"/>
      <path d="M 2375 4863 
L 2375 4384 
L 1825 4384 
Q 1516 4384 1395 4259 
Q 1275 4134 1275 3809 
L 1275 3500 
L 2222 3500 
L 2222 3053 
L 1275 3053 
L 1275 0 
L 697 0 
L 697 3053 
L 147 3053 
L 147 3500 
L 697 3500 
L 697 3744 
Q 697 4328 969 4595 
Q 1241 4863 1831 4863 
L 2375 4863 
z
" id="DejaVuSans-66" transform="scale(0.015625)"/>
      <path d="M 2631 2963 
Q 2534 3019 2420 3045 
Q 2306 3072 2169 3072 
Q 1681 3072 1420 2755 
Q 1159 2438 1159 1844 
L 1159 0 
L 581 0 
L 581 3500 
L 1159 3500 
L 1159 2956 
Q 1341 3275 1631 3429 
Q 1922 3584 2338 3584 
Q 2397 3584 2469 3576 
Q 2541 3569 2628 3553 
L 2631 2963 
z
" id="DejaVuSans-72" transform="scale(0.015625)"/>
      <path d="M 3122 3366 
L 3122 2828 
Q 2878 2963 2633 3030 
Q 2388 3097 2138 3097 
Q 1578 3097 1268 2742 
Q 959 2388 959 1747 
Q 959 1106 1268 751 
Q 1578 397 2138 397 
Q 2388 397 2633 464 
Q 2878 531 3122 666 
L 3122 134 
Q 2881 22 2623 -34 
Q 2366 -91 2075 -91 
Q 1284 -91 818 406 
Q 353 903 353 1747 
Q 353 2603 823 3093 
Q 1294 3584 2113 3584 
Q 2378 3584 2631 3529 
Q 2884 3475 3122 3366 
z
" id="DejaVuSans-63" transform="scale(0.015625)"/>
     </defs>
     <use xlink:href="#DejaVuSans-52"/>
     <use x="64.982422" xlink:href="#DejaVuSans-65"/>
     <use x="126.505859" xlink:href="#DejaVuSans-66"/>
     <use x="161.710938" xlink:href="#DejaVuSans-65"/>
     <use x="223.234375" xlink:href="#DejaVuSans-72"/>
     <use x="262.097656" xlink:href="#DejaVuSans-65"/>
     <use x="323.621094" xlink:href="#DejaVuSans-6e"/>
     <use x="387" xlink:href="#DejaVuSans-63"/>
     <use x="441.980469" xlink:href="#DejaVuSans-69"/>
     <use x="469.763672" xlink:href="#DejaVuSans-61"/>
    </g>
   </g>
  </g>
 </g>
 <defs>
  <clipPath id="pe021b0708c">
   <rect height="190.36" width="170.935" x="82.82" y="41.28"/>
  </clipPath>
  <clipPath id="pa5aa1ed699">
   <rect height="190.36" width="170.935" x="307.865" y="41.28"/>
  </clipPath>
 </defs>
</svg>
