<?xml version="1.0" encoding="utf-8" standalone="no"?>
<!DOCTYPE svg PUBLIC "-//W3C//DTD SVG 1.1//EN"
  "http://www.w3.org/Graphics/SVG/1.1/DTD/svg11.dtd">
<svg height="288pt" version="1.1" viewBox="0 0 576 288" width="576pt" xmlns="http://www.w3.org/2000/svg" xmlns:xlink="http://www.w3.org/1999/xlink">
 <metadata>
  <rdf:RDF xmlns:cc="http://creativecommons.org/ns#" xmlns:dc="http://purl.org/dc/elements/1.1/" xmlns:rdf="http://www.w3.org/1999/02/22-rdf-syntax-ns#">
   <cc:Work>
    <dc:type rdf:resource="http://purl.org/dc/dcmitype/StillImage"/>
    <dc:date>2022-02-26T04:37:17.433067</dc:date>
    <dc:format>image/svg+xml</dc:format>
    <dc:creator>
     <cc:Agent>
      <dc:title>Matplotlib v3.4.3, https://matplotlib.org/</dc:title>
     </cc:Agent>
    </dc:creator>
   </cc:Work>
  </rdf:RDF>
 </metadata>
 <defs>
  <style type="text/css">*{stroke-linecap:butt;stroke-linejoin:round;}</style>
 </defs>
 <g id="figure_1">
  <g id="patch_1">
   <path d="M 0 288 
L 576 288 
L 576 0 
L 0 0 
z
" style="fill:#ffffff;"/>
  </g>
  <g id="axes_1">
   <g id="patch_2">
    <path d="M 75.44 231.64 
L 478.8 231.64 
L 478.8 50.4 
L 75.44 50.4 
z
" style="fill:#ffffff;"/>
   </g>
   <g id="matplotlib.axis_1">
    <g id="xtick_1">
     <g id="line2d_1">
      <path clip-path="url(#p4342593b02)" d="M 93.774545 231.64 
L 93.774545 50.4 
" style="fill:none;stroke:#b0b0b0;stroke-linecap:square;stroke-width:0.8;"/>
     </g>
     <g id="line2d_2">
      <defs>
       <path d="M 0 0 
L 0 3.5 
" id="m4ef923e08a" style="stroke:#000000;stroke-width:0.8;"/>
      </defs>
      <g>
       <use style="stroke:#000000;stroke-width:0.8;" x="93.774545" xlink:href="#m4ef923e08a" y="231.64"/>
      </g>
     </g>
     <g id="text_1">
      <!-- 0.0 -->
      <g transform="translate(85.822983 246.238438)scale(0.1 -0.1)">
       <defs>
        <path d="M 2034 4250 
Q 1547 4250 1301 3770 
Q 1056 3291 1056 2328 
Q 1056 1369 1301 889 
Q 1547 409 2034 409 
Q 2525 409 2770 889 
Q 3016 1369 3016 2328 
Q 3016 3291 2770 3770 
Q 2525 4250 2034 4250 
z
M 2034 4750 
Q 2819 4750 3233 4129 
Q 3647 3509 3647 2328 
Q 3647 1150 3233 529 
Q 2819 -91 2034 -91 
Q 1250 -91 836 529 
Q 422 1150 422 2328 
Q 422 3509 836 4129 
Q 1250 4750 2034 4750 
z
" id="DejaVuSans-30" transform="scale(0.015625)"/>
        <path d="M 684 794 
L 1344 794 
L 1344 0 
L 684 0 
L 684 794 
z
" id="DejaVuSans-2e" transform="scale(0.015625)"/>
       </defs>
       <use xlink:href="#DejaVuSans-30"/>
       <use x="63.623047" xlink:href="#DejaVuSans-2e"/>
       <use x="95.410156" xlink:href="#DejaVuSans-30"/>
      </g>
     </g>
    </g>
    <g id="xtick_2">
     <g id="line2d_3">
      <path clip-path="url(#p4342593b02)" d="M 139.62046 231.64 
L 139.62046 50.4 
" style="fill:none;stroke:#b0b0b0;stroke-linecap:square;stroke-width:0.8;"/>
     </g>
     <g id="line2d_4">
      <g>
       <use style="stroke:#000000;stroke-width:0.8;" x="139.62046" xlink:href="#m4ef923e08a" y="231.64"/>
      </g>
     </g>
     <g id="text_2">
      <!-- 2.5 -->
      <g transform="translate(131.668898 246.238438)scale(0.1 -0.1)">
       <defs>
        <path d="M 1228 531 
L 3431 531 
L 3431 0 
L 469 0 
L 469 531 
Q 828 903 1448 1529 
Q 2069 2156 2228 2338 
Q 2531 2678 2651 2914 
Q 2772 3150 2772 3378 
Q 2772 3750 2511 3984 
Q 2250 4219 1831 4219 
Q 1534 4219 1204 4116 
Q 875 4013 500 3803 
L 500 4441 
Q 881 4594 1212 4672 
Q 1544 4750 1819 4750 
Q 2544 4750 2975 4387 
Q 3406 4025 3406 3419 
Q 3406 3131 3298 2873 
Q 3191 2616 2906 2266 
Q 2828 2175 2409 1742 
Q 1991 1309 1228 531 
z
" id="DejaVuSans-32" transform="scale(0.015625)"/>
        <path d="M 691 4666 
L 3169 4666 
L 3169 4134 
L 1269 4134 
L 1269 2991 
Q 1406 3038 1543 3061 
Q 1681 3084 1819 3084 
Q 2600 3084 3056 2656 
Q 3513 2228 3513 1497 
Q 3513 744 3044 326 
Q 2575 -91 1722 -91 
Q 1428 -91 1123 -41 
Q 819 9 494 109 
L 494 744 
Q 775 591 1075 516 
Q 1375 441 1709 441 
Q 2250 441 2565 725 
Q 2881 1009 2881 1497 
Q 2881 1984 2565 2268 
Q 2250 2553 1709 2553 
Q 1456 2553 1204 2497 
Q 953 2441 691 2322 
L 691 4666 
z
" id="DejaVuSans-35" transform="scale(0.015625)"/>
       </defs>
       <use xlink:href="#DejaVuSans-32"/>
       <use x="63.623047" xlink:href="#DejaVuSans-2e"/>
       <use x="95.410156" xlink:href="#DejaVuSans-35"/>
      </g>
     </g>
    </g>
    <g id="xtick_3">
     <g id="line2d_5">
      <path clip-path="url(#p4342593b02)" d="M 185.466375 231.64 
L 185.466375 50.4 
" style="fill:none;stroke:#b0b0b0;stroke-linecap:square;stroke-width:0.8;"/>
     </g>
     <g id="line2d_6">
      <g>
       <use style="stroke:#000000;stroke-width:0.8;" x="185.466375" xlink:href="#m4ef923e08a" y="231.64"/>
      </g>
     </g>
     <g id="text_3">
      <!-- 5.0 -->
      <g transform="translate(177.514813 246.238438)scale(0.1 -0.1)">
       <use xlink:href="#DejaVuSans-35"/>
       <use x="63.623047" xlink:href="#DejaVuSans-2e"/>
       <use x="95.410156" xlink:href="#DejaVuSans-30"/>
      </g>
     </g>
    </g>
    <g id="xtick_4">
     <g id="line2d_7">
      <path clip-path="url(#p4342593b02)" d="M 231.31229 231.64 
L 231.31229 50.4 
" style="fill:none;stroke:#b0b0b0;stroke-linecap:square;stroke-width:0.8;"/>
     </g>
     <g id="line2d_8">
      <g>
       <use style="stroke:#000000;stroke-width:0.8;" x="231.31229" xlink:href="#m4ef923e08a" y="231.64"/>
      </g>
     </g>
     <g id="text_4">
      <!-- 7.5 -->
      <g transform="translate(223.360728 246.238438)scale(0.1 -0.1)">
       <defs>
        <path d="M 525 4666 
L 3525 4666 
L 3525 4397 
L 1831 0 
L 1172 0 
L 2766 4134 
L 525 4134 
L 525 4666 
z
" id="DejaVuSans-37" transform="scale(0.015625)"/>
       </defs>
       <use xlink:href="#DejaVuSans-37"/>
       <use x="63.623047" xlink:href="#DejaVuSans-2e"/>
       <use x="95.410156" xlink:href="#DejaVuSans-35"/>
      </g>
     </g>
    </g>
    <g id="xtick_5">
     <g id="line2d_9">
      <path clip-path="url(#p4342593b02)" d="M 277.158205 231.64 
L 277.158205 50.4 
" style="fill:none;stroke:#b0b0b0;stroke-linecap:square;stroke-width:0.8;"/>
     </g>
     <g id="line2d_10">
      <g>
       <use style="stroke:#000000;stroke-width:0.8;" x="277.158205" xlink:href="#m4ef923e08a" y="231.64"/>
      </g>
     </g>
     <g id="text_5">
      <!-- 10.0 -->
      <g transform="translate(266.025392 246.238438)scale(0.1 -0.1)">
       <defs>
        <path d="M 794 531 
L 1825 531 
L 1825 4091 
L 703 3866 
L 703 4441 
L 1819 4666 
L 2450 4666 
L 2450 531 
L 3481 531 
L 3481 0 
L 794 0 
L 794 531 
z
" id="DejaVuSans-31" transform="scale(0.015625)"/>
       </defs>
       <use xlink:href="#DejaVuSans-31"/>
       <use x="63.623047" xlink:href="#DejaVuSans-30"/>
       <use x="127.246094" xlink:href="#DejaVuSans-2e"/>
       <use x="159.033203" xlink:href="#DejaVuSans-30"/>
      </g>
     </g>
    </g>
    <g id="xtick_6">
     <g id="line2d_11">
      <path clip-path="url(#p4342593b02)" d="M 323.00412 231.64 
L 323.00412 50.4 
" style="fill:none;stroke:#b0b0b0;stroke-linecap:square;stroke-width:0.8;"/>
     </g>
     <g id="line2d_12">
      <g>
       <use style="stroke:#000000;stroke-width:0.8;" x="323.00412" xlink:href="#m4ef923e08a" y="231.64"/>
      </g>
     </g>
     <g id="text_6">
      <!-- 12.5 -->
      <g transform="translate(311.871307 246.238438)scale(0.1 -0.1)">
       <use xlink:href="#DejaVuSans-31"/>
       <use x="63.623047" xlink:href="#DejaVuSans-32"/>
       <use x="127.246094" xlink:href="#DejaVuSans-2e"/>
       <use x="159.033203" xlink:href="#DejaVuSans-35"/>
      </g>
     </g>
    </g>
    <g id="xtick_7">
     <g id="line2d_13">
      <path clip-path="url(#p4342593b02)" d="M 368.850035 231.64 
L 368.850035 50.4 
" style="fill:none;stroke:#b0b0b0;stroke-linecap:square;stroke-width:0.8;"/>
     </g>
     <g id="line2d_14">
      <g>
       <use style="stroke:#000000;stroke-width:0.8;" x="368.850035" xlink:href="#m4ef923e08a" y="231.64"/>
      </g>
     </g>
     <g id="text_7">
      <!-- 15.0 -->
      <g transform="translate(357.717222 246.238438)scale(0.1 -0.1)">
       <use xlink:href="#DejaVuSans-31"/>
       <use x="63.623047" xlink:href="#DejaVuSans-35"/>
       <use x="127.246094" xlink:href="#DejaVuSans-2e"/>
       <use x="159.033203" xlink:href="#DejaVuSans-30"/>
      </g>
     </g>
    </g>
    <g id="xtick_8">
     <g id="line2d_15">
      <path clip-path="url(#p4342593b02)" d="M 414.69595 231.64 
L 414.69595 50.4 
" style="fill:none;stroke:#b0b0b0;stroke-linecap:square;stroke-width:0.8;"/>
     </g>
     <g id="line2d_16">
      <g>
       <use style="stroke:#000000;stroke-width:0.8;" x="414.69595" xlink:href="#m4ef923e08a" y="231.64"/>
      </g>
     </g>
     <g id="text_8">
      <!-- 17.5 -->
      <g transform="translate(403.563137 246.238438)scale(0.1 -0.1)">
       <use xlink:href="#DejaVuSans-31"/>
       <use x="63.623047" xlink:href="#DejaVuSans-37"/>
       <use x="127.246094" xlink:href="#DejaVuSans-2e"/>
       <use x="159.033203" xlink:href="#DejaVuSans-35"/>
      </g>
     </g>
    </g>
    <g id="xtick_9">
     <g id="line2d_17">
      <path clip-path="url(#p4342593b02)" d="M 460.541864 231.64 
L 460.541864 50.4 
" style="fill:none;stroke:#b0b0b0;stroke-linecap:square;stroke-width:0.8;"/>
     </g>
     <g id="line2d_18">
      <g>
       <use style="stroke:#000000;stroke-width:0.8;" x="460.541864" xlink:href="#m4ef923e08a" y="231.64"/>
      </g>
     </g>
     <g id="text_9">
      <!-- 20.0 -->
      <g transform="translate(449.409052 246.238438)scale(0.1 -0.1)">
       <use xlink:href="#DejaVuSans-32"/>
       <use x="63.623047" xlink:href="#DejaVuSans-30"/>
       <use x="127.246094" xlink:href="#DejaVuSans-2e"/>
       <use x="159.033203" xlink:href="#DejaVuSans-30"/>
      </g>
     </g>
    </g>
    <g id="text_10">
     <!-- Tiempo (s) -->
     <g transform="translate(250.5575 259.916562)scale(0.1 -0.1)">
      <defs>
       <path d="M -19 4666 
L 3928 4666 
L 3928 4134 
L 2272 4134 
L 2272 0 
L 1638 0 
L 1638 4134 
L -19 4134 
L -19 4666 
z
" id="DejaVuSans-54" transform="scale(0.015625)"/>
       <path d="M 603 3500 
L 1178 3500 
L 1178 0 
L 603 0 
L 603 3500 
z
M 603 4863 
L 1178 4863 
L 1178 4134 
L 603 4134 
L 603 4863 
z
" id="DejaVuSans-69" transform="scale(0.015625)"/>
       <path d="M 3597 1894 
L 3597 1613 
L 953 1613 
Q 991 1019 1311 708 
Q 1631 397 2203 397 
Q 2534 397 2845 478 
Q 3156 559 3463 722 
L 3463 178 
Q 3153 47 2828 -22 
Q 2503 -91 2169 -91 
Q 1331 -91 842 396 
Q 353 884 353 1716 
Q 353 2575 817 3079 
Q 1281 3584 2069 3584 
Q 2775 3584 3186 3129 
Q 3597 2675 3597 1894 
z
M 3022 2063 
Q 3016 2534 2758 2815 
Q 2500 3097 2075 3097 
Q 1594 3097 1305 2825 
Q 1016 2553 972 2059 
L 3022 2063 
z
" id="DejaVuSans-65" transform="scale(0.015625)"/>
       <path d="M 3328 2828 
Q 3544 3216 3844 3400 
Q 4144 3584 4550 3584 
Q 5097 3584 5394 3201 
Q 5691 2819 5691 2113 
L 5691 0 
L 5113 0 
L 5113 2094 
Q 5113 2597 4934 2840 
Q 4756 3084 4391 3084 
Q 3944 3084 3684 2787 
Q 3425 2491 3425 1978 
L 3425 0 
L 2847 0 
L 2847 2094 
Q 2847 2600 2669 2842 
Q 2491 3084 2119 3084 
Q 1678 3084 1418 2786 
Q 1159 2488 1159 1978 
L 1159 0 
L 581 0 
L 581 3500 
L 1159 3500 
L 1159 2956 
Q 1356 3278 1631 3431 
Q 1906 3584 2284 3584 
Q 2666 3584 2933 3390 
Q 3200 3197 3328 2828 
z
" id="DejaVuSans-6d" transform="scale(0.015625)"/>
       <path d="M 1159 525 
L 1159 -1331 
L 581 -1331 
L 581 3500 
L 1159 3500 
L 1159 2969 
Q 1341 3281 1617 3432 
Q 1894 3584 2278 3584 
Q 2916 3584 3314 3078 
Q 3713 2572 3713 1747 
Q 3713 922 3314 415 
Q 2916 -91 2278 -91 
Q 1894 -91 1617 61 
Q 1341 213 1159 525 
z
M 3116 1747 
Q 3116 2381 2855 2742 
Q 2594 3103 2138 3103 
Q 1681 3103 1420 2742 
Q 1159 2381 1159 1747 
Q 1159 1113 1420 752 
Q 1681 391 2138 391 
Q 2594 391 2855 752 
Q 3116 1113 3116 1747 
z
" id="DejaVuSans-70" transform="scale(0.015625)"/>
       <path d="M 1959 3097 
Q 1497 3097 1228 2736 
Q 959 2375 959 1747 
Q 959 1119 1226 758 
Q 1494 397 1959 397 
Q 2419 397 2687 759 
Q 2956 1122 2956 1747 
Q 2956 2369 2687 2733 
Q 2419 3097 1959 3097 
z
M 1959 3584 
Q 2709 3584 3137 3096 
Q 3566 2609 3566 1747 
Q 3566 888 3137 398 
Q 2709 -91 1959 -91 
Q 1206 -91 779 398 
Q 353 888 353 1747 
Q 353 2609 779 3096 
Q 1206 3584 1959 3584 
z
" id="DejaVuSans-6f" transform="scale(0.015625)"/>
       <path id="DejaVuSans-20" transform="scale(0.015625)"/>
       <path d="M 1984 4856 
Q 1566 4138 1362 3434 
Q 1159 2731 1159 2009 
Q 1159 1288 1364 580 
Q 1569 -128 1984 -844 
L 1484 -844 
Q 1016 -109 783 600 
Q 550 1309 550 2009 
Q 550 2706 781 3412 
Q 1013 4119 1484 4856 
L 1984 4856 
z
" id="DejaVuSans-28" transform="scale(0.015625)"/>
       <path d="M 2834 3397 
L 2834 2853 
Q 2591 2978 2328 3040 
Q 2066 3103 1784 3103 
Q 1356 3103 1142 2972 
Q 928 2841 928 2578 
Q 928 2378 1081 2264 
Q 1234 2150 1697 2047 
L 1894 2003 
Q 2506 1872 2764 1633 
Q 3022 1394 3022 966 
Q 3022 478 2636 193 
Q 2250 -91 1575 -91 
Q 1294 -91 989 -36 
Q 684 19 347 128 
L 347 722 
Q 666 556 975 473 
Q 1284 391 1588 391 
Q 1994 391 2212 530 
Q 2431 669 2431 922 
Q 2431 1156 2273 1281 
Q 2116 1406 1581 1522 
L 1381 1569 
Q 847 1681 609 1914 
Q 372 2147 372 2553 
Q 372 3047 722 3315 
Q 1072 3584 1716 3584 
Q 2034 3584 2315 3537 
Q 2597 3491 2834 3397 
z
" id="DejaVuSans-73" transform="scale(0.015625)"/>
       <path d="M 513 4856 
L 1013 4856 
Q 1481 4119 1714 3412 
Q 1947 2706 1947 2009 
Q 1947 1309 1714 600 
Q 1481 -109 1013 -844 
L 513 -844 
Q 928 -128 1133 580 
Q 1338 1288 1338 2009 
Q 1338 2731 1133 3434 
Q 928 4138 513 4856 
z
" id="DejaVuSans-29" transform="scale(0.015625)"/>
      </defs>
      <use xlink:href="#DejaVuSans-54"/>
      <use x="57.958984" xlink:href="#DejaVuSans-69"/>
      <use x="85.742188" xlink:href="#DejaVuSans-65"/>
      <use x="147.265625" xlink:href="#DejaVuSans-6d"/>
      <use x="244.677734" xlink:href="#DejaVuSans-70"/>
      <use x="308.154297" xlink:href="#DejaVuSans-6f"/>
      <use x="369.335938" xlink:href="#DejaVuSans-20"/>
      <use x="401.123047" xlink:href="#DejaVuSans-28"/>
      <use x="440.136719" xlink:href="#DejaVuSans-73"/>
      <use x="492.236328" xlink:href="#DejaVuSans-29"/>
     </g>
    </g>
   </g>
   <g id="matplotlib.axis_2">
    <g id="ytick_1">
     <g id="line2d_19">
      <path clip-path="url(#p4342593b02)" d="M 75.44 206.522207 
L 478.8 206.522207 
" style="fill:none;stroke:#b0b0b0;stroke-linecap:square;stroke-width:0.8;"/>
     </g>
     <g id="line2d_20">
      <defs>
       <path d="M 0 0 
L -3.5 0 
" id="m70d7888da7" style="stroke:#000000;stroke-width:0.8;"/>
      </defs>
      <g>
       <use style="stroke:#000000;stroke-width:0.8;" x="75.44" xlink:href="#m70d7888da7" y="206.522207"/>
      </g>
     </g>
     <g id="text_11">
      <!-- −4 -->
      <g transform="translate(53.697813 210.321425)scale(0.1 -0.1)">
       <defs>
        <path d="M 678 2272 
L 4684 2272 
L 4684 1741 
L 678 1741 
L 678 2272 
z
" id="DejaVuSans-2212" transform="scale(0.015625)"/>
        <path d="M 2419 4116 
L 825 1625 
L 2419 1625 
L 2419 4116 
z
M 2253 4666 
L 3047 4666 
L 3047 1625 
L 3713 1625 
L 3713 1100 
L 3047 1100 
L 3047 0 
L 2419 0 
L 2419 1100 
L 313 1100 
L 313 1709 
L 2253 4666 
z
" id="DejaVuSans-34" transform="scale(0.015625)"/>
       </defs>
       <use xlink:href="#DejaVuSans-2212"/>
       <use x="83.789062" xlink:href="#DejaVuSans-34"/>
      </g>
     </g>
    </g>
    <g id="ytick_2">
     <g id="line2d_21">
      <path clip-path="url(#p4342593b02)" d="M 75.44 176.107441 
L 478.8 176.107441 
" style="fill:none;stroke:#b0b0b0;stroke-linecap:square;stroke-width:0.8;"/>
     </g>
     <g id="line2d_22">
      <g>
       <use style="stroke:#000000;stroke-width:0.8;" x="75.44" xlink:href="#m70d7888da7" y="176.107441"/>
      </g>
     </g>
     <g id="text_12">
      <!-- −3 -->
      <g transform="translate(53.697813 179.906659)scale(0.1 -0.1)">
       <defs>
        <path d="M 2597 2516 
Q 3050 2419 3304 2112 
Q 3559 1806 3559 1356 
Q 3559 666 3084 287 
Q 2609 -91 1734 -91 
Q 1441 -91 1130 -33 
Q 819 25 488 141 
L 488 750 
Q 750 597 1062 519 
Q 1375 441 1716 441 
Q 2309 441 2620 675 
Q 2931 909 2931 1356 
Q 2931 1769 2642 2001 
Q 2353 2234 1838 2234 
L 1294 2234 
L 1294 2753 
L 1863 2753 
Q 2328 2753 2575 2939 
Q 2822 3125 2822 3475 
Q 2822 3834 2567 4026 
Q 2313 4219 1838 4219 
Q 1578 4219 1281 4162 
Q 984 4106 628 3988 
L 628 4550 
Q 988 4650 1302 4700 
Q 1616 4750 1894 4750 
Q 2613 4750 3031 4423 
Q 3450 4097 3450 3541 
Q 3450 3153 3228 2886 
Q 3006 2619 2597 2516 
z
" id="DejaVuSans-33" transform="scale(0.015625)"/>
       </defs>
       <use xlink:href="#DejaVuSans-2212"/>
       <use x="83.789062" xlink:href="#DejaVuSans-33"/>
      </g>
     </g>
    </g>
    <g id="ytick_3">
     <g id="line2d_23">
      <path clip-path="url(#p4342593b02)" d="M 75.44 145.692675 
L 478.8 145.692675 
" style="fill:none;stroke:#b0b0b0;stroke-linecap:square;stroke-width:0.8;"/>
     </g>
     <g id="line2d_24">
      <g>
       <use style="stroke:#000000;stroke-width:0.8;" x="75.44" xlink:href="#m70d7888da7" y="145.692675"/>
      </g>
     </g>
     <g id="text_13">
      <!-- −2 -->
      <g transform="translate(53.697813 149.491894)scale(0.1 -0.1)">
       <use xlink:href="#DejaVuSans-2212"/>
       <use x="83.789062" xlink:href="#DejaVuSans-32"/>
      </g>
     </g>
    </g>
    <g id="ytick_4">
     <g id="line2d_25">
      <path clip-path="url(#p4342593b02)" d="M 75.44 115.277909 
L 478.8 115.277909 
" style="fill:none;stroke:#b0b0b0;stroke-linecap:square;stroke-width:0.8;"/>
     </g>
     <g id="line2d_26">
      <g>
       <use style="stroke:#000000;stroke-width:0.8;" x="75.44" xlink:href="#m70d7888da7" y="115.277909"/>
      </g>
     </g>
     <g id="text_14">
      <!-- −1 -->
      <g transform="translate(53.697813 119.077128)scale(0.1 -0.1)">
       <use xlink:href="#DejaVuSans-2212"/>
       <use x="83.789062" xlink:href="#DejaVuSans-31"/>
      </g>
     </g>
    </g>
    <g id="ytick_5">
     <g id="line2d_27">
      <path clip-path="url(#p4342593b02)" d="M 75.44 84.863143 
L 478.8 84.863143 
" style="fill:none;stroke:#b0b0b0;stroke-linecap:square;stroke-width:0.8;"/>
     </g>
     <g id="line2d_28">
      <g>
       <use style="stroke:#000000;stroke-width:0.8;" x="75.44" xlink:href="#m70d7888da7" y="84.863143"/>
      </g>
     </g>
     <g id="text_15">
      <!-- 0 -->
      <g transform="translate(62.0775 88.662362)scale(0.1 -0.1)">
       <use xlink:href="#DejaVuSans-30"/>
      </g>
     </g>
    </g>
    <g id="ytick_6">
     <g id="line2d_29">
      <path clip-path="url(#p4342593b02)" d="M 75.44 54.448377 
L 478.8 54.448377 
" style="fill:none;stroke:#b0b0b0;stroke-linecap:square;stroke-width:0.8;"/>
     </g>
     <g id="line2d_30">
      <g>
       <use style="stroke:#000000;stroke-width:0.8;" x="75.44" xlink:href="#m70d7888da7" y="54.448377"/>
      </g>
     </g>
     <g id="text_16">
      <!-- 1 -->
      <g transform="translate(62.0775 58.247596)scale(0.1 -0.1)">
       <use xlink:href="#DejaVuSans-31"/>
      </g>
     </g>
    </g>
    <g id="text_17">
     <!-- x (m) -->
     <g transform="translate(47.618125 154.340313)rotate(-90)scale(0.1 -0.1)">
      <defs>
       <path d="M 3513 3500 
L 2247 1797 
L 3578 0 
L 2900 0 
L 1881 1375 
L 863 0 
L 184 0 
L 1544 1831 
L 300 3500 
L 978 3500 
L 1906 2253 
L 2834 3500 
L 3513 3500 
z
" id="DejaVuSans-78" transform="scale(0.015625)"/>
      </defs>
      <use xlink:href="#DejaVuSans-78"/>
      <use x="59.179688" xlink:href="#DejaVuSans-20"/>
      <use x="90.966797" xlink:href="#DejaVuSans-28"/>
      <use x="129.980469" xlink:href="#DejaVuSans-6d"/>
      <use x="227.392578" xlink:href="#DejaVuSans-29"/>
     </g>
    </g>
   </g>
   <g id="line2d_31">
    <path clip-path="url(#p4342593b02)" d="M 93.774545 84.863143 
L 188.904819 84.756318 
L 190.050967 84.479381 
L 191.044295 84.00508 
L 192.037623 83.272006 
L 193.107361 82.181828 
L 194.329919 80.582498 
L 195.934526 78.073438 
L 198.226821 74.515333 
L 199.22015 73.369106 
L 200.060658 72.708503 
L 200.824757 72.389094 
L 201.512445 72.34618 
L 202.200134 72.542974 
L 202.887823 72.983004 
L 203.651921 73.757008 
L 204.49243 74.948016 
L 205.485758 76.787362 
L 206.631906 79.405241 
L 208.847792 85.198562 
L 210.146759 88.244792 
L 210.987268 89.723443 
L 211.674957 90.538886 
L 212.286235 90.933461 
L 212.821104 91.017192 
L 213.355973 90.86097 
L 213.967252 90.405744 
L 214.654941 89.576204 
L 215.495449 88.182975 
L 216.565187 85.959489 
L 217.787745 82.91311 
L 219.163123 78.854731 
L 220.61491 73.859262 
L 222.677976 66.58594 
L 223.976944 63.380507 
L 224.970272 61.868435 
L 225.73437 61.025437 
L 226.345649 60.860182 
L 230.395372 60.858668 
L 460.465455 60.858556 
L 460.465455 60.858556 
" style="fill:none;stroke:#1f77b4;stroke-linecap:square;stroke-opacity:0.7;stroke-width:1.5;"/>
   </g>
   <g id="line2d_32">
    <path clip-path="url(#p4342593b02)" d="M 93.774545 84.863143 
L 102.790909 84.754169 
L 109.897026 84.638487 
L 163.995205 84.678175 
L 188.981229 84.565532 
L 190.127377 84.285219 
L 191.120705 83.810493 
L 192.114033 83.083773 
L 193.183771 82.016468 
L 194.482738 80.376245 
L 198.91451 74.42299 
L 199.831429 73.728301 
L 200.671937 73.365648 
L 201.436036 73.270019 
L 202.200134 73.390722 
L 203.040643 73.752914 
L 204.033971 74.441393 
L 205.485758 75.767355 
L 207.396004 77.474723 
L 208.465742 78.125597 
L 209.382661 78.421138 
L 210.223169 78.455009 
L 211.063678 78.256148 
L 211.904186 77.832515 
L 212.897514 77.073839 
L 214.196482 75.76447 
L 217.023647 72.792119 
L 218.016975 72.136989 
L 218.857483 71.849104 
L 219.621582 71.818761 
L 220.38568 72.011173 
L 221.226189 72.468191 
L 222.143107 73.227784 
L 223.365665 74.564198 
L 226.422059 78.072642 
L 227.338977 78.724005 
L 228.103076 79.026349 
L 228.867175 79.086514 
L 229.554863 78.923112 
L 230.318962 78.495112 
L 231.08306 77.809154 
L 231.999979 76.660363 
L 233.069717 74.915637 
L 234.368684 72.334349 
L 237.730718 65.39206 
L 238.724046 63.953345 
L 239.564555 63.120026 
L 240.252243 62.73584 
L 240.863522 62.634521 
L 241.474801 62.764897 
L 242.08608 63.126257 
L 242.773769 63.800366 
L 243.537867 64.861339 
L 244.454786 66.519879 
L 245.753753 69.388049 
L 248.275279 75.056217 
L 249.345017 76.892969 
L 250.185525 77.947879 
L 250.949624 78.564965 
L 251.560902 78.803496 
L 252.172181 78.803577 
L 252.78346 78.560177 
L 253.394739 78.073301 
L 254.082428 77.235693 
L 254.846526 75.945265 
L 255.763445 73.912561 
L 256.833183 70.961601 
L 260.195216 61.145776 
L 260.959315 59.866471 
L 261.647004 59.112008 
L 262.258283 58.737687 
L 262.793152 58.638182 
L 263.328021 58.74946 
L 263.939299 59.130015 
L 264.626988 59.872706 
L 265.391087 61.082686 
L 266.231595 62.864203 
L 267.301333 65.71002 
L 268.523891 69.617148 
L 270.128498 75.568441 
L 278.762812 109.804007 
L 280.596649 118.469022 
L 285.02842 142.334983 
L 290.52993 172.92461 
L 292.669406 183.582752 
L 295.343751 195.665951 
L 297.177588 202.988488 
L 298.782195 208.705642 
L 300.386802 213.612324 
L 301.60936 216.732227 
L 302.831917 219.228488 
L 303.978065 221.157072 
L 304.894983 222.314637 
L 305.659082 222.944063 
L 306.346771 223.283397 
L 307.034459 223.395644 
L 307.722148 223.346566 
L 308.715476 222.937262 
L 309.326755 222.488381 
L 310.014444 221.731503 
L 310.854952 220.434579 
L 312.688789 217.025405 
L 314.140576 213.607898 
L 316.891331 207.147166 
L 318.419528 204.082026 
L 319.412856 202.543239 
L 320.329775 201.50412 
L 321.170283 200.860663 
L 321.934382 200.524425 
L 322.69848 200.406959 
L 323.309759 200.54146 
L 323.921038 200.92049 
L 324.608727 201.610748 
L 325.372825 202.680135 
L 326.824613 205.174515 
L 328.964089 209.208815 
L 329.957417 210.845212 
L 330.645106 211.602593 
L 331.256384 211.99478 
L 331.944073 212.152239 
L 332.478942 212.048429 
L 333.013811 211.704691 
L 333.7015 210.909292 
L 334.465599 209.678846 
L 336.528665 206.222778 
L 337.216353 205.551076 
L 337.827632 205.199001 
L 338.438911 205.077276 
L 338.97378 205.152797 
L 339.432239 205.400497 
L 339.967108 205.93698 
L 340.578387 206.887563 
L 342.030174 209.216366 
L 342.870683 210.11904 
L 343.481962 210.485191 
L 343.864011 210.493605 
L 344.24606 210.232481 
L 344.933749 209.35859 
L 346.079897 207.923479 
L 346.767586 207.380848 
L 347.302455 207.197652 
L 347.837324 207.281935 
L 349.365521 207.861526 
L 350.05321 207.879664 
L 350.893718 207.981953 
L 352.192686 207.843721 
L 353.033194 208.007003 
L 354.255752 207.903239 
L 354.867031 207.915786 
L 355.631129 207.801045 
L 356.548048 207.859782 
L 357.159326 207.780745 
L 358.152655 207.804101 
L 358.687524 207.773672 
L 359.451622 207.786357 
L 359.986491 207.772746 
L 360.67418 207.775689 
L 361.209049 207.779991 
L 361.820328 207.76125 
L 362.355197 207.768845 
L 362.966476 207.748907 
L 363.654164 207.788476 
L 370.989511 207.757232 
L 460.465455 207.757228 
L 460.465455 207.757228 
" style="fill:none;stroke:#2ca02c;stroke-linecap:square;stroke-opacity:0.7;stroke-width:1.5;"/>
   </g>
   <g id="line2d_33">
    <path clip-path="url(#p4342593b02)" d="M 93.774545 84.863143 
L 185.772015 84.863143 
L 185.924834 75.738713 
L 460.465455 75.738713 
L 460.465455 75.738713 
" style="fill:none;stroke:#000000;stroke-dasharray:5.55,2.4;stroke-dashoffset:0;stroke-opacity:0.595;stroke-width:1.5;"/>
   </g>
   <g id="patch_3">
    <path d="M 75.44 231.64 
L 75.44 50.4 
" style="fill:none;stroke:#000000;stroke-linecap:square;stroke-linejoin:miter;stroke-width:0.8;"/>
   </g>
   <g id="patch_4">
    <path d="M 478.8 231.64 
L 478.8 50.4 
" style="fill:none;stroke:#000000;stroke-linecap:square;stroke-linejoin:miter;stroke-width:0.8;"/>
   </g>
   <g id="patch_5">
    <path d="M 75.44 231.64 
L 478.8 231.64 
" style="fill:none;stroke:#000000;stroke-linecap:square;stroke-linejoin:miter;stroke-width:0.8;"/>
   </g>
   <g id="patch_6">
    <path d="M 75.44 50.4 
L 478.8 50.4 
" style="fill:none;stroke:#000000;stroke-linecap:square;stroke-linejoin:miter;stroke-width:0.8;"/>
   </g>
  </g>
  <g id="text_18">
   <!-- Vista planos -->
   <g transform="translate(239.4 17.9175)scale(0.16 -0.16)">
    <defs>
     <path d="M 1831 0 
L 50 4666 
L 709 4666 
L 2188 738 
L 3669 4666 
L 4325 4666 
L 2547 0 
L 1831 0 
z
" id="DejaVuSans-56" transform="scale(0.015625)"/>
     <path d="M 1172 4494 
L 1172 3500 
L 2356 3500 
L 2356 3053 
L 1172 3053 
L 1172 1153 
Q 1172 725 1289 603 
Q 1406 481 1766 481 
L 2356 481 
L 2356 0 
L 1766 0 
Q 1100 0 847 248 
Q 594 497 594 1153 
L 594 3053 
L 172 3053 
L 172 3500 
L 594 3500 
L 594 4494 
L 1172 4494 
z
" id="DejaVuSans-74" transform="scale(0.015625)"/>
     <path d="M 2194 1759 
Q 1497 1759 1228 1600 
Q 959 1441 959 1056 
Q 959 750 1161 570 
Q 1363 391 1709 391 
Q 2188 391 2477 730 
Q 2766 1069 2766 1631 
L 2766 1759 
L 2194 1759 
z
M 3341 1997 
L 3341 0 
L 2766 0 
L 2766 531 
Q 2569 213 2275 61 
Q 1981 -91 1556 -91 
Q 1019 -91 701 211 
Q 384 513 384 1019 
Q 384 1609 779 1909 
Q 1175 2209 1959 2209 
L 2766 2209 
L 2766 2266 
Q 2766 2663 2505 2880 
Q 2244 3097 1772 3097 
Q 1472 3097 1187 3025 
Q 903 2953 641 2809 
L 641 3341 
Q 956 3463 1253 3523 
Q 1550 3584 1831 3584 
Q 2591 3584 2966 3190 
Q 3341 2797 3341 1997 
z
" id="DejaVuSans-61" transform="scale(0.015625)"/>
     <path d="M 603 4863 
L 1178 4863 
L 1178 0 
L 603 0 
L 603 4863 
z
" id="DejaVuSans-6c" transform="scale(0.015625)"/>
     <path d="M 3513 2113 
L 3513 0 
L 2938 0 
L 2938 2094 
Q 2938 2591 2744 2837 
Q 2550 3084 2163 3084 
Q 1697 3084 1428 2787 
Q 1159 2491 1159 1978 
L 1159 0 
L 581 0 
L 581 3500 
L 1159 3500 
L 1159 2956 
Q 1366 3272 1645 3428 
Q 1925 3584 2291 3584 
Q 2894 3584 3203 3211 
Q 3513 2838 3513 2113 
z
" id="DejaVuSans-6e" transform="scale(0.015625)"/>
    </defs>
    <use xlink:href="#DejaVuSans-56"/>
    <use x="66.158203" xlink:href="#DejaVuSans-69"/>
    <use x="93.941406" xlink:href="#DejaVuSans-73"/>
    <use x="146.041016" xlink:href="#DejaVuSans-74"/>
    <use x="185.25" xlink:href="#DejaVuSans-61"/>
    <use x="246.529297" xlink:href="#DejaVuSans-20"/>
    <use x="278.316406" xlink:href="#DejaVuSans-70"/>
    <use x="341.792969" xlink:href="#DejaVuSans-6c"/>
    <use x="369.576172" xlink:href="#DejaVuSans-61"/>
    <use x="430.855469" xlink:href="#DejaVuSans-6e"/>
    <use x="494.234375" xlink:href="#DejaVuSans-6f"/>
    <use x="555.416016" xlink:href="#DejaVuSans-73"/>
   </g>
  </g>
  <g id="legend_1">
   <g id="patch_7">
    <path d="M 483.89375 167.517188 
L 569 167.517188 
Q 571 167.517188 571 165.517188 
L 571 122.482812 
Q 571 120.482812 569 120.482812 
L 483.89375 120.482812 
Q 481.89375 120.482812 481.89375 122.482812 
L 481.89375 165.517188 
Q 481.89375 167.517188 483.89375 167.517188 
z
" style="fill:#ffffff;opacity:0.8;stroke:#cccccc;stroke-linejoin:miter;"/>
   </g>
   <g id="line2d_34">
    <path d="M 485.89375 128.58125 
L 505.89375 128.58125 
" style="fill:none;stroke:#1f77b4;stroke-linecap:square;stroke-opacity:0.7;stroke-width:1.5;"/>
   </g>
   <g id="line2d_35"/>
   <g id="text_19">
    <!-- DSLPID -->
    <g transform="translate(513.89375 132.08125)scale(0.1 -0.1)">
     <defs>
      <path d="M 1259 4147 
L 1259 519 
L 2022 519 
Q 2988 519 3436 956 
Q 3884 1394 3884 2338 
Q 3884 3275 3436 3711 
Q 2988 4147 2022 4147 
L 1259 4147 
z
M 628 4666 
L 1925 4666 
Q 3281 4666 3915 4102 
Q 4550 3538 4550 2338 
Q 4550 1131 3912 565 
Q 3275 0 1925 0 
L 628 0 
L 628 4666 
z
" id="DejaVuSans-44" transform="scale(0.015625)"/>
      <path d="M 3425 4513 
L 3425 3897 
Q 3066 4069 2747 4153 
Q 2428 4238 2131 4238 
Q 1616 4238 1336 4038 
Q 1056 3838 1056 3469 
Q 1056 3159 1242 3001 
Q 1428 2844 1947 2747 
L 2328 2669 
Q 3034 2534 3370 2195 
Q 3706 1856 3706 1288 
Q 3706 609 3251 259 
Q 2797 -91 1919 -91 
Q 1588 -91 1214 -16 
Q 841 59 441 206 
L 441 856 
Q 825 641 1194 531 
Q 1563 422 1919 422 
Q 2459 422 2753 634 
Q 3047 847 3047 1241 
Q 3047 1584 2836 1778 
Q 2625 1972 2144 2069 
L 1759 2144 
Q 1053 2284 737 2584 
Q 422 2884 422 3419 
Q 422 4038 858 4394 
Q 1294 4750 2059 4750 
Q 2388 4750 2728 4690 
Q 3069 4631 3425 4513 
z
" id="DejaVuSans-53" transform="scale(0.015625)"/>
      <path d="M 628 4666 
L 1259 4666 
L 1259 531 
L 3531 531 
L 3531 0 
L 628 0 
L 628 4666 
z
" id="DejaVuSans-4c" transform="scale(0.015625)"/>
      <path d="M 1259 4147 
L 1259 2394 
L 2053 2394 
Q 2494 2394 2734 2622 
Q 2975 2850 2975 3272 
Q 2975 3691 2734 3919 
Q 2494 4147 2053 4147 
L 1259 4147 
z
M 628 4666 
L 2053 4666 
Q 2838 4666 3239 4311 
Q 3641 3956 3641 3272 
Q 3641 2581 3239 2228 
Q 2838 1875 2053 1875 
L 1259 1875 
L 1259 0 
L 628 0 
L 628 4666 
z
" id="DejaVuSans-50" transform="scale(0.015625)"/>
      <path d="M 628 4666 
L 1259 4666 
L 1259 0 
L 628 0 
L 628 4666 
z
" id="DejaVuSans-49" transform="scale(0.015625)"/>
     </defs>
     <use xlink:href="#DejaVuSans-44"/>
     <use x="77.001953" xlink:href="#DejaVuSans-53"/>
     <use x="140.478516" xlink:href="#DejaVuSans-4c"/>
     <use x="196.191406" xlink:href="#DejaVuSans-50"/>
     <use x="256.494141" xlink:href="#DejaVuSans-49"/>
     <use x="285.986328" xlink:href="#DejaVuSans-44"/>
    </g>
   </g>
   <g id="line2d_36">
    <path d="M 485.89375 143.259375 
L 505.89375 143.259375 
" style="fill:none;stroke:#2ca02c;stroke-linecap:square;stroke-opacity:0.7;stroke-width:1.5;"/>
   </g>
   <g id="line2d_37"/>
   <g id="text_20">
    <!-- LSTMCNN -->
    <g transform="translate(513.89375 146.759375)scale(0.1 -0.1)">
     <defs>
      <path d="M 628 4666 
L 1569 4666 
L 2759 1491 
L 3956 4666 
L 4897 4666 
L 4897 0 
L 4281 0 
L 4281 4097 
L 3078 897 
L 2444 897 
L 1241 4097 
L 1241 0 
L 628 0 
L 628 4666 
z
" id="DejaVuSans-4d" transform="scale(0.015625)"/>
      <path d="M 4122 4306 
L 4122 3641 
Q 3803 3938 3442 4084 
Q 3081 4231 2675 4231 
Q 1875 4231 1450 3742 
Q 1025 3253 1025 2328 
Q 1025 1406 1450 917 
Q 1875 428 2675 428 
Q 3081 428 3442 575 
Q 3803 722 4122 1019 
L 4122 359 
Q 3791 134 3420 21 
Q 3050 -91 2638 -91 
Q 1578 -91 968 557 
Q 359 1206 359 2328 
Q 359 3453 968 4101 
Q 1578 4750 2638 4750 
Q 3056 4750 3426 4639 
Q 3797 4528 4122 4306 
z
" id="DejaVuSans-43" transform="scale(0.015625)"/>
      <path d="M 628 4666 
L 1478 4666 
L 3547 763 
L 3547 4666 
L 4159 4666 
L 4159 0 
L 3309 0 
L 1241 3903 
L 1241 0 
L 628 0 
L 628 4666 
z
" id="DejaVuSans-4e" transform="scale(0.015625)"/>
     </defs>
     <use xlink:href="#DejaVuSans-4c"/>
     <use x="55.712891" xlink:href="#DejaVuSans-53"/>
     <use x="119.189453" xlink:href="#DejaVuSans-54"/>
     <use x="180.273438" xlink:href="#DejaVuSans-4d"/>
     <use x="266.552734" xlink:href="#DejaVuSans-43"/>
     <use x="336.376953" xlink:href="#DejaVuSans-4e"/>
     <use x="411.181641" xlink:href="#DejaVuSans-4e"/>
    </g>
   </g>
   <g id="line2d_38">
    <path d="M 485.89375 157.9375 
L 505.89375 157.9375 
" style="fill:none;stroke:#000000;stroke-dasharray:5.55,2.4;stroke-dashoffset:0;stroke-opacity:0.595;stroke-width:1.5;"/>
   </g>
   <g id="line2d_39"/>
   <g id="text_21">
    <!-- Referencia -->
    <g transform="translate(513.89375 161.4375)scale(0.1 -0.1)">
     <defs>
      <path d="M 2841 2188 
Q 3044 2119 3236 1894 
Q 3428 1669 3622 1275 
L 4263 0 
L 3584 0 
L 2988 1197 
Q 2756 1666 2539 1819 
Q 2322 1972 1947 1972 
L 1259 1972 
L 1259 0 
L 628 0 
L 628 4666 
L 2053 4666 
Q 2853 4666 3247 4331 
Q 3641 3997 3641 3322 
Q 3641 2881 3436 2590 
Q 3231 2300 2841 2188 
z
M 1259 4147 
L 1259 2491 
L 2053 2491 
Q 2509 2491 2742 2702 
Q 2975 2913 2975 3322 
Q 2975 3731 2742 3939 
Q 2509 4147 2053 4147 
L 1259 4147 
z
" id="DejaVuSans-52" transform="scale(0.015625)"/>
      <path d="M 2375 4863 
L 2375 4384 
L 1825 4384 
Q 1516 4384 1395 4259 
Q 1275 4134 1275 3809 
L 1275 3500 
L 2222 3500 
L 2222 3053 
L 1275 3053 
L 1275 0 
L 697 0 
L 697 3053 
L 147 3053 
L 147 3500 
L 697 3500 
L 697 3744 
Q 697 4328 969 4595 
Q 1241 4863 1831 4863 
L 2375 4863 
z
" id="DejaVuSans-66" transform="scale(0.015625)"/>
      <path d="M 2631 2963 
Q 2534 3019 2420 3045 
Q 2306 3072 2169 3072 
Q 1681 3072 1420 2755 
Q 1159 2438 1159 1844 
L 1159 0 
L 581 0 
L 581 3500 
L 1159 3500 
L 1159 2956 
Q 1341 3275 1631 3429 
Q 1922 3584 2338 3584 
Q 2397 3584 2469 3576 
Q 2541 3569 2628 3553 
L 2631 2963 
z
" id="DejaVuSans-72" transform="scale(0.015625)"/>
      <path d="M 3122 3366 
L 3122 2828 
Q 2878 2963 2633 3030 
Q 2388 3097 2138 3097 
Q 1578 3097 1268 2742 
Q 959 2388 959 1747 
Q 959 1106 1268 751 
Q 1578 397 2138 397 
Q 2388 397 2633 464 
Q 2878 531 3122 666 
L 3122 134 
Q 2881 22 2623 -34 
Q 2366 -91 2075 -91 
Q 1284 -91 818 406 
Q 353 903 353 1747 
Q 353 2603 823 3093 
Q 1294 3584 2113 3584 
Q 2378 3584 2631 3529 
Q 2884 3475 3122 3366 
z
" id="DejaVuSans-63" transform="scale(0.015625)"/>
     </defs>
     <use xlink:href="#DejaVuSans-52"/>
     <use x="64.982422" xlink:href="#DejaVuSans-65"/>
     <use x="126.505859" xlink:href="#DejaVuSans-66"/>
     <use x="161.710938" xlink:href="#DejaVuSans-65"/>
     <use x="223.234375" xlink:href="#DejaVuSans-72"/>
     <use x="262.097656" xlink:href="#DejaVuSans-65"/>
     <use x="323.621094" xlink:href="#DejaVuSans-6e"/>
     <use x="387" xlink:href="#DejaVuSans-63"/>
     <use x="441.980469" xlink:href="#DejaVuSans-69"/>
     <use x="469.763672" xlink:href="#DejaVuSans-61"/>
    </g>
   </g>
  </g>
 </g>
 <defs>
  <clipPath id="p4342593b02">
   <rect height="181.24" width="403.36" x="75.44" y="50.4"/>
  </clipPath>
 </defs>
</svg>
