<?xml version="1.0" encoding="utf-8" standalone="no"?>
<!DOCTYPE svg PUBLIC "-//W3C//DTD SVG 1.1//EN"
  "http://www.w3.org/Graphics/SVG/1.1/DTD/svg11.dtd">
<svg height="576pt" version="1.1" viewBox="0 0 576 576" width="576pt" xmlns="http://www.w3.org/2000/svg" xmlns:xlink="http://www.w3.org/1999/xlink">
 <metadata>
  <rdf:RDF xmlns:cc="http://creativecommons.org/ns#" xmlns:dc="http://purl.org/dc/elements/1.1/" xmlns:rdf="http://www.w3.org/1999/02/22-rdf-syntax-ns#">
   <cc:Work>
    <dc:type rdf:resource="http://purl.org/dc/dcmitype/StillImage"/>
    <dc:date>2022-02-27T23:08:01.455611</dc:date>
    <dc:format>image/svg+xml</dc:format>
    <dc:creator>
     <cc:Agent>
      <dc:title>Matplotlib v3.4.3, https://matplotlib.org/</dc:title>
     </cc:Agent>
    </dc:creator>
   </cc:Work>
  </rdf:RDF>
 </metadata>
 <defs>
  <style type="text/css">*{stroke-linecap:butt;stroke-linejoin:round;}</style>
 </defs>
 <g id="figure_1">
  <g id="patch_1">
   <path d="M 0 576 
L 576 576 
L 576 0 
L 0 0 
z
" style="fill:#ffffff;"/>
  </g>
  <g id="patch_2">
   <path d="M 10.8 565.2 
L 565.2 565.2 
L 565.2 10.8 
L 10.8 10.8 
z
" style="fill:#ffffff;"/>
  </g>
  <g id="pane3d_1">
   <g id="patch_3">
    <path d="M 52.661023 428.502727 
L 235.742009 275.040614 
L 233.197008 53.720814 
L 41.354653 193.718627 
" style="fill:#f2f2f2;opacity:0.5;stroke:#f2f2f2;stroke-linejoin:miter;"/>
   </g>
  </g>
  <g id="pane3d_2">
   <g id="patch_4">
    <path d="M 235.742009 275.040614 
L 529.521668 360.430763 
L 540.005628 131.487856 
L 233.197008 53.720814 
" style="fill:#e6e6e6;opacity:0.5;stroke:#e6e6e6;stroke-linejoin:miter;"/>
   </g>
  </g>
  <g id="pane3d_3">
   <g id="patch_5">
    <path d="M 52.661023 428.502727 
L 364.08181 530.212756 
L 529.521668 360.430763 
L 235.742009 275.040614 
" style="fill:#ececec;opacity:0.5;stroke:#ececec;stroke-linejoin:miter;"/>
   </g>
  </g>
  <g id="axis3d_1">
   <g id="line2d_1">
    <path d="M 52.661023 428.502727 
L 364.08181 530.212756 
" style="fill:none;stroke:#000000;stroke-linecap:square;stroke-width:0.8;"/>
   </g>
   <g id="text_1">
    <!-- x (m) -->
    <g transform="translate(174.526236 511.624996)rotate(-341.912962)scale(0.1 -0.1)">
     <defs>
      <path d="M 3513 3500 
L 2247 1797 
L 3578 0 
L 2900 0 
L 1881 1375 
L 863 0 
L 184 0 
L 1544 1831 
L 300 3500 
L 978 3500 
L 1906 2253 
L 2834 3500 
L 3513 3500 
z
" id="DejaVuSans-78" transform="scale(0.015625)"/>
      <path id="DejaVuSans-20" transform="scale(0.015625)"/>
      <path d="M 1984 4856 
Q 1566 4138 1362 3434 
Q 1159 2731 1159 2009 
Q 1159 1288 1364 580 
Q 1569 -128 1984 -844 
L 1484 -844 
Q 1016 -109 783 600 
Q 550 1309 550 2009 
Q 550 2706 781 3412 
Q 1013 4119 1484 4856 
L 1984 4856 
z
" id="DejaVuSans-28" transform="scale(0.015625)"/>
      <path d="M 3328 2828 
Q 3544 3216 3844 3400 
Q 4144 3584 4550 3584 
Q 5097 3584 5394 3201 
Q 5691 2819 5691 2113 
L 5691 0 
L 5113 0 
L 5113 2094 
Q 5113 2597 4934 2840 
Q 4756 3084 4391 3084 
Q 3944 3084 3684 2787 
Q 3425 2491 3425 1978 
L 3425 0 
L 2847 0 
L 2847 2094 
Q 2847 2600 2669 2842 
Q 2491 3084 2119 3084 
Q 1678 3084 1418 2786 
Q 1159 2488 1159 1978 
L 1159 0 
L 581 0 
L 581 3500 
L 1159 3500 
L 1159 2956 
Q 1356 3278 1631 3431 
Q 1906 3584 2284 3584 
Q 2666 3584 2933 3390 
Q 3200 3197 3328 2828 
z
" id="DejaVuSans-6d" transform="scale(0.015625)"/>
      <path d="M 513 4856 
L 1013 4856 
Q 1481 4119 1714 3412 
Q 1947 2706 1947 2009 
Q 1947 1309 1714 600 
Q 1481 -109 1013 -844 
L 513 -844 
Q 928 -128 1133 580 
Q 1338 1288 1338 2009 
Q 1338 2731 1133 3434 
Q 928 4138 513 4856 
z
" id="DejaVuSans-29" transform="scale(0.015625)"/>
     </defs>
     <use xlink:href="#DejaVuSans-78"/>
     <use x="59.179688" xlink:href="#DejaVuSans-20"/>
     <use x="90.966797" xlink:href="#DejaVuSans-28"/>
     <use x="129.980469" xlink:href="#DejaVuSans-6d"/>
     <use x="227.392578" xlink:href="#DejaVuSans-29"/>
    </g>
   </g>
   <g id="Line3DCollection_1">
    <path d="M 92.042981 441.364874 
L 273.036605 285.880681 
L 272.07387 63.574966 
" style="fill:none;stroke:#b0b0b0;stroke-width:0.8;"/>
    <path d="M 129.420027 453.572217 
L 308.393994 296.157678 
L 308.950568 72.922134 
" style="fill:none;stroke:#b0b0b0;stroke-width:0.8;"/>
    <path d="M 167.282773 465.93819 
L 344.172612 306.55711 
L 346.285666 82.385493 
" style="fill:none;stroke:#b0b0b0;stroke-width:0.8;"/>
    <path d="M 205.640751 478.465906 
L 380.380032 317.081177 
L 384.087763 91.967222 
" style="fill:none;stroke:#b0b0b0;stroke-width:0.8;"/>
    <path d="M 244.503738 491.158557 
L 417.024008 327.732135 
L 422.365677 101.669558 
" style="fill:none;stroke:#b0b0b0;stroke-width:0.8;"/>
    <path d="M 283.881776 504.019424 
L 454.112485 338.51229 
L 461.128448 111.49479 
" style="fill:none;stroke:#b0b0b0;stroke-width:0.8;"/>
    <path d="M 323.78517 517.051873 
L 491.653598 349.42401 
L 500.385349 121.44527 
" style="fill:none;stroke:#b0b0b0;stroke-width:0.8;"/>
   </g>
   <g id="xtick_1">
    <g id="line2d_2">
     <path d="M 93.619519 440.010536 
L 88.883116 444.079384 
" style="fill:none;stroke:#000000;stroke-linecap:square;stroke-width:0.8;"/>
    </g>
    <g id="text_2">
     <!-- −0.025 -->
     <g transform="translate(66.03445 464.711562)scale(0.1 -0.1)">
      <defs>
       <path d="M 678 2272 
L 4684 2272 
L 4684 1741 
L 678 1741 
L 678 2272 
z
" id="DejaVuSans-2212" transform="scale(0.015625)"/>
       <path d="M 2034 4250 
Q 1547 4250 1301 3770 
Q 1056 3291 1056 2328 
Q 1056 1369 1301 889 
Q 1547 409 2034 409 
Q 2525 409 2770 889 
Q 3016 1369 3016 2328 
Q 3016 3291 2770 3770 
Q 2525 4250 2034 4250 
z
M 2034 4750 
Q 2819 4750 3233 4129 
Q 3647 3509 3647 2328 
Q 3647 1150 3233 529 
Q 2819 -91 2034 -91 
Q 1250 -91 836 529 
Q 422 1150 422 2328 
Q 422 3509 836 4129 
Q 1250 4750 2034 4750 
z
" id="DejaVuSans-30" transform="scale(0.015625)"/>
       <path d="M 684 794 
L 1344 794 
L 1344 0 
L 684 0 
L 684 794 
z
" id="DejaVuSans-2e" transform="scale(0.015625)"/>
       <path d="M 1228 531 
L 3431 531 
L 3431 0 
L 469 0 
L 469 531 
Q 828 903 1448 1529 
Q 2069 2156 2228 2338 
Q 2531 2678 2651 2914 
Q 2772 3150 2772 3378 
Q 2772 3750 2511 3984 
Q 2250 4219 1831 4219 
Q 1534 4219 1204 4116 
Q 875 4013 500 3803 
L 500 4441 
Q 881 4594 1212 4672 
Q 1544 4750 1819 4750 
Q 2544 4750 2975 4387 
Q 3406 4025 3406 3419 
Q 3406 3131 3298 2873 
Q 3191 2616 2906 2266 
Q 2828 2175 2409 1742 
Q 1991 1309 1228 531 
z
" id="DejaVuSans-32" transform="scale(0.015625)"/>
       <path d="M 691 4666 
L 3169 4666 
L 3169 4134 
L 1269 4134 
L 1269 2991 
Q 1406 3038 1543 3061 
Q 1681 3084 1819 3084 
Q 2600 3084 3056 2656 
Q 3513 2228 3513 1497 
Q 3513 744 3044 326 
Q 2575 -91 1722 -91 
Q 1428 -91 1123 -41 
Q 819 9 494 109 
L 494 744 
Q 775 591 1075 516 
Q 1375 441 1709 441 
Q 2250 441 2565 725 
Q 2881 1009 2881 1497 
Q 2881 1984 2565 2268 
Q 2250 2553 1709 2553 
Q 1456 2553 1204 2497 
Q 953 2441 691 2322 
L 691 4666 
z
" id="DejaVuSans-35" transform="scale(0.015625)"/>
      </defs>
      <use xlink:href="#DejaVuSans-2212"/>
      <use x="83.789062" xlink:href="#DejaVuSans-30"/>
      <use x="147.412109" xlink:href="#DejaVuSans-2e"/>
      <use x="179.199219" xlink:href="#DejaVuSans-30"/>
      <use x="242.822266" xlink:href="#DejaVuSans-32"/>
      <use x="306.445312" xlink:href="#DejaVuSans-35"/>
     </g>
    </g>
   </g>
   <g id="xtick_2">
    <g id="line2d_3">
     <path d="M 130.979792 452.200343 
L 126.293735 456.321912 
" style="fill:none;stroke:#000000;stroke-linecap:square;stroke-width:0.8;"/>
    </g>
    <g id="text_3">
     <!-- −0.020 -->
     <g transform="translate(103.430195 477.042707)scale(0.1 -0.1)">
      <use xlink:href="#DejaVuSans-2212"/>
      <use x="83.789062" xlink:href="#DejaVuSans-30"/>
      <use x="147.412109" xlink:href="#DejaVuSans-2e"/>
      <use x="179.199219" xlink:href="#DejaVuSans-30"/>
      <use x="242.822266" xlink:href="#DejaVuSans-32"/>
      <use x="306.445312" xlink:href="#DejaVuSans-30"/>
     </g>
    </g>
   </g>
   <g id="xtick_3">
    <g id="line2d_4">
     <path d="M 168.825197 464.548438 
L 164.191197 468.723759 
" style="fill:none;stroke:#000000;stroke-linecap:square;stroke-width:0.8;"/>
    </g>
    <g id="text_4">
     <!-- −0.015 -->
     <g transform="translate(141.312764 489.53438)scale(0.1 -0.1)">
      <defs>
       <path d="M 794 531 
L 1825 531 
L 1825 4091 
L 703 3866 
L 703 4441 
L 1819 4666 
L 2450 4666 
L 2450 531 
L 3481 531 
L 3481 0 
L 794 0 
L 794 531 
z
" id="DejaVuSans-31" transform="scale(0.015625)"/>
      </defs>
      <use xlink:href="#DejaVuSans-2212"/>
      <use x="83.789062" xlink:href="#DejaVuSans-30"/>
      <use x="147.412109" xlink:href="#DejaVuSans-2e"/>
      <use x="179.199219" xlink:href="#DejaVuSans-30"/>
      <use x="242.822266" xlink:href="#DejaVuSans-31"/>
      <use x="306.445312" xlink:href="#DejaVuSans-35"/>
     </g>
    </g>
   </g>
   <g id="xtick_4">
    <g id="line2d_5">
     <path d="M 207.165244 477.057923 
L 202.58507 481.288054 
" style="fill:none;stroke:#000000;stroke-linecap:square;stroke-width:0.8;"/>
    </g>
    <g id="text_5">
     <!-- −0.010 -->
     <g transform="translate(179.691726 502.189738)scale(0.1 -0.1)">
      <use xlink:href="#DejaVuSans-2212"/>
      <use x="83.789062" xlink:href="#DejaVuSans-30"/>
      <use x="147.412109" xlink:href="#DejaVuSans-2e"/>
      <use x="179.199219" xlink:href="#DejaVuSans-30"/>
      <use x="242.822266" xlink:href="#DejaVuSans-31"/>
      <use x="306.445312" xlink:href="#DejaVuSans-30"/>
     </g>
    </g>
   </g>
   <g id="xtick_5">
    <g id="line2d_6">
     <path d="M 246.009694 489.731983 
L 241.48517 494.018011 
" style="fill:none;stroke:#000000;stroke-linecap:square;stroke-width:0.8;"/>
    </g>
    <g id="text_6">
     <!-- −0.005 -->
     <g transform="translate(218.576901 515.012018)scale(0.1 -0.1)">
      <use xlink:href="#DejaVuSans-2212"/>
      <use x="83.789062" xlink:href="#DejaVuSans-30"/>
      <use x="147.412109" xlink:href="#DejaVuSans-2e"/>
      <use x="179.199219" xlink:href="#DejaVuSans-30"/>
      <use x="242.822266" xlink:href="#DejaVuSans-30"/>
      <use x="306.445312" xlink:href="#DejaVuSans-35"/>
     </g>
    </g>
   </g>
   <g id="xtick_6">
    <g id="line2d_7">
     <path d="M 285.368568 502.573888 
L 280.901577 506.916928 
" style="fill:none;stroke:#000000;stroke-linecap:square;stroke-width:0.8;"/>
    </g>
    <g id="text_7">
     <!-- 0.000 -->
     <g transform="translate(262.168216 528.004545)scale(0.1 -0.1)">
      <use xlink:href="#DejaVuSans-30"/>
      <use x="63.623047" xlink:href="#DejaVuSans-2e"/>
      <use x="95.410156" xlink:href="#DejaVuSans-30"/>
      <use x="159.033203" xlink:href="#DejaVuSans-30"/>
      <use x="222.65625" xlink:href="#DejaVuSans-30"/>
     </g>
    </g>
   </g>
   <g id="xtick_7">
    <g id="line2d_8">
     <path d="M 325.252151 515.586994 
L 320.844638 519.988192 
" style="fill:none;stroke:#000000;stroke-linecap:square;stroke-width:0.8;"/>
    </g>
    <g id="text_8">
     <!-- 0.005 -->
     <g transform="translate(302.096333 541.170733)scale(0.1 -0.1)">
      <use xlink:href="#DejaVuSans-30"/>
      <use x="63.623047" xlink:href="#DejaVuSans-2e"/>
      <use x="95.410156" xlink:href="#DejaVuSans-30"/>
      <use x="159.033203" xlink:href="#DejaVuSans-30"/>
      <use x="222.65625" xlink:href="#DejaVuSans-35"/>
     </g>
    </g>
   </g>
  </g>
  <g id="axis3d_2">
   <g id="line2d_9">
    <path d="M 529.521668 360.430763 
L 364.08181 530.212756 
" style="fill:none;stroke:#000000;stroke-linecap:square;stroke-width:0.8;"/>
   </g>
   <g id="text_9">
    <!-- y (m) -->
    <g transform="translate(470.139263 480.978729)rotate(-45.742112)scale(0.1 -0.1)">
     <defs>
      <path d="M 2059 -325 
Q 1816 -950 1584 -1140 
Q 1353 -1331 966 -1331 
L 506 -1331 
L 506 -850 
L 844 -850 
Q 1081 -850 1212 -737 
Q 1344 -625 1503 -206 
L 1606 56 
L 191 3500 
L 800 3500 
L 1894 763 
L 2988 3500 
L 3597 3500 
L 2059 -325 
z
" id="DejaVuSans-79" transform="scale(0.015625)"/>
     </defs>
     <use xlink:href="#DejaVuSans-79"/>
     <use x="59.179688" xlink:href="#DejaVuSans-20"/>
     <use x="90.966797" xlink:href="#DejaVuSans-28"/>
     <use x="129.980469" xlink:href="#DejaVuSans-6d"/>
     <use x="227.392578" xlink:href="#DejaVuSans-29"/>
    </g>
   </g>
   <g id="Line3DCollection_2">
    <path d="M 61.453911 179.051104 
L 71.77725 412.479127 
L 381.424478 512.414912 
" style="fill:none;stroke:#b0b0b0;stroke-width:0.8;"/>
    <path d="M 86.561979 160.72838 
L 95.678657 392.444493 
L 403.085847 490.185018 
" style="fill:none;stroke:#b0b0b0;stroke-width:0.8;"/>
    <path d="M 111.111412 142.813322 
L 119.071234 372.836371 
L 424.261881 468.453199 
" style="fill:none;stroke:#b0b0b0;stroke-width:0.8;"/>
    <path d="M 135.120649 125.292474 
L 141.971059 353.641284 
L 444.968709 447.202899 
" style="fill:none;stroke:#b0b0b0;stroke-width:0.8;"/>
    <path d="M 158.607325 108.152967 
L 164.393538 334.846318 
L 465.221755 426.418292 
" style="fill:none;stroke:#b0b0b0;stroke-width:0.8;"/>
    <path d="M 181.588318 91.382486 
L 186.353442 316.43909 
L 485.035774 406.084234 
" style="fill:none;stroke:#b0b0b0;stroke-width:0.8;"/>
    <path d="M 204.079785 74.969238 
L 207.864941 298.407726 
L 504.424889 386.186232 
" style="fill:none;stroke:#b0b0b0;stroke-width:0.8;"/>
    <path d="M 226.097202 58.90193 
L 228.941629 280.740828 
L 523.402621 366.71041 
" style="fill:none;stroke:#b0b0b0;stroke-width:0.8;"/>
   </g>
   <g id="xtick_8">
    <g id="line2d_10">
     <path d="M 378.815478 511.572882 
L 386.649205 514.101145 
" style="fill:none;stroke:#000000;stroke-linecap:square;stroke-width:0.8;"/>
    </g>
    <g id="text_10">
     <!-- −0.025 -->
     <g transform="translate(375.75929 533.389468)scale(0.1 -0.1)">
      <use xlink:href="#DejaVuSans-2212"/>
      <use x="83.789062" xlink:href="#DejaVuSans-30"/>
      <use x="147.412109" xlink:href="#DejaVuSans-2e"/>
      <use x="179.199219" xlink:href="#DejaVuSans-30"/>
      <use x="242.822266" xlink:href="#DejaVuSans-32"/>
      <use x="306.445312" xlink:href="#DejaVuSans-35"/>
     </g>
    </g>
   </g>
   <g id="xtick_9">
    <g id="line2d_11">
     <path d="M 400.497203 489.361955 
L 408.269734 491.833242 
" style="fill:none;stroke:#000000;stroke-linecap:square;stroke-width:0.8;"/>
    </g>
    <g id="text_11">
     <!-- −0.020 -->
     <g transform="translate(397.281293 511.001688)scale(0.1 -0.1)">
      <use xlink:href="#DejaVuSans-2212"/>
      <use x="83.789062" xlink:href="#DejaVuSans-30"/>
      <use x="147.412109" xlink:href="#DejaVuSans-2e"/>
      <use x="179.199219" xlink:href="#DejaVuSans-30"/>
      <use x="242.822266" xlink:href="#DejaVuSans-32"/>
      <use x="306.445312" xlink:href="#DejaVuSans-30"/>
     </g>
    </g>
   </g>
   <g id="xtick_10">
    <g id="line2d_12">
     <path d="M 421.69334 467.64847 
L 429.405436 470.064684 
" style="fill:none;stroke:#000000;stroke-linecap:square;stroke-width:0.8;"/>
    </g>
    <g id="text_12">
     <!-- −0.015 -->
     <g transform="translate(418.320948 489.11566)scale(0.1 -0.1)">
      <use xlink:href="#DejaVuSans-2212"/>
      <use x="83.789062" xlink:href="#DejaVuSans-30"/>
      <use x="147.412109" xlink:href="#DejaVuSans-2e"/>
      <use x="179.199219" xlink:href="#DejaVuSans-30"/>
      <use x="242.822266" xlink:href="#DejaVuSans-31"/>
      <use x="306.445312" xlink:href="#DejaVuSans-35"/>
     </g>
    </g>
   </g>
   <g id="xtick_11">
    <g id="line2d_13">
     <path d="M 442.420022 446.415899 
L 450.072436 448.778862 
" style="fill:none;stroke:#000000;stroke-linecap:square;stroke-width:0.8;"/>
    </g>
    <g id="text_13">
     <!-- −0.010 -->
     <g transform="translate(438.89429 467.714703)scale(0.1 -0.1)">
      <use xlink:href="#DejaVuSans-2212"/>
      <use x="83.789062" xlink:href="#DejaVuSans-30"/>
      <use x="147.412109" xlink:href="#DejaVuSans-2e"/>
      <use x="179.199219" xlink:href="#DejaVuSans-30"/>
      <use x="242.822266" xlink:href="#DejaVuSans-31"/>
      <use x="306.445312" xlink:href="#DejaVuSans-30"/>
     </g>
    </g>
   </g>
   <g id="xtick_12">
    <g id="line2d_14">
     <path d="M 462.692672 425.64844 
L 470.286155 427.959893 
" style="fill:none;stroke:#000000;stroke-linecap:square;stroke-width:0.8;"/>
    </g>
    <g id="text_14">
     <!-- −0.005 -->
     <g transform="translate(459.016652 446.782869)scale(0.1 -0.1)">
      <use xlink:href="#DejaVuSans-2212"/>
      <use x="83.789062" xlink:href="#DejaVuSans-30"/>
      <use x="147.412109" xlink:href="#DejaVuSans-2e"/>
      <use x="179.199219" xlink:href="#DejaVuSans-30"/>
      <use x="242.822266" xlink:href="#DejaVuSans-30"/>
      <use x="306.445312" xlink:href="#DejaVuSans-35"/>
     </g>
    </g>
   </g>
   <g id="xtick_13">
    <g id="line2d_15">
     <path d="M 482.526049 405.330976 
L 490.061344 407.592585 
" style="fill:none;stroke:#000000;stroke-linecap:square;stroke-width:0.8;"/>
    </g>
    <g id="text_15">
     <!-- 0.000 -->
     <g transform="translate(482.892546 426.304898)scale(0.1 -0.1)">
      <use xlink:href="#DejaVuSans-30"/>
      <use x="63.623047" xlink:href="#DejaVuSans-2e"/>
      <use x="95.410156" xlink:href="#DejaVuSans-30"/>
      <use x="159.033203" xlink:href="#DejaVuSans-30"/>
      <use x="222.65625" xlink:href="#DejaVuSans-30"/>
     </g>
    </g>
   </g>
   <g id="xtick_14">
    <g id="line2d_16">
     <path d="M 501.934277 385.449038 
L 509.41212 387.662398 
" style="fill:none;stroke:#000000;stroke-linecap:square;stroke-width:0.8;"/>
    </g>
    <g id="text_16">
     <!-- 0.005 -->
     <g transform="translate(502.156322 406.266188)scale(0.1 -0.1)">
      <use xlink:href="#DejaVuSans-30"/>
      <use x="63.623047" xlink:href="#DejaVuSans-2e"/>
      <use x="95.410156" xlink:href="#DejaVuSans-30"/>
      <use x="159.033203" xlink:href="#DejaVuSans-30"/>
      <use x="222.65625" xlink:href="#DejaVuSans-35"/>
     </g>
    </g>
   </g>
   <g id="xtick_15">
    <g id="line2d_17">
     <path d="M 520.930882 365.988771 
L 528.352 368.155409 
" style="fill:none;stroke:#000000;stroke-linecap:square;stroke-width:0.8;"/>
    </g>
    <g id="text_17">
     <!-- 0.010 -->
     <g transform="translate(521.011268 386.652756)scale(0.1 -0.1)">
      <use xlink:href="#DejaVuSans-30"/>
      <use x="63.623047" xlink:href="#DejaVuSans-2e"/>
      <use x="95.410156" xlink:href="#DejaVuSans-30"/>
      <use x="159.033203" xlink:href="#DejaVuSans-31"/>
      <use x="222.65625" xlink:href="#DejaVuSans-30"/>
     </g>
    </g>
   </g>
  </g>
  <g id="axis3d_3">
   <g id="line2d_18">
    <path d="M 529.521668 360.430763 
L 540.005628 131.487856 
" style="fill:none;stroke:#000000;stroke-linecap:square;stroke-width:0.8;"/>
   </g>
   <g id="text_18">
    <!-- z (m) -->
    <g transform="translate(577.326905 256.136884)rotate(-87.378092)scale(0.1 -0.1)">
     <defs>
      <path d="M 353 3500 
L 3084 3500 
L 3084 2975 
L 922 459 
L 3084 459 
L 3084 0 
L 275 0 
L 275 525 
L 2438 3041 
L 353 3041 
L 353 3500 
z
" id="DejaVuSans-7a" transform="scale(0.015625)"/>
     </defs>
     <use xlink:href="#DejaVuSans-7a"/>
     <use x="52.490234" xlink:href="#DejaVuSans-20"/>
     <use x="84.277344" xlink:href="#DejaVuSans-28"/>
     <use x="123.291016" xlink:href="#DejaVuSans-6d"/>
     <use x="220.703125" xlink:href="#DejaVuSans-29"/>
    </g>
   </g>
   <g id="Line3DCollection_3">
    <path d="M 530.918921 329.918319 
L 235.402202 245.490131 
L 51.156364 397.257496 
" style="fill:none;stroke:#b0b0b0;stroke-width:0.8;"/>
    <path d="M 532.67925 291.477247 
L 234.974369 208.284664 
L 49.259757 357.87324 
" style="fill:none;stroke:#b0b0b0;stroke-width:0.8;"/>
    <path d="M 534.466101 252.456983 
L 234.5404 170.545599 
L 47.333477 317.872775 
" style="fill:none;stroke:#b0b0b0;stroke-width:0.8;"/>
    <path d="M 536.280079 212.844338 
L 234.100162 132.261374 
L 45.37682 277.241526 
" style="fill:none;stroke:#b0b0b0;stroke-width:0.8;"/>
    <path d="M 538.121806 172.625718 
L 233.653518 93.420089 
L 43.389062 235.964453 
" style="fill:none;stroke:#b0b0b0;stroke-width:0.8;"/>
   </g>
   <g id="xtick_16">
    <g id="line2d_19">
     <path d="M 528.438029 329.209536 
L 535.886641 331.337581 
" style="fill:none;stroke:#000000;stroke-linecap:square;stroke-width:0.8;"/>
    </g>
    <g id="text_19">
     <!-- 0.94 -->
     <g transform="translate(538.170181 334.936379)scale(0.1 -0.1)">
      <defs>
       <path d="M 703 97 
L 703 672 
Q 941 559 1184 500 
Q 1428 441 1663 441 
Q 2288 441 2617 861 
Q 2947 1281 2994 2138 
Q 2813 1869 2534 1725 
Q 2256 1581 1919 1581 
Q 1219 1581 811 2004 
Q 403 2428 403 3163 
Q 403 3881 828 4315 
Q 1253 4750 1959 4750 
Q 2769 4750 3195 4129 
Q 3622 3509 3622 2328 
Q 3622 1225 3098 567 
Q 2575 -91 1691 -91 
Q 1453 -91 1209 -44 
Q 966 3 703 97 
z
M 1959 2075 
Q 2384 2075 2632 2365 
Q 2881 2656 2881 3163 
Q 2881 3666 2632 3958 
Q 2384 4250 1959 4250 
Q 1534 4250 1286 3958 
Q 1038 3666 1038 3163 
Q 1038 2656 1286 2365 
Q 1534 2075 1959 2075 
z
" id="DejaVuSans-39" transform="scale(0.015625)"/>
       <path d="M 2419 4116 
L 825 1625 
L 2419 1625 
L 2419 4116 
z
M 2253 4666 
L 3047 4666 
L 3047 1625 
L 3713 1625 
L 3713 1100 
L 3047 1100 
L 3047 0 
L 2419 0 
L 2419 1100 
L 313 1100 
L 313 1709 
L 2253 4666 
z
" id="DejaVuSans-34" transform="scale(0.015625)"/>
      </defs>
      <use xlink:href="#DejaVuSans-30"/>
      <use x="63.623047" xlink:href="#DejaVuSans-2e"/>
      <use x="95.410156" xlink:href="#DejaVuSans-39"/>
      <use x="159.033203" xlink:href="#DejaVuSans-34"/>
     </g>
    </g>
   </g>
   <g id="xtick_17">
    <g id="line2d_20">
     <path d="M 530.179109 290.778591 
L 537.685558 292.876242 
" style="fill:none;stroke:#000000;stroke-linecap:square;stroke-width:0.8;"/>
    </g>
    <g id="text_20">
     <!-- 0.96 -->
     <g transform="translate(540.065198 296.532197)scale(0.1 -0.1)">
      <defs>
       <path d="M 2113 2584 
Q 1688 2584 1439 2293 
Q 1191 2003 1191 1497 
Q 1191 994 1439 701 
Q 1688 409 2113 409 
Q 2538 409 2786 701 
Q 3034 994 3034 1497 
Q 3034 2003 2786 2293 
Q 2538 2584 2113 2584 
z
M 3366 4563 
L 3366 3988 
Q 3128 4100 2886 4159 
Q 2644 4219 2406 4219 
Q 1781 4219 1451 3797 
Q 1122 3375 1075 2522 
Q 1259 2794 1537 2939 
Q 1816 3084 2150 3084 
Q 2853 3084 3261 2657 
Q 3669 2231 3669 1497 
Q 3669 778 3244 343 
Q 2819 -91 2113 -91 
Q 1303 -91 875 529 
Q 447 1150 447 2328 
Q 447 3434 972 4092 
Q 1497 4750 2381 4750 
Q 2619 4750 2861 4703 
Q 3103 4656 3366 4563 
z
" id="DejaVuSans-36" transform="scale(0.015625)"/>
      </defs>
      <use xlink:href="#DejaVuSans-30"/>
      <use x="63.623047" xlink:href="#DejaVuSans-2e"/>
      <use x="95.410156" xlink:href="#DejaVuSans-39"/>
      <use x="159.033203" xlink:href="#DejaVuSans-36"/>
     </g>
    </g>
   </g>
   <g id="xtick_18">
    <g id="line2d_21">
     <path d="M 531.94641 251.768841 
L 539.511601 253.834937 
" style="fill:none;stroke:#000000;stroke-linecap:square;stroke-width:0.8;"/>
    </g>
    <g id="text_21">
     <!-- 0.98 -->
     <g transform="translate(541.988725 257.550229)scale(0.1 -0.1)">
      <defs>
       <path d="M 2034 2216 
Q 1584 2216 1326 1975 
Q 1069 1734 1069 1313 
Q 1069 891 1326 650 
Q 1584 409 2034 409 
Q 2484 409 2743 651 
Q 3003 894 3003 1313 
Q 3003 1734 2745 1975 
Q 2488 2216 2034 2216 
z
M 1403 2484 
Q 997 2584 770 2862 
Q 544 3141 544 3541 
Q 544 4100 942 4425 
Q 1341 4750 2034 4750 
Q 2731 4750 3128 4425 
Q 3525 4100 3525 3541 
Q 3525 3141 3298 2862 
Q 3072 2584 2669 2484 
Q 3125 2378 3379 2068 
Q 3634 1759 3634 1313 
Q 3634 634 3220 271 
Q 2806 -91 2034 -91 
Q 1263 -91 848 271 
Q 434 634 434 1313 
Q 434 1759 690 2068 
Q 947 2378 1403 2484 
z
M 1172 3481 
Q 1172 3119 1398 2916 
Q 1625 2713 2034 2713 
Q 2441 2713 2670 2916 
Q 2900 3119 2900 3481 
Q 2900 3844 2670 4047 
Q 2441 4250 2034 4250 
Q 1625 4250 1398 4047 
Q 1172 3844 1172 3481 
z
" id="DejaVuSans-38" transform="scale(0.015625)"/>
      </defs>
      <use xlink:href="#DejaVuSans-30"/>
      <use x="63.623047" xlink:href="#DejaVuSans-2e"/>
      <use x="95.410156" xlink:href="#DejaVuSans-39"/>
      <use x="159.033203" xlink:href="#DejaVuSans-38"/>
     </g>
    </g>
   </g>
   <g id="xtick_19">
    <g id="line2d_22">
     <path d="M 533.740531 212.167111 
L 541.365389 214.200448 
" style="fill:none;stroke:#000000;stroke-linecap:square;stroke-width:0.8;"/>
    </g>
    <g id="text_22">
     <!-- 1.00 -->
     <g transform="translate(543.941411 217.97734)scale(0.1 -0.1)">
      <use xlink:href="#DejaVuSans-31"/>
      <use x="63.623047" xlink:href="#DejaVuSans-2e"/>
      <use x="95.410156" xlink:href="#DejaVuSans-30"/>
      <use x="159.033203" xlink:href="#DejaVuSans-30"/>
     </g>
    </g>
   </g>
   <g id="xtick_20">
    <g id="line2d_23">
     <path d="M 535.562086 171.959822 
L 543.247558 173.959153 
" style="fill:none;stroke:#000000;stroke-linecap:square;stroke-width:0.8;"/>
    </g>
    <g id="text_23">
     <!-- 1.02 -->
     <g transform="translate(545.923923 177.79999)scale(0.1 -0.1)">
      <use xlink:href="#DejaVuSans-31"/>
      <use x="63.623047" xlink:href="#DejaVuSans-2e"/>
      <use x="95.410156" xlink:href="#DejaVuSans-30"/>
      <use x="159.033203" xlink:href="#DejaVuSans-32"/>
     </g>
    </g>
   </g>
  </g>
  <g id="axes_1">
   <g id="line2d_24">
    <path clip-path="url(#pcdf4f30946)" d="M 411.592401 234.572513 
L 411.601209 234.175263 
L 410.973929 257.858257 
L 410.595099 265.473525 
L 409.971842 273.504784 
L 409.353946 278.991513 
L 408.532184 284.570422 
L 407.469004 290.188984 
L 406.140879 295.852076 
L 404.522699 301.524233 
L 402.599427 307.195686 
L 400.359579 312.861114 
L 397.790394 318.499089 
L 394.883856 324.110039 
L 391.62788 329.683207 
L 388.011416 335.21501 
L 384.02456 340.703568 
L 379.657356 346.142773 
L 374.904858 351.533768 
L 369.765263 356.874108 
L 364.240961 362.163453 
L 358.336991 367.401588 
L 352.060352 372.586848 
L 345.418802 377.718287 
L 341.90186 380.027231 
L 338.234884 382.086315 
L 334.419776 383.895457 
L 330.459354 385.454376 
L 326.357356 386.762593 
L 322.140582 387.914173 
L 317.81385 388.908396 
L 313.382696 389.744419 
L 308.85338 390.421282 
L 299.539398 391.356132 
L 289.963428 391.893007 
L 280.186236 392.023699 
L 270.278766 391.867148 
L 260.300369 391.459724 
L 250.300276 390.82304 
L 240.320017 390.032784 
L 225.467281 388.567381 
L 210.853481 386.872374 
L 196.595537 384.984762 
L 182.815518 382.961766 
L 169.633995 380.830873 
L 157.161552 378.606588 
L 145.484087 376.314909 
L 134.6744 373.96244 
L 124.792168 371.559839 
L 115.894871 369.10924 
L 110.537904 367.447933 
L 105.657624 365.765028 
L 101.26693 364.060096 
L 97.375821 362.332893 
L 93.990873 360.584684 
L 91.116463 358.815515 
L 88.754357 357.025907 
L 86.904305 355.216312 
L 85.564961 353.386855 
L 85.086141 352.464522 
L 84.734011 351.537192 
L 84.508071 350.604933 
L 84.40775 349.667825 
L 84.432533 348.725551 
L 84.581703 347.778213 
L 84.854425 346.825931 
L 85.766607 344.907103 
L 87.160494 342.969058 
L 89.025443 341.012924 
L 91.349187 339.039933 
L 94.118194 337.050476 
L 97.317459 335.046484 
L 100.931645 333.028282 
L 104.944431 330.997314 
L 109.33897 328.955089 
L 116.608862 325.872269 
L 124.637632 322.771344 
L 133.360789 319.657431 
L 142.710773 316.536186 
L 156.031996 312.374577 
L 170.17766 308.226094 
L 184.983319 304.10547 
L 204.172264 299.016999 
L 223.830651 294.025674 
L 247.624 288.205214 
L 278.925359 280.806944 
L 319.544481 271.471546 
L 385.612634 256.333686 
L 405.252938 251.60899 
L 418.874456 248.115063 
L 427.897956 245.575908 
L 433.587315 243.758894 
L 436.977609 242.479832 
L 439.229287 241.397948 
L 440.274143 240.663318 
L 440.650535 240.182846 
L 440.703344 239.758728 
L 440.456172 239.387076 
L 439.933058 239.064021 
L 438.848401 238.702471 
L 436.95183 238.34908 
L 434.031261 238.047198 
L 429.35345 237.80631 
L 421.505507 237.668718 
L 402.111256 237.438823 
L 399.556551 237.179025 
L 398.657369 236.92189 
L 398.454074 236.700457 
L 398.544131 236.501583 
L 398.955899 236.227469 
L 400.046493 235.800669 
L 402.498002 235.119665 
L 407.229949 234.076706 
L 415.628314 232.488591 
L 433.350318 229.233754 
L 433.289402 229.209225 
L 432.521952 229.214799 
L 428.166372 229.554707 
L 426.70358 229.631378 
L 427.225244 229.518795 
L 427.653356 229.451379 
L 427.727648 230.61574 
L 427.755674 236.344688 
L 427.618503 248.270896 
L 427.321877 258.072621 
L 426.866874 265.984147 
L 426.383131 271.409611 
L 425.7123 276.944363 
L 424.814928 282.535528 
L 423.661526 288.169054 
L 422.22905 293.836161 
L 420.495087 299.501057 
L 418.448546 305.166551 
L 416.075769 310.811747 
L 413.367576 316.42983 
L 410.314415 322.017438 
L 406.903688 327.56371 
L 403.125644 333.068879 
L 398.969681 338.526582 
L 394.428372 343.935573 
L 389.498502 349.295776 
L 384.180191 354.60467 
L 378.477418 359.862784 
L 372.396208 365.068801 
L 365.944291 370.221583 
L 362.581714 372.777687 
L 359.068088 375.083805 
L 355.404417 377.140056 
L 351.592622 378.946361 
L 347.635534 380.502442 
L 343.536906 381.807823 
L 339.323361 382.95658 
L 334.999724 383.947994 
L 330.571539 384.781227 
L 326.045071 385.455321 
L 316.736315 386.384715 
L 307.164615 386.916275 
L 297.390759 387.041817 
L 287.485468 386.880308 
L 277.508047 386.468136 
L 267.507721 385.826933 
L 257.525914 385.032403 
L 242.668462 383.561089 
L 228.046937 381.860846 
L 213.778237 379.968738 
L 199.984339 377.942036 
L 186.785806 375.808264 
L 174.293295 373.581942 
L 162.592797 371.289085 
L 151.757271 368.936301 
L 141.846542 366.534262 
L 132.918242 364.085114 
L 127.539295 362.42527 
L 122.63604 360.744223 
L 118.221433 359.04154 
L 114.305533 357.316971 
L 110.894979 355.571772 
L 107.994218 353.805981 
L 105.605083 352.02011 
L 103.727393 350.2146 
L 102.35987 348.389564 
L 101.866779 347.469564 
L 101.500266 346.544648 
L 101.259841 345.614882 
L 101.144938 344.680343 
L 101.155053 343.740714 
L 101.289475 342.796094 
L 101.547378 341.846601 
L 101.927819 340.892372 
L 103.052098 338.969895 
L 104.65288 337.028774 
L 106.718618 335.070647 
L 109.236597 333.095818 
L 112.192455 331.105688 
L 115.571002 329.101641 
L 119.356586 327.083997 
L 123.532522 325.054753 
L 130.491387 321.990439 
L 138.23054 318.90668 
L 146.686825 315.807848 
L 155.79358 312.700378 
L 165.481869 309.590015 
L 179.183281 305.448727 
L 193.62869 301.328066 
L 212.483667 296.228569 
L 231.934369 291.213774 
L 255.636717 285.34922 
L 283.174294 278.778549 
L 317.345182 270.862812 
L 412.688595 248.956724 
L 428.073248 245.147019 
L 438.59225 242.345278 
L 445.495873 240.317623 
L 450.554159 238.612147 
L 453.453266 237.418903 
L 454.974098 236.602143 
L 455.838859 235.898655 
L 456.088585 235.440055 
L 456.02214 235.036351 
L 455.663281 234.683889 
L 455.03613 234.378705 
L 453.824721 234.038992 
L 451.788888 233.709845 
L 448.165685 233.397332 
L 442.617383 233.185917 
L 433.266097 233.101452 
L 418.383336 232.98963 
L 414.90789 232.766273 
L 413.403023 232.47216 
L 413.062213 232.21953 
L 413.116707 232.027006 
L 413.484205 231.760932 
L 414.513309 231.345532 
L 416.878289 230.680972 
L 421.492321 229.661007 
L 429.721651 228.106464 
L 446.859516 224.97537 
L 446.780739 224.948076 
L 445.871324 224.971179 
L 440.849918 225.401667 
L 439.362809 225.500943 
L 440.052979 225.573976 
L 440.088511 228.311419 
L 439.952026 239.803513 
L 439.622349 251.50042 
L 439.211789 259.28016 
L 438.783163 264.657358 
L 438.184576 270.141548 
L 437.380279 275.718082 
L 436.332915 281.33435 
L 435.018885 286.995194 
L 433.413153 292.665069 
L 431.50064 298.334163 
L 429.269845 303.997146 
L 426.708099 309.632591 
L 423.807412 315.240937 
L 420.555796 320.811421 
L 416.942271 326.340464 
L 412.956982 331.826182 
L 408.590018 337.26245 
L 403.836428 342.650403 
L 398.694407 347.987578 
L 393.166325 353.273633 
L 387.257226 358.508362 
L 380.974131 363.690127 
L 374.324836 368.817999 
L 370.804625 371.124976 
L 367.135155 373.181921 
L 363.318339 374.988755 
L 359.357004 376.545202 
L 355.254895 377.850787 
L 351.03838 378.999639 
L 346.712279 379.99104 
L 342.282128 380.824154 
L 337.754184 381.498027 
L 328.443756 382.42671 
L 318.87161 382.957303 
L 309.098471 383.081639 
L 299.194703 382.91876 
L 289.219464 382.505085 
L 279.221877 381.862267 
L 269.243143 381.066054 
L 254.390806 379.592121 
L 239.774602 377.889236 
L 225.511148 375.994535 
L 211.722085 373.965374 
L 198.527731 371.829336 
L 186.038559 369.600991 
L 174.340391 367.306389 
L 163.506075 364.952168 
L 153.595319 362.54903 
L 144.665655 360.099149 
L 139.285011 358.439033 
L 134.379402 356.757893 
L 129.961766 355.055303 
L 126.042153 353.331015 
L 122.627191 351.586287 
L 119.721325 349.821157 
L 117.326388 348.036137 
L 115.442201 346.231667 
L 114.067489 344.407859 
L 113.570545 343.488545 
L 113.200009 342.56436 
L 112.955389 341.635372 
L 112.836122 340.701658 
L 112.841705 339.762899 
L 112.971428 338.819195 
L 113.224467 337.870664 
L 113.599878 336.917441 
L 114.713613 334.99711 
L 116.303217 333.058308 
L 118.357162 331.102668 
L 120.862753 329.130487 
L 123.805649 327.143162 
L 127.170682 325.14207 
L 130.942223 323.127524 
L 135.103609 321.101517 
L 142.039754 318.042302 
L 149.755184 314.963913 
L 158.186834 311.870699 
L 167.26813 308.769067 
L 176.930231 305.664739 
L 190.595749 301.531757 
L 205.004343 297.419644 
L 223.81232 292.331085 
L 243.215295 287.327407 
L 266.859929 281.476281 
L 294.330295 274.921196 
L 328.416169 267.025024 
L 423.48627 245.179682 
L 438.811708 241.38246 
L 449.281994 238.590739 
L 456.146057 236.571035 
L 461.166683 234.872965 
L 464.035747 233.68551 
L 465.533353 232.873151 
L 466.375544 232.173879 
L 466.60874 231.71833 
L 466.526077 231.317592 
L 466.151286 230.968015 
L 465.238835 230.574763 
L 463.516189 230.187839 
L 460.744125 229.854481 
L 456.779873 229.61027 
L 450.300637 229.452414 
L 437.773284 229.427781 
L 428.137567 229.320448 
L 424.766373 229.094657 
L 423.446018 228.83627 
L 423.072727 228.589897 
L 423.105324 228.401622 
L 423.4452 228.140938 
L 424.435222 227.733216 
L 426.743706 227.07984 
L 431.277848 226.075802 
L 439.387196 224.545272 
L 456.101533 221.504235 
L 455.956785 221.475631 
L 454.56154 221.549478 
L 447.999996 222.137735 
L 448.497265 222.057021 
L 448.532175 223.229103 
L 448.453316 230.646981 
L 448.154872 243.295809 
L 447.701886 253.339564 
L 447.084776 261.373315 
L 446.468687 266.861956 
L 445.646964 272.442918 
L 444.582378 278.063549 
L 443.251352 283.728684 
L 441.628938 289.402745 
L 439.700095 295.075909 
L 437.453337 300.742839 
L 434.876036 306.382096 
L 431.960199 311.994118 
L 428.693848 317.568141 
L 425.066006 323.100585 
L 421.066816 328.589566 
L 416.686378 334.028957 
L 411.919742 339.419893 
L 406.765105 344.759907 
L 401.224838 350.048658 
L 395.303979 355.285942 
L 389.009542 360.470121 
L 382.349312 365.600272 
L 375.33078 370.675518 
L 367.961255 375.694658 
L 364.147245 378.182854 
L 360.190987 380.420863 
L 356.093642 382.408929 
L 351.857285 384.147104 
L 347.484905 385.635242 
L 342.980412 386.873007 
L 338.369005 387.954707 
L 333.655655 388.879752 
L 328.84605 389.647436 
L 323.946602 390.256935 
L 313.916636 391.060488 
L 303.654585 391.471333 
L 293.222631 391.481425 
L 282.69069 391.208502 
L 272.119164 390.687275 
L 261.558645 389.937573 
L 251.050622 389.033034 
L 240.634338 387.968301 
L 225.252523 386.169078 
L 210.2664 384.157286 
L 195.79543 382.003721 
L 181.966629 379.725396 
L 168.895563 377.350564 
L 156.678587 374.897424 
L 145.394273 372.375054 
L 135.104584 369.797261 
L 125.867764 367.165093 
L 120.32146 365.382258 
L 115.28229 363.575725 
L 110.763261 361.746427 
L 106.775564 359.89332 
L 103.326695 358.017192 
L 100.421434 356.118342 
L 98.061982 354.196985 
L 96.247893 352.253748 
L 95.544763 351.274096 
L 94.9771 350.289188 
L 94.544554 349.298821 
L 94.246593 348.303076 
L 94.082612 347.302048 
L 94.051929 346.295836 
L 94.15379 345.284548 
L 94.387523 344.267842 
L 94.752225 343.245844 
L 95.246873 342.218692 
L 96.621333 340.149559 
L 98.500868 338.060389 
L 100.873298 335.952348 
L 103.724766 333.826753 
L 107.04013 331.68403 
L 110.802673 329.526319 
L 114.995368 327.354059 
L 119.600148 325.168918 
L 127.239321 321.870358 
L 135.699361 318.550794 
L 144.912463 315.215395 
L 154.807468 311.870908 
L 165.310828 308.522982 
L 180.131832 304.066274 
L 195.723374 299.632325 
L 211.910981 295.237208 
L 232.723917 289.822638 
L 258.122045 283.483397 
L 287.674447 276.371899 
L 324.40938 267.792288 
L 429.701236 243.406711 
L 445.958287 239.336954 
L 457.040929 236.348845 
L 464.288767 234.189759 
L 469.573143 232.376975 
L 472.578414 231.111187 
L 474.135342 230.246479 
L 474.996816 229.503199 
L 475.220532 229.019628 
L 475.109737 228.594989 
L 474.689829 228.225097 
L 473.986595 227.905799 
L 472.6532 227.551905 
L 470.437254 227.211483 
L 467.130136 226.928703 
L 461.948834 226.71652 
L 453.4136 226.622131 
L 433.532799 226.496481 
L 430.578354 226.2586 
L 429.358395 225.970981 
L 429.101566 225.74738 
L 429.164009 225.545239 
L 429.558905 225.265288 
L 430.655417 224.827382 
L 433.164502 224.125692 
L 437.655877 223.127035 
L 445.865992 221.558714 
L 464.260459 218.191601 
L 464.031023 218.160233 
L 462.20824 218.281374 
L 455.328415 218.943186 
L 455.700777 218.886007 
L 455.72931 220.059701 
L 455.595946 229.3296 
L 455.22056 242.569047 
L 454.84059 250.190832 
L 454.211148 258.229508 
L 453.587054 263.721417 
L 452.757528 269.305617 
L 451.685431 274.929408 
L 450.347178 280.597622 
L 448.717878 286.274651 
L 446.782493 291.95066 
L 444.529536 297.620311 
L 441.946397 303.262155 
L 439.025063 308.876636 
L 435.753557 314.452987 
L 432.120887 319.987632 
L 428.117185 325.47869 
L 423.732541 330.920029 
L 418.961988 336.312787 
L 413.803709 341.654495 
L 408.26006 346.944812 
L 402.336059 352.183537 
L 396.038704 357.369037 
L 389.375761 362.500394 
L 382.354701 367.576738 
L 374.982818 372.596875 
L 371.167688 375.085531 
L 367.210681 377.323837 
L 363.112957 379.312037 
L 358.876586 381.050181 
L 354.504555 382.538129 
L 350.000768 383.775541 
L 345.390288 384.856784 
L 340.678081 385.781268 
L 335.869834 386.54829 
L 330.971953 387.157026 
L 320.94564 387.958791 
L 310.687682 388.367603 
L 300.260226 388.375432 
L 289.733001 388.100095 
L 279.166339 387.57634 
L 268.61078 386.824022 
L 258.107703 385.916828 
L 247.696331 384.849413 
L 232.321641 383.046193 
L 217.342214 381.030486 
L 202.877312 378.873167 
L 189.053827 376.591299 
L 175.987218 374.213185 
L 163.773763 371.757059 
L 152.491984 369.232028 
L 142.203786 366.651923 
L 132.967371 364.017814 
L 127.420712 362.233899 
L 122.380676 360.426463 
L 117.860267 358.596442 
L 113.870672 356.742794 
L 110.419391 354.866309 
L 107.511207 352.967285 
L 105.148318 351.045969 
L 103.330248 349.103081 
L 102.624926 348.123719 
L 102.05494 347.139178 
L 101.619926 346.149292 
L 101.319355 345.154144 
L 101.152621 344.153827 
L 101.119048 343.14844 
L 101.217883 342.138091 
L 101.448449 341.122458 
L 101.809846 340.101663 
L 102.301056 339.075846 
L 103.668246 337.009777 
L 105.540004 334.92421 
L 107.904174 332.820313 
L 110.746923 330.699396 
L 114.053137 328.561878 
L 117.806121 326.40989 
L 121.988877 324.24385 
L 126.583363 322.065412 
L 134.206486 318.777774 
L 142.649832 315.470109 
L 151.84569 312.147502 
L 161.722992 308.816636 
L 172.208281 305.483068 
L 187.004751 301.046532 
L 202.571418 296.63376 
L 218.733971 292.26065 
L 239.51557 286.874503 
L 264.87641 280.57032 
L 294.386215 273.500453 
L 331.068528 264.974558 
L 438.436288 240.230477 
L 454.178595 236.289139 
L 464.824053 233.407382 
L 471.715536 231.33412 
L 475.970164 229.867751 
L 478.96006 228.62194 
L 480.505182 227.772553 
L 481.355237 227.044018 
L 481.570612 226.571135 
L 481.451643 226.15687 
L 481.02371 225.797048 
L 480.312576 225.487521 
L 478.968807 225.1462 
L 476.740085 224.820789 
L 472.808473 224.522053 
L 466.825153 224.33863 
L 457.49872 224.304921 
L 440.457597 224.270506 
L 436.914176 224.049762 
L 435.541483 223.786473 
L 435.167131 223.531872 
L 435.215933 223.336035 
L 435.593563 223.063786 
L 436.665562 222.636335 
L 439.139133 221.948944 
L 443.583919 220.96779 
L 451.722724 219.424088 
L 469.859156 216.131143 
L 469.599726 216.107265 
L 467.600688 216.254744 
L 460.547103 216.967053 
L 460.936355 216.917463 
L 460.957803 218.093241 
L 460.799128 227.369981 
L 460.393765 240.61699 
L 459.996625 248.242926 
L 459.34885 256.285919 
L 458.712015 261.780762 
L 457.869385 267.367927 
L 456.783904 272.994693 
L 455.432019 278.66588 
L 453.788903 284.345861 
L 451.839555 290.02479 
L 449.57252 295.69732 
L 446.975226 301.34199 
L 444.03968 306.959241 
L 440.753933 312.5383 
L 437.107017 318.07559 
L 433.089084 323.569224 
L 428.690257 329.013069 
L 423.90559 334.40826 
L 418.733293 339.752325 
L 413.175742 345.044922 
L 407.237973 350.285851 
L 400.927002 355.473477 
L 394.250609 360.606883 
L 390.718153 362.916152 
L 387.037642 364.974958 
L 383.210982 366.783223 
L 379.240993 368.340674 
L 375.131412 369.646842 
L 370.908208 370.796047 
L 366.576193 371.787573 
L 362.140893 372.620591 
L 357.608556 373.294147 
L 348.291317 374.221716 
L 338.71425 374.750997 
L 328.937993 374.873859 
L 319.032351 374.709656 
L 309.056263 374.294922 
L 299.058707 373.651382 
L 289.080546 372.85496 
L 274.229946 371.381745 
L 259.615928 369.681083 
L 245.354692 367.79028 
L 231.567351 365.766867 
L 218.373862 363.638515 
L 205.884444 361.419849 
L 194.18472 359.136909 
L 183.347421 356.796332 
L 173.432121 354.408796 
L 164.496222 351.976436 
L 159.110414 350.329066 
L 154.198802 348.66149 
L 149.7743 346.973273 
L 145.846938 345.264152 
L 142.423349 343.53534 
L 139.507971 341.786871 
L 137.102648 340.01921 
L 135.207202 338.232778 
L 133.820358 336.427671 
L 133.317025 335.517937 
L 132.939882 334.603486 
L 132.688439 333.684384 
L 132.56213 332.760708 
L 132.560458 331.832126 
L 132.682713 330.898735 
L 132.92807 329.960652 
L 133.295586 329.018012 
L 134.392902 327.119233 
L 135.965269 325.202456 
L 138.001171 323.269301 
L 140.487944 321.320017 
L 143.411267 319.355977 
L 146.755994 317.378536 
L 150.506524 315.387961 
L 154.64621 313.386233 
L 161.548574 310.363929 
L 169.228812 307.322975 
L 177.62396 304.267611 
L 186.667539 301.204165 
L 196.290817 298.138262 
L 209.903029 294.056736 
L 224.256767 289.996171 
L 242.994352 284.971904 
L 262.325342 280.032061 
L 285.88214 274.256529 
L 313.248951 267.787702 
L 347.201605 259.998502 
L 443.922779 237.9849 
L 458.695216 234.340278 
L 468.694951 231.674357 
L 475.173846 229.755923 
L 479.831752 228.152484 
L 482.418798 227.038494 
L 483.705483 226.28126 
L 484.246649 225.78595 
L 484.44933 225.348705 
L 484.336656 224.965713 
L 483.932329 224.633343 
L 482.981187 224.262228 
L 481.211184 223.901752 
L 478.383573 223.598469 
L 473.73254 223.367332 
L 466.41923 223.268511 
L 442.321119 223.138824 
L 440.552541 222.893861 
L 440.001956 222.632493 
L 439.997505 222.4564 
L 440.290768 222.210724 
L 441.215014 221.823613 
L 443.428673 221.198893 
L 447.828962 220.233429 
L 455.737171 218.757344 
L 471.747867 215.89473 
L 471.430779 215.873721 
L 468.99951 216.072933 
L 462.563022 216.736863 
L 462.729097 216.717868 
" style="fill:none;stroke:#1f77b4;stroke-linecap:square;stroke-opacity:0.7;stroke-width:1.5;"/>
   </g>
   <g id="line2d_25">
    <path clip-path="url(#pcdf4f30946)" d="M 411.592401 234.572513 
L 411.470062 244.642783 
L 411.66461 248.424076 
L 412.038559 251.341041 
L 412.630157 254.073239 
L 413.459494 256.743864 
L 414.501391 259.246945 
L 415.62361 261.371802 
L 416.95259 263.40759 
L 418.14274 264.892608 
L 419.433604 266.194205 
L 420.818747 267.2765 
L 422.290522 268.120405 
L 423.836753 268.718314 
L 425.441744 269.076502 
L 427.090021 269.216875 
L 429.192088 269.141404 
L 431.748184 268.80121 
L 435.975931 267.978269 
L 439.188634 267.173019 
L 441.789745 266.305077 
L 443.833583 265.392182 
L 445.392138 264.486882 
L 446.809361 263.440505 
L 448.081086 262.252259 
L 449.208769 260.92373 
L 450.19602 259.456839 
L 451.200344 257.520471 
L 452.017158 255.406496 
L 452.663403 253.13433 
L 453.22817 250.309648 
L 453.660087 246.894058 
L 453.932311 242.881681 
L 454.063092 237.383243 
L 454.302414 216.849676 
L 454.682404 212.11062 
L 455.260373 207.659021 
L 456.97087 195.967084 
L 457.010003 193.395139 
L 456.810149 190.062047 
L 456.555425 185.487099 
L 456.65205 182.871687 
L 456.961256 180.545887 
L 457.4874 178.279048 
L 458.284939 175.861329 
L 459.617764 171.98321 
L 459.699429 170.888461 
L 459.654126 172.418113 
L 458.996679 190.849329 
L 458.273967 204.988061 
L 457.585644 214.391351 
L 456.598994 224.210002 
L 455.713765 230.840922 
L 454.608431 237.518802 
L 453.241621 244.166862 
L 451.581705 250.760206 
L 449.604086 257.28935 
L 447.285042 263.724315 
L 444.611744 270.067328 
L 441.575359 276.320138 
L 438.170359 282.485197 
L 434.393501 288.569018 
L 430.244481 294.585741 
L 425.720157 300.537027 
L 420.821488 306.441518 
L 415.546511 312.30532 
L 409.894013 318.133622 
L 403.86666 323.941968 
L 397.464811 329.729982 
L 394.077166 332.441997 
L 390.549969 334.975188 
L 386.884143 337.330091 
L 383.081056 339.50716 
L 379.142528 341.506768 
L 375.085719 343.386873 
L 370.913137 345.147589 
L 366.627893 346.788967 
L 362.233708 348.311003 
L 353.144153 351.03207 
L 343.707978 353.415517 
L 333.972432 355.459246 
L 324.001919 357.227372 
L 313.858319 358.739105 
L 303.603184 360.000908 
L 293.300385 361.038372 
L 283.008713 361.8483 
L 272.781169 362.439501 
L 262.665143 362.812641 
L 252.70151 362.968234 
L 242.924237 362.914758 
L 233.365379 362.648852 
L 224.053209 362.182129 
L 215.016567 361.516869 
L 206.285159 360.655327 
L 197.887863 359.609004 
L 189.855378 358.376501 
L 182.213823 356.969472 
L 174.988905 355.391156 
L 168.201649 353.646546 
L 161.865498 351.752719 
L 155.995108 349.708796 
L 150.595438 347.534902 
L 145.672774 345.237418 
L 141.231852 342.823579 
L 137.271643 340.316005 
L 133.797375 337.715023 
L 130.806219 335.045575 
L 128.299591 332.31663 
L 126.277679 329.53606 
L 124.734621 326.725631 
L 124.14233 325.309579 
L 123.669078 323.886502 
L 123.312725 322.461725 
L 123.072628 321.035408 
L 122.948045 319.607721 
L 122.938141 318.178848 
L 123.041981 316.748981 
L 123.583514 313.89765 
L 124.562601 311.059031 
L 125.969075 308.237282 
L 127.791063 305.441097 
L 130.018191 302.672716 
L 132.639118 299.936775 
L 135.642471 297.236259 
L 139.016398 294.572951 
L 142.748369 291.947974 
L 146.824791 289.363103 
L 151.231837 286.817021 
L 155.954413 284.31036 
L 160.976934 281.843226 
L 166.283886 279.412666 
L 174.741329 275.837273 
L 183.746644 272.338857 
L 193.243478 268.915635 
L 203.175659 265.561707 
L 216.99681 261.190071 
L 231.352754 256.927186 
L 246.10617 252.765668 
L 264.901935 247.699674 
L 287.644942 241.821179 
L 313.92615 235.264759 
L 342.913675 228.257095 
L 370.061845 221.913439 
L 394.759333 216.386974 
L 416.529849 211.757675 
L 437.105589 207.618105 
L 461.563461 202.956693 
L 472.889388 200.703246 
L 475.6598 199.980678 
L 475.962806 199.788549 
L 475.93345 199.757049 
L 475.605244 199.70046 
L 473.939889 199.746813 
L 469.259398 200.15973 
L 457.226783 201.495546 
L 416.913443 206.07658 
L 410.378384 206.580592 
L 406.547537 206.684918 
L 404.286915 206.543465 
L 403.306539 206.308822 
L 402.899852 206.042402 
L 402.811148 205.797867 
L 402.90365 205.516115 
L 403.300544 205.084121 
L 404.216874 204.457329 
L 406.226408 203.426171 
L 409.902263 201.85623 
L 416.897418 199.171369 
L 446.900207 187.894358 
L 453.101317 185.239451 
L 457.30142 183.225118 
L 460.538183 181.434353 
L 462.613186 180.038859 
L 463.81047 178.980327 
L 464.388134 178.195512 
L 464.56131 177.625696 
L 464.464838 177.147277 
L 464.128154 176.755713 
L 463.474189 176.401296 
L 462.447358 176.118746 
L 460.863029 175.923308 
L 458.542038 175.871201 
L 455.210186 176.033029 
L 451.015993 176.239715 
L 451.0458 176.124152 
L 451.246026 175.974897 
L 451.311478 176.441097 
L 451.39771 179.443 
L 451.383337 189.358148 
L 451.119025 204.819131 
L 450.678052 217.070254 
L 450.088507 226.788754 
L 449.511702 233.384345 
L 448.745462 240.011098 
L 447.754801 246.643626 
L 446.498159 253.207201 
L 444.948522 259.703259 
L 443.078415 266.103304 
L 440.869183 272.399833 
L 438.30858 278.595678 
L 435.388509 284.693733 
L 432.103135 290.696934 
L 428.450895 296.620433 
L 424.429006 302.470549 
L 420.034899 308.254883 
L 415.268813 313.992522 
L 410.126844 319.68377 
L 404.610249 325.345147 
L 398.718731 330.982081 
L 395.632433 333.791464 
L 392.414499 336.453587 
L 389.065231 338.96906 
L 385.585269 341.338458 
L 381.975592 343.562322 
L 378.237516 345.641157 
L 374.380957 347.606781 
L 370.407829 349.459552 
L 366.320641 351.199767 
L 362.122502 352.827662 
L 357.817116 354.343407 
L 353.414495 355.77183 
L 344.336764 358.366695 
L 334.932929 360.611602 
L 325.264022 362.56203 
L 315.389935 364.234503 
L 305.371819 365.636179 
L 295.274737 366.794112 
L 285.158804 367.704691 
L 275.079229 368.379627 
L 265.085785 368.820241 
L 255.221333 369.027851 
L 245.521328 369.014165 
L 236.018907 368.775718 
L 226.742673 368.327115 
L 217.721565 367.671645 
L 208.985428 366.812397 
L 200.563184 365.763404 
L 192.486202 364.52311 
L 184.781498 363.104583 
L 177.476131 361.5113 
L 170.592567 359.748369 
L 164.145581 357.833859 
L 158.15117 355.766621 
L 152.615291 353.567407 
L 147.545054 351.242713 
L 142.945847 348.799861 
L 138.817105 346.262005 
L 135.164595 343.629442 
L 131.986201 340.927384 
L 129.28416 338.164848 
L 127.059526 335.350002 
L 125.307235 332.505655 
L 124.027063 329.632779 
L 123.211402 326.748854 
L 122.975788 325.30514 
L 122.854062 323.860457 
L 122.947735 320.972709 
L 123.481271 318.098631 
L 124.446147 315.239931 
L 125.831194 312.405904 
L 127.626214 309.60114 
L 129.821142 306.828754 
L 132.405096 304.093742 
L 135.367327 301.398177 
L 138.696486 298.743224 
L 142.380262 296.130378 
L 146.405583 293.560184 
L 150.758927 291.030937 
L 155.425292 288.544138 
L 160.390081 286.096329 
L 165.637502 283.68742 
L 174.003914 280.144169 
L 182.916979 276.678595 
L 192.322346 273.283096 
L 202.164365 269.954552 
L 215.869365 265.607847 
L 230.115519 261.355601 
L 248.477453 256.161177 
L 267.213875 251.092648 
L 289.845408 245.184587 
L 315.951405 238.580082 
L 344.69462 231.532975 
L 368.335253 225.94254 
L 390.139031 220.997556 
L 412.3894 216.196568 
L 433.593353 211.866217 
L 472.695682 204.022683 
L 475.151772 203.290406 
L 475.569335 203.025241 
L 475.527362 202.932147 
L 475.167836 202.839515 
L 473.830484 202.802809 
L 470.582349 202.971042 
L 462.894475 203.645558 
L 445.277509 205.484388 
L 418.023509 208.295383 
L 410.977828 208.81415 
L 407.314536 208.88258 
L 405.431237 208.741641 
L 404.436329 208.495885 
L 404.013808 208.216684 
L 403.911077 207.960389 
L 403.987889 207.665552 
L 404.361552 207.214561 
L 405.24553 206.563218 
L 406.876342 205.662586 
L 409.913863 204.278051 
L 415.407412 202.070805 
L 446.835979 189.835807 
L 453.091811 187.050133 
L 457.360928 184.92234 
L 460.391373 183.19101 
L 462.632094 181.658284 
L 463.97349 180.476292 
L 464.670461 179.585672 
L 464.938387 178.928342 
L 464.927889 178.366045 
L 464.666956 177.894405 
L 464.186242 177.507956 
L 463.39104 177.156351 
L 462.080057 176.84415 
L 460.191481 176.640576 
L 457.445987 176.589455 
L 452.892487 176.77556 
L 451.313807 176.737758 
L 451.182575 176.582169 
L 451.346785 176.402136 
L 451.422402 177.318618 
L 451.474028 182.262049 
L 451.369975 193.997721 
L 451.069881 207.626337 
L 450.717427 216.855992 
L 450.142733 226.521262 
L 449.581777 233.088298 
L 448.836467 239.691454 
L 447.871666 246.304148 
L 446.645251 252.848176 
L 445.129762 259.32509 
L 443.296847 265.704225 
L 441.127193 271.977499 
L 438.608078 278.147708 
L 435.730956 284.217276 
L 432.489801 290.189273 
L 428.882926 296.0788 
L 424.907548 301.892254 
L 420.561114 307.637419 
L 415.843865 313.333645 
L 410.751828 318.981399 
L 405.286196 324.597844 
L 399.446457 330.188719 
L 396.38626 332.974695 
L 393.192783 335.606525 
L 389.866259 338.084867 
L 386.40717 340.410386 
L 382.816248 342.583758 
L 379.094477 344.605665 
L 375.252558 346.512409 
L 371.291921 348.304585 
L 367.214591 349.982735 
L 363.023186 351.547349 
L 358.720916 352.998859 
L 354.317709 354.363179 
L 345.225811 356.831266 
L 335.787602 358.952918 
L 326.061913 360.785789 
L 316.106659 362.347954 
L 305.982378 363.649125 
L 295.755421 364.7218 
L 285.487606 365.561761 
L 275.237563 366.181138 
L 265.059293 366.579978 
L 254.999691 366.758375 
L 245.097846 366.728194 
L 235.389499 366.484395 
L 225.904512 366.039446 
L 216.671797 365.395464 
L 207.720463 364.555101 
L 199.078189 363.532379 
L 190.775517 362.325761 
L 182.839491 360.948611 
L 175.298073 359.40432 
L 168.175529 357.697164 
L 161.489324 355.843431 
L 155.257916 353.841057 
L 149.489364 351.709868 
L 144.192463 349.455482 
L 139.373488 347.084569 
L 135.031893 344.619957 
L 131.173193 342.061608 
L 127.794492 339.435146 
L 124.897362 336.749827 
L 122.483005 334.012744 
L 120.54762 331.2433 
L 119.091514 328.442508 
L 118.108081 325.626967 
L 117.791962 324.215903 
L 117.592127 322.8028 
L 117.507846 321.38779 
L 117.536945 319.975366 
L 117.678478 318.565676 
L 118.294774 315.755188 
L 119.3472 312.960682 
L 120.823755 310.192332 
L 122.714304 307.452398 
L 125.007636 304.745941 
L 127.692597 302.076416 
L 130.757892 299.445659 
L 134.191976 296.854064 
L 137.98205 294.303747 
L 142.115562 291.791896 
L 146.57839 289.318637 
L 151.355763 286.88347 
L 156.433072 284.481615 
L 164.575847 280.942441 
L 173.303232 277.468141 
L 182.559007 274.055333 
L 192.287177 270.695948 
L 205.894326 266.289157 
L 220.102903 261.957457 
L 238.499733 256.63743 
L 257.35482 251.426655 
L 280.224907 245.356122 
L 302.970069 239.556218 
L 325.210981 234.110301 
L 346.606081 229.086747 
L 370.097752 223.812225 
L 394.520862 218.583712 
L 418.357089 213.707415 
L 454.40975 206.602885 
L 468.911707 203.615704 
L 472.306098 202.74014 
L 472.451041 202.633751 
L 472.416367 202.613172 
L 471.883241 202.601606 
L 469.556605 202.832124 
L 462.191582 203.839408 
L 445.149647 206.430319 
L 413.046117 211.326484 
L 406.003456 212.166067 
L 402.80509 212.344984 
L 402.126743 212.217454 
L 402.15279 212.102712 
L 402.604386 211.82092 
L 404.330759 211.103623 
L 414.320007 207.381114 
L 431.759053 200.763358 
L 442.78674 196.388059 
L 449.641019 193.455375 
L 454.548489 191.144411 
L 458.697226 188.953838 
L 461.690186 187.146128 
L 464.0059 185.500382 
L 465.478268 184.2085 
L 466.449814 183.060606 
L 466.904175 182.191229 
L 467.033158 181.545891 
L 466.951901 180.970432 
L 466.678024 180.462521 
L 466.121989 179.938504 
L 465.204074 179.438541 
L 463.871084 179.0021 
L 461.907237 178.632375 
L 459.333384 178.390614 
L 455.568912 178.278905 
L 450.680089 178.132962 
L 450.176503 177.926019 
L 450.159824 177.718867 
L 450.270477 177.559771 
L 450.297113 177.680945 
L 450.3766 179.712634 
L 450.377105 187.986315 
L 450.166996 202.215436 
L 449.818941 213.991426 
L 449.349935 223.480988 
L 448.888606 230.020357 
L 448.26362 236.601305 
L 447.443053 243.223176 
L 446.384275 249.803068 
L 445.053363 256.314582 
L 443.422938 262.747393 
L 441.465974 269.067516 
L 439.167098 275.278181 
L 436.515149 281.380786 
L 433.502899 287.378106 
L 430.125913 293.27728 
L 426.383071 299.092993 
L 422.270607 304.82743 
L 417.788969 310.500749 
L 412.93548 316.119967 
L 407.708012 321.691598 
L 402.108336 327.233906 
L 396.135247 332.747241 
L 389.792965 338.244407 
L 383.085761 343.730537 
L 379.596926 346.469938 
L 375.965887 349.00811 
L 372.193833 351.346125 
L 368.282478 353.484897 
L 364.234063 355.425184 
L 360.051355 357.167585 
L 355.758224 358.795516 
L 351.358034 360.309125 
L 346.854731 361.708504 
L 342.252849 362.993683 
L 332.783554 365.267303 
L 323.0232 367.267067 
L 313.022916 368.991513 
L 302.848587 370.509183 
L 292.562964 371.841591 
L 282.226325 372.99292 
L 271.89852 373.979853 
L 261.634486 374.799161 
L 251.483153 375.447593 
L 241.487762 375.921156 
L 231.686412 376.215461 
L 222.112428 376.32572 
L 212.796942 376.24857 
L 203.770007 375.983487 
L 195.061569 375.529291 
L 186.702002 374.885473 
L 178.721669 374.053683 
L 171.150118 373.032929 
L 164.012788 371.828865 
L 157.333398 370.442348 
L 151.13072 368.87673 
L 145.416355 367.14522 
L 140.202856 365.24605 
L 135.49342 363.197249 
L 131.292797 361.004041 
L 127.604217 358.672703 
L 124.425154 356.224311 
L 121.75913 353.658795 
L 119.601995 350.997586 
L 118.713985 349.633883 
L 117.953106 348.248188 
L 117.319283 346.840552 
L 116.809662 345.419198 
L 116.423943 343.984181 
L 116.161688 342.535556 
L 116.022321 341.073373 
L 116.005129 339.597683 
L 116.107166 338.115146 
L 116.327463 336.625815 
L 116.664955 335.129752 
L 117.686782 332.117743 
L 119.157898 329.094307 
L 121.065315 326.06523 
L 123.395698 323.035861 
L 126.1329 320.020008 
L 129.26381 317.019398 
L 132.772301 314.046183 
L 136.643612 311.105738 
L 140.862646 308.20235 
L 145.412556 305.345001 
L 150.277542 302.535455 
L 155.440565 299.778334 
L 160.884513 297.076253 
L 166.592323 294.430421 
L 175.611293 290.568326 
L 185.127776 286.834669 
L 195.085117 283.226002 
L 205.427139 279.73392 
L 216.096832 276.354363 
L 230.734185 272.002134 
L 245.715607 267.804883 
L 264.719738 262.743429 
L 291.392364 255.924137 
L 412.149295 225.395756 
L 436.210961 218.969283 
L 450.979528 214.796349 
L 459.404928 212.201254 
L 464.558789 210.403528 
L 467.460779 209.187365 
L 468.91757 208.387332 
L 469.648215 207.731817 
L 469.745854 207.330073 
L 469.607401 207.103049 
L 469.109729 206.821118 
L 467.938464 206.548749 
L 465.733412 206.361747 
L 462.142903 206.336616 
L 456.892389 206.537038 
L 448.929736 207.068159 
L 435.224251 208.232571 
L 413.422473 210.095105 
L 406.588484 210.470939 
L 402.474454 210.504899 
L 399.95275 210.316092 
L 398.786381 210.050897 
L 398.234868 209.759656 
L 398.018326 209.398488 
L 398.071467 209.082221 
L 398.421747 208.601287 
L 399.290854 207.907744 
L 400.926513 206.946556 
L 403.573891 205.660735 
L 407.972966 203.778127 
L 415.797525 200.698351 
L 442.052745 190.524214 
L 448.911722 187.576083 
L 454.130309 185.101756 
L 457.869174 183.09587 
L 460.383399 181.517749 
L 461.951167 180.308058 
L 462.922074 179.284135 
L 463.318582 178.53915 
L 463.353374 178.009084 
L 463.136918 177.574304 
L 462.70061 177.228806 
L 461.95795 176.929062 
L 460.716869 176.687207 
L 458.746467 176.567043 
L 455.967211 176.64646 
L 450.657123 176.910442 
L 450.665253 176.880005 
L 450.907546 176.669022 
L 450.97599 177.095215 
L 451.074376 179.881334 
L 451.09011 189.443575 
L 450.886807 204.750303 
L 450.528772 217.012719 
L 450.037268 226.773337 
L 449.54632 233.403919 
L 448.883395 240.067032 
L 448.013168 246.734882 
L 446.892855 253.325657 
L 445.493743 259.841157 
L 443.785675 266.247761 
L 441.747697 272.536773 
L 439.365774 278.711226 
L 436.630224 284.773235 
L 433.534325 290.726298 
L 430.075867 296.585686 
L 426.251783 302.35801 
L 422.059286 308.051448 
L 417.498403 313.686039 
L 412.56474 319.262345 
L 407.259324 324.799527 
L 401.581036 330.304025 
L 395.530322 335.780603 
L 389.112056 341.242861 
L 382.329961 346.692181 
L 378.746442 349.196382 
L 375.016701 351.48278 
L 371.142322 353.552369 
L 367.125386 355.405984 
L 362.968467 357.04431 
L 358.697687 358.559976 
L 354.316159 359.953202 
L 349.82761 361.224148 
L 345.236374 362.372909 
L 335.77638 364.353646 
L 326.011057 366.043962 
L 315.990741 367.442627 
L 305.782402 368.625896 
L 295.449278 369.617754 
L 285.052567 370.424257 
L 274.653915 371.068023 
L 264.310021 371.545487 
L 254.071497 371.857194 
L 243.983316 372.000169 
L 234.084786 371.970767 
L 224.409616 371.767191 
L 214.989094 371.385704 
L 205.85224 370.828266 
L 197.02783 370.094319 
L 188.545058 369.184152 
L 180.432764 368.10239 
L 172.720039 366.847953 
L 165.431937 365.428313 
L 158.592522 363.844917 
L 152.221218 362.101295 
L 146.330311 360.211262 
L 140.933153 358.17299 
L 136.03347 356.004803 
L 131.63641 353.712004 
L 127.745404 351.300816 
L 124.357929 348.792198 
L 121.47739 346.186181 
L 119.099239 343.505342 
L 117.222727 340.757739 
L 116.472676 339.35912 
L 115.845476 337.951638 
L 115.34089 336.535387 
L 114.958553 335.11046 
L 114.697973 333.676945 
L 114.558528 332.234928 
L 114.537832 330.789658 
L 114.635023 329.341219 
L 114.849145 327.889706 
L 115.179151 326.435226 
L 116.180893 323.521993 
L 117.626335 320.615061 
L 119.504455 317.715757 
L 121.800602 314.836146 
L 124.501555 311.981578 
L 127.594024 309.15631 
L 131.063109 306.369176 
L 134.895102 303.622323 
L 139.075193 300.919759 
L 143.588284 298.264082 
L 148.418986 295.65655 
L 153.551591 293.097182 
L 158.969664 290.587624 
L 167.597129 286.910869 
L 176.774888 283.339059 
L 186.447583 279.861546 
L 196.558024 276.473829 
L 207.049008 273.165598 
L 221.528069 268.8615 
L 236.440356 264.664942 
L 255.480611 259.54337 
L 282.422952 252.568073 
L 316.591862 243.965846 
L 366.018978 231.772148 
L 407.84188 221.65964 
L 468.297314 207.145036 
L 471.608733 206.107863 
L 473.04518 205.473377 
L 473.386837 205.104498 
L 473.304423 204.963603 
L 472.881614 204.803927 
L 471.793295 204.6821 
L 469.145887 204.676538 
L 464.015255 204.949538 
L 454.756076 205.710825 
L 435.942349 207.534424 
L 417.390137 209.272388 
L 410.10554 209.761593 
L 405.609092 209.878381 
L 402.748625 209.755745 
L 401.125933 209.477616 
L 400.361309 209.124019 
L 400.129018 208.762904 
L 400.171271 208.447599 
L 400.507921 207.969326 
L 401.360772 207.28172 
L 402.97701 206.331132 
L 405.600265 205.060691 
L 410.506415 202.977705 
L 419.018956 199.648682 
L 443.011136 190.37933 
L 449.808693 187.486699 
L 454.976719 185.053554 
L 458.671418 183.075329 
L 461.14579 181.515137 
L 462.677114 180.316355 
L 463.52475 179.415734 
L 463.944752 178.652238 
L 463.993766 178.103685 
L 463.78563 177.648458 
L 463.351521 177.281142 
L 462.603601 176.955129 
L 461.343622 176.679851 
L 459.505143 176.524387 
L 456.812648 176.537254 
L 452.454303 176.819318 
L 450.80973 176.827268 
L 450.73617 176.710289 
L 450.745681 176.692645 
L 451.023285 176.464075 
L 451.116443 176.407037 
L 451.203225 176.8272 
L 451.33582 179.60359 
L 451.390653 187.098204 
L 451.269384 198.722834 
L 450.960458 210.153192 
L 450.511568 219.48679 
L 449.77629 229.23113 
L 449.06492 235.809729 
L 448.137927 242.433117 
L 446.953485 249.024069 
L 445.479402 255.557628 
L 443.690464 262.02427 
L 441.562284 268.393646 
L 439.081448 274.668102 
L 436.238633 280.849693 
L 433.027846 286.941041 
L 429.445466 292.948868 
L 425.490931 298.887714 
L 421.160813 304.759394 
L 416.45588 310.582921 
L 411.373943 316.364646 
L 405.913542 322.110019 
L 400.077132 327.835023 
L 393.864737 333.539418 
L 390.570812 336.209611 
L 387.136473 338.701014 
L 383.562579 341.014183 
L 379.850441 343.149596 
L 376.001818 345.107646 
L 372.033957 346.946272 
L 367.949312 348.665606 
L 363.750941 350.265724 
L 359.442508 351.746644 
L 350.520967 354.385911 
L 341.248048 356.688041 
L 331.670559 358.651131 
L 321.852695 360.339136 
L 311.856035 361.771345 
L 301.741909 362.954397 
L 291.574155 363.914026 
L 281.411517 364.64722 
L 271.307103 365.162739 
L 261.308435 365.461337 
L 251.456486 365.543687 
L 241.785316 365.418412 
L 232.32696 365.082287 
L 223.109648 364.547087 
L 214.162102 363.81521 
L 205.513924 362.889015 
L 197.193938 361.780119 
L 189.232808 360.487188 
L 181.656769 359.021821 
L 174.491651 357.387271 
L 167.758632 355.588527 
L 161.471393 353.642538 
L 155.644698 351.548487 
L 150.283626 349.326614 
L 145.394527 346.983382 
L 140.982187 344.526104 
L 137.045652 341.977511 
L 133.590212 339.337956 
L 130.613146 336.63258 
L 128.116015 333.870409 
L 126.099238 331.059202 
L 124.557309 328.220411 
L 123.964156 326.791024 
L 123.130147 323.918117 
L 122.886599 322.48002 
L 122.757775 321.041047 
L 122.742869 319.601376 
L 123.050109 316.724054 
L 123.79705 313.859753 
L 124.974647 311.010305 
L 126.57156 308.184017 
L 128.577227 305.385134 
L 130.981125 302.616614 
L 133.771955 299.882993 
L 136.938417 297.186296 
L 140.468543 294.527866 
L 144.349439 291.909268 
L 148.567452 289.331256 
L 153.108426 286.79271 
L 157.956909 284.295199 
L 163.097743 281.836006 
L 171.321595 278.21994 
L 180.11234 274.685257 
L 189.414269 271.230324 
L 199.172076 267.847502 
L 209.328915 264.535184 
L 223.393331 260.21994 
L 237.92877 256.012905 
L 256.55371 250.898025 
L 275.445902 245.938774 
L 298.128792 240.197623 
L 327.759109 232.938316 
L 359.322903 225.441991 
L 385.05847 219.541916 
L 408.058336 214.492941 
L 430.179976 209.883352 
L 451.350689 205.713151 
L 472.391602 201.573561 
L 475.720405 200.721851 
L 476.319066 200.414926 
L 476.263572 200.337221 
L 475.680222 200.254242 
L 473.720445 200.29619 
L 468.701238 200.67594 
L 457.307421 201.802052 
L 418.229998 205.786654 
L 411.677334 206.192276 
L 407.811141 206.239306 
L 405.506865 206.064949 
L 404.489181 205.815647 
L 404.049534 205.542042 
L 403.934589 205.294325 
L 403.999777 205.010898 
L 404.358924 204.578524 
L 405.226524 203.953271 
L 406.840439 203.083873 
L 409.859957 201.736024 
L 415.337007 199.574792 
L 426.419097 195.500541 
L 443.265344 189.291344 
L 450.592601 186.352468 
L 455.755434 184.059522 
L 459.48464 182.18231 
L 462.012619 180.691643 
L 463.603062 179.538473 
L 464.600689 178.552222 
L 465.020119 177.825825 
L 465.072079 177.302166 
L 464.869027 176.866228 
L 464.441201 176.513397 
L 463.700994 176.19921 
L 462.449664 175.932985 
L 460.616746 175.782295 
L 457.917439 175.797523 
L 453.843072 176.069672 
L 451.656325 176.142703 
L 451.580188 176.052958 
L 451.595498 176.021695 
L 451.624058 175.986841 
L 451.624058 175.986841 
" style="fill:none;stroke:#d62728;stroke-linecap:square;stroke-opacity:0.7;stroke-width:1.5;"/>
   </g>
   <g id="line2d_26">
    <path clip-path="url(#pcdf4f30946)" d="M 411.599995 234.230026 
L 411.599995 234.230026 
" style="fill:none;stroke:#000000;stroke-dasharray:5.55,2.4;stroke-dashoffset:0;stroke-opacity:0.595;stroke-width:1.5;"/>
   </g>
   <g id="legend_1">
    <g id="patch_6">
     <path d="M 473.09375 62.834375 
L 558.2 62.834375 
Q 560.2 62.834375 560.2 60.834375 
L 560.2 17.8 
Q 560.2 15.8 558.2 15.8 
L 473.09375 15.8 
Q 471.09375 15.8 471.09375 17.8 
L 471.09375 60.834375 
Q 471.09375 62.834375 473.09375 62.834375 
z
" style="fill:#ffffff;opacity:0.8;stroke:#cccccc;stroke-linejoin:miter;"/>
    </g>
    <g id="line2d_27">
     <path d="M 475.09375 23.898438 
L 495.09375 23.898438 
" style="fill:none;stroke:#1f77b4;stroke-linecap:square;stroke-opacity:0.7;stroke-width:1.5;"/>
    </g>
    <g id="line2d_28"/>
    <g id="text_24">
     <!-- DSLPID -->
     <g transform="translate(503.09375 27.398438)scale(0.1 -0.1)">
      <defs>
       <path d="M 1259 4147 
L 1259 519 
L 2022 519 
Q 2988 519 3436 956 
Q 3884 1394 3884 2338 
Q 3884 3275 3436 3711 
Q 2988 4147 2022 4147 
L 1259 4147 
z
M 628 4666 
L 1925 4666 
Q 3281 4666 3915 4102 
Q 4550 3538 4550 2338 
Q 4550 1131 3912 565 
Q 3275 0 1925 0 
L 628 0 
L 628 4666 
z
" id="DejaVuSans-44" transform="scale(0.015625)"/>
       <path d="M 3425 4513 
L 3425 3897 
Q 3066 4069 2747 4153 
Q 2428 4238 2131 4238 
Q 1616 4238 1336 4038 
Q 1056 3838 1056 3469 
Q 1056 3159 1242 3001 
Q 1428 2844 1947 2747 
L 2328 2669 
Q 3034 2534 3370 2195 
Q 3706 1856 3706 1288 
Q 3706 609 3251 259 
Q 2797 -91 1919 -91 
Q 1588 -91 1214 -16 
Q 841 59 441 206 
L 441 856 
Q 825 641 1194 531 
Q 1563 422 1919 422 
Q 2459 422 2753 634 
Q 3047 847 3047 1241 
Q 3047 1584 2836 1778 
Q 2625 1972 2144 2069 
L 1759 2144 
Q 1053 2284 737 2584 
Q 422 2884 422 3419 
Q 422 4038 858 4394 
Q 1294 4750 2059 4750 
Q 2388 4750 2728 4690 
Q 3069 4631 3425 4513 
z
" id="DejaVuSans-53" transform="scale(0.015625)"/>
       <path d="M 628 4666 
L 1259 4666 
L 1259 531 
L 3531 531 
L 3531 0 
L 628 0 
L 628 4666 
z
" id="DejaVuSans-4c" transform="scale(0.015625)"/>
       <path d="M 1259 4147 
L 1259 2394 
L 2053 2394 
Q 2494 2394 2734 2622 
Q 2975 2850 2975 3272 
Q 2975 3691 2734 3919 
Q 2494 4147 2053 4147 
L 1259 4147 
z
M 628 4666 
L 2053 4666 
Q 2838 4666 3239 4311 
Q 3641 3956 3641 3272 
Q 3641 2581 3239 2228 
Q 2838 1875 2053 1875 
L 1259 1875 
L 1259 0 
L 628 0 
L 628 4666 
z
" id="DejaVuSans-50" transform="scale(0.015625)"/>
       <path d="M 628 4666 
L 1259 4666 
L 1259 0 
L 628 0 
L 628 4666 
z
" id="DejaVuSans-49" transform="scale(0.015625)"/>
      </defs>
      <use xlink:href="#DejaVuSans-44"/>
      <use x="77.001953" xlink:href="#DejaVuSans-53"/>
      <use x="140.478516" xlink:href="#DejaVuSans-4c"/>
      <use x="196.191406" xlink:href="#DejaVuSans-50"/>
      <use x="256.494141" xlink:href="#DejaVuSans-49"/>
      <use x="285.986328" xlink:href="#DejaVuSans-44"/>
     </g>
    </g>
    <g id="line2d_29">
     <path d="M 475.09375 38.576563 
L 495.09375 38.576563 
" style="fill:none;stroke:#d62728;stroke-linecap:square;stroke-opacity:0.7;stroke-width:1.5;"/>
    </g>
    <g id="line2d_30"/>
    <g id="text_25">
     <!-- LSTMCNN -->
     <g transform="translate(503.09375 42.076563)scale(0.1 -0.1)">
      <defs>
       <path d="M -19 4666 
L 3928 4666 
L 3928 4134 
L 2272 4134 
L 2272 0 
L 1638 0 
L 1638 4134 
L -19 4134 
L -19 4666 
z
" id="DejaVuSans-54" transform="scale(0.015625)"/>
       <path d="M 628 4666 
L 1569 4666 
L 2759 1491 
L 3956 4666 
L 4897 4666 
L 4897 0 
L 4281 0 
L 4281 4097 
L 3078 897 
L 2444 897 
L 1241 4097 
L 1241 0 
L 628 0 
L 628 4666 
z
" id="DejaVuSans-4d" transform="scale(0.015625)"/>
       <path d="M 4122 4306 
L 4122 3641 
Q 3803 3938 3442 4084 
Q 3081 4231 2675 4231 
Q 1875 4231 1450 3742 
Q 1025 3253 1025 2328 
Q 1025 1406 1450 917 
Q 1875 428 2675 428 
Q 3081 428 3442 575 
Q 3803 722 4122 1019 
L 4122 359 
Q 3791 134 3420 21 
Q 3050 -91 2638 -91 
Q 1578 -91 968 557 
Q 359 1206 359 2328 
Q 359 3453 968 4101 
Q 1578 4750 2638 4750 
Q 3056 4750 3426 4639 
Q 3797 4528 4122 4306 
z
" id="DejaVuSans-43" transform="scale(0.015625)"/>
       <path d="M 628 4666 
L 1478 4666 
L 3547 763 
L 3547 4666 
L 4159 4666 
L 4159 0 
L 3309 0 
L 1241 3903 
L 1241 0 
L 628 0 
L 628 4666 
z
" id="DejaVuSans-4e" transform="scale(0.015625)"/>
      </defs>
      <use xlink:href="#DejaVuSans-4c"/>
      <use x="55.712891" xlink:href="#DejaVuSans-53"/>
      <use x="119.189453" xlink:href="#DejaVuSans-54"/>
      <use x="180.273438" xlink:href="#DejaVuSans-4d"/>
      <use x="266.552734" xlink:href="#DejaVuSans-43"/>
      <use x="336.376953" xlink:href="#DejaVuSans-4e"/>
      <use x="411.181641" xlink:href="#DejaVuSans-4e"/>
     </g>
    </g>
    <g id="line2d_31">
     <path d="M 475.09375 53.254688 
L 495.09375 53.254688 
" style="fill:none;stroke:#000000;stroke-dasharray:5.55,2.4;stroke-dashoffset:0;stroke-opacity:0.595;stroke-width:1.5;"/>
    </g>
    <g id="line2d_32"/>
    <g id="text_26">
     <!-- Referencia -->
     <g transform="translate(503.09375 56.754688)scale(0.1 -0.1)">
      <defs>
       <path d="M 2841 2188 
Q 3044 2119 3236 1894 
Q 3428 1669 3622 1275 
L 4263 0 
L 3584 0 
L 2988 1197 
Q 2756 1666 2539 1819 
Q 2322 1972 1947 1972 
L 1259 1972 
L 1259 0 
L 628 0 
L 628 4666 
L 2053 4666 
Q 2853 4666 3247 4331 
Q 3641 3997 3641 3322 
Q 3641 2881 3436 2590 
Q 3231 2300 2841 2188 
z
M 1259 4147 
L 1259 2491 
L 2053 2491 
Q 2509 2491 2742 2702 
Q 2975 2913 2975 3322 
Q 2975 3731 2742 3939 
Q 2509 4147 2053 4147 
L 1259 4147 
z
" id="DejaVuSans-52" transform="scale(0.015625)"/>
       <path d="M 3597 1894 
L 3597 1613 
L 953 1613 
Q 991 1019 1311 708 
Q 1631 397 2203 397 
Q 2534 397 2845 478 
Q 3156 559 3463 722 
L 3463 178 
Q 3153 47 2828 -22 
Q 2503 -91 2169 -91 
Q 1331 -91 842 396 
Q 353 884 353 1716 
Q 353 2575 817 3079 
Q 1281 3584 2069 3584 
Q 2775 3584 3186 3129 
Q 3597 2675 3597 1894 
z
M 3022 2063 
Q 3016 2534 2758 2815 
Q 2500 3097 2075 3097 
Q 1594 3097 1305 2825 
Q 1016 2553 972 2059 
L 3022 2063 
z
" id="DejaVuSans-65" transform="scale(0.015625)"/>
       <path d="M 2375 4863 
L 2375 4384 
L 1825 4384 
Q 1516 4384 1395 4259 
Q 1275 4134 1275 3809 
L 1275 3500 
L 2222 3500 
L 2222 3053 
L 1275 3053 
L 1275 0 
L 697 0 
L 697 3053 
L 147 3053 
L 147 3500 
L 697 3500 
L 697 3744 
Q 697 4328 969 4595 
Q 1241 4863 1831 4863 
L 2375 4863 
z
" id="DejaVuSans-66" transform="scale(0.015625)"/>
       <path d="M 2631 2963 
Q 2534 3019 2420 3045 
Q 2306 3072 2169 3072 
Q 1681 3072 1420 2755 
Q 1159 2438 1159 1844 
L 1159 0 
L 581 0 
L 581 3500 
L 1159 3500 
L 1159 2956 
Q 1341 3275 1631 3429 
Q 1922 3584 2338 3584 
Q 2397 3584 2469 3576 
Q 2541 3569 2628 3553 
L 2631 2963 
z
" id="DejaVuSans-72" transform="scale(0.015625)"/>
       <path d="M 3513 2113 
L 3513 0 
L 2938 0 
L 2938 2094 
Q 2938 2591 2744 2837 
Q 2550 3084 2163 3084 
Q 1697 3084 1428 2787 
Q 1159 2491 1159 1978 
L 1159 0 
L 581 0 
L 581 3500 
L 1159 3500 
L 1159 2956 
Q 1366 3272 1645 3428 
Q 1925 3584 2291 3584 
Q 2894 3584 3203 3211 
Q 3513 2838 3513 2113 
z
" id="DejaVuSans-6e" transform="scale(0.015625)"/>
       <path d="M 3122 3366 
L 3122 2828 
Q 2878 2963 2633 3030 
Q 2388 3097 2138 3097 
Q 1578 3097 1268 2742 
Q 959 2388 959 1747 
Q 959 1106 1268 751 
Q 1578 397 2138 397 
Q 2388 397 2633 464 
Q 2878 531 3122 666 
L 3122 134 
Q 2881 22 2623 -34 
Q 2366 -91 2075 -91 
Q 1284 -91 818 406 
Q 353 903 353 1747 
Q 353 2603 823 3093 
Q 1294 3584 2113 3584 
Q 2378 3584 2631 3529 
Q 2884 3475 3122 3366 
z
" id="DejaVuSans-63" transform="scale(0.015625)"/>
       <path d="M 603 3500 
L 1178 3500 
L 1178 0 
L 603 0 
L 603 3500 
z
M 603 4863 
L 1178 4863 
L 1178 4134 
L 603 4134 
L 603 4863 
z
" id="DejaVuSans-69" transform="scale(0.015625)"/>
       <path d="M 2194 1759 
Q 1497 1759 1228 1600 
Q 959 1441 959 1056 
Q 959 750 1161 570 
Q 1363 391 1709 391 
Q 2188 391 2477 730 
Q 2766 1069 2766 1631 
L 2766 1759 
L 2194 1759 
z
M 3341 1997 
L 3341 0 
L 2766 0 
L 2766 531 
Q 2569 213 2275 61 
Q 1981 -91 1556 -91 
Q 1019 -91 701 211 
Q 384 513 384 1019 
Q 384 1609 779 1909 
Q 1175 2209 1959 2209 
L 2766 2209 
L 2766 2266 
Q 2766 2663 2505 2880 
Q 2244 3097 1772 3097 
Q 1472 3097 1187 3025 
Q 903 2953 641 2809 
L 641 3341 
Q 956 3463 1253 3523 
Q 1550 3584 1831 3584 
Q 2591 3584 2966 3190 
Q 3341 2797 3341 1997 
z
" id="DejaVuSans-61" transform="scale(0.015625)"/>
      </defs>
      <use xlink:href="#DejaVuSans-52"/>
      <use x="64.982422" xlink:href="#DejaVuSans-65"/>
      <use x="126.505859" xlink:href="#DejaVuSans-66"/>
      <use x="161.710938" xlink:href="#DejaVuSans-65"/>
      <use x="223.234375" xlink:href="#DejaVuSans-72"/>
      <use x="262.097656" xlink:href="#DejaVuSans-65"/>
      <use x="323.621094" xlink:href="#DejaVuSans-6e"/>
      <use x="387" xlink:href="#DejaVuSans-63"/>
      <use x="441.980469" xlink:href="#DejaVuSans-69"/>
      <use x="469.763672" xlink:href="#DejaVuSans-61"/>
     </g>
    </g>
   </g>
  </g>
 </g>
 <defs>
  <clipPath id="pcdf4f30946">
   <rect height="554.4" width="554.4" x="10.8" y="10.8"/>
  </clipPath>
 </defs>
</svg>
