<?xml version="1.0" encoding="utf-8" standalone="no"?>
<!DOCTYPE svg PUBLIC "-//W3C//DTD SVG 1.1//EN"
  "http://www.w3.org/Graphics/SVG/1.1/DTD/svg11.dtd">
<svg height="576pt" version="1.1" viewBox="0 0 576 576" width="576pt" xmlns="http://www.w3.org/2000/svg" xmlns:xlink="http://www.w3.org/1999/xlink">
 <metadata>
  <rdf:RDF xmlns:cc="http://creativecommons.org/ns#" xmlns:dc="http://purl.org/dc/elements/1.1/" xmlns:rdf="http://www.w3.org/1999/02/22-rdf-syntax-ns#">
   <cc:Work>
    <dc:type rdf:resource="http://purl.org/dc/dcmitype/StillImage"/>
    <dc:date>2022-02-26T04:41:03.958385</dc:date>
    <dc:format>image/svg+xml</dc:format>
    <dc:creator>
     <cc:Agent>
      <dc:title>Matplotlib v3.4.3, https://matplotlib.org/</dc:title>
     </cc:Agent>
    </dc:creator>
   </cc:Work>
  </rdf:RDF>
 </metadata>
 <defs>
  <style type="text/css">*{stroke-linecap:butt;stroke-linejoin:round;}</style>
 </defs>
 <g id="figure_1">
  <g id="patch_1">
   <path d="M 0 576 
L 576 576 
L 576 0 
L 0 0 
z
" style="fill:#ffffff;"/>
  </g>
  <g id="axes_1">
   <g id="patch_2">
    <path d="M 78.19 272.58 
L 253.8 272.58 
L 253.8 80.88 
L 78.19 80.88 
z
" style="fill:#ffffff;"/>
   </g>
   <g id="matplotlib.axis_1">
    <g id="xtick_1">
     <g id="line2d_1">
      <path clip-path="url(#p1db9c5671f)" d="M 86.172273 272.58 
L 86.172273 80.88 
" style="fill:none;stroke:#b0b0b0;stroke-linecap:square;stroke-width:0.8;"/>
     </g>
     <g id="line2d_2">
      <defs>
       <path d="M 0 0 
L 0 3.5 
" id="m9df48899ae" style="stroke:#000000;stroke-width:0.8;"/>
      </defs>
      <g>
       <use style="stroke:#000000;stroke-width:0.8;" x="86.172273" xlink:href="#m9df48899ae" y="272.58"/>
      </g>
     </g>
    </g>
    <g id="xtick_2">
     <g id="line2d_3">
      <path clip-path="url(#p1db9c5671f)" d="M 126.091953 272.58 
L 126.091953 80.88 
" style="fill:none;stroke:#b0b0b0;stroke-linecap:square;stroke-width:0.8;"/>
     </g>
     <g id="line2d_4">
      <g>
       <use style="stroke:#000000;stroke-width:0.8;" x="126.091953" xlink:href="#m9df48899ae" y="272.58"/>
      </g>
     </g>
    </g>
    <g id="xtick_3">
     <g id="line2d_5">
      <path clip-path="url(#p1db9c5671f)" d="M 166.011633 272.58 
L 166.011633 80.88 
" style="fill:none;stroke:#b0b0b0;stroke-linecap:square;stroke-width:0.8;"/>
     </g>
     <g id="line2d_6">
      <g>
       <use style="stroke:#000000;stroke-width:0.8;" x="166.011633" xlink:href="#m9df48899ae" y="272.58"/>
      </g>
     </g>
    </g>
    <g id="xtick_4">
     <g id="line2d_7">
      <path clip-path="url(#p1db9c5671f)" d="M 205.931313 272.58 
L 205.931313 80.88 
" style="fill:none;stroke:#b0b0b0;stroke-linecap:square;stroke-width:0.8;"/>
     </g>
     <g id="line2d_8">
      <g>
       <use style="stroke:#000000;stroke-width:0.8;" x="205.931313" xlink:href="#m9df48899ae" y="272.58"/>
      </g>
     </g>
    </g>
    <g id="xtick_5">
     <g id="line2d_9">
      <path clip-path="url(#p1db9c5671f)" d="M 245.850994 272.58 
L 245.850994 80.88 
" style="fill:none;stroke:#b0b0b0;stroke-linecap:square;stroke-width:0.8;"/>
     </g>
     <g id="line2d_10">
      <g>
       <use style="stroke:#000000;stroke-width:0.8;" x="245.850994" xlink:href="#m9df48899ae" y="272.58"/>
      </g>
     </g>
    </g>
    <g id="text_1">
     <!-- Tiempo (s) -->
     <g transform="translate(139.4325 284.178437)scale(0.1 -0.1)">
      <defs>
       <path d="M -19 4666 
L 3928 4666 
L 3928 4134 
L 2272 4134 
L 2272 0 
L 1638 0 
L 1638 4134 
L -19 4134 
L -19 4666 
z
" id="DejaVuSans-54" transform="scale(0.015625)"/>
       <path d="M 603 3500 
L 1178 3500 
L 1178 0 
L 603 0 
L 603 3500 
z
M 603 4863 
L 1178 4863 
L 1178 4134 
L 603 4134 
L 603 4863 
z
" id="DejaVuSans-69" transform="scale(0.015625)"/>
       <path d="M 3597 1894 
L 3597 1613 
L 953 1613 
Q 991 1019 1311 708 
Q 1631 397 2203 397 
Q 2534 397 2845 478 
Q 3156 559 3463 722 
L 3463 178 
Q 3153 47 2828 -22 
Q 2503 -91 2169 -91 
Q 1331 -91 842 396 
Q 353 884 353 1716 
Q 353 2575 817 3079 
Q 1281 3584 2069 3584 
Q 2775 3584 3186 3129 
Q 3597 2675 3597 1894 
z
M 3022 2063 
Q 3016 2534 2758 2815 
Q 2500 3097 2075 3097 
Q 1594 3097 1305 2825 
Q 1016 2553 972 2059 
L 3022 2063 
z
" id="DejaVuSans-65" transform="scale(0.015625)"/>
       <path d="M 3328 2828 
Q 3544 3216 3844 3400 
Q 4144 3584 4550 3584 
Q 5097 3584 5394 3201 
Q 5691 2819 5691 2113 
L 5691 0 
L 5113 0 
L 5113 2094 
Q 5113 2597 4934 2840 
Q 4756 3084 4391 3084 
Q 3944 3084 3684 2787 
Q 3425 2491 3425 1978 
L 3425 0 
L 2847 0 
L 2847 2094 
Q 2847 2600 2669 2842 
Q 2491 3084 2119 3084 
Q 1678 3084 1418 2786 
Q 1159 2488 1159 1978 
L 1159 0 
L 581 0 
L 581 3500 
L 1159 3500 
L 1159 2956 
Q 1356 3278 1631 3431 
Q 1906 3584 2284 3584 
Q 2666 3584 2933 3390 
Q 3200 3197 3328 2828 
z
" id="DejaVuSans-6d" transform="scale(0.015625)"/>
       <path d="M 1159 525 
L 1159 -1331 
L 581 -1331 
L 581 3500 
L 1159 3500 
L 1159 2969 
Q 1341 3281 1617 3432 
Q 1894 3584 2278 3584 
Q 2916 3584 3314 3078 
Q 3713 2572 3713 1747 
Q 3713 922 3314 415 
Q 2916 -91 2278 -91 
Q 1894 -91 1617 61 
Q 1341 213 1159 525 
z
M 3116 1747 
Q 3116 2381 2855 2742 
Q 2594 3103 2138 3103 
Q 1681 3103 1420 2742 
Q 1159 2381 1159 1747 
Q 1159 1113 1420 752 
Q 1681 391 2138 391 
Q 2594 391 2855 752 
Q 3116 1113 3116 1747 
z
" id="DejaVuSans-70" transform="scale(0.015625)"/>
       <path d="M 1959 3097 
Q 1497 3097 1228 2736 
Q 959 2375 959 1747 
Q 959 1119 1226 758 
Q 1494 397 1959 397 
Q 2419 397 2687 759 
Q 2956 1122 2956 1747 
Q 2956 2369 2687 2733 
Q 2419 3097 1959 3097 
z
M 1959 3584 
Q 2709 3584 3137 3096 
Q 3566 2609 3566 1747 
Q 3566 888 3137 398 
Q 2709 -91 1959 -91 
Q 1206 -91 779 398 
Q 353 888 353 1747 
Q 353 2609 779 3096 
Q 1206 3584 1959 3584 
z
" id="DejaVuSans-6f" transform="scale(0.015625)"/>
       <path id="DejaVuSans-20" transform="scale(0.015625)"/>
       <path d="M 1984 4856 
Q 1566 4138 1362 3434 
Q 1159 2731 1159 2009 
Q 1159 1288 1364 580 
Q 1569 -128 1984 -844 
L 1484 -844 
Q 1016 -109 783 600 
Q 550 1309 550 2009 
Q 550 2706 781 3412 
Q 1013 4119 1484 4856 
L 1984 4856 
z
" id="DejaVuSans-28" transform="scale(0.015625)"/>
       <path d="M 2834 3397 
L 2834 2853 
Q 2591 2978 2328 3040 
Q 2066 3103 1784 3103 
Q 1356 3103 1142 2972 
Q 928 2841 928 2578 
Q 928 2378 1081 2264 
Q 1234 2150 1697 2047 
L 1894 2003 
Q 2506 1872 2764 1633 
Q 3022 1394 3022 966 
Q 3022 478 2636 193 
Q 2250 -91 1575 -91 
Q 1294 -91 989 -36 
Q 684 19 347 128 
L 347 722 
Q 666 556 975 473 
Q 1284 391 1588 391 
Q 1994 391 2212 530 
Q 2431 669 2431 922 
Q 2431 1156 2273 1281 
Q 2116 1406 1581 1522 
L 1381 1569 
Q 847 1681 609 1914 
Q 372 2147 372 2553 
Q 372 3047 722 3315 
Q 1072 3584 1716 3584 
Q 2034 3584 2315 3537 
Q 2597 3491 2834 3397 
z
" id="DejaVuSans-73" transform="scale(0.015625)"/>
       <path d="M 513 4856 
L 1013 4856 
Q 1481 4119 1714 3412 
Q 1947 2706 1947 2009 
Q 1947 1309 1714 600 
Q 1481 -109 1013 -844 
L 513 -844 
Q 928 -128 1133 580 
Q 1338 1288 1338 2009 
Q 1338 2731 1133 3434 
Q 928 4138 513 4856 
z
" id="DejaVuSans-29" transform="scale(0.015625)"/>
      </defs>
      <use xlink:href="#DejaVuSans-54"/>
      <use x="57.958984" xlink:href="#DejaVuSans-69"/>
      <use x="85.742188" xlink:href="#DejaVuSans-65"/>
      <use x="147.265625" xlink:href="#DejaVuSans-6d"/>
      <use x="244.677734" xlink:href="#DejaVuSans-70"/>
      <use x="308.154297" xlink:href="#DejaVuSans-6f"/>
      <use x="369.335938" xlink:href="#DejaVuSans-20"/>
      <use x="401.123047" xlink:href="#DejaVuSans-28"/>
      <use x="440.136719" xlink:href="#DejaVuSans-73"/>
      <use x="492.236328" xlink:href="#DejaVuSans-29"/>
     </g>
    </g>
   </g>
   <g id="matplotlib.axis_2">
    <g id="ytick_1">
     <g id="line2d_11">
      <path clip-path="url(#p1db9c5671f)" d="M 78.19 263.866364 
L 253.8 263.866364 
" style="fill:none;stroke:#b0b0b0;stroke-linecap:square;stroke-width:0.8;"/>
     </g>
     <g id="line2d_12">
      <defs>
       <path d="M 0 0 
L -3.5 0 
" id="m4c1eb65f68" style="stroke:#000000;stroke-width:0.8;"/>
      </defs>
      <g>
       <use style="stroke:#000000;stroke-width:0.8;" x="78.19" xlink:href="#m4c1eb65f68" y="263.866364"/>
      </g>
     </g>
     <g id="text_2">
      <!-- 0 -->
      <g transform="translate(64.8275 267.665582)scale(0.1 -0.1)">
       <defs>
        <path d="M 2034 4250 
Q 1547 4250 1301 3770 
Q 1056 3291 1056 2328 
Q 1056 1369 1301 889 
Q 1547 409 2034 409 
Q 2525 409 2770 889 
Q 3016 1369 3016 2328 
Q 3016 3291 2770 3770 
Q 2525 4250 2034 4250 
z
M 2034 4750 
Q 2819 4750 3233 4129 
Q 3647 3509 3647 2328 
Q 3647 1150 3233 529 
Q 2819 -91 2034 -91 
Q 1250 -91 836 529 
Q 422 1150 422 2328 
Q 422 3509 836 4129 
Q 1250 4750 2034 4750 
z
" id="DejaVuSans-30" transform="scale(0.015625)"/>
       </defs>
       <use xlink:href="#DejaVuSans-30"/>
      </g>
     </g>
    </g>
    <g id="ytick_2">
     <g id="line2d_13">
      <path clip-path="url(#p1db9c5671f)" d="M 78.19 223.876345 
L 253.8 223.876345 
" style="fill:none;stroke:#b0b0b0;stroke-linecap:square;stroke-width:0.8;"/>
     </g>
     <g id="line2d_14">
      <g>
       <use style="stroke:#000000;stroke-width:0.8;" x="78.19" xlink:href="#m4c1eb65f68" y="223.876345"/>
      </g>
     </g>
     <g id="text_3">
      <!-- 5000 -->
      <g transform="translate(45.74 227.675564)scale(0.1 -0.1)">
       <defs>
        <path d="M 691 4666 
L 3169 4666 
L 3169 4134 
L 1269 4134 
L 1269 2991 
Q 1406 3038 1543 3061 
Q 1681 3084 1819 3084 
Q 2600 3084 3056 2656 
Q 3513 2228 3513 1497 
Q 3513 744 3044 326 
Q 2575 -91 1722 -91 
Q 1428 -91 1123 -41 
Q 819 9 494 109 
L 494 744 
Q 775 591 1075 516 
Q 1375 441 1709 441 
Q 2250 441 2565 725 
Q 2881 1009 2881 1497 
Q 2881 1984 2565 2268 
Q 2250 2553 1709 2553 
Q 1456 2553 1204 2497 
Q 953 2441 691 2322 
L 691 4666 
z
" id="DejaVuSans-35" transform="scale(0.015625)"/>
       </defs>
       <use xlink:href="#DejaVuSans-35"/>
       <use x="63.623047" xlink:href="#DejaVuSans-30"/>
       <use x="127.246094" xlink:href="#DejaVuSans-30"/>
       <use x="190.869141" xlink:href="#DejaVuSans-30"/>
      </g>
     </g>
    </g>
    <g id="ytick_3">
     <g id="line2d_15">
      <path clip-path="url(#p1db9c5671f)" d="M 78.19 183.886326 
L 253.8 183.886326 
" style="fill:none;stroke:#b0b0b0;stroke-linecap:square;stroke-width:0.8;"/>
     </g>
     <g id="line2d_16">
      <g>
       <use style="stroke:#000000;stroke-width:0.8;" x="78.19" xlink:href="#m4c1eb65f68" y="183.886326"/>
      </g>
     </g>
     <g id="text_4">
      <!-- 10000 -->
      <g transform="translate(39.3775 187.685545)scale(0.1 -0.1)">
       <defs>
        <path d="M 794 531 
L 1825 531 
L 1825 4091 
L 703 3866 
L 703 4441 
L 1819 4666 
L 2450 4666 
L 2450 531 
L 3481 531 
L 3481 0 
L 794 0 
L 794 531 
z
" id="DejaVuSans-31" transform="scale(0.015625)"/>
       </defs>
       <use xlink:href="#DejaVuSans-31"/>
       <use x="63.623047" xlink:href="#DejaVuSans-30"/>
       <use x="127.246094" xlink:href="#DejaVuSans-30"/>
       <use x="190.869141" xlink:href="#DejaVuSans-30"/>
       <use x="254.492188" xlink:href="#DejaVuSans-30"/>
      </g>
     </g>
    </g>
    <g id="ytick_4">
     <g id="line2d_17">
      <path clip-path="url(#p1db9c5671f)" d="M 78.19 143.896307 
L 253.8 143.896307 
" style="fill:none;stroke:#b0b0b0;stroke-linecap:square;stroke-width:0.8;"/>
     </g>
     <g id="line2d_18">
      <g>
       <use style="stroke:#000000;stroke-width:0.8;" x="78.19" xlink:href="#m4c1eb65f68" y="143.896307"/>
      </g>
     </g>
     <g id="text_5">
      <!-- 15000 -->
      <g transform="translate(39.3775 147.695526)scale(0.1 -0.1)">
       <use xlink:href="#DejaVuSans-31"/>
       <use x="63.623047" xlink:href="#DejaVuSans-35"/>
       <use x="127.246094" xlink:href="#DejaVuSans-30"/>
       <use x="190.869141" xlink:href="#DejaVuSans-30"/>
       <use x="254.492188" xlink:href="#DejaVuSans-30"/>
      </g>
     </g>
    </g>
    <g id="ytick_5">
     <g id="line2d_19">
      <path clip-path="url(#p1db9c5671f)" d="M 78.19 103.906288 
L 253.8 103.906288 
" style="fill:none;stroke:#b0b0b0;stroke-linecap:square;stroke-width:0.8;"/>
     </g>
     <g id="line2d_20">
      <g>
       <use style="stroke:#000000;stroke-width:0.8;" x="78.19" xlink:href="#m4c1eb65f68" y="103.906288"/>
      </g>
     </g>
     <g id="text_6">
      <!-- 20000 -->
      <g transform="translate(39.3775 107.705507)scale(0.1 -0.1)">
       <defs>
        <path d="M 1228 531 
L 3431 531 
L 3431 0 
L 469 0 
L 469 531 
Q 828 903 1448 1529 
Q 2069 2156 2228 2338 
Q 2531 2678 2651 2914 
Q 2772 3150 2772 3378 
Q 2772 3750 2511 3984 
Q 2250 4219 1831 4219 
Q 1534 4219 1204 4116 
Q 875 4013 500 3803 
L 500 4441 
Q 881 4594 1212 4672 
Q 1544 4750 1819 4750 
Q 2544 4750 2975 4387 
Q 3406 4025 3406 3419 
Q 3406 3131 3298 2873 
Q 3191 2616 2906 2266 
Q 2828 2175 2409 1742 
Q 1991 1309 1228 531 
z
" id="DejaVuSans-32" transform="scale(0.015625)"/>
       </defs>
       <use xlink:href="#DejaVuSans-32"/>
       <use x="63.623047" xlink:href="#DejaVuSans-30"/>
       <use x="127.246094" xlink:href="#DejaVuSans-30"/>
       <use x="190.869141" xlink:href="#DejaVuSans-30"/>
       <use x="254.492188" xlink:href="#DejaVuSans-30"/>
      </g>
     </g>
    </g>
   </g>
   <g id="line2d_21">
    <path clip-path="url(#p1db9c5671f)" d="M 86.172273 263.866364 
L 86.305338 143.721474 
L 86.338605 143.721474 
L 86.47167 145.238769 
L 86.504937 145.238769 
L 86.638002 146.249713 
L 86.671269 146.249713 
L 86.804334 146.920399 
L 86.837601 146.920399 
L 86.970666 147.363777 
L 87.003933 147.363777 
L 87.136998 147.655924 
L 87.170265 147.655924 
L 87.30333 147.847749 
L 87.336597 147.847749 
L 87.469662 147.973167 
L 87.669261 148.054706 
L 87.802326 148.107297 
L 126.258285 148.147812 
L 126.391351 90.578035 
L 128.420601 90.578035 
L 128.553667 91.198307 
L 128.586933 91.198307 
L 128.719999 124.865768 
L 128.753265 124.865768 
L 128.886331 151.09035 
L 128.919597 151.09035 
L 129.052663 170.874962 
L 129.085929 170.874962 
L 129.218995 185.006465 
L 129.252261 185.006465 
L 129.385327 188.362809 
L 131.913573 188.362809 
L 132.046639 184.23337 
L 132.079905 184.23337 
L 132.212971 177.605989 
L 132.246237 177.605989 
L 132.379303 173.092204 
L 132.412569 173.092204 
L 132.545635 169.859809 
L 132.578901 169.859809 
L 132.711967 167.44177 
L 132.745233 167.44177 
L 132.878299 165.559098 
L 132.911565 165.559098 
L 133.044631 164.038761 
L 133.077897 164.038761 
L 133.210963 162.770727 
L 133.244229 162.770727 
L 133.377295 161.683695 
L 133.410561 161.683695 
L 133.543627 160.730709 
L 133.576893 160.730709 
L 133.709959 159.880349 
L 133.743225 159.880349 
L 133.876291 159.111226 
L 133.909557 159.111226 
L 134.042623 158.408488 
L 134.075889 158.408488 
L 134.208955 157.761582 
L 134.242221 157.761582 
L 134.375287 157.162809 
L 134.408553 157.162809 
L 134.541619 156.606385 
L 134.574885 156.606385 
L 134.707951 156.087826 
L 134.741217 156.087826 
L 134.874283 155.603548 
L 134.907549 155.603548 
L 135.040615 155.150598 
L 135.073881 155.150598 
L 135.206947 154.726478 
L 135.240213 154.726478 
L 135.373279 154.329026 
L 135.406545 154.329026 
L 135.539611 153.956335 
L 135.572877 153.956335 
L 135.705943 153.606698 
L 135.739209 153.606698 
L 135.872275 153.278571 
L 135.905541 153.278571 
L 136.038607 152.970543 
L 136.071873 152.970543 
L 136.204939 152.681315 
L 136.238205 152.681315 
L 136.371271 152.40969 
L 136.404537 152.40969 
L 136.537603 152.154555 
L 136.570869 152.154555 
L 136.703935 151.914878 
L 136.737201 151.914878 
L 136.870267 151.689696 
L 136.903533 151.689696 
L 137.036599 151.47811 
L 137.069865 151.47811 
L 137.202931 151.279282 
L 137.236197 151.279282 
L 137.369263 151.092426 
L 137.402529 151.092426 
L 137.535595 150.91681 
L 137.568861 150.91681 
L 137.701927 150.751746 
L 137.735193 150.751746 
L 137.868259 150.59659 
L 137.901525 150.59659 
L 138.034591 150.450739 
L 138.067857 150.450739 
L 138.200923 150.313628 
L 138.234189 150.313628 
L 138.367255 150.184726 
L 138.400521 150.184726 
L 138.533587 150.063537 
L 138.566853 150.063537 
L 138.699919 149.949595 
L 138.899517 149.842461 
L 139.032583 149.741725 
L 139.232181 149.647001 
L 139.365247 149.557929 
L 139.564845 149.474168 
L 139.697911 149.395399 
L 139.897509 149.321323 
L 140.030575 149.251659 
L 140.230173 149.186142 
L 140.363239 149.124523 
L 140.562837 149.06657 
L 140.695903 149.012064 
L 141.061833 148.912581 
L 141.261431 148.82457 
L 141.727161 148.746703 
L 141.926759 148.677808 
L 142.558821 148.589055 
L 142.791686 148.538314 
L 143.723145 148.435586 
L 144.022543 148.402732 
L 145.552797 148.29614 
L 146.085059 148.264465 
L 154.534725 148.15361 
L 166.011633 148.147904 
L 245.817727 148.147812 
L 245.817727 148.147812 
" style="fill:none;stroke:#1f77b4;stroke-linecap:square;stroke-opacity:0.7;stroke-width:1.5;"/>
   </g>
   <g id="line2d_22">
    <path clip-path="url(#p1db9c5671f)" d="M 86.172273 263.866364 
L 86.305338 147.719157 
L 87.835593 147.757234 
L 87.968658 147.900141 
L 88.334589 147.95071 
L 88.467654 147.168164 
L 88.500921 147.168164 
L 88.633986 146.74916 
L 88.667253 146.74916 
L 88.800318 146.435062 
L 88.833585 146.435062 
L 88.96665 146.115065 
L 88.999917 146.115065 
L 89.132982 145.614792 
L 89.166249 145.614792 
L 89.299314 145.242173 
L 89.332581 145.242173 
L 89.465646 145.458417 
L 89.498913 145.458417 
L 89.631978 146.205404 
L 89.665245 146.205404 
L 89.79831 147.160662 
L 89.831577 147.160662 
L 89.964642 147.874518 
L 89.997909 147.874518 
L 90.130974 148.129128 
L 90.164241 148.129128 
L 90.297306 147.903486 
L 90.330573 147.903486 
L 90.463638 147.647498 
L 90.496905 147.647498 
L 90.62997 147.953912 
L 90.663237 147.953912 
L 90.796302 148.408748 
L 90.995901 148.343477 
L 91.128966 147.983644 
L 91.494897 148.092809 
L 91.627962 148.24222 
L 91.827561 148.152859 
L 91.960626 148.024001 
L 92.160225 148.075079 
L 92.29329 148.219285 
L 95.154201 148.23464 
L 95.287266 148.381476 
L 95.320533 148.381476 
L 95.453598 148.57195 
L 95.486865 148.57195 
L 95.61993 148.756073 
L 95.653197 148.756073 
L 95.786262 148.906036 
L 96.152193 148.939471 
L 96.285258 148.739439 
L 96.318525 148.739439 
L 96.45159 148.458183 
L 96.484857 148.458183 
L 96.617922 148.207007 
L 96.651189 148.207007 
L 96.784254 148.072155 
L 97.150185 148.110439 
L 97.28325 148.188925 
L 97.482849 148.273419 
L 97.615914 148.361862 
L 98.647173 148.284481 
L 98.813505 148.237934 
L 99.013103 148.19764 
L 126.258285 148.146326 
L 126.391351 89.624708 
L 126.424617 89.624708 
L 126.557683 89.820362 
L 126.757281 89.801099 
L 126.890347 89.593636 
L 127.089945 89.635263 
L 127.223011 90.069912 
L 127.256277 90.069912 
L 127.389343 91.710941 
L 127.422609 91.710941 
L 127.555675 100.708321 
L 127.588941 100.708321 
L 127.722007 116.484925 
L 127.755273 116.484925 
L 127.888339 130.17629 
L 127.921605 130.17629 
L 128.054671 142.282781 
L 128.087937 142.282781 
L 128.221003 154.04128 
L 128.254269 154.04128 
L 128.387335 162.720117 
L 128.420601 162.720117 
L 128.553667 167.623292 
L 128.586933 167.623292 
L 128.719999 169.366985 
L 128.919597 169.260032 
L 129.052663 168.274576 
L 129.085929 168.274576 
L 129.218995 167.136192 
L 129.252261 167.136192 
L 129.385327 166.147911 
L 129.418593 166.147911 
L 129.551659 165.167203 
L 129.584925 165.167203 
L 129.717991 164.060154 
L 129.751257 164.060154 
L 129.884323 162.925428 
L 129.917589 162.925428 
L 130.050655 161.931033 
L 130.083921 161.931033 
L 130.216987 161.031917 
L 130.250253 161.031917 
L 130.383319 160.186712 
L 130.416585 160.186712 
L 130.549651 159.381667 
L 130.582917 159.381667 
L 130.715983 158.586692 
L 130.749249 158.586692 
L 130.882315 157.852939 
L 130.915581 157.852939 
L 131.048647 157.182228 
L 131.081913 157.182228 
L 131.214979 156.56542 
L 131.248245 156.56542 
L 131.381311 156.112162 
L 131.414577 156.112162 
L 131.547643 155.813424 
L 131.747241 155.821017 
L 131.880307 156.116942 
L 131.913573 156.116942 
L 132.046639 156.578523 
L 132.079905 156.578523 
L 132.212971 157.063846 
L 132.246237 157.063846 
L 132.379303 157.393155 
L 132.412569 157.393155 
L 132.545635 157.235567 
L 132.578901 157.235567 
L 132.711967 155.914488 
L 132.745233 155.914488 
L 132.878299 153.264688 
L 132.911565 153.264688 
L 133.044631 151.906895 
L 133.077897 151.906895 
L 133.210963 152.273721 
L 133.244229 152.273721 
L 133.377295 152.73547 
L 133.576893 152.679402 
L 133.709959 152.472881 
L 134.408553 152.453244 
L 134.541619 152.28245 
L 134.574885 152.28245 
L 134.707951 152.047525 
L 134.741217 152.047525 
L 134.874283 151.741183 
L 134.907549 151.741183 
L 135.040615 151.403759 
L 135.073881 151.403759 
L 135.206947 151.114449 
L 135.406545 151.041844 
L 135.539611 151.310476 
L 135.572877 151.310476 
L 135.705943 151.831644 
L 135.739209 151.831644 
L 135.872275 152.192288 
L 135.905541 152.192288 
L 136.038607 152.012717 
L 136.071873 152.012717 
L 136.204939 151.701786 
L 136.238205 151.701786 
L 136.371271 151.527212 
L 136.570869 151.440617 
L 136.703935 151.332536 
L 136.737201 151.332536 
L 136.870267 151.18845 
L 136.903533 151.18845 
L 137.036599 151.057529 
L 137.236197 150.960712 
L 137.369263 150.866944 
L 137.568861 150.75593 
L 137.701927 150.625542 
L 137.735193 150.625542 
L 137.868259 150.48105 
L 137.901525 150.48105 
L 138.034591 150.341689 
L 138.400521 150.321293 
L 138.533587 150.5175 
L 138.566853 150.5175 
L 138.699919 150.957106 
L 138.733185 150.957106 
L 138.866251 151.640467 
L 138.899517 151.640467 
L 139.032583 152.466737 
L 139.065849 152.466737 
L 139.198915 153.06678 
L 139.398513 153.027054 
L 139.531579 152.031352 
L 139.564845 152.031352 
L 139.697911 150.398663 
L 139.731177 150.398663 
L 139.864243 149.673183 
L 139.897509 149.673183 
L 140.030575 149.940461 
L 140.063841 149.940461 
L 140.196907 150.322484 
L 140.895501 150.430041 
L 141.061833 150.47821 
L 143.390481 149.446889 
L 143.523547 149.342985 
L 143.556813 149.342985 
L 143.689879 149.229582 
L 143.723145 149.229582 
L 143.856211 149.113886 
L 143.889477 149.113886 
L 144.022543 149.000653 
L 144.222141 148.894091 
L 144.355207 148.803086 
L 144.554805 148.730737 
L 144.721137 148.681897 
L 144.920735 148.655404 
L 145.552797 148.745012 
L 145.685863 148.798775 
L 146.051793 148.906724 
L 146.218125 148.951461 
L 146.417723 149.002364 
L 147.049785 149.065656 
L 147.182851 149.178194 
L 147.216117 149.178194 
L 147.349183 149.400073 
L 147.382449 149.400073 
L 147.515515 149.741368 
L 147.548781 149.741368 
L 147.681847 150.136524 
L 147.715113 150.136524 
L 147.848179 150.451547 
L 148.047777 150.492674 
L 148.180843 150.115424 
L 148.214109 150.115424 
L 148.347175 149.25573 
L 148.380441 149.25573 
L 148.513507 148.449587 
L 150.376425 148.55283 
L 150.675823 148.568155 
L 152.372409 148.649306 
L 152.505475 148.751531 
L 152.538741 148.751531 
L 152.671807 148.887692 
L 152.705073 148.887692 
L 152.838139 149.034028 
L 152.871405 149.034028 
L 153.004471 149.149618 
L 153.370401 149.069188 
L 153.503467 148.794718 
L 153.536733 148.794718 
L 153.669799 148.447047 
L 153.703065 148.447047 
L 153.836131 148.233457 
L 155.200053 148.325342 
L 155.399652 148.419599 
L 155.699049 148.490034 
L 155.832115 148.555813 
L 156.530709 148.487857 
L 156.663775 148.352748 
L 156.697041 148.352748 
L 156.830107 148.240117 
L 157.861365 148.330472 
L 158.060964 148.414402 
L 159.025689 148.360704 
L 159.158755 148.299166 
L 164.015649 148.192757 
L 164.28178 148.167823 
L 245.817727 148.147773 
L 245.817727 148.147773 
" style="fill:none;stroke:#2ca02c;stroke-linecap:square;stroke-opacity:0.7;stroke-width:1.5;"/>
   </g>
   <g id="patch_3">
    <path d="M 78.19 272.58 
L 78.19 80.88 
" style="fill:none;stroke:#000000;stroke-linecap:square;stroke-linejoin:miter;stroke-width:0.8;"/>
   </g>
   <g id="patch_4">
    <path d="M 253.8 272.58 
L 253.8 80.88 
" style="fill:none;stroke:#000000;stroke-linecap:square;stroke-linejoin:miter;stroke-width:0.8;"/>
   </g>
   <g id="patch_5">
    <path d="M 78.19 272.58 
L 253.8 272.58 
" style="fill:none;stroke:#000000;stroke-linecap:square;stroke-linejoin:miter;stroke-width:0.8;"/>
   </g>
   <g id="patch_6">
    <path d="M 78.19 80.88 
L 253.8 80.88 
" style="fill:none;stroke:#000000;stroke-linecap:square;stroke-linejoin:miter;stroke-width:0.8;"/>
   </g>
   <g id="text_7">
    <!-- RPM0 (rpm) -->
    <g transform="translate(130.505 74.88)scale(0.12 -0.12)">
     <defs>
      <path d="M 2841 2188 
Q 3044 2119 3236 1894 
Q 3428 1669 3622 1275 
L 4263 0 
L 3584 0 
L 2988 1197 
Q 2756 1666 2539 1819 
Q 2322 1972 1947 1972 
L 1259 1972 
L 1259 0 
L 628 0 
L 628 4666 
L 2053 4666 
Q 2853 4666 3247 4331 
Q 3641 3997 3641 3322 
Q 3641 2881 3436 2590 
Q 3231 2300 2841 2188 
z
M 1259 4147 
L 1259 2491 
L 2053 2491 
Q 2509 2491 2742 2702 
Q 2975 2913 2975 3322 
Q 2975 3731 2742 3939 
Q 2509 4147 2053 4147 
L 1259 4147 
z
" id="DejaVuSans-52" transform="scale(0.015625)"/>
      <path d="M 1259 4147 
L 1259 2394 
L 2053 2394 
Q 2494 2394 2734 2622 
Q 2975 2850 2975 3272 
Q 2975 3691 2734 3919 
Q 2494 4147 2053 4147 
L 1259 4147 
z
M 628 4666 
L 2053 4666 
Q 2838 4666 3239 4311 
Q 3641 3956 3641 3272 
Q 3641 2581 3239 2228 
Q 2838 1875 2053 1875 
L 1259 1875 
L 1259 0 
L 628 0 
L 628 4666 
z
" id="DejaVuSans-50" transform="scale(0.015625)"/>
      <path d="M 628 4666 
L 1569 4666 
L 2759 1491 
L 3956 4666 
L 4897 4666 
L 4897 0 
L 4281 0 
L 4281 4097 
L 3078 897 
L 2444 897 
L 1241 4097 
L 1241 0 
L 628 0 
L 628 4666 
z
" id="DejaVuSans-4d" transform="scale(0.015625)"/>
      <path d="M 2631 2963 
Q 2534 3019 2420 3045 
Q 2306 3072 2169 3072 
Q 1681 3072 1420 2755 
Q 1159 2438 1159 1844 
L 1159 0 
L 581 0 
L 581 3500 
L 1159 3500 
L 1159 2956 
Q 1341 3275 1631 3429 
Q 1922 3584 2338 3584 
Q 2397 3584 2469 3576 
Q 2541 3569 2628 3553 
L 2631 2963 
z
" id="DejaVuSans-72" transform="scale(0.015625)"/>
     </defs>
     <use xlink:href="#DejaVuSans-52"/>
     <use x="69.482422" xlink:href="#DejaVuSans-50"/>
     <use x="129.785156" xlink:href="#DejaVuSans-4d"/>
     <use x="216.064453" xlink:href="#DejaVuSans-30"/>
     <use x="279.6875" xlink:href="#DejaVuSans-20"/>
     <use x="311.474609" xlink:href="#DejaVuSans-28"/>
     <use x="350.488281" xlink:href="#DejaVuSans-72"/>
     <use x="391.601562" xlink:href="#DejaVuSans-70"/>
     <use x="455.078125" xlink:href="#DejaVuSans-6d"/>
     <use x="552.490234" xlink:href="#DejaVuSans-29"/>
    </g>
   </g>
  </g>
  <g id="axes_2">
   <g id="patch_7">
    <path d="M 303.19 272.58 
L 478.8 272.58 
L 478.8 80.88 
L 303.19 80.88 
z
" style="fill:#ffffff;"/>
   </g>
   <g id="matplotlib.axis_3">
    <g id="xtick_6">
     <g id="line2d_23">
      <path clip-path="url(#pec54b0a463)" d="M 311.172273 272.58 
L 311.172273 80.88 
" style="fill:none;stroke:#b0b0b0;stroke-linecap:square;stroke-width:0.8;"/>
     </g>
     <g id="line2d_24">
      <g>
       <use style="stroke:#000000;stroke-width:0.8;" x="311.172273" xlink:href="#m9df48899ae" y="272.58"/>
      </g>
     </g>
    </g>
    <g id="xtick_7">
     <g id="line2d_25">
      <path clip-path="url(#pec54b0a463)" d="M 351.091953 272.58 
L 351.091953 80.88 
" style="fill:none;stroke:#b0b0b0;stroke-linecap:square;stroke-width:0.8;"/>
     </g>
     <g id="line2d_26">
      <g>
       <use style="stroke:#000000;stroke-width:0.8;" x="351.091953" xlink:href="#m9df48899ae" y="272.58"/>
      </g>
     </g>
    </g>
    <g id="xtick_8">
     <g id="line2d_27">
      <path clip-path="url(#pec54b0a463)" d="M 391.011633 272.58 
L 391.011633 80.88 
" style="fill:none;stroke:#b0b0b0;stroke-linecap:square;stroke-width:0.8;"/>
     </g>
     <g id="line2d_28">
      <g>
       <use style="stroke:#000000;stroke-width:0.8;" x="391.011633" xlink:href="#m9df48899ae" y="272.58"/>
      </g>
     </g>
    </g>
    <g id="xtick_9">
     <g id="line2d_29">
      <path clip-path="url(#pec54b0a463)" d="M 430.931313 272.58 
L 430.931313 80.88 
" style="fill:none;stroke:#b0b0b0;stroke-linecap:square;stroke-width:0.8;"/>
     </g>
     <g id="line2d_30">
      <g>
       <use style="stroke:#000000;stroke-width:0.8;" x="430.931313" xlink:href="#m9df48899ae" y="272.58"/>
      </g>
     </g>
    </g>
    <g id="xtick_10">
     <g id="line2d_31">
      <path clip-path="url(#pec54b0a463)" d="M 470.850994 272.58 
L 470.850994 80.88 
" style="fill:none;stroke:#b0b0b0;stroke-linecap:square;stroke-width:0.8;"/>
     </g>
     <g id="line2d_32">
      <g>
       <use style="stroke:#000000;stroke-width:0.8;" x="470.850994" xlink:href="#m9df48899ae" y="272.58"/>
      </g>
     </g>
    </g>
    <g id="text_8">
     <!-- Tiempo (s) -->
     <g transform="translate(364.4325 284.178437)scale(0.1 -0.1)">
      <use xlink:href="#DejaVuSans-54"/>
      <use x="57.958984" xlink:href="#DejaVuSans-69"/>
      <use x="85.742188" xlink:href="#DejaVuSans-65"/>
      <use x="147.265625" xlink:href="#DejaVuSans-6d"/>
      <use x="244.677734" xlink:href="#DejaVuSans-70"/>
      <use x="308.154297" xlink:href="#DejaVuSans-6f"/>
      <use x="369.335938" xlink:href="#DejaVuSans-20"/>
      <use x="401.123047" xlink:href="#DejaVuSans-28"/>
      <use x="440.136719" xlink:href="#DejaVuSans-73"/>
      <use x="492.236328" xlink:href="#DejaVuSans-29"/>
     </g>
    </g>
   </g>
   <g id="matplotlib.axis_4">
    <g id="ytick_6">
     <g id="line2d_33">
      <path clip-path="url(#pec54b0a463)" d="M 303.19 263.866364 
L 478.8 263.866364 
" style="fill:none;stroke:#b0b0b0;stroke-linecap:square;stroke-width:0.8;"/>
     </g>
     <g id="line2d_34">
      <g>
       <use style="stroke:#000000;stroke-width:0.8;" x="303.19" xlink:href="#m4c1eb65f68" y="263.866364"/>
      </g>
     </g>
     <g id="text_9">
      <!-- 0 -->
      <g transform="translate(289.8275 267.665582)scale(0.1 -0.1)">
       <use xlink:href="#DejaVuSans-30"/>
      </g>
     </g>
    </g>
    <g id="ytick_7">
     <g id="line2d_35">
      <path clip-path="url(#pec54b0a463)" d="M 303.19 223.855072 
L 478.8 223.855072 
" style="fill:none;stroke:#b0b0b0;stroke-linecap:square;stroke-width:0.8;"/>
     </g>
     <g id="line2d_36">
      <g>
       <use style="stroke:#000000;stroke-width:0.8;" x="303.19" xlink:href="#m4c1eb65f68" y="223.855072"/>
      </g>
     </g>
     <g id="text_10">
      <!-- 5000 -->
      <g transform="translate(270.74 227.65429)scale(0.1 -0.1)">
       <use xlink:href="#DejaVuSans-35"/>
       <use x="63.623047" xlink:href="#DejaVuSans-30"/>
       <use x="127.246094" xlink:href="#DejaVuSans-30"/>
       <use x="190.869141" xlink:href="#DejaVuSans-30"/>
      </g>
     </g>
    </g>
    <g id="ytick_8">
     <g id="line2d_37">
      <path clip-path="url(#pec54b0a463)" d="M 303.19 183.843779 
L 478.8 183.843779 
" style="fill:none;stroke:#b0b0b0;stroke-linecap:square;stroke-width:0.8;"/>
     </g>
     <g id="line2d_38">
      <g>
       <use style="stroke:#000000;stroke-width:0.8;" x="303.19" xlink:href="#m4c1eb65f68" y="183.843779"/>
      </g>
     </g>
     <g id="text_11">
      <!-- 10000 -->
      <g transform="translate(264.3775 187.642998)scale(0.1 -0.1)">
       <use xlink:href="#DejaVuSans-31"/>
       <use x="63.623047" xlink:href="#DejaVuSans-30"/>
       <use x="127.246094" xlink:href="#DejaVuSans-30"/>
       <use x="190.869141" xlink:href="#DejaVuSans-30"/>
       <use x="254.492188" xlink:href="#DejaVuSans-30"/>
      </g>
     </g>
    </g>
    <g id="ytick_9">
     <g id="line2d_39">
      <path clip-path="url(#pec54b0a463)" d="M 303.19 143.832487 
L 478.8 143.832487 
" style="fill:none;stroke:#b0b0b0;stroke-linecap:square;stroke-width:0.8;"/>
     </g>
     <g id="line2d_40">
      <g>
       <use style="stroke:#000000;stroke-width:0.8;" x="303.19" xlink:href="#m4c1eb65f68" y="143.832487"/>
      </g>
     </g>
     <g id="text_12">
      <!-- 15000 -->
      <g transform="translate(264.3775 147.631706)scale(0.1 -0.1)">
       <use xlink:href="#DejaVuSans-31"/>
       <use x="63.623047" xlink:href="#DejaVuSans-35"/>
       <use x="127.246094" xlink:href="#DejaVuSans-30"/>
       <use x="190.869141" xlink:href="#DejaVuSans-30"/>
       <use x="254.492188" xlink:href="#DejaVuSans-30"/>
      </g>
     </g>
    </g>
    <g id="ytick_10">
     <g id="line2d_41">
      <path clip-path="url(#pec54b0a463)" d="M 303.19 103.821195 
L 478.8 103.821195 
" style="fill:none;stroke:#b0b0b0;stroke-linecap:square;stroke-width:0.8;"/>
     </g>
     <g id="line2d_42">
      <g>
       <use style="stroke:#000000;stroke-width:0.8;" x="303.19" xlink:href="#m4c1eb65f68" y="103.821195"/>
      </g>
     </g>
     <g id="text_13">
      <!-- 20000 -->
      <g transform="translate(264.3775 107.620414)scale(0.1 -0.1)">
       <use xlink:href="#DejaVuSans-32"/>
       <use x="63.623047" xlink:href="#DejaVuSans-30"/>
       <use x="127.246094" xlink:href="#DejaVuSans-30"/>
       <use x="190.869141" xlink:href="#DejaVuSans-30"/>
       <use x="254.492188" xlink:href="#DejaVuSans-30"/>
      </g>
     </g>
    </g>
   </g>
   <g id="line2d_43">
    <path clip-path="url(#pec54b0a463)" d="M 311.172273 263.866364 
L 311.305338 143.657562 
L 311.338605 143.657562 
L 311.47167 145.175663 
L 311.504937 145.175663 
L 311.638002 146.187145 
L 311.671269 146.187145 
L 311.804334 146.858188 
L 311.837601 146.858188 
L 311.970666 147.301802 
L 312.003933 147.301802 
L 312.136998 147.594105 
L 312.170265 147.594105 
L 312.30333 147.786031 
L 312.336597 147.786031 
L 312.469662 147.911516 
L 312.669261 147.993098 
L 312.802326 148.045718 
L 351.258285 148.086255 
L 351.391351 90.485852 
L 353.420601 90.485852 
L 353.553667 91.106454 
L 353.586933 91.106454 
L 353.719999 124.791825 
L 353.753265 124.791825 
L 353.886331 151.030358 
L 353.919597 151.030358 
L 354.052663 170.825494 
L 354.085929 170.825494 
L 354.218995 184.964515 
L 354.252261 184.964515 
L 354.385327 188.322644 
L 356.913573 188.322644 
L 357.046639 184.191008 
L 357.079905 184.191008 
L 357.212971 177.560102 
L 357.246237 177.560102 
L 357.379303 173.043916 
L 357.412569 173.043916 
L 357.545635 169.809801 
L 357.578901 169.809801 
L 357.711967 167.390476 
L 357.745233 167.390476 
L 357.878299 165.506802 
L 357.911565 165.506802 
L 358.044631 163.985656 
L 358.077897 163.985656 
L 358.210963 162.716948 
L 358.244229 162.716948 
L 358.377295 161.629338 
L 358.410561 161.629338 
L 358.543627 160.675845 
L 358.576893 160.675845 
L 358.709959 159.825033 
L 358.743225 159.825033 
L 358.876291 159.0555 
L 358.909557 159.0555 
L 359.042623 158.352388 
L 359.075889 158.352388 
L 359.208955 157.705138 
L 359.242221 157.705138 
L 359.375287 157.106046 
L 359.408553 157.106046 
L 359.541619 156.549326 
L 359.574885 156.549326 
L 359.707951 156.030492 
L 359.741217 156.030492 
L 359.874283 155.545956 
L 359.907549 155.545956 
L 360.040615 155.092766 
L 360.073881 155.092766 
L 360.206947 154.66842 
L 360.240213 154.66842 
L 360.373279 154.270756 
L 360.406545 154.270756 
L 360.539611 153.897867 
L 360.572877 153.897867 
L 360.705943 153.548044 
L 360.739209 153.548044 
L 360.872275 153.219743 
L 360.905541 153.219743 
L 361.038607 152.91155 
L 361.071873 152.91155 
L 361.204939 152.622169 
L 361.238205 152.622169 
L 361.371271 152.350399 
L 361.404537 152.350399 
L 361.537603 152.095129 
L 361.570869 152.095129 
L 361.703935 151.855324 
L 361.737201 151.855324 
L 361.870267 151.630022 
L 361.903533 151.630022 
L 362.036599 151.418323 
L 362.069865 151.418323 
L 362.202931 151.219389 
L 362.236197 151.219389 
L 362.369263 151.032435 
L 362.402529 151.032435 
L 362.535595 150.856725 
L 362.568861 150.856725 
L 362.701927 150.691573 
L 362.735193 150.691573 
L 362.868259 150.536335 
L 362.901525 150.536335 
L 363.034591 150.390406 
L 363.067857 150.390406 
L 363.200923 150.253222 
L 363.234189 150.253222 
L 363.367255 150.124252 
L 363.400521 150.124252 
L 363.533587 150.002998 
L 363.566853 150.002998 
L 363.699919 149.888995 
L 363.899517 149.781804 
L 364.032583 149.681015 
L 364.232181 149.586241 
L 364.365247 149.497121 
L 364.564845 149.413316 
L 364.697911 149.334505 
L 364.897509 149.26039 
L 365.030575 149.190688 
L 365.230173 149.125136 
L 365.363239 149.063485 
L 365.562837 149.005501 
L 365.695903 148.950966 
L 366.061833 148.85143 
L 366.261431 148.763372 
L 366.727161 148.685464 
L 366.926759 148.616532 
L 367.558821 148.527732 
L 367.791686 148.476964 
L 368.723145 148.374181 
L 369.022543 148.34131 
L 370.552797 148.234661 
L 371.085059 148.202969 
L 379.534725 148.092055 
L 391.011633 148.086346 
L 470.817727 148.086254 
L 470.817727 148.086254 
" style="fill:none;stroke:#1f77b4;stroke-linecap:square;stroke-opacity:0.7;stroke-width:1.5;"/>
   </g>
   <g id="line2d_44">
    <path clip-path="url(#pec54b0a463)" d="M 311.172273 263.866364 
L 311.305338 148.045835 
L 312.835593 148.034598 
L 312.968658 147.814016 
L 313.001925 147.814016 
L 313.13499 147.139946 
L 313.168257 147.139946 
L 313.301322 149.192176 
L 313.334589 149.192176 
L 313.467654 149.90526 
L 313.500921 149.90526 
L 313.633986 148.648878 
L 313.667253 148.648878 
L 313.800318 146.310394 
L 313.833585 146.310394 
L 313.96665 144.871661 
L 313.999917 144.871661 
L 314.132982 145.057114 
L 314.166249 145.057114 
L 314.299314 145.259295 
L 314.332581 145.259295 
L 314.465646 144.364563 
L 314.498913 144.364563 
L 314.631978 143.311157 
L 314.831577 143.37666 
L 314.964642 144.584425 
L 314.997909 144.584425 
L 315.130974 146.037394 
L 315.164241 146.037394 
L 315.297306 147.349229 
L 315.330573 147.349229 
L 315.463638 148.149385 
L 315.496905 148.149385 
L 315.62997 148.313433 
L 315.663237 148.313433 
L 315.796302 148.460387 
L 315.995901 148.534264 
L 316.128966 148.315654 
L 316.162233 148.315654 
L 316.295298 148.086551 
L 316.494897 148.189485 
L 316.627962 148.44811 
L 316.827561 148.496596 
L 316.960626 148.33327 
L 317.326557 148.409273 
L 317.459622 148.567684 
L 317.659221 148.552793 
L 317.792286 148.44529 
L 318.158217 148.543627 
L 318.291282 148.616534 
L 318.490881 148.571241 
L 318.623946 148.498851 
L 320.154201 148.465029 
L 320.287266 148.344086 
L 320.486865 148.23774 
L 320.61993 148.144313 
L 320.819529 148.043912 
L 320.952594 147.973753 
L 321.152193 147.998958 
L 321.285258 148.132626 
L 321.318525 148.132626 
L 321.45159 148.286046 
L 322.316517 148.239551 
L 322.449582 148.169841 
L 351.258285 148.08463 
L 351.391351 90.075595 
L 351.424617 90.075595 
L 351.557683 89.593636 
L 351.590949 89.593636 
L 351.724015 89.871579 
L 351.757281 89.871579 
L 351.890347 89.748522 
L 352.089945 89.79546 
L 352.223011 90.259748 
L 352.256277 90.259748 
L 352.389343 91.656597 
L 352.422609 91.656597 
L 352.555675 98.257029 
L 352.588941 98.257029 
L 352.722007 111.783358 
L 352.755273 111.783358 
L 352.888339 127.99813 
L 352.921605 127.99813 
L 353.054671 143.858402 
L 353.087937 143.858402 
L 353.221003 157.186563 
L 353.254269 157.186563 
L 353.387335 164.987144 
L 353.420601 164.987144 
L 353.553667 169.460239 
L 353.586933 169.460239 
L 353.719999 172.107054 
L 353.753265 172.107054 
L 353.886331 172.901118 
L 353.919597 172.901118 
L 354.052663 172.060766 
L 354.085929 172.060766 
L 354.218995 170.243446 
L 354.252261 170.243446 
L 354.385327 168.217816 
L 354.418593 168.217816 
L 354.551659 166.408574 
L 354.584925 166.408574 
L 354.717991 164.97755 
L 354.751257 164.97755 
L 354.884323 163.807349 
L 354.917589 163.807349 
L 355.050655 162.71052 
L 355.083921 162.71052 
L 355.216987 161.61306 
L 355.250253 161.61306 
L 355.383319 160.586197 
L 355.416585 160.586197 
L 355.549651 159.670912 
L 355.582917 159.670912 
L 355.715983 158.851536 
L 355.749249 158.851536 
L 355.882315 158.078454 
L 355.915581 158.078454 
L 356.048647 157.337899 
L 356.081913 157.337899 
L 356.214979 156.583035 
L 356.248245 156.583035 
L 356.381311 155.743272 
L 356.414577 155.743272 
L 356.547643 154.720465 
L 356.580909 154.720465 
L 356.713975 153.466312 
L 356.747241 153.466312 
L 356.880307 152.12252 
L 356.913573 152.12252 
L 357.046639 150.86963 
L 357.079905 150.86963 
L 357.212971 149.831627 
L 357.246237 149.831627 
L 357.379303 149.196424 
L 357.412569 149.196424 
L 357.545635 149.308027 
L 357.578901 149.308027 
L 357.711967 150.392181 
L 357.745233 150.392181 
L 357.878299 152.734193 
L 357.911565 152.734193 
L 358.044631 153.862201 
L 358.077897 153.862201 
L 358.210963 153.614542 
L 358.410561 153.556394 
L 358.543627 153.733346 
L 358.743225 153.661155 
L 358.876291 153.474111 
L 359.075889 153.491756 
L 359.208955 153.624895 
L 359.741217 153.690212 
L 359.874283 153.980844 
L 359.907549 153.980844 
L 360.040615 154.329809 
L 360.073881 154.329809 
L 360.206947 154.559854 
L 360.406545 154.480964 
L 360.539611 154.005724 
L 360.572877 154.005724 
L 360.705943 153.199151 
L 360.739209 153.199151 
L 360.872275 152.569415 
L 360.905541 152.569415 
L 361.038607 152.376962 
L 361.071873 152.376962 
L 361.204939 152.26273 
L 361.238205 152.26273 
L 361.371271 152.061747 
L 361.404537 152.061747 
L 361.537603 151.884139 
L 361.570869 151.884139 
L 361.703935 151.76034 
L 361.737201 151.76034 
L 361.870267 151.622953 
L 361.903533 151.622953 
L 362.036599 151.469807 
L 362.069865 151.469807 
L 362.202931 151.340099 
L 362.402529 151.237169 
L 362.535595 151.131938 
L 362.568861 151.131938 
L 362.701927 150.995681 
L 362.735193 150.995681 
L 362.868259 150.838142 
L 362.901525 150.838142 
L 363.034591 150.694866 
L 363.067857 150.694866 
L 363.200923 150.523175 
L 363.234189 150.523175 
L 363.367255 150.276399 
L 363.400521 150.276399 
L 363.533587 149.840072 
L 363.566853 149.840072 
L 363.699919 149.242515 
L 363.733185 149.242515 
L 363.866251 148.589248 
L 363.899517 148.589248 
L 364.032583 147.910669 
L 364.065849 147.910669 
L 364.198915 147.409591 
L 364.398513 147.467877 
L 364.531579 148.465979 
L 364.564845 148.465979 
L 364.697911 150.246146 
L 364.731177 150.246146 
L 364.864243 151.059353 
L 364.897509 151.059353 
L 365.030575 150.788518 
L 365.063841 150.788518 
L 365.196907 150.589427 
L 365.230173 150.589427 
L 365.363239 150.823807 
L 365.396505 150.823807 
L 365.529571 151.061726 
L 366.394497 151.011459 
L 366.527563 150.924688 
L 366.727161 150.823127 
L 366.860227 150.741088 
L 367.059825 150.663253 
L 367.192891 150.570043 
L 367.392489 150.461894 
L 367.525555 150.355643 
L 367.725153 150.262064 
L 367.858219 150.170392 
L 368.057817 150.070827 
L 368.190883 149.958169 
L 368.224149 149.958169 
L 368.357215 149.839536 
L 368.390481 149.839536 
L 368.523547 149.7173 
L 368.556813 149.7173 
L 368.689879 149.588605 
L 368.723145 149.588605 
L 368.856211 149.455387 
L 368.889477 149.455387 
L 369.022543 149.328398 
L 369.055809 149.328398 
L 369.188875 149.210261 
L 369.388473 149.112471 
L 369.521539 149.038374 
L 370.719129 149.110349 
L 370.852195 149.165166 
L 371.218125 149.252407 
L 371.417723 149.2897 
L 371.883453 149.225813 
L 372.016519 149.105193 
L 372.049785 149.105193 
L 372.182851 148.880407 
L 372.216117 148.880407 
L 372.349183 148.540239 
L 372.382449 148.540239 
L 372.515515 148.138446 
L 372.548781 148.138446 
L 372.681847 147.77611 
L 372.715113 147.77611 
L 372.848179 147.538913 
L 373.047777 147.52138 
L 373.180843 147.843042 
L 373.214109 147.843042 
L 373.347175 148.527446 
L 373.380441 148.527446 
L 373.513507 149.103028 
L 373.713105 149.047027 
L 373.846171 148.809628 
L 377.039745 148.750492 
L 377.172811 148.672789 
L 377.372409 148.561919 
L 377.505475 148.419208 
L 377.538741 148.419208 
L 377.671807 148.249719 
L 377.705073 148.249719 
L 377.838139 148.080896 
L 377.871405 148.080896 
L 378.004471 147.956351 
L 378.370401 148.002755 
L 378.503467 148.242023 
L 378.536733 148.242023 
L 378.669799 148.541501 
L 378.703065 148.541501 
L 378.836131 148.686616 
L 379.035729 148.623458 
L 379.168795 148.546136 
L 380.033721 148.474056 
L 380.23332 148.370738 
L 380.532717 148.287025 
L 380.665783 148.190412 
L 380.865381 148.105311 
L 380.998447 148.05002 
L 381.364377 148.071872 
L 381.497443 148.164922 
L 381.530709 148.164922 
L 381.663775 148.296369 
L 381.697041 148.296369 
L 381.830107 148.419564 
L 382.861365 148.317142 
L 382.994431 148.250188 
L 383.360361 148.149419 
L 383.626492 148.136666 
L 384.025689 148.218985 
L 384.158755 148.284644 
L 385.522677 148.189272 
L 385.722276 148.138812 
L 386.520669 148.235549 
L 386.720268 148.288821 
L 387.684993 148.18906 
L 387.884592 148.127493 
L 470.817727 148.086211 
L 470.817727 148.086211 
" style="fill:none;stroke:#2ca02c;stroke-linecap:square;stroke-opacity:0.7;stroke-width:1.5;"/>
   </g>
   <g id="patch_8">
    <path d="M 303.19 272.58 
L 303.19 80.88 
" style="fill:none;stroke:#000000;stroke-linecap:square;stroke-linejoin:miter;stroke-width:0.8;"/>
   </g>
   <g id="patch_9">
    <path d="M 478.8 272.58 
L 478.8 80.88 
" style="fill:none;stroke:#000000;stroke-linecap:square;stroke-linejoin:miter;stroke-width:0.8;"/>
   </g>
   <g id="patch_10">
    <path d="M 303.19 272.58 
L 478.8 272.58 
" style="fill:none;stroke:#000000;stroke-linecap:square;stroke-linejoin:miter;stroke-width:0.8;"/>
   </g>
   <g id="patch_11">
    <path d="M 303.19 80.88 
L 478.8 80.88 
" style="fill:none;stroke:#000000;stroke-linecap:square;stroke-linejoin:miter;stroke-width:0.8;"/>
   </g>
   <g id="text_14">
    <!-- RPM1 (rpm) -->
    <g transform="translate(355.505 74.88)scale(0.12 -0.12)">
     <use xlink:href="#DejaVuSans-52"/>
     <use x="69.482422" xlink:href="#DejaVuSans-50"/>
     <use x="129.785156" xlink:href="#DejaVuSans-4d"/>
     <use x="216.064453" xlink:href="#DejaVuSans-31"/>
     <use x="279.6875" xlink:href="#DejaVuSans-20"/>
     <use x="311.474609" xlink:href="#DejaVuSans-28"/>
     <use x="350.488281" xlink:href="#DejaVuSans-72"/>
     <use x="391.601562" xlink:href="#DejaVuSans-70"/>
     <use x="455.078125" xlink:href="#DejaVuSans-6d"/>
     <use x="552.490234" xlink:href="#DejaVuSans-29"/>
    </g>
   </g>
  </g>
  <g id="axes_3">
   <g id="patch_12">
    <path d="M 78.19 505.24 
L 253.8 505.24 
L 253.8 313.54 
L 78.19 313.54 
z
" style="fill:#ffffff;"/>
   </g>
   <g id="matplotlib.axis_5">
    <g id="xtick_11">
     <g id="line2d_45">
      <path clip-path="url(#pf38ec1a4f5)" d="M 86.172273 505.24 
L 86.172273 313.54 
" style="fill:none;stroke:#b0b0b0;stroke-linecap:square;stroke-width:0.8;"/>
     </g>
     <g id="line2d_46">
      <g>
       <use style="stroke:#000000;stroke-width:0.8;" x="86.172273" xlink:href="#m9df48899ae" y="505.24"/>
      </g>
     </g>
     <g id="text_15">
      <!-- 0 -->
      <g transform="translate(82.991023 519.838438)scale(0.1 -0.1)">
       <use xlink:href="#DejaVuSans-30"/>
      </g>
     </g>
    </g>
    <g id="xtick_12">
     <g id="line2d_47">
      <path clip-path="url(#pf38ec1a4f5)" d="M 126.091953 505.24 
L 126.091953 313.54 
" style="fill:none;stroke:#b0b0b0;stroke-linecap:square;stroke-width:0.8;"/>
     </g>
     <g id="line2d_48">
      <g>
       <use style="stroke:#000000;stroke-width:0.8;" x="126.091953" xlink:href="#m9df48899ae" y="505.24"/>
      </g>
     </g>
     <g id="text_16">
      <!-- 5 -->
      <g transform="translate(122.910703 519.838438)scale(0.1 -0.1)">
       <use xlink:href="#DejaVuSans-35"/>
      </g>
     </g>
    </g>
    <g id="xtick_13">
     <g id="line2d_49">
      <path clip-path="url(#pf38ec1a4f5)" d="M 166.011633 505.24 
L 166.011633 313.54 
" style="fill:none;stroke:#b0b0b0;stroke-linecap:square;stroke-width:0.8;"/>
     </g>
     <g id="line2d_50">
      <g>
       <use style="stroke:#000000;stroke-width:0.8;" x="166.011633" xlink:href="#m9df48899ae" y="505.24"/>
      </g>
     </g>
     <g id="text_17">
      <!-- 10 -->
      <g transform="translate(159.649133 519.838438)scale(0.1 -0.1)">
       <use xlink:href="#DejaVuSans-31"/>
       <use x="63.623047" xlink:href="#DejaVuSans-30"/>
      </g>
     </g>
    </g>
    <g id="xtick_14">
     <g id="line2d_51">
      <path clip-path="url(#pf38ec1a4f5)" d="M 205.931313 505.24 
L 205.931313 313.54 
" style="fill:none;stroke:#b0b0b0;stroke-linecap:square;stroke-width:0.8;"/>
     </g>
     <g id="line2d_52">
      <g>
       <use style="stroke:#000000;stroke-width:0.8;" x="205.931313" xlink:href="#m9df48899ae" y="505.24"/>
      </g>
     </g>
     <g id="text_18">
      <!-- 15 -->
      <g transform="translate(199.568813 519.838438)scale(0.1 -0.1)">
       <use xlink:href="#DejaVuSans-31"/>
       <use x="63.623047" xlink:href="#DejaVuSans-35"/>
      </g>
     </g>
    </g>
    <g id="xtick_15">
     <g id="line2d_53">
      <path clip-path="url(#pf38ec1a4f5)" d="M 245.850994 505.24 
L 245.850994 313.54 
" style="fill:none;stroke:#b0b0b0;stroke-linecap:square;stroke-width:0.8;"/>
     </g>
     <g id="line2d_54">
      <g>
       <use style="stroke:#000000;stroke-width:0.8;" x="245.850994" xlink:href="#m9df48899ae" y="505.24"/>
      </g>
     </g>
     <g id="text_19">
      <!-- 20 -->
      <g transform="translate(239.488494 519.838438)scale(0.1 -0.1)">
       <use xlink:href="#DejaVuSans-32"/>
       <use x="63.623047" xlink:href="#DejaVuSans-30"/>
      </g>
     </g>
    </g>
    <g id="text_20">
     <!-- Tiempo (s) -->
     <g transform="translate(139.4325 533.516562)scale(0.1 -0.1)">
      <use xlink:href="#DejaVuSans-54"/>
      <use x="57.958984" xlink:href="#DejaVuSans-69"/>
      <use x="85.742188" xlink:href="#DejaVuSans-65"/>
      <use x="147.265625" xlink:href="#DejaVuSans-6d"/>
      <use x="244.677734" xlink:href="#DejaVuSans-70"/>
      <use x="308.154297" xlink:href="#DejaVuSans-6f"/>
      <use x="369.335938" xlink:href="#DejaVuSans-20"/>
      <use x="401.123047" xlink:href="#DejaVuSans-28"/>
      <use x="440.136719" xlink:href="#DejaVuSans-73"/>
      <use x="492.236328" xlink:href="#DejaVuSans-29"/>
     </g>
    </g>
   </g>
   <g id="matplotlib.axis_6">
    <g id="ytick_11">
     <g id="line2d_55">
      <path clip-path="url(#pf38ec1a4f5)" d="M 78.19 496.526364 
L 253.8 496.526364 
" style="fill:none;stroke:#b0b0b0;stroke-linecap:square;stroke-width:0.8;"/>
     </g>
     <g id="line2d_56">
      <g>
       <use style="stroke:#000000;stroke-width:0.8;" x="78.19" xlink:href="#m4c1eb65f68" y="496.526364"/>
      </g>
     </g>
     <g id="text_21">
      <!-- 0 -->
      <g transform="translate(64.8275 500.325582)scale(0.1 -0.1)">
       <use xlink:href="#DejaVuSans-30"/>
      </g>
     </g>
    </g>
    <g id="ytick_12">
     <g id="line2d_57">
      <path clip-path="url(#pf38ec1a4f5)" d="M 78.19 456.48268 
L 253.8 456.48268 
" style="fill:none;stroke:#b0b0b0;stroke-linecap:square;stroke-width:0.8;"/>
     </g>
     <g id="line2d_58">
      <g>
       <use style="stroke:#000000;stroke-width:0.8;" x="78.19" xlink:href="#m4c1eb65f68" y="456.48268"/>
      </g>
     </g>
     <g id="text_22">
      <!-- 5000 -->
      <g transform="translate(45.74 460.281899)scale(0.1 -0.1)">
       <use xlink:href="#DejaVuSans-35"/>
       <use x="63.623047" xlink:href="#DejaVuSans-30"/>
       <use x="127.246094" xlink:href="#DejaVuSans-30"/>
       <use x="190.869141" xlink:href="#DejaVuSans-30"/>
      </g>
     </g>
    </g>
    <g id="ytick_13">
     <g id="line2d_59">
      <path clip-path="url(#pf38ec1a4f5)" d="M 78.19 416.438997 
L 253.8 416.438997 
" style="fill:none;stroke:#b0b0b0;stroke-linecap:square;stroke-width:0.8;"/>
     </g>
     <g id="line2d_60">
      <g>
       <use style="stroke:#000000;stroke-width:0.8;" x="78.19" xlink:href="#m4c1eb65f68" y="416.438997"/>
      </g>
     </g>
     <g id="text_23">
      <!-- 10000 -->
      <g transform="translate(39.3775 420.238215)scale(0.1 -0.1)">
       <use xlink:href="#DejaVuSans-31"/>
       <use x="63.623047" xlink:href="#DejaVuSans-30"/>
       <use x="127.246094" xlink:href="#DejaVuSans-30"/>
       <use x="190.869141" xlink:href="#DejaVuSans-30"/>
       <use x="254.492188" xlink:href="#DejaVuSans-30"/>
      </g>
     </g>
    </g>
    <g id="ytick_14">
     <g id="line2d_61">
      <path clip-path="url(#pf38ec1a4f5)" d="M 78.19 376.395313 
L 253.8 376.395313 
" style="fill:none;stroke:#b0b0b0;stroke-linecap:square;stroke-width:0.8;"/>
     </g>
     <g id="line2d_62">
      <g>
       <use style="stroke:#000000;stroke-width:0.8;" x="78.19" xlink:href="#m4c1eb65f68" y="376.395313"/>
      </g>
     </g>
     <g id="text_24">
      <!-- 15000 -->
      <g transform="translate(39.3775 380.194532)scale(0.1 -0.1)">
       <use xlink:href="#DejaVuSans-31"/>
       <use x="63.623047" xlink:href="#DejaVuSans-35"/>
       <use x="127.246094" xlink:href="#DejaVuSans-30"/>
       <use x="190.869141" xlink:href="#DejaVuSans-30"/>
       <use x="254.492188" xlink:href="#DejaVuSans-30"/>
      </g>
     </g>
    </g>
    <g id="ytick_15">
     <g id="line2d_63">
      <path clip-path="url(#pf38ec1a4f5)" d="M 78.19 336.35163 
L 253.8 336.35163 
" style="fill:none;stroke:#b0b0b0;stroke-linecap:square;stroke-width:0.8;"/>
     </g>
     <g id="line2d_64">
      <g>
       <use style="stroke:#000000;stroke-width:0.8;" x="78.19" xlink:href="#m4c1eb65f68" y="336.35163"/>
      </g>
     </g>
     <g id="text_25">
      <!-- 20000 -->
      <g transform="translate(39.3775 340.150849)scale(0.1 -0.1)">
       <use xlink:href="#DejaVuSans-32"/>
       <use x="63.623047" xlink:href="#DejaVuSans-30"/>
       <use x="127.246094" xlink:href="#DejaVuSans-30"/>
       <use x="190.869141" xlink:href="#DejaVuSans-30"/>
       <use x="254.492188" xlink:href="#DejaVuSans-30"/>
      </g>
     </g>
    </g>
   </g>
   <g id="line2d_65">
    <path clip-path="url(#pf38ec1a4f5)" d="M 86.172273 496.526364 
L 86.305338 376.220246 
L 86.338605 376.220246 
L 86.47167 377.739577 
L 86.504937 377.739577 
L 86.638002 378.751877 
L 86.671269 378.751877 
L 86.804334 379.423464 
L 86.837601 379.423464 
L 86.970666 379.867437 
L 87.003933 379.867437 
L 87.136998 380.159976 
L 87.170265 380.159976 
L 87.30333 380.352058 
L 87.336597 380.352058 
L 87.469662 380.477644 
L 87.669261 380.559292 
L 87.802326 380.611955 
L 126.258285 380.652524 
L 126.391351 323.005491 
L 128.420601 323.005491 
L 128.553667 323.626595 
L 128.586933 323.626595 
L 128.719999 357.339237 
L 128.753265 357.339237 
L 128.886331 383.599011 
L 128.919597 383.599011 
L 129.052663 403.410173 
L 129.085929 403.410173 
L 129.218995 417.560639 
L 129.252261 417.560639 
L 129.385327 420.921487 
L 131.913573 420.921487 
L 132.046639 416.786507 
L 132.079905 416.786507 
L 132.212971 410.150232 
L 132.246237 410.150232 
L 132.379303 405.63039 
L 132.412569 405.63039 
L 132.545635 402.393657 
L 132.578901 402.393657 
L 132.711967 399.972373 
L 132.745233 399.972373 
L 132.878299 398.087174 
L 132.911565 398.087174 
L 133.044631 396.564797 
L 133.077897 396.564797 
L 133.210963 395.295062 
L 133.244229 395.295062 
L 133.377295 394.206572 
L 133.410561 394.206572 
L 133.543627 393.252306 
L 133.576893 393.252306 
L 133.709959 392.400805 
L 133.743225 392.400805 
L 133.876291 391.63065 
L 133.909557 391.63065 
L 134.042623 390.926969 
L 134.075889 390.926969 
L 134.208955 390.279194 
L 134.242221 390.279194 
L 134.375287 389.679618 
L 134.408553 389.679618 
L 134.541619 389.122447 
L 134.574885 389.122447 
L 134.707951 388.603193 
L 134.741217 388.603193 
L 134.874283 388.118265 
L 134.907549 388.118265 
L 135.040615 387.664707 
L 135.073881 387.664707 
L 135.206947 387.240018 
L 135.240213 387.240018 
L 135.373279 386.842032 
L 135.406545 386.842032 
L 135.539611 386.468841 
L 135.572877 386.468841 
L 135.705943 386.118735 
L 135.739209 386.118735 
L 135.872275 385.790168 
L 135.905541 385.790168 
L 136.038607 385.481726 
L 136.071873 385.481726 
L 136.204939 385.192111 
L 136.238205 385.192111 
L 136.371271 384.920121 
L 136.404537 384.920121 
L 136.537603 384.664644 
L 136.570869 384.664644 
L 136.703935 384.424645 
L 136.737201 384.424645 
L 136.870267 384.19916 
L 136.903533 384.19916 
L 137.036599 383.987291 
L 137.069865 383.987291 
L 137.202931 383.788195 
L 137.236197 383.788195 
L 137.369263 383.60109 
L 137.402529 383.60109 
L 137.535595 383.425238 
L 137.568861 383.425238 
L 137.701927 383.259952 
L 137.735193 383.259952 
L 137.868259 383.104588 
L 137.901525 383.104588 
L 138.034591 382.958541 
L 138.067857 382.958541 
L 138.200923 382.821246 
L 138.234189 382.821246 
L 138.367255 382.692171 
L 138.400521 382.692171 
L 138.533587 382.57082 
L 138.566853 382.57082 
L 138.699919 382.456724 
L 138.899517 382.349446 
L 139.032583 382.248575 
L 139.232181 382.153725 
L 139.365247 382.064533 
L 139.564845 381.98066 
L 139.697911 381.901785 
L 139.897509 381.82761 
L 140.030575 381.757852 
L 140.230173 381.692246 
L 140.363239 381.630545 
L 140.562837 381.572515 
L 140.695903 381.517936 
L 141.061833 381.418319 
L 141.261431 381.330189 
L 141.727161 381.252218 
L 141.926759 381.183231 
L 142.558821 381.094358 
L 142.791686 381.04355 
L 143.723145 380.940684 
L 144.022543 380.907786 
L 145.552797 380.80105 
L 146.085059 380.769333 
L 154.534725 380.658329 
L 166.011633 380.652615 
L 245.817727 380.652523 
L 245.817727 380.652523 
" style="fill:none;stroke:#1f77b4;stroke-linecap:square;stroke-opacity:0.7;stroke-width:1.5;"/>
   </g>
   <g id="line2d_66">
    <path clip-path="url(#pf38ec1a4f5)" d="M 86.172273 496.526364 
L 86.305338 380.185345 
L 87.835593 380.157639 
L 87.968658 380.01817 
L 88.001925 380.01817 
L 88.13499 379.734985 
L 88.168257 379.734985 
L 88.301322 380.90748 
L 88.500921 380.854775 
L 88.633986 380.361332 
L 88.667253 380.361332 
L 88.800318 379.337528 
L 88.833585 379.337528 
L 88.96665 378.136055 
L 88.999917 378.136055 
L 89.132982 377.5526 
L 89.166249 377.5526 
L 89.299314 377.68712 
L 89.332581 377.68712 
L 89.465646 378.186953 
L 89.498913 378.186953 
L 89.631978 378.797646 
L 89.665245 378.797646 
L 89.79831 379.415649 
L 89.831577 379.415649 
L 89.964642 380.083359 
L 89.997909 380.083359 
L 90.130974 380.652686 
L 90.330573 380.748697 
L 90.463638 380.472752 
L 90.496905 380.472752 
L 90.62997 380.326014 
L 90.829569 380.377797 
L 90.962634 380.49595 
L 90.995901 380.49595 
L 91.128966 380.639975 
L 91.328565 380.633136 
L 91.46163 380.468635 
L 91.827561 380.564632 
L 91.960626 380.722299 
L 92.160225 380.685497 
L 92.29329 380.57236 
L 92.492889 380.594479 
L 92.625954 380.724418 
L 95.154201 380.795312 
L 95.287266 380.914286 
L 95.320533 380.914286 
L 95.453598 381.067727 
L 95.486865 381.067727 
L 95.61993 381.255103 
L 95.653197 381.255103 
L 95.786262 381.429961 
L 96.152193 381.44024 
L 96.285258 381.21499 
L 96.318525 381.21499 
L 96.45159 380.932026 
L 96.484857 380.932026 
L 96.617922 380.698929 
L 96.651189 380.698929 
L 96.784254 380.573258 
L 97.316517 380.650534 
L 97.449582 380.770996 
L 97.649181 380.867695 
L 97.782246 380.918498 
L 98.480841 380.839333 
L 98.613906 380.770401 
L 116.777361 380.659448 
L 126.258285 380.651159 
L 126.391351 322.620946 
L 126.424617 322.620946 
L 126.557683 322.253636 
L 126.590949 322.253636 
L 126.724015 322.962023 
L 126.757281 322.962023 
L 126.890347 323.228622 
L 127.089945 323.266751 
L 127.223011 323.458717 
L 127.256277 323.458717 
L 127.389343 324.355491 
L 127.422609 324.355491 
L 127.555675 330.755066 
L 127.588941 330.755066 
L 127.722007 345.190325 
L 127.755273 345.190325 
L 127.888339 362.21336 
L 127.921605 362.21336 
L 128.054671 377.934455 
L 128.087937 377.934455 
L 128.221003 387.422494 
L 128.254269 387.422494 
L 128.387335 393.937427 
L 128.420601 393.937427 
L 128.553667 398.848527 
L 128.586933 398.848527 
L 128.719999 401.200508 
L 128.753265 401.200508 
L 128.886331 401.408667 
L 128.919597 401.408667 
L 129.052663 400.623038 
L 129.085929 400.623038 
L 129.218995 399.769039 
L 129.252261 399.769039 
L 129.385327 399.012433 
L 129.418593 399.012433 
L 129.551659 398.198862 
L 129.584925 398.198862 
L 129.717991 397.352652 
L 129.751257 397.352652 
L 129.884323 396.488721 
L 129.917589 396.488721 
L 130.050655 395.567836 
L 130.083921 395.567836 
L 130.216987 394.588702 
L 130.250253 394.588702 
L 130.383319 393.617699 
L 130.416585 393.617699 
L 130.549651 392.708165 
L 130.582917 392.708165 
L 130.715983 391.868956 
L 130.749249 391.868956 
L 130.882315 391.074352 
L 130.915581 391.074352 
L 131.048647 390.318609 
L 131.081913 390.318609 
L 131.214979 389.615298 
L 131.248245 389.615298 
L 131.381311 389.072222 
L 131.414577 389.072222 
L 131.547643 388.724952 
L 131.913573 388.835852 
L 132.046639 389.208739 
L 132.079905 389.208739 
L 132.212971 389.593663 
L 132.246237 389.593663 
L 132.379303 389.795064 
L 132.412569 389.795064 
L 132.545635 389.463552 
L 132.578901 389.463552 
L 132.711967 388.122505 
L 132.745233 388.122505 
L 132.878299 385.504108 
L 132.911565 385.504108 
L 133.044631 384.05295 
L 133.077897 384.05295 
L 133.210963 384.265527 
L 133.244229 384.265527 
L 133.377295 384.63586 
L 133.576893 384.600847 
L 133.709959 384.47995 
L 134.242221 384.371992 
L 134.508352 384.239875 
L 134.574885 384.239875 
L 134.707951 384.030223 
L 134.741217 384.030223 
L 134.874283 383.724849 
L 134.907549 383.724849 
L 135.040615 383.428561 
L 135.073881 383.428561 
L 135.206947 383.212352 
L 135.406545 383.196198 
L 135.539611 383.508161 
L 135.572877 383.508161 
L 135.705943 384.131489 
L 135.739209 384.131489 
L 135.872275 384.53534 
L 136.071873 384.425972 
L 136.204939 384.195674 
L 136.404537 384.090826 
L 136.537603 384.028309 
L 136.737201 383.9429 
L 136.870267 383.863196 
L 137.069865 383.803035 
L 137.202931 383.744175 
L 137.402529 383.667729 
L 137.535595 383.581831 
L 137.735193 383.492353 
L 137.868259 383.396909 
L 137.901525 383.396909 
L 138.034591 383.283882 
L 138.400521 383.252737 
L 138.533587 383.464454 
L 138.566853 383.464454 
L 138.699919 383.93448 
L 138.733185 383.93448 
L 138.866251 384.618771 
L 138.899517 384.618771 
L 139.032583 385.330716 
L 139.065849 385.330716 
L 139.198915 385.870215 
L 139.398513 385.895845 
L 139.531579 384.977187 
L 139.564845 384.977187 
L 139.697911 383.107021 
L 139.731177 383.107021 
L 139.864243 382.313591 
L 139.897509 382.313591 
L 140.030575 382.639243 
L 140.063841 382.639243 
L 140.196907 382.936234 
L 141.061833 382.884422 
L 141.194899 382.813956 
L 141.560829 382.728001 
L 141.693895 382.638385 
L 141.893493 382.531419 
L 142.026559 382.436133 
L 142.226157 382.35092 
L 142.359223 382.264894 
L 142.558821 382.173949 
L 142.691887 382.088252 
L 142.891485 382.010159 
L 143.024551 381.935484 
L 143.224149 381.848865 
L 143.357215 381.755931 
L 143.556813 381.663544 
L 143.689879 381.566255 
L 143.889477 381.463285 
L 144.022543 381.359702 
L 144.222141 381.265139 
L 144.355207 381.194014 
L 145.552797 381.270846 
L 145.685863 381.336341 
L 145.885461 381.404879 
L 146.018527 381.470122 
L 146.384457 381.563905 
L 146.617322 381.59768 
L 147.049785 381.67566 
L 147.182851 381.797936 
L 147.216117 381.797936 
L 147.349183 382.024171 
L 147.382449 382.024171 
L 147.515515 382.385725 
L 147.548781 382.385725 
L 147.681847 382.806404 
L 147.715113 382.806404 
L 147.848179 383.11972 
L 148.047777 383.145994 
L 148.180843 382.731127 
L 148.214109 382.731127 
L 148.347175 381.838592 
L 148.380441 381.838592 
L 148.513507 381.077201 
L 151.707081 380.974301 
L 152.006479 380.976427 
L 152.372409 381.084467 
L 152.505475 381.185253 
L 152.538741 381.185253 
L 152.671807 381.321059 
L 152.705073 381.321059 
L 152.838139 381.474153 
L 152.871405 381.474153 
L 153.004471 381.601187 
L 153.370401 381.531119 
L 153.503467 381.266227 
L 153.536733 381.266227 
L 153.669799 380.929619 
L 153.703065 380.929619 
L 153.836131 380.740582 
L 155.200053 380.850622 
L 155.333119 380.901228 
L 155.532717 380.959326 
L 155.665783 381.025061 
L 155.865381 381.092124 
L 155.998447 381.148066 
L 156.364377 381.129988 
L 156.497443 381.030291 
L 156.530709 381.030291 
L 156.663775 380.893919 
L 156.697041 380.893919 
L 156.830107 380.778286 
L 157.861365 380.855284 
L 158.060964 380.934749 
L 159.025689 380.865439 
L 159.158755 380.797245 
L 164.015649 380.697308 
L 164.315047 380.677748 
L 245.817727 380.652486 
L 245.817727 380.652486 
" style="fill:none;stroke:#2ca02c;stroke-linecap:square;stroke-opacity:0.7;stroke-width:1.5;"/>
   </g>
   <g id="patch_13">
    <path d="M 78.19 505.24 
L 78.19 313.54 
" style="fill:none;stroke:#000000;stroke-linecap:square;stroke-linejoin:miter;stroke-width:0.8;"/>
   </g>
   <g id="patch_14">
    <path d="M 253.8 505.24 
L 253.8 313.54 
" style="fill:none;stroke:#000000;stroke-linecap:square;stroke-linejoin:miter;stroke-width:0.8;"/>
   </g>
   <g id="patch_15">
    <path d="M 78.19 505.24 
L 253.8 505.24 
" style="fill:none;stroke:#000000;stroke-linecap:square;stroke-linejoin:miter;stroke-width:0.8;"/>
   </g>
   <g id="patch_16">
    <path d="M 78.19 313.54 
L 253.8 313.54 
" style="fill:none;stroke:#000000;stroke-linecap:square;stroke-linejoin:miter;stroke-width:0.8;"/>
   </g>
   <g id="text_26">
    <!-- RPM2 (rpm) -->
    <g transform="translate(130.505 307.54)scale(0.12 -0.12)">
     <use xlink:href="#DejaVuSans-52"/>
     <use x="69.482422" xlink:href="#DejaVuSans-50"/>
     <use x="129.785156" xlink:href="#DejaVuSans-4d"/>
     <use x="216.064453" xlink:href="#DejaVuSans-32"/>
     <use x="279.6875" xlink:href="#DejaVuSans-20"/>
     <use x="311.474609" xlink:href="#DejaVuSans-28"/>
     <use x="350.488281" xlink:href="#DejaVuSans-72"/>
     <use x="391.601562" xlink:href="#DejaVuSans-70"/>
     <use x="455.078125" xlink:href="#DejaVuSans-6d"/>
     <use x="552.490234" xlink:href="#DejaVuSans-29"/>
    </g>
   </g>
  </g>
  <g id="axes_4">
   <g id="patch_17">
    <path d="M 303.19 505.24 
L 478.8 505.24 
L 478.8 313.54 
L 303.19 313.54 
z
" style="fill:#ffffff;"/>
   </g>
   <g id="matplotlib.axis_7">
    <g id="xtick_16">
     <g id="line2d_67">
      <path clip-path="url(#pc36a7c83e2)" d="M 311.172273 505.24 
L 311.172273 313.54 
" style="fill:none;stroke:#b0b0b0;stroke-linecap:square;stroke-width:0.8;"/>
     </g>
     <g id="line2d_68">
      <g>
       <use style="stroke:#000000;stroke-width:0.8;" x="311.172273" xlink:href="#m9df48899ae" y="505.24"/>
      </g>
     </g>
     <g id="text_27">
      <!-- 0 -->
      <g transform="translate(307.991023 519.838438)scale(0.1 -0.1)">
       <use xlink:href="#DejaVuSans-30"/>
      </g>
     </g>
    </g>
    <g id="xtick_17">
     <g id="line2d_69">
      <path clip-path="url(#pc36a7c83e2)" d="M 351.091953 505.24 
L 351.091953 313.54 
" style="fill:none;stroke:#b0b0b0;stroke-linecap:square;stroke-width:0.8;"/>
     </g>
     <g id="line2d_70">
      <g>
       <use style="stroke:#000000;stroke-width:0.8;" x="351.091953" xlink:href="#m9df48899ae" y="505.24"/>
      </g>
     </g>
     <g id="text_28">
      <!-- 5 -->
      <g transform="translate(347.910703 519.838438)scale(0.1 -0.1)">
       <use xlink:href="#DejaVuSans-35"/>
      </g>
     </g>
    </g>
    <g id="xtick_18">
     <g id="line2d_71">
      <path clip-path="url(#pc36a7c83e2)" d="M 391.011633 505.24 
L 391.011633 313.54 
" style="fill:none;stroke:#b0b0b0;stroke-linecap:square;stroke-width:0.8;"/>
     </g>
     <g id="line2d_72">
      <g>
       <use style="stroke:#000000;stroke-width:0.8;" x="391.011633" xlink:href="#m9df48899ae" y="505.24"/>
      </g>
     </g>
     <g id="text_29">
      <!-- 10 -->
      <g transform="translate(384.649133 519.838438)scale(0.1 -0.1)">
       <use xlink:href="#DejaVuSans-31"/>
       <use x="63.623047" xlink:href="#DejaVuSans-30"/>
      </g>
     </g>
    </g>
    <g id="xtick_19">
     <g id="line2d_73">
      <path clip-path="url(#pc36a7c83e2)" d="M 430.931313 505.24 
L 430.931313 313.54 
" style="fill:none;stroke:#b0b0b0;stroke-linecap:square;stroke-width:0.8;"/>
     </g>
     <g id="line2d_74">
      <g>
       <use style="stroke:#000000;stroke-width:0.8;" x="430.931313" xlink:href="#m9df48899ae" y="505.24"/>
      </g>
     </g>
     <g id="text_30">
      <!-- 15 -->
      <g transform="translate(424.568813 519.838438)scale(0.1 -0.1)">
       <use xlink:href="#DejaVuSans-31"/>
       <use x="63.623047" xlink:href="#DejaVuSans-35"/>
      </g>
     </g>
    </g>
    <g id="xtick_20">
     <g id="line2d_75">
      <path clip-path="url(#pc36a7c83e2)" d="M 470.850994 505.24 
L 470.850994 313.54 
" style="fill:none;stroke:#b0b0b0;stroke-linecap:square;stroke-width:0.8;"/>
     </g>
     <g id="line2d_76">
      <g>
       <use style="stroke:#000000;stroke-width:0.8;" x="470.850994" xlink:href="#m9df48899ae" y="505.24"/>
      </g>
     </g>
     <g id="text_31">
      <!-- 20 -->
      <g transform="translate(464.488494 519.838438)scale(0.1 -0.1)">
       <use xlink:href="#DejaVuSans-32"/>
       <use x="63.623047" xlink:href="#DejaVuSans-30"/>
      </g>
     </g>
    </g>
    <g id="text_32">
     <!-- Tiempo (s) -->
     <g transform="translate(364.4325 533.516562)scale(0.1 -0.1)">
      <use xlink:href="#DejaVuSans-54"/>
      <use x="57.958984" xlink:href="#DejaVuSans-69"/>
      <use x="85.742188" xlink:href="#DejaVuSans-65"/>
      <use x="147.265625" xlink:href="#DejaVuSans-6d"/>
      <use x="244.677734" xlink:href="#DejaVuSans-70"/>
      <use x="308.154297" xlink:href="#DejaVuSans-6f"/>
      <use x="369.335938" xlink:href="#DejaVuSans-20"/>
      <use x="401.123047" xlink:href="#DejaVuSans-28"/>
      <use x="440.136719" xlink:href="#DejaVuSans-73"/>
      <use x="492.236328" xlink:href="#DejaVuSans-29"/>
     </g>
    </g>
   </g>
   <g id="matplotlib.axis_8">
    <g id="ytick_16">
     <g id="line2d_77">
      <path clip-path="url(#pc36a7c83e2)" d="M 303.19 496.526364 
L 478.8 496.526364 
" style="fill:none;stroke:#b0b0b0;stroke-linecap:square;stroke-width:0.8;"/>
     </g>
     <g id="line2d_78">
      <g>
       <use style="stroke:#000000;stroke-width:0.8;" x="303.19" xlink:href="#m4c1eb65f68" y="496.526364"/>
      </g>
     </g>
     <g id="text_33">
      <!-- 0 -->
      <g transform="translate(289.8275 500.325582)scale(0.1 -0.1)">
       <use xlink:href="#DejaVuSans-30"/>
      </g>
     </g>
    </g>
    <g id="ytick_17">
     <g id="line2d_79">
      <path clip-path="url(#pc36a7c83e2)" d="M 303.19 456.594648 
L 478.8 456.594648 
" style="fill:none;stroke:#b0b0b0;stroke-linecap:square;stroke-width:0.8;"/>
     </g>
     <g id="line2d_80">
      <g>
       <use style="stroke:#000000;stroke-width:0.8;" x="303.19" xlink:href="#m4c1eb65f68" y="456.594648"/>
      </g>
     </g>
     <g id="text_34">
      <!-- 5000 -->
      <g transform="translate(270.74 460.393867)scale(0.1 -0.1)">
       <use xlink:href="#DejaVuSans-35"/>
       <use x="63.623047" xlink:href="#DejaVuSans-30"/>
       <use x="127.246094" xlink:href="#DejaVuSans-30"/>
       <use x="190.869141" xlink:href="#DejaVuSans-30"/>
      </g>
     </g>
    </g>
    <g id="ytick_18">
     <g id="line2d_81">
      <path clip-path="url(#pc36a7c83e2)" d="M 303.19 416.662932 
L 478.8 416.662932 
" style="fill:none;stroke:#b0b0b0;stroke-linecap:square;stroke-width:0.8;"/>
     </g>
     <g id="line2d_82">
      <g>
       <use style="stroke:#000000;stroke-width:0.8;" x="303.19" xlink:href="#m4c1eb65f68" y="416.662932"/>
      </g>
     </g>
     <g id="text_35">
      <!-- 10000 -->
      <g transform="translate(264.3775 420.462151)scale(0.1 -0.1)">
       <use xlink:href="#DejaVuSans-31"/>
       <use x="63.623047" xlink:href="#DejaVuSans-30"/>
       <use x="127.246094" xlink:href="#DejaVuSans-30"/>
       <use x="190.869141" xlink:href="#DejaVuSans-30"/>
       <use x="254.492188" xlink:href="#DejaVuSans-30"/>
      </g>
     </g>
    </g>
    <g id="ytick_19">
     <g id="line2d_83">
      <path clip-path="url(#pc36a7c83e2)" d="M 303.19 376.731216 
L 478.8 376.731216 
" style="fill:none;stroke:#b0b0b0;stroke-linecap:square;stroke-width:0.8;"/>
     </g>
     <g id="line2d_84">
      <g>
       <use style="stroke:#000000;stroke-width:0.8;" x="303.19" xlink:href="#m4c1eb65f68" y="376.731216"/>
      </g>
     </g>
     <g id="text_36">
      <!-- 15000 -->
      <g transform="translate(264.3775 380.530435)scale(0.1 -0.1)">
       <use xlink:href="#DejaVuSans-31"/>
       <use x="63.623047" xlink:href="#DejaVuSans-35"/>
       <use x="127.246094" xlink:href="#DejaVuSans-30"/>
       <use x="190.869141" xlink:href="#DejaVuSans-30"/>
       <use x="254.492188" xlink:href="#DejaVuSans-30"/>
      </g>
     </g>
    </g>
    <g id="ytick_20">
     <g id="line2d_85">
      <path clip-path="url(#pc36a7c83e2)" d="M 303.19 336.7995 
L 478.8 336.7995 
" style="fill:none;stroke:#b0b0b0;stroke-linecap:square;stroke-width:0.8;"/>
     </g>
     <g id="line2d_86">
      <g>
       <use style="stroke:#000000;stroke-width:0.8;" x="303.19" xlink:href="#m4c1eb65f68" y="336.7995"/>
      </g>
     </g>
     <g id="text_37">
      <!-- 20000 -->
      <g transform="translate(264.3775 340.598719)scale(0.1 -0.1)">
       <use xlink:href="#DejaVuSans-32"/>
       <use x="63.623047" xlink:href="#DejaVuSans-30"/>
       <use x="127.246094" xlink:href="#DejaVuSans-30"/>
       <use x="190.869141" xlink:href="#DejaVuSans-30"/>
       <use x="254.492188" xlink:href="#DejaVuSans-30"/>
      </g>
     </g>
    </g>
   </g>
   <g id="line2d_87">
    <path clip-path="url(#pc36a7c83e2)" d="M 311.172273 496.526364 
L 311.305338 376.556638 
L 311.338605 376.556638 
L 311.47167 378.071721 
L 311.504937 378.071721 
L 311.638002 379.081191 
L 311.671269 379.081191 
L 311.804334 379.7509 
L 311.837601 379.7509 
L 311.970666 380.193631 
L 312.003933 380.193631 
L 312.136998 380.485352 
L 312.170265 380.485352 
L 312.30333 380.676897 
L 312.336597 380.676897 
L 312.469662 380.802132 
L 312.669261 380.883552 
L 312.802326 380.936067 
L 351.258285 380.976523 
L 351.391351 323.490679 
L 353.420601 323.490679 
L 353.553667 324.110047 
L 353.586933 324.110047 
L 353.719999 357.728423 
L 353.753265 357.728423 
L 353.886331 383.914771 
L 353.919597 383.914771 
L 354.052663 403.670538 
L 354.085929 403.670538 
L 354.218995 417.781438 
L 354.252261 417.781438 
L 354.385327 421.132888 
L 356.913573 421.132888 
L 357.046639 417.00947 
L 357.079905 417.00947 
L 357.212971 410.391751 
L 357.246237 410.391751 
L 357.379303 405.884547 
L 357.412569 405.884547 
L 357.545635 402.656864 
L 357.578901 402.656864 
L 357.711967 400.242351 
L 357.745233 400.242351 
L 357.878299 398.362424 
L 357.911565 398.362424 
L 358.044631 396.844304 
L 358.077897 396.844304 
L 358.210963 395.578119 
L 358.244229 395.578119 
L 358.377295 394.492672 
L 358.410561 394.492672 
L 358.543627 393.541075 
L 358.576893 393.541075 
L 358.709959 392.691955 
L 358.743225 392.691955 
L 358.876291 391.923953 
L 358.909557 391.923953 
L 359.042623 391.222239 
L 359.075889 391.222239 
L 359.208955 390.576276 
L 359.242221 390.576276 
L 359.375287 389.978376 
L 359.408553 389.978376 
L 359.541619 389.422763 
L 359.574885 389.422763 
L 359.707951 388.904961 
L 359.741217 388.904961 
L 359.874283 388.421389 
L 359.907549 388.421389 
L 360.040615 387.969099 
L 360.073881 387.969099 
L 360.206947 387.545598 
L 360.240213 387.545598 
L 360.373279 387.148725 
L 360.406545 387.148725 
L 360.539611 386.776577 
L 360.572877 386.776577 
L 360.705943 386.42745 
L 360.739209 386.42745 
L 360.872275 386.099802 
L 360.905541 386.099802 
L 361.038607 385.792222 
L 361.071873 385.792222 
L 361.204939 385.503416 
L 361.238205 385.503416 
L 361.371271 385.232187 
L 361.404537 385.232187 
L 361.537603 384.977424 
L 361.570869 384.977424 
L 361.703935 384.738097 
L 361.737201 384.738097 
L 361.870267 384.513242 
L 361.903533 384.513242 
L 362.036599 384.301965 
L 362.069865 384.301965 
L 362.202931 384.103427 
L 362.236197 384.103427 
L 362.369263 383.916844 
L 362.402529 383.916844 
L 362.535595 383.741484 
L 362.568861 383.741484 
L 362.701927 383.57666 
L 362.735193 383.57666 
L 362.868259 383.42173 
L 362.901525 383.42173 
L 363.034591 383.276092 
L 363.067857 383.276092 
L 363.200923 383.139181 
L 363.234189 383.139181 
L 363.367255 383.010467 
L 363.400521 383.010467 
L 363.533587 382.889455 
L 363.566853 382.889455 
L 363.699919 382.775678 
L 363.899517 382.668701 
L 364.032583 382.568112 
L 364.232181 382.473526 
L 364.365247 382.384584 
L 364.564845 382.300945 
L 364.697911 382.222291 
L 364.897509 382.148323 
L 365.030575 382.07876 
L 365.230173 382.013338 
L 365.363239 381.95181 
L 365.562837 381.893942 
L 365.695903 381.839515 
L 366.061833 381.740177 
L 366.261431 381.652294 
L 366.727161 381.574541 
L 366.926759 381.505746 
L 367.558821 381.417122 
L 367.791686 381.366456 
L 368.723145 381.263877 
L 369.022543 381.231071 
L 370.552797 381.124634 
L 371.085059 381.093005 
L 379.701057 380.981975 
L 391.87656 380.976586 
L 470.817727 380.976523 
L 470.817727 380.976523 
" style="fill:none;stroke:#1f77b4;stroke-linecap:square;stroke-opacity:0.7;stroke-width:1.5;"/>
   </g>
   <g id="line2d_88">
    <path clip-path="url(#pc36a7c83e2)" d="M 311.172273 496.526364 
L 311.305338 381.11347 
L 312.835593 381.087885 
L 312.968658 381.389848 
L 313.001925 381.389848 
L 313.13499 382.218831 
L 313.168257 382.218831 
L 313.301322 381.560178 
L 313.334589 381.560178 
L 313.467654 379.026592 
L 313.500921 379.026592 
L 313.633986 378.570517 
L 313.667253 378.570517 
L 313.800318 379.459648 
L 313.833585 379.459648 
L 313.96665 379.571284 
L 313.999917 379.571284 
L 314.132982 377.912338 
L 314.166249 377.912338 
L 314.299314 376.30032 
L 314.498913 376.205773 
L 314.631978 376.902659 
L 314.665245 376.902659 
L 314.79831 377.109677 
L 314.997909 377.015127 
L 315.130974 377.866274 
L 315.164241 377.866274 
L 315.297306 380.039784 
L 315.330573 380.039784 
L 315.463638 381.917406 
L 315.496905 381.917406 
L 315.62997 382.048167 
L 315.663237 382.048167 
L 315.796302 381.44068 
L 315.829569 381.44068 
L 315.962634 381.265754 
L 315.995901 381.265754 
L 316.128966 381.606481 
L 316.162233 381.606481 
L 316.295298 381.857043 
L 316.328565 381.857043 
L 316.46163 381.684031 
L 316.494897 381.684031 
L 316.627962 381.389019 
L 316.827561 381.376752 
L 316.960626 381.611151 
L 316.993893 381.611151 
L 317.126958 381.734059 
L 317.160225 381.734059 
L 317.29329 381.597408 
L 317.326557 381.597408 
L 317.459622 381.424347 
L 317.659221 381.448014 
L 317.792286 381.589394 
L 318.158217 381.485407 
L 318.291282 381.380503 
L 319.655205 381.330444 
L 319.78827 381.265486 
L 320.154201 381.208451 
L 320.287266 381.13342 
L 320.320533 381.13342 
L 320.453598 380.99929 
L 320.486865 380.99929 
L 320.61993 380.858684 
L 321.318525 380.950108 
L 321.45159 381.098123 
L 321.651189 381.208935 
L 321.817521 381.253797 
L 322.116918 381.156817 
L 322.482849 381.046017 
L 322.715714 380.991222 
L 323.480841 381.095402 
L 323.680439 381.133578 
L 330.466785 381.023287 
L 333.993023 381.002777 
L 351.258285 380.974965 
L 351.391351 322.253636 
L 351.424617 322.253636 
L 351.557683 324.411544 
L 351.590949 324.411544 
L 351.724015 323.443143 
L 351.757281 323.443143 
L 351.890347 322.82208 
L 352.256277 322.926321 
L 352.389343 323.52869 
L 352.422609 323.52869 
L 352.555675 329.929314 
L 352.588941 329.929314 
L 352.722007 344.75666 
L 352.755273 344.75666 
L 352.888339 361.709877 
L 352.921605 361.709877 
L 353.054671 376.533133 
L 353.087937 376.533133 
L 353.221003 386.267546 
L 353.254269 386.267546 
L 353.387335 394.391796 
L 353.420601 394.391796 
L 353.553667 401.374244 
L 353.586933 401.374244 
L 353.719999 404.918066 
L 353.753265 404.918066 
L 353.886331 405.635163 
L 353.919597 405.635163 
L 354.052663 405.024527 
L 354.085929 405.024527 
L 354.218995 403.978236 
L 354.252261 403.978236 
L 354.385327 402.76455 
L 354.418593 402.76455 
L 354.551659 401.428068 
L 354.584925 401.428068 
L 354.717991 400.006843 
L 354.751257 400.006843 
L 354.884323 398.553732 
L 354.917589 398.553732 
L 355.050655 397.213014 
L 355.083921 397.213014 
L 355.216987 396.043119 
L 355.250253 396.043119 
L 355.383319 394.9526 
L 355.416585 394.9526 
L 355.549651 393.868207 
L 355.582917 393.868207 
L 355.715983 392.795453 
L 355.749249 392.795453 
L 355.882315 391.791326 
L 355.915581 391.791326 
L 356.048647 390.90133 
L 356.081913 390.90133 
L 356.214979 389.979491 
L 356.248245 389.979491 
L 356.381311 388.913636 
L 356.414577 388.913636 
L 356.547643 387.717446 
L 356.580909 387.717446 
L 356.713975 386.384269 
L 356.747241 386.384269 
L 356.880307 384.976015 
L 356.913573 384.976015 
L 357.046639 383.55186 
L 357.079905 383.55186 
L 357.212971 382.354572 
L 357.246237 382.354572 
L 357.379303 381.583344 
L 357.412569 381.583344 
L 357.545635 381.445744 
L 357.578901 381.445744 
L 357.711967 382.53397 
L 357.745233 382.53397 
L 357.878299 384.903668 
L 357.911565 384.903668 
L 358.044631 386.330125 
L 358.077897 386.330125 
L 358.210963 385.958063 
L 358.244229 385.958063 
L 358.377295 385.240613 
L 358.576893 385.136396 
L 358.709959 385.498729 
L 358.743225 385.498729 
L 358.876291 385.793046 
L 359.075889 385.785377 
L 359.208955 385.664328 
L 359.408553 385.682189 
L 359.541619 385.896896 
L 359.574885 385.896896 
L 359.707951 386.184397 
L 359.741217 386.184397 
L 359.874283 386.478507 
L 359.907549 386.478507 
L 360.040615 386.756226 
L 360.073881 386.756226 
L 360.206947 386.986158 
L 360.406545 387.050792 
L 360.539611 386.756195 
L 360.572877 386.756195 
L 360.705943 386.067438 
L 360.739209 386.067438 
L 360.872275 385.481596 
L 360.905541 385.481596 
L 361.038607 385.363815 
L 361.404537 385.267276 
L 361.537603 385.071071 
L 361.570869 385.071071 
L 361.703935 384.919203 
L 361.903533 384.847964 
L 362.036599 384.792475 
L 362.236197 384.702818 
L 362.369263 384.577278 
L 362.402529 384.577278 
L 362.535595 384.447518 
L 362.568861 384.447518 
L 362.701927 384.333272 
L 362.735193 384.333272 
L 362.868259 384.217769 
L 362.901525 384.217769 
L 363.034591 384.077422 
L 363.067857 384.077422 
L 363.200923 383.851397 
L 363.234189 383.851397 
L 363.367255 383.542187 
L 363.400521 383.542187 
L 363.533587 383.13869 
L 363.566853 383.13869 
L 363.699919 382.572978 
L 363.733185 382.572978 
L 363.866251 381.823684 
L 363.899517 381.823684 
L 364.032583 381.017556 
L 364.065849 381.017556 
L 364.198915 380.51823 
L 364.232181 380.51823 
L 364.365247 380.630136 
L 364.398513 380.630136 
L 364.531579 381.543019 
L 364.564845 381.543019 
L 364.697911 383.00516 
L 364.731177 383.00516 
L 364.864243 383.759319 
L 365.063841 383.70948 
L 365.196907 383.629217 
L 365.396505 383.698209 
L 365.529571 383.756136 
L 366.394497 383.672991 
L 366.527563 383.618335 
L 366.727161 383.560693 
L 366.860227 383.466914 
L 366.893493 383.466914 
L 367.026559 383.346067 
L 367.059825 383.346067 
L 367.192891 383.230477 
L 367.392489 383.140449 
L 367.525555 383.057882 
L 367.725153 382.964538 
L 367.858219 382.861279 
L 368.057817 382.765236 
L 368.190883 382.673932 
L 368.390481 382.577848 
L 368.523547 382.470266 
L 368.556813 382.470266 
L 368.689879 382.349482 
L 368.723145 382.349482 
L 368.856211 382.225339 
L 369.055809 382.115397 
L 369.188875 382.017609 
L 369.388473 381.935243 
L 369.521539 381.874373 
L 370.552797 381.965624 
L 370.685863 382.030217 
L 370.885461 382.095337 
L 371.018527 382.158032 
L 372.049785 382.086817 
L 372.182851 381.891028 
L 372.216117 381.891028 
L 372.349183 381.611021 
L 372.382449 381.611021 
L 372.515515 381.228521 
L 372.548781 381.228521 
L 372.681847 380.804455 
L 372.715113 380.804455 
L 372.848179 380.51196 
L 373.047777 380.497823 
L 373.180843 380.82193 
L 373.214109 380.82193 
L 373.347175 381.462262 
L 373.380441 381.462262 
L 373.513507 381.996998 
L 373.713105 381.949994 
L 373.846171 381.778314 
L 376.540749 381.671796 
L 376.80688 381.621922 
L 377.039745 381.571135 
L 377.172811 381.497825 
L 377.372409 381.40224 
L 377.505475 381.280066 
L 377.538741 381.280066 
L 377.671807 381.132693 
L 377.705073 381.132693 
L 377.838139 380.974433 
L 377.871405 380.974433 
L 378.004471 380.840478 
L 378.370401 380.864264 
L 378.503467 381.073816 
L 378.536733 381.073816 
L 378.669799 381.36588 
L 378.703065 381.36588 
L 378.836131 381.538488 
L 379.867389 381.445506 
L 380.100254 381.349751 
L 380.366385 381.272852 
L 380.499451 381.195119 
L 380.699049 381.121061 
L 380.832115 381.046007 
L 381.530709 381.05036 
L 381.663775 381.17522 
L 381.863373 381.281804 
L 381.996439 381.349567 
L 382.695033 381.261863 
L 382.828099 381.208073 
L 383.194029 381.10964 
L 383.327095 381.0579 
L 384.192021 381.145575 
L 384.358353 381.194527 
L 384.524685 381.231127 
L 384.790816 381.235887 
L 385.190013 381.164682 
L 385.389612 381.085079 
L 410.971473 380.974043 
L 430.465584 380.975998 
L 470.817727 380.97648 
L 470.817727 380.97648 
" style="fill:none;stroke:#2ca02c;stroke-linecap:square;stroke-opacity:0.7;stroke-width:1.5;"/>
   </g>
   <g id="patch_18">
    <path d="M 303.19 505.24 
L 303.19 313.54 
" style="fill:none;stroke:#000000;stroke-linecap:square;stroke-linejoin:miter;stroke-width:0.8;"/>
   </g>
   <g id="patch_19">
    <path d="M 478.8 505.24 
L 478.8 313.54 
" style="fill:none;stroke:#000000;stroke-linecap:square;stroke-linejoin:miter;stroke-width:0.8;"/>
   </g>
   <g id="patch_20">
    <path d="M 303.19 505.24 
L 478.8 505.24 
" style="fill:none;stroke:#000000;stroke-linecap:square;stroke-linejoin:miter;stroke-width:0.8;"/>
   </g>
   <g id="patch_21">
    <path d="M 303.19 313.54 
L 478.8 313.54 
" style="fill:none;stroke:#000000;stroke-linecap:square;stroke-linejoin:miter;stroke-width:0.8;"/>
   </g>
   <g id="text_38">
    <!-- RPM3 (rpm) -->
    <g transform="translate(355.505 307.54)scale(0.12 -0.12)">
     <defs>
      <path d="M 2597 2516 
Q 3050 2419 3304 2112 
Q 3559 1806 3559 1356 
Q 3559 666 3084 287 
Q 2609 -91 1734 -91 
Q 1441 -91 1130 -33 
Q 819 25 488 141 
L 488 750 
Q 750 597 1062 519 
Q 1375 441 1716 441 
Q 2309 441 2620 675 
Q 2931 909 2931 1356 
Q 2931 1769 2642 2001 
Q 2353 2234 1838 2234 
L 1294 2234 
L 1294 2753 
L 1863 2753 
Q 2328 2753 2575 2939 
Q 2822 3125 2822 3475 
Q 2822 3834 2567 4026 
Q 2313 4219 1838 4219 
Q 1578 4219 1281 4162 
Q 984 4106 628 3988 
L 628 4550 
Q 988 4650 1302 4700 
Q 1616 4750 1894 4750 
Q 2613 4750 3031 4423 
Q 3450 4097 3450 3541 
Q 3450 3153 3228 2886 
Q 3006 2619 2597 2516 
z
" id="DejaVuSans-33" transform="scale(0.015625)"/>
     </defs>
     <use xlink:href="#DejaVuSans-52"/>
     <use x="69.482422" xlink:href="#DejaVuSans-50"/>
     <use x="129.785156" xlink:href="#DejaVuSans-4d"/>
     <use x="216.064453" xlink:href="#DejaVuSans-33"/>
     <use x="279.6875" xlink:href="#DejaVuSans-20"/>
     <use x="311.474609" xlink:href="#DejaVuSans-28"/>
     <use x="350.488281" xlink:href="#DejaVuSans-72"/>
     <use x="391.601562" xlink:href="#DejaVuSans-70"/>
     <use x="455.078125" xlink:href="#DejaVuSans-6d"/>
     <use x="552.490234" xlink:href="#DejaVuSans-29"/>
    </g>
   </g>
  </g>
  <g id="text_39">
   <!-- Actuadores -->
   <g transform="translate(242.9875 23.6775)scale(0.16 -0.16)">
    <defs>
     <path d="M 2188 4044 
L 1331 1722 
L 3047 1722 
L 2188 4044 
z
M 1831 4666 
L 2547 4666 
L 4325 0 
L 3669 0 
L 3244 1197 
L 1141 1197 
L 716 0 
L 50 0 
L 1831 4666 
z
" id="DejaVuSans-41" transform="scale(0.015625)"/>
     <path d="M 3122 3366 
L 3122 2828 
Q 2878 2963 2633 3030 
Q 2388 3097 2138 3097 
Q 1578 3097 1268 2742 
Q 959 2388 959 1747 
Q 959 1106 1268 751 
Q 1578 397 2138 397 
Q 2388 397 2633 464 
Q 2878 531 3122 666 
L 3122 134 
Q 2881 22 2623 -34 
Q 2366 -91 2075 -91 
Q 1284 -91 818 406 
Q 353 903 353 1747 
Q 353 2603 823 3093 
Q 1294 3584 2113 3584 
Q 2378 3584 2631 3529 
Q 2884 3475 3122 3366 
z
" id="DejaVuSans-63" transform="scale(0.015625)"/>
     <path d="M 1172 4494 
L 1172 3500 
L 2356 3500 
L 2356 3053 
L 1172 3053 
L 1172 1153 
Q 1172 725 1289 603 
Q 1406 481 1766 481 
L 2356 481 
L 2356 0 
L 1766 0 
Q 1100 0 847 248 
Q 594 497 594 1153 
L 594 3053 
L 172 3053 
L 172 3500 
L 594 3500 
L 594 4494 
L 1172 4494 
z
" id="DejaVuSans-74" transform="scale(0.015625)"/>
     <path d="M 544 1381 
L 544 3500 
L 1119 3500 
L 1119 1403 
Q 1119 906 1312 657 
Q 1506 409 1894 409 
Q 2359 409 2629 706 
Q 2900 1003 2900 1516 
L 2900 3500 
L 3475 3500 
L 3475 0 
L 2900 0 
L 2900 538 
Q 2691 219 2414 64 
Q 2138 -91 1772 -91 
Q 1169 -91 856 284 
Q 544 659 544 1381 
z
M 1991 3584 
L 1991 3584 
z
" id="DejaVuSans-75" transform="scale(0.015625)"/>
     <path d="M 2194 1759 
Q 1497 1759 1228 1600 
Q 959 1441 959 1056 
Q 959 750 1161 570 
Q 1363 391 1709 391 
Q 2188 391 2477 730 
Q 2766 1069 2766 1631 
L 2766 1759 
L 2194 1759 
z
M 3341 1997 
L 3341 0 
L 2766 0 
L 2766 531 
Q 2569 213 2275 61 
Q 1981 -91 1556 -91 
Q 1019 -91 701 211 
Q 384 513 384 1019 
Q 384 1609 779 1909 
Q 1175 2209 1959 2209 
L 2766 2209 
L 2766 2266 
Q 2766 2663 2505 2880 
Q 2244 3097 1772 3097 
Q 1472 3097 1187 3025 
Q 903 2953 641 2809 
L 641 3341 
Q 956 3463 1253 3523 
Q 1550 3584 1831 3584 
Q 2591 3584 2966 3190 
Q 3341 2797 3341 1997 
z
" id="DejaVuSans-61" transform="scale(0.015625)"/>
     <path d="M 2906 2969 
L 2906 4863 
L 3481 4863 
L 3481 0 
L 2906 0 
L 2906 525 
Q 2725 213 2448 61 
Q 2172 -91 1784 -91 
Q 1150 -91 751 415 
Q 353 922 353 1747 
Q 353 2572 751 3078 
Q 1150 3584 1784 3584 
Q 2172 3584 2448 3432 
Q 2725 3281 2906 2969 
z
M 947 1747 
Q 947 1113 1208 752 
Q 1469 391 1925 391 
Q 2381 391 2643 752 
Q 2906 1113 2906 1747 
Q 2906 2381 2643 2742 
Q 2381 3103 1925 3103 
Q 1469 3103 1208 2742 
Q 947 2381 947 1747 
z
" id="DejaVuSans-64" transform="scale(0.015625)"/>
    </defs>
    <use xlink:href="#DejaVuSans-41"/>
    <use x="66.658203" xlink:href="#DejaVuSans-63"/>
    <use x="121.638672" xlink:href="#DejaVuSans-74"/>
    <use x="160.847656" xlink:href="#DejaVuSans-75"/>
    <use x="224.226562" xlink:href="#DejaVuSans-61"/>
    <use x="285.505859" xlink:href="#DejaVuSans-64"/>
    <use x="348.982422" xlink:href="#DejaVuSans-6f"/>
    <use x="410.164062" xlink:href="#DejaVuSans-72"/>
    <use x="449.027344" xlink:href="#DejaVuSans-65"/>
    <use x="510.550781" xlink:href="#DejaVuSans-73"/>
   </g>
  </g>
  <g id="legend_1">
   <g id="patch_22">
    <path d="M 488.398438 304.178125 
L 569 304.178125 
Q 571 304.178125 571 302.178125 
L 571 273.821875 
Q 571 271.821875 569 271.821875 
L 488.398438 271.821875 
Q 486.398438 271.821875 486.398438 273.821875 
L 486.398438 302.178125 
Q 486.398438 304.178125 488.398438 304.178125 
z
" style="fill:#ffffff;opacity:0.8;stroke:#cccccc;stroke-linejoin:miter;"/>
   </g>
   <g id="line2d_89">
    <path d="M 490.398438 279.920313 
L 510.398438 279.920313 
" style="fill:none;stroke:#1f77b4;stroke-linecap:square;stroke-opacity:0.7;stroke-width:1.5;"/>
   </g>
   <g id="line2d_90"/>
   <g id="text_40">
    <!-- DSLPID -->
    <g transform="translate(518.398438 283.420313)scale(0.1 -0.1)">
     <defs>
      <path d="M 1259 4147 
L 1259 519 
L 2022 519 
Q 2988 519 3436 956 
Q 3884 1394 3884 2338 
Q 3884 3275 3436 3711 
Q 2988 4147 2022 4147 
L 1259 4147 
z
M 628 4666 
L 1925 4666 
Q 3281 4666 3915 4102 
Q 4550 3538 4550 2338 
Q 4550 1131 3912 565 
Q 3275 0 1925 0 
L 628 0 
L 628 4666 
z
" id="DejaVuSans-44" transform="scale(0.015625)"/>
      <path d="M 3425 4513 
L 3425 3897 
Q 3066 4069 2747 4153 
Q 2428 4238 2131 4238 
Q 1616 4238 1336 4038 
Q 1056 3838 1056 3469 
Q 1056 3159 1242 3001 
Q 1428 2844 1947 2747 
L 2328 2669 
Q 3034 2534 3370 2195 
Q 3706 1856 3706 1288 
Q 3706 609 3251 259 
Q 2797 -91 1919 -91 
Q 1588 -91 1214 -16 
Q 841 59 441 206 
L 441 856 
Q 825 641 1194 531 
Q 1563 422 1919 422 
Q 2459 422 2753 634 
Q 3047 847 3047 1241 
Q 3047 1584 2836 1778 
Q 2625 1972 2144 2069 
L 1759 2144 
Q 1053 2284 737 2584 
Q 422 2884 422 3419 
Q 422 4038 858 4394 
Q 1294 4750 2059 4750 
Q 2388 4750 2728 4690 
Q 3069 4631 3425 4513 
z
" id="DejaVuSans-53" transform="scale(0.015625)"/>
      <path d="M 628 4666 
L 1259 4666 
L 1259 531 
L 3531 531 
L 3531 0 
L 628 0 
L 628 4666 
z
" id="DejaVuSans-4c" transform="scale(0.015625)"/>
      <path d="M 628 4666 
L 1259 4666 
L 1259 0 
L 628 0 
L 628 4666 
z
" id="DejaVuSans-49" transform="scale(0.015625)"/>
     </defs>
     <use xlink:href="#DejaVuSans-44"/>
     <use x="77.001953" xlink:href="#DejaVuSans-53"/>
     <use x="140.478516" xlink:href="#DejaVuSans-4c"/>
     <use x="196.191406" xlink:href="#DejaVuSans-50"/>
     <use x="256.494141" xlink:href="#DejaVuSans-49"/>
     <use x="285.986328" xlink:href="#DejaVuSans-44"/>
    </g>
   </g>
   <g id="line2d_91">
    <path d="M 490.398438 294.598438 
L 510.398438 294.598438 
" style="fill:none;stroke:#2ca02c;stroke-linecap:square;stroke-opacity:0.7;stroke-width:1.5;"/>
   </g>
   <g id="line2d_92"/>
   <g id="text_41">
    <!-- LSTMCNN -->
    <g transform="translate(518.398438 298.098438)scale(0.1 -0.1)">
     <defs>
      <path d="M 4122 4306 
L 4122 3641 
Q 3803 3938 3442 4084 
Q 3081 4231 2675 4231 
Q 1875 4231 1450 3742 
Q 1025 3253 1025 2328 
Q 1025 1406 1450 917 
Q 1875 428 2675 428 
Q 3081 428 3442 575 
Q 3803 722 4122 1019 
L 4122 359 
Q 3791 134 3420 21 
Q 3050 -91 2638 -91 
Q 1578 -91 968 557 
Q 359 1206 359 2328 
Q 359 3453 968 4101 
Q 1578 4750 2638 4750 
Q 3056 4750 3426 4639 
Q 3797 4528 4122 4306 
z
" id="DejaVuSans-43" transform="scale(0.015625)"/>
      <path d="M 628 4666 
L 1478 4666 
L 3547 763 
L 3547 4666 
L 4159 4666 
L 4159 0 
L 3309 0 
L 1241 3903 
L 1241 0 
L 628 0 
L 628 4666 
z
" id="DejaVuSans-4e" transform="scale(0.015625)"/>
     </defs>
     <use xlink:href="#DejaVuSans-4c"/>
     <use x="55.712891" xlink:href="#DejaVuSans-53"/>
     <use x="119.189453" xlink:href="#DejaVuSans-54"/>
     <use x="180.273438" xlink:href="#DejaVuSans-4d"/>
     <use x="266.552734" xlink:href="#DejaVuSans-43"/>
     <use x="336.376953" xlink:href="#DejaVuSans-4e"/>
     <use x="411.181641" xlink:href="#DejaVuSans-4e"/>
    </g>
   </g>
  </g>
 </g>
 <defs>
  <clipPath id="p1db9c5671f">
   <rect height="191.7" width="175.61" x="78.19" y="80.88"/>
  </clipPath>
  <clipPath id="pec54b0a463">
   <rect height="191.7" width="175.61" x="303.19" y="80.88"/>
  </clipPath>
  <clipPath id="pf38ec1a4f5">
   <rect height="191.7" width="175.61" x="78.19" y="313.54"/>
  </clipPath>
  <clipPath id="pc36a7c83e2">
   <rect height="191.7" width="175.61" x="303.19" y="313.54"/>
  </clipPath>
 </defs>
</svg>
