<?xml version="1.0" encoding="utf-8" standalone="no"?>
<!DOCTYPE svg PUBLIC "-//W3C//DTD SVG 1.1//EN"
  "http://www.w3.org/Graphics/SVG/1.1/DTD/svg11.dtd">
<svg height="576pt" version="1.1" viewBox="0 0 576 576" width="576pt" xmlns="http://www.w3.org/2000/svg" xmlns:xlink="http://www.w3.org/1999/xlink">
 <metadata>
  <rdf:RDF xmlns:cc="http://creativecommons.org/ns#" xmlns:dc="http://purl.org/dc/elements/1.1/" xmlns:rdf="http://www.w3.org/1999/02/22-rdf-syntax-ns#">
   <cc:Work>
    <dc:type rdf:resource="http://purl.org/dc/dcmitype/StillImage"/>
    <dc:date>2022-02-26T04:29:18.894093</dc:date>
    <dc:format>image/svg+xml</dc:format>
    <dc:creator>
     <cc:Agent>
      <dc:title>Matplotlib v3.4.3, https://matplotlib.org/</dc:title>
     </cc:Agent>
    </dc:creator>
   </cc:Work>
  </rdf:RDF>
 </metadata>
 <defs>
  <style type="text/css">*{stroke-linecap:butt;stroke-linejoin:round;}</style>
 </defs>
 <g id="figure_1">
  <g id="patch_1">
   <path d="M 0 576 
L 576 576 
L 576 0 
L 0 0 
z
" style="fill:#ffffff;"/>
  </g>
  <g id="patch_2">
   <path d="M 23.4 565.2 
L 552.6 565.2 
L 552.6 36 
L 23.4 36 
z
" style="fill:#ffffff;"/>
  </g>
  <g id="pane3d_1">
   <g id="patch_3">
    <path d="M 63.358249 434.71624 
L 238.117372 288.229677 
L 235.688053 76.969868 
L 52.565805 210.604144 
" style="fill:#f2f2f2;opacity:0.5;stroke:#f2f2f2;stroke-linejoin:miter;"/>
   </g>
  </g>
  <g id="pane3d_2">
   <g id="patch_4">
    <path d="M 238.117372 288.229677 
L 518.54341 369.738455 
L 528.550827 151.202044 
L 235.688053 76.969868 
" style="fill:#e6e6e6;opacity:0.5;stroke:#e6e6e6;stroke-linejoin:miter;"/>
   </g>
  </g>
  <g id="pane3d_3">
   <g id="patch_5">
    <path d="M 63.358249 434.71624 
L 360.623546 531.803085 
L 518.54341 369.738455 
L 238.117372 288.229677 
" style="fill:#ececec;opacity:0.5;stroke:#ececec;stroke-linejoin:miter;"/>
   </g>
  </g>
  <g id="axis3d_1">
   <g id="line2d_1">
    <path d="M 63.358249 434.71624 
L 360.623546 531.803085 
" style="fill:none;stroke:#000000;stroke-linecap:square;stroke-width:0.8;"/>
   </g>
   <g id="text_1">
    <!-- x (m) -->
    <g transform="translate(178.329241 515.594496)rotate(-341.912962)scale(0.1 -0.1)">
     <defs>
      <path d="M 3513 3500 
L 2247 1797 
L 3578 0 
L 2900 0 
L 1881 1375 
L 863 0 
L 184 0 
L 1544 1831 
L 300 3500 
L 978 3500 
L 1906 2253 
L 2834 3500 
L 3513 3500 
z
" id="DejaVuSans-78" transform="scale(0.015625)"/>
      <path id="DejaVuSans-20" transform="scale(0.015625)"/>
      <path d="M 1984 4856 
Q 1566 4138 1362 3434 
Q 1159 2731 1159 2009 
Q 1159 1288 1364 580 
Q 1569 -128 1984 -844 
L 1484 -844 
Q 1016 -109 783 600 
Q 550 1309 550 2009 
Q 550 2706 781 3412 
Q 1013 4119 1484 4856 
L 1984 4856 
z
" id="DejaVuSans-28" transform="scale(0.015625)"/>
      <path d="M 3328 2828 
Q 3544 3216 3844 3400 
Q 4144 3584 4550 3584 
Q 5097 3584 5394 3201 
Q 5691 2819 5691 2113 
L 5691 0 
L 5113 0 
L 5113 2094 
Q 5113 2597 4934 2840 
Q 4756 3084 4391 3084 
Q 3944 3084 3684 2787 
Q 3425 2491 3425 1978 
L 3425 0 
L 2847 0 
L 2847 2094 
Q 2847 2600 2669 2842 
Q 2491 3084 2119 3084 
Q 1678 3084 1418 2786 
Q 1159 2488 1159 1978 
L 1159 0 
L 581 0 
L 581 3500 
L 1159 3500 
L 1159 2956 
Q 1356 3278 1631 3431 
Q 1906 3584 2284 3584 
Q 2666 3584 2933 3390 
Q 3200 3197 3328 2828 
z
" id="DejaVuSans-6d" transform="scale(0.015625)"/>
      <path d="M 513 4856 
L 1013 4856 
Q 1481 4119 1714 3412 
Q 1947 2706 1947 2009 
Q 1947 1309 1714 600 
Q 1481 -109 1013 -844 
L 513 -844 
Q 928 -128 1133 580 
Q 1338 1288 1338 2009 
Q 1338 2731 1133 3434 
Q 928 4138 513 4856 
z
" id="DejaVuSans-29" transform="scale(0.015625)"/>
     </defs>
     <use xlink:href="#DejaVuSans-78"/>
     <use x="59.179688" xlink:href="#DejaVuSans-20"/>
     <use x="90.966797" xlink:href="#DejaVuSans-28"/>
     <use x="129.980469" xlink:href="#DejaVuSans-6d"/>
     <use x="227.392578" xlink:href="#DejaVuSans-29"/>
    </g>
   </g>
   <g id="Line3DCollection_1">
    <path d="M 76.327609 438.952032 
L 250.403818 291.800862 
L 248.493519 80.215681 
" style="fill:none;stroke:#b0b0b0;stroke-width:0.8;"/>
    <path d="M 115.157452 451.633859 
L 287.160697 302.484635 
L 286.817267 89.929634 
" style="fill:none;stroke:#b0b0b0;stroke-width:0.8;"/>
    <path d="M 154.53924 464.495951 
L 324.396714 313.307676 
L 325.662194 99.77569 
" style="fill:none;stroke:#b0b0b0;stroke-width:0.8;"/>
    <path d="M 194.484827 477.542179 
L 362.121299 324.272723 
L 365.039005 109.756564 
" style="fill:none;stroke:#b0b0b0;stroke-width:0.8;"/>
    <path d="M 235.006406 490.776527 
L 400.344132 335.382592 
L 404.9587 119.875043 
" style="fill:none;stroke:#b0b0b0;stroke-width:0.8;"/>
    <path d="M 276.116526 504.203092 
L 439.075148 346.640169 
L 445.432582 130.133992 
" style="fill:none;stroke:#b0b0b0;stroke-width:0.8;"/>
    <path d="M 317.828103 517.826093 
L 478.324551 358.048421 
L 486.472274 140.536358 
" style="fill:none;stroke:#b0b0b0;stroke-width:0.8;"/>
   </g>
   <g id="xtick_1">
    <g id="line2d_2">
     <path d="M 77.843342 437.670743 
L 73.289644 441.520103 
" style="fill:none;stroke:#000000;stroke-linecap:square;stroke-width:0.8;"/>
    </g>
    <g id="text_2">
     <!-- −0.02 -->
     <g transform="translate(53.487289 462.214774)scale(0.1 -0.1)">
      <defs>
       <path d="M 678 2272 
L 4684 2272 
L 4684 1741 
L 678 1741 
L 678 2272 
z
" id="DejaVuSans-2212" transform="scale(0.015625)"/>
       <path d="M 2034 4250 
Q 1547 4250 1301 3770 
Q 1056 3291 1056 2328 
Q 1056 1369 1301 889 
Q 1547 409 2034 409 
Q 2525 409 2770 889 
Q 3016 1369 3016 2328 
Q 3016 3291 2770 3770 
Q 2525 4250 2034 4250 
z
M 2034 4750 
Q 2819 4750 3233 4129 
Q 3647 3509 3647 2328 
Q 3647 1150 3233 529 
Q 2819 -91 2034 -91 
Q 1250 -91 836 529 
Q 422 1150 422 2328 
Q 422 3509 836 4129 
Q 1250 4750 2034 4750 
z
" id="DejaVuSans-30" transform="scale(0.015625)"/>
       <path d="M 684 794 
L 1344 794 
L 1344 0 
L 684 0 
L 684 794 
z
" id="DejaVuSans-2e" transform="scale(0.015625)"/>
       <path d="M 1228 531 
L 3431 531 
L 3431 0 
L 469 0 
L 469 531 
Q 828 903 1448 1529 
Q 2069 2156 2228 2338 
Q 2531 2678 2651 2914 
Q 2772 3150 2772 3378 
Q 2772 3750 2511 3984 
Q 2250 4219 1831 4219 
Q 1534 4219 1204 4116 
Q 875 4013 500 3803 
L 500 4441 
Q 881 4594 1212 4672 
Q 1544 4750 1819 4750 
Q 2544 4750 2975 4387 
Q 3406 4025 3406 3419 
Q 3406 3131 3298 2873 
Q 3191 2616 2906 2266 
Q 2828 2175 2409 1742 
Q 1991 1309 1228 531 
z
" id="DejaVuSans-32" transform="scale(0.015625)"/>
      </defs>
      <use xlink:href="#DejaVuSans-2212"/>
      <use x="83.789062" xlink:href="#DejaVuSans-30"/>
      <use x="147.412109" xlink:href="#DejaVuSans-2e"/>
      <use x="179.199219" xlink:href="#DejaVuSans-30"/>
      <use x="242.822266" xlink:href="#DejaVuSans-32"/>
     </g>
    </g>
   </g>
   <g id="xtick_2">
    <g id="line2d_3">
     <path d="M 116.655993 450.334428 
L 112.1539 454.23833 
" style="fill:none;stroke:#000000;stroke-linecap:square;stroke-width:0.8;"/>
    </g>
    <g id="text_3">
     <!-- 0.00 -->
     <g transform="translate(96.526718 475.031159)scale(0.1 -0.1)">
      <use xlink:href="#DejaVuSans-30"/>
      <use x="63.623047" xlink:href="#DejaVuSans-2e"/>
      <use x="95.410156" xlink:href="#DejaVuSans-30"/>
      <use x="159.033203" xlink:href="#DejaVuSans-30"/>
     </g>
    </g>
   </g>
   <g id="xtick_3">
    <g id="line2d_4">
     <path d="M 156.019946 463.177991 
L 151.57139 467.137602 
" style="fill:none;stroke:#000000;stroke-linecap:square;stroke-width:0.8;"/>
    </g>
    <g id="text_4">
     <!-- 0.02 -->
     <g transform="translate(135.929573 488.030067)scale(0.1 -0.1)">
      <use xlink:href="#DejaVuSans-30"/>
      <use x="63.623047" xlink:href="#DejaVuSans-2e"/>
      <use x="95.410156" xlink:href="#DejaVuSans-30"/>
      <use x="159.033203" xlink:href="#DejaVuSans-32"/>
     </g>
    </g>
   </g>
   <g id="xtick_4">
    <g id="line2d_5">
     <path d="M 195.947032 476.20529 
L 191.554014 480.221812 
" style="fill:none;stroke:#000000;stroke-linecap:square;stroke-width:0.8;"/>
    </g>
    <g id="text_5">
     <!-- 0.04 -->
     <g transform="translate(175.897602 501.215425)scale(0.1 -0.1)">
      <defs>
       <path d="M 2419 4116 
L 825 1625 
L 2419 1625 
L 2419 4116 
z
M 2253 4666 
L 3047 4666 
L 3047 1625 
L 3713 1625 
L 3713 1100 
L 3047 1100 
L 3047 0 
L 2419 0 
L 2419 1100 
L 313 1100 
L 313 1709 
L 2253 4666 
z
" id="DejaVuSans-34" transform="scale(0.015625)"/>
      </defs>
      <use xlink:href="#DejaVuSans-30"/>
      <use x="63.623047" xlink:href="#DejaVuSans-2e"/>
      <use x="95.410156" xlink:href="#DejaVuSans-30"/>
      <use x="159.033203" xlink:href="#DejaVuSans-34"/>
     </g>
    </g>
   </g>
   <g id="xtick_5">
    <g id="line2d_6">
     <path d="M 236.44942 489.420298 
L 232.114011 493.494966 
" style="fill:none;stroke:#000000;stroke-linecap:square;stroke-width:0.8;"/>
    </g>
    <g id="text_6">
     <!-- 0.06 -->
     <g transform="translate(216.443052 514.591272)scale(0.1 -0.1)">
      <defs>
       <path d="M 2113 2584 
Q 1688 2584 1439 2293 
Q 1191 2003 1191 1497 
Q 1191 994 1439 701 
Q 1688 409 2113 409 
Q 2538 409 2786 701 
Q 3034 994 3034 1497 
Q 3034 2003 2786 2293 
Q 2538 2584 2113 2584 
z
M 3366 4563 
L 3366 3988 
Q 3128 4100 2886 4159 
Q 2644 4219 2406 4219 
Q 1781 4219 1451 3797 
Q 1122 3375 1075 2522 
Q 1259 2794 1537 2939 
Q 1816 3084 2150 3084 
Q 2853 3084 3261 2657 
Q 3669 2231 3669 1497 
Q 3669 778 3244 343 
Q 2819 -91 2113 -91 
Q 1303 -91 875 529 
Q 447 1150 447 2328 
Q 447 3434 972 4092 
Q 1497 4750 2381 4750 
Q 2619 4750 2861 4703 
Q 3103 4656 3366 4563 
z
" id="DejaVuSans-36" transform="scale(0.015625)"/>
      </defs>
      <use xlink:href="#DejaVuSans-30"/>
      <use x="63.623047" xlink:href="#DejaVuSans-2e"/>
      <use x="95.410156" xlink:href="#DejaVuSans-30"/>
      <use x="159.033203" xlink:href="#DejaVuSans-36"/>
     </g>
    </g>
   </g>
   <g id="xtick_6">
    <g id="line2d_7">
     <path d="M 277.539637 502.827101 
L 273.26398 506.961187 
" style="fill:none;stroke:#000000;stroke-linecap:square;stroke-width:0.8;"/>
    </g>
    <g id="text_7">
     <!-- 0.08 -->
     <g transform="translate(257.578528 528.161768)scale(0.1 -0.1)">
      <defs>
       <path d="M 2034 2216 
Q 1584 2216 1326 1975 
Q 1069 1734 1069 1313 
Q 1069 891 1326 650 
Q 1584 409 2034 409 
Q 2484 409 2743 651 
Q 3003 894 3003 1313 
Q 3003 1734 2745 1975 
Q 2488 2216 2034 2216 
z
M 1403 2484 
Q 997 2584 770 2862 
Q 544 3141 544 3541 
Q 544 4100 942 4425 
Q 1341 4750 2034 4750 
Q 2731 4750 3128 4425 
Q 3525 4100 3525 3541 
Q 3525 3141 3298 2862 
Q 3072 2584 2669 2484 
Q 3125 2378 3379 2068 
Q 3634 1759 3634 1313 
Q 3634 634 3220 271 
Q 2806 -91 2034 -91 
Q 1263 -91 848 271 
Q 434 634 434 1313 
Q 434 1759 690 2068 
Q 947 2378 1403 2484 
z
M 1172 3481 
Q 1172 3119 1398 2916 
Q 1625 2713 2034 2713 
Q 2441 2713 2670 2916 
Q 2900 3119 2900 3481 
Q 2900 3844 2670 4047 
Q 2441 4250 2034 4250 
Q 1625 4250 1398 4047 
Q 1172 3844 1172 3481 
z
" id="DejaVuSans-38" transform="scale(0.015625)"/>
      </defs>
      <use xlink:href="#DejaVuSans-30"/>
      <use x="63.623047" xlink:href="#DejaVuSans-2e"/>
      <use x="95.410156" xlink:href="#DejaVuSans-30"/>
      <use x="159.033203" xlink:href="#DejaVuSans-38"/>
     </g>
    </g>
   </g>
   <g id="xtick_7">
    <g id="line2d_8">
     <path d="M 319.230572 516.429905 
L 315.016888 520.624718 
" style="fill:none;stroke:#000000;stroke-linecap:square;stroke-width:0.8;"/>
    </g>
    <g id="text_8">
     <!-- 0.10 -->
     <g transform="translate(299.317003 541.931192)scale(0.1 -0.1)">
      <defs>
       <path d="M 794 531 
L 1825 531 
L 1825 4091 
L 703 3866 
L 703 4441 
L 1819 4666 
L 2450 4666 
L 2450 531 
L 3481 531 
L 3481 0 
L 794 0 
L 794 531 
z
" id="DejaVuSans-31" transform="scale(0.015625)"/>
      </defs>
      <use xlink:href="#DejaVuSans-30"/>
      <use x="63.623047" xlink:href="#DejaVuSans-2e"/>
      <use x="95.410156" xlink:href="#DejaVuSans-31"/>
      <use x="159.033203" xlink:href="#DejaVuSans-30"/>
     </g>
    </g>
   </g>
  </g>
  <g id="axis3d_2">
   <g id="line2d_9">
    <path d="M 518.54341 369.738455 
L 360.623546 531.803085 
" style="fill:none;stroke:#000000;stroke-linecap:square;stroke-width:0.8;"/>
   </g>
   <g id="text_9">
    <!-- y (m) -->
    <g transform="translate(462.753334 486.601399)rotate(-45.742112)scale(0.1 -0.1)">
     <defs>
      <path d="M 2059 -325 
Q 1816 -950 1584 -1140 
Q 1353 -1331 966 -1331 
L 506 -1331 
L 506 -850 
L 844 -850 
Q 1081 -850 1212 -737 
Q 1344 -625 1503 -206 
L 1606 56 
L 191 3500 
L 800 3500 
L 1894 763 
L 2988 3500 
L 3597 3500 
L 2059 -325 
z
" id="DejaVuSans-79" transform="scale(0.015625)"/>
     </defs>
     <use xlink:href="#DejaVuSans-79"/>
     <use x="59.179688" xlink:href="#DejaVuSans-20"/>
     <use x="90.966797" xlink:href="#DejaVuSans-28"/>
     <use x="129.980469" xlink:href="#DejaVuSans-6d"/>
     <use x="227.392578" xlink:href="#DejaVuSans-29"/>
    </g>
   </g>
   <g id="Line3DCollection_2">
    <path d="M 76.097342 193.4319 
L 85.740899 415.954658 
L 380.927461 510.966273 
" style="fill:none;stroke:#b0b0b0;stroke-width:0.8;"/>
    <path d="M 104.593472 172.636722 
L 112.874973 393.21034 
L 405.510702 485.737821 
" style="fill:none;stroke:#b0b0b0;stroke-width:0.8;"/>
    <path d="M 132.335831 152.391613 
L 139.322102 371.041832 
L 429.439132 461.181365 
" style="fill:none;stroke:#b0b0b0;stroke-width:0.8;"/>
    <path d="M 159.353936 132.67503 
L 165.108046 349.427543 
L 452.73857 437.27041 
" style="fill:none;stroke:#b0b0b0;stroke-width:0.8;"/>
    <path d="M 185.675782 113.466546 
L 190.257294 328.346944 
L 475.433496 413.979832 
" style="fill:none;stroke:#b0b0b0;stroke-width:0.8;"/>
    <path d="M 211.327943 94.746767 
L 214.79314 307.780511 
L 497.547135 391.285799 
" style="fill:none;stroke:#b0b0b0;stroke-width:0.8;"/>
   </g>
   <g id="xtick_8">
    <g id="line2d_10">
     <path d="M 378.440561 510.165815 
L 385.907661 512.569249 
" style="fill:none;stroke:#000000;stroke-linecap:square;stroke-width:0.8;"/>
    </g>
    <g id="text_10">
     <!-- 0.00 -->
     <g transform="translate(382.608279 531.912368)scale(0.1 -0.1)">
      <use xlink:href="#DejaVuSans-30"/>
      <use x="63.623047" xlink:href="#DejaVuSans-2e"/>
      <use x="95.410156" xlink:href="#DejaVuSans-30"/>
      <use x="159.033203" xlink:href="#DejaVuSans-30"/>
     </g>
    </g>
   </g>
   <g id="xtick_9">
    <g id="line2d_11">
     <path d="M 403.046969 484.958822 
L 410.444421 487.297797 
" style="fill:none;stroke:#000000;stroke-linecap:square;stroke-width:0.8;"/>
    </g>
    <g id="text_11">
     <!-- 0.02 -->
     <g transform="translate(407.025772 506.496243)scale(0.1 -0.1)">
      <use xlink:href="#DejaVuSans-30"/>
      <use x="63.623047" xlink:href="#DejaVuSans-2e"/>
      <use x="95.410156" xlink:href="#DejaVuSans-30"/>
      <use x="159.033203" xlink:href="#DejaVuSans-32"/>
     </g>
    </g>
   </g>
   <g id="xtick_10">
    <g id="line2d_12">
     <path d="M 426.998223 460.422973 
L 434.327062 462.700048 
" style="fill:none;stroke:#000000;stroke-linecap:square;stroke-width:0.8;"/>
    </g>
    <g id="text_12">
     <!-- 0.04 -->
     <g transform="translate(430.79268 481.757311)scale(0.1 -0.1)">
      <use xlink:href="#DejaVuSans-30"/>
      <use x="63.623047" xlink:href="#DejaVuSans-2e"/>
      <use x="95.410156" xlink:href="#DejaVuSans-30"/>
      <use x="159.033203" xlink:href="#DejaVuSans-34"/>
     </g>
    </g>
   </g>
   <g id="xtick_11">
    <g id="line2d_13">
     <path d="M 450.320144 436.531818 
L 457.581399 438.749418 
" style="fill:none;stroke:#000000;stroke-linecap:square;stroke-width:0.8;"/>
    </g>
    <g id="text_13">
     <!-- 0.06 -->
     <g transform="translate(453.934663 457.668862)scale(0.1 -0.1)">
      <use xlink:href="#DejaVuSans-30"/>
      <use x="63.623047" xlink:href="#DejaVuSans-2e"/>
      <use x="95.410156" xlink:href="#DejaVuSans-30"/>
      <use x="159.033203" xlink:href="#DejaVuSans-36"/>
     </g>
    </g>
   </g>
   <g id="xtick_12">
    <g id="line2d_14">
     <path d="M 473.037216 413.260276 
L 480.231903 415.420701 
" style="fill:none;stroke:#000000;stroke-linecap:square;stroke-width:0.8;"/>
    </g>
    <g id="text_14">
     <!-- 0.08 -->
     <g transform="translate(476.476049 434.205574)scale(0.1 -0.1)">
      <use xlink:href="#DejaVuSans-30"/>
      <use x="63.623047" xlink:href="#DejaVuSans-2e"/>
      <use x="95.410156" xlink:href="#DejaVuSans-30"/>
      <use x="159.033203" xlink:href="#DejaVuSans-38"/>
     </g>
    </g>
   </g>
   <g id="xtick_13">
    <g id="line2d_15">
     <path d="M 495.172666 390.584551 
L 502.301791 392.689984 
" style="fill:none;stroke:#000000;stroke-linecap:square;stroke-width:0.8;"/>
    </g>
    <g id="text_15">
     <!-- 0.10 -->
     <g transform="translate(498.439918 411.343423)scale(0.1 -0.1)">
      <use xlink:href="#DejaVuSans-30"/>
      <use x="63.623047" xlink:href="#DejaVuSans-2e"/>
      <use x="95.410156" xlink:href="#DejaVuSans-31"/>
      <use x="159.033203" xlink:href="#DejaVuSans-30"/>
     </g>
    </g>
   </g>
  </g>
  <g id="axis3d_3">
   <g id="line2d_16">
    <path d="M 518.54341 369.738455 
L 528.550827 151.202044 
" style="fill:none;stroke:#000000;stroke-linecap:square;stroke-width:0.8;"/>
   </g>
   <g id="text_16">
    <!-- z (m) -->
    <g transform="translate(566.10943 270.534657)rotate(-87.378092)scale(0.1 -0.1)">
     <defs>
      <path d="M 353 3500 
L 3084 3500 
L 3084 2975 
L 922 459 
L 3084 459 
L 3084 0 
L 275 0 
L 275 525 
L 2438 3041 
L 353 3041 
L 353 3500 
z
" id="DejaVuSans-7a" transform="scale(0.015625)"/>
     </defs>
     <use xlink:href="#DejaVuSans-7a"/>
     <use x="52.490234" xlink:href="#DejaVuSans-20"/>
     <use x="84.277344" xlink:href="#DejaVuSans-28"/>
     <use x="123.291016" xlink:href="#DejaVuSans-6d"/>
     <use x="220.703125" xlink:href="#DejaVuSans-29"/>
    </g>
   </g>
   <g id="Line3DCollection_3">
    <path d="M 519.132922 356.865034 
L 237.973983 275.760154 
L 62.723502 421.535301 
" style="fill:none;stroke:#b0b0b0;stroke-width:0.8;"/>
    <path d="M 520.811655 320.205787 
L 237.565852 240.268078 
L 60.915261 383.986012 
" style="fill:none;stroke:#b0b0b0;stroke-width:0.8;"/>
    <path d="M 522.515742 282.992871 
L 237.151853 204.265677 
L 59.078665 345.847889 
" style="fill:none;stroke:#b0b0b0;stroke-width:0.8;"/>
    <path d="M 524.245763 245.213647 
L 236.731859 167.741863 
L 57.21304 307.106974 
" style="fill:none;stroke:#b0b0b0;stroke-width:0.8;"/>
    <path d="M 526.002312 206.85509 
L 236.305737 130.685227 
L 55.317692 267.748862 
" style="fill:none;stroke:#b0b0b0;stroke-width:0.8;"/>
    <path d="M 527.786007 167.903769 
L 235.873353 93.084025 
L 53.391907 227.758684 
" style="fill:none;stroke:#b0b0b0;stroke-width:0.8;"/>
   </g>
   <g id="xtick_14">
    <g id="line2d_17">
     <path d="M 516.772932 356.184256 
L 523.858528 358.228212 
" style="fill:none;stroke:#000000;stroke-linecap:square;stroke-width:0.8;"/>
    </g>
    <g id="text_17">
     <!-- 0.95 -->
     <g transform="translate(526.323252 361.8672)scale(0.1 -0.1)">
      <defs>
       <path d="M 703 97 
L 703 672 
Q 941 559 1184 500 
Q 1428 441 1663 441 
Q 2288 441 2617 861 
Q 2947 1281 2994 2138 
Q 2813 1869 2534 1725 
Q 2256 1581 1919 1581 
Q 1219 1581 811 2004 
Q 403 2428 403 3163 
Q 403 3881 828 4315 
Q 1253 4750 1959 4750 
Q 2769 4750 3195 4129 
Q 3622 3509 3622 2328 
Q 3622 1225 3098 567 
Q 2575 -91 1691 -91 
Q 1453 -91 1209 -44 
Q 966 3 703 97 
z
M 1959 2075 
Q 2384 2075 2632 2365 
Q 2881 2656 2881 3163 
Q 2881 3666 2632 3958 
Q 2384 4250 1959 4250 
Q 1534 4250 1286 3958 
Q 1038 3666 1038 3163 
Q 1038 2656 1286 2365 
Q 1534 2075 1959 2075 
z
" id="DejaVuSans-39" transform="scale(0.015625)"/>
       <path d="M 691 4666 
L 3169 4666 
L 3169 4134 
L 1269 4134 
L 1269 2991 
Q 1406 3038 1543 3061 
Q 1681 3084 1819 3084 
Q 2600 3084 3056 2656 
Q 3513 2228 3513 1497 
Q 3513 744 3044 326 
Q 2575 -91 1722 -91 
Q 1428 -91 1123 -41 
Q 819 9 494 109 
L 494 744 
Q 775 591 1075 516 
Q 1375 441 1709 441 
Q 2250 441 2565 725 
Q 2881 1009 2881 1497 
Q 2881 1984 2565 2268 
Q 2250 2553 1709 2553 
Q 1456 2553 1204 2497 
Q 953 2441 691 2322 
L 691 4666 
z
" id="DejaVuSans-35" transform="scale(0.015625)"/>
      </defs>
      <use xlink:href="#DejaVuSans-30"/>
      <use x="63.623047" xlink:href="#DejaVuSans-2e"/>
      <use x="95.410156" xlink:href="#DejaVuSans-39"/>
      <use x="159.033203" xlink:href="#DejaVuSans-35"/>
     </g>
    </g>
   </g>
   <g id="xtick_15">
    <g id="line2d_18">
     <path d="M 518.433313 319.534571 
L 525.574052 321.549832 
" style="fill:none;stroke:#000000;stroke-linecap:square;stroke-width:0.8;"/>
    </g>
    <g id="text_18">
     <!-- 1.00 -->
     <g transform="translate(528.136547 325.244438)scale(0.1 -0.1)">
      <use xlink:href="#DejaVuSans-31"/>
      <use x="63.623047" xlink:href="#DejaVuSans-2e"/>
      <use x="95.410156" xlink:href="#DejaVuSans-30"/>
      <use x="159.033203" xlink:href="#DejaVuSans-30"/>
     </g>
    </g>
   </g>
   <g id="xtick_16">
    <g id="line2d_19">
     <path d="M 520.118761 282.331583 
L 527.315507 284.317047 
" style="fill:none;stroke:#000000;stroke-linecap:square;stroke-width:0.8;"/>
    </g>
    <g id="text_19">
     <!-- 1.05 -->
     <g transform="translate(529.977186 288.069408)scale(0.1 -0.1)">
      <use xlink:href="#DejaVuSans-31"/>
      <use x="63.623047" xlink:href="#DejaVuSans-2e"/>
      <use x="95.410156" xlink:href="#DejaVuSans-30"/>
      <use x="159.033203" xlink:href="#DejaVuSans-35"/>
     </g>
    </g>
   </g>
   <g id="xtick_17">
    <g id="line2d_20">
     <path d="M 521.829848 244.562669 
L 529.083485 246.517191 
" style="fill:none;stroke:#000000;stroke-linecap:square;stroke-width:0.8;"/>
    </g>
    <g id="text_20">
     <!-- 1.10 -->
     <g transform="translate(531.845793 250.329522)scale(0.1 -0.1)">
      <use xlink:href="#DejaVuSans-31"/>
      <use x="63.623047" xlink:href="#DejaVuSans-2e"/>
      <use x="95.410156" xlink:href="#DejaVuSans-31"/>
      <use x="159.033203" xlink:href="#DejaVuSans-30"/>
     </g>
    </g>
   </g>
   <g id="xtick_18">
    <g id="line2d_21">
     <path d="M 523.567163 206.214816 
L 530.878597 208.13721 
" style="fill:none;stroke:#000000;stroke-linecap:square;stroke-width:0.8;"/>
    </g>
    <g id="text_21">
     <!-- 1.15 -->
     <g transform="translate(533.743009 212.011809)scale(0.1 -0.1)">
      <use xlink:href="#DejaVuSans-31"/>
      <use x="63.623047" xlink:href="#DejaVuSans-2e"/>
      <use x="95.410156" xlink:href="#DejaVuSans-31"/>
      <use x="159.033203" xlink:href="#DejaVuSans-35"/>
     </g>
    </g>
   </g>
   <g id="xtick_19">
    <g id="line2d_22">
     <path d="M 525.331314 167.27461 
L 532.701472 169.163646 
" style="fill:none;stroke:#000000;stroke-linecap:square;stroke-width:0.8;"/>
    </g>
    <g id="text_22">
     <!-- 1.20 -->
     <g transform="translate(535.669497 173.102895)scale(0.1 -0.1)">
      <use xlink:href="#DejaVuSans-31"/>
      <use x="63.623047" xlink:href="#DejaVuSans-2e"/>
      <use x="95.410156" xlink:href="#DejaVuSans-32"/>
      <use x="159.033203" xlink:href="#DejaVuSans-30"/>
     </g>
    </g>
   </g>
  </g>
  <g id="axes_1">
   <g id="line2d_23">
    <path clip-path="url(#pc7b6f103ca)" d="M 135.543517 381.956553 
L 135.578205 383.014102 
L 135.507591 378.26021 
L 135.7071 375.320567 
L 136.149443 372.670903 
L 136.728109 370.561088 
L 137.576971 368.364619 
L 138.734998 366.107544 
L 140.233396 363.800343 
L 142.0923 361.460436 
L 144.327602 359.096509 
L 146.952563 356.71285 
L 149.978433 354.31405 
L 153.41468 351.901129 
L 157.266187 349.476461 
L 161.532075 347.042503 
L 166.206039 344.601469 
L 171.277538 342.155273 
L 178.634993 338.887886 
L 186.639565 335.616295 
L 195.248456 332.343608 
L 204.409894 329.074334 
L 216.546583 325.000704 
L 229.324266 320.951633 
L 245.316123 316.141957 
L 261.802559 311.408791 
L 281.338853 306.019448 
L 306.364359 299.367455 
L 335.83642 291.784097 
L 376.60298 281.558917 
L 429.183415 268.368856 
L 443.033236 264.659042 
L 450.091799 262.565169 
L 454.051223 261.177512 
L 455.840389 260.353792 
L 456.603503 259.799961 
L 456.787676 259.424348 
L 456.683744 259.16711 
L 456.329854 258.910559 
L 455.404247 258.569786 
L 453.021443 257.769793 
L 452.879091 257.501791 
L 453.001089 257.277304 
L 453.483504 256.943994 
L 454.733025 256.423129 
L 457.193789 255.670889 
L 461.891366 254.497125 
L 470.32304 252.654043 
L 479.518021 250.678834 
L 479.277039 250.671382 
L 477.634072 250.788951 
L 478.288813 250.622913 
L 478.904381 250.502937 
L 475.421072 251.086358 
L 465.11542 252.987312 
L 464.687177 253.076743 
L 464.687177 253.076743 
" style="fill:none;stroke:#1f77b4;stroke-linecap:square;stroke-opacity:0.7;stroke-width:1.5;"/>
   </g>
   <g id="line2d_24">
    <path clip-path="url(#pc7b6f103ca)" d="M 135.543517 381.956553 
L 135.787781 386.263056 
L 136.062485 387.360678 
L 136.464094 388.132694 
L 137.02403 388.746787 
L 137.915337 389.378983 
L 139.259673 390.038423 
L 140.750833 390.531477 
L 142.089258 390.762895 
L 143.288858 390.754756 
L 144.205875 390.547092 
L 144.90591 390.178002 
L 145.38744 389.688279 
L 145.697683 389.04392 
L 145.814324 388.244171 
L 145.72441 387.292699 
L 145.380292 386.066889 
L 144.649968 384.383446 
L 143.342987 382.007302 
L 139.571877 375.40711 
L 138.752598 373.388379 
L 138.320634 371.753438 
L 138.122527 370.140638 
L 138.154634 368.551803 
L 138.407656 366.979463 
L 138.920214 365.243269 
L 139.791272 363.153189 
L 141.601921 359.552307 
L 143.158704 356.264271 
L 144.01249 353.98313 
L 144.606043 351.790659 
L 144.951878 349.717304 
L 145.094886 347.550497 
L 145.02327 345.295561 
L 144.737922 342.961274 
L 144.187895 340.288911 
L 143.258435 336.999701 
L 141.733744 332.538149 
L 139.657054 326.413494 
L 138.880668 323.401919 
L 138.419198 320.71001 
L 138.221911 318.322211 
L 138.237567 315.960061 
L 138.489996 313.370157 
L 138.954795 310.884795 
L 139.663022 308.377584 
L 140.753375 305.452841 
L 143.011142 299.632416 
L 143.54483 297.526688 
L 143.80052 295.601931 
L 143.817438 293.861464 
L 143.621977 292.112644 
L 143.216982 290.354086 
L 142.540875 288.386593 
L 141.471663 286.0043 
L 139.452614 282.181977 
L 137.598942 278.509389 
L 136.709603 276.256272 
L 136.157354 274.274867 
L 135.881074 272.481265 
L 135.868598 271.097287 
L 136.066697 269.869708 
L 136.504834 268.594229 
L 137.267697 267.084004 
L 138.193112 265.67981 
L 139.013764 264.81198 
L 140.181352 263.968193 
L 141.12854 263.213926 
L 141.491316 262.655019 
L 141.573833 262.10728 
L 141.413131 261.510871 
L 140.931693 260.713663 
L 139.58493 259.055841 
L 138.212818 257.230758 
L 137.413254 255.802615 
L 136.935749 254.483394 
L 136.719307 253.245039 
L 136.729901 252.105346 
L 136.952633 251.218053 
L 137.350195 250.559163 
L 138.279596 249.581465 
L 139.54474 248.480342 
L 140.007545 248.363533 
L 140.499119 248.487895 
L 140.505553 248.513948 
L 140.404938 248.539798 
L 139.591412 248.497845 
L 137.911498 248.197903 
L 136.014203 247.630151 
L 134.345332 246.902285 
L 133.006254 246.085221 
L 131.977381 245.191225 
L 131.294228 244.289227 
L 130.940509 243.476918 
L 130.863255 242.749891 
L 131.02147 242.200317 
L 131.71988 241.015312 
L 132.575689 239.932766 
L 133.869026 238.722215 
L 135.459842 237.583063 
L 137.668056 236.329991 
L 140.583807 234.986061 
L 144.27007 233.566412 
L 148.763744 232.08266 
L 154.079784 230.542487 
L 161.874179 228.545964 
L 170.904367 226.477417 
L 183.2667 223.900506 
L 199.570952 220.756817 
L 234.056998 214.427021 
L 271.750478 207.421787 
L 295.345266 202.826245 
L 318.488999 198.079701 
L 337.910388 193.873155 
L 356.191497 189.681093 
L 370.730658 186.143196 
L 384.069285 182.693833 
L 396.09365 179.369175 
L 406.724 176.204056 
L 415.914969 173.230495 
L 423.654826 170.476942 
L 429.009377 168.366224 
L 433.394519 166.427763 
L 436.847056 164.659328 
L 438.969846 163.364626 
L 440.556962 162.174274 
L 441.643694 161.086346 
L 442.269599 160.09936 
L 442.462087 159.424078 
L 442.438245 158.804359 
L 442.217671 158.239642 
L 441.820548 157.730096 
L 441.051135 157.128951 
L 439.7717 156.484338 
L 437.898307 155.851834 
L 435.457496 155.308944 
L 432.640957 154.930644 
L 429.832665 154.768879 
L 427.523137 154.858392 
L 426.316914 155.107052 
L 426.004535 155.333958 
L 426.023011 155.506638 
L 426.30471 155.746002 
L 427.184458 156.124335 
L 429.141256 156.69962 
L 433.118016 157.617155 
L 438.899232 158.732442 
L 444.604582 159.609801 
L 450.093484 160.244715 
L 455.560214 160.645338 
L 461.241246 160.81919 
L 467.130992 160.767195 
L 472.65363 160.509903 
L 476.725287 160.123507 
L 476.875495 160.067702 
L 476.692662 160.017689 
L 474.951367 159.922436 
L 470.565059 159.882398 
L 468.781558 160.055301 
L 468.059539 160.321212 
L 467.854629 160.598393 
L 467.937089 160.855413 
L 468.296944 161.133038 
L 469.066264 161.39718 
L 470.336819 161.556988 
L 475.891036 162.022792 
L 477.562153 162.523896 
L 479.134871 163.221911 
L 480.172505 163.897806 
L 480.468558 164.306051 
L 480.404035 164.555206 
L 480.034235 164.862306 
L 477.6156 166.269366 
L 476.777594 166.429599 
L 476.622639 166.519488 
L 476.638569 166.556886 
L 476.964684 166.863625 
L 478.133179 167.66481 
L 479.51511 168.376735 
L 480.632829 168.956733 
L 480.856798 169.335732 
L 480.917793 169.88439 
L 480.771479 170.458906 
L 480.460825 170.864917 
L 479.926024 171.178105 
L 478.755008 171.77054 
L 478.63603 172.115483 
L 478.712338 172.622471 
L 479.02857 173.196911 
L 479.467588 173.532034 
L 479.807632 173.907638 
L 480.210863 174.758302 
L 480.413184 175.617367 
L 480.301594 176.055176 
L 479.980789 176.893166 
L 479.659011 178.316073 
L 479.465753 178.583676 
L 479.587691 179.010203 
L 480.151827 180.009252 
L 480.235968 180.339186 
L 480.199179 181.632019 
L 480.045766 182.216364 
L 479.701271 182.990572 
L 479.876251 183.69286 
L 480.002769 184.384523 
L 480.172228 185.044401 
L 480.261881 185.698707 
L 480.099533 186.086329 
L 479.991655 187.437578 
L 479.827729 187.645635 
L 479.888347 188.067129 
L 480.084236 189.097098 
L 480.076587 190.109598 
L 479.801784 190.701515 
L 480.072328 191.372751 
L 480.124257 191.711908 
L 480.126559 192.405147 
L 479.881914 192.805514 
L 480.151078 193.464735 
L 480.169287 193.732805 
L 480.158353 194.299964 
L 479.912966 194.56525 
L 480.203772 195.173874 
L 480.197058 195.071542 
L 480.237169 195.414987 
L 480.19738 195.794576 
L 479.96461 195.775152 
L 479.899105 195.864054 
L 479.902305 195.889949 
L 480.096676 196.344622 
L 480.266581 196.562437 
L 480.2475 196.383535 
L 480.212428 196.315642 
L 480.29813 196.835843 
L 480.206058 196.937369 
L 480.188295 196.934953 
L 479.936984 196.904684 
L 479.943042 196.980107 
L 480.161548 197.434532 
L 480.275498 197.553184 
L 480.270723 197.402125 
L 480.217921 197.246473 
L 480.278504 197.782756 
L 480.250221 197.783623 
L 479.967707 197.700551 
L 480.001881 197.847307 
L 480.285585 198.277411 
L 480.288711 198.27562 
L 480.287013 198.125864 
L 480.227289 197.919329 
L 480.303222 198.396238 
L 480.228066 198.374094 
L 479.992 198.253663 
L 480.010413 198.365867 
L 480.276586 198.786331 
L 480.303645 198.780815 
L 480.307062 198.684685 
L 480.236961 198.388344 
L 480.322795 198.820786 
L 480.205786 198.760656 
L 480.006583 198.640583 
L 480.029459 198.755734 
L 480.300608 199.136319 
L 480.304344 199.134423 
L 480.311798 198.991292 
L 480.245065 198.699671 
L 480.337775 199.098656 
L 480.206528 199.019399 
L 480.016814 198.889546 
L 480.051162 199.022695 
L 480.308141 199.354782 
L 480.321986 199.333641 
L 480.279637 199.011539 
L 480.251055 198.891855 
L 480.348706 199.266438 
L 480.212965 199.178652 
L 480.023268 199.035973 
L 480.078607 199.201427 
L 480.313805 199.479177 
L 480.331208 199.421334 
L 480.25649 198.996843 
L 480.367384 199.34042 
" style="fill:none;stroke:#d62728;stroke-linecap:square;stroke-opacity:0.7;stroke-width:1.5;"/>
   </g>
   <g id="line2d_25">
    <path clip-path="url(#pc7b6f103ca)" d="M 135.543517 381.956553 
L 135.620614 387.597774 
L 135.424624 389.013633 
L 135.180381 389.5816 
L 134.97054 389.661103 
L 134.758582 389.511272 
L 134.410419 388.918051 
L 133.889479 387.465117 
L 133.17363 384.719963 
L 132.070623 379.45223 
L 130.766318 372.143971 
L 130.053795 366.885454 
L 129.700315 362.673341 
L 129.616422 359.193655 
L 129.757936 356.1904 
L 130.098291 353.676184 
L 130.605339 351.594888 
L 131.328381 349.596444 
L 132.689162 346.069539 
L 132.938952 344.639553 
L 132.951485 343.159885 
L 132.72704 341.463031 
L 132.209688 339.32323 
L 131.136115 335.967403 
L 127.956678 326.420531 
L 127.041547 322.832604 
L 126.548018 319.980065 
L 126.390168 317.83111 
L 126.466932 316.1167 
L 126.759315 314.642125 
L 127.198427 313.55163 
L 127.797311 312.679608 
L 128.541025 312.029893 
L 129.409848 311.595749 
L 130.379289 311.359281 
L 131.551738 311.297842 
L 133.026042 311.453239 
L 134.792436 311.869525 
L 136.962645 312.552853 
L 136.619241 312.295827 
L 131.225528 308.658277 
L 128.362764 306.409418 
L 126.347103 304.566153 
L 125.104945 303.154701 
L 124.533046 302.187465 
L 124.432003 301.651397 
L 124.575231 301.313831 
L 124.940434 301.108057 
L 125.630389 301.040718 
L 126.744019 301.180164 
L 128.543537 301.644659 
L 131.372507 302.633599 
L 135.220049 304.23375 
L 139.664263 306.323817 
L 142.287683 307.755619 
L 142.831247 308.232533 
L 142.742444 308.332225 
L 142.262518 308.331042 
L 140.531073 308.022518 
L 133.060077 306.562504 
L 130.000206 306.219367 
L 127.649411 306.168874 
L 125.863394 306.352735 
L 124.761325 306.669134 
L 124.08247 307.070434 
L 123.737453 307.503555 
L 123.626769 308.013092 
L 123.75877 308.590332 
L 124.134658 309.223405 
L 124.874357 310.012764 
L 126.096519 310.948497 
L 127.686958 311.878482 
L 129.858597 312.864365 
L 132.353756 313.72889 
L 135.065509 314.418345 
L 137.859282 314.892703 
L 140.576332 315.127495 
L 143.044915 315.112024 
L 144.896294 314.890733 
L 146.327693 314.491057 
L 147.190629 314.022886 
L 147.625386 313.560233 
L 147.77253 313.065632 
L 147.674233 312.646608 
L 147.293389 312.157797 
L 146.633097 311.708705 
L 145.529519 311.266947 
L 144.103436 310.943483 
L 142.145825 310.745783 
L 139.929949 310.746175 
L 137.263066 310.985932 
L 134.569632 311.466488 
L 132.011956 312.164555 
L 129.977193 312.943584 
L 128.464147 313.72664 
L 127.266079 314.583675 
L 126.53172 315.360331 
L 126.096483 316.158965 
L 125.975661 316.828162 
L 126.08077 317.48826 
L 126.412923 318.126873 
L 126.969036 318.731608 
L 127.921008 319.396632 
L 129.162 319.980923 
L 130.931612 320.547333 
L 133.298132 321.031561 
L 135.923623 321.334811 
L 139.031124 321.45723 
L 141.441802 321.368721 
L 142.437646 321.060596 
L 143.401398 320.495823 
L 144.341135 319.690087 
L 145.590545 318.29182 
L 147.983504 315.076669 
L 150.604971 311.6633 
L 152.84913 309.103819 
L 155.609776 306.368716 
L 158.069379 304.223554 
L 160.893452 302.009591 
L 164.09969 299.743053 
L 167.699687 297.433415 
L 171.695881 295.095417 
L 176.084652 292.742041 
L 180.857785 290.383985 
L 186.001558 288.037532 
L 191.501067 285.714161 
L 199.356634 282.676951 
L 207.768928 279.738369 
L 216.690572 276.929276 
L 226.071952 274.275721 
L 235.861188 271.797959 
L 246.004952 269.506091 
L 256.448597 267.396942 
L 267.134628 265.459721 
L 280.738511 263.266333 
L 294.495569 261.303017 
L 311.016618 259.194525 
L 330.012044 256.995737 
L 360.880807 253.697326 
L 388.238042 250.713722 
L 405.797967 248.589649 
L 422.063528 246.392005 
L 435.968104 244.28398 
L 446.576791 242.470998 
L 451.203255 241.486931 
L 453.807931 240.718568 
L 454.930111 240.202566 
L 455.506053 239.700756 
L 455.617345 239.301914 
L 455.455907 238.899324 
L 454.92585 238.382839 
L 453.701214 237.617657 
L 448.062461 234.460635 
L 446.766275 233.425926 
L 445.89445 232.499854 
L 445.263309 231.524624 
L 444.957383 230.715898 
L 444.843936 229.887227 
L 444.932359 229.042686 
L 445.22761 228.185872 
L 445.730807 227.320135 
L 446.64876 226.23048 
L 447.878035 225.138466 
L 449.741086 223.833782 
L 451.991242 222.545299 
L 455.042869 221.075863 
L 458.987137 219.45879 
L 463.837764 217.743523 
L 469.48735 215.99998 
L 476.197547 214.182549 
L 483.652374 212.405051 
L 491.280546 210.587391 
L 491.644568 210.343859 
L 491.549059 210.238248 
L 491.013675 210.121444 
L 489.166888 210.017031 
L 482.309002 209.967319 
L 474.375578 209.808928 
L 469.48443 209.511976 
L 465.922244 209.085988 
L 463.606168 208.599817 
L 462.077331 208.053831 
L 461.195167 207.491251 
L 460.789307 206.956287 
L 460.689237 206.487732 
L 460.7909 205.98703 
L 461.197844 205.322739 
L 461.904287 204.624375 
L 463.121984 203.753326 
L 465.00462 202.706616 
L 467.681552 201.487266 
L 471.648351 199.949348 
L 476.990053 198.131289 
L 483.87524 196.031167 
L 495.765664 192.467819 
L 496.424112 192.034219 
L 496.420854 191.82279 
L 496.109025 191.659573 
L 495.183775 191.512711 
L 492.973036 191.453307 
L 488.100607 191.604278 
L 471.190272 192.257587 
L 467.40701 192.150708 
L 465.167548 191.875507 
L 464.10165 191.530365 
L 463.767606 191.206929 
L 463.775154 190.965554 
L 464.045231 190.640393 
L 464.744174 190.224366 
L 466.048413 189.716822 
L 468.415835 189.052401 
L 472.167039 188.260526 
L 476.998127 187.47397 
L 482.605337 186.777451 
L 488.394008 186.277066 
L 493.1349 186.087596 
L 495.770357 186.184389 
L 496.63637 186.404921 
L 496.674641 186.580272 
L 496.39968 186.794326 
L 495.340392 187.21908 
L 492.767517 187.956929 
L 487.623219 189.172148 
L 478.723948 191.026695 
L 462.64609 194.180276 
L 465.530184 193.768207 
L 481.078837 191.215382 
L 493.259747 189.067629 
L 495.270651 188.53336 
L 495.410748 188.404454 
L 495.362145 188.377699 
L 494.831133 188.353542 
L 492.945824 188.53552 
L 487.62432 189.323137 
L 476.54504 191.216767 
L 463.113747 193.666766 
L 463.561535 193.643612 
L 482.056839 192.127866 
L 489.554297 191.78514 
L 493.792692 191.792433 
L 495.312835 191.966972 
L 495.653523 192.17977 
L 495.576394 192.337839 
L 495.101713 192.627723 
L 493.635305 193.182316 
L 490.14278 194.211543 
L 482.599551 196.153781 
L 464.673317 200.715181 
L 462.639048 201.426688 
L 462.457596 201.622407 
L 462.479415 201.641256 
L 462.859748 201.706695 
L 464.201533 201.656582 
L 467.890977 201.25967 
L 475.493626 200.181895 
L 485.564998 198.530884 
L 491.53418 197.368701 
L 493.969396 196.705505 
L 494.506882 196.391233 
L 494.439998 196.302203 
L 494.000614 196.234877 
L 492.627479 196.286827 
L 489.336275 196.662899 
L 482.581048 197.695839 
L 471.515508 199.638073 
L 462.607633 201.322197 
L 463.211449 201.269847 
L 483.389652 199.146167 
L 491.636585 198.52073 
L 494.793882 198.453783 
L 495.103446 198.552329 
L 495.081602 198.595703 
L 494.72943 198.768789 
L 493.037107 199.257103 
L 487.50113 200.557025 
L 462.500302 206.269329 
L 462.349929 206.359212 
L 462.496285 206.391505 
L 463.660305 206.285767 
L 467.976855 205.63237 
L 476.881773 204.048 
L 486.011719 202.215372 
L 490.970027 201.025357 
L 493.308509 200.267675 
L 494.149248 199.814488 
L 494.283617 199.548595 
L 494.141725 199.413116 
L 493.596021 199.277794 
L 492.287843 199.225563 
L 489.542406 199.376883 
L 484.470451 199.918905 
L 476.165015 201.05252 
L 462.655309 202.919858 
L 462.71136 202.87801 
L 463.6366 202.664377 
L 467.863073 201.967418 
L 476.985151 200.700777 
L 487.719979 199.423596 
L 494.934081 198.753281 
L 495.181079 198.774168 
L 494.989009 198.857803 
L 492.95034 199.311463 
L 479.709094 201.92259 
L 462.576464 205.390818 
L 462.477525 205.425705 
L 463.059414 205.353647 
L 468.422507 204.391426 
L 479.563049 202.178841 
L 487.62271 200.380129 
L 491.63415 199.294413 
L 493.609926 198.56337 
L 494.364164 198.076967 
L 494.450988 197.831637 
L 494.311987 197.673286 
L 493.769804 197.503777 
L 492.465126 197.406591 
L 490.012032 197.478873 
L 485.759557 197.840228 
L 478.356944 198.718172 
L 462.91089 200.624419 
L 462.868786 200.594861 
L 462.970592 200.532419 
L 464.005852 200.272588 
L 467.767619 199.611347 
L 475.928153 198.428184 
L 486.397029 197.138664 
L 494.712226 196.321237 
L 495.36266 196.325015 
L 495.228272 196.391089 
L 493.531567 196.779976 
L 482.739391 198.916478 
L 462.951519 202.893625 
L 462.5718 203.003341 
L 463.28612 202.919673 
L 468.886223 201.942182 
L 480.577419 199.677338 
L 488.518695 197.948088 
L 492.331698 196.932065 
L 494.102987 196.265981 
L 494.648769 195.886616 
L 494.682774 195.67184 
L 494.428481 195.510699 
L 493.760505 195.392744 
L 492.076259 195.369084 
L 488.750697 195.593358 
L 482.978717 196.234878 
L 473.056398 197.589951 
L 463.408319 198.867221 
L 462.958988 198.850629 
L 463.101713 198.783241 
L 464.393249 198.509649 
L 469.064575 197.781545 
L 478.040433 196.619035 
L 487.928504 195.559309 
L 494.487161 195.056115 
L 495.438649 195.105308 
L 495.425122 195.136668 
L 495.095616 195.274097 
L 493.220977 195.747947 
L 485.67463 197.361359 
L 463.083453 202.146722 
L 462.57581 202.317192 
L 462.843708 202.323779 
L 465.051653 202.016389 
L 472.487849 200.73815 
L 483.831252 198.570591 
L 490.387595 197.125959 
L 493.317419 196.292932 
L 494.474954 195.782652 
L 494.712621 195.517637 
L 494.635976 195.381249 
L 494.284629 195.260449 
L 493.341006 195.187402 
L 491.169193 195.270036 
L 486.82218 195.699486 
L 479.489673 196.669803 
L 463.142107 199.032228 
L 463.142107 199.032228 
" style="fill:none;stroke:#bcbd22;stroke-linecap:square;stroke-opacity:0.7;stroke-width:1.5;"/>
   </g>
   <g id="line2d_26">
    <path clip-path="url(#pc7b6f103ca)" d="M 135.543517 381.956553 
L 135.836093 387.613597 
L 136.181525 389.722848 
L 136.683444 391.451396 
L 137.28984 392.778542 
L 137.852903 393.532633 
L 138.384381 393.883011 
L 138.858667 393.947216 
L 139.421682 393.784739 
L 140.229207 393.272462 
L 141.68449 392.04687 
L 142.459906 391.109889 
L 143.042751 390.065296 
L 143.532686 388.713259 
L 143.907442 387.017935 
L 144.189888 384.676062 
L 144.392674 380.88383 
L 144.786414 372.760294 
L 145.338565 365.340752 
L 145.173509 361.333459 
L 145.426179 359.803516 
L 145.940166 357.159749 
L 146.016013 356.617762 
L 146.09502 356.500331 
L 146.149739 356.591432 
L 146.363708 356.822555 
L 146.361264 356.67597 
L 146.40883 354.312965 
L 146.68377 352.758133 
L 147.192932 351.354172 
L 147.821519 350.225976 
L 148.717619 349.047378 
L 149.928381 347.819001 
L 151.495236 346.535767 
L 153.450817 345.19264 
L 155.819465 343.783344 
L 159.645107 341.795376 
L 164.244552 339.67524 
L 171.063756 336.833229 
L 179.014745 333.7708 
L 189.932885 329.800796 
L 206.568501 324.02454 
L 227.634338 316.957042 
L 250.503977 309.515317 
L 277.141707 301.09183 
L 312.150094 290.268126 
L 424.069436 256.058364 
L 439.252465 251.658137 
L 448.612127 249.142211 
L 455.186072 247.596865 
L 458.969464 246.926479 
L 460.867939 246.806501 
L 461.524421 246.957857 
L 461.650237 247.154153 
L 461.560523 247.414959 
L 461.085494 247.905174 
L 459.966596 248.691051 
L 457.689108 249.993528 
L 453.288436 252.210997 
L 451.916026 252.91105 
L 452.685727 252.624619 
L 457.667051 250.458469 
L 467.129305 246.103717 
L 476.656254 241.49966 
L 483.389681 238.018917 
L 486.916176 235.979857 
L 487.680953 235.346577 
L 487.586813 235.28809 
L 487.024369 235.403511 
L 485.049859 236.095509 
L 480.764598 237.598075 
L 480.527291 237.540125 
L 480.526835 237.517475 
L 480.665865 237.294979 
L 481.427497 236.617828 
L 484.375431 234.144831 
L 484.351126 234.130663 
L 484.07882 234.180307 
L 483.023934 234.650926 
L 482.611552 234.897111 
L 483.029075 234.772869 
L 483.528066 234.713356 
L 483.53058 234.724883 
L 483.437982 234.932523 
L 483.326018 235.311981 
L 483.493026 235.597361 
L 483.511294 235.65469 
L 483.500688 235.521609 
L 483.503509 235.53763 
" style="fill:none;stroke:#2ca02c;stroke-linecap:square;stroke-opacity:0.7;stroke-width:1.5;"/>
   </g>
   <g id="line2d_27">
    <path clip-path="url(#pc7b6f103ca)" d="M 135.543517 381.956553 
L 135.602541 386.900319 
L 135.388951 388.642664 
L 133.690173 396.061932 
L 132.613968 399.579349 
L 131.511956 402.493018 
L 130.158857 405.456134 
L 128.795914 407.964411 
L 127.249697 410.395028 
L 125.530887 412.71433 
L 123.655402 414.894918 
L 121.642027 416.913914 
L 119.511582 418.754021 
L 117.287226 420.401801 
L 114.994565 421.846306 
L 112.661616 423.077981 
L 110.318911 424.088892 
L 107.999053 424.872961 
L 105.735715 425.426071 
L 103.562734 425.746627 
L 101.513683 425.836265 
L 99.621284 425.700642 
L 97.916621 425.349954 
L 96.428531 424.800127 
L 95.182744 424.072494 
L 94.34502 423.34857 
L 93.699283 422.532407 
L 93.25175 421.634545 
L 93.00597 420.663433 
L 92.962586 419.627155 
L 93.119162 418.53398 
L 93.563285 417.158662 
L 94.273028 415.726622 
L 95.409243 414.004231 
L 96.837379 412.257529 
L 98.76457 410.252189 
L 101.499895 407.734593 
L 111.579588 398.765306 
L 113.721997 396.407193 
L 115.326224 394.293354 
L 116.469216 392.431413 
L 117.355394 390.559585 
L 117.981472 388.679461 
L 118.352429 386.792822 
L 118.480277 384.903435 
L 118.382699 383.019062 
L 118.024474 380.894599 
L 117.441797 378.83738 
L 116.574516 376.665988 
L 115.548674 374.713268 
L 114.431858 373.039434 
L 113.288674 371.689576 
L 112.180295 370.687101 
L 111.164798 370.041435 
L 110.384052 369.76811 
L 109.75326 369.773969 
L 109.346713 370.001396 
L 109.091151 370.427794 
L 108.99593 371.0408 
L 109.089423 371.949643 
L 109.452113 373.206703 
L 110.160434 374.853398 
L 111.391261 377.111289 
L 113.11086 379.765439 
L 115.117834 382.423197 
L 119.233885 387.382285 
L 121.543669 390.344476 
L 122.835412 392.351393 
L 123.515275 393.821363 
L 123.762762 394.831702 
L 123.752339 395.577981 
L 123.529228 396.184485 
L 123.099504 396.643965 
L 122.475451 396.951796 
L 121.674807 397.105377 
L 120.572694 397.090873 
L 119.142935 396.834729 
L 117.57533 396.33567 
L 115.756519 395.524388 
L 113.768883 394.374378 
L 111.902753 393.028361 
L 110.255567 391.567097 
L 109.126819 390.299434 
L 108.228595 388.951798 
L 107.637208 387.679955 
L 107.243257 386.337785 
L 107.02861 384.74777 
L 107.038313 383.079817 
L 107.278829 381.145833 
L 107.819244 378.730285 
L 108.992326 374.743528 
L 110.206091 370.431028 
L 110.75528 367.63541 
L 110.983852 365.313556 
L 110.97185 363.257935 
L 110.740533 361.267618 
L 110.296036 359.349586 
L 109.585183 357.32405 
L 108.595122 355.206004 
L 107.055591 352.494535 
L 102.485185 344.913347 
L 106.476412 351.320643 
L 110.898089 358.794368 
L 114.816779 365.890956 
L 116.752065 369.797259 
L 117.9228 372.6411 
L 118.584713 374.773909 
L 118.918981 376.49482 
L 118.999478 378.029675 
L 118.858432 379.208968 
L 118.52375 380.231147 
L 118.004994 381.095964 
L 117.316377 381.805649 
L 116.475866 382.363917 
L 115.356904 382.823253 
L 114.899083 382.916247 
L 114.41236 382.729285 
L 113.739833 382.070381 
L 113.099694 381.074907 
L 112.581906 379.816165 
L 112.342743 378.73115 
L 112.295345 377.535954 
L 112.501133 376.242591 
L 113.016336 374.858256 
L 113.889001 373.387994 
L 115.153712 371.848514 
L 116.838266 370.247813 
L 118.961224 368.59843 
L 121.536326 366.906461 
L 124.572599 365.174178 
L 128.07156 363.409489 
L 132.031038 361.616334 
L 138.011568 359.195591 
L 144.765578 356.755782 
L 152.253972 354.311353 
L 160.42963 351.87631 
L 169.236768 349.468394 
L 178.612292 347.107033 
L 191.028481 344.246617 
L 204.091964 341.518717 
L 217.66599 338.956296 
L 231.614573 336.586727 
L 245.802556 334.433475 
L 260.096543 332.518415 
L 274.365346 330.859155 
L 288.479681 329.466755 
L 302.312263 328.343125 
L 315.73852 327.476016 
L 328.639374 326.839989 
L 343.274941 326.338166 
L 356.839629 326.076885 
L 371.146137 326.017299 
L 386.919798 326.190714 
L 405.344043 326.65633 
L 421.629956 327.063648 
L 423.076084 326.917511 
L 423.237555 326.763216 
L 423.107293 326.601274 
L 422.330926 326.175639 
L 419.509455 324.72674 
L 418.540199 323.96692 
L 417.947552 323.215631 
L 417.677557 322.511909 
L 417.646017 321.733091 
L 417.876442 320.876798 
L 418.383782 319.942391 
L 419.175003 318.931426 
L 420.497793 317.62393 
L 422.5369 315.982253 
L 425.068176 314.237062 
L 428.482541 312.159121 
L 432.853993 309.775483 
L 438.71457 306.844906 
L 459.549721 296.678693 
L 463.070556 294.607114 
L 465.624316 292.856273 
L 467.38819 291.397154 
L 468.710065 290.005313 
L 469.501439 288.862962 
L 469.995239 287.763037 
L 470.214977 286.700209 
L 470.18875 285.668319 
L 469.947835 284.660449 
L 469.440119 283.504626 
L 468.513897 282.028886 
L 466.589064 279.509092 
L 464.760331 276.968924 
L 463.747189 275.1945 
L 463.03192 273.518972 
L 462.533705 271.771482 
L 462.279282 269.983973 
L 462.268932 268.414735 
L 462.460668 266.874869 
L 462.851757 265.395357 
L 463.432067 264.001664 
L 464.184234 262.714729 
L 465.222827 261.394443 
L 466.40706 260.248451 
L 467.846048 259.174185 
L 469.481259 258.254225 
L 471.042097 257.64165 
L 472.284661 257.372545 
L 473.282272 257.379189 
L 473.893453 257.603918 
L 474.170819 257.943317 
L 474.19561 258.313684 
L 474.012519 258.728785 
L 473.530701 259.232933 
L 472.633071 259.812829 
L 471.209732 260.444897 
L 469.177824 261.088847 
L 466.507671 261.692892 
L 463.250471 262.191535 
L 459.847652 262.490816 
L 456.523941 262.56908 
L 453.496475 262.418818 
L 451.148412 262.090856 
L 449.336492 261.621028 
L 448.320086 261.15852 
L 447.800366 260.688679 
L 447.655306 260.300415 
L 447.720341 259.882511 
L 448.056393 259.358966 
L 448.767896 258.715384 
L 450.105837 257.847802 
L 452.473743 256.624549 
L 457.066985 254.563613 
L 463.4831 251.647425 
L 466.532237 250.023289 
L 468.687021 248.640708 
L 470.209794 247.405103 
L 471.193123 246.323527 
L 471.753653 245.392273 
L 472.02346 244.50484 
L 472.029825 243.661329 
L 471.808248 242.858035 
L 471.344832 242.003592 
L 470.496874 240.928816 
L 467.190031 237.070674 
L 466.53528 235.817422 
L 466.114495 234.554565 
L 465.881036 233.176601 
L 465.840964 231.54434 
L 466.033791 229.637307 
L 466.517608 227.28961 
L 467.372107 224.336425 
L 468.670565 220.662105 
L 469.821712 217.998908 
L 470.350337 217.175778 
L 470.356786 217.181198 
L 470.33391 217.371884 
L 469.98071 218.208034 
L 469.026997 219.856555 
L 467.610846 221.844442 
L 465.921262 223.852704 
L 464.149696 225.632147 
L 461.980944 227.499198 
L 455.777545 232.594442 
L 455.346672 233.316769 
L 455.271103 233.840202 
L 455.413828 234.2637 
L 455.804182 234.703456 
L 456.591049 235.20574 
L 458.023909 235.823277 
L 465.849942 238.856665 
L 467.220352 239.725668 
L 468.174377 240.587281 
L 468.755297 241.414925 
L 469.037402 242.186601 
L 469.098316 242.973597 
L 468.928419 243.852675 
L 468.496238 244.806557 
L 467.738739 245.886908 
L 466.603212 247.096923 
L 464.971986 248.489736 
L 463.406662 249.559314 
L 463.328512 249.567591 
L 463.405128 249.441208 
L 465.365431 246.893839 
L 465.529548 246.247756 
L 465.428267 245.819106 
L 465.119279 245.495924 
L 464.493498 245.20733 
L 462.424601 244.413906 
L 462.050415 243.964128 
L 461.891119 243.426083 
L 461.91606 242.677938 
L 462.199087 241.605095 
L 462.856806 240.059207 
L 464.220569 237.503609 
L 467.086734 232.216044 
L 467.725328 230.535008 
L 468.004417 229.176291 
L 468.022793 227.9261 
L 467.795163 226.452156 
L 467.239882 223.28064 
L 467.216017 221.599351 
L 467.42388 219.699574 
L 467.906326 217.48224 
L 468.610075 215.282937 
L 469.23386 213.967699 
L 469.659797 213.492609 
L 469.890653 213.490166 
L 470.040002 213.705017 
L 470.137035 214.273759 
L 470.071829 215.38918 
L 469.724687 217.075547 
L 469.000424 219.363189 
L 467.84864 222.209088 
L 466.414071 225.177371 
L 464.622237 228.349487 
L 462.158849 232.220682 
L 458.756824 237.135527 
L 457.108627 239.557647 
L 455.869217 242.249274 
L 454.9243 243.675506 
L 453.62142 245.545826 
L 453.657185 245.555834 
L 453.91596 245.444794 
L 454.662835 244.843277 
L 455.743669 243.687197 
L 457.23323 241.740781 
L 458.737313 239.409502 
L 459.844917 237.304407 
L 460.354296 235.899097 
L 460.499664 234.860911 
L 460.394301 234.145073 
L 460.087207 233.567185 
L 459.596084 233.136484 
L 458.876024 232.832234 
L 457.943168 232.696294 
L 456.772433 232.759827 
L 455.45283 233.057444 
L 454.392079 233.505959 
L 454.238413 233.672723 
L 454.300491 233.698351 
L 454.767372 233.625859 
L 456.18171 233.150744 
L 458.652113 232.070754 
L 461.373795 230.635546 
L 463.899004 229.045898 
L 465.996593 227.468241 
L 467.740513 225.890386 
L 469.106901 224.377574 
L 470.208738 222.832541 
L 471.026051 221.281485 
L 471.521997 219.88369 
L 471.811895 218.373295 
L 471.865403 216.89948 
L 471.706339 215.335033 
L 471.257265 213.30687 
L 469.922472 207.937071 
L 469.758513 206.080963 
L 469.838318 204.614327 
L 470.077999 203.852269 
L 470.353962 203.600676 
L 470.662494 203.612625 
L 471.082127 203.896871 
L 471.618772 204.551067 
L 472.321255 205.794934 
L 473.01107 207.472293 
L 473.614446 209.522167 
L 474.021168 211.655524 
L 474.229267 213.977274 
L 474.197914 216.142101 
L 473.967014 218.036069 
L 473.528815 219.849456 
L 472.874487 221.548917 
L 472.123267 222.921814 
L 471.21014 224.176498 
L 469.980331 225.460991 
L 468.572294 226.59191 
L 466.811166 227.698576 
L 464.693971 228.749659 
L 462.0406 229.808232 
L 457.326374 231.392038 
L 454.272961 232.543814 
L 452.524544 233.420384 
L 451.545794 234.131314 
L 451.129362 234.676712 
L 451.058562 235.071857 
L 451.213276 235.437229 
L 451.663384 235.814217 
L 452.503233 236.182362 
L 453.963982 236.547452 
L 456.196875 236.855866 
L 459.237332 237.046188 
L 462.901005 237.047451 
L 466.124331 236.839098 
L 468.584665 236.468075 
L 469.982561 236.059447 
L 470.690584 235.649986 
L 470.939895 235.281933 
L 470.927411 234.934998 
L 470.66369 234.5165 
L 470.00292 233.972662 
L 468.718115 233.253625 
L 466.886319 232.449385 
L 466.886319 232.449385 
" style="fill:none;stroke:#17becf;stroke-linecap:square;stroke-opacity:0.7;stroke-width:1.5;"/>
   </g>
   <g id="line2d_28">
    <path clip-path="url(#pc7b6f103ca)" d="M 135.539297 381.827893 
L 461.128137 254.317079 
L 461.128137 254.317079 
" style="fill:none;stroke:#000000;stroke-dasharray:5.55,2.4;stroke-dashoffset:0;stroke-opacity:0.595;stroke-width:1.5;"/>
   </g>
   <g id="legend_1">
    <g id="patch_6">
     <path d="M 460.49375 132.06875 
L 545.6 132.06875 
Q 547.6 132.06875 547.6 130.06875 
L 547.6 43 
Q 547.6 41 545.6 41 
L 460.49375 41 
Q 458.49375 41 458.49375 43 
L 458.49375 130.06875 
Q 458.49375 132.06875 460.49375 132.06875 
z
" style="fill:#ffffff;opacity:0.8;stroke:#cccccc;stroke-linejoin:miter;"/>
    </g>
    <g id="line2d_29">
     <path d="M 462.49375 49.098437 
L 482.49375 49.098437 
" style="fill:none;stroke:#1f77b4;stroke-linecap:square;stroke-opacity:0.7;stroke-width:1.5;"/>
    </g>
    <g id="line2d_30"/>
    <g id="text_23">
     <!-- DSLPID -->
     <g transform="translate(490.49375 52.598437)scale(0.1 -0.1)">
      <defs>
       <path d="M 1259 4147 
L 1259 519 
L 2022 519 
Q 2988 519 3436 956 
Q 3884 1394 3884 2338 
Q 3884 3275 3436 3711 
Q 2988 4147 2022 4147 
L 1259 4147 
z
M 628 4666 
L 1925 4666 
Q 3281 4666 3915 4102 
Q 4550 3538 4550 2338 
Q 4550 1131 3912 565 
Q 3275 0 1925 0 
L 628 0 
L 628 4666 
z
" id="DejaVuSans-44" transform="scale(0.015625)"/>
       <path d="M 3425 4513 
L 3425 3897 
Q 3066 4069 2747 4153 
Q 2428 4238 2131 4238 
Q 1616 4238 1336 4038 
Q 1056 3838 1056 3469 
Q 1056 3159 1242 3001 
Q 1428 2844 1947 2747 
L 2328 2669 
Q 3034 2534 3370 2195 
Q 3706 1856 3706 1288 
Q 3706 609 3251 259 
Q 2797 -91 1919 -91 
Q 1588 -91 1214 -16 
Q 841 59 441 206 
L 441 856 
Q 825 641 1194 531 
Q 1563 422 1919 422 
Q 2459 422 2753 634 
Q 3047 847 3047 1241 
Q 3047 1584 2836 1778 
Q 2625 1972 2144 2069 
L 1759 2144 
Q 1053 2284 737 2584 
Q 422 2884 422 3419 
Q 422 4038 858 4394 
Q 1294 4750 2059 4750 
Q 2388 4750 2728 4690 
Q 3069 4631 3425 4513 
z
" id="DejaVuSans-53" transform="scale(0.015625)"/>
       <path d="M 628 4666 
L 1259 4666 
L 1259 531 
L 3531 531 
L 3531 0 
L 628 0 
L 628 4666 
z
" id="DejaVuSans-4c" transform="scale(0.015625)"/>
       <path d="M 1259 4147 
L 1259 2394 
L 2053 2394 
Q 2494 2394 2734 2622 
Q 2975 2850 2975 3272 
Q 2975 3691 2734 3919 
Q 2494 4147 2053 4147 
L 1259 4147 
z
M 628 4666 
L 2053 4666 
Q 2838 4666 3239 4311 
Q 3641 3956 3641 3272 
Q 3641 2581 3239 2228 
Q 2838 1875 2053 1875 
L 1259 1875 
L 1259 0 
L 628 0 
L 628 4666 
z
" id="DejaVuSans-50" transform="scale(0.015625)"/>
       <path d="M 628 4666 
L 1259 4666 
L 1259 0 
L 628 0 
L 628 4666 
z
" id="DejaVuSans-49" transform="scale(0.015625)"/>
      </defs>
      <use xlink:href="#DejaVuSans-44"/>
      <use x="77.001953" xlink:href="#DejaVuSans-53"/>
      <use x="140.478516" xlink:href="#DejaVuSans-4c"/>
      <use x="196.191406" xlink:href="#DejaVuSans-50"/>
      <use x="256.494141" xlink:href="#DejaVuSans-49"/>
      <use x="285.986328" xlink:href="#DejaVuSans-44"/>
     </g>
    </g>
    <g id="line2d_31">
     <path d="M 462.49375 63.776562 
L 482.49375 63.776562 
" style="fill:none;stroke:#d62728;stroke-linecap:square;stroke-opacity:0.7;stroke-width:1.5;"/>
    </g>
    <g id="line2d_32"/>
    <g id="text_24">
     <!-- ANN -->
     <g transform="translate(490.49375 67.276562)scale(0.1 -0.1)">
      <defs>
       <path d="M 2188 4044 
L 1331 1722 
L 3047 1722 
L 2188 4044 
z
M 1831 4666 
L 2547 4666 
L 4325 0 
L 3669 0 
L 3244 1197 
L 1141 1197 
L 716 0 
L 50 0 
L 1831 4666 
z
" id="DejaVuSans-41" transform="scale(0.015625)"/>
       <path d="M 628 4666 
L 1478 4666 
L 3547 763 
L 3547 4666 
L 4159 4666 
L 4159 0 
L 3309 0 
L 1241 3903 
L 1241 0 
L 628 0 
L 628 4666 
z
" id="DejaVuSans-4e" transform="scale(0.015625)"/>
      </defs>
      <use xlink:href="#DejaVuSans-41"/>
      <use x="68.408203" xlink:href="#DejaVuSans-4e"/>
      <use x="143.212891" xlink:href="#DejaVuSans-4e"/>
     </g>
    </g>
    <g id="line2d_33">
     <path d="M 462.49375 78.454687 
L 482.49375 78.454687 
" style="fill:none;stroke:#bcbd22;stroke-linecap:square;stroke-opacity:0.7;stroke-width:1.5;"/>
    </g>
    <g id="line2d_34"/>
    <g id="text_25">
     <!-- LSTM -->
     <g transform="translate(490.49375 81.954687)scale(0.1 -0.1)">
      <defs>
       <path d="M -19 4666 
L 3928 4666 
L 3928 4134 
L 2272 4134 
L 2272 0 
L 1638 0 
L 1638 4134 
L -19 4134 
L -19 4666 
z
" id="DejaVuSans-54" transform="scale(0.015625)"/>
       <path d="M 628 4666 
L 1569 4666 
L 2759 1491 
L 3956 4666 
L 4897 4666 
L 4897 0 
L 4281 0 
L 4281 4097 
L 3078 897 
L 2444 897 
L 1241 4097 
L 1241 0 
L 628 0 
L 628 4666 
z
" id="DejaVuSans-4d" transform="scale(0.015625)"/>
      </defs>
      <use xlink:href="#DejaVuSans-4c"/>
      <use x="55.712891" xlink:href="#DejaVuSans-53"/>
      <use x="119.189453" xlink:href="#DejaVuSans-54"/>
      <use x="180.273438" xlink:href="#DejaVuSans-4d"/>
     </g>
    </g>
    <g id="line2d_35">
     <path d="M 462.49375 93.132812 
L 482.49375 93.132812 
" style="fill:none;stroke:#2ca02c;stroke-linecap:square;stroke-opacity:0.7;stroke-width:1.5;"/>
    </g>
    <g id="line2d_36"/>
    <g id="text_26">
     <!-- LSTMCNN -->
     <g transform="translate(490.49375 96.632812)scale(0.1 -0.1)">
      <defs>
       <path d="M 4122 4306 
L 4122 3641 
Q 3803 3938 3442 4084 
Q 3081 4231 2675 4231 
Q 1875 4231 1450 3742 
Q 1025 3253 1025 2328 
Q 1025 1406 1450 917 
Q 1875 428 2675 428 
Q 3081 428 3442 575 
Q 3803 722 4122 1019 
L 4122 359 
Q 3791 134 3420 21 
Q 3050 -91 2638 -91 
Q 1578 -91 968 557 
Q 359 1206 359 2328 
Q 359 3453 968 4101 
Q 1578 4750 2638 4750 
Q 3056 4750 3426 4639 
Q 3797 4528 4122 4306 
z
" id="DejaVuSans-43" transform="scale(0.015625)"/>
      </defs>
      <use xlink:href="#DejaVuSans-4c"/>
      <use x="55.712891" xlink:href="#DejaVuSans-53"/>
      <use x="119.189453" xlink:href="#DejaVuSans-54"/>
      <use x="180.273438" xlink:href="#DejaVuSans-4d"/>
      <use x="266.552734" xlink:href="#DejaVuSans-43"/>
      <use x="336.376953" xlink:href="#DejaVuSans-4e"/>
      <use x="411.181641" xlink:href="#DejaVuSans-4e"/>
     </g>
    </g>
    <g id="line2d_37">
     <path d="M 462.49375 107.810937 
L 482.49375 107.810937 
" style="fill:none;stroke:#17becf;stroke-linecap:square;stroke-opacity:0.7;stroke-width:1.5;"/>
    </g>
    <g id="line2d_38"/>
    <g id="text_27">
     <!-- CLSTM -->
     <g transform="translate(490.49375 111.310937)scale(0.1 -0.1)">
      <use xlink:href="#DejaVuSans-43"/>
      <use x="69.824219" xlink:href="#DejaVuSans-4c"/>
      <use x="125.537109" xlink:href="#DejaVuSans-53"/>
      <use x="189.013672" xlink:href="#DejaVuSans-54"/>
      <use x="250.097656" xlink:href="#DejaVuSans-4d"/>
     </g>
    </g>
    <g id="line2d_39">
     <path d="M 462.49375 122.489062 
L 482.49375 122.489062 
" style="fill:none;stroke:#000000;stroke-dasharray:5.55,2.4;stroke-dashoffset:0;stroke-opacity:0.595;stroke-width:1.5;"/>
    </g>
    <g id="line2d_40"/>
    <g id="text_28">
     <!-- Referencia -->
     <g transform="translate(490.49375 125.989062)scale(0.1 -0.1)">
      <defs>
       <path d="M 2841 2188 
Q 3044 2119 3236 1894 
Q 3428 1669 3622 1275 
L 4263 0 
L 3584 0 
L 2988 1197 
Q 2756 1666 2539 1819 
Q 2322 1972 1947 1972 
L 1259 1972 
L 1259 0 
L 628 0 
L 628 4666 
L 2053 4666 
Q 2853 4666 3247 4331 
Q 3641 3997 3641 3322 
Q 3641 2881 3436 2590 
Q 3231 2300 2841 2188 
z
M 1259 4147 
L 1259 2491 
L 2053 2491 
Q 2509 2491 2742 2702 
Q 2975 2913 2975 3322 
Q 2975 3731 2742 3939 
Q 2509 4147 2053 4147 
L 1259 4147 
z
" id="DejaVuSans-52" transform="scale(0.015625)"/>
       <path d="M 3597 1894 
L 3597 1613 
L 953 1613 
Q 991 1019 1311 708 
Q 1631 397 2203 397 
Q 2534 397 2845 478 
Q 3156 559 3463 722 
L 3463 178 
Q 3153 47 2828 -22 
Q 2503 -91 2169 -91 
Q 1331 -91 842 396 
Q 353 884 353 1716 
Q 353 2575 817 3079 
Q 1281 3584 2069 3584 
Q 2775 3584 3186 3129 
Q 3597 2675 3597 1894 
z
M 3022 2063 
Q 3016 2534 2758 2815 
Q 2500 3097 2075 3097 
Q 1594 3097 1305 2825 
Q 1016 2553 972 2059 
L 3022 2063 
z
" id="DejaVuSans-65" transform="scale(0.015625)"/>
       <path d="M 2375 4863 
L 2375 4384 
L 1825 4384 
Q 1516 4384 1395 4259 
Q 1275 4134 1275 3809 
L 1275 3500 
L 2222 3500 
L 2222 3053 
L 1275 3053 
L 1275 0 
L 697 0 
L 697 3053 
L 147 3053 
L 147 3500 
L 697 3500 
L 697 3744 
Q 697 4328 969 4595 
Q 1241 4863 1831 4863 
L 2375 4863 
z
" id="DejaVuSans-66" transform="scale(0.015625)"/>
       <path d="M 2631 2963 
Q 2534 3019 2420 3045 
Q 2306 3072 2169 3072 
Q 1681 3072 1420 2755 
Q 1159 2438 1159 1844 
L 1159 0 
L 581 0 
L 581 3500 
L 1159 3500 
L 1159 2956 
Q 1341 3275 1631 3429 
Q 1922 3584 2338 3584 
Q 2397 3584 2469 3576 
Q 2541 3569 2628 3553 
L 2631 2963 
z
" id="DejaVuSans-72" transform="scale(0.015625)"/>
       <path d="M 3513 2113 
L 3513 0 
L 2938 0 
L 2938 2094 
Q 2938 2591 2744 2837 
Q 2550 3084 2163 3084 
Q 1697 3084 1428 2787 
Q 1159 2491 1159 1978 
L 1159 0 
L 581 0 
L 581 3500 
L 1159 3500 
L 1159 2956 
Q 1366 3272 1645 3428 
Q 1925 3584 2291 3584 
Q 2894 3584 3203 3211 
Q 3513 2838 3513 2113 
z
" id="DejaVuSans-6e" transform="scale(0.015625)"/>
       <path d="M 3122 3366 
L 3122 2828 
Q 2878 2963 2633 3030 
Q 2388 3097 2138 3097 
Q 1578 3097 1268 2742 
Q 959 2388 959 1747 
Q 959 1106 1268 751 
Q 1578 397 2138 397 
Q 2388 397 2633 464 
Q 2878 531 3122 666 
L 3122 134 
Q 2881 22 2623 -34 
Q 2366 -91 2075 -91 
Q 1284 -91 818 406 
Q 353 903 353 1747 
Q 353 2603 823 3093 
Q 1294 3584 2113 3584 
Q 2378 3584 2631 3529 
Q 2884 3475 3122 3366 
z
" id="DejaVuSans-63" transform="scale(0.015625)"/>
       <path d="M 603 3500 
L 1178 3500 
L 1178 0 
L 603 0 
L 603 3500 
z
M 603 4863 
L 1178 4863 
L 1178 4134 
L 603 4134 
L 603 4863 
z
" id="DejaVuSans-69" transform="scale(0.015625)"/>
       <path d="M 2194 1759 
Q 1497 1759 1228 1600 
Q 959 1441 959 1056 
Q 959 750 1161 570 
Q 1363 391 1709 391 
Q 2188 391 2477 730 
Q 2766 1069 2766 1631 
L 2766 1759 
L 2194 1759 
z
M 3341 1997 
L 3341 0 
L 2766 0 
L 2766 531 
Q 2569 213 2275 61 
Q 1981 -91 1556 -91 
Q 1019 -91 701 211 
Q 384 513 384 1019 
Q 384 1609 779 1909 
Q 1175 2209 1959 2209 
L 2766 2209 
L 2766 2266 
Q 2766 2663 2505 2880 
Q 2244 3097 1772 3097 
Q 1472 3097 1187 3025 
Q 903 2953 641 2809 
L 641 3341 
Q 956 3463 1253 3523 
Q 1550 3584 1831 3584 
Q 2591 3584 2966 3190 
Q 3341 2797 3341 1997 
z
" id="DejaVuSans-61" transform="scale(0.015625)"/>
      </defs>
      <use xlink:href="#DejaVuSans-52"/>
      <use x="64.982422" xlink:href="#DejaVuSans-65"/>
      <use x="126.505859" xlink:href="#DejaVuSans-66"/>
      <use x="161.710938" xlink:href="#DejaVuSans-65"/>
      <use x="223.234375" xlink:href="#DejaVuSans-72"/>
      <use x="262.097656" xlink:href="#DejaVuSans-65"/>
      <use x="323.621094" xlink:href="#DejaVuSans-6e"/>
      <use x="387" xlink:href="#DejaVuSans-63"/>
      <use x="441.980469" xlink:href="#DejaVuSans-69"/>
      <use x="469.763672" xlink:href="#DejaVuSans-61"/>
     </g>
    </g>
   </g>
  </g>
  <g id="text_29">
   <!-- Vista 3D -->
   <g transform="translate(254.48625 23.6775)scale(0.16 -0.16)">
    <defs>
     <path d="M 1831 0 
L 50 4666 
L 709 4666 
L 2188 738 
L 3669 4666 
L 4325 4666 
L 2547 0 
L 1831 0 
z
" id="DejaVuSans-56" transform="scale(0.015625)"/>
     <path d="M 2834 3397 
L 2834 2853 
Q 2591 2978 2328 3040 
Q 2066 3103 1784 3103 
Q 1356 3103 1142 2972 
Q 928 2841 928 2578 
Q 928 2378 1081 2264 
Q 1234 2150 1697 2047 
L 1894 2003 
Q 2506 1872 2764 1633 
Q 3022 1394 3022 966 
Q 3022 478 2636 193 
Q 2250 -91 1575 -91 
Q 1294 -91 989 -36 
Q 684 19 347 128 
L 347 722 
Q 666 556 975 473 
Q 1284 391 1588 391 
Q 1994 391 2212 530 
Q 2431 669 2431 922 
Q 2431 1156 2273 1281 
Q 2116 1406 1581 1522 
L 1381 1569 
Q 847 1681 609 1914 
Q 372 2147 372 2553 
Q 372 3047 722 3315 
Q 1072 3584 1716 3584 
Q 2034 3584 2315 3537 
Q 2597 3491 2834 3397 
z
" id="DejaVuSans-73" transform="scale(0.015625)"/>
     <path d="M 1172 4494 
L 1172 3500 
L 2356 3500 
L 2356 3053 
L 1172 3053 
L 1172 1153 
Q 1172 725 1289 603 
Q 1406 481 1766 481 
L 2356 481 
L 2356 0 
L 1766 0 
Q 1100 0 847 248 
Q 594 497 594 1153 
L 594 3053 
L 172 3053 
L 172 3500 
L 594 3500 
L 594 4494 
L 1172 4494 
z
" id="DejaVuSans-74" transform="scale(0.015625)"/>
     <path d="M 2597 2516 
Q 3050 2419 3304 2112 
Q 3559 1806 3559 1356 
Q 3559 666 3084 287 
Q 2609 -91 1734 -91 
Q 1441 -91 1130 -33 
Q 819 25 488 141 
L 488 750 
Q 750 597 1062 519 
Q 1375 441 1716 441 
Q 2309 441 2620 675 
Q 2931 909 2931 1356 
Q 2931 1769 2642 2001 
Q 2353 2234 1838 2234 
L 1294 2234 
L 1294 2753 
L 1863 2753 
Q 2328 2753 2575 2939 
Q 2822 3125 2822 3475 
Q 2822 3834 2567 4026 
Q 2313 4219 1838 4219 
Q 1578 4219 1281 4162 
Q 984 4106 628 3988 
L 628 4550 
Q 988 4650 1302 4700 
Q 1616 4750 1894 4750 
Q 2613 4750 3031 4423 
Q 3450 4097 3450 3541 
Q 3450 3153 3228 2886 
Q 3006 2619 2597 2516 
z
" id="DejaVuSans-33" transform="scale(0.015625)"/>
    </defs>
    <use xlink:href="#DejaVuSans-56"/>
    <use x="66.158203" xlink:href="#DejaVuSans-69"/>
    <use x="93.941406" xlink:href="#DejaVuSans-73"/>
    <use x="146.041016" xlink:href="#DejaVuSans-74"/>
    <use x="185.25" xlink:href="#DejaVuSans-61"/>
    <use x="246.529297" xlink:href="#DejaVuSans-20"/>
    <use x="278.316406" xlink:href="#DejaVuSans-33"/>
    <use x="341.939453" xlink:href="#DejaVuSans-44"/>
   </g>
  </g>
 </g>
 <defs>
  <clipPath id="pc7b6f103ca">
   <rect height="529.2" width="529.2" x="23.4" y="36"/>
  </clipPath>
 </defs>
</svg>
