<?xml version="1.0" encoding="utf-8" standalone="no"?>
<!DOCTYPE svg PUBLIC "-//W3C//DTD SVG 1.1//EN"
  "http://www.w3.org/Graphics/SVG/1.1/DTD/svg11.dtd">
<svg height="288pt" version="1.1" viewBox="0 0 576 288" width="576pt" xmlns="http://www.w3.org/2000/svg" xmlns:xlink="http://www.w3.org/1999/xlink">
 <metadata>
  <rdf:RDF xmlns:cc="http://creativecommons.org/ns#" xmlns:dc="http://purl.org/dc/elements/1.1/" xmlns:rdf="http://www.w3.org/1999/02/22-rdf-syntax-ns#">
   <cc:Work>
    <dc:type rdf:resource="http://purl.org/dc/dcmitype/StillImage"/>
    <dc:date>2022-02-26T04:29:19.113068</dc:date>
    <dc:format>image/svg+xml</dc:format>
    <dc:creator>
     <cc:Agent>
      <dc:title>Matplotlib v3.4.3, https://matplotlib.org/</dc:title>
     </cc:Agent>
    </dc:creator>
   </cc:Work>
  </rdf:RDF>
 </metadata>
 <defs>
  <style type="text/css">*{stroke-linecap:butt;stroke-linejoin:round;}</style>
 </defs>
 <g id="figure_1">
  <g id="patch_1">
   <path d="M 0 288 
L 576 288 
L 576 0 
L 0 0 
z
" style="fill:#ffffff;"/>
  </g>
  <g id="axes_1">
   <g id="patch_2">
    <path d="M 82.82 231.64 
L 253.755 231.64 
L 253.755 66.48 
L 82.82 66.48 
z
" style="fill:#ffffff;"/>
   </g>
   <g id="matplotlib.axis_1">
    <g id="xtick_1">
     <g id="line2d_1">
      <path clip-path="url(#p115f8a0d00)" d="M 111.660241 231.64 
L 111.660241 66.48 
" style="fill:none;stroke:#b0b0b0;stroke-linecap:square;stroke-width:0.8;"/>
     </g>
     <g id="line2d_2">
      <defs>
       <path d="M 0 0 
L 0 3.5 
" id="m33538cc199" style="stroke:#000000;stroke-width:0.8;"/>
      </defs>
      <g>
       <use style="stroke:#000000;stroke-width:0.8;" x="111.660241" xlink:href="#m33538cc199" y="231.64"/>
      </g>
     </g>
     <g id="text_1">
      <!-- 0.00 -->
      <g transform="translate(100.527428 246.238438)scale(0.1 -0.1)">
       <defs>
        <path d="M 2034 4250 
Q 1547 4250 1301 3770 
Q 1056 3291 1056 2328 
Q 1056 1369 1301 889 
Q 1547 409 2034 409 
Q 2525 409 2770 889 
Q 3016 1369 3016 2328 
Q 3016 3291 2770 3770 
Q 2525 4250 2034 4250 
z
M 2034 4750 
Q 2819 4750 3233 4129 
Q 3647 3509 3647 2328 
Q 3647 1150 3233 529 
Q 2819 -91 2034 -91 
Q 1250 -91 836 529 
Q 422 1150 422 2328 
Q 422 3509 836 4129 
Q 1250 4750 2034 4750 
z
" id="DejaVuSans-30" transform="scale(0.015625)"/>
        <path d="M 684 794 
L 1344 794 
L 1344 0 
L 684 0 
L 684 794 
z
" id="DejaVuSans-2e" transform="scale(0.015625)"/>
       </defs>
       <use xlink:href="#DejaVuSans-30"/>
       <use x="63.623047" xlink:href="#DejaVuSans-2e"/>
       <use x="95.410156" xlink:href="#DejaVuSans-30"/>
       <use x="159.033203" xlink:href="#DejaVuSans-30"/>
      </g>
     </g>
    </g>
    <g id="xtick_2">
     <g id="line2d_3">
      <path clip-path="url(#p115f8a0d00)" d="M 172.239127 231.64 
L 172.239127 66.48 
" style="fill:none;stroke:#b0b0b0;stroke-linecap:square;stroke-width:0.8;"/>
     </g>
     <g id="line2d_4">
      <g>
       <use style="stroke:#000000;stroke-width:0.8;" x="172.239127" xlink:href="#m33538cc199" y="231.64"/>
      </g>
     </g>
     <g id="text_2">
      <!-- 0.05 -->
      <g transform="translate(161.106315 246.238438)scale(0.1 -0.1)">
       <defs>
        <path d="M 691 4666 
L 3169 4666 
L 3169 4134 
L 1269 4134 
L 1269 2991 
Q 1406 3038 1543 3061 
Q 1681 3084 1819 3084 
Q 2600 3084 3056 2656 
Q 3513 2228 3513 1497 
Q 3513 744 3044 326 
Q 2575 -91 1722 -91 
Q 1428 -91 1123 -41 
Q 819 9 494 109 
L 494 744 
Q 775 591 1075 516 
Q 1375 441 1709 441 
Q 2250 441 2565 725 
Q 2881 1009 2881 1497 
Q 2881 1984 2565 2268 
Q 2250 2553 1709 2553 
Q 1456 2553 1204 2497 
Q 953 2441 691 2322 
L 691 4666 
z
" id="DejaVuSans-35" transform="scale(0.015625)"/>
       </defs>
       <use xlink:href="#DejaVuSans-30"/>
       <use x="63.623047" xlink:href="#DejaVuSans-2e"/>
       <use x="95.410156" xlink:href="#DejaVuSans-30"/>
       <use x="159.033203" xlink:href="#DejaVuSans-35"/>
      </g>
     </g>
    </g>
    <g id="xtick_3">
     <g id="line2d_5">
      <path clip-path="url(#p115f8a0d00)" d="M 232.818013 231.64 
L 232.818013 66.48 
" style="fill:none;stroke:#b0b0b0;stroke-linecap:square;stroke-width:0.8;"/>
     </g>
     <g id="line2d_6">
      <g>
       <use style="stroke:#000000;stroke-width:0.8;" x="232.818013" xlink:href="#m33538cc199" y="231.64"/>
      </g>
     </g>
     <g id="text_3">
      <!-- 0.10 -->
      <g transform="translate(221.685201 246.238438)scale(0.1 -0.1)">
       <defs>
        <path d="M 794 531 
L 1825 531 
L 1825 4091 
L 703 3866 
L 703 4441 
L 1819 4666 
L 2450 4666 
L 2450 531 
L 3481 531 
L 3481 0 
L 794 0 
L 794 531 
z
" id="DejaVuSans-31" transform="scale(0.015625)"/>
       </defs>
       <use xlink:href="#DejaVuSans-30"/>
       <use x="63.623047" xlink:href="#DejaVuSans-2e"/>
       <use x="95.410156" xlink:href="#DejaVuSans-31"/>
       <use x="159.033203" xlink:href="#DejaVuSans-30"/>
      </g>
     </g>
    </g>
    <g id="text_4">
     <!-- x (m) -->
     <g transform="translate(154.967187 259.916562)scale(0.1 -0.1)">
      <defs>
       <path d="M 3513 3500 
L 2247 1797 
L 3578 0 
L 2900 0 
L 1881 1375 
L 863 0 
L 184 0 
L 1544 1831 
L 300 3500 
L 978 3500 
L 1906 2253 
L 2834 3500 
L 3513 3500 
z
" id="DejaVuSans-78" transform="scale(0.015625)"/>
       <path id="DejaVuSans-20" transform="scale(0.015625)"/>
       <path d="M 1984 4856 
Q 1566 4138 1362 3434 
Q 1159 2731 1159 2009 
Q 1159 1288 1364 580 
Q 1569 -128 1984 -844 
L 1484 -844 
Q 1016 -109 783 600 
Q 550 1309 550 2009 
Q 550 2706 781 3412 
Q 1013 4119 1484 4856 
L 1984 4856 
z
" id="DejaVuSans-28" transform="scale(0.015625)"/>
       <path d="M 3328 2828 
Q 3544 3216 3844 3400 
Q 4144 3584 4550 3584 
Q 5097 3584 5394 3201 
Q 5691 2819 5691 2113 
L 5691 0 
L 5113 0 
L 5113 2094 
Q 5113 2597 4934 2840 
Q 4756 3084 4391 3084 
Q 3944 3084 3684 2787 
Q 3425 2491 3425 1978 
L 3425 0 
L 2847 0 
L 2847 2094 
Q 2847 2600 2669 2842 
Q 2491 3084 2119 3084 
Q 1678 3084 1418 2786 
Q 1159 2488 1159 1978 
L 1159 0 
L 581 0 
L 581 3500 
L 1159 3500 
L 1159 2956 
Q 1356 3278 1631 3431 
Q 1906 3584 2284 3584 
Q 2666 3584 2933 3390 
Q 3200 3197 3328 2828 
z
" id="DejaVuSans-6d" transform="scale(0.015625)"/>
       <path d="M 513 4856 
L 1013 4856 
Q 1481 4119 1714 3412 
Q 1947 2706 1947 2009 
Q 1947 1309 1714 600 
Q 1481 -109 1013 -844 
L 513 -844 
Q 928 -128 1133 580 
Q 1338 1288 1338 2009 
Q 1338 2731 1133 3434 
Q 928 4138 513 4856 
z
" id="DejaVuSans-29" transform="scale(0.015625)"/>
      </defs>
      <use xlink:href="#DejaVuSans-78"/>
      <use x="59.179688" xlink:href="#DejaVuSans-20"/>
      <use x="90.966797" xlink:href="#DejaVuSans-28"/>
      <use x="129.980469" xlink:href="#DejaVuSans-6d"/>
      <use x="227.392578" xlink:href="#DejaVuSans-29"/>
     </g>
    </g>
   </g>
   <g id="matplotlib.axis_2">
    <g id="ytick_1">
     <g id="line2d_7">
      <path clip-path="url(#p115f8a0d00)" d="M 82.82 214.632646 
L 253.755 214.632646 
" style="fill:none;stroke:#b0b0b0;stroke-linecap:square;stroke-width:0.8;"/>
     </g>
     <g id="line2d_8">
      <defs>
       <path d="M 0 0 
L -3.5 0 
" id="m1fcada26ca" style="stroke:#000000;stroke-width:0.8;"/>
      </defs>
      <g>
       <use style="stroke:#000000;stroke-width:0.8;" x="82.82" xlink:href="#m1fcada26ca" y="214.632646"/>
      </g>
     </g>
     <g id="text_5">
      <!-- 0.00 -->
      <g transform="translate(53.554375 218.431865)scale(0.1 -0.1)">
       <use xlink:href="#DejaVuSans-30"/>
       <use x="63.623047" xlink:href="#DejaVuSans-2e"/>
       <use x="95.410156" xlink:href="#DejaVuSans-30"/>
       <use x="159.033203" xlink:href="#DejaVuSans-30"/>
      </g>
     </g>
    </g>
    <g id="ytick_2">
     <g id="line2d_9">
      <path clip-path="url(#p115f8a0d00)" d="M 82.82 189.256184 
L 253.755 189.256184 
" style="fill:none;stroke:#b0b0b0;stroke-linecap:square;stroke-width:0.8;"/>
     </g>
     <g id="line2d_10">
      <g>
       <use style="stroke:#000000;stroke-width:0.8;" x="82.82" xlink:href="#m1fcada26ca" y="189.256184"/>
      </g>
     </g>
     <g id="text_6">
      <!-- 0.02 -->
      <g transform="translate(53.554375 193.055403)scale(0.1 -0.1)">
       <defs>
        <path d="M 1228 531 
L 3431 531 
L 3431 0 
L 469 0 
L 469 531 
Q 828 903 1448 1529 
Q 2069 2156 2228 2338 
Q 2531 2678 2651 2914 
Q 2772 3150 2772 3378 
Q 2772 3750 2511 3984 
Q 2250 4219 1831 4219 
Q 1534 4219 1204 4116 
Q 875 4013 500 3803 
L 500 4441 
Q 881 4594 1212 4672 
Q 1544 4750 1819 4750 
Q 2544 4750 2975 4387 
Q 3406 4025 3406 3419 
Q 3406 3131 3298 2873 
Q 3191 2616 2906 2266 
Q 2828 2175 2409 1742 
Q 1991 1309 1228 531 
z
" id="DejaVuSans-32" transform="scale(0.015625)"/>
       </defs>
       <use xlink:href="#DejaVuSans-30"/>
       <use x="63.623047" xlink:href="#DejaVuSans-2e"/>
       <use x="95.410156" xlink:href="#DejaVuSans-30"/>
       <use x="159.033203" xlink:href="#DejaVuSans-32"/>
      </g>
     </g>
    </g>
    <g id="ytick_3">
     <g id="line2d_11">
      <path clip-path="url(#p115f8a0d00)" d="M 82.82 163.879723 
L 253.755 163.879723 
" style="fill:none;stroke:#b0b0b0;stroke-linecap:square;stroke-width:0.8;"/>
     </g>
     <g id="line2d_12">
      <g>
       <use style="stroke:#000000;stroke-width:0.8;" x="82.82" xlink:href="#m1fcada26ca" y="163.879723"/>
      </g>
     </g>
     <g id="text_7">
      <!-- 0.04 -->
      <g transform="translate(53.554375 167.678942)scale(0.1 -0.1)">
       <defs>
        <path d="M 2419 4116 
L 825 1625 
L 2419 1625 
L 2419 4116 
z
M 2253 4666 
L 3047 4666 
L 3047 1625 
L 3713 1625 
L 3713 1100 
L 3047 1100 
L 3047 0 
L 2419 0 
L 2419 1100 
L 313 1100 
L 313 1709 
L 2253 4666 
z
" id="DejaVuSans-34" transform="scale(0.015625)"/>
       </defs>
       <use xlink:href="#DejaVuSans-30"/>
       <use x="63.623047" xlink:href="#DejaVuSans-2e"/>
       <use x="95.410156" xlink:href="#DejaVuSans-30"/>
       <use x="159.033203" xlink:href="#DejaVuSans-34"/>
      </g>
     </g>
    </g>
    <g id="ytick_4">
     <g id="line2d_13">
      <path clip-path="url(#p115f8a0d00)" d="M 82.82 138.503262 
L 253.755 138.503262 
" style="fill:none;stroke:#b0b0b0;stroke-linecap:square;stroke-width:0.8;"/>
     </g>
     <g id="line2d_14">
      <g>
       <use style="stroke:#000000;stroke-width:0.8;" x="82.82" xlink:href="#m1fcada26ca" y="138.503262"/>
      </g>
     </g>
     <g id="text_8">
      <!-- 0.06 -->
      <g transform="translate(53.554375 142.30248)scale(0.1 -0.1)">
       <defs>
        <path d="M 2113 2584 
Q 1688 2584 1439 2293 
Q 1191 2003 1191 1497 
Q 1191 994 1439 701 
Q 1688 409 2113 409 
Q 2538 409 2786 701 
Q 3034 994 3034 1497 
Q 3034 2003 2786 2293 
Q 2538 2584 2113 2584 
z
M 3366 4563 
L 3366 3988 
Q 3128 4100 2886 4159 
Q 2644 4219 2406 4219 
Q 1781 4219 1451 3797 
Q 1122 3375 1075 2522 
Q 1259 2794 1537 2939 
Q 1816 3084 2150 3084 
Q 2853 3084 3261 2657 
Q 3669 2231 3669 1497 
Q 3669 778 3244 343 
Q 2819 -91 2113 -91 
Q 1303 -91 875 529 
Q 447 1150 447 2328 
Q 447 3434 972 4092 
Q 1497 4750 2381 4750 
Q 2619 4750 2861 4703 
Q 3103 4656 3366 4563 
z
" id="DejaVuSans-36" transform="scale(0.015625)"/>
       </defs>
       <use xlink:href="#DejaVuSans-30"/>
       <use x="63.623047" xlink:href="#DejaVuSans-2e"/>
       <use x="95.410156" xlink:href="#DejaVuSans-30"/>
       <use x="159.033203" xlink:href="#DejaVuSans-36"/>
      </g>
     </g>
    </g>
    <g id="ytick_5">
     <g id="line2d_15">
      <path clip-path="url(#p115f8a0d00)" d="M 82.82 113.1268 
L 253.755 113.1268 
" style="fill:none;stroke:#b0b0b0;stroke-linecap:square;stroke-width:0.8;"/>
     </g>
     <g id="line2d_16">
      <g>
       <use style="stroke:#000000;stroke-width:0.8;" x="82.82" xlink:href="#m1fcada26ca" y="113.1268"/>
      </g>
     </g>
     <g id="text_9">
      <!-- 0.08 -->
      <g transform="translate(53.554375 116.926019)scale(0.1 -0.1)">
       <defs>
        <path d="M 2034 2216 
Q 1584 2216 1326 1975 
Q 1069 1734 1069 1313 
Q 1069 891 1326 650 
Q 1584 409 2034 409 
Q 2484 409 2743 651 
Q 3003 894 3003 1313 
Q 3003 1734 2745 1975 
Q 2488 2216 2034 2216 
z
M 1403 2484 
Q 997 2584 770 2862 
Q 544 3141 544 3541 
Q 544 4100 942 4425 
Q 1341 4750 2034 4750 
Q 2731 4750 3128 4425 
Q 3525 4100 3525 3541 
Q 3525 3141 3298 2862 
Q 3072 2584 2669 2484 
Q 3125 2378 3379 2068 
Q 3634 1759 3634 1313 
Q 3634 634 3220 271 
Q 2806 -91 2034 -91 
Q 1263 -91 848 271 
Q 434 634 434 1313 
Q 434 1759 690 2068 
Q 947 2378 1403 2484 
z
M 1172 3481 
Q 1172 3119 1398 2916 
Q 1625 2713 2034 2713 
Q 2441 2713 2670 2916 
Q 2900 3119 2900 3481 
Q 2900 3844 2670 4047 
Q 2441 4250 2034 4250 
Q 1625 4250 1398 4047 
Q 1172 3844 1172 3481 
z
" id="DejaVuSans-38" transform="scale(0.015625)"/>
       </defs>
       <use xlink:href="#DejaVuSans-30"/>
       <use x="63.623047" xlink:href="#DejaVuSans-2e"/>
       <use x="95.410156" xlink:href="#DejaVuSans-30"/>
       <use x="159.033203" xlink:href="#DejaVuSans-38"/>
      </g>
     </g>
    </g>
    <g id="ytick_6">
     <g id="line2d_17">
      <path clip-path="url(#p115f8a0d00)" d="M 82.82 87.750339 
L 253.755 87.750339 
" style="fill:none;stroke:#b0b0b0;stroke-linecap:square;stroke-width:0.8;"/>
     </g>
     <g id="line2d_18">
      <g>
       <use style="stroke:#000000;stroke-width:0.8;" x="82.82" xlink:href="#m1fcada26ca" y="87.750339"/>
      </g>
     </g>
     <g id="text_10">
      <!-- 0.10 -->
      <g transform="translate(53.554375 91.549557)scale(0.1 -0.1)">
       <use xlink:href="#DejaVuSans-30"/>
       <use x="63.623047" xlink:href="#DejaVuSans-2e"/>
       <use x="95.410156" xlink:href="#DejaVuSans-31"/>
       <use x="159.033203" xlink:href="#DejaVuSans-30"/>
      </g>
     </g>
    </g>
    <g id="text_11">
     <!-- y (m) -->
     <g transform="translate(47.474688 162.380313)rotate(-90)scale(0.1 -0.1)">
      <defs>
       <path d="M 2059 -325 
Q 1816 -950 1584 -1140 
Q 1353 -1331 966 -1331 
L 506 -1331 
L 506 -850 
L 844 -850 
Q 1081 -850 1212 -737 
Q 1344 -625 1503 -206 
L 1606 56 
L 191 3500 
L 800 3500 
L 1894 763 
L 2988 3500 
L 3597 3500 
L 2059 -325 
z
" id="DejaVuSans-79" transform="scale(0.015625)"/>
      </defs>
      <use xlink:href="#DejaVuSans-79"/>
      <use x="59.179688" xlink:href="#DejaVuSans-20"/>
      <use x="90.966797" xlink:href="#DejaVuSans-28"/>
      <use x="129.980469" xlink:href="#DejaVuSans-6d"/>
      <use x="227.392578" xlink:href="#DejaVuSans-29"/>
     </g>
    </g>
   </g>
   <g id="line2d_19">
    <path clip-path="url(#p115f8a0d00)" d="M 111.660241 214.632646 
L 117.532666 208.322827 
L 174.213407 147.648864 
L 198.728528 121.778655 
L 215.694832 104.17634 
L 225.644652 94.134995 
L 230.072631 89.936988 
L 231.08292 89.198947 
L 231.118018 89.246391 
L 231.108171 89.28877 
L 230.813238 89.780772 
L 229.766657 91.140295 
L 230.682049 90.146878 
L 238.158855 82.100306 
L 239.834056 80.435954 
L 239.385465 80.98266 
L 239.611184 80.716167 
L 237.417266 82.997004 
L 234.171202 86.351833 
L 234.171202 86.351833 
" style="fill:none;stroke:#1f77b4;stroke-linecap:square;stroke-opacity:0.7;stroke-width:1.5;"/>
   </g>
   <g id="line2d_20">
    <path clip-path="url(#p115f8a0d00)" d="M 111.660241 214.632646 
L 112.664144 214.785722 
L 114.712057 215.277263 
L 119.157262 216.41684 
L 117.72983 216.233902 
L 115.172241 216.107024 
L 114.55185 216.149815 
L 114.898098 216.218221 
L 116.371729 216.254834 
L 117.899741 216.090979 
L 118.71986 215.811768 
L 118.891111 215.566129 
L 118.75486 215.384512 
L 118.287104 215.187511 
L 117.227736 215.006733 
L 115.492907 214.953789 
L 114.818561 214.960231 
L 115.064202 214.856141 
L 116.431848 214.217243 
L 117.674183 213.449553 
L 116.595477 214.001113 
L 114.354269 215.078393 
L 114.352559 215.071903 
L 114.485833 214.95054 
L 115.277367 214.541872 
L 116.462693 214.159378 
L 117.175683 214.125918 
L 117.490319 214.309382 
L 117.557597 214.611325 
L 117.409654 215.057809 
L 116.967165 215.655307 
L 116.329924 216.160034 
L 116.014416 216.206023 
L 116.021088 216.003146 
L 116.30512 215.464841 
L 116.847575 214.885361 
L 117.282601 214.683436 
L 117.420116 214.799636 
L 117.375381 215.092324 
L 117.046627 215.620728 
L 116.405733 216.22784 
L 115.513738 216.762452 
L 114.567528 217.067173 
L 113.786251 217.098526 
L 113.254075 216.921074 
L 112.948202 216.594903 
L 112.845577 216.14778 
L 112.952308 215.704205 
L 113.379811 215.010063 
L 114.649524 213.460241 
L 117.190331 210.721538 
L 121.812233 206.088268 
L 131.460474 196.813411 
L 150.231553 178.777645 
L 160.831932 168.278304 
L 170.510385 158.382377 
L 178.9283 149.466497 
L 186.932196 140.646123 
L 193.435884 133.158779 
L 199.355991 126.011735 
L 204.607697 119.310617 
L 209.131963 113.145161 
L 212.404705 108.341093 
L 215.110918 104.014881 
L 217.256203 100.185874 
L 218.857271 96.861706 
L 219.794241 94.475487 
L 220.390784 92.430787 
L 220.670727 90.714584 
L 220.662043 89.307822 
L 220.468494 88.389246 
L 220.128118 87.63995 
L 219.659827 87.045677 
L 218.924838 86.498787 
L 218.060514 86.144482 
L 216.910877 85.935744 
L 215.50792 85.932844 
L 213.964078 86.164167 
L 212.486727 86.611861 
L 211.427315 87.144819 
L 210.835747 87.670562 
L 210.701758 88.066921 
L 210.84056 88.291294 
L 211.259892 88.459204 
L 212.075515 88.519683 
L 213.584495 88.394763 
L 215.802027 87.993273 
L 218.712649 87.235779 
L 221.89611 86.183557 
L 225.081511 84.895777 
L 227.788535 83.561686 
L 230.147866 82.152052 
L 232.064724 80.763991 
L 233.58957 79.391624 
L 234.448458 78.355484 
L 234.81013 77.603967 
L 234.774937 77.233592 
L 234.529041 77.087971 
L 234.051638 77.10237 
L 232.931354 77.403784 
L 230.107592 78.312055 
L 230.355066 78.122558 
L 231.458996 77.249909 
L 233.220065 75.826211 
L 234.299855 75.253672 
L 235.188312 75.024192 
L 235.802243 75.083707 
L 235.910925 75.239254 
L 235.905649 75.248867 
L 235.673525 75.407398 
L 234.723475 75.700548 
L 234.201731 75.715964 
L 233.900874 75.515367 
L 233.87614 75.284943 
L 234.096565 75.015707 
L 234.632951 74.735903 
L 235.818198 74.234887 
L 235.791332 74.41766 
L 235.552712 74.703511 
L 235.091143 74.880603 
L 234.861517 74.871403 
L 234.992918 74.787897 
L 235.161113 74.5815 
L 235.387361 74.179677 
L 235.60373 74.246087 
L 235.748522 74.49761 
L 235.589524 74.817122 
L 235.38437 74.678919 
L 235.388361 74.496606 
L 235.621465 74.383611 
L 235.667873 74.281033 
L 235.657413 74.254802 
L 235.593002 74.142744 
L 235.694186 74.595096 
L 235.598377 74.661455 
L 235.787373 74.651819 
L 235.81554 74.642938 
L 235.763128 74.544029 
L 235.677333 74.221446 
L 235.681799 74.218927 
L 235.800549 74.257688 
L 235.668959 74.199336 
L 235.788498 74.288536 
L 235.799081 74.424712 
L 235.753466 74.435562 
L 235.640198 74.387039 
L 235.828848 74.360648 
L 235.813644 74.326687 
L 235.67831 74.095322 
L 235.779948 74.474771 
L 235.734323 74.520447 
L 235.878517 74.531233 
L 235.983763 74.533707 
L 235.929925 74.426597 
L 235.766154 74.104657 
L 235.768739 74.382542 
L 235.765678 74.390821 
L 235.890434 74.415148 
L 236.03742 74.457 
L 235.943083 74.319972 
L 235.825689 74.096437 
L 235.805298 74.323434 
L 235.786678 74.327317 
L 236.052477 74.378297 
L 235.919788 74.192893 
L 235.864382 74.060211 
L 235.914785 74.289623 
L 235.868171 74.311462 
L 235.821725 74.322947 
L 236.057701 74.37221 
L 236.078151 74.37322 
L 235.994448 74.242793 
L 235.896098 74.039197 
L 235.892537 74.286152 
L 235.852466 74.295569 
L 236.081361 74.353095 
L 236.096169 74.354192 
L 235.998007 74.211141 
L 235.91568 74.025072 
L 235.978104 74.237456 
L 235.903332 74.264489 
L 235.874574 74.269298 
L 236.109627 74.33126 
L 235.975606 74.147293 
L 235.930731 74.012803 
L 235.991401 74.226118 
L 235.912182 74.249478 
L 235.890139 74.252043 
L 236.119634 74.316042 
L 235.985431 74.135622 
L 235.942246 74.003291 
L 236.008295 74.213621 
L 235.924055 74.239089 
L 235.901353 74.24126 
L 236.127309 74.306506 
L 235.987582 74.12039 
L 235.950347 73.996621 
L 236.01664 74.206866 
L 235.931931 74.231917 
L 235.908862 74.233898 
L 236.132753 74.300027 
L 235.99263 74.11514 
L 235.955612 73.992039 
L 236.021622 74.2025 
L 235.936635 74.227394 
L 235.913412 74.229289 
L 236.136422 74.295837 
L 235.996 74.111653 
L 235.958883 73.989007 
L 236.044667 74.073279 
" style="fill:none;stroke:#d62728;stroke-linecap:square;stroke-opacity:0.7;stroke-width:1.5;"/>
   </g>
   <g id="line2d_21">
    <path clip-path="url(#p115f8a0d00)" d="M 111.660241 214.632646 
L 108.434505 212.879017 
L 106.283588 211.430912 
L 106.069352 211.264194 
L 107.381272 212.401958 
L 111.953783 216.623664 
L 113.182987 218.006709 
L 113.411886 218.518631 
L 113.303187 218.687391 
L 112.988847 218.699132 
L 112.299759 218.479318 
L 111.049629 217.819835 
L 109.466766 216.716986 
L 108.030149 215.448014 
L 107.137458 214.382693 
L 106.81329 213.683972 
L 106.853971 213.302396 
L 107.078279 213.115858 
L 107.532399 213.044844 
L 108.35598 213.160373 
L 109.749784 213.597664 
L 111.73495 214.45743 
L 113.876304 215.624054 
L 115.176157 216.564146 
L 115.635618 217.138801 
L 115.642035 217.462306 
L 115.408014 217.660832 
L 114.828611 217.784809 
L 113.790495 217.753232 
L 112.151433 217.463176 
L 110.146187 216.872033 
L 108.338307 216.120421 
L 107.11307 215.392154 
L 106.614147 214.86579 
L 106.576505 214.565248 
L 106.768514 214.354059 
L 107.240934 214.186852 
L 108.27133 214.083744 
L 110.224446 214.141079 
L 113.611042 214.487893 
L 117.942747 215.114771 
L 117.685859 215.111105 
L 113.039949 214.950312 
L 110.665732 215.095879 
L 108.986966 215.396477 
L 107.931036 215.779739 
L 107.408184 216.168091 
L 107.257615 216.506013 
L 107.332783 216.806789 
L 107.655372 217.137462 
L 108.301981 217.464303 
L 109.326153 217.729183 
L 110.603134 217.843561 
L 112.048347 217.763254 
L 113.565546 217.453321 
L 114.905624 216.964477 
L 116.137687 216.284744 
L 117.075617 215.540555 
L 117.807336 214.691825 
L 118.241122 213.889291 
L 118.461381 213.058294 
L 118.463924 212.228445 
L 118.257211 211.431737 
L 117.857049 210.701441 
L 117.284046 210.070963 
L 116.56307 209.572252 
L 115.722744 209.232302 
L 114.657042 209.060578 
L 113.527011 209.127671 
L 112.383043 209.42405 
L 111.274595 209.925743 
L 110.128872 210.692282 
L 109.150004 211.617053 
L 108.392428 212.637791 
L 107.901406 213.688751 
L 107.717305 214.593218 
L 107.786746 215.419277 
L 108.056463 216.040366 
L 108.511137 216.534654 
L 109.132438 216.874472 
L 109.895973 217.038107 
L 110.773252 217.014173 
L 111.87475 216.758384 
L 113.179403 216.198373 
L 114.479574 215.384762 
L 115.695552 214.364852 
L 116.632048 213.323287 
L 117.407126 212.141642 
L 118.503096 209.958106 
L 120.54799 205.942323 
L 122.849732 201.911096 
L 126.069513 196.690727 
L 130.80168 189.480003 
L 135.943118 182.066758 
L 141.108438 174.978938 
L 146.836821 167.489774 
L 153.060365 159.75428 
L 158.725842 153.045654 
L 164.625272 146.368941 
L 170.677086 139.820782 
L 177.808254 132.463691 
L 184.867865 125.528672 
L 191.698443 119.120984 
L 199.04222 112.555196 
L 205.741519 106.885302 
L 211.695149 102.150811 
L 216.840689 98.336848 
L 221.624474 95.075283 
L 225.344112 92.793219 
L 228.269343 91.257098 
L 229.893549 90.627059 
L 230.626849 90.542074 
L 230.797404 90.703006 
L 230.692127 91.003581 
L 230.204971 91.537884 
L 229.202425 92.259478 
L 228.102414 92.794432 
L 227.107376 93.066242 
L 226.216202 93.0815 
L 225.605088 92.861534 
L 225.252193 92.497008 
L 225.082547 91.974674 
L 225.108992 91.303232 
L 225.392916 90.347975 
L 226.044559 89.060745 
L 227.165951 87.418177 
L 228.828886 85.43778 
L 230.836025 83.397621 
L 233.307092 81.217397 
L 235.892213 79.249841 
L 238.188634 77.770133 
L 240.089147 76.779124 
L 241.722998 76.176491 
L 242.746922 76.00367 
L 243.422699 76.068935 
L 243.899251 76.328974 
L 244.142942 76.688152 
L 244.256307 77.278307 
L 244.154564 78.164574 
L 243.755723 79.398957 
L 242.994693 81.00463 
L 241.713215 83.160259 
L 239.886734 85.776621 
L 237.669908 88.560361 
L 235.694778 90.720587 
L 234.44539 91.819512 
L 233.905104 92.062429 
L 233.786554 91.941321 
L 233.85117 91.553417 
L 234.30788 90.575421 
L 235.46701 88.68201 
L 237.571019 85.699133 
L 240.429909 82.04025 
L 243.78069 78.113016 
L 245.982355 75.615391 
L 245.395108 76.144053 
L 237.880892 83.318319 
L 235.427078 85.325528 
L 233.938127 86.302655 
L 233.042152 86.664085 
L 232.603807 86.633174 
L 232.457469 86.425342 
L 232.495101 85.994234 
L 232.812526 85.277392 
L 233.594222 84.101461 
L 235.012472 82.393189 
L 237.148856 80.193658 
L 239.722988 77.881607 
L 242.219699 75.943885 
L 243.998811 74.817056 
L 245.018203 74.403362 
L 245.375795 74.433431 
L 245.49078 74.647446 
L 245.406681 75.112371 
L 244.978485 76.02778 
L 243.923814 77.722567 
L 241.739156 80.75899 
L 238.116842 85.379731 
L 233.999043 90.293263 
L 233.886462 90.395105 
L 234.296154 89.834507 
L 243.989107 77.234129 
L 244.851446 75.697277 
L 245.00228 75.034822 
L 244.879343 74.877049 
L 244.607986 74.900574 
L 244.036177 75.20365 
L 242.91227 76.076868 
L 240.762634 78.073127 
L 236.77267 82.13398 
L 232.860789 86.036997 
L 232.161381 86.487385 
L 232.17034 86.358352 
L 232.530734 85.801583 
L 233.824018 84.280654 
L 236.44696 81.556923 
L 239.934952 78.244746 
L 243.191011 75.440914 
L 244.666758 74.404071 
L 244.923385 74.398114 
L 244.886212 74.616643 
L 244.482102 75.36151 
L 242.973893 77.569972 
L 238.452265 83.695116 
L 233.84453 90.047498 
L 233.800184 90.171582 
L 233.938515 90.076073 
L 234.977348 88.934383 
L 238.075667 85.166055 
L 241.597626 80.559601 
L 243.604736 77.596523 
L 244.443387 76.015503 
L 244.668848 75.16744 
L 244.566005 74.865558 
L 244.318564 74.804972 
L 243.860313 74.961937 
L 243.034227 75.501479 
L 241.597866 76.727151 
L 239.301606 78.996408 
L 235.460508 83.146829 
L 232.11871 86.682065 
L 232.10765 86.666213 
L 232.152287 86.58115 
L 232.837739 85.743036 
L 235.336677 83.077083 
L 239.50916 78.954323 
L 243.395171 75.403217 
L 244.701201 74.421443 
L 244.77391 74.449524 
L 244.771152 74.495837 
L 244.544601 74.947805 
L 243.281268 76.789667 
L 233.799438 90.095174 
L 233.845442 90.084663 
L 234.262978 89.71082 
L 235.91038 87.859368 
L 239.225746 83.774747 
L 242.221089 79.754191 
L 243.828917 77.262463 
L 244.490496 75.897122 
L 244.639041 75.174415 
L 244.511233 74.888476 
L 244.244404 74.841499 
L 243.766275 75.013737 
L 242.919578 75.571017 
L 241.465665 76.815363 
L 239.165397 79.098094 
L 235.496736 83.087855 
L 232.165452 86.675653 
L 232.175894 86.633733 
L 232.67565 86.01119 
L 234.959977 83.5637 
L 239.049725 79.503317 
L 243.103692 75.767935 
L 244.741455 74.484053 
L 244.84838 74.496063 
L 244.847415 74.540092 
L 244.627673 74.981849 
L 243.371239 76.806896 
L 233.86017 90.10524 
L 233.905331 90.095741 
L 234.320599 89.7256 
L 235.965717 87.881797 
L 239.282623 83.809136 
L 242.284923 79.797925 
L 243.899704 77.309964 
L 244.566237 75.945163 
L 244.718124 75.221456 
L 244.591967 74.933928 
L 244.325743 74.885055 
L 243.847498 75.054417 
L 242.999582 75.606928 
L 241.542551 76.843038 
L 239.23644 79.111423 
L 235.423875 83.219525 
L 232.212389 86.608632 
L 232.251486 86.514639 
L 232.929859 85.694715 
L 235.419025 83.064509 
L 239.426198 79.143085 
L 243.275922 75.65994 
L 244.802322 74.503933 
L 244.909777 74.522274 
L 244.908821 74.568243 
L 244.688107 75.017661 
L 243.526012 76.713354 
L 238.508264 83.483452 
L 234.146555 89.538949 
L 233.865318 90.09853 
L 233.933606 90.070701 
L 234.455453 89.568508 
L 236.462948 87.264372 
L 240.050111 82.803958 
L 242.819551 79.043972 
L 244.190191 76.860731 
L 244.731067 75.637604 
L 244.774279 75.049849 
L 244.609546 74.883001 
L 244.302093 74.898033 
L 243.691578 75.191514 
L 242.651818 75.957875 
L 240.810051 77.627048 
L 237.957187 80.539594 
L 232.203073 86.557154 
L 232.257587 86.433342 
L 232.972794 85.552756 
L 235.365267 83.011063 
L 239.205494 79.256031 
L 243.003927 75.834415 
L 244.725622 74.516116 
L 244.917744 74.503418 
L 244.920904 74.524173 
L 244.818189 74.807408 
L 244.09686 75.939795 
L 241.411048 79.637234 
L 233.992503 89.804853 
L 233.858456 90.109936 
L 233.977123 90.040954 
L 234.808471 89.17072 
L 237.483517 85.994035 
L 241.168837 81.288145 
L 243.443877 78.060275 
L 244.475621 76.254784 
L 244.785087 75.333392 
L 244.713709 74.943428 
L 244.485043 74.863328 
L 244.045466 74.99743 
L 243.238499 75.508672 
L 241.819059 76.70053 
L 239.530333 78.933974 
L 235.669205 83.051686 
L 232.314345 86.559798 
L 232.314345 86.559798 
" style="fill:none;stroke:#bcbd22;stroke-linecap:square;stroke-opacity:0.7;stroke-width:1.5;"/>
   </g>
   <g id="line2d_22">
    <path clip-path="url(#p115f8a0d00)" d="M 111.660241 214.632646 
L 118.530169 219.153044 
L 120.259668 220.135781 
L 120.608474 220.151863 
L 120.639133 219.963856 
L 120.428584 219.412141 
L 119.090169 216.409965 
L 118.933134 215.986615 
L 118.778948 215.453345 
L 118.847947 215.026033 
L 119.026509 215.090482 
L 119.160006 215.058141 
L 119.493667 214.803938 
L 121.285949 213.267237 
L 123.951008 210.638461 
L 127.395689 206.926014 
L 131.781459 201.889285 
L 137.688329 194.750716 
L 145.251351 185.23342 
L 155.338151 172.150539 
L 166.926103 156.754288 
L 188.862821 127.128497 
L 203.308813 107.796752 
L 210.312271 98.753044 
L 215.710769 92.139286 
L 219.352815 87.998382 
L 222.05402 85.209845 
L 224.319306 83.173344 
L 225.932417 81.993412 
L 227.262725 81.29738 
L 228.171872 81.055708 
L 228.915557 81.091529 
L 229.50962 81.374525 
L 229.970482 81.873151 
L 230.371361 82.710733 
L 230.666197 83.947063 
L 230.841375 85.812569 
L 230.858822 88.72427 
L 230.86713 93.56619 
L 231.095998 94.917402 
L 231.395025 95.507945 
L 231.753701 95.74069 
L 232.131652 95.730124 
L 232.649484 95.481294 
L 233.422561 94.81364 
L 234.496426 93.536436 
L 235.879385 91.524911 
L 237.731023 88.422429 
L 240.280891 83.674824 
L 242.995372 78.662722 
L 243.273758 78.469348 
L 243.28429 78.477956 
L 243.341964 78.695177 
L 243.269509 79.579046 
L 242.738417 82.505537 
L 242.328832 84.81571 
L 242.514022 84.224527 
L 243.028424 81.869784 
L 243.012044 81.890842 
L 242.774679 82.648447 
L 242.638769 83.123038 
L 242.828327 82.437758 
L 242.861988 82.501278 
" style="fill:none;stroke:#2ca02c;stroke-linecap:square;stroke-opacity:0.7;stroke-width:1.5;"/>
   </g>
   <g id="line2d_23">
    <path clip-path="url(#p115f8a0d00)" d="M 111.660241 214.632646 
L 108.951507 215.704362 
L 99.975364 219.090445 
L 95.858643 220.941557 
L 92.57896 222.653531 
L 90.841529 223.778703 
L 90.602084 224.106713 
L 90.613817 224.11578 
L 90.842128 224.118998 
L 91.777503 223.83979 
L 94.454143 222.74989 
L 103.809358 218.76065 
L 103.804185 218.810786 
L 103.550619 219.067853 
L 102.615662 219.661446 
L 101.453066 220.148819 
L 100.472655 220.324656 
L 99.726724 220.242813 
L 99.130399 219.953445 
L 98.693576 219.500969 
L 98.360447 218.813131 
L 98.181402 217.86743 
L 98.197399 216.669353 
L 98.457908 215.163507 
L 98.992939 213.435782 
L 99.926841 211.232785 
L 100.530882 209.665954 
L 100.407499 209.626409 
L 100.01703 209.897467 
L 98.970483 210.945305 
L 96.910859 213.34607 
L 94.643312 215.975582 
L 94.607039 215.861433 
L 94.811676 215.267674 
L 95.517693 213.291214 
L 95.474318 212.944688 
L 95.465774 212.943576 
L 95.309579 213.042535 
L 94.940436 213.586821 
L 94.323821 214.918801 
L 93.840796 216.441089 
L 93.763405 217.317644 
L 93.91872 217.568313 
L 94.144771 217.502304 
L 94.542966 217.096526 
L 95.227562 216.048689 
L 96.288438 213.992119 
L 97.274193 211.636645 
L 97.670714 210.205182 
L 97.686145 209.449722 
L 97.49872 209.107051 
L 97.211945 209.021864 
L 96.779348 209.148366 
L 96.152464 209.591737 
L 95.404662 210.397313 
L 94.89211 211.216009 
L 94.918748 211.433929 
L 95.151895 211.40047 
L 95.946835 210.970595 
L 98.002913 209.540408 
L 101.794871 206.59591 
L 107.132099 202.155116 
L 114.708516 195.558276 
L 124.687824 186.557068 
L 138.034488 174.186505 
L 152.228309 160.729521 
L 166.392519 147.008338 
L 178.691747 134.797282 
L 188.752027 124.503465 
L 196.557462 116.206494 
L 202.333772 109.773544 
L 206.871571 104.411055 
L 210.200402 100.138924 
L 212.2218 97.227315 
L 213.466705 95.089065 
L 214.060154 93.640348 
L 214.152386 92.858426 
L 213.98854 92.488422 
L 213.661988 92.342721 
L 213.151455 92.389498 
L 212.343364 92.713651 
L 211.435742 93.316918 
L 211.184744 93.670959 
L 211.328116 93.692134 
L 211.966978 93.476357 
L 213.688622 92.61917 
L 218.472302 89.918199 
L 224.483089 86.593258 
L 228.219471 84.778995 
L 230.910659 83.719161 
L 232.847096 83.194068 
L 234.162934 83.039273 
L 235.260967 83.129662 
L 236.044187 83.406791 
L 236.668967 83.858203 
L 237.147332 84.467966 
L 237.534966 85.333195 
L 237.800257 86.479797 
L 237.935169 88.051704 
L 237.897601 90.45628 
L 237.758469 95.341249 
L 237.960767 96.003667 
L 238.244336 96.260605 
L 238.58585 96.265093 
L 239.049488 96.036913 
L 239.747768 95.429749 
L 240.713109 94.273341 
L 241.605473 92.868351 
L 242.095473 91.713592 
L 242.163846 91.036437 
L 242.003563 90.681504 
L 241.6972 90.495296 
L 241.171498 90.444555 
L 240.384466 90.593718 
L 239.209923 91.053139 
L 237.62503 91.933308 
L 235.703648 93.273484 
L 233.433176 95.141396 
L 230.427926 97.924312 
L 230.314237 98.067033 
L 230.652426 97.84715 
L 233.582222 95.547825 
L 240.239543 90.333382 
L 240.368727 90.463235 
L 240.366099 90.881639 
L 240.077266 92.06951 
L 238.998402 95.381224 
L 238.997134 95.380181 
L 239.025759 95.19536 
L 239.434542 93.911045 
L 239.918613 93.020808 
L 240.073888 92.900788 
L 239.025325 93.921629 
L 237.831027 94.572438 
L 236.438226 95.075281 
L 235.142325 95.319752 
L 234.079332 95.310454 
L 233.287986 95.099338 
L 232.703653 94.726305 
L 232.284645 94.186399 
L 232.046619 93.497204 
L 232.000544 92.614474 
L 232.192645 91.558008 
L 232.651887 90.379796 
L 233.375118 89.173056 
L 234.251066 88.135668 
L 235.162071 87.374204 
L 235.980061 86.961148 
L 236.541552 86.907505 
L 236.879408 87.080438 
L 237.079241 87.429244 
L 237.148753 88.05409 
L 237.008959 89.011028 
L 236.588495 90.285522 
L 236.097962 91.149272 
L 235.84543 91.262449 
L 235.709896 91.074115 
L 235.592124 90.40339 
L 235.254351 87.869749 
L 235.2478 87.871243 
L 235.138266 88.025115 
L 234.94964 88.783046 
L 234.792692 90.338501 
L 234.877379 91.357601 
L 235.038041 91.481377 
L 235.24267 91.281305 
L 236.677269 89.435842 
L 236.991906 89.463072 
L 237.312923 89.736162 
L 237.675295 90.385759 
L 238.133293 91.735194 
L 238.915845 94.032163 
L 239.288952 94.459531 
L 239.636099 94.534589 
L 240.042814 94.382643 
L 240.362716 94.051404 
L 240.353472 93.821338 
L 240.098064 93.684535 
L 239.254414 93.575743 
L 237.045879 93.294687 
L 235.658196 92.882257 
L 234.464735 92.301799 
L 233.328466 91.502611 
L 232.266947 90.484653 
L 231.237692 89.180364 
L 230.194937 87.818244 
L 230.173491 87.840924 
L 230.145758 88.109496 
L 230.355694 89.952598 
L 230.709184 92.5782 
L 230.915964 92.771391 
L 231.074635 92.645155 
L 231.254394 92.174589 
L 231.388029 91.176267 
L 231.388902 89.348539 
L 231.17413 86.648729 
L 230.900519 85.454135 
L 230.651224 85.17575 
L 230.475985 85.25526 
L 230.268484 85.631224 
L 230.060611 86.519617 
L 229.966978 87.978603 
L 230.086394 89.709301 
L 230.424794 91.360802 
L 230.901785 92.657523 
L 231.487015 93.64614 
L 232.134249 94.327377 
L 232.87189 94.771262 
L 233.679812 94.975591 
L 234.532618 94.954181 
L 235.477779 94.704406 
L 236.542614 94.175201 
L 237.567428 93.417753 
L 238.556065 92.409754 
L 239.335752 91.299185 
L 239.669207 90.47994 
L 239.613225 90.30424 
L 239.578986 90.30642 
L 239.354866 90.481896 
L 238.983388 91.072519 
L 238.856715 91.625934 
L 238.989086 91.768894 
L 239.264464 91.708938 
L 239.797132 91.347068 
L 240.398354 90.680259 
L 240.670374 90.070991 
L 240.630682 89.641261 
L 240.369996 89.320399 
L 239.87298 89.072975 
L 239.067459 88.923852 
L 237.924525 88.941776 
L 236.466284 89.197766 
L 234.8883 89.697107 
L 233.128288 90.496493 
L 231.412749 91.529773 
L 230.059103 92.588351 
L 229.458187 93.28628 
L 229.479642 93.432044 
L 229.508766 93.439916 
L 229.841703 93.3619 
L 230.802922 92.850324 
L 232.613586 91.61713 
L 234.652362 89.978549 
L 236.118247 88.545467 
L 236.971283 87.432745 
L 237.317529 86.662454 
L 237.339072 86.131567 
L 237.141105 85.754118 
L 236.705443 85.456002 
L 235.959225 85.255743 
L 234.919362 85.212393 
L 234.486187 85.245524 
L 234.486187 85.245524 
" style="fill:none;stroke:#17becf;stroke-linecap:square;stroke-opacity:0.7;stroke-width:1.5;"/>
   </g>
   <g id="line2d_24">
    <path clip-path="url(#p115f8a0d00)" d="M 111.660241 214.632646 
L 232.818013 87.750339 
L 232.818013 87.750339 
" style="fill:none;stroke:#000000;stroke-dasharray:5.55,2.4;stroke-dashoffset:0;stroke-opacity:0.595;stroke-width:1.5;"/>
   </g>
   <g id="patch_3">
    <path d="M 82.82 231.64 
L 82.82 66.48 
" style="fill:none;stroke:#000000;stroke-linecap:square;stroke-linejoin:miter;stroke-width:0.8;"/>
   </g>
   <g id="patch_4">
    <path d="M 253.755 231.64 
L 253.755 66.48 
" style="fill:none;stroke:#000000;stroke-linecap:square;stroke-linejoin:miter;stroke-width:0.8;"/>
   </g>
   <g id="patch_5">
    <path d="M 82.82 231.64 
L 253.755 231.64 
" style="fill:none;stroke:#000000;stroke-linecap:square;stroke-linejoin:miter;stroke-width:0.8;"/>
   </g>
   <g id="patch_6">
    <path d="M 82.82 66.48 
L 253.755 66.48 
" style="fill:none;stroke:#000000;stroke-linecap:square;stroke-linejoin:miter;stroke-width:0.8;"/>
   </g>
   <g id="text_12">
    <!-- Plano xy -->
    <g transform="translate(142.842812 60.48)scale(0.12 -0.12)">
     <defs>
      <path d="M 1259 4147 
L 1259 2394 
L 2053 2394 
Q 2494 2394 2734 2622 
Q 2975 2850 2975 3272 
Q 2975 3691 2734 3919 
Q 2494 4147 2053 4147 
L 1259 4147 
z
M 628 4666 
L 2053 4666 
Q 2838 4666 3239 4311 
Q 3641 3956 3641 3272 
Q 3641 2581 3239 2228 
Q 2838 1875 2053 1875 
L 1259 1875 
L 1259 0 
L 628 0 
L 628 4666 
z
" id="DejaVuSans-50" transform="scale(0.015625)"/>
      <path d="M 603 4863 
L 1178 4863 
L 1178 0 
L 603 0 
L 603 4863 
z
" id="DejaVuSans-6c" transform="scale(0.015625)"/>
      <path d="M 2194 1759 
Q 1497 1759 1228 1600 
Q 959 1441 959 1056 
Q 959 750 1161 570 
Q 1363 391 1709 391 
Q 2188 391 2477 730 
Q 2766 1069 2766 1631 
L 2766 1759 
L 2194 1759 
z
M 3341 1997 
L 3341 0 
L 2766 0 
L 2766 531 
Q 2569 213 2275 61 
Q 1981 -91 1556 -91 
Q 1019 -91 701 211 
Q 384 513 384 1019 
Q 384 1609 779 1909 
Q 1175 2209 1959 2209 
L 2766 2209 
L 2766 2266 
Q 2766 2663 2505 2880 
Q 2244 3097 1772 3097 
Q 1472 3097 1187 3025 
Q 903 2953 641 2809 
L 641 3341 
Q 956 3463 1253 3523 
Q 1550 3584 1831 3584 
Q 2591 3584 2966 3190 
Q 3341 2797 3341 1997 
z
" id="DejaVuSans-61" transform="scale(0.015625)"/>
      <path d="M 3513 2113 
L 3513 0 
L 2938 0 
L 2938 2094 
Q 2938 2591 2744 2837 
Q 2550 3084 2163 3084 
Q 1697 3084 1428 2787 
Q 1159 2491 1159 1978 
L 1159 0 
L 581 0 
L 581 3500 
L 1159 3500 
L 1159 2956 
Q 1366 3272 1645 3428 
Q 1925 3584 2291 3584 
Q 2894 3584 3203 3211 
Q 3513 2838 3513 2113 
z
" id="DejaVuSans-6e" transform="scale(0.015625)"/>
      <path d="M 1959 3097 
Q 1497 3097 1228 2736 
Q 959 2375 959 1747 
Q 959 1119 1226 758 
Q 1494 397 1959 397 
Q 2419 397 2687 759 
Q 2956 1122 2956 1747 
Q 2956 2369 2687 2733 
Q 2419 3097 1959 3097 
z
M 1959 3584 
Q 2709 3584 3137 3096 
Q 3566 2609 3566 1747 
Q 3566 888 3137 398 
Q 2709 -91 1959 -91 
Q 1206 -91 779 398 
Q 353 888 353 1747 
Q 353 2609 779 3096 
Q 1206 3584 1959 3584 
z
" id="DejaVuSans-6f" transform="scale(0.015625)"/>
     </defs>
     <use xlink:href="#DejaVuSans-50"/>
     <use x="60.302734" xlink:href="#DejaVuSans-6c"/>
     <use x="88.085938" xlink:href="#DejaVuSans-61"/>
     <use x="149.365234" xlink:href="#DejaVuSans-6e"/>
     <use x="212.744141" xlink:href="#DejaVuSans-6f"/>
     <use x="273.925781" xlink:href="#DejaVuSans-20"/>
     <use x="305.712891" xlink:href="#DejaVuSans-78"/>
     <use x="364.892578" xlink:href="#DejaVuSans-79"/>
    </g>
   </g>
  </g>
  <g id="axes_2">
   <g id="patch_7">
    <path d="M 307.865 231.64 
L 478.8 231.64 
L 478.8 66.48 
L 307.865 66.48 
z
" style="fill:#ffffff;"/>
   </g>
   <g id="matplotlib.axis_3">
    <g id="xtick_4">
     <g id="line2d_25">
      <path clip-path="url(#p29d8f40317)" d="M 315.634773 231.64 
L 315.634773 66.48 
" style="fill:none;stroke:#b0b0b0;stroke-linecap:square;stroke-width:0.8;"/>
     </g>
     <g id="line2d_26">
      <g>
       <use style="stroke:#000000;stroke-width:0.8;" x="315.634773" xlink:href="#m33538cc199" y="231.64"/>
      </g>
     </g>
     <g id="text_13">
      <!-- 0 -->
      <g transform="translate(312.453523 246.238438)scale(0.1 -0.1)">
       <use xlink:href="#DejaVuSans-30"/>
      </g>
     </g>
    </g>
    <g id="xtick_5">
     <g id="line2d_27">
      <path clip-path="url(#p29d8f40317)" d="M 354.491732 231.64 
L 354.491732 66.48 
" style="fill:none;stroke:#b0b0b0;stroke-linecap:square;stroke-width:0.8;"/>
     </g>
     <g id="line2d_28">
      <g>
       <use style="stroke:#000000;stroke-width:0.8;" x="354.491732" xlink:href="#m33538cc199" y="231.64"/>
      </g>
     </g>
     <g id="text_14">
      <!-- 5 -->
      <g transform="translate(351.310482 246.238438)scale(0.1 -0.1)">
       <use xlink:href="#DejaVuSans-35"/>
      </g>
     </g>
    </g>
    <g id="xtick_6">
     <g id="line2d_29">
      <path clip-path="url(#p29d8f40317)" d="M 393.34869 231.64 
L 393.34869 66.48 
" style="fill:none;stroke:#b0b0b0;stroke-linecap:square;stroke-width:0.8;"/>
     </g>
     <g id="line2d_30">
      <g>
       <use style="stroke:#000000;stroke-width:0.8;" x="393.34869" xlink:href="#m33538cc199" y="231.64"/>
      </g>
     </g>
     <g id="text_15">
      <!-- 10 -->
      <g transform="translate(386.98619 246.238438)scale(0.1 -0.1)">
       <use xlink:href="#DejaVuSans-31"/>
       <use x="63.623047" xlink:href="#DejaVuSans-30"/>
      </g>
     </g>
    </g>
    <g id="xtick_7">
     <g id="line2d_31">
      <path clip-path="url(#p29d8f40317)" d="M 432.205649 231.64 
L 432.205649 66.48 
" style="fill:none;stroke:#b0b0b0;stroke-linecap:square;stroke-width:0.8;"/>
     </g>
     <g id="line2d_32">
      <g>
       <use style="stroke:#000000;stroke-width:0.8;" x="432.205649" xlink:href="#m33538cc199" y="231.64"/>
      </g>
     </g>
     <g id="text_16">
      <!-- 15 -->
      <g transform="translate(425.843149 246.238438)scale(0.1 -0.1)">
       <use xlink:href="#DejaVuSans-31"/>
       <use x="63.623047" xlink:href="#DejaVuSans-35"/>
      </g>
     </g>
    </g>
    <g id="xtick_8">
     <g id="line2d_33">
      <path clip-path="url(#p29d8f40317)" d="M 471.062608 231.64 
L 471.062608 66.48 
" style="fill:none;stroke:#b0b0b0;stroke-linecap:square;stroke-width:0.8;"/>
     </g>
     <g id="line2d_34">
      <g>
       <use style="stroke:#000000;stroke-width:0.8;" x="471.062608" xlink:href="#m33538cc199" y="231.64"/>
      </g>
     </g>
     <g id="text_17">
      <!-- 20 -->
      <g transform="translate(464.700108 246.238438)scale(0.1 -0.1)">
       <use xlink:href="#DejaVuSans-32"/>
       <use x="63.623047" xlink:href="#DejaVuSans-30"/>
      </g>
     </g>
    </g>
    <g id="text_18">
     <!-- Tiempo (s) -->
     <g transform="translate(366.77 259.916562)scale(0.1 -0.1)">
      <defs>
       <path d="M -19 4666 
L 3928 4666 
L 3928 4134 
L 2272 4134 
L 2272 0 
L 1638 0 
L 1638 4134 
L -19 4134 
L -19 4666 
z
" id="DejaVuSans-54" transform="scale(0.015625)"/>
       <path d="M 603 3500 
L 1178 3500 
L 1178 0 
L 603 0 
L 603 3500 
z
M 603 4863 
L 1178 4863 
L 1178 4134 
L 603 4134 
L 603 4863 
z
" id="DejaVuSans-69" transform="scale(0.015625)"/>
       <path d="M 3597 1894 
L 3597 1613 
L 953 1613 
Q 991 1019 1311 708 
Q 1631 397 2203 397 
Q 2534 397 2845 478 
Q 3156 559 3463 722 
L 3463 178 
Q 3153 47 2828 -22 
Q 2503 -91 2169 -91 
Q 1331 -91 842 396 
Q 353 884 353 1716 
Q 353 2575 817 3079 
Q 1281 3584 2069 3584 
Q 2775 3584 3186 3129 
Q 3597 2675 3597 1894 
z
M 3022 2063 
Q 3016 2534 2758 2815 
Q 2500 3097 2075 3097 
Q 1594 3097 1305 2825 
Q 1016 2553 972 2059 
L 3022 2063 
z
" id="DejaVuSans-65" transform="scale(0.015625)"/>
       <path d="M 1159 525 
L 1159 -1331 
L 581 -1331 
L 581 3500 
L 1159 3500 
L 1159 2969 
Q 1341 3281 1617 3432 
Q 1894 3584 2278 3584 
Q 2916 3584 3314 3078 
Q 3713 2572 3713 1747 
Q 3713 922 3314 415 
Q 2916 -91 2278 -91 
Q 1894 -91 1617 61 
Q 1341 213 1159 525 
z
M 3116 1747 
Q 3116 2381 2855 2742 
Q 2594 3103 2138 3103 
Q 1681 3103 1420 2742 
Q 1159 2381 1159 1747 
Q 1159 1113 1420 752 
Q 1681 391 2138 391 
Q 2594 391 2855 752 
Q 3116 1113 3116 1747 
z
" id="DejaVuSans-70" transform="scale(0.015625)"/>
       <path d="M 2834 3397 
L 2834 2853 
Q 2591 2978 2328 3040 
Q 2066 3103 1784 3103 
Q 1356 3103 1142 2972 
Q 928 2841 928 2578 
Q 928 2378 1081 2264 
Q 1234 2150 1697 2047 
L 1894 2003 
Q 2506 1872 2764 1633 
Q 3022 1394 3022 966 
Q 3022 478 2636 193 
Q 2250 -91 1575 -91 
Q 1294 -91 989 -36 
Q 684 19 347 128 
L 347 722 
Q 666 556 975 473 
Q 1284 391 1588 391 
Q 1994 391 2212 530 
Q 2431 669 2431 922 
Q 2431 1156 2273 1281 
Q 2116 1406 1581 1522 
L 1381 1569 
Q 847 1681 609 1914 
Q 372 2147 372 2553 
Q 372 3047 722 3315 
Q 1072 3584 1716 3584 
Q 2034 3584 2315 3537 
Q 2597 3491 2834 3397 
z
" id="DejaVuSans-73" transform="scale(0.015625)"/>
      </defs>
      <use xlink:href="#DejaVuSans-54"/>
      <use x="57.958984" xlink:href="#DejaVuSans-69"/>
      <use x="85.742188" xlink:href="#DejaVuSans-65"/>
      <use x="147.265625" xlink:href="#DejaVuSans-6d"/>
      <use x="244.677734" xlink:href="#DejaVuSans-70"/>
      <use x="308.154297" xlink:href="#DejaVuSans-6f"/>
      <use x="369.335938" xlink:href="#DejaVuSans-20"/>
      <use x="401.123047" xlink:href="#DejaVuSans-28"/>
      <use x="440.136719" xlink:href="#DejaVuSans-73"/>
      <use x="492.236328" xlink:href="#DejaVuSans-29"/>
     </g>
    </g>
   </g>
   <g id="matplotlib.axis_4">
    <g id="ytick_7">
     <g id="line2d_35">
      <path clip-path="url(#p29d8f40317)" d="M 307.865 217.66015 
L 478.8 217.66015 
" style="fill:none;stroke:#b0b0b0;stroke-linecap:square;stroke-width:0.8;"/>
     </g>
     <g id="line2d_36">
      <g>
       <use style="stroke:#000000;stroke-width:0.8;" x="307.865" xlink:href="#m1fcada26ca" y="217.66015"/>
      </g>
     </g>
     <g id="text_19">
      <!-- 0.95 -->
      <g transform="translate(278.599375 221.459368)scale(0.1 -0.1)">
       <defs>
        <path d="M 703 97 
L 703 672 
Q 941 559 1184 500 
Q 1428 441 1663 441 
Q 2288 441 2617 861 
Q 2947 1281 2994 2138 
Q 2813 1869 2534 1725 
Q 2256 1581 1919 1581 
Q 1219 1581 811 2004 
Q 403 2428 403 3163 
Q 403 3881 828 4315 
Q 1253 4750 1959 4750 
Q 2769 4750 3195 4129 
Q 3622 3509 3622 2328 
Q 3622 1225 3098 567 
Q 2575 -91 1691 -91 
Q 1453 -91 1209 -44 
Q 966 3 703 97 
z
M 1959 2075 
Q 2384 2075 2632 2365 
Q 2881 2656 2881 3163 
Q 2881 3666 2632 3958 
Q 2384 4250 1959 4250 
Q 1534 4250 1286 3958 
Q 1038 3666 1038 3163 
Q 1038 2656 1286 2365 
Q 1534 2075 1959 2075 
z
" id="DejaVuSans-39" transform="scale(0.015625)"/>
       </defs>
       <use xlink:href="#DejaVuSans-30"/>
       <use x="63.623047" xlink:href="#DejaVuSans-2e"/>
       <use x="95.410156" xlink:href="#DejaVuSans-39"/>
       <use x="159.033203" xlink:href="#DejaVuSans-35"/>
      </g>
     </g>
    </g>
    <g id="ytick_8">
     <g id="line2d_37">
      <path clip-path="url(#p29d8f40317)" d="M 307.865 190.595598 
L 478.8 190.595598 
" style="fill:none;stroke:#b0b0b0;stroke-linecap:square;stroke-width:0.8;"/>
     </g>
     <g id="line2d_38">
      <g>
       <use style="stroke:#000000;stroke-width:0.8;" x="307.865" xlink:href="#m1fcada26ca" y="190.595598"/>
      </g>
     </g>
     <g id="text_20">
      <!-- 1.00 -->
      <g transform="translate(278.599375 194.394816)scale(0.1 -0.1)">
       <use xlink:href="#DejaVuSans-31"/>
       <use x="63.623047" xlink:href="#DejaVuSans-2e"/>
       <use x="95.410156" xlink:href="#DejaVuSans-30"/>
       <use x="159.033203" xlink:href="#DejaVuSans-30"/>
      </g>
     </g>
    </g>
    <g id="ytick_9">
     <g id="line2d_39">
      <path clip-path="url(#p29d8f40317)" d="M 307.865 163.531046 
L 478.8 163.531046 
" style="fill:none;stroke:#b0b0b0;stroke-linecap:square;stroke-width:0.8;"/>
     </g>
     <g id="line2d_40">
      <g>
       <use style="stroke:#000000;stroke-width:0.8;" x="307.865" xlink:href="#m1fcada26ca" y="163.531046"/>
      </g>
     </g>
     <g id="text_21">
      <!-- 1.05 -->
      <g transform="translate(278.599375 167.330264)scale(0.1 -0.1)">
       <use xlink:href="#DejaVuSans-31"/>
       <use x="63.623047" xlink:href="#DejaVuSans-2e"/>
       <use x="95.410156" xlink:href="#DejaVuSans-30"/>
       <use x="159.033203" xlink:href="#DejaVuSans-35"/>
      </g>
     </g>
    </g>
    <g id="ytick_10">
     <g id="line2d_41">
      <path clip-path="url(#p29d8f40317)" d="M 307.865 136.466494 
L 478.8 136.466494 
" style="fill:none;stroke:#b0b0b0;stroke-linecap:square;stroke-width:0.8;"/>
     </g>
     <g id="line2d_42">
      <g>
       <use style="stroke:#000000;stroke-width:0.8;" x="307.865" xlink:href="#m1fcada26ca" y="136.466494"/>
      </g>
     </g>
     <g id="text_22">
      <!-- 1.10 -->
      <g transform="translate(278.599375 140.265712)scale(0.1 -0.1)">
       <use xlink:href="#DejaVuSans-31"/>
       <use x="63.623047" xlink:href="#DejaVuSans-2e"/>
       <use x="95.410156" xlink:href="#DejaVuSans-31"/>
       <use x="159.033203" xlink:href="#DejaVuSans-30"/>
      </g>
     </g>
    </g>
    <g id="ytick_11">
     <g id="line2d_43">
      <path clip-path="url(#p29d8f40317)" d="M 307.865 109.401942 
L 478.8 109.401942 
" style="fill:none;stroke:#b0b0b0;stroke-linecap:square;stroke-width:0.8;"/>
     </g>
     <g id="line2d_44">
      <g>
       <use style="stroke:#000000;stroke-width:0.8;" x="307.865" xlink:href="#m1fcada26ca" y="109.401942"/>
      </g>
     </g>
     <g id="text_23">
      <!-- 1.15 -->
      <g transform="translate(278.599375 113.20116)scale(0.1 -0.1)">
       <use xlink:href="#DejaVuSans-31"/>
       <use x="63.623047" xlink:href="#DejaVuSans-2e"/>
       <use x="95.410156" xlink:href="#DejaVuSans-31"/>
       <use x="159.033203" xlink:href="#DejaVuSans-35"/>
      </g>
     </g>
    </g>
    <g id="ytick_12">
     <g id="line2d_45">
      <path clip-path="url(#p29d8f40317)" d="M 307.865 82.33739 
L 478.8 82.33739 
" style="fill:none;stroke:#b0b0b0;stroke-linecap:square;stroke-width:0.8;"/>
     </g>
     <g id="line2d_46">
      <g>
       <use style="stroke:#000000;stroke-width:0.8;" x="307.865" xlink:href="#m1fcada26ca" y="82.33739"/>
      </g>
     </g>
     <g id="text_24">
      <!-- 1.20 -->
      <g transform="translate(278.599375 86.136608)scale(0.1 -0.1)">
       <use xlink:href="#DejaVuSans-31"/>
       <use x="63.623047" xlink:href="#DejaVuSans-2e"/>
       <use x="95.410156" xlink:href="#DejaVuSans-32"/>
       <use x="159.033203" xlink:href="#DejaVuSans-30"/>
      </g>
     </g>
    </g>
    <g id="text_25">
     <!-- z (m) -->
     <g transform="translate(272.519688 162.045156)rotate(-90)scale(0.1 -0.1)">
      <defs>
       <path d="M 353 3500 
L 3084 3500 
L 3084 2975 
L 922 459 
L 3084 459 
L 3084 0 
L 275 0 
L 275 525 
L 2438 3041 
L 353 3041 
L 353 3500 
z
" id="DejaVuSans-7a" transform="scale(0.015625)"/>
      </defs>
      <use xlink:href="#DejaVuSans-7a"/>
      <use x="52.490234" xlink:href="#DejaVuSans-20"/>
      <use x="84.277344" xlink:href="#DejaVuSans-28"/>
      <use x="123.291016" xlink:href="#DejaVuSans-6d"/>
      <use x="220.703125" xlink:href="#DejaVuSans-29"/>
     </g>
    </g>
   </g>
   <g id="line2d_47">
    <path clip-path="url(#p29d8f40317)" d="M 315.634773 190.687692 
L 315.958581 191.250428 
L 316.31477 191.431659 
L 316.832862 191.407902 
L 320.977605 190.770219 
L 324.539492 190.630445 
L 333.023262 190.582324 
L 354.686016 190.537755 
L 354.81554 189.921499 
L 355.106967 186.856289 
L 357.244099 159.897562 
L 358.086 153.524514 
L 358.960282 148.553569 
L 359.769802 145.123245 
L 360.546941 142.724718 
L 361.356461 140.924064 
L 362.230743 139.502905 
L 363.202167 138.341475 
L 364.205971 137.488516 
L 365.274538 136.873905 
L 366.56977 136.394647 
L 368.18881 136.043039 
L 370.390704 135.81176 
L 373.952592 135.686052 
L 382.436361 135.67279 
L 471.030227 135.965713 
L 471.030227 135.965713 
" style="fill:none;stroke:#1f77b4;stroke-linecap:square;stroke-opacity:0.7;stroke-width:1.5;"/>
   </g>
   <g id="line2d_48">
    <path clip-path="url(#p29d8f40317)" d="M 315.634773 190.687692 
L 316.509054 192.834712 
L 317.286193 194.19465 
L 317.96619 194.975962 
L 318.484283 195.25877 
L 319.002376 195.288731 
L 319.520469 195.086863 
L 320.103323 194.604558 
L 320.815701 193.692342 
L 321.657601 192.233627 
L 322.661406 190.026448 
L 323.794734 186.964764 
L 324.960443 183.162119 
L 326.255675 178.120134 
L 328.036619 170.162319 
L 330.303275 158.985864 
L 332.796596 145.51907 
L 334.609921 135.96923 
L 336.293723 129.021398 
L 340.859415 110.870172 
L 342.219409 107.54388 
L 343.028929 106.461124 
L 344.032733 104.945331 
L 345.133681 102.86143 
L 346.461293 99.84233 
L 347.52986 97.475263 
L 348.080333 96.876817 
L 349.440327 95.793054 
L 351.059367 95.547981 
L 351.868887 95.069629 
L 352.775549 94.258311 
L 353.908877 92.910831 
L 354.621255 92.184063 
L 355.074586 91.765006 
L 355.366013 91.019472 
L 355.884106 88.816916 
L 356.887911 84.76364 
L 358.733616 78.934385 
L 359.769802 76.091161 
L 360.417418 74.895532 
L 361.000272 74.25335 
L 361.485984 74.017423 
L 362.165981 74.010289 
L 364.788826 74.500714 
L 366.407866 75.249718 
L 367.573574 75.598683 
L 369.743088 76.470893 
L 370.552608 76.824452 
L 371.394509 77.497719 
L 372.139267 77.962941 
L 373.855449 78.820646 
L 374.988777 79.591525 
L 376.899244 80.531224 
L 378.000192 81.26689 
L 379.55447 82.061382 
L 381.011606 83.106029 
L 382.533504 83.860107 
L 383.861116 84.73435 
L 385.415395 85.463435 
L 386.937292 86.487958 
L 388.264905 87.119163 
L 389.819183 88.104663 
L 391.179177 88.700279 
L 392.733455 89.642896 
L 394.12583 90.223072 
L 395.680108 91.151989 
L 397.007721 91.675785 
L 398.561999 92.527669 
L 399.921993 93.004891 
L 401.476271 93.820486 
L 402.868645 94.282739 
L 404.325781 95.01819 
L 405.815298 95.463574 
L 407.142911 96.097765 
L 408.859093 96.567104 
L 409.992421 97.095368 
L 411.805746 97.592286 
L 412.841931 98.04216 
L 414.946683 98.562741 
L 415.853346 98.898926 
L 417.569528 99.262723 
L 418.670475 99.693316 
L 420.807608 100.119275 
L 421.68189 100.389898 
L 423.430453 100.669368 
L 424.466638 101.023454 
L 426.733294 101.386127 
L 427.542814 101.577439 
L 429.194235 101.745969 
L 430.359944 102.080701 
L 432.302792 102.247315 
L 433.306596 102.496754 
L 435.119921 102.633266 
L 436.123726 102.887174 
L 438.358001 103.057006 
L 439.167521 103.196492 
L 440.883703 103.249574 
L 441.984651 103.492276 
L 444.057022 103.556707 
L 444.963684 103.711357 
L 446.777009 103.733433 
L 447.780814 103.928587 
L 450.015089 103.975534 
L 450.824609 104.072121 
L 452.540791 104.037895 
L 453.641738 104.228777 
L 455.714109 104.202206 
L 456.620772 104.319085 
L 458.401716 104.260859 
L 459.437901 104.428054 
L 461.639796 104.391887 
L 462.449316 104.473655 
L 464.230259 104.392718 
L 465.266445 104.5478 
L 467.468339 104.487962 
L 468.277859 104.561778 
L 470.058803 104.464545 
L 471.030227 104.614695 
L 471.030227 104.614695 
" style="fill:none;stroke:#d62728;stroke-linecap:square;stroke-opacity:0.7;stroke-width:1.5;"/>
   </g>
   <g id="line2d_49">
    <path clip-path="url(#p29d8f40317)" d="M 315.634773 190.687692 
L 316.994766 194.209057 
L 318.095713 196.519134 
L 318.419521 196.799806 
L 318.613806 196.716773 
L 318.840472 196.339836 
L 319.16428 195.278437 
L 319.649992 192.74982 
L 323.924257 167.491552 
L 325.64044 159.043522 
L 327.097576 152.936291 
L 328.295665 148.802971 
L 329.493755 145.4638 
L 330.756606 142.577413 
L 331.954695 140.378521 
L 333.152785 138.6401 
L 334.383255 137.231899 
L 335.419441 136.362003 
L 336.390865 135.830493 
L 337.329908 135.565545 
L 338.301332 135.520829 
L 339.337518 135.703197 
L 340.729892 136.205713 
L 342.769882 137.167434 
L 344.065114 138.014565 
L 345.651773 139.346205 
L 349.699373 142.8907 
L 354.00602 146.214735 
L 354.750778 146.684318 
L 354.912682 146.26823 
L 355.171728 144.827704 
L 355.65744 140.607069 
L 356.661245 131.849711 
L 357.114576 129.68186 
L 357.406003 129.122022 
L 357.632669 129.094558 
L 357.891715 129.373501 
L 358.992663 130.951204 
L 359.219328 130.886689 
L 359.478375 130.56641 
L 359.899325 129.596338 
L 362.1336 123.031379 
L 364.821206 115.547211 
L 367.217386 109.581876 
L 370.714512 101.535752 
L 372.139267 98.793605 
L 373.07831 97.521453 
L 374.179257 96.367806 
L 376.057344 94.841747 
L 377.805907 93.695757 
L 379.327804 92.944168 
L 380.461132 92.618753 
L 381.691603 92.504936 
L 386.743007 92.566808 
L 388.167763 92.883147 
L 389.754422 93.457691 
L 391.438223 94.028272 
L 395.647727 95.454727 
L 399.209615 97.009882 
L 403.645784 98.443263 
L 406.333391 99.503508 
L 408.114335 99.86564 
L 410.801941 100.389418 
L 414.104783 101.179816 
L 415.950488 101.192572 
L 418.217144 101.248998 
L 422.394267 101.558854 
L 427.607576 101.253727 
L 429.194235 101.211427 
L 431.234225 100.820525 
L 433.371358 100.469821 
L 435.314206 100.418722 
L 436.868484 100.328036 
L 439.199902 99.892042 
L 441.175131 99.591842 
L 443.279883 99.553428 
L 444.704638 99.44807 
L 449.626519 98.801072 
L 453.253169 98.761303 
L 456.782676 98.473427 
L 461.348368 98.533516 
L 463.906451 98.372558 
L 465.655015 98.529115 
L 467.759767 98.707619 
L 470.155946 98.593607 
L 471.030227 98.56474 
L 471.030227 98.56474 
" style="fill:none;stroke:#bcbd22;stroke-linecap:square;stroke-opacity:0.7;stroke-width:1.5;"/>
   </g>
   <g id="line2d_50">
    <path clip-path="url(#p29d8f40317)" d="M 315.634773 190.687692 
L 317.091909 194.486565 
L 318.322379 197.127838 
L 318.613806 197.315874 
L 318.808091 197.207672 
L 319.067137 196.764575 
L 319.488088 195.482538 
L 321.851886 187.351838 
L 323.147118 183.737282 
L 324.474731 180.68003 
L 325.543297 178.710994 
L 327.032814 176.551813 
L 328.328046 175.02691 
L 329.752801 173.675766 
L 331.242318 172.573356 
L 332.828977 171.679368 
L 334.545159 170.972602 
L 336.488007 170.419563 
L 338.819425 169.995576 
L 341.507031 169.742027 
L 344.907015 169.659354 
L 351.253652 169.779218 
L 354.718397 169.799144 
L 354.880301 169.378988 
L 355.171728 167.88259 
L 355.819344 162.984161 
L 356.952672 154.903441 
L 358.086 148.301795 
L 359.186947 143.402973 
L 360.223133 139.642594 
L 361.065034 137.398193 
L 362.101219 135.323365 
L 363.849782 132.3767 
L 366.505008 128.265899 
L 367.767859 126.718311 
L 368.965949 125.589314 
L 370.196419 124.74477 
L 371.750697 123.966408 
L 373.628784 123.276625 
L 375.863059 122.691813 
L 377.967811 122.366033 
L 380.234467 122.247344 
L 383.731593 122.323078 
L 390.337276 122.712462 
L 397.137244 123.022582 
L 404.131496 123.109863 
L 471.030227 123.011159 
L 471.030227 123.011159 
" style="fill:none;stroke:#2ca02c;stroke-linecap:square;stroke-opacity:0.7;stroke-width:1.5;"/>
   </g>
   <g id="line2d_51">
    <path clip-path="url(#p29d8f40317)" d="M 315.634773 190.687692 
L 317.96619 197.639746 
L 318.451902 201.189554 
L 319.423326 210.463183 
L 320.362369 218.516879 
L 320.977605 222.089994 
L 321.430936 223.614883 
L 321.754744 224.087836 
L 321.981409 224.11325 
L 322.208075 223.897014 
L 322.531883 223.204964 
L 322.985214 221.624228 
L 323.665211 218.339064 
L 325.057585 210.163965 
L 329.428993 184.580064 
L 329.947086 183.040459 
L 330.335655 182.496442 
L 330.594702 182.437734 
L 330.853748 182.623043 
L 331.177556 183.189375 
L 331.598507 184.445102 
L 332.181361 187.001797 
L 333.023262 191.860247 
L 334.868967 202.727982 
L 335.678487 206.310666 
L 336.261342 208.009715 
L 336.682292 208.676019 
L 337.0061 208.852346 
L 337.297527 208.763246 
L 337.621335 208.399668 
L 338.042286 207.54863 
L 338.657521 205.709773 
L 340.179418 200.122635 
L 342.67274 190.216234 
L 345.684154 177.280612 
L 347.367956 170.305409 
L 347.853668 169.161018 
L 348.177476 168.84059 
L 348.436522 168.867209 
L 348.695569 169.154749 
L 349.019377 169.88399 
L 349.440327 171.431827 
L 349.9908 174.372536 
L 350.80032 180.070151 
L 352.710788 193.989302 
L 353.423165 197.537267 
L 353.973639 199.263212 
L 354.394589 199.955533 
L 354.686016 200.10199 
L 354.81554 199.77417 
L 355.074586 198.232571 
L 355.560298 193.642679 
L 357.017434 179.098703 
L 357.503146 176.43262 
L 357.826954 175.587442 
L 358.053619 175.470858 
L 358.247904 175.688875 
L 358.506951 176.427029 
L 358.89552 178.368927 
L 359.607898 183.356074 
L 360.482179 189.045273 
L 361.000272 191.104386 
L 361.388842 191.890003 
L 361.680269 192.079167 
L 361.939315 191.990304 
L 362.263123 191.585172 
L 362.684074 190.643602 
L 363.234547 188.797017 
L 363.914544 185.661516 
L 365.080253 179.000678 
L 368.383094 158.766218 
L 372.042125 136.244802 
L 372.624979 134.220043 
L 373.110691 133.221714 
L 373.499261 132.846631 
L 373.823069 132.816137 
L 374.146877 133.037643 
L 374.535446 133.607541 
L 375.215443 135.108789 
L 376.186867 137.108739 
L 376.73734 137.775696 
L 377.158291 137.985205 
L 377.54686 137.945603 
L 378.000192 137.647884 
L 378.615427 136.924786 
L 380.072563 134.732675 
L 381.691603 131.899294 
L 383.310643 128.614721 
L 385.059206 124.54278 
L 387.034435 119.353802 
L 389.365852 112.568614 
L 391.632508 106.046264 
L 392.11822 105.325065 
L 392.474409 105.127543 
L 392.765836 105.193461 
L 393.089644 105.504831 
L 393.510594 106.254307 
L 394.093449 107.811354 
L 397.299148 117.318326 
L 398.853426 120.954748 
L 400.342943 123.894875 
L 401.702937 126.105497 
L 402.933407 127.688037 
L 404.066735 128.798588 
L 405.167682 129.575558 
L 406.236248 130.058628 
L 407.272434 130.284735 
L 408.276239 130.281459 
L 409.312424 130.053251 
L 410.380991 129.580325 
L 411.481938 128.844944 
L 412.680027 127.769014 
L 413.975259 126.293505 
L 415.367634 124.354919 
L 416.889531 121.835871 
L 418.573333 118.595312 
L 420.419038 114.543002 
L 422.588552 109.211032 
L 425.438062 102.153111 
L 425.826632 101.789188 
L 426.118059 101.784708 
L 426.409486 102.025047 
L 426.765675 102.643367 
L 427.219006 103.906573 
L 427.834241 106.350958 
L 428.870427 111.598473 
L 430.19804 117.881996 
L 431.137083 121.348251 
L 431.946603 123.538346 
L 432.65898 124.872009 
L 433.43612 125.847694 
L 434.569448 126.877143 
L 435.638014 127.561148 
L 436.70658 127.98443 
L 437.742766 128.160398 
L 438.746571 128.109171 
L 439.750375 127.829829 
L 440.75418 127.314838 
L 442.049412 126.379512 
L 443.18274 125.24193 
L 444.510353 123.60333 
L 445.935108 121.485902 
L 447.489386 118.76721 
L 449.205569 115.301982 
L 451.018893 111.140961 
L 452.961741 106.102599 
L 455.228397 99.569489 
L 456.102679 97.306406 
L 456.523629 96.732171 
L 456.815056 96.64371 
L 457.074103 96.793031 
L 457.397911 97.277651 
L 457.818861 98.367656 
L 458.369335 100.476001 
L 459.114093 104.294414 
L 460.830276 113.409597 
L 461.542653 115.923343 
L 462.190269 117.476723 
L 462.902647 118.607623 
L 464.165498 120.112308 
L 465.428349 121.288537 
L 466.561677 122.048614 
L 467.597863 122.477813 
L 468.536906 122.627741 
L 469.443568 122.544925 
L 470.479754 122.219474 
L 471.030227 121.953847 
L 471.030227 121.953847 
" style="fill:none;stroke:#17becf;stroke-linecap:square;stroke-opacity:0.7;stroke-width:1.5;"/>
   </g>
   <g id="line2d_52">
    <path clip-path="url(#p29d8f40317)" d="M 315.634773 190.595598 
L 354.621255 190.595598 
L 354.750778 136.466494 
L 471.030227 136.466494 
L 471.030227 136.466494 
" style="fill:none;stroke:#000000;stroke-dasharray:5.55,2.4;stroke-dashoffset:0;stroke-opacity:0.595;stroke-width:1.5;"/>
   </g>
   <g id="patch_8">
    <path d="M 307.865 231.64 
L 307.865 66.48 
" style="fill:none;stroke:#000000;stroke-linecap:square;stroke-linejoin:miter;stroke-width:0.8;"/>
   </g>
   <g id="patch_9">
    <path d="M 478.8 231.64 
L 478.8 66.48 
" style="fill:none;stroke:#000000;stroke-linecap:square;stroke-linejoin:miter;stroke-width:0.8;"/>
   </g>
   <g id="patch_10">
    <path d="M 307.865 231.64 
L 478.8 231.64 
" style="fill:none;stroke:#000000;stroke-linecap:square;stroke-linejoin:miter;stroke-width:0.8;"/>
   </g>
   <g id="patch_11">
    <path d="M 307.865 66.48 
L 478.8 66.48 
" style="fill:none;stroke:#000000;stroke-linecap:square;stroke-linejoin:miter;stroke-width:0.8;"/>
   </g>
   <g id="text_26">
    <!-- Plano z -->
    <g transform="translate(371.84125 60.48)scale(0.12 -0.12)">
     <use xlink:href="#DejaVuSans-50"/>
     <use x="60.302734" xlink:href="#DejaVuSans-6c"/>
     <use x="88.085938" xlink:href="#DejaVuSans-61"/>
     <use x="149.365234" xlink:href="#DejaVuSans-6e"/>
     <use x="212.744141" xlink:href="#DejaVuSans-6f"/>
     <use x="273.925781" xlink:href="#DejaVuSans-20"/>
     <use x="305.712891" xlink:href="#DejaVuSans-7a"/>
    </g>
   </g>
  </g>
  <g id="text_27">
   <!-- Vista planos -->
   <g transform="translate(239.4 17.9175)scale(0.16 -0.16)">
    <defs>
     <path d="M 1831 0 
L 50 4666 
L 709 4666 
L 2188 738 
L 3669 4666 
L 4325 4666 
L 2547 0 
L 1831 0 
z
" id="DejaVuSans-56" transform="scale(0.015625)"/>
     <path d="M 1172 4494 
L 1172 3500 
L 2356 3500 
L 2356 3053 
L 1172 3053 
L 1172 1153 
Q 1172 725 1289 603 
Q 1406 481 1766 481 
L 2356 481 
L 2356 0 
L 1766 0 
Q 1100 0 847 248 
Q 594 497 594 1153 
L 594 3053 
L 172 3053 
L 172 3500 
L 594 3500 
L 594 4494 
L 1172 4494 
z
" id="DejaVuSans-74" transform="scale(0.015625)"/>
    </defs>
    <use xlink:href="#DejaVuSans-56"/>
    <use x="66.158203" xlink:href="#DejaVuSans-69"/>
    <use x="93.941406" xlink:href="#DejaVuSans-73"/>
    <use x="146.041016" xlink:href="#DejaVuSans-74"/>
    <use x="185.25" xlink:href="#DejaVuSans-61"/>
    <use x="246.529297" xlink:href="#DejaVuSans-20"/>
    <use x="278.316406" xlink:href="#DejaVuSans-70"/>
    <use x="341.792969" xlink:href="#DejaVuSans-6c"/>
    <use x="369.576172" xlink:href="#DejaVuSans-61"/>
    <use x="430.855469" xlink:href="#DejaVuSans-6e"/>
    <use x="494.234375" xlink:href="#DejaVuSans-6f"/>
    <use x="555.416016" xlink:href="#DejaVuSans-73"/>
   </g>
  </g>
  <g id="legend_1">
   <g id="patch_12">
    <path d="M 483.89375 189.534375 
L 569 189.534375 
Q 571 189.534375 571 187.534375 
L 571 100.465625 
Q 571 98.465625 569 98.465625 
L 483.89375 98.465625 
Q 481.89375 98.465625 481.89375 100.465625 
L 481.89375 187.534375 
Q 481.89375 189.534375 483.89375 189.534375 
z
" style="fill:#ffffff;opacity:0.8;stroke:#cccccc;stroke-linejoin:miter;"/>
   </g>
   <g id="line2d_53">
    <path d="M 485.89375 106.564063 
L 505.89375 106.564063 
" style="fill:none;stroke:#1f77b4;stroke-linecap:square;stroke-opacity:0.7;stroke-width:1.5;"/>
   </g>
   <g id="line2d_54"/>
   <g id="text_28">
    <!-- DSLPID -->
    <g transform="translate(513.89375 110.064063)scale(0.1 -0.1)">
     <defs>
      <path d="M 1259 4147 
L 1259 519 
L 2022 519 
Q 2988 519 3436 956 
Q 3884 1394 3884 2338 
Q 3884 3275 3436 3711 
Q 2988 4147 2022 4147 
L 1259 4147 
z
M 628 4666 
L 1925 4666 
Q 3281 4666 3915 4102 
Q 4550 3538 4550 2338 
Q 4550 1131 3912 565 
Q 3275 0 1925 0 
L 628 0 
L 628 4666 
z
" id="DejaVuSans-44" transform="scale(0.015625)"/>
      <path d="M 3425 4513 
L 3425 3897 
Q 3066 4069 2747 4153 
Q 2428 4238 2131 4238 
Q 1616 4238 1336 4038 
Q 1056 3838 1056 3469 
Q 1056 3159 1242 3001 
Q 1428 2844 1947 2747 
L 2328 2669 
Q 3034 2534 3370 2195 
Q 3706 1856 3706 1288 
Q 3706 609 3251 259 
Q 2797 -91 1919 -91 
Q 1588 -91 1214 -16 
Q 841 59 441 206 
L 441 856 
Q 825 641 1194 531 
Q 1563 422 1919 422 
Q 2459 422 2753 634 
Q 3047 847 3047 1241 
Q 3047 1584 2836 1778 
Q 2625 1972 2144 2069 
L 1759 2144 
Q 1053 2284 737 2584 
Q 422 2884 422 3419 
Q 422 4038 858 4394 
Q 1294 4750 2059 4750 
Q 2388 4750 2728 4690 
Q 3069 4631 3425 4513 
z
" id="DejaVuSans-53" transform="scale(0.015625)"/>
      <path d="M 628 4666 
L 1259 4666 
L 1259 531 
L 3531 531 
L 3531 0 
L 628 0 
L 628 4666 
z
" id="DejaVuSans-4c" transform="scale(0.015625)"/>
      <path d="M 628 4666 
L 1259 4666 
L 1259 0 
L 628 0 
L 628 4666 
z
" id="DejaVuSans-49" transform="scale(0.015625)"/>
     </defs>
     <use xlink:href="#DejaVuSans-44"/>
     <use x="77.001953" xlink:href="#DejaVuSans-53"/>
     <use x="140.478516" xlink:href="#DejaVuSans-4c"/>
     <use x="196.191406" xlink:href="#DejaVuSans-50"/>
     <use x="256.494141" xlink:href="#DejaVuSans-49"/>
     <use x="285.986328" xlink:href="#DejaVuSans-44"/>
    </g>
   </g>
   <g id="line2d_55">
    <path d="M 485.89375 121.242188 
L 505.89375 121.242188 
" style="fill:none;stroke:#d62728;stroke-linecap:square;stroke-opacity:0.7;stroke-width:1.5;"/>
   </g>
   <g id="line2d_56"/>
   <g id="text_29">
    <!-- ANN -->
    <g transform="translate(513.89375 124.742188)scale(0.1 -0.1)">
     <defs>
      <path d="M 2188 4044 
L 1331 1722 
L 3047 1722 
L 2188 4044 
z
M 1831 4666 
L 2547 4666 
L 4325 0 
L 3669 0 
L 3244 1197 
L 1141 1197 
L 716 0 
L 50 0 
L 1831 4666 
z
" id="DejaVuSans-41" transform="scale(0.015625)"/>
      <path d="M 628 4666 
L 1478 4666 
L 3547 763 
L 3547 4666 
L 4159 4666 
L 4159 0 
L 3309 0 
L 1241 3903 
L 1241 0 
L 628 0 
L 628 4666 
z
" id="DejaVuSans-4e" transform="scale(0.015625)"/>
     </defs>
     <use xlink:href="#DejaVuSans-41"/>
     <use x="68.408203" xlink:href="#DejaVuSans-4e"/>
     <use x="143.212891" xlink:href="#DejaVuSans-4e"/>
    </g>
   </g>
   <g id="line2d_57">
    <path d="M 485.89375 135.920313 
L 505.89375 135.920313 
" style="fill:none;stroke:#bcbd22;stroke-linecap:square;stroke-opacity:0.7;stroke-width:1.5;"/>
   </g>
   <g id="line2d_58"/>
   <g id="text_30">
    <!-- LSTM -->
    <g transform="translate(513.89375 139.420313)scale(0.1 -0.1)">
     <defs>
      <path d="M 628 4666 
L 1569 4666 
L 2759 1491 
L 3956 4666 
L 4897 4666 
L 4897 0 
L 4281 0 
L 4281 4097 
L 3078 897 
L 2444 897 
L 1241 4097 
L 1241 0 
L 628 0 
L 628 4666 
z
" id="DejaVuSans-4d" transform="scale(0.015625)"/>
     </defs>
     <use xlink:href="#DejaVuSans-4c"/>
     <use x="55.712891" xlink:href="#DejaVuSans-53"/>
     <use x="119.189453" xlink:href="#DejaVuSans-54"/>
     <use x="180.273438" xlink:href="#DejaVuSans-4d"/>
    </g>
   </g>
   <g id="line2d_59">
    <path d="M 485.89375 150.598438 
L 505.89375 150.598438 
" style="fill:none;stroke:#2ca02c;stroke-linecap:square;stroke-opacity:0.7;stroke-width:1.5;"/>
   </g>
   <g id="line2d_60"/>
   <g id="text_31">
    <!-- LSTMCNN -->
    <g transform="translate(513.89375 154.098438)scale(0.1 -0.1)">
     <defs>
      <path d="M 4122 4306 
L 4122 3641 
Q 3803 3938 3442 4084 
Q 3081 4231 2675 4231 
Q 1875 4231 1450 3742 
Q 1025 3253 1025 2328 
Q 1025 1406 1450 917 
Q 1875 428 2675 428 
Q 3081 428 3442 575 
Q 3803 722 4122 1019 
L 4122 359 
Q 3791 134 3420 21 
Q 3050 -91 2638 -91 
Q 1578 -91 968 557 
Q 359 1206 359 2328 
Q 359 3453 968 4101 
Q 1578 4750 2638 4750 
Q 3056 4750 3426 4639 
Q 3797 4528 4122 4306 
z
" id="DejaVuSans-43" transform="scale(0.015625)"/>
     </defs>
     <use xlink:href="#DejaVuSans-4c"/>
     <use x="55.712891" xlink:href="#DejaVuSans-53"/>
     <use x="119.189453" xlink:href="#DejaVuSans-54"/>
     <use x="180.273438" xlink:href="#DejaVuSans-4d"/>
     <use x="266.552734" xlink:href="#DejaVuSans-43"/>
     <use x="336.376953" xlink:href="#DejaVuSans-4e"/>
     <use x="411.181641" xlink:href="#DejaVuSans-4e"/>
    </g>
   </g>
   <g id="line2d_61">
    <path d="M 485.89375 165.276563 
L 505.89375 165.276563 
" style="fill:none;stroke:#17becf;stroke-linecap:square;stroke-opacity:0.7;stroke-width:1.5;"/>
   </g>
   <g id="line2d_62"/>
   <g id="text_32">
    <!-- CLSTM -->
    <g transform="translate(513.89375 168.776563)scale(0.1 -0.1)">
     <use xlink:href="#DejaVuSans-43"/>
     <use x="69.824219" xlink:href="#DejaVuSans-4c"/>
     <use x="125.537109" xlink:href="#DejaVuSans-53"/>
     <use x="189.013672" xlink:href="#DejaVuSans-54"/>
     <use x="250.097656" xlink:href="#DejaVuSans-4d"/>
    </g>
   </g>
   <g id="line2d_63">
    <path d="M 485.89375 179.954688 
L 505.89375 179.954688 
" style="fill:none;stroke:#000000;stroke-dasharray:5.55,2.4;stroke-dashoffset:0;stroke-opacity:0.595;stroke-width:1.5;"/>
   </g>
   <g id="line2d_64"/>
   <g id="text_33">
    <!-- Referencia -->
    <g transform="translate(513.89375 183.454688)scale(0.1 -0.1)">
     <defs>
      <path d="M 2841 2188 
Q 3044 2119 3236 1894 
Q 3428 1669 3622 1275 
L 4263 0 
L 3584 0 
L 2988 1197 
Q 2756 1666 2539 1819 
Q 2322 1972 1947 1972 
L 1259 1972 
L 1259 0 
L 628 0 
L 628 4666 
L 2053 4666 
Q 2853 4666 3247 4331 
Q 3641 3997 3641 3322 
Q 3641 2881 3436 2590 
Q 3231 2300 2841 2188 
z
M 1259 4147 
L 1259 2491 
L 2053 2491 
Q 2509 2491 2742 2702 
Q 2975 2913 2975 3322 
Q 2975 3731 2742 3939 
Q 2509 4147 2053 4147 
L 1259 4147 
z
" id="DejaVuSans-52" transform="scale(0.015625)"/>
      <path d="M 2375 4863 
L 2375 4384 
L 1825 4384 
Q 1516 4384 1395 4259 
Q 1275 4134 1275 3809 
L 1275 3500 
L 2222 3500 
L 2222 3053 
L 1275 3053 
L 1275 0 
L 697 0 
L 697 3053 
L 147 3053 
L 147 3500 
L 697 3500 
L 697 3744 
Q 697 4328 969 4595 
Q 1241 4863 1831 4863 
L 2375 4863 
z
" id="DejaVuSans-66" transform="scale(0.015625)"/>
      <path d="M 2631 2963 
Q 2534 3019 2420 3045 
Q 2306 3072 2169 3072 
Q 1681 3072 1420 2755 
Q 1159 2438 1159 1844 
L 1159 0 
L 581 0 
L 581 3500 
L 1159 3500 
L 1159 2956 
Q 1341 3275 1631 3429 
Q 1922 3584 2338 3584 
Q 2397 3584 2469 3576 
Q 2541 3569 2628 3553 
L 2631 2963 
z
" id="DejaVuSans-72" transform="scale(0.015625)"/>
      <path d="M 3122 3366 
L 3122 2828 
Q 2878 2963 2633 3030 
Q 2388 3097 2138 3097 
Q 1578 3097 1268 2742 
Q 959 2388 959 1747 
Q 959 1106 1268 751 
Q 1578 397 2138 397 
Q 2388 397 2633 464 
Q 2878 531 3122 666 
L 3122 134 
Q 2881 22 2623 -34 
Q 2366 -91 2075 -91 
Q 1284 -91 818 406 
Q 353 903 353 1747 
Q 353 2603 823 3093 
Q 1294 3584 2113 3584 
Q 2378 3584 2631 3529 
Q 2884 3475 3122 3366 
z
" id="DejaVuSans-63" transform="scale(0.015625)"/>
     </defs>
     <use xlink:href="#DejaVuSans-52"/>
     <use x="64.982422" xlink:href="#DejaVuSans-65"/>
     <use x="126.505859" xlink:href="#DejaVuSans-66"/>
     <use x="161.710938" xlink:href="#DejaVuSans-65"/>
     <use x="223.234375" xlink:href="#DejaVuSans-72"/>
     <use x="262.097656" xlink:href="#DejaVuSans-65"/>
     <use x="323.621094" xlink:href="#DejaVuSans-6e"/>
     <use x="387" xlink:href="#DejaVuSans-63"/>
     <use x="441.980469" xlink:href="#DejaVuSans-69"/>
     <use x="469.763672" xlink:href="#DejaVuSans-61"/>
    </g>
   </g>
  </g>
 </g>
 <defs>
  <clipPath id="p115f8a0d00">
   <rect height="165.16" width="170.935" x="82.82" y="66.48"/>
  </clipPath>
  <clipPath id="p29d8f40317">
   <rect height="165.16" width="170.935" x="307.865" y="66.48"/>
  </clipPath>
 </defs>
</svg>
