<?xml version="1.0" encoding="utf-8" standalone="no"?>
<!DOCTYPE svg PUBLIC "-//W3C//DTD SVG 1.1//EN"
  "http://www.w3.org/Graphics/SVG/1.1/DTD/svg11.dtd">
<svg height="576pt" version="1.1" viewBox="0 0 576 576" width="576pt" xmlns="http://www.w3.org/2000/svg" xmlns:xlink="http://www.w3.org/1999/xlink">
 <metadata>
  <rdf:RDF xmlns:cc="http://creativecommons.org/ns#" xmlns:dc="http://purl.org/dc/elements/1.1/" xmlns:rdf="http://www.w3.org/1999/02/22-rdf-syntax-ns#">
   <cc:Work>
    <dc:type rdf:resource="http://purl.org/dc/dcmitype/StillImage"/>
    <dc:date>2022-02-26T04:07:06.848979</dc:date>
    <dc:format>image/svg+xml</dc:format>
    <dc:creator>
     <cc:Agent>
      <dc:title>Matplotlib v3.4.3, https://matplotlib.org/</dc:title>
     </cc:Agent>
    </dc:creator>
   </cc:Work>
  </rdf:RDF>
 </metadata>
 <defs>
  <style type="text/css">*{stroke-linecap:butt;stroke-linejoin:round;}</style>
 </defs>
 <g id="figure_1">
  <g id="patch_1">
   <path d="M 0 576 
L 576 576 
L 576 0 
L 0 0 
z
" style="fill:#ffffff;"/>
  </g>
  <g id="axes_1">
   <g id="patch_2">
    <path d="M 65.68 271.86 
L 256.995 271.86 
L 256.995 80.88 
L 65.68 80.88 
z
" style="fill:#ffffff;"/>
   </g>
   <g id="matplotlib.axis_1">
    <g id="xtick_1">
     <g id="line2d_1">
      <path clip-path="url(#p74939ee303)" d="M 74.376136 271.86 
L 74.376136 80.88 
" style="fill:none;stroke:#b0b0b0;stroke-linecap:square;stroke-width:0.8;"/>
     </g>
     <g id="line2d_2">
      <defs>
       <path d="M 0 0 
L 0 3.5 
" id="ma34127195b" style="stroke:#000000;stroke-width:0.8;"/>
      </defs>
      <g>
       <use style="stroke:#000000;stroke-width:0.8;" x="74.376136" xlink:href="#ma34127195b" y="271.86"/>
      </g>
     </g>
    </g>
    <g id="xtick_2">
     <g id="line2d_3">
      <path clip-path="url(#p74939ee303)" d="M 117.865879 271.86 
L 117.865879 80.88 
" style="fill:none;stroke:#b0b0b0;stroke-linecap:square;stroke-width:0.8;"/>
     </g>
     <g id="line2d_4">
      <g>
       <use style="stroke:#000000;stroke-width:0.8;" x="117.865879" xlink:href="#ma34127195b" y="271.86"/>
      </g>
     </g>
    </g>
    <g id="xtick_3">
     <g id="line2d_5">
      <path clip-path="url(#p74939ee303)" d="M 161.355621 271.86 
L 161.355621 80.88 
" style="fill:none;stroke:#b0b0b0;stroke-linecap:square;stroke-width:0.8;"/>
     </g>
     <g id="line2d_6">
      <g>
       <use style="stroke:#000000;stroke-width:0.8;" x="161.355621" xlink:href="#ma34127195b" y="271.86"/>
      </g>
     </g>
    </g>
    <g id="xtick_4">
     <g id="line2d_7">
      <path clip-path="url(#p74939ee303)" d="M 204.845363 271.86 
L 204.845363 80.88 
" style="fill:none;stroke:#b0b0b0;stroke-linecap:square;stroke-width:0.8;"/>
     </g>
     <g id="line2d_8">
      <g>
       <use style="stroke:#000000;stroke-width:0.8;" x="204.845363" xlink:href="#ma34127195b" y="271.86"/>
      </g>
     </g>
    </g>
    <g id="xtick_5">
     <g id="line2d_9">
      <path clip-path="url(#p74939ee303)" d="M 248.335105 271.86 
L 248.335105 80.88 
" style="fill:none;stroke:#b0b0b0;stroke-linecap:square;stroke-width:0.8;"/>
     </g>
     <g id="line2d_10">
      <g>
       <use style="stroke:#000000;stroke-width:0.8;" x="248.335105" xlink:href="#ma34127195b" y="271.86"/>
      </g>
     </g>
    </g>
    <g id="text_1">
     <!-- Tiempo (s) -->
     <g transform="translate(134.775 283.458437)scale(0.1 -0.1)">
      <defs>
       <path d="M -19 4666 
L 3928 4666 
L 3928 4134 
L 2272 4134 
L 2272 0 
L 1638 0 
L 1638 4134 
L -19 4134 
L -19 4666 
z
" id="DejaVuSans-54" transform="scale(0.015625)"/>
       <path d="M 603 3500 
L 1178 3500 
L 1178 0 
L 603 0 
L 603 3500 
z
M 603 4863 
L 1178 4863 
L 1178 4134 
L 603 4134 
L 603 4863 
z
" id="DejaVuSans-69" transform="scale(0.015625)"/>
       <path d="M 3597 1894 
L 3597 1613 
L 953 1613 
Q 991 1019 1311 708 
Q 1631 397 2203 397 
Q 2534 397 2845 478 
Q 3156 559 3463 722 
L 3463 178 
Q 3153 47 2828 -22 
Q 2503 -91 2169 -91 
Q 1331 -91 842 396 
Q 353 884 353 1716 
Q 353 2575 817 3079 
Q 1281 3584 2069 3584 
Q 2775 3584 3186 3129 
Q 3597 2675 3597 1894 
z
M 3022 2063 
Q 3016 2534 2758 2815 
Q 2500 3097 2075 3097 
Q 1594 3097 1305 2825 
Q 1016 2553 972 2059 
L 3022 2063 
z
" id="DejaVuSans-65" transform="scale(0.015625)"/>
       <path d="M 3328 2828 
Q 3544 3216 3844 3400 
Q 4144 3584 4550 3584 
Q 5097 3584 5394 3201 
Q 5691 2819 5691 2113 
L 5691 0 
L 5113 0 
L 5113 2094 
Q 5113 2597 4934 2840 
Q 4756 3084 4391 3084 
Q 3944 3084 3684 2787 
Q 3425 2491 3425 1978 
L 3425 0 
L 2847 0 
L 2847 2094 
Q 2847 2600 2669 2842 
Q 2491 3084 2119 3084 
Q 1678 3084 1418 2786 
Q 1159 2488 1159 1978 
L 1159 0 
L 581 0 
L 581 3500 
L 1159 3500 
L 1159 2956 
Q 1356 3278 1631 3431 
Q 1906 3584 2284 3584 
Q 2666 3584 2933 3390 
Q 3200 3197 3328 2828 
z
" id="DejaVuSans-6d" transform="scale(0.015625)"/>
       <path d="M 1159 525 
L 1159 -1331 
L 581 -1331 
L 581 3500 
L 1159 3500 
L 1159 2969 
Q 1341 3281 1617 3432 
Q 1894 3584 2278 3584 
Q 2916 3584 3314 3078 
Q 3713 2572 3713 1747 
Q 3713 922 3314 415 
Q 2916 -91 2278 -91 
Q 1894 -91 1617 61 
Q 1341 213 1159 525 
z
M 3116 1747 
Q 3116 2381 2855 2742 
Q 2594 3103 2138 3103 
Q 1681 3103 1420 2742 
Q 1159 2381 1159 1747 
Q 1159 1113 1420 752 
Q 1681 391 2138 391 
Q 2594 391 2855 752 
Q 3116 1113 3116 1747 
z
" id="DejaVuSans-70" transform="scale(0.015625)"/>
       <path d="M 1959 3097 
Q 1497 3097 1228 2736 
Q 959 2375 959 1747 
Q 959 1119 1226 758 
Q 1494 397 1959 397 
Q 2419 397 2687 759 
Q 2956 1122 2956 1747 
Q 2956 2369 2687 2733 
Q 2419 3097 1959 3097 
z
M 1959 3584 
Q 2709 3584 3137 3096 
Q 3566 2609 3566 1747 
Q 3566 888 3137 398 
Q 2709 -91 1959 -91 
Q 1206 -91 779 398 
Q 353 888 353 1747 
Q 353 2609 779 3096 
Q 1206 3584 1959 3584 
z
" id="DejaVuSans-6f" transform="scale(0.015625)"/>
       <path id="DejaVuSans-20" transform="scale(0.015625)"/>
       <path d="M 1984 4856 
Q 1566 4138 1362 3434 
Q 1159 2731 1159 2009 
Q 1159 1288 1364 580 
Q 1569 -128 1984 -844 
L 1484 -844 
Q 1016 -109 783 600 
Q 550 1309 550 2009 
Q 550 2706 781 3412 
Q 1013 4119 1484 4856 
L 1984 4856 
z
" id="DejaVuSans-28" transform="scale(0.015625)"/>
       <path d="M 2834 3397 
L 2834 2853 
Q 2591 2978 2328 3040 
Q 2066 3103 1784 3103 
Q 1356 3103 1142 2972 
Q 928 2841 928 2578 
Q 928 2378 1081 2264 
Q 1234 2150 1697 2047 
L 1894 2003 
Q 2506 1872 2764 1633 
Q 3022 1394 3022 966 
Q 3022 478 2636 193 
Q 2250 -91 1575 -91 
Q 1294 -91 989 -36 
Q 684 19 347 128 
L 347 722 
Q 666 556 975 473 
Q 1284 391 1588 391 
Q 1994 391 2212 530 
Q 2431 669 2431 922 
Q 2431 1156 2273 1281 
Q 2116 1406 1581 1522 
L 1381 1569 
Q 847 1681 609 1914 
Q 372 2147 372 2553 
Q 372 3047 722 3315 
Q 1072 3584 1716 3584 
Q 2034 3584 2315 3537 
Q 2597 3491 2834 3397 
z
" id="DejaVuSans-73" transform="scale(0.015625)"/>
       <path d="M 513 4856 
L 1013 4856 
Q 1481 4119 1714 3412 
Q 1947 2706 1947 2009 
Q 1947 1309 1714 600 
Q 1481 -109 1013 -844 
L 513 -844 
Q 928 -128 1133 580 
Q 1338 1288 1338 2009 
Q 1338 2731 1133 3434 
Q 928 4138 513 4856 
z
" id="DejaVuSans-29" transform="scale(0.015625)"/>
      </defs>
      <use xlink:href="#DejaVuSans-54"/>
      <use x="57.958984" xlink:href="#DejaVuSans-69"/>
      <use x="85.742188" xlink:href="#DejaVuSans-65"/>
      <use x="147.265625" xlink:href="#DejaVuSans-6d"/>
      <use x="244.677734" xlink:href="#DejaVuSans-70"/>
      <use x="308.154297" xlink:href="#DejaVuSans-6f"/>
      <use x="369.335938" xlink:href="#DejaVuSans-20"/>
      <use x="401.123047" xlink:href="#DejaVuSans-28"/>
      <use x="440.136719" xlink:href="#DejaVuSans-73"/>
      <use x="492.236328" xlink:href="#DejaVuSans-29"/>
     </g>
    </g>
   </g>
   <g id="matplotlib.axis_2">
    <g id="ytick_1">
     <g id="line2d_11">
      <path clip-path="url(#p74939ee303)" d="M 65.68 263.179091 
L 256.995 263.179091 
" style="fill:none;stroke:#b0b0b0;stroke-linecap:square;stroke-width:0.8;"/>
     </g>
     <g id="line2d_12">
      <defs>
       <path d="M 0 0 
L -3.5 0 
" id="md0e1b5b96d" style="stroke:#000000;stroke-width:0.8;"/>
      </defs>
      <g>
       <use style="stroke:#000000;stroke-width:0.8;" x="65.68" xlink:href="#md0e1b5b96d" y="263.179091"/>
      </g>
     </g>
     <g id="text_2">
      <!-- 0 -->
      <g transform="translate(52.3175 266.97831)scale(0.1 -0.1)">
       <defs>
        <path d="M 2034 4250 
Q 1547 4250 1301 3770 
Q 1056 3291 1056 2328 
Q 1056 1369 1301 889 
Q 1547 409 2034 409 
Q 2525 409 2770 889 
Q 3016 1369 3016 2328 
Q 3016 3291 2770 3770 
Q 2525 4250 2034 4250 
z
M 2034 4750 
Q 2819 4750 3233 4129 
Q 3647 3509 3647 2328 
Q 3647 1150 3233 529 
Q 2819 -91 2034 -91 
Q 1250 -91 836 529 
Q 422 1150 422 2328 
Q 422 3509 836 4129 
Q 1250 4750 2034 4750 
z
" id="DejaVuSans-30" transform="scale(0.015625)"/>
       </defs>
       <use xlink:href="#DejaVuSans-30"/>
      </g>
     </g>
    </g>
    <g id="ytick_2">
     <g id="line2d_13">
      <path clip-path="url(#p74939ee303)" d="M 65.68 241.26718 
L 256.995 241.26718 
" style="fill:none;stroke:#b0b0b0;stroke-linecap:square;stroke-width:0.8;"/>
     </g>
     <g id="line2d_14">
      <g>
       <use style="stroke:#000000;stroke-width:0.8;" x="65.68" xlink:href="#md0e1b5b96d" y="241.26718"/>
      </g>
     </g>
     <g id="text_3">
      <!-- 5 -->
      <g transform="translate(52.3175 245.066399)scale(0.1 -0.1)">
       <defs>
        <path d="M 691 4666 
L 3169 4666 
L 3169 4134 
L 1269 4134 
L 1269 2991 
Q 1406 3038 1543 3061 
Q 1681 3084 1819 3084 
Q 2600 3084 3056 2656 
Q 3513 2228 3513 1497 
Q 3513 744 3044 326 
Q 2575 -91 1722 -91 
Q 1428 -91 1123 -41 
Q 819 9 494 109 
L 494 744 
Q 775 591 1075 516 
Q 1375 441 1709 441 
Q 2250 441 2565 725 
Q 2881 1009 2881 1497 
Q 2881 1984 2565 2268 
Q 2250 2553 1709 2553 
Q 1456 2553 1204 2497 
Q 953 2441 691 2322 
L 691 4666 
z
" id="DejaVuSans-35" transform="scale(0.015625)"/>
       </defs>
       <use xlink:href="#DejaVuSans-35"/>
      </g>
     </g>
    </g>
    <g id="ytick_3">
     <g id="line2d_15">
      <path clip-path="url(#p74939ee303)" d="M 65.68 219.355269 
L 256.995 219.355269 
" style="fill:none;stroke:#b0b0b0;stroke-linecap:square;stroke-width:0.8;"/>
     </g>
     <g id="line2d_16">
      <g>
       <use style="stroke:#000000;stroke-width:0.8;" x="65.68" xlink:href="#md0e1b5b96d" y="219.355269"/>
      </g>
     </g>
     <g id="text_4">
      <!-- 10 -->
      <g transform="translate(45.955 223.154488)scale(0.1 -0.1)">
       <defs>
        <path d="M 794 531 
L 1825 531 
L 1825 4091 
L 703 3866 
L 703 4441 
L 1819 4666 
L 2450 4666 
L 2450 531 
L 3481 531 
L 3481 0 
L 794 0 
L 794 531 
z
" id="DejaVuSans-31" transform="scale(0.015625)"/>
       </defs>
       <use xlink:href="#DejaVuSans-31"/>
       <use x="63.623047" xlink:href="#DejaVuSans-30"/>
      </g>
     </g>
    </g>
    <g id="ytick_4">
     <g id="line2d_17">
      <path clip-path="url(#p74939ee303)" d="M 65.68 197.443358 
L 256.995 197.443358 
" style="fill:none;stroke:#b0b0b0;stroke-linecap:square;stroke-width:0.8;"/>
     </g>
     <g id="line2d_18">
      <g>
       <use style="stroke:#000000;stroke-width:0.8;" x="65.68" xlink:href="#md0e1b5b96d" y="197.443358"/>
      </g>
     </g>
     <g id="text_5">
      <!-- 15 -->
      <g transform="translate(45.955 201.242577)scale(0.1 -0.1)">
       <use xlink:href="#DejaVuSans-31"/>
       <use x="63.623047" xlink:href="#DejaVuSans-35"/>
      </g>
     </g>
    </g>
    <g id="ytick_5">
     <g id="line2d_19">
      <path clip-path="url(#p74939ee303)" d="M 65.68 175.531447 
L 256.995 175.531447 
" style="fill:none;stroke:#b0b0b0;stroke-linecap:square;stroke-width:0.8;"/>
     </g>
     <g id="line2d_20">
      <g>
       <use style="stroke:#000000;stroke-width:0.8;" x="65.68" xlink:href="#md0e1b5b96d" y="175.531447"/>
      </g>
     </g>
     <g id="text_6">
      <!-- 20 -->
      <g transform="translate(45.955 179.330666)scale(0.1 -0.1)">
       <defs>
        <path d="M 1228 531 
L 3431 531 
L 3431 0 
L 469 0 
L 469 531 
Q 828 903 1448 1529 
Q 2069 2156 2228 2338 
Q 2531 2678 2651 2914 
Q 2772 3150 2772 3378 
Q 2772 3750 2511 3984 
Q 2250 4219 1831 4219 
Q 1534 4219 1204 4116 
Q 875 4013 500 3803 
L 500 4441 
Q 881 4594 1212 4672 
Q 1544 4750 1819 4750 
Q 2544 4750 2975 4387 
Q 3406 4025 3406 3419 
Q 3406 3131 3298 2873 
Q 3191 2616 2906 2266 
Q 2828 2175 2409 1742 
Q 1991 1309 1228 531 
z
" id="DejaVuSans-32" transform="scale(0.015625)"/>
       </defs>
       <use xlink:href="#DejaVuSans-32"/>
       <use x="63.623047" xlink:href="#DejaVuSans-30"/>
      </g>
     </g>
    </g>
    <g id="ytick_6">
     <g id="line2d_21">
      <path clip-path="url(#p74939ee303)" d="M 65.68 153.619536 
L 256.995 153.619536 
" style="fill:none;stroke:#b0b0b0;stroke-linecap:square;stroke-width:0.8;"/>
     </g>
     <g id="line2d_22">
      <g>
       <use style="stroke:#000000;stroke-width:0.8;" x="65.68" xlink:href="#md0e1b5b96d" y="153.619536"/>
      </g>
     </g>
     <g id="text_7">
      <!-- 25 -->
      <g transform="translate(45.955 157.418755)scale(0.1 -0.1)">
       <use xlink:href="#DejaVuSans-32"/>
       <use x="63.623047" xlink:href="#DejaVuSans-35"/>
      </g>
     </g>
    </g>
    <g id="ytick_7">
     <g id="line2d_23">
      <path clip-path="url(#p74939ee303)" d="M 65.68 131.707625 
L 256.995 131.707625 
" style="fill:none;stroke:#b0b0b0;stroke-linecap:square;stroke-width:0.8;"/>
     </g>
     <g id="line2d_24">
      <g>
       <use style="stroke:#000000;stroke-width:0.8;" x="65.68" xlink:href="#md0e1b5b96d" y="131.707625"/>
      </g>
     </g>
     <g id="text_8">
      <!-- 30 -->
      <g transform="translate(45.955 135.506844)scale(0.1 -0.1)">
       <defs>
        <path d="M 2597 2516 
Q 3050 2419 3304 2112 
Q 3559 1806 3559 1356 
Q 3559 666 3084 287 
Q 2609 -91 1734 -91 
Q 1441 -91 1130 -33 
Q 819 25 488 141 
L 488 750 
Q 750 597 1062 519 
Q 1375 441 1716 441 
Q 2309 441 2620 675 
Q 2931 909 2931 1356 
Q 2931 1769 2642 2001 
Q 2353 2234 1838 2234 
L 1294 2234 
L 1294 2753 
L 1863 2753 
Q 2328 2753 2575 2939 
Q 2822 3125 2822 3475 
Q 2822 3834 2567 4026 
Q 2313 4219 1838 4219 
Q 1578 4219 1281 4162 
Q 984 4106 628 3988 
L 628 4550 
Q 988 4650 1302 4700 
Q 1616 4750 1894 4750 
Q 2613 4750 3031 4423 
Q 3450 4097 3450 3541 
Q 3450 3153 3228 2886 
Q 3006 2619 2597 2516 
z
" id="DejaVuSans-33" transform="scale(0.015625)"/>
       </defs>
       <use xlink:href="#DejaVuSans-33"/>
       <use x="63.623047" xlink:href="#DejaVuSans-30"/>
      </g>
     </g>
    </g>
    <g id="ytick_8">
     <g id="line2d_25">
      <path clip-path="url(#p74939ee303)" d="M 65.68 109.795714 
L 256.995 109.795714 
" style="fill:none;stroke:#b0b0b0;stroke-linecap:square;stroke-width:0.8;"/>
     </g>
     <g id="line2d_26">
      <g>
       <use style="stroke:#000000;stroke-width:0.8;" x="65.68" xlink:href="#md0e1b5b96d" y="109.795714"/>
      </g>
     </g>
     <g id="text_9">
      <!-- 35 -->
      <g transform="translate(45.955 113.594933)scale(0.1 -0.1)">
       <use xlink:href="#DejaVuSans-33"/>
       <use x="63.623047" xlink:href="#DejaVuSans-35"/>
      </g>
     </g>
    </g>
    <g id="ytick_9">
     <g id="line2d_27">
      <path clip-path="url(#p74939ee303)" d="M 65.68 87.883803 
L 256.995 87.883803 
" style="fill:none;stroke:#b0b0b0;stroke-linecap:square;stroke-width:0.8;"/>
     </g>
     <g id="line2d_28">
      <g>
       <use style="stroke:#000000;stroke-width:0.8;" x="65.68" xlink:href="#md0e1b5b96d" y="87.883803"/>
      </g>
     </g>
     <g id="text_10">
      <!-- 40 -->
      <g transform="translate(45.955 91.683022)scale(0.1 -0.1)">
       <defs>
        <path d="M 2419 4116 
L 825 1625 
L 2419 1625 
L 2419 4116 
z
M 2253 4666 
L 3047 4666 
L 3047 1625 
L 3713 1625 
L 3713 1100 
L 3047 1100 
L 3047 0 
L 2419 0 
L 2419 1100 
L 313 1100 
L 313 1709 
L 2253 4666 
z
" id="DejaVuSans-34" transform="scale(0.015625)"/>
       </defs>
       <use xlink:href="#DejaVuSans-34"/>
       <use x="63.623047" xlink:href="#DejaVuSans-30"/>
      </g>
     </g>
    </g>
   </g>
   <g id="line2d_29">
    <path clip-path="url(#p74939ee303)" d="M 74.376136 263.179091 
L 118.010844 263.179091 
L 120.547746 233.829818 
L 121.490024 225.462537 
L 122.251094 220.46594 
L 122.939682 217.313822 
L 123.555786 215.459764 
L 124.13565 214.377239 
L 124.715513 213.759684 
L 125.331618 213.427398 
L 126.273895 213.208116 
L 128.122209 212.781944 
L 129.970523 212.33342 
L 131.782596 212.04918 
L 132.833598 211.542978 
L 134.464463 210.471731 
L 138.233574 207.969904 
L 142.87248 204.913501 
L 147.837559 201.687971 
L 153.817399 198.091548 
L 159.253617 195.088063 
L 164.907283 192.216133 
L 170.742157 189.502535 
L 176.794479 186.933212 
L 183.100492 184.498562 
L 189.696436 182.192209 
L 196.582312 180.021301 
L 203.830602 177.971177 
L 211.477549 176.042061 
L 219.559392 174.235179 
L 228.148616 172.545576 
L 237.281462 170.977574 
L 247.102896 169.519671 
L 248.298864 169.356701 
L 248.298864 169.356701 
" style="fill:none;stroke:#1f77b4;stroke-linecap:square;stroke-opacity:0.7;stroke-width:1.5;"/>
   </g>
   <g id="line2d_30">
    <path clip-path="url(#p74939ee303)" d="M 74.376136 263.179091 
L 77.782833 263.068495 
L 78.688869 262.807615 
L 79.44994 262.351057 
L 80.174769 261.651727 
L 80.972081 260.562598 
L 81.9506 258.82336 
L 85.574745 251.964442 
L 86.589506 250.761203 
L 87.821715 249.672998 
L 90.286134 247.573881 
L 91.663309 246.034579 
L 93.69283 243.371882 
L 96.012283 240.443313 
L 99.745153 235.970336 
L 101.339777 233.512415 
L 109.349137 220.14619 
L 113.589387 212.865918 
L 115.727633 209.763173 
L 118.010844 206.418876 
L 120.728953 170.667245 
L 121.671231 161.323722 
L 122.468543 155.474508 
L 123.193372 151.72022 
L 123.88196 149.261216 
L 124.64303 147.364213 
L 125.947722 144.85352 
L 127.506105 141.661764 
L 129.173212 138.319838 
L 130.006765 137.130319 
L 130.695352 136.504529 
L 131.311457 136.220318 
L 132.072528 136.14046 
L 132.86984 135.92765 
L 134.247015 135.279459 
L 138.37854 133.047001 
L 139.755715 131.919257 
L 142.292617 129.760338 
L 143.198653 129.326809 
L 144.068448 129.161761 
L 145.590589 128.973189 
L 147.692593 128.584067 
L 148.743595 128.458945 
L 149.685873 128.093155 
L 150.8456 127.381843 
L 157.550268 122.824294 
L 160.377102 120.911247 
L 162.877762 119.237153 
L 164.001247 118.765142 
L 165.08849 118.554704 
L 168.277738 118.384771 
L 169.618672 118.271176 
L 170.850881 117.930651 
L 172.916644 117.076813 
L 175.272338 116.196468 
L 178.606552 115.251161 
L 182.520629 114.326179 
L 187.775639 113.144828 
L 189.913885 112.390681 
L 192.124613 111.362877 
L 194.733998 109.894789 
L 197.198417 108.258766 
L 201.293701 105.434751 
L 202.417186 105.015317 
L 203.540671 104.829093 
L 206.222538 104.540104 
L 209.158096 103.792061 
L 213.072172 102.898356 
L 216.587593 102.360682 
L 218.943288 101.870404 
L 222.168777 101.121577 
L 224.089574 100.872076 
L 225.176817 100.412986 
L 226.626475 99.53508 
L 231.73652 96.259364 
L 233.874766 94.807869 
L 237.136496 92.49263 
L 238.078774 92.16533 
L 239.021052 92.082344 
L 240.035813 91.917119 
L 243.696199 91.077744 
L 244.674718 90.892219 
L 245.943169 90.394023 
L 247.827725 89.659678 
L 248.298864 89.560909 
L 248.298864 89.560909 
" style="fill:none;stroke:#d62728;stroke-linecap:square;stroke-opacity:0.7;stroke-width:1.5;"/>
   </g>
   <g id="patch_3">
    <path d="M 65.68 271.86 
L 65.68 80.88 
" style="fill:none;stroke:#000000;stroke-linecap:square;stroke-linejoin:miter;stroke-width:0.8;"/>
   </g>
   <g id="patch_4">
    <path d="M 256.995 271.86 
L 256.995 80.88 
" style="fill:none;stroke:#000000;stroke-linecap:square;stroke-linejoin:miter;stroke-width:0.8;"/>
   </g>
   <g id="patch_5">
    <path d="M 65.68 271.86 
L 256.995 271.86 
" style="fill:none;stroke:#000000;stroke-linecap:square;stroke-linejoin:miter;stroke-width:0.8;"/>
   </g>
   <g id="patch_6">
    <path d="M 65.68 80.88 
L 256.995 80.88 
" style="fill:none;stroke:#000000;stroke-linecap:square;stroke-linejoin:miter;stroke-width:0.8;"/>
   </g>
   <g id="text_11">
    <!-- x (m) -->
    <g transform="translate(145.353125 74.88)scale(0.12 -0.12)">
     <defs>
      <path d="M 3513 3500 
L 2247 1797 
L 3578 0 
L 2900 0 
L 1881 1375 
L 863 0 
L 184 0 
L 1544 1831 
L 300 3500 
L 978 3500 
L 1906 2253 
L 2834 3500 
L 3513 3500 
z
" id="DejaVuSans-78" transform="scale(0.015625)"/>
     </defs>
     <use xlink:href="#DejaVuSans-78"/>
     <use x="59.179688" xlink:href="#DejaVuSans-20"/>
     <use x="90.966797" xlink:href="#DejaVuSans-28"/>
     <use x="129.980469" xlink:href="#DejaVuSans-6d"/>
     <use x="227.392578" xlink:href="#DejaVuSans-29"/>
    </g>
   </g>
  </g>
  <g id="axes_2">
   <g id="patch_7">
    <path d="M 287.485 271.86 
L 478.8 271.86 
L 478.8 80.88 
L 287.485 80.88 
z
" style="fill:#ffffff;"/>
   </g>
   <g id="matplotlib.axis_3">
    <g id="xtick_6">
     <g id="line2d_31">
      <path clip-path="url(#p1de50439e2)" d="M 296.181136 271.86 
L 296.181136 80.88 
" style="fill:none;stroke:#b0b0b0;stroke-linecap:square;stroke-width:0.8;"/>
     </g>
     <g id="line2d_32">
      <g>
       <use style="stroke:#000000;stroke-width:0.8;" x="296.181136" xlink:href="#ma34127195b" y="271.86"/>
      </g>
     </g>
    </g>
    <g id="xtick_7">
     <g id="line2d_33">
      <path clip-path="url(#p1de50439e2)" d="M 339.670879 271.86 
L 339.670879 80.88 
" style="fill:none;stroke:#b0b0b0;stroke-linecap:square;stroke-width:0.8;"/>
     </g>
     <g id="line2d_34">
      <g>
       <use style="stroke:#000000;stroke-width:0.8;" x="339.670879" xlink:href="#ma34127195b" y="271.86"/>
      </g>
     </g>
    </g>
    <g id="xtick_8">
     <g id="line2d_35">
      <path clip-path="url(#p1de50439e2)" d="M 383.160621 271.86 
L 383.160621 80.88 
" style="fill:none;stroke:#b0b0b0;stroke-linecap:square;stroke-width:0.8;"/>
     </g>
     <g id="line2d_36">
      <g>
       <use style="stroke:#000000;stroke-width:0.8;" x="383.160621" xlink:href="#ma34127195b" y="271.86"/>
      </g>
     </g>
    </g>
    <g id="xtick_9">
     <g id="line2d_37">
      <path clip-path="url(#p1de50439e2)" d="M 426.650363 271.86 
L 426.650363 80.88 
" style="fill:none;stroke:#b0b0b0;stroke-linecap:square;stroke-width:0.8;"/>
     </g>
     <g id="line2d_38">
      <g>
       <use style="stroke:#000000;stroke-width:0.8;" x="426.650363" xlink:href="#ma34127195b" y="271.86"/>
      </g>
     </g>
    </g>
    <g id="xtick_10">
     <g id="line2d_39">
      <path clip-path="url(#p1de50439e2)" d="M 470.140105 271.86 
L 470.140105 80.88 
" style="fill:none;stroke:#b0b0b0;stroke-linecap:square;stroke-width:0.8;"/>
     </g>
     <g id="line2d_40">
      <g>
       <use style="stroke:#000000;stroke-width:0.8;" x="470.140105" xlink:href="#ma34127195b" y="271.86"/>
      </g>
     </g>
    </g>
    <g id="text_12">
     <!-- Tiempo (s) -->
     <g transform="translate(356.58 283.458437)scale(0.1 -0.1)">
      <use xlink:href="#DejaVuSans-54"/>
      <use x="57.958984" xlink:href="#DejaVuSans-69"/>
      <use x="85.742188" xlink:href="#DejaVuSans-65"/>
      <use x="147.265625" xlink:href="#DejaVuSans-6d"/>
      <use x="244.677734" xlink:href="#DejaVuSans-70"/>
      <use x="308.154297" xlink:href="#DejaVuSans-6f"/>
      <use x="369.335938" xlink:href="#DejaVuSans-20"/>
      <use x="401.123047" xlink:href="#DejaVuSans-28"/>
      <use x="440.136719" xlink:href="#DejaVuSans-73"/>
      <use x="492.236328" xlink:href="#DejaVuSans-29"/>
     </g>
    </g>
   </g>
   <g id="matplotlib.axis_4">
    <g id="ytick_10">
     <g id="line2d_41">
      <path clip-path="url(#p1de50439e2)" d="M 287.485 263.179091 
L 478.8 263.179091 
" style="fill:none;stroke:#b0b0b0;stroke-linecap:square;stroke-width:0.8;"/>
     </g>
     <g id="line2d_42">
      <g>
       <use style="stroke:#000000;stroke-width:0.8;" x="287.485" xlink:href="#md0e1b5b96d" y="263.179091"/>
      </g>
     </g>
     <g id="text_13">
      <!-- 0 -->
      <g transform="translate(274.1225 266.97831)scale(0.1 -0.1)">
       <use xlink:href="#DejaVuSans-30"/>
      </g>
     </g>
    </g>
    <g id="ytick_11">
     <g id="line2d_43">
      <path clip-path="url(#p1de50439e2)" d="M 287.485 228.688278 
L 478.8 228.688278 
" style="fill:none;stroke:#b0b0b0;stroke-linecap:square;stroke-width:0.8;"/>
     </g>
     <g id="line2d_44">
      <g>
       <use style="stroke:#000000;stroke-width:0.8;" x="287.485" xlink:href="#md0e1b5b96d" y="228.688278"/>
      </g>
     </g>
     <g id="text_14">
      <!-- 5 -->
      <g transform="translate(274.1225 232.487497)scale(0.1 -0.1)">
       <use xlink:href="#DejaVuSans-35"/>
      </g>
     </g>
    </g>
    <g id="ytick_12">
     <g id="line2d_45">
      <path clip-path="url(#p1de50439e2)" d="M 287.485 194.197465 
L 478.8 194.197465 
" style="fill:none;stroke:#b0b0b0;stroke-linecap:square;stroke-width:0.8;"/>
     </g>
     <g id="line2d_46">
      <g>
       <use style="stroke:#000000;stroke-width:0.8;" x="287.485" xlink:href="#md0e1b5b96d" y="194.197465"/>
      </g>
     </g>
     <g id="text_15">
      <!-- 10 -->
      <g transform="translate(267.76 197.996684)scale(0.1 -0.1)">
       <use xlink:href="#DejaVuSans-31"/>
       <use x="63.623047" xlink:href="#DejaVuSans-30"/>
      </g>
     </g>
    </g>
    <g id="ytick_13">
     <g id="line2d_47">
      <path clip-path="url(#p1de50439e2)" d="M 287.485 159.706652 
L 478.8 159.706652 
" style="fill:none;stroke:#b0b0b0;stroke-linecap:square;stroke-width:0.8;"/>
     </g>
     <g id="line2d_48">
      <g>
       <use style="stroke:#000000;stroke-width:0.8;" x="287.485" xlink:href="#md0e1b5b96d" y="159.706652"/>
      </g>
     </g>
     <g id="text_16">
      <!-- 15 -->
      <g transform="translate(267.76 163.505871)scale(0.1 -0.1)">
       <use xlink:href="#DejaVuSans-31"/>
       <use x="63.623047" xlink:href="#DejaVuSans-35"/>
      </g>
     </g>
    </g>
    <g id="ytick_14">
     <g id="line2d_49">
      <path clip-path="url(#p1de50439e2)" d="M 287.485 125.215839 
L 478.8 125.215839 
" style="fill:none;stroke:#b0b0b0;stroke-linecap:square;stroke-width:0.8;"/>
     </g>
     <g id="line2d_50">
      <g>
       <use style="stroke:#000000;stroke-width:0.8;" x="287.485" xlink:href="#md0e1b5b96d" y="125.215839"/>
      </g>
     </g>
     <g id="text_17">
      <!-- 20 -->
      <g transform="translate(267.76 129.015058)scale(0.1 -0.1)">
       <use xlink:href="#DejaVuSans-32"/>
       <use x="63.623047" xlink:href="#DejaVuSans-30"/>
      </g>
     </g>
    </g>
    <g id="ytick_15">
     <g id="line2d_51">
      <path clip-path="url(#p1de50439e2)" d="M 287.485 90.725026 
L 478.8 90.725026 
" style="fill:none;stroke:#b0b0b0;stroke-linecap:square;stroke-width:0.8;"/>
     </g>
     <g id="line2d_52">
      <g>
       <use style="stroke:#000000;stroke-width:0.8;" x="287.485" xlink:href="#md0e1b5b96d" y="90.725026"/>
      </g>
     </g>
     <g id="text_18">
      <!-- 25 -->
      <g transform="translate(267.76 94.524245)scale(0.1 -0.1)">
       <use xlink:href="#DejaVuSans-32"/>
       <use x="63.623047" xlink:href="#DejaVuSans-35"/>
      </g>
     </g>
    </g>
   </g>
   <g id="line2d_53">
    <path clip-path="url(#p1de50439e2)" d="M 296.181136 263.179091 
L 339.815844 263.179091 
L 342.316505 217.606716 
L 343.258782 204.417093 
L 344.019853 196.581958 
L 344.672199 191.893172 
L 345.288304 188.974232 
L 345.831925 187.374716 
L 346.339306 186.492746 
L 346.846686 186.011302 
L 347.462791 185.733904 
L 349.963451 184.901048 
L 351.558075 184.212217 
L 352.391628 184.120321 
L 353.116457 183.946371 
L 353.877528 183.526441 
L 354.819805 182.737914 
L 356.414429 181.057609 
L 359.313745 178.039384 
L 364.133859 173.154383 
L 368.809006 168.381568 
L 374.064016 163.395622 
L 378.666681 159.323274 
L 383.523035 155.32523 
L 388.37939 151.61325 
L 393.38071 148.068954 
L 398.526996 144.695395 
L 403.818248 141.494001 
L 409.254466 138.465064 
L 414.871891 135.589928 
L 420.706765 132.854965 
L 426.759087 130.265618 
L 433.028858 127.825461 
L 439.588561 125.512015 
L 446.438196 123.332712 
L 453.650245 121.27297 
L 461.260949 119.333216 
L 469.306552 117.514895 
L 470.103864 117.346642 
L 470.103864 117.346642 
" style="fill:none;stroke:#1f77b4;stroke-linecap:square;stroke-opacity:0.7;stroke-width:1.5;"/>
   </g>
   <g id="line2d_54">
    <path clip-path="url(#p1de50439e2)" d="M 296.181136 263.179091 
L 299.914006 263.068209 
L 301.001249 262.798649 
L 301.907286 262.347622 
L 302.777081 261.662186 
L 303.7556 260.5848 
L 305.205258 258.597036 
L 306.872365 256.415308 
L 307.99585 255.318428 
L 309.2643 254.414352 
L 311.909926 252.618852 
L 314.99045 250.275506 
L 315.824003 250.000095 
L 317.636076 249.59906 
L 318.650836 248.961046 
L 321.006531 247.387644 
L 321.912567 247.103259 
L 323.036052 247.022131 
L 324.594435 246.746063 
L 326.007851 246.598357 
L 327.167578 246.484067 
L 332.495071 245.367268 
L 334.633317 244.573472 
L 336.844045 244.069534 
L 337.822565 243.408023 
L 339.815844 241.813375 
L 342.71516 190.598208 
L 343.621197 178.872815 
L 344.382267 171.743593 
L 345.034613 167.552936 
L 345.614477 165.099722 
L 346.19434 163.566844 
L 346.774203 162.659352 
L 347.462791 162.021224 
L 350.108417 159.917245 
L 351.086936 159.240488 
L 351.775523 159.032076 
L 352.790284 158.832298 
L 353.623837 158.346097 
L 355.254703 157.35582 
L 355.907049 157.240142 
L 356.523154 157.115053 
L 357.1755 156.731503 
L 357.972812 155.970489 
L 359.349987 154.267834 
L 360.690921 152.740158 
L 361.66944 151.953538 
L 362.720442 151.403362 
L 364.749963 150.424813 
L 365.619758 149.684552 
L 366.562036 148.561609 
L 367.975452 146.462145 
L 369.678801 144.024462 
L 370.693561 142.943292 
L 371.635839 142.247173 
L 372.759324 141.706409 
L 374.861328 140.750124 
L 375.91233 139.967745 
L 377.14454 138.742786 
L 380.877409 134.810769 
L 385.697522 130.544351 
L 388.596838 127.476007 
L 389.575358 126.807169 
L 390.445153 126.468537 
L 391.351189 126.355091 
L 392.764605 126.234961 
L 396.026336 125.716227 
L 397.512236 124.98765 
L 399.288067 124.173304 
L 400.447793 123.890219 
L 401.86121 123.794176 
L 403.890731 123.647563 
L 405.086699 123.31283 
L 406.463874 122.674416 
L 409.870571 120.973638 
L 411.573919 120.486538 
L 413.385992 119.921199 
L 414.545718 119.310811 
L 415.741686 118.418681 
L 417.33631 116.91903 
L 421.431594 112.959041 
L 424.475876 110.409503 
L 425.780568 109.597654 
L 426.867812 109.171994 
L 427.991297 108.970958 
L 429.912094 108.913056 
L 431.253027 108.750841 
L 432.304029 108.402682 
L 433.427514 107.785706 
L 435.203346 106.497642 
L 436.580521 105.621637 
L 437.486557 105.306112 
L 440.095942 104.70403 
L 441.219427 104.397456 
L 442.56036 104.139153 
L 443.321431 103.658237 
L 444.29995 102.751559 
L 447.163025 99.930231 
L 448.28651 99.232005 
L 449.772409 98.599132 
L 451.946896 97.64969 
L 454.121383 96.387584 
L 455.897215 95.460799 
L 457.238148 95.0114 
L 459.303911 94.607432 
L 460.53612 94.236089 
L 461.587122 93.675116 
L 462.819332 92.740476 
L 465.102543 90.964492 
L 466.044821 90.541225 
L 466.914616 90.393072 
L 468.110584 90.249904 
L 469.487759 89.795052 
L 470.103864 89.560909 
L 470.103864 89.560909 
" style="fill:none;stroke:#d62728;stroke-linecap:square;stroke-opacity:0.7;stroke-width:1.5;"/>
   </g>
   <g id="patch_8">
    <path d="M 287.485 271.86 
L 287.485 80.88 
" style="fill:none;stroke:#000000;stroke-linecap:square;stroke-linejoin:miter;stroke-width:0.8;"/>
   </g>
   <g id="patch_9">
    <path d="M 478.8 271.86 
L 478.8 80.88 
" style="fill:none;stroke:#000000;stroke-linecap:square;stroke-linejoin:miter;stroke-width:0.8;"/>
   </g>
   <g id="patch_10">
    <path d="M 287.485 271.86 
L 478.8 271.86 
" style="fill:none;stroke:#000000;stroke-linecap:square;stroke-linejoin:miter;stroke-width:0.8;"/>
   </g>
   <g id="patch_11">
    <path d="M 287.485 80.88 
L 478.8 80.88 
" style="fill:none;stroke:#000000;stroke-linecap:square;stroke-linejoin:miter;stroke-width:0.8;"/>
   </g>
   <g id="text_19">
    <!-- y (m) -->
    <g transform="translate(367.158125 74.88)scale(0.12 -0.12)">
     <defs>
      <path d="M 2059 -325 
Q 1816 -950 1584 -1140 
Q 1353 -1331 966 -1331 
L 506 -1331 
L 506 -850 
L 844 -850 
Q 1081 -850 1212 -737 
Q 1344 -625 1503 -206 
L 1606 56 
L 191 3500 
L 800 3500 
L 1894 763 
L 2988 3500 
L 3597 3500 
L 2059 -325 
z
" id="DejaVuSans-79" transform="scale(0.015625)"/>
     </defs>
     <use xlink:href="#DejaVuSans-79"/>
     <use x="59.179688" xlink:href="#DejaVuSans-20"/>
     <use x="90.966797" xlink:href="#DejaVuSans-28"/>
     <use x="129.980469" xlink:href="#DejaVuSans-6d"/>
     <use x="227.392578" xlink:href="#DejaVuSans-29"/>
    </g>
   </g>
  </g>
  <g id="axes_3">
   <g id="patch_12">
    <path d="M 65.68 505.24 
L 256.995 505.24 
L 256.995 314.26 
L 65.68 314.26 
z
" style="fill:#ffffff;"/>
   </g>
   <g id="matplotlib.axis_5">
    <g id="xtick_11">
     <g id="line2d_55">
      <path clip-path="url(#p584f365c29)" d="M 74.376136 505.24 
L 74.376136 314.26 
" style="fill:none;stroke:#b0b0b0;stroke-linecap:square;stroke-width:0.8;"/>
     </g>
     <g id="line2d_56">
      <g>
       <use style="stroke:#000000;stroke-width:0.8;" x="74.376136" xlink:href="#ma34127195b" y="505.24"/>
      </g>
     </g>
     <g id="text_20">
      <!-- 0 -->
      <g transform="translate(71.194886 519.838438)scale(0.1 -0.1)">
       <use xlink:href="#DejaVuSans-30"/>
      </g>
     </g>
    </g>
    <g id="xtick_12">
     <g id="line2d_57">
      <path clip-path="url(#p584f365c29)" d="M 117.865879 505.24 
L 117.865879 314.26 
" style="fill:none;stroke:#b0b0b0;stroke-linecap:square;stroke-width:0.8;"/>
     </g>
     <g id="line2d_58">
      <g>
       <use style="stroke:#000000;stroke-width:0.8;" x="117.865879" xlink:href="#ma34127195b" y="505.24"/>
      </g>
     </g>
     <g id="text_21">
      <!-- 5 -->
      <g transform="translate(114.684629 519.838438)scale(0.1 -0.1)">
       <use xlink:href="#DejaVuSans-35"/>
      </g>
     </g>
    </g>
    <g id="xtick_13">
     <g id="line2d_59">
      <path clip-path="url(#p584f365c29)" d="M 161.355621 505.24 
L 161.355621 314.26 
" style="fill:none;stroke:#b0b0b0;stroke-linecap:square;stroke-width:0.8;"/>
     </g>
     <g id="line2d_60">
      <g>
       <use style="stroke:#000000;stroke-width:0.8;" x="161.355621" xlink:href="#ma34127195b" y="505.24"/>
      </g>
     </g>
     <g id="text_22">
      <!-- 10 -->
      <g transform="translate(154.993121 519.838438)scale(0.1 -0.1)">
       <use xlink:href="#DejaVuSans-31"/>
       <use x="63.623047" xlink:href="#DejaVuSans-30"/>
      </g>
     </g>
    </g>
    <g id="xtick_14">
     <g id="line2d_61">
      <path clip-path="url(#p584f365c29)" d="M 204.845363 505.24 
L 204.845363 314.26 
" style="fill:none;stroke:#b0b0b0;stroke-linecap:square;stroke-width:0.8;"/>
     </g>
     <g id="line2d_62">
      <g>
       <use style="stroke:#000000;stroke-width:0.8;" x="204.845363" xlink:href="#ma34127195b" y="505.24"/>
      </g>
     </g>
     <g id="text_23">
      <!-- 15 -->
      <g transform="translate(198.482863 519.838438)scale(0.1 -0.1)">
       <use xlink:href="#DejaVuSans-31"/>
       <use x="63.623047" xlink:href="#DejaVuSans-35"/>
      </g>
     </g>
    </g>
    <g id="xtick_15">
     <g id="line2d_63">
      <path clip-path="url(#p584f365c29)" d="M 248.335105 505.24 
L 248.335105 314.26 
" style="fill:none;stroke:#b0b0b0;stroke-linecap:square;stroke-width:0.8;"/>
     </g>
     <g id="line2d_64">
      <g>
       <use style="stroke:#000000;stroke-width:0.8;" x="248.335105" xlink:href="#ma34127195b" y="505.24"/>
      </g>
     </g>
     <g id="text_24">
      <!-- 20 -->
      <g transform="translate(241.972605 519.838438)scale(0.1 -0.1)">
       <use xlink:href="#DejaVuSans-32"/>
       <use x="63.623047" xlink:href="#DejaVuSans-30"/>
      </g>
     </g>
    </g>
    <g id="text_25">
     <!-- Tiempo (s) -->
     <g transform="translate(134.775 533.516562)scale(0.1 -0.1)">
      <use xlink:href="#DejaVuSans-54"/>
      <use x="57.958984" xlink:href="#DejaVuSans-69"/>
      <use x="85.742188" xlink:href="#DejaVuSans-65"/>
      <use x="147.265625" xlink:href="#DejaVuSans-6d"/>
      <use x="244.677734" xlink:href="#DejaVuSans-70"/>
      <use x="308.154297" xlink:href="#DejaVuSans-6f"/>
      <use x="369.335938" xlink:href="#DejaVuSans-20"/>
      <use x="401.123047" xlink:href="#DejaVuSans-28"/>
      <use x="440.136719" xlink:href="#DejaVuSans-73"/>
      <use x="492.236328" xlink:href="#DejaVuSans-29"/>
     </g>
    </g>
   </g>
   <g id="matplotlib.axis_6">
    <g id="ytick_16">
     <g id="line2d_65">
      <path clip-path="url(#p584f365c29)" d="M 65.68 496.559278 
L 256.995 496.559278 
" style="fill:none;stroke:#b0b0b0;stroke-linecap:square;stroke-width:0.8;"/>
     </g>
     <g id="line2d_66">
      <g>
       <use style="stroke:#000000;stroke-width:0.8;" x="65.68" xlink:href="#md0e1b5b96d" y="496.559278"/>
      </g>
     </g>
     <g id="text_26">
      <!-- 0 -->
      <g transform="translate(52.3175 500.358496)scale(0.1 -0.1)">
       <use xlink:href="#DejaVuSans-30"/>
      </g>
     </g>
    </g>
    <g id="ytick_17">
     <g id="line2d_67">
      <path clip-path="url(#p584f365c29)" d="M 65.68 474.608125 
L 256.995 474.608125 
" style="fill:none;stroke:#b0b0b0;stroke-linecap:square;stroke-width:0.8;"/>
     </g>
     <g id="line2d_68">
      <g>
       <use style="stroke:#000000;stroke-width:0.8;" x="65.68" xlink:href="#md0e1b5b96d" y="474.608125"/>
      </g>
     </g>
     <g id="text_27">
      <!-- 20 -->
      <g transform="translate(45.955 478.407344)scale(0.1 -0.1)">
       <use xlink:href="#DejaVuSans-32"/>
       <use x="63.623047" xlink:href="#DejaVuSans-30"/>
      </g>
     </g>
    </g>
    <g id="ytick_18">
     <g id="line2d_69">
      <path clip-path="url(#p584f365c29)" d="M 65.68 452.656972 
L 256.995 452.656972 
" style="fill:none;stroke:#b0b0b0;stroke-linecap:square;stroke-width:0.8;"/>
     </g>
     <g id="line2d_70">
      <g>
       <use style="stroke:#000000;stroke-width:0.8;" x="65.68" xlink:href="#md0e1b5b96d" y="452.656972"/>
      </g>
     </g>
     <g id="text_28">
      <!-- 40 -->
      <g transform="translate(45.955 456.456191)scale(0.1 -0.1)">
       <use xlink:href="#DejaVuSans-34"/>
       <use x="63.623047" xlink:href="#DejaVuSans-30"/>
      </g>
     </g>
    </g>
    <g id="ytick_19">
     <g id="line2d_71">
      <path clip-path="url(#p584f365c29)" d="M 65.68 430.705819 
L 256.995 430.705819 
" style="fill:none;stroke:#b0b0b0;stroke-linecap:square;stroke-width:0.8;"/>
     </g>
     <g id="line2d_72">
      <g>
       <use style="stroke:#000000;stroke-width:0.8;" x="65.68" xlink:href="#md0e1b5b96d" y="430.705819"/>
      </g>
     </g>
     <g id="text_29">
      <!-- 60 -->
      <g transform="translate(45.955 434.505038)scale(0.1 -0.1)">
       <defs>
        <path d="M 2113 2584 
Q 1688 2584 1439 2293 
Q 1191 2003 1191 1497 
Q 1191 994 1439 701 
Q 1688 409 2113 409 
Q 2538 409 2786 701 
Q 3034 994 3034 1497 
Q 3034 2003 2786 2293 
Q 2538 2584 2113 2584 
z
M 3366 4563 
L 3366 3988 
Q 3128 4100 2886 4159 
Q 2644 4219 2406 4219 
Q 1781 4219 1451 3797 
Q 1122 3375 1075 2522 
Q 1259 2794 1537 2939 
Q 1816 3084 2150 3084 
Q 2853 3084 3261 2657 
Q 3669 2231 3669 1497 
Q 3669 778 3244 343 
Q 2819 -91 2113 -91 
Q 1303 -91 875 529 
Q 447 1150 447 2328 
Q 447 3434 972 4092 
Q 1497 4750 2381 4750 
Q 2619 4750 2861 4703 
Q 3103 4656 3366 4563 
z
" id="DejaVuSans-36" transform="scale(0.015625)"/>
       </defs>
       <use xlink:href="#DejaVuSans-36"/>
       <use x="63.623047" xlink:href="#DejaVuSans-30"/>
      </g>
     </g>
    </g>
    <g id="ytick_20">
     <g id="line2d_73">
      <path clip-path="url(#p584f365c29)" d="M 65.68 408.754667 
L 256.995 408.754667 
" style="fill:none;stroke:#b0b0b0;stroke-linecap:square;stroke-width:0.8;"/>
     </g>
     <g id="line2d_74">
      <g>
       <use style="stroke:#000000;stroke-width:0.8;" x="65.68" xlink:href="#md0e1b5b96d" y="408.754667"/>
      </g>
     </g>
     <g id="text_30">
      <!-- 80 -->
      <g transform="translate(45.955 412.553885)scale(0.1 -0.1)">
       <defs>
        <path d="M 2034 2216 
Q 1584 2216 1326 1975 
Q 1069 1734 1069 1313 
Q 1069 891 1326 650 
Q 1584 409 2034 409 
Q 2484 409 2743 651 
Q 3003 894 3003 1313 
Q 3003 1734 2745 1975 
Q 2488 2216 2034 2216 
z
M 1403 2484 
Q 997 2584 770 2862 
Q 544 3141 544 3541 
Q 544 4100 942 4425 
Q 1341 4750 2034 4750 
Q 2731 4750 3128 4425 
Q 3525 4100 3525 3541 
Q 3525 3141 3298 2862 
Q 3072 2584 2669 2484 
Q 3125 2378 3379 2068 
Q 3634 1759 3634 1313 
Q 3634 634 3220 271 
Q 2806 -91 2034 -91 
Q 1263 -91 848 271 
Q 434 634 434 1313 
Q 434 1759 690 2068 
Q 947 2378 1403 2484 
z
M 1172 3481 
Q 1172 3119 1398 2916 
Q 1625 2713 2034 2713 
Q 2441 2713 2670 2916 
Q 2900 3119 2900 3481 
Q 2900 3844 2670 4047 
Q 2441 4250 2034 4250 
Q 1625 4250 1398 4047 
Q 1172 3844 1172 3481 
z
" id="DejaVuSans-38" transform="scale(0.015625)"/>
       </defs>
       <use xlink:href="#DejaVuSans-38"/>
       <use x="63.623047" xlink:href="#DejaVuSans-30"/>
      </g>
     </g>
    </g>
    <g id="ytick_21">
     <g id="line2d_75">
      <path clip-path="url(#p584f365c29)" d="M 65.68 386.803514 
L 256.995 386.803514 
" style="fill:none;stroke:#b0b0b0;stroke-linecap:square;stroke-width:0.8;"/>
     </g>
     <g id="line2d_76">
      <g>
       <use style="stroke:#000000;stroke-width:0.8;" x="65.68" xlink:href="#md0e1b5b96d" y="386.803514"/>
      </g>
     </g>
     <g id="text_31">
      <!-- 100 -->
      <g transform="translate(39.5925 390.602733)scale(0.1 -0.1)">
       <use xlink:href="#DejaVuSans-31"/>
       <use x="63.623047" xlink:href="#DejaVuSans-30"/>
       <use x="127.246094" xlink:href="#DejaVuSans-30"/>
      </g>
     </g>
    </g>
    <g id="ytick_22">
     <g id="line2d_77">
      <path clip-path="url(#p584f365c29)" d="M 65.68 364.852361 
L 256.995 364.852361 
" style="fill:none;stroke:#b0b0b0;stroke-linecap:square;stroke-width:0.8;"/>
     </g>
     <g id="line2d_78">
      <g>
       <use style="stroke:#000000;stroke-width:0.8;" x="65.68" xlink:href="#md0e1b5b96d" y="364.852361"/>
      </g>
     </g>
     <g id="text_32">
      <!-- 120 -->
      <g transform="translate(39.5925 368.65158)scale(0.1 -0.1)">
       <use xlink:href="#DejaVuSans-31"/>
       <use x="63.623047" xlink:href="#DejaVuSans-32"/>
       <use x="127.246094" xlink:href="#DejaVuSans-30"/>
      </g>
     </g>
    </g>
    <g id="ytick_23">
     <g id="line2d_79">
      <path clip-path="url(#p584f365c29)" d="M 65.68 342.901208 
L 256.995 342.901208 
" style="fill:none;stroke:#b0b0b0;stroke-linecap:square;stroke-width:0.8;"/>
     </g>
     <g id="line2d_80">
      <g>
       <use style="stroke:#000000;stroke-width:0.8;" x="65.68" xlink:href="#md0e1b5b96d" y="342.901208"/>
      </g>
     </g>
     <g id="text_33">
      <!-- 140 -->
      <g transform="translate(39.5925 346.700427)scale(0.1 -0.1)">
       <use xlink:href="#DejaVuSans-31"/>
       <use x="63.623047" xlink:href="#DejaVuSans-34"/>
       <use x="127.246094" xlink:href="#DejaVuSans-30"/>
      </g>
     </g>
    </g>
    <g id="ytick_24">
     <g id="line2d_81">
      <path clip-path="url(#p584f365c29)" d="M 65.68 320.950056 
L 256.995 320.950056 
" style="fill:none;stroke:#b0b0b0;stroke-linecap:square;stroke-width:0.8;"/>
     </g>
     <g id="line2d_82">
      <g>
       <use style="stroke:#000000;stroke-width:0.8;" x="65.68" xlink:href="#md0e1b5b96d" y="320.950056"/>
      </g>
     </g>
     <g id="text_34">
      <!-- 160 -->
      <g transform="translate(39.5925 324.749274)scale(0.1 -0.1)">
       <use xlink:href="#DejaVuSans-31"/>
       <use x="63.623047" xlink:href="#DejaVuSans-36"/>
       <use x="127.246094" xlink:href="#DejaVuSans-30"/>
      </g>
     </g>
    </g>
   </g>
   <g id="line2d_83">
    <path clip-path="url(#p584f365c29)" d="M 74.376136 496.559091 
L 105.797475 496.358841 
L 118.047086 496.239404 
L 119.206812 493.068268 
L 120.112849 491.242384 
L 121.018885 489.895847 
L 121.997404 488.835342 
L 123.012165 488.055418 
L 124.13565 487.469321 
L 125.476583 487.025948 
L 127.14369 486.714541 
L 129.354419 486.542468 
L 169.038809 484.975228 
L 204.229258 483.658619 
L 242.536473 482.451289 
L 248.298864 482.287658 
L 248.298864 482.287658 
" style="fill:none;stroke:#1f77b4;stroke-linecap:square;stroke-opacity:0.7;stroke-width:1.5;"/>
   </g>
   <g id="line2d_84">
    <path clip-path="url(#p584f365c29)" d="M 74.376136 496.559091 
L 75.644587 496.437552 
L 76.913038 496.097609 
L 77.746591 495.65984 
L 78.507662 494.989417 
L 79.341215 493.937184 
L 80.428459 492.16329 
L 84.016363 485.974899 
L 85.139848 484.635304 
L 86.154608 483.751209 
L 87.096886 483.210414 
L 87.966681 482.953238 
L 90.322375 482.476063 
L 93.040484 481.452162 
L 95.17873 481.017678 
L 96.121007 480.438084 
L 97.280734 479.44424 
L 101.122328 475.918643 
L 102.318296 475.257013 
L 103.441781 474.886772 
L 104.492783 474.768801 
L 105.543785 474.659052 
L 106.594787 474.315759 
L 107.645789 473.733627 
L 108.733033 472.87555 
L 109.929001 471.639134 
L 113.263214 467.977092 
L 114.133009 467.460123 
L 114.930321 467.243864 
L 116.597428 466.951719 
L 117.865879 466.353624 
L 118.047086 466.147581 
L 119.569227 461.134919 
L 120.728953 458.101506 
L 124.570547 448.750327 
L 129.825558 433.587602 
L 131.202733 430.645781 
L 132.471184 428.446228 
L 133.594669 426.916255 
L 134.645671 425.848269 
L 135.587948 425.194706 
L 136.457743 424.847872 
L 137.36378 424.728033 
L 138.63223 424.60402 
L 141.676512 424.170249 
L 143.633551 424.054552 
L 148.526147 423.538622 
L 150.048288 422.999668 
L 151.534187 422.23173 
L 152.983845 421.227766 
L 154.433503 419.950331 
L 155.919403 418.337003 
L 157.441544 416.347087 
L 159.036168 413.88464 
L 163.965005 405.908216 
L 165.595871 403.947953 
L 167.226736 402.329544 
L 168.930084 400.952247 
L 170.705915 399.800408 
L 172.699195 398.77543 
L 175.163614 397.768477 
L 183.245458 394.661737 
L 185.31122 393.50159 
L 187.159534 392.2109 
L 188.935366 390.697182 
L 190.674955 388.913828 
L 192.378303 386.844745 
L 194.117893 384.370938 
L 195.893724 381.443685 
L 197.923246 377.631598 
L 200.133974 373.578301 
L 201.438666 371.658455 
L 202.670876 370.231939 
L 203.975568 369.056889 
L 205.570192 367.935556 
L 207.817162 366.649594 
L 211.115134 365.049033 
L 215.50035 362.891654 
L 217.783561 361.511246 
L 219.776841 360.049277 
L 221.625155 358.420535 
L 223.400986 356.561255 
L 225.176817 354.372588 
L 226.916407 351.871355 
L 228.655997 348.97902 
L 230.431828 345.587776 
L 232.497591 341.11726 
L 234.599595 336.699096 
L 235.904287 334.467033 
L 237.172738 332.732513 
L 238.73112 330.991433 
L 240.941849 328.869036 
L 243.623716 326.61175 
L 248.298864 322.940909 
L 248.298864 322.940909 
" style="fill:none;stroke:#d62728;stroke-linecap:square;stroke-opacity:0.7;stroke-width:1.5;"/>
   </g>
   <g id="patch_13">
    <path d="M 65.68 505.24 
L 65.68 314.26 
" style="fill:none;stroke:#000000;stroke-linecap:square;stroke-linejoin:miter;stroke-width:0.8;"/>
   </g>
   <g id="patch_14">
    <path d="M 256.995 505.24 
L 256.995 314.26 
" style="fill:none;stroke:#000000;stroke-linecap:square;stroke-linejoin:miter;stroke-width:0.8;"/>
   </g>
   <g id="patch_15">
    <path d="M 65.68 505.24 
L 256.995 505.24 
" style="fill:none;stroke:#000000;stroke-linecap:square;stroke-linejoin:miter;stroke-width:0.8;"/>
   </g>
   <g id="patch_16">
    <path d="M 65.68 314.26 
L 256.995 314.26 
" style="fill:none;stroke:#000000;stroke-linecap:square;stroke-linejoin:miter;stroke-width:0.8;"/>
   </g>
   <g id="text_35">
    <!-- z (m) -->
    <g transform="translate(145.755312 308.26)scale(0.12 -0.12)">
     <defs>
      <path d="M 353 3500 
L 3084 3500 
L 3084 2975 
L 922 459 
L 3084 459 
L 3084 0 
L 275 0 
L 275 525 
L 2438 3041 
L 353 3041 
L 353 3500 
z
" id="DejaVuSans-7a" transform="scale(0.015625)"/>
     </defs>
     <use xlink:href="#DejaVuSans-7a"/>
     <use x="52.490234" xlink:href="#DejaVuSans-20"/>
     <use x="84.277344" xlink:href="#DejaVuSans-28"/>
     <use x="123.291016" xlink:href="#DejaVuSans-6d"/>
     <use x="220.703125" xlink:href="#DejaVuSans-29"/>
    </g>
   </g>
  </g>
  <g id="axes_4">
   <g id="patch_17">
    <path d="M 287.485 505.24 
L 478.8 505.24 
L 478.8 314.26 
L 287.485 314.26 
z
" style="fill:#ffffff;"/>
   </g>
   <g id="matplotlib.axis_7">
    <g id="xtick_16">
     <g id="line2d_85">
      <path clip-path="url(#p0402836d86)" d="M 296.181136 505.24 
L 296.181136 314.26 
" style="fill:none;stroke:#b0b0b0;stroke-linecap:square;stroke-width:0.8;"/>
     </g>
     <g id="line2d_86">
      <g>
       <use style="stroke:#000000;stroke-width:0.8;" x="296.181136" xlink:href="#ma34127195b" y="505.24"/>
      </g>
     </g>
     <g id="text_36">
      <!-- 0 -->
      <g transform="translate(292.999886 519.838438)scale(0.1 -0.1)">
       <use xlink:href="#DejaVuSans-30"/>
      </g>
     </g>
    </g>
    <g id="xtick_17">
     <g id="line2d_87">
      <path clip-path="url(#p0402836d86)" d="M 339.670879 505.24 
L 339.670879 314.26 
" style="fill:none;stroke:#b0b0b0;stroke-linecap:square;stroke-width:0.8;"/>
     </g>
     <g id="line2d_88">
      <g>
       <use style="stroke:#000000;stroke-width:0.8;" x="339.670879" xlink:href="#ma34127195b" y="505.24"/>
      </g>
     </g>
     <g id="text_37">
      <!-- 5 -->
      <g transform="translate(336.489629 519.838438)scale(0.1 -0.1)">
       <use xlink:href="#DejaVuSans-35"/>
      </g>
     </g>
    </g>
    <g id="xtick_18">
     <g id="line2d_89">
      <path clip-path="url(#p0402836d86)" d="M 383.160621 505.24 
L 383.160621 314.26 
" style="fill:none;stroke:#b0b0b0;stroke-linecap:square;stroke-width:0.8;"/>
     </g>
     <g id="line2d_90">
      <g>
       <use style="stroke:#000000;stroke-width:0.8;" x="383.160621" xlink:href="#ma34127195b" y="505.24"/>
      </g>
     </g>
     <g id="text_38">
      <!-- 10 -->
      <g transform="translate(376.798121 519.838438)scale(0.1 -0.1)">
       <use xlink:href="#DejaVuSans-31"/>
       <use x="63.623047" xlink:href="#DejaVuSans-30"/>
      </g>
     </g>
    </g>
    <g id="xtick_19">
     <g id="line2d_91">
      <path clip-path="url(#p0402836d86)" d="M 426.650363 505.24 
L 426.650363 314.26 
" style="fill:none;stroke:#b0b0b0;stroke-linecap:square;stroke-width:0.8;"/>
     </g>
     <g id="line2d_92">
      <g>
       <use style="stroke:#000000;stroke-width:0.8;" x="426.650363" xlink:href="#ma34127195b" y="505.24"/>
      </g>
     </g>
     <g id="text_39">
      <!-- 15 -->
      <g transform="translate(420.287863 519.838438)scale(0.1 -0.1)">
       <use xlink:href="#DejaVuSans-31"/>
       <use x="63.623047" xlink:href="#DejaVuSans-35"/>
      </g>
     </g>
    </g>
    <g id="xtick_20">
     <g id="line2d_93">
      <path clip-path="url(#p0402836d86)" d="M 470.140105 505.24 
L 470.140105 314.26 
" style="fill:none;stroke:#b0b0b0;stroke-linecap:square;stroke-width:0.8;"/>
     </g>
     <g id="line2d_94">
      <g>
       <use style="stroke:#000000;stroke-width:0.8;" x="470.140105" xlink:href="#ma34127195b" y="505.24"/>
      </g>
     </g>
     <g id="text_40">
      <!-- 20 -->
      <g transform="translate(463.777605 519.838438)scale(0.1 -0.1)">
       <use xlink:href="#DejaVuSans-32"/>
       <use x="63.623047" xlink:href="#DejaVuSans-30"/>
      </g>
     </g>
    </g>
    <g id="text_41">
     <!-- Tiempo (s) -->
     <g transform="translate(356.58 533.516562)scale(0.1 -0.1)">
      <use xlink:href="#DejaVuSans-54"/>
      <use x="57.958984" xlink:href="#DejaVuSans-69"/>
      <use x="85.742188" xlink:href="#DejaVuSans-65"/>
      <use x="147.265625" xlink:href="#DejaVuSans-6d"/>
      <use x="244.677734" xlink:href="#DejaVuSans-70"/>
      <use x="308.154297" xlink:href="#DejaVuSans-6f"/>
      <use x="369.335938" xlink:href="#DejaVuSans-20"/>
      <use x="401.123047" xlink:href="#DejaVuSans-28"/>
      <use x="440.136719" xlink:href="#DejaVuSans-73"/>
      <use x="492.236328" xlink:href="#DejaVuSans-29"/>
     </g>
    </g>
   </g>
   <g id="matplotlib.axis_8">
    <g id="ytick_25">
     <g id="line2d_95">
      <path clip-path="url(#p0402836d86)" d="M 287.485 496.559091 
L 478.8 496.559091 
" style="fill:none;stroke:#b0b0b0;stroke-linecap:square;stroke-width:0.8;"/>
     </g>
     <g id="line2d_96">
      <g>
       <use style="stroke:#000000;stroke-width:0.8;" x="287.485" xlink:href="#md0e1b5b96d" y="496.559091"/>
      </g>
     </g>
     <g id="text_42">
      <!-- 0 -->
      <g transform="translate(274.1225 500.35831)scale(0.1 -0.1)">
       <use xlink:href="#DejaVuSans-30"/>
      </g>
     </g>
    </g>
    <g id="ytick_26">
     <g id="line2d_97">
      <path clip-path="url(#p0402836d86)" d="M 287.485 469.222231 
L 478.8 469.222231 
" style="fill:none;stroke:#b0b0b0;stroke-linecap:square;stroke-width:0.8;"/>
     </g>
     <g id="line2d_98">
      <g>
       <use style="stroke:#000000;stroke-width:0.8;" x="287.485" xlink:href="#md0e1b5b96d" y="469.222231"/>
      </g>
     </g>
     <g id="text_43">
      <!-- 10 -->
      <g transform="translate(267.76 473.02145)scale(0.1 -0.1)">
       <use xlink:href="#DejaVuSans-31"/>
       <use x="63.623047" xlink:href="#DejaVuSans-30"/>
      </g>
     </g>
    </g>
    <g id="ytick_27">
     <g id="line2d_99">
      <path clip-path="url(#p0402836d86)" d="M 287.485 441.885372 
L 478.8 441.885372 
" style="fill:none;stroke:#b0b0b0;stroke-linecap:square;stroke-width:0.8;"/>
     </g>
     <g id="line2d_100">
      <g>
       <use style="stroke:#000000;stroke-width:0.8;" x="287.485" xlink:href="#md0e1b5b96d" y="441.885372"/>
      </g>
     </g>
     <g id="text_44">
      <!-- 20 -->
      <g transform="translate(267.76 445.68459)scale(0.1 -0.1)">
       <use xlink:href="#DejaVuSans-32"/>
       <use x="63.623047" xlink:href="#DejaVuSans-30"/>
      </g>
     </g>
    </g>
    <g id="ytick_28">
     <g id="line2d_101">
      <path clip-path="url(#p0402836d86)" d="M 287.485 414.548512 
L 478.8 414.548512 
" style="fill:none;stroke:#b0b0b0;stroke-linecap:square;stroke-width:0.8;"/>
     </g>
     <g id="line2d_102">
      <g>
       <use style="stroke:#000000;stroke-width:0.8;" x="287.485" xlink:href="#md0e1b5b96d" y="414.548512"/>
      </g>
     </g>
     <g id="text_45">
      <!-- 30 -->
      <g transform="translate(267.76 418.347731)scale(0.1 -0.1)">
       <use xlink:href="#DejaVuSans-33"/>
       <use x="63.623047" xlink:href="#DejaVuSans-30"/>
      </g>
     </g>
    </g>
    <g id="ytick_29">
     <g id="line2d_103">
      <path clip-path="url(#p0402836d86)" d="M 287.485 387.211653 
L 478.8 387.211653 
" style="fill:none;stroke:#b0b0b0;stroke-linecap:square;stroke-width:0.8;"/>
     </g>
     <g id="line2d_104">
      <g>
       <use style="stroke:#000000;stroke-width:0.8;" x="287.485" xlink:href="#md0e1b5b96d" y="387.211653"/>
      </g>
     </g>
     <g id="text_46">
      <!-- 40 -->
      <g transform="translate(267.76 391.010871)scale(0.1 -0.1)">
       <use xlink:href="#DejaVuSans-34"/>
       <use x="63.623047" xlink:href="#DejaVuSans-30"/>
      </g>
     </g>
    </g>
    <g id="ytick_30">
     <g id="line2d_105">
      <path clip-path="url(#p0402836d86)" d="M 287.485 359.874793 
L 478.8 359.874793 
" style="fill:none;stroke:#b0b0b0;stroke-linecap:square;stroke-width:0.8;"/>
     </g>
     <g id="line2d_106">
      <g>
       <use style="stroke:#000000;stroke-width:0.8;" x="287.485" xlink:href="#md0e1b5b96d" y="359.874793"/>
      </g>
     </g>
     <g id="text_47">
      <!-- 50 -->
      <g transform="translate(267.76 363.674012)scale(0.1 -0.1)">
       <use xlink:href="#DejaVuSans-35"/>
       <use x="63.623047" xlink:href="#DejaVuSans-30"/>
      </g>
     </g>
    </g>
    <g id="ytick_31">
     <g id="line2d_107">
      <path clip-path="url(#p0402836d86)" d="M 287.485 332.537933 
L 478.8 332.537933 
" style="fill:none;stroke:#b0b0b0;stroke-linecap:square;stroke-width:0.8;"/>
     </g>
     <g id="line2d_108">
      <g>
       <use style="stroke:#000000;stroke-width:0.8;" x="287.485" xlink:href="#md0e1b5b96d" y="332.537933"/>
      </g>
     </g>
     <g id="text_48">
      <!-- 60 -->
      <g transform="translate(267.76 336.337152)scale(0.1 -0.1)">
       <use xlink:href="#DejaVuSans-36"/>
       <use x="63.623047" xlink:href="#DejaVuSans-30"/>
      </g>
     </g>
    </g>
   </g>
   <g id="line2d_109">
    <path clip-path="url(#p0402836d86)" d="M 296.181136 496.559091 
L 339.815844 496.559091 
L 340.540673 491.875867 
L 341.011812 490.249421 
L 341.591675 489.009339 
L 342.135297 488.329413 
L 342.751402 487.890981 
L 343.584955 487.59625 
L 347.571515 486.698702 
L 349.601036 486.611208 
L 364.1701 486.51969 
L 470.103864 485.750747 
L 470.103864 485.750747 
" style="fill:none;stroke:#1f77b4;stroke-linecap:square;stroke-opacity:0.7;stroke-width:1.5;"/>
   </g>
   <g id="line2d_110">
    <path clip-path="url(#p0402836d86)" d="M 296.181136 496.559091 
L 299.986489 496.44937 
L 301.25494 496.118413 
L 302.632115 495.522386 
L 304.335463 494.531965 
L 306.328743 493.10862 
L 308.611954 491.191331 
L 315.932728 484.548649 
L 318.179698 482.070008 
L 321.296462 478.243809 
L 326.587714 471.39982 
L 329.958169 467.168683 
L 331.915208 465.08248 
L 334.125936 463.068778 
L 338.656118 459.328445 
L 339.815844 458.443742 
L 340.685639 452.065203 
L 341.19302 449.953351 
L 341.7004 448.728161 
L 342.20778 448.086122 
L 344.164819 446.142956 
L 344.962131 444.830311 
L 345.904408 442.806747 
L 347.136618 439.583074 
L 348.550034 435.23818 
L 349.601036 432.193277 
L 350.1809 431.12065 
L 350.652038 430.648862 
L 351.123177 430.490157 
L 352.790284 430.253247 
L 353.551355 429.804943 
L 354.384908 429.046676 
L 355.327186 427.880909 
L 356.414429 426.159289 
L 357.574156 423.893608 
L 359.277504 420.490563 
L 359.857367 419.89809 
L 360.364748 419.677473 
L 361.270784 419.438877 
L 365.619758 417.265147 
L 369.932491 415.504486 
L 373.882809 413.819577 
L 375.731123 412.766032 
L 377.470713 411.517457 
L 379.210302 409.990738 
L 380.913651 408.191508 
L 385.371349 403.218146 
L 387.110939 401.762112 
L 388.814287 400.619271 
L 390.481394 399.762608 
L 392.184742 399.136253 
L 394.322988 398.601004 
L 397.149821 398.127545 
L 400.37531 397.82204 
L 404.61556 397.432493 
L 406.790047 396.972565 
L 408.819569 396.315416 
L 410.740366 395.457763 
L 412.407472 394.477 
L 413.929613 393.322645 
L 415.415513 391.909058 
L 416.901412 390.182876 
L 418.423553 388.065131 
L 419.909453 386.010118 
L 420.453075 385.66032 
L 421.032938 385.569615 
L 421.504077 385.366961 
L 422.047699 384.863121 
L 422.772528 383.821813 
L 424.07722 381.928886 
L 424.983256 381.029324 
L 425.780568 380.531976 
L 426.541639 380.312786 
L 427.918814 380.041906 
L 428.679884 379.562242 
L 429.477196 378.790583 
L 430.854371 377.390491 
L 431.434235 377.162147 
L 432.485237 376.888111 
L 433.0651 376.405365 
L 433.717446 375.565024 
L 434.478516 374.18926 
L 435.31207 372.197008 
L 436.326831 369.141872 
L 437.087901 367.080622 
L 437.522798 366.478421 
L 438.030179 366.155669 
L 439.443595 365.425641 
L 440.712046 364.44943 
L 442.197946 363.015081 
L 443.865053 361.093861 
L 445.677125 358.657062 
L 447.670405 355.591127 
L 450.316031 351.06814 
L 454.0489 344.693547 
L 454.701247 344.124728 
L 455.28111 343.904049 
L 456.223388 343.673503 
L 456.839492 343.19458 
L 458.832772 341.422787 
L 459.593843 341.157473 
L 461.369674 340.736829 
L 462.166986 340.155427 
L 463.036781 339.223173 
L 463.979058 337.867011 
L 465.03006 335.936094 
L 466.153545 333.389213 
L 467.385755 330.029835 
L 469.668966 323.593635 
L 470.103864 322.940909 
L 470.103864 322.940909 
" style="fill:none;stroke:#d62728;stroke-linecap:square;stroke-opacity:0.7;stroke-width:1.5;"/>
   </g>
   <g id="patch_18">
    <path d="M 287.485 505.24 
L 287.485 314.26 
" style="fill:none;stroke:#000000;stroke-linecap:square;stroke-linejoin:miter;stroke-width:0.8;"/>
   </g>
   <g id="patch_19">
    <path d="M 478.8 505.24 
L 478.8 314.26 
" style="fill:none;stroke:#000000;stroke-linecap:square;stroke-linejoin:miter;stroke-width:0.8;"/>
   </g>
   <g id="patch_20">
    <path d="M 287.485 505.24 
L 478.8 505.24 
" style="fill:none;stroke:#000000;stroke-linecap:square;stroke-linejoin:miter;stroke-width:0.8;"/>
   </g>
   <g id="patch_21">
    <path d="M 287.485 314.26 
L 478.8 314.26 
" style="fill:none;stroke:#000000;stroke-linecap:square;stroke-linejoin:miter;stroke-width:0.8;"/>
   </g>
   <g id="text_49">
    <!-- $\psi$ (rad) -->
    <g transform="translate(362.6225 308.26)scale(0.12 -0.12)">
     <defs>
      <path d="M 1591 -78 
Q 891 38 616 341 
Q 278 713 425 1472 
L 819 3500 
L 1400 3500 
L 1009 1494 
Q 900 922 1119 684 
Q 1313 478 1691 434 
L 2284 3500 
L 2856 3500 
L 2263 438 
Q 2681 481 2928 688 
Q 3247 950 3353 1497 
L 3741 3500 
L 4322 3500 
L 3928 1475 
Q 3775 688 3300 344 
Q 2872 34 2163 -75 
L 1919 -1331 
L 1347 -1331 
L 1591 -78 
z
" id="DejaVuSans-Oblique-3c8" transform="scale(0.015625)"/>
      <path d="M 2631 2963 
Q 2534 3019 2420 3045 
Q 2306 3072 2169 3072 
Q 1681 3072 1420 2755 
Q 1159 2438 1159 1844 
L 1159 0 
L 581 0 
L 581 3500 
L 1159 3500 
L 1159 2956 
Q 1341 3275 1631 3429 
Q 1922 3584 2338 3584 
Q 2397 3584 2469 3576 
Q 2541 3569 2628 3553 
L 2631 2963 
z
" id="DejaVuSans-72" transform="scale(0.015625)"/>
      <path d="M 2194 1759 
Q 1497 1759 1228 1600 
Q 959 1441 959 1056 
Q 959 750 1161 570 
Q 1363 391 1709 391 
Q 2188 391 2477 730 
Q 2766 1069 2766 1631 
L 2766 1759 
L 2194 1759 
z
M 3341 1997 
L 3341 0 
L 2766 0 
L 2766 531 
Q 2569 213 2275 61 
Q 1981 -91 1556 -91 
Q 1019 -91 701 211 
Q 384 513 384 1019 
Q 384 1609 779 1909 
Q 1175 2209 1959 2209 
L 2766 2209 
L 2766 2266 
Q 2766 2663 2505 2880 
Q 2244 3097 1772 3097 
Q 1472 3097 1187 3025 
Q 903 2953 641 2809 
L 641 3341 
Q 956 3463 1253 3523 
Q 1550 3584 1831 3584 
Q 2591 3584 2966 3190 
Q 3341 2797 3341 1997 
z
" id="DejaVuSans-61" transform="scale(0.015625)"/>
      <path d="M 2906 2969 
L 2906 4863 
L 3481 4863 
L 3481 0 
L 2906 0 
L 2906 525 
Q 2725 213 2448 61 
Q 2172 -91 1784 -91 
Q 1150 -91 751 415 
Q 353 922 353 1747 
Q 353 2572 751 3078 
Q 1150 3584 1784 3584 
Q 2172 3584 2448 3432 
Q 2725 3281 2906 2969 
z
M 947 1747 
Q 947 1113 1208 752 
Q 1469 391 1925 391 
Q 2381 391 2643 752 
Q 2906 1113 2906 1747 
Q 2906 2381 2643 2742 
Q 2381 3103 1925 3103 
Q 1469 3103 1208 2742 
Q 947 2381 947 1747 
z
" id="DejaVuSans-64" transform="scale(0.015625)"/>
     </defs>
     <use transform="translate(0 0.015625)" xlink:href="#DejaVuSans-Oblique-3c8"/>
     <use transform="translate(65.966797 0.015625)" xlink:href="#DejaVuSans-20"/>
     <use transform="translate(97.753906 0.015625)" xlink:href="#DejaVuSans-28"/>
     <use transform="translate(136.767578 0.015625)" xlink:href="#DejaVuSans-72"/>
     <use transform="translate(177.880859 0.015625)" xlink:href="#DejaVuSans-61"/>
     <use transform="translate(239.160156 0.015625)" xlink:href="#DejaVuSans-64"/>
     <use transform="translate(302.636719 0.015625)" xlink:href="#DejaVuSans-29"/>
    </g>
   </g>
  </g>
  <g id="text_50">
   <!-- Error acumulado -->
   <g transform="translate(221.62875 23.6775)scale(0.16 -0.16)">
    <defs>
     <path d="M 628 4666 
L 3578 4666 
L 3578 4134 
L 1259 4134 
L 1259 2753 
L 3481 2753 
L 3481 2222 
L 1259 2222 
L 1259 531 
L 3634 531 
L 3634 0 
L 628 0 
L 628 4666 
z
" id="DejaVuSans-45" transform="scale(0.015625)"/>
     <path d="M 3122 3366 
L 3122 2828 
Q 2878 2963 2633 3030 
Q 2388 3097 2138 3097 
Q 1578 3097 1268 2742 
Q 959 2388 959 1747 
Q 959 1106 1268 751 
Q 1578 397 2138 397 
Q 2388 397 2633 464 
Q 2878 531 3122 666 
L 3122 134 
Q 2881 22 2623 -34 
Q 2366 -91 2075 -91 
Q 1284 -91 818 406 
Q 353 903 353 1747 
Q 353 2603 823 3093 
Q 1294 3584 2113 3584 
Q 2378 3584 2631 3529 
Q 2884 3475 3122 3366 
z
" id="DejaVuSans-63" transform="scale(0.015625)"/>
     <path d="M 544 1381 
L 544 3500 
L 1119 3500 
L 1119 1403 
Q 1119 906 1312 657 
Q 1506 409 1894 409 
Q 2359 409 2629 706 
Q 2900 1003 2900 1516 
L 2900 3500 
L 3475 3500 
L 3475 0 
L 2900 0 
L 2900 538 
Q 2691 219 2414 64 
Q 2138 -91 1772 -91 
Q 1169 -91 856 284 
Q 544 659 544 1381 
z
M 1991 3584 
L 1991 3584 
z
" id="DejaVuSans-75" transform="scale(0.015625)"/>
     <path d="M 603 4863 
L 1178 4863 
L 1178 0 
L 603 0 
L 603 4863 
z
" id="DejaVuSans-6c" transform="scale(0.015625)"/>
    </defs>
    <use xlink:href="#DejaVuSans-45"/>
    <use x="63.183594" xlink:href="#DejaVuSans-72"/>
    <use x="102.546875" xlink:href="#DejaVuSans-72"/>
    <use x="141.410156" xlink:href="#DejaVuSans-6f"/>
    <use x="202.591797" xlink:href="#DejaVuSans-72"/>
    <use x="243.705078" xlink:href="#DejaVuSans-20"/>
    <use x="275.492188" xlink:href="#DejaVuSans-61"/>
    <use x="336.771484" xlink:href="#DejaVuSans-63"/>
    <use x="391.751953" xlink:href="#DejaVuSans-75"/>
    <use x="455.130859" xlink:href="#DejaVuSans-6d"/>
    <use x="552.542969" xlink:href="#DejaVuSans-75"/>
    <use x="615.921875" xlink:href="#DejaVuSans-6c"/>
    <use x="643.705078" xlink:href="#DejaVuSans-61"/>
    <use x="704.984375" xlink:href="#DejaVuSans-64"/>
    <use x="768.460938" xlink:href="#DejaVuSans-6f"/>
   </g>
  </g>
  <g id="legend_1">
   <g id="patch_22">
    <path d="M 500.7 304.178125 
L 569 304.178125 
Q 571 304.178125 571 302.178125 
L 571 273.821875 
Q 571 271.821875 569 271.821875 
L 500.7 271.821875 
Q 498.7 271.821875 498.7 273.821875 
L 498.7 302.178125 
Q 498.7 304.178125 500.7 304.178125 
z
" style="fill:#ffffff;opacity:0.8;stroke:#cccccc;stroke-linejoin:miter;"/>
   </g>
   <g id="line2d_111">
    <path d="M 502.7 279.920313 
L 522.7 279.920313 
" style="fill:none;stroke:#1f77b4;stroke-linecap:square;stroke-opacity:0.7;stroke-width:1.5;"/>
   </g>
   <g id="line2d_112"/>
   <g id="text_51">
    <!-- DSLPID -->
    <g transform="translate(530.7 283.420313)scale(0.1 -0.1)">
     <defs>
      <path d="M 1259 4147 
L 1259 519 
L 2022 519 
Q 2988 519 3436 956 
Q 3884 1394 3884 2338 
Q 3884 3275 3436 3711 
Q 2988 4147 2022 4147 
L 1259 4147 
z
M 628 4666 
L 1925 4666 
Q 3281 4666 3915 4102 
Q 4550 3538 4550 2338 
Q 4550 1131 3912 565 
Q 3275 0 1925 0 
L 628 0 
L 628 4666 
z
" id="DejaVuSans-44" transform="scale(0.015625)"/>
      <path d="M 3425 4513 
L 3425 3897 
Q 3066 4069 2747 4153 
Q 2428 4238 2131 4238 
Q 1616 4238 1336 4038 
Q 1056 3838 1056 3469 
Q 1056 3159 1242 3001 
Q 1428 2844 1947 2747 
L 2328 2669 
Q 3034 2534 3370 2195 
Q 3706 1856 3706 1288 
Q 3706 609 3251 259 
Q 2797 -91 1919 -91 
Q 1588 -91 1214 -16 
Q 841 59 441 206 
L 441 856 
Q 825 641 1194 531 
Q 1563 422 1919 422 
Q 2459 422 2753 634 
Q 3047 847 3047 1241 
Q 3047 1584 2836 1778 
Q 2625 1972 2144 2069 
L 1759 2144 
Q 1053 2284 737 2584 
Q 422 2884 422 3419 
Q 422 4038 858 4394 
Q 1294 4750 2059 4750 
Q 2388 4750 2728 4690 
Q 3069 4631 3425 4513 
z
" id="DejaVuSans-53" transform="scale(0.015625)"/>
      <path d="M 628 4666 
L 1259 4666 
L 1259 531 
L 3531 531 
L 3531 0 
L 628 0 
L 628 4666 
z
" id="DejaVuSans-4c" transform="scale(0.015625)"/>
      <path d="M 1259 4147 
L 1259 2394 
L 2053 2394 
Q 2494 2394 2734 2622 
Q 2975 2850 2975 3272 
Q 2975 3691 2734 3919 
Q 2494 4147 2053 4147 
L 1259 4147 
z
M 628 4666 
L 2053 4666 
Q 2838 4666 3239 4311 
Q 3641 3956 3641 3272 
Q 3641 2581 3239 2228 
Q 2838 1875 2053 1875 
L 1259 1875 
L 1259 0 
L 628 0 
L 628 4666 
z
" id="DejaVuSans-50" transform="scale(0.015625)"/>
      <path d="M 628 4666 
L 1259 4666 
L 1259 0 
L 628 0 
L 628 4666 
z
" id="DejaVuSans-49" transform="scale(0.015625)"/>
     </defs>
     <use xlink:href="#DejaVuSans-44"/>
     <use x="77.001953" xlink:href="#DejaVuSans-53"/>
     <use x="140.478516" xlink:href="#DejaVuSans-4c"/>
     <use x="196.191406" xlink:href="#DejaVuSans-50"/>
     <use x="256.494141" xlink:href="#DejaVuSans-49"/>
     <use x="285.986328" xlink:href="#DejaVuSans-44"/>
    </g>
   </g>
   <g id="line2d_113">
    <path d="M 502.7 294.598438 
L 522.7 294.598438 
" style="fill:none;stroke:#d62728;stroke-linecap:square;stroke-opacity:0.7;stroke-width:1.5;"/>
   </g>
   <g id="line2d_114"/>
   <g id="text_52">
    <!-- CLSTM -->
    <g transform="translate(530.7 298.098438)scale(0.1 -0.1)">
     <defs>
      <path d="M 4122 4306 
L 4122 3641 
Q 3803 3938 3442 4084 
Q 3081 4231 2675 4231 
Q 1875 4231 1450 3742 
Q 1025 3253 1025 2328 
Q 1025 1406 1450 917 
Q 1875 428 2675 428 
Q 3081 428 3442 575 
Q 3803 722 4122 1019 
L 4122 359 
Q 3791 134 3420 21 
Q 3050 -91 2638 -91 
Q 1578 -91 968 557 
Q 359 1206 359 2328 
Q 359 3453 968 4101 
Q 1578 4750 2638 4750 
Q 3056 4750 3426 4639 
Q 3797 4528 4122 4306 
z
" id="DejaVuSans-43" transform="scale(0.015625)"/>
      <path d="M 628 4666 
L 1569 4666 
L 2759 1491 
L 3956 4666 
L 4897 4666 
L 4897 0 
L 4281 0 
L 4281 4097 
L 3078 897 
L 2444 897 
L 1241 4097 
L 1241 0 
L 628 0 
L 628 4666 
z
" id="DejaVuSans-4d" transform="scale(0.015625)"/>
     </defs>
     <use xlink:href="#DejaVuSans-43"/>
     <use x="69.824219" xlink:href="#DejaVuSans-4c"/>
     <use x="125.537109" xlink:href="#DejaVuSans-53"/>
     <use x="189.013672" xlink:href="#DejaVuSans-54"/>
     <use x="250.097656" xlink:href="#DejaVuSans-4d"/>
    </g>
   </g>
  </g>
 </g>
 <defs>
  <clipPath id="p74939ee303">
   <rect height="190.98" width="191.315" x="65.68" y="80.88"/>
  </clipPath>
  <clipPath id="p1de50439e2">
   <rect height="190.98" width="191.315" x="287.485" y="80.88"/>
  </clipPath>
  <clipPath id="p584f365c29">
   <rect height="190.98" width="191.315" x="65.68" y="314.26"/>
  </clipPath>
  <clipPath id="p0402836d86">
   <rect height="190.98" width="191.315" x="287.485" y="314.26"/>
  </clipPath>
 </defs>
</svg>
