<?xml version="1.0" encoding="utf-8" standalone="no"?>
<!DOCTYPE svg PUBLIC "-//W3C//DTD SVG 1.1//EN"
  "http://www.w3.org/Graphics/SVG/1.1/DTD/svg11.dtd">
<svg height="288pt" version="1.1" viewBox="0 0 576 288" width="576pt" xmlns="http://www.w3.org/2000/svg" xmlns:xlink="http://www.w3.org/1999/xlink">
 <metadata>
  <rdf:RDF xmlns:cc="http://creativecommons.org/ns#" xmlns:dc="http://purl.org/dc/elements/1.1/" xmlns:rdf="http://www.w3.org/1999/02/22-rdf-syntax-ns#">
   <cc:Work>
    <dc:type rdf:resource="http://purl.org/dc/dcmitype/StillImage"/>
    <dc:date>2022-02-26T04:07:08.198124</dc:date>
    <dc:format>image/svg+xml</dc:format>
    <dc:creator>
     <cc:Agent>
      <dc:title>Matplotlib v3.4.3, https://matplotlib.org/</dc:title>
     </cc:Agent>
    </dc:creator>
   </cc:Work>
  </rdf:RDF>
 </metadata>
 <defs>
  <style type="text/css">*{stroke-linecap:butt;stroke-linejoin:round;}</style>
 </defs>
 <g id="figure_1">
  <g id="patch_1">
   <path d="M 0 288 
L 576 288 
L 576 0 
L 0 0 
z
" style="fill:#ffffff;"/>
  </g>
  <g id="axes_1">
   <g id="patch_2">
    <path d="M 82.82 231.64 
L 253.755 231.64 
L 253.755 66.48 
L 82.82 66.48 
z
" style="fill:#ffffff;"/>
   </g>
   <g id="matplotlib.axis_1">
    <g id="xtick_1">
     <g id="line2d_1">
      <path clip-path="url(#p1b2a90413b)" d="M 112.189801 231.64 
L 112.189801 66.48 
" style="fill:none;stroke:#b0b0b0;stroke-linecap:square;stroke-width:0.8;"/>
     </g>
     <g id="line2d_2">
      <defs>
       <path d="M 0 0 
L 0 3.5 
" id="med48fdc63d" style="stroke:#000000;stroke-width:0.8;"/>
      </defs>
      <g>
       <use style="stroke:#000000;stroke-width:0.8;" x="112.189801" xlink:href="#med48fdc63d" y="231.64"/>
      </g>
     </g>
     <g id="text_1">
      <!-- 0.00 -->
      <g transform="translate(101.056988 246.238438)scale(0.1 -0.1)">
       <defs>
        <path d="M 2034 4250 
Q 1547 4250 1301 3770 
Q 1056 3291 1056 2328 
Q 1056 1369 1301 889 
Q 1547 409 2034 409 
Q 2525 409 2770 889 
Q 3016 1369 3016 2328 
Q 3016 3291 2770 3770 
Q 2525 4250 2034 4250 
z
M 2034 4750 
Q 2819 4750 3233 4129 
Q 3647 3509 3647 2328 
Q 3647 1150 3233 529 
Q 2819 -91 2034 -91 
Q 1250 -91 836 529 
Q 422 1150 422 2328 
Q 422 3509 836 4129 
Q 1250 4750 2034 4750 
z
" id="DejaVuSans-30" transform="scale(0.015625)"/>
        <path d="M 684 794 
L 1344 794 
L 1344 0 
L 684 0 
L 684 794 
z
" id="DejaVuSans-2e" transform="scale(0.015625)"/>
       </defs>
       <use xlink:href="#DejaVuSans-30"/>
       <use x="63.623047" xlink:href="#DejaVuSans-2e"/>
       <use x="95.410156" xlink:href="#DejaVuSans-30"/>
       <use x="159.033203" xlink:href="#DejaVuSans-30"/>
      </g>
     </g>
    </g>
    <g id="xtick_2">
     <g id="line2d_3">
      <path clip-path="url(#p1b2a90413b)" d="M 174.291204 231.64 
L 174.291204 66.48 
" style="fill:none;stroke:#b0b0b0;stroke-linecap:square;stroke-width:0.8;"/>
     </g>
     <g id="line2d_4">
      <g>
       <use style="stroke:#000000;stroke-width:0.8;" x="174.291204" xlink:href="#med48fdc63d" y="231.64"/>
      </g>
     </g>
     <g id="text_2">
      <!-- 0.05 -->
      <g transform="translate(163.158392 246.238438)scale(0.1 -0.1)">
       <defs>
        <path d="M 691 4666 
L 3169 4666 
L 3169 4134 
L 1269 4134 
L 1269 2991 
Q 1406 3038 1543 3061 
Q 1681 3084 1819 3084 
Q 2600 3084 3056 2656 
Q 3513 2228 3513 1497 
Q 3513 744 3044 326 
Q 2575 -91 1722 -91 
Q 1428 -91 1123 -41 
Q 819 9 494 109 
L 494 744 
Q 775 591 1075 516 
Q 1375 441 1709 441 
Q 2250 441 2565 725 
Q 2881 1009 2881 1497 
Q 2881 1984 2565 2268 
Q 2250 2553 1709 2553 
Q 1456 2553 1204 2497 
Q 953 2441 691 2322 
L 691 4666 
z
" id="DejaVuSans-35" transform="scale(0.015625)"/>
       </defs>
       <use xlink:href="#DejaVuSans-30"/>
       <use x="63.623047" xlink:href="#DejaVuSans-2e"/>
       <use x="95.410156" xlink:href="#DejaVuSans-30"/>
       <use x="159.033203" xlink:href="#DejaVuSans-35"/>
      </g>
     </g>
    </g>
    <g id="xtick_3">
     <g id="line2d_5">
      <path clip-path="url(#p1b2a90413b)" d="M 236.392608 231.64 
L 236.392608 66.48 
" style="fill:none;stroke:#b0b0b0;stroke-linecap:square;stroke-width:0.8;"/>
     </g>
     <g id="line2d_6">
      <g>
       <use style="stroke:#000000;stroke-width:0.8;" x="236.392608" xlink:href="#med48fdc63d" y="231.64"/>
      </g>
     </g>
     <g id="text_3">
      <!-- 0.10 -->
      <g transform="translate(225.259796 246.238438)scale(0.1 -0.1)">
       <defs>
        <path d="M 794 531 
L 1825 531 
L 1825 4091 
L 703 3866 
L 703 4441 
L 1819 4666 
L 2450 4666 
L 2450 531 
L 3481 531 
L 3481 0 
L 794 0 
L 794 531 
z
" id="DejaVuSans-31" transform="scale(0.015625)"/>
       </defs>
       <use xlink:href="#DejaVuSans-30"/>
       <use x="63.623047" xlink:href="#DejaVuSans-2e"/>
       <use x="95.410156" xlink:href="#DejaVuSans-31"/>
       <use x="159.033203" xlink:href="#DejaVuSans-30"/>
      </g>
     </g>
    </g>
    <g id="text_4">
     <!-- x (m) -->
     <g transform="translate(154.967187 259.916562)scale(0.1 -0.1)">
      <defs>
       <path d="M 3513 3500 
L 2247 1797 
L 3578 0 
L 2900 0 
L 1881 1375 
L 863 0 
L 184 0 
L 1544 1831 
L 300 3500 
L 978 3500 
L 1906 2253 
L 2834 3500 
L 3513 3500 
z
" id="DejaVuSans-78" transform="scale(0.015625)"/>
       <path id="DejaVuSans-20" transform="scale(0.015625)"/>
       <path d="M 1984 4856 
Q 1566 4138 1362 3434 
Q 1159 2731 1159 2009 
Q 1159 1288 1364 580 
Q 1569 -128 1984 -844 
L 1484 -844 
Q 1016 -109 783 600 
Q 550 1309 550 2009 
Q 550 2706 781 3412 
Q 1013 4119 1484 4856 
L 1984 4856 
z
" id="DejaVuSans-28" transform="scale(0.015625)"/>
       <path d="M 3328 2828 
Q 3544 3216 3844 3400 
Q 4144 3584 4550 3584 
Q 5097 3584 5394 3201 
Q 5691 2819 5691 2113 
L 5691 0 
L 5113 0 
L 5113 2094 
Q 5113 2597 4934 2840 
Q 4756 3084 4391 3084 
Q 3944 3084 3684 2787 
Q 3425 2491 3425 1978 
L 3425 0 
L 2847 0 
L 2847 2094 
Q 2847 2600 2669 2842 
Q 2491 3084 2119 3084 
Q 1678 3084 1418 2786 
Q 1159 2488 1159 1978 
L 1159 0 
L 581 0 
L 581 3500 
L 1159 3500 
L 1159 2956 
Q 1356 3278 1631 3431 
Q 1906 3584 2284 3584 
Q 2666 3584 2933 3390 
Q 3200 3197 3328 2828 
z
" id="DejaVuSans-6d" transform="scale(0.015625)"/>
       <path d="M 513 4856 
L 1013 4856 
Q 1481 4119 1714 3412 
Q 1947 2706 1947 2009 
Q 1947 1309 1714 600 
Q 1481 -109 1013 -844 
L 513 -844 
Q 928 -128 1133 580 
Q 1338 1288 1338 2009 
Q 1338 2731 1133 3434 
Q 928 4138 513 4856 
z
" id="DejaVuSans-29" transform="scale(0.015625)"/>
      </defs>
      <use xlink:href="#DejaVuSans-78"/>
      <use x="59.179688" xlink:href="#DejaVuSans-20"/>
      <use x="90.966797" xlink:href="#DejaVuSans-28"/>
      <use x="129.980469" xlink:href="#DejaVuSans-6d"/>
      <use x="227.392578" xlink:href="#DejaVuSans-29"/>
     </g>
    </g>
   </g>
   <g id="matplotlib.axis_2">
    <g id="ytick_1">
     <g id="line2d_7">
      <path clip-path="url(#p1b2a90413b)" d="M 82.82 214.206349 
L 253.755 214.206349 
" style="fill:none;stroke:#b0b0b0;stroke-linecap:square;stroke-width:0.8;"/>
     </g>
     <g id="line2d_8">
      <defs>
       <path d="M 0 0 
L -3.5 0 
" id="mee86ab5fd4" style="stroke:#000000;stroke-width:0.8;"/>
      </defs>
      <g>
       <use style="stroke:#000000;stroke-width:0.8;" x="82.82" xlink:href="#mee86ab5fd4" y="214.206349"/>
      </g>
     </g>
     <g id="text_5">
      <!-- 0.00 -->
      <g transform="translate(53.554375 218.005568)scale(0.1 -0.1)">
       <use xlink:href="#DejaVuSans-30"/>
       <use x="63.623047" xlink:href="#DejaVuSans-2e"/>
       <use x="95.410156" xlink:href="#DejaVuSans-30"/>
       <use x="159.033203" xlink:href="#DejaVuSans-30"/>
      </g>
     </g>
    </g>
    <g id="ytick_2">
     <g id="line2d_9">
      <path clip-path="url(#p1b2a90413b)" d="M 82.82 187.691172 
L 253.755 187.691172 
" style="fill:none;stroke:#b0b0b0;stroke-linecap:square;stroke-width:0.8;"/>
     </g>
     <g id="line2d_10">
      <g>
       <use style="stroke:#000000;stroke-width:0.8;" x="82.82" xlink:href="#mee86ab5fd4" y="187.691172"/>
      </g>
     </g>
     <g id="text_6">
      <!-- 0.02 -->
      <g transform="translate(53.554375 191.490391)scale(0.1 -0.1)">
       <defs>
        <path d="M 1228 531 
L 3431 531 
L 3431 0 
L 469 0 
L 469 531 
Q 828 903 1448 1529 
Q 2069 2156 2228 2338 
Q 2531 2678 2651 2914 
Q 2772 3150 2772 3378 
Q 2772 3750 2511 3984 
Q 2250 4219 1831 4219 
Q 1534 4219 1204 4116 
Q 875 4013 500 3803 
L 500 4441 
Q 881 4594 1212 4672 
Q 1544 4750 1819 4750 
Q 2544 4750 2975 4387 
Q 3406 4025 3406 3419 
Q 3406 3131 3298 2873 
Q 3191 2616 2906 2266 
Q 2828 2175 2409 1742 
Q 1991 1309 1228 531 
z
" id="DejaVuSans-32" transform="scale(0.015625)"/>
       </defs>
       <use xlink:href="#DejaVuSans-30"/>
       <use x="63.623047" xlink:href="#DejaVuSans-2e"/>
       <use x="95.410156" xlink:href="#DejaVuSans-30"/>
       <use x="159.033203" xlink:href="#DejaVuSans-32"/>
      </g>
     </g>
    </g>
    <g id="ytick_3">
     <g id="line2d_11">
      <path clip-path="url(#p1b2a90413b)" d="M 82.82 161.175995 
L 253.755 161.175995 
" style="fill:none;stroke:#b0b0b0;stroke-linecap:square;stroke-width:0.8;"/>
     </g>
     <g id="line2d_12">
      <g>
       <use style="stroke:#000000;stroke-width:0.8;" x="82.82" xlink:href="#mee86ab5fd4" y="161.175995"/>
      </g>
     </g>
     <g id="text_7">
      <!-- 0.04 -->
      <g transform="translate(53.554375 164.975213)scale(0.1 -0.1)">
       <defs>
        <path d="M 2419 4116 
L 825 1625 
L 2419 1625 
L 2419 4116 
z
M 2253 4666 
L 3047 4666 
L 3047 1625 
L 3713 1625 
L 3713 1100 
L 3047 1100 
L 3047 0 
L 2419 0 
L 2419 1100 
L 313 1100 
L 313 1709 
L 2253 4666 
z
" id="DejaVuSans-34" transform="scale(0.015625)"/>
       </defs>
       <use xlink:href="#DejaVuSans-30"/>
       <use x="63.623047" xlink:href="#DejaVuSans-2e"/>
       <use x="95.410156" xlink:href="#DejaVuSans-30"/>
       <use x="159.033203" xlink:href="#DejaVuSans-34"/>
      </g>
     </g>
    </g>
    <g id="ytick_4">
     <g id="line2d_13">
      <path clip-path="url(#p1b2a90413b)" d="M 82.82 134.660817 
L 253.755 134.660817 
" style="fill:none;stroke:#b0b0b0;stroke-linecap:square;stroke-width:0.8;"/>
     </g>
     <g id="line2d_14">
      <g>
       <use style="stroke:#000000;stroke-width:0.8;" x="82.82" xlink:href="#mee86ab5fd4" y="134.660817"/>
      </g>
     </g>
     <g id="text_8">
      <!-- 0.06 -->
      <g transform="translate(53.554375 138.460036)scale(0.1 -0.1)">
       <defs>
        <path d="M 2113 2584 
Q 1688 2584 1439 2293 
Q 1191 2003 1191 1497 
Q 1191 994 1439 701 
Q 1688 409 2113 409 
Q 2538 409 2786 701 
Q 3034 994 3034 1497 
Q 3034 2003 2786 2293 
Q 2538 2584 2113 2584 
z
M 3366 4563 
L 3366 3988 
Q 3128 4100 2886 4159 
Q 2644 4219 2406 4219 
Q 1781 4219 1451 3797 
Q 1122 3375 1075 2522 
Q 1259 2794 1537 2939 
Q 1816 3084 2150 3084 
Q 2853 3084 3261 2657 
Q 3669 2231 3669 1497 
Q 3669 778 3244 343 
Q 2819 -91 2113 -91 
Q 1303 -91 875 529 
Q 447 1150 447 2328 
Q 447 3434 972 4092 
Q 1497 4750 2381 4750 
Q 2619 4750 2861 4703 
Q 3103 4656 3366 4563 
z
" id="DejaVuSans-36" transform="scale(0.015625)"/>
       </defs>
       <use xlink:href="#DejaVuSans-30"/>
       <use x="63.623047" xlink:href="#DejaVuSans-2e"/>
       <use x="95.410156" xlink:href="#DejaVuSans-30"/>
       <use x="159.033203" xlink:href="#DejaVuSans-36"/>
      </g>
     </g>
    </g>
    <g id="ytick_5">
     <g id="line2d_15">
      <path clip-path="url(#p1b2a90413b)" d="M 82.82 108.14564 
L 253.755 108.14564 
" style="fill:none;stroke:#b0b0b0;stroke-linecap:square;stroke-width:0.8;"/>
     </g>
     <g id="line2d_16">
      <g>
       <use style="stroke:#000000;stroke-width:0.8;" x="82.82" xlink:href="#mee86ab5fd4" y="108.14564"/>
      </g>
     </g>
     <g id="text_9">
      <!-- 0.08 -->
      <g transform="translate(53.554375 111.944858)scale(0.1 -0.1)">
       <defs>
        <path d="M 2034 2216 
Q 1584 2216 1326 1975 
Q 1069 1734 1069 1313 
Q 1069 891 1326 650 
Q 1584 409 2034 409 
Q 2484 409 2743 651 
Q 3003 894 3003 1313 
Q 3003 1734 2745 1975 
Q 2488 2216 2034 2216 
z
M 1403 2484 
Q 997 2584 770 2862 
Q 544 3141 544 3541 
Q 544 4100 942 4425 
Q 1341 4750 2034 4750 
Q 2731 4750 3128 4425 
Q 3525 4100 3525 3541 
Q 3525 3141 3298 2862 
Q 3072 2584 2669 2484 
Q 3125 2378 3379 2068 
Q 3634 1759 3634 1313 
Q 3634 634 3220 271 
Q 2806 -91 2034 -91 
Q 1263 -91 848 271 
Q 434 634 434 1313 
Q 434 1759 690 2068 
Q 947 2378 1403 2484 
z
M 1172 3481 
Q 1172 3119 1398 2916 
Q 1625 2713 2034 2713 
Q 2441 2713 2670 2916 
Q 2900 3119 2900 3481 
Q 2900 3844 2670 4047 
Q 2441 4250 2034 4250 
Q 1625 4250 1398 4047 
Q 1172 3844 1172 3481 
z
" id="DejaVuSans-38" transform="scale(0.015625)"/>
       </defs>
       <use xlink:href="#DejaVuSans-30"/>
       <use x="63.623047" xlink:href="#DejaVuSans-2e"/>
       <use x="95.410156" xlink:href="#DejaVuSans-30"/>
       <use x="159.033203" xlink:href="#DejaVuSans-38"/>
      </g>
     </g>
    </g>
    <g id="ytick_6">
     <g id="line2d_17">
      <path clip-path="url(#p1b2a90413b)" d="M 82.82 81.630462 
L 253.755 81.630462 
" style="fill:none;stroke:#b0b0b0;stroke-linecap:square;stroke-width:0.8;"/>
     </g>
     <g id="line2d_18">
      <g>
       <use style="stroke:#000000;stroke-width:0.8;" x="82.82" xlink:href="#mee86ab5fd4" y="81.630462"/>
      </g>
     </g>
     <g id="text_10">
      <!-- 0.10 -->
      <g transform="translate(53.554375 85.429681)scale(0.1 -0.1)">
       <use xlink:href="#DejaVuSans-30"/>
       <use x="63.623047" xlink:href="#DejaVuSans-2e"/>
       <use x="95.410156" xlink:href="#DejaVuSans-31"/>
       <use x="159.033203" xlink:href="#DejaVuSans-30"/>
      </g>
     </g>
    </g>
    <g id="text_11">
     <!-- y (m) -->
     <g transform="translate(47.474688 162.380313)rotate(-90)scale(0.1 -0.1)">
      <defs>
       <path d="M 2059 -325 
Q 1816 -950 1584 -1140 
Q 1353 -1331 966 -1331 
L 506 -1331 
L 506 -850 
L 844 -850 
Q 1081 -850 1212 -737 
Q 1344 -625 1503 -206 
L 1606 56 
L 191 3500 
L 800 3500 
L 1894 763 
L 2988 3500 
L 3597 3500 
L 2059 -325 
z
" id="DejaVuSans-79" transform="scale(0.015625)"/>
      </defs>
      <use xlink:href="#DejaVuSans-79"/>
      <use x="59.179688" xlink:href="#DejaVuSans-20"/>
      <use x="90.966797" xlink:href="#DejaVuSans-28"/>
      <use x="129.980469" xlink:href="#DejaVuSans-6d"/>
      <use x="227.392578" xlink:href="#DejaVuSans-29"/>
     </g>
    </g>
   </g>
   <g id="line2d_19">
    <path clip-path="url(#p1b2a90413b)" d="M 112.189801 214.206349 
L 117.798079 208.063662 
L 177.355675 143.090575 
L 201.446359 117.185729 
L 218.839073 98.793546 
L 229.03896 88.301617 
L 233.461099 84.01943 
L 234.594863 83.14613 
L 234.650021 83.176378 
L 234.639793 83.237927 
L 234.337447 83.752007 
L 233.264563 85.172536 
L 234.202961 84.134541 
L 241.734993 75.86801 
L 243.584984 73.987859 
L 243.238935 74.429146 
L 243.35651 74.280647 
L 241.636919 76.10606 
L 237.779806 80.169201 
L 237.779806 80.169201 
" style="fill:none;stroke:#1f77b4;stroke-linecap:square;stroke-opacity:0.7;stroke-width:1.5;"/>
   </g>
   <g id="line2d_20">
    <path clip-path="url(#p1b2a90413b)" d="M 112.189801 214.206349 
L 109.412989 215.326157 
L 100.410308 218.779235 
L 96.351183 220.622246 
L 93.009259 222.36753 
L 91.001113 223.640077 
L 90.594261 224.09405 
L 90.732371 224.132128 
L 91.39015 223.972255 
L 93.343907 223.210566 
L 98.282508 220.995223 
L 103.904897 218.519775 
L 104.144588 218.527921 
L 104.1363 218.571975 
L 103.876362 218.840577 
L 102.971833 219.431445 
L 101.78892 219.950246 
L 100.844713 220.146576 
L 100.068324 220.097198 
L 99.438853 219.831839 
L 98.969568 219.392752 
L 98.625868 218.772853 
L 98.407874 217.910966 
L 98.358088 216.799431 
L 98.526938 215.361964 
L 98.966885 213.651297 
L 99.724959 211.641187 
L 100.754475 208.9742 
L 100.590362 209.005236 
L 100.094626 209.404033 
L 98.823704 210.754907 
L 96.60299 213.453185 
L 94.786424 215.600141 
L 94.710278 215.581765 
L 94.704633 215.522549 
L 94.84728 215.047053 
L 95.657877 212.675305 
L 95.588322 212.441486 
L 95.569199 212.443052 
L 95.380202 212.599773 
L 94.961722 213.278999 
L 94.332563 214.731412 
L 93.893077 216.241626 
L 93.853269 217.064492 
L 94.018163 217.277126 
L 94.234118 217.204778 
L 94.64232 216.780791 
L 95.344123 215.685934 
L 96.431662 213.53708 
L 97.442191 211.075909 
L 97.848678 209.580212 
L 97.864496 208.790853 
L 97.672361 208.432805 
L 97.378379 208.343796 
L 96.934909 208.475974 
L 96.29227 208.93924 
L 95.525673 209.780965 
L 95.000239 210.636398 
L 95.027548 210.864097 
L 95.266554 210.829136 
L 96.081473 210.379971 
L 98.189226 208.885608 
L 102.076486 205.808982 
L 107.547854 201.168916 
L 115.314688 194.276057 
L 125.544804 184.870938 
L 138.132097 172.990959 
L 152.647865 158.986608 
L 167.20212 144.641099 
L 179.901691 131.818174 
L 190.342598 120.962248 
L 198.485919 112.176134 
L 204.54667 105.334635 
L 209.33961 99.60491 
L 212.886012 95.015439 
L 215.065681 91.867248 
L 216.434733 89.536369 
L 217.11905 87.938083 
L 217.265458 87.058672 
L 217.131081 86.627891 
L 216.820011 86.440241 
L 216.312127 86.458756 
L 215.567013 86.732608 
L 214.627663 87.318522 
L 214.206101 87.785825 
L 214.325506 87.842958 
L 214.84515 87.686136 
L 216.325109 86.9649 
L 220.063842 84.843545 
L 227.848204 80.42146 
L 231.433488 78.636989 
L 234.221885 77.49312 
L 236.238437 76.907694 
L 237.614849 76.714252 
L 238.768505 76.776657 
L 239.595336 77.039167 
L 240.258375 77.485725 
L 240.76929 78.1004 
L 241.187096 78.982693 
L 241.477812 80.161976 
L 241.63285 81.790645 
L 241.614207 84.146219 
L 241.468728 89.634763 
L 241.688856 90.293697 
L 241.955309 90.522609 
L 242.305406 90.527299 
L 242.780697 90.288879 
L 243.496526 89.65447 
L 244.429215 88.524882 
L 245.357708 87.059338 
L 245.884083 85.839707 
L 245.979595 85.114319 
L 245.837068 84.726732 
L 245.542896 84.515514 
L 245.02516 84.442502 
L 244.238799 84.575638 
L 243.053557 85.029849 
L 241.562036 85.849078 
L 239.720004 87.11905 
L 237.461056 88.966177 
L 234.45008 91.754545 
L 233.825905 92.410096 
L 234.133719 92.209399 
L 236.879194 90.020729 
L 244.000662 84.329414 
L 244.133092 84.465095 
L 244.135862 84.8624 
L 243.867798 86.024887 
L 242.764155 89.541672 
L 242.728327 89.603768 
L 242.834496 89.098884 
L 243.318961 87.737479 
L 243.775021 87.03009 
L 243.830843 87.012027 
L 243.769026 87.171447 
L 243.315192 87.655106 
L 242.372375 88.320358 
L 241.099162 88.944688 
L 239.710647 89.384512 
L 238.472862 89.560713 
L 237.485426 89.497204 
L 236.709955 89.22862 
L 236.151321 88.794277 
L 235.791981 88.245473 
L 235.579814 87.501912 
L 235.567297 86.560721 
L 235.799586 85.445838 
L 236.302988 84.214938 
L 237.016365 83.042806 
L 237.920382 81.973912 
L 238.852045 81.199263 
L 239.634127 80.805859 
L 240.174531 80.743984 
L 240.532645 80.907964 
L 240.749135 81.258461 
L 240.833431 81.851099 
L 240.724972 82.784522 
L 240.350729 84.04646 
L 239.837214 85.080473 
L 239.530859 85.309736 
L 239.38877 85.179044 
L 239.264056 84.656654 
L 238.890177 81.75523 
L 238.799839 81.85418 
L 238.629878 82.431604 
L 238.437511 83.906239 
L 238.457781 85.216946 
L 238.625656 85.535982 
L 238.786958 85.436259 
L 239.16205 84.852225 
L 239.987516 83.615309 
L 240.389421 83.38266 
L 240.711097 83.440026 
L 241.037722 83.75563 
L 241.404988 84.464071 
L 241.882977 85.940232 
L 242.614889 88.140871 
L 242.993927 88.619842 
L 243.329509 88.722454 
L 243.732579 88.600375 
L 244.097688 88.269484 
L 244.132187 87.996201 
L 243.925386 87.852813 
L 243.27135 87.74133 
L 240.584761 87.391525 
L 239.234009 86.964367 
L 238.015732 86.346711 
L 236.859045 85.502911 
L 235.781609 84.435293 
L 234.740933 83.07834 
L 233.703606 81.701414 
L 233.68655 81.717603 
L 233.651433 81.958492 
L 233.800774 83.279532 
L 234.313811 86.81287 
L 234.492417 86.86111 
L 234.666752 86.630651 
L 234.845377 85.975633 
L 234.94613 84.71213 
L 234.881825 82.391351 
L 234.615761 79.908573 
L 234.340914 79.070781 
L 234.112005 78.944003 
L 233.931865 79.099162 
L 233.709206 79.635354 
L 233.524526 80.686076 
L 233.478093 82.304131 
L 233.643133 84.027364 
L 234.003162 85.62348 
L 234.518603 86.946589 
L 235.141134 87.937987 
L 235.822787 88.605717 
L 236.520506 88.996081 
L 237.276066 89.179933 
L 238.150305 89.157562 
L 239.119221 88.896579 
L 240.135624 88.39027 
L 241.196531 87.609035 
L 242.177619 86.615502 
L 242.994339 85.478259 
L 243.400447 84.569192 
L 243.358602 84.298965 
L 243.350436 84.298171 
L 243.174037 84.39983 
L 242.812633 84.900287 
L 242.578633 85.561707 
L 242.664931 85.810344 
L 242.884377 85.812228 
L 243.333128 85.562109 
L 243.975026 84.946274 
L 244.375408 84.290683 
L 244.451196 83.793282 
L 244.297394 83.430955 
L 243.910488 83.130121 
L 243.214438 82.910011 
L 242.161537 82.841282 
L 240.853782 82.985236 
L 239.276169 83.391449 
L 237.544161 84.081304 
L 235.83058 85.00475 
L 234.205276 86.135484 
L 233.136735 87.13118 
L 232.940402 87.543328 
L 233.083415 87.573202 
L 233.562059 87.393643 
L 234.760249 86.680741 
L 236.819239 85.180041 
L 238.787197 83.482844 
L 240.095351 82.082309 
L 240.796054 81.035291 
L 241.03703 80.330295 
L 240.988264 79.809574 
L 240.724251 79.447095 
L 240.220876 79.169982 
L 239.410152 78.998809 
L 238.250601 78.998592 
L 238.102708 79.013249 
L 238.102708 79.013249 
" style="fill:none;stroke:#d62728;stroke-linecap:square;stroke-opacity:0.7;stroke-width:1.5;"/>
   </g>
   <g id="line2d_21">
    <path clip-path="url(#p1b2a90413b)" d="M 112.189801 214.206349 
L 236.392608 81.630462 
L 236.392608 81.630462 
" style="fill:none;stroke:#000000;stroke-dasharray:5.55,2.4;stroke-dashoffset:0;stroke-opacity:0.595;stroke-width:1.5;"/>
   </g>
   <g id="patch_3">
    <path d="M 82.82 231.64 
L 82.82 66.48 
" style="fill:none;stroke:#000000;stroke-linecap:square;stroke-linejoin:miter;stroke-width:0.8;"/>
   </g>
   <g id="patch_4">
    <path d="M 253.755 231.64 
L 253.755 66.48 
" style="fill:none;stroke:#000000;stroke-linecap:square;stroke-linejoin:miter;stroke-width:0.8;"/>
   </g>
   <g id="patch_5">
    <path d="M 82.82 231.64 
L 253.755 231.64 
" style="fill:none;stroke:#000000;stroke-linecap:square;stroke-linejoin:miter;stroke-width:0.8;"/>
   </g>
   <g id="patch_6">
    <path d="M 82.82 66.48 
L 253.755 66.48 
" style="fill:none;stroke:#000000;stroke-linecap:square;stroke-linejoin:miter;stroke-width:0.8;"/>
   </g>
   <g id="text_12">
    <!-- Plano xy -->
    <g transform="translate(142.842812 60.48)scale(0.12 -0.12)">
     <defs>
      <path d="M 1259 4147 
L 1259 2394 
L 2053 2394 
Q 2494 2394 2734 2622 
Q 2975 2850 2975 3272 
Q 2975 3691 2734 3919 
Q 2494 4147 2053 4147 
L 1259 4147 
z
M 628 4666 
L 2053 4666 
Q 2838 4666 3239 4311 
Q 3641 3956 3641 3272 
Q 3641 2581 3239 2228 
Q 2838 1875 2053 1875 
L 1259 1875 
L 1259 0 
L 628 0 
L 628 4666 
z
" id="DejaVuSans-50" transform="scale(0.015625)"/>
      <path d="M 603 4863 
L 1178 4863 
L 1178 0 
L 603 0 
L 603 4863 
z
" id="DejaVuSans-6c" transform="scale(0.015625)"/>
      <path d="M 2194 1759 
Q 1497 1759 1228 1600 
Q 959 1441 959 1056 
Q 959 750 1161 570 
Q 1363 391 1709 391 
Q 2188 391 2477 730 
Q 2766 1069 2766 1631 
L 2766 1759 
L 2194 1759 
z
M 3341 1997 
L 3341 0 
L 2766 0 
L 2766 531 
Q 2569 213 2275 61 
Q 1981 -91 1556 -91 
Q 1019 -91 701 211 
Q 384 513 384 1019 
Q 384 1609 779 1909 
Q 1175 2209 1959 2209 
L 2766 2209 
L 2766 2266 
Q 2766 2663 2505 2880 
Q 2244 3097 1772 3097 
Q 1472 3097 1187 3025 
Q 903 2953 641 2809 
L 641 3341 
Q 956 3463 1253 3523 
Q 1550 3584 1831 3584 
Q 2591 3584 2966 3190 
Q 3341 2797 3341 1997 
z
" id="DejaVuSans-61" transform="scale(0.015625)"/>
      <path d="M 3513 2113 
L 3513 0 
L 2938 0 
L 2938 2094 
Q 2938 2591 2744 2837 
Q 2550 3084 2163 3084 
Q 1697 3084 1428 2787 
Q 1159 2491 1159 1978 
L 1159 0 
L 581 0 
L 581 3500 
L 1159 3500 
L 1159 2956 
Q 1366 3272 1645 3428 
Q 1925 3584 2291 3584 
Q 2894 3584 3203 3211 
Q 3513 2838 3513 2113 
z
" id="DejaVuSans-6e" transform="scale(0.015625)"/>
      <path d="M 1959 3097 
Q 1497 3097 1228 2736 
Q 959 2375 959 1747 
Q 959 1119 1226 758 
Q 1494 397 1959 397 
Q 2419 397 2687 759 
Q 2956 1122 2956 1747 
Q 2956 2369 2687 2733 
Q 2419 3097 1959 3097 
z
M 1959 3584 
Q 2709 3584 3137 3096 
Q 3566 2609 3566 1747 
Q 3566 888 3137 398 
Q 2709 -91 1959 -91 
Q 1206 -91 779 398 
Q 353 888 353 1747 
Q 353 2609 779 3096 
Q 1206 3584 1959 3584 
z
" id="DejaVuSans-6f" transform="scale(0.015625)"/>
     </defs>
     <use xlink:href="#DejaVuSans-50"/>
     <use x="60.302734" xlink:href="#DejaVuSans-6c"/>
     <use x="88.085938" xlink:href="#DejaVuSans-61"/>
     <use x="149.365234" xlink:href="#DejaVuSans-6e"/>
     <use x="212.744141" xlink:href="#DejaVuSans-6f"/>
     <use x="273.925781" xlink:href="#DejaVuSans-20"/>
     <use x="305.712891" xlink:href="#DejaVuSans-78"/>
     <use x="364.892578" xlink:href="#DejaVuSans-79"/>
    </g>
   </g>
  </g>
  <g id="axes_2">
   <g id="patch_7">
    <path d="M 307.865 231.64 
L 478.8 231.64 
L 478.8 66.48 
L 307.865 66.48 
z
" style="fill:#ffffff;"/>
   </g>
   <g id="matplotlib.axis_3">
    <g id="xtick_4">
     <g id="line2d_22">
      <path clip-path="url(#p749cfd57ac)" d="M 315.634773 231.64 
L 315.634773 66.48 
" style="fill:none;stroke:#b0b0b0;stroke-linecap:square;stroke-width:0.8;"/>
     </g>
     <g id="line2d_23">
      <g>
       <use style="stroke:#000000;stroke-width:0.8;" x="315.634773" xlink:href="#med48fdc63d" y="231.64"/>
      </g>
     </g>
     <g id="text_13">
      <!-- 0 -->
      <g transform="translate(312.453523 246.238438)scale(0.1 -0.1)">
       <use xlink:href="#DejaVuSans-30"/>
      </g>
     </g>
    </g>
    <g id="xtick_5">
     <g id="line2d_24">
      <path clip-path="url(#p749cfd57ac)" d="M 354.491732 231.64 
L 354.491732 66.48 
" style="fill:none;stroke:#b0b0b0;stroke-linecap:square;stroke-width:0.8;"/>
     </g>
     <g id="line2d_25">
      <g>
       <use style="stroke:#000000;stroke-width:0.8;" x="354.491732" xlink:href="#med48fdc63d" y="231.64"/>
      </g>
     </g>
     <g id="text_14">
      <!-- 5 -->
      <g transform="translate(351.310482 246.238438)scale(0.1 -0.1)">
       <use xlink:href="#DejaVuSans-35"/>
      </g>
     </g>
    </g>
    <g id="xtick_6">
     <g id="line2d_26">
      <path clip-path="url(#p749cfd57ac)" d="M 393.34869 231.64 
L 393.34869 66.48 
" style="fill:none;stroke:#b0b0b0;stroke-linecap:square;stroke-width:0.8;"/>
     </g>
     <g id="line2d_27">
      <g>
       <use style="stroke:#000000;stroke-width:0.8;" x="393.34869" xlink:href="#med48fdc63d" y="231.64"/>
      </g>
     </g>
     <g id="text_15">
      <!-- 10 -->
      <g transform="translate(386.98619 246.238438)scale(0.1 -0.1)">
       <use xlink:href="#DejaVuSans-31"/>
       <use x="63.623047" xlink:href="#DejaVuSans-30"/>
      </g>
     </g>
    </g>
    <g id="xtick_7">
     <g id="line2d_28">
      <path clip-path="url(#p749cfd57ac)" d="M 432.205649 231.64 
L 432.205649 66.48 
" style="fill:none;stroke:#b0b0b0;stroke-linecap:square;stroke-width:0.8;"/>
     </g>
     <g id="line2d_29">
      <g>
       <use style="stroke:#000000;stroke-width:0.8;" x="432.205649" xlink:href="#med48fdc63d" y="231.64"/>
      </g>
     </g>
     <g id="text_16">
      <!-- 15 -->
      <g transform="translate(425.843149 246.238438)scale(0.1 -0.1)">
       <use xlink:href="#DejaVuSans-31"/>
       <use x="63.623047" xlink:href="#DejaVuSans-35"/>
      </g>
     </g>
    </g>
    <g id="xtick_8">
     <g id="line2d_30">
      <path clip-path="url(#p749cfd57ac)" d="M 471.062608 231.64 
L 471.062608 66.48 
" style="fill:none;stroke:#b0b0b0;stroke-linecap:square;stroke-width:0.8;"/>
     </g>
     <g id="line2d_31">
      <g>
       <use style="stroke:#000000;stroke-width:0.8;" x="471.062608" xlink:href="#med48fdc63d" y="231.64"/>
      </g>
     </g>
     <g id="text_17">
      <!-- 20 -->
      <g transform="translate(464.700108 246.238438)scale(0.1 -0.1)">
       <use xlink:href="#DejaVuSans-32"/>
       <use x="63.623047" xlink:href="#DejaVuSans-30"/>
      </g>
     </g>
    </g>
    <g id="text_18">
     <!-- Tiempo (s) -->
     <g transform="translate(366.77 259.916562)scale(0.1 -0.1)">
      <defs>
       <path d="M -19 4666 
L 3928 4666 
L 3928 4134 
L 2272 4134 
L 2272 0 
L 1638 0 
L 1638 4134 
L -19 4134 
L -19 4666 
z
" id="DejaVuSans-54" transform="scale(0.015625)"/>
       <path d="M 603 3500 
L 1178 3500 
L 1178 0 
L 603 0 
L 603 3500 
z
M 603 4863 
L 1178 4863 
L 1178 4134 
L 603 4134 
L 603 4863 
z
" id="DejaVuSans-69" transform="scale(0.015625)"/>
       <path d="M 3597 1894 
L 3597 1613 
L 953 1613 
Q 991 1019 1311 708 
Q 1631 397 2203 397 
Q 2534 397 2845 478 
Q 3156 559 3463 722 
L 3463 178 
Q 3153 47 2828 -22 
Q 2503 -91 2169 -91 
Q 1331 -91 842 396 
Q 353 884 353 1716 
Q 353 2575 817 3079 
Q 1281 3584 2069 3584 
Q 2775 3584 3186 3129 
Q 3597 2675 3597 1894 
z
M 3022 2063 
Q 3016 2534 2758 2815 
Q 2500 3097 2075 3097 
Q 1594 3097 1305 2825 
Q 1016 2553 972 2059 
L 3022 2063 
z
" id="DejaVuSans-65" transform="scale(0.015625)"/>
       <path d="M 1159 525 
L 1159 -1331 
L 581 -1331 
L 581 3500 
L 1159 3500 
L 1159 2969 
Q 1341 3281 1617 3432 
Q 1894 3584 2278 3584 
Q 2916 3584 3314 3078 
Q 3713 2572 3713 1747 
Q 3713 922 3314 415 
Q 2916 -91 2278 -91 
Q 1894 -91 1617 61 
Q 1341 213 1159 525 
z
M 3116 1747 
Q 3116 2381 2855 2742 
Q 2594 3103 2138 3103 
Q 1681 3103 1420 2742 
Q 1159 2381 1159 1747 
Q 1159 1113 1420 752 
Q 1681 391 2138 391 
Q 2594 391 2855 752 
Q 3116 1113 3116 1747 
z
" id="DejaVuSans-70" transform="scale(0.015625)"/>
       <path d="M 2834 3397 
L 2834 2853 
Q 2591 2978 2328 3040 
Q 2066 3103 1784 3103 
Q 1356 3103 1142 2972 
Q 928 2841 928 2578 
Q 928 2378 1081 2264 
Q 1234 2150 1697 2047 
L 1894 2003 
Q 2506 1872 2764 1633 
Q 3022 1394 3022 966 
Q 3022 478 2636 193 
Q 2250 -91 1575 -91 
Q 1294 -91 989 -36 
Q 684 19 347 128 
L 347 722 
Q 666 556 975 473 
Q 1284 391 1588 391 
Q 1994 391 2212 530 
Q 2431 669 2431 922 
Q 2431 1156 2273 1281 
Q 2116 1406 1581 1522 
L 1381 1569 
Q 847 1681 609 1914 
Q 372 2147 372 2553 
Q 372 3047 722 3315 
Q 1072 3584 1716 3584 
Q 2034 3584 2315 3537 
Q 2597 3491 2834 3397 
z
" id="DejaVuSans-73" transform="scale(0.015625)"/>
      </defs>
      <use xlink:href="#DejaVuSans-54"/>
      <use x="57.958984" xlink:href="#DejaVuSans-69"/>
      <use x="85.742188" xlink:href="#DejaVuSans-65"/>
      <use x="147.265625" xlink:href="#DejaVuSans-6d"/>
      <use x="244.677734" xlink:href="#DejaVuSans-70"/>
      <use x="308.154297" xlink:href="#DejaVuSans-6f"/>
      <use x="369.335938" xlink:href="#DejaVuSans-20"/>
      <use x="401.123047" xlink:href="#DejaVuSans-28"/>
      <use x="440.136719" xlink:href="#DejaVuSans-73"/>
      <use x="492.236328" xlink:href="#DejaVuSans-29"/>
     </g>
    </g>
   </g>
   <g id="matplotlib.axis_4">
    <g id="ytick_7">
     <g id="line2d_32">
      <path clip-path="url(#p749cfd57ac)" d="M 307.865 216.510105 
L 478.8 216.510105 
" style="fill:none;stroke:#b0b0b0;stroke-linecap:square;stroke-width:0.8;"/>
     </g>
     <g id="line2d_33">
      <g>
       <use style="stroke:#000000;stroke-width:0.8;" x="307.865" xlink:href="#mee86ab5fd4" y="216.510105"/>
      </g>
     </g>
     <g id="text_19">
      <!-- 0.95 -->
      <g transform="translate(278.599375 220.309324)scale(0.1 -0.1)">
       <defs>
        <path d="M 703 97 
L 703 672 
Q 941 559 1184 500 
Q 1428 441 1663 441 
Q 2288 441 2617 861 
Q 2947 1281 2994 2138 
Q 2813 1869 2534 1725 
Q 2256 1581 1919 1581 
Q 1219 1581 811 2004 
Q 403 2428 403 3163 
Q 403 3881 828 4315 
Q 1253 4750 1959 4750 
Q 2769 4750 3195 4129 
Q 3622 3509 3622 2328 
Q 3622 1225 3098 567 
Q 2575 -91 1691 -91 
Q 1453 -91 1209 -44 
Q 966 3 703 97 
z
M 1959 2075 
Q 2384 2075 2632 2365 
Q 2881 2656 2881 3163 
Q 2881 3666 2632 3958 
Q 2384 4250 1959 4250 
Q 1534 4250 1286 3958 
Q 1038 3666 1038 3163 
Q 1038 2656 1286 2365 
Q 1534 2075 1959 2075 
z
" id="DejaVuSans-39" transform="scale(0.015625)"/>
       </defs>
       <use xlink:href="#DejaVuSans-30"/>
       <use x="63.623047" xlink:href="#DejaVuSans-2e"/>
       <use x="95.410156" xlink:href="#DejaVuSans-39"/>
       <use x="159.033203" xlink:href="#DejaVuSans-35"/>
      </g>
     </g>
    </g>
    <g id="ytick_8">
     <g id="line2d_34">
      <path clip-path="url(#p749cfd57ac)" d="M 307.865 184.636735 
L 478.8 184.636735 
" style="fill:none;stroke:#b0b0b0;stroke-linecap:square;stroke-width:0.8;"/>
     </g>
     <g id="line2d_35">
      <g>
       <use style="stroke:#000000;stroke-width:0.8;" x="307.865" xlink:href="#mee86ab5fd4" y="184.636735"/>
      </g>
     </g>
     <g id="text_20">
      <!-- 1.00 -->
      <g transform="translate(278.599375 188.435954)scale(0.1 -0.1)">
       <use xlink:href="#DejaVuSans-31"/>
       <use x="63.623047" xlink:href="#DejaVuSans-2e"/>
       <use x="95.410156" xlink:href="#DejaVuSans-30"/>
       <use x="159.033203" xlink:href="#DejaVuSans-30"/>
      </g>
     </g>
    </g>
    <g id="ytick_9">
     <g id="line2d_36">
      <path clip-path="url(#p749cfd57ac)" d="M 307.865 152.763366 
L 478.8 152.763366 
" style="fill:none;stroke:#b0b0b0;stroke-linecap:square;stroke-width:0.8;"/>
     </g>
     <g id="line2d_37">
      <g>
       <use style="stroke:#000000;stroke-width:0.8;" x="307.865" xlink:href="#mee86ab5fd4" y="152.763366"/>
      </g>
     </g>
     <g id="text_21">
      <!-- 1.05 -->
      <g transform="translate(278.599375 156.562585)scale(0.1 -0.1)">
       <use xlink:href="#DejaVuSans-31"/>
       <use x="63.623047" xlink:href="#DejaVuSans-2e"/>
       <use x="95.410156" xlink:href="#DejaVuSans-30"/>
       <use x="159.033203" xlink:href="#DejaVuSans-35"/>
      </g>
     </g>
    </g>
    <g id="ytick_10">
     <g id="line2d_38">
      <path clip-path="url(#p749cfd57ac)" d="M 307.865 120.889997 
L 478.8 120.889997 
" style="fill:none;stroke:#b0b0b0;stroke-linecap:square;stroke-width:0.8;"/>
     </g>
     <g id="line2d_39">
      <g>
       <use style="stroke:#000000;stroke-width:0.8;" x="307.865" xlink:href="#mee86ab5fd4" y="120.889997"/>
      </g>
     </g>
     <g id="text_22">
      <!-- 1.10 -->
      <g transform="translate(278.599375 124.689215)scale(0.1 -0.1)">
       <use xlink:href="#DejaVuSans-31"/>
       <use x="63.623047" xlink:href="#DejaVuSans-2e"/>
       <use x="95.410156" xlink:href="#DejaVuSans-31"/>
       <use x="159.033203" xlink:href="#DejaVuSans-30"/>
      </g>
     </g>
    </g>
    <g id="ytick_11">
     <g id="line2d_40">
      <path clip-path="url(#p749cfd57ac)" d="M 307.865 89.016627 
L 478.8 89.016627 
" style="fill:none;stroke:#b0b0b0;stroke-linecap:square;stroke-width:0.8;"/>
     </g>
     <g id="line2d_41">
      <g>
       <use style="stroke:#000000;stroke-width:0.8;" x="307.865" xlink:href="#mee86ab5fd4" y="89.016627"/>
      </g>
     </g>
     <g id="text_23">
      <!-- 1.15 -->
      <g transform="translate(278.599375 92.815846)scale(0.1 -0.1)">
       <use xlink:href="#DejaVuSans-31"/>
       <use x="63.623047" xlink:href="#DejaVuSans-2e"/>
       <use x="95.410156" xlink:href="#DejaVuSans-31"/>
       <use x="159.033203" xlink:href="#DejaVuSans-35"/>
      </g>
     </g>
    </g>
    <g id="text_24">
     <!-- z (m) -->
     <g transform="translate(272.519688 162.045156)rotate(-90)scale(0.1 -0.1)">
      <defs>
       <path d="M 353 3500 
L 3084 3500 
L 3084 2975 
L 922 459 
L 3084 459 
L 3084 0 
L 275 0 
L 275 525 
L 2438 3041 
L 353 3041 
L 353 3500 
z
" id="DejaVuSans-7a" transform="scale(0.015625)"/>
      </defs>
      <use xlink:href="#DejaVuSans-7a"/>
      <use x="52.490234" xlink:href="#DejaVuSans-20"/>
      <use x="84.277344" xlink:href="#DejaVuSans-28"/>
      <use x="123.291016" xlink:href="#DejaVuSans-6d"/>
      <use x="220.703125" xlink:href="#DejaVuSans-29"/>
     </g>
    </g>
   </g>
   <g id="line2d_42">
    <path clip-path="url(#p749cfd57ac)" d="M 315.634773 184.745193 
L 315.958581 185.407916 
L 316.282389 185.61392 
L 316.73572 185.612069 
L 318.613806 185.156982 
L 320.589035 184.877214 
L 323.568068 184.703728 
L 329.461374 184.627863 
L 354.718397 184.464921 
L 354.880301 183.230516 
L 355.23649 178.153824 
L 356.85553 152.815904 
L 357.66505 144.455965 
L 358.539331 137.734487 
L 359.381232 132.870777 
L 360.190752 129.441638 
L 360.967891 127.072211 
L 361.809792 125.20892 
L 362.716455 123.727293 
L 363.655498 122.598754 
L 364.626922 121.772609 
L 365.695488 121.156201 
L 366.99072 120.672449 
L 368.577379 120.324822 
L 370.779273 120.090615 
L 374.2764 119.965681 
L 382.501123 119.955524 
L 471.030227 120.300237 
L 471.030227 120.300237 
" style="fill:none;stroke:#1f77b4;stroke-linecap:square;stroke-opacity:0.7;stroke-width:1.5;"/>
   </g>
   <g id="line2d_43">
    <path clip-path="url(#p749cfd57ac)" d="M 315.634773 184.745193 
L 317.933809 192.712212 
L 318.387141 196.473397 
L 319.229041 205.79705 
L 320.297608 216.969202 
L 320.912843 221.376393 
L 321.398555 223.433627 
L 321.722363 224.051587 
L 321.949029 224.123286 
L 322.143313 223.955839 
L 322.434741 223.335928 
L 322.855691 221.781856 
L 323.470926 218.516652 
L 324.507112 211.560409 
L 329.493755 177.269297 
L 329.979467 175.661599 
L 330.335655 175.098526 
L 330.594702 175.029386 
L 330.821367 175.204758 
L 331.112795 175.746982 
L 331.501364 176.99493 
L 332.019457 179.471029 
L 332.764215 184.245321 
L 335.160395 200.602487 
L 335.872772 203.921942 
L 336.390865 205.44785 
L 336.779434 206.028216 
L 337.070862 206.137658 
L 337.329908 206.004015 
L 337.653716 205.544143 
L 338.074666 204.506404 
L 338.689902 202.306282 
L 340.276561 195.42124 
L 342.769882 183.715957 
L 345.781297 168.449035 
L 347.367956 160.741396 
L 347.853668 159.39367 
L 348.177476 159.016308 
L 348.404141 159.02705 
L 348.630807 159.272561 
L 348.922234 159.936838 
L 349.310804 161.424872 
L 349.828897 164.399726 
L 350.541274 169.939212 
L 353.066976 190.92645 
L 353.682212 193.904664 
L 354.167924 195.29968 
L 354.524112 195.784372 
L 354.686016 195.832219 
L 354.81554 195.446153 
L 355.074586 193.630642 
L 355.560298 188.225221 
L 357.017434 171.097077 
L 357.503146 167.957286 
L 357.826954 166.961937 
L 358.021239 166.815516 
L 358.183143 166.957423 
L 358.409808 167.556316 
L 358.733616 169.162451 
L 359.28409 173.297405 
L 360.546941 183.187852 
L 361.032653 185.341979 
L 361.421223 186.205 
L 361.71265 186.385712 
L 361.939315 186.279252 
L 362.230743 185.865691 
L 362.651693 184.796321 
L 363.169786 182.814801 
L 363.849782 179.218685 
L 364.918349 172.109322 
L 368.22119 148.35875 
L 372.074505 120.468287 
L 372.65736 118.14362 
L 373.143072 117.015217 
L 373.531641 116.609802 
L 373.823069 116.591046 
L 374.114496 116.812911 
L 374.503065 117.454125 
L 375.118301 119.021137 
L 376.154486 121.585024 
L 376.70496 122.399807 
L 377.12591 122.670772 
L 377.482099 122.657097 
L 377.870668 122.410454 
L 378.388761 121.780815 
L 379.424947 120.04604 
L 380.979225 117.04075 
L 382.565884 113.492539 
L 384.217305 109.233388 
L 386.063011 103.827371 
L 388.167763 96.94284 
L 391.891554 84.540973 
L 392.312505 84.044604 
L 392.603932 83.987158 
L 392.895359 84.172586 
L 393.251548 84.714879 
L 393.704879 85.853688 
L 394.384876 88.237113 
L 396.262962 95.086632 
L 397.849621 99.935964 
L 399.371519 103.896951 
L 400.796274 107.013889 
L 402.059125 109.276115 
L 403.224834 110.924712 
L 404.325781 112.105709 
L 405.361967 112.901013 
L 406.365772 113.392002 
L 407.337196 113.617363 
L 408.276239 113.606008 
L 409.215282 113.373798 
L 410.186706 112.902591 
L 411.222891 112.144195 
L 412.356219 111.022213 
L 413.554309 109.515542 
L 414.881922 107.470884 
L 416.306677 104.852367 
L 417.893336 101.449313 
L 419.641899 97.151632 
L 421.617128 91.680677 
L 424.078069 84.166294 
L 425.243777 80.846615 
L 425.697109 80.143716 
L 425.988536 80.012862 
L 426.247582 80.136269 
L 426.539009 80.54625 
L 426.927579 81.519851 
L 427.445672 83.500594 
L 428.158049 87.252306 
L 430.457086 100.240038 
L 431.363748 103.897491 
L 432.140888 106.153904 
L 432.853265 107.566969 
L 433.662785 108.655915 
L 434.763732 109.767842 
L 435.767537 110.478261 
L 436.771342 110.921697 
L 437.742766 111.108077 
L 438.681809 111.059627 
L 439.588471 110.790524 
L 440.527515 110.272439 
L 441.725604 109.326387 
L 442.729409 108.243294 
L 444.024641 106.491904 
L 445.384634 104.26254 
L 446.874151 101.371903 
L 448.493191 97.724304 
L 450.274135 93.152367 
L 452.119841 87.786441 
L 454.192212 81.039918 
L 456.199821 74.56598 
L 456.588391 74.045437 
L 456.847437 73.999593 
L 457.106484 74.207151 
L 457.430292 74.815812 
L 457.851242 76.143936 
L 458.401716 78.675805 
L 459.178855 83.435755 
L 460.765514 93.413373 
L 461.510272 96.584995 
L 462.157888 98.45137 
L 462.837885 99.754786 
L 464.035975 101.46604 
L 465.266445 102.859626 
L 466.367392 103.781673 
L 467.338816 104.318894 
L 468.213098 104.563145 
L 469.054999 104.568232 
L 469.961661 104.335096 
L 470.933085 103.859654 
L 471.030227 103.79875 
L 471.030227 103.79875 
" style="fill:none;stroke:#d62728;stroke-linecap:square;stroke-opacity:0.7;stroke-width:1.5;"/>
   </g>
   <g id="line2d_44">
    <path clip-path="url(#p749cfd57ac)" d="M 315.634773 184.636735 
L 354.621255 184.636735 
L 354.750778 120.889997 
L 471.030227 120.889997 
L 471.030227 120.889997 
" style="fill:none;stroke:#000000;stroke-dasharray:5.55,2.4;stroke-dashoffset:0;stroke-opacity:0.595;stroke-width:1.5;"/>
   </g>
   <g id="patch_8">
    <path d="M 307.865 231.64 
L 307.865 66.48 
" style="fill:none;stroke:#000000;stroke-linecap:square;stroke-linejoin:miter;stroke-width:0.8;"/>
   </g>
   <g id="patch_9">
    <path d="M 478.8 231.64 
L 478.8 66.48 
" style="fill:none;stroke:#000000;stroke-linecap:square;stroke-linejoin:miter;stroke-width:0.8;"/>
   </g>
   <g id="patch_10">
    <path d="M 307.865 231.64 
L 478.8 231.64 
" style="fill:none;stroke:#000000;stroke-linecap:square;stroke-linejoin:miter;stroke-width:0.8;"/>
   </g>
   <g id="patch_11">
    <path d="M 307.865 66.48 
L 478.8 66.48 
" style="fill:none;stroke:#000000;stroke-linecap:square;stroke-linejoin:miter;stroke-width:0.8;"/>
   </g>
   <g id="text_25">
    <!-- Plano z -->
    <g transform="translate(371.84125 60.48)scale(0.12 -0.12)">
     <use xlink:href="#DejaVuSans-50"/>
     <use x="60.302734" xlink:href="#DejaVuSans-6c"/>
     <use x="88.085938" xlink:href="#DejaVuSans-61"/>
     <use x="149.365234" xlink:href="#DejaVuSans-6e"/>
     <use x="212.744141" xlink:href="#DejaVuSans-6f"/>
     <use x="273.925781" xlink:href="#DejaVuSans-20"/>
     <use x="305.712891" xlink:href="#DejaVuSans-7a"/>
    </g>
   </g>
  </g>
  <g id="text_26">
   <!-- Vista planos -->
   <g transform="translate(239.4 17.9175)scale(0.16 -0.16)">
    <defs>
     <path d="M 1831 0 
L 50 4666 
L 709 4666 
L 2188 738 
L 3669 4666 
L 4325 4666 
L 2547 0 
L 1831 0 
z
" id="DejaVuSans-56" transform="scale(0.015625)"/>
     <path d="M 1172 4494 
L 1172 3500 
L 2356 3500 
L 2356 3053 
L 1172 3053 
L 1172 1153 
Q 1172 725 1289 603 
Q 1406 481 1766 481 
L 2356 481 
L 2356 0 
L 1766 0 
Q 1100 0 847 248 
Q 594 497 594 1153 
L 594 3053 
L 172 3053 
L 172 3500 
L 594 3500 
L 594 4494 
L 1172 4494 
z
" id="DejaVuSans-74" transform="scale(0.015625)"/>
    </defs>
    <use xlink:href="#DejaVuSans-56"/>
    <use x="66.158203" xlink:href="#DejaVuSans-69"/>
    <use x="93.941406" xlink:href="#DejaVuSans-73"/>
    <use x="146.041016" xlink:href="#DejaVuSans-74"/>
    <use x="185.25" xlink:href="#DejaVuSans-61"/>
    <use x="246.529297" xlink:href="#DejaVuSans-20"/>
    <use x="278.316406" xlink:href="#DejaVuSans-70"/>
    <use x="341.792969" xlink:href="#DejaVuSans-6c"/>
    <use x="369.576172" xlink:href="#DejaVuSans-61"/>
    <use x="430.855469" xlink:href="#DejaVuSans-6e"/>
    <use x="494.234375" xlink:href="#DejaVuSans-6f"/>
    <use x="555.416016" xlink:href="#DejaVuSans-73"/>
   </g>
  </g>
  <g id="legend_1">
   <g id="patch_12">
    <path d="M 483.89375 167.517188 
L 569 167.517188 
Q 571 167.517188 571 165.517188 
L 571 122.482812 
Q 571 120.482812 569 120.482812 
L 483.89375 120.482812 
Q 481.89375 120.482812 481.89375 122.482812 
L 481.89375 165.517188 
Q 481.89375 167.517188 483.89375 167.517188 
z
" style="fill:#ffffff;opacity:0.8;stroke:#cccccc;stroke-linejoin:miter;"/>
   </g>
   <g id="line2d_45">
    <path d="M 485.89375 128.58125 
L 505.89375 128.58125 
" style="fill:none;stroke:#1f77b4;stroke-linecap:square;stroke-opacity:0.7;stroke-width:1.5;"/>
   </g>
   <g id="line2d_46"/>
   <g id="text_27">
    <!-- DSLPID -->
    <g transform="translate(513.89375 132.08125)scale(0.1 -0.1)">
     <defs>
      <path d="M 1259 4147 
L 1259 519 
L 2022 519 
Q 2988 519 3436 956 
Q 3884 1394 3884 2338 
Q 3884 3275 3436 3711 
Q 2988 4147 2022 4147 
L 1259 4147 
z
M 628 4666 
L 1925 4666 
Q 3281 4666 3915 4102 
Q 4550 3538 4550 2338 
Q 4550 1131 3912 565 
Q 3275 0 1925 0 
L 628 0 
L 628 4666 
z
" id="DejaVuSans-44" transform="scale(0.015625)"/>
      <path d="M 3425 4513 
L 3425 3897 
Q 3066 4069 2747 4153 
Q 2428 4238 2131 4238 
Q 1616 4238 1336 4038 
Q 1056 3838 1056 3469 
Q 1056 3159 1242 3001 
Q 1428 2844 1947 2747 
L 2328 2669 
Q 3034 2534 3370 2195 
Q 3706 1856 3706 1288 
Q 3706 609 3251 259 
Q 2797 -91 1919 -91 
Q 1588 -91 1214 -16 
Q 841 59 441 206 
L 441 856 
Q 825 641 1194 531 
Q 1563 422 1919 422 
Q 2459 422 2753 634 
Q 3047 847 3047 1241 
Q 3047 1584 2836 1778 
Q 2625 1972 2144 2069 
L 1759 2144 
Q 1053 2284 737 2584 
Q 422 2884 422 3419 
Q 422 4038 858 4394 
Q 1294 4750 2059 4750 
Q 2388 4750 2728 4690 
Q 3069 4631 3425 4513 
z
" id="DejaVuSans-53" transform="scale(0.015625)"/>
      <path d="M 628 4666 
L 1259 4666 
L 1259 531 
L 3531 531 
L 3531 0 
L 628 0 
L 628 4666 
z
" id="DejaVuSans-4c" transform="scale(0.015625)"/>
      <path d="M 628 4666 
L 1259 4666 
L 1259 0 
L 628 0 
L 628 4666 
z
" id="DejaVuSans-49" transform="scale(0.015625)"/>
     </defs>
     <use xlink:href="#DejaVuSans-44"/>
     <use x="77.001953" xlink:href="#DejaVuSans-53"/>
     <use x="140.478516" xlink:href="#DejaVuSans-4c"/>
     <use x="196.191406" xlink:href="#DejaVuSans-50"/>
     <use x="256.494141" xlink:href="#DejaVuSans-49"/>
     <use x="285.986328" xlink:href="#DejaVuSans-44"/>
    </g>
   </g>
   <g id="line2d_47">
    <path d="M 485.89375 143.259375 
L 505.89375 143.259375 
" style="fill:none;stroke:#d62728;stroke-linecap:square;stroke-opacity:0.7;stroke-width:1.5;"/>
   </g>
   <g id="line2d_48"/>
   <g id="text_28">
    <!-- CLSTM -->
    <g transform="translate(513.89375 146.759375)scale(0.1 -0.1)">
     <defs>
      <path d="M 4122 4306 
L 4122 3641 
Q 3803 3938 3442 4084 
Q 3081 4231 2675 4231 
Q 1875 4231 1450 3742 
Q 1025 3253 1025 2328 
Q 1025 1406 1450 917 
Q 1875 428 2675 428 
Q 3081 428 3442 575 
Q 3803 722 4122 1019 
L 4122 359 
Q 3791 134 3420 21 
Q 3050 -91 2638 -91 
Q 1578 -91 968 557 
Q 359 1206 359 2328 
Q 359 3453 968 4101 
Q 1578 4750 2638 4750 
Q 3056 4750 3426 4639 
Q 3797 4528 4122 4306 
z
" id="DejaVuSans-43" transform="scale(0.015625)"/>
      <path d="M 628 4666 
L 1569 4666 
L 2759 1491 
L 3956 4666 
L 4897 4666 
L 4897 0 
L 4281 0 
L 4281 4097 
L 3078 897 
L 2444 897 
L 1241 4097 
L 1241 0 
L 628 0 
L 628 4666 
z
" id="DejaVuSans-4d" transform="scale(0.015625)"/>
     </defs>
     <use xlink:href="#DejaVuSans-43"/>
     <use x="69.824219" xlink:href="#DejaVuSans-4c"/>
     <use x="125.537109" xlink:href="#DejaVuSans-53"/>
     <use x="189.013672" xlink:href="#DejaVuSans-54"/>
     <use x="250.097656" xlink:href="#DejaVuSans-4d"/>
    </g>
   </g>
   <g id="line2d_49">
    <path d="M 485.89375 157.9375 
L 505.89375 157.9375 
" style="fill:none;stroke:#000000;stroke-dasharray:5.55,2.4;stroke-dashoffset:0;stroke-opacity:0.595;stroke-width:1.5;"/>
   </g>
   <g id="line2d_50"/>
   <g id="text_29">
    <!-- Referencia -->
    <g transform="translate(513.89375 161.4375)scale(0.1 -0.1)">
     <defs>
      <path d="M 2841 2188 
Q 3044 2119 3236 1894 
Q 3428 1669 3622 1275 
L 4263 0 
L 3584 0 
L 2988 1197 
Q 2756 1666 2539 1819 
Q 2322 1972 1947 1972 
L 1259 1972 
L 1259 0 
L 628 0 
L 628 4666 
L 2053 4666 
Q 2853 4666 3247 4331 
Q 3641 3997 3641 3322 
Q 3641 2881 3436 2590 
Q 3231 2300 2841 2188 
z
M 1259 4147 
L 1259 2491 
L 2053 2491 
Q 2509 2491 2742 2702 
Q 2975 2913 2975 3322 
Q 2975 3731 2742 3939 
Q 2509 4147 2053 4147 
L 1259 4147 
z
" id="DejaVuSans-52" transform="scale(0.015625)"/>
      <path d="M 2375 4863 
L 2375 4384 
L 1825 4384 
Q 1516 4384 1395 4259 
Q 1275 4134 1275 3809 
L 1275 3500 
L 2222 3500 
L 2222 3053 
L 1275 3053 
L 1275 0 
L 697 0 
L 697 3053 
L 147 3053 
L 147 3500 
L 697 3500 
L 697 3744 
Q 697 4328 969 4595 
Q 1241 4863 1831 4863 
L 2375 4863 
z
" id="DejaVuSans-66" transform="scale(0.015625)"/>
      <path d="M 2631 2963 
Q 2534 3019 2420 3045 
Q 2306 3072 2169 3072 
Q 1681 3072 1420 2755 
Q 1159 2438 1159 1844 
L 1159 0 
L 581 0 
L 581 3500 
L 1159 3500 
L 1159 2956 
Q 1341 3275 1631 3429 
Q 1922 3584 2338 3584 
Q 2397 3584 2469 3576 
Q 2541 3569 2628 3553 
L 2631 2963 
z
" id="DejaVuSans-72" transform="scale(0.015625)"/>
      <path d="M 3122 3366 
L 3122 2828 
Q 2878 2963 2633 3030 
Q 2388 3097 2138 3097 
Q 1578 3097 1268 2742 
Q 959 2388 959 1747 
Q 959 1106 1268 751 
Q 1578 397 2138 397 
Q 2388 397 2633 464 
Q 2878 531 3122 666 
L 3122 134 
Q 2881 22 2623 -34 
Q 2366 -91 2075 -91 
Q 1284 -91 818 406 
Q 353 903 353 1747 
Q 353 2603 823 3093 
Q 1294 3584 2113 3584 
Q 2378 3584 2631 3529 
Q 2884 3475 3122 3366 
z
" id="DejaVuSans-63" transform="scale(0.015625)"/>
     </defs>
     <use xlink:href="#DejaVuSans-52"/>
     <use x="64.982422" xlink:href="#DejaVuSans-65"/>
     <use x="126.505859" xlink:href="#DejaVuSans-66"/>
     <use x="161.710938" xlink:href="#DejaVuSans-65"/>
     <use x="223.234375" xlink:href="#DejaVuSans-72"/>
     <use x="262.097656" xlink:href="#DejaVuSans-65"/>
     <use x="323.621094" xlink:href="#DejaVuSans-6e"/>
     <use x="387" xlink:href="#DejaVuSans-63"/>
     <use x="441.980469" xlink:href="#DejaVuSans-69"/>
     <use x="469.763672" xlink:href="#DejaVuSans-61"/>
    </g>
   </g>
  </g>
 </g>
 <defs>
  <clipPath id="p1b2a90413b">
   <rect height="165.16" width="170.935" x="82.82" y="66.48"/>
  </clipPath>
  <clipPath id="p749cfd57ac">
   <rect height="165.16" width="170.935" x="307.865" y="66.48"/>
  </clipPath>
 </defs>
</svg>
