<?xml version="1.0" encoding="utf-8" standalone="no"?>
<!DOCTYPE svg PUBLIC "-//W3C//DTD SVG 1.1//EN"
  "http://www.w3.org/Graphics/SVG/1.1/DTD/svg11.dtd">
<svg height="576pt" version="1.1" viewBox="0 0 576 576" width="576pt" xmlns="http://www.w3.org/2000/svg" xmlns:xlink="http://www.w3.org/1999/xlink">
 <metadata>
  <rdf:RDF xmlns:cc="http://creativecommons.org/ns#" xmlns:dc="http://purl.org/dc/elements/1.1/" xmlns:rdf="http://www.w3.org/1999/02/22-rdf-syntax-ns#">
   <cc:Work>
    <dc:type rdf:resource="http://purl.org/dc/dcmitype/StillImage"/>
    <dc:date>2022-02-26T04:37:17.035914</dc:date>
    <dc:format>image/svg+xml</dc:format>
    <dc:creator>
     <cc:Agent>
      <dc:title>Matplotlib v3.4.3, https://matplotlib.org/</dc:title>
     </cc:Agent>
    </dc:creator>
   </cc:Work>
  </rdf:RDF>
 </metadata>
 <defs>
  <style type="text/css">*{stroke-linecap:butt;stroke-linejoin:round;}</style>
 </defs>
 <g id="figure_1">
  <g id="patch_1">
   <path d="M 0 576 
L 576 576 
L 576 0 
L 0 0 
z
" style="fill:#ffffff;"/>
  </g>
  <g id="patch_2">
   <path d="M 23.4 565.2 
L 552.6 565.2 
L 552.6 36 
L 23.4 36 
z
" style="fill:#ffffff;"/>
  </g>
  <g id="pane3d_1">
   <g id="patch_3">
    <path d="M 63.358249 434.71624 
L 238.117372 288.229677 
L 235.688053 76.969868 
L 52.565805 210.604144 
" style="fill:#f2f2f2;opacity:0.5;stroke:#f2f2f2;stroke-linejoin:miter;"/>
   </g>
  </g>
  <g id="pane3d_2">
   <g id="patch_4">
    <path d="M 238.117372 288.229677 
L 518.54341 369.738455 
L 528.550827 151.202044 
L 235.688053 76.969868 
" style="fill:#e6e6e6;opacity:0.5;stroke:#e6e6e6;stroke-linejoin:miter;"/>
   </g>
  </g>
  <g id="pane3d_3">
   <g id="patch_5">
    <path d="M 63.358249 434.71624 
L 360.623546 531.803085 
L 518.54341 369.738455 
L 238.117372 288.229677 
" style="fill:#ececec;opacity:0.5;stroke:#ececec;stroke-linejoin:miter;"/>
   </g>
  </g>
  <g id="axis3d_1">
   <g id="line2d_1">
    <path d="M 63.358249 434.71624 
L 360.623546 531.803085 
" style="fill:none;stroke:#000000;stroke-linecap:square;stroke-width:0.8;"/>
   </g>
   <g id="text_1">
    <!-- x (m) -->
    <g transform="translate(178.329241 515.594496)rotate(-341.912962)scale(0.1 -0.1)">
     <defs>
      <path d="M 3513 3500 
L 2247 1797 
L 3578 0 
L 2900 0 
L 1881 1375 
L 863 0 
L 184 0 
L 1544 1831 
L 300 3500 
L 978 3500 
L 1906 2253 
L 2834 3500 
L 3513 3500 
z
" id="DejaVuSans-78" transform="scale(0.015625)"/>
      <path id="DejaVuSans-20" transform="scale(0.015625)"/>
      <path d="M 1984 4856 
Q 1566 4138 1362 3434 
Q 1159 2731 1159 2009 
Q 1159 1288 1364 580 
Q 1569 -128 1984 -844 
L 1484 -844 
Q 1016 -109 783 600 
Q 550 1309 550 2009 
Q 550 2706 781 3412 
Q 1013 4119 1484 4856 
L 1984 4856 
z
" id="DejaVuSans-28" transform="scale(0.015625)"/>
      <path d="M 3328 2828 
Q 3544 3216 3844 3400 
Q 4144 3584 4550 3584 
Q 5097 3584 5394 3201 
Q 5691 2819 5691 2113 
L 5691 0 
L 5113 0 
L 5113 2094 
Q 5113 2597 4934 2840 
Q 4756 3084 4391 3084 
Q 3944 3084 3684 2787 
Q 3425 2491 3425 1978 
L 3425 0 
L 2847 0 
L 2847 2094 
Q 2847 2600 2669 2842 
Q 2491 3084 2119 3084 
Q 1678 3084 1418 2786 
Q 1159 2488 1159 1978 
L 1159 0 
L 581 0 
L 581 3500 
L 1159 3500 
L 1159 2956 
Q 1356 3278 1631 3431 
Q 1906 3584 2284 3584 
Q 2666 3584 2933 3390 
Q 3200 3197 3328 2828 
z
" id="DejaVuSans-6d" transform="scale(0.015625)"/>
      <path d="M 513 4856 
L 1013 4856 
Q 1481 4119 1714 3412 
Q 1947 2706 1947 2009 
Q 1947 1309 1714 600 
Q 1481 -109 1013 -844 
L 513 -844 
Q 928 -128 1133 580 
Q 1338 1288 1338 2009 
Q 1338 2731 1133 3434 
Q 928 4138 513 4856 
z
" id="DejaVuSans-29" transform="scale(0.015625)"/>
     </defs>
     <use xlink:href="#DejaVuSans-78"/>
     <use x="59.179688" xlink:href="#DejaVuSans-20"/>
     <use x="90.966797" xlink:href="#DejaVuSans-28"/>
     <use x="129.980469" xlink:href="#DejaVuSans-6d"/>
     <use x="227.392578" xlink:href="#DejaVuSans-29"/>
    </g>
   </g>
   <g id="Line3DCollection_1">
    <path d="M 106.858074 448.923282 
L 279.307956 300.202154 
L 278.628 87.853893 
" style="fill:none;stroke:#b0b0b0;stroke-width:0.8;"/>
    <path d="M 153.399091 464.123578 
L 323.3193 312.994514 
L 324.537921 99.49072 
" style="fill:none;stroke:#b0b0b0;stroke-width:0.8;"/>
    <path d="M 200.729744 479.581769 
L 368.014948 325.985774 
L 371.192798 111.316371 
" style="fill:none;stroke:#b0b0b0;stroke-width:0.8;"/>
    <path d="M 248.870299 495.304474 
L 413.410983 339.18061 
L 418.610911 123.33548 
" style="fill:none;stroke:#b0b0b0;stroke-width:0.8;"/>
    <path d="M 297.841724 511.298542 
L 459.524 352.583843 
L 466.811143 135.552834 
" style="fill:none;stroke:#b0b0b0;stroke-width:0.8;"/>
    <path d="M 347.665717 527.571058 
L 506.371119 366.200451 
L 515.813005 147.973378 
" style="fill:none;stroke:#b0b0b0;stroke-width:0.8;"/>
   </g>
   <g id="xtick_1">
    <g id="line2d_2">
     <path d="M 108.360323 447.62774 
L 103.847101 451.519952 
" style="fill:none;stroke:#000000;stroke-linecap:square;stroke-width:0.8;"/>
    </g>
    <g id="text_2">
     <!-- −4 -->
     <g transform="translate(91.984753 472.291794)scale(0.1 -0.1)">
      <defs>
       <path d="M 678 2272 
L 4684 2272 
L 4684 1741 
L 678 1741 
L 678 2272 
z
" id="DejaVuSans-2212" transform="scale(0.015625)"/>
       <path d="M 2419 4116 
L 825 1625 
L 2419 1625 
L 2419 4116 
z
M 2253 4666 
L 3047 4666 
L 3047 1625 
L 3713 1625 
L 3713 1100 
L 3047 1100 
L 3047 0 
L 2419 0 
L 2419 1100 
L 313 1100 
L 313 1709 
L 2253 4666 
z
" id="DejaVuSans-34" transform="scale(0.015625)"/>
      </defs>
      <use xlink:href="#DejaVuSans-2212"/>
      <use x="83.789062" xlink:href="#DejaVuSans-34"/>
     </g>
    </g>
   </g>
   <g id="xtick_2">
    <g id="line2d_3">
     <path d="M 154.880319 462.806156 
L 150.430196 466.764149 
" style="fill:none;stroke:#000000;stroke-linecap:square;stroke-width:0.8;"/>
    </g>
    <g id="text_3">
     <!-- −3 -->
     <g transform="translate(138.550518 487.653729)scale(0.1 -0.1)">
      <defs>
       <path d="M 2597 2516 
Q 3050 2419 3304 2112 
Q 3559 1806 3559 1356 
Q 3559 666 3084 287 
Q 2609 -91 1734 -91 
Q 1441 -91 1130 -33 
Q 819 25 488 141 
L 488 750 
Q 750 597 1062 519 
Q 1375 441 1716 441 
Q 2309 441 2620 675 
Q 2931 909 2931 1356 
Q 2931 1769 2642 2001 
Q 2353 2234 1838 2234 
L 1294 2234 
L 1294 2753 
L 1863 2753 
Q 2328 2753 2575 2939 
Q 2822 3125 2822 3475 
Q 2822 3834 2567 4026 
Q 2313 4219 1838 4219 
Q 1578 4219 1281 4162 
Q 984 4106 628 3988 
L 628 4550 
Q 988 4650 1302 4700 
Q 1616 4750 1894 4750 
Q 2613 4750 3031 4423 
Q 3450 4097 3450 3541 
Q 3450 3153 3228 2886 
Q 3006 2619 2597 2516 
z
" id="DejaVuSans-33" transform="scale(0.015625)"/>
      </defs>
      <use xlink:href="#DejaVuSans-2212"/>
      <use x="83.789062" xlink:href="#DejaVuSans-33"/>
     </g>
    </g>
   </g>
   <g id="xtick_3">
    <g id="line2d_4">
     <path d="M 202.189019 478.241909 
L 197.804795 482.267364 
" style="fill:none;stroke:#000000;stroke-linecap:square;stroke-width:0.8;"/>
    </g>
    <g id="text_4">
     <!-- −2 -->
     <g transform="translate(185.907844 503.276798)scale(0.1 -0.1)">
      <defs>
       <path d="M 1228 531 
L 3431 531 
L 3431 0 
L 469 0 
L 469 531 
Q 828 903 1448 1529 
Q 2069 2156 2228 2338 
Q 2531 2678 2651 2914 
Q 2772 3150 2772 3378 
Q 2772 3750 2511 3984 
Q 2250 4219 1831 4219 
Q 1534 4219 1204 4116 
Q 875 4013 500 3803 
L 500 4441 
Q 881 4594 1212 4672 
Q 1544 4750 1819 4750 
Q 2544 4750 2975 4387 
Q 3406 4025 3406 3419 
Q 3406 3131 3298 2873 
Q 3191 2616 2906 2266 
Q 2828 2175 2409 1742 
Q 1991 1309 1228 531 
z
" id="DejaVuSans-32" transform="scale(0.015625)"/>
      </defs>
      <use xlink:href="#DejaVuSans-2212"/>
      <use x="83.789062" xlink:href="#DejaVuSans-32"/>
     </g>
    </g>
   </g>
   <g id="xtick_4">
    <g id="line2d_5">
     <path d="M 250.30665 493.941597 
L 245.991245 498.036255 
" style="fill:none;stroke:#000000;stroke-linecap:square;stroke-width:0.8;"/>
    </g>
    <g id="text_5">
     <!-- −1 -->
     <g transform="translate(234.077086 519.167716)scale(0.1 -0.1)">
      <defs>
       <path d="M 794 531 
L 1825 531 
L 1825 4091 
L 703 3866 
L 703 4441 
L 1819 4666 
L 2450 4666 
L 2450 531 
L 3481 531 
L 3481 0 
L 794 0 
L 794 531 
z
" id="DejaVuSans-31" transform="scale(0.015625)"/>
      </defs>
      <use xlink:href="#DejaVuSans-2212"/>
      <use x="83.789062" xlink:href="#DejaVuSans-31"/>
     </g>
    </g>
   </g>
   <g id="xtick_5">
    <g id="line2d_6">
     <path d="M 299.25414 509.91205 
L 295.010592 514.07771 
" style="fill:none;stroke:#000000;stroke-linecap:square;stroke-width:0.8;"/>
    </g>
    <g id="text_6">
     <!-- 0 -->
     <g transform="translate(287.269151 535.333432)scale(0.1 -0.1)">
      <defs>
       <path d="M 2034 4250 
Q 1547 4250 1301 3770 
Q 1056 3291 1056 2328 
Q 1056 1369 1301 889 
Q 1547 409 2034 409 
Q 2525 409 2770 889 
Q 3016 1369 3016 2328 
Q 3016 3291 2770 3770 
Q 2525 4250 2034 4250 
z
M 2034 4750 
Q 2819 4750 3233 4129 
Q 3647 3509 3647 2328 
Q 3647 1150 3233 529 
Q 2819 -91 2034 -91 
Q 1250 -91 836 529 
Q 422 1150 422 2328 
Q 422 3509 836 4129 
Q 1250 4750 2034 4750 
z
" id="DejaVuSans-30" transform="scale(0.015625)"/>
      </defs>
      <use xlink:href="#DejaVuSans-30"/>
     </g>
    </g>
   </g>
   <g id="xtick_6">
    <g id="line2d_7">
     <path d="M 349.053144 526.160332 
L 344.884622 530.398857 
" style="fill:none;stroke:#000000;stroke-linecap:square;stroke-width:0.8;"/>
    </g>
    <g id="text_7">
     <!-- 1 -->
     <g transform="translate(337.126144 551.781136)scale(0.1 -0.1)">
      <use xlink:href="#DejaVuSans-31"/>
     </g>
    </g>
   </g>
  </g>
  <g id="axis3d_2">
   <g id="line2d_8">
    <path d="M 518.54341 369.738455 
L 360.623546 531.803085 
" style="fill:none;stroke:#000000;stroke-linecap:square;stroke-width:0.8;"/>
   </g>
   <g id="text_8">
    <!-- y (m) -->
    <g transform="translate(462.753334 486.601399)rotate(-45.742112)scale(0.1 -0.1)">
     <defs>
      <path d="M 2059 -325 
Q 1816 -950 1584 -1140 
Q 1353 -1331 966 -1331 
L 506 -1331 
L 506 -850 
L 844 -850 
Q 1081 -850 1212 -737 
Q 1344 -625 1503 -206 
L 1606 56 
L 191 3500 
L 800 3500 
L 1894 763 
L 2988 3500 
L 3597 3500 
L 2059 -325 
z
" id="DejaVuSans-79" transform="scale(0.015625)"/>
     </defs>
     <use xlink:href="#DejaVuSans-79"/>
     <use x="59.179688" xlink:href="#DejaVuSans-20"/>
     <use x="90.966797" xlink:href="#DejaVuSans-28"/>
     <use x="129.980469" xlink:href="#DejaVuSans-6d"/>
     <use x="227.392578" xlink:href="#DejaVuSans-29"/>
    </g>
   </g>
   <g id="Line3DCollection_2">
    <path d="M 67.78808 199.495621 
L 77.834832 422.581681 
L 373.758279 518.323618 
" style="fill:none;stroke:#b0b0b0;stroke-width:0.8;"/>
    <path d="M 100.327472 175.749855 
L 108.81084 396.616977 
L 401.83078 489.514326 
" style="fill:none;stroke:#b0b0b0;stroke-width:0.8;"/>
    <path d="M 131.889618 152.717239 
L 138.89648 371.398597 
L 429.054298 461.5763 
" style="fill:none;stroke:#b0b0b0;stroke-width:0.8;"/>
    <path d="M 162.51789 130.366121 
L 168.129598 346.894818 
L 455.466772 434.470603 
" style="fill:none;stroke:#b0b0b0;stroke-width:0.8;"/>
    <path d="M 192.253132 108.666696 
L 196.545924 323.07569 
L 481.103915 408.160588 
" style="fill:none;stroke:#b0b0b0;stroke-width:0.8;"/>
    <path d="M 221.13384 87.59087 
L 224.179218 299.912915 
L 505.999372 382.611725 
" style="fill:none;stroke:#b0b0b0;stroke-width:0.8;"/>
   </g>
   <g id="xtick_7">
    <g id="line2d_9">
     <path d="M 371.264675 517.516847 
L 378.751927 519.939244 
" style="fill:none;stroke:#000000;stroke-linecap:square;stroke-width:0.8;"/>
    </g>
    <g id="text_9">
     <!-- −5 -->
     <g transform="translate(379.249114 539.324483)scale(0.1 -0.1)">
      <defs>
       <path d="M 691 4666 
L 3169 4666 
L 3169 4134 
L 1269 4134 
L 1269 2991 
Q 1406 3038 1543 3061 
Q 1681 3084 1819 3084 
Q 2600 3084 3056 2656 
Q 3513 2228 3513 1497 
Q 3513 744 3044 326 
Q 2575 -91 1722 -91 
Q 1428 -91 1123 -41 
Q 819 9 494 109 
L 494 744 
Q 775 591 1075 516 
Q 1375 441 1709 441 
Q 2250 441 2565 725 
Q 2881 1009 2881 1497 
Q 2881 1984 2565 2268 
Q 2250 2553 1709 2553 
Q 1456 2553 1204 2497 
Q 953 2441 691 2322 
L 691 4666 
z
" id="DejaVuSans-35" transform="scale(0.015625)"/>
      </defs>
      <use xlink:href="#DejaVuSans-2212"/>
      <use x="83.789062" xlink:href="#DejaVuSans-35"/>
     </g>
    </g>
   </g>
   <g id="xtick_8">
    <g id="line2d_10">
     <path d="M 399.363561 488.732133 
L 406.771493 491.080701 
" style="fill:none;stroke:#000000;stroke-linecap:square;stroke-width:0.8;"/>
    </g>
    <g id="text_10">
     <!-- −4 -->
     <g transform="translate(407.132393 510.300828)scale(0.1 -0.1)">
      <use xlink:href="#DejaVuSans-2212"/>
      <use x="83.789062" xlink:href="#DejaVuSans-34"/>
     </g>
    </g>
   </g>
   <g id="xtick_9">
    <g id="line2d_11">
     <path d="M 426.61302 460.817579 
L 433.942969 463.095642 
" style="fill:none;stroke:#000000;stroke-linecap:square;stroke-width:0.8;"/>
    </g>
    <g id="text_11">
     <!-- −3 -->
     <g transform="translate(434.172164 482.155178)scale(0.1 -0.1)">
      <use xlink:href="#DejaVuSans-2212"/>
      <use x="83.789062" xlink:href="#DejaVuSans-33"/>
     </g>
    </g>
   </g>
   <g id="xtick_10">
    <g id="line2d_12">
     <path d="M 453.050995 433.734313 
L 460.304286 435.945 
" style="fill:none;stroke:#000000;stroke-linecap:square;stroke-width:0.8;"/>
    </g>
    <g id="text_12">
     <!-- −2 -->
     <g transform="translate(460.406135 454.848285)scale(0.1 -0.1)">
      <use xlink:href="#DejaVuSans-2212"/>
      <use x="83.789062" xlink:href="#DejaVuSans-32"/>
     </g>
    </g>
   </g>
   <g id="xtick_11">
    <g id="line2d_13">
     <path d="M 478.713205 407.445749 
L 485.891147 409.592005 
" style="fill:none;stroke:#000000;stroke-linecap:square;stroke-width:0.8;"/>
    </g>
    <g id="text_13">
     <!-- −1 -->
     <g transform="translate(485.869797 428.343205)scale(0.1 -0.1)">
      <use xlink:href="#DejaVuSans-2212"/>
      <use x="83.789062" xlink:href="#DejaVuSans-31"/>
     </g>
    </g>
   </g>
   <g id="xtick_12">
    <g id="line2d_14">
     <path d="M 503.6333 381.917412 
L 510.737184 384.002014 
" style="fill:none;stroke:#000000;stroke-linecap:square;stroke-width:0.8;"/>
    </g>
    <g id="text_14">
     <!-- 0 -->
     <g transform="translate(514.78643 402.605135)scale(0.1 -0.1)">
      <use xlink:href="#DejaVuSans-30"/>
     </g>
    </g>
   </g>
  </g>
  <g id="axis3d_3">
   <g id="line2d_15">
    <path d="M 518.54341 369.738455 
L 528.550827 151.202044 
" style="fill:none;stroke:#000000;stroke-linecap:square;stroke-width:0.8;"/>
   </g>
   <g id="text_15">
    <!-- z (m) -->
    <g transform="translate(566.10943 270.534657)rotate(-87.378092)scale(0.1 -0.1)">
     <defs>
      <path d="M 353 3500 
L 3084 3500 
L 3084 2975 
L 922 459 
L 3084 459 
L 3084 0 
L 275 0 
L 275 525 
L 2438 3041 
L 353 3041 
L 353 3500 
z
" id="DejaVuSans-7a" transform="scale(0.015625)"/>
     </defs>
     <use xlink:href="#DejaVuSans-7a"/>
     <use x="52.490234" xlink:href="#DejaVuSans-20"/>
     <use x="84.277344" xlink:href="#DejaVuSans-28"/>
     <use x="123.291016" xlink:href="#DejaVuSans-6d"/>
     <use x="220.703125" xlink:href="#DejaVuSans-29"/>
    </g>
   </g>
   <g id="Line3DCollection_3">
    <path d="M 520.406515 329.053009 
L 237.664323 248.831316 
L 61.35175 393.049977 
" style="fill:none;stroke:#b0b0b0;stroke-width:0.8;"/>
    <path d="M 522.204844 289.782098 
L 237.227362 210.832123 
L 59.413817 352.807546 
" style="fill:none;stroke:#b0b0b0;stroke-width:0.8;"/>
    <path d="M 524.032118 249.8791 
L 236.783708 172.25084 
L 57.443489 311.892412 
" style="fill:none;stroke:#b0b0b0;stroke-width:0.8;"/>
    <path d="M 525.889042 209.328632 
L 236.333206 133.073988 
L 55.439947 270.287563 
" style="fill:none;stroke:#b0b0b0;stroke-width:0.8;"/>
    <path d="M 527.776343 168.114805 
L 235.875695 93.28767 
L 53.402344 227.975413 
" style="fill:none;stroke:#b0b0b0;stroke-width:0.8;"/>
   </g>
   <g id="xtick_13">
    <g id="line2d_16">
     <path d="M 518.032603 328.379465 
L 525.160031 330.401711 
" style="fill:none;stroke:#000000;stroke-linecap:square;stroke-width:0.8;"/>
    </g>
    <g id="text_16">
     <!-- 0.2 -->
     <g transform="translate(530.880186 334.082779)scale(0.1 -0.1)">
      <defs>
       <path d="M 684 794 
L 1344 794 
L 1344 0 
L 684 0 
L 684 794 
z
" id="DejaVuSans-2e" transform="scale(0.015625)"/>
      </defs>
      <use xlink:href="#DejaVuSans-30"/>
      <use x="63.623047" xlink:href="#DejaVuSans-2e"/>
      <use x="95.410156" xlink:href="#DejaVuSans-32"/>
     </g>
    </g>
   </g>
   <g id="xtick_14">
    <g id="line2d_17">
     <path d="M 519.811264 289.118982 
L 526.99779 291.109932 
" style="fill:none;stroke:#000000;stroke-linecap:square;stroke-width:0.8;"/>
    </g>
    <g id="text_17">
     <!-- 0.4 -->
     <g transform="translate(532.822628 294.851659)scale(0.1 -0.1)">
      <use xlink:href="#DejaVuSans-30"/>
      <use x="63.623047" xlink:href="#DejaVuSans-2e"/>
      <use x="95.410156" xlink:href="#DejaVuSans-34"/>
     </g>
    </g>
   </g>
   <g id="xtick_15">
    <g id="line2d_18">
     <path d="M 521.618542 249.226837 
L 528.865152 251.185217 
" style="fill:none;stroke:#000000;stroke-linecap:square;stroke-width:0.8;"/>
    </g>
    <g id="text_18">
     <!-- 0.6 -->
     <g transform="translate(534.796286 254.99007)scale(0.1 -0.1)">
      <defs>
       <path d="M 2113 2584 
Q 1688 2584 1439 2293 
Q 1191 2003 1191 1497 
Q 1191 994 1439 701 
Q 1688 409 2113 409 
Q 2538 409 2786 701 
Q 3034 994 3034 1497 
Q 3034 2003 2786 2293 
Q 2538 2584 2113 2584 
z
M 3366 4563 
L 3366 3988 
Q 3128 4100 2886 4159 
Q 2644 4219 2406 4219 
Q 1781 4219 1451 3797 
Q 1122 3375 1075 2522 
Q 1259 2794 1537 2939 
Q 1816 3084 2150 3084 
Q 2853 3084 3261 2657 
Q 3669 2231 3669 1497 
Q 3669 778 3244 343 
Q 2819 -91 2113 -91 
Q 1303 -91 875 529 
Q 447 1150 447 2328 
Q 447 3434 972 4092 
Q 1497 4750 2381 4750 
Q 2619 4750 2861 4703 
Q 3103 4656 3366 4563 
z
" id="DejaVuSans-36" transform="scale(0.015625)"/>
      </defs>
      <use xlink:href="#DejaVuSans-30"/>
      <use x="63.623047" xlink:href="#DejaVuSans-2e"/>
      <use x="95.410156" xlink:href="#DejaVuSans-36"/>
     </g>
    </g>
   </g>
   <g id="xtick_16">
    <g id="line2d_19">
     <path d="M 523.455133 208.687661 
L 530.762839 210.612148 
" style="fill:none;stroke:#000000;stroke-linecap:square;stroke-width:0.8;"/>
    </g>
    <g id="text_19">
     <!-- 0.8 -->
     <g transform="translate(536.801919 214.48269)scale(0.1 -0.1)">
      <defs>
       <path d="M 2034 2216 
Q 1584 2216 1326 1975 
Q 1069 1734 1069 1313 
Q 1069 891 1326 650 
Q 1584 409 2034 409 
Q 2484 409 2743 651 
Q 3003 894 3003 1313 
Q 3003 1734 2745 1975 
Q 2488 2216 2034 2216 
z
M 1403 2484 
Q 997 2584 770 2862 
Q 544 3141 544 3541 
Q 544 4100 942 4425 
Q 1341 4750 2034 4750 
Q 2731 4750 3128 4425 
Q 3525 4100 3525 3541 
Q 3525 3141 3298 2862 
Q 3072 2584 2669 2484 
Q 3125 2378 3379 2068 
Q 3634 1759 3634 1313 
Q 3634 634 3220 271 
Q 2806 -91 2034 -91 
Q 1263 -91 848 271 
Q 434 634 434 1313 
Q 434 1759 690 2068 
Q 947 2378 1403 2484 
z
M 1172 3481 
Q 1172 3119 1398 2916 
Q 1625 2713 2034 2713 
Q 2441 2713 2670 2916 
Q 2900 3119 2900 3481 
Q 2900 3844 2670 4047 
Q 2441 4250 2034 4250 
Q 1625 4250 1398 4047 
Q 1172 3844 1172 3481 
z
" id="DejaVuSans-38" transform="scale(0.015625)"/>
      </defs>
      <use xlink:href="#DejaVuSans-30"/>
      <use x="63.623047" xlink:href="#DejaVuSans-2e"/>
      <use x="95.410156" xlink:href="#DejaVuSans-38"/>
     </g>
    </g>
   </g>
   <g id="xtick_17">
    <g id="line2d_20">
     <path d="M 525.321756 167.485585 
L 532.691596 169.374803 
" style="fill:none;stroke:#000000;stroke-linecap:square;stroke-width:0.8;"/>
    </g>
    <g id="text_20">
     <!-- 1.0 -->
     <g transform="translate(538.84031 173.313699)scale(0.1 -0.1)">
      <use xlink:href="#DejaVuSans-31"/>
      <use x="63.623047" xlink:href="#DejaVuSans-2e"/>
      <use x="95.410156" xlink:href="#DejaVuSans-30"/>
     </g>
    </g>
   </g>
  </g>
  <g id="axes_1">
   <g id="line2d_21">
    <path clip-path="url(#pcb16e6a9cd)" d="M 452.914241 163.977674 
L 452.905241 164.267711 
L 453.018373 163.849196 
L 453.418247 163.739155 
L 454.026558 163.807137 
L 454.971184 164.151138 
L 456.5273 164.983962 
L 462.151709 168.187405 
L 464.138924 168.995476 
L 465.949839 169.496597 
L 467.702795 169.741701 
L 469.311682 169.750038 
L 471.347969 169.514003 
L 472.741916 169.412649 
L 472.987678 169.581746 
L 473.009897 169.873648 
L 472.810391 170.405301 
L 472.192418 171.39871 
L 470.885904 173.037045 
L 469.185266 174.800693 
L 467.491594 176.261415 
L 465.785897 177.464688 
L 464.174562 178.361021 
L 462.443913 179.065862 
L 460.926062 179.463051 
L 459.355023 179.653341 
L 457.74747 179.610268 
L 456.121941 179.314035 
L 454.498684 178.752911 
L 452.899439 177.92444 
L 451.347202 176.836531 
L 449.865945 175.508508 
L 448.480267 173.972435 
L 447.214612 172.274509 
L 445.88548 170.109146 
L 444.791876 167.925919 
L 443.841776 165.546817 
L 443.208465 163.333347 
L 443.054021 162.095217 
L 443.166439 161.734893 
L 443.319461 161.762853 
L 443.618062 162.115359 
L 444.135047 163.103871 
L 444.946607 165.16268 
L 446.120111 168.862013 
L 447.492315 174.042688 
L 449.015589 180.764951 
L 450.656562 189.057563 
L 452.666596 200.459932 
L 454.816139 213.907624 
L 457.395118 231.462448 
L 460.451106 253.944015 
L 463.696005 279.503233 
L 467.467819 311.087167 
L 471.433153 346.193 
L 472.919109 359.806248 
L 473.830069 359.52529 
L 474.446818 359.524671 
L 475.06948 359.685054 
L 475.696159 360.015035 
L 476.63874 360.842854 
L 477.576731 362.083445 
L 478.50107 363.742426 
L 479.105309 365.078915 
L 480.43305 365.199506 
L 481.022207 365.506305 
L 481.563518 366.000883 
L 482.058934 366.700038 
L 482.653278 367.990371 
L 483.180163 369.742828 
L 483.734821 371.720882 
L 483.893284 371.845782 
L 483.929519 371.79436 
L 483.953663 371.459134 
L 483.953865 371.459307 
" style="fill:none;stroke:#1f77b4;stroke-linecap:square;stroke-opacity:0.7;stroke-width:1.5;"/>
   </g>
   <g id="line2d_22">
    <path clip-path="url(#pcb16e6a9cd)" d="M 452.914241 163.977674 
L 452.889576 166.559105 
L 452.956723 166.113311 
L 453.226737 162.229675 
L 453.565073 155.747654 
L 453.867861 155.425485 
L 454.350974 155.223512 
L 455.102764 155.171373 
L 456.253661 155.341892 
L 458.311555 155.917994 
L 463.18774 157.348102 
L 465.194749 157.68186 
L 467.282883 157.785208 
L 470.827214 157.895483 
L 471.562225 158.132926 
L 471.895057 158.431755 
L 471.999344 158.824486 
L 471.880992 159.293025 
L 471.497835 159.86773 
L 470.877413 160.417642 
L 470.059454 160.848614 
L 469.096147 161.084134 
L 468.05158 161.091016 
L 466.999189 160.883773 
L 465.809491 160.420561 
L 464.228922 159.526002 
L 463.698468 159.316241 
L 463.693242 159.327672 
L 463.757874 159.518421 
L 464.262309 160.175032 
L 465.510839 161.413636 
L 466.941067 162.5374 
L 468.214194 163.285033 
L 469.419943 163.74806 
L 470.607535 163.960352 
L 472.12758 163.978136 
L 473.712746 164.022181 
L 473.902109 164.190905 
L 473.827745 164.4336 
L 473.416418 164.843681 
L 472.579296 165.367711 
L 471.510472 165.796865 
L 470.346786 166.032344 
L 469.198506 166.04696 
L 467.993338 165.836043 
L 466.787093 165.400709 
L 465.502416 164.701976 
L 464.144815 163.703233 
L 462.314719 162.141455 
L 462.382705 162.362036 
L 463.107776 163.534572 
L 464.741058 165.76786 
L 466.655661 168.046407 
L 468.415354 169.84304 
L 470.186614 171.332269 
L 471.627102 172.266768 
L 472.889899 172.853129 
L 474.198513 173.211166 
L 475.540196 173.303552 
L 476.627297 173.17496 
L 477.989589 172.764704 
L 479.339799 172.098521 
L 480.66101 171.213856 
L 482.185411 169.933157 
L 483.847297 168.259681 
L 485.935964 165.818206 
L 488.018049 163.038027 
L 489.352192 160.932635 
L 489.527347 160.338438 
L 489.376163 160.343913 
L 488.836651 160.687443 
L 485.138122 163.352758 
L 483.533771 164.157972 
L 482.009797 164.704401 
L 480.378259 165.074017 
L 478.671535 165.247374 
L 476.631133 165.213125 
L 474.300193 164.935373 
L 467.987161 164.004808 
L 466.693081 164.08889 
L 465.729895 164.33839 
L 464.881424 164.776906 
L 464.155908 165.42614 
L 463.560432 166.305652 
L 463.100613 167.433865 
L 462.780617 168.827651 
L 462.584489 170.873177 
L 462.594019 173.34949 
L 462.864368 176.803088 
L 463.414423 180.86029 
L 464.249292 185.476799 
L 465.376451 190.573194 
L 466.800023 196.050148 
L 468.517959 201.791865 
L 470.520386 207.661933 
L 472.45166 212.653842 
L 474.204295 216.646012 
L 476.078724 220.310715 
L 477.654885 222.87438 
L 479.281917 225.009686 
L 480.521174 226.297679 
L 481.7635 227.307995 
L 482.99617 228.046288 
L 484.206669 228.528017 
L 485.38312 228.777072 
L 486.51557 228.831647 
L 487.942064 228.66211 
L 489.572724 228.215015 
L 493.519985 226.938528 
L 494.187681 226.973328 
L 494.719075 227.216544 
L 495.109472 227.688543 
L 495.355143 228.407673 
L 495.452986 229.38943 
L 495.363087 231.003793 
L 494.937521 233.528931 
L 494.158406 236.706299 
L 493.012917 240.518514 
L 491.192698 245.709035 
L 488.839425 251.616791 
L 485.961332 258.164686 
L 482.574442 265.279304 
L 479.264756 271.739444 
L 475.573067 278.438599 
L 471.499955 285.296466 
L 467.819299 291.080869 
L 463.886999 296.893676 
L 459.715012 302.712764 
L 454.412595 309.685584 
L 448.814052 316.646744 
L 441.946271 324.786784 
L 430.523812 337.884165 
L 420.685854 349.278485 
L 412.753734 358.805072 
L 405.76001 367.529028 
L 398.579084 376.805024 
L 389.948641 388.318864 
L 387.429707 391.737327 
L 380.750537 394.222502 
L 377.314544 395.747584 
L 373.832897 397.537467 
L 369.117178 400.169151 
L 365.606416 401.591406 
L 362.023907 403.328077 
L 355.985021 406.447457 
L 349.863593 409.712534 
L 347.424051 410.858451 
L 344.998991 411.890231 
L 342.592903 412.795014 
L 340.210254 413.578178 
L 337.877914 414.058957 
L 334.375987 415.081376 
L 330.878691 416.414154 
L 327.388116 418.006427 
L 321.607472 420.838572 
L 318.225652 421.83996 
L 316.001904 422.124651 
L 312.642574 422.525704 
L 309.223016 423.163278 
L 305.739473 424.108694 
L 303.386518 424.93804 
L 299.825685 426.492066 
L 296.276179 428.163695 
L 295.112677 428.635694 
L 289.529923 429.660259 
L 286.172597 430.550738 
L 280.550642 432.252848 
L 277.20307 432.82518 
L 273.807715 433.717699 
L 272.672636 434.056495 
L 263.866224 435.582325 
L 258.452624 436.5863 
L 255.216186 437.08986 
L 248.703099 438.342118 
L 244.473984 438.645917 
L 237.180452 439.603868 
L 234.117564 439.792753 
L 231.02492 440.235215 
L 227.949479 440.604473 
L 221.979658 440.756475 
L 219.093806 440.548843 
L 216.212263 440.572683 
L 213.320895 440.835504 
L 208.516268 441.539227 
L 205.743276 441.518025 
L 204.826704 441.573462 
L 201.262743 441.366643 
L 198.609486 441.47745 
L 196.847826 441.612858 
L 194.284841 441.318974 
L 190.880219 441.312302 
L 189.200374 441.397147 
L 186.769427 440.883165 
L 184.359861 440.631381 
L 181.984428 440.458388 
L 179.660746 440.181641 
L 175.869765 439.824541 
L 170.037298 439.792056 
L 168.00478 439.000806 
L 165.990446 438.514613 
L 164.007329 438.35045 
L 163.353633 438.362792 
L 160.75581 437.744312 
L 159.478196 437.541864 
L 157.620136 436.594189 
L 155.791524 435.945305 
L 153.999811 435.610655 
L 153.410199 435.565874 
L 151.649582 434.793122 
L 149.926848 434.285593 
L 148.246143 433.884124 
L 145.009141 432.79282 
L 143.46047 432.555928 
L 142.951854 432.478765 
L 140.445721 431.31509 
L 139.008096 430.775754 
L 136.221422 429.405453 
L 132.378699 428.069547 
L 129.681465 425.775632 
L 128.629884 425.265889 
L 127.954081 425.059065 
L 124.264792 422.449269 
L 121.915899 420.407271 
L 120.385471 419.075206 
L 118.389886 416.794304 
L 117.228378 415.239993 
L 116.18674 413.844924 
L 114.898014 411.663744 
L 114.322675 410.156425 
L 113.870131 408.000179 
L 113.728253 406.095322 
L 113.742419 405.426679 
L 113.808411 403.675291 
L 114.045289 401.999993 
L 114.663257 399.996297 
L 115.694819 397.912532 
L 116.128395 397.310697 
L 116.428227 396.836398 
L 116.922161 396.183968 
L 117.276265 395.804822 
L 118.412351 394.600963 
L 118.622962 394.467535 
L 119.233503 393.73829 
L 121.244963 392.100588 
L 122.472612 391.234366 
L 126.490743 388.89137 
L 127.082069 388.713546 
L 127.664386 388.348734 
L 130.864316 387.18764 
L 132.264201 386.990492 
L 132.947087 386.656287 
L 133.649065 386.501871 
L 134.71327 386.425727 
L 135.396096 386.085492 
L 136.090479 385.909785 
L 137.145387 385.88492 
L 137.498372 385.915595 
L 138.523883 385.702241 
L 139.212452 385.624521 
L 139.896789 385.423449 
L 140.943206 385.379742 
L 141.640516 385.333531 
L 143.042008 385.313783 
L 145.498183 385.37714 
L 146.194888 385.470525 
L 150.747175 386.113132 
L 151.625336 386.337604 
L 152.740562 386.737048 
L 153.25818 386.756577 
L 154.008471 387.104165 
L 154.498779 387.309901 
L 154.977377 387.515325 
L 156.342895 388.369354 
L 157.177791 388.868023 
L 157.942603 389.40635 
L 158.639942 389.98712 
L 159.417221 390.736612 
L 161.302507 393.31357 
L 161.534525 394.225157 
L 161.560819 395.406723 
L 161.38019 396.448944 
L 160.960146 397.687152 
L 160.528082 398.394384 
L 159.412576 399.795417 
L 157.824192 401.238165 
L 156.714042 401.907884 
L 156.299417 402.162722 
L 155.639882 402.583467 
L 155.176052 402.912382 
L 154.445014 403.321277 
L 153.680407 403.692529 
L 153.154845 403.947717 
L 151.787757 404.445256 
L 148.951454 404.660922 
L 144.940203 403.925353 
L 144.445147 403.852732 
L 143.014898 403.658385 
L 142.556188 403.58892 
L 141.026239 403.409937 
L 139.836596 403.393233 
L 138.392176 402.88535 
L 137.664356 401.470088 
L 137.471798 400.254011 
L 137.539768 399.363181 
L 137.736256 398.769429 
L 138.255326 398.147933 
L 138.481182 398.003508 
L 138.866457 397.892312 
L 139.317915 397.7024 
L 141.704758 397.327626 
L 142.423339 397.020438 
L 143.667298 396.664103 
L 144.423667 396.472488 
L 146.863391 396.57356 
L 148.142307 397.103253 
L 148.722395 397.553447 
L 150.276038 399.328873 
L 150.562354 399.916366 
L 150.450211 400.330693 
L 150.030668 400.859088 
L 149.667163 401.352683 
L 148.225222 403.182195 
L 147.704469 403.818334 
L 145.283409 406.009666 
L 144.777783 406.183849 
L 143.767098 406.137826 
L 142.626975 405.467905 
L 141.121809 403.91352 
L 140.479138 402.956406 
L 140.127779 402.068737 
L 140.2706 402.209796 
L 141.103808 402.543691 
L 141.648962 402.593671 
L 142.293344 402.42439 
L 144.781732 401.442476 
L 145.399891 401.343159 
L 145.782545 401.387497 
L 146.176551 401.562151 
L 146.482805 402.091361 
L 146.572297 402.84886 
L 146.447064 403.807711 
L 146.196269 404.744346 
L 145.704425 405.832615 
L 145.020456 406.703581 
L 144.566529 407.288819 
L 144.552741 407.712824 
L 144.404604 407.817396 
L 144.339279 407.543798 
L 144.481592 407.574606 
L 144.683289 407.72383 
L 144.268993 407.525435 
L 144.259555 407.545407 
L 144.358589 407.812342 
L 144.652509 408.189564 
L 144.456258 408.138116 
L 144.559793 408.328699 
L 144.778846 408.721382 
L 144.543289 408.326074 
L 144.774452 408.713611 
L 144.742224 408.705672 
L 144.715611 408.666713 
L 144.59911 408.494714 
L 144.769875 408.876103 
L 144.79886 409.128352 
L 144.664773 408.843913 
L 144.779822 409.129923 
L 144.688515 409.063817 
L 144.778255 409.221246 
L 144.856502 409.504841 
L 144.721802 409.20186 
L 144.808215 409.189556 
" style="fill:none;stroke:#2ca02c;stroke-linecap:square;stroke-opacity:0.7;stroke-width:1.5;"/>
   </g>
   <g id="line2d_23">
    <path clip-path="url(#pcb16e6a9cd)" d="M 452.915336 163.942395 
L 467.560244 167.733948 
L 467.560244 167.733948 
" style="fill:none;stroke:#000000;stroke-dasharray:5.55,2.4;stroke-dashoffset:0;stroke-opacity:0.595;stroke-width:1.5;"/>
   </g>
   <g id="legend_1">
    <g id="patch_6">
     <path d="M 460.49375 88.034375 
L 545.6 88.034375 
Q 547.6 88.034375 547.6 86.034375 
L 547.6 43 
Q 547.6 41 545.6 41 
L 460.49375 41 
Q 458.49375 41 458.49375 43 
L 458.49375 86.034375 
Q 458.49375 88.034375 460.49375 88.034375 
z
" style="fill:#ffffff;opacity:0.8;stroke:#cccccc;stroke-linejoin:miter;"/>
    </g>
    <g id="line2d_24">
     <path d="M 462.49375 49.098437 
L 482.49375 49.098437 
" style="fill:none;stroke:#1f77b4;stroke-linecap:square;stroke-opacity:0.7;stroke-width:1.5;"/>
    </g>
    <g id="line2d_25"/>
    <g id="text_21">
     <!-- DSLPID -->
     <g transform="translate(490.49375 52.598437)scale(0.1 -0.1)">
      <defs>
       <path d="M 1259 4147 
L 1259 519 
L 2022 519 
Q 2988 519 3436 956 
Q 3884 1394 3884 2338 
Q 3884 3275 3436 3711 
Q 2988 4147 2022 4147 
L 1259 4147 
z
M 628 4666 
L 1925 4666 
Q 3281 4666 3915 4102 
Q 4550 3538 4550 2338 
Q 4550 1131 3912 565 
Q 3275 0 1925 0 
L 628 0 
L 628 4666 
z
" id="DejaVuSans-44" transform="scale(0.015625)"/>
       <path d="M 3425 4513 
L 3425 3897 
Q 3066 4069 2747 4153 
Q 2428 4238 2131 4238 
Q 1616 4238 1336 4038 
Q 1056 3838 1056 3469 
Q 1056 3159 1242 3001 
Q 1428 2844 1947 2747 
L 2328 2669 
Q 3034 2534 3370 2195 
Q 3706 1856 3706 1288 
Q 3706 609 3251 259 
Q 2797 -91 1919 -91 
Q 1588 -91 1214 -16 
Q 841 59 441 206 
L 441 856 
Q 825 641 1194 531 
Q 1563 422 1919 422 
Q 2459 422 2753 634 
Q 3047 847 3047 1241 
Q 3047 1584 2836 1778 
Q 2625 1972 2144 2069 
L 1759 2144 
Q 1053 2284 737 2584 
Q 422 2884 422 3419 
Q 422 4038 858 4394 
Q 1294 4750 2059 4750 
Q 2388 4750 2728 4690 
Q 3069 4631 3425 4513 
z
" id="DejaVuSans-53" transform="scale(0.015625)"/>
       <path d="M 628 4666 
L 1259 4666 
L 1259 531 
L 3531 531 
L 3531 0 
L 628 0 
L 628 4666 
z
" id="DejaVuSans-4c" transform="scale(0.015625)"/>
       <path d="M 1259 4147 
L 1259 2394 
L 2053 2394 
Q 2494 2394 2734 2622 
Q 2975 2850 2975 3272 
Q 2975 3691 2734 3919 
Q 2494 4147 2053 4147 
L 1259 4147 
z
M 628 4666 
L 2053 4666 
Q 2838 4666 3239 4311 
Q 3641 3956 3641 3272 
Q 3641 2581 3239 2228 
Q 2838 1875 2053 1875 
L 1259 1875 
L 1259 0 
L 628 0 
L 628 4666 
z
" id="DejaVuSans-50" transform="scale(0.015625)"/>
       <path d="M 628 4666 
L 1259 4666 
L 1259 0 
L 628 0 
L 628 4666 
z
" id="DejaVuSans-49" transform="scale(0.015625)"/>
      </defs>
      <use xlink:href="#DejaVuSans-44"/>
      <use x="77.001953" xlink:href="#DejaVuSans-53"/>
      <use x="140.478516" xlink:href="#DejaVuSans-4c"/>
      <use x="196.191406" xlink:href="#DejaVuSans-50"/>
      <use x="256.494141" xlink:href="#DejaVuSans-49"/>
      <use x="285.986328" xlink:href="#DejaVuSans-44"/>
     </g>
    </g>
    <g id="line2d_26">
     <path d="M 462.49375 63.776562 
L 482.49375 63.776562 
" style="fill:none;stroke:#2ca02c;stroke-linecap:square;stroke-opacity:0.7;stroke-width:1.5;"/>
    </g>
    <g id="line2d_27"/>
    <g id="text_22">
     <!-- LSTMCNN -->
     <g transform="translate(490.49375 67.276562)scale(0.1 -0.1)">
      <defs>
       <path d="M -19 4666 
L 3928 4666 
L 3928 4134 
L 2272 4134 
L 2272 0 
L 1638 0 
L 1638 4134 
L -19 4134 
L -19 4666 
z
" id="DejaVuSans-54" transform="scale(0.015625)"/>
       <path d="M 628 4666 
L 1569 4666 
L 2759 1491 
L 3956 4666 
L 4897 4666 
L 4897 0 
L 4281 0 
L 4281 4097 
L 3078 897 
L 2444 897 
L 1241 4097 
L 1241 0 
L 628 0 
L 628 4666 
z
" id="DejaVuSans-4d" transform="scale(0.015625)"/>
       <path d="M 4122 4306 
L 4122 3641 
Q 3803 3938 3442 4084 
Q 3081 4231 2675 4231 
Q 1875 4231 1450 3742 
Q 1025 3253 1025 2328 
Q 1025 1406 1450 917 
Q 1875 428 2675 428 
Q 3081 428 3442 575 
Q 3803 722 4122 1019 
L 4122 359 
Q 3791 134 3420 21 
Q 3050 -91 2638 -91 
Q 1578 -91 968 557 
Q 359 1206 359 2328 
Q 359 3453 968 4101 
Q 1578 4750 2638 4750 
Q 3056 4750 3426 4639 
Q 3797 4528 4122 4306 
z
" id="DejaVuSans-43" transform="scale(0.015625)"/>
       <path d="M 628 4666 
L 1478 4666 
L 3547 763 
L 3547 4666 
L 4159 4666 
L 4159 0 
L 3309 0 
L 1241 3903 
L 1241 0 
L 628 0 
L 628 4666 
z
" id="DejaVuSans-4e" transform="scale(0.015625)"/>
      </defs>
      <use xlink:href="#DejaVuSans-4c"/>
      <use x="55.712891" xlink:href="#DejaVuSans-53"/>
      <use x="119.189453" xlink:href="#DejaVuSans-54"/>
      <use x="180.273438" xlink:href="#DejaVuSans-4d"/>
      <use x="266.552734" xlink:href="#DejaVuSans-43"/>
      <use x="336.376953" xlink:href="#DejaVuSans-4e"/>
      <use x="411.181641" xlink:href="#DejaVuSans-4e"/>
     </g>
    </g>
    <g id="line2d_28">
     <path d="M 462.49375 78.454687 
L 482.49375 78.454687 
" style="fill:none;stroke:#000000;stroke-dasharray:5.55,2.4;stroke-dashoffset:0;stroke-opacity:0.595;stroke-width:1.5;"/>
    </g>
    <g id="line2d_29"/>
    <g id="text_23">
     <!-- Referencia -->
     <g transform="translate(490.49375 81.954687)scale(0.1 -0.1)">
      <defs>
       <path d="M 2841 2188 
Q 3044 2119 3236 1894 
Q 3428 1669 3622 1275 
L 4263 0 
L 3584 0 
L 2988 1197 
Q 2756 1666 2539 1819 
Q 2322 1972 1947 1972 
L 1259 1972 
L 1259 0 
L 628 0 
L 628 4666 
L 2053 4666 
Q 2853 4666 3247 4331 
Q 3641 3997 3641 3322 
Q 3641 2881 3436 2590 
Q 3231 2300 2841 2188 
z
M 1259 4147 
L 1259 2491 
L 2053 2491 
Q 2509 2491 2742 2702 
Q 2975 2913 2975 3322 
Q 2975 3731 2742 3939 
Q 2509 4147 2053 4147 
L 1259 4147 
z
" id="DejaVuSans-52" transform="scale(0.015625)"/>
       <path d="M 3597 1894 
L 3597 1613 
L 953 1613 
Q 991 1019 1311 708 
Q 1631 397 2203 397 
Q 2534 397 2845 478 
Q 3156 559 3463 722 
L 3463 178 
Q 3153 47 2828 -22 
Q 2503 -91 2169 -91 
Q 1331 -91 842 396 
Q 353 884 353 1716 
Q 353 2575 817 3079 
Q 1281 3584 2069 3584 
Q 2775 3584 3186 3129 
Q 3597 2675 3597 1894 
z
M 3022 2063 
Q 3016 2534 2758 2815 
Q 2500 3097 2075 3097 
Q 1594 3097 1305 2825 
Q 1016 2553 972 2059 
L 3022 2063 
z
" id="DejaVuSans-65" transform="scale(0.015625)"/>
       <path d="M 2375 4863 
L 2375 4384 
L 1825 4384 
Q 1516 4384 1395 4259 
Q 1275 4134 1275 3809 
L 1275 3500 
L 2222 3500 
L 2222 3053 
L 1275 3053 
L 1275 0 
L 697 0 
L 697 3053 
L 147 3053 
L 147 3500 
L 697 3500 
L 697 3744 
Q 697 4328 969 4595 
Q 1241 4863 1831 4863 
L 2375 4863 
z
" id="DejaVuSans-66" transform="scale(0.015625)"/>
       <path d="M 2631 2963 
Q 2534 3019 2420 3045 
Q 2306 3072 2169 3072 
Q 1681 3072 1420 2755 
Q 1159 2438 1159 1844 
L 1159 0 
L 581 0 
L 581 3500 
L 1159 3500 
L 1159 2956 
Q 1341 3275 1631 3429 
Q 1922 3584 2338 3584 
Q 2397 3584 2469 3576 
Q 2541 3569 2628 3553 
L 2631 2963 
z
" id="DejaVuSans-72" transform="scale(0.015625)"/>
       <path d="M 3513 2113 
L 3513 0 
L 2938 0 
L 2938 2094 
Q 2938 2591 2744 2837 
Q 2550 3084 2163 3084 
Q 1697 3084 1428 2787 
Q 1159 2491 1159 1978 
L 1159 0 
L 581 0 
L 581 3500 
L 1159 3500 
L 1159 2956 
Q 1366 3272 1645 3428 
Q 1925 3584 2291 3584 
Q 2894 3584 3203 3211 
Q 3513 2838 3513 2113 
z
" id="DejaVuSans-6e" transform="scale(0.015625)"/>
       <path d="M 3122 3366 
L 3122 2828 
Q 2878 2963 2633 3030 
Q 2388 3097 2138 3097 
Q 1578 3097 1268 2742 
Q 959 2388 959 1747 
Q 959 1106 1268 751 
Q 1578 397 2138 397 
Q 2388 397 2633 464 
Q 2878 531 3122 666 
L 3122 134 
Q 2881 22 2623 -34 
Q 2366 -91 2075 -91 
Q 1284 -91 818 406 
Q 353 903 353 1747 
Q 353 2603 823 3093 
Q 1294 3584 2113 3584 
Q 2378 3584 2631 3529 
Q 2884 3475 3122 3366 
z
" id="DejaVuSans-63" transform="scale(0.015625)"/>
       <path d="M 603 3500 
L 1178 3500 
L 1178 0 
L 603 0 
L 603 3500 
z
M 603 4863 
L 1178 4863 
L 1178 4134 
L 603 4134 
L 603 4863 
z
" id="DejaVuSans-69" transform="scale(0.015625)"/>
       <path d="M 2194 1759 
Q 1497 1759 1228 1600 
Q 959 1441 959 1056 
Q 959 750 1161 570 
Q 1363 391 1709 391 
Q 2188 391 2477 730 
Q 2766 1069 2766 1631 
L 2766 1759 
L 2194 1759 
z
M 3341 1997 
L 3341 0 
L 2766 0 
L 2766 531 
Q 2569 213 2275 61 
Q 1981 -91 1556 -91 
Q 1019 -91 701 211 
Q 384 513 384 1019 
Q 384 1609 779 1909 
Q 1175 2209 1959 2209 
L 2766 2209 
L 2766 2266 
Q 2766 2663 2505 2880 
Q 2244 3097 1772 3097 
Q 1472 3097 1187 3025 
Q 903 2953 641 2809 
L 641 3341 
Q 956 3463 1253 3523 
Q 1550 3584 1831 3584 
Q 2591 3584 2966 3190 
Q 3341 2797 3341 1997 
z
" id="DejaVuSans-61" transform="scale(0.015625)"/>
      </defs>
      <use xlink:href="#DejaVuSans-52"/>
      <use x="64.982422" xlink:href="#DejaVuSans-65"/>
      <use x="126.505859" xlink:href="#DejaVuSans-66"/>
      <use x="161.710938" xlink:href="#DejaVuSans-65"/>
      <use x="223.234375" xlink:href="#DejaVuSans-72"/>
      <use x="262.097656" xlink:href="#DejaVuSans-65"/>
      <use x="323.621094" xlink:href="#DejaVuSans-6e"/>
      <use x="387" xlink:href="#DejaVuSans-63"/>
      <use x="441.980469" xlink:href="#DejaVuSans-69"/>
      <use x="469.763672" xlink:href="#DejaVuSans-61"/>
     </g>
    </g>
   </g>
  </g>
  <g id="text_24">
   <!-- Vista 3D -->
   <g transform="translate(254.48625 23.6775)scale(0.16 -0.16)">
    <defs>
     <path d="M 1831 0 
L 50 4666 
L 709 4666 
L 2188 738 
L 3669 4666 
L 4325 4666 
L 2547 0 
L 1831 0 
z
" id="DejaVuSans-56" transform="scale(0.015625)"/>
     <path d="M 2834 3397 
L 2834 2853 
Q 2591 2978 2328 3040 
Q 2066 3103 1784 3103 
Q 1356 3103 1142 2972 
Q 928 2841 928 2578 
Q 928 2378 1081 2264 
Q 1234 2150 1697 2047 
L 1894 2003 
Q 2506 1872 2764 1633 
Q 3022 1394 3022 966 
Q 3022 478 2636 193 
Q 2250 -91 1575 -91 
Q 1294 -91 989 -36 
Q 684 19 347 128 
L 347 722 
Q 666 556 975 473 
Q 1284 391 1588 391 
Q 1994 391 2212 530 
Q 2431 669 2431 922 
Q 2431 1156 2273 1281 
Q 2116 1406 1581 1522 
L 1381 1569 
Q 847 1681 609 1914 
Q 372 2147 372 2553 
Q 372 3047 722 3315 
Q 1072 3584 1716 3584 
Q 2034 3584 2315 3537 
Q 2597 3491 2834 3397 
z
" id="DejaVuSans-73" transform="scale(0.015625)"/>
     <path d="M 1172 4494 
L 1172 3500 
L 2356 3500 
L 2356 3053 
L 1172 3053 
L 1172 1153 
Q 1172 725 1289 603 
Q 1406 481 1766 481 
L 2356 481 
L 2356 0 
L 1766 0 
Q 1100 0 847 248 
Q 594 497 594 1153 
L 594 3053 
L 172 3053 
L 172 3500 
L 594 3500 
L 594 4494 
L 1172 4494 
z
" id="DejaVuSans-74" transform="scale(0.015625)"/>
    </defs>
    <use xlink:href="#DejaVuSans-56"/>
    <use x="66.158203" xlink:href="#DejaVuSans-69"/>
    <use x="93.941406" xlink:href="#DejaVuSans-73"/>
    <use x="146.041016" xlink:href="#DejaVuSans-74"/>
    <use x="185.25" xlink:href="#DejaVuSans-61"/>
    <use x="246.529297" xlink:href="#DejaVuSans-20"/>
    <use x="278.316406" xlink:href="#DejaVuSans-33"/>
    <use x="341.939453" xlink:href="#DejaVuSans-44"/>
   </g>
  </g>
 </g>
 <defs>
  <clipPath id="pcb16e6a9cd">
   <rect height="529.2" width="529.2" x="23.4" y="36"/>
  </clipPath>
 </defs>
</svg>
