<?xml version="1.0" encoding="utf-8" standalone="no"?>
<!DOCTYPE svg PUBLIC "-//W3C//DTD SVG 1.1//EN"
  "http://www.w3.org/Graphics/SVG/1.1/DTD/svg11.dtd">
<svg height="576pt" version="1.1" viewBox="0 0 576 576" width="576pt" xmlns="http://www.w3.org/2000/svg" xmlns:xlink="http://www.w3.org/1999/xlink">
 <metadata>
  <rdf:RDF xmlns:cc="http://creativecommons.org/ns#" xmlns:dc="http://purl.org/dc/elements/1.1/" xmlns:rdf="http://www.w3.org/1999/02/22-rdf-syntax-ns#">
   <cc:Work>
    <dc:type rdf:resource="http://purl.org/dc/dcmitype/StillImage"/>
    <dc:date>2022-02-27T21:12:57.426473</dc:date>
    <dc:format>image/svg+xml</dc:format>
    <dc:creator>
     <cc:Agent>
      <dc:title>Matplotlib v3.4.3, https://matplotlib.org/</dc:title>
     </cc:Agent>
    </dc:creator>
   </cc:Work>
  </rdf:RDF>
 </metadata>
 <defs>
  <style type="text/css">*{stroke-linecap:butt;stroke-linejoin:round;}</style>
 </defs>
 <g id="figure_1">
  <g id="patch_1">
   <path d="M 0 576 
L 576 576 
L 576 0 
L 0 0 
z
" style="fill:#ffffff;"/>
  </g>
  <g id="patch_2">
   <path d="M 10.8 565.2 
L 565.2 565.2 
L 565.2 10.8 
L 10.8 10.8 
z
" style="fill:#ffffff;"/>
  </g>
  <g id="pane3d_1">
   <g id="patch_3">
    <path d="M 52.661023 428.502727 
L 235.742009 275.040614 
L 233.197008 53.720814 
L 41.354653 193.718627 
" style="fill:#f2f2f2;opacity:0.5;stroke:#f2f2f2;stroke-linejoin:miter;"/>
   </g>
  </g>
  <g id="pane3d_2">
   <g id="patch_4">
    <path d="M 235.742009 275.040614 
L 529.521668 360.430763 
L 540.005628 131.487856 
L 233.197008 53.720814 
" style="fill:#e6e6e6;opacity:0.5;stroke:#e6e6e6;stroke-linejoin:miter;"/>
   </g>
  </g>
  <g id="pane3d_3">
   <g id="patch_5">
    <path d="M 52.661023 428.502727 
L 364.08181 530.212756 
L 529.521668 360.430763 
L 235.742009 275.040614 
" style="fill:#ececec;opacity:0.5;stroke:#ececec;stroke-linejoin:miter;"/>
   </g>
  </g>
  <g id="axis3d_1">
   <g id="line2d_1">
    <path d="M 52.661023 428.502727 
L 364.08181 530.212756 
" style="fill:none;stroke:#000000;stroke-linecap:square;stroke-width:0.8;"/>
   </g>
   <g id="text_1">
    <!-- x (m) -->
    <g transform="translate(174.526236 511.624996)rotate(-341.912962)scale(0.1 -0.1)">
     <defs>
      <path d="M 3513 3500 
L 2247 1797 
L 3578 0 
L 2900 0 
L 1881 1375 
L 863 0 
L 184 0 
L 1544 1831 
L 300 3500 
L 978 3500 
L 1906 2253 
L 2834 3500 
L 3513 3500 
z
" id="DejaVuSans-78" transform="scale(0.015625)"/>
      <path id="DejaVuSans-20" transform="scale(0.015625)"/>
      <path d="M 1984 4856 
Q 1566 4138 1362 3434 
Q 1159 2731 1159 2009 
Q 1159 1288 1364 580 
Q 1569 -128 1984 -844 
L 1484 -844 
Q 1016 -109 783 600 
Q 550 1309 550 2009 
Q 550 2706 781 3412 
Q 1013 4119 1484 4856 
L 1984 4856 
z
" id="DejaVuSans-28" transform="scale(0.015625)"/>
      <path d="M 3328 2828 
Q 3544 3216 3844 3400 
Q 4144 3584 4550 3584 
Q 5097 3584 5394 3201 
Q 5691 2819 5691 2113 
L 5691 0 
L 5113 0 
L 5113 2094 
Q 5113 2597 4934 2840 
Q 4756 3084 4391 3084 
Q 3944 3084 3684 2787 
Q 3425 2491 3425 1978 
L 3425 0 
L 2847 0 
L 2847 2094 
Q 2847 2600 2669 2842 
Q 2491 3084 2119 3084 
Q 1678 3084 1418 2786 
Q 1159 2488 1159 1978 
L 1159 0 
L 581 0 
L 581 3500 
L 1159 3500 
L 1159 2956 
Q 1356 3278 1631 3431 
Q 1906 3584 2284 3584 
Q 2666 3584 2933 3390 
Q 3200 3197 3328 2828 
z
" id="DejaVuSans-6d" transform="scale(0.015625)"/>
      <path d="M 513 4856 
L 1013 4856 
Q 1481 4119 1714 3412 
Q 1947 2706 1947 2009 
Q 1947 1309 1714 600 
Q 1481 -109 1013 -844 
L 513 -844 
Q 928 -128 1133 580 
Q 1338 1288 1338 2009 
Q 1338 2731 1133 3434 
Q 928 4138 513 4856 
z
" id="DejaVuSans-29" transform="scale(0.015625)"/>
     </defs>
     <use xlink:href="#DejaVuSans-78"/>
     <use x="59.179688" xlink:href="#DejaVuSans-20"/>
     <use x="90.966797" xlink:href="#DejaVuSans-28"/>
     <use x="129.980469" xlink:href="#DejaVuSans-6d"/>
     <use x="227.392578" xlink:href="#DejaVuSans-29"/>
    </g>
   </g>
   <g id="Line3DCollection_1">
    <path d="M 66.416917 432.995402 
L 248.773542 278.828366 
L 246.779052 57.163467 
" style="fill:none;stroke:#b0b0b0;stroke-width:0.8;"/>
    <path d="M 105.785209 445.853086 
L 286.040638 289.66044 
L 285.63451 67.012193 
" style="fill:none;stroke:#b0b0b0;stroke-width:0.8;"/>
    <path d="M 145.69493 458.887601 
L 323.777768 300.629134 
L 325.001232 76.990509 
" style="fill:none;stroke:#b0b0b0;stroke-width:0.8;"/>
    <path d="M 186.157328 472.10262 
L 361.993879 311.737049 
L 364.889374 87.10099 
" style="fill:none;stroke:#b0b0b0;stroke-width:0.8;"/>
    <path d="M 227.183963 485.501919 
L 400.69815 322.986852 
L 405.309366 97.34628 
" style="fill:none;stroke:#b0b0b0;stroke-width:0.8;"/>
    <path d="M 268.786721 499.089379 
L 439.899993 334.38128 
L 446.271916 107.729092 
" style="fill:none;stroke:#b0b0b0;stroke-width:0.8;"/>
    <path d="M 310.977821 512.868993 
L 479.609067 345.92314 
L 487.788022 118.252215 
" style="fill:none;stroke:#b0b0b0;stroke-width:0.8;"/>
    <path d="M 353.769835 526.844864 
L 519.835279 357.615312 
L 529.868981 128.918512 
" style="fill:none;stroke:#b0b0b0;stroke-width:0.8;"/>
   </g>
   <g id="xtick_1">
    <g id="line2d_2">
     <path d="M 68.004754 431.653021 
L 63.234436 435.68592 
" style="fill:none;stroke:#000000;stroke-linecap:square;stroke-width:0.8;"/>
    </g>
    <g id="text_2">
     <!-- −0.02 -->
     <g transform="translate(43.577314 456.257374)scale(0.1 -0.1)">
      <defs>
       <path d="M 678 2272 
L 4684 2272 
L 4684 1741 
L 678 1741 
L 678 2272 
z
" id="DejaVuSans-2212" transform="scale(0.015625)"/>
       <path d="M 2034 4250 
Q 1547 4250 1301 3770 
Q 1056 3291 1056 2328 
Q 1056 1369 1301 889 
Q 1547 409 2034 409 
Q 2525 409 2770 889 
Q 3016 1369 3016 2328 
Q 3016 3291 2770 3770 
Q 2525 4250 2034 4250 
z
M 2034 4750 
Q 2819 4750 3233 4129 
Q 3647 3509 3647 2328 
Q 3647 1150 3233 529 
Q 2819 -91 2034 -91 
Q 1250 -91 836 529 
Q 422 1150 422 2328 
Q 422 3509 836 4129 
Q 1250 4750 2034 4750 
z
" id="DejaVuSans-30" transform="scale(0.015625)"/>
       <path d="M 684 794 
L 1344 794 
L 1344 0 
L 684 0 
L 684 794 
z
" id="DejaVuSans-2e" transform="scale(0.015625)"/>
       <path d="M 1228 531 
L 3431 531 
L 3431 0 
L 469 0 
L 469 531 
Q 828 903 1448 1529 
Q 2069 2156 2228 2338 
Q 2531 2678 2651 2914 
Q 2772 3150 2772 3378 
Q 2772 3750 2511 3984 
Q 2250 4219 1831 4219 
Q 1534 4219 1204 4116 
Q 875 4013 500 3803 
L 500 4441 
Q 881 4594 1212 4672 
Q 1544 4750 1819 4750 
Q 2544 4750 2975 4387 
Q 3406 4025 3406 3419 
Q 3406 3131 3298 2873 
Q 3191 2616 2906 2266 
Q 2828 2175 2409 1742 
Q 1991 1309 1228 531 
z
" id="DejaVuSans-32" transform="scale(0.015625)"/>
      </defs>
      <use xlink:href="#DejaVuSans-2212"/>
      <use x="83.789062" xlink:href="#DejaVuSans-30"/>
      <use x="147.412109" xlink:href="#DejaVuSans-2e"/>
      <use x="179.199219" xlink:href="#DejaVuSans-30"/>
      <use x="242.822266" xlink:href="#DejaVuSans-32"/>
     </g>
    </g>
   </g>
   <g id="xtick_2">
    <g id="line2d_3">
     <path d="M 107.35562 444.492313 
L 102.637607 448.580506 
" style="fill:none;stroke:#000000;stroke-linecap:square;stroke-width:0.8;"/>
    </g>
    <g id="text_3">
     <!-- 0.00 -->
     <g transform="translate(87.154546 469.245258)scale(0.1 -0.1)">
      <use xlink:href="#DejaVuSans-30"/>
      <use x="63.623047" xlink:href="#DejaVuSans-2e"/>
      <use x="95.410156" xlink:href="#DejaVuSans-30"/>
      <use x="159.033203" xlink:href="#DejaVuSans-30"/>
     </g>
    </g>
   </g>
   <g id="xtick_3">
    <g id="line2d_4">
     <path d="M 147.247285 457.508056 
L 142.583473 461.652687 
" style="fill:none;stroke:#000000;stroke-linecap:square;stroke-width:0.8;"/>
    </g>
    <g id="text_4">
     <!-- 0.02 -->
     <g transform="translate(127.084604 482.412085)scale(0.1 -0.1)">
      <use xlink:href="#DejaVuSans-30"/>
      <use x="63.623047" xlink:href="#DejaVuSans-2e"/>
      <use x="95.410156" xlink:href="#DejaVuSans-30"/>
      <use x="159.033203" xlink:href="#DejaVuSans-32"/>
     </g>
    </g>
   </g>
   <g id="xtick_4">
    <g id="line2d_5">
     <path d="M 187.690974 470.703912 
L 183.083324 474.906158 
" style="fill:none;stroke:#000000;stroke-linecap:square;stroke-width:0.8;"/>
    </g>
    <g id="text_5">
     <!-- 0.04 -->
     <g transform="translate(167.568625 495.76158)scale(0.1 -0.1)">
      <defs>
       <path d="M 2419 4116 
L 825 1625 
L 2419 1625 
L 2419 4116 
z
M 2253 4666 
L 3047 4666 
L 3047 1625 
L 3713 1625 
L 3713 1100 
L 3047 1100 
L 3047 0 
L 2419 0 
L 2419 1100 
L 313 1100 
L 313 1709 
L 2253 4666 
z
" id="DejaVuSans-34" transform="scale(0.015625)"/>
      </defs>
      <use xlink:href="#DejaVuSans-30"/>
      <use x="63.623047" xlink:href="#DejaVuSans-2e"/>
      <use x="95.410156" xlink:href="#DejaVuSans-30"/>
      <use x="159.033203" xlink:href="#DejaVuSans-34"/>
     </g>
    </g>
   </g>
   <g id="xtick_5">
    <g id="line2d_6">
     <path d="M 228.698227 484.083645 
L 224.148763 488.344717 
" style="fill:none;stroke:#000000;stroke-linecap:square;stroke-width:0.8;"/>
    </g>
    <g id="text_6">
     <!-- 0.06 -->
     <g transform="translate(208.618217 509.297571)scale(0.1 -0.1)">
      <defs>
       <path d="M 2113 2584 
Q 1688 2584 1439 2293 
Q 1191 2003 1191 1497 
Q 1191 994 1439 701 
Q 1688 409 2113 409 
Q 2538 409 2786 701 
Q 3034 994 3034 1497 
Q 3034 2003 2786 2293 
Q 2538 2584 2113 2584 
z
M 3366 4563 
L 3366 3988 
Q 3128 4100 2886 4159 
Q 2644 4219 2406 4219 
Q 1781 4219 1451 3797 
Q 1122 3375 1075 2522 
Q 1259 2794 1537 2939 
Q 1816 3084 2150 3084 
Q 2853 3084 3261 2657 
Q 3669 2231 3669 1497 
Q 3669 778 3244 343 
Q 2819 -91 2113 -91 
Q 1303 -91 875 529 
Q 447 1150 447 2328 
Q 447 3434 972 4092 
Q 1497 4750 2381 4750 
Q 2619 4750 2861 4703 
Q 3103 4656 3366 4563 
z
" id="DejaVuSans-36" transform="scale(0.015625)"/>
      </defs>
      <use xlink:href="#DejaVuSans-30"/>
      <use x="63.623047" xlink:href="#DejaVuSans-2e"/>
      <use x="95.410156" xlink:href="#DejaVuSans-30"/>
      <use x="159.033203" xlink:href="#DejaVuSans-36"/>
     </g>
    </g>
   </g>
   <g id="xtick_6">
    <g id="line2d_7">
     <path d="M 270.280904 497.651127 
L 265.791723 501.972268 
" style="fill:none;stroke:#000000;stroke-linecap:square;stroke-width:0.8;"/>
    </g>
    <g id="text_7">
     <!-- 0.08 -->
     <g transform="translate(250.245315 523.023993)scale(0.1 -0.1)">
      <defs>
       <path d="M 2034 2216 
Q 1584 2216 1326 1975 
Q 1069 1734 1069 1313 
Q 1069 891 1326 650 
Q 1584 409 2034 409 
Q 2484 409 2743 651 
Q 3003 894 3003 1313 
Q 3003 1734 2745 1975 
Q 2488 2216 2034 2216 
z
M 1403 2484 
Q 997 2584 770 2862 
Q 544 3141 544 3541 
Q 544 4100 942 4425 
Q 1341 4750 2034 4750 
Q 2731 4750 3128 4425 
Q 3525 4100 3525 3541 
Q 3525 3141 3298 2862 
Q 3072 2584 2669 2484 
Q 3125 2378 3379 2068 
Q 3634 1759 3634 1313 
Q 3634 634 3220 271 
Q 2806 -91 2034 -91 
Q 1263 -91 848 271 
Q 434 634 434 1313 
Q 434 1759 690 2068 
Q 947 2378 1403 2484 
z
M 1172 3481 
Q 1172 3119 1398 2916 
Q 1625 2713 2034 2713 
Q 2441 2713 2670 2916 
Q 2900 3119 2900 3481 
Q 2900 3844 2670 4047 
Q 2441 4250 2034 4250 
Q 1625 4250 1398 4047 
Q 1172 3844 1172 3481 
z
" id="DejaVuSans-38" transform="scale(0.015625)"/>
      </defs>
      <use xlink:href="#DejaVuSans-30"/>
      <use x="63.623047" xlink:href="#DejaVuSans-2e"/>
      <use x="95.410156" xlink:href="#DejaVuSans-30"/>
      <use x="159.033203" xlink:href="#DejaVuSans-38"/>
     </g>
    </g>
   </g>
   <g id="xtick_7">
    <g id="line2d_8">
     <path d="M 312.451204 511.410336 
L 308.024471 515.792825 
" style="fill:none;stroke:#000000;stroke-linecap:square;stroke-width:0.8;"/>
    </g>
    <g id="text_8">
     <!-- 0.10 -->
     <g transform="translate(292.462192 536.944893)scale(0.1 -0.1)">
      <defs>
       <path d="M 794 531 
L 1825 531 
L 1825 4091 
L 703 3866 
L 703 4441 
L 1819 4666 
L 2450 4666 
L 2450 531 
L 3481 531 
L 3481 0 
L 794 0 
L 794 531 
z
" id="DejaVuSans-31" transform="scale(0.015625)"/>
      </defs>
      <use xlink:href="#DejaVuSans-30"/>
      <use x="63.623047" xlink:href="#DejaVuSans-2e"/>
      <use x="95.410156" xlink:href="#DejaVuSans-31"/>
      <use x="159.033203" xlink:href="#DejaVuSans-30"/>
     </g>
    </g>
   </g>
   <g id="xtick_8">
    <g id="line2d_9">
     <path d="M 355.22167 525.365366 
L 350.859629 529.81052 
" style="fill:none;stroke:#000000;stroke-linecap:square;stroke-width:0.8;"/>
    </g>
    <g id="text_9">
     <!-- 0.12 -->
     <g transform="translate(335.281473 551.064433)scale(0.1 -0.1)">
      <use xlink:href="#DejaVuSans-30"/>
      <use x="63.623047" xlink:href="#DejaVuSans-2e"/>
      <use x="95.410156" xlink:href="#DejaVuSans-31"/>
      <use x="159.033203" xlink:href="#DejaVuSans-32"/>
     </g>
    </g>
   </g>
  </g>
  <g id="axis3d_2">
   <g id="line2d_10">
    <path d="M 529.521668 360.430763 
L 364.08181 530.212756 
" style="fill:none;stroke:#000000;stroke-linecap:square;stroke-width:0.8;"/>
   </g>
   <g id="text_10">
    <!-- y (m) -->
    <g transform="translate(470.139263 480.978729)rotate(-45.742112)scale(0.1 -0.1)">
     <defs>
      <path d="M 2059 -325 
Q 1816 -950 1584 -1140 
Q 1353 -1331 966 -1331 
L 506 -1331 
L 506 -850 
L 844 -850 
Q 1081 -850 1212 -737 
Q 1344 -625 1503 -206 
L 1606 56 
L 191 3500 
L 800 3500 
L 1894 763 
L 2988 3500 
L 3597 3500 
L 2059 -325 
z
" id="DejaVuSans-79" transform="scale(0.015625)"/>
     </defs>
     <use xlink:href="#DejaVuSans-79"/>
     <use x="59.179688" xlink:href="#DejaVuSans-20"/>
     <use x="90.966797" xlink:href="#DejaVuSans-28"/>
     <use x="129.980469" xlink:href="#DejaVuSans-6d"/>
     <use x="227.392578" xlink:href="#DejaVuSans-29"/>
    </g>
   </g>
   <g id="Line3DCollection_2">
    <path d="M 73.572469 170.207533 
L 83.310443 402.811776 
L 391.879903 501.685074 
" style="fill:none;stroke:#b0b0b0;stroke-width:0.8;"/>
    <path d="M 101.964361 149.488423 
L 110.352569 380.144529 
L 416.372141 476.550013 
" style="fill:none;stroke:#b0b0b0;stroke-width:0.8;"/>
    <path d="M 129.639131 129.292636 
L 136.740912 358.025297 
L 440.241442 452.054238 
" style="fill:none;stroke:#b0b0b0;stroke-width:0.8;"/>
    <path d="M 156.623609 109.600594 
L 162.498898 336.434442 
L 463.511274 428.173666 
" style="fill:none;stroke:#b0b0b0;stroke-width:0.8;"/>
    <path d="M 182.943303 90.393679 
L 187.648847 315.353256 
L 486.203939 404.885409 
" style="fill:none;stroke:#b0b0b0;stroke-width:0.8;"/>
    <path d="M 208.622482 71.654185 
L 212.212038 294.763903 
L 508.340649 382.167698 
" style="fill:none;stroke:#b0b0b0;stroke-width:0.8;"/>
   </g>
   <g id="xtick_9">
    <g id="line2d_11">
     <path d="M 389.280702 500.852225 
L 397.08497 503.352906 
" style="fill:none;stroke:#000000;stroke-linecap:square;stroke-width:0.8;"/>
    </g>
    <g id="text_11">
     <!-- 0.00 -->
     <g transform="translate(393.518558 522.583403)scale(0.1 -0.1)">
      <use xlink:href="#DejaVuSans-30"/>
      <use x="63.623047" xlink:href="#DejaVuSans-2e"/>
      <use x="95.410156" xlink:href="#DejaVuSans-30"/>
      <use x="159.033203" xlink:href="#DejaVuSans-30"/>
     </g>
    </g>
   </g>
   <g id="xtick_10">
    <g id="line2d_12">
     <path d="M 413.796086 475.738477 
L 421.530769 478.175138 
" style="fill:none;stroke:#000000;stroke-linecap:square;stroke-width:0.8;"/>
    </g>
    <g id="text_12">
     <!-- 0.02 -->
     <g transform="translate(417.853129 497.269913)scale(0.1 -0.1)">
      <use xlink:href="#DejaVuSans-30"/>
      <use x="63.623047" xlink:href="#DejaVuSans-2e"/>
      <use x="95.410156" xlink:href="#DejaVuSans-30"/>
      <use x="159.033203" xlink:href="#DejaVuSans-32"/>
     </g>
    </g>
   </g>
   <g id="xtick_11">
    <g id="line2d_13">
     <path d="M 437.688205 451.263208 
L 445.354295 453.638276 
" style="fill:none;stroke:#000000;stroke-linecap:square;stroke-width:0.8;"/>
    </g>
    <g id="text_13">
     <!-- 0.04 -->
     <g transform="translate(441.568602 472.600425)scale(0.1 -0.1)">
      <use xlink:href="#DejaVuSans-30"/>
      <use x="63.623047" xlink:href="#DejaVuSans-2e"/>
      <use x="95.410156" xlink:href="#DejaVuSans-30"/>
      <use x="159.033203" xlink:href="#DejaVuSans-34"/>
     </g>
    </g>
   </g>
   <g id="xtick_12">
    <g id="line2d_14">
     <path d="M 460.980528 427.402374 
L 468.579009 429.718155 
" style="fill:none;stroke:#000000;stroke-linecap:square;stroke-width:0.8;"/>
    </g>
    <g id="text_14">
     <!-- 0.06 -->
     <g transform="translate(464.688306 448.550673)scale(0.1 -0.1)">
      <use xlink:href="#DejaVuSans-30"/>
      <use x="63.623047" xlink:href="#DejaVuSans-2e"/>
      <use x="95.410156" xlink:href="#DejaVuSans-30"/>
      <use x="159.033203" xlink:href="#DejaVuSans-36"/>
     </g>
    </g>
   </g>
   <g id="xtick_13">
    <g id="line2d_15">
     <path d="M 483.695361 404.133124 
L 491.227209 406.391811 
" style="fill:none;stroke:#000000;stroke-linecap:square;stroke-width:0.8;"/>
    </g>
    <g id="text_15">
     <!-- 0.08 -->
     <g transform="translate(487.234413 425.097593)scale(0.1 -0.1)">
      <use xlink:href="#DejaVuSans-30"/>
      <use x="63.623047" xlink:href="#DejaVuSans-2e"/>
      <use x="95.410156" xlink:href="#DejaVuSans-30"/>
      <use x="159.033203" xlink:href="#DejaVuSans-38"/>
     </g>
    </g>
   </g>
   <g id="xtick_14">
    <g id="line2d_16">
     <path d="M 505.853919 381.433728 
L 513.320097 383.637406 
" style="fill:none;stroke:#000000;stroke-linecap:square;stroke-width:0.8;"/>
    </g>
    <g id="text_16">
     <!-- 0.10 -->
     <g transform="translate(509.228006 402.219252)scale(0.1 -0.1)">
      <use xlink:href="#DejaVuSans-30"/>
      <use x="63.623047" xlink:href="#DejaVuSans-2e"/>
      <use x="95.410156" xlink:href="#DejaVuSans-31"/>
      <use x="159.033203" xlink:href="#DejaVuSans-30"/>
     </g>
    </g>
   </g>
  </g>
  <g id="axis3d_3">
   <g id="line2d_17">
    <path d="M 529.521668 360.430763 
L 540.005628 131.487856 
" style="fill:none;stroke:#000000;stroke-linecap:square;stroke-width:0.8;"/>
   </g>
   <g id="text_17">
    <!-- z (m) -->
    <g transform="translate(577.326905 256.136884)rotate(-87.378092)scale(0.1 -0.1)">
     <defs>
      <path d="M 353 3500 
L 3084 3500 
L 3084 2975 
L 922 459 
L 3084 459 
L 3084 0 
L 275 0 
L 275 525 
L 2438 3041 
L 353 3041 
L 353 3500 
z
" id="DejaVuSans-7a" transform="scale(0.015625)"/>
     </defs>
     <use xlink:href="#DejaVuSans-7a"/>
     <use x="52.490234" xlink:href="#DejaVuSans-20"/>
     <use x="84.277344" xlink:href="#DejaVuSans-28"/>
     <use x="123.291016" xlink:href="#DejaVuSans-6d"/>
     <use x="220.703125" xlink:href="#DejaVuSans-29"/>
    </g>
   </g>
   <g id="Line3DCollection_3">
    <path d="M 530.217732 345.230499 
L 235.572705 260.317486 
L 51.911537 412.939168 
" style="fill:none;stroke:#b0b0b0;stroke-width:0.8;"/>
    <path d="M 532.31121 299.514293 
L 235.063793 216.061195 
L 49.656378 366.109325 
" style="fill:none;stroke:#b0b0b0;stroke-width:0.8;"/>
    <path d="M 534.442366 252.975278 
L 234.546162 171.046699 
L 47.35907 318.404241 
" style="fill:none;stroke:#b0b0b0;stroke-width:0.8;"/>
    <path d="M 536.612228 205.591041 
L 234.019587 125.254346 
L 45.018421 269.799148 
" style="fill:none;stroke:#b0b0b0;stroke-width:0.8;"/>
    <path d="M 538.821859 157.338344 
L 233.483833 78.663799 
L 42.633193 220.268335 
" style="fill:none;stroke:#b0b0b0;stroke-width:0.8;"/>
   </g>
   <g id="xtick_15">
    <g id="line2d_18">
     <path d="M 527.744505 344.517746 
L 535.170087 346.657706 
" style="fill:none;stroke:#000000;stroke-linecap:square;stroke-width:0.8;"/>
    </g>
    <g id="text_18">
     <!-- 0.95 -->
     <g transform="translate(537.41533 350.234098)scale(0.1 -0.1)">
      <defs>
       <path d="M 703 97 
L 703 672 
Q 941 559 1184 500 
Q 1428 441 1663 441 
Q 2288 441 2617 861 
Q 2947 1281 2994 2138 
Q 2813 1869 2534 1725 
Q 2256 1581 1919 1581 
Q 1219 1581 811 2004 
Q 403 2428 403 3163 
Q 403 3881 828 4315 
Q 1253 4750 1959 4750 
Q 2769 4750 3195 4129 
Q 3622 3509 3622 2328 
Q 3622 1225 3098 567 
Q 2575 -91 1691 -91 
Q 1453 -91 1209 -44 
Q 966 3 703 97 
z
M 1959 2075 
Q 2384 2075 2632 2365 
Q 2881 2656 2881 3163 
Q 2881 3666 2632 3958 
Q 2384 4250 1959 4250 
Q 1534 4250 1286 3958 
Q 1038 3666 1038 3163 
Q 1038 2656 1286 2365 
Q 1534 2075 1959 2075 
z
" id="DejaVuSans-39" transform="scale(0.015625)"/>
       <path d="M 691 4666 
L 3169 4666 
L 3169 4134 
L 1269 4134 
L 1269 2991 
Q 1406 3038 1543 3061 
Q 1681 3084 1819 3084 
Q 2600 3084 3056 2656 
Q 3513 2228 3513 1497 
Q 3513 744 3044 326 
Q 2575 -91 1722 -91 
Q 1428 -91 1123 -41 
Q 819 9 494 109 
L 494 744 
Q 775 591 1075 516 
Q 1375 441 1709 441 
Q 2250 441 2565 725 
Q 2881 1009 2881 1497 
Q 2881 1984 2565 2268 
Q 2250 2553 1709 2553 
Q 1456 2553 1204 2497 
Q 953 2441 691 2322 
L 691 4666 
z
" id="DejaVuSans-35" transform="scale(0.015625)"/>
      </defs>
      <use xlink:href="#DejaVuSans-30"/>
      <use x="63.623047" xlink:href="#DejaVuSans-2e"/>
      <use x="95.410156" xlink:href="#DejaVuSans-39"/>
      <use x="159.033203" xlink:href="#DejaVuSans-35"/>
     </g>
    </g>
   </g>
   <g id="xtick_16">
    <g id="line2d_19">
     <path d="M 529.815094 298.813501 
L 537.309449 300.917563 
" style="fill:none;stroke:#000000;stroke-linecap:square;stroke-width:0.8;"/>
    </g>
    <g id="text_19">
     <!-- 1.00 -->
     <g transform="translate(539.669002 304.561461)scale(0.1 -0.1)">
      <use xlink:href="#DejaVuSans-31"/>
      <use x="63.623047" xlink:href="#DejaVuSans-2e"/>
      <use x="95.410156" xlink:href="#DejaVuSans-30"/>
      <use x="159.033203" xlink:href="#DejaVuSans-30"/>
     </g>
    </g>
   </g>
   <g id="xtick_17">
    <g id="line2d_20">
     <path d="M 531.922936 252.286996 
L 539.487346 254.353515 
" style="fill:none;stroke:#000000;stroke-linecap:square;stroke-width:0.8;"/>
    </g>
    <g id="text_20">
     <!-- 1.05 -->
     <g transform="translate(541.963176 258.068011)scale(0.1 -0.1)">
      <use xlink:href="#DejaVuSans-31"/>
      <use x="63.623047" xlink:href="#DejaVuSans-2e"/>
      <use x="95.410156" xlink:href="#DejaVuSans-30"/>
      <use x="159.033203" xlink:href="#DejaVuSans-35"/>
     </g>
    </g>
   </g>
   <g id="xtick_18">
    <g id="line2d_21">
     <path d="M 534.069043 204.915839 
L 541.70483 206.943099 
" style="fill:none;stroke:#000000;stroke-linecap:square;stroke-width:0.8;"/>
    </g>
    <g id="text_21">
     <!-- 1.10 -->
     <g transform="translate(544.298954 210.731419)scale(0.1 -0.1)">
      <use xlink:href="#DejaVuSans-31"/>
      <use x="63.623047" xlink:href="#DejaVuSans-2e"/>
      <use x="95.410156" xlink:href="#DejaVuSans-31"/>
      <use x="159.033203" xlink:href="#DejaVuSans-30"/>
     </g>
    </g>
   </g>
   <g id="xtick_19">
    <g id="line2d_22">
     <path d="M 536.254469 156.67682 
L 543.96299 158.663027 
" style="fill:none;stroke:#000000;stroke-linecap:square;stroke-width:0.8;"/>
    </g>
    <g id="text_22">
     <!-- 1.15 -->
     <g transform="translate(546.677477 162.52854)scale(0.1 -0.1)">
      <use xlink:href="#DejaVuSans-31"/>
      <use x="63.623047" xlink:href="#DejaVuSans-2e"/>
      <use x="95.410156" xlink:href="#DejaVuSans-31"/>
      <use x="159.033203" xlink:href="#DejaVuSans-35"/>
     </g>
    </g>
   </g>
  </g>
  <g id="axes_1">
   <g id="line2d_23">
    <path clip-path="url(#p2c85e6411f)" d="M 134.021307 357.643385 
L 134.062921 358.961177 
L 133.96185 353.040313 
L 134.144525 349.388804 
L 134.573926 346.108865 
L 135.144263 343.50706 
L 135.986659 340.808996 
L 137.140662 338.04872 
L 138.6379 335.240558 
L 140.498892 332.407016 
L 142.739823 329.559651 
L 145.374199 326.704518 
L 148.413503 323.847974 
L 151.867401 320.991782 
L 155.740949 318.139106 
L 160.033386 315.292918 
L 164.738472 312.455658 
L 169.845682 309.629257 
L 175.341867 306.814857 
L 181.212103 304.013169 
L 189.591444 300.298219 
L 198.558062 296.609678 
L 208.055396 292.951102 
L 218.019796 289.326262 
L 231.029539 284.848626 
L 244.529116 280.43903 
L 261.179597 275.253281 
L 280.917675 269.377709 
L 303.427349 262.939237 
L 330.738091 255.390041 
L 365.894708 245.93577 
L 428.024243 229.283365 
L 442.935125 225.011258 
L 455.42197 221.281218 
L 458.402049 220.204949 
L 459.220238 219.707711 
L 459.268056 219.475136 
L 459.025547 219.28272 
L 457.989094 218.890031 
L 456.18628 218.184083 
L 455.584241 217.723201 
L 455.366911 217.30928 
L 455.383498 216.913762 
L 455.657667 216.412138 
L 456.311031 215.792219 
L 457.460638 215.047257 
L 459.394419 214.099297 
L 462.258732 212.972148 
L 466.018991 211.738453 
L 470.866593 210.390877 
L 476.120689 209.163209 
L 480.477381 208.357713 
L 481.588337 208.25146 
L 479.694886 208.362414 
L 479.779342 208.260243 
L 480.342635 208.046779 
L 480.919072 207.930749 
L 479.336092 208.212213 
L 476.601333 208.69899 
L 466.848522 210.584598 
L 466.55159 210.650821 
L 466.55159 210.650821 
" style="fill:none;stroke:#1f77b4;stroke-linecap:square;stroke-opacity:0.7;stroke-width:1.5;"/>
   </g>
   <g id="line2d_24">
    <path clip-path="url(#p2c85e6411f)" d="M 134.021307 357.643385 
L 134.207298 366.805779 
L 134.054724 371.438697 
L 133.657492 376.543832 
L 133.284213 381.634991 
L 133.348686 383.754759 
L 133.610909 385.38301 
L 134.015137 386.603379 
L 134.614305 387.683368 
L 135.395512 388.606046 
L 136.22699 389.259511 
L 137.010299 389.600988 
L 137.550463 389.627512 
L 137.896928 389.446648 
L 138.062888 389.128331 
L 138.063231 388.607156 
L 137.806444 387.852568 
L 137.260077 386.953861 
L 136.314954 385.856163 
L 135.018769 384.707824 
L 133.403538 383.571952 
L 131.34007 382.404073 
L 128.859652 381.275836 
L 126.078402 380.26827 
L 122.862166 379.356906 
L 119.134925 378.549716 
L 117.742858 378.167223 
L 117.810572 378.063292 
L 118.361056 377.878607 
L 125.549588 375.886878 
L 128.339733 374.808238 
L 130.490942 373.756967 
L 131.915384 372.826222 
L 132.69655 372.054822 
L 133.002507 371.446944 
L 133.006958 370.929155 
L 132.756775 370.435395 
L 132.258297 369.966921 
L 131.309101 369.416836 
L 129.753101 368.806555 
L 127.323395 368.111558 
L 122.918709 367.123389 
L 116.817452 365.736878 
L 115.992284 365.363211 
L 115.995993 365.194361 
L 116.333149 365.051152 
L 117.4647 364.867929 
L 120.716479 364.614403 
L 130.214795 363.928346 
L 130.822829 363.702798 
L 130.790242 363.557086 
L 130.397067 363.348002 
L 129.115959 362.982761 
L 126.168649 362.402118 
L 120.789197 361.587626 
L 114.298859 360.829543 
L 111.047998 360.631503 
L 111.041263 360.64509 
L 111.136808 360.682328 
L 112.251555 360.855348 
L 115.971111 361.191421 
L 124.893407 361.715239 
L 128.061857 361.977694 
L 127.462875 361.983292 
L 119.114744 361.653766 
L 118.656424 361.442235 
L 118.203636 360.940515 
L 117.638934 359.891545 
L 117.18117 358.486286 
L 116.925974 356.79457 
L 116.939506 355.37233 
L 117.191976 353.836035 
L 117.741197 352.186513 
L 118.638641 350.427197 
L 119.92685 348.558955 
L 121.638847 346.582311 
L 123.796109 344.507992 
L 126.41372 342.342873 
L 129.499128 340.100776 
L 133.055441 337.794132 
L 137.08266 335.431818 
L 141.574091 333.032795 
L 146.521876 330.606756 
L 151.913412 328.167167 
L 157.733494 325.724347 
L 166.128937 322.478058 
L 175.205074 319.265596 
L 184.910214 316.096368 
L 195.188007 312.975609 
L 205.976355 309.912149 
L 217.207977 306.921158 
L 228.811599 304.025452 
L 240.713584 301.252334 
L 252.839565 298.627722 
L 265.115316 296.173648 
L 277.467081 293.909695 
L 289.821636 291.8532 
L 302.106345 290.02061 
L 314.249398 288.424278 
L 326.17984 287.068803 
L 337.827938 285.948492 
L 349.1267 285.050061 
L 362.666017 284.214568 
L 375.460676 283.668014 
L 387.421376 283.358025 
L 400.567894 283.222398 
L 415.895244 283.304988 
L 437.634657 283.701979 
L 447.224204 283.786273 
L 451.792064 283.612628 
L 454.450868 283.278424 
L 455.874495 282.871351 
L 456.547701 282.465546 
L 456.806473 282.115732 
L 456.873205 281.728456 
L 456.693197 281.154095 
L 456.243306 280.517959 
L 455.36276 279.647243 
L 453.672999 278.324321 
L 446.918594 273.367691 
L 444.910203 271.503025 
L 443.428166 269.797741 
L 442.411999 268.313242 
L 441.625689 266.787596 
L 441.090775 265.236427 
L 440.822017 263.673786 
L 440.826849 262.116058 
L 441.105192 260.587767 
L 441.650492 259.121951 
L 442.451129 257.754002 
L 443.491884 256.513326 
L 444.754711 255.420271 
L 446.218526 254.488514 
L 447.859152 253.726594 
L 449.650018 253.139248 
L 451.563126 252.727608 
L 453.979692 252.460255 
L 456.480974 252.423377 
L 459.442152 252.624969 
L 463.20882 253.138594 
L 467.562238 253.965196 
L 474.904354 255.624023 
L 478.554109 256.341617 
L 479.343146 256.314382 
L 479.418477 256.173691 
L 479.2575 255.9563 
L 478.60923 255.521606 
L 476.448697 254.44623 
L 472.774535 252.558926 
L 470.208743 251.01251 
L 467.917501 249.37461 
L 466.026662 247.735003 
L 464.577918 246.172945 
L 463.548534 244.748008 
L 462.797836 243.315154 
L 462.386038 242.074156 
L 462.207869 240.862107 
L 462.257907 239.692978 
L 462.521986 238.578822 
L 462.97928 237.530657 
L 463.705598 236.425372 
L 464.731982 235.313111 
L 465.920126 234.350508 
L 467.354888 233.463964 
L 468.980447 232.70727 
L 470.838745 232.081087 
L 472.950462 231.6113 
L 475.269448 231.145623 
L 475.26119 231.116809 
L 475.025728 230.935171 
L 473.901225 230.45012 
L 466.912829 227.85109 
L 459.002746 224.798777 
L 458.145826 224.27373 
L 458.172923 224.123979 
L 458.500183 224.045096 
L 459.658928 224.051322 
L 462.90164 224.341234 
L 470.737639 225.298688 
L 474.108798 225.871991 
L 474.143688 225.912178 
L 474.028044 225.943853 
L 472.89159 225.952836 
L 461.916565 225.785262 
L 459.85575 226.000252 
L 459.026322 226.269528 
L 458.827816 226.515476 
L 458.917743 226.770786 
L 459.309164 227.09619 
L 460.269311 227.585383 
L 462.33409 228.354193 
L 466.577334 229.65469 
L 471.616853 231.247593 
L 473.216494 231.969574 
L 473.76667 232.427592 
L 473.830088 232.703257 
L 473.641676 232.954129 
L 473.131311 233.206997 
L 471.988118 233.499674 
L 469.601357 233.846469 
L 463.299049 234.452646 
L 458.790698 234.994111 
L 456.615784 235.448 
L 455.498977 235.887171 
L 455.125037 236.231565 
L 455.073524 236.521605 
L 455.233963 236.828453 
L 455.743871 237.246561 
L 456.80411 237.786481 
L 458.761529 238.501795 
L 462.221983 239.499669 
L 475.145198 243.016001 
L 476.399291 243.622939 
L 476.733663 243.99116 
L 476.675248 244.183765 
L 476.352312 244.361068 
L 475.483992 244.525857 
L 473.753192 244.594625 
L 470.944353 244.469084 
L 465.600213 243.968978 
L 458.894646 243.3042 
L 474.023133 244.765685 
L 473.835915 244.712111 
L 471.408146 244.350324 
L 464.130546 243.490545 
L 457.522796 242.909622 
L 454.887238 242.856249 
L 454.856385 242.882518 
L 454.943033 242.93423 
L 455.842662 243.121611 
L 459.25021 243.555813 
L 467.975074 244.395559 
L 476.460039 245.289299 
L 477.529676 245.474944 
L 476.569721 245.41484 
L 471.206095 244.764522 
L 458.58521 243.040413 
L 458.652879 243.028727 
L 459.906368 243.084168 
L 470.400406 243.618613 
L 474.307576 243.63639 
L 474.357498 243.605809 
L 474.229621 243.54929 
L 473.087404 243.362654 
L 468.493961 242.878402 
L 459.758238 242.179333 
L 453.582253 241.874503 
L 452.674487 241.930302 
L 452.759058 241.975758 
L 453.74367 242.134828 
L 457.530037 242.492437 
L 477.034005 244.139753 
L 477.290049 244.234132 
L 477.110466 244.266829 
L 475.645064 244.214526 
L 470.694925 243.777776 
L 458.260024 242.435726 
L 458.826101 242.479855 
L 475.375723 243.893286 
L 475.573774 243.875936 
L 475.220357 243.787187 
L 472.362834 243.391728 
L 464.586104 242.536855 
L 456.170311 241.819665 
L 452.110135 241.664556 
L 452.03484 241.692115 
L 452.22395 241.748128 
L 453.936359 241.949954 
L 459.288958 242.330762 
L 474.861128 243.351704 
L 476.616437 243.66801 
L 476.583306 243.703913 
L 476.536313 243.715304 
L 475.688013 243.742583 
L 472.598672 243.584287 
L 464.283864 242.8913 
L 457.985517 242.327854 
L 468.741069 243.182233 
L 471.783562 243.359329 
L 471.783562 243.359329 
" style="fill:none;stroke:#d62728;stroke-linecap:square;stroke-opacity:0.7;stroke-width:1.5;"/>
   </g>
   <g id="line2d_25">
    <path clip-path="url(#p2c85e6411f)" d="M 134.021307 357.643385 
L 134.389456 365.872223 
L 134.6551 367.475625 
L 134.9626 368.140663 
L 135.229658 368.321784 
L 135.552403 368.257074 
L 135.928454 367.898785 
L 136.446717 367.030945 
L 137.138737 365.384476 
L 138.280156 361.97244 
L 141.008709 353.599579 
L 142.48063 349.784602 
L 143.649883 347.287358 
L 144.50144 345.894124 
L 145.314912 344.979497 
L 145.952125 344.588306 
L 146.541506 344.511374 
L 147.072153 344.707549 
L 147.614356 345.216395 
L 148.087859 346.029409 
L 148.374706 346.998097 
L 148.359919 347.615876 
L 148.176105 347.8185 
L 147.915676 347.805419 
L 147.439181 347.554855 
L 146.478151 346.779377 
L 140.087808 341.156473 
L 138.02099 339.788177 
L 136.214381 338.845838 
L 134.41279 338.174184 
L 132.935645 337.850431 
L 131.496906 337.768028 
L 130.384149 337.896439 
L 129.313753 338.210991 
L 128.292444 338.717032 
L 127.325976 339.411587 
L 126.202988 340.524041 
L 125.183845 341.848381 
L 124.112094 343.603301 
L 123.092521 345.707557 
L 122.267291 347.910737 
L 121.847941 349.551129 
L 121.848663 350.336389 
L 122.013265 350.47344 
L 122.301104 350.374789 
L 122.836652 349.920588 
L 124.097953 348.48086 
L 128.231753 343.588926 
L 130.351746 341.421481 
L 132.286379 339.706925 
L 133.950729 338.474795 
L 135.638654 337.503982 
L 136.991172 336.954735 
L 138.333366 336.626663 
L 139.653218 336.519041 
L 140.937968 336.621012 
L 142.473323 337.005031 
L 143.902223 337.607251 
L 145.192691 338.36571 
L 146.510921 339.399287 
L 147.657738 340.613997 
L 148.308407 341.615584 
L 148.434574 342.175038 
L 148.292663 342.364414 
L 147.97389 342.39962 
L 147.339676 342.227738 
L 146.05598 341.609741 
L 142.158721 339.305118 
L 139.128312 337.664783 
L 136.70406 336.58937 
L 134.413848 335.828007 
L 132.595741 335.455942 
L 131.013232 335.374485 
L 129.87865 335.527244 
L 128.966677 335.858483 
L 128.288302 336.327222 
L 127.851236 336.876268 
L 127.659455 337.433095 
L 127.711652 337.919264 
L 127.935753 338.211606 
L 128.315474 338.355975 
L 128.841166 338.320035 
L 129.650296 338.012929 
L 130.81469 337.27769 
L 132.387501 335.978723 
L 134.846171 333.62233 
L 141.886998 326.725962 
L 144.435621 324.571718 
L 145.515672 323.85835 
L 145.502245 323.896944 
L 145.081622 324.277824 
L 143.50157 325.399784 
L 140.69129 327.089301 
L 136.819227 329.147772 
L 132.336095 331.281939 
L 128.203354 333.000632 
L 125.31653 333.98836 
L 124.065194 334.218569 
L 123.842526 334.099636 
L 124.00955 333.892913 
L 124.677943 333.492579 
L 126.38044 332.773666 
L 129.630511 331.669804 
L 137.37207 329.342085 
L 144.184299 327.188847 
L 147.323115 325.979819 
L 147.699958 325.749762 
L 147.5325 325.767415 
L 145.912592 326.273116 
L 134.662434 329.945999 
L 130.331686 331.096296 
L 127.453541 331.656404 
L 125.782366 331.782522 
L 125.127257 331.634343 
L 125.003239 331.420266 
L 125.135893 331.126615 
L 125.614206 330.703434 
L 126.728237 330.074102 
L 128.57099 329.323742 
L 131.45716 328.417234 
L 135.687202 327.341298 
L 142.886692 325.784287 
L 147.550629 324.876603 
L 147.525249 324.913691 
L 146.987738 325.188595 
L 145.656259 325.677808 
L 145.163631 325.597501 
L 144.445132 325.249884 
L 143.537341 324.496184 
L 142.914217 323.682822 
L 142.583622 322.95868 
L 142.434835 322.136259 
L 142.529297 321.203686 
L 142.926483 320.144979 
L 143.677717 318.955619 
L 144.826287 317.630948 
L 146.404634 316.175745 
L 148.438777 314.591297 
L 150.947467 312.884775 
L 153.944182 311.065203 
L 158.714344 308.475151 
L 164.374213 305.715599 
L 170.912211 302.804164 
L 178.299565 299.763246 
L 186.494798 296.617959 
L 195.446539 293.396411 
L 205.09554 290.125391 
L 218.034759 286.001853 
L 231.812879 281.872704 
L 246.272196 277.769374 
L 264.291052 272.91722 
L 282.764261 268.175738 
L 304.503147 262.816456 
L 332.054427 256.267821 
L 358.334983 250.241023 
L 382.59469 244.902025 
L 404.262152 240.367397 
L 422.945689 236.691176 
L 436.869989 234.161591 
L 448.225708 232.325738 
L 456.093692 231.272207 
L 462.113663 230.697927 
L 465.887838 230.541039 
L 468.474408 230.640293 
L 469.794815 230.871866 
L 470.351148 231.12606 
L 470.501597 231.419247 
L 470.370353 231.650702 
L 469.900895 231.956039 
L 468.896361 232.291794 
L 467.501543 232.52711 
L 465.797004 232.615867 
L 463.864356 232.519989 
L 461.785741 232.210287 
L 459.642889 231.669362 
L 457.515305 230.896152 
L 455.47772 229.904978 
L 453.598129 228.71673 
L 451.936763 227.356221 
L 450.79956 226.162255 
L 449.855668 224.892084 
L 449.119961 223.561467 
L 448.601538 222.185175 
L 448.30443 220.77889 
L 448.228846 219.357819 
L 448.37166 217.936012 
L 448.726244 216.526721 
L 449.282755 215.141565 
L 450.028778 213.791738 
L 451.206016 212.171054 
L 452.625918 210.645545 
L 454.253005 209.235151 
L 456.047328 207.954307 
L 458.363031 206.592317 
L 461.199865 205.227559 
L 464.486692 203.907986 
L 475.034968 199.927203 
L 476.692012 198.958154 
L 477.726102 198.110763 
L 478.398408 197.294794 
L 478.784897 196.468839 
L 478.84641 195.827863 
L 478.672219 195.392838 
L 478.341928 195.138414 
L 477.806439 195.02202 
L 477.104247 195.113473 
L 475.941105 195.300974 
L 475.81706 195.120914 
L 475.855705 194.757519 
L 476.188999 194.101567 
L 477.176043 192.726959 
L 479.031402 190.524549 
L 485.867636 182.712145 
L 486.147384 182.038918 
L 486.077138 181.750059 
L 485.815447 181.638507 
L 485.200303 181.681813 
L 483.905765 182.032392 
L 479.529684 183.559643 
L 473.195022 185.642363 
L 468.173254 187.074413 
L 468.040172 187.084596 
L 468.273042 186.952912 
L 471.02246 185.844404 
L 479.090938 182.81361 
L 484.31678 181.060988 
L 487.019092 180.357679 
L 488.230496 180.228528 
L 488.581196 180.369908 
L 488.526808 180.572811 
L 488.089224 180.967175 
L 486.975827 181.632387 
L 484.692401 182.711101 
L 481.162779 184.109599 
L 476.810692 185.585704 
L 472.008147 186.99138 
L 467.530531 188.063658 
L 466.684244 188.191215 
L 466.949896 188.069099 
L 470.367422 186.919573 
L 486.052056 181.824443 
L 487.443849 181.522854 
L 487.411983 181.559431 
L 486.758875 181.871879 
L 483.455482 183.138093 
L 475.351162 185.971233 
L 468.881374 188.318256 
L 467.15477 189.152255 
L 466.799903 189.515887 
L 466.906262 189.611063 
L 467.358994 189.641845 
L 468.723372 189.453151 
L 471.629978 188.7864 
L 476.920249 187.312222 
L 485.794995 184.581608 
L 489.177385 183.504038 
L 487.430257 183.950735 
L 475.047375 187.105904 
L 468.389524 188.580269 
L 465.584021 189.016775 
L 464.618901 188.990455 
L 464.706896 188.899275 
L 465.384099 188.635867 
L 468.517458 187.743123 
L 476.479961 185.459874 
L 481.352939 183.83607 
L 484.005301 182.748056 
L 485.372735 181.987776 
L 485.812806 181.540878 
L 485.767345 181.352284 
L 485.464079 181.259116 
L 484.690233 181.283646 
L 483.052588 181.593399 
L 480.759629 182.274978 
L 478.273 183.25393 
L 476.106246 184.33008 
L 474.26901 185.476355 
L 472.911119 186.584588 
L 472.160166 187.450302 
L 471.90104 188.048579 
L 471.975899 188.37063 
L 472.23098 188.537183 
L 472.743533 188.599193 
L 473.715614 188.473211 
L 475.152294 188.055487 
L 477.247105 187.185788 
L 480.502742 185.572186 
L 483.513177 183.849107 
L 485.36382 182.568244 
L 486.186415 181.763097 
L 486.349958 181.327242 
L 486.209579 181.094982 
L 485.838705 180.948885 
L 484.993471 180.891516 
L 483.419666 181.038243 
L 480.908626 181.509605 
L 477.139655 182.462156 
L 473.125725 183.695797 
L 469.37745 185.076478 
L 466.754348 186.264163 
L 465.362227 187.122443 
L 464.744393 187.744437 
L 464.601538 188.155252 
L 464.699237 188.451748 
L 465.074429 188.741787 
L 465.851622 188.975836 
L 467.143465 189.090741 
L 469.026959 189.01916 
L 471.515339 188.703028 
L 474.524081 188.10732 
L 477.837974 187.233465 
L 480.857301 186.216846 
L 483.093774 185.240827 
L 484.504706 184.387199 
L 485.130404 183.773925 
L 485.288335 183.375565 
L 485.180236 183.042547 
L 484.816746 182.783624 
L 484.093509 182.583432 
L 482.91698 182.495157 
L 481.016362 182.598834 
L 478.533658 182.982946 
L 475.595268 183.682082 
L 472.933345 184.530474 
L 470.743948 185.441206 
L 469.113744 186.345462 
L 468.026884 187.185756 
L 467.398224 187.919016 
L 467.091931 188.618934 
L 467.0919 189.169124 
L 467.330315 189.652284 
L 467.793934 190.049779 
L 468.592421 190.385901 
L 469.629967 190.572562 
L 471.046819 190.597136 
L 472.838608 190.385565 
L 474.722291 189.929658 
L 476.576494 189.251122 
L 478.29741 188.390557 
L 479.816879 187.402836 
L 481.088827 186.332358 
L 482.073633 185.238473 
L 482.740751 184.185373 
L 483.047288 183.330984 
L 483.084712 182.676867 
L 482.905169 182.132123 
L 482.51376 181.70879 
L 481.920137 181.409374 
L 481.009693 181.217697 
L 479.714173 181.194962 
L 477.980031 181.393332 
L 475.577109 181.891387 
L 472.501742 182.753038 
L 469.405917 183.834363 
L 466.861168 184.955532 
L 465.34322 185.850569 
L 464.515616 186.571167 
L 464.124882 187.187268 
L 464.057476 187.690292 
L 464.244488 188.157051 
L 464.684306 188.573411 
L 465.500126 188.976832 
L 466.609457 189.273133 
L 468.182931 189.467093 
L 470.255458 189.497431 
L 472.795507 189.308382 
L 475.674145 188.860395 
L 478.404503 188.208867 
L 480.561713 187.487127 
L 482.252863 186.690973 
L 483.19075 186.036993 
L 483.674967 185.479626 
L 483.830011 185.031604 
L 483.745329 184.626514 
L 483.429258 184.278106 
L 482.788431 183.959668 
L 481.736784 183.729724 
L 480.21658 183.651357 
L 478.230532 183.789232 
L 476.097774 184.163009 
L 474.010736 184.752216 
L 472.330367 185.440674 
L 470.953882 186.242976 
L 470.049945 187.008019 
L 469.48455 187.776784 
L 469.278674 188.416598 
L 469.336158 188.990626 
L 469.583665 189.407837 
L 470.08502 189.788818 
L 470.790469 190.041007 
L 471.809261 190.156847 
L 473.16788 190.058082 
L 474.683382 189.723906 
L 476.477444 189.09257 
L 478.303665 188.201432 
L 480.384896 186.92342 
L 482.026833 185.673539 
L 483.168495 184.545822 
L 483.764581 183.691585 
L 484.010064 183.006322 
L 483.994244 182.481072 
L 483.760252 182.025243 
L 483.307014 181.648713 
L 482.509919 181.320037 
L 481.272465 181.09976 
L 479.521453 181.053816 
L 477.228894 181.243268 
L 474.437356 181.712449 
L 471.287886 182.477929 
L 468.282066 183.433118 
L 465.878401 184.405472 
L 464.163709 185.314543 
L 463.222386 186.026804 
L 462.776191 186.61867 
L 462.706451 187.089972 
L 462.882846 187.448569 
L 463.279763 187.768911 
L 464.05219 188.093919 
L 465.360158 188.37079 
L 467.362332 188.527025 
L 470.509142 188.513075 
L 474.963706 188.25192 
L 479.796259 187.744195 
L 484.57825 187.014859 
L 488.530551 186.188119 
L 491.475576 185.341348 
L 493.243103 184.63339 
L 494.294543 184.020384 
L 494.800971 183.520531 
L 494.936499 183.134136 
L 494.811703 182.783557 
L 494.432416 182.475206 
L 493.65667 182.168067 
L 492.34382 181.904669 
L 490.373993 181.736232 
L 487.35245 181.725554 
L 483.550106 181.954088 
L 479.537695 182.409831 
L 475.617586 183.071588 
L 472.090105 183.893983 
L 469.694404 184.669172 
L 468.054242 185.42589 
L 467.054055 186.119602 
L 466.539816 186.71763 
L 466.356863 187.204937 
L 466.394945 187.67115 
L 466.647738 188.105618 
L 467.218281 188.569452 
L 468.052968 188.953106 
L 469.3138 189.279884 
L 471.055073 189.479017 
L 473.015083 189.486628 
L 475.340145 189.267767 
L 477.633781 188.816998 
L 479.744136 188.158558 
L 481.36698 187.434236 
L 482.692169 186.620533 
L 483.685291 185.753478 
L 484.26091 184.978725 
L 484.554643 184.22095 
L 484.57363 183.514678 
L 484.383294 182.972093 
L 483.940426 182.432952 
L 483.287479 182.013837 
L 482.329342 181.691121 
L 481.050044 181.524924 
L 479.631775 181.569124 
L 477.980762 181.847159 
L 476.190113 182.38296 
L 474.559321 183.113806 
L 473.441134 183.833997 
L 472.676094 184.549867 
L 472.180522 185.306309 
L 471.996142 185.972632 
L 472.050503 186.630133 
L 472.34424 187.264968 
L 472.872054 187.852744 
L 473.736724 188.434087 
L 474.834369 188.890442 
L 476.275573 189.231317 
L 477.84357 189.377275 
L 479.605896 189.310545 
L 481.245013 189.016797 
L 482.501319 188.582119 
L 483.465586 188.015719 
L 484.028767 187.428184 
L 484.27133 186.870337 
L 484.268898 186.291378 
L 484.018166 185.711595 
L 483.522978 185.152842 
L 482.671771 184.568443 
L 481.543644 184.069782 
L 479.995014 183.638796 
L 478.013623 183.344925 
L 475.872452 183.256351 
L 473.491357 183.391594 
L 471.267517 183.749901 
L 469.861622 184.132212 
L 469.861622 184.132212 
" style="fill:none;stroke:#9467bd;stroke-linecap:square;stroke-opacity:0.7;stroke-width:1.5;"/>
   </g>
   <g id="line2d_26">
    <path clip-path="url(#p2c85e6411f)" d="M 134.021307 357.643385 
L 134.129782 364.525731 
L 133.94896 367.198881 
L 133.544149 369.815782 
L 132.927257 372.284725 
L 132.073102 374.794154 
L 131.058405 377.137363 
L 130.15656 378.733337 
L 129.331656 379.784335 
L 128.612226 380.367002 
L 128.010758 380.600909 
L 127.434719 380.589919 
L 126.894902 380.343992 
L 126.401872 379.88118 
L 125.899385 379.10529 
L 125.438545 377.99155 
L 125.080402 376.545347 
L 124.88541 374.731873 
L 124.894632 372.706478 
L 125.134733 370.035618 
L 125.761066 365.944662 
L 126.876735 358.85477 
L 127.049586 356.203766 
L 126.952133 354.258646 
L 126.651859 352.772471 
L 126.219521 351.699337 
L 125.649303 350.888309 
L 125.060255 350.409782 
L 124.414269 350.153765 
L 123.741123 350.119334 
L 123.071019 350.298954 
L 122.343678 350.746694 
L 121.689276 351.419103 
L 121.071402 352.386919 
L 120.559555 353.633783 
L 120.251662 354.956317 
L 120.160821 356.27432 
L 120.291161 357.530798 
L 120.635278 358.675023 
L 121.174963 359.662124 
L 121.881444 360.45453 
L 122.627262 360.975988 
L 123.439272 361.297301 
L 124.273122 361.405393 
L 125.077406 361.292057 
L 125.798052 360.955763 
L 126.329314 360.476854 
L 126.72837 359.843785 
L 126.972403 359.078705 
L 127.041865 358.095553 
L 126.88352 357.028653 
L 126.496078 355.932028 
L 125.885897 354.863485 
L 125.064769 353.880897 
L 124.053064 353.039496 
L 122.884777 352.388247 
L 121.753747 351.998819 
L 120.583527 351.805172 
L 119.430446 351.815176 
L 118.351336 352.027645 
L 117.396023 352.43478 
L 116.606275 353.021373 
L 116.011383 353.76505 
L 115.625868 354.639775 
L 115.453914 355.616809 
L 115.491266 356.66515 
L 115.767631 357.891426 
L 116.266673 359.125913 
L 117.041987 360.457704 
L 118.098797 361.815656 
L 119.393197 363.098239 
L 120.807433 364.173754 
L 122.047013 364.859353 
L 122.88853 365.115425 
L 123.300521 365.052968 
L 123.42012 364.834162 
L 123.327071 364.430089 
L 122.901622 363.753657 
L 122.011722 362.787711 
L 120.785686 361.770704 
L 119.433225 360.915709 
L 118.072877 360.303375 
L 116.801575 359.954086 
L 115.577761 359.845803 
L 114.590995 359.97414 
L 113.856768 360.271506 
L 113.292097 360.736468 
L 112.919053 361.356504 
L 112.748475 362.112609 
L 112.781147 362.98182 
L 113.050977 364.062565 
L 113.614679 365.345337 
L 114.508771 366.795028 
L 115.736408 368.347548 
L 117.247064 369.905704 
L 119.027164 371.422311 
L 120.773826 372.627843 
L 121.891276 373.174887 
L 122.185036 373.15003 
L 122.140712 372.955282 
L 121.734325 372.431341 
L 120.574188 371.339668 
L 118.827019 369.996873 
L 117.153153 368.97949 
L 115.670974 368.336761 
L 114.496459 368.047796 
L 113.58229 368.024871 
L 112.94447 368.209461 
L 112.557004 368.534675 
L 112.355692 369.001356 
L 112.345524 369.59321 
L 112.557834 370.384027 
L 113.054527 371.379599 
L 113.966989 372.671049 
L 115.260902 374.099323 
L 116.876754 375.559752 
L 118.551668 376.821404 
L 118.893884 376.902127 
L 119.222556 376.74344 
L 119.659927 376.221369 
L 120.584502 374.549838 
L 121.858434 372.389733 
L 123.169966 370.576012 
L 125.002141 368.455887 
L 127.464708 366.021314 
L 130.636269 363.275036 
L 134.56492 360.222101 
L 139.272212 356.869504 
L 144.758963 353.228883 
L 151.009585 349.321749 
L 157.996236 345.177248 
L 165.681796 340.827323 
L 176.20178 335.155691 
L 187.642479 329.282107 
L 199.894407 323.259148 
L 212.839367 317.123921 
L 229.104469 309.663674 
L 248.787802 300.897951 
L 271.754661 290.920138 
L 386.915679 241.50832 
L 406.585724 233.328847 
L 429.960823 223.614885 
L 435.747023 220.964119 
L 438.608341 219.411326 
L 440.107553 218.338352 
L 440.787452 217.597192 
L 441.060471 216.943246 
L 441.030677 216.503485 
L 440.721675 215.9765 
L 440.154026 215.508991 
L 439.16062 214.994684 
L 437.416695 214.37269 
L 433.083693 213.169581 
L 430.569493 212.339698 
L 429.590113 211.825198 
L 429.294178 211.470869 
L 429.350013 211.198347 
L 429.6831 210.945084 
L 430.606668 210.614204 
L 432.531927 210.202053 
L 443.45166 208.152173 
L 449.334871 206.703005 
L 455.190651 205.026106 
L 460.131531 203.385291 
L 464.281623 201.774086 
L 467.196812 200.42528 
L 469.187125 199.285014 
L 470.193806 198.480428 
L 470.477299 198.01431 
L 470.411078 197.772607 
L 470.127962 197.622613 
L 469.452334 197.557696 
L 468.219962 197.674343 
L 466.19223 198.10461 
L 463.806322 198.830358 
L 461.599994 199.723173 
L 460.124633 200.538188 
L 459.313037 201.201689 
L 458.956046 201.753569 
L 458.934421 202.135578 
L 459.136608 202.462536 
L 459.556144 202.721857 
L 460.287048 202.920828 
L 461.40158 203.002734 
L 462.950101 202.900632 
L 464.939753 202.545875 
L 467.109881 201.941392 
L 469.320305 201.104485 
L 471.235695 200.164937 
L 472.938333 199.0866 
L 474.198013 198.033138 
L 475.043766 197.064 
L 475.593124 196.097738 
L 475.812711 195.28273 
L 475.783075 194.521825 
L 475.507411 193.83866 
L 474.996803 193.254768 
L 474.269801 192.788717 
L 473.350759 192.453746 
L 472.103707 192.24011 
L 470.51545 192.218529 
L 468.816769 192.422446 
L 467.102177 192.834967 
L 465.471053 193.431118 
L 464.018828 194.179259 
L 462.820146 195.043471 
L 462.010402 195.87846 
L 461.466246 196.747382 
L 461.197419 197.623314 
L 461.186903 198.374806 
L 461.379473 199.093908 
L 461.834151 199.854533 
L 462.518051 200.528064 
L 463.405035 201.093893 
L 464.607856 201.578562 
L 465.979734 201.880303 
L 467.462254 201.983259 
L 468.987492 201.880274 
L 470.480061 201.57109 
L 471.860958 201.062988 
L 473.056285 200.372837 
L 473.913759 199.629274 
L 474.545113 198.791625 
L 474.928219 197.893264 
L 475.048272 197.086942 
L 474.962189 196.290347 
L 474.669513 195.531757 
L 474.17457 194.83874 
L 473.488639 194.237005 
L 472.495881 193.689906 
L 471.31762 193.316817 
L 470.001546 193.131917 
L 468.6057 193.1413 
L 467.021167 193.382178 
L 465.511261 193.851257 
L 464.163263 194.52219 
L 463.16094 195.261664 
L 462.380909 196.106948 
L 461.844668 197.028501 
L 461.562141 197.995875 
L 461.532383 198.978642 
L 461.745526 199.947579 
L 462.18563 200.875029 
L 462.831838 201.735936 
L 463.773502 202.597261 
L 464.901259 203.316777 
L 466.165588 203.868078 
L 467.510382 204.230015 
L 468.873278 204.386308 
L 470.186219 204.326678 
L 471.379708 204.050534 
L 472.290429 203.631266 
L 473.0242 203.063636 
L 473.555856 202.370088 
L 473.867836 201.580067 
L 473.948262 200.727246 
L 473.790606 199.848731 
L 473.396032 198.984571 
L 472.77349 198.17672 
L 471.937483 197.466381 
L 470.910194 196.890045 
L 469.7248 196.476111 
L 468.425007 196.242972 
L 466.891016 196.207022 
L 465.363029 196.409633 
L 463.932068 196.837385 
L 462.808068 197.386836 
L 461.870729 198.07269 
L 461.154771 198.868801 
L 460.682556 199.745792 
L 460.462973 200.673318 
L 460.493927 201.620967 
L 460.764866 202.558989 
L 461.258619 203.459349 
L 461.953284 204.296115 
L 462.942475 205.132348 
L 464.110031 205.828554 
L 465.406616 206.358869 
L 466.776597 206.701915 
L 468.158214 206.840501 
L 469.484201 206.763081 
L 470.686013 206.46858 
L 471.600243 206.033325 
L 472.332458 205.449495 
L 472.855834 204.738565 
L 473.154185 203.928997 
L 473.220436 203.054841 
L 473.053128 202.154023 
L 472.656201 201.266957 
L 472.038902 200.436488 
L 471.215126 199.704079 
L 470.206196 199.104708 
L 469.044801 198.665181 
L 467.774861 198.403384 
L 466.280809 198.330535 
L 464.798217 198.490119 
L 463.417427 198.868421 
L 462.217549 199.440806 
L 461.351616 200.086777 
L 460.708964 200.834397 
L 460.310395 201.653844 
L 460.16267 202.514482 
L 460.262002 203.38581 
L 460.597062 204.238193 
L 461.150242 205.044133 
L 462.005339 205.863989 
L 463.070256 206.560871 
L 464.300721 207.106254 
L 465.646092 207.475793 
L 467.049188 207.649124 
L 468.445575 207.612359 
L 469.7654 207.360533 
L 470.940987 206.898024 
L 471.818884 206.322307 
L 472.507406 205.611993 
L 472.983299 204.793378 
L 473.229335 203.897033 
L 473.23501 202.95814 
L 472.998911 202.015396 
L 472.527439 201.109881 
L 471.832057 200.282977 
L 470.930889 199.573727 
L 469.851815 199.014774 
L 468.633368 198.628252 
L 467.323964 198.426479 
L 465.812671 198.424233 
L 464.346288 198.652603 
L 463.013677 199.091895 
L 462.0027 199.636995 
L 461.196786 200.302649 
L 460.623326 201.061512 
L 460.297345 201.884552 
L 460.222109 202.742211 
L 460.390794 203.60522 
L 460.788913 204.445427 
L 461.396659 205.236465 
L 462.300897 206.037722 
L 463.399705 206.715909 
L 464.791898 207.292753 
L 466.29351 207.654148 
L 467.821996 207.77625 
L 469.145412 207.667756 
L 470.348482 207.347324 
L 471.267265 206.889818 
L 472.00788 206.282741 
L 472.543142 205.544598 
L 472.85497 204.701031 
L 472.935657 203.783477 
L 472.784557 202.828079 
L 472.405827 201.873714 
L 471.80884 200.961546 
L 471.007556 200.1332 
L 470.021835 199.42519 
L 468.881642 198.866372 
L 467.628625 198.477652 
L 466.146737 198.25719 
L 464.666351 198.268028 
L 463.276905 198.500431 
L 462.061302 198.93364 
L 461.17744 199.463872 
L 460.514008 200.105205 
L 460.094298 200.829525 
L 459.927105 201.60703 
L 460.009149 202.407986 
L 460.329109 203.203192 
L 460.869271 203.965163 
L 461.711664 204.751446 
L 462.765231 205.431965 
L 464.128585 206.029904 
L 465.626002 206.42966 
L 467.17699 206.604965 
L 468.544836 206.554842 
L 469.814472 206.299721 
L 470.921132 205.841221 
L 471.725305 205.274217 
L 472.330702 204.5752 
L 472.716405 203.767527 
L 472.870197 202.880831 
L 472.788981 201.949424 
L 472.476085 201.011229 
L 471.939632 200.106215 
L 471.192768 199.275594 
L 470.254433 198.557407 
L 469.15246 197.981872 
L 467.926344 197.571594 
L 466.460159 197.323935 
L 464.978664 197.306892 
L 463.570249 197.512862 
L 462.321563 197.923369 
L 461.399904 198.438163 
L 460.691871 199.069487 
L 460.223152 199.790195 
L 460.005824 200.570796 
L 460.038675 201.381737 
L 460.311596 202.193903 
L 460.808007 202.979364 
L 461.606076 203.799214 
L 462.621314 204.520272 
L 463.950109 205.170912 
L 465.422493 205.630713 
L 466.959059 205.87251 
L 468.471167 205.876054 
L 469.732525 205.665917 
L 470.831267 205.254288 
L 471.627861 204.729688 
L 472.224553 204.072997 
L 472.599991 203.306822 
L 472.741778 202.460132 
L 472.64713 201.566482 
L 472.319949 200.663062 
L 471.769022 199.789089 
L 471.008218 198.985097 
L 470.057053 198.288573 
L 468.943961 197.72952 
L 467.548349 197.292886 
L 466.069201 197.077198 
L 464.58685 197.086338 
L 463.190817 197.312744 
L 461.966206 197.737906 
L 461.07375 198.261063 
L 460.401732 198.896758 
L 459.97445 199.618023 
L 459.809348 200.296571 
L 459.85712 201.100342 
L 460.14677 201.906839 
L 460.660922 202.688742 
L 461.47912 203.507755 
L 462.513603 204.231953 
L 463.861419 204.891615 
L 465.348912 205.367221 
L 466.89523 205.632558 
L 468.410252 205.668261 
L 469.666888 205.494845 
L 470.751995 205.128218 
L 471.526845 204.650329 
L 472.090807 204.045467 
L 472.42269 203.336144 
L 472.512646 202.550534 
L 472.359864 201.72142 
L 471.970062 200.884413 
L 471.354956 200.07712 
L 470.531273 199.337941 
L 469.383521 198.631502 
L 468.046406 198.095487 
L 466.582533 197.75687 
L 465.066531 197.628275 
L 463.58264 197.710172 
L 462.22109 197.992151 
L 461.061248 198.45398 
L 460.247517 198.993567 
L 459.670443 199.630841 
L 459.348124 200.339616 
L 459.278436 200.997219 
L 459.435657 201.767268 
L 459.831744 202.531716 
L 460.536817 203.354271 
L 461.480963 204.106648 
L 462.757476 204.826634 
L 464.206834 205.393138 
L 465.907155 205.807416 
L 467.604585 205.977651 
L 469.035962 205.907939 
L 470.256838 205.623785 
L 471.102105 205.194516 
L 471.609323 204.690857 
L 471.845377 204.172076 
L 471.880214 203.597713 
L 471.674053 202.897799 
L 471.214665 202.181435 
L 470.416508 201.397021 
L 469.351832 200.680687 
L 468.063002 200.07556 
L 466.438268 199.577307 
L 464.704004 199.291604 
L 462.970485 199.228758 
L 461.36198 199.387348 
L 459.995417 199.749881 
L 459.047482 200.22712 
L 458.470431 200.749429 
L 458.186701 201.263839 
L 458.112816 201.815602 
L 458.244952 202.388997 
L 458.636132 203.050632 
L 459.356382 203.776645 
L 460.458277 204.527516 
L 461.963016 205.248464 
L 463.677789 205.824724 
L 465.653173 206.253212 
L 467.574472 206.448975 
L 469.257012 206.403734 
L 470.433923 206.156609 
L 471.05751 205.822419 
L 471.321636 205.441988 
L 471.31712 205.059098 
L 471.090516 204.643807 
L 470.566274 204.149396 
L 469.661959 203.597503 
L 468.317697 203.030012 
L 466.519114 202.507356 
L 464.329748 202.107511 
L 462.092852 201.914996 
L 460.024586 201.941991 
L 458.336664 202.178258 
L 457.336524 202.516557 
L 456.804902 202.91226 
L 456.644616 203.265458 
L 456.704239 203.645687 
L 457.030982 204.098194 
L 457.70271 204.610825 
L 458.9021 205.213533 
L 460.583342 205.805827 
L 462.854665 206.371296 
L 465.547587 206.810434 
L 468.079422 207.007614 
L 469.716105 206.940077 
L 470.266485 206.74666 
L 470.286294 206.588435 
L 470.032526 206.376529 
L 469.225432 206.049382 
L 467.389847 205.582284 
L 464.394157 205.062575 
L 460.489154 204.60977 
L 456.897561 204.405356 
L 454.946292 204.487158 
L 454.612106 204.659229 
L 454.751161 204.781179 
L 455.316706 204.97992 
L 455.316706 204.97992 
" style="fill:none;stroke:#bcbd22;stroke-linecap:square;stroke-opacity:0.7;stroke-width:1.5;"/>
   </g>
   <g id="line2d_27">
    <path clip-path="url(#p2c85e6411f)" d="M 134.021307 357.643385 
L 134.111712 363.803888 
L 133.929493 365.834765 
L 132.685598 373.031504 
L 131.692719 377.629407 
L 130.580722 381.705533 
L 129.344204 385.406991 
L 127.850714 389.104699 
L 126.367654 392.196185 
L 124.705895 395.165713 
L 122.879793 397.975061 
L 120.907415 400.592719 
L 118.808957 402.993888 
L 116.60688 405.159804 
L 114.326105 407.075153 
L 111.993925 408.726096 
L 109.640189 410.101488 
L 107.297052 411.192545 
L 104.998121 411.993164 
L 102.777409 412.499978 
L 101.011033 412.698064 
L 99.341862 412.695222 
L 97.788641 412.496997 
L 96.369224 412.111933 
L 95.100359 411.551888 
L 93.997336 410.832274 
L 93.073323 409.971676 
L 92.338698 408.98837 
L 91.800915 407.897237 
L 91.46471 406.709888 
L 91.332016 405.436682 
L 91.401695 404.088047 
L 91.66959 402.67448 
L 92.242707 400.906732 
L 93.073664 399.077287 
L 94.337656 396.894815 
L 95.875645 394.694941 
L 97.903551 392.172505 
L 101.017316 388.688155 
L 108.631664 380.33556 
L 110.947156 377.395206 
L 112.735191 374.759413 
L 114.053355 372.436881 
L 115.12058 370.100609 
L 115.926937 367.752273 
L 116.471565 365.39354 
L 116.76162 363.026988 
L 116.810939 360.658171 
L 116.638904 358.300529 
L 116.202514 355.652133 
L 115.551068 353.104624 
L 114.731393 350.721983 
L 113.668975 348.316457 
L 112.523768 346.275565 
L 111.360834 344.654848 
L 110.241702 343.48407 
L 109.33093 342.832002 
L 108.630442 342.56357 
L 108.044134 342.574859 
L 107.64763 342.80253 
L 107.359929 343.225061 
L 107.171672 343.952969 
L 107.159442 345.072163 
L 107.40842 346.657134 
L 108.002898 348.766432 
L 109.012739 351.435688 
L 110.479217 354.650706 
L 112.242143 357.959561 
L 114.535316 361.752327 
L 120.139559 370.812293 
L 121.289378 373.171922 
L 121.896141 374.868494 
L 122.151537 376.162958 
L 122.145513 377.11044 
L 121.924383 377.87129 
L 121.568072 378.368219 
L 121.065616 378.718192 
L 120.308928 378.938331 
L 119.389167 378.955342 
L 118.171612 378.728286 
L 116.819165 378.24665 
L 115.196734 377.42219 
L 113.535084 376.335794 
L 111.723386 374.88314 
L 110.027481 373.247609 
L 108.520008 371.510542 
L 107.373769 369.874936 
L 106.548588 368.351216 
L 105.918566 366.754981 
L 105.487018 365.08508 
L 105.249115 363.344403 
L 105.198304 361.307574 
L 105.380821 358.956883 
L 105.817618 356.279469 
L 106.675101 352.501852 
L 108.364383 345.212252 
L 108.847306 342.074501 
L 109.060551 339.234132 
L 109.033264 336.701499 
L 108.785381 334.228881 
L 108.323137 331.823425 
L 107.591596 329.256052 
L 106.577904 326.540539 
L 105.005882 323.023204 
L 100.345156 312.960089 
L 100.527756 313.280866 
L 102.847545 317.8787 
L 107.066148 326.713101 
L 110.809618 335.043117 
L 113.825311 342.219617 
L 115.381757 346.453662 
L 116.361163 349.7163 
L 116.942167 352.391674 
L 117.194299 354.526021 
L 117.186754 356.404618 
L 116.966808 357.826676 
L 116.554251 359.037255 
L 115.960946 360.036667 
L 115.202957 360.827977 
L 114.299967 361.416382 
L 113.274958 361.809035 
L 112.957618 361.767294 
L 112.626453 361.551362 
L 112.114824 360.948273 
L 111.447997 359.762441 
L 110.877219 358.229424 
L 110.578012 356.895889 
L 110.451293 355.424286 
L 110.55828 353.835439 
L 110.959076 352.135496 
L 111.704829 350.336328 
L 112.834812 348.45588 
L 114.380069 346.505563 
L 116.361083 344.505485 
L 118.794779 342.46164 
L 121.69115 340.38241 
L 125.05436 338.2762 
L 128.884107 336.148262 
L 133.173118 334.010755 
L 137.911426 331.869923 
L 143.084353 329.735255 
L 150.627918 326.911156 
L 158.86642 324.127221 
L 167.743792 321.404238 
L 177.196565 318.764372 
L 187.157137 316.226285 
L 197.555432 313.809092 
L 208.320872 311.530888 
L 219.382858 309.409542 
L 230.671108 307.459051 
L 242.115691 305.691737 
L 253.64737 304.119423 
L 265.197797 302.75194 
L 276.699436 301.596666 
L 288.085482 300.657164 
L 299.289969 299.931782 
L 310.247871 299.410493 
L 323.503042 299.022815 
L 336.160001 298.888728 
L 348.117463 298.967141 
L 361.425293 299.294065 
L 373.487776 299.811206 
L 385.875083 300.557263 
L 399.034474 301.577542 
L 412.6434 302.869063 
L 423.878217 303.930895 
L 424.120729 303.816425 
L 423.923198 303.624067 
L 422.629749 302.905997 
L 420.830817 301.806087 
L 419.764181 300.90983 
L 419.044915 300.014519 
L 418.645921 299.172723 
L 418.469929 298.239152 
L 418.546053 297.210916 
L 418.89453 296.087089 
L 419.52718 294.868792 
L 420.447931 293.560118 
L 421.927693 291.880689 
L 423.798608 290.09597 
L 426.434455 287.906397 
L 429.495038 285.64105 
L 433.414504 283.011767 
L 438.766284 279.703597 
L 448.327541 274.116041 
L 455.843333 269.636205 
L 460.152451 266.844551 
L 463.497712 264.436125 
L 465.990982 262.391997 
L 468.048215 260.410478 
L 469.455132 258.762516 
L 470.535172 257.159949 
L 471.299221 255.599902 
L 471.765793 254.078036 
L 471.95953 252.588905 
L 471.909445 251.126268 
L 471.647584 249.683177 
L 471.119968 248.013942 
L 470.176574 245.869221 
L 468.247168 242.212598 
L 466.563227 238.857704 
L 465.558499 236.394431 
L 464.85255 234.107187 
L 464.365783 231.755983 
L 464.125087 229.38237 
L 464.128613 227.322792 
L 464.335817 225.322924 
L 464.74377 223.421744 
L 465.342101 221.650552 
L 466.113152 220.034429 
L 467.032298 218.591332 
L 468.223464 217.167224 
L 469.51277 215.987033 
L 470.842499 215.050834 
L 472.3122 214.297805 
L 473.527402 213.908598 
L 474.591793 213.792969 
L 475.350175 213.916439 
L 475.904106 214.235573 
L 476.18792 214.643518 
L 476.275952 215.148936 
L 476.155835 215.718484 
L 475.821227 216.312666 
L 475.160556 217.008618 
L 474.220034 217.689054 
L 472.828608 218.421726 
L 470.910191 219.16004 
L 468.689461 219.781977 
L 465.971352 220.311093 
L 463.113182 220.648721 
L 460.24666 220.781807 
L 457.502458 220.707238 
L 455.004503 220.432277 
L 452.863871 219.977196 
L 451.172991 219.387203 
L 450.096543 218.776524 
L 449.576925 218.250789 
L 449.361059 217.764945 
L 449.358631 217.247561 
L 449.567003 216.699777 
L 450.067854 216.023692 
L 450.959843 215.204642 
L 452.504398 214.115987 
L 455.09816 212.601664 
L 460.42642 209.821595 
L 465.426693 207.110803 
L 468.32325 205.295326 
L 470.389457 203.754375 
L 471.895052 202.368014 
L 472.92202 201.14395 
L 473.634601 199.950548 
L 474.012655 198.919692 
L 474.166649 197.918605 
L 474.099577 196.826807 
L 473.815026 195.766772 
L 473.234634 194.502053 
L 472.171188 192.795733 
L 469.773645 189.087081 
L 468.961844 187.356148 
L 468.409266 185.624485 
L 468.09525 183.91412 
L 467.973174 182.084563 
L 468.052156 179.959942 
L 468.363402 177.524806 
L 468.962603 174.580029 
L 470.032297 170.543216 
L 471.367785 166.330362 
L 472.385617 163.766954 
L 472.639183 163.388539 
L 472.651156 163.470008 
L 472.479322 164.082353 
L 471.813943 165.636723 
L 470.616534 167.871414 
L 468.938069 170.506452 
L 467.214896 172.822112 
L 465.185899 175.158515 
L 462.371637 178.01241 
L 459.011621 181.445769 
L 457.910287 182.887277 
L 457.395869 183.881701 
L 457.197482 184.700749 
L 457.253831 185.458401 
L 457.514629 186.08932 
L 458.034835 186.762025 
L 458.872683 187.478367 
L 460.314138 188.387428 
L 463.081424 189.813425 
L 466.650416 191.706254 
L 468.485812 192.937589 
L 469.648108 193.966503 
L 470.434307 194.940535 
L 470.901032 195.840746 
L 471.136793 196.754541 
L 471.151007 197.672005 
L 470.931687 198.682397 
L 470.45133 199.764429 
L 469.64892 200.975069 
L 468.479299 202.315727 
L 466.840918 203.843733 
L 465.289688 205.051487 
L 465.363738 204.958309 
L 466.839909 203.250855 
L 467.34359 202.33172 
L 467.488158 201.651073 
L 467.382506 201.13596 
L 467.067884 200.706175 
L 466.434513 200.25431 
L 464.541879 199.048347 
L 464.10382 198.436622 
L 463.880472 197.753234 
L 463.833394 196.842498 
L 464.018295 195.650853 
L 464.512037 194.045207 
L 465.466174 191.75418 
L 469.609683 182.401392 
L 470.052337 180.60411 
L 470.241884 178.90828 
L 470.204725 177.178104 
L 469.89235 174.663978 
L 469.529598 171.391419 
L 469.507616 169.130927 
L 469.701565 166.777274 
L 470.15069 164.078255 
L 470.857816 161.200677 
L 471.549367 159.258344 
L 472.00678 158.503266 
L 472.262957 158.387359 
L 472.415503 158.52124 
L 472.549628 158.994062 
L 472.576525 160.042244 
L 472.383754 161.734148 
L 471.869811 164.143074 
L 470.948939 167.279736 
L 469.697188 170.748265 
L 468.214743 174.222965 
L 466.258065 178.200846 
L 463.370946 183.493064 
L 459.535411 190.55448 
L 458.980734 191.994954 
L 458.894117 192.833504 
L 458.776704 194.368462 
L 458.374159 196.08293 
L 457.737528 197.904814 
L 456.971528 199.407497 
L 455.966175 201.294853 
L 455.975816 201.299309 
L 456.184281 201.262093 
L 456.761115 200.901174 
L 457.723937 200.02503 
L 458.817556 198.713759 
L 460.103058 196.790765 
L 461.372867 194.461649 
L 462.283393 192.349682 
L 462.728124 190.808488 
L 462.846586 189.62829 
L 462.710151 188.689178 
L 462.383264 187.972427 
L 461.876937 187.387615 
L 461.139276 186.896268 
L 460.180391 186.539212 
L 458.962723 186.326731 
L 457.243669 186.274853 
L 456.034408 186.194005 
L 456.022316 186.035684 
L 456.329857 185.693142 
L 457.674735 184.642219 
L 461.243128 181.841097 
L 463.570104 179.727968 
L 465.573399 177.615164 
L 467.282488 175.492449 
L 468.656079 173.447791 
L 469.78781 171.368029 
L 470.657503 169.292652 
L 471.268474 167.252311 
L 471.665569 165.105003 
L 471.84184 162.87816 
L 471.814969 160.134509 
L 471.640896 153.68249 
L 471.852809 151.475165 
L 472.194073 150.067271 
L 472.522863 149.460251 
L 472.83001 149.26401 
L 473.127182 149.307902 
L 473.509098 149.611256 
L 473.982262 150.282905 
L 474.605188 151.576149 
L 475.288565 153.511706 
L 475.965626 156.128647 
L 476.452053 158.872833 
L 476.741077 161.787994 
L 476.783678 164.408771 
L 476.612938 166.650765 
L 476.226456 168.74607 
L 475.695392 170.468907 
L 474.989113 172.053616 
L 474.11446 173.499543 
L 473.084414 174.80955 
L 471.763096 176.126141 
L 470.132801 177.408204 
L 468.202158 178.629024 
L 465.63566 179.963214 
L 457.805971 183.812594 
L 455.730424 185.148624 
L 454.413916 186.245587 
L 453.849313 186.964401 
L 453.732035 187.417968 
L 453.872 187.668215 
L 454.206821 187.799552 
L 454.845182 187.788416 
L 455.850284 187.523624 
L 457.115739 186.937634 
L 458.437798 186.073338 
L 459.805154 184.922212 
L 461.042105 183.593334 
L 462.053692 182.202723 
L 462.673735 180.988397 
L 462.856532 180.172101 
L 462.824801 179.794597 
L 462.824801 179.794597 
" style="fill:none;stroke:#2ca02c;stroke-linecap:square;stroke-opacity:0.7;stroke-width:1.5;"/>
   </g>
   <g id="line2d_28">
    <path clip-path="url(#p2c85e6411f)" d="M 134.021307 357.643385 
L 134.171121 365.748695 
L 133.995686 368.338937 
L 133.661869 370.227639 
L 133.266761 371.381909 
L 132.931617 371.792235 
L 132.700489 371.764707 
L 132.485058 371.430873 
L 132.271668 370.627456 
L 132.077692 368.966303 
L 131.997555 366.396617 
L 132.106836 363.323258 
L 132.410638 360.380427 
L 132.877736 357.871905 
L 133.379448 356.208943 
L 133.90846 355.100537 
L 134.418621 354.460812 
L 134.990304 354.109495 
L 135.490555 354.038889 
L 136.166832 354.193127 
L 137.046662 354.661095 
L 138.81938 355.940065 
L 140.556265 357.103673 
L 141.802792 357.687666 
L 142.867394 357.918674 
L 143.739473 357.879671 
L 144.588981 357.623173 
L 145.409704 357.164863 
L 146.350809 356.38763 
L 147.381657 355.237392 
L 148.588522 353.523172 
L 149.965912 351.119798 
L 150.90851 349.638421 
L 151.389329 349.270334 
L 151.676127 349.27637 
L 151.937662 349.477066 
L 152.288532 350.10187 
L 152.696828 351.37946 
L 154.376493 357.502508 
L 154.757104 357.998068 
L 155.044163 358.087815 
L 155.343461 357.930707 
L 155.718424 357.404423 
L 156.244999 356.159455 
L 156.945508 353.864174 
L 159.556099 344.674404 
L 160.237697 343.287893 
L 160.757947 342.687841 
L 161.194904 342.484985 
L 161.649589 342.546146 
L 162.12037 342.879068 
L 162.727778 343.671702 
L 163.476374 345.138007 
L 164.361665 347.442009 
L 165.607701 351.400843 
L 167.413336 357.990853 
L 169.192784 365.252099 
L 169.647282 367.80916 
L 169.594337 367.898927 
L 169.552274 367.867976 
L 169.264902 367.390421 
L 167.576667 363.811878 
L 165.503692 359.708866 
L 163.92595 357.065371 
L 161.631328 353.740926 
L 158.714985 349.792609 
L 157.23649 348.215416 
L 155.067557 346.264241 
L 154.391227 345.930995 
L 153.795018 345.903241 
L 152.347609 346.192845 
L 150.807805 346.387781 
L 149.219806 346.357859 
L 147.535974 346.094707 
L 145.758996 345.589797 
L 143.725767 344.775469 
L 141.892463 343.792473 
L 140.355735 342.73034 
L 139.147661 341.64425 
L 138.170265 340.455408 
L 137.514825 339.329855 
L 137.089589 338.185799 
L 136.901646 337.067323 
L 136.938736 336.088024 
L 137.177524 335.376117 
L 137.538488 334.998817 
L 138.085494 334.792982 
L 139.074865 334.700983 
L 140.20626 334.826549 
L 141.429448 335.206063 
L 142.397836 335.726885 
L 143.019239 336.282673 
L 143.316316 336.826204 
L 143.353538 337.321084 
L 143.162866 337.798196 
L 142.736676 338.237895 
L 142.065889 338.61669 
L 141.039324 338.928018 
L 139.611339 339.104334 
L 137.670326 339.101407 
L 135.346321 338.865043 
L 133.182325 338.437155 
L 131.599425 337.921876 
L 130.581684 337.390853 
L 129.991603 336.843866 
L 129.777743 336.372393 
L 129.805128 335.878241 
L 130.066408 335.36108 
L 130.547451 334.570011 
L 132.229824 329.001999 
L 132.947799 327.6074 
L 133.90391 326.164881 
L 135.151155 324.673074 
L 136.733851 323.132957 
L 138.686453 321.546654 
L 141.03573 319.914514 
L 143.802277 318.239696 
L 147.003824 316.523975 
L 150.655196 314.771984 
L 156.245044 312.379842 
L 162.674884 309.925032 
L 169.945281 307.412139 
L 178.039989 304.849973 
L 186.93088 302.242839 
L 199.102113 298.92535 
L 212.350891 295.545295 
L 232.464252 290.687171 
L 302.978396 273.923157 
L 322.777503 268.908972 
L 339.049259 264.593218 
L 354.951868 260.17402 
L 370.350173 255.683788 
L 385.125747 251.163661 
L 399.176768 246.657643 
L 412.418818 242.211162 
L 427.148679 237.015847 
L 440.533535 232.036772 
L 452.518318 227.336994 
L 464.69661 222.293688 
L 491.545217 210.960697 
L 494.916327 209.859665 
L 497.480581 209.258257 
L 498.976098 209.122697 
L 499.787475 209.213726 
L 500.344234 209.463989 
L 500.657638 209.868889 
L 500.739258 210.419913 
L 500.601482 211.108796 
L 500.098144 212.219506 
L 499.257661 213.516107 
L 497.78219 215.340348 
L 495.89611 217.316118 
L 493.1877 219.782426 
L 490.110182 222.252008 
L 486.788806 224.631512 
L 483.348846 226.836758 
L 479.913193 228.797088 
L 476.595941 230.455276 
L 473.496327 231.766309 
L 470.697274 232.698835 
L 468.642739 233.174423 
L 466.872709 233.373314 
L 465.408948 233.297604 
L 464.468781 233.043011 
L 463.739168 232.621473 
L 463.222276 232.040728 
L 462.917413 231.313022 
L 462.821283 230.451884 
L 462.928044 229.472489 
L 463.335582 228.101642 
L 464.032772 226.588286 
L 465.226055 224.623683 
L 466.77148 222.576275 
L 468.625173 220.532795 
L 470.741909 218.557098 
L 473.075167 216.694479 
L 475.574679 214.977084 
L 478.629303 213.17064 
L 482.198271 211.338321 
L 486.592098 209.349126 
L 491.459508 207.400942 
L 500.766474 203.789971 
L 500.837467 203.590915 
L 500.656602 203.463828 
L 499.949117 203.325406 
L 497.650475 203.191058 
L 489.726039 202.818904 
L 486.423077 202.411427 
L 483.863053 201.892551 
L 481.815956 201.263109 
L 480.25961 200.567352 
L 479.131529 199.852615 
L 478.24092 199.041354 
L 477.598623 198.145912 
L 477.205725 197.187148 
L 477.055316 196.179768 
L 477.136494 195.141199 
L 477.432263 194.096847 
L 478.000631 192.935551 
L 478.773747 191.868282 
L 479.707841 190.960689 
L 480.759483 190.271996 
L 481.886954 189.822612 
L 483.196151 189.558358 
L 484.632618 189.491736 
L 486.219948 189.630422 
L 487.533951 189.94733 
L 488.337371 190.352733 
L 488.786896 190.819234 
L 488.94071 191.297112 
L 488.867814 191.749248 
L 488.53466 192.281606 
L 487.848956 192.869792 
L 486.74899 193.486504 
L 485.057138 194.14804 
L 482.914945 194.74188 
L 480.438517 195.193896 
L 478.154911 195.398691 
L 476.199328 195.367523 
L 474.635567 195.133405 
L 473.472976 194.742488 
L 472.678121 194.24829 
L 472.191774 193.710292 
L 471.923272 193.09825 
L 471.877185 192.431187 
L 472.053564 191.734764 
L 472.510023 190.940811 
L 473.310403 190.066299 
L 474.483357 189.135075 
L 476.151384 188.112924 
L 478.26434 187.100546 
L 480.479305 186.283628 
L 482.588917 185.734539 
L 484.332465 185.496322 
L 484.521612 185.515798 
L 482.00956 185.41241 
L 480.579006 185.051206 
L 479.088406 184.432923 
L 477.734087 183.626553 
L 476.492472 182.613926 
L 475.492304 181.533592 
L 474.717569 180.36577 
L 474.01887 178.912554 
L 474.162931 179.120346 
L 474.796446 179.805513 
L 477.24722 182.259161 
L 478.389818 183.761828 
L 479.166943 185.154981 
L 479.630739 186.452723 
L 479.791444 187.505299 
L 479.729906 188.39196 
L 479.456627 189.184411 
L 478.971642 189.864378 
L 478.28071 190.411263 
L 477.402278 190.805376 
L 476.372716 191.024626 
L 475.117955 191.061196 
L 473.68243 190.869685 
L 472.284045 190.468681 
L 470.947384 189.855333 
L 469.995534 189.183664 
L 469.435288 188.531841 
L 469.211074 187.944656 
L 469.246733 187.444475 
L 469.498177 186.989941 
L 470.005247 186.555139 
L 470.797593 186.180675 
L 471.878347 185.918239 
L 473.222256 185.814673 
L 474.888724 185.919717 
L 476.679812 186.26027 
L 478.819706 186.894254 
L 480.61492 187.637393 
L 481.094091 188.010098 
L 480.943573 188.049469 
L 480.302161 187.925573 
L 478.837999 187.405922 
L 477.174485 186.580203 
L 475.595839 185.553405 
L 474.166882 184.367454 
L 472.973634 183.096008 
L 472.008502 181.738038 
L 471.369854 180.451013 
L 471.042774 179.304107 
L 470.991969 178.408077 
L 471.143521 178.123897 
L 471.35895 178.196865 
L 471.898442 178.728882 
L 474.463446 181.34734 
L 476.015176 183.143485 
L 477.082154 184.721015 
L 477.733121 186.065878 
L 478.03979 187.155829 
L 478.083496 188.074507 
L 477.901387 188.818383 
L 477.542411 189.396581 
L 476.99346 189.871822 
L 476.179663 190.261625 
L 475.084504 190.506696 
L 473.755722 190.571658 
L 472.207174 190.417779 
L 470.857206 190.071008 
L 469.935074 189.621019 
L 469.479903 189.163547 
L 469.360932 188.750039 
L 469.484998 188.308022 
L 469.858435 187.842381 
L 470.645025 187.263883 
L 471.875239 186.652652 
L 473.570971 186.06639 
L 475.705556 185.572087 
L 478.302554 185.200189 
L 480.906062 185.04822 
L 482.993246 185.130636 
L 484.282418 185.381446 
L 484.674749 185.642426 
L 484.630105 185.812489 
L 484.298584 185.997873 
L 483.498513 186.159415 
L 482.256629 186.15887 
L 480.817942 185.93847 
L 479.183661 185.455358 
L 477.589031 184.7451 
L 476.068404 183.839557 
L 474.773901 182.815652 
L 473.062299 181.203163 
L 473.231266 181.263465 
L 477.027326 182.599023 
L 478.800195 183.518667 
L 480.024434 184.381785 
L 480.806061 185.174035 
L 481.254001 185.920213 
L 481.409407 186.588347 
L 481.33852 187.166135 
L 481.066728 187.718882 
L 480.51775 188.297828 
L 479.714421 188.818429 
L 478.539293 189.309905 
L 476.955415 189.721626 
L 474.805121 190.034115 
L 472.144689 190.187115 
L 469.194371 190.138508 
L 466.500014 189.88517 
L 464.748986 189.508993 
L 463.948537 189.148743 
L 463.658945 188.801908 
L 463.687934 188.508895 
L 463.953157 188.212227 
L 464.609586 187.853958 
L 466.18641 187.319419 
L 470.100983 186.291588 
L 476.827907 184.494396 
L 479.446272 183.588816 
L 480.463728 183.033804 
L 480.758923 182.665778 
L 480.718754 182.388895 
L 480.430426 182.126508 
L 479.63766 181.779797 
L 478.06076 181.358575 
L 475.753204 180.975776 
L 473.870585 180.851838 
L 472.468087 180.987058 
L 471.138349 181.359955 
L 469.938495 181.91647 
L 468.7293 182.727687 
L 467.893305 183.53186 
L 467.532632 184.153512 
L 467.463915 184.672629 
L 467.62534 185.149664 
L 468.005083 185.576488 
L 468.67567 185.983664 
L 469.689675 186.330576 
L 471.338934 186.646733 
L 473.838936 186.884214 
L 477.422382 186.982265 
L 481.185594 186.94843 
L 479.873971 187.094951 
L 467.559578 188.220893 
L 465.085251 188.251053 
L 464.918531 188.151388 
L 464.935347 188.110264 
L 465.219402 187.900873 
L 466.663548 187.21466 
L 471.764792 185.058712 
L 477.526628 182.547412 
L 480.097652 181.20795 
L 481.072608 180.497761 
L 481.359253 180.069187 
L 481.319808 179.778588 
L 481.043054 179.535519 
L 480.412918 179.308334 
L 479.510822 179.204096 
L 478.399954 179.290191 
L 477.144712 179.608241 
L 475.808488 180.17153 
L 474.331131 181.037088 
L 472.793789 182.203354 
L 471.312183 183.614195 
L 469.90062 185.281322 
L 469.112603 186.509107 
L 468.829071 187.306237 
L 468.839544 187.839634 
L 469.071245 188.253684 
L 469.509823 188.561069 
L 470.279142 188.809674 
L 471.551441 188.971139 
L 473.960505 189.017656 
L 474.978404 189.01422 
L 474.978404 189.01422 
" style="fill:none;stroke:#17becf;stroke-linecap:square;stroke-opacity:0.7;stroke-width:1.5;"/>
   </g>
   <g id="line2d_29">
    <path clip-path="url(#p2c85e6411f)" d="M 134.016245 357.483056 
L 462.948373 212.074079 
L 462.948373 212.074079 
" style="fill:none;stroke:#000000;stroke-dasharray:5.55,2.4;stroke-dashoffset:0;stroke-opacity:0.595;stroke-width:1.5;"/>
   </g>
   <g id="legend_1">
    <g id="patch_6">
     <path d="M 473.09375 122.9375 
L 558.2 122.9375 
Q 560.2 122.9375 560.2 120.9375 
L 560.2 17.8 
Q 560.2 15.8 558.2 15.8 
L 473.09375 15.8 
Q 471.09375 15.8 471.09375 17.8 
L 471.09375 120.9375 
Q 471.09375 122.9375 473.09375 122.9375 
z
" style="fill:#ffffff;opacity:0.8;stroke:#cccccc;stroke-linejoin:miter;"/>
    </g>
    <g id="line2d_30">
     <path d="M 475.09375 23.898438 
L 495.09375 23.898438 
" style="fill:none;stroke:#1f77b4;stroke-linecap:square;stroke-opacity:0.7;stroke-width:1.5;"/>
    </g>
    <g id="line2d_31"/>
    <g id="text_23">
     <!-- DSLPID -->
     <g transform="translate(503.09375 27.398438)scale(0.1 -0.1)">
      <defs>
       <path d="M 1259 4147 
L 1259 519 
L 2022 519 
Q 2988 519 3436 956 
Q 3884 1394 3884 2338 
Q 3884 3275 3436 3711 
Q 2988 4147 2022 4147 
L 1259 4147 
z
M 628 4666 
L 1925 4666 
Q 3281 4666 3915 4102 
Q 4550 3538 4550 2338 
Q 4550 1131 3912 565 
Q 3275 0 1925 0 
L 628 0 
L 628 4666 
z
" id="DejaVuSans-44" transform="scale(0.015625)"/>
       <path d="M 3425 4513 
L 3425 3897 
Q 3066 4069 2747 4153 
Q 2428 4238 2131 4238 
Q 1616 4238 1336 4038 
Q 1056 3838 1056 3469 
Q 1056 3159 1242 3001 
Q 1428 2844 1947 2747 
L 2328 2669 
Q 3034 2534 3370 2195 
Q 3706 1856 3706 1288 
Q 3706 609 3251 259 
Q 2797 -91 1919 -91 
Q 1588 -91 1214 -16 
Q 841 59 441 206 
L 441 856 
Q 825 641 1194 531 
Q 1563 422 1919 422 
Q 2459 422 2753 634 
Q 3047 847 3047 1241 
Q 3047 1584 2836 1778 
Q 2625 1972 2144 2069 
L 1759 2144 
Q 1053 2284 737 2584 
Q 422 2884 422 3419 
Q 422 4038 858 4394 
Q 1294 4750 2059 4750 
Q 2388 4750 2728 4690 
Q 3069 4631 3425 4513 
z
" id="DejaVuSans-53" transform="scale(0.015625)"/>
       <path d="M 628 4666 
L 1259 4666 
L 1259 531 
L 3531 531 
L 3531 0 
L 628 0 
L 628 4666 
z
" id="DejaVuSans-4c" transform="scale(0.015625)"/>
       <path d="M 1259 4147 
L 1259 2394 
L 2053 2394 
Q 2494 2394 2734 2622 
Q 2975 2850 2975 3272 
Q 2975 3691 2734 3919 
Q 2494 4147 2053 4147 
L 1259 4147 
z
M 628 4666 
L 2053 4666 
Q 2838 4666 3239 4311 
Q 3641 3956 3641 3272 
Q 3641 2581 3239 2228 
Q 2838 1875 2053 1875 
L 1259 1875 
L 1259 0 
L 628 0 
L 628 4666 
z
" id="DejaVuSans-50" transform="scale(0.015625)"/>
       <path d="M 628 4666 
L 1259 4666 
L 1259 0 
L 628 0 
L 628 4666 
z
" id="DejaVuSans-49" transform="scale(0.015625)"/>
      </defs>
      <use xlink:href="#DejaVuSans-44"/>
      <use x="77.001953" xlink:href="#DejaVuSans-53"/>
      <use x="140.478516" xlink:href="#DejaVuSans-4c"/>
      <use x="196.191406" xlink:href="#DejaVuSans-50"/>
      <use x="256.494141" xlink:href="#DejaVuSans-49"/>
      <use x="285.986328" xlink:href="#DejaVuSans-44"/>
     </g>
    </g>
    <g id="line2d_32">
     <path d="M 475.09375 38.576563 
L 495.09375 38.576563 
" style="fill:none;stroke:#d62728;stroke-linecap:square;stroke-opacity:0.7;stroke-width:1.5;"/>
    </g>
    <g id="line2d_33"/>
    <g id="text_24">
     <!-- CLSTM_1 -->
     <g transform="translate(503.09375 42.076563)scale(0.1 -0.1)">
      <defs>
       <path d="M 4122 4306 
L 4122 3641 
Q 3803 3938 3442 4084 
Q 3081 4231 2675 4231 
Q 1875 4231 1450 3742 
Q 1025 3253 1025 2328 
Q 1025 1406 1450 917 
Q 1875 428 2675 428 
Q 3081 428 3442 575 
Q 3803 722 4122 1019 
L 4122 359 
Q 3791 134 3420 21 
Q 3050 -91 2638 -91 
Q 1578 -91 968 557 
Q 359 1206 359 2328 
Q 359 3453 968 4101 
Q 1578 4750 2638 4750 
Q 3056 4750 3426 4639 
Q 3797 4528 4122 4306 
z
" id="DejaVuSans-43" transform="scale(0.015625)"/>
       <path d="M -19 4666 
L 3928 4666 
L 3928 4134 
L 2272 4134 
L 2272 0 
L 1638 0 
L 1638 4134 
L -19 4134 
L -19 4666 
z
" id="DejaVuSans-54" transform="scale(0.015625)"/>
       <path d="M 628 4666 
L 1569 4666 
L 2759 1491 
L 3956 4666 
L 4897 4666 
L 4897 0 
L 4281 0 
L 4281 4097 
L 3078 897 
L 2444 897 
L 1241 4097 
L 1241 0 
L 628 0 
L 628 4666 
z
" id="DejaVuSans-4d" transform="scale(0.015625)"/>
       <path d="M 3263 -1063 
L 3263 -1509 
L -63 -1509 
L -63 -1063 
L 3263 -1063 
z
" id="DejaVuSans-5f" transform="scale(0.015625)"/>
      </defs>
      <use xlink:href="#DejaVuSans-43"/>
      <use x="69.824219" xlink:href="#DejaVuSans-4c"/>
      <use x="125.537109" xlink:href="#DejaVuSans-53"/>
      <use x="189.013672" xlink:href="#DejaVuSans-54"/>
      <use x="250.097656" xlink:href="#DejaVuSans-4d"/>
      <use x="336.376953" xlink:href="#DejaVuSans-5f"/>
      <use x="386.376953" xlink:href="#DejaVuSans-31"/>
     </g>
    </g>
    <g id="line2d_34">
     <path d="M 475.09375 53.532813 
L 495.09375 53.532813 
" style="fill:none;stroke:#9467bd;stroke-linecap:square;stroke-opacity:0.7;stroke-width:1.5;"/>
    </g>
    <g id="line2d_35"/>
    <g id="text_25">
     <!-- CLSTM_2 -->
     <g transform="translate(503.09375 57.032813)scale(0.1 -0.1)">
      <use xlink:href="#DejaVuSans-43"/>
      <use x="69.824219" xlink:href="#DejaVuSans-4c"/>
      <use x="125.537109" xlink:href="#DejaVuSans-53"/>
      <use x="189.013672" xlink:href="#DejaVuSans-54"/>
      <use x="250.097656" xlink:href="#DejaVuSans-4d"/>
      <use x="336.376953" xlink:href="#DejaVuSans-5f"/>
      <use x="386.376953" xlink:href="#DejaVuSans-32"/>
     </g>
    </g>
    <g id="line2d_36">
     <path d="M 475.09375 68.489063 
L 495.09375 68.489063 
" style="fill:none;stroke:#bcbd22;stroke-linecap:square;stroke-opacity:0.7;stroke-width:1.5;"/>
    </g>
    <g id="line2d_37"/>
    <g id="text_26">
     <!-- CLSTM_3 -->
     <g transform="translate(503.09375 71.989063)scale(0.1 -0.1)">
      <defs>
       <path d="M 2597 2516 
Q 3050 2419 3304 2112 
Q 3559 1806 3559 1356 
Q 3559 666 3084 287 
Q 2609 -91 1734 -91 
Q 1441 -91 1130 -33 
Q 819 25 488 141 
L 488 750 
Q 750 597 1062 519 
Q 1375 441 1716 441 
Q 2309 441 2620 675 
Q 2931 909 2931 1356 
Q 2931 1769 2642 2001 
Q 2353 2234 1838 2234 
L 1294 2234 
L 1294 2753 
L 1863 2753 
Q 2328 2753 2575 2939 
Q 2822 3125 2822 3475 
Q 2822 3834 2567 4026 
Q 2313 4219 1838 4219 
Q 1578 4219 1281 4162 
Q 984 4106 628 3988 
L 628 4550 
Q 988 4650 1302 4700 
Q 1616 4750 1894 4750 
Q 2613 4750 3031 4423 
Q 3450 4097 3450 3541 
Q 3450 3153 3228 2886 
Q 3006 2619 2597 2516 
z
" id="DejaVuSans-33" transform="scale(0.015625)"/>
      </defs>
      <use xlink:href="#DejaVuSans-43"/>
      <use x="69.824219" xlink:href="#DejaVuSans-4c"/>
      <use x="125.537109" xlink:href="#DejaVuSans-53"/>
      <use x="189.013672" xlink:href="#DejaVuSans-54"/>
      <use x="250.097656" xlink:href="#DejaVuSans-4d"/>
      <use x="336.376953" xlink:href="#DejaVuSans-5f"/>
      <use x="386.376953" xlink:href="#DejaVuSans-33"/>
     </g>
    </g>
    <g id="line2d_38">
     <path d="M 475.09375 83.445313 
L 495.09375 83.445313 
" style="fill:none;stroke:#2ca02c;stroke-linecap:square;stroke-opacity:0.7;stroke-width:1.5;"/>
    </g>
    <g id="line2d_39"/>
    <g id="text_27">
     <!-- CLSTM_4 -->
     <g transform="translate(503.09375 86.945313)scale(0.1 -0.1)">
      <use xlink:href="#DejaVuSans-43"/>
      <use x="69.824219" xlink:href="#DejaVuSans-4c"/>
      <use x="125.537109" xlink:href="#DejaVuSans-53"/>
      <use x="189.013672" xlink:href="#DejaVuSans-54"/>
      <use x="250.097656" xlink:href="#DejaVuSans-4d"/>
      <use x="336.376953" xlink:href="#DejaVuSans-5f"/>
      <use x="386.376953" xlink:href="#DejaVuSans-34"/>
     </g>
    </g>
    <g id="line2d_40">
     <path d="M 475.09375 98.401563 
L 495.09375 98.401563 
" style="fill:none;stroke:#17becf;stroke-linecap:square;stroke-opacity:0.7;stroke-width:1.5;"/>
    </g>
    <g id="line2d_41"/>
    <g id="text_28">
     <!-- CLSTM_5 -->
     <g transform="translate(503.09375 101.901563)scale(0.1 -0.1)">
      <use xlink:href="#DejaVuSans-43"/>
      <use x="69.824219" xlink:href="#DejaVuSans-4c"/>
      <use x="125.537109" xlink:href="#DejaVuSans-53"/>
      <use x="189.013672" xlink:href="#DejaVuSans-54"/>
      <use x="250.097656" xlink:href="#DejaVuSans-4d"/>
      <use x="336.376953" xlink:href="#DejaVuSans-5f"/>
      <use x="386.376953" xlink:href="#DejaVuSans-35"/>
     </g>
    </g>
    <g id="line2d_42">
     <path d="M 475.09375 113.357813 
L 495.09375 113.357813 
" style="fill:none;stroke:#000000;stroke-dasharray:5.55,2.4;stroke-dashoffset:0;stroke-opacity:0.595;stroke-width:1.5;"/>
    </g>
    <g id="line2d_43"/>
    <g id="text_29">
     <!-- Referencia -->
     <g transform="translate(503.09375 116.857813)scale(0.1 -0.1)">
      <defs>
       <path d="M 2841 2188 
Q 3044 2119 3236 1894 
Q 3428 1669 3622 1275 
L 4263 0 
L 3584 0 
L 2988 1197 
Q 2756 1666 2539 1819 
Q 2322 1972 1947 1972 
L 1259 1972 
L 1259 0 
L 628 0 
L 628 4666 
L 2053 4666 
Q 2853 4666 3247 4331 
Q 3641 3997 3641 3322 
Q 3641 2881 3436 2590 
Q 3231 2300 2841 2188 
z
M 1259 4147 
L 1259 2491 
L 2053 2491 
Q 2509 2491 2742 2702 
Q 2975 2913 2975 3322 
Q 2975 3731 2742 3939 
Q 2509 4147 2053 4147 
L 1259 4147 
z
" id="DejaVuSans-52" transform="scale(0.015625)"/>
       <path d="M 3597 1894 
L 3597 1613 
L 953 1613 
Q 991 1019 1311 708 
Q 1631 397 2203 397 
Q 2534 397 2845 478 
Q 3156 559 3463 722 
L 3463 178 
Q 3153 47 2828 -22 
Q 2503 -91 2169 -91 
Q 1331 -91 842 396 
Q 353 884 353 1716 
Q 353 2575 817 3079 
Q 1281 3584 2069 3584 
Q 2775 3584 3186 3129 
Q 3597 2675 3597 1894 
z
M 3022 2063 
Q 3016 2534 2758 2815 
Q 2500 3097 2075 3097 
Q 1594 3097 1305 2825 
Q 1016 2553 972 2059 
L 3022 2063 
z
" id="DejaVuSans-65" transform="scale(0.015625)"/>
       <path d="M 2375 4863 
L 2375 4384 
L 1825 4384 
Q 1516 4384 1395 4259 
Q 1275 4134 1275 3809 
L 1275 3500 
L 2222 3500 
L 2222 3053 
L 1275 3053 
L 1275 0 
L 697 0 
L 697 3053 
L 147 3053 
L 147 3500 
L 697 3500 
L 697 3744 
Q 697 4328 969 4595 
Q 1241 4863 1831 4863 
L 2375 4863 
z
" id="DejaVuSans-66" transform="scale(0.015625)"/>
       <path d="M 2631 2963 
Q 2534 3019 2420 3045 
Q 2306 3072 2169 3072 
Q 1681 3072 1420 2755 
Q 1159 2438 1159 1844 
L 1159 0 
L 581 0 
L 581 3500 
L 1159 3500 
L 1159 2956 
Q 1341 3275 1631 3429 
Q 1922 3584 2338 3584 
Q 2397 3584 2469 3576 
Q 2541 3569 2628 3553 
L 2631 2963 
z
" id="DejaVuSans-72" transform="scale(0.015625)"/>
       <path d="M 3513 2113 
L 3513 0 
L 2938 0 
L 2938 2094 
Q 2938 2591 2744 2837 
Q 2550 3084 2163 3084 
Q 1697 3084 1428 2787 
Q 1159 2491 1159 1978 
L 1159 0 
L 581 0 
L 581 3500 
L 1159 3500 
L 1159 2956 
Q 1366 3272 1645 3428 
Q 1925 3584 2291 3584 
Q 2894 3584 3203 3211 
Q 3513 2838 3513 2113 
z
" id="DejaVuSans-6e" transform="scale(0.015625)"/>
       <path d="M 3122 3366 
L 3122 2828 
Q 2878 2963 2633 3030 
Q 2388 3097 2138 3097 
Q 1578 3097 1268 2742 
Q 959 2388 959 1747 
Q 959 1106 1268 751 
Q 1578 397 2138 397 
Q 2388 397 2633 464 
Q 2878 531 3122 666 
L 3122 134 
Q 2881 22 2623 -34 
Q 2366 -91 2075 -91 
Q 1284 -91 818 406 
Q 353 903 353 1747 
Q 353 2603 823 3093 
Q 1294 3584 2113 3584 
Q 2378 3584 2631 3529 
Q 2884 3475 3122 3366 
z
" id="DejaVuSans-63" transform="scale(0.015625)"/>
       <path d="M 603 3500 
L 1178 3500 
L 1178 0 
L 603 0 
L 603 3500 
z
M 603 4863 
L 1178 4863 
L 1178 4134 
L 603 4134 
L 603 4863 
z
" id="DejaVuSans-69" transform="scale(0.015625)"/>
       <path d="M 2194 1759 
Q 1497 1759 1228 1600 
Q 959 1441 959 1056 
Q 959 750 1161 570 
Q 1363 391 1709 391 
Q 2188 391 2477 730 
Q 2766 1069 2766 1631 
L 2766 1759 
L 2194 1759 
z
M 3341 1997 
L 3341 0 
L 2766 0 
L 2766 531 
Q 2569 213 2275 61 
Q 1981 -91 1556 -91 
Q 1019 -91 701 211 
Q 384 513 384 1019 
Q 384 1609 779 1909 
Q 1175 2209 1959 2209 
L 2766 2209 
L 2766 2266 
Q 2766 2663 2505 2880 
Q 2244 3097 1772 3097 
Q 1472 3097 1187 3025 
Q 903 2953 641 2809 
L 641 3341 
Q 956 3463 1253 3523 
Q 1550 3584 1831 3584 
Q 2591 3584 2966 3190 
Q 3341 2797 3341 1997 
z
" id="DejaVuSans-61" transform="scale(0.015625)"/>
      </defs>
      <use xlink:href="#DejaVuSans-52"/>
      <use x="64.982422" xlink:href="#DejaVuSans-65"/>
      <use x="126.505859" xlink:href="#DejaVuSans-66"/>
      <use x="161.710938" xlink:href="#DejaVuSans-65"/>
      <use x="223.234375" xlink:href="#DejaVuSans-72"/>
      <use x="262.097656" xlink:href="#DejaVuSans-65"/>
      <use x="323.621094" xlink:href="#DejaVuSans-6e"/>
      <use x="387" xlink:href="#DejaVuSans-63"/>
      <use x="441.980469" xlink:href="#DejaVuSans-69"/>
      <use x="469.763672" xlink:href="#DejaVuSans-61"/>
     </g>
    </g>
   </g>
  </g>
 </g>
 <defs>
  <clipPath id="p2c85e6411f">
   <rect height="554.4" width="554.4" x="10.8" y="10.8"/>
  </clipPath>
 </defs>
</svg>
