<?xml version="1.0" encoding="utf-8" standalone="no"?>
<!DOCTYPE svg PUBLIC "-//W3C//DTD SVG 1.1//EN"
  "http://www.w3.org/Graphics/SVG/1.1/DTD/svg11.dtd">
<svg height="576pt" version="1.1" viewBox="0 0 576 576" width="576pt" xmlns="http://www.w3.org/2000/svg" xmlns:xlink="http://www.w3.org/1999/xlink">
 <metadata>
  <rdf:RDF xmlns:cc="http://creativecommons.org/ns#" xmlns:dc="http://purl.org/dc/elements/1.1/" xmlns:rdf="http://www.w3.org/1999/02/22-rdf-syntax-ns#">
   <cc:Work>
    <dc:type rdf:resource="http://purl.org/dc/dcmitype/StillImage"/>
    <dc:date>2022-02-26T04:01:02.369000</dc:date>
    <dc:format>image/svg+xml</dc:format>
    <dc:creator>
     <cc:Agent>
      <dc:title>Matplotlib v3.4.3, https://matplotlib.org/</dc:title>
     </cc:Agent>
    </dc:creator>
   </cc:Work>
  </rdf:RDF>
 </metadata>
 <defs>
  <style type="text/css">*{stroke-linecap:butt;stroke-linejoin:round;}</style>
 </defs>
 <g id="figure_1">
  <g id="patch_1">
   <path d="M 0 576 
L 576 576 
L 576 0 
L 0 0 
z
" style="fill:#ffffff;"/>
  </g>
  <g id="patch_2">
   <path d="M 23.4 565.2 
L 552.6 565.2 
L 552.6 36 
L 23.4 36 
z
" style="fill:#ffffff;"/>
  </g>
  <g id="pane3d_1">
   <g id="patch_3">
    <path d="M 63.358249 434.71624 
L 238.117372 288.229677 
L 235.688053 76.969868 
L 52.565805 210.604144 
" style="fill:#f2f2f2;opacity:0.5;stroke:#f2f2f2;stroke-linejoin:miter;"/>
   </g>
  </g>
  <g id="pane3d_2">
   <g id="patch_4">
    <path d="M 238.117372 288.229677 
L 518.54341 369.738455 
L 528.550827 151.202044 
L 235.688053 76.969868 
" style="fill:#e6e6e6;opacity:0.5;stroke:#e6e6e6;stroke-linejoin:miter;"/>
   </g>
  </g>
  <g id="pane3d_3">
   <g id="patch_5">
    <path d="M 63.358249 434.71624 
L 360.623546 531.803085 
L 518.54341 369.738455 
L 238.117372 288.229677 
" style="fill:#ececec;opacity:0.5;stroke:#ececec;stroke-linejoin:miter;"/>
   </g>
  </g>
  <g id="axis3d_1">
   <g id="line2d_1">
    <path d="M 63.358249 434.71624 
L 360.623546 531.803085 
" style="fill:none;stroke:#000000;stroke-linecap:square;stroke-width:0.8;"/>
   </g>
   <g id="text_1">
    <!-- x (m) -->
    <g transform="translate(178.329241 515.594496)rotate(-341.912962)scale(0.1 -0.1)">
     <defs>
      <path d="M 3513 3500 
L 2247 1797 
L 3578 0 
L 2900 0 
L 1881 1375 
L 863 0 
L 184 0 
L 1544 1831 
L 300 3500 
L 978 3500 
L 1906 2253 
L 2834 3500 
L 3513 3500 
z
" id="DejaVuSans-78" transform="scale(0.015625)"/>
      <path id="DejaVuSans-20" transform="scale(0.015625)"/>
      <path d="M 1984 4856 
Q 1566 4138 1362 3434 
Q 1159 2731 1159 2009 
Q 1159 1288 1364 580 
Q 1569 -128 1984 -844 
L 1484 -844 
Q 1016 -109 783 600 
Q 550 1309 550 2009 
Q 550 2706 781 3412 
Q 1013 4119 1484 4856 
L 1984 4856 
z
" id="DejaVuSans-28" transform="scale(0.015625)"/>
      <path d="M 3328 2828 
Q 3544 3216 3844 3400 
Q 4144 3584 4550 3584 
Q 5097 3584 5394 3201 
Q 5691 2819 5691 2113 
L 5691 0 
L 5113 0 
L 5113 2094 
Q 5113 2597 4934 2840 
Q 4756 3084 4391 3084 
Q 3944 3084 3684 2787 
Q 3425 2491 3425 1978 
L 3425 0 
L 2847 0 
L 2847 2094 
Q 2847 2600 2669 2842 
Q 2491 3084 2119 3084 
Q 1678 3084 1418 2786 
Q 1159 2488 1159 1978 
L 1159 0 
L 581 0 
L 581 3500 
L 1159 3500 
L 1159 2956 
Q 1356 3278 1631 3431 
Q 1906 3584 2284 3584 
Q 2666 3584 2933 3390 
Q 3200 3197 3328 2828 
z
" id="DejaVuSans-6d" transform="scale(0.015625)"/>
      <path d="M 513 4856 
L 1013 4856 
Q 1481 4119 1714 3412 
Q 1947 2706 1947 2009 
Q 1947 1309 1714 600 
Q 1481 -109 1013 -844 
L 513 -844 
Q 928 -128 1133 580 
Q 1338 1288 1338 2009 
Q 1338 2731 1133 3434 
Q 928 4138 513 4856 
z
" id="DejaVuSans-29" transform="scale(0.015625)"/>
     </defs>
     <use xlink:href="#DejaVuSans-78"/>
     <use x="59.179688" xlink:href="#DejaVuSans-20"/>
     <use x="90.966797" xlink:href="#DejaVuSans-28"/>
     <use x="129.980469" xlink:href="#DejaVuSans-6d"/>
     <use x="227.392578" xlink:href="#DejaVuSans-29"/>
    </g>
   </g>
   <g id="Line3DCollection_1">
    <path d="M 91.278689 443.835055 
L 264.56175 295.916014 
L 263.252466 83.956643 
" style="fill:none;stroke:#b0b0b0;stroke-width:0.8;"/>
    <path d="M 134.67396 458.007951 
L 305.619272 307.849815 
L 306.070688 94.809814 
" style="fill:none;stroke:#b0b0b0;stroke-width:0.8;"/>
    <path d="M 178.757289 472.405566 
L 347.273568 319.957074 
L 349.538319 105.827592 
" style="fill:none;stroke:#b0b0b0;stroke-width:0.8;"/>
    <path d="M 223.545171 487.033288 
L 389.537746 332.241602 
L 393.670246 117.013749 
" style="fill:none;stroke:#b0b0b0;stroke-width:0.8;"/>
    <path d="M 269.054631 501.896677 
L 432.425298 344.70732 
L 438.481815 128.372175 
" style="fill:none;stroke:#b0b0b0;stroke-width:0.8;"/>
    <path d="M 315.303251 517.001477 
L 475.950119 357.358267 
L 483.988847 139.906881 
" style="fill:none;stroke:#b0b0b0;stroke-width:0.8;"/>
   </g>
   <g id="xtick_1">
    <g id="line2d_2">
     <path d="M 92.787849 442.546796 
L 88.253882 446.417111 
" style="fill:none;stroke:#000000;stroke-linecap:square;stroke-width:0.8;"/>
    </g>
    <g id="text_2">
     <!-- 0.00 -->
     <g transform="translate(72.635694 467.149567)scale(0.1 -0.1)">
      <defs>
       <path d="M 2034 4250 
Q 1547 4250 1301 3770 
Q 1056 3291 1056 2328 
Q 1056 1369 1301 889 
Q 1547 409 2034 409 
Q 2525 409 2770 889 
Q 3016 1369 3016 2328 
Q 3016 3291 2770 3770 
Q 2525 4250 2034 4250 
z
M 2034 4750 
Q 2819 4750 3233 4129 
Q 3647 3509 3647 2328 
Q 3647 1150 3233 529 
Q 2819 -91 2034 -91 
Q 1250 -91 836 529 
Q 422 1150 422 2328 
Q 422 3509 836 4129 
Q 1250 4750 2034 4750 
z
" id="DejaVuSans-30" transform="scale(0.015625)"/>
       <path d="M 684 794 
L 1344 794 
L 1344 0 
L 684 0 
L 684 794 
z
" id="DejaVuSans-2e" transform="scale(0.015625)"/>
      </defs>
      <use xlink:href="#DejaVuSans-30"/>
      <use x="63.623047" xlink:href="#DejaVuSans-2e"/>
      <use x="95.410156" xlink:href="#DejaVuSans-30"/>
      <use x="159.033203" xlink:href="#DejaVuSans-30"/>
     </g>
    </g>
   </g>
   <g id="xtick_2">
    <g id="line2d_3">
     <path d="M 136.163713 456.699354 
L 131.688 460.630814 
" style="fill:none;stroke:#000000;stroke-linecap:square;stroke-width:0.8;"/>
    </g>
    <g id="text_3">
     <!-- 0.02 -->
     <g transform="translate(116.053535 481.47301)scale(0.1 -0.1)">
      <defs>
       <path d="M 1228 531 
L 3431 531 
L 3431 0 
L 469 0 
L 469 531 
Q 828 903 1448 1529 
Q 2069 2156 2228 2338 
Q 2531 2678 2651 2914 
Q 2772 3150 2772 3378 
Q 2772 3750 2511 3984 
Q 2250 4219 1831 4219 
Q 1534 4219 1204 4116 
Q 875 4013 500 3803 
L 500 4441 
Q 881 4594 1212 4672 
Q 1544 4750 1819 4750 
Q 2544 4750 2975 4387 
Q 3406 4025 3406 3419 
Q 3406 3131 3298 2873 
Q 3191 2616 2906 2266 
Q 2828 2175 2409 1742 
Q 1991 1309 1228 531 
z
" id="DejaVuSans-32" transform="scale(0.015625)"/>
      </defs>
      <use xlink:href="#DejaVuSans-30"/>
      <use x="63.623047" xlink:href="#DejaVuSans-2e"/>
      <use x="95.410156" xlink:href="#DejaVuSans-30"/>
      <use x="159.033203" xlink:href="#DejaVuSans-32"/>
     </g>
    </g>
   </g>
   <g id="xtick_3">
    <g id="line2d_4">
     <path d="M 180.226828 471.076146 
L 175.811795 475.070212 
" style="fill:none;stroke:#000000;stroke-linecap:square;stroke-width:0.8;"/>
    </g>
    <g id="text_4">
     <!-- 0.04 -->
     <g transform="translate(160.161099 496.02399)scale(0.1 -0.1)">
      <defs>
       <path d="M 2419 4116 
L 825 1625 
L 2419 1625 
L 2419 4116 
z
M 2253 4666 
L 3047 4666 
L 3047 1625 
L 3713 1625 
L 3713 1100 
L 3047 1100 
L 3047 0 
L 2419 0 
L 2419 1100 
L 313 1100 
L 313 1709 
L 2253 4666 
z
" id="DejaVuSans-34" transform="scale(0.015625)"/>
      </defs>
      <use xlink:href="#DejaVuSans-30"/>
      <use x="63.623047" xlink:href="#DejaVuSans-2e"/>
      <use x="95.410156" xlink:href="#DejaVuSans-30"/>
      <use x="159.033203" xlink:href="#DejaVuSans-34"/>
     </g>
    </g>
   </g>
   <g id="xtick_4">
    <g id="line2d_5">
     <path d="M 224.993656 485.682543 
L 220.641823 489.740722 
" style="fill:none;stroke:#000000;stroke-linecap:square;stroke-width:0.8;"/>
    </g>
    <g id="text_5">
     <!-- 0.06 -->
     <g transform="translate(204.974952 510.807974)scale(0.1 -0.1)">
      <defs>
       <path d="M 2113 2584 
Q 1688 2584 1439 2293 
Q 1191 2003 1191 1497 
Q 1191 994 1439 701 
Q 1688 409 2113 409 
Q 2538 409 2786 701 
Q 3034 994 3034 1497 
Q 3034 2003 2786 2293 
Q 2538 2584 2113 2584 
z
M 3366 4563 
L 3366 3988 
Q 3128 4100 2886 4159 
Q 2644 4219 2406 4219 
Q 1781 4219 1451 3797 
Q 1122 3375 1075 2522 
Q 1259 2794 1537 2939 
Q 1816 3084 2150 3084 
Q 2853 3084 3261 2657 
Q 3669 2231 3669 1497 
Q 3669 778 3244 343 
Q 2819 -91 2113 -91 
Q 1303 -91 875 529 
Q 447 1150 447 2328 
Q 447 3434 972 4092 
Q 1497 4750 2381 4750 
Q 2619 4750 2861 4703 
Q 3103 4656 3366 4563 
z
" id="DejaVuSans-36" transform="scale(0.015625)"/>
      </defs>
      <use xlink:href="#DejaVuSans-30"/>
      <use x="63.623047" xlink:href="#DejaVuSans-2e"/>
      <use x="95.410156" xlink:href="#DejaVuSans-30"/>
      <use x="159.033203" xlink:href="#DejaVuSans-36"/>
     </g>
    </g>
   </g>
   <g id="xtick_5">
    <g id="line2d_6">
     <path d="M 270.481193 500.524092 
L 266.195178 504.64794 
" style="fill:none;stroke:#000000;stroke-linecap:square;stroke-width:0.8;"/>
    </g>
    <g id="text_6">
     <!-- 0.08 -->
     <g transform="translate(250.512196 525.830602)scale(0.1 -0.1)">
      <defs>
       <path d="M 2034 2216 
Q 1584 2216 1326 1975 
Q 1069 1734 1069 1313 
Q 1069 891 1326 650 
Q 1584 409 2034 409 
Q 2484 409 2743 651 
Q 3003 894 3003 1313 
Q 3003 1734 2745 1975 
Q 2488 2216 2034 2216 
z
M 1403 2484 
Q 997 2584 770 2862 
Q 544 3141 544 3541 
Q 544 4100 942 4425 
Q 1341 4750 2034 4750 
Q 2731 4750 3128 4425 
Q 3525 4100 3525 3541 
Q 3525 3141 3298 2862 
Q 3072 2584 2669 2484 
Q 3125 2378 3379 2068 
Q 3634 1759 3634 1313 
Q 3634 634 3220 271 
Q 2806 -91 2034 -91 
Q 1263 -91 848 271 
Q 434 634 434 1313 
Q 434 1759 690 2068 
Q 947 2378 1403 2484 
z
M 1172 3481 
Q 1172 3119 1398 2916 
Q 1625 2713 2034 2713 
Q 2441 2713 2670 2916 
Q 2900 3119 2900 3481 
Q 2900 3844 2670 4047 
Q 2441 4250 2034 4250 
Q 1625 4250 1398 4047 
Q 1172 3844 1172 3481 
z
" id="DejaVuSans-38" transform="scale(0.015625)"/>
      </defs>
      <use xlink:href="#DejaVuSans-30"/>
      <use x="63.623047" xlink:href="#DejaVuSans-2e"/>
      <use x="95.410156" xlink:href="#DejaVuSans-30"/>
      <use x="159.033203" xlink:href="#DejaVuSans-38"/>
     </g>
    </g>
   </g>
   <g id="xtick_6">
    <g id="line2d_7">
     <path d="M 316.706983 515.606515 
L 312.489509 519.79764 
" style="fill:none;stroke:#000000;stroke-linecap:square;stroke-width:0.8;"/>
    </g>
    <g id="text_7">
     <!-- 0.10 -->
     <g transform="translate(296.79049 541.097701)scale(0.1 -0.1)">
      <defs>
       <path d="M 794 531 
L 1825 531 
L 1825 4091 
L 703 3866 
L 703 4441 
L 1819 4666 
L 2450 4666 
L 2450 531 
L 3481 531 
L 3481 0 
L 794 0 
L 794 531 
z
" id="DejaVuSans-31" transform="scale(0.015625)"/>
      </defs>
      <use xlink:href="#DejaVuSans-30"/>
      <use x="63.623047" xlink:href="#DejaVuSans-2e"/>
      <use x="95.410156" xlink:href="#DejaVuSans-31"/>
      <use x="159.033203" xlink:href="#DejaVuSans-30"/>
     </g>
    </g>
   </g>
  </g>
  <g id="axis3d_2">
   <g id="line2d_8">
    <path d="M 518.54341 369.738455 
L 360.623546 531.803085 
" style="fill:none;stroke:#000000;stroke-linecap:square;stroke-width:0.8;"/>
   </g>
   <g id="text_8">
    <!-- y (m) -->
    <g transform="translate(462.753334 486.601399)rotate(-45.742112)scale(0.1 -0.1)">
     <defs>
      <path d="M 2059 -325 
Q 1816 -950 1584 -1140 
Q 1353 -1331 966 -1331 
L 506 -1331 
L 506 -850 
L 844 -850 
Q 1081 -850 1212 -737 
Q 1344 -625 1503 -206 
L 1606 56 
L 191 3500 
L 800 3500 
L 1894 763 
L 2988 3500 
L 3597 3500 
L 2059 -325 
z
" id="DejaVuSans-79" transform="scale(0.015625)"/>
     </defs>
     <use xlink:href="#DejaVuSans-79"/>
     <use x="59.179688" xlink:href="#DejaVuSans-20"/>
     <use x="90.966797" xlink:href="#DejaVuSans-28"/>
     <use x="129.980469" xlink:href="#DejaVuSans-6d"/>
     <use x="227.392578" xlink:href="#DejaVuSans-29"/>
    </g>
   </g>
   <g id="Line3DCollection_2">
    <path d="M 70.098065 197.809899 
L 80.032456 420.739589 
L 375.751361 516.278225 
" style="fill:none;stroke:#b0b0b0;stroke-width:0.8;"/>
    <path d="M 99.886171 176.071896 
L 108.390462 396.969346 
L 401.4501 489.904997 
" style="fill:none;stroke:#b0b0b0;stroke-width:0.8;"/>
    <path d="M 128.853384 154.932944 
L 136.000573 373.826004 
L 426.435686 464.26364 
" style="fill:none;stroke:#b0b0b0;stroke-width:0.8;"/>
    <path d="M 157.033175 134.368616 
L 162.891989 351.285086 
L 450.737397 439.324106 
" style="fill:none;stroke:#b0b0b0;stroke-width:0.8;"/>
    <path d="M 184.457222 114.355796 
L 189.092412 329.323372 
L 474.382932 415.05797 
" style="fill:none;stroke:#b0b0b0;stroke-width:0.8;"/>
    <path d="M 211.155524 94.872591 
L 214.628137 307.91882 
L 497.398513 391.438322 
" style="fill:none;stroke:#b0b0b0;stroke-width:0.8;"/>
   </g>
   <g id="xtick_7">
    <g id="line2d_9">
     <path d="M 373.259618 515.473212 
L 380.741275 517.890329 
" style="fill:none;stroke:#000000;stroke-linecap:square;stroke-width:0.8;"/>
    </g>
    <g id="text_9">
     <!-- 0.00 -->
     <g transform="translate(377.467052 537.263862)scale(0.1 -0.1)">
      <use xlink:href="#DejaVuSans-30"/>
      <use x="63.623047" xlink:href="#DejaVuSans-2e"/>
      <use x="95.410156" xlink:href="#DejaVuSans-30"/>
      <use x="159.033203" xlink:href="#DejaVuSans-30"/>
     </g>
    </g>
   </g>
   <g id="xtick_8">
    <g id="line2d_10">
     <path d="M 398.982521 489.122473 
L 406.391536 491.472035 
" style="fill:none;stroke:#000000;stroke-linecap:square;stroke-width:0.8;"/>
    </g>
    <g id="text_10">
     <!-- 0.02 -->
     <g transform="translate(402.992562 510.694404)scale(0.1 -0.1)">
      <use xlink:href="#DejaVuSans-30"/>
      <use x="63.623047" xlink:href="#DejaVuSans-2e"/>
      <use x="95.410156" xlink:href="#DejaVuSans-30"/>
      <use x="159.033203" xlink:href="#DejaVuSans-32"/>
     </g>
    </g>
   </g>
   <g id="xtick_9">
    <g id="line2d_11">
     <path d="M 423.991897 463.502676 
L 431.329393 465.787475 
" style="fill:none;stroke:#000000;stroke-linecap:square;stroke-width:0.8;"/>
    </g>
    <g id="text_11">
     <!-- 0.04 -->
     <g transform="translate(427.809519 484.862479)scale(0.1 -0.1)">
      <use xlink:href="#DejaVuSans-30"/>
      <use x="63.623047" xlink:href="#DejaVuSans-2e"/>
      <use x="95.410156" xlink:href="#DejaVuSans-30"/>
      <use x="159.033203" xlink:href="#DejaVuSans-34"/>
     </g>
    </g>
   </g>
   <g id="xtick_10">
    <g id="line2d_12">
     <path d="M 448.31703 438.583824 
L 455.584119 440.806501 
" style="fill:none;stroke:#000000;stroke-linecap:square;stroke-width:0.8;"/>
    </g>
    <g id="text_12">
     <!-- 0.06 -->
     <g transform="translate(451.947021 459.737796)scale(0.1 -0.1)">
      <use xlink:href="#DejaVuSans-30"/>
      <use x="63.623047" xlink:href="#DejaVuSans-2e"/>
      <use x="95.410156" xlink:href="#DejaVuSans-30"/>
      <use x="159.033203" xlink:href="#DejaVuSans-36"/>
     </g>
    </g>
   </g>
   <g id="xtick_11">
    <g id="line2d_13">
     <path d="M 471.985621 414.337538 
L 479.183405 416.500593 
" style="fill:none;stroke:#000000;stroke-linecap:square;stroke-width:0.8;"/>
    </g>
    <g id="text_13">
     <!-- 0.08 -->
     <g transform="translate(475.432595 435.291703)scale(0.1 -0.1)">
      <use xlink:href="#DejaVuSans-30"/>
      <use x="63.623047" xlink:href="#DejaVuSans-2e"/>
      <use x="95.410156" xlink:href="#DejaVuSans-30"/>
      <use x="159.033203" xlink:href="#DejaVuSans-38"/>
     </g>
    </g>
   </g>
   <g id="xtick_12">
    <g id="line2d_14">
     <path d="M 495.023896 390.736952 
L 502.153465 392.842752 
" style="fill:none;stroke:#000000;stroke-linecap:square;stroke-width:0.8;"/>
    </g>
    <g id="text_14">
     <!-- 0.10 -->
     <g transform="translate(498.292302 411.497075)scale(0.1 -0.1)">
      <use xlink:href="#DejaVuSans-30"/>
      <use x="63.623047" xlink:href="#DejaVuSans-2e"/>
      <use x="95.410156" xlink:href="#DejaVuSans-31"/>
      <use x="159.033203" xlink:href="#DejaVuSans-30"/>
     </g>
    </g>
   </g>
  </g>
  <g id="axis3d_3">
   <g id="line2d_15">
    <path d="M 518.54341 369.738455 
L 528.550827 151.202044 
" style="fill:none;stroke:#000000;stroke-linecap:square;stroke-width:0.8;"/>
   </g>
   <g id="text_15">
    <!-- z (m) -->
    <g transform="translate(566.10943 270.534657)rotate(-87.378092)scale(0.1 -0.1)">
     <defs>
      <path d="M 353 3500 
L 3084 3500 
L 3084 2975 
L 922 459 
L 3084 459 
L 3084 0 
L 275 0 
L 275 525 
L 2438 3041 
L 353 3041 
L 353 3500 
z
" id="DejaVuSans-7a" transform="scale(0.015625)"/>
     </defs>
     <use xlink:href="#DejaVuSans-7a"/>
     <use x="52.490234" xlink:href="#DejaVuSans-20"/>
     <use x="84.277344" xlink:href="#DejaVuSans-28"/>
     <use x="123.291016" xlink:href="#DejaVuSans-6d"/>
     <use x="220.703125" xlink:href="#DejaVuSans-29"/>
    </g>
   </g>
   <g id="Line3DCollection_3">
    <path d="M 519.284238 353.560679 
L 237.937183 272.559973 
L 62.560555 418.151591 
" style="fill:none;stroke:#b0b0b0;stroke-width:0.8;"/>
    <path d="M 520.491174 327.204266 
L 237.643745 247.041795 
L 61.260545 391.156046 
" style="fill:none;stroke:#b0b0b0;stroke-width:0.8;"/>
    <path d="M 521.71118 300.562463 
L 237.347281 221.260514 
L 59.945921 363.857033 
" style="fill:none;stroke:#b0b0b0;stroke-width:0.8;"/>
    <path d="M 522.944468 273.630608 
L 237.047744 195.212038 
L 58.616436 336.249409 
" style="fill:none;stroke:#b0b0b0;stroke-width:0.8;"/>
    <path d="M 524.191256 246.403938 
L 236.745087 168.892194 
L 57.271835 308.32791 
" style="fill:none;stroke:#b0b0b0;stroke-width:0.8;"/>
    <path d="M 525.451767 218.877587 
L 236.43926 142.296718 
L 55.911861 280.087151 
" style="fill:none;stroke:#b0b0b0;stroke-width:0.8;"/>
    <path d="M 526.72623 191.046579 
L 236.130214 115.421257 
L 54.536246 251.521628 
" style="fill:none;stroke:#b0b0b0;stroke-width:0.8;"/>
    <path d="M 528.014877 162.905828 
L 235.817896 88.261367 
L 53.144721 222.625703 
" style="fill:none;stroke:#b0b0b0;stroke-width:0.8;"/>
   </g>
   <g id="xtick_13">
    <g id="line2d_16">
     <path d="M 516.922594 352.880755 
L 524.013159 354.922151 
" style="fill:none;stroke:#000000;stroke-linecap:square;stroke-width:0.8;"/>
    </g>
    <g id="text_16">
     <!-- 1.000 -->
     <g transform="translate(523.305449 358.5661)scale(0.1 -0.1)">
      <use xlink:href="#DejaVuSans-31"/>
      <use x="63.623047" xlink:href="#DejaVuSans-2e"/>
      <use x="95.410156" xlink:href="#DejaVuSans-30"/>
      <use x="159.033203" xlink:href="#DejaVuSans-30"/>
      <use x="222.65625" xlink:href="#DejaVuSans-30"/>
     </g>
    </g>
   </g>
   <g id="xtick_14">
    <g id="line2d_17">
     <path d="M 518.116337 326.531208 
L 525.246546 328.551998 
" style="fill:none;stroke:#000000;stroke-linecap:square;stroke-width:0.8;"/>
    </g>
    <g id="text_17">
     <!-- 1.025 -->
     <g transform="translate(524.609131 332.235888)scale(0.1 -0.1)">
      <defs>
       <path d="M 691 4666 
L 3169 4666 
L 3169 4134 
L 1269 4134 
L 1269 2991 
Q 1406 3038 1543 3061 
Q 1681 3084 1819 3084 
Q 2600 3084 3056 2656 
Q 3513 2228 3513 1497 
Q 3513 744 3044 326 
Q 2575 -91 1722 -91 
Q 1428 -91 1123 -41 
Q 819 9 494 109 
L 494 744 
Q 775 591 1075 516 
Q 1375 441 1709 441 
Q 2250 441 2565 725 
Q 2881 1009 2881 1497 
Q 2881 1984 2565 2268 
Q 2250 2553 1709 2553 
Q 1456 2553 1204 2497 
Q 953 2441 691 2322 
L 691 4666 
z
" id="DejaVuSans-35" transform="scale(0.015625)"/>
      </defs>
      <use xlink:href="#DejaVuSans-31"/>
      <use x="63.623047" xlink:href="#DejaVuSans-2e"/>
      <use x="95.410156" xlink:href="#DejaVuSans-30"/>
      <use x="159.033203" xlink:href="#DejaVuSans-32"/>
      <use x="222.65625" xlink:href="#DejaVuSans-35"/>
     </g>
    </g>
   </g>
   <g id="xtick_15">
    <g id="line2d_18">
     <path d="M 519.323 299.896459 
L 526.493299 301.896076 
" style="fill:none;stroke:#000000;stroke-linecap:square;stroke-width:0.8;"/>
    </g>
    <g id="text_18">
     <!-- 1.050 -->
     <g transform="translate(525.926908 305.621006)scale(0.1 -0.1)">
      <use xlink:href="#DejaVuSans-31"/>
      <use x="63.623047" xlink:href="#DejaVuSans-2e"/>
      <use x="95.410156" xlink:href="#DejaVuSans-30"/>
      <use x="159.033203" xlink:href="#DejaVuSans-35"/>
      <use x="222.65625" xlink:href="#DejaVuSans-30"/>
     </g>
    </g>
   </g>
   <g id="xtick_16">
    <g id="line2d_19">
     <path d="M 520.542795 272.971853 
L 527.753637 274.949714 
" style="fill:none;stroke:#000000;stroke-linecap:square;stroke-width:0.8;"/>
    </g>
    <g id="text_19">
     <!-- 1.075 -->
     <g transform="translate(527.259009 278.716811)scale(0.1 -0.1)">
      <defs>
       <path d="M 525 4666 
L 3525 4666 
L 3525 4397 
L 1831 0 
L 1172 0 
L 2766 4134 
L 525 4134 
L 525 4666 
z
" id="DejaVuSans-37" transform="scale(0.015625)"/>
      </defs>
      <use xlink:href="#DejaVuSans-31"/>
      <use x="63.623047" xlink:href="#DejaVuSans-2e"/>
      <use x="95.410156" xlink:href="#DejaVuSans-30"/>
      <use x="159.033203" xlink:href="#DejaVuSans-37"/>
      <use x="222.65625" xlink:href="#DejaVuSans-35"/>
     </g>
    </g>
   </g>
   <g id="xtick_17">
    <g id="line2d_20">
     <path d="M 521.775938 245.752632 
L 529.027782 247.708139 
" style="fill:none;stroke:#000000;stroke-linecap:square;stroke-width:0.8;"/>
    </g>
    <g id="text_20">
     <!-- 1.100 -->
     <g transform="translate(528.60567 251.51856)scale(0.1 -0.1)">
      <use xlink:href="#DejaVuSans-31"/>
      <use x="63.623047" xlink:href="#DejaVuSans-2e"/>
      <use x="95.410156" xlink:href="#DejaVuSans-31"/>
      <use x="159.033203" xlink:href="#DejaVuSans-30"/>
      <use x="222.65625" xlink:href="#DejaVuSans-30"/>
     </g>
    </g>
   </g>
   <g id="xtick_18">
    <g id="line2d_21">
     <path d="M 523.022647 218.233933 
L 530.315963 220.166474 
" style="fill:none;stroke:#000000;stroke-linecap:square;stroke-width:0.8;"/>
    </g>
    <g id="text_21">
     <!-- 1.125 -->
     <g transform="translate(529.96713 224.021407)scale(0.1 -0.1)">
      <use xlink:href="#DejaVuSans-31"/>
      <use x="63.623047" xlink:href="#DejaVuSans-2e"/>
      <use x="95.410156" xlink:href="#DejaVuSans-31"/>
      <use x="159.033203" xlink:href="#DejaVuSans-32"/>
      <use x="222.65625" xlink:href="#DejaVuSans-35"/>
     </g>
    </g>
   </g>
   <g id="xtick_19">
    <g id="line2d_22">
     <path d="M 524.28315 190.410787 
L 531.618414 192.319731 
" style="fill:none;stroke:#000000;stroke-linecap:square;stroke-width:0.8;"/>
    </g>
    <g id="text_22">
     <!-- 1.150 -->
     <g transform="translate(531.343636 196.220396)scale(0.1 -0.1)">
      <use xlink:href="#DejaVuSans-31"/>
      <use x="63.623047" xlink:href="#DejaVuSans-2e"/>
      <use x="95.410156" xlink:href="#DejaVuSans-31"/>
      <use x="159.033203" xlink:href="#DejaVuSans-35"/>
      <use x="222.65625" xlink:href="#DejaVuSans-30"/>
     </g>
    </g>
   </g>
   <g id="xtick_20">
    <g id="line2d_23">
     <path d="M 525.557675 162.278113 
L 532.935371 164.162815 
" style="fill:none;stroke:#000000;stroke-linecap:square;stroke-width:0.8;"/>
    </g>
    <g id="text_23">
     <!-- 1.175 -->
     <g transform="translate(532.735436 168.110464)scale(0.1 -0.1)">
      <use xlink:href="#DejaVuSans-31"/>
      <use x="63.623047" xlink:href="#DejaVuSans-2e"/>
      <use x="95.410156" xlink:href="#DejaVuSans-31"/>
      <use x="159.033203" xlink:href="#DejaVuSans-37"/>
      <use x="222.65625" xlink:href="#DejaVuSans-35"/>
     </g>
    </g>
   </g>
  </g>
  <g id="axes_1">
   <g id="line2d_24">
    <path clip-path="url(#p3fcf190f4e)" d="M 107.182481 413.363339 
L 107.240756 414.862194 
L 107.070714 408.128589 
L 107.227763 403.980078 
L 107.512741 401.218046 
L 108.011448 398.306469 
L 108.782037 395.286952 
L 109.872266 392.192142 
L 111.319817 389.041895 
L 112.495558 386.92746 
L 113.847747 384.803444 
L 115.380634 382.677023 
L 118.028467 379.486566 
L 121.106098 376.301492 
L 124.62499 373.125162 
L 128.592281 369.961697 
L 133.00971 366.813527 
L 137.872266 363.684455 
L 143.170248 360.576326 
L 148.890294 357.490724 
L 155.017212 354.427824 
L 161.533573 351.388414 
L 168.419649 348.37288 
L 178.136071 344.390724 
L 188.405811 340.455723 
L 199.159436 336.570717 
L 213.171354 331.789169 
L 227.680892 327.097977 
L 245.538583 321.601911 
L 263.635556 316.270515 
L 284.713435 310.287453 
L 311.185394 303.024747 
L 344.262083 294.210538 
L 423.684815 273.194945 
L 436.02402 269.64462 
L 443.321125 267.345435 
L 447.931298 265.698253 
L 451.015216 264.369321 
L 452.657971 263.425951 
L 453.419178 262.752821 
L 453.680187 262.271662 
L 453.667109 261.851087 
L 453.438841 261.480632 
L 452.864634 261.029294 
L 451.681839 260.457392 
L 449.968207 259.620412 
L 449.589274 259.225965 
L 449.530847 258.846518 
L 449.703688 258.496188 
L 450.180002 258.054652 
L 451.218262 257.437219 
L 452.916732 256.735984 
L 455.819564 255.806684 
L 460.103833 254.700972 
L 466.038414 253.405375 
L 473.750779 251.950957 
L 478.473617 251.109516 
L 477.820818 251.122967 
L 476.406386 251.095624 
L 476.415852 251.07921 
L 476.695732 250.977381 
L 477.788845 250.788224 
L 475.828524 251.081591 
L 462.349534 253.457132 
L 462.349534 253.457132 
" style="fill:none;stroke:#1f77b4;stroke-linecap:square;stroke-opacity:0.7;stroke-width:1.5;"/>
   </g>
   <g id="line2d_25">
    <path clip-path="url(#p3fcf190f4e)" d="M 107.182481 413.363339 
L 107.378266 421.253177 
L 107.203152 423.356758 
L 106.925821 424.351576 
L 106.695872 424.528464 
L 106.509762 424.433585 
L 106.241964 424.037087 
L 105.807729 422.927581 
L 105.165394 420.560087 
L 104.209213 416.002886 
L 102.808623 408.085929 
L 101.513738 399.65024 
L 100.767724 393.394087 
L 100.336018 387.961862 
L 100.178613 383.360886 
L 100.247114 379.211423 
L 100.520196 375.532453 
L 100.970696 372.28712 
L 101.664549 368.941844 
L 103.555037 360.668343 
L 103.724825 358.419703 
L 103.667437 356.241548 
L 103.38972 353.886392 
L 102.829468 351.048994 
L 101.864541 347.354763 
L 99.646633 339.994281 
L 97.773156 333.471257 
L 96.759607 329.198309 
L 96.175196 325.830276 
L 95.912161 323.029639 
L 95.919807 320.762648 
L 96.130833 318.975895 
L 96.534595 317.422314 
L 97.040595 316.263674 
L 97.679464 315.297004 
L 98.438209 314.521002 
L 99.300759 313.926783 
L 100.388166 313.45052 
L 101.697146 313.138364 
L 103.330855 313.006614 
L 105.506853 313.089147 
L 107.288012 313.114465 
L 107.456802 312.940849 
L 107.333072 312.66363 
L 106.722687 312.045596 
L 104.83238 310.530621 
L 98.93894 305.854755 
L 96.329343 303.499104 
L 94.697615 301.766558 
L 93.802982 300.532992 
L 93.464737 299.734367 
L 93.469001 299.265486 
L 93.6668 298.978836 
L 94.046894 298.803736 
L 94.720532 298.743946 
L 95.940364 298.895553 
L 97.721155 299.351547 
L 100.567573 300.337283 
L 104.288677 301.875423 
L 108.714915 303.947354 
L 112.177026 305.785329 
L 113.528076 306.698255 
L 113.751649 307.059688 
L 113.617315 307.163399 
L 113.131556 307.200764 
L 111.727433 307.041641 
L 100.652454 305.40223 
L 97.964139 305.344586 
L 96.043996 305.506588 
L 94.638794 305.825022 
L 93.695627 306.243373 
L 93.130347 306.70515 
L 92.810754 307.258585 
L 92.742903 307.785252 
L 92.906632 308.487663 
L 93.338221 309.254902 
L 94.171708 310.210734 
L 95.342462 311.203847 
L 97.05967 312.343758 
L 99.132669 313.444015 
L 101.498035 314.458724 
L 104.077739 315.344377 
L 107.115868 316.1419 
L 110.139577 316.694694 
L 112.965481 316.981936 
L 115.406773 316.9972 
L 117.122399 316.791111 
L 118.209081 316.463238 
L 118.881089 316.031 
L 119.118038 315.606386 
L 119.074602 315.233506 
L 118.813454 314.859725 
L 118.218387 314.432694 
L 117.152935 313.998578 
L 115.721808 313.669871 
L 113.705006 313.460438 
L 111.375364 313.452116 
L 108.845994 313.654224 
L 106.23974 314.063817 
L 103.681743 314.667958 
L 101.293172 315.44905 
L 99.18849 316.384793 
L 97.663533 317.309395 
L 96.64372 318.164276 
L 95.926796 319.061371 
L 95.580757 319.829169 
L 95.474671 320.603584 
L 95.613928 321.372351 
L 95.999197 322.122354 
L 96.62658 322.840344 
L 97.487356 323.513956 
L 98.808398 324.249534 
L 100.411342 324.894477 
L 102.580203 325.522154 
L 105.355486 326.065496 
L 108.320996 326.416893 
L 111.706717 326.581572 
L 112.444047 326.547322 
L 113.164052 326.348622 
L 113.865457 325.985604 
L 114.886109 325.156566 
L 115.880833 323.99976 
L 117.211116 322.030146 
L 123.287933 312.14882 
L 125.215973 309.577538 
L 127.471205 306.907429 
L 130.090369 304.160678 
L 133.103639 301.351982 
L 136.530695 298.505022 
L 140.384462 295.633442 
L 144.668009 292.757697 
L 149.377789 289.895151 
L 154.505221 287.059348 
L 160.035829 284.271167 
L 165.953765 281.5443 
L 172.240339 278.896198 
L 178.875613 276.343741 
L 185.839042 273.90053 
L 193.10829 271.583631 
L 200.660975 269.403513 
L 208.473397 267.370846 
L 216.521767 265.488853 
L 224.78112 263.760189 
L 233.226748 262.175461 
L 244.731407 260.275135 
L 256.454507 258.594884 
L 268.325663 257.114408 
L 283.260487 255.497493 
L 301.127868 253.803254 
L 324.443045 251.825412 
L 364.750384 248.451269 
L 381.326701 246.824666 
L 396.198086 245.124487 
L 409.26806 243.386126 
L 420.499733 241.668635 
L 431.101188 239.818871 
L 439.398168 238.177282 
L 444.861555 236.894278 
L 448.296493 235.874303 
L 450.345496 235.061399 
L 451.718097 234.269 
L 452.372956 233.642169 
L 452.672342 233.015495 
L 452.685986 232.54229 
L 452.453912 231.902812 
L 451.972182 231.249208 
L 451.080562 230.40552 
L 449.173166 228.972247 
L 445.289914 226.124267 
L 443.518256 224.511687 
L 442.463742 223.287473 
L 441.649872 222.012601 
L 441.203601 220.963907 
L 440.959597 219.896028 
L 440.930983 218.814087 
L 441.125822 217.721935 
L 441.547601 216.623081 
L 442.195939 215.520951 
L 443.067195 214.418889 
L 444.45958 213.046341 
L 446.171511 211.685148 
L 448.613338 210.075042 
L 451.429758 208.49951 
L 455.111323 206.716692 
L 459.716541 204.767963 
L 465.21097 202.711543 
L 471.417719 200.625729 
L 479.629725 198.11572 
L 489.510491 195.104563 
L 491.311455 194.330972 
L 492.014748 193.817609 
L 492.178361 193.429058 
L 492.041722 193.142803 
L 491.552068 192.813465 
L 490.526763 192.454403 
L 488.4938 192.021029 
L 484.681384 191.466101 
L 470.05857 189.50074 
L 465.945152 188.66149 
L 463.147121 187.861749 
L 461.431937 187.174957 
L 460.10738 186.40724 
L 459.33689 185.704037 
L 458.954645 185.100845 
L 458.788579 184.46426 
L 458.841717 183.798683 
L 459.112744 183.10929 
L 459.749474 182.223126 
L 460.701018 181.319919 
L 462.227305 180.225828 
L 464.131633 179.130337 
L 466.766733 177.857919 
L 470.678777 176.237351 
L 475.991937 174.306146 
L 482.516619 172.180989 
L 496.647344 167.70486 
L 497.522428 167.177705 
L 497.728174 166.851378 
L 497.644449 166.62256 
L 497.240331 166.37922 
L 496.3398 166.151033 
L 494.495869 165.947478 
L 490.945257 165.816021 
L 483.418762 165.810378 
L 471.75145 165.780206 
L 467.255762 165.555424 
L 464.40048 165.203025 
L 462.855223 164.803496 
L 462.183066 164.440478 
L 461.961701 164.103149 
L 462.01188 163.814918 
L 462.35904 163.437315 
L 463.183075 162.967869 
L 464.673313 162.411372 
L 466.999979 161.78194 
L 470.679934 161.032701 
L 475.440851 160.293293 
L 481.069901 159.634286 
L 487.09605 159.144893 
L 492.362992 158.926715 
L 495.938832 158.974916 
L 497.614494 159.181994 
L 497.980724 159.40714 
L 497.885524 159.565381 
L 497.33969 159.845949 
L 495.673503 160.366462 
L 492.083249 161.222893 
L 485.074851 162.631492 
L 472.913103 164.813471 
L 460.977154 166.96354 
L 461.090766 166.97356 
L 462.886029 166.799712 
L 472.171357 165.61915 
L 495.307294 162.44959 
L 496.556067 162.116332 
L 496.54665 162.105121 
L 496.223517 162.081126 
L 494.515263 162.241017 
L 489.131979 163.007474 
L 476.782154 165.00382 
L 462.439237 167.536373 
L 461.216453 167.845329 
L 461.264822 167.872986 
L 461.937319 167.892069 
L 466.444934 167.701749 
L 480.920221 167.10628 
L 488.877157 167.003195 
L 493.669315 167.141016 
L 495.983303 167.408959 
L 496.644867 167.659356 
L 496.712197 167.880053 
L 496.447147 168.139157 
L 495.544086 168.570827 
L 493.550289 169.242433 
L 489.295789 170.409629 
L 480.733249 172.487488 
L 464.680453 176.368877 
L 461.390192 177.379695 
L 460.679034 177.773709 
L 460.733824 177.917559 
L 461.225548 178.019227 
L 462.793332 178.032419 
L 466.23923 177.813619 
L 473.04525 177.135584 
L 483.60814 175.848805 
L 491.673604 174.678691 
L 494.743064 174.051009 
L 495.432016 173.747128 
L 495.348976 173.675266 
L 494.732235 173.630842 
L 492.646242 173.775855 
L 487.615985 174.401546 
L 477.984914 175.856561 
L 464.702989 178.098476 
L 460.586428 178.900387 
L 460.700186 178.915673 
L 462.409407 178.815876 
L 487.155353 177.066472 
L 493.849004 176.846514 
L 495.85246 176.944606 
L 496.025697 177.066464 
L 496.00798 177.092054 
L 495.629291 177.279539 
L 494.019449 177.726975 
L 489.29413 178.763367 
L 474.618543 181.681313 
L 462.517294 184.184366 
L 460.503673 184.758946 
L 460.523342 184.79651 
L 460.601056 184.810558 
L 461.578148 184.766518 
L 465.275361 184.329723 
L 473.571468 183.109803 
L 484.089842 181.346188 
L 490.346793 180.109855 
L 493.566913 179.269529 
L 494.861268 178.727567 
L 495.14645 178.4305 
L 495.081983 178.269503 
L 494.724452 178.115617 
L 493.733586 177.99315 
L 491.695784 177.991491 
L 487.869363 178.229441 
L 481.011186 178.906563 
L 469.149741 180.333132 
L 461.089063 181.227428 
L 460.619738 181.199602 
L 460.787154 181.128235 
L 462.220776 180.852009 
L 467.349534 180.131989 
L 477.165555 178.984007 
L 488.74779 177.85255 
L 496.079879 177.325576 
L 496.116728 177.344296 
L 495.914274 177.407569 
L 493.213925 177.897746 
L 460.650245 183.406093 
L 480.172616 180.015999 
L 488.379941 178.343146 
L 492.60429 177.272073 
L 494.46781 176.605441 
L 495.214943 176.152018 
L 495.36153 175.876084 
L 495.250652 175.690266 
L 494.836706 175.506373 
L 493.771291 175.34309 
L 491.648366 175.289073 
L 487.733452 175.454872 
L 481.242881 175.98344 
L 469.773909 177.178294 
L 462.01805 177.909935 
L 460.880463 177.85332 
L 461.048464 177.758119 
L 462.115835 177.50365 
L 465.566281 176.939476 
L 473.315241 175.925835 
L 483.904605 174.770192 
L 494.121774 173.869774 
L 496.355194 173.764205 
L 496.213754 173.818989 
L 494.156705 174.202353 
L 474.498493 177.491873 
L 460.780256 179.891306 
L 460.944478 179.880202 
L 464.653347 179.326848 
L 476.649526 177.320885 
L 487.029094 175.394508 
L 492.323864 174.210348 
L 494.591933 173.510922 
L 495.511233 173.032201 
L 495.664818 172.784102 
L 495.558312 172.620339 
L 495.148283 172.463751 
L 494.085641 172.338771 
L 491.962005 172.333934 
L 488.039321 172.562558 
L 481.093423 173.215232 
L 468.492965 174.663832 
L 461.488912 175.372232 
L 460.995794 175.338549 
L 461.093929 175.283824 
L 462.191875 175.056102 
L 466.254663 174.483824 
L 474.675848 173.531393 
L 485.262548 172.55922 
L 493.676948 171.994337 
L 496.41408 171.973911 
L 496.455159 172.014045 
L 496.376415 172.068405 
L 495.600719 172.287971 
L 491.845459 173.051172 
L 477.358245 175.693526 
L 462.076966 178.560119 
L 460.792629 178.892346 
L 460.938803 178.910881 
L 462.574384 178.742324 
L 469.102911 177.812032 
L 481.185802 175.86489 
L 489.646319 174.315116 
L 493.553957 173.410273 
L 495.247297 172.817808 
L 495.668764 172.484611 
L 495.626529 172.333903 
L 495.293556 172.192363 
L 494.331034 172.087086 
L 492.047362 172.120182 
L 487.774307 172.440988 
L 480.335174 173.243386 
L 465.533486 175.116395 
L 461.198769 175.583543 
L 461.198769 175.583543 
" style="fill:none;stroke:#d62728;stroke-linecap:square;stroke-opacity:0.7;stroke-width:1.5;"/>
   </g>
   <g id="line2d_26">
    <path clip-path="url(#p3fcf190f4e)" d="M 107.175391 413.180971 
L 458.475948 254.981456 
L 458.475948 254.981456 
" style="fill:none;stroke:#000000;stroke-dasharray:5.55,2.4;stroke-dashoffset:0;stroke-opacity:0.595;stroke-width:1.5;"/>
   </g>
   <g id="legend_1">
    <g id="patch_6">
     <path d="M 460.49375 88.034375 
L 545.6 88.034375 
Q 547.6 88.034375 547.6 86.034375 
L 547.6 43 
Q 547.6 41 545.6 41 
L 460.49375 41 
Q 458.49375 41 458.49375 43 
L 458.49375 86.034375 
Q 458.49375 88.034375 460.49375 88.034375 
z
" style="fill:#ffffff;opacity:0.8;stroke:#cccccc;stroke-linejoin:miter;"/>
    </g>
    <g id="line2d_27">
     <path d="M 462.49375 49.098437 
L 482.49375 49.098437 
" style="fill:none;stroke:#1f77b4;stroke-linecap:square;stroke-opacity:0.7;stroke-width:1.5;"/>
    </g>
    <g id="line2d_28"/>
    <g id="text_24">
     <!-- DSLPID -->
     <g transform="translate(490.49375 52.598437)scale(0.1 -0.1)">
      <defs>
       <path d="M 1259 4147 
L 1259 519 
L 2022 519 
Q 2988 519 3436 956 
Q 3884 1394 3884 2338 
Q 3884 3275 3436 3711 
Q 2988 4147 2022 4147 
L 1259 4147 
z
M 628 4666 
L 1925 4666 
Q 3281 4666 3915 4102 
Q 4550 3538 4550 2338 
Q 4550 1131 3912 565 
Q 3275 0 1925 0 
L 628 0 
L 628 4666 
z
" id="DejaVuSans-44" transform="scale(0.015625)"/>
       <path d="M 3425 4513 
L 3425 3897 
Q 3066 4069 2747 4153 
Q 2428 4238 2131 4238 
Q 1616 4238 1336 4038 
Q 1056 3838 1056 3469 
Q 1056 3159 1242 3001 
Q 1428 2844 1947 2747 
L 2328 2669 
Q 3034 2534 3370 2195 
Q 3706 1856 3706 1288 
Q 3706 609 3251 259 
Q 2797 -91 1919 -91 
Q 1588 -91 1214 -16 
Q 841 59 441 206 
L 441 856 
Q 825 641 1194 531 
Q 1563 422 1919 422 
Q 2459 422 2753 634 
Q 3047 847 3047 1241 
Q 3047 1584 2836 1778 
Q 2625 1972 2144 2069 
L 1759 2144 
Q 1053 2284 737 2584 
Q 422 2884 422 3419 
Q 422 4038 858 4394 
Q 1294 4750 2059 4750 
Q 2388 4750 2728 4690 
Q 3069 4631 3425 4513 
z
" id="DejaVuSans-53" transform="scale(0.015625)"/>
       <path d="M 628 4666 
L 1259 4666 
L 1259 531 
L 3531 531 
L 3531 0 
L 628 0 
L 628 4666 
z
" id="DejaVuSans-4c" transform="scale(0.015625)"/>
       <path d="M 1259 4147 
L 1259 2394 
L 2053 2394 
Q 2494 2394 2734 2622 
Q 2975 2850 2975 3272 
Q 2975 3691 2734 3919 
Q 2494 4147 2053 4147 
L 1259 4147 
z
M 628 4666 
L 2053 4666 
Q 2838 4666 3239 4311 
Q 3641 3956 3641 3272 
Q 3641 2581 3239 2228 
Q 2838 1875 2053 1875 
L 1259 1875 
L 1259 0 
L 628 0 
L 628 4666 
z
" id="DejaVuSans-50" transform="scale(0.015625)"/>
       <path d="M 628 4666 
L 1259 4666 
L 1259 0 
L 628 0 
L 628 4666 
z
" id="DejaVuSans-49" transform="scale(0.015625)"/>
      </defs>
      <use xlink:href="#DejaVuSans-44"/>
      <use x="77.001953" xlink:href="#DejaVuSans-53"/>
      <use x="140.478516" xlink:href="#DejaVuSans-4c"/>
      <use x="196.191406" xlink:href="#DejaVuSans-50"/>
      <use x="256.494141" xlink:href="#DejaVuSans-49"/>
      <use x="285.986328" xlink:href="#DejaVuSans-44"/>
     </g>
    </g>
    <g id="line2d_29">
     <path d="M 462.49375 63.776562 
L 482.49375 63.776562 
" style="fill:none;stroke:#d62728;stroke-linecap:square;stroke-opacity:0.7;stroke-width:1.5;"/>
    </g>
    <g id="line2d_30"/>
    <g id="text_25">
     <!-- LSTM -->
     <g transform="translate(490.49375 67.276562)scale(0.1 -0.1)">
      <defs>
       <path d="M -19 4666 
L 3928 4666 
L 3928 4134 
L 2272 4134 
L 2272 0 
L 1638 0 
L 1638 4134 
L -19 4134 
L -19 4666 
z
" id="DejaVuSans-54" transform="scale(0.015625)"/>
       <path d="M 628 4666 
L 1569 4666 
L 2759 1491 
L 3956 4666 
L 4897 4666 
L 4897 0 
L 4281 0 
L 4281 4097 
L 3078 897 
L 2444 897 
L 1241 4097 
L 1241 0 
L 628 0 
L 628 4666 
z
" id="DejaVuSans-4d" transform="scale(0.015625)"/>
      </defs>
      <use xlink:href="#DejaVuSans-4c"/>
      <use x="55.712891" xlink:href="#DejaVuSans-53"/>
      <use x="119.189453" xlink:href="#DejaVuSans-54"/>
      <use x="180.273438" xlink:href="#DejaVuSans-4d"/>
     </g>
    </g>
    <g id="line2d_31">
     <path d="M 462.49375 78.454687 
L 482.49375 78.454687 
" style="fill:none;stroke:#000000;stroke-dasharray:5.55,2.4;stroke-dashoffset:0;stroke-opacity:0.595;stroke-width:1.5;"/>
    </g>
    <g id="line2d_32"/>
    <g id="text_26">
     <!-- Referencia -->
     <g transform="translate(490.49375 81.954687)scale(0.1 -0.1)">
      <defs>
       <path d="M 2841 2188 
Q 3044 2119 3236 1894 
Q 3428 1669 3622 1275 
L 4263 0 
L 3584 0 
L 2988 1197 
Q 2756 1666 2539 1819 
Q 2322 1972 1947 1972 
L 1259 1972 
L 1259 0 
L 628 0 
L 628 4666 
L 2053 4666 
Q 2853 4666 3247 4331 
Q 3641 3997 3641 3322 
Q 3641 2881 3436 2590 
Q 3231 2300 2841 2188 
z
M 1259 4147 
L 1259 2491 
L 2053 2491 
Q 2509 2491 2742 2702 
Q 2975 2913 2975 3322 
Q 2975 3731 2742 3939 
Q 2509 4147 2053 4147 
L 1259 4147 
z
" id="DejaVuSans-52" transform="scale(0.015625)"/>
       <path d="M 3597 1894 
L 3597 1613 
L 953 1613 
Q 991 1019 1311 708 
Q 1631 397 2203 397 
Q 2534 397 2845 478 
Q 3156 559 3463 722 
L 3463 178 
Q 3153 47 2828 -22 
Q 2503 -91 2169 -91 
Q 1331 -91 842 396 
Q 353 884 353 1716 
Q 353 2575 817 3079 
Q 1281 3584 2069 3584 
Q 2775 3584 3186 3129 
Q 3597 2675 3597 1894 
z
M 3022 2063 
Q 3016 2534 2758 2815 
Q 2500 3097 2075 3097 
Q 1594 3097 1305 2825 
Q 1016 2553 972 2059 
L 3022 2063 
z
" id="DejaVuSans-65" transform="scale(0.015625)"/>
       <path d="M 2375 4863 
L 2375 4384 
L 1825 4384 
Q 1516 4384 1395 4259 
Q 1275 4134 1275 3809 
L 1275 3500 
L 2222 3500 
L 2222 3053 
L 1275 3053 
L 1275 0 
L 697 0 
L 697 3053 
L 147 3053 
L 147 3500 
L 697 3500 
L 697 3744 
Q 697 4328 969 4595 
Q 1241 4863 1831 4863 
L 2375 4863 
z
" id="DejaVuSans-66" transform="scale(0.015625)"/>
       <path d="M 2631 2963 
Q 2534 3019 2420 3045 
Q 2306 3072 2169 3072 
Q 1681 3072 1420 2755 
Q 1159 2438 1159 1844 
L 1159 0 
L 581 0 
L 581 3500 
L 1159 3500 
L 1159 2956 
Q 1341 3275 1631 3429 
Q 1922 3584 2338 3584 
Q 2397 3584 2469 3576 
Q 2541 3569 2628 3553 
L 2631 2963 
z
" id="DejaVuSans-72" transform="scale(0.015625)"/>
       <path d="M 3513 2113 
L 3513 0 
L 2938 0 
L 2938 2094 
Q 2938 2591 2744 2837 
Q 2550 3084 2163 3084 
Q 1697 3084 1428 2787 
Q 1159 2491 1159 1978 
L 1159 0 
L 581 0 
L 581 3500 
L 1159 3500 
L 1159 2956 
Q 1366 3272 1645 3428 
Q 1925 3584 2291 3584 
Q 2894 3584 3203 3211 
Q 3513 2838 3513 2113 
z
" id="DejaVuSans-6e" transform="scale(0.015625)"/>
       <path d="M 3122 3366 
L 3122 2828 
Q 2878 2963 2633 3030 
Q 2388 3097 2138 3097 
Q 1578 3097 1268 2742 
Q 959 2388 959 1747 
Q 959 1106 1268 751 
Q 1578 397 2138 397 
Q 2388 397 2633 464 
Q 2878 531 3122 666 
L 3122 134 
Q 2881 22 2623 -34 
Q 2366 -91 2075 -91 
Q 1284 -91 818 406 
Q 353 903 353 1747 
Q 353 2603 823 3093 
Q 1294 3584 2113 3584 
Q 2378 3584 2631 3529 
Q 2884 3475 3122 3366 
z
" id="DejaVuSans-63" transform="scale(0.015625)"/>
       <path d="M 603 3500 
L 1178 3500 
L 1178 0 
L 603 0 
L 603 3500 
z
M 603 4863 
L 1178 4863 
L 1178 4134 
L 603 4134 
L 603 4863 
z
" id="DejaVuSans-69" transform="scale(0.015625)"/>
       <path d="M 2194 1759 
Q 1497 1759 1228 1600 
Q 959 1441 959 1056 
Q 959 750 1161 570 
Q 1363 391 1709 391 
Q 2188 391 2477 730 
Q 2766 1069 2766 1631 
L 2766 1759 
L 2194 1759 
z
M 3341 1997 
L 3341 0 
L 2766 0 
L 2766 531 
Q 2569 213 2275 61 
Q 1981 -91 1556 -91 
Q 1019 -91 701 211 
Q 384 513 384 1019 
Q 384 1609 779 1909 
Q 1175 2209 1959 2209 
L 2766 2209 
L 2766 2266 
Q 2766 2663 2505 2880 
Q 2244 3097 1772 3097 
Q 1472 3097 1187 3025 
Q 903 2953 641 2809 
L 641 3341 
Q 956 3463 1253 3523 
Q 1550 3584 1831 3584 
Q 2591 3584 2966 3190 
Q 3341 2797 3341 1997 
z
" id="DejaVuSans-61" transform="scale(0.015625)"/>
      </defs>
      <use xlink:href="#DejaVuSans-52"/>
      <use x="64.982422" xlink:href="#DejaVuSans-65"/>
      <use x="126.505859" xlink:href="#DejaVuSans-66"/>
      <use x="161.710938" xlink:href="#DejaVuSans-65"/>
      <use x="223.234375" xlink:href="#DejaVuSans-72"/>
      <use x="262.097656" xlink:href="#DejaVuSans-65"/>
      <use x="323.621094" xlink:href="#DejaVuSans-6e"/>
      <use x="387" xlink:href="#DejaVuSans-63"/>
      <use x="441.980469" xlink:href="#DejaVuSans-69"/>
      <use x="469.763672" xlink:href="#DejaVuSans-61"/>
     </g>
    </g>
   </g>
  </g>
  <g id="text_27">
   <!-- Vista 3D -->
   <g transform="translate(254.48625 23.6775)scale(0.16 -0.16)">
    <defs>
     <path d="M 1831 0 
L 50 4666 
L 709 4666 
L 2188 738 
L 3669 4666 
L 4325 4666 
L 2547 0 
L 1831 0 
z
" id="DejaVuSans-56" transform="scale(0.015625)"/>
     <path d="M 2834 3397 
L 2834 2853 
Q 2591 2978 2328 3040 
Q 2066 3103 1784 3103 
Q 1356 3103 1142 2972 
Q 928 2841 928 2578 
Q 928 2378 1081 2264 
Q 1234 2150 1697 2047 
L 1894 2003 
Q 2506 1872 2764 1633 
Q 3022 1394 3022 966 
Q 3022 478 2636 193 
Q 2250 -91 1575 -91 
Q 1294 -91 989 -36 
Q 684 19 347 128 
L 347 722 
Q 666 556 975 473 
Q 1284 391 1588 391 
Q 1994 391 2212 530 
Q 2431 669 2431 922 
Q 2431 1156 2273 1281 
Q 2116 1406 1581 1522 
L 1381 1569 
Q 847 1681 609 1914 
Q 372 2147 372 2553 
Q 372 3047 722 3315 
Q 1072 3584 1716 3584 
Q 2034 3584 2315 3537 
Q 2597 3491 2834 3397 
z
" id="DejaVuSans-73" transform="scale(0.015625)"/>
     <path d="M 1172 4494 
L 1172 3500 
L 2356 3500 
L 2356 3053 
L 1172 3053 
L 1172 1153 
Q 1172 725 1289 603 
Q 1406 481 1766 481 
L 2356 481 
L 2356 0 
L 1766 0 
Q 1100 0 847 248 
Q 594 497 594 1153 
L 594 3053 
L 172 3053 
L 172 3500 
L 594 3500 
L 594 4494 
L 1172 4494 
z
" id="DejaVuSans-74" transform="scale(0.015625)"/>
     <path d="M 2597 2516 
Q 3050 2419 3304 2112 
Q 3559 1806 3559 1356 
Q 3559 666 3084 287 
Q 2609 -91 1734 -91 
Q 1441 -91 1130 -33 
Q 819 25 488 141 
L 488 750 
Q 750 597 1062 519 
Q 1375 441 1716 441 
Q 2309 441 2620 675 
Q 2931 909 2931 1356 
Q 2931 1769 2642 2001 
Q 2353 2234 1838 2234 
L 1294 2234 
L 1294 2753 
L 1863 2753 
Q 2328 2753 2575 2939 
Q 2822 3125 2822 3475 
Q 2822 3834 2567 4026 
Q 2313 4219 1838 4219 
Q 1578 4219 1281 4162 
Q 984 4106 628 3988 
L 628 4550 
Q 988 4650 1302 4700 
Q 1616 4750 1894 4750 
Q 2613 4750 3031 4423 
Q 3450 4097 3450 3541 
Q 3450 3153 3228 2886 
Q 3006 2619 2597 2516 
z
" id="DejaVuSans-33" transform="scale(0.015625)"/>
    </defs>
    <use xlink:href="#DejaVuSans-56"/>
    <use x="66.158203" xlink:href="#DejaVuSans-69"/>
    <use x="93.941406" xlink:href="#DejaVuSans-73"/>
    <use x="146.041016" xlink:href="#DejaVuSans-74"/>
    <use x="185.25" xlink:href="#DejaVuSans-61"/>
    <use x="246.529297" xlink:href="#DejaVuSans-20"/>
    <use x="278.316406" xlink:href="#DejaVuSans-33"/>
    <use x="341.939453" xlink:href="#DejaVuSans-44"/>
   </g>
  </g>
 </g>
 <defs>
  <clipPath id="p3fcf190f4e">
   <rect height="529.2" width="529.2" x="23.4" y="36"/>
  </clipPath>
 </defs>
</svg>
