<?xml version="1.0" encoding="utf-8" standalone="no"?>
<!DOCTYPE svg PUBLIC "-//W3C//DTD SVG 1.1//EN"
  "http://www.w3.org/Graphics/SVG/1.1/DTD/svg11.dtd">
<svg height="288pt" version="1.1" viewBox="0 0 576 288" width="576pt" xmlns="http://www.w3.org/2000/svg" xmlns:xlink="http://www.w3.org/1999/xlink">
 <metadata>
  <rdf:RDF xmlns:cc="http://creativecommons.org/ns#" xmlns:dc="http://purl.org/dc/elements/1.1/" xmlns:rdf="http://www.w3.org/1999/02/22-rdf-syntax-ns#">
   <cc:Work>
    <dc:type rdf:resource="http://purl.org/dc/dcmitype/StillImage"/>
    <dc:date>2022-02-26T04:01:02.619587</dc:date>
    <dc:format>image/svg+xml</dc:format>
    <dc:creator>
     <cc:Agent>
      <dc:title>Matplotlib v3.4.3, https://matplotlib.org/</dc:title>
     </cc:Agent>
    </dc:creator>
   </cc:Work>
  </rdf:RDF>
 </metadata>
 <defs>
  <style type="text/css">*{stroke-linecap:butt;stroke-linejoin:round;}</style>
 </defs>
 <g id="figure_1">
  <g id="patch_1">
   <path d="M 0 288 
L 576 288 
L 576 0 
L 0 0 
z
" style="fill:#ffffff;"/>
  </g>
  <g id="axes_1">
   <g id="patch_2">
    <path d="M 82.82 231.64 
L 250.605 231.64 
L 250.605 66.48 
L 82.82 66.48 
z
" style="fill:#ffffff;"/>
   </g>
   <g id="matplotlib.axis_1">
    <g id="xtick_1">
     <g id="line2d_1">
      <path clip-path="url(#p4db09afe6f)" d="M 96.541599 231.64 
L 96.541599 66.48 
" style="fill:none;stroke:#b0b0b0;stroke-linecap:square;stroke-width:0.8;"/>
     </g>
     <g id="line2d_2">
      <defs>
       <path d="M 0 0 
L 0 3.5 
" id="m8f7cb8ca6f" style="stroke:#000000;stroke-width:0.8;"/>
      </defs>
      <g>
       <use style="stroke:#000000;stroke-width:0.8;" x="96.541599" xlink:href="#m8f7cb8ca6f" y="231.64"/>
      </g>
     </g>
     <g id="text_1">
      <!-- 0.00 -->
      <g transform="translate(85.408787 246.238438)scale(0.1 -0.1)">
       <defs>
        <path d="M 2034 4250 
Q 1547 4250 1301 3770 
Q 1056 3291 1056 2328 
Q 1056 1369 1301 889 
Q 1547 409 2034 409 
Q 2525 409 2770 889 
Q 3016 1369 3016 2328 
Q 3016 3291 2770 3770 
Q 2525 4250 2034 4250 
z
M 2034 4750 
Q 2819 4750 3233 4129 
Q 3647 3509 3647 2328 
Q 3647 1150 3233 529 
Q 2819 -91 2034 -91 
Q 1250 -91 836 529 
Q 422 1150 422 2328 
Q 422 3509 836 4129 
Q 1250 4750 2034 4750 
z
" id="DejaVuSans-30" transform="scale(0.015625)"/>
        <path d="M 684 794 
L 1344 794 
L 1344 0 
L 684 0 
L 684 794 
z
" id="DejaVuSans-2e" transform="scale(0.015625)"/>
       </defs>
       <use xlink:href="#DejaVuSans-30"/>
       <use x="63.623047" xlink:href="#DejaVuSans-2e"/>
       <use x="95.410156" xlink:href="#DejaVuSans-30"/>
       <use x="159.033203" xlink:href="#DejaVuSans-30"/>
      </g>
     </g>
    </g>
    <g id="xtick_2">
     <g id="line2d_3">
      <path clip-path="url(#p4db09afe6f)" d="M 162.582766 231.64 
L 162.582766 66.48 
" style="fill:none;stroke:#b0b0b0;stroke-linecap:square;stroke-width:0.8;"/>
     </g>
     <g id="line2d_4">
      <g>
       <use style="stroke:#000000;stroke-width:0.8;" x="162.582766" xlink:href="#m8f7cb8ca6f" y="231.64"/>
      </g>
     </g>
     <g id="text_2">
      <!-- 0.05 -->
      <g transform="translate(151.449954 246.238438)scale(0.1 -0.1)">
       <defs>
        <path d="M 691 4666 
L 3169 4666 
L 3169 4134 
L 1269 4134 
L 1269 2991 
Q 1406 3038 1543 3061 
Q 1681 3084 1819 3084 
Q 2600 3084 3056 2656 
Q 3513 2228 3513 1497 
Q 3513 744 3044 326 
Q 2575 -91 1722 -91 
Q 1428 -91 1123 -41 
Q 819 9 494 109 
L 494 744 
Q 775 591 1075 516 
Q 1375 441 1709 441 
Q 2250 441 2565 725 
Q 2881 1009 2881 1497 
Q 2881 1984 2565 2268 
Q 2250 2553 1709 2553 
Q 1456 2553 1204 2497 
Q 953 2441 691 2322 
L 691 4666 
z
" id="DejaVuSans-35" transform="scale(0.015625)"/>
       </defs>
       <use xlink:href="#DejaVuSans-30"/>
       <use x="63.623047" xlink:href="#DejaVuSans-2e"/>
       <use x="95.410156" xlink:href="#DejaVuSans-30"/>
       <use x="159.033203" xlink:href="#DejaVuSans-35"/>
      </g>
     </g>
    </g>
    <g id="xtick_3">
     <g id="line2d_5">
      <path clip-path="url(#p4db09afe6f)" d="M 228.623933 231.64 
L 228.623933 66.48 
" style="fill:none;stroke:#b0b0b0;stroke-linecap:square;stroke-width:0.8;"/>
     </g>
     <g id="line2d_6">
      <g>
       <use style="stroke:#000000;stroke-width:0.8;" x="228.623933" xlink:href="#m8f7cb8ca6f" y="231.64"/>
      </g>
     </g>
     <g id="text_3">
      <!-- 0.10 -->
      <g transform="translate(217.491121 246.238438)scale(0.1 -0.1)">
       <defs>
        <path d="M 794 531 
L 1825 531 
L 1825 4091 
L 703 3866 
L 703 4441 
L 1819 4666 
L 2450 4666 
L 2450 531 
L 3481 531 
L 3481 0 
L 794 0 
L 794 531 
z
" id="DejaVuSans-31" transform="scale(0.015625)"/>
       </defs>
       <use xlink:href="#DejaVuSans-30"/>
       <use x="63.623047" xlink:href="#DejaVuSans-2e"/>
       <use x="95.410156" xlink:href="#DejaVuSans-31"/>
       <use x="159.033203" xlink:href="#DejaVuSans-30"/>
      </g>
     </g>
    </g>
    <g id="text_4">
     <!-- x (m) -->
     <g transform="translate(153.392187 259.916562)scale(0.1 -0.1)">
      <defs>
       <path d="M 3513 3500 
L 2247 1797 
L 3578 0 
L 2900 0 
L 1881 1375 
L 863 0 
L 184 0 
L 1544 1831 
L 300 3500 
L 978 3500 
L 1906 2253 
L 2834 3500 
L 3513 3500 
z
" id="DejaVuSans-78" transform="scale(0.015625)"/>
       <path id="DejaVuSans-20" transform="scale(0.015625)"/>
       <path d="M 1984 4856 
Q 1566 4138 1362 3434 
Q 1159 2731 1159 2009 
Q 1159 1288 1364 580 
Q 1569 -128 1984 -844 
L 1484 -844 
Q 1016 -109 783 600 
Q 550 1309 550 2009 
Q 550 2706 781 3412 
Q 1013 4119 1484 4856 
L 1984 4856 
z
" id="DejaVuSans-28" transform="scale(0.015625)"/>
       <path d="M 3328 2828 
Q 3544 3216 3844 3400 
Q 4144 3584 4550 3584 
Q 5097 3584 5394 3201 
Q 5691 2819 5691 2113 
L 5691 0 
L 5113 0 
L 5113 2094 
Q 5113 2597 4934 2840 
Q 4756 3084 4391 3084 
Q 3944 3084 3684 2787 
Q 3425 2491 3425 1978 
L 3425 0 
L 2847 0 
L 2847 2094 
Q 2847 2600 2669 2842 
Q 2491 3084 2119 3084 
Q 1678 3084 1418 2786 
Q 1159 2488 1159 1978 
L 1159 0 
L 581 0 
L 581 3500 
L 1159 3500 
L 1159 2956 
Q 1356 3278 1631 3431 
Q 1906 3584 2284 3584 
Q 2666 3584 2933 3390 
Q 3200 3197 3328 2828 
z
" id="DejaVuSans-6d" transform="scale(0.015625)"/>
       <path d="M 513 4856 
L 1013 4856 
Q 1481 4119 1714 3412 
Q 1947 2706 1947 2009 
Q 1947 1309 1714 600 
Q 1481 -109 1013 -844 
L 513 -844 
Q 928 -128 1133 580 
Q 1338 1288 1338 2009 
Q 1338 2731 1133 3434 
Q 928 4138 513 4856 
z
" id="DejaVuSans-29" transform="scale(0.015625)"/>
      </defs>
      <use xlink:href="#DejaVuSans-78"/>
      <use x="59.179688" xlink:href="#DejaVuSans-20"/>
      <use x="90.966797" xlink:href="#DejaVuSans-28"/>
      <use x="129.980469" xlink:href="#DejaVuSans-6d"/>
      <use x="227.392578" xlink:href="#DejaVuSans-29"/>
     </g>
    </g>
   </g>
   <g id="matplotlib.axis_2">
    <g id="ytick_1">
     <g id="line2d_7">
      <path clip-path="url(#p4db09afe6f)" d="M 82.82 219.888703 
L 250.605 219.888703 
" style="fill:none;stroke:#b0b0b0;stroke-linecap:square;stroke-width:0.8;"/>
     </g>
     <g id="line2d_8">
      <defs>
       <path d="M 0 0 
L -3.5 0 
" id="me46050d824" style="stroke:#000000;stroke-width:0.8;"/>
      </defs>
      <g>
       <use style="stroke:#000000;stroke-width:0.8;" x="82.82" xlink:href="#me46050d824" y="219.888703"/>
      </g>
     </g>
     <g id="text_5">
      <!-- 0.00 -->
      <g transform="translate(53.554375 223.687921)scale(0.1 -0.1)">
       <use xlink:href="#DejaVuSans-30"/>
       <use x="63.623047" xlink:href="#DejaVuSans-2e"/>
       <use x="95.410156" xlink:href="#DejaVuSans-30"/>
       <use x="159.033203" xlink:href="#DejaVuSans-30"/>
      </g>
     </g>
    </g>
    <g id="ytick_2">
     <g id="line2d_9">
      <path clip-path="url(#p4db09afe6f)" d="M 82.82 193.49558 
L 250.605 193.49558 
" style="fill:none;stroke:#b0b0b0;stroke-linecap:square;stroke-width:0.8;"/>
     </g>
     <g id="line2d_10">
      <g>
       <use style="stroke:#000000;stroke-width:0.8;" x="82.82" xlink:href="#me46050d824" y="193.49558"/>
      </g>
     </g>
     <g id="text_6">
      <!-- 0.02 -->
      <g transform="translate(53.554375 197.294798)scale(0.1 -0.1)">
       <defs>
        <path d="M 1228 531 
L 3431 531 
L 3431 0 
L 469 0 
L 469 531 
Q 828 903 1448 1529 
Q 2069 2156 2228 2338 
Q 2531 2678 2651 2914 
Q 2772 3150 2772 3378 
Q 2772 3750 2511 3984 
Q 2250 4219 1831 4219 
Q 1534 4219 1204 4116 
Q 875 4013 500 3803 
L 500 4441 
Q 881 4594 1212 4672 
Q 1544 4750 1819 4750 
Q 2544 4750 2975 4387 
Q 3406 4025 3406 3419 
Q 3406 3131 3298 2873 
Q 3191 2616 2906 2266 
Q 2828 2175 2409 1742 
Q 1991 1309 1228 531 
z
" id="DejaVuSans-32" transform="scale(0.015625)"/>
       </defs>
       <use xlink:href="#DejaVuSans-30"/>
       <use x="63.623047" xlink:href="#DejaVuSans-2e"/>
       <use x="95.410156" xlink:href="#DejaVuSans-30"/>
       <use x="159.033203" xlink:href="#DejaVuSans-32"/>
      </g>
     </g>
    </g>
    <g id="ytick_3">
     <g id="line2d_11">
      <path clip-path="url(#p4db09afe6f)" d="M 82.82 167.102457 
L 250.605 167.102457 
" style="fill:none;stroke:#b0b0b0;stroke-linecap:square;stroke-width:0.8;"/>
     </g>
     <g id="line2d_12">
      <g>
       <use style="stroke:#000000;stroke-width:0.8;" x="82.82" xlink:href="#me46050d824" y="167.102457"/>
      </g>
     </g>
     <g id="text_7">
      <!-- 0.04 -->
      <g transform="translate(53.554375 170.901675)scale(0.1 -0.1)">
       <defs>
        <path d="M 2419 4116 
L 825 1625 
L 2419 1625 
L 2419 4116 
z
M 2253 4666 
L 3047 4666 
L 3047 1625 
L 3713 1625 
L 3713 1100 
L 3047 1100 
L 3047 0 
L 2419 0 
L 2419 1100 
L 313 1100 
L 313 1709 
L 2253 4666 
z
" id="DejaVuSans-34" transform="scale(0.015625)"/>
       </defs>
       <use xlink:href="#DejaVuSans-30"/>
       <use x="63.623047" xlink:href="#DejaVuSans-2e"/>
       <use x="95.410156" xlink:href="#DejaVuSans-30"/>
       <use x="159.033203" xlink:href="#DejaVuSans-34"/>
      </g>
     </g>
    </g>
    <g id="ytick_4">
     <g id="line2d_13">
      <path clip-path="url(#p4db09afe6f)" d="M 82.82 140.709334 
L 250.605 140.709334 
" style="fill:none;stroke:#b0b0b0;stroke-linecap:square;stroke-width:0.8;"/>
     </g>
     <g id="line2d_14">
      <g>
       <use style="stroke:#000000;stroke-width:0.8;" x="82.82" xlink:href="#me46050d824" y="140.709334"/>
      </g>
     </g>
     <g id="text_8">
      <!-- 0.06 -->
      <g transform="translate(53.554375 144.508552)scale(0.1 -0.1)">
       <defs>
        <path d="M 2113 2584 
Q 1688 2584 1439 2293 
Q 1191 2003 1191 1497 
Q 1191 994 1439 701 
Q 1688 409 2113 409 
Q 2538 409 2786 701 
Q 3034 994 3034 1497 
Q 3034 2003 2786 2293 
Q 2538 2584 2113 2584 
z
M 3366 4563 
L 3366 3988 
Q 3128 4100 2886 4159 
Q 2644 4219 2406 4219 
Q 1781 4219 1451 3797 
Q 1122 3375 1075 2522 
Q 1259 2794 1537 2939 
Q 1816 3084 2150 3084 
Q 2853 3084 3261 2657 
Q 3669 2231 3669 1497 
Q 3669 778 3244 343 
Q 2819 -91 2113 -91 
Q 1303 -91 875 529 
Q 447 1150 447 2328 
Q 447 3434 972 4092 
Q 1497 4750 2381 4750 
Q 2619 4750 2861 4703 
Q 3103 4656 3366 4563 
z
" id="DejaVuSans-36" transform="scale(0.015625)"/>
       </defs>
       <use xlink:href="#DejaVuSans-30"/>
       <use x="63.623047" xlink:href="#DejaVuSans-2e"/>
       <use x="95.410156" xlink:href="#DejaVuSans-30"/>
       <use x="159.033203" xlink:href="#DejaVuSans-36"/>
      </g>
     </g>
    </g>
    <g id="ytick_5">
     <g id="line2d_15">
      <path clip-path="url(#p4db09afe6f)" d="M 82.82 114.316211 
L 250.605 114.316211 
" style="fill:none;stroke:#b0b0b0;stroke-linecap:square;stroke-width:0.8;"/>
     </g>
     <g id="line2d_16">
      <g>
       <use style="stroke:#000000;stroke-width:0.8;" x="82.82" xlink:href="#me46050d824" y="114.316211"/>
      </g>
     </g>
     <g id="text_9">
      <!-- 0.08 -->
      <g transform="translate(53.554375 118.115429)scale(0.1 -0.1)">
       <defs>
        <path d="M 2034 2216 
Q 1584 2216 1326 1975 
Q 1069 1734 1069 1313 
Q 1069 891 1326 650 
Q 1584 409 2034 409 
Q 2484 409 2743 651 
Q 3003 894 3003 1313 
Q 3003 1734 2745 1975 
Q 2488 2216 2034 2216 
z
M 1403 2484 
Q 997 2584 770 2862 
Q 544 3141 544 3541 
Q 544 4100 942 4425 
Q 1341 4750 2034 4750 
Q 2731 4750 3128 4425 
Q 3525 4100 3525 3541 
Q 3525 3141 3298 2862 
Q 3072 2584 2669 2484 
Q 3125 2378 3379 2068 
Q 3634 1759 3634 1313 
Q 3634 634 3220 271 
Q 2806 -91 2034 -91 
Q 1263 -91 848 271 
Q 434 634 434 1313 
Q 434 1759 690 2068 
Q 947 2378 1403 2484 
z
M 1172 3481 
Q 1172 3119 1398 2916 
Q 1625 2713 2034 2713 
Q 2441 2713 2670 2916 
Q 2900 3119 2900 3481 
Q 2900 3844 2670 4047 
Q 2441 4250 2034 4250 
Q 1625 4250 1398 4047 
Q 1172 3844 1172 3481 
z
" id="DejaVuSans-38" transform="scale(0.015625)"/>
       </defs>
       <use xlink:href="#DejaVuSans-30"/>
       <use x="63.623047" xlink:href="#DejaVuSans-2e"/>
       <use x="95.410156" xlink:href="#DejaVuSans-30"/>
       <use x="159.033203" xlink:href="#DejaVuSans-38"/>
      </g>
     </g>
    </g>
    <g id="ytick_6">
     <g id="line2d_17">
      <path clip-path="url(#p4db09afe6f)" d="M 82.82 87.923088 
L 250.605 87.923088 
" style="fill:none;stroke:#b0b0b0;stroke-linecap:square;stroke-width:0.8;"/>
     </g>
     <g id="line2d_18">
      <g>
       <use style="stroke:#000000;stroke-width:0.8;" x="82.82" xlink:href="#me46050d824" y="87.923088"/>
      </g>
     </g>
     <g id="text_10">
      <!-- 0.10 -->
      <g transform="translate(53.554375 91.722306)scale(0.1 -0.1)">
       <use xlink:href="#DejaVuSans-30"/>
       <use x="63.623047" xlink:href="#DejaVuSans-2e"/>
       <use x="95.410156" xlink:href="#DejaVuSans-31"/>
       <use x="159.033203" xlink:href="#DejaVuSans-30"/>
      </g>
     </g>
    </g>
    <g id="text_11">
     <!-- y (m) -->
     <g transform="translate(47.474688 162.380313)rotate(-90)scale(0.1 -0.1)">
      <defs>
       <path d="M 2059 -325 
Q 1816 -950 1584 -1140 
Q 1353 -1331 966 -1331 
L 506 -1331 
L 506 -850 
L 844 -850 
Q 1081 -850 1212 -737 
Q 1344 -625 1503 -206 
L 1606 56 
L 191 3500 
L 800 3500 
L 1894 763 
L 2988 3500 
L 3597 3500 
L 2059 -325 
z
" id="DejaVuSans-79" transform="scale(0.015625)"/>
      </defs>
      <use xlink:href="#DejaVuSans-79"/>
      <use x="59.179688" xlink:href="#DejaVuSans-20"/>
      <use x="90.966797" xlink:href="#DejaVuSans-28"/>
      <use x="129.980469" xlink:href="#DejaVuSans-6d"/>
      <use x="227.392578" xlink:href="#DejaVuSans-29"/>
     </g>
    </g>
   </g>
   <g id="line2d_19">
    <path clip-path="url(#p4db09afe6f)" d="M 96.541599 219.888703 
L 102.505671 213.774291 
L 165.841649 149.100287 
L 191.460665 123.314686 
L 209.332097 105.61828 
L 220.466318 94.880798 
L 225.374049 90.412538 
L 226.687259 89.438237 
L 226.770795 89.461888 
L 226.759918 89.523153 
L 226.442706 90.040217 
L 225.331932 91.509367 
L 225.353545 91.447379 
L 225.966931 90.54592 
L 227.598411 88.619116 
L 230.595548 85.441496 
L 233.964951 82.18178 
L 236.039869 80.439151 
L 236.295793 80.327288 
L 236.267815 80.418275 
L 235.828628 80.919552 
L 230.101748 86.470211 
L 236.032679 80.60701 
L 230.101748 86.470211 
" style="fill:none;stroke:#1f77b4;stroke-linecap:square;stroke-opacity:0.7;stroke-width:1.5;"/>
   </g>
   <g id="line2d_20">
    <path clip-path="url(#p4db09afe6f)" d="M 96.541599 219.888703 
L 93.093098 218.104494 
L 90.774931 216.626597 
L 90.446591 216.3853 
L 91.661954 217.386385 
L 96.599426 221.711753 
L 98.120056 223.288833 
L 98.449708 223.900867 
L 98.357344 224.094463 
L 98.038314 224.124737 
L 97.312198 223.918655 
L 96.061164 223.309804 
L 94.436932 222.266527 
L 92.899709 221.031757 
L 91.804389 219.889262 
L 91.318866 219.103093 
L 91.249708 218.64455 
L 91.400873 218.393554 
L 91.738336 218.259007 
L 92.412185 218.26382 
L 93.546732 218.514418 
L 95.327076 219.144003 
L 97.652326 220.206185 
L 99.572408 221.302383 
L 100.601855 222.113437 
L 100.904633 222.579052 
L 100.863651 222.86245 
L 100.579056 223.057608 
L 99.915431 223.172113 
L 98.755101 223.12275 
L 96.949621 222.803513 
L 94.891027 222.217806 
L 92.920133 221.436082 
L 91.648091 220.724219 
L 91.062616 220.169697 
L 90.989737 219.850094 
L 91.169795 219.62316 
L 91.652181 219.440408 
L 92.735957 219.321425 
L 94.679567 219.358995 
L 98.180926 219.68088 
L 103.390586 220.390143 
L 103.369764 220.394749 
L 102.117295 220.326456 
L 98.355667 220.215328 
L 95.748864 220.340219 
L 93.861169 220.627853 
L 92.635075 221.007961 
L 91.988802 221.400908 
L 91.757566 221.74795 
L 91.778813 222.060945 
L 92.012101 222.368002 
L 92.61133 222.728158 
L 93.62933 223.040834 
L 94.947819 223.211873 
L 96.47881 223.193475 
L 98.120935 222.94567 
L 99.601304 222.506327 
L 100.993681 221.863382 
L 102.085013 221.137605 
L 102.973763 220.291987 
L 103.540827 219.478599 
L 103.882255 218.623405 
L 103.986281 217.755843 
L 103.856945 216.908257 
L 103.508617 216.114828 
L 102.961642 215.410383 
L 102.241196 214.829114 
L 101.376801 214.401865 
L 100.401722 214.15173 
L 99.351903 214.090619 
L 98.107874 214.251881 
L 96.869052 214.643819 
L 95.688655 215.236862 
L 94.493107 216.095912 
L 93.500266 217.098393 
L 92.766284 218.178254 
L 92.368436 219.147061 
L 92.235811 220.072087 
L 92.347975 220.806027 
L 92.671719 221.435047 
L 93.194746 221.927854 
L 93.895971 222.256286 
L 94.748053 222.399037 
L 95.719419 222.346057 
L 96.93109 222.049177 
L 98.197741 221.517158 
L 99.615146 220.670951 
L 100.940767 219.61018 
L 101.961705 218.526887 
L 102.80667 217.297902 
L 103.873901 215.280559 
L 105.98226 211.289462 
L 108.372931 207.249222 
L 111.755349 201.973245 
L 116.154766 195.511696 
L 121.526774 188.025326 
L 126.970645 180.802204 
L 133.04715 173.115821 
L 138.706243 166.280785 
L 144.725959 159.325286 
L 151.04005 152.351704 
L 157.566327 145.462019 
L 164.210206 138.754333 
L 170.868463 132.317087 
L 178.510607 125.250476 
L 185.855747 118.760469 
L 192.756781 112.932195 
L 199.106004 107.824658 
L 205.59646 102.900488 
L 211.205964 98.933726 
L 215.899249 95.865816 
L 220.082081 93.385299 
L 223.134175 91.810749 
L 225.12636 91.004752 
L 226.097859 90.811762 
L 226.395042 90.919646 
L 226.398152 91.13534 
L 226.152301 91.501715 
L 225.487852 92.089875 
L 224.426502 92.752214 
L 223.208137 93.262088 
L 222.140099 93.48264 
L 221.319316 93.449261 
L 220.760632 93.239054 
L 220.375918 92.859923 
L 220.190975 92.316663 
L 220.219804 91.618321 
L 220.529329 90.624793 
L 221.130791 89.463754 
L 222.154411 87.972193 
L 223.686647 86.147507 
L 225.774414 84.032246 
L 228.153194 81.935607 
L 230.691223 79.974851 
L 233.244344 78.266781 
L 235.658984 76.924029 
L 237.583265 76.110886 
L 239.001885 75.748887 
L 239.962993 75.728282 
L 240.555611 75.931933 
L 240.881814 76.252653 
L 241.057885 76.702962 
L 241.078613 77.40107 
L 240.856204 78.408569 
L 240.308223 79.771117 
L 239.373591 81.502573 
L 237.885771 83.778974 
L 235.844995 86.48219 
L 233.448922 89.279161 
L 231.394929 91.35102 
L 230.244995 92.25158 
L 229.775423 92.401386 
L 229.675301 92.240951 
L 229.779507 91.799289 
L 230.322006 90.733707 
L 231.634068 88.716064 
L 233.805508 85.789704 
L 236.744073 82.192744 
L 240.282309 78.21457 
L 242.975277 75.301975 
L 242.25553 75.925741 
L 234.501421 83.012326 
L 231.776859 85.179585 
L 229.963223 86.355133 
L 228.947984 86.776396 
L 228.434005 86.781385 
L 228.245127 86.59214 
L 228.234989 86.245307 
L 228.451532 85.657614 
L 229.076643 84.651246 
L 230.310904 83.123248 
L 232.293881 81.05633 
L 234.825948 78.753895 
L 237.459328 76.649015 
L 239.83707 75.022791 
L 241.388642 74.206243 
L 242.123154 74.024787 
L 242.377218 74.126801 
L 242.438781 74.409239 
L 242.276578 74.959482 
L 241.645679 76.123319 
L 240.236481 78.181774 
L 237.708303 81.456525 
L 233.61306 86.382355 
L 229.792024 90.675079 
L 229.790191 90.667061 
L 229.843666 90.585453 
L 231.286165 88.821121 
L 239.330668 79.002532 
L 241.173752 76.418414 
L 241.815119 75.208969 
L 241.896247 74.657634 
L 241.734403 74.52512 
L 241.412854 74.580612 
L 240.758767 74.934697 
L 239.498848 75.888489 
L 237.123356 78.009312 
L 232.611132 82.402177 
L 228.670566 86.141104 
L 227.92284 86.615578 
L 227.904442 86.509213 
L 228.195015 86.045699 
L 229.36773 84.689066 
L 231.905502 82.126329 
L 235.468581 78.837339 
L 239.084131 75.781773 
L 241.284044 74.176453 
L 241.794486 74.001267 
L 241.813372 74.167057 
L 241.518069 74.755638 
L 240.386283 76.402085 
L 236.979095 80.87267 
L 229.698394 90.401419 
L 229.694664 90.441334 
L 229.810364 90.372585 
L 230.68935 89.471616 
L 233.577415 86.162124 
L 237.425414 81.443054 
L 239.947181 78.024666 
L 241.129618 76.074627 
L 241.52063 75.048712 
L 241.48624 74.585454 
L 241.268366 74.458979 
L 240.899133 74.521786 
L 240.194672 74.887811 
L 238.891127 75.862478 
L 236.82593 77.717269 
L 233.542853 80.999669 
L 227.852967 86.811316 
L 227.921967 86.673271 
L 228.731633 85.742381 
L 231.527566 82.908179 
L 235.918407 78.774676 
L 240.034905 75.179527 
L 241.547656 74.069962 
L 241.657869 74.0894 
L 241.654863 74.137569 
L 241.453439 74.535401 
L 240.348404 76.098911 
L 235.795352 82.023106 
L 230.373087 89.207381 
L 229.693851 90.361865 
L 229.834665 90.290591 
L 230.583264 89.574067 
L 232.952819 86.944418 
L 236.584448 82.583492 
L 239.281558 79.044071 
L 240.799231 76.720798 
L 241.418879 75.393595 
L 241.504781 74.785097 
L 241.371508 74.545937 
L 241.080619 74.497079 
L 240.559379 74.676218 
L 239.636336 75.255824 
L 238.051326 76.550023 
L 235.543648 78.924206 
L 231.691758 82.916662 
L 227.908486 86.801602 
L 227.914161 86.779779 
L 228.275159 86.329054 
L 230.248826 84.273123 
L 234.327529 80.350918 
L 238.844338 76.300352 
L 241.38638 74.256328 
L 241.732176 74.122712 
L 241.740984 74.158101 
L 241.619679 74.444575 
L 240.822018 75.6112 
L 237.593922 79.832748 
L 230.524518 89.102445 
L 229.760059 90.372334 
L 229.899119 90.303216 
L 230.645151 89.591514 
L 233.012922 86.971239 
L 236.648067 82.622336 
L 239.483303 78.907431 
L 240.957267 76.629023 
L 241.50235 75.443443 
L 241.591319 74.833829 
L 241.459521 74.593211 
L 241.169292 74.54238 
L 240.647925 74.718527 
L 239.723554 75.293173 
L 238.135146 76.578806 
L 235.621097 78.93807 
L 231.758925 82.900969 
L 227.963701 86.73564 
L 228.006322 86.637881 
L 228.745864 85.785109 
L 231.304254 83.200361 
L 235.6463 79.134798 
L 239.763541 75.561704 
L 241.609173 74.180827 
L 241.79907 74.14893 
L 241.807933 74.186383 
L 241.686113 74.479367 
L 240.884719 75.655173 
L 237.791742 79.690634 
L 230.247325 89.527344 
L 229.765671 90.365355 
L 229.793812 90.361864 
L 230.142378 90.077121 
L 231.690278 88.439711 
L 235.199815 84.369485 
L 238.696623 79.993107 
L 240.57246 77.337676 
L 241.46358 75.725339 
L 241.685589 74.934402 
L 241.588722 74.60327 
L 241.329731 74.524603 
L 240.840212 74.669048 
L 239.949051 75.205991 
L 238.390038 76.449711 
L 235.886867 78.772201 
L 231.831288 82.884122 
L 228.058988 86.640983 
L 227.953545 86.6821 
L 228.012974 86.553328 
L 228.708428 85.729106 
L 231.093971 83.293323 
L 235.039675 79.582592 
L 239.159538 75.995408 
L 241.442798 74.247604 
L 241.806232 74.129041 
L 241.814673 74.145453 
L 241.76193 74.352077 
L 241.235436 75.194894 
L 239.125617 78.021553 
L 229.751381 90.357201 
L 229.768423 90.378976 
L 229.854722 90.331094 
L 230.533143 89.676448 
L 232.966291 86.962679 
L 236.931478 82.206436 
L 239.730816 78.533905 
L 241.063886 76.476959 
L 241.620072 75.245567 
L 241.656674 74.715988 
L 241.487151 74.537712 
L 241.161294 74.548852 
L 240.506825 74.848813 
L 239.384763 75.64102 
L 237.542575 77.231565 
L 234.614067 80.072646 
L 228.07485 86.68485 
L 228.07485 86.68485 
" style="fill:none;stroke:#d62728;stroke-linecap:square;stroke-opacity:0.7;stroke-width:1.5;"/>
   </g>
   <g id="line2d_21">
    <path clip-path="url(#p4db09afe6f)" d="M 96.541599 219.888703 
L 228.623933 87.923088 
L 228.623933 87.923088 
" style="fill:none;stroke:#000000;stroke-dasharray:5.55,2.4;stroke-dashoffset:0;stroke-opacity:0.595;stroke-width:1.5;"/>
   </g>
   <g id="patch_3">
    <path d="M 82.82 231.64 
L 82.82 66.48 
" style="fill:none;stroke:#000000;stroke-linecap:square;stroke-linejoin:miter;stroke-width:0.8;"/>
   </g>
   <g id="patch_4">
    <path d="M 250.605 231.64 
L 250.605 66.48 
" style="fill:none;stroke:#000000;stroke-linecap:square;stroke-linejoin:miter;stroke-width:0.8;"/>
   </g>
   <g id="patch_5">
    <path d="M 82.82 231.64 
L 250.605 231.64 
" style="fill:none;stroke:#000000;stroke-linecap:square;stroke-linejoin:miter;stroke-width:0.8;"/>
   </g>
   <g id="patch_6">
    <path d="M 82.82 66.48 
L 250.605 66.48 
" style="fill:none;stroke:#000000;stroke-linecap:square;stroke-linejoin:miter;stroke-width:0.8;"/>
   </g>
   <g id="text_12">
    <!-- Plano xy -->
    <g transform="translate(141.267812 60.48)scale(0.12 -0.12)">
     <defs>
      <path d="M 1259 4147 
L 1259 2394 
L 2053 2394 
Q 2494 2394 2734 2622 
Q 2975 2850 2975 3272 
Q 2975 3691 2734 3919 
Q 2494 4147 2053 4147 
L 1259 4147 
z
M 628 4666 
L 2053 4666 
Q 2838 4666 3239 4311 
Q 3641 3956 3641 3272 
Q 3641 2581 3239 2228 
Q 2838 1875 2053 1875 
L 1259 1875 
L 1259 0 
L 628 0 
L 628 4666 
z
" id="DejaVuSans-50" transform="scale(0.015625)"/>
      <path d="M 603 4863 
L 1178 4863 
L 1178 0 
L 603 0 
L 603 4863 
z
" id="DejaVuSans-6c" transform="scale(0.015625)"/>
      <path d="M 2194 1759 
Q 1497 1759 1228 1600 
Q 959 1441 959 1056 
Q 959 750 1161 570 
Q 1363 391 1709 391 
Q 2188 391 2477 730 
Q 2766 1069 2766 1631 
L 2766 1759 
L 2194 1759 
z
M 3341 1997 
L 3341 0 
L 2766 0 
L 2766 531 
Q 2569 213 2275 61 
Q 1981 -91 1556 -91 
Q 1019 -91 701 211 
Q 384 513 384 1019 
Q 384 1609 779 1909 
Q 1175 2209 1959 2209 
L 2766 2209 
L 2766 2266 
Q 2766 2663 2505 2880 
Q 2244 3097 1772 3097 
Q 1472 3097 1187 3025 
Q 903 2953 641 2809 
L 641 3341 
Q 956 3463 1253 3523 
Q 1550 3584 1831 3584 
Q 2591 3584 2966 3190 
Q 3341 2797 3341 1997 
z
" id="DejaVuSans-61" transform="scale(0.015625)"/>
      <path d="M 3513 2113 
L 3513 0 
L 2938 0 
L 2938 2094 
Q 2938 2591 2744 2837 
Q 2550 3084 2163 3084 
Q 1697 3084 1428 2787 
Q 1159 2491 1159 1978 
L 1159 0 
L 581 0 
L 581 3500 
L 1159 3500 
L 1159 2956 
Q 1366 3272 1645 3428 
Q 1925 3584 2291 3584 
Q 2894 3584 3203 3211 
Q 3513 2838 3513 2113 
z
" id="DejaVuSans-6e" transform="scale(0.015625)"/>
      <path d="M 1959 3097 
Q 1497 3097 1228 2736 
Q 959 2375 959 1747 
Q 959 1119 1226 758 
Q 1494 397 1959 397 
Q 2419 397 2687 759 
Q 2956 1122 2956 1747 
Q 2956 2369 2687 2733 
Q 2419 3097 1959 3097 
z
M 1959 3584 
Q 2709 3584 3137 3096 
Q 3566 2609 3566 1747 
Q 3566 888 3137 398 
Q 2709 -91 1959 -91 
Q 1206 -91 779 398 
Q 353 888 353 1747 
Q 353 2609 779 3096 
Q 1206 3584 1959 3584 
z
" id="DejaVuSans-6f" transform="scale(0.015625)"/>
     </defs>
     <use xlink:href="#DejaVuSans-50"/>
     <use x="60.302734" xlink:href="#DejaVuSans-6c"/>
     <use x="88.085938" xlink:href="#DejaVuSans-61"/>
     <use x="149.365234" xlink:href="#DejaVuSans-6e"/>
     <use x="212.744141" xlink:href="#DejaVuSans-6f"/>
     <use x="273.925781" xlink:href="#DejaVuSans-20"/>
     <use x="305.712891" xlink:href="#DejaVuSans-78"/>
     <use x="364.892578" xlink:href="#DejaVuSans-79"/>
    </g>
   </g>
  </g>
  <g id="axes_2">
   <g id="patch_7">
    <path d="M 311.015 231.64 
L 478.8 231.64 
L 478.8 66.48 
L 311.015 66.48 
z
" style="fill:#ffffff;"/>
   </g>
   <g id="matplotlib.axis_3">
    <g id="xtick_4">
     <g id="line2d_22">
      <path clip-path="url(#p3d606c52d2)" d="M 318.641591 231.64 
L 318.641591 66.48 
" style="fill:none;stroke:#b0b0b0;stroke-linecap:square;stroke-width:0.8;"/>
     </g>
     <g id="line2d_23">
      <g>
       <use style="stroke:#000000;stroke-width:0.8;" x="318.641591" xlink:href="#m8f7cb8ca6f" y="231.64"/>
      </g>
     </g>
     <g id="text_13">
      <!-- 0 -->
      <g transform="translate(315.460341 246.238438)scale(0.1 -0.1)">
       <use xlink:href="#DejaVuSans-30"/>
      </g>
     </g>
    </g>
    <g id="xtick_5">
     <g id="line2d_24">
      <path clip-path="url(#p3d606c52d2)" d="M 356.782491 231.64 
L 356.782491 66.48 
" style="fill:none;stroke:#b0b0b0;stroke-linecap:square;stroke-width:0.8;"/>
     </g>
     <g id="line2d_25">
      <g>
       <use style="stroke:#000000;stroke-width:0.8;" x="356.782491" xlink:href="#m8f7cb8ca6f" y="231.64"/>
      </g>
     </g>
     <g id="text_14">
      <!-- 5 -->
      <g transform="translate(353.601241 246.238438)scale(0.1 -0.1)">
       <use xlink:href="#DejaVuSans-35"/>
      </g>
     </g>
    </g>
    <g id="xtick_6">
     <g id="line2d_26">
      <path clip-path="url(#p3d606c52d2)" d="M 394.923392 231.64 
L 394.923392 66.48 
" style="fill:none;stroke:#b0b0b0;stroke-linecap:square;stroke-width:0.8;"/>
     </g>
     <g id="line2d_27">
      <g>
       <use style="stroke:#000000;stroke-width:0.8;" x="394.923392" xlink:href="#m8f7cb8ca6f" y="231.64"/>
      </g>
     </g>
     <g id="text_15">
      <!-- 10 -->
      <g transform="translate(388.560892 246.238438)scale(0.1 -0.1)">
       <use xlink:href="#DejaVuSans-31"/>
       <use x="63.623047" xlink:href="#DejaVuSans-30"/>
      </g>
     </g>
    </g>
    <g id="xtick_7">
     <g id="line2d_28">
      <path clip-path="url(#p3d606c52d2)" d="M 433.064293 231.64 
L 433.064293 66.48 
" style="fill:none;stroke:#b0b0b0;stroke-linecap:square;stroke-width:0.8;"/>
     </g>
     <g id="line2d_29">
      <g>
       <use style="stroke:#000000;stroke-width:0.8;" x="433.064293" xlink:href="#m8f7cb8ca6f" y="231.64"/>
      </g>
     </g>
     <g id="text_16">
      <!-- 15 -->
      <g transform="translate(426.701793 246.238438)scale(0.1 -0.1)">
       <use xlink:href="#DejaVuSans-31"/>
       <use x="63.623047" xlink:href="#DejaVuSans-35"/>
      </g>
     </g>
    </g>
    <g id="xtick_8">
     <g id="line2d_30">
      <path clip-path="url(#p3d606c52d2)" d="M 471.205193 231.64 
L 471.205193 66.48 
" style="fill:none;stroke:#b0b0b0;stroke-linecap:square;stroke-width:0.8;"/>
     </g>
     <g id="line2d_31">
      <g>
       <use style="stroke:#000000;stroke-width:0.8;" x="471.205193" xlink:href="#m8f7cb8ca6f" y="231.64"/>
      </g>
     </g>
     <g id="text_17">
      <!-- 20 -->
      <g transform="translate(464.842693 246.238438)scale(0.1 -0.1)">
       <use xlink:href="#DejaVuSans-32"/>
       <use x="63.623047" xlink:href="#DejaVuSans-30"/>
      </g>
     </g>
    </g>
    <g id="text_18">
     <!-- Tiempo (s) -->
     <g transform="translate(368.345 259.916562)scale(0.1 -0.1)">
      <defs>
       <path d="M -19 4666 
L 3928 4666 
L 3928 4134 
L 2272 4134 
L 2272 0 
L 1638 0 
L 1638 4134 
L -19 4134 
L -19 4666 
z
" id="DejaVuSans-54" transform="scale(0.015625)"/>
       <path d="M 603 3500 
L 1178 3500 
L 1178 0 
L 603 0 
L 603 3500 
z
M 603 4863 
L 1178 4863 
L 1178 4134 
L 603 4134 
L 603 4863 
z
" id="DejaVuSans-69" transform="scale(0.015625)"/>
       <path d="M 3597 1894 
L 3597 1613 
L 953 1613 
Q 991 1019 1311 708 
Q 1631 397 2203 397 
Q 2534 397 2845 478 
Q 3156 559 3463 722 
L 3463 178 
Q 3153 47 2828 -22 
Q 2503 -91 2169 -91 
Q 1331 -91 842 396 
Q 353 884 353 1716 
Q 353 2575 817 3079 
Q 1281 3584 2069 3584 
Q 2775 3584 3186 3129 
Q 3597 2675 3597 1894 
z
M 3022 2063 
Q 3016 2534 2758 2815 
Q 2500 3097 2075 3097 
Q 1594 3097 1305 2825 
Q 1016 2553 972 2059 
L 3022 2063 
z
" id="DejaVuSans-65" transform="scale(0.015625)"/>
       <path d="M 1159 525 
L 1159 -1331 
L 581 -1331 
L 581 3500 
L 1159 3500 
L 1159 2969 
Q 1341 3281 1617 3432 
Q 1894 3584 2278 3584 
Q 2916 3584 3314 3078 
Q 3713 2572 3713 1747 
Q 3713 922 3314 415 
Q 2916 -91 2278 -91 
Q 1894 -91 1617 61 
Q 1341 213 1159 525 
z
M 3116 1747 
Q 3116 2381 2855 2742 
Q 2594 3103 2138 3103 
Q 1681 3103 1420 2742 
Q 1159 2381 1159 1747 
Q 1159 1113 1420 752 
Q 1681 391 2138 391 
Q 2594 391 2855 752 
Q 3116 1113 3116 1747 
z
" id="DejaVuSans-70" transform="scale(0.015625)"/>
       <path d="M 2834 3397 
L 2834 2853 
Q 2591 2978 2328 3040 
Q 2066 3103 1784 3103 
Q 1356 3103 1142 2972 
Q 928 2841 928 2578 
Q 928 2378 1081 2264 
Q 1234 2150 1697 2047 
L 1894 2003 
Q 2506 1872 2764 1633 
Q 3022 1394 3022 966 
Q 3022 478 2636 193 
Q 2250 -91 1575 -91 
Q 1294 -91 989 -36 
Q 684 19 347 128 
L 347 722 
Q 666 556 975 473 
Q 1284 391 1588 391 
Q 1994 391 2212 530 
Q 2431 669 2431 922 
Q 2431 1156 2273 1281 
Q 2116 1406 1581 1522 
L 1381 1569 
Q 847 1681 609 1914 
Q 372 2147 372 2553 
Q 372 3047 722 3315 
Q 1072 3584 1716 3584 
Q 2034 3584 2315 3537 
Q 2597 3491 2834 3397 
z
" id="DejaVuSans-73" transform="scale(0.015625)"/>
      </defs>
      <use xlink:href="#DejaVuSans-54"/>
      <use x="57.958984" xlink:href="#DejaVuSans-69"/>
      <use x="85.742188" xlink:href="#DejaVuSans-65"/>
      <use x="147.265625" xlink:href="#DejaVuSans-6d"/>
      <use x="244.677734" xlink:href="#DejaVuSans-70"/>
      <use x="308.154297" xlink:href="#DejaVuSans-6f"/>
      <use x="369.335938" xlink:href="#DejaVuSans-20"/>
      <use x="401.123047" xlink:href="#DejaVuSans-28"/>
      <use x="440.136719" xlink:href="#DejaVuSans-73"/>
      <use x="492.236328" xlink:href="#DejaVuSans-29"/>
     </g>
    </g>
   </g>
   <g id="matplotlib.axis_4">
    <g id="ytick_7">
     <g id="line2d_32">
      <path clip-path="url(#p3d606c52d2)" d="M 311.015 215.204007 
L 478.8 215.204007 
" style="fill:none;stroke:#b0b0b0;stroke-linecap:square;stroke-width:0.8;"/>
     </g>
     <g id="line2d_33">
      <g>
       <use style="stroke:#000000;stroke-width:0.8;" x="311.015" xlink:href="#me46050d824" y="215.204007"/>
      </g>
     </g>
     <g id="text_19">
      <!-- 1.00 -->
      <g transform="translate(281.749375 219.003226)scale(0.1 -0.1)">
       <use xlink:href="#DejaVuSans-31"/>
       <use x="63.623047" xlink:href="#DejaVuSans-2e"/>
       <use x="95.410156" xlink:href="#DejaVuSans-30"/>
       <use x="159.033203" xlink:href="#DejaVuSans-30"/>
      </g>
     </g>
    </g>
    <g id="ytick_8">
     <g id="line2d_34">
      <path clip-path="url(#p3d606c52d2)" d="M 311.015 176.258486 
L 478.8 176.258486 
" style="fill:none;stroke:#b0b0b0;stroke-linecap:square;stroke-width:0.8;"/>
     </g>
     <g id="line2d_35">
      <g>
       <use style="stroke:#000000;stroke-width:0.8;" x="311.015" xlink:href="#me46050d824" y="176.258486"/>
      </g>
     </g>
     <g id="text_20">
      <!-- 1.05 -->
      <g transform="translate(281.749375 180.057705)scale(0.1 -0.1)">
       <use xlink:href="#DejaVuSans-31"/>
       <use x="63.623047" xlink:href="#DejaVuSans-2e"/>
       <use x="95.410156" xlink:href="#DejaVuSans-30"/>
       <use x="159.033203" xlink:href="#DejaVuSans-35"/>
      </g>
     </g>
    </g>
    <g id="ytick_9">
     <g id="line2d_36">
      <path clip-path="url(#p3d606c52d2)" d="M 311.015 137.312965 
L 478.8 137.312965 
" style="fill:none;stroke:#b0b0b0;stroke-linecap:square;stroke-width:0.8;"/>
     </g>
     <g id="line2d_37">
      <g>
       <use style="stroke:#000000;stroke-width:0.8;" x="311.015" xlink:href="#me46050d824" y="137.312965"/>
      </g>
     </g>
     <g id="text_21">
      <!-- 1.10 -->
      <g transform="translate(281.749375 141.112184)scale(0.1 -0.1)">
       <use xlink:href="#DejaVuSans-31"/>
       <use x="63.623047" xlink:href="#DejaVuSans-2e"/>
       <use x="95.410156" xlink:href="#DejaVuSans-31"/>
       <use x="159.033203" xlink:href="#DejaVuSans-30"/>
      </g>
     </g>
    </g>
    <g id="ytick_10">
     <g id="line2d_38">
      <path clip-path="url(#p3d606c52d2)" d="M 311.015 98.367444 
L 478.8 98.367444 
" style="fill:none;stroke:#b0b0b0;stroke-linecap:square;stroke-width:0.8;"/>
     </g>
     <g id="line2d_39">
      <g>
       <use style="stroke:#000000;stroke-width:0.8;" x="311.015" xlink:href="#me46050d824" y="98.367444"/>
      </g>
     </g>
     <g id="text_22">
      <!-- 1.15 -->
      <g transform="translate(281.749375 102.166663)scale(0.1 -0.1)">
       <use xlink:href="#DejaVuSans-31"/>
       <use x="63.623047" xlink:href="#DejaVuSans-2e"/>
       <use x="95.410156" xlink:href="#DejaVuSans-31"/>
       <use x="159.033203" xlink:href="#DejaVuSans-35"/>
      </g>
     </g>
    </g>
    <g id="text_23">
     <!-- z (m) -->
     <g transform="translate(275.669688 162.045156)rotate(-90)scale(0.1 -0.1)">
      <defs>
       <path d="M 353 3500 
L 3084 3500 
L 3084 2975 
L 922 459 
L 3084 459 
L 3084 0 
L 275 0 
L 275 525 
L 2438 3041 
L 353 3041 
L 353 3500 
z
" id="DejaVuSans-7a" transform="scale(0.015625)"/>
      </defs>
      <use xlink:href="#DejaVuSans-7a"/>
      <use x="52.490234" xlink:href="#DejaVuSans-20"/>
      <use x="84.277344" xlink:href="#DejaVuSans-28"/>
      <use x="123.291016" xlink:href="#DejaVuSans-6d"/>
      <use x="220.703125" xlink:href="#DejaVuSans-29"/>
     </g>
    </g>
   </g>
   <g id="line2d_40">
    <path clip-path="url(#p3d606c52d2)" d="M 318.641591 215.33653 
L 318.959432 216.1463 
L 319.277273 216.398012 
L 319.690466 216.40228 
L 320.73934 216.074767 
L 322.392113 215.663468 
L 324.458078 215.401916 
L 327.668271 215.246669 
L 334.628985 215.186371 
L 356.973196 215.120773 
L 357.100332 214.233989 
L 357.386389 209.823193 
L 359.484139 171.029953 
L 360.310525 161.859224 
L 361.168695 154.706102 
L 361.995081 149.602811 
L 362.757899 146.197607 
L 363.552501 143.639781 
L 364.410672 141.617608 
L 365.33241 140.004125 
L 366.222364 138.875178 
L 367.175887 138.022473 
L 368.224762 137.387169 
L 369.464341 136.900362 
L 370.989977 136.548356 
L 373.087726 136.309367 
L 376.393271 136.179941 
L 383.798963 136.169139 
L 471.173409 136.592553 
L 471.173409 136.592553 
" style="fill:none;stroke:#1f77b4;stroke-linecap:square;stroke-opacity:0.7;stroke-width:1.5;"/>
   </g>
   <g id="line2d_41">
    <path clip-path="url(#p3d606c52d2)" d="M 318.641591 215.33653 
L 319.944738 220.294442 
L 321.057181 223.727895 
L 321.343238 224.12263 
L 321.502158 224.086384 
L 321.692863 223.756779 
L 321.947136 222.81269 
L 322.328545 220.407308 
L 323.059579 213.919826 
L 325.602305 191.388426 
L 327.50935 176.463501 
L 329.06677 165.905432 
L 330.401702 158.28324 
L 331.545929 153.001908 
L 332.785508 148.342212 
L 333.961519 144.736051 
L 335.073962 141.996776 
L 336.249973 139.686531 
L 337.330632 138.017403 
L 338.252371 136.978367 
L 339.078757 136.360484 
L 339.873359 136.032199 
L 340.667961 135.939215 
L 341.494347 136.069915 
L 342.44787 136.466253 
L 344.037074 137.418542 
L 345.530926 138.535528 
L 346.643369 139.646494 
L 348.073653 141.414413 
L 351.983095 146.453702 
L 356.019673 151.007003 
L 357.00498 152.059973 
L 357.132116 151.729232 
L 357.354605 150.25705 
L 357.736014 145.920929 
L 359.070946 129.306319 
L 359.452355 127.176607 
L 359.706627 126.686464 
L 359.865548 126.704851 
L 360.088036 127.035566 
L 361.264047 129.380219 
L 361.454752 129.246361 
L 361.709024 128.74034 
L 362.122218 127.296824 
L 368.224762 102.33111 
L 371.276034 91.669459 
L 373.310215 85.220607 
L 374.263738 82.746673 
L 375.21726 80.942751 
L 376.234351 79.447415 
L 378.141396 77.212567 
L 379.667032 75.766458 
L 381.001963 74.779204 
L 381.98727 74.304666 
L 382.972577 74.084323 
L 384.180372 74.065425 
L 386.023849 74.001342 
L 387.930894 74.056418 
L 389.106905 74.321376 
L 390.441836 74.875751 
L 395.050528 77.096395 
L 396.54438 77.878966 
L 398.292505 79.101254 
L 399.913493 80.177155 
L 401.629834 80.92254 
L 403.886504 81.912729 
L 405.57106 82.951849 
L 407.287401 83.967633 
L 408.844821 84.50883 
L 412.34107 85.515308 
L 414.979149 86.497141 
L 416.282296 86.575519 
L 419.460705 86.6547 
L 423.052306 87.117038 
L 424.546158 86.895369 
L 426.675692 86.589942 
L 428.423816 86.634396 
L 429.917668 86.616157 
L 431.284384 86.279196 
L 434.144951 85.522421 
L 435.638803 85.436397 
L 437.577633 85.323017 
L 439.421109 84.840641 
L 441.550643 84.29059 
L 443.012711 84.191432 
L 445.269381 84.058129 
L 447.526051 83.443641 
L 449.051687 83.146853 
L 450.418402 83.122388 
L 453.088265 83.14363 
L 455.122447 82.796336 
L 456.679867 82.62946 
L 458.141935 82.72976 
L 460.335037 82.894391 
L 462.496354 82.601556 
L 464.053774 82.492701 
L 465.388706 82.628378 
L 468.122137 82.977628 
L 469.93383 82.848912 
L 471.173409 82.772859 
L 471.173409 82.772859 
" style="fill:none;stroke:#d62728;stroke-linecap:square;stroke-opacity:0.7;stroke-width:1.5;"/>
   </g>
   <g id="line2d_42">
    <path clip-path="url(#p3d606c52d2)" d="M 318.641591 215.204007 
L 356.909628 215.204007 
L 357.036764 137.312965 
L 471.173409 137.312965 
L 471.173409 137.312965 
" style="fill:none;stroke:#000000;stroke-dasharray:5.55,2.4;stroke-dashoffset:0;stroke-opacity:0.595;stroke-width:1.5;"/>
   </g>
   <g id="patch_8">
    <path d="M 311.015 231.64 
L 311.015 66.48 
" style="fill:none;stroke:#000000;stroke-linecap:square;stroke-linejoin:miter;stroke-width:0.8;"/>
   </g>
   <g id="patch_9">
    <path d="M 478.8 231.64 
L 478.8 66.48 
" style="fill:none;stroke:#000000;stroke-linecap:square;stroke-linejoin:miter;stroke-width:0.8;"/>
   </g>
   <g id="patch_10">
    <path d="M 311.015 231.64 
L 478.8 231.64 
" style="fill:none;stroke:#000000;stroke-linecap:square;stroke-linejoin:miter;stroke-width:0.8;"/>
   </g>
   <g id="patch_11">
    <path d="M 311.015 66.48 
L 478.8 66.48 
" style="fill:none;stroke:#000000;stroke-linecap:square;stroke-linejoin:miter;stroke-width:0.8;"/>
   </g>
   <g id="text_24">
    <!-- Plano z -->
    <g transform="translate(373.41625 60.48)scale(0.12 -0.12)">
     <use xlink:href="#DejaVuSans-50"/>
     <use x="60.302734" xlink:href="#DejaVuSans-6c"/>
     <use x="88.085938" xlink:href="#DejaVuSans-61"/>
     <use x="149.365234" xlink:href="#DejaVuSans-6e"/>
     <use x="212.744141" xlink:href="#DejaVuSans-6f"/>
     <use x="273.925781" xlink:href="#DejaVuSans-20"/>
     <use x="305.712891" xlink:href="#DejaVuSans-7a"/>
    </g>
   </g>
  </g>
  <g id="text_25">
   <!-- Vista planos -->
   <g transform="translate(239.4 17.9175)scale(0.16 -0.16)">
    <defs>
     <path d="M 1831 0 
L 50 4666 
L 709 4666 
L 2188 738 
L 3669 4666 
L 4325 4666 
L 2547 0 
L 1831 0 
z
" id="DejaVuSans-56" transform="scale(0.015625)"/>
     <path d="M 1172 4494 
L 1172 3500 
L 2356 3500 
L 2356 3053 
L 1172 3053 
L 1172 1153 
Q 1172 725 1289 603 
Q 1406 481 1766 481 
L 2356 481 
L 2356 0 
L 1766 0 
Q 1100 0 847 248 
Q 594 497 594 1153 
L 594 3053 
L 172 3053 
L 172 3500 
L 594 3500 
L 594 4494 
L 1172 4494 
z
" id="DejaVuSans-74" transform="scale(0.015625)"/>
    </defs>
    <use xlink:href="#DejaVuSans-56"/>
    <use x="66.158203" xlink:href="#DejaVuSans-69"/>
    <use x="93.941406" xlink:href="#DejaVuSans-73"/>
    <use x="146.041016" xlink:href="#DejaVuSans-74"/>
    <use x="185.25" xlink:href="#DejaVuSans-61"/>
    <use x="246.529297" xlink:href="#DejaVuSans-20"/>
    <use x="278.316406" xlink:href="#DejaVuSans-70"/>
    <use x="341.792969" xlink:href="#DejaVuSans-6c"/>
    <use x="369.576172" xlink:href="#DejaVuSans-61"/>
    <use x="430.855469" xlink:href="#DejaVuSans-6e"/>
    <use x="494.234375" xlink:href="#DejaVuSans-6f"/>
    <use x="555.416016" xlink:href="#DejaVuSans-73"/>
   </g>
  </g>
  <g id="legend_1">
   <g id="patch_12">
    <path d="M 483.89375 167.517188 
L 569 167.517188 
Q 571 167.517188 571 165.517188 
L 571 122.482812 
Q 571 120.482812 569 120.482812 
L 483.89375 120.482812 
Q 481.89375 120.482812 481.89375 122.482812 
L 481.89375 165.517188 
Q 481.89375 167.517188 483.89375 167.517188 
z
" style="fill:#ffffff;opacity:0.8;stroke:#cccccc;stroke-linejoin:miter;"/>
   </g>
   <g id="line2d_43">
    <path d="M 485.89375 128.58125 
L 505.89375 128.58125 
" style="fill:none;stroke:#1f77b4;stroke-linecap:square;stroke-opacity:0.7;stroke-width:1.5;"/>
   </g>
   <g id="line2d_44"/>
   <g id="text_26">
    <!-- DSLPID -->
    <g transform="translate(513.89375 132.08125)scale(0.1 -0.1)">
     <defs>
      <path d="M 1259 4147 
L 1259 519 
L 2022 519 
Q 2988 519 3436 956 
Q 3884 1394 3884 2338 
Q 3884 3275 3436 3711 
Q 2988 4147 2022 4147 
L 1259 4147 
z
M 628 4666 
L 1925 4666 
Q 3281 4666 3915 4102 
Q 4550 3538 4550 2338 
Q 4550 1131 3912 565 
Q 3275 0 1925 0 
L 628 0 
L 628 4666 
z
" id="DejaVuSans-44" transform="scale(0.015625)"/>
      <path d="M 3425 4513 
L 3425 3897 
Q 3066 4069 2747 4153 
Q 2428 4238 2131 4238 
Q 1616 4238 1336 4038 
Q 1056 3838 1056 3469 
Q 1056 3159 1242 3001 
Q 1428 2844 1947 2747 
L 2328 2669 
Q 3034 2534 3370 2195 
Q 3706 1856 3706 1288 
Q 3706 609 3251 259 
Q 2797 -91 1919 -91 
Q 1588 -91 1214 -16 
Q 841 59 441 206 
L 441 856 
Q 825 641 1194 531 
Q 1563 422 1919 422 
Q 2459 422 2753 634 
Q 3047 847 3047 1241 
Q 3047 1584 2836 1778 
Q 2625 1972 2144 2069 
L 1759 2144 
Q 1053 2284 737 2584 
Q 422 2884 422 3419 
Q 422 4038 858 4394 
Q 1294 4750 2059 4750 
Q 2388 4750 2728 4690 
Q 3069 4631 3425 4513 
z
" id="DejaVuSans-53" transform="scale(0.015625)"/>
      <path d="M 628 4666 
L 1259 4666 
L 1259 531 
L 3531 531 
L 3531 0 
L 628 0 
L 628 4666 
z
" id="DejaVuSans-4c" transform="scale(0.015625)"/>
      <path d="M 628 4666 
L 1259 4666 
L 1259 0 
L 628 0 
L 628 4666 
z
" id="DejaVuSans-49" transform="scale(0.015625)"/>
     </defs>
     <use xlink:href="#DejaVuSans-44"/>
     <use x="77.001953" xlink:href="#DejaVuSans-53"/>
     <use x="140.478516" xlink:href="#DejaVuSans-4c"/>
     <use x="196.191406" xlink:href="#DejaVuSans-50"/>
     <use x="256.494141" xlink:href="#DejaVuSans-49"/>
     <use x="285.986328" xlink:href="#DejaVuSans-44"/>
    </g>
   </g>
   <g id="line2d_45">
    <path d="M 485.89375 143.259375 
L 505.89375 143.259375 
" style="fill:none;stroke:#d62728;stroke-linecap:square;stroke-opacity:0.7;stroke-width:1.5;"/>
   </g>
   <g id="line2d_46"/>
   <g id="text_27">
    <!-- LSTM -->
    <g transform="translate(513.89375 146.759375)scale(0.1 -0.1)">
     <defs>
      <path d="M 628 4666 
L 1569 4666 
L 2759 1491 
L 3956 4666 
L 4897 4666 
L 4897 0 
L 4281 0 
L 4281 4097 
L 3078 897 
L 2444 897 
L 1241 4097 
L 1241 0 
L 628 0 
L 628 4666 
z
" id="DejaVuSans-4d" transform="scale(0.015625)"/>
     </defs>
     <use xlink:href="#DejaVuSans-4c"/>
     <use x="55.712891" xlink:href="#DejaVuSans-53"/>
     <use x="119.189453" xlink:href="#DejaVuSans-54"/>
     <use x="180.273438" xlink:href="#DejaVuSans-4d"/>
    </g>
   </g>
   <g id="line2d_47">
    <path d="M 485.89375 157.9375 
L 505.89375 157.9375 
" style="fill:none;stroke:#000000;stroke-dasharray:5.55,2.4;stroke-dashoffset:0;stroke-opacity:0.595;stroke-width:1.5;"/>
   </g>
   <g id="line2d_48"/>
   <g id="text_28">
    <!-- Referencia -->
    <g transform="translate(513.89375 161.4375)scale(0.1 -0.1)">
     <defs>
      <path d="M 2841 2188 
Q 3044 2119 3236 1894 
Q 3428 1669 3622 1275 
L 4263 0 
L 3584 0 
L 2988 1197 
Q 2756 1666 2539 1819 
Q 2322 1972 1947 1972 
L 1259 1972 
L 1259 0 
L 628 0 
L 628 4666 
L 2053 4666 
Q 2853 4666 3247 4331 
Q 3641 3997 3641 3322 
Q 3641 2881 3436 2590 
Q 3231 2300 2841 2188 
z
M 1259 4147 
L 1259 2491 
L 2053 2491 
Q 2509 2491 2742 2702 
Q 2975 2913 2975 3322 
Q 2975 3731 2742 3939 
Q 2509 4147 2053 4147 
L 1259 4147 
z
" id="DejaVuSans-52" transform="scale(0.015625)"/>
      <path d="M 2375 4863 
L 2375 4384 
L 1825 4384 
Q 1516 4384 1395 4259 
Q 1275 4134 1275 3809 
L 1275 3500 
L 2222 3500 
L 2222 3053 
L 1275 3053 
L 1275 0 
L 697 0 
L 697 3053 
L 147 3053 
L 147 3500 
L 697 3500 
L 697 3744 
Q 697 4328 969 4595 
Q 1241 4863 1831 4863 
L 2375 4863 
z
" id="DejaVuSans-66" transform="scale(0.015625)"/>
      <path d="M 2631 2963 
Q 2534 3019 2420 3045 
Q 2306 3072 2169 3072 
Q 1681 3072 1420 2755 
Q 1159 2438 1159 1844 
L 1159 0 
L 581 0 
L 581 3500 
L 1159 3500 
L 1159 2956 
Q 1341 3275 1631 3429 
Q 1922 3584 2338 3584 
Q 2397 3584 2469 3576 
Q 2541 3569 2628 3553 
L 2631 2963 
z
" id="DejaVuSans-72" transform="scale(0.015625)"/>
      <path d="M 3122 3366 
L 3122 2828 
Q 2878 2963 2633 3030 
Q 2388 3097 2138 3097 
Q 1578 3097 1268 2742 
Q 959 2388 959 1747 
Q 959 1106 1268 751 
Q 1578 397 2138 397 
Q 2388 397 2633 464 
Q 2878 531 3122 666 
L 3122 134 
Q 2881 22 2623 -34 
Q 2366 -91 2075 -91 
Q 1284 -91 818 406 
Q 353 903 353 1747 
Q 353 2603 823 3093 
Q 1294 3584 2113 3584 
Q 2378 3584 2631 3529 
Q 2884 3475 3122 3366 
z
" id="DejaVuSans-63" transform="scale(0.015625)"/>
     </defs>
     <use xlink:href="#DejaVuSans-52"/>
     <use x="64.982422" xlink:href="#DejaVuSans-65"/>
     <use x="126.505859" xlink:href="#DejaVuSans-66"/>
     <use x="161.710938" xlink:href="#DejaVuSans-65"/>
     <use x="223.234375" xlink:href="#DejaVuSans-72"/>
     <use x="262.097656" xlink:href="#DejaVuSans-65"/>
     <use x="323.621094" xlink:href="#DejaVuSans-6e"/>
     <use x="387" xlink:href="#DejaVuSans-63"/>
     <use x="441.980469" xlink:href="#DejaVuSans-69"/>
     <use x="469.763672" xlink:href="#DejaVuSans-61"/>
    </g>
   </g>
  </g>
 </g>
 <defs>
  <clipPath id="p4db09afe6f">
   <rect height="165.16" width="167.785" x="82.82" y="66.48"/>
  </clipPath>
  <clipPath id="p3d606c52d2">
   <rect height="165.16" width="167.785" x="311.015" y="66.48"/>
  </clipPath>
 </defs>
</svg>
