<?xml version="1.0" encoding="utf-8" standalone="no"?>
<!DOCTYPE svg PUBLIC "-//W3C//DTD SVG 1.1//EN"
  "http://www.w3.org/Graphics/SVG/1.1/DTD/svg11.dtd">
<!-- Created with matplotlib (https://matplotlib.org/) -->
<svg height="277.51875pt" version="1.1" viewBox="0 0 394.182813 277.51875" width="394.182813pt" xmlns="http://www.w3.org/2000/svg" xmlns:xlink="http://www.w3.org/1999/xlink">
 <metadata>
  <rdf:RDF xmlns:cc="http://creativecommons.org/ns#" xmlns:dc="http://purl.org/dc/elements/1.1/" xmlns:rdf="http://www.w3.org/1999/02/22-rdf-syntax-ns#">
   <cc:Work>
    <dc:type rdf:resource="http://purl.org/dc/dcmitype/StillImage"/>
    <dc:date>2022-02-26T14:04:18.210477</dc:date>
    <dc:format>image/svg+xml</dc:format>
    <dc:creator>
     <cc:Agent>
      <dc:title>Matplotlib v3.3.4, https://matplotlib.org/</dc:title>
     </cc:Agent>
    </dc:creator>
   </cc:Work>
  </rdf:RDF>
 </metadata>
 <defs>
  <style type="text/css">*{stroke-linecap:butt;stroke-linejoin:round;}</style>
 </defs>
 <g id="figure_1">
  <g id="patch_1">
   <path d="M 0 277.51875 
L 394.182813 277.51875 
L 394.182813 0 
L 0 0 
z
" style="fill:none;"/>
  </g>
  <g id="axes_1">
   <g id="patch_2">
    <path d="M 52.182813 101.591591 
L 386.982813 101.591591 
L 386.982813 22.5225 
L 52.182813 22.5225 
z
" style="fill:#ffffff;"/>
   </g>
   <g id="matplotlib.axis_1">
    <g id="xtick_1">
     <g id="line2d_1">
      <path clip-path="url(#p021b53c6c7)" d="M 67.400994 101.591591 
L 67.400994 22.5225 
" style="fill:none;stroke:#b0b0b0;stroke-linecap:square;stroke-width:0.8;"/>
     </g>
     <g id="line2d_2">
      <defs>
       <path d="M 0 0 
L 0 3.5 
" id="m4a22283b36" style="stroke:#000000;stroke-width:0.8;"/>
      </defs>
      <g>
       <use style="stroke:#000000;stroke-width:0.8;" x="67.400994" xlink:href="#m4a22283b36" y="101.591591"/>
      </g>
     </g>
     <g id="text_1">
      <!-- 0 -->
      <g transform="translate(64.219744 116.190028)scale(0.1 -0.1)">
       <defs>
        <path d="M 31.78125 66.40625 
Q 24.171875 66.40625 20.328125 58.90625 
Q 16.5 51.421875 16.5 36.375 
Q 16.5 21.390625 20.328125 13.890625 
Q 24.171875 6.390625 31.78125 6.390625 
Q 39.453125 6.390625 43.28125 13.890625 
Q 47.125 21.390625 47.125 36.375 
Q 47.125 51.421875 43.28125 58.90625 
Q 39.453125 66.40625 31.78125 66.40625 
z
M 31.78125 74.21875 
Q 44.046875 74.21875 50.515625 64.515625 
Q 56.984375 54.828125 56.984375 36.375 
Q 56.984375 17.96875 50.515625 8.265625 
Q 44.046875 -1.421875 31.78125 -1.421875 
Q 19.53125 -1.421875 13.0625 8.265625 
Q 6.59375 17.96875 6.59375 36.375 
Q 6.59375 54.828125 13.0625 64.515625 
Q 19.53125 74.21875 31.78125 74.21875 
z
" id="DejaVuSans-48"/>
       </defs>
       <use xlink:href="#DejaVuSans-48"/>
      </g>
     </g>
    </g>
    <g id="xtick_2">
     <g id="line2d_3">
      <path clip-path="url(#p021b53c6c7)" d="M 128.283869 101.591591 
L 128.283869 22.5225 
" style="fill:none;stroke:#b0b0b0;stroke-linecap:square;stroke-width:0.8;"/>
     </g>
     <g id="line2d_4">
      <g>
       <use style="stroke:#000000;stroke-width:0.8;" x="128.283869" xlink:href="#m4a22283b36" y="101.591591"/>
      </g>
     </g>
     <g id="text_2">
      <!-- 10 -->
      <g transform="translate(121.921369 116.190028)scale(0.1 -0.1)">
       <defs>
        <path d="M 12.40625 8.296875 
L 28.515625 8.296875 
L 28.515625 63.921875 
L 10.984375 60.40625 
L 10.984375 69.390625 
L 28.421875 72.90625 
L 38.28125 72.90625 
L 38.28125 8.296875 
L 54.390625 8.296875 
L 54.390625 0 
L 12.40625 0 
z
" id="DejaVuSans-49"/>
       </defs>
       <use xlink:href="#DejaVuSans-49"/>
       <use x="63.623047" xlink:href="#DejaVuSans-48"/>
      </g>
     </g>
    </g>
    <g id="xtick_3">
     <g id="line2d_5">
      <path clip-path="url(#p021b53c6c7)" d="M 189.166743 101.591591 
L 189.166743 22.5225 
" style="fill:none;stroke:#b0b0b0;stroke-linecap:square;stroke-width:0.8;"/>
     </g>
     <g id="line2d_6">
      <g>
       <use style="stroke:#000000;stroke-width:0.8;" x="189.166743" xlink:href="#m4a22283b36" y="101.591591"/>
      </g>
     </g>
     <g id="text_3">
      <!-- 20 -->
      <g transform="translate(182.804243 116.190028)scale(0.1 -0.1)">
       <defs>
        <path d="M 19.1875 8.296875 
L 53.609375 8.296875 
L 53.609375 0 
L 7.328125 0 
L 7.328125 8.296875 
Q 12.9375 14.109375 22.625 23.890625 
Q 32.328125 33.6875 34.8125 36.53125 
Q 39.546875 41.84375 41.421875 45.53125 
Q 43.3125 49.21875 43.3125 52.78125 
Q 43.3125 58.59375 39.234375 62.25 
Q 35.15625 65.921875 28.609375 65.921875 
Q 23.96875 65.921875 18.8125 64.3125 
Q 13.671875 62.703125 7.8125 59.421875 
L 7.8125 69.390625 
Q 13.765625 71.78125 18.9375 73 
Q 24.125 74.21875 28.421875 74.21875 
Q 39.75 74.21875 46.484375 68.546875 
Q 53.21875 62.890625 53.21875 53.421875 
Q 53.21875 48.921875 51.53125 44.890625 
Q 49.859375 40.875 45.40625 35.40625 
Q 44.1875 33.984375 37.640625 27.21875 
Q 31.109375 20.453125 19.1875 8.296875 
z
" id="DejaVuSans-50"/>
       </defs>
       <use xlink:href="#DejaVuSans-50"/>
       <use x="63.623047" xlink:href="#DejaVuSans-48"/>
      </g>
     </g>
    </g>
    <g id="xtick_4">
     <g id="line2d_7">
      <path clip-path="url(#p021b53c6c7)" d="M 250.049618 101.591591 
L 250.049618 22.5225 
" style="fill:none;stroke:#b0b0b0;stroke-linecap:square;stroke-width:0.8;"/>
     </g>
     <g id="line2d_8">
      <g>
       <use style="stroke:#000000;stroke-width:0.8;" x="250.049618" xlink:href="#m4a22283b36" y="101.591591"/>
      </g>
     </g>
     <g id="text_4">
      <!-- 30 -->
      <g transform="translate(243.687118 116.190028)scale(0.1 -0.1)">
       <defs>
        <path d="M 40.578125 39.3125 
Q 47.65625 37.796875 51.625 33 
Q 55.609375 28.21875 55.609375 21.1875 
Q 55.609375 10.40625 48.1875 4.484375 
Q 40.765625 -1.421875 27.09375 -1.421875 
Q 22.515625 -1.421875 17.65625 -0.515625 
Q 12.796875 0.390625 7.625 2.203125 
L 7.625 11.71875 
Q 11.71875 9.328125 16.59375 8.109375 
Q 21.484375 6.890625 26.8125 6.890625 
Q 36.078125 6.890625 40.9375 10.546875 
Q 45.796875 14.203125 45.796875 21.1875 
Q 45.796875 27.640625 41.28125 31.265625 
Q 36.765625 34.90625 28.71875 34.90625 
L 20.21875 34.90625 
L 20.21875 43.015625 
L 29.109375 43.015625 
Q 36.375 43.015625 40.234375 45.921875 
Q 44.09375 48.828125 44.09375 54.296875 
Q 44.09375 59.90625 40.109375 62.90625 
Q 36.140625 65.921875 28.71875 65.921875 
Q 24.65625 65.921875 20.015625 65.03125 
Q 15.375 64.15625 9.8125 62.3125 
L 9.8125 71.09375 
Q 15.4375 72.65625 20.34375 73.4375 
Q 25.25 74.21875 29.59375 74.21875 
Q 40.828125 74.21875 47.359375 69.109375 
Q 53.90625 64.015625 53.90625 55.328125 
Q 53.90625 49.265625 50.4375 45.09375 
Q 46.96875 40.921875 40.578125 39.3125 
z
" id="DejaVuSans-51"/>
       </defs>
       <use xlink:href="#DejaVuSans-51"/>
       <use x="63.623047" xlink:href="#DejaVuSans-48"/>
      </g>
     </g>
    </g>
    <g id="xtick_5">
     <g id="line2d_9">
      <path clip-path="url(#p021b53c6c7)" d="M 310.932492 101.591591 
L 310.932492 22.5225 
" style="fill:none;stroke:#b0b0b0;stroke-linecap:square;stroke-width:0.8;"/>
     </g>
     <g id="line2d_10">
      <g>
       <use style="stroke:#000000;stroke-width:0.8;" x="310.932492" xlink:href="#m4a22283b36" y="101.591591"/>
      </g>
     </g>
     <g id="text_5">
      <!-- 40 -->
      <g transform="translate(304.569992 116.190028)scale(0.1 -0.1)">
       <defs>
        <path d="M 37.796875 64.3125 
L 12.890625 25.390625 
L 37.796875 25.390625 
z
M 35.203125 72.90625 
L 47.609375 72.90625 
L 47.609375 25.390625 
L 58.015625 25.390625 
L 58.015625 17.1875 
L 47.609375 17.1875 
L 47.609375 0 
L 37.796875 0 
L 37.796875 17.1875 
L 4.890625 17.1875 
L 4.890625 26.703125 
z
" id="DejaVuSans-52"/>
       </defs>
       <use xlink:href="#DejaVuSans-52"/>
       <use x="63.623047" xlink:href="#DejaVuSans-48"/>
      </g>
     </g>
    </g>
    <g id="xtick_6">
     <g id="line2d_11">
      <path clip-path="url(#p021b53c6c7)" d="M 371.815366 101.591591 
L 371.815366 22.5225 
" style="fill:none;stroke:#b0b0b0;stroke-linecap:square;stroke-width:0.8;"/>
     </g>
     <g id="line2d_12">
      <g>
       <use style="stroke:#000000;stroke-width:0.8;" x="371.815366" xlink:href="#m4a22283b36" y="101.591591"/>
      </g>
     </g>
     <g id="text_6">
      <!-- 50 -->
      <g transform="translate(365.452866 116.190028)scale(0.1 -0.1)">
       <defs>
        <path d="M 10.796875 72.90625 
L 49.515625 72.90625 
L 49.515625 64.59375 
L 19.828125 64.59375 
L 19.828125 46.734375 
Q 21.96875 47.46875 24.109375 47.828125 
Q 26.265625 48.1875 28.421875 48.1875 
Q 40.625 48.1875 47.75 41.5 
Q 54.890625 34.8125 54.890625 23.390625 
Q 54.890625 11.625 47.5625 5.09375 
Q 40.234375 -1.421875 26.90625 -1.421875 
Q 22.3125 -1.421875 17.546875 -0.640625 
Q 12.796875 0.140625 7.71875 1.703125 
L 7.71875 11.625 
Q 12.109375 9.234375 16.796875 8.0625 
Q 21.484375 6.890625 26.703125 6.890625 
Q 35.15625 6.890625 40.078125 11.328125 
Q 45.015625 15.765625 45.015625 23.390625 
Q 45.015625 31 40.078125 35.4375 
Q 35.15625 39.890625 26.703125 39.890625 
Q 22.75 39.890625 18.8125 39.015625 
Q 14.890625 38.140625 10.796875 36.28125 
z
" id="DejaVuSans-53"/>
       </defs>
       <use xlink:href="#DejaVuSans-53"/>
       <use x="63.623047" xlink:href="#DejaVuSans-48"/>
      </g>
     </g>
    </g>
    <g id="text_7">
     <!-- Tiempo (s) -->
     <g transform="translate(193.020313 129.868153)scale(0.1 -0.1)">
      <defs>
       <path d="M -0.296875 72.90625 
L 61.375 72.90625 
L 61.375 64.59375 
L 35.5 64.59375 
L 35.5 0 
L 25.59375 0 
L 25.59375 64.59375 
L -0.296875 64.59375 
z
" id="DejaVuSans-84"/>
       <path d="M 9.421875 54.6875 
L 18.40625 54.6875 
L 18.40625 0 
L 9.421875 0 
z
M 9.421875 75.984375 
L 18.40625 75.984375 
L 18.40625 64.59375 
L 9.421875 64.59375 
z
" id="DejaVuSans-105"/>
       <path d="M 56.203125 29.59375 
L 56.203125 25.203125 
L 14.890625 25.203125 
Q 15.484375 15.921875 20.484375 11.0625 
Q 25.484375 6.203125 34.421875 6.203125 
Q 39.59375 6.203125 44.453125 7.46875 
Q 49.3125 8.734375 54.109375 11.28125 
L 54.109375 2.78125 
Q 49.265625 0.734375 44.1875 -0.34375 
Q 39.109375 -1.421875 33.890625 -1.421875 
Q 20.796875 -1.421875 13.15625 6.1875 
Q 5.515625 13.8125 5.515625 26.8125 
Q 5.515625 40.234375 12.765625 48.109375 
Q 20.015625 56 32.328125 56 
Q 43.359375 56 49.78125 48.890625 
Q 56.203125 41.796875 56.203125 29.59375 
z
M 47.21875 32.234375 
Q 47.125 39.59375 43.09375 43.984375 
Q 39.0625 48.390625 32.421875 48.390625 
Q 24.90625 48.390625 20.390625 44.140625 
Q 15.875 39.890625 15.1875 32.171875 
z
" id="DejaVuSans-101"/>
       <path d="M 52 44.1875 
Q 55.375 50.25 60.0625 53.125 
Q 64.75 56 71.09375 56 
Q 79.640625 56 84.28125 50.015625 
Q 88.921875 44.046875 88.921875 33.015625 
L 88.921875 0 
L 79.890625 0 
L 79.890625 32.71875 
Q 79.890625 40.578125 77.09375 44.375 
Q 74.3125 48.1875 68.609375 48.1875 
Q 61.625 48.1875 57.5625 43.546875 
Q 53.515625 38.921875 53.515625 30.90625 
L 53.515625 0 
L 44.484375 0 
L 44.484375 32.71875 
Q 44.484375 40.625 41.703125 44.40625 
Q 38.921875 48.1875 33.109375 48.1875 
Q 26.21875 48.1875 22.15625 43.53125 
Q 18.109375 38.875 18.109375 30.90625 
L 18.109375 0 
L 9.078125 0 
L 9.078125 54.6875 
L 18.109375 54.6875 
L 18.109375 46.1875 
Q 21.1875 51.21875 25.484375 53.609375 
Q 29.78125 56 35.6875 56 
Q 41.65625 56 45.828125 52.96875 
Q 50 49.953125 52 44.1875 
z
" id="DejaVuSans-109"/>
       <path d="M 18.109375 8.203125 
L 18.109375 -20.796875 
L 9.078125 -20.796875 
L 9.078125 54.6875 
L 18.109375 54.6875 
L 18.109375 46.390625 
Q 20.953125 51.265625 25.265625 53.625 
Q 29.59375 56 35.59375 56 
Q 45.5625 56 51.78125 48.09375 
Q 58.015625 40.1875 58.015625 27.296875 
Q 58.015625 14.40625 51.78125 6.484375 
Q 45.5625 -1.421875 35.59375 -1.421875 
Q 29.59375 -1.421875 25.265625 0.953125 
Q 20.953125 3.328125 18.109375 8.203125 
z
M 48.6875 27.296875 
Q 48.6875 37.203125 44.609375 42.84375 
Q 40.53125 48.484375 33.40625 48.484375 
Q 26.265625 48.484375 22.1875 42.84375 
Q 18.109375 37.203125 18.109375 27.296875 
Q 18.109375 17.390625 22.1875 11.75 
Q 26.265625 6.109375 33.40625 6.109375 
Q 40.53125 6.109375 44.609375 11.75 
Q 48.6875 17.390625 48.6875 27.296875 
z
" id="DejaVuSans-112"/>
       <path d="M 30.609375 48.390625 
Q 23.390625 48.390625 19.1875 42.75 
Q 14.984375 37.109375 14.984375 27.296875 
Q 14.984375 17.484375 19.15625 11.84375 
Q 23.34375 6.203125 30.609375 6.203125 
Q 37.796875 6.203125 41.984375 11.859375 
Q 46.1875 17.53125 46.1875 27.296875 
Q 46.1875 37.015625 41.984375 42.703125 
Q 37.796875 48.390625 30.609375 48.390625 
z
M 30.609375 56 
Q 42.328125 56 49.015625 48.375 
Q 55.71875 40.765625 55.71875 27.296875 
Q 55.71875 13.875 49.015625 6.21875 
Q 42.328125 -1.421875 30.609375 -1.421875 
Q 18.84375 -1.421875 12.171875 6.21875 
Q 5.515625 13.875 5.515625 27.296875 
Q 5.515625 40.765625 12.171875 48.375 
Q 18.84375 56 30.609375 56 
z
" id="DejaVuSans-111"/>
       <path id="DejaVuSans-32"/>
       <path d="M 31 75.875 
Q 24.46875 64.65625 21.28125 53.65625 
Q 18.109375 42.671875 18.109375 31.390625 
Q 18.109375 20.125 21.3125 9.0625 
Q 24.515625 -2 31 -13.1875 
L 23.1875 -13.1875 
Q 15.875 -1.703125 12.234375 9.375 
Q 8.59375 20.453125 8.59375 31.390625 
Q 8.59375 42.28125 12.203125 53.3125 
Q 15.828125 64.359375 23.1875 75.875 
z
" id="DejaVuSans-40"/>
       <path d="M 44.28125 53.078125 
L 44.28125 44.578125 
Q 40.484375 46.53125 36.375 47.5 
Q 32.28125 48.484375 27.875 48.484375 
Q 21.1875 48.484375 17.84375 46.4375 
Q 14.5 44.390625 14.5 40.28125 
Q 14.5 37.15625 16.890625 35.375 
Q 19.28125 33.59375 26.515625 31.984375 
L 29.59375 31.296875 
Q 39.15625 29.25 43.1875 25.515625 
Q 47.21875 21.78125 47.21875 15.09375 
Q 47.21875 7.46875 41.1875 3.015625 
Q 35.15625 -1.421875 24.609375 -1.421875 
Q 20.21875 -1.421875 15.453125 -0.5625 
Q 10.6875 0.296875 5.421875 2 
L 5.421875 11.28125 
Q 10.40625 8.6875 15.234375 7.390625 
Q 20.0625 6.109375 24.8125 6.109375 
Q 31.15625 6.109375 34.5625 8.28125 
Q 37.984375 10.453125 37.984375 14.40625 
Q 37.984375 18.0625 35.515625 20.015625 
Q 33.0625 21.96875 24.703125 23.78125 
L 21.578125 24.515625 
Q 13.234375 26.265625 9.515625 29.90625 
Q 5.8125 33.546875 5.8125 39.890625 
Q 5.8125 47.609375 11.28125 51.796875 
Q 16.75 56 26.8125 56 
Q 31.78125 56 36.171875 55.265625 
Q 40.578125 54.546875 44.28125 53.078125 
z
" id="DejaVuSans-115"/>
       <path d="M 8.015625 75.875 
L 15.828125 75.875 
Q 23.140625 64.359375 26.78125 53.3125 
Q 30.421875 42.28125 30.421875 31.390625 
Q 30.421875 20.453125 26.78125 9.375 
Q 23.140625 -1.703125 15.828125 -13.1875 
L 8.015625 -13.1875 
Q 14.5 -2 17.703125 9.0625 
Q 20.90625 20.125 20.90625 31.390625 
Q 20.90625 42.671875 17.703125 53.65625 
Q 14.5 64.65625 8.015625 75.875 
z
" id="DejaVuSans-41"/>
      </defs>
      <use xlink:href="#DejaVuSans-84"/>
      <use x="57.958984" xlink:href="#DejaVuSans-105"/>
      <use x="85.742188" xlink:href="#DejaVuSans-101"/>
      <use x="147.265625" xlink:href="#DejaVuSans-109"/>
      <use x="244.677734" xlink:href="#DejaVuSans-112"/>
      <use x="308.154297" xlink:href="#DejaVuSans-111"/>
      <use x="369.335938" xlink:href="#DejaVuSans-32"/>
      <use x="401.123047" xlink:href="#DejaVuSans-40"/>
      <use x="440.136719" xlink:href="#DejaVuSans-115"/>
      <use x="492.236328" xlink:href="#DejaVuSans-41"/>
     </g>
    </g>
   </g>
   <g id="matplotlib.axis_2">
    <g id="ytick_1">
     <g id="line2d_13">
      <path clip-path="url(#p021b53c6c7)" d="M 52.182813 99.00659 
L 386.982813 99.00659 
" style="fill:none;stroke:#b0b0b0;stroke-linecap:square;stroke-width:0.8;"/>
     </g>
     <g id="line2d_14">
      <defs>
       <path d="M 0 0 
L -3.5 0 
" id="m954d06bcc6" style="stroke:#000000;stroke-width:0.8;"/>
      </defs>
      <g>
       <use style="stroke:#000000;stroke-width:0.8;" x="52.182813" xlink:href="#m954d06bcc6" y="99.00659"/>
      </g>
     </g>
     <g id="text_8">
      <!-- −0.2 -->
      <g transform="translate(20.9 102.805809)scale(0.1 -0.1)">
       <defs>
        <path d="M 10.59375 35.5 
L 73.1875 35.5 
L 73.1875 27.203125 
L 10.59375 27.203125 
z
" id="DejaVuSans-8722"/>
        <path d="M 10.6875 12.40625 
L 21 12.40625 
L 21 0 
L 10.6875 0 
z
" id="DejaVuSans-46"/>
       </defs>
       <use xlink:href="#DejaVuSans-8722"/>
       <use x="83.789062" xlink:href="#DejaVuSans-48"/>
       <use x="147.412109" xlink:href="#DejaVuSans-46"/>
       <use x="179.199219" xlink:href="#DejaVuSans-50"/>
      </g>
     </g>
    </g>
    <g id="ytick_2">
     <g id="line2d_15">
      <path clip-path="url(#p021b53c6c7)" d="M 52.182813 64.643552 
L 386.982813 64.643552 
" style="fill:none;stroke:#b0b0b0;stroke-linecap:square;stroke-width:0.8;"/>
     </g>
     <g id="line2d_16">
      <g>
       <use style="stroke:#000000;stroke-width:0.8;" x="52.182813" xlink:href="#m954d06bcc6" y="64.643552"/>
      </g>
     </g>
     <g id="text_9">
      <!-- 0.0 -->
      <g transform="translate(29.279688 68.442771)scale(0.1 -0.1)">
       <use xlink:href="#DejaVuSans-48"/>
       <use x="63.623047" xlink:href="#DejaVuSans-46"/>
       <use x="95.410156" xlink:href="#DejaVuSans-48"/>
      </g>
     </g>
    </g>
    <g id="ytick_3">
     <g id="line2d_17">
      <path clip-path="url(#p021b53c6c7)" d="M 52.182813 30.280514 
L 386.982813 30.280514 
" style="fill:none;stroke:#b0b0b0;stroke-linecap:square;stroke-width:0.8;"/>
     </g>
     <g id="line2d_18">
      <g>
       <use style="stroke:#000000;stroke-width:0.8;" x="52.182813" xlink:href="#m954d06bcc6" y="30.280514"/>
      </g>
     </g>
     <g id="text_10">
      <!-- 0.2 -->
      <g transform="translate(29.279688 34.079733)scale(0.1 -0.1)">
       <use xlink:href="#DejaVuSans-48"/>
       <use x="63.623047" xlink:href="#DejaVuSans-46"/>
       <use x="95.410156" xlink:href="#DejaVuSans-50"/>
      </g>
     </g>
    </g>
    <g id="text_11">
     <!-- $y(t)$ -->
     <g transform="translate(14.8 70.907045)rotate(-90)scale(0.1 -0.1)">
      <defs>
       <path d="M 24.8125 -5.078125 
Q 18.5625 -15.578125 14.625 -18.1875 
Q 10.6875 -20.796875 4.59375 -20.796875 
L -2.484375 -20.796875 
L -0.984375 -13.28125 
L 4.203125 -13.28125 
Q 7.953125 -13.28125 10.59375 -11.234375 
Q 13.234375 -9.1875 16.5 -3.21875 
L 19.28125 2 
L 7.171875 54.6875 
L 16.703125 54.6875 
L 25.78125 12.796875 
L 50.875 54.6875 
L 60.296875 54.6875 
z
" id="DejaVuSans-Oblique-121"/>
       <path d="M 42.28125 54.6875 
L 40.921875 47.703125 
L 23 47.703125 
L 17.1875 18.015625 
Q 16.890625 16.359375 16.75 15.234375 
Q 16.609375 14.109375 16.609375 13.484375 
Q 16.609375 10.359375 18.484375 8.9375 
Q 20.359375 7.515625 24.515625 7.515625 
L 33.59375 7.515625 
L 32.078125 0 
L 23.484375 0 
Q 15.484375 0 11.546875 3.125 
Q 7.625 6.25 7.625 12.59375 
Q 7.625 13.71875 7.765625 15.0625 
Q 7.90625 16.40625 8.203125 18.015625 
L 14.015625 47.703125 
L 6.390625 47.703125 
L 7.8125 54.6875 
L 15.28125 54.6875 
L 18.3125 70.21875 
L 27.296875 70.21875 
L 24.3125 54.6875 
z
" id="DejaVuSans-Oblique-116"/>
      </defs>
      <use transform="translate(0 0.125)" xlink:href="#DejaVuSans-Oblique-121"/>
      <use transform="translate(59.179688 0.125)" xlink:href="#DejaVuSans-40"/>
      <use transform="translate(98.193359 0.125)" xlink:href="#DejaVuSans-Oblique-116"/>
      <use transform="translate(137.402344 0.125)" xlink:href="#DejaVuSans-41"/>
     </g>
    </g>
   </g>
   <g id="line2d_19">
    <path clip-path="url(#p021b53c6c7)" d="M 67.400994 64.64356 
L 83.814003 64.54955 
L 84.143785 64.304159 
L 84.422831 63.776484 
L 84.727246 62.620803 
L 85.107764 60.109451 
L 85.589753 55.249577 
L 87.568446 33.160865 
L 87.9997 31.15848 
L 88.329482 30.474774 
L 88.583161 30.378291 
L 88.811472 30.55521 
L 89.141254 31.149246 
L 89.724715 32.770796 
L 90.942372 36.181689 
L 91.652673 37.482718 
L 93.732838 40.810777 
L 94.493873 42.856084 
L 95.48322 46.226041 
L 98.222949 56.758785 
L 98.907882 58.899208 
L 99.440607 59.894103 
L 100.227011 61.245166 
L 100.709 62.612712 
L 101.292461 65.013632 
L 102.154968 69.665725 
L 103.80388 78.596524 
L 104.717123 82.254573 
L 105.782573 85.563147 
L 107.964209 91.400213 
L 109.283338 94.436858 
L 110.221949 96.07261 
L 111.033721 97.07084 
L 111.794757 97.667175 
L 112.505057 97.949065 
L 113.189989 97.983585 
L 113.874922 97.788933 
L 114.585222 97.341385 
L 115.32089 96.607541 
L 116.132662 95.474344 
L 117.045905 93.799916 
L 118.085987 91.404407 
L 119.278277 88.076137 
L 120.673509 83.494027 
L 122.373156 77.10511 
L 124.808471 66.983941 
L 128.664387 50.999825 
L 129.247848 48.226904 
L 130.008884 43.113319 
L 130.668448 37.053886 
L 131.607059 28.578828 
L 132.012945 26.684449 
L 132.317359 26.141999 
L 132.494934 26.145928 
L 132.697877 26.403487 
L 133.002292 27.205194 
L 133.535017 29.361993 
L 134.625835 33.809233 
L 135.107824 34.913471 
L 135.488342 35.321775 
L 135.818124 35.393948 
L 136.198642 35.242896 
L 137.746082 34.366517 
L 138.1266 34.521098 
L 138.557854 34.960134 
L 139.090579 35.860359 
L 139.826247 37.59804 
L 141.120008 41.334229 
L 143.200173 47.986871 
L 144.646141 53.408048 
L 146.574099 61.637891 
L 150.049496 76.470736 
L 151.723775 82.64387 
L 153.017536 86.62301 
L 154.082987 89.23878 
L 154.99623 90.940539 
L 155.782634 91.976553 
L 156.467566 92.541256 
L 157.076395 92.772871 
L 157.634488 92.75892 
L 158.217949 92.512175 
L 158.826777 92.000963 
L 159.638549 91.266301 
L 159.968331 91.30146 
L 160.374217 91.579934 
L 161.109885 92.163451 
L 161.363564 92.09365 
L 161.64261 91.755681 
L 161.99776 90.900134 
L 162.454382 89.133663 
L 163.139314 85.432192 
L 165.44779 72.172863 
L 166.690815 66.940266 
L 169.075395 57.01649 
L 170.901881 49.594499 
L 172.043435 45.874914 
L 173.058149 43.288952 
L 173.971392 41.531381 
L 174.757796 40.456624 
L 175.442729 39.868907 
L 176.026189 39.637963 
L 176.558915 39.651731 
L 177.09164 39.883549 
L 177.675101 40.387359 
L 178.334665 41.265112 
L 179.095701 42.666775 
L 179.983576 44.791045 
L 181.049027 47.959446 
L 182.342788 52.560389 
L 184.09317 59.695457 
L 188.177396 76.639403 
L 189.471158 80.938809 
L 190.181458 83.375 
L 191.120069 87.686837 
L 192.464566 94.146314 
L 192.819716 94.775045 
L 193.073394 94.841625 
L 193.301705 94.646071 
L 193.606119 94.055582 
L 194.088109 92.536397 
L 195.432606 87.113547 
L 196.295113 84.311985 
L 197.335195 81.752998 
L 198.426014 78.940769 
L 199.313889 75.95422 
L 200.455443 71.229117 
L 203.880104 56.587277 
L 205.402176 51.21522 
L 206.594466 47.764622 
L 207.533077 45.683092 
L 208.319481 44.44916 
L 208.979045 43.80113 
L 209.537138 43.536355 
L 210.069863 43.527188 
L 210.602589 43.753927 
L 211.186049 44.267939 
L 211.845614 45.173341 
L 212.60665 46.625196 
L 213.494525 48.827567 
L 214.559975 52.098967 
L 215.92984 57.07548 
L 221.231724 77.156601 
L 222.271806 79.870133 
L 223.134314 81.54924 
L 223.869982 82.527429 
L 224.47881 83.002879 
L 225.011535 83.164025 
L 225.518893 83.094529 
L 226.051618 82.788699 
L 226.635079 82.185216 
L 227.320011 81.131867 
L 228.106415 79.49252 
L 229.045026 76.998983 
L 230.237316 73.145741 
L 231.96233 66.713754 
L 234.828899 56.031176 
L 236.071924 52.279783 
L 237.061271 49.962477 
L 237.873043 48.589005 
L 238.557975 47.835549 
L 239.141436 47.500126 
L 239.674161 47.444872 
L 240.181518 47.615389 
L 240.739611 48.051179 
L 241.373808 48.852675 
L 242.109476 50.168402 
L 242.971983 52.189939 
L 244.037434 55.287408 
L 245.483402 60.237348 
L 249.18711 73.228219 
L 250.277928 76.121623 
L 250.73455 76.842605 
L 250.962861 76.902232 
L 251.165804 76.728776 
L 251.546322 75.988879 
L 251.977575 74.638402 
L 252.408829 72.423654 
L 253.778694 64.484303 
L 254.007004 64.26751 
L 254.159212 64.380005 
L 254.387522 64.91451 
L 254.742672 66.473531 
L 255.478341 71.045849 
L 256.163273 74.714117 
L 256.594527 75.959889 
L 256.873573 76.232873 
L 257.076516 76.170936 
L 257.330195 75.806587 
L 257.685345 74.83148 
L 258.21807 72.628217 
L 260.501178 62.367565 
L 261.363685 59.966874 
L 262.835021 56.688263 
L 264.585404 53.158196 
L 265.34644 52.101639 
L 265.929901 51.632613 
L 266.437258 51.491948 
L 266.919247 51.588966 
L 267.451973 51.944258 
L 268.060801 52.640197 
L 268.796469 53.840602 
L 269.709712 55.789232 
L 270.851266 58.794202 
L 272.47481 63.779278 
L 275.011596 71.542546 
L 276.127782 74.241721 
L 277.015657 75.857707 
L 277.751325 76.780121 
L 278.385522 77.248394 
L 278.943615 77.401306 
L 279.47634 77.318966 
L 280.034433 76.996245 
L 280.643262 76.377286 
L 281.683344 74.91586 
L 282.495116 73.468999 
L 283.306888 71.532517 
L 284.372338 68.336621 
L 286.985228 60.288141 
L 288.101414 57.669471 
L 289.040025 55.990714 
L 289.826429 54.995717 
L 290.485993 54.482096 
L 291.069454 54.289843 
L 291.602179 54.336923 
L 292.160272 54.614958 
L 292.769101 55.177632 
L 293.479401 56.15288 
L 294.341909 57.740295 
L 295.458095 60.301464 
L 297.41142 65.465895 
L 299.187171 69.909957 
L 300.277989 72.072343 
L 301.140496 73.323466 
L 301.850797 73.998613 
L 302.484993 74.310408 
L 303.068454 74.348488 
L 303.626547 74.162789 
L 304.235376 73.719976 
L 304.945676 72.90609 
L 305.782816 71.581531 
L 306.848266 69.439259 
L 308.522545 65.484857 
L 310.577342 60.763733 
L 312.302357 57.033548 
L 313.672221 53.445816 
L 314.027371 53.124826 
L 314.331786 53.131866 
L 314.6362 53.380835 
L 315.042086 54.028249 
L 315.676283 55.520317 
L 317.73108 60.62254 
L 319.329255 63.604797 
L 321.079638 67.118518 
L 322.500238 69.797894 
L 323.362746 70.973868 
L 324.073046 71.596241 
L 324.707242 71.879096 
L 325.316071 71.917745 
L 325.950268 71.731139 
L 326.6352 71.291604 
L 327.421604 70.515188 
L 328.360215 69.251377 
L 329.577872 67.20099 
L 332.850327 61.490386 
L 333.839673 60.297384 
L 334.651445 59.64103 
L 335.361745 59.331491 
L 336.02131 59.273502 
L 336.680874 59.434538 
L 337.391174 59.840727 
L 338.202946 60.570357 
L 339.217661 61.804616 
L 340.739733 64.05872 
L 342.033494 65.880673 
L 342.337908 65.951097 
L 342.693058 65.803588 
L 342.997473 65.451112 
L 343.327255 64.691215 
L 343.986819 62.402557 
L 344.494177 61.044825 
L 344.823959 60.681269 
L 345.05227 60.699929 
L 345.305948 60.971409 
L 345.661098 61.739012 
L 346.219191 63.569275 
L 347.436849 67.654318 
L 347.918838 68.541036 
L 348.299356 68.83782 
L 348.629138 68.825429 
L 348.984289 68.575394 
L 349.491646 67.909164 
L 352.0538 64.076207 
L 352.992411 63.354551 
L 354.590587 62.45775 
L 355.782876 61.988359 
L 356.620016 61.889878 
L 357.76157 62.024974 
L 358.877756 62.383269 
L 359.968574 62.96959 
L 361.08476 63.827673 
L 362.251682 65.017711 
L 363.469339 66.589697 
L 364.7631 68.637222 
L 366.488115 71.413036 
L 366.817897 71.458872 
L 367.147679 71.260605 
L 367.553565 70.726667 
L 368.187762 69.46066 
L 369.684466 66.363888 
L 370.318662 65.587211 
L 370.902123 65.209635 
L 371.53632 65.072658 
L 371.764631 65.068087 
L 371.764631 65.068087 
" style="fill:none;stroke:#1f77b4;stroke-linecap:square;stroke-width:1.5;"/>
   </g>
   <g id="patch_3">
    <path d="M 52.182813 101.591591 
L 52.182813 22.5225 
" style="fill:none;stroke:#000000;stroke-linecap:square;stroke-linejoin:miter;stroke-width:0.8;"/>
   </g>
   <g id="patch_4">
    <path d="M 386.982813 101.591591 
L 386.982813 22.5225 
" style="fill:none;stroke:#000000;stroke-linecap:square;stroke-linejoin:miter;stroke-width:0.8;"/>
   </g>
   <g id="patch_5">
    <path d="M 52.182813 101.591591 
L 386.982813 101.591591 
" style="fill:none;stroke:#000000;stroke-linecap:square;stroke-linejoin:miter;stroke-width:0.8;"/>
   </g>
   <g id="patch_6">
    <path d="M 52.182813 22.5225 
L 386.982813 22.5225 
" style="fill:none;stroke:#000000;stroke-linecap:square;stroke-linejoin:miter;stroke-width:0.8;"/>
   </g>
   <g id="text_12">
    <!-- Señal en el tiempo -->
    <g transform="translate(163.32625 16.5225)scale(0.12 -0.12)">
     <defs>
      <path d="M 53.515625 70.515625 
L 53.515625 60.890625 
Q 47.90625 63.578125 42.921875 64.890625 
Q 37.9375 66.21875 33.296875 66.21875 
Q 25.25 66.21875 20.875 63.09375 
Q 16.5 59.96875 16.5 54.203125 
Q 16.5 49.359375 19.40625 46.890625 
Q 22.3125 44.4375 30.421875 42.921875 
L 36.375 41.703125 
Q 47.40625 39.59375 52.65625 34.296875 
Q 57.90625 29 57.90625 20.125 
Q 57.90625 9.515625 50.796875 4.046875 
Q 43.703125 -1.421875 29.984375 -1.421875 
Q 24.8125 -1.421875 18.96875 -0.25 
Q 13.140625 0.921875 6.890625 3.21875 
L 6.890625 13.375 
Q 12.890625 10.015625 18.65625 8.296875 
Q 24.421875 6.59375 29.984375 6.59375 
Q 38.421875 6.59375 43.015625 9.90625 
Q 47.609375 13.234375 47.609375 19.390625 
Q 47.609375 24.75 44.3125 27.78125 
Q 41.015625 30.8125 33.5 32.328125 
L 27.484375 33.5 
Q 16.453125 35.6875 11.515625 40.375 
Q 6.59375 45.0625 6.59375 53.421875 
Q 6.59375 63.09375 13.40625 68.65625 
Q 20.21875 74.21875 32.171875 74.21875 
Q 37.3125 74.21875 42.625 73.28125 
Q 47.953125 72.359375 53.515625 70.515625 
z
" id="DejaVuSans-83"/>
      <path d="M 54.890625 33.015625 
L 54.890625 0 
L 45.90625 0 
L 45.90625 32.71875 
Q 45.90625 40.484375 42.875 44.328125 
Q 39.84375 48.1875 33.796875 48.1875 
Q 26.515625 48.1875 22.3125 43.546875 
Q 18.109375 38.921875 18.109375 30.90625 
L 18.109375 0 
L 9.078125 0 
L 9.078125 54.6875 
L 18.109375 54.6875 
L 18.109375 46.1875 
Q 21.34375 51.125 25.703125 53.5625 
Q 30.078125 56 35.796875 56 
Q 45.21875 56 50.046875 50.171875 
Q 54.890625 44.34375 54.890625 33.015625 
z
M 32.234375 66.890625 
L 29.4375 69.578125 
Q 28.375 70.5625 27.5625 71.015625 
Q 26.765625 71.484375 26.125 71.484375 
Q 24.265625 71.484375 23.390625 69.703125 
Q 22.515625 67.921875 22.40625 63.921875 
L 16.3125 63.921875 
Q 16.40625 70.515625 18.890625 74.09375 
Q 21.390625 77.6875 25.828125 77.6875 
Q 27.6875 77.6875 29.25 77 
Q 30.8125 76.3125 32.625 74.703125 
L 35.40625 72.015625 
Q 36.46875 71.046875 37.28125 70.578125 
Q 38.09375 70.125 38.71875 70.125 
Q 40.578125 70.125 41.453125 71.90625 
Q 42.328125 73.6875 42.4375 77.6875 
L 48.53125 77.6875 
Q 48.4375 71.09375 45.9375 67.5 
Q 43.453125 63.921875 39.015625 63.921875 
Q 37.15625 63.921875 35.59375 64.59375 
Q 34.03125 65.28125 32.234375 66.890625 
z
" id="DejaVuSans-241"/>
      <path d="M 34.28125 27.484375 
Q 23.390625 27.484375 19.1875 25 
Q 14.984375 22.515625 14.984375 16.5 
Q 14.984375 11.71875 18.140625 8.90625 
Q 21.296875 6.109375 26.703125 6.109375 
Q 34.1875 6.109375 38.703125 11.40625 
Q 43.21875 16.703125 43.21875 25.484375 
L 43.21875 27.484375 
z
M 52.203125 31.203125 
L 52.203125 0 
L 43.21875 0 
L 43.21875 8.296875 
Q 40.140625 3.328125 35.546875 0.953125 
Q 30.953125 -1.421875 24.3125 -1.421875 
Q 15.921875 -1.421875 10.953125 3.296875 
Q 6 8.015625 6 15.921875 
Q 6 25.140625 12.171875 29.828125 
Q 18.359375 34.515625 30.609375 34.515625 
L 43.21875 34.515625 
L 43.21875 35.40625 
Q 43.21875 41.609375 39.140625 45 
Q 35.0625 48.390625 27.6875 48.390625 
Q 23 48.390625 18.546875 47.265625 
Q 14.109375 46.140625 10.015625 43.890625 
L 10.015625 52.203125 
Q 14.9375 54.109375 19.578125 55.046875 
Q 24.21875 56 28.609375 56 
Q 40.484375 56 46.34375 49.84375 
Q 52.203125 43.703125 52.203125 31.203125 
z
" id="DejaVuSans-97"/>
      <path d="M 9.421875 75.984375 
L 18.40625 75.984375 
L 18.40625 0 
L 9.421875 0 
z
" id="DejaVuSans-108"/>
      <path d="M 54.890625 33.015625 
L 54.890625 0 
L 45.90625 0 
L 45.90625 32.71875 
Q 45.90625 40.484375 42.875 44.328125 
Q 39.84375 48.1875 33.796875 48.1875 
Q 26.515625 48.1875 22.3125 43.546875 
Q 18.109375 38.921875 18.109375 30.90625 
L 18.109375 0 
L 9.078125 0 
L 9.078125 54.6875 
L 18.109375 54.6875 
L 18.109375 46.1875 
Q 21.34375 51.125 25.703125 53.5625 
Q 30.078125 56 35.796875 56 
Q 45.21875 56 50.046875 50.171875 
Q 54.890625 44.34375 54.890625 33.015625 
z
" id="DejaVuSans-110"/>
      <path d="M 18.3125 70.21875 
L 18.3125 54.6875 
L 36.8125 54.6875 
L 36.8125 47.703125 
L 18.3125 47.703125 
L 18.3125 18.015625 
Q 18.3125 11.328125 20.140625 9.421875 
Q 21.96875 7.515625 27.59375 7.515625 
L 36.8125 7.515625 
L 36.8125 0 
L 27.59375 0 
Q 17.1875 0 13.234375 3.875 
Q 9.28125 7.765625 9.28125 18.015625 
L 9.28125 47.703125 
L 2.6875 47.703125 
L 2.6875 54.6875 
L 9.28125 54.6875 
L 9.28125 70.21875 
z
" id="DejaVuSans-116"/>
     </defs>
     <use xlink:href="#DejaVuSans-83"/>
     <use x="63.476562" xlink:href="#DejaVuSans-101"/>
     <use x="125" xlink:href="#DejaVuSans-241"/>
     <use x="188.378906" xlink:href="#DejaVuSans-97"/>
     <use x="249.658203" xlink:href="#DejaVuSans-108"/>
     <use x="277.441406" xlink:href="#DejaVuSans-32"/>
     <use x="309.228516" xlink:href="#DejaVuSans-101"/>
     <use x="370.751953" xlink:href="#DejaVuSans-110"/>
     <use x="434.130859" xlink:href="#DejaVuSans-32"/>
     <use x="465.917969" xlink:href="#DejaVuSans-101"/>
     <use x="527.441406" xlink:href="#DejaVuSans-108"/>
     <use x="555.224609" xlink:href="#DejaVuSans-32"/>
     <use x="587.011719" xlink:href="#DejaVuSans-116"/>
     <use x="626.220703" xlink:href="#DejaVuSans-105"/>
     <use x="654.003906" xlink:href="#DejaVuSans-101"/>
     <use x="715.527344" xlink:href="#DejaVuSans-109"/>
     <use x="812.939453" xlink:href="#DejaVuSans-112"/>
     <use x="876.416016" xlink:href="#DejaVuSans-111"/>
    </g>
   </g>
  </g>
  <g id="axes_2">
   <g id="patch_7">
    <path d="M 52.182813 239.9625 
L 386.982813 239.9625 
L 386.982813 160.893409 
L 52.182813 160.893409 
z
" style="fill:#ffffff;"/>
   </g>
   <g id="matplotlib.axis_3">
    <g id="xtick_7">
     <g id="line2d_20">
      <path clip-path="url(#pe678719d30)" d="M 67.400994 239.9625 
L 67.400994 160.893409 
" style="fill:none;stroke:#b0b0b0;stroke-linecap:square;stroke-width:0.8;"/>
     </g>
     <g id="line2d_21">
      <g>
       <use style="stroke:#000000;stroke-width:0.8;" x="67.400994" xlink:href="#m4a22283b36" y="239.9625"/>
      </g>
     </g>
     <g id="text_13">
      <!-- 0 -->
      <g transform="translate(64.219744 254.560937)scale(0.1 -0.1)">
       <use xlink:href="#DejaVuSans-48"/>
      </g>
     </g>
    </g>
    <g id="xtick_8">
     <g id="line2d_22">
      <path clip-path="url(#pe678719d30)" d="M 131.337606 239.9625 
L 131.337606 160.893409 
" style="fill:none;stroke:#b0b0b0;stroke-linecap:square;stroke-width:0.8;"/>
     </g>
     <g id="line2d_23">
      <g>
       <use style="stroke:#000000;stroke-width:0.8;" x="131.337606" xlink:href="#m4a22283b36" y="239.9625"/>
      </g>
     </g>
     <g id="text_14">
      <!-- 1 -->
      <g transform="translate(128.156356 254.560937)scale(0.1 -0.1)">
       <use xlink:href="#DejaVuSans-49"/>
      </g>
     </g>
    </g>
    <g id="xtick_9">
     <g id="line2d_24">
      <path clip-path="url(#pe678719d30)" d="M 195.274218 239.9625 
L 195.274218 160.893409 
" style="fill:none;stroke:#b0b0b0;stroke-linecap:square;stroke-width:0.8;"/>
     </g>
     <g id="line2d_25">
      <g>
       <use style="stroke:#000000;stroke-width:0.8;" x="195.274218" xlink:href="#m4a22283b36" y="239.9625"/>
      </g>
     </g>
     <g id="text_15">
      <!-- 2 -->
      <g transform="translate(192.092968 254.560937)scale(0.1 -0.1)">
       <use xlink:href="#DejaVuSans-50"/>
      </g>
     </g>
    </g>
    <g id="xtick_10">
     <g id="line2d_26">
      <path clip-path="url(#pe678719d30)" d="M 259.21083 239.9625 
L 259.21083 160.893409 
" style="fill:none;stroke:#b0b0b0;stroke-linecap:square;stroke-width:0.8;"/>
     </g>
     <g id="line2d_27">
      <g>
       <use style="stroke:#000000;stroke-width:0.8;" x="259.21083" xlink:href="#m4a22283b36" y="239.9625"/>
      </g>
     </g>
     <g id="text_16">
      <!-- 3 -->
      <g transform="translate(256.02958 254.560937)scale(0.1 -0.1)">
       <use xlink:href="#DejaVuSans-51"/>
      </g>
     </g>
    </g>
    <g id="xtick_11">
     <g id="line2d_28">
      <path clip-path="url(#pe678719d30)" d="M 323.147442 239.9625 
L 323.147442 160.893409 
" style="fill:none;stroke:#b0b0b0;stroke-linecap:square;stroke-width:0.8;"/>
     </g>
     <g id="line2d_29">
      <g>
       <use style="stroke:#000000;stroke-width:0.8;" x="323.147442" xlink:href="#m4a22283b36" y="239.9625"/>
      </g>
     </g>
     <g id="text_17">
      <!-- 4 -->
      <g transform="translate(319.966192 254.560937)scale(0.1 -0.1)">
       <use xlink:href="#DejaVuSans-52"/>
      </g>
     </g>
    </g>
    <g id="text_18">
     <!-- Frecuencia (Hz) -->
     <g transform="translate(180.809375 268.239062)scale(0.1 -0.1)">
      <defs>
       <path d="M 9.8125 72.90625 
L 51.703125 72.90625 
L 51.703125 64.59375 
L 19.671875 64.59375 
L 19.671875 43.109375 
L 48.578125 43.109375 
L 48.578125 34.8125 
L 19.671875 34.8125 
L 19.671875 0 
L 9.8125 0 
z
" id="DejaVuSans-70"/>
       <path d="M 41.109375 46.296875 
Q 39.59375 47.171875 37.8125 47.578125 
Q 36.03125 48 33.890625 48 
Q 26.265625 48 22.1875 43.046875 
Q 18.109375 38.09375 18.109375 28.8125 
L 18.109375 0 
L 9.078125 0 
L 9.078125 54.6875 
L 18.109375 54.6875 
L 18.109375 46.1875 
Q 20.953125 51.171875 25.484375 53.578125 
Q 30.03125 56 36.53125 56 
Q 37.453125 56 38.578125 55.875 
Q 39.703125 55.765625 41.0625 55.515625 
z
" id="DejaVuSans-114"/>
       <path d="M 48.78125 52.59375 
L 48.78125 44.1875 
Q 44.96875 46.296875 41.140625 47.34375 
Q 37.3125 48.390625 33.40625 48.390625 
Q 24.65625 48.390625 19.8125 42.84375 
Q 14.984375 37.3125 14.984375 27.296875 
Q 14.984375 17.28125 19.8125 11.734375 
Q 24.65625 6.203125 33.40625 6.203125 
Q 37.3125 6.203125 41.140625 7.25 
Q 44.96875 8.296875 48.78125 10.40625 
L 48.78125 2.09375 
Q 45.015625 0.34375 40.984375 -0.53125 
Q 36.96875 -1.421875 32.421875 -1.421875 
Q 20.0625 -1.421875 12.78125 6.34375 
Q 5.515625 14.109375 5.515625 27.296875 
Q 5.515625 40.671875 12.859375 48.328125 
Q 20.21875 56 33.015625 56 
Q 37.15625 56 41.109375 55.140625 
Q 45.0625 54.296875 48.78125 52.59375 
z
" id="DejaVuSans-99"/>
       <path d="M 8.5 21.578125 
L 8.5 54.6875 
L 17.484375 54.6875 
L 17.484375 21.921875 
Q 17.484375 14.15625 20.5 10.265625 
Q 23.53125 6.390625 29.59375 6.390625 
Q 36.859375 6.390625 41.078125 11.03125 
Q 45.3125 15.671875 45.3125 23.6875 
L 45.3125 54.6875 
L 54.296875 54.6875 
L 54.296875 0 
L 45.3125 0 
L 45.3125 8.40625 
Q 42.046875 3.421875 37.71875 1 
Q 33.40625 -1.421875 27.6875 -1.421875 
Q 18.265625 -1.421875 13.375 4.4375 
Q 8.5 10.296875 8.5 21.578125 
z
M 31.109375 56 
z
" id="DejaVuSans-117"/>
       <path d="M 9.8125 72.90625 
L 19.671875 72.90625 
L 19.671875 43.015625 
L 55.515625 43.015625 
L 55.515625 72.90625 
L 65.375 72.90625 
L 65.375 0 
L 55.515625 0 
L 55.515625 34.71875 
L 19.671875 34.71875 
L 19.671875 0 
L 9.8125 0 
z
" id="DejaVuSans-72"/>
       <path d="M 5.515625 54.6875 
L 48.1875 54.6875 
L 48.1875 46.484375 
L 14.40625 7.171875 
L 48.1875 7.171875 
L 48.1875 0 
L 4.296875 0 
L 4.296875 8.203125 
L 38.09375 47.515625 
L 5.515625 47.515625 
z
" id="DejaVuSans-122"/>
      </defs>
      <use xlink:href="#DejaVuSans-70"/>
      <use x="50.269531" xlink:href="#DejaVuSans-114"/>
      <use x="89.132812" xlink:href="#DejaVuSans-101"/>
      <use x="150.65625" xlink:href="#DejaVuSans-99"/>
      <use x="205.636719" xlink:href="#DejaVuSans-117"/>
      <use x="269.015625" xlink:href="#DejaVuSans-101"/>
      <use x="330.539062" xlink:href="#DejaVuSans-110"/>
      <use x="393.917969" xlink:href="#DejaVuSans-99"/>
      <use x="448.898438" xlink:href="#DejaVuSans-105"/>
      <use x="476.681641" xlink:href="#DejaVuSans-97"/>
      <use x="537.960938" xlink:href="#DejaVuSans-32"/>
      <use x="569.748047" xlink:href="#DejaVuSans-40"/>
      <use x="608.761719" xlink:href="#DejaVuSans-72"/>
      <use x="683.957031" xlink:href="#DejaVuSans-122"/>
      <use x="736.447266" xlink:href="#DejaVuSans-41"/>
     </g>
    </g>
   </g>
   <g id="matplotlib.axis_4">
    <g id="ytick_4">
     <g id="line2d_30">
      <path clip-path="url(#pe678719d30)" d="M 52.182813 236.36845 
L 386.982813 236.36845 
" style="fill:none;stroke:#b0b0b0;stroke-linecap:square;stroke-width:0.8;"/>
     </g>
     <g id="line2d_31">
      <g>
       <use style="stroke:#000000;stroke-width:0.8;" x="52.182813" xlink:href="#m954d06bcc6" y="236.36845"/>
      </g>
     </g>
     <g id="text_19">
      <!-- 0.00 -->
      <g transform="translate(22.917188 240.167669)scale(0.1 -0.1)">
       <use xlink:href="#DejaVuSans-48"/>
       <use x="63.623047" xlink:href="#DejaVuSans-46"/>
       <use x="95.410156" xlink:href="#DejaVuSans-48"/>
       <use x="159.033203" xlink:href="#DejaVuSans-48"/>
      </g>
     </g>
    </g>
    <g id="ytick_5">
     <g id="line2d_32">
      <path clip-path="url(#pe678719d30)" d="M 52.182813 189.758456 
L 386.982813 189.758456 
" style="fill:none;stroke:#b0b0b0;stroke-linecap:square;stroke-width:0.8;"/>
     </g>
     <g id="line2d_33">
      <g>
       <use style="stroke:#000000;stroke-width:0.8;" x="52.182813" xlink:href="#m954d06bcc6" y="189.758456"/>
      </g>
     </g>
     <g id="text_20">
      <!-- 0.02 -->
      <g transform="translate(22.917188 193.557674)scale(0.1 -0.1)">
       <use xlink:href="#DejaVuSans-48"/>
       <use x="63.623047" xlink:href="#DejaVuSans-46"/>
       <use x="95.410156" xlink:href="#DejaVuSans-48"/>
       <use x="159.033203" xlink:href="#DejaVuSans-50"/>
      </g>
     </g>
    </g>
    <g id="text_21">
     <!-- Abs($Y$) -->
     <g transform="translate(16.8375 216.627955)rotate(-90)scale(0.1 -0.1)">
      <defs>
       <path d="M 34.1875 63.1875 
L 20.796875 26.90625 
L 47.609375 26.90625 
z
M 28.609375 72.90625 
L 39.796875 72.90625 
L 67.578125 0 
L 57.328125 0 
L 50.6875 18.703125 
L 17.828125 18.703125 
L 11.1875 0 
L 0.78125 0 
z
" id="DejaVuSans-65"/>
       <path d="M 48.6875 27.296875 
Q 48.6875 37.203125 44.609375 42.84375 
Q 40.53125 48.484375 33.40625 48.484375 
Q 26.265625 48.484375 22.1875 42.84375 
Q 18.109375 37.203125 18.109375 27.296875 
Q 18.109375 17.390625 22.1875 11.75 
Q 26.265625 6.109375 33.40625 6.109375 
Q 40.53125 6.109375 44.609375 11.75 
Q 48.6875 17.390625 48.6875 27.296875 
z
M 18.109375 46.390625 
Q 20.953125 51.265625 25.265625 53.625 
Q 29.59375 56 35.59375 56 
Q 45.5625 56 51.78125 48.09375 
Q 58.015625 40.1875 58.015625 27.296875 
Q 58.015625 14.40625 51.78125 6.484375 
Q 45.5625 -1.421875 35.59375 -1.421875 
Q 29.59375 -1.421875 25.265625 0.953125 
Q 20.953125 3.328125 18.109375 8.203125 
L 18.109375 0 
L 9.078125 0 
L 9.078125 75.984375 
L 18.109375 75.984375 
z
" id="DejaVuSans-98"/>
       <path d="M 6.296875 72.90625 
L 16.890625 72.90625 
L 30.515625 42.921875 
L 56.5 72.90625 
L 67.578125 72.90625 
L 34.515625 34.71875 
L 27.78125 0 
L 17.921875 0 
L 24.609375 34.71875 
z
" id="DejaVuSans-Oblique-89"/>
      </defs>
      <use transform="translate(0 0.015625)" xlink:href="#DejaVuSans-65"/>
      <use transform="translate(68.408203 0.015625)" xlink:href="#DejaVuSans-98"/>
      <use transform="translate(131.884766 0.015625)" xlink:href="#DejaVuSans-115"/>
      <use transform="translate(183.984375 0.015625)" xlink:href="#DejaVuSans-40"/>
      <use transform="translate(222.998047 0.015625)" xlink:href="#DejaVuSans-Oblique-89"/>
      <use transform="translate(284.082031 0.015625)" xlink:href="#DejaVuSans-41"/>
     </g>
    </g>
   </g>
   <g id="LineCollection_1">
    <path clip-path="url(#pe678719d30)" d="M 67.400994 236.36845 
L 67.400994 234.49678 
" style="fill:none;stroke:#1f77b4;stroke-width:1.5;"/>
    <path clip-path="url(#pe678719d30)" d="M 68.679833 236.36845 
L 68.679833 232.819327 
" style="fill:none;stroke:#1f77b4;stroke-width:1.5;"/>
    <path clip-path="url(#pe678719d30)" d="M 69.958672 236.36845 
L 69.958672 230.836382 
" style="fill:none;stroke:#1f77b4;stroke-width:1.5;"/>
    <path clip-path="url(#pe678719d30)" d="M 71.237511 236.36845 
L 71.237511 227.500275 
" style="fill:none;stroke:#1f77b4;stroke-width:1.5;"/>
    <path clip-path="url(#pe678719d30)" d="M 72.51635 236.36845 
L 72.51635 219.233681 
" style="fill:none;stroke:#1f77b4;stroke-width:1.5;"/>
    <path clip-path="url(#pe678719d30)" d="M 73.795188 236.36845 
L 73.795188 203.759511 
" style="fill:none;stroke:#1f77b4;stroke-width:1.5;"/>
    <path clip-path="url(#pe678719d30)" d="M 75.074027 236.36845 
L 75.074027 186.857527 
" style="fill:none;stroke:#1f77b4;stroke-width:1.5;"/>
    <path clip-path="url(#pe678719d30)" d="M 76.352866 236.36845 
L 76.352866 166.282821 
" style="fill:none;stroke:#1f77b4;stroke-width:1.5;"/>
    <path clip-path="url(#pe678719d30)" d="M 77.631705 236.36845 
L 77.631705 164.487459 
" style="fill:none;stroke:#1f77b4;stroke-width:1.5;"/>
    <path clip-path="url(#pe678719d30)" d="M 78.910544 236.36845 
L 78.910544 191.20951 
" style="fill:none;stroke:#1f77b4;stroke-width:1.5;"/>
    <path clip-path="url(#pe678719d30)" d="M 80.189382 236.36845 
L 80.189382 203.436225 
" style="fill:none;stroke:#1f77b4;stroke-width:1.5;"/>
    <path clip-path="url(#pe678719d30)" d="M 81.468221 236.36845 
L 81.468221 197.070905 
" style="fill:none;stroke:#1f77b4;stroke-width:1.5;"/>
    <path clip-path="url(#pe678719d30)" d="M 82.74706 236.36845 
L 82.74706 212.014131 
" style="fill:none;stroke:#1f77b4;stroke-width:1.5;"/>
    <path clip-path="url(#pe678719d30)" d="M 84.025899 236.36845 
L 84.025899 223.691754 
" style="fill:none;stroke:#1f77b4;stroke-width:1.5;"/>
    <path clip-path="url(#pe678719d30)" d="M 85.304738 236.36845 
L 85.304738 219.571496 
" style="fill:none;stroke:#1f77b4;stroke-width:1.5;"/>
    <path clip-path="url(#pe678719d30)" d="M 86.583576 236.36845 
L 86.583576 221.444412 
" style="fill:none;stroke:#1f77b4;stroke-width:1.5;"/>
    <path clip-path="url(#pe678719d30)" d="M 87.862415 236.36845 
L 87.862415 231.215414 
" style="fill:none;stroke:#1f77b4;stroke-width:1.5;"/>
    <path clip-path="url(#pe678719d30)" d="M 89.141254 236.36845 
L 89.141254 231.909728 
" style="fill:none;stroke:#1f77b4;stroke-width:1.5;"/>
    <path clip-path="url(#pe678719d30)" d="M 90.420093 236.36845 
L 90.420093 233.68504 
" style="fill:none;stroke:#1f77b4;stroke-width:1.5;"/>
    <path clip-path="url(#pe678719d30)" d="M 91.698932 236.36845 
L 91.698932 231.120973 
" style="fill:none;stroke:#1f77b4;stroke-width:1.5;"/>
    <path clip-path="url(#pe678719d30)" d="M 92.97777 236.36845 
L 92.97777 231.157263 
" style="fill:none;stroke:#1f77b4;stroke-width:1.5;"/>
    <path clip-path="url(#pe678719d30)" d="M 94.256609 236.36845 
L 94.256609 234.881964 
" style="fill:none;stroke:#1f77b4;stroke-width:1.5;"/>
    <path clip-path="url(#pe678719d30)" d="M 95.535448 236.36845 
L 95.535448 231.238632 
" style="fill:none;stroke:#1f77b4;stroke-width:1.5;"/>
    <path clip-path="url(#pe678719d30)" d="M 96.814287 236.36845 
L 96.814287 231.895513 
" style="fill:none;stroke:#1f77b4;stroke-width:1.5;"/>
    <path clip-path="url(#pe678719d30)" d="M 98.093126 236.36845 
L 98.093126 232.626979 
" style="fill:none;stroke:#1f77b4;stroke-width:1.5;"/>
    <path clip-path="url(#pe678719d30)" d="M 99.371965 236.36845 
L 99.371965 235.533668 
" style="fill:none;stroke:#1f77b4;stroke-width:1.5;"/>
    <path clip-path="url(#pe678719d30)" d="M 100.650803 236.36845 
L 100.650803 232.190243 
" style="fill:none;stroke:#1f77b4;stroke-width:1.5;"/>
    <path clip-path="url(#pe678719d30)" d="M 101.929642 236.36845 
L 101.929642 231.409762 
" style="fill:none;stroke:#1f77b4;stroke-width:1.5;"/>
    <path clip-path="url(#pe678719d30)" d="M 103.208481 236.36845 
L 103.208481 230.628811 
" style="fill:none;stroke:#1f77b4;stroke-width:1.5;"/>
    <path clip-path="url(#pe678719d30)" d="M 104.48732 236.36845 
L 104.48732 234.84788 
" style="fill:none;stroke:#1f77b4;stroke-width:1.5;"/>
    <path clip-path="url(#pe678719d30)" d="M 105.766159 236.36845 
L 105.766159 232.709793 
" style="fill:none;stroke:#1f77b4;stroke-width:1.5;"/>
    <path clip-path="url(#pe678719d30)" d="M 107.044997 236.36845 
L 107.044997 232.533473 
" style="fill:none;stroke:#1f77b4;stroke-width:1.5;"/>
    <path clip-path="url(#pe678719d30)" d="M 108.323836 236.36845 
L 108.323836 235.835016 
" style="fill:none;stroke:#1f77b4;stroke-width:1.5;"/>
    <path clip-path="url(#pe678719d30)" d="M 109.602675 236.36845 
L 109.602675 231.999684 
" style="fill:none;stroke:#1f77b4;stroke-width:1.5;"/>
    <path clip-path="url(#pe678719d30)" d="M 110.881514 236.36845 
L 110.881514 235.352502 
" style="fill:none;stroke:#1f77b4;stroke-width:1.5;"/>
    <path clip-path="url(#pe678719d30)" d="M 112.160353 236.36845 
L 112.160353 233.162735 
" style="fill:none;stroke:#1f77b4;stroke-width:1.5;"/>
    <path clip-path="url(#pe678719d30)" d="M 113.439191 236.36845 
L 113.439191 235.484238 
" style="fill:none;stroke:#1f77b4;stroke-width:1.5;"/>
    <path clip-path="url(#pe678719d30)" d="M 114.71803 236.36845 
L 114.71803 232.033618 
" style="fill:none;stroke:#1f77b4;stroke-width:1.5;"/>
    <path clip-path="url(#pe678719d30)" d="M 115.996869 236.36845 
L 115.996869 234.99116 
" style="fill:none;stroke:#1f77b4;stroke-width:1.5;"/>
    <path clip-path="url(#pe678719d30)" d="M 117.275708 236.36845 
L 117.275708 233.322927 
" style="fill:none;stroke:#1f77b4;stroke-width:1.5;"/>
    <path clip-path="url(#pe678719d30)" d="M 118.554547 236.36845 
L 118.554547 232.747773 
" style="fill:none;stroke:#1f77b4;stroke-width:1.5;"/>
    <path clip-path="url(#pe678719d30)" d="M 119.833385 236.36845 
L 119.833385 235.785631 
" style="fill:none;stroke:#1f77b4;stroke-width:1.5;"/>
    <path clip-path="url(#pe678719d30)" d="M 121.112224 236.36845 
L 121.112224 232.349251 
" style="fill:none;stroke:#1f77b4;stroke-width:1.5;"/>
    <path clip-path="url(#pe678719d30)" d="M 122.391063 236.36845 
L 122.391063 233.84522 
" style="fill:none;stroke:#1f77b4;stroke-width:1.5;"/>
    <path clip-path="url(#pe678719d30)" d="M 123.669902 236.36845 
L 123.669902 233.946974 
" style="fill:none;stroke:#1f77b4;stroke-width:1.5;"/>
    <path clip-path="url(#pe678719d30)" d="M 124.948741 236.36845 
L 124.948741 235.733876 
" style="fill:none;stroke:#1f77b4;stroke-width:1.5;"/>
    <path clip-path="url(#pe678719d30)" d="M 126.227579 236.36845 
L 126.227579 233.983004 
" style="fill:none;stroke:#1f77b4;stroke-width:1.5;"/>
    <path clip-path="url(#pe678719d30)" d="M 127.506418 236.36845 
L 127.506418 232.515168 
" style="fill:none;stroke:#1f77b4;stroke-width:1.5;"/>
    <path clip-path="url(#pe678719d30)" d="M 128.785257 236.36845 
L 128.785257 233.281837 
" style="fill:none;stroke:#1f77b4;stroke-width:1.5;"/>
    <path clip-path="url(#pe678719d30)" d="M 130.064096 236.36845 
L 130.064096 235.737986 
" style="fill:none;stroke:#1f77b4;stroke-width:1.5;"/>
    <path clip-path="url(#pe678719d30)" d="M 131.342935 236.36845 
L 131.342935 233.86412 
" style="fill:none;stroke:#1f77b4;stroke-width:1.5;"/>
    <path clip-path="url(#pe678719d30)" d="M 132.621774 236.36845 
L 132.621774 234.022803 
" style="fill:none;stroke:#1f77b4;stroke-width:1.5;"/>
    <path clip-path="url(#pe678719d30)" d="M 133.900612 236.36845 
L 133.900612 235.493221 
" style="fill:none;stroke:#1f77b4;stroke-width:1.5;"/>
    <path clip-path="url(#pe678719d30)" d="M 135.179451 236.36845 
L 135.179451 234.071822 
" style="fill:none;stroke:#1f77b4;stroke-width:1.5;"/>
    <path clip-path="url(#pe678719d30)" d="M 136.45829 236.36845 
L 136.45829 235.772649 
" style="fill:none;stroke:#1f77b4;stroke-width:1.5;"/>
    <path clip-path="url(#pe678719d30)" d="M 137.737129 236.36845 
L 137.737129 234.309569 
" style="fill:none;stroke:#1f77b4;stroke-width:1.5;"/>
    <path clip-path="url(#pe678719d30)" d="M 139.015968 236.36845 
L 139.015968 236.104342 
" style="fill:none;stroke:#1f77b4;stroke-width:1.5;"/>
    <path clip-path="url(#pe678719d30)" d="M 140.294806 236.36845 
L 140.294806 234.193404 
" style="fill:none;stroke:#1f77b4;stroke-width:1.5;"/>
    <path clip-path="url(#pe678719d30)" d="M 141.573645 236.36845 
L 141.573645 235.248831 
" style="fill:none;stroke:#1f77b4;stroke-width:1.5;"/>
    <path clip-path="url(#pe678719d30)" d="M 142.852484 236.36845 
L 142.852484 235.303071 
" style="fill:none;stroke:#1f77b4;stroke-width:1.5;"/>
    <path clip-path="url(#pe678719d30)" d="M 144.131323 236.36845 
L 144.131323 234.774155 
" style="fill:none;stroke:#1f77b4;stroke-width:1.5;"/>
    <path clip-path="url(#pe678719d30)" d="M 145.410162 236.36845 
L 145.410162 235.956189 
" style="fill:none;stroke:#1f77b4;stroke-width:1.5;"/>
    <path clip-path="url(#pe678719d30)" d="M 146.689 236.36845 
L 146.689 235.037556 
" style="fill:none;stroke:#1f77b4;stroke-width:1.5;"/>
    <path clip-path="url(#pe678719d30)" d="M 147.967839 236.36845 
L 147.967839 235.471685 
" style="fill:none;stroke:#1f77b4;stroke-width:1.5;"/>
    <path clip-path="url(#pe678719d30)" d="M 149.246678 236.36845 
L 149.246678 235.478967 
" style="fill:none;stroke:#1f77b4;stroke-width:1.5;"/>
    <path clip-path="url(#pe678719d30)" d="M 150.525517 236.36845 
L 150.525517 236.230326 
" style="fill:none;stroke:#1f77b4;stroke-width:1.5;"/>
    <path clip-path="url(#pe678719d30)" d="M 151.804356 236.36845 
L 151.804356 235.547346 
" style="fill:none;stroke:#1f77b4;stroke-width:1.5;"/>
    <path clip-path="url(#pe678719d30)" d="M 153.083194 236.36845 
L 153.083194 234.881672 
" style="fill:none;stroke:#1f77b4;stroke-width:1.5;"/>
    <path clip-path="url(#pe678719d30)" d="M 154.362033 236.36845 
L 154.362033 235.322921 
" style="fill:none;stroke:#1f77b4;stroke-width:1.5;"/>
    <path clip-path="url(#pe678719d30)" d="M 155.640872 236.36845 
L 155.640872 236.082202 
" style="fill:none;stroke:#1f77b4;stroke-width:1.5;"/>
    <path clip-path="url(#pe678719d30)" d="M 156.919711 236.36845 
L 156.919711 235.764966 
" style="fill:none;stroke:#1f77b4;stroke-width:1.5;"/>
    <path clip-path="url(#pe678719d30)" d="M 158.19855 236.36845 
L 158.19855 235.615653 
" style="fill:none;stroke:#1f77b4;stroke-width:1.5;"/>
    <path clip-path="url(#pe678719d30)" d="M 159.477389 236.36845 
L 159.477389 236.125254 
" style="fill:none;stroke:#1f77b4;stroke-width:1.5;"/>
    <path clip-path="url(#pe678719d30)" d="M 160.756227 236.36845 
L 160.756227 235.839792 
" style="fill:none;stroke:#1f77b4;stroke-width:1.5;"/>
    <path clip-path="url(#pe678719d30)" d="M 162.035066 236.36845 
L 162.035066 236.195788 
" style="fill:none;stroke:#1f77b4;stroke-width:1.5;"/>
    <path clip-path="url(#pe678719d30)" d="M 163.313905 236.36845 
L 163.313905 235.894049 
" style="fill:none;stroke:#1f77b4;stroke-width:1.5;"/>
    <path clip-path="url(#pe678719d30)" d="M 164.592744 236.36845 
L 164.592744 236.226953 
" style="fill:none;stroke:#1f77b4;stroke-width:1.5;"/>
    <path clip-path="url(#pe678719d30)" d="M 165.871583 236.36845 
L 165.871583 235.58375 
" style="fill:none;stroke:#1f77b4;stroke-width:1.5;"/>
    <path clip-path="url(#pe678719d30)" d="M 167.150421 236.36845 
L 167.150421 236.153019 
" style="fill:none;stroke:#1f77b4;stroke-width:1.5;"/>
    <path clip-path="url(#pe678719d30)" d="M 168.42926 236.36845 
L 168.42926 236.085047 
" style="fill:none;stroke:#1f77b4;stroke-width:1.5;"/>
    <path clip-path="url(#pe678719d30)" d="M 169.708099 236.36845 
L 169.708099 235.895696 
" style="fill:none;stroke:#1f77b4;stroke-width:1.5;"/>
    <path clip-path="url(#pe678719d30)" d="M 170.986938 236.36845 
L 170.986938 236.255079 
" style="fill:none;stroke:#1f77b4;stroke-width:1.5;"/>
    <path clip-path="url(#pe678719d30)" d="M 172.265777 236.36845 
L 172.265777 235.953193 
" style="fill:none;stroke:#1f77b4;stroke-width:1.5;"/>
    <path clip-path="url(#pe678719d30)" d="M 173.544615 236.36845 
L 173.544615 236.251458 
" style="fill:none;stroke:#1f77b4;stroke-width:1.5;"/>
    <path clip-path="url(#pe678719d30)" d="M 174.823454 236.36845 
L 174.823454 236.150763 
" style="fill:none;stroke:#1f77b4;stroke-width:1.5;"/>
    <path clip-path="url(#pe678719d30)" d="M 176.102293 236.36845 
L 176.102293 236.252789 
" style="fill:none;stroke:#1f77b4;stroke-width:1.5;"/>
    <path clip-path="url(#pe678719d30)" d="M 177.381132 236.36845 
L 177.381132 236.196583 
" style="fill:none;stroke:#1f77b4;stroke-width:1.5;"/>
    <path clip-path="url(#pe678719d30)" d="M 178.659971 236.36845 
L 178.659971 235.881077 
" style="fill:none;stroke:#1f77b4;stroke-width:1.5;"/>
    <path clip-path="url(#pe678719d30)" d="M 179.938809 236.36845 
L 179.938809 236.123378 
" style="fill:none;stroke:#1f77b4;stroke-width:1.5;"/>
    <path clip-path="url(#pe678719d30)" d="M 181.217648 236.36845 
L 181.217648 236.207575 
" style="fill:none;stroke:#1f77b4;stroke-width:1.5;"/>
    <path clip-path="url(#pe678719d30)" d="M 182.496487 236.36845 
L 182.496487 236.179238 
" style="fill:none;stroke:#1f77b4;stroke-width:1.5;"/>
    <path clip-path="url(#pe678719d30)" d="M 183.775326 236.36845 
L 183.775326 236.097505 
" style="fill:none;stroke:#1f77b4;stroke-width:1.5;"/>
    <path clip-path="url(#pe678719d30)" d="M 185.054165 236.36845 
L 185.054165 236.345225 
" style="fill:none;stroke:#1f77b4;stroke-width:1.5;"/>
    <path clip-path="url(#pe678719d30)" d="M 186.333003 236.36845 
L 186.333003 236.209663 
" style="fill:none;stroke:#1f77b4;stroke-width:1.5;"/>
    <path clip-path="url(#pe678719d30)" d="M 187.611842 236.36845 
L 187.611842 236.26684 
" style="fill:none;stroke:#1f77b4;stroke-width:1.5;"/>
    <path clip-path="url(#pe678719d30)" d="M 188.890681 236.36845 
L 188.890681 236.220525 
" style="fill:none;stroke:#1f77b4;stroke-width:1.5;"/>
    <path clip-path="url(#pe678719d30)" d="M 190.16952 236.36845 
L 190.16952 236.291837 
" style="fill:none;stroke:#1f77b4;stroke-width:1.5;"/>
    <path clip-path="url(#pe678719d30)" d="M 191.448359 236.36845 
L 191.448359 236.121934 
" style="fill:none;stroke:#1f77b4;stroke-width:1.5;"/>
    <path clip-path="url(#pe678719d30)" d="M 192.727198 236.36845 
L 192.727198 236.297008 
" style="fill:none;stroke:#1f77b4;stroke-width:1.5;"/>
    <path clip-path="url(#pe678719d30)" d="M 194.006036 236.36845 
L 194.006036 236.26339 
" style="fill:none;stroke:#1f77b4;stroke-width:1.5;"/>
    <path clip-path="url(#pe678719d30)" d="M 195.284875 236.36845 
L 195.284875 236.230481 
" style="fill:none;stroke:#1f77b4;stroke-width:1.5;"/>
    <path clip-path="url(#pe678719d30)" d="M 196.563714 236.36845 
L 196.563714 236.307286 
" style="fill:none;stroke:#1f77b4;stroke-width:1.5;"/>
    <path clip-path="url(#pe678719d30)" d="M 197.842553 236.36845 
L 197.842553 236.261957 
" style="fill:none;stroke:#1f77b4;stroke-width:1.5;"/>
    <path clip-path="url(#pe678719d30)" d="M 199.121392 236.36845 
L 199.121392 236.35687 
" style="fill:none;stroke:#1f77b4;stroke-width:1.5;"/>
    <path clip-path="url(#pe678719d30)" d="M 200.40023 236.36845 
L 200.40023 236.299407 
" style="fill:none;stroke:#1f77b4;stroke-width:1.5;"/>
    <path clip-path="url(#pe678719d30)" d="M 201.679069 236.36845 
L 201.679069 236.313682 
" style="fill:none;stroke:#1f77b4;stroke-width:1.5;"/>
    <path clip-path="url(#pe678719d30)" d="M 202.957908 236.36845 
L 202.957908 236.314432 
" style="fill:none;stroke:#1f77b4;stroke-width:1.5;"/>
    <path clip-path="url(#pe678719d30)" d="M 204.236747 236.36845 
L 204.236747 236.174795 
" style="fill:none;stroke:#1f77b4;stroke-width:1.5;"/>
    <path clip-path="url(#pe678719d30)" d="M 205.515586 236.36845 
L 205.515586 236.301071 
" style="fill:none;stroke:#1f77b4;stroke-width:1.5;"/>
    <path clip-path="url(#pe678719d30)" d="M 206.794424 236.36845 
L 206.794424 236.285117 
" style="fill:none;stroke:#1f77b4;stroke-width:1.5;"/>
    <path clip-path="url(#pe678719d30)" d="M 208.073263 236.36845 
L 208.073263 236.335802 
" style="fill:none;stroke:#1f77b4;stroke-width:1.5;"/>
    <path clip-path="url(#pe678719d30)" d="M 209.352102 236.36845 
L 209.352102 236.277757 
" style="fill:none;stroke:#1f77b4;stroke-width:1.5;"/>
    <path clip-path="url(#pe678719d30)" d="M 210.630941 236.36845 
L 210.630941 236.335413 
" style="fill:none;stroke:#1f77b4;stroke-width:1.5;"/>
    <path clip-path="url(#pe678719d30)" d="M 211.90978 236.36845 
L 211.90978 236.305895 
" style="fill:none;stroke:#1f77b4;stroke-width:1.5;"/>
    <path clip-path="url(#pe678719d30)" d="M 213.188618 236.36845 
L 213.188618 236.319324 
" style="fill:none;stroke:#1f77b4;stroke-width:1.5;"/>
    <path clip-path="url(#pe678719d30)" d="M 214.467457 236.36845 
L 214.467457 236.326504 
" style="fill:none;stroke:#1f77b4;stroke-width:1.5;"/>
    <path clip-path="url(#pe678719d30)" d="M 215.746296 236.36845 
L 215.746296 236.311307 
" style="fill:none;stroke:#1f77b4;stroke-width:1.5;"/>
    <path clip-path="url(#pe678719d30)" d="M 217.025135 236.36845 
L 217.025135 236.269947 
" style="fill:none;stroke:#1f77b4;stroke-width:1.5;"/>
    <path clip-path="url(#pe678719d30)" d="M 218.303974 236.36845 
L 218.303974 236.337225 
" style="fill:none;stroke:#1f77b4;stroke-width:1.5;"/>
    <path clip-path="url(#pe678719d30)" d="M 219.582812 236.36845 
L 219.582812 236.314185 
" style="fill:none;stroke:#1f77b4;stroke-width:1.5;"/>
    <path clip-path="url(#pe678719d30)" d="M 220.861651 236.36845 
L 220.861651 236.303894 
" style="fill:none;stroke:#1f77b4;stroke-width:1.5;"/>
    <path clip-path="url(#pe678719d30)" d="M 222.14049 236.36845 
L 222.14049 236.34628 
" style="fill:none;stroke:#1f77b4;stroke-width:1.5;"/>
    <path clip-path="url(#pe678719d30)" d="M 223.419329 236.36845 
L 223.419329 236.337448 
" style="fill:none;stroke:#1f77b4;stroke-width:1.5;"/>
    <path clip-path="url(#pe678719d30)" d="M 224.698168 236.36845 
L 224.698168 236.328886 
" style="fill:none;stroke:#1f77b4;stroke-width:1.5;"/>
    <path clip-path="url(#pe678719d30)" d="M 225.977007 236.36845 
L 225.977007 236.354424 
" style="fill:none;stroke:#1f77b4;stroke-width:1.5;"/>
    <path clip-path="url(#pe678719d30)" d="M 227.255845 236.36845 
L 227.255845 236.336524 
" style="fill:none;stroke:#1f77b4;stroke-width:1.5;"/>
    <path clip-path="url(#pe678719d30)" d="M 228.534684 236.36845 
L 228.534684 236.348066 
" style="fill:none;stroke:#1f77b4;stroke-width:1.5;"/>
    <path clip-path="url(#pe678719d30)" d="M 229.813523 236.36845 
L 229.813523 236.301095 
" style="fill:none;stroke:#1f77b4;stroke-width:1.5;"/>
    <path clip-path="url(#pe678719d30)" d="M 231.092362 236.36845 
L 231.092362 236.357208 
" style="fill:none;stroke:#1f77b4;stroke-width:1.5;"/>
    <path clip-path="url(#pe678719d30)" d="M 232.371201 236.36845 
L 232.371201 236.315953 
" style="fill:none;stroke:#1f77b4;stroke-width:1.5;"/>
    <path clip-path="url(#pe678719d30)" d="M 233.650039 236.36845 
L 233.650039 236.35702 
" style="fill:none;stroke:#1f77b4;stroke-width:1.5;"/>
    <path clip-path="url(#pe678719d30)" d="M 234.928878 236.36845 
L 234.928878 236.326371 
" style="fill:none;stroke:#1f77b4;stroke-width:1.5;"/>
    <path clip-path="url(#pe678719d30)" d="M 236.207717 236.36845 
L 236.207717 236.324665 
" style="fill:none;stroke:#1f77b4;stroke-width:1.5;"/>
    <path clip-path="url(#pe678719d30)" d="M 237.486556 236.36845 
L 237.486556 236.313334 
" style="fill:none;stroke:#1f77b4;stroke-width:1.5;"/>
    <path clip-path="url(#pe678719d30)" d="M 238.765395 236.36845 
L 238.765395 236.323461 
" style="fill:none;stroke:#1f77b4;stroke-width:1.5;"/>
    <path clip-path="url(#pe678719d30)" d="M 240.044233 236.36845 
L 240.044233 236.361292 
" style="fill:none;stroke:#1f77b4;stroke-width:1.5;"/>
    <path clip-path="url(#pe678719d30)" d="M 241.323072 236.36845 
L 241.323072 236.339318 
" style="fill:none;stroke:#1f77b4;stroke-width:1.5;"/>
    <path clip-path="url(#pe678719d30)" d="M 242.601911 236.36845 
L 242.601911 236.337834 
" style="fill:none;stroke:#1f77b4;stroke-width:1.5;"/>
    <path clip-path="url(#pe678719d30)" d="M 243.88075 236.36845 
L 243.88075 236.348828 
" style="fill:none;stroke:#1f77b4;stroke-width:1.5;"/>
    <path clip-path="url(#pe678719d30)" d="M 245.159589 236.36845 
L 245.159589 236.339945 
" style="fill:none;stroke:#1f77b4;stroke-width:1.5;"/>
    <path clip-path="url(#pe678719d30)" d="M 246.438427 236.36845 
L 246.438427 236.344631 
" style="fill:none;stroke:#1f77b4;stroke-width:1.5;"/>
    <path clip-path="url(#pe678719d30)" d="M 247.717266 236.36845 
L 247.717266 236.35994 
" style="fill:none;stroke:#1f77b4;stroke-width:1.5;"/>
    <path clip-path="url(#pe678719d30)" d="M 248.996105 236.36845 
L 248.996105 236.335357 
" style="fill:none;stroke:#1f77b4;stroke-width:1.5;"/>
    <path clip-path="url(#pe678719d30)" d="M 250.274944 236.36845 
L 250.274944 236.340614 
" style="fill:none;stroke:#1f77b4;stroke-width:1.5;"/>
    <path clip-path="url(#pe678719d30)" d="M 251.553783 236.36845 
L 251.553783 236.350817 
" style="fill:none;stroke:#1f77b4;stroke-width:1.5;"/>
    <path clip-path="url(#pe678719d30)" d="M 252.832622 236.36845 
L 252.832622 236.344588 
" style="fill:none;stroke:#1f77b4;stroke-width:1.5;"/>
    <path clip-path="url(#pe678719d30)" d="M 254.11146 236.36845 
L 254.11146 236.361976 
" style="fill:none;stroke:#1f77b4;stroke-width:1.5;"/>
    <path clip-path="url(#pe678719d30)" d="M 255.390299 236.36845 
L 255.390299 236.328898 
" style="fill:none;stroke:#1f77b4;stroke-width:1.5;"/>
    <path clip-path="url(#pe678719d30)" d="M 256.669138 236.36845 
L 256.669138 236.365248 
" style="fill:none;stroke:#1f77b4;stroke-width:1.5;"/>
    <path clip-path="url(#pe678719d30)" d="M 257.947977 236.36845 
L 257.947977 236.347011 
" style="fill:none;stroke:#1f77b4;stroke-width:1.5;"/>
    <path clip-path="url(#pe678719d30)" d="M 259.226816 236.36845 
L 259.226816 236.358466 
" style="fill:none;stroke:#1f77b4;stroke-width:1.5;"/>
    <path clip-path="url(#pe678719d30)" d="M 260.505654 236.36845 
L 260.505654 236.356085 
" style="fill:none;stroke:#1f77b4;stroke-width:1.5;"/>
    <path clip-path="url(#pe678719d30)" d="M 261.784493 236.36845 
L 261.784493 236.332574 
" style="fill:none;stroke:#1f77b4;stroke-width:1.5;"/>
    <path clip-path="url(#pe678719d30)" d="M 263.063332 236.36845 
L 263.063332 236.332695 
" style="fill:none;stroke:#1f77b4;stroke-width:1.5;"/>
    <path clip-path="url(#pe678719d30)" d="M 264.342171 236.36845 
L 264.342171 236.34436 
" style="fill:none;stroke:#1f77b4;stroke-width:1.5;"/>
    <path clip-path="url(#pe678719d30)" d="M 265.62101 236.36845 
L 265.62101 236.359187 
" style="fill:none;stroke:#1f77b4;stroke-width:1.5;"/>
    <path clip-path="url(#pe678719d30)" d="M 266.899848 236.36845 
L 266.899848 236.354984 
" style="fill:none;stroke:#1f77b4;stroke-width:1.5;"/>
    <path clip-path="url(#pe678719d30)" d="M 268.178687 236.36845 
L 268.178687 236.347751 
" style="fill:none;stroke:#1f77b4;stroke-width:1.5;"/>
    <path clip-path="url(#pe678719d30)" d="M 269.457526 236.36845 
L 269.457526 236.351093 
" style="fill:none;stroke:#1f77b4;stroke-width:1.5;"/>
    <path clip-path="url(#pe678719d30)" d="M 270.736365 236.36845 
L 270.736365 236.357331 
" style="fill:none;stroke:#1f77b4;stroke-width:1.5;"/>
    <path clip-path="url(#pe678719d30)" d="M 272.015204 236.36845 
L 272.015204 236.351247 
" style="fill:none;stroke:#1f77b4;stroke-width:1.5;"/>
    <path clip-path="url(#pe678719d30)" d="M 273.294042 236.36845 
L 273.294042 236.360525 
" style="fill:none;stroke:#1f77b4;stroke-width:1.5;"/>
    <path clip-path="url(#pe678719d30)" d="M 274.572881 236.36845 
L 274.572881 236.342143 
" style="fill:none;stroke:#1f77b4;stroke-width:1.5;"/>
    <path clip-path="url(#pe678719d30)" d="M 275.85172 236.36845 
L 275.85172 236.341944 
" style="fill:none;stroke:#1f77b4;stroke-width:1.5;"/>
    <path clip-path="url(#pe678719d30)" d="M 277.130559 236.36845 
L 277.130559 236.353718 
" style="fill:none;stroke:#1f77b4;stroke-width:1.5;"/>
    <path clip-path="url(#pe678719d30)" d="M 278.409398 236.36845 
L 278.409398 236.355323 
" style="fill:none;stroke:#1f77b4;stroke-width:1.5;"/>
    <path clip-path="url(#pe678719d30)" d="M 279.688236 236.36845 
L 279.688236 236.366538 
" style="fill:none;stroke:#1f77b4;stroke-width:1.5;"/>
    <path clip-path="url(#pe678719d30)" d="M 280.967075 236.36845 
L 280.967075 236.341292 
" style="fill:none;stroke:#1f77b4;stroke-width:1.5;"/>
    <path clip-path="url(#pe678719d30)" d="M 282.245914 236.36845 
L 282.245914 236.360154 
" style="fill:none;stroke:#1f77b4;stroke-width:1.5;"/>
    <path clip-path="url(#pe678719d30)" d="M 283.524753 236.36845 
L 283.524753 236.358544 
" style="fill:none;stroke:#1f77b4;stroke-width:1.5;"/>
    <path clip-path="url(#pe678719d30)" d="M 284.803592 236.36845 
L 284.803592 236.36161 
" style="fill:none;stroke:#1f77b4;stroke-width:1.5;"/>
    <path clip-path="url(#pe678719d30)" d="M 286.082431 236.36845 
L 286.082431 236.360769 
" style="fill:none;stroke:#1f77b4;stroke-width:1.5;"/>
    <path clip-path="url(#pe678719d30)" d="M 287.361269 236.36845 
L 287.361269 236.337941 
" style="fill:none;stroke:#1f77b4;stroke-width:1.5;"/>
    <path clip-path="url(#pe678719d30)" d="M 288.640108 236.36845 
L 288.640108 236.34146 
" style="fill:none;stroke:#1f77b4;stroke-width:1.5;"/>
    <path clip-path="url(#pe678719d30)" d="M 289.918947 236.36845 
L 289.918947 236.351181 
" style="fill:none;stroke:#1f77b4;stroke-width:1.5;"/>
    <path clip-path="url(#pe678719d30)" d="M 291.197786 236.36845 
L 291.197786 236.359507 
" style="fill:none;stroke:#1f77b4;stroke-width:1.5;"/>
    <path clip-path="url(#pe678719d30)" d="M 292.476625 236.36845 
L 292.476625 236.365476 
" style="fill:none;stroke:#1f77b4;stroke-width:1.5;"/>
    <path clip-path="url(#pe678719d30)" d="M 293.755463 236.36845 
L 293.755463 236.344945 
" style="fill:none;stroke:#1f77b4;stroke-width:1.5;"/>
    <path clip-path="url(#pe678719d30)" d="M 295.034302 236.36845 
L 295.034302 236.359747 
" style="fill:none;stroke:#1f77b4;stroke-width:1.5;"/>
    <path clip-path="url(#pe678719d30)" d="M 296.313141 236.36845 
L 296.313141 236.366844 
" style="fill:none;stroke:#1f77b4;stroke-width:1.5;"/>
    <path clip-path="url(#pe678719d30)" d="M 297.59198 236.36845 
L 297.59198 236.357006 
" style="fill:none;stroke:#1f77b4;stroke-width:1.5;"/>
    <path clip-path="url(#pe678719d30)" d="M 298.870819 236.36845 
L 298.870819 236.366375 
" style="fill:none;stroke:#1f77b4;stroke-width:1.5;"/>
    <path clip-path="url(#pe678719d30)" d="M 300.149657 236.36845 
L 300.149657 236.343998 
" style="fill:none;stroke:#1f77b4;stroke-width:1.5;"/>
    <path clip-path="url(#pe678719d30)" d="M 301.428496 236.36845 
L 301.428496 236.351814 
" style="fill:none;stroke:#1f77b4;stroke-width:1.5;"/>
    <path clip-path="url(#pe678719d30)" d="M 302.707335 236.36845 
L 302.707335 236.358832 
" style="fill:none;stroke:#1f77b4;stroke-width:1.5;"/>
    <path clip-path="url(#pe678719d30)" d="M 303.986174 236.36845 
L 303.986174 236.354997 
" style="fill:none;stroke:#1f77b4;stroke-width:1.5;"/>
    <path clip-path="url(#pe678719d30)" d="M 305.265013 236.36845 
L 305.265013 236.363315 
" style="fill:none;stroke:#1f77b4;stroke-width:1.5;"/>
    <path clip-path="url(#pe678719d30)" d="M 306.543851 236.36845 
L 306.543851 236.343043 
" style="fill:none;stroke:#1f77b4;stroke-width:1.5;"/>
    <path clip-path="url(#pe678719d30)" d="M 307.82269 236.36845 
L 307.82269 236.364084 
" style="fill:none;stroke:#1f77b4;stroke-width:1.5;"/>
    <path clip-path="url(#pe678719d30)" d="M 309.101529 236.36845 
L 309.101529 236.36401 
" style="fill:none;stroke:#1f77b4;stroke-width:1.5;"/>
    <path clip-path="url(#pe678719d30)" d="M 310.380368 236.36845 
L 310.380368 236.357804 
" style="fill:none;stroke:#1f77b4;stroke-width:1.5;"/>
    <path clip-path="url(#pe678719d30)" d="M 311.659207 236.36845 
L 311.659207 236.366958 
" style="fill:none;stroke:#1f77b4;stroke-width:1.5;"/>
    <path clip-path="url(#pe678719d30)" d="M 312.938046 236.36845 
L 312.938046 236.347281 
" style="fill:none;stroke:#1f77b4;stroke-width:1.5;"/>
    <path clip-path="url(#pe678719d30)" d="M 314.216884 236.36845 
L 314.216884 236.353397 
" style="fill:none;stroke:#1f77b4;stroke-width:1.5;"/>
    <path clip-path="url(#pe678719d30)" d="M 315.495723 236.36845 
L 315.495723 236.360681 
" style="fill:none;stroke:#1f77b4;stroke-width:1.5;"/>
    <path clip-path="url(#pe678719d30)" d="M 316.774562 236.36845 
L 316.774562 236.359171 
" style="fill:none;stroke:#1f77b4;stroke-width:1.5;"/>
    <path clip-path="url(#pe678719d30)" d="M 318.053401 236.36845 
L 318.053401 236.366194 
" style="fill:none;stroke:#1f77b4;stroke-width:1.5;"/>
    <path clip-path="url(#pe678719d30)" d="M 319.33224 236.36845 
L 319.33224 236.349036 
" style="fill:none;stroke:#1f77b4;stroke-width:1.5;"/>
    <path clip-path="url(#pe678719d30)" d="M 320.611078 236.36845 
L 320.611078 236.360949 
" style="fill:none;stroke:#1f77b4;stroke-width:1.5;"/>
    <path clip-path="url(#pe678719d30)" d="M 321.889917 236.36845 
L 321.889917 236.363985 
" style="fill:none;stroke:#1f77b4;stroke-width:1.5;"/>
    <path clip-path="url(#pe678719d30)" d="M 323.168756 236.36845 
L 323.168756 236.358298 
" style="fill:none;stroke:#1f77b4;stroke-width:1.5;"/>
    <path clip-path="url(#pe678719d30)" d="M 324.447595 236.36845 
L 324.447595 236.363933 
" style="fill:none;stroke:#1f77b4;stroke-width:1.5;"/>
    <path clip-path="url(#pe678719d30)" d="M 325.726434 236.36845 
L 325.726434 236.352324 
" style="fill:none;stroke:#1f77b4;stroke-width:1.5;"/>
    <path clip-path="url(#pe678719d30)" d="M 327.005272 236.36845 
L 327.005272 236.357112 
" style="fill:none;stroke:#1f77b4;stroke-width:1.5;"/>
    <path clip-path="url(#pe678719d30)" d="M 328.284111 236.36845 
L 328.284111 236.362861 
" style="fill:none;stroke:#1f77b4;stroke-width:1.5;"/>
    <path clip-path="url(#pe678719d30)" d="M 329.56295 236.36845 
L 329.56295 236.359454 
" style="fill:none;stroke:#1f77b4;stroke-width:1.5;"/>
    <path clip-path="url(#pe678719d30)" d="M 330.841789 236.36845 
L 330.841789 236.364288 
" style="fill:none;stroke:#1f77b4;stroke-width:1.5;"/>
    <path clip-path="url(#pe678719d30)" d="M 332.120628 236.36845 
L 332.120628 236.348879 
" style="fill:none;stroke:#1f77b4;stroke-width:1.5;"/>
    <path clip-path="url(#pe678719d30)" d="M 333.399466 236.36845 
L 333.399466 236.364501 
" style="fill:none;stroke:#1f77b4;stroke-width:1.5;"/>
    <path clip-path="url(#pe678719d30)" d="M 334.678305 236.36845 
L 334.678305 236.363574 
" style="fill:none;stroke:#1f77b4;stroke-width:1.5;"/>
    <path clip-path="url(#pe678719d30)" d="M 335.957144 236.36845 
L 335.957144 236.360253 
" style="fill:none;stroke:#1f77b4;stroke-width:1.5;"/>
    <path clip-path="url(#pe678719d30)" d="M 337.235983 236.36845 
L 337.235983 236.366381 
" style="fill:none;stroke:#1f77b4;stroke-width:1.5;"/>
    <path clip-path="url(#pe678719d30)" d="M 338.514822 236.36845 
L 338.514822 236.352853 
" style="fill:none;stroke:#1f77b4;stroke-width:1.5;"/>
    <path clip-path="url(#pe678719d30)" d="M 339.79366 236.36845 
L 339.79366 236.359588 
" style="fill:none;stroke:#1f77b4;stroke-width:1.5;"/>
    <path clip-path="url(#pe678719d30)" d="M 341.072499 236.36845 
L 341.072499 236.36275 
" style="fill:none;stroke:#1f77b4;stroke-width:1.5;"/>
    <path clip-path="url(#pe678719d30)" d="M 342.351338 236.36845 
L 342.351338 236.360671 
" style="fill:none;stroke:#1f77b4;stroke-width:1.5;"/>
    <path clip-path="url(#pe678719d30)" d="M 343.630177 236.36845 
L 343.630177 236.36423 
" style="fill:none;stroke:#1f77b4;stroke-width:1.5;"/>
    <path clip-path="url(#pe678719d30)" d="M 344.909016 236.36845 
L 344.909016 236.351381 
" style="fill:none;stroke:#1f77b4;stroke-width:1.5;"/>
    <path clip-path="url(#pe678719d30)" d="M 346.187855 236.36845 
L 346.187855 236.364401 
" style="fill:none;stroke:#1f77b4;stroke-width:1.5;"/>
    <path clip-path="url(#pe678719d30)" d="M 347.466693 236.36845 
L 347.466693 236.362356 
" style="fill:none;stroke:#1f77b4;stroke-width:1.5;"/>
    <path clip-path="url(#pe678719d30)" d="M 348.745532 236.36845 
L 348.745532 236.359841 
" style="fill:none;stroke:#1f77b4;stroke-width:1.5;"/>
    <path clip-path="url(#pe678719d30)" d="M 350.024371 236.36845 
L 350.024371 236.36438 
" style="fill:none;stroke:#1f77b4;stroke-width:1.5;"/>
    <path clip-path="url(#pe678719d30)" d="M 351.30321 236.36845 
L 351.30321 236.356308 
" style="fill:none;stroke:#1f77b4;stroke-width:1.5;"/>
    <path clip-path="url(#pe678719d30)" d="M 352.582049 236.36845 
L 352.582049 236.364372 
" style="fill:none;stroke:#1f77b4;stroke-width:1.5;"/>
    <path clip-path="url(#pe678719d30)" d="M 353.860887 236.36845 
L 353.860887 236.365158 
" style="fill:none;stroke:#1f77b4;stroke-width:1.5;"/>
    <path clip-path="url(#pe678719d30)" d="M 355.139726 236.36845 
L 355.139726 236.359833 
" style="fill:none;stroke:#1f77b4;stroke-width:1.5;"/>
    <path clip-path="url(#pe678719d30)" d="M 356.418565 236.36845 
L 356.418565 236.362277 
" style="fill:none;stroke:#1f77b4;stroke-width:1.5;"/>
    <path clip-path="url(#pe678719d30)" d="M 357.697404 236.36845 
L 357.697404 236.352771 
" style="fill:none;stroke:#1f77b4;stroke-width:1.5;"/>
    <path clip-path="url(#pe678719d30)" d="M 358.976243 236.36845 
L 358.976243 236.363741 
" style="fill:none;stroke:#1f77b4;stroke-width:1.5;"/>
    <path clip-path="url(#pe678719d30)" d="M 360.255081 236.36845 
L 360.255081 236.360832 
" style="fill:none;stroke:#1f77b4;stroke-width:1.5;"/>
    <path clip-path="url(#pe678719d30)" d="M 361.53392 236.36845 
L 361.53392 236.359918 
" style="fill:none;stroke:#1f77b4;stroke-width:1.5;"/>
    <path clip-path="url(#pe678719d30)" d="M 362.812759 236.36845 
L 362.812759 236.363804 
" style="fill:none;stroke:#1f77b4;stroke-width:1.5;"/>
    <path clip-path="url(#pe678719d30)" d="M 364.091598 236.36845 
L 364.091598 236.358961 
" style="fill:none;stroke:#1f77b4;stroke-width:1.5;"/>
    <path clip-path="url(#pe678719d30)" d="M 365.370437 236.36845 
L 365.370437 236.365818 
" style="fill:none;stroke:#1f77b4;stroke-width:1.5;"/>
    <path clip-path="url(#pe678719d30)" d="M 366.649275 236.36845 
L 366.649275 236.367061 
" style="fill:none;stroke:#1f77b4;stroke-width:1.5;"/>
    <path clip-path="url(#pe678719d30)" d="M 367.928114 236.36845 
L 367.928114 236.362412 
" style="fill:none;stroke:#1f77b4;stroke-width:1.5;"/>
    <path clip-path="url(#pe678719d30)" d="M 369.206953 236.36845 
L 369.206953 236.363819 
" style="fill:none;stroke:#1f77b4;stroke-width:1.5;"/>
    <path clip-path="url(#pe678719d30)" d="M 370.485792 236.36845 
L 370.485792 236.357313 
" style="fill:none;stroke:#1f77b4;stroke-width:1.5;"/>
    <path clip-path="url(#pe678719d30)" d="M 371.764631 236.36845 
L 371.764631 236.363228 
" style="fill:none;stroke:#1f77b4;stroke-width:1.5;"/>
   </g>
   <g id="patch_8">
    <path d="M 52.182813 239.9625 
L 52.182813 160.893409 
" style="fill:none;stroke:#000000;stroke-linecap:square;stroke-linejoin:miter;stroke-width:0.8;"/>
   </g>
   <g id="patch_9">
    <path d="M 386.982813 239.9625 
L 386.982813 160.893409 
" style="fill:none;stroke:#000000;stroke-linecap:square;stroke-linejoin:miter;stroke-width:0.8;"/>
   </g>
   <g id="patch_10">
    <path d="M 52.182812 239.9625 
L 386.982812 239.9625 
" style="fill:none;stroke:#000000;stroke-linecap:square;stroke-linejoin:miter;stroke-width:0.8;"/>
   </g>
   <g id="patch_11">
    <path d="M 52.182812 160.893409 
L 386.982812 160.893409 
" style="fill:none;stroke:#000000;stroke-linecap:square;stroke-linejoin:miter;stroke-width:0.8;"/>
   </g>
   <g id="text_22">
    <!-- Señal en frecuencia -->
    <g transform="translate(160.253125 154.893409)scale(0.12 -0.12)">
     <defs>
      <path d="M 37.109375 75.984375 
L 37.109375 68.5 
L 28.515625 68.5 
Q 23.6875 68.5 21.796875 66.546875 
Q 19.921875 64.59375 19.921875 59.515625 
L 19.921875 54.6875 
L 34.71875 54.6875 
L 34.71875 47.703125 
L 19.921875 47.703125 
L 19.921875 0 
L 10.890625 0 
L 10.890625 47.703125 
L 2.296875 47.703125 
L 2.296875 54.6875 
L 10.890625 54.6875 
L 10.890625 58.5 
Q 10.890625 67.625 15.140625 71.796875 
Q 19.390625 75.984375 28.609375 75.984375 
z
" id="DejaVuSans-102"/>
     </defs>
     <use xlink:href="#DejaVuSans-83"/>
     <use x="63.476562" xlink:href="#DejaVuSans-101"/>
     <use x="125" xlink:href="#DejaVuSans-241"/>
     <use x="188.378906" xlink:href="#DejaVuSans-97"/>
     <use x="249.658203" xlink:href="#DejaVuSans-108"/>
     <use x="277.441406" xlink:href="#DejaVuSans-32"/>
     <use x="309.228516" xlink:href="#DejaVuSans-101"/>
     <use x="370.751953" xlink:href="#DejaVuSans-110"/>
     <use x="434.130859" xlink:href="#DejaVuSans-32"/>
     <use x="465.917969" xlink:href="#DejaVuSans-102"/>
     <use x="501.123047" xlink:href="#DejaVuSans-114"/>
     <use x="539.986328" xlink:href="#DejaVuSans-101"/>
     <use x="601.509766" xlink:href="#DejaVuSans-99"/>
     <use x="656.490234" xlink:href="#DejaVuSans-117"/>
     <use x="719.869141" xlink:href="#DejaVuSans-101"/>
     <use x="781.392578" xlink:href="#DejaVuSans-110"/>
     <use x="844.771484" xlink:href="#DejaVuSans-99"/>
     <use x="899.751953" xlink:href="#DejaVuSans-105"/>
     <use x="927.535156" xlink:href="#DejaVuSans-97"/>
    </g>
   </g>
  </g>
 </g>
 <defs>
  <clipPath id="p021b53c6c7">
   <rect height="79.069091" width="334.8" x="52.182813" y="22.5225"/>
  </clipPath>
  <clipPath id="pe678719d30">
   <rect height="79.069091" width="334.8" x="52.182813" y="160.893409"/>
  </clipPath>
 </defs>
</svg>
