<?xml version="1.0" encoding="utf-8" standalone="no"?>
<!DOCTYPE svg PUBLIC "-//W3C//DTD SVG 1.1//EN"
  "http://www.w3.org/Graphics/SVG/1.1/DTD/svg11.dtd">
<!-- Created with matplotlib (https://matplotlib.org/) -->
<svg height="277.51875pt" version="1.1" viewBox="0 0 400.545312 277.51875" width="400.545312pt" xmlns="http://www.w3.org/2000/svg" xmlns:xlink="http://www.w3.org/1999/xlink">
 <metadata>
  <rdf:RDF xmlns:cc="http://creativecommons.org/ns#" xmlns:dc="http://purl.org/dc/elements/1.1/" xmlns:rdf="http://www.w3.org/1999/02/22-rdf-syntax-ns#">
   <cc:Work>
    <dc:type rdf:resource="http://purl.org/dc/dcmitype/StillImage"/>
    <dc:date>2022-02-26T14:04:18.702097</dc:date>
    <dc:format>image/svg+xml</dc:format>
    <dc:creator>
     <cc:Agent>
      <dc:title>Matplotlib v3.3.4, https://matplotlib.org/</dc:title>
     </cc:Agent>
    </dc:creator>
   </cc:Work>
  </rdf:RDF>
 </metadata>
 <defs>
  <style type="text/css">*{stroke-linecap:butt;stroke-linejoin:round;}</style>
 </defs>
 <g id="figure_1">
  <g id="patch_1">
   <path d="M 0 277.51875 
L 400.545312 277.51875 
L 400.545312 0 
L 0 0 
z
" style="fill:none;"/>
  </g>
  <g id="axes_1">
   <g id="patch_2">
    <path d="M 58.545313 101.591591 
L 393.345313 101.591591 
L 393.345313 22.5225 
L 58.545313 22.5225 
z
" style="fill:#ffffff;"/>
   </g>
   <g id="matplotlib.axis_1">
    <g id="xtick_1">
     <g id="line2d_1">
      <path clip-path="url(#pfb262b0989)" d="M 73.763494 101.591591 
L 73.763494 22.5225 
" style="fill:none;stroke:#b0b0b0;stroke-linecap:square;stroke-width:0.8;"/>
     </g>
     <g id="line2d_2">
      <defs>
       <path d="M 0 0 
L 0 3.5 
" id="mb3080b22ed" style="stroke:#000000;stroke-width:0.8;"/>
      </defs>
      <g>
       <use style="stroke:#000000;stroke-width:0.8;" x="73.763494" xlink:href="#mb3080b22ed" y="101.591591"/>
      </g>
     </g>
     <g id="text_1">
      <!-- 0 -->
      <g transform="translate(70.582244 116.190028)scale(0.1 -0.1)">
       <defs>
        <path d="M 31.78125 66.40625 
Q 24.171875 66.40625 20.328125 58.90625 
Q 16.5 51.421875 16.5 36.375 
Q 16.5 21.390625 20.328125 13.890625 
Q 24.171875 6.390625 31.78125 6.390625 
Q 39.453125 6.390625 43.28125 13.890625 
Q 47.125 21.390625 47.125 36.375 
Q 47.125 51.421875 43.28125 58.90625 
Q 39.453125 66.40625 31.78125 66.40625 
z
M 31.78125 74.21875 
Q 44.046875 74.21875 50.515625 64.515625 
Q 56.984375 54.828125 56.984375 36.375 
Q 56.984375 17.96875 50.515625 8.265625 
Q 44.046875 -1.421875 31.78125 -1.421875 
Q 19.53125 -1.421875 13.0625 8.265625 
Q 6.59375 17.96875 6.59375 36.375 
Q 6.59375 54.828125 13.0625 64.515625 
Q 19.53125 74.21875 31.78125 74.21875 
z
" id="DejaVuSans-48"/>
       </defs>
       <use xlink:href="#DejaVuSans-48"/>
      </g>
     </g>
    </g>
    <g id="xtick_2">
     <g id="line2d_3">
      <path clip-path="url(#pfb262b0989)" d="M 134.646369 101.591591 
L 134.646369 22.5225 
" style="fill:none;stroke:#b0b0b0;stroke-linecap:square;stroke-width:0.8;"/>
     </g>
     <g id="line2d_4">
      <g>
       <use style="stroke:#000000;stroke-width:0.8;" x="134.646369" xlink:href="#mb3080b22ed" y="101.591591"/>
      </g>
     </g>
     <g id="text_2">
      <!-- 10 -->
      <g transform="translate(128.283869 116.190028)scale(0.1 -0.1)">
       <defs>
        <path d="M 12.40625 8.296875 
L 28.515625 8.296875 
L 28.515625 63.921875 
L 10.984375 60.40625 
L 10.984375 69.390625 
L 28.421875 72.90625 
L 38.28125 72.90625 
L 38.28125 8.296875 
L 54.390625 8.296875 
L 54.390625 0 
L 12.40625 0 
z
" id="DejaVuSans-49"/>
       </defs>
       <use xlink:href="#DejaVuSans-49"/>
       <use x="63.623047" xlink:href="#DejaVuSans-48"/>
      </g>
     </g>
    </g>
    <g id="xtick_3">
     <g id="line2d_5">
      <path clip-path="url(#pfb262b0989)" d="M 195.529243 101.591591 
L 195.529243 22.5225 
" style="fill:none;stroke:#b0b0b0;stroke-linecap:square;stroke-width:0.8;"/>
     </g>
     <g id="line2d_6">
      <g>
       <use style="stroke:#000000;stroke-width:0.8;" x="195.529243" xlink:href="#mb3080b22ed" y="101.591591"/>
      </g>
     </g>
     <g id="text_3">
      <!-- 20 -->
      <g transform="translate(189.166743 116.190028)scale(0.1 -0.1)">
       <defs>
        <path d="M 19.1875 8.296875 
L 53.609375 8.296875 
L 53.609375 0 
L 7.328125 0 
L 7.328125 8.296875 
Q 12.9375 14.109375 22.625 23.890625 
Q 32.328125 33.6875 34.8125 36.53125 
Q 39.546875 41.84375 41.421875 45.53125 
Q 43.3125 49.21875 43.3125 52.78125 
Q 43.3125 58.59375 39.234375 62.25 
Q 35.15625 65.921875 28.609375 65.921875 
Q 23.96875 65.921875 18.8125 64.3125 
Q 13.671875 62.703125 7.8125 59.421875 
L 7.8125 69.390625 
Q 13.765625 71.78125 18.9375 73 
Q 24.125 74.21875 28.421875 74.21875 
Q 39.75 74.21875 46.484375 68.546875 
Q 53.21875 62.890625 53.21875 53.421875 
Q 53.21875 48.921875 51.53125 44.890625 
Q 49.859375 40.875 45.40625 35.40625 
Q 44.1875 33.984375 37.640625 27.21875 
Q 31.109375 20.453125 19.1875 8.296875 
z
" id="DejaVuSans-50"/>
       </defs>
       <use xlink:href="#DejaVuSans-50"/>
       <use x="63.623047" xlink:href="#DejaVuSans-48"/>
      </g>
     </g>
    </g>
    <g id="xtick_4">
     <g id="line2d_7">
      <path clip-path="url(#pfb262b0989)" d="M 256.412118 101.591591 
L 256.412118 22.5225 
" style="fill:none;stroke:#b0b0b0;stroke-linecap:square;stroke-width:0.8;"/>
     </g>
     <g id="line2d_8">
      <g>
       <use style="stroke:#000000;stroke-width:0.8;" x="256.412118" xlink:href="#mb3080b22ed" y="101.591591"/>
      </g>
     </g>
     <g id="text_4">
      <!-- 30 -->
      <g transform="translate(250.049618 116.190028)scale(0.1 -0.1)">
       <defs>
        <path d="M 40.578125 39.3125 
Q 47.65625 37.796875 51.625 33 
Q 55.609375 28.21875 55.609375 21.1875 
Q 55.609375 10.40625 48.1875 4.484375 
Q 40.765625 -1.421875 27.09375 -1.421875 
Q 22.515625 -1.421875 17.65625 -0.515625 
Q 12.796875 0.390625 7.625 2.203125 
L 7.625 11.71875 
Q 11.71875 9.328125 16.59375 8.109375 
Q 21.484375 6.890625 26.8125 6.890625 
Q 36.078125 6.890625 40.9375 10.546875 
Q 45.796875 14.203125 45.796875 21.1875 
Q 45.796875 27.640625 41.28125 31.265625 
Q 36.765625 34.90625 28.71875 34.90625 
L 20.21875 34.90625 
L 20.21875 43.015625 
L 29.109375 43.015625 
Q 36.375 43.015625 40.234375 45.921875 
Q 44.09375 48.828125 44.09375 54.296875 
Q 44.09375 59.90625 40.109375 62.90625 
Q 36.140625 65.921875 28.71875 65.921875 
Q 24.65625 65.921875 20.015625 65.03125 
Q 15.375 64.15625 9.8125 62.3125 
L 9.8125 71.09375 
Q 15.4375 72.65625 20.34375 73.4375 
Q 25.25 74.21875 29.59375 74.21875 
Q 40.828125 74.21875 47.359375 69.109375 
Q 53.90625 64.015625 53.90625 55.328125 
Q 53.90625 49.265625 50.4375 45.09375 
Q 46.96875 40.921875 40.578125 39.3125 
z
" id="DejaVuSans-51"/>
       </defs>
       <use xlink:href="#DejaVuSans-51"/>
       <use x="63.623047" xlink:href="#DejaVuSans-48"/>
      </g>
     </g>
    </g>
    <g id="xtick_5">
     <g id="line2d_9">
      <path clip-path="url(#pfb262b0989)" d="M 317.294992 101.591591 
L 317.294992 22.5225 
" style="fill:none;stroke:#b0b0b0;stroke-linecap:square;stroke-width:0.8;"/>
     </g>
     <g id="line2d_10">
      <g>
       <use style="stroke:#000000;stroke-width:0.8;" x="317.294992" xlink:href="#mb3080b22ed" y="101.591591"/>
      </g>
     </g>
     <g id="text_5">
      <!-- 40 -->
      <g transform="translate(310.932492 116.190028)scale(0.1 -0.1)">
       <defs>
        <path d="M 37.796875 64.3125 
L 12.890625 25.390625 
L 37.796875 25.390625 
z
M 35.203125 72.90625 
L 47.609375 72.90625 
L 47.609375 25.390625 
L 58.015625 25.390625 
L 58.015625 17.1875 
L 47.609375 17.1875 
L 47.609375 0 
L 37.796875 0 
L 37.796875 17.1875 
L 4.890625 17.1875 
L 4.890625 26.703125 
z
" id="DejaVuSans-52"/>
       </defs>
       <use xlink:href="#DejaVuSans-52"/>
       <use x="63.623047" xlink:href="#DejaVuSans-48"/>
      </g>
     </g>
    </g>
    <g id="xtick_6">
     <g id="line2d_11">
      <path clip-path="url(#pfb262b0989)" d="M 378.177866 101.591591 
L 378.177866 22.5225 
" style="fill:none;stroke:#b0b0b0;stroke-linecap:square;stroke-width:0.8;"/>
     </g>
     <g id="line2d_12">
      <g>
       <use style="stroke:#000000;stroke-width:0.8;" x="378.177866" xlink:href="#mb3080b22ed" y="101.591591"/>
      </g>
     </g>
     <g id="text_6">
      <!-- 50 -->
      <g transform="translate(371.815366 116.190028)scale(0.1 -0.1)">
       <defs>
        <path d="M 10.796875 72.90625 
L 49.515625 72.90625 
L 49.515625 64.59375 
L 19.828125 64.59375 
L 19.828125 46.734375 
Q 21.96875 47.46875 24.109375 47.828125 
Q 26.265625 48.1875 28.421875 48.1875 
Q 40.625 48.1875 47.75 41.5 
Q 54.890625 34.8125 54.890625 23.390625 
Q 54.890625 11.625 47.5625 5.09375 
Q 40.234375 -1.421875 26.90625 -1.421875 
Q 22.3125 -1.421875 17.546875 -0.640625 
Q 12.796875 0.140625 7.71875 1.703125 
L 7.71875 11.625 
Q 12.109375 9.234375 16.796875 8.0625 
Q 21.484375 6.890625 26.703125 6.890625 
Q 35.15625 6.890625 40.078125 11.328125 
Q 45.015625 15.765625 45.015625 23.390625 
Q 45.015625 31 40.078125 35.4375 
Q 35.15625 39.890625 26.703125 39.890625 
Q 22.75 39.890625 18.8125 39.015625 
Q 14.890625 38.140625 10.796875 36.28125 
z
" id="DejaVuSans-53"/>
       </defs>
       <use xlink:href="#DejaVuSans-53"/>
       <use x="63.623047" xlink:href="#DejaVuSans-48"/>
      </g>
     </g>
    </g>
    <g id="text_7">
     <!-- Tiempo (s) -->
     <g transform="translate(199.382812 129.868153)scale(0.1 -0.1)">
      <defs>
       <path d="M -0.296875 72.90625 
L 61.375 72.90625 
L 61.375 64.59375 
L 35.5 64.59375 
L 35.5 0 
L 25.59375 0 
L 25.59375 64.59375 
L -0.296875 64.59375 
z
" id="DejaVuSans-84"/>
       <path d="M 9.421875 54.6875 
L 18.40625 54.6875 
L 18.40625 0 
L 9.421875 0 
z
M 9.421875 75.984375 
L 18.40625 75.984375 
L 18.40625 64.59375 
L 9.421875 64.59375 
z
" id="DejaVuSans-105"/>
       <path d="M 56.203125 29.59375 
L 56.203125 25.203125 
L 14.890625 25.203125 
Q 15.484375 15.921875 20.484375 11.0625 
Q 25.484375 6.203125 34.421875 6.203125 
Q 39.59375 6.203125 44.453125 7.46875 
Q 49.3125 8.734375 54.109375 11.28125 
L 54.109375 2.78125 
Q 49.265625 0.734375 44.1875 -0.34375 
Q 39.109375 -1.421875 33.890625 -1.421875 
Q 20.796875 -1.421875 13.15625 6.1875 
Q 5.515625 13.8125 5.515625 26.8125 
Q 5.515625 40.234375 12.765625 48.109375 
Q 20.015625 56 32.328125 56 
Q 43.359375 56 49.78125 48.890625 
Q 56.203125 41.796875 56.203125 29.59375 
z
M 47.21875 32.234375 
Q 47.125 39.59375 43.09375 43.984375 
Q 39.0625 48.390625 32.421875 48.390625 
Q 24.90625 48.390625 20.390625 44.140625 
Q 15.875 39.890625 15.1875 32.171875 
z
" id="DejaVuSans-101"/>
       <path d="M 52 44.1875 
Q 55.375 50.25 60.0625 53.125 
Q 64.75 56 71.09375 56 
Q 79.640625 56 84.28125 50.015625 
Q 88.921875 44.046875 88.921875 33.015625 
L 88.921875 0 
L 79.890625 0 
L 79.890625 32.71875 
Q 79.890625 40.578125 77.09375 44.375 
Q 74.3125 48.1875 68.609375 48.1875 
Q 61.625 48.1875 57.5625 43.546875 
Q 53.515625 38.921875 53.515625 30.90625 
L 53.515625 0 
L 44.484375 0 
L 44.484375 32.71875 
Q 44.484375 40.625 41.703125 44.40625 
Q 38.921875 48.1875 33.109375 48.1875 
Q 26.21875 48.1875 22.15625 43.53125 
Q 18.109375 38.875 18.109375 30.90625 
L 18.109375 0 
L 9.078125 0 
L 9.078125 54.6875 
L 18.109375 54.6875 
L 18.109375 46.1875 
Q 21.1875 51.21875 25.484375 53.609375 
Q 29.78125 56 35.6875 56 
Q 41.65625 56 45.828125 52.96875 
Q 50 49.953125 52 44.1875 
z
" id="DejaVuSans-109"/>
       <path d="M 18.109375 8.203125 
L 18.109375 -20.796875 
L 9.078125 -20.796875 
L 9.078125 54.6875 
L 18.109375 54.6875 
L 18.109375 46.390625 
Q 20.953125 51.265625 25.265625 53.625 
Q 29.59375 56 35.59375 56 
Q 45.5625 56 51.78125 48.09375 
Q 58.015625 40.1875 58.015625 27.296875 
Q 58.015625 14.40625 51.78125 6.484375 
Q 45.5625 -1.421875 35.59375 -1.421875 
Q 29.59375 -1.421875 25.265625 0.953125 
Q 20.953125 3.328125 18.109375 8.203125 
z
M 48.6875 27.296875 
Q 48.6875 37.203125 44.609375 42.84375 
Q 40.53125 48.484375 33.40625 48.484375 
Q 26.265625 48.484375 22.1875 42.84375 
Q 18.109375 37.203125 18.109375 27.296875 
Q 18.109375 17.390625 22.1875 11.75 
Q 26.265625 6.109375 33.40625 6.109375 
Q 40.53125 6.109375 44.609375 11.75 
Q 48.6875 17.390625 48.6875 27.296875 
z
" id="DejaVuSans-112"/>
       <path d="M 30.609375 48.390625 
Q 23.390625 48.390625 19.1875 42.75 
Q 14.984375 37.109375 14.984375 27.296875 
Q 14.984375 17.484375 19.15625 11.84375 
Q 23.34375 6.203125 30.609375 6.203125 
Q 37.796875 6.203125 41.984375 11.859375 
Q 46.1875 17.53125 46.1875 27.296875 
Q 46.1875 37.015625 41.984375 42.703125 
Q 37.796875 48.390625 30.609375 48.390625 
z
M 30.609375 56 
Q 42.328125 56 49.015625 48.375 
Q 55.71875 40.765625 55.71875 27.296875 
Q 55.71875 13.875 49.015625 6.21875 
Q 42.328125 -1.421875 30.609375 -1.421875 
Q 18.84375 -1.421875 12.171875 6.21875 
Q 5.515625 13.875 5.515625 27.296875 
Q 5.515625 40.765625 12.171875 48.375 
Q 18.84375 56 30.609375 56 
z
" id="DejaVuSans-111"/>
       <path id="DejaVuSans-32"/>
       <path d="M 31 75.875 
Q 24.46875 64.65625 21.28125 53.65625 
Q 18.109375 42.671875 18.109375 31.390625 
Q 18.109375 20.125 21.3125 9.0625 
Q 24.515625 -2 31 -13.1875 
L 23.1875 -13.1875 
Q 15.875 -1.703125 12.234375 9.375 
Q 8.59375 20.453125 8.59375 31.390625 
Q 8.59375 42.28125 12.203125 53.3125 
Q 15.828125 64.359375 23.1875 75.875 
z
" id="DejaVuSans-40"/>
       <path d="M 44.28125 53.078125 
L 44.28125 44.578125 
Q 40.484375 46.53125 36.375 47.5 
Q 32.28125 48.484375 27.875 48.484375 
Q 21.1875 48.484375 17.84375 46.4375 
Q 14.5 44.390625 14.5 40.28125 
Q 14.5 37.15625 16.890625 35.375 
Q 19.28125 33.59375 26.515625 31.984375 
L 29.59375 31.296875 
Q 39.15625 29.25 43.1875 25.515625 
Q 47.21875 21.78125 47.21875 15.09375 
Q 47.21875 7.46875 41.1875 3.015625 
Q 35.15625 -1.421875 24.609375 -1.421875 
Q 20.21875 -1.421875 15.453125 -0.5625 
Q 10.6875 0.296875 5.421875 2 
L 5.421875 11.28125 
Q 10.40625 8.6875 15.234375 7.390625 
Q 20.0625 6.109375 24.8125 6.109375 
Q 31.15625 6.109375 34.5625 8.28125 
Q 37.984375 10.453125 37.984375 14.40625 
Q 37.984375 18.0625 35.515625 20.015625 
Q 33.0625 21.96875 24.703125 23.78125 
L 21.578125 24.515625 
Q 13.234375 26.265625 9.515625 29.90625 
Q 5.8125 33.546875 5.8125 39.890625 
Q 5.8125 47.609375 11.28125 51.796875 
Q 16.75 56 26.8125 56 
Q 31.78125 56 36.171875 55.265625 
Q 40.578125 54.546875 44.28125 53.078125 
z
" id="DejaVuSans-115"/>
       <path d="M 8.015625 75.875 
L 15.828125 75.875 
Q 23.140625 64.359375 26.78125 53.3125 
Q 30.421875 42.28125 30.421875 31.390625 
Q 30.421875 20.453125 26.78125 9.375 
Q 23.140625 -1.703125 15.828125 -13.1875 
L 8.015625 -13.1875 
Q 14.5 -2 17.703125 9.0625 
Q 20.90625 20.125 20.90625 31.390625 
Q 20.90625 42.671875 17.703125 53.65625 
Q 14.5 64.65625 8.015625 75.875 
z
" id="DejaVuSans-41"/>
      </defs>
      <use xlink:href="#DejaVuSans-84"/>
      <use x="57.958984" xlink:href="#DejaVuSans-105"/>
      <use x="85.742188" xlink:href="#DejaVuSans-101"/>
      <use x="147.265625" xlink:href="#DejaVuSans-109"/>
      <use x="244.677734" xlink:href="#DejaVuSans-112"/>
      <use x="308.154297" xlink:href="#DejaVuSans-111"/>
      <use x="369.335938" xlink:href="#DejaVuSans-32"/>
      <use x="401.123047" xlink:href="#DejaVuSans-40"/>
      <use x="440.136719" xlink:href="#DejaVuSans-115"/>
      <use x="492.236328" xlink:href="#DejaVuSans-41"/>
     </g>
    </g>
   </g>
   <g id="matplotlib.axis_2">
    <g id="ytick_1">
     <g id="line2d_13">
      <path clip-path="url(#pfb262b0989)" d="M 58.545313 101.046358 
L 393.345313 101.046358 
" style="fill:none;stroke:#b0b0b0;stroke-linecap:square;stroke-width:0.8;"/>
     </g>
     <g id="line2d_14">
      <defs>
       <path d="M 0 0 
L -3.5 0 
" id="mca27d1d125" style="stroke:#000000;stroke-width:0.8;"/>
      </defs>
      <g>
       <use style="stroke:#000000;stroke-width:0.8;" x="58.545313" xlink:href="#mca27d1d125" y="101.046358"/>
      </g>
     </g>
     <g id="text_8">
      <!-- −0.25 -->
      <g transform="translate(20.9 104.845577)scale(0.1 -0.1)">
       <defs>
        <path d="M 10.59375 35.5 
L 73.1875 35.5 
L 73.1875 27.203125 
L 10.59375 27.203125 
z
" id="DejaVuSans-8722"/>
        <path d="M 10.6875 12.40625 
L 21 12.40625 
L 21 0 
L 10.6875 0 
z
" id="DejaVuSans-46"/>
       </defs>
       <use xlink:href="#DejaVuSans-8722"/>
       <use x="83.789062" xlink:href="#DejaVuSans-48"/>
       <use x="147.412109" xlink:href="#DejaVuSans-46"/>
       <use x="179.199219" xlink:href="#DejaVuSans-50"/>
       <use x="242.822266" xlink:href="#DejaVuSans-53"/>
      </g>
     </g>
    </g>
    <g id="ytick_2">
     <g id="line2d_15">
      <path clip-path="url(#pfb262b0989)" d="M 58.545313 69.909969 
L 393.345313 69.909969 
" style="fill:none;stroke:#b0b0b0;stroke-linecap:square;stroke-width:0.8;"/>
     </g>
     <g id="line2d_16">
      <g>
       <use style="stroke:#000000;stroke-width:0.8;" x="58.545313" xlink:href="#mca27d1d125" y="69.909969"/>
      </g>
     </g>
     <g id="text_9">
      <!-- 0.00 -->
      <g transform="translate(29.279688 73.709188)scale(0.1 -0.1)">
       <use xlink:href="#DejaVuSans-48"/>
       <use x="63.623047" xlink:href="#DejaVuSans-46"/>
       <use x="95.410156" xlink:href="#DejaVuSans-48"/>
       <use x="159.033203" xlink:href="#DejaVuSans-48"/>
      </g>
     </g>
    </g>
    <g id="ytick_3">
     <g id="line2d_17">
      <path clip-path="url(#pfb262b0989)" d="M 58.545313 38.77358 
L 393.345313 38.77358 
" style="fill:none;stroke:#b0b0b0;stroke-linecap:square;stroke-width:0.8;"/>
     </g>
     <g id="line2d_18">
      <g>
       <use style="stroke:#000000;stroke-width:0.8;" x="58.545313" xlink:href="#mca27d1d125" y="38.77358"/>
      </g>
     </g>
     <g id="text_10">
      <!-- 0.25 -->
      <g transform="translate(29.279688 42.572799)scale(0.1 -0.1)">
       <use xlink:href="#DejaVuSans-48"/>
       <use x="63.623047" xlink:href="#DejaVuSans-46"/>
       <use x="95.410156" xlink:href="#DejaVuSans-50"/>
       <use x="159.033203" xlink:href="#DejaVuSans-53"/>
      </g>
     </g>
    </g>
    <g id="text_11">
     <!-- $y(t)$ -->
     <g transform="translate(14.8 70.907045)rotate(-90)scale(0.1 -0.1)">
      <defs>
       <path d="M 24.8125 -5.078125 
Q 18.5625 -15.578125 14.625 -18.1875 
Q 10.6875 -20.796875 4.59375 -20.796875 
L -2.484375 -20.796875 
L -0.984375 -13.28125 
L 4.203125 -13.28125 
Q 7.953125 -13.28125 10.59375 -11.234375 
Q 13.234375 -9.1875 16.5 -3.21875 
L 19.28125 2 
L 7.171875 54.6875 
L 16.703125 54.6875 
L 25.78125 12.796875 
L 50.875 54.6875 
L 60.296875 54.6875 
z
" id="DejaVuSans-Oblique-121"/>
       <path d="M 42.28125 54.6875 
L 40.921875 47.703125 
L 23 47.703125 
L 17.1875 18.015625 
Q 16.890625 16.359375 16.75 15.234375 
Q 16.609375 14.109375 16.609375 13.484375 
Q 16.609375 10.359375 18.484375 8.9375 
Q 20.359375 7.515625 24.515625 7.515625 
L 33.59375 7.515625 
L 32.078125 0 
L 23.484375 0 
Q 15.484375 0 11.546875 3.125 
Q 7.625 6.25 7.625 12.59375 
Q 7.625 13.71875 7.765625 15.0625 
Q 7.90625 16.40625 8.203125 18.015625 
L 14.015625 47.703125 
L 6.390625 47.703125 
L 7.8125 54.6875 
L 15.28125 54.6875 
L 18.3125 70.21875 
L 27.296875 70.21875 
L 24.3125 54.6875 
z
" id="DejaVuSans-Oblique-116"/>
      </defs>
      <use transform="translate(0 0.125)" xlink:href="#DejaVuSans-Oblique-121"/>
      <use transform="translate(59.179688 0.125)" xlink:href="#DejaVuSans-40"/>
      <use transform="translate(98.193359 0.125)" xlink:href="#DejaVuSans-Oblique-116"/>
      <use transform="translate(137.402344 0.125)" xlink:href="#DejaVuSans-41"/>
     </g>
    </g>
   </g>
   <g id="line2d_19">
    <path clip-path="url(#pfb262b0989)" d="M 73.763494 69.909975 
L 90.430181 69.812524 
L 90.785331 69.575075 
L 91.089746 69.072405 
L 91.39416 68.085691 
L 91.74931 66.048669 
L 92.180564 62.077643 
L 92.738657 54.584995 
L 94.514407 28.635351 
L 94.894925 26.529998 
L 95.123236 26.122843 
L 95.275443 26.198517 
L 95.478386 26.706439 
L 95.782801 28.241608 
L 96.290158 32.223229 
L 97.178033 39.032999 
L 97.583919 40.578796 
L 97.837598 40.880917 
L 98.015173 40.794291 
L 98.243483 40.354105 
L 98.598634 39.070262 
L 99.23283 35.729805 
L 100.196809 30.888189 
L 100.704166 29.396653 
L 101.084684 28.862639 
L 101.389099 28.758299 
L 101.693513 28.886315 
L 102.124767 29.344483 
L 103.849781 31.452954 
L 104.382507 31.633133 
L 104.965967 31.581584 
L 107.122236 31.158551 
L 107.934008 31.385999 
L 109.405344 32.096972 
L 111.155726 32.834806 
L 113.793984 33.916314 
L 116.077092 35.173421 
L 119.121236 37.08773 
L 121.759494 39.023869 
L 124.77827 41.522347 
L 128.202931 44.656558 
L 133.2004 49.569166 
L 140.81076 57.026767 
L 145.123297 60.920061 
L 149.385098 64.465081 
L 154.610878 68.502531 
L 162.094398 74.281376 
L 165.265381 77.035131 
L 167.903639 79.617398 
L 170.313586 82.285844 
L 172.723533 85.292612 
L 175.539366 89.186213 
L 179.496753 94.655228 
L 180.942721 96.262313 
L 182.084275 97.218055 
L 183.048254 97.748423 
L 183.910761 97.976098 
L 184.722533 97.961413 
L 185.534305 97.719161 
L 186.396812 97.216819 
L 187.335423 96.401462 
L 188.426241 95.140596 
L 189.846842 93.117523 
L 191.698696 90.061057 
L 197.076683 80.986058 
L 199.385159 77.627986 
L 201.74437 74.589512 
L 204.585571 71.310807 
L 211.00364 64.039323 
L 213.134541 61.179548 
L 215.16397 58.070531 
L 217.726124 53.688526 
L 220.009232 49.920679 
L 221.150786 48.442691 
L 222.038661 47.631105 
L 222.774329 47.238445 
L 223.433894 47.125561 
L 224.068091 47.237691 
L 224.753023 47.597306 
L 225.514059 48.266323 
L 226.478038 49.441712 
L 227.467384 50.981674 
L 234.392811 63.032643 
L 236.371505 65.82162 
L 238.984395 69.082372 
L 243.525242 74.720556 
L 245.4532 77.533788 
L 247.381158 80.760383 
L 250.932659 86.822787 
L 251.87127 87.915476 
L 252.606938 88.449774 
L 253.241135 88.643919 
L 253.824595 88.592486 
L 254.433424 88.307235 
L 255.118356 87.725861 
L 255.955496 86.701796 
L 257.09705 84.918578 
L 263.236073 74.72625 
L 265.417709 71.866763 
L 271.176215 64.580794 
L 272.977333 61.751592 
L 276.757145 55.625248 
L 277.568916 54.837967 
L 278.228481 54.496696 
L 278.811942 54.444142 
L 279.370035 54.615807 
L 280.004231 55.057717 
L 280.765267 55.882118 
L 281.80535 57.372334 
L 287.437016 66.008553 
L 289.694756 68.753034 
L 293.956557 73.842211 
L 295.732307 76.414099 
L 299.182337 81.565534 
L 299.943373 82.232018 
L 300.577569 82.510025 
L 301.135662 82.523316 
L 301.719123 82.306285 
L 302.378688 81.803701 
L 303.215827 80.852812 
L 304.763267 78.699496 
L 307.858146 74.306745 
L 309.735368 72.125696 
L 315.722184 65.449819 
L 319.781043 60.239978 
L 320.465975 59.854121 
L 321.049436 59.762745 
L 321.632897 59.897392 
L 322.267093 60.280999 
L 323.078865 61.059294 
L 324.372626 62.666481 
L 326.833309 65.712893 
L 328.83737 67.786051 
L 335.306176 74.193664 
L 337.842962 77.055209 
L 338.654734 77.607021 
L 339.314298 77.796383 
L 339.923127 77.742093 
L 340.582691 77.447287 
L 341.369095 76.833742 
L 342.637488 75.511752 
L 344.895228 73.183615 
L 346.873922 71.511381 
L 352.784634 66.70568 
L 355.143846 64.600403 
L 356.209296 64.016795 
L 357.173275 63.714662 
L 358.010414 63.678523 
L 358.77145 63.865143 
L 359.507118 64.272568 
L 360.268154 64.955044 
L 361.054558 65.964904 
L 361.917065 67.45713 
L 362.754205 69.357786 
L 364.327012 73.516401 
L 364.70753 73.803253 
L 365.037313 73.780736 
L 365.417831 73.498726 
L 365.975924 72.758039 
L 367.497996 70.611385 
L 368.106824 70.182074 
L 368.690285 70.033551 
L 369.451321 70.092672 
L 371.455382 70.352223 
L 378.127131 70.241431 
L 378.127131 70.241431 
" style="fill:none;stroke:#1f77b4;stroke-linecap:square;stroke-width:1.5;"/>
   </g>
   <g id="patch_3">
    <path d="M 58.545313 101.591591 
L 58.545313 22.5225 
" style="fill:none;stroke:#000000;stroke-linecap:square;stroke-linejoin:miter;stroke-width:0.8;"/>
   </g>
   <g id="patch_4">
    <path d="M 393.345313 101.591591 
L 393.345313 22.5225 
" style="fill:none;stroke:#000000;stroke-linecap:square;stroke-linejoin:miter;stroke-width:0.8;"/>
   </g>
   <g id="patch_5">
    <path d="M 58.545313 101.591591 
L 393.345313 101.591591 
" style="fill:none;stroke:#000000;stroke-linecap:square;stroke-linejoin:miter;stroke-width:0.8;"/>
   </g>
   <g id="patch_6">
    <path d="M 58.545313 22.5225 
L 393.345313 22.5225 
" style="fill:none;stroke:#000000;stroke-linecap:square;stroke-linejoin:miter;stroke-width:0.8;"/>
   </g>
   <g id="text_12">
    <!-- Señal en el tiempo -->
    <g transform="translate(169.68875 16.5225)scale(0.12 -0.12)">
     <defs>
      <path d="M 53.515625 70.515625 
L 53.515625 60.890625 
Q 47.90625 63.578125 42.921875 64.890625 
Q 37.9375 66.21875 33.296875 66.21875 
Q 25.25 66.21875 20.875 63.09375 
Q 16.5 59.96875 16.5 54.203125 
Q 16.5 49.359375 19.40625 46.890625 
Q 22.3125 44.4375 30.421875 42.921875 
L 36.375 41.703125 
Q 47.40625 39.59375 52.65625 34.296875 
Q 57.90625 29 57.90625 20.125 
Q 57.90625 9.515625 50.796875 4.046875 
Q 43.703125 -1.421875 29.984375 -1.421875 
Q 24.8125 -1.421875 18.96875 -0.25 
Q 13.140625 0.921875 6.890625 3.21875 
L 6.890625 13.375 
Q 12.890625 10.015625 18.65625 8.296875 
Q 24.421875 6.59375 29.984375 6.59375 
Q 38.421875 6.59375 43.015625 9.90625 
Q 47.609375 13.234375 47.609375 19.390625 
Q 47.609375 24.75 44.3125 27.78125 
Q 41.015625 30.8125 33.5 32.328125 
L 27.484375 33.5 
Q 16.453125 35.6875 11.515625 40.375 
Q 6.59375 45.0625 6.59375 53.421875 
Q 6.59375 63.09375 13.40625 68.65625 
Q 20.21875 74.21875 32.171875 74.21875 
Q 37.3125 74.21875 42.625 73.28125 
Q 47.953125 72.359375 53.515625 70.515625 
z
" id="DejaVuSans-83"/>
      <path d="M 54.890625 33.015625 
L 54.890625 0 
L 45.90625 0 
L 45.90625 32.71875 
Q 45.90625 40.484375 42.875 44.328125 
Q 39.84375 48.1875 33.796875 48.1875 
Q 26.515625 48.1875 22.3125 43.546875 
Q 18.109375 38.921875 18.109375 30.90625 
L 18.109375 0 
L 9.078125 0 
L 9.078125 54.6875 
L 18.109375 54.6875 
L 18.109375 46.1875 
Q 21.34375 51.125 25.703125 53.5625 
Q 30.078125 56 35.796875 56 
Q 45.21875 56 50.046875 50.171875 
Q 54.890625 44.34375 54.890625 33.015625 
z
M 32.234375 66.890625 
L 29.4375 69.578125 
Q 28.375 70.5625 27.5625 71.015625 
Q 26.765625 71.484375 26.125 71.484375 
Q 24.265625 71.484375 23.390625 69.703125 
Q 22.515625 67.921875 22.40625 63.921875 
L 16.3125 63.921875 
Q 16.40625 70.515625 18.890625 74.09375 
Q 21.390625 77.6875 25.828125 77.6875 
Q 27.6875 77.6875 29.25 77 
Q 30.8125 76.3125 32.625 74.703125 
L 35.40625 72.015625 
Q 36.46875 71.046875 37.28125 70.578125 
Q 38.09375 70.125 38.71875 70.125 
Q 40.578125 70.125 41.453125 71.90625 
Q 42.328125 73.6875 42.4375 77.6875 
L 48.53125 77.6875 
Q 48.4375 71.09375 45.9375 67.5 
Q 43.453125 63.921875 39.015625 63.921875 
Q 37.15625 63.921875 35.59375 64.59375 
Q 34.03125 65.28125 32.234375 66.890625 
z
" id="DejaVuSans-241"/>
      <path d="M 34.28125 27.484375 
Q 23.390625 27.484375 19.1875 25 
Q 14.984375 22.515625 14.984375 16.5 
Q 14.984375 11.71875 18.140625 8.90625 
Q 21.296875 6.109375 26.703125 6.109375 
Q 34.1875 6.109375 38.703125 11.40625 
Q 43.21875 16.703125 43.21875 25.484375 
L 43.21875 27.484375 
z
M 52.203125 31.203125 
L 52.203125 0 
L 43.21875 0 
L 43.21875 8.296875 
Q 40.140625 3.328125 35.546875 0.953125 
Q 30.953125 -1.421875 24.3125 -1.421875 
Q 15.921875 -1.421875 10.953125 3.296875 
Q 6 8.015625 6 15.921875 
Q 6 25.140625 12.171875 29.828125 
Q 18.359375 34.515625 30.609375 34.515625 
L 43.21875 34.515625 
L 43.21875 35.40625 
Q 43.21875 41.609375 39.140625 45 
Q 35.0625 48.390625 27.6875 48.390625 
Q 23 48.390625 18.546875 47.265625 
Q 14.109375 46.140625 10.015625 43.890625 
L 10.015625 52.203125 
Q 14.9375 54.109375 19.578125 55.046875 
Q 24.21875 56 28.609375 56 
Q 40.484375 56 46.34375 49.84375 
Q 52.203125 43.703125 52.203125 31.203125 
z
" id="DejaVuSans-97"/>
      <path d="M 9.421875 75.984375 
L 18.40625 75.984375 
L 18.40625 0 
L 9.421875 0 
z
" id="DejaVuSans-108"/>
      <path d="M 54.890625 33.015625 
L 54.890625 0 
L 45.90625 0 
L 45.90625 32.71875 
Q 45.90625 40.484375 42.875 44.328125 
Q 39.84375 48.1875 33.796875 48.1875 
Q 26.515625 48.1875 22.3125 43.546875 
Q 18.109375 38.921875 18.109375 30.90625 
L 18.109375 0 
L 9.078125 0 
L 9.078125 54.6875 
L 18.109375 54.6875 
L 18.109375 46.1875 
Q 21.34375 51.125 25.703125 53.5625 
Q 30.078125 56 35.796875 56 
Q 45.21875 56 50.046875 50.171875 
Q 54.890625 44.34375 54.890625 33.015625 
z
" id="DejaVuSans-110"/>
      <path d="M 18.3125 70.21875 
L 18.3125 54.6875 
L 36.8125 54.6875 
L 36.8125 47.703125 
L 18.3125 47.703125 
L 18.3125 18.015625 
Q 18.3125 11.328125 20.140625 9.421875 
Q 21.96875 7.515625 27.59375 7.515625 
L 36.8125 7.515625 
L 36.8125 0 
L 27.59375 0 
Q 17.1875 0 13.234375 3.875 
Q 9.28125 7.765625 9.28125 18.015625 
L 9.28125 47.703125 
L 2.6875 47.703125 
L 2.6875 54.6875 
L 9.28125 54.6875 
L 9.28125 70.21875 
z
" id="DejaVuSans-116"/>
     </defs>
     <use xlink:href="#DejaVuSans-83"/>
     <use x="63.476562" xlink:href="#DejaVuSans-101"/>
     <use x="125" xlink:href="#DejaVuSans-241"/>
     <use x="188.378906" xlink:href="#DejaVuSans-97"/>
     <use x="249.658203" xlink:href="#DejaVuSans-108"/>
     <use x="277.441406" xlink:href="#DejaVuSans-32"/>
     <use x="309.228516" xlink:href="#DejaVuSans-101"/>
     <use x="370.751953" xlink:href="#DejaVuSans-110"/>
     <use x="434.130859" xlink:href="#DejaVuSans-32"/>
     <use x="465.917969" xlink:href="#DejaVuSans-101"/>
     <use x="527.441406" xlink:href="#DejaVuSans-108"/>
     <use x="555.224609" xlink:href="#DejaVuSans-32"/>
     <use x="587.011719" xlink:href="#DejaVuSans-116"/>
     <use x="626.220703" xlink:href="#DejaVuSans-105"/>
     <use x="654.003906" xlink:href="#DejaVuSans-101"/>
     <use x="715.527344" xlink:href="#DejaVuSans-109"/>
     <use x="812.939453" xlink:href="#DejaVuSans-112"/>
     <use x="876.416016" xlink:href="#DejaVuSans-111"/>
    </g>
   </g>
  </g>
  <g id="axes_2">
   <g id="patch_7">
    <path d="M 58.545313 239.9625 
L 393.345313 239.9625 
L 393.345313 160.893409 
L 58.545313 160.893409 
z
" style="fill:#ffffff;"/>
   </g>
   <g id="matplotlib.axis_3">
    <g id="xtick_7">
     <g id="line2d_20">
      <path clip-path="url(#ped06dbcb3f)" d="M 73.763494 239.9625 
L 73.763494 160.893409 
" style="fill:none;stroke:#b0b0b0;stroke-linecap:square;stroke-width:0.8;"/>
     </g>
     <g id="line2d_21">
      <g>
       <use style="stroke:#000000;stroke-width:0.8;" x="73.763494" xlink:href="#mb3080b22ed" y="239.9625"/>
      </g>
     </g>
     <g id="text_13">
      <!-- 0 -->
      <g transform="translate(70.582244 254.560937)scale(0.1 -0.1)">
       <use xlink:href="#DejaVuSans-48"/>
      </g>
     </g>
    </g>
    <g id="xtick_8">
     <g id="line2d_22">
      <path clip-path="url(#ped06dbcb3f)" d="M 137.700106 239.9625 
L 137.700106 160.893409 
" style="fill:none;stroke:#b0b0b0;stroke-linecap:square;stroke-width:0.8;"/>
     </g>
     <g id="line2d_23">
      <g>
       <use style="stroke:#000000;stroke-width:0.8;" x="137.700106" xlink:href="#mb3080b22ed" y="239.9625"/>
      </g>
     </g>
     <g id="text_14">
      <!-- 1 -->
      <g transform="translate(134.518856 254.560937)scale(0.1 -0.1)">
       <use xlink:href="#DejaVuSans-49"/>
      </g>
     </g>
    </g>
    <g id="xtick_9">
     <g id="line2d_24">
      <path clip-path="url(#ped06dbcb3f)" d="M 201.636718 239.9625 
L 201.636718 160.893409 
" style="fill:none;stroke:#b0b0b0;stroke-linecap:square;stroke-width:0.8;"/>
     </g>
     <g id="line2d_25">
      <g>
       <use style="stroke:#000000;stroke-width:0.8;" x="201.636718" xlink:href="#mb3080b22ed" y="239.9625"/>
      </g>
     </g>
     <g id="text_15">
      <!-- 2 -->
      <g transform="translate(198.455468 254.560937)scale(0.1 -0.1)">
       <use xlink:href="#DejaVuSans-50"/>
      </g>
     </g>
    </g>
    <g id="xtick_10">
     <g id="line2d_26">
      <path clip-path="url(#ped06dbcb3f)" d="M 265.57333 239.9625 
L 265.57333 160.893409 
" style="fill:none;stroke:#b0b0b0;stroke-linecap:square;stroke-width:0.8;"/>
     </g>
     <g id="line2d_27">
      <g>
       <use style="stroke:#000000;stroke-width:0.8;" x="265.57333" xlink:href="#mb3080b22ed" y="239.9625"/>
      </g>
     </g>
     <g id="text_16">
      <!-- 3 -->
      <g transform="translate(262.39208 254.560937)scale(0.1 -0.1)">
       <use xlink:href="#DejaVuSans-51"/>
      </g>
     </g>
    </g>
    <g id="xtick_11">
     <g id="line2d_28">
      <path clip-path="url(#ped06dbcb3f)" d="M 329.509942 239.9625 
L 329.509942 160.893409 
" style="fill:none;stroke:#b0b0b0;stroke-linecap:square;stroke-width:0.8;"/>
     </g>
     <g id="line2d_29">
      <g>
       <use style="stroke:#000000;stroke-width:0.8;" x="329.509942" xlink:href="#mb3080b22ed" y="239.9625"/>
      </g>
     </g>
     <g id="text_17">
      <!-- 4 -->
      <g transform="translate(326.328692 254.560937)scale(0.1 -0.1)">
       <use xlink:href="#DejaVuSans-52"/>
      </g>
     </g>
    </g>
    <g id="text_18">
     <!-- Frecuencia (Hz) -->
     <g transform="translate(187.171875 268.239062)scale(0.1 -0.1)">
      <defs>
       <path d="M 9.8125 72.90625 
L 51.703125 72.90625 
L 51.703125 64.59375 
L 19.671875 64.59375 
L 19.671875 43.109375 
L 48.578125 43.109375 
L 48.578125 34.8125 
L 19.671875 34.8125 
L 19.671875 0 
L 9.8125 0 
z
" id="DejaVuSans-70"/>
       <path d="M 41.109375 46.296875 
Q 39.59375 47.171875 37.8125 47.578125 
Q 36.03125 48 33.890625 48 
Q 26.265625 48 22.1875 43.046875 
Q 18.109375 38.09375 18.109375 28.8125 
L 18.109375 0 
L 9.078125 0 
L 9.078125 54.6875 
L 18.109375 54.6875 
L 18.109375 46.1875 
Q 20.953125 51.171875 25.484375 53.578125 
Q 30.03125 56 36.53125 56 
Q 37.453125 56 38.578125 55.875 
Q 39.703125 55.765625 41.0625 55.515625 
z
" id="DejaVuSans-114"/>
       <path d="M 48.78125 52.59375 
L 48.78125 44.1875 
Q 44.96875 46.296875 41.140625 47.34375 
Q 37.3125 48.390625 33.40625 48.390625 
Q 24.65625 48.390625 19.8125 42.84375 
Q 14.984375 37.3125 14.984375 27.296875 
Q 14.984375 17.28125 19.8125 11.734375 
Q 24.65625 6.203125 33.40625 6.203125 
Q 37.3125 6.203125 41.140625 7.25 
Q 44.96875 8.296875 48.78125 10.40625 
L 48.78125 2.09375 
Q 45.015625 0.34375 40.984375 -0.53125 
Q 36.96875 -1.421875 32.421875 -1.421875 
Q 20.0625 -1.421875 12.78125 6.34375 
Q 5.515625 14.109375 5.515625 27.296875 
Q 5.515625 40.671875 12.859375 48.328125 
Q 20.21875 56 33.015625 56 
Q 37.15625 56 41.109375 55.140625 
Q 45.0625 54.296875 48.78125 52.59375 
z
" id="DejaVuSans-99"/>
       <path d="M 8.5 21.578125 
L 8.5 54.6875 
L 17.484375 54.6875 
L 17.484375 21.921875 
Q 17.484375 14.15625 20.5 10.265625 
Q 23.53125 6.390625 29.59375 6.390625 
Q 36.859375 6.390625 41.078125 11.03125 
Q 45.3125 15.671875 45.3125 23.6875 
L 45.3125 54.6875 
L 54.296875 54.6875 
L 54.296875 0 
L 45.3125 0 
L 45.3125 8.40625 
Q 42.046875 3.421875 37.71875 1 
Q 33.40625 -1.421875 27.6875 -1.421875 
Q 18.265625 -1.421875 13.375 4.4375 
Q 8.5 10.296875 8.5 21.578125 
z
M 31.109375 56 
z
" id="DejaVuSans-117"/>
       <path d="M 9.8125 72.90625 
L 19.671875 72.90625 
L 19.671875 43.015625 
L 55.515625 43.015625 
L 55.515625 72.90625 
L 65.375 72.90625 
L 65.375 0 
L 55.515625 0 
L 55.515625 34.71875 
L 19.671875 34.71875 
L 19.671875 0 
L 9.8125 0 
z
" id="DejaVuSans-72"/>
       <path d="M 5.515625 54.6875 
L 48.1875 54.6875 
L 48.1875 46.484375 
L 14.40625 7.171875 
L 48.1875 7.171875 
L 48.1875 0 
L 4.296875 0 
L 4.296875 8.203125 
L 38.09375 47.515625 
L 5.515625 47.515625 
z
" id="DejaVuSans-122"/>
      </defs>
      <use xlink:href="#DejaVuSans-70"/>
      <use x="50.269531" xlink:href="#DejaVuSans-114"/>
      <use x="89.132812" xlink:href="#DejaVuSans-101"/>
      <use x="150.65625" xlink:href="#DejaVuSans-99"/>
      <use x="205.636719" xlink:href="#DejaVuSans-117"/>
      <use x="269.015625" xlink:href="#DejaVuSans-101"/>
      <use x="330.539062" xlink:href="#DejaVuSans-110"/>
      <use x="393.917969" xlink:href="#DejaVuSans-99"/>
      <use x="448.898438" xlink:href="#DejaVuSans-105"/>
      <use x="476.681641" xlink:href="#DejaVuSans-97"/>
      <use x="537.960938" xlink:href="#DejaVuSans-32"/>
      <use x="569.748047" xlink:href="#DejaVuSans-40"/>
      <use x="608.761719" xlink:href="#DejaVuSans-72"/>
      <use x="683.957031" xlink:href="#DejaVuSans-122"/>
      <use x="736.447266" xlink:href="#DejaVuSans-41"/>
     </g>
    </g>
   </g>
   <g id="matplotlib.axis_4">
    <g id="ytick_4">
     <g id="line2d_30">
      <path clip-path="url(#ped06dbcb3f)" d="M 58.545313 236.36845 
L 393.345313 236.36845 
" style="fill:none;stroke:#b0b0b0;stroke-linecap:square;stroke-width:0.8;"/>
     </g>
     <g id="line2d_31">
      <g>
       <use style="stroke:#000000;stroke-width:0.8;" x="58.545313" xlink:href="#mca27d1d125" y="236.36845"/>
      </g>
     </g>
     <g id="text_19">
      <!-- 0.00 -->
      <g transform="translate(29.279688 240.167669)scale(0.1 -0.1)">
       <use xlink:href="#DejaVuSans-48"/>
       <use x="63.623047" xlink:href="#DejaVuSans-46"/>
       <use x="95.410156" xlink:href="#DejaVuSans-48"/>
       <use x="159.033203" xlink:href="#DejaVuSans-48"/>
      </g>
     </g>
    </g>
    <g id="ytick_5">
     <g id="line2d_32">
      <path clip-path="url(#ped06dbcb3f)" d="M 58.545313 205.508025 
L 393.345313 205.508025 
" style="fill:none;stroke:#b0b0b0;stroke-linecap:square;stroke-width:0.8;"/>
     </g>
     <g id="line2d_33">
      <g>
       <use style="stroke:#000000;stroke-width:0.8;" x="58.545313" xlink:href="#mca27d1d125" y="205.508025"/>
      </g>
     </g>
     <g id="text_20">
      <!-- 0.02 -->
      <g transform="translate(29.279688 209.307244)scale(0.1 -0.1)">
       <use xlink:href="#DejaVuSans-48"/>
       <use x="63.623047" xlink:href="#DejaVuSans-46"/>
       <use x="95.410156" xlink:href="#DejaVuSans-48"/>
       <use x="159.033203" xlink:href="#DejaVuSans-50"/>
      </g>
     </g>
    </g>
    <g id="ytick_6">
     <g id="line2d_34">
      <path clip-path="url(#ped06dbcb3f)" d="M 58.545313 174.6476 
L 393.345313 174.6476 
" style="fill:none;stroke:#b0b0b0;stroke-linecap:square;stroke-width:0.8;"/>
     </g>
     <g id="line2d_35">
      <g>
       <use style="stroke:#000000;stroke-width:0.8;" x="58.545313" xlink:href="#mca27d1d125" y="174.6476"/>
      </g>
     </g>
     <g id="text_21">
      <!-- 0.04 -->
      <g transform="translate(29.279688 178.446819)scale(0.1 -0.1)">
       <use xlink:href="#DejaVuSans-48"/>
       <use x="63.623047" xlink:href="#DejaVuSans-46"/>
       <use x="95.410156" xlink:href="#DejaVuSans-48"/>
       <use x="159.033203" xlink:href="#DejaVuSans-52"/>
      </g>
     </g>
    </g>
    <g id="text_22">
     <!-- Abs($Y$) -->
     <g transform="translate(23.2 216.627955)rotate(-90)scale(0.1 -0.1)">
      <defs>
       <path d="M 34.1875 63.1875 
L 20.796875 26.90625 
L 47.609375 26.90625 
z
M 28.609375 72.90625 
L 39.796875 72.90625 
L 67.578125 0 
L 57.328125 0 
L 50.6875 18.703125 
L 17.828125 18.703125 
L 11.1875 0 
L 0.78125 0 
z
" id="DejaVuSans-65"/>
       <path d="M 48.6875 27.296875 
Q 48.6875 37.203125 44.609375 42.84375 
Q 40.53125 48.484375 33.40625 48.484375 
Q 26.265625 48.484375 22.1875 42.84375 
Q 18.109375 37.203125 18.109375 27.296875 
Q 18.109375 17.390625 22.1875 11.75 
Q 26.265625 6.109375 33.40625 6.109375 
Q 40.53125 6.109375 44.609375 11.75 
Q 48.6875 17.390625 48.6875 27.296875 
z
M 18.109375 46.390625 
Q 20.953125 51.265625 25.265625 53.625 
Q 29.59375 56 35.59375 56 
Q 45.5625 56 51.78125 48.09375 
Q 58.015625 40.1875 58.015625 27.296875 
Q 58.015625 14.40625 51.78125 6.484375 
Q 45.5625 -1.421875 35.59375 -1.421875 
Q 29.59375 -1.421875 25.265625 0.953125 
Q 20.953125 3.328125 18.109375 8.203125 
L 18.109375 0 
L 9.078125 0 
L 9.078125 75.984375 
L 18.109375 75.984375 
z
" id="DejaVuSans-98"/>
       <path d="M 6.296875 72.90625 
L 16.890625 72.90625 
L 30.515625 42.921875 
L 56.5 72.90625 
L 67.578125 72.90625 
L 34.515625 34.71875 
L 27.78125 0 
L 17.921875 0 
L 24.609375 34.71875 
z
" id="DejaVuSans-Oblique-89"/>
      </defs>
      <use transform="translate(0 0.015625)" xlink:href="#DejaVuSans-65"/>
      <use transform="translate(68.408203 0.015625)" xlink:href="#DejaVuSans-98"/>
      <use transform="translate(131.884766 0.015625)" xlink:href="#DejaVuSans-115"/>
      <use transform="translate(183.984375 0.015625)" xlink:href="#DejaVuSans-40"/>
      <use transform="translate(222.998047 0.015625)" xlink:href="#DejaVuSans-Oblique-89"/>
      <use transform="translate(284.082031 0.015625)" xlink:href="#DejaVuSans-41"/>
     </g>
    </g>
   </g>
   <g id="LineCollection_1">
    <path clip-path="url(#ped06dbcb3f)" d="M 73.763494 236.36845 
L 73.763494 190.439055 
" style="fill:none;stroke:#1f77b4;stroke-width:1.5;"/>
    <path clip-path="url(#ped06dbcb3f)" d="M 75.042333 236.36845 
L 75.042333 180.966967 
" style="fill:none;stroke:#1f77b4;stroke-width:1.5;"/>
    <path clip-path="url(#ped06dbcb3f)" d="M 76.321172 236.36845 
L 76.321172 164.487459 
" style="fill:none;stroke:#1f77b4;stroke-width:1.5;"/>
    <path clip-path="url(#ped06dbcb3f)" d="M 77.600011 236.36845 
L 77.600011 167.163395 
" style="fill:none;stroke:#1f77b4;stroke-width:1.5;"/>
    <path clip-path="url(#ped06dbcb3f)" d="M 78.87885 236.36845 
L 78.87885 209.610492 
" style="fill:none;stroke:#1f77b4;stroke-width:1.5;"/>
    <path clip-path="url(#ped06dbcb3f)" d="M 80.157688 236.36845 
L 80.157688 192.397454 
" style="fill:none;stroke:#1f77b4;stroke-width:1.5;"/>
    <path clip-path="url(#ped06dbcb3f)" d="M 81.436527 236.36845 
L 81.436527 203.92464 
" style="fill:none;stroke:#1f77b4;stroke-width:1.5;"/>
    <path clip-path="url(#ped06dbcb3f)" d="M 82.715366 236.36845 
L 82.715366 207.002601 
" style="fill:none;stroke:#1f77b4;stroke-width:1.5;"/>
    <path clip-path="url(#ped06dbcb3f)" d="M 83.994205 236.36845 
L 83.994205 223.307666 
" style="fill:none;stroke:#1f77b4;stroke-width:1.5;"/>
    <path clip-path="url(#ped06dbcb3f)" d="M 85.273044 236.36845 
L 85.273044 232.85868 
" style="fill:none;stroke:#1f77b4;stroke-width:1.5;"/>
    <path clip-path="url(#ped06dbcb3f)" d="M 86.551882 236.36845 
L 86.551882 223.706288 
" style="fill:none;stroke:#1f77b4;stroke-width:1.5;"/>
    <path clip-path="url(#ped06dbcb3f)" d="M 87.830721 236.36845 
L 87.830721 231.178104 
" style="fill:none;stroke:#1f77b4;stroke-width:1.5;"/>
    <path clip-path="url(#ped06dbcb3f)" d="M 89.10956 236.36845 
L 89.10956 226.098856 
" style="fill:none;stroke:#1f77b4;stroke-width:1.5;"/>
    <path clip-path="url(#ped06dbcb3f)" d="M 90.388399 236.36845 
L 90.388399 228.636029 
" style="fill:none;stroke:#1f77b4;stroke-width:1.5;"/>
    <path clip-path="url(#ped06dbcb3f)" d="M 91.667238 236.36845 
L 91.667238 232.17873 
" style="fill:none;stroke:#1f77b4;stroke-width:1.5;"/>
    <path clip-path="url(#ped06dbcb3f)" d="M 92.946076 236.36845 
L 92.946076 230.451234 
" style="fill:none;stroke:#1f77b4;stroke-width:1.5;"/>
    <path clip-path="url(#ped06dbcb3f)" d="M 94.224915 236.36845 
L 94.224915 234.084328 
" style="fill:none;stroke:#1f77b4;stroke-width:1.5;"/>
    <path clip-path="url(#ped06dbcb3f)" d="M 95.503754 236.36845 
L 95.503754 231.411816 
" style="fill:none;stroke:#1f77b4;stroke-width:1.5;"/>
    <path clip-path="url(#ped06dbcb3f)" d="M 96.782593 236.36845 
L 96.782593 234.434611 
" style="fill:none;stroke:#1f77b4;stroke-width:1.5;"/>
    <path clip-path="url(#ped06dbcb3f)" d="M 98.061432 236.36845 
L 98.061432 231.868564 
" style="fill:none;stroke:#1f77b4;stroke-width:1.5;"/>
    <path clip-path="url(#ped06dbcb3f)" d="M 99.34027 236.36845 
L 99.34027 231.779828 
" style="fill:none;stroke:#1f77b4;stroke-width:1.5;"/>
    <path clip-path="url(#ped06dbcb3f)" d="M 100.619109 236.36845 
L 100.619109 234.620533 
" style="fill:none;stroke:#1f77b4;stroke-width:1.5;"/>
    <path clip-path="url(#ped06dbcb3f)" d="M 101.897948 236.36845 
L 101.897948 231.648945 
" style="fill:none;stroke:#1f77b4;stroke-width:1.5;"/>
    <path clip-path="url(#ped06dbcb3f)" d="M 103.176787 236.36845 
L 103.176787 231.953034 
" style="fill:none;stroke:#1f77b4;stroke-width:1.5;"/>
    <path clip-path="url(#ped06dbcb3f)" d="M 104.455626 236.36845 
L 104.455626 233.347179 
" style="fill:none;stroke:#1f77b4;stroke-width:1.5;"/>
    <path clip-path="url(#ped06dbcb3f)" d="M 105.734465 236.36845 
L 105.734465 235.576925 
" style="fill:none;stroke:#1f77b4;stroke-width:1.5;"/>
    <path clip-path="url(#ped06dbcb3f)" d="M 107.013303 236.36845 
L 107.013303 234.172004 
" style="fill:none;stroke:#1f77b4;stroke-width:1.5;"/>
    <path clip-path="url(#ped06dbcb3f)" d="M 108.292142 236.36845 
L 108.292142 234.142734 
" style="fill:none;stroke:#1f77b4;stroke-width:1.5;"/>
    <path clip-path="url(#ped06dbcb3f)" d="M 109.570981 236.36845 
L 109.570981 233.466146 
" style="fill:none;stroke:#1f77b4;stroke-width:1.5;"/>
    <path clip-path="url(#ped06dbcb3f)" d="M 110.84982 236.36845 
L 110.84982 233.843547 
" style="fill:none;stroke:#1f77b4;stroke-width:1.5;"/>
    <path clip-path="url(#ped06dbcb3f)" d="M 112.128659 236.36845 
L 112.128659 233.226042 
" style="fill:none;stroke:#1f77b4;stroke-width:1.5;"/>
    <path clip-path="url(#ped06dbcb3f)" d="M 113.407497 236.36845 
L 113.407497 233.517504 
" style="fill:none;stroke:#1f77b4;stroke-width:1.5;"/>
    <path clip-path="url(#ped06dbcb3f)" d="M 114.686336 236.36845 
L 114.686336 233.443693 
" style="fill:none;stroke:#1f77b4;stroke-width:1.5;"/>
    <path clip-path="url(#ped06dbcb3f)" d="M 115.965175 236.36845 
L 115.965175 233.554638 
" style="fill:none;stroke:#1f77b4;stroke-width:1.5;"/>
    <path clip-path="url(#ped06dbcb3f)" d="M 117.244014 236.36845 
L 117.244014 234.300583 
" style="fill:none;stroke:#1f77b4;stroke-width:1.5;"/>
    <path clip-path="url(#ped06dbcb3f)" d="M 118.522853 236.36845 
L 118.522853 234.0931 
" style="fill:none;stroke:#1f77b4;stroke-width:1.5;"/>
    <path clip-path="url(#ped06dbcb3f)" d="M 119.801691 236.36845 
L 119.801691 234.231081 
" style="fill:none;stroke:#1f77b4;stroke-width:1.5;"/>
    <path clip-path="url(#ped06dbcb3f)" d="M 121.08053 236.36845 
L 121.08053 234.14161 
" style="fill:none;stroke:#1f77b4;stroke-width:1.5;"/>
    <path clip-path="url(#ped06dbcb3f)" d="M 122.359369 236.36845 
L 122.359369 233.510034 
" style="fill:none;stroke:#1f77b4;stroke-width:1.5;"/>
    <path clip-path="url(#ped06dbcb3f)" d="M 123.638208 236.36845 
L 123.638208 233.388876 
" style="fill:none;stroke:#1f77b4;stroke-width:1.5;"/>
    <path clip-path="url(#ped06dbcb3f)" d="M 124.917047 236.36845 
L 124.917047 233.563532 
" style="fill:none;stroke:#1f77b4;stroke-width:1.5;"/>
    <path clip-path="url(#ped06dbcb3f)" d="M 126.195885 236.36845 
L 126.195885 233.74069 
" style="fill:none;stroke:#1f77b4;stroke-width:1.5;"/>
    <path clip-path="url(#ped06dbcb3f)" d="M 127.474724 236.36845 
L 127.474724 233.872142 
" style="fill:none;stroke:#1f77b4;stroke-width:1.5;"/>
    <path clip-path="url(#ped06dbcb3f)" d="M 128.753563 236.36845 
L 128.753563 234.029018 
" style="fill:none;stroke:#1f77b4;stroke-width:1.5;"/>
    <path clip-path="url(#ped06dbcb3f)" d="M 130.032402 236.36845 
L 130.032402 234.282923 
" style="fill:none;stroke:#1f77b4;stroke-width:1.5;"/>
    <path clip-path="url(#ped06dbcb3f)" d="M 131.311241 236.36845 
L 131.311241 234.263946 
" style="fill:none;stroke:#1f77b4;stroke-width:1.5;"/>
    <path clip-path="url(#ped06dbcb3f)" d="M 132.590079 236.36845 
L 132.590079 234.148918 
" style="fill:none;stroke:#1f77b4;stroke-width:1.5;"/>
    <path clip-path="url(#ped06dbcb3f)" d="M 133.868918 236.36845 
L 133.868918 233.959412 
" style="fill:none;stroke:#1f77b4;stroke-width:1.5;"/>
    <path clip-path="url(#ped06dbcb3f)" d="M 135.147757 236.36845 
L 135.147757 233.899018 
" style="fill:none;stroke:#1f77b4;stroke-width:1.5;"/>
    <path clip-path="url(#ped06dbcb3f)" d="M 136.426596 236.36845 
L 136.426596 234.034004 
" style="fill:none;stroke:#1f77b4;stroke-width:1.5;"/>
    <path clip-path="url(#ped06dbcb3f)" d="M 137.705435 236.36845 
L 137.705435 234.243949 
" style="fill:none;stroke:#1f77b4;stroke-width:1.5;"/>
    <path clip-path="url(#ped06dbcb3f)" d="M 138.984274 236.36845 
L 138.984274 234.468111 
" style="fill:none;stroke:#1f77b4;stroke-width:1.5;"/>
    <path clip-path="url(#ped06dbcb3f)" d="M 140.263112 236.36845 
L 140.263112 234.769048 
" style="fill:none;stroke:#1f77b4;stroke-width:1.5;"/>
    <path clip-path="url(#ped06dbcb3f)" d="M 141.541951 236.36845 
L 141.541951 234.848308 
" style="fill:none;stroke:#1f77b4;stroke-width:1.5;"/>
    <path clip-path="url(#ped06dbcb3f)" d="M 142.82079 236.36845 
L 142.82079 234.871662 
" style="fill:none;stroke:#1f77b4;stroke-width:1.5;"/>
    <path clip-path="url(#ped06dbcb3f)" d="M 144.099629 236.36845 
L 144.099629 234.852676 
" style="fill:none;stroke:#1f77b4;stroke-width:1.5;"/>
    <path clip-path="url(#ped06dbcb3f)" d="M 145.378468 236.36845 
L 145.378468 234.860373 
" style="fill:none;stroke:#1f77b4;stroke-width:1.5;"/>
    <path clip-path="url(#ped06dbcb3f)" d="M 146.657306 236.36845 
L 146.657306 234.893244 
" style="fill:none;stroke:#1f77b4;stroke-width:1.5;"/>
    <path clip-path="url(#ped06dbcb3f)" d="M 147.936145 236.36845 
L 147.936145 234.98962 
" style="fill:none;stroke:#1f77b4;stroke-width:1.5;"/>
    <path clip-path="url(#ped06dbcb3f)" d="M 149.214984 236.36845 
L 149.214984 235.169656 
" style="fill:none;stroke:#1f77b4;stroke-width:1.5;"/>
    <path clip-path="url(#ped06dbcb3f)" d="M 150.493823 236.36845 
L 150.493823 235.329468 
" style="fill:none;stroke:#1f77b4;stroke-width:1.5;"/>
    <path clip-path="url(#ped06dbcb3f)" d="M 151.772662 236.36845 
L 151.772662 235.50192 
" style="fill:none;stroke:#1f77b4;stroke-width:1.5;"/>
    <path clip-path="url(#ped06dbcb3f)" d="M 153.0515 236.36845 
L 153.0515 235.574476 
" style="fill:none;stroke:#1f77b4;stroke-width:1.5;"/>
    <path clip-path="url(#ped06dbcb3f)" d="M 154.330339 236.36845 
L 154.330339 235.601471 
" style="fill:none;stroke:#1f77b4;stroke-width:1.5;"/>
    <path clip-path="url(#ped06dbcb3f)" d="M 155.609178 236.36845 
L 155.609178 235.603136 
" style="fill:none;stroke:#1f77b4;stroke-width:1.5;"/>
    <path clip-path="url(#ped06dbcb3f)" d="M 156.888017 236.36845 
L 156.888017 235.617317 
" style="fill:none;stroke:#1f77b4;stroke-width:1.5;"/>
    <path clip-path="url(#ped06dbcb3f)" d="M 158.166856 236.36845 
L 158.166856 235.653729 
" style="fill:none;stroke:#1f77b4;stroke-width:1.5;"/>
    <path clip-path="url(#ped06dbcb3f)" d="M 159.445694 236.36845 
L 159.445694 235.721141 
" style="fill:none;stroke:#1f77b4;stroke-width:1.5;"/>
    <path clip-path="url(#ped06dbcb3f)" d="M 160.724533 236.36845 
L 160.724533 235.833715 
" style="fill:none;stroke:#1f77b4;stroke-width:1.5;"/>
    <path clip-path="url(#ped06dbcb3f)" d="M 162.003372 236.36845 
L 162.003372 235.921209 
" style="fill:none;stroke:#1f77b4;stroke-width:1.5;"/>
    <path clip-path="url(#ped06dbcb3f)" d="M 163.282211 236.36845 
L 163.282211 236.011217 
" style="fill:none;stroke:#1f77b4;stroke-width:1.5;"/>
    <path clip-path="url(#ped06dbcb3f)" d="M 164.56105 236.36845 
L 164.56105 236.046545 
" style="fill:none;stroke:#1f77b4;stroke-width:1.5;"/>
    <path clip-path="url(#ped06dbcb3f)" d="M 165.839889 236.36845 
L 165.839889 236.04905 
" style="fill:none;stroke:#1f77b4;stroke-width:1.5;"/>
    <path clip-path="url(#ped06dbcb3f)" d="M 167.118727 236.36845 
L 167.118727 236.03086 
" style="fill:none;stroke:#1f77b4;stroke-width:1.5;"/>
    <path clip-path="url(#ped06dbcb3f)" d="M 168.397566 236.36845 
L 168.397566 236.029965 
" style="fill:none;stroke:#1f77b4;stroke-width:1.5;"/>
    <path clip-path="url(#ped06dbcb3f)" d="M 169.676405 236.36845 
L 169.676405 236.056292 
" style="fill:none;stroke:#1f77b4;stroke-width:1.5;"/>
    <path clip-path="url(#ped06dbcb3f)" d="M 170.955244 236.36845 
L 170.955244 236.087758 
" style="fill:none;stroke:#1f77b4;stroke-width:1.5;"/>
    <path clip-path="url(#ped06dbcb3f)" d="M 172.234083 236.36845 
L 172.234083 236.151006 
" style="fill:none;stroke:#1f77b4;stroke-width:1.5;"/>
    <path clip-path="url(#ped06dbcb3f)" d="M 173.512921 236.36845 
L 173.512921 236.201616 
" style="fill:none;stroke:#1f77b4;stroke-width:1.5;"/>
    <path clip-path="url(#ped06dbcb3f)" d="M 174.79176 236.36845 
L 174.79176 236.250314 
" style="fill:none;stroke:#1f77b4;stroke-width:1.5;"/>
    <path clip-path="url(#ped06dbcb3f)" d="M 176.070599 236.36845 
L 176.070599 236.258982 
" style="fill:none;stroke:#1f77b4;stroke-width:1.5;"/>
    <path clip-path="url(#ped06dbcb3f)" d="M 177.349438 236.36845 
L 177.349438 236.257057 
" style="fill:none;stroke:#1f77b4;stroke-width:1.5;"/>
    <path clip-path="url(#ped06dbcb3f)" d="M 178.628277 236.36845 
L 178.628277 236.247567 
" style="fill:none;stroke:#1f77b4;stroke-width:1.5;"/>
    <path clip-path="url(#ped06dbcb3f)" d="M 179.907115 236.36845 
L 179.907115 236.244235 
" style="fill:none;stroke:#1f77b4;stroke-width:1.5;"/>
    <path clip-path="url(#ped06dbcb3f)" d="M 181.185954 236.36845 
L 181.185954 236.262472 
" style="fill:none;stroke:#1f77b4;stroke-width:1.5;"/>
    <path clip-path="url(#ped06dbcb3f)" d="M 182.464793 236.36845 
L 182.464793 236.279283 
" style="fill:none;stroke:#1f77b4;stroke-width:1.5;"/>
    <path clip-path="url(#ped06dbcb3f)" d="M 183.743632 236.36845 
L 183.743632 236.308281 
" style="fill:none;stroke:#1f77b4;stroke-width:1.5;"/>
    <path clip-path="url(#ped06dbcb3f)" d="M 185.022471 236.36845 
L 185.022471 236.330325 
" style="fill:none;stroke:#1f77b4;stroke-width:1.5;"/>
    <path clip-path="url(#ped06dbcb3f)" d="M 186.301309 236.36845 
L 186.301309 236.360364 
" style="fill:none;stroke:#1f77b4;stroke-width:1.5;"/>
    <path clip-path="url(#ped06dbcb3f)" d="M 187.580148 236.36845 
L 187.580148 236.349273 
" style="fill:none;stroke:#1f77b4;stroke-width:1.5;"/>
    <path clip-path="url(#ped06dbcb3f)" d="M 188.858987 236.36845 
L 188.858987 236.335102 
" style="fill:none;stroke:#1f77b4;stroke-width:1.5;"/>
    <path clip-path="url(#ped06dbcb3f)" d="M 190.137826 236.36845 
L 190.137826 236.329077 
" style="fill:none;stroke:#1f77b4;stroke-width:1.5;"/>
    <path clip-path="url(#ped06dbcb3f)" d="M 191.416665 236.36845 
L 191.416665 236.319287 
" style="fill:none;stroke:#1f77b4;stroke-width:1.5;"/>
    <path clip-path="url(#ped06dbcb3f)" d="M 192.695503 236.36845 
L 192.695503 236.318547 
" style="fill:none;stroke:#1f77b4;stroke-width:1.5;"/>
    <path clip-path="url(#ped06dbcb3f)" d="M 193.974342 236.36845 
L 193.974342 236.318206 
" style="fill:none;stroke:#1f77b4;stroke-width:1.5;"/>
    <path clip-path="url(#ped06dbcb3f)" d="M 195.253181 236.36845 
L 195.253181 236.321918 
" style="fill:none;stroke:#1f77b4;stroke-width:1.5;"/>
    <path clip-path="url(#ped06dbcb3f)" d="M 196.53202 236.36845 
L 196.53202 236.32246 
" style="fill:none;stroke:#1f77b4;stroke-width:1.5;"/>
    <path clip-path="url(#ped06dbcb3f)" d="M 197.810859 236.36845 
L 197.810859 236.328973 
" style="fill:none;stroke:#1f77b4;stroke-width:1.5;"/>
    <path clip-path="url(#ped06dbcb3f)" d="M 199.089698 236.36845 
L 199.089698 236.337359 
" style="fill:none;stroke:#1f77b4;stroke-width:1.5;"/>
    <path clip-path="url(#ped06dbcb3f)" d="M 200.368536 236.36845 
L 200.368536 236.350285 
" style="fill:none;stroke:#1f77b4;stroke-width:1.5;"/>
    <path clip-path="url(#ped06dbcb3f)" d="M 201.647375 236.36845 
L 201.647375 236.357904 
" style="fill:none;stroke:#1f77b4;stroke-width:1.5;"/>
    <path clip-path="url(#ped06dbcb3f)" d="M 202.926214 236.36845 
L 202.926214 236.361929 
" style="fill:none;stroke:#1f77b4;stroke-width:1.5;"/>
    <path clip-path="url(#ped06dbcb3f)" d="M 204.205053 236.36845 
L 204.205053 236.349073 
" style="fill:none;stroke:#1f77b4;stroke-width:1.5;"/>
    <path clip-path="url(#ped06dbcb3f)" d="M 205.483892 236.36845 
L 205.483892 236.339845 
" style="fill:none;stroke:#1f77b4;stroke-width:1.5;"/>
    <path clip-path="url(#ped06dbcb3f)" d="M 206.76273 236.36845 
L 206.76273 236.335848 
" style="fill:none;stroke:#1f77b4;stroke-width:1.5;"/>
    <path clip-path="url(#ped06dbcb3f)" d="M 208.041569 236.36845 
L 208.041569 236.335625 
" style="fill:none;stroke:#1f77b4;stroke-width:1.5;"/>
    <path clip-path="url(#ped06dbcb3f)" d="M 209.320408 236.36845 
L 209.320408 236.340178 
" style="fill:none;stroke:#1f77b4;stroke-width:1.5;"/>
    <path clip-path="url(#ped06dbcb3f)" d="M 210.599247 236.36845 
L 210.599247 236.345662 
" style="fill:none;stroke:#1f77b4;stroke-width:1.5;"/>
    <path clip-path="url(#ped06dbcb3f)" d="M 211.878086 236.36845 
L 211.878086 236.357654 
" style="fill:none;stroke:#1f77b4;stroke-width:1.5;"/>
    <path clip-path="url(#ped06dbcb3f)" d="M 213.156924 236.36845 
L 213.156924 236.354087 
" style="fill:none;stroke:#1f77b4;stroke-width:1.5;"/>
    <path clip-path="url(#ped06dbcb3f)" d="M 214.435763 236.36845 
L 214.435763 236.347334 
" style="fill:none;stroke:#1f77b4;stroke-width:1.5;"/>
    <path clip-path="url(#ped06dbcb3f)" d="M 215.714602 236.36845 
L 215.714602 236.338312 
" style="fill:none;stroke:#1f77b4;stroke-width:1.5;"/>
    <path clip-path="url(#ped06dbcb3f)" d="M 216.993441 236.36845 
L 216.993441 236.33163 
" style="fill:none;stroke:#1f77b4;stroke-width:1.5;"/>
    <path clip-path="url(#ped06dbcb3f)" d="M 218.27228 236.36845 
L 218.27228 236.329275 
" style="fill:none;stroke:#1f77b4;stroke-width:1.5;"/>
    <path clip-path="url(#ped06dbcb3f)" d="M 219.551118 236.36845 
L 219.551118 236.331077 
" style="fill:none;stroke:#1f77b4;stroke-width:1.5;"/>
    <path clip-path="url(#ped06dbcb3f)" d="M 220.829957 236.36845 
L 220.829957 236.338522 
" style="fill:none;stroke:#1f77b4;stroke-width:1.5;"/>
    <path clip-path="url(#ped06dbcb3f)" d="M 222.108796 236.36845 
L 222.108796 236.345436 
" style="fill:none;stroke:#1f77b4;stroke-width:1.5;"/>
    <path clip-path="url(#ped06dbcb3f)" d="M 223.387635 236.36845 
L 223.387635 236.35637 
" style="fill:none;stroke:#1f77b4;stroke-width:1.5;"/>
    <path clip-path="url(#ped06dbcb3f)" d="M 224.666474 236.36845 
L 224.666474 236.363529 
" style="fill:none;stroke:#1f77b4;stroke-width:1.5;"/>
    <path clip-path="url(#ped06dbcb3f)" d="M 225.945312 236.36845 
L 225.945312 236.358215 
" style="fill:none;stroke:#1f77b4;stroke-width:1.5;"/>
    <path clip-path="url(#ped06dbcb3f)" d="M 227.224151 236.36845 
L 227.224151 236.352824 
" style="fill:none;stroke:#1f77b4;stroke-width:1.5;"/>
    <path clip-path="url(#ped06dbcb3f)" d="M 228.50299 236.36845 
L 228.50299 236.348262 
" style="fill:none;stroke:#1f77b4;stroke-width:1.5;"/>
    <path clip-path="url(#ped06dbcb3f)" d="M 229.781829 236.36845 
L 229.781829 236.348571 
" style="fill:none;stroke:#1f77b4;stroke-width:1.5;"/>
    <path clip-path="url(#ped06dbcb3f)" d="M 231.060668 236.36845 
L 231.060668 236.349115 
" style="fill:none;stroke:#1f77b4;stroke-width:1.5;"/>
    <path clip-path="url(#ped06dbcb3f)" d="M 232.339507 236.36845 
L 232.339507 236.355917 
" style="fill:none;stroke:#1f77b4;stroke-width:1.5;"/>
    <path clip-path="url(#ped06dbcb3f)" d="M 233.618345 236.36845 
L 233.618345 236.359265 
" style="fill:none;stroke:#1f77b4;stroke-width:1.5;"/>
    <path clip-path="url(#ped06dbcb3f)" d="M 234.897184 236.36845 
L 234.897184 236.362781 
" style="fill:none;stroke:#1f77b4;stroke-width:1.5;"/>
    <path clip-path="url(#ped06dbcb3f)" d="M 236.176023 236.36845 
L 236.176023 236.359152 
" style="fill:none;stroke:#1f77b4;stroke-width:1.5;"/>
    <path clip-path="url(#ped06dbcb3f)" d="M 237.454862 236.36845 
L 237.454862 236.354005 
" style="fill:none;stroke:#1f77b4;stroke-width:1.5;"/>
    <path clip-path="url(#ped06dbcb3f)" d="M 238.733701 236.36845 
L 238.733701 236.351834 
" style="fill:none;stroke:#1f77b4;stroke-width:1.5;"/>
    <path clip-path="url(#ped06dbcb3f)" d="M 240.012539 236.36845 
L 240.012539 236.35022 
" style="fill:none;stroke:#1f77b4;stroke-width:1.5;"/>
    <path clip-path="url(#ped06dbcb3f)" d="M 241.291378 236.36845 
L 241.291378 236.352752 
" style="fill:none;stroke:#1f77b4;stroke-width:1.5;"/>
    <path clip-path="url(#ped06dbcb3f)" d="M 242.570217 236.36845 
L 242.570217 236.35409 
" style="fill:none;stroke:#1f77b4;stroke-width:1.5;"/>
    <path clip-path="url(#ped06dbcb3f)" d="M 243.849056 236.36845 
L 243.849056 236.358349 
" style="fill:none;stroke:#1f77b4;stroke-width:1.5;"/>
    <path clip-path="url(#ped06dbcb3f)" d="M 245.127895 236.36845 
L 245.127895 236.362031 
" style="fill:none;stroke:#1f77b4;stroke-width:1.5;"/>
    <path clip-path="url(#ped06dbcb3f)" d="M 246.406733 236.36845 
L 246.406733 236.362317 
" style="fill:none;stroke:#1f77b4;stroke-width:1.5;"/>
    <path clip-path="url(#ped06dbcb3f)" d="M 247.685572 236.36845 
L 247.685572 236.362065 
" style="fill:none;stroke:#1f77b4;stroke-width:1.5;"/>
    <path clip-path="url(#ped06dbcb3f)" d="M 248.964411 236.36845 
L 248.964411 236.357319 
" style="fill:none;stroke:#1f77b4;stroke-width:1.5;"/>
    <path clip-path="url(#ped06dbcb3f)" d="M 250.24325 236.36845 
L 250.24325 236.357256 
" style="fill:none;stroke:#1f77b4;stroke-width:1.5;"/>
    <path clip-path="url(#ped06dbcb3f)" d="M 251.522089 236.36845 
L 251.522089 236.356149 
" style="fill:none;stroke:#1f77b4;stroke-width:1.5;"/>
    <path clip-path="url(#ped06dbcb3f)" d="M 252.800927 236.36845 
L 252.800927 236.359447 
" style="fill:none;stroke:#1f77b4;stroke-width:1.5;"/>
    <path clip-path="url(#ped06dbcb3f)" d="M 254.079766 236.36845 
L 254.079766 236.360127 
" style="fill:none;stroke:#1f77b4;stroke-width:1.5;"/>
    <path clip-path="url(#ped06dbcb3f)" d="M 255.358605 236.36845 
L 255.358605 236.36413 
" style="fill:none;stroke:#1f77b4;stroke-width:1.5;"/>
    <path clip-path="url(#ped06dbcb3f)" d="M 256.637444 236.36845 
L 256.637444 236.365743 
" style="fill:none;stroke:#1f77b4;stroke-width:1.5;"/>
    <path clip-path="url(#ped06dbcb3f)" d="M 257.916283 236.36845 
L 257.916283 236.363795 
" style="fill:none;stroke:#1f77b4;stroke-width:1.5;"/>
    <path clip-path="url(#ped06dbcb3f)" d="M 259.195122 236.36845 
L 259.195122 236.363877 
" style="fill:none;stroke:#1f77b4;stroke-width:1.5;"/>
    <path clip-path="url(#ped06dbcb3f)" d="M 260.47396 236.36845 
L 260.47396 236.36226 
" style="fill:none;stroke:#1f77b4;stroke-width:1.5;"/>
    <path clip-path="url(#ped06dbcb3f)" d="M 261.752799 236.36845 
L 261.752799 236.364137 
" style="fill:none;stroke:#1f77b4;stroke-width:1.5;"/>
    <path clip-path="url(#ped06dbcb3f)" d="M 263.031638 236.36845 
L 263.031638 236.364416 
" style="fill:none;stroke:#1f77b4;stroke-width:1.5;"/>
    <path clip-path="url(#ped06dbcb3f)" d="M 264.310477 236.36845 
L 264.310477 236.365997 
" style="fill:none;stroke:#1f77b4;stroke-width:1.5;"/>
    <path clip-path="url(#ped06dbcb3f)" d="M 265.589316 236.36845 
L 265.589316 236.364085 
" style="fill:none;stroke:#1f77b4;stroke-width:1.5;"/>
    <path clip-path="url(#ped06dbcb3f)" d="M 266.868154 236.36845 
L 266.868154 236.359726 
" style="fill:none;stroke:#1f77b4;stroke-width:1.5;"/>
    <path clip-path="url(#ped06dbcb3f)" d="M 268.146993 236.36845 
L 268.146993 236.358095 
" style="fill:none;stroke:#1f77b4;stroke-width:1.5;"/>
    <path clip-path="url(#ped06dbcb3f)" d="M 269.425832 236.36845 
L 269.425832 236.354565 
" style="fill:none;stroke:#1f77b4;stroke-width:1.5;"/>
    <path clip-path="url(#ped06dbcb3f)" d="M 270.704671 236.36845 
L 270.704671 236.354291 
" style="fill:none;stroke:#1f77b4;stroke-width:1.5;"/>
    <path clip-path="url(#ped06dbcb3f)" d="M 271.98351 236.36845 
L 271.98351 236.354281 
" style="fill:none;stroke:#1f77b4;stroke-width:1.5;"/>
    <path clip-path="url(#ped06dbcb3f)" d="M 273.262348 236.36845 
L 273.262348 236.356972 
" style="fill:none;stroke:#1f77b4;stroke-width:1.5;"/>
    <path clip-path="url(#ped06dbcb3f)" d="M 274.541187 236.36845 
L 274.541187 236.358645 
" style="fill:none;stroke:#1f77b4;stroke-width:1.5;"/>
    <path clip-path="url(#ped06dbcb3f)" d="M 275.820026 236.36845 
L 275.820026 236.362801 
" style="fill:none;stroke:#1f77b4;stroke-width:1.5;"/>
    <path clip-path="url(#ped06dbcb3f)" d="M 277.098865 236.36845 
L 277.098865 236.365797 
" style="fill:none;stroke:#1f77b4;stroke-width:1.5;"/>
    <path clip-path="url(#ped06dbcb3f)" d="M 278.377704 236.36845 
L 278.377704 236.366712 
" style="fill:none;stroke:#1f77b4;stroke-width:1.5;"/>
    <path clip-path="url(#ped06dbcb3f)" d="M 279.656542 236.36845 
L 279.656542 236.364977 
" style="fill:none;stroke:#1f77b4;stroke-width:1.5;"/>
    <path clip-path="url(#ped06dbcb3f)" d="M 280.935381 236.36845 
L 280.935381 236.363131 
" style="fill:none;stroke:#1f77b4;stroke-width:1.5;"/>
    <path clip-path="url(#ped06dbcb3f)" d="M 282.21422 236.36845 
L 282.21422 236.362372 
" style="fill:none;stroke:#1f77b4;stroke-width:1.5;"/>
    <path clip-path="url(#ped06dbcb3f)" d="M 283.493059 236.36845 
L 283.493059 236.362622 
" style="fill:none;stroke:#1f77b4;stroke-width:1.5;"/>
    <path clip-path="url(#ped06dbcb3f)" d="M 284.771898 236.36845 
L 284.771898 236.363469 
" style="fill:none;stroke:#1f77b4;stroke-width:1.5;"/>
    <path clip-path="url(#ped06dbcb3f)" d="M 286.050736 236.36845 
L 286.050736 236.363853 
" style="fill:none;stroke:#1f77b4;stroke-width:1.5;"/>
    <path clip-path="url(#ped06dbcb3f)" d="M 287.329575 236.36845 
L 287.329575 236.361887 
" style="fill:none;stroke:#1f77b4;stroke-width:1.5;"/>
    <path clip-path="url(#ped06dbcb3f)" d="M 288.608414 236.36845 
L 288.608414 236.36156 
" style="fill:none;stroke:#1f77b4;stroke-width:1.5;"/>
    <path clip-path="url(#ped06dbcb3f)" d="M 289.887253 236.36845 
L 289.887253 236.358999 
" style="fill:none;stroke:#1f77b4;stroke-width:1.5;"/>
    <path clip-path="url(#ped06dbcb3f)" d="M 291.166092 236.36845 
L 291.166092 236.358362 
" style="fill:none;stroke:#1f77b4;stroke-width:1.5;"/>
    <path clip-path="url(#ped06dbcb3f)" d="M 292.444931 236.36845 
L 292.444931 236.357951 
" style="fill:none;stroke:#1f77b4;stroke-width:1.5;"/>
    <path clip-path="url(#ped06dbcb3f)" d="M 293.723769 236.36845 
L 293.723769 236.359109 
" style="fill:none;stroke:#1f77b4;stroke-width:1.5;"/>
    <path clip-path="url(#ped06dbcb3f)" d="M 295.002608 236.36845 
L 295.002608 236.359962 
" style="fill:none;stroke:#1f77b4;stroke-width:1.5;"/>
    <path clip-path="url(#ped06dbcb3f)" d="M 296.281447 236.36845 
L 296.281447 236.362494 
" style="fill:none;stroke:#1f77b4;stroke-width:1.5;"/>
    <path clip-path="url(#ped06dbcb3f)" d="M 297.560286 236.36845 
L 297.560286 236.36492 
" style="fill:none;stroke:#1f77b4;stroke-width:1.5;"/>
    <path clip-path="url(#ped06dbcb3f)" d="M 298.839125 236.36845 
L 298.839125 236.36792 
" style="fill:none;stroke:#1f77b4;stroke-width:1.5;"/>
    <path clip-path="url(#ped06dbcb3f)" d="M 300.117963 236.36845 
L 300.117963 236.366327 
" style="fill:none;stroke:#1f77b4;stroke-width:1.5;"/>
    <path clip-path="url(#ped06dbcb3f)" d="M 301.396802 236.36845 
L 301.396802 236.364485 
" style="fill:none;stroke:#1f77b4;stroke-width:1.5;"/>
    <path clip-path="url(#ped06dbcb3f)" d="M 302.675641 236.36845 
L 302.675641 236.362619 
" style="fill:none;stroke:#1f77b4;stroke-width:1.5;"/>
    <path clip-path="url(#ped06dbcb3f)" d="M 303.95448 236.36845 
L 303.95448 236.36214 
" style="fill:none;stroke:#1f77b4;stroke-width:1.5;"/>
    <path clip-path="url(#ped06dbcb3f)" d="M 305.233319 236.36845 
L 305.233319 236.362064 
" style="fill:none;stroke:#1f77b4;stroke-width:1.5;"/>
    <path clip-path="url(#ped06dbcb3f)" d="M 306.512157 236.36845 
L 306.512157 236.362737 
" style="fill:none;stroke:#1f77b4;stroke-width:1.5;"/>
    <path clip-path="url(#ped06dbcb3f)" d="M 307.790996 236.36845 
L 307.790996 236.362786 
" style="fill:none;stroke:#1f77b4;stroke-width:1.5;"/>
    <path clip-path="url(#ped06dbcb3f)" d="M 309.069835 236.36845 
L 309.069835 236.364171 
" style="fill:none;stroke:#1f77b4;stroke-width:1.5;"/>
    <path clip-path="url(#ped06dbcb3f)" d="M 310.348674 236.36845 
L 310.348674 236.363346 
" style="fill:none;stroke:#1f77b4;stroke-width:1.5;"/>
    <path clip-path="url(#ped06dbcb3f)" d="M 311.627513 236.36845 
L 311.627513 236.363002 
" style="fill:none;stroke:#1f77b4;stroke-width:1.5;"/>
    <path clip-path="url(#ped06dbcb3f)" d="M 312.906351 236.36845 
L 312.906351 236.362343 
" style="fill:none;stroke:#1f77b4;stroke-width:1.5;"/>
    <path clip-path="url(#ped06dbcb3f)" d="M 314.18519 236.36845 
L 314.18519 236.36242 
" style="fill:none;stroke:#1f77b4;stroke-width:1.5;"/>
    <path clip-path="url(#ped06dbcb3f)" d="M 315.464029 236.36845 
L 315.464029 236.362331 
" style="fill:none;stroke:#1f77b4;stroke-width:1.5;"/>
    <path clip-path="url(#ped06dbcb3f)" d="M 316.742868 236.36845 
L 316.742868 236.363381 
" style="fill:none;stroke:#1f77b4;stroke-width:1.5;"/>
    <path clip-path="url(#ped06dbcb3f)" d="M 318.021707 236.36845 
L 318.021707 236.364311 
" style="fill:none;stroke:#1f77b4;stroke-width:1.5;"/>
    <path clip-path="url(#ped06dbcb3f)" d="M 319.300546 236.36845 
L 319.300546 236.365664 
" style="fill:none;stroke:#1f77b4;stroke-width:1.5;"/>
    <path clip-path="url(#ped06dbcb3f)" d="M 320.579384 236.36845 
L 320.579384 236.365168 
" style="fill:none;stroke:#1f77b4;stroke-width:1.5;"/>
    <path clip-path="url(#ped06dbcb3f)" d="M 321.858223 236.36845 
L 321.858223 236.36463 
" style="fill:none;stroke:#1f77b4;stroke-width:1.5;"/>
    <path clip-path="url(#ped06dbcb3f)" d="M 323.137062 236.36845 
L 323.137062 236.363283 
" style="fill:none;stroke:#1f77b4;stroke-width:1.5;"/>
    <path clip-path="url(#ped06dbcb3f)" d="M 324.415901 236.36845 
L 324.415901 236.362925 
" style="fill:none;stroke:#1f77b4;stroke-width:1.5;"/>
    <path clip-path="url(#ped06dbcb3f)" d="M 325.69474 236.36845 
L 325.69474 236.362451 
" style="fill:none;stroke:#1f77b4;stroke-width:1.5;"/>
    <path clip-path="url(#ped06dbcb3f)" d="M 326.973578 236.36845 
L 326.973578 236.36279 
" style="fill:none;stroke:#1f77b4;stroke-width:1.5;"/>
    <path clip-path="url(#ped06dbcb3f)" d="M 328.252417 236.36845 
L 328.252417 236.362888 
" style="fill:none;stroke:#1f77b4;stroke-width:1.5;"/>
    <path clip-path="url(#ped06dbcb3f)" d="M 329.531256 236.36845 
L 329.531256 236.364227 
" style="fill:none;stroke:#1f77b4;stroke-width:1.5;"/>
    <path clip-path="url(#ped06dbcb3f)" d="M 330.810095 236.36845 
L 330.810095 236.364659 
" style="fill:none;stroke:#1f77b4;stroke-width:1.5;"/>
    <path clip-path="url(#ped06dbcb3f)" d="M 332.088934 236.36845 
L 332.088934 236.365571 
" style="fill:none;stroke:#1f77b4;stroke-width:1.5;"/>
    <path clip-path="url(#ped06dbcb3f)" d="M 333.367772 236.36845 
L 333.367772 236.365774 
" style="fill:none;stroke:#1f77b4;stroke-width:1.5;"/>
    <path clip-path="url(#ped06dbcb3f)" d="M 334.646611 236.36845 
L 334.646611 236.366293 
" style="fill:none;stroke:#1f77b4;stroke-width:1.5;"/>
    <path clip-path="url(#ped06dbcb3f)" d="M 335.92545 236.36845 
L 335.92545 236.36595 
" style="fill:none;stroke:#1f77b4;stroke-width:1.5;"/>
    <path clip-path="url(#ped06dbcb3f)" d="M 337.204289 236.36845 
L 337.204289 236.366044 
" style="fill:none;stroke:#1f77b4;stroke-width:1.5;"/>
    <path clip-path="url(#ped06dbcb3f)" d="M 338.483128 236.36845 
L 338.483128 236.365538 
" style="fill:none;stroke:#1f77b4;stroke-width:1.5;"/>
    <path clip-path="url(#ped06dbcb3f)" d="M 339.761966 236.36845 
L 339.761966 236.365699 
" style="fill:none;stroke:#1f77b4;stroke-width:1.5;"/>
    <path clip-path="url(#ped06dbcb3f)" d="M 341.040805 236.36845 
L 341.040805 236.365022 
" style="fill:none;stroke:#1f77b4;stroke-width:1.5;"/>
    <path clip-path="url(#ped06dbcb3f)" d="M 342.319644 236.36845 
L 342.319644 236.364833 
" style="fill:none;stroke:#1f77b4;stroke-width:1.5;"/>
    <path clip-path="url(#ped06dbcb3f)" d="M 343.598483 236.36845 
L 343.598483 236.364358 
" style="fill:none;stroke:#1f77b4;stroke-width:1.5;"/>
    <path clip-path="url(#ped06dbcb3f)" d="M 344.877322 236.36845 
L 344.877322 236.364386 
" style="fill:none;stroke:#1f77b4;stroke-width:1.5;"/>
    <path clip-path="url(#ped06dbcb3f)" d="M 346.15616 236.36845 
L 346.15616 236.364131 
" style="fill:none;stroke:#1f77b4;stroke-width:1.5;"/>
    <path clip-path="url(#ped06dbcb3f)" d="M 347.434999 236.36845 
L 347.434999 236.3642 
" style="fill:none;stroke:#1f77b4;stroke-width:1.5;"/>
    <path clip-path="url(#ped06dbcb3f)" d="M 348.713838 236.36845 
L 348.713838 236.363963 
" style="fill:none;stroke:#1f77b4;stroke-width:1.5;"/>
    <path clip-path="url(#ped06dbcb3f)" d="M 349.992677 236.36845 
L 349.992677 236.364352 
" style="fill:none;stroke:#1f77b4;stroke-width:1.5;"/>
    <path clip-path="url(#ped06dbcb3f)" d="M 351.271516 236.36845 
L 351.271516 236.364296 
" style="fill:none;stroke:#1f77b4;stroke-width:1.5;"/>
    <path clip-path="url(#ped06dbcb3f)" d="M 352.550355 236.36845 
L 352.550355 236.364586 
" style="fill:none;stroke:#1f77b4;stroke-width:1.5;"/>
    <path clip-path="url(#ped06dbcb3f)" d="M 353.829193 236.36845 
L 353.829193 236.364721 
" style="fill:none;stroke:#1f77b4;stroke-width:1.5;"/>
    <path clip-path="url(#ped06dbcb3f)" d="M 355.108032 236.36845 
L 355.108032 236.365179 
" style="fill:none;stroke:#1f77b4;stroke-width:1.5;"/>
    <path clip-path="url(#ped06dbcb3f)" d="M 356.386871 236.36845 
L 356.386871 236.365612 
" style="fill:none;stroke:#1f77b4;stroke-width:1.5;"/>
    <path clip-path="url(#ped06dbcb3f)" d="M 357.66571 236.36845 
L 357.66571 236.366073 
" style="fill:none;stroke:#1f77b4;stroke-width:1.5;"/>
    <path clip-path="url(#ped06dbcb3f)" d="M 358.944549 236.36845 
L 358.944549 236.366247 
" style="fill:none;stroke:#1f77b4;stroke-width:1.5;"/>
    <path clip-path="url(#ped06dbcb3f)" d="M 360.223387 236.36845 
L 360.223387 236.366748 
" style="fill:none;stroke:#1f77b4;stroke-width:1.5;"/>
    <path clip-path="url(#ped06dbcb3f)" d="M 361.502226 236.36845 
L 361.502226 236.366643 
" style="fill:none;stroke:#1f77b4;stroke-width:1.5;"/>
    <path clip-path="url(#ped06dbcb3f)" d="M 362.781065 236.36845 
L 362.781065 236.366659 
" style="fill:none;stroke:#1f77b4;stroke-width:1.5;"/>
    <path clip-path="url(#ped06dbcb3f)" d="M 364.059904 236.36845 
L 364.059904 236.36653 
" style="fill:none;stroke:#1f77b4;stroke-width:1.5;"/>
    <path clip-path="url(#ped06dbcb3f)" d="M 365.338743 236.36845 
L 365.338743 236.366532 
" style="fill:none;stroke:#1f77b4;stroke-width:1.5;"/>
    <path clip-path="url(#ped06dbcb3f)" d="M 366.617581 236.36845 
L 366.617581 236.366245 
" style="fill:none;stroke:#1f77b4;stroke-width:1.5;"/>
    <path clip-path="url(#ped06dbcb3f)" d="M 367.89642 236.36845 
L 367.89642 236.36592 
" style="fill:none;stroke:#1f77b4;stroke-width:1.5;"/>
    <path clip-path="url(#ped06dbcb3f)" d="M 369.175259 236.36845 
L 369.175259 236.365318 
" style="fill:none;stroke:#1f77b4;stroke-width:1.5;"/>
    <path clip-path="url(#ped06dbcb3f)" d="M 370.454098 236.36845 
L 370.454098 236.365018 
" style="fill:none;stroke:#1f77b4;stroke-width:1.5;"/>
    <path clip-path="url(#ped06dbcb3f)" d="M 371.732937 236.36845 
L 371.732937 236.36454 
" style="fill:none;stroke:#1f77b4;stroke-width:1.5;"/>
    <path clip-path="url(#ped06dbcb3f)" d="M 373.011775 236.36845 
L 373.011775 236.36435 
" style="fill:none;stroke:#1f77b4;stroke-width:1.5;"/>
    <path clip-path="url(#ped06dbcb3f)" d="M 374.290614 236.36845 
L 374.290614 236.364294 
" style="fill:none;stroke:#1f77b4;stroke-width:1.5;"/>
    <path clip-path="url(#ped06dbcb3f)" d="M 375.569453 236.36845 
L 375.569453 236.364549 
" style="fill:none;stroke:#1f77b4;stroke-width:1.5;"/>
    <path clip-path="url(#ped06dbcb3f)" d="M 376.848292 236.36845 
L 376.848292 236.364995 
" style="fill:none;stroke:#1f77b4;stroke-width:1.5;"/>
    <path clip-path="url(#ped06dbcb3f)" d="M 378.127131 236.36845 
L 378.127131 236.365513 
" style="fill:none;stroke:#1f77b4;stroke-width:1.5;"/>
   </g>
   <g id="patch_8">
    <path d="M 58.545313 239.9625 
L 58.545313 160.893409 
" style="fill:none;stroke:#000000;stroke-linecap:square;stroke-linejoin:miter;stroke-width:0.8;"/>
   </g>
   <g id="patch_9">
    <path d="M 393.345313 239.9625 
L 393.345313 160.893409 
" style="fill:none;stroke:#000000;stroke-linecap:square;stroke-linejoin:miter;stroke-width:0.8;"/>
   </g>
   <g id="patch_10">
    <path d="M 58.545312 239.9625 
L 393.345312 239.9625 
" style="fill:none;stroke:#000000;stroke-linecap:square;stroke-linejoin:miter;stroke-width:0.8;"/>
   </g>
   <g id="patch_11">
    <path d="M 58.545312 160.893409 
L 393.345312 160.893409 
" style="fill:none;stroke:#000000;stroke-linecap:square;stroke-linejoin:miter;stroke-width:0.8;"/>
   </g>
   <g id="text_23">
    <!-- Señal en frecuencia -->
    <g transform="translate(166.615625 154.893409)scale(0.12 -0.12)">
     <defs>
      <path d="M 37.109375 75.984375 
L 37.109375 68.5 
L 28.515625 68.5 
Q 23.6875 68.5 21.796875 66.546875 
Q 19.921875 64.59375 19.921875 59.515625 
L 19.921875 54.6875 
L 34.71875 54.6875 
L 34.71875 47.703125 
L 19.921875 47.703125 
L 19.921875 0 
L 10.890625 0 
L 10.890625 47.703125 
L 2.296875 47.703125 
L 2.296875 54.6875 
L 10.890625 54.6875 
L 10.890625 58.5 
Q 10.890625 67.625 15.140625 71.796875 
Q 19.390625 75.984375 28.609375 75.984375 
z
" id="DejaVuSans-102"/>
     </defs>
     <use xlink:href="#DejaVuSans-83"/>
     <use x="63.476562" xlink:href="#DejaVuSans-101"/>
     <use x="125" xlink:href="#DejaVuSans-241"/>
     <use x="188.378906" xlink:href="#DejaVuSans-97"/>
     <use x="249.658203" xlink:href="#DejaVuSans-108"/>
     <use x="277.441406" xlink:href="#DejaVuSans-32"/>
     <use x="309.228516" xlink:href="#DejaVuSans-101"/>
     <use x="370.751953" xlink:href="#DejaVuSans-110"/>
     <use x="434.130859" xlink:href="#DejaVuSans-32"/>
     <use x="465.917969" xlink:href="#DejaVuSans-102"/>
     <use x="501.123047" xlink:href="#DejaVuSans-114"/>
     <use x="539.986328" xlink:href="#DejaVuSans-101"/>
     <use x="601.509766" xlink:href="#DejaVuSans-99"/>
     <use x="656.490234" xlink:href="#DejaVuSans-117"/>
     <use x="719.869141" xlink:href="#DejaVuSans-101"/>
     <use x="781.392578" xlink:href="#DejaVuSans-110"/>
     <use x="844.771484" xlink:href="#DejaVuSans-99"/>
     <use x="899.751953" xlink:href="#DejaVuSans-105"/>
     <use x="927.535156" xlink:href="#DejaVuSans-97"/>
    </g>
   </g>
  </g>
 </g>
 <defs>
  <clipPath id="pfb262b0989">
   <rect height="79.069091" width="334.8" x="58.545313" y="22.5225"/>
  </clipPath>
  <clipPath id="ped06dbcb3f">
   <rect height="79.069091" width="334.8" x="58.545313" y="160.893409"/>
  </clipPath>
 </defs>
</svg>
