<?xml version="1.0" encoding="utf-8" standalone="no"?>
<!DOCTYPE svg PUBLIC "-//W3C//DTD SVG 1.1//EN"
  "http://www.w3.org/Graphics/SVG/1.1/DTD/svg11.dtd">
<svg height="576pt" version="1.1" viewBox="0 0 576 576" width="576pt" xmlns="http://www.w3.org/2000/svg" xmlns:xlink="http://www.w3.org/1999/xlink">
 <metadata>
  <rdf:RDF xmlns:cc="http://creativecommons.org/ns#" xmlns:dc="http://purl.org/dc/elements/1.1/" xmlns:rdf="http://www.w3.org/1999/02/22-rdf-syntax-ns#">
   <cc:Work>
    <dc:type rdf:resource="http://purl.org/dc/dcmitype/StillImage"/>
    <dc:date>2022-02-27T16:23:05.977470</dc:date>
    <dc:format>image/svg+xml</dc:format>
    <dc:creator>
     <cc:Agent>
      <dc:title>Matplotlib v3.4.3, https://matplotlib.org/</dc:title>
     </cc:Agent>
    </dc:creator>
   </cc:Work>
  </rdf:RDF>
 </metadata>
 <defs>
  <style type="text/css">*{stroke-linecap:butt;stroke-linejoin:round;}</style>
 </defs>
 <g id="figure_1">
  <g id="patch_1">
   <path d="M 0 576 
L 576 576 
L 576 0 
L 0 0 
z
" style="fill:#ffffff;"/>
  </g>
  <g id="patch_2">
   <path d="M 10.8 565.2 
L 565.2 565.2 
L 565.2 10.8 
L 10.8 10.8 
z
" style="fill:#ffffff;"/>
  </g>
  <g id="pane3d_1">
   <g id="patch_3">
    <path d="M 52.661023 428.502727 
L 235.742009 275.040614 
L 233.197008 53.720814 
L 41.354653 193.718627 
" style="fill:#f2f2f2;opacity:0.5;stroke:#f2f2f2;stroke-linejoin:miter;"/>
   </g>
  </g>
  <g id="pane3d_2">
   <g id="patch_4">
    <path d="M 235.742009 275.040614 
L 529.521668 360.430763 
L 540.005628 131.487856 
L 233.197008 53.720814 
" style="fill:#e6e6e6;opacity:0.5;stroke:#e6e6e6;stroke-linejoin:miter;"/>
   </g>
  </g>
  <g id="pane3d_3">
   <g id="patch_5">
    <path d="M 52.661023 428.502727 
L 364.08181 530.212756 
L 529.521668 360.430763 
L 235.742009 275.040614 
" style="fill:#ececec;opacity:0.5;stroke:#ececec;stroke-linejoin:miter;"/>
   </g>
  </g>
  <g id="axis3d_1">
   <g id="line2d_1">
    <path d="M 52.661023 428.502727 
L 364.08181 530.212756 
" style="fill:none;stroke:#000000;stroke-linecap:square;stroke-width:0.8;"/>
   </g>
   <g id="text_1">
    <!-- x (m) -->
    <g transform="translate(174.526236 511.624996)rotate(-341.912962)scale(0.1 -0.1)">
     <defs>
      <path d="M 3513 3500 
L 2247 1797 
L 3578 0 
L 2900 0 
L 1881 1375 
L 863 0 
L 184 0 
L 1544 1831 
L 300 3500 
L 978 3500 
L 1906 2253 
L 2834 3500 
L 3513 3500 
z
" id="DejaVuSans-78" transform="scale(0.015625)"/>
      <path id="DejaVuSans-20" transform="scale(0.015625)"/>
      <path d="M 1984 4856 
Q 1566 4138 1362 3434 
Q 1159 2731 1159 2009 
Q 1159 1288 1364 580 
Q 1569 -128 1984 -844 
L 1484 -844 
Q 1016 -109 783 600 
Q 550 1309 550 2009 
Q 550 2706 781 3412 
Q 1013 4119 1484 4856 
L 1984 4856 
z
" id="DejaVuSans-28" transform="scale(0.015625)"/>
      <path d="M 3328 2828 
Q 3544 3216 3844 3400 
Q 4144 3584 4550 3584 
Q 5097 3584 5394 3201 
Q 5691 2819 5691 2113 
L 5691 0 
L 5113 0 
L 5113 2094 
Q 5113 2597 4934 2840 
Q 4756 3084 4391 3084 
Q 3944 3084 3684 2787 
Q 3425 2491 3425 1978 
L 3425 0 
L 2847 0 
L 2847 2094 
Q 2847 2600 2669 2842 
Q 2491 3084 2119 3084 
Q 1678 3084 1418 2786 
Q 1159 2488 1159 1978 
L 1159 0 
L 581 0 
L 581 3500 
L 1159 3500 
L 1159 2956 
Q 1356 3278 1631 3431 
Q 1906 3584 2284 3584 
Q 2666 3584 2933 3390 
Q 3200 3197 3328 2828 
z
" id="DejaVuSans-6d" transform="scale(0.015625)"/>
      <path d="M 513 4856 
L 1013 4856 
Q 1481 4119 1714 3412 
Q 1947 2706 1947 2009 
Q 1947 1309 1714 600 
Q 1481 -109 1013 -844 
L 513 -844 
Q 928 -128 1133 580 
Q 1338 1288 1338 2009 
Q 1338 2731 1133 3434 
Q 928 4138 513 4856 
z
" id="DejaVuSans-29" transform="scale(0.015625)"/>
     </defs>
     <use xlink:href="#DejaVuSans-78"/>
     <use x="59.179688" xlink:href="#DejaVuSans-20"/>
     <use x="90.966797" xlink:href="#DejaVuSans-28"/>
     <use x="129.980469" xlink:href="#DejaVuSans-6d"/>
     <use x="227.392578" xlink:href="#DejaVuSans-29"/>
    </g>
   </g>
   <g id="Line3DCollection_1">
    <path d="M 70.89117 434.456693 
L 253.011091 280.060055 
L 251.196162 58.283075 
" style="fill:none;stroke:#b0b0b0;stroke-width:0.8;"/>
    <path d="M 107.034057 446.26096 
L 287.22215 290.003859 
L 286.86672 67.324522 
" style="fill:none;stroke:#b0b0b0;stroke-width:0.8;"/>
    <path d="M 143.632678 458.214069 
L 321.828827 300.062654 
L 322.967607 76.475044 
" style="fill:none;stroke:#b0b0b0;stroke-width:0.8;"/>
    <path d="M 180.695706 470.318854 
L 356.838022 310.238445 
L 359.50666 85.736629 
" style="fill:none;stroke:#b0b0b0;stroke-width:0.8;"/>
    <path d="M 218.232039 482.578221 
L 392.2568 320.533285 
L 396.491902 95.11131 
" style="fill:none;stroke:#b0b0b0;stroke-width:0.8;"/>
    <path d="M 256.2508 494.995148 
L 428.092391 330.949276 
L 433.931559 104.601172 
" style="fill:none;stroke:#b0b0b0;stroke-width:0.8;"/>
    <path d="M 294.761351 507.572694 
L 464.352195 341.48857 
L 471.834055 114.208349 
" style="fill:none;stroke:#b0b0b0;stroke-width:0.8;"/>
    <path d="M 333.773295 520.313994 
L 501.043791 352.153369 
L 510.208027 123.935033 
" style="fill:none;stroke:#b0b0b0;stroke-width:0.8;"/>
   </g>
   <g id="xtick_1">
    <g id="line2d_2">
     <path d="M 72.477046 433.112228 
L 67.712614 437.151392 
" style="fill:none;stroke:#000000;stroke-linecap:square;stroke-width:0.8;"/>
    </g>
    <g id="text_2">
     <!-- −0.025 -->
     <g transform="translate(44.872439 457.733447)scale(0.1 -0.1)">
      <defs>
       <path d="M 678 2272 
L 4684 2272 
L 4684 1741 
L 678 1741 
L 678 2272 
z
" id="DejaVuSans-2212" transform="scale(0.015625)"/>
       <path d="M 2034 4250 
Q 1547 4250 1301 3770 
Q 1056 3291 1056 2328 
Q 1056 1369 1301 889 
Q 1547 409 2034 409 
Q 2525 409 2770 889 
Q 3016 1369 3016 2328 
Q 3016 3291 2770 3770 
Q 2525 4250 2034 4250 
z
M 2034 4750 
Q 2819 4750 3233 4129 
Q 3647 3509 3647 2328 
Q 3647 1150 3233 529 
Q 2819 -91 2034 -91 
Q 1250 -91 836 529 
Q 422 1150 422 2328 
Q 422 3509 836 4129 
Q 1250 4750 2034 4750 
z
" id="DejaVuSans-30" transform="scale(0.015625)"/>
       <path d="M 684 794 
L 1344 794 
L 1344 0 
L 684 0 
L 684 794 
z
" id="DejaVuSans-2e" transform="scale(0.015625)"/>
       <path d="M 1228 531 
L 3431 531 
L 3431 0 
L 469 0 
L 469 531 
Q 828 903 1448 1529 
Q 2069 2156 2228 2338 
Q 2531 2678 2651 2914 
Q 2772 3150 2772 3378 
Q 2772 3750 2511 3984 
Q 2250 4219 1831 4219 
Q 1534 4219 1204 4116 
Q 875 4013 500 3803 
L 500 4441 
Q 881 4594 1212 4672 
Q 1544 4750 1819 4750 
Q 2544 4750 2975 4387 
Q 3406 4025 3406 3419 
Q 3406 3131 3298 2873 
Q 3191 2616 2906 2266 
Q 2828 2175 2409 1742 
Q 1991 1309 1228 531 
z
" id="DejaVuSans-32" transform="scale(0.015625)"/>
       <path d="M 691 4666 
L 3169 4666 
L 3169 4134 
L 1269 4134 
L 1269 2991 
Q 1406 3038 1543 3061 
Q 1681 3084 1819 3084 
Q 2600 3084 3056 2656 
Q 3513 2228 3513 1497 
Q 3513 744 3044 326 
Q 2575 -91 1722 -91 
Q 1428 -91 1123 -41 
Q 819 9 494 109 
L 494 744 
Q 775 591 1075 516 
Q 1375 441 1709 441 
Q 2250 441 2565 725 
Q 2881 1009 2881 1497 
Q 2881 1984 2565 2268 
Q 2250 2553 1709 2553 
Q 1456 2553 1204 2497 
Q 953 2441 691 2322 
L 691 4666 
z
" id="DejaVuSans-35" transform="scale(0.015625)"/>
      </defs>
      <use xlink:href="#DejaVuSans-2212"/>
      <use x="83.789062" xlink:href="#DejaVuSans-30"/>
      <use x="147.412109" xlink:href="#DejaVuSans-2e"/>
      <use x="179.199219" xlink:href="#DejaVuSans-30"/>
      <use x="242.822266" xlink:href="#DejaVuSans-32"/>
      <use x="306.445312" xlink:href="#DejaVuSans-35"/>
     </g>
    </g>
   </g>
   <g id="xtick_2">
    <g id="line2d_3">
     <path d="M 108.603909 444.899601 
L 103.887574 448.989554 
" style="fill:none;stroke:#000000;stroke-linecap:square;stroke-width:0.8;"/>
    </g>
    <g id="text_3">
     <!-- 0.000 -->
     <g transform="translate(85.222766 469.657267)scale(0.1 -0.1)">
      <use xlink:href="#DejaVuSans-30"/>
      <use x="63.623047" xlink:href="#DejaVuSans-2e"/>
      <use x="95.410156" xlink:href="#DejaVuSans-30"/>
      <use x="159.033203" xlink:href="#DejaVuSans-30"/>
      <use x="222.65625" xlink:href="#DejaVuSans-30"/>
     </g>
    </g>
   </g>
   <g id="xtick_3">
    <g id="line2d_4">
     <path d="M 145.185975 456.835497 
L 140.519334 460.977203 
" style="fill:none;stroke:#000000;stroke-linecap:square;stroke-width:0.8;"/>
    </g>
    <g id="text_4">
     <!-- 0.025 -->
     <g transform="translate(121.840027 481.731709)scale(0.1 -0.1)">
      <use xlink:href="#DejaVuSans-30"/>
      <use x="63.623047" xlink:href="#DejaVuSans-2e"/>
      <use x="95.410156" xlink:href="#DejaVuSans-30"/>
      <use x="159.033203" xlink:href="#DejaVuSans-32"/>
      <use x="222.65625" xlink:href="#DejaVuSans-35"/>
     </g>
    </g>
   </g>
   <g id="xtick_4">
    <g id="line2d_5">
     <path d="M 182.231902 468.92274 
L 177.616599 473.117187 
" style="fill:none;stroke:#000000;stroke-linecap:square;stroke-width:0.8;"/>
    </g>
    <g id="text_5">
     <!-- 0.050 -->
     <g transform="translate(158.922775 493.959644)scale(0.1 -0.1)">
      <use xlink:href="#DejaVuSans-30"/>
      <use x="63.623047" xlink:href="#DejaVuSans-2e"/>
      <use x="95.410156" xlink:href="#DejaVuSans-30"/>
      <use x="159.033203" xlink:href="#DejaVuSans-35"/>
      <use x="222.65625" xlink:href="#DejaVuSans-30"/>
     </g>
    </g>
   </g>
   <g id="xtick_5">
    <g id="line2d_6">
     <path d="M 219.750567 481.164227 
L 215.1883 485.412429 
" style="fill:none;stroke:#000000;stroke-linecap:square;stroke-width:0.8;"/>
    </g>
    <g id="text_6">
     <!-- 0.075 -->
     <g transform="translate(196.479944 506.344018)scale(0.1 -0.1)">
      <defs>
       <path d="M 525 4666 
L 3525 4666 
L 3525 4397 
L 1831 0 
L 1172 0 
L 2766 4134 
L 525 4134 
L 525 4666 
z
" id="DejaVuSans-37" transform="scale(0.015625)"/>
      </defs>
      <use xlink:href="#DejaVuSans-30"/>
      <use x="63.623047" xlink:href="#DejaVuSans-2e"/>
      <use x="95.410156" xlink:href="#DejaVuSans-30"/>
      <use x="159.033203" xlink:href="#DejaVuSans-37"/>
      <use x="222.65625" xlink:href="#DejaVuSans-35"/>
     </g>
    </g>
   </g>
   <g id="xtick_6">
    <g id="line2d_7">
     <path d="M 257.751079 493.56293 
L 253.243598 497.865926 
" style="fill:none;stroke:#000000;stroke-linecap:square;stroke-width:0.8;"/>
    </g>
    <g id="text_7">
     <!-- 0.100 -->
     <g transform="translate(234.520697 518.887852)scale(0.1 -0.1)">
      <defs>
       <path d="M 794 531 
L 1825 531 
L 1825 4091 
L 703 3866 
L 703 4441 
L 1819 4666 
L 2450 4666 
L 2450 531 
L 3481 531 
L 3481 0 
L 794 0 
L 794 531 
z
" id="DejaVuSans-31" transform="scale(0.015625)"/>
      </defs>
      <use xlink:href="#DejaVuSans-30"/>
      <use x="63.623047" xlink:href="#DejaVuSans-2e"/>
      <use x="95.410156" xlink:href="#DejaVuSans-31"/>
      <use x="159.033203" xlink:href="#DejaVuSans-30"/>
      <use x="222.65625" xlink:href="#DejaVuSans-30"/>
     </g>
    </g>
   </g>
   <g id="xtick_7">
    <g id="line2d_8">
     <path d="M 296.24278 506.121896 
L 291.791888 510.480755 
" style="fill:none;stroke:#000000;stroke-linecap:square;stroke-width:0.8;"/>
    </g>
    <g id="text_8">
     <!-- 0.125 -->
     <g transform="translate(273.054434 531.594246)scale(0.1 -0.1)">
      <use xlink:href="#DejaVuSans-30"/>
      <use x="63.623047" xlink:href="#DejaVuSans-2e"/>
      <use x="95.410156" xlink:href="#DejaVuSans-31"/>
      <use x="159.033203" xlink:href="#DejaVuSans-32"/>
      <use x="222.65625" xlink:href="#DejaVuSans-35"/>
     </g>
    </g>
   </g>
   <g id="xtick_8">
    <g id="line2d_9">
     <path d="M 335.235255 518.844254 
L 330.842815 523.260069 
" style="fill:none;stroke:#000000;stroke-linecap:square;stroke-width:0.8;"/>
    </g>
    <g id="text_9">
     <!-- 0.150 -->
     <g transform="translate(312.0908 544.466381)scale(0.1 -0.1)">
      <use xlink:href="#DejaVuSans-30"/>
      <use x="63.623047" xlink:href="#DejaVuSans-2e"/>
      <use x="95.410156" xlink:href="#DejaVuSans-31"/>
      <use x="159.033203" xlink:href="#DejaVuSans-35"/>
      <use x="222.65625" xlink:href="#DejaVuSans-30"/>
     </g>
    </g>
   </g>
  </g>
  <g id="axis3d_2">
   <g id="line2d_10">
    <path d="M 529.521668 360.430763 
L 364.08181 530.212756 
" style="fill:none;stroke:#000000;stroke-linecap:square;stroke-width:0.8;"/>
   </g>
   <g id="text_10">
    <!-- y (m) -->
    <g transform="translate(470.139263 480.978729)rotate(-45.742112)scale(0.1 -0.1)">
     <defs>
      <path d="M 2059 -325 
Q 1816 -950 1584 -1140 
Q 1353 -1331 966 -1331 
L 506 -1331 
L 506 -850 
L 844 -850 
Q 1081 -850 1212 -737 
Q 1344 -625 1503 -206 
L 1606 56 
L 191 3500 
L 800 3500 
L 1894 763 
L 2988 3500 
L 3597 3500 
L 2059 -325 
z
" id="DejaVuSans-79" transform="scale(0.015625)"/>
     </defs>
     <use xlink:href="#DejaVuSans-79"/>
     <use x="59.179688" xlink:href="#DejaVuSans-20"/>
     <use x="90.966797" xlink:href="#DejaVuSans-28"/>
     <use x="129.980469" xlink:href="#DejaVuSans-6d"/>
     <use x="227.392578" xlink:href="#DejaVuSans-29"/>
    </g>
   </g>
   <g id="Line3DCollection_2">
    <path d="M 53.360957 184.956973 
L 64.078286 418.932551 
L 374.441733 519.580926 
" style="fill:none;stroke:#b0b0b0;stroke-width:0.8;"/>
    <path d="M 88.308582 159.453788 
L 97.342203 391.050076 
L 404.592556 488.638765 
" style="fill:none;stroke:#b0b0b0;stroke-width:0.8;"/>
    <path d="M 122.182465 134.734171 
L 129.628016 363.987468 
L 433.810537 458.653929 
" style="fill:none;stroke:#b0b0b0;stroke-width:0.8;"/>
    <path d="M 155.031343 110.762557 
L 160.978239 337.709089 
L 462.138309 429.582666 
" style="fill:none;stroke:#b0b0b0;stroke-width:0.8;"/>
    <path d="M 186.901045 87.505499 
L 191.432961 312.181337 
L 489.615946 401.383851 
" style="fill:none;stroke:#b0b0b0;stroke-width:0.8;"/>
    <path d="M 217.834712 64.931519 
L 221.03001 287.372504 
L 516.281151 374.01879 
" style="fill:none;stroke:#b0b0b0;stroke-width:0.8;"/>
   </g>
   <g id="xtick_9">
    <g id="line2d_11">
     <path d="M 371.826216 518.732735 
L 379.679536 521.279503 
" style="fill:none;stroke:#000000;stroke-linecap:square;stroke-width:0.8;"/>
    </g>
    <g id="text_11">
     <!-- −0.10 -->
     <g transform="translate(372.002691 540.606408)scale(0.1 -0.1)">
      <use xlink:href="#DejaVuSans-2212"/>
      <use x="83.789062" xlink:href="#DejaVuSans-30"/>
      <use x="147.412109" xlink:href="#DejaVuSans-2e"/>
      <use x="179.199219" xlink:href="#DejaVuSans-31"/>
      <use x="242.822266" xlink:href="#DejaVuSans-30"/>
     </g>
    </g>
   </g>
   <g id="xtick_10">
    <g id="line2d_12">
     <path d="M 402.005335 487.817013 
L 409.773586 490.284361 
" style="fill:none;stroke:#000000;stroke-linecap:square;stroke-width:0.8;"/>
    </g>
    <g id="text_12">
     <!-- −0.05 -->
     <g transform="translate(401.959552 509.444457)scale(0.1 -0.1)">
      <use xlink:href="#DejaVuSans-2212"/>
      <use x="83.789062" xlink:href="#DejaVuSans-30"/>
      <use x="147.412109" xlink:href="#DejaVuSans-2e"/>
      <use x="179.199219" xlink:href="#DejaVuSans-30"/>
      <use x="242.822266" xlink:href="#DejaVuSans-35"/>
     </g>
    </g>
   </g>
   <g id="xtick_11">
    <g id="line2d_13">
     <path d="M 431.251127 457.8574 
L 438.935773 460.248984 
" style="fill:none;stroke:#000000;stroke-linecap:square;stroke-width:0.8;"/>
    </g>
    <g id="text_13">
     <!-- 0.00 -->
     <g transform="translate(435.179159 479.2469)scale(0.1 -0.1)">
      <use xlink:href="#DejaVuSans-30"/>
      <use x="63.623047" xlink:href="#DejaVuSans-2e"/>
      <use x="95.410156" xlink:href="#DejaVuSans-30"/>
      <use x="159.033203" xlink:href="#DejaVuSans-30"/>
     </g>
    </g>
   </g>
   <g id="xtick_12">
    <g id="line2d_14">
     <path d="M 459.606229 428.810215 
L 467.20872 431.129474 
" style="fill:none;stroke:#000000;stroke-linecap:square;stroke-width:0.8;"/>
    </g>
    <g id="text_14">
     <!-- 0.05 -->
     <g transform="translate(463.324204 449.96965)scale(0.1 -0.1)">
      <use xlink:href="#DejaVuSans-30"/>
      <use x="63.623047" xlink:href="#DejaVuSans-2e"/>
      <use x="95.410156" xlink:href="#DejaVuSans-30"/>
      <use x="159.033203" xlink:href="#DejaVuSans-35"/>
     </g>
    </g>
   </g>
   <g id="xtick_13">
    <g id="line2d_15">
     <path d="M 487.110721 400.634404 
L 494.632489 402.884568 
" style="fill:none;stroke:#000000;stroke-linecap:square;stroke-width:0.8;"/>
    </g>
    <g id="text_15">
     <!-- 0.10 -->
     <g transform="translate(490.62437 421.571266)scale(0.1 -0.1)">
      <use xlink:href="#DejaVuSans-30"/>
      <use x="63.623047" xlink:href="#DejaVuSans-2e"/>
      <use x="95.410156" xlink:href="#DejaVuSans-31"/>
      <use x="159.033203" xlink:href="#DejaVuSans-30"/>
     </g>
    </g>
   </g>
   <g id="xtick_14">
    <g id="line2d_16">
     <path d="M 513.802311 373.291334 
L 521.244772 375.475446 
" style="fill:none;stroke:#000000;stroke-linecap:square;stroke-width:0.8;"/>
    </g>
    <g id="text_16">
     <!-- 0.15 -->
     <g transform="translate(517.117136 394.012762)scale(0.1 -0.1)">
      <use xlink:href="#DejaVuSans-30"/>
      <use x="63.623047" xlink:href="#DejaVuSans-2e"/>
      <use x="95.410156" xlink:href="#DejaVuSans-31"/>
      <use x="159.033203" xlink:href="#DejaVuSans-35"/>
     </g>
    </g>
   </g>
  </g>
  <g id="axis3d_3">
   <g id="line2d_17">
    <path d="M 529.521668 360.430763 
L 540.005628 131.487856 
" style="fill:none;stroke:#000000;stroke-linecap:square;stroke-width:0.8;"/>
   </g>
   <g id="text_17">
    <!-- z (m) -->
    <g transform="translate(577.326905 256.136884)rotate(-87.378092)scale(0.1 -0.1)">
     <defs>
      <path d="M 353 3500 
L 3084 3500 
L 3084 2975 
L 922 459 
L 3084 459 
L 3084 0 
L 275 0 
L 275 525 
L 2438 3041 
L 353 3041 
L 353 3500 
z
" id="DejaVuSans-7a" transform="scale(0.015625)"/>
     </defs>
     <use xlink:href="#DejaVuSans-7a"/>
     <use x="52.490234" xlink:href="#DejaVuSans-20"/>
     <use x="84.277344" xlink:href="#DejaVuSans-28"/>
     <use x="123.291016" xlink:href="#DejaVuSans-6d"/>
     <use x="220.703125" xlink:href="#DejaVuSans-29"/>
    </g>
   </g>
   <g id="Line3DCollection_3">
    <path d="M 531.298532 321.628579 
L 235.309915 237.464615 
L 50.747455 388.766246 
" style="fill:none;stroke:#b0b0b0;stroke-width:0.8;"/>
    <path d="M 533.007811 284.302299 
L 234.894548 201.343261 
L 48.905641 350.519779 
" style="fill:none;stroke:#b0b0b0;stroke-width:0.8;"/>
    <path d="M 534.742051 246.430937 
L 234.473408 164.719835 
L 47.035895 311.693303 
" style="fill:none;stroke:#b0b0b0;stroke-width:0.8;"/>
    <path d="M 536.501802 208.002466 
L 234.046373 127.583793 
L 45.137579 272.273523 
" style="fill:none;stroke:#b0b0b0;stroke-width:0.8;"/>
    <path d="M 538.287632 169.004503 
L 233.613319 89.924299 
L 43.21003 232.246736 
" style="fill:none;stroke:#b0b0b0;stroke-width:0.8;"/>
   </g>
   <g id="xtick_15">
    <g id="line2d_18">
     <path d="M 528.81349 320.921961 
L 536.274572 323.043509 
" style="fill:none;stroke:#000000;stroke-linecap:square;stroke-width:0.8;"/>
    </g>
    <g id="text_18">
     <!-- 0.2 -->
     <g transform="translate(541.760091 326.654525)scale(0.1 -0.1)">
      <use xlink:href="#DejaVuSans-30"/>
      <use x="63.623047" xlink:href="#DejaVuSans-2e"/>
      <use x="95.410156" xlink:href="#DejaVuSans-32"/>
     </g>
    </g>
   </g>
   <g id="xtick_16">
    <g id="line2d_19">
     <path d="M 530.504076 283.605559 
L 538.021324 285.69746 
" style="fill:none;stroke:#000000;stroke-linecap:square;stroke-width:0.8;"/>
    </g>
    <g id="text_19">
     <!-- 0.4 -->
     <g transform="translate(543.600145 289.364226)scale(0.1 -0.1)">
      <defs>
       <path d="M 2419 4116 
L 825 1625 
L 2419 1625 
L 2419 4116 
z
M 2253 4666 
L 3047 4666 
L 3047 1625 
L 3713 1625 
L 3713 1100 
L 3047 1100 
L 3047 0 
L 2419 0 
L 2419 1100 
L 313 1100 
L 313 1709 
L 2253 4666 
z
" id="DejaVuSans-34" transform="scale(0.015625)"/>
      </defs>
      <use xlink:href="#DejaVuSans-30"/>
      <use x="63.623047" xlink:href="#DejaVuSans-2e"/>
      <use x="95.410156" xlink:href="#DejaVuSans-34"/>
     </g>
    </g>
   </g>
   <g id="xtick_17">
    <g id="line2d_20">
     <path d="M 532.21934 245.74444 
L 539.793606 247.8056 
" style="fill:none;stroke:#000000;stroke-linecap:square;stroke-width:0.8;"/>
    </g>
    <g id="text_20">
     <!-- 0.6 -->
     <g transform="translate(545.467029 251.530174)scale(0.1 -0.1)">
      <defs>
       <path d="M 2113 2584 
Q 1688 2584 1439 2293 
Q 1191 2003 1191 1497 
Q 1191 994 1439 701 
Q 1688 409 2113 409 
Q 2538 409 2786 701 
Q 3034 994 3034 1497 
Q 3034 2003 2786 2293 
Q 2538 2584 2113 2584 
z
M 3366 4563 
L 3366 3988 
Q 3128 4100 2886 4159 
Q 2644 4219 2406 4219 
Q 1781 4219 1451 3797 
Q 1122 3375 1075 2522 
Q 1259 2794 1537 2939 
Q 1816 3084 2150 3084 
Q 2853 3084 3261 2657 
Q 3669 2231 3669 1497 
Q 3669 778 3244 343 
Q 2819 -91 2113 -91 
Q 1303 -91 875 529 
Q 447 1150 447 2328 
Q 447 3434 972 4092 
Q 1497 4750 2381 4750 
Q 2619 4750 2861 4703 
Q 3103 4656 3366 4563 
z
" id="DejaVuSans-36" transform="scale(0.015625)"/>
      </defs>
      <use xlink:href="#DejaVuSans-30"/>
      <use x="63.623047" xlink:href="#DejaVuSans-2e"/>
      <use x="95.410156" xlink:href="#DejaVuSans-36"/>
     </g>
    </g>
   </g>
   <g id="xtick_18">
    <g id="line2d_21">
     <path d="M 533.959826 207.32659 
L 541.59198 209.355873 
" style="fill:none;stroke:#000000;stroke-linecap:square;stroke-width:0.8;"/>
    </g>
    <g id="text_21">
     <!-- 0.8 -->
     <g transform="translate(547.361335 213.140389)scale(0.1 -0.1)">
      <defs>
       <path d="M 2034 2216 
Q 1584 2216 1326 1975 
Q 1069 1734 1069 1313 
Q 1069 891 1326 650 
Q 1584 409 2034 409 
Q 2484 409 2743 651 
Q 3003 894 3003 1313 
Q 3003 1734 2745 1975 
Q 2488 2216 2034 2216 
z
M 1403 2484 
Q 997 2584 770 2862 
Q 544 3141 544 3541 
Q 544 4100 942 4425 
Q 1341 4750 2034 4750 
Q 2731 4750 3128 4425 
Q 3525 4100 3525 3541 
Q 3525 3141 3298 2862 
Q 3072 2584 2669 2484 
Q 3125 2378 3379 2068 
Q 3634 1759 3634 1313 
Q 3634 634 3220 271 
Q 2806 -91 2034 -91 
Q 1263 -91 848 271 
Q 434 634 434 1313 
Q 434 1759 690 2068 
Q 947 2378 1403 2484 
z
M 1172 3481 
Q 1172 3119 1398 2916 
Q 1625 2713 2034 2713 
Q 2441 2713 2670 2916 
Q 2900 3119 2900 3481 
Q 2900 3844 2670 4047 
Q 2441 4250 2034 4250 
Q 1625 4250 1398 4047 
Q 1172 3844 1172 3481 
z
" id="DejaVuSans-38" transform="scale(0.015625)"/>
      </defs>
      <use xlink:href="#DejaVuSans-30"/>
      <use x="63.623047" xlink:href="#DejaVuSans-2e"/>
      <use x="95.410156" xlink:href="#DejaVuSans-38"/>
     </g>
    </g>
   </g>
   <g id="xtick_19">
    <g id="line2d_22">
     <path d="M 535.726095 168.339639 
L 543.417027 170.335871 
" style="fill:none;stroke:#000000;stroke-linecap:square;stroke-width:0.8;"/>
    </g>
    <g id="text_22">
     <!-- 1.0 -->
     <g transform="translate(549.283673 174.182534)scale(0.1 -0.1)">
      <use xlink:href="#DejaVuSans-31"/>
      <use x="63.623047" xlink:href="#DejaVuSans-2e"/>
      <use x="95.410156" xlink:href="#DejaVuSans-30"/>
     </g>
    </g>
   </g>
  </g>
  <g id="axes_1">
   <g id="line2d_23">
    <path clip-path="url(#pa1f1747943)" d="M 178.550516 187.703314 
L 178.556646 187.980265 
L 178.628651 186.448249 
L 178.887611 185.636633 
L 179.320941 184.926809 
L 180.04066 184.181413 
L 181.109621 183.413862 
L 182.569862 182.635005 
L 184.986478 181.656008 
L 188.094924 180.677583 
L 191.924219 179.70262 
L 197.482876 178.540695 
L 204.061725 177.390825 
L 212.9409 176.065639 
L 224.504188 174.574904 
L 238.977712 172.934757 
L 258.104216 170.996627 
L 283.353024 168.675065 
L 316.192112 165.888041 
L 374.26298 161.236582 
L 383.591748 160.615636 
L 387.843877 160.514916 
L 388.332878 160.583716 
L 388.134143 160.636913 
L 387.037798 160.61886 
L 386.021328 160.424949 
L 385.789491 160.204522 
L 385.906667 160.024474 
L 386.446724 159.747378 
L 387.731093 159.36749 
L 390.307906 158.859559 
L 394.21255 158.324768 
L 398.923899 157.905167 
L 402.233178 157.810511 
L 402.580398 157.868807 
L 402.359913 157.928515 
L 401.402643 157.941292 
L 401.350438 157.908235 
L 401.482317 157.85025 
L 402.123075 157.778101 
L 401.036426 157.845299 
L 396.581067 158.089176 
L 392.723445 158.324042 
L 392.723445 158.324042 
" style="fill:none;stroke:#1f77b4;stroke-linecap:square;stroke-opacity:0.7;stroke-width:1.5;"/>
   </g>
   <g id="line2d_24">
    <path clip-path="url(#pa1f1747943)" d="M 178.550516 187.703314 
L 178.665836 190.035706 
L 178.68241 188.698255 
L 178.813615 185.115333 
L 178.850327 184.652344 
L 178.727925 184.82833 
L 178.514055 184.894681 
L 178.310007 184.713308 
L 178.007002 184.09739 
L 177.000414 181.726803 
L 176.820099 181.89855 
L 175.911633 183.115595 
L 175.632347 183.052265 
L 175.345881 182.733077 
L 174.917744 181.850036 
L 174.15381 180.199091 
L 174.017173 180.285443 
L 173.791944 180.837428 
L 173.351923 181.83547 
L 173.116493 181.956399 
L 172.913821 181.826706 
L 172.626375 181.343276 
L 171.764925 179.631003 
L 171.749107 179.638378 
L 171.596281 179.865582 
L 171.174622 181.177808 
L 170.820165 181.813186 
L 170.592679 181.852627 
L 170.34996 181.620013 
L 169.930499 180.798202 
L 169.350693 179.735519 
L 169.072383 179.586073 
L 168.812088 179.692699 
L 168.439381 180.13953 
L 167.404289 181.500276 
L 167.031907 181.64461 
L 166.688162 181.546642 
L 166.238674 181.133697 
L 164.604462 179.326275 
L 164.095646 179.171354 
L 163.57255 179.24715 
L 162.980307 179.571515 
L 161.839116 180.538134 
L 161.067687 181.050691 
L 160.546681 181.150017 
L 160.094633 181.014425 
L 159.533596 180.57316 
L 157.712359 178.886954 
L 157.249742 178.834769 
L 156.811937 179.01768 
L 156.36385 179.459596 
L 155.610491 180.604149 
L 155.070359 181.253651 
L 154.798351 181.286637 
L 154.532974 181.051767 
L 154.059072 180.226494 
L 153.544216 179.509184 
L 153.257758 179.424772 
L 153.017597 179.596768 
L 152.759777 180.094367 
L 152.371156 181.44529 
L 152.085441 182.191639 
L 152.075364 182.185846 
L 151.970992 181.942782 
L 151.436291 180.195637 
L 151.401219 180.220886 
L 151.289144 180.52614 
L 151.146927 181.790567 
L 151.089709 182.752683 
L 151.025551 182.003413 
L 150.968375 180.348616 
L 151.143431 179.627719 
L 151.476184 178.993902 
L 152.061036 178.31891 
L 152.970996 177.616459 
L 154.270327 176.898566 
L 156.011046 176.172651 
L 158.863548 175.261482 
L 162.508071 174.353636 
L 166.96264 173.456715 
L 173.3725 172.403966 
L 180.907251 171.386843 
L 191.023571 170.259466 
L 202.409007 169.209731 
L 216.708656 168.116942 
L 234.01918 167.028164 
L 256.177414 165.86627 
L 348.308614 161.296724 
L 368.715289 160.247603 
L 376.792218 160.027277 
L 381.922503 160.079672 
L 385.144098 160.319851 
L 386.621248 160.629871 
L 386.986283 160.887724 
L 386.896798 161.060524 
L 386.473213 161.237765 
L 385.351529 161.414499 
L 383.514843 161.449558 
L 381.549266 161.273099 
L 379.643356 160.887155 
L 378.271216 160.40173 
L 377.657959 159.992653 
L 377.54346 159.696545 
L 377.717 159.473682 
L 378.213179 159.267097 
L 379.362148 159.061025 
L 383.063974 158.725733 
L 389.824291 158.027043 
L 395.077843 157.57055 
L 397.212297 157.346986 
L 397.182846 157.313878 
L 396.75828 157.198723 
L 395.806222 157.161426 
L 394.530256 157.367586 
L 393.751037 157.377641 
L 393.174096 157.168569 
L 390.460615 155.692141 
L 388.233421 154.529012 
L 387.050062 153.670428 
L 385.732521 152.647515 
L 385.323077 152.967355 
L 384.781662 153.23288 
L 384.074644 153.343183 
L 383.447985 153.221441 
L 382.985037 152.917766 
L 382.731154 152.496446 
L 382.642404 151.888344 
L 382.745386 150.834123 
L 382.847096 150.519174 
L 382.885781 150.67957 
L 382.804229 151.302264 
L 382.596719 151.523159 
L 382.20535 151.573442 
L 381.299492 151.416472 
L 378.539297 150.635175 
L 369.572673 148.103011 
L 369.002246 148.173495 
L 368.487894 148.464367 
L 367.685731 149.231618 
L 366.854389 149.905786 
L 366.321358 150.072984 
L 365.650419 150.011092 
L 364.79915 149.988153 
L 364.303437 150.198499 
L 363.725668 150.733715 
L 362.383548 152.15436 
L 362.196819 151.994282 
L 361.825521 151.395361 
L 361.756789 151.509655 
L 361.67539 152.112353 
L 361.669901 153.668475 
L 361.839845 154.851836 
L 362.087729 155.276197 
L 362.357047 155.321621 
L 362.737824 155.111603 
L 364.413688 153.837546 
L 364.948101 153.787264 
L 365.481182 153.956617 
L 366.068451 154.398039 
L 366.740785 155.200958 
L 368.505712 157.522669 
L 368.813047 157.520111 
L 369.089449 157.274933 
L 369.416634 156.637748 
L 369.881586 155.520582 
L 369.923364 155.627467 
L 369.936272 156.564488 
L 369.91063 158.063604 
L 370.016049 157.463176 
L 370.218275 155.561391 
L 369.857085 158.018703 
L 369.837369 157.997188 
L 369.789126 157.500465 
L 369.558416 155.45177 
L 369.407814 155.333908 
L 369.392951 155.341896 
L 369.234824 155.567845 
L 368.859337 156.667241 
L 368.395102 157.84907 
L 368.314177 157.755476 
L 368.230643 157.190304 
L 368.214461 155.13182 
L 368.231356 155.06164 
L 368.287326 155.519717 
L 368.471965 157.72413 
L 368.537055 157.555723 
L 368.649568 156.228963 
L 368.656077 154.989084 
L 368.573889 155.446996 
L 368.296034 157.667625 
L 368.278665 156.905083 
L 368.247817 155.086962 
L 368.17357 155.580322 
L 367.974493 157.66266 
L 368.264454 155.017476 
L 368.320303 155.071582 
L 368.453612 155.576204 
L 368.884392 157.913025 
L 368.946739 157.848381 
L 369.0628 157.391398 
L 369.244522 155.499368 
L 369.246189 155.225275 
L 369.044886 156.948851 
L 368.930018 157.839806 
L 368.933788 156.945309 
L 368.946474 155.140371 
L 368.842478 156.086665 
L 368.663427 157.749901 
L 368.649664 157.035594 
L 368.702873 154.950071 
L 368.748345 157.753703 
L 368.755422 157.763252 
L 368.797623 157.550283 
L 368.867517 155.873287 
L 368.832352 155.054549 
L 368.832352 155.054549 
" style="fill:none;stroke:#d62728;stroke-linecap:square;stroke-opacity:0.7;stroke-width:1.5;"/>
   </g>
   <g id="line2d_25">
    <path clip-path="url(#pa1f1747943)" d="M 178.550516 187.703314 
L 178.466921 188.828006 
L 178.232844 189.112505 
L 177.829637 189.26455 
L 176.90943 189.305285 
L 175.446034 189.126642 
L 173.146637 188.620048 
L 170.687096 187.853239 
L 168.744217 187.024814 
L 167.131837 186.102826 
L 166.034536 185.243982 
L 165.344308 184.443242 
L 165.060264 183.822942 
L 165.067063 183.37062 
L 165.290965 183.016581 
L 165.752501 182.729108 
L 166.542671 182.519355 
L 167.813432 182.428152 
L 169.957934 182.529023 
L 170.597629 182.542054 
L 170.357953 182.446311 
L 168.436648 182.024539 
L 164.524674 181.384937 
L 161.388423 181.070754 
L 159.296935 181.077306 
L 157.409536 181.313816 
L 153.43883 181.886107 
L 150.124221 182.032359 
L 148.63132 182.208544 
L 148.165711 182.466047 
L 147.949578 182.837317 
L 148.036819 183.05718 
L 148.538416 183.444072 
L 149.118163 183.754092 
L 149.120467 183.721453 
L 149.24591 183.027944 
L 149.593797 182.547624 
L 150.238713 182.084141 
L 151.389295 181.568421 
L 153.20698 181.008432 
L 156.422745 180.298242 
L 160.865533 179.566746 
L 167.642797 178.708799 
L 176.09781 177.862125 
L 187.667513 176.920068 
L 204.613385 175.787107 
L 227.720053 174.493156 
L 271.485745 172.328553 
L 322.219053 169.775807 
L 347.337897 168.302145 
L 364.260488 167.101371 
L 375.608009 166.083466 
L 382.592579 165.247307 
L 386.429446 164.586601 
L 388.156793 164.08459 
L 388.561512 163.789948 
L 388.522324 163.606179 
L 388.182111 163.411145 
L 387.087752 163.13014 
L 380.753591 161.803825 
L 379.725835 161.335328 
L 379.282387 160.919643 
L 379.189286 160.575613 
L 379.332675 160.181935 
L 379.79838 159.699303 
L 380.771376 159.055414 
L 383.728885 157.226857 
L 383.867486 156.877473 
L 383.755397 156.610925 
L 383.358199 156.317698 
L 382.439143 155.965847 
L 380.564916 155.524396 
L 376.661417 154.874312 
L 370.624251 154.077073 
L 368.577514 154.060011 
L 368.105516 154.211843 
L 368.113503 154.410262 
L 368.469745 155.025025 
L 368.92743 155.383007 
L 369.031469 155.589513 
L 369.005864 155.64651 
L 369.005932 155.646428 
" style="fill:none;stroke:#9467bd;stroke-linecap:square;stroke-opacity:0.7;stroke-width:1.5;"/>
   </g>
   <g id="line2d_26">
    <path clip-path="url(#pa1f1747943)" d="M 178.550516 187.703314 
L 178.480831 189.533835 
L 178.16379 190.427261 
L 177.692196 191.169167 
L 176.904129 191.967304 
L 174.826745 193.924933 
L 174.656443 194.432367 
L 174.744348 194.844274 
L 175.057407 195.236001 
L 175.70507 195.666937 
L 176.844476 196.139528 
L 178.756524 196.666602 
L 182.333285 197.457166 
L 182.147705 197.550315 
L 180.954896 197.751274 
L 174.732909 198.697933 
L 174.404327 198.870395 
L 174.422872 198.895915 
L 174.711113 198.968126 
L 176.036357 199.012733 
L 179.362523 198.882674 
L 182.338371 198.576661 
L 182.453376 198.525078 
L 182.25494 198.485051 
L 180.807827 198.502713 
L 177.212027 198.767656 
L 173.257569 199.270799 
L 171.746655 199.643887 
L 171.723647 199.687653 
L 171.830094 199.716922 
L 172.662488 199.673653 
L 174.744225 199.337596 
L 177.32073 198.699023 
L 179.587132 197.90993 
L 181.058714 197.176432 
L 181.781387 196.594458 
L 181.994649 196.18498 
L 181.920363 195.860851 
L 181.600434 195.589543 
L 180.905747 195.34045 
L 179.734028 195.171779 
L 177.964862 195.147624 
L 175.784564 195.338461 
L 173.832505 195.713269 
L 172.856656 196.084732 
L 172.769168 196.266611 
L 172.779412 196.277587 
L 173.065295 196.372931 
L 173.911331 196.380141 
L 175.032578 196.174609 
L 175.905715 195.811662 
L 176.478403 195.359085 
L 176.789835 194.844491 
L 176.875026 194.262413 
L 176.736165 193.593235 
L 176.322664 192.789029 
L 175.601178 191.899766 
L 174.721089 191.050001 
L 174.953195 191.085391 
L 176.317214 191.320694 
L 176.607906 191.061345 
L 177.501195 190.174865 
L 178.648329 189.467956 
L 180.206643 188.769556 
L 182.966155 187.820626 
L 186.806247 186.777995 
L 191.784283 185.67286 
L 197.904146 184.538459 
L 206.430104 183.21564 
L 216.326075 181.924399 
L 229.092658 180.509573 
L 244.956279 178.996538 
L 269.753005 176.899164 
L 334.249004 171.754145 
L 382.027535 167.852888 
L 392.356357 166.925635 
L 388.189125 167.210122 
L 374.670637 168.100785 
L 374.39101 168.045194 
L 374.474979 167.980074 
L 375.306266 167.735209 
L 379.692173 166.757127 
L 391.457234 164.115466 
L 397.600335 162.514691 
L 401.645793 161.240696 
L 403.877445 160.332425 
L 405.00955 159.674615 
L 405.491204 159.16075 
L 405.539938 158.833106 
L 405.345529 158.540477 
L 404.801517 158.237302 
L 403.763181 157.950697 
L 401.854296 157.687043 
L 398.799881 157.520703 
L 394.497388 157.528743 
L 388.873076 157.778156 
L 383.003306 158.255969 
L 379.075308 158.775483 
L 378.659375 158.905374 
L 378.847661 158.930301 
L 380.338212 158.814799 
L 384.195229 158.276351 
L 389.431597 157.325933 
L 394.336688 156.223418 
L 398.179124 155.148387 
L 400.78372 154.211642 
L 402.314792 153.462293 
L 403.152502 152.831033 
L 403.437617 152.389327 
L 403.446977 152.046951 
L 403.250929 151.731226 
L 402.752931 151.391162 
L 401.831402 151.052294 
L 400.167804 150.71356 
L 397.809898 150.467568 
L 394.517512 150.346048 
L 390.192959 150.423878 
L 385.809977 150.730052 
L 382.749469 151.147575 
L 381.598064 151.484691 
L 381.441224 151.68048 
L 381.597373 151.812315 
L 382.250788 151.973579 
L 383.822518 152.096075 
L 386.443968 152.066031 
L 389.55894 151.811258 
L 392.524857 151.352884 
L 395.024265 150.745203 
L 396.903901 150.05836 
L 398.041587 149.431411 
L 398.699602 148.84716 
L 398.98255 148.33106 
L 399.002679 147.895645 
L 398.819715 147.475326 
L 398.359824 147.014436 
L 397.534867 146.540364 
L 396.277878 146.09123 
L 394.566801 145.714664 
L 392.253049 145.449084 
L 389.691787 145.392482 
L 387.370909 145.553859 
L 385.560285 145.887563 
L 384.580778 146.258615 
L 384.21581 146.590817 
L 384.216796 146.850257 
L 384.465652 147.09854 
L 385.132436 147.384988 
L 386.418317 147.659712 
L 388.452205 147.844273 
L 391.15599 147.846139 
L 393.913212 147.629866 
L 395.860952 147.271853 
L 396.677732 146.934021 
L 396.890349 146.658755 
L 396.801953 146.404107 
L 396.392323 146.104407 
L 395.450166 145.72841 
L 393.63067 145.260419 
L 390.613043 144.732592 
L 386.961675 144.317431 
L 384.214522 144.201522 
L 383.222524 144.334559 
L 383.192406 144.44801 
L 383.208795 144.466558 
L 383.58626 144.655657 
L 384.820646 144.978792 
L 387.610256 145.448116 
L 391.484111 145.87294 
L 395.34046 146.089077 
L 397.824719 146.03561 
L 398.536005 145.853441 
L 398.495081 145.739408 
L 398.102149 145.577323 
L 396.807906 145.318659 
L 394.240273 145.041268 
L 391.034562 144.905363 
L 388.265516 145.003176 
L 386.242741 145.286513 
L 385.00335 145.655594 
L 384.41565 146.028311 
L 384.277696 146.352913 
L 384.418497 146.640146 
L 384.864214 146.943395 
L 385.786889 147.256987 
L 387.316865 147.507941 
L 389.312973 147.604927 
L 391.720443 147.497101 
L 394.007384 147.175938 
L 395.546279 146.762657 
L 396.215984 146.390365 
L 396.277156 146.177728 
L 396.090289 146.021204 
L 395.489183 145.872763 
L 394.243609 145.818833 
L 392.268478 145.97484 
L 390.179518 146.357736 
L 388.490411 146.875531 
L 387.474402 147.398856 
L 387.071762 147.820556 
L 387.020009 148.154444 
L 387.205532 148.469915 
L 387.707094 148.826371 
L 388.739611 149.247497 
L 390.295411 149.621583 
L 391.827956 149.77142 
L 392.630376 149.66583 
L 392.814011 149.466718 
L 392.701076 149.237991 
L 392.238558 148.908912 
L 391.261744 148.515701 
L 390.047959 148.261443 
L 389.042409 148.261845 
L 388.507719 148.464413 
L 388.357398 148.722185 
L 388.433945 149.056463 
L 388.813126 149.521815 
L 389.651006 150.141933 
L 390.993301 150.84545 
L 392.762307 151.524697 
L 394.349058 151.91541 
L 394.373792 151.911277 
L 393.531192 151.808791 
L 391.306639 151.800484 
L 388.503844 152.004144 
L 386.720983 152.327724 
L 386.352446 152.55438 
L 386.48838 152.663005 
L 387.147865 152.809252 
L 389.090664 152.975158 
L 393.644661 153.10616 
L 395.61986 153.192442 
L 395.474123 153.241166 
L 393.461913 153.530543 
L 390.112526 154.114196 
L 388.680682 154.55973 
L 388.071058 154.957172 
L 387.901988 155.29668 
L 387.995014 155.597851 
L 388.336012 155.884257 
L 388.978527 156.127654 
L 389.917937 156.244238 
L 390.991537 156.152759 
L 392.00589 155.851523 
L 392.737171 155.415466 
L 392.992544 155.036602 
L 392.916235 154.817152 
L 392.630215 154.70201 
L 392.08291 154.729074 
L 391.330445 154.994186 
L 390.706706 155.432266 
L 390.351173 155.940116 
L 390.293454 156.373591 
L 390.464335 156.771141 
L 390.884176 157.137912 
L 391.887402 157.690686 
L 391.547773 157.67451 
L 390.242956 157.346426 
L 389.125715 156.861909 
L 388.826294 156.549597 
L 388.927817 156.43186 
L 389.374481 156.368969 
L 390.452918 156.467751 
L 392.18646 156.855947 
L 393.439444 157.336323 
L 393.746162 157.637834 
L 393.641812 157.789792 
L 393.183686 157.928046 
L 391.889429 158.033262 
L 389.125408 158.272384 
L 388.080478 158.46619 
L 390.382726 157.986565 
L 394.016941 157.124375 
L 390.09114 158.160924 
L 389.594346 158.494793 
L 389.55133 158.74166 
L 389.726279 158.884276 
L 390.03381 158.849072 
L 390.417693 158.554868 
L 390.952292 157.817785 
L 391.751517 156.638515 
L 391.761159 156.647955 
" style="fill:none;stroke:#bcbd22;stroke-linecap:square;stroke-opacity:0.7;stroke-width:1.5;"/>
   </g>
   <g id="line2d_27">
    <path clip-path="url(#pa1f1747943)" d="M 178.550516 187.703314 
L 178.473204 189.003463 
L 178.240892 189.358039 
L 177.874013 189.539454 
L 177.040506 189.667404 
L 175.619531 189.62664 
L 172.449429 189.268163 
L 167.026558 188.67339 
L 163.899903 188.543357 
L 161.05687 188.651404 
L 158.852246 188.94324 
L 156.838812 189.437805 
L 155.264024 190.051648 
L 153.931995 190.824423 
L 152.988542 191.621718 
L 152.265819 192.51978 
L 151.770116 193.504142 
L 151.501683 194.558393 
L 151.455269 195.664908 
L 151.620825 196.805744 
L 152.051396 198.128918 
L 152.714196 199.449001 
L 153.699298 200.902793 
L 155.033879 202.448472 
L 156.708742 204.033143 
L 158.825392 205.72219 
L 164.515915 210.035136 
L 164.889871 210.662425 
L 164.971332 211.200245 
L 164.809254 211.740425 
L 164.398906 212.295828 
L 163.515211 213.053244 
L 161.77414 214.181255 
L 154.828817 218.440932 
L 152.569597 220.159016 
L 150.761644 221.817713 
L 149.422456 223.352287 
L 148.509231 224.720156 
L 147.886681 226.066091 
L 147.594706 227.208095 
L 147.544804 228.30314 
L 147.736896 229.340903 
L 148.165205 230.313974 
L 148.818228 231.217964 
L 149.678657 232.051481 
L 150.886011 232.919615 
L 152.476888 233.795738 
L 154.851488 234.820873 
L 159.272892 236.406574 
L 161.714752 237.395165 
L 162.83262 238.069349 
L 163.352531 238.641106 
L 163.500239 239.099091 
L 163.430385 239.589585 
L 163.070498 240.211871 
L 162.300231 241.001772 
L 160.840348 242.128185 
L 157.12317 244.608495 
L 153.199835 247.330581 
L 150.518305 249.458301 
L 148.50011 251.321179 
L 146.923985 253.041763 
L 145.611732 254.796902 
L 144.714829 256.340256 
L 144.075256 257.872735 
L 143.707028 259.378367 
L 143.61261 260.636887 
L 143.722528 261.858001 
L 144.032957 263.035832 
L 144.536359 264.166079 
L 145.352483 265.421092 
L 146.392249 266.606215 
L 147.815921 267.87655 
L 149.653217 269.204995 
L 152.112373 270.701416 
L 160.103792 275.333938 
L 161.23932 276.366455 
L 161.836983 277.188075 
L 162.164545 278.036095 
L 162.22319 278.790984 
L 162.076183 279.577671 
L 161.651198 280.54281 
L 160.851301 281.717842 
L 159.596128 283.14358 
L 157.264484 285.416937 
L 152.433484 290.076138 
L 150.209257 292.561138 
L 148.599074 294.687691 
L 147.395486 296.628072 
L 146.452928 298.596722 
L 145.868815 300.328036 
L 145.525168 302.054998 
L 145.429811 303.766667 
L 145.583536 305.453414 
L 145.980309 307.107163 
L 146.607577 308.721678 
L 147.446729 310.292521 
L 148.634057 312.031053 
L 150.208241 313.913398 
L 152.372913 316.111822 
L 155.709136 319.131047 
L 159.563816 322.67996 
L 161.267821 324.565951 
L 162.349778 326.093803 
L 163.043569 327.450972 
L 163.431911 328.644717 
L 163.613335 329.850181 
L 163.591703 331.072759 
L 163.331298 332.497592 
L 162.842421 333.958614 
L 161.95936 335.845113 
L 160.480807 338.41154 
L 156.789472 344.636389 
L 155.595859 347.166078 
L 154.816812 349.291785 
L 154.260478 351.441812 
L 153.978834 353.339779 
L 154.001483 354.486361 
L 154.237599 355.401136 
L 154.631388 356.118162 
L 155.260022 356.829758 
L 156.171841 357.541035 
L 157.412104 358.255328 
L 159.484492 359.155631 
L 162.197046 360.064632 
L 164.10415 360.557055 
L 165.794874 360.704175 
L 168.355402 360.648993 
L 171.037191 360.342018 
L 173.640033 359.830708 
L 176.001557 359.161509 
L 177.996644 358.385731 
L 179.536181 357.553789 
L 180.556891 356.709163 
L 180.956124 356.09096 
L 181.029548 355.502831 
L 180.893 355.133071 
L 180.410003 354.622095 
L 179.593277 354.172291 
L 178.449211 353.794147 
L 176.432915 353.417187 
L 173.890756 353.203687 
L 170.875736 353.171348 
L 167.456681 353.33546 
L 163.718958 353.708816 
L 159.764798 354.301491 
L 155.712441 355.120511 
L 151.693185 356.168804 
L 147.845957 357.444254 
L 145.156981 358.545006 
L 142.699107 359.762303 
L 140.525172 361.087365 
L 138.683682 362.509507 
L 137.219724 364.015784 
L 136.472901 365.06011 
L 135.922741 366.131009 
L 135.578181 367.22432 
L 135.448476 368.335079 
L 135.541949 369.458247 
L 135.86465 370.589469 
L 136.423902 371.723182 
L 137.223906 372.855099 
L 138.269547 373.98009 
L 139.5649 375.093075 
L 141.111686 376.18997 
L 142.91313 377.265393 
L 146.093569 378.829498 
L 149.850094 380.320665 
L 154.179327 381.725201 
L 159.07629 383.028616 
L 164.531287 384.217779 
L 170.531664 385.279711 
L 177.06182 386.201387 
L 184.10219 386.970609 
L 191.630487 387.574827 
L 199.620721 388.002021 
L 208.044003 388.239911 
L 216.867908 388.276782 
L 226.057384 388.10055 
L 235.574105 387.700114 
L 245.377493 387.064455 
L 255.424754 386.183361 
L 265.671235 385.048156 
L 276.071301 383.650903 
L 286.578475 381.985877 
L 297.146116 380.048726 
L 307.727669 377.837584 
L 318.276965 375.35203 
L 328.748443 372.59466 
L 339.097162 369.569239 
L 349.278948 366.282237 
L 359.250678 362.742513 
L 368.969392 358.959249 
L 378.393735 354.94536 
L 384.492331 352.147028 
L 390.429869 349.256509 
L 396.193786 346.277356 
L 401.772656 343.214855 
L 407.154511 340.07365 
L 412.327409 336.85847 
L 417.280037 333.574836 
L 422.000727 330.227864 
L 426.477793 326.822681 
L 430.700182 323.364924 
L 434.656919 319.860124 
L 438.336383 316.313175 
L 441.729628 312.730559 
L 444.825736 309.117094 
L 447.616709 305.479009 
L 450.095653 301.822674 
L 452.254781 298.153485 
L 454.09061 294.478575 
L 455.598302 290.803932 
L 456.776046 287.136441 
L 457.62354 283.483147 
L 458.140453 279.85061 
L 458.329864 276.246226 
L 458.19463 272.676851 
L 457.740061 269.149708 
L 456.972984 265.672051 
L 455.900842 262.250859 
L 454.533625 258.893385 
L 452.881964 255.606592 
L 450.958322 252.397443 
L 448.776604 249.272763 
L 446.351818 246.239137 
L 443.700399 243.302947 
L 440.840066 240.470294 
L 437.78941 237.746898 
L 434.567936 235.138047 
L 431.196165 232.648584 
L 427.694635 230.28272 
L 424.084654 228.044083 
L 420.387351 225.935602 
L 414.723641 223.021536 
L 408.980806 220.409376 
L 403.226316 218.099499 
L 397.524365 216.088412 
L 391.934657 214.36882 
L 386.511869 212.929809 
L 381.304555 211.757102 
L 376.354104 210.833569 
L 370.212523 209.95544 
L 364.650182 209.433981 
L 359.707059 209.21562 
L 355.405161 209.247124 
L 351.753401 209.477126 
L 348.751501 209.856973 
L 346.394173 210.340199 
L 344.672567 210.882847 
L 343.575317 211.444031 
L 343.154239 211.854638 
L 343.071281 212.24042 
L 343.320485 212.588469 
L 343.895634 212.887416 
L 345.158833 213.192299 
L 346.975241 213.371995 
L 349.999285 213.396886 
L 353.82909 213.179383 
L 358.426598 212.705716 
L 364.892965 211.791017 
L 372.302461 210.500216 
L 380.528359 208.846323 
L 389.40538 206.852387 
L 398.722442 204.550272 
L 408.219885 201.978987 
L 416.054192 199.661288 
L 423.611141 197.211048 
L 430.694389 194.651734 
L 435.893465 192.541008 
L 440.58217 190.386408 
L 443.717164 188.748363 
L 446.493795 187.096945 
L 448.887067 185.436507 
L 450.876146 183.771924 
L 452.4438 182.108018 
L 453.247751 181.001416 
L 453.85532 179.898845 
L 454.264179 178.801819 
L 454.472797 177.711907 
L 454.480781 176.630953 
L 454.288165 175.560611 
L 453.896196 174.502835 
L 453.306753 173.459515 
L 452.522568 172.432605 
L 451.547447 171.424248 
L 449.736579 169.950931 
L 447.525082 168.531224 
L 444.935622 167.172246 
L 441.99494 165.881094 
L 438.733347 164.664572 
L 433.943022 163.168985 
L 428.72738 161.829306 
L 423.178141 160.655153 
L 417.389996 159.652923 
L 411.457382 158.825393 
L 403.976895 158.036029 
L 396.576829 157.511685 
L 389.401906 157.237546 
L 382.577119 157.19162 
L 376.208858 157.345465 
L 369.292511 157.746324 
L 363.277222 158.322667 
L 358.243466 159.00864 
L 353.670729 159.863812 
L 350.51648 160.693629 
L 348.924472 161.328402 
L 348.354621 161.775641 
L 348.330121 162.001232 
L 348.534595 162.19177 
L 349.149008 162.388333 
L 350.435654 162.538528 
L 352.678411 162.577993 
L 356.707444 162.402091 
L 363.082582 161.858845 
L 372.033798 160.844123 
L 383.11939 159.359395 
L 393.56355 157.755018 
L 401.080712 156.395384 
L 405.873981 155.316436 
L 408.56993 154.507994 
L 410.035089 153.854141 
L 410.559283 153.425266 
L 410.666648 153.109258 
L 410.501969 152.82066 
L 410.073408 152.562695 
L 409.183911 152.288342 
L 407.63551 152.038099 
L 405.243294 151.867975 
L 401.877842 151.850424 
L 397.516015 152.070005 
L 392.81857 152.542049 
L 388.058753 153.243499 
L 383.477493 154.127871 
L 378.831555 155.244538 
L 374.478928 156.514055 
L 370.557638 157.88675 
L 367.814317 159.070562 
L 367.00855 159.602437 
L 367.055614 159.721873 
L 367.471847 159.743833 
L 369.019619 159.523442 
L 375.940117 158.169113 
L 387.890441 155.802463 
L 387.723025 155.773749 
L 386.507862 155.877903 
L 383.534234 156.363751 
L 380.022992 157.148089 
L 376.413964 158.175671 
L 373.113235 159.339681 
L 370.071757 160.65028 
L 367.475087 162.017233 
L 365.443883 163.338535 
L 364.042701 164.515815 
L 363.337047 165.392383 
L 363.163039 165.930835 
L 363.256992 166.231724 
L 363.53879 166.442773 
L 364.096777 166.577883 
L 365.155423 166.58756 
L 367.094212 166.355689 
L 370.818248 165.649476 
L 378.67303 163.899786 
L 380.705555 163.296391 
L 380.697677 163.290558 
L 380.392257 163.300805 
L 378.715221 163.626982 
L 375.867563 164.411097 
L 372.839862 165.481295 
L 370.172209 166.646785 
L 367.64213 167.996618 
L 365.613377 169.317937 
L 363.943893 170.655592 
L 362.694888 171.935246 
L 361.957753 172.979904 
L 361.618984 173.78764 
L 361.567771 174.382624 
L 361.743064 174.86317 
L 362.13992 175.224891 
L 362.750311 175.468533 
L 363.693927 175.609508 
L 365.203869 175.601587 
L 367.600107 175.348515 
L 371.52815 174.689644 
L 377.308249 173.491081 
L 377.768411 173.368825 
L 374.842431 174.196756 
L 371.989061 175.247569 
L 369.204263 176.500222 
L 366.640716 177.898849 
L 364.478911 179.326272 
L 362.604807 180.838379 
L 361.237136 182.213162 
L 360.214887 183.546442 
L 359.615398 184.657033 
L 359.314726 185.666776 
L 359.297418 186.449463 
L 359.506341 187.127041 
L 359.935121 187.693933 
L 360.573783 188.149423 
L 361.542274 188.538608 
L 362.900522 188.823658 
L 364.865975 188.98852 
L 367.847649 188.987405 
L 374.583556 188.900622 
L 374.746079 189.076988 
L 374.605013 189.276913 
L 373.970426 189.702073 
L 371.51234 190.979592 
L 367.62937 193.082494 
L 364.742034 194.903517 
L 362.39375 196.63595 
L 360.454208 198.319084 
L 358.768851 200.07339 
L 357.536907 201.653025 
L 356.589002 203.215846 
L 355.945424 204.729504 
L 355.640208 205.991295 
L 355.577257 207.178361 
L 355.753125 208.279239 
L 356.15978 209.28665 
L 356.784508 210.197673 
L 357.609676 211.013463 
L 358.768567 211.835645 
L 360.295543 212.635345 
L 362.375481 213.466927 
L 369.368243 216.041665 
L 370.07218 216.611223 
L 370.406669 217.165714 
L 370.468599 217.692292 
L 370.31661 218.273676 
L 369.869473 219.029916 
L 369.016811 220.008219 
L 367.312396 221.571065 
L 359.073639 228.748003 
L 356.847227 231.115113 
L 355.063941 233.3379 
L 353.718975 235.354222 
L 352.64348 237.378919 
L 351.946961 239.135514 
L 351.49199 240.860225 
L 351.284499 242.538107 
L 351.324132 244.156972 
L 351.604509 245.707696 
L 352.113456 247.184366 
L 352.8332 248.584395 
L 353.883977 250.091335 
L 355.137129 251.504126 
L 356.91087 253.152108 
L 359.577224 255.284726 
L 363.299883 258.270124 
L 364.680383 259.676137 
L 365.509196 260.822736 
L 366.001666 261.854478 
L 366.259468 262.922503 
L 366.274182 264.035224 
L 366.045677 265.200314 
L 365.582061 266.424396 
L 364.785185 267.902538 
L 363.441804 269.877397 
L 361.08147 272.887591 
L 356.927741 278.159261 
L 354.979216 280.994301 
L 353.581754 283.379599 
L 352.42782 285.799622 
L 351.644826 287.961025 
L 351.114226 290.115681 
L 350.867196 291.984251 
L 350.825474 293.828468 
L 350.98559 295.641592 
L 351.404085 297.669187 
L 352.05312 299.644642 
L 353.022475 301.80226 
L 354.335988 304.12067 
L 356.128341 306.802515 
L 361.540145 314.606731 
L 362.591172 316.664439 
L 363.287859 318.521274 
L 363.68833 320.183847 
L 363.874807 321.864218 
L 363.848601 323.567867 
L 363.577372 325.518236 
L 363.075129 327.509673 
L 362.201038 330.005329 
L 360.691582 333.524535 
L 357.664714 340.441849 
L 356.583155 343.525039 
L 355.822646 346.398252 
L 355.518992 347.980255 
L 355.157661 348.164921 
L 355.18799 348.103608 
L 355.158959 346.517337 
L 355.180657 343.003975 
L 355.426417 339.347704 
L 355.865953 335.795543 
L 356.571605 332.031172 
L 357.381744 328.830366 
L 358.394309 325.633794 
L 359.604066 322.482245 
L 361.002291 319.404954 
L 362.575977 316.421794 
L 364.671764 312.981913 
L 366.960274 309.700498 
L 369.400805 306.574061 
L 372.378513 303.107526 
L 376.720948 298.441503 
L 384.06307 290.608939 
L 386.507673 287.661046 
L 388.334764 285.143429 
L 389.875177 282.618455 
L 390.918098 280.499963 
L 391.727659 278.362701 
L 392.294111 276.202918 
L 392.611409 274.018407 
L 392.677208 271.808471 
L 392.492799 269.573859 
L 392.063013 267.316665 
L 391.396075 265.040197 
L 390.503423 262.748816 
L 389.154806 259.986916 
L 387.532114 257.221377 
L 385.670258 254.463336 
L 383.247881 251.27037 
L 380.231623 247.675541 
L 376.243097 243.298129 
L 369.066203 235.849918 
L 364.059443 230.501604 
L 361.3152 227.276449 
L 359.261118 224.546241 
L 357.79019 222.258765 
L 356.638227 220.062099 
L 355.908531 218.248511 
L 355.414976 216.496392 
L 355.151554 214.803611 
L 355.108351 213.168292 
L 355.271837 211.588835 
L 355.701183 209.814996 
L 356.357054 208.113776 
L 357.337034 206.256868 
L 358.660538 204.277569 
L 360.463833 202.014023 
L 365.787768 195.63905 
L 366.446121 194.386583 
L 366.724111 193.381405 
L 366.720061 192.591258 
L 366.489013 191.890054 
L 366.045637 191.282778 
L 365.310692 190.708824 
L 364.380036 190.265653 
L 363.032048 189.892482 
L 361.451391 189.694181 
L 359.532826 189.691793 
L 357.226976 189.934842 
L 356.520236 189.916555 
L 356.629374 189.757781 
L 357.383748 189.21871 
L 359.820347 187.804742 
L 364.276617 185.495431 
L 370.774385 182.140759 
L 371.968135 181.280148 
L 372.260357 180.84045 
L 372.194812 180.63002 
L 371.92176 180.492411 
L 371.250867 180.431092 
L 369.977664 180.564313 
L 368.151832 180.991106 
L 366.069593 181.705343 
L 363.938215 182.674858 
L 362.119191 183.727942 
L 360.53441 184.881284 
L 359.268866 186.063736 
L 358.377333 187.202145 
L 357.920415 188.132938 
L 357.798021 188.850839 
L 357.911547 189.376493 
L 358.229252 189.796426 
L 358.74662 190.106219 
L 359.572163 190.326184 
L 360.777033 190.412593 
L 362.589175 190.317327 
L 365.472654 189.92605 
L 370.326392 189.012785 
L 373.646266 188.356603 
L 373.250324 188.526943 
L 369.419149 190.083049 
L 366.609296 191.472796 
L 364.088693 192.956595 
L 361.874419 194.508702 
L 360.064064 196.025693 
L 359.877512 196.199167 
L 359.877512 196.199167 
" style="fill:none;stroke:#2ca02c;stroke-linecap:square;stroke-opacity:0.7;stroke-width:1.5;"/>
   </g>
   <g id="line2d_28">
    <path clip-path="url(#pa1f1747943)" d="M 178.550516 187.703314 
L 178.692174 189.225581 
L 179.009587 189.924026 
L 179.581563 190.645521 
L 180.383895 191.312835 
L 181.281481 191.77838 
L 182.426119 192.104779 
L 184.555295 192.42578 
L 185.58261 192.401773 
L 186.175106 192.185719 
L 186.525596 191.827993 
L 186.718506 191.298338 
L 186.762892 190.459472 
L 186.570676 188.561401 
L 186.516527 186.960272 
L 186.720002 185.732318 
L 186.737422 185.030491 
L 186.621646 183.747173 
L 186.857501 183.163956 
L 187.133712 182.669964 
L 187.240641 182.735121 
L 187.322681 182.779874 
L 187.323437 182.684533 
L 187.414334 182.059862 
L 187.660726 181.657588 
L 188.211243 181.216337 
L 189.211854 180.752836 
L 190.793449 180.266632 
L 193.591983 179.637034 
L 198.981695 178.687549 
L 209.428705 177.120677 
L 242.060209 172.549833 
L 297.337089 165.00956 
L 355.924904 157.190976 
L 370.252385 155.506536 
L 378.61459 154.727416 
L 383.987348 154.43992 
L 387.161858 154.488754 
L 388.687683 154.703929 
L 389.399659 154.995542 
L 389.624025 155.306283 
L 389.586401 155.598591 
L 389.262851 156.044354 
L 388.424385 156.719696 
L 386.43682 157.954181 
L 385.08112 158.888752 
L 384.932956 159.19573 
L 385.109945 159.324466 
L 385.685384 159.383113 
L 387.169244 159.2608 
L 390.066065 158.773532 
L 394.982903 157.703618 
L 401.73335 156.003511 
L 407.937421 154.30369 
L 406.6592 154.800865 
L 403.824409 155.772751 
L 403.975481 155.667681 
L 406.067731 154.529493 
L 405.629194 154.627761 
L 405.001378 154.858361 
L 405.529018 154.777203 
L 405.431532 154.908793 
L 405.544206 154.923071 
L 405.583092 154.989869 
L 405.562981 154.962119 
" style="fill:none;stroke:#17becf;stroke-linecap:square;stroke-opacity:0.7;stroke-width:1.5;"/>
   </g>
   <g id="line2d_29">
    <path clip-path="url(#pa1f1747943)" d="M 178.549771 187.669627 
L 390.380289 158.611747 
L 390.380289 158.611747 
" style="fill:none;stroke:#000000;stroke-dasharray:5.55,2.4;stroke-dashoffset:0;stroke-opacity:0.595;stroke-width:1.5;"/>
   </g>
   <g id="legend_1">
    <g id="patch_6">
     <path d="M 466.235937 122.9375 
L 558.2 122.9375 
Q 560.2 122.9375 560.2 120.9375 
L 560.2 17.8 
Q 560.2 15.8 558.2 15.8 
L 466.235937 15.8 
Q 464.235937 15.8 464.235937 17.8 
L 464.235937 120.9375 
Q 464.235937 122.9375 466.235937 122.9375 
z
" style="fill:#ffffff;opacity:0.8;stroke:#cccccc;stroke-linejoin:miter;"/>
    </g>
    <g id="line2d_30">
     <path d="M 468.235937 23.898438 
L 488.235937 23.898438 
" style="fill:none;stroke:#1f77b4;stroke-linecap:square;stroke-opacity:0.7;stroke-width:1.5;"/>
    </g>
    <g id="line2d_31"/>
    <g id="text_23">
     <!-- DSLPID -->
     <g transform="translate(496.235937 27.398438)scale(0.1 -0.1)">
      <defs>
       <path d="M 1259 4147 
L 1259 519 
L 2022 519 
Q 2988 519 3436 956 
Q 3884 1394 3884 2338 
Q 3884 3275 3436 3711 
Q 2988 4147 2022 4147 
L 1259 4147 
z
M 628 4666 
L 1925 4666 
Q 3281 4666 3915 4102 
Q 4550 3538 4550 2338 
Q 4550 1131 3912 565 
Q 3275 0 1925 0 
L 628 0 
L 628 4666 
z
" id="DejaVuSans-44" transform="scale(0.015625)"/>
       <path d="M 3425 4513 
L 3425 3897 
Q 3066 4069 2747 4153 
Q 2428 4238 2131 4238 
Q 1616 4238 1336 4038 
Q 1056 3838 1056 3469 
Q 1056 3159 1242 3001 
Q 1428 2844 1947 2747 
L 2328 2669 
Q 3034 2534 3370 2195 
Q 3706 1856 3706 1288 
Q 3706 609 3251 259 
Q 2797 -91 1919 -91 
Q 1588 -91 1214 -16 
Q 841 59 441 206 
L 441 856 
Q 825 641 1194 531 
Q 1563 422 1919 422 
Q 2459 422 2753 634 
Q 3047 847 3047 1241 
Q 3047 1584 2836 1778 
Q 2625 1972 2144 2069 
L 1759 2144 
Q 1053 2284 737 2584 
Q 422 2884 422 3419 
Q 422 4038 858 4394 
Q 1294 4750 2059 4750 
Q 2388 4750 2728 4690 
Q 3069 4631 3425 4513 
z
" id="DejaVuSans-53" transform="scale(0.015625)"/>
       <path d="M 628 4666 
L 1259 4666 
L 1259 531 
L 3531 531 
L 3531 0 
L 628 0 
L 628 4666 
z
" id="DejaVuSans-4c" transform="scale(0.015625)"/>
       <path d="M 1259 4147 
L 1259 2394 
L 2053 2394 
Q 2494 2394 2734 2622 
Q 2975 2850 2975 3272 
Q 2975 3691 2734 3919 
Q 2494 4147 2053 4147 
L 1259 4147 
z
M 628 4666 
L 2053 4666 
Q 2838 4666 3239 4311 
Q 3641 3956 3641 3272 
Q 3641 2581 3239 2228 
Q 2838 1875 2053 1875 
L 1259 1875 
L 1259 0 
L 628 0 
L 628 4666 
z
" id="DejaVuSans-50" transform="scale(0.015625)"/>
       <path d="M 628 4666 
L 1259 4666 
L 1259 0 
L 628 0 
L 628 4666 
z
" id="DejaVuSans-49" transform="scale(0.015625)"/>
      </defs>
      <use xlink:href="#DejaVuSans-44"/>
      <use x="77.001953" xlink:href="#DejaVuSans-53"/>
      <use x="140.478516" xlink:href="#DejaVuSans-4c"/>
      <use x="196.191406" xlink:href="#DejaVuSans-50"/>
      <use x="256.494141" xlink:href="#DejaVuSans-49"/>
      <use x="285.986328" xlink:href="#DejaVuSans-44"/>
     </g>
    </g>
    <g id="line2d_32">
     <path d="M 468.235937 38.576563 
L 488.235937 38.576563 
" style="fill:none;stroke:#d62728;stroke-linecap:square;stroke-opacity:0.7;stroke-width:1.5;"/>
    </g>
    <g id="line2d_33"/>
    <g id="text_24">
     <!-- LSTMCNN_1 -->
     <g transform="translate(496.235937 42.076563)scale(0.1 -0.1)">
      <defs>
       <path d="M -19 4666 
L 3928 4666 
L 3928 4134 
L 2272 4134 
L 2272 0 
L 1638 0 
L 1638 4134 
L -19 4134 
L -19 4666 
z
" id="DejaVuSans-54" transform="scale(0.015625)"/>
       <path d="M 628 4666 
L 1569 4666 
L 2759 1491 
L 3956 4666 
L 4897 4666 
L 4897 0 
L 4281 0 
L 4281 4097 
L 3078 897 
L 2444 897 
L 1241 4097 
L 1241 0 
L 628 0 
L 628 4666 
z
" id="DejaVuSans-4d" transform="scale(0.015625)"/>
       <path d="M 4122 4306 
L 4122 3641 
Q 3803 3938 3442 4084 
Q 3081 4231 2675 4231 
Q 1875 4231 1450 3742 
Q 1025 3253 1025 2328 
Q 1025 1406 1450 917 
Q 1875 428 2675 428 
Q 3081 428 3442 575 
Q 3803 722 4122 1019 
L 4122 359 
Q 3791 134 3420 21 
Q 3050 -91 2638 -91 
Q 1578 -91 968 557 
Q 359 1206 359 2328 
Q 359 3453 968 4101 
Q 1578 4750 2638 4750 
Q 3056 4750 3426 4639 
Q 3797 4528 4122 4306 
z
" id="DejaVuSans-43" transform="scale(0.015625)"/>
       <path d="M 628 4666 
L 1478 4666 
L 3547 763 
L 3547 4666 
L 4159 4666 
L 4159 0 
L 3309 0 
L 1241 3903 
L 1241 0 
L 628 0 
L 628 4666 
z
" id="DejaVuSans-4e" transform="scale(0.015625)"/>
       <path d="M 3263 -1063 
L 3263 -1509 
L -63 -1509 
L -63 -1063 
L 3263 -1063 
z
" id="DejaVuSans-5f" transform="scale(0.015625)"/>
      </defs>
      <use xlink:href="#DejaVuSans-4c"/>
      <use x="55.712891" xlink:href="#DejaVuSans-53"/>
      <use x="119.189453" xlink:href="#DejaVuSans-54"/>
      <use x="180.273438" xlink:href="#DejaVuSans-4d"/>
      <use x="266.552734" xlink:href="#DejaVuSans-43"/>
      <use x="336.376953" xlink:href="#DejaVuSans-4e"/>
      <use x="411.181641" xlink:href="#DejaVuSans-4e"/>
      <use x="485.986328" xlink:href="#DejaVuSans-5f"/>
      <use x="535.986328" xlink:href="#DejaVuSans-31"/>
     </g>
    </g>
    <g id="line2d_34">
     <path d="M 468.235937 53.532813 
L 488.235937 53.532813 
" style="fill:none;stroke:#9467bd;stroke-linecap:square;stroke-opacity:0.7;stroke-width:1.5;"/>
    </g>
    <g id="line2d_35"/>
    <g id="text_25">
     <!-- LSTMCNN_2 -->
     <g transform="translate(496.235937 57.032813)scale(0.1 -0.1)">
      <use xlink:href="#DejaVuSans-4c"/>
      <use x="55.712891" xlink:href="#DejaVuSans-53"/>
      <use x="119.189453" xlink:href="#DejaVuSans-54"/>
      <use x="180.273438" xlink:href="#DejaVuSans-4d"/>
      <use x="266.552734" xlink:href="#DejaVuSans-43"/>
      <use x="336.376953" xlink:href="#DejaVuSans-4e"/>
      <use x="411.181641" xlink:href="#DejaVuSans-4e"/>
      <use x="485.986328" xlink:href="#DejaVuSans-5f"/>
      <use x="535.986328" xlink:href="#DejaVuSans-32"/>
     </g>
    </g>
    <g id="line2d_36">
     <path d="M 468.235937 68.489063 
L 488.235937 68.489063 
" style="fill:none;stroke:#bcbd22;stroke-linecap:square;stroke-opacity:0.7;stroke-width:1.5;"/>
    </g>
    <g id="line2d_37"/>
    <g id="text_26">
     <!-- LSTMCNN_3 -->
     <g transform="translate(496.235937 71.989063)scale(0.1 -0.1)">
      <defs>
       <path d="M 2597 2516 
Q 3050 2419 3304 2112 
Q 3559 1806 3559 1356 
Q 3559 666 3084 287 
Q 2609 -91 1734 -91 
Q 1441 -91 1130 -33 
Q 819 25 488 141 
L 488 750 
Q 750 597 1062 519 
Q 1375 441 1716 441 
Q 2309 441 2620 675 
Q 2931 909 2931 1356 
Q 2931 1769 2642 2001 
Q 2353 2234 1838 2234 
L 1294 2234 
L 1294 2753 
L 1863 2753 
Q 2328 2753 2575 2939 
Q 2822 3125 2822 3475 
Q 2822 3834 2567 4026 
Q 2313 4219 1838 4219 
Q 1578 4219 1281 4162 
Q 984 4106 628 3988 
L 628 4550 
Q 988 4650 1302 4700 
Q 1616 4750 1894 4750 
Q 2613 4750 3031 4423 
Q 3450 4097 3450 3541 
Q 3450 3153 3228 2886 
Q 3006 2619 2597 2516 
z
" id="DejaVuSans-33" transform="scale(0.015625)"/>
      </defs>
      <use xlink:href="#DejaVuSans-4c"/>
      <use x="55.712891" xlink:href="#DejaVuSans-53"/>
      <use x="119.189453" xlink:href="#DejaVuSans-54"/>
      <use x="180.273438" xlink:href="#DejaVuSans-4d"/>
      <use x="266.552734" xlink:href="#DejaVuSans-43"/>
      <use x="336.376953" xlink:href="#DejaVuSans-4e"/>
      <use x="411.181641" xlink:href="#DejaVuSans-4e"/>
      <use x="485.986328" xlink:href="#DejaVuSans-5f"/>
      <use x="535.986328" xlink:href="#DejaVuSans-33"/>
     </g>
    </g>
    <g id="line2d_38">
     <path d="M 468.235937 83.445313 
L 488.235937 83.445313 
" style="fill:none;stroke:#2ca02c;stroke-linecap:square;stroke-opacity:0.7;stroke-width:1.5;"/>
    </g>
    <g id="line2d_39"/>
    <g id="text_27">
     <!-- LSTMCNN_4 -->
     <g transform="translate(496.235937 86.945313)scale(0.1 -0.1)">
      <use xlink:href="#DejaVuSans-4c"/>
      <use x="55.712891" xlink:href="#DejaVuSans-53"/>
      <use x="119.189453" xlink:href="#DejaVuSans-54"/>
      <use x="180.273438" xlink:href="#DejaVuSans-4d"/>
      <use x="266.552734" xlink:href="#DejaVuSans-43"/>
      <use x="336.376953" xlink:href="#DejaVuSans-4e"/>
      <use x="411.181641" xlink:href="#DejaVuSans-4e"/>
      <use x="485.986328" xlink:href="#DejaVuSans-5f"/>
      <use x="535.986328" xlink:href="#DejaVuSans-34"/>
     </g>
    </g>
    <g id="line2d_40">
     <path d="M 468.235937 98.401563 
L 488.235937 98.401563 
" style="fill:none;stroke:#17becf;stroke-linecap:square;stroke-opacity:0.7;stroke-width:1.5;"/>
    </g>
    <g id="line2d_41"/>
    <g id="text_28">
     <!-- LSTMCNN_5 -->
     <g transform="translate(496.235937 101.901563)scale(0.1 -0.1)">
      <use xlink:href="#DejaVuSans-4c"/>
      <use x="55.712891" xlink:href="#DejaVuSans-53"/>
      <use x="119.189453" xlink:href="#DejaVuSans-54"/>
      <use x="180.273438" xlink:href="#DejaVuSans-4d"/>
      <use x="266.552734" xlink:href="#DejaVuSans-43"/>
      <use x="336.376953" xlink:href="#DejaVuSans-4e"/>
      <use x="411.181641" xlink:href="#DejaVuSans-4e"/>
      <use x="485.986328" xlink:href="#DejaVuSans-5f"/>
      <use x="535.986328" xlink:href="#DejaVuSans-35"/>
     </g>
    </g>
    <g id="line2d_42">
     <path d="M 468.235937 113.357813 
L 488.235937 113.357813 
" style="fill:none;stroke:#000000;stroke-dasharray:5.55,2.4;stroke-dashoffset:0;stroke-opacity:0.595;stroke-width:1.5;"/>
    </g>
    <g id="line2d_43"/>
    <g id="text_29">
     <!-- Referencia -->
     <g transform="translate(496.235937 116.857813)scale(0.1 -0.1)">
      <defs>
       <path d="M 2841 2188 
Q 3044 2119 3236 1894 
Q 3428 1669 3622 1275 
L 4263 0 
L 3584 0 
L 2988 1197 
Q 2756 1666 2539 1819 
Q 2322 1972 1947 1972 
L 1259 1972 
L 1259 0 
L 628 0 
L 628 4666 
L 2053 4666 
Q 2853 4666 3247 4331 
Q 3641 3997 3641 3322 
Q 3641 2881 3436 2590 
Q 3231 2300 2841 2188 
z
M 1259 4147 
L 1259 2491 
L 2053 2491 
Q 2509 2491 2742 2702 
Q 2975 2913 2975 3322 
Q 2975 3731 2742 3939 
Q 2509 4147 2053 4147 
L 1259 4147 
z
" id="DejaVuSans-52" transform="scale(0.015625)"/>
       <path d="M 3597 1894 
L 3597 1613 
L 953 1613 
Q 991 1019 1311 708 
Q 1631 397 2203 397 
Q 2534 397 2845 478 
Q 3156 559 3463 722 
L 3463 178 
Q 3153 47 2828 -22 
Q 2503 -91 2169 -91 
Q 1331 -91 842 396 
Q 353 884 353 1716 
Q 353 2575 817 3079 
Q 1281 3584 2069 3584 
Q 2775 3584 3186 3129 
Q 3597 2675 3597 1894 
z
M 3022 2063 
Q 3016 2534 2758 2815 
Q 2500 3097 2075 3097 
Q 1594 3097 1305 2825 
Q 1016 2553 972 2059 
L 3022 2063 
z
" id="DejaVuSans-65" transform="scale(0.015625)"/>
       <path d="M 2375 4863 
L 2375 4384 
L 1825 4384 
Q 1516 4384 1395 4259 
Q 1275 4134 1275 3809 
L 1275 3500 
L 2222 3500 
L 2222 3053 
L 1275 3053 
L 1275 0 
L 697 0 
L 697 3053 
L 147 3053 
L 147 3500 
L 697 3500 
L 697 3744 
Q 697 4328 969 4595 
Q 1241 4863 1831 4863 
L 2375 4863 
z
" id="DejaVuSans-66" transform="scale(0.015625)"/>
       <path d="M 2631 2963 
Q 2534 3019 2420 3045 
Q 2306 3072 2169 3072 
Q 1681 3072 1420 2755 
Q 1159 2438 1159 1844 
L 1159 0 
L 581 0 
L 581 3500 
L 1159 3500 
L 1159 2956 
Q 1341 3275 1631 3429 
Q 1922 3584 2338 3584 
Q 2397 3584 2469 3576 
Q 2541 3569 2628 3553 
L 2631 2963 
z
" id="DejaVuSans-72" transform="scale(0.015625)"/>
       <path d="M 3513 2113 
L 3513 0 
L 2938 0 
L 2938 2094 
Q 2938 2591 2744 2837 
Q 2550 3084 2163 3084 
Q 1697 3084 1428 2787 
Q 1159 2491 1159 1978 
L 1159 0 
L 581 0 
L 581 3500 
L 1159 3500 
L 1159 2956 
Q 1366 3272 1645 3428 
Q 1925 3584 2291 3584 
Q 2894 3584 3203 3211 
Q 3513 2838 3513 2113 
z
" id="DejaVuSans-6e" transform="scale(0.015625)"/>
       <path d="M 3122 3366 
L 3122 2828 
Q 2878 2963 2633 3030 
Q 2388 3097 2138 3097 
Q 1578 3097 1268 2742 
Q 959 2388 959 1747 
Q 959 1106 1268 751 
Q 1578 397 2138 397 
Q 2388 397 2633 464 
Q 2878 531 3122 666 
L 3122 134 
Q 2881 22 2623 -34 
Q 2366 -91 2075 -91 
Q 1284 -91 818 406 
Q 353 903 353 1747 
Q 353 2603 823 3093 
Q 1294 3584 2113 3584 
Q 2378 3584 2631 3529 
Q 2884 3475 3122 3366 
z
" id="DejaVuSans-63" transform="scale(0.015625)"/>
       <path d="M 603 3500 
L 1178 3500 
L 1178 0 
L 603 0 
L 603 3500 
z
M 603 4863 
L 1178 4863 
L 1178 4134 
L 603 4134 
L 603 4863 
z
" id="DejaVuSans-69" transform="scale(0.015625)"/>
       <path d="M 2194 1759 
Q 1497 1759 1228 1600 
Q 959 1441 959 1056 
Q 959 750 1161 570 
Q 1363 391 1709 391 
Q 2188 391 2477 730 
Q 2766 1069 2766 1631 
L 2766 1759 
L 2194 1759 
z
M 3341 1997 
L 3341 0 
L 2766 0 
L 2766 531 
Q 2569 213 2275 61 
Q 1981 -91 1556 -91 
Q 1019 -91 701 211 
Q 384 513 384 1019 
Q 384 1609 779 1909 
Q 1175 2209 1959 2209 
L 2766 2209 
L 2766 2266 
Q 2766 2663 2505 2880 
Q 2244 3097 1772 3097 
Q 1472 3097 1187 3025 
Q 903 2953 641 2809 
L 641 3341 
Q 956 3463 1253 3523 
Q 1550 3584 1831 3584 
Q 2591 3584 2966 3190 
Q 3341 2797 3341 1997 
z
" id="DejaVuSans-61" transform="scale(0.015625)"/>
      </defs>
      <use xlink:href="#DejaVuSans-52"/>
      <use x="64.982422" xlink:href="#DejaVuSans-65"/>
      <use x="126.505859" xlink:href="#DejaVuSans-66"/>
      <use x="161.710938" xlink:href="#DejaVuSans-65"/>
      <use x="223.234375" xlink:href="#DejaVuSans-72"/>
      <use x="262.097656" xlink:href="#DejaVuSans-65"/>
      <use x="323.621094" xlink:href="#DejaVuSans-6e"/>
      <use x="387" xlink:href="#DejaVuSans-63"/>
      <use x="441.980469" xlink:href="#DejaVuSans-69"/>
      <use x="469.763672" xlink:href="#DejaVuSans-61"/>
     </g>
    </g>
   </g>
  </g>
 </g>
 <defs>
  <clipPath id="pa1f1747943">
   <rect height="554.4" width="554.4" x="10.8" y="10.8"/>
  </clipPath>
 </defs>
</svg>
