<?xml version="1.0" encoding="utf-8" standalone="no"?>
<!DOCTYPE svg PUBLIC "-//W3C//DTD SVG 1.1//EN"
  "http://www.w3.org/Graphics/SVG/1.1/DTD/svg11.dtd">
<svg height="576pt" version="1.1" viewBox="0 0 576 576" width="576pt" xmlns="http://www.w3.org/2000/svg" xmlns:xlink="http://www.w3.org/1999/xlink">
 <metadata>
  <rdf:RDF xmlns:cc="http://creativecommons.org/ns#" xmlns:dc="http://purl.org/dc/elements/1.1/" xmlns:rdf="http://www.w3.org/1999/02/22-rdf-syntax-ns#">
   <cc:Work>
    <dc:type rdf:resource="http://purl.org/dc/dcmitype/StillImage"/>
    <dc:date>2022-02-27T16:23:05.198972</dc:date>
    <dc:format>image/svg+xml</dc:format>
    <dc:creator>
     <cc:Agent>
      <dc:title>Matplotlib v3.4.3, https://matplotlib.org/</dc:title>
     </cc:Agent>
    </dc:creator>
   </cc:Work>
  </rdf:RDF>
 </metadata>
 <defs>
  <style type="text/css">*{stroke-linecap:butt;stroke-linejoin:round;}</style>
 </defs>
 <g id="figure_1">
  <g id="patch_1">
   <path d="M 0 576 
L 576 576 
L 576 0 
L 0 0 
z
" style="fill:#ffffff;"/>
  </g>
  <g id="axes_1">
   <g id="patch_2">
    <path d="M 71.89 259.26 
L 256.95 259.26 
L 256.95 55.68 
L 71.89 55.68 
z
" style="fill:#ffffff;"/>
   </g>
   <g id="matplotlib.axis_1">
    <g id="xtick_1">
     <g id="line2d_1">
      <path clip-path="url(#p835f950b38)" d="M 80.301818 259.26 
L 80.301818 55.68 
" style="fill:none;stroke:#b0b0b0;stroke-linecap:square;stroke-width:0.8;"/>
     </g>
     <g id="line2d_2">
      <defs>
       <path d="M 0 0 
L 0 3.5 
" id="m91beb06971" style="stroke:#000000;stroke-width:0.8;"/>
      </defs>
      <g>
       <use style="stroke:#000000;stroke-width:0.8;" x="80.301818" xlink:href="#m91beb06971" y="259.26"/>
      </g>
     </g>
    </g>
    <g id="xtick_2">
     <g id="line2d_3">
      <path clip-path="url(#p835f950b38)" d="M 122.369673 259.26 
L 122.369673 55.68 
" style="fill:none;stroke:#b0b0b0;stroke-linecap:square;stroke-width:0.8;"/>
     </g>
     <g id="line2d_4">
      <g>
       <use style="stroke:#000000;stroke-width:0.8;" x="122.369673" xlink:href="#m91beb06971" y="259.26"/>
      </g>
     </g>
    </g>
    <g id="xtick_3">
     <g id="line2d_5">
      <path clip-path="url(#p835f950b38)" d="M 164.437528 259.26 
L 164.437528 55.68 
" style="fill:none;stroke:#b0b0b0;stroke-linecap:square;stroke-width:0.8;"/>
     </g>
     <g id="line2d_6">
      <g>
       <use style="stroke:#000000;stroke-width:0.8;" x="164.437528" xlink:href="#m91beb06971" y="259.26"/>
      </g>
     </g>
    </g>
    <g id="xtick_4">
     <g id="line2d_7">
      <path clip-path="url(#p835f950b38)" d="M 206.505383 259.26 
L 206.505383 55.68 
" style="fill:none;stroke:#b0b0b0;stroke-linecap:square;stroke-width:0.8;"/>
     </g>
     <g id="line2d_8">
      <g>
       <use style="stroke:#000000;stroke-width:0.8;" x="206.505383" xlink:href="#m91beb06971" y="259.26"/>
      </g>
     </g>
    </g>
    <g id="xtick_5">
     <g id="line2d_9">
      <path clip-path="url(#p835f950b38)" d="M 248.573238 259.26 
L 248.573238 55.68 
" style="fill:none;stroke:#b0b0b0;stroke-linecap:square;stroke-width:0.8;"/>
     </g>
     <g id="line2d_10">
      <g>
       <use style="stroke:#000000;stroke-width:0.8;" x="248.573238" xlink:href="#m91beb06971" y="259.26"/>
      </g>
     </g>
    </g>
    <g id="text_1">
     <!-- Tiempo (s) -->
     <g transform="translate(137.8575 270.858438)scale(0.1 -0.1)">
      <defs>
       <path d="M -19 4666 
L 3928 4666 
L 3928 4134 
L 2272 4134 
L 2272 0 
L 1638 0 
L 1638 4134 
L -19 4134 
L -19 4666 
z
" id="DejaVuSans-54" transform="scale(0.015625)"/>
       <path d="M 603 3500 
L 1178 3500 
L 1178 0 
L 603 0 
L 603 3500 
z
M 603 4863 
L 1178 4863 
L 1178 4134 
L 603 4134 
L 603 4863 
z
" id="DejaVuSans-69" transform="scale(0.015625)"/>
       <path d="M 3597 1894 
L 3597 1613 
L 953 1613 
Q 991 1019 1311 708 
Q 1631 397 2203 397 
Q 2534 397 2845 478 
Q 3156 559 3463 722 
L 3463 178 
Q 3153 47 2828 -22 
Q 2503 -91 2169 -91 
Q 1331 -91 842 396 
Q 353 884 353 1716 
Q 353 2575 817 3079 
Q 1281 3584 2069 3584 
Q 2775 3584 3186 3129 
Q 3597 2675 3597 1894 
z
M 3022 2063 
Q 3016 2534 2758 2815 
Q 2500 3097 2075 3097 
Q 1594 3097 1305 2825 
Q 1016 2553 972 2059 
L 3022 2063 
z
" id="DejaVuSans-65" transform="scale(0.015625)"/>
       <path d="M 3328 2828 
Q 3544 3216 3844 3400 
Q 4144 3584 4550 3584 
Q 5097 3584 5394 3201 
Q 5691 2819 5691 2113 
L 5691 0 
L 5113 0 
L 5113 2094 
Q 5113 2597 4934 2840 
Q 4756 3084 4391 3084 
Q 3944 3084 3684 2787 
Q 3425 2491 3425 1978 
L 3425 0 
L 2847 0 
L 2847 2094 
Q 2847 2600 2669 2842 
Q 2491 3084 2119 3084 
Q 1678 3084 1418 2786 
Q 1159 2488 1159 1978 
L 1159 0 
L 581 0 
L 581 3500 
L 1159 3500 
L 1159 2956 
Q 1356 3278 1631 3431 
Q 1906 3584 2284 3584 
Q 2666 3584 2933 3390 
Q 3200 3197 3328 2828 
z
" id="DejaVuSans-6d" transform="scale(0.015625)"/>
       <path d="M 1159 525 
L 1159 -1331 
L 581 -1331 
L 581 3500 
L 1159 3500 
L 1159 2969 
Q 1341 3281 1617 3432 
Q 1894 3584 2278 3584 
Q 2916 3584 3314 3078 
Q 3713 2572 3713 1747 
Q 3713 922 3314 415 
Q 2916 -91 2278 -91 
Q 1894 -91 1617 61 
Q 1341 213 1159 525 
z
M 3116 1747 
Q 3116 2381 2855 2742 
Q 2594 3103 2138 3103 
Q 1681 3103 1420 2742 
Q 1159 2381 1159 1747 
Q 1159 1113 1420 752 
Q 1681 391 2138 391 
Q 2594 391 2855 752 
Q 3116 1113 3116 1747 
z
" id="DejaVuSans-70" transform="scale(0.015625)"/>
       <path d="M 1959 3097 
Q 1497 3097 1228 2736 
Q 959 2375 959 1747 
Q 959 1119 1226 758 
Q 1494 397 1959 397 
Q 2419 397 2687 759 
Q 2956 1122 2956 1747 
Q 2956 2369 2687 2733 
Q 2419 3097 1959 3097 
z
M 1959 3584 
Q 2709 3584 3137 3096 
Q 3566 2609 3566 1747 
Q 3566 888 3137 398 
Q 2709 -91 1959 -91 
Q 1206 -91 779 398 
Q 353 888 353 1747 
Q 353 2609 779 3096 
Q 1206 3584 1959 3584 
z
" id="DejaVuSans-6f" transform="scale(0.015625)"/>
       <path id="DejaVuSans-20" transform="scale(0.015625)"/>
       <path d="M 1984 4856 
Q 1566 4138 1362 3434 
Q 1159 2731 1159 2009 
Q 1159 1288 1364 580 
Q 1569 -128 1984 -844 
L 1484 -844 
Q 1016 -109 783 600 
Q 550 1309 550 2009 
Q 550 2706 781 3412 
Q 1013 4119 1484 4856 
L 1984 4856 
z
" id="DejaVuSans-28" transform="scale(0.015625)"/>
       <path d="M 2834 3397 
L 2834 2853 
Q 2591 2978 2328 3040 
Q 2066 3103 1784 3103 
Q 1356 3103 1142 2972 
Q 928 2841 928 2578 
Q 928 2378 1081 2264 
Q 1234 2150 1697 2047 
L 1894 2003 
Q 2506 1872 2764 1633 
Q 3022 1394 3022 966 
Q 3022 478 2636 193 
Q 2250 -91 1575 -91 
Q 1294 -91 989 -36 
Q 684 19 347 128 
L 347 722 
Q 666 556 975 473 
Q 1284 391 1588 391 
Q 1994 391 2212 530 
Q 2431 669 2431 922 
Q 2431 1156 2273 1281 
Q 2116 1406 1581 1522 
L 1381 1569 
Q 847 1681 609 1914 
Q 372 2147 372 2553 
Q 372 3047 722 3315 
Q 1072 3584 1716 3584 
Q 2034 3584 2315 3537 
Q 2597 3491 2834 3397 
z
" id="DejaVuSans-73" transform="scale(0.015625)"/>
       <path d="M 513 4856 
L 1013 4856 
Q 1481 4119 1714 3412 
Q 1947 2706 1947 2009 
Q 1947 1309 1714 600 
Q 1481 -109 1013 -844 
L 513 -844 
Q 928 -128 1133 580 
Q 1338 1288 1338 2009 
Q 1338 2731 1133 3434 
Q 928 4138 513 4856 
z
" id="DejaVuSans-29" transform="scale(0.015625)"/>
      </defs>
      <use xlink:href="#DejaVuSans-54"/>
      <use x="57.958984" xlink:href="#DejaVuSans-69"/>
      <use x="85.742188" xlink:href="#DejaVuSans-65"/>
      <use x="147.265625" xlink:href="#DejaVuSans-6d"/>
      <use x="244.677734" xlink:href="#DejaVuSans-70"/>
      <use x="308.154297" xlink:href="#DejaVuSans-6f"/>
      <use x="369.335938" xlink:href="#DejaVuSans-20"/>
      <use x="401.123047" xlink:href="#DejaVuSans-28"/>
      <use x="440.136719" xlink:href="#DejaVuSans-73"/>
      <use x="492.236328" xlink:href="#DejaVuSans-29"/>
     </g>
    </g>
   </g>
   <g id="matplotlib.axis_2">
    <g id="ytick_1">
     <g id="line2d_11">
      <path clip-path="url(#p835f950b38)" d="M 71.89 250.006364 
L 256.95 250.006364 
" style="fill:none;stroke:#b0b0b0;stroke-linecap:square;stroke-width:0.8;"/>
     </g>
     <g id="line2d_12">
      <defs>
       <path d="M 0 0 
L -3.5 0 
" id="m6fc53d743c" style="stroke:#000000;stroke-width:0.8;"/>
      </defs>
      <g>
       <use style="stroke:#000000;stroke-width:0.8;" x="71.89" xlink:href="#m6fc53d743c" y="250.006364"/>
      </g>
     </g>
     <g id="text_2">
      <!-- 0 -->
      <g transform="translate(58.5275 253.805582)scale(0.1 -0.1)">
       <defs>
        <path d="M 2034 4250 
Q 1547 4250 1301 3770 
Q 1056 3291 1056 2328 
Q 1056 1369 1301 889 
Q 1547 409 2034 409 
Q 2525 409 2770 889 
Q 3016 1369 3016 2328 
Q 3016 3291 2770 3770 
Q 2525 4250 2034 4250 
z
M 2034 4750 
Q 2819 4750 3233 4129 
Q 3647 3509 3647 2328 
Q 3647 1150 3233 529 
Q 2819 -91 2034 -91 
Q 1250 -91 836 529 
Q 422 1150 422 2328 
Q 422 3509 836 4129 
Q 1250 4750 2034 4750 
z
" id="DejaVuSans-30" transform="scale(0.015625)"/>
       </defs>
       <use xlink:href="#DejaVuSans-30"/>
      </g>
     </g>
    </g>
    <g id="ytick_2">
     <g id="line2d_13">
      <path clip-path="url(#p835f950b38)" d="M 71.89 212.090004 
L 256.95 212.090004 
" style="fill:none;stroke:#b0b0b0;stroke-linecap:square;stroke-width:0.8;"/>
     </g>
     <g id="line2d_14">
      <g>
       <use style="stroke:#000000;stroke-width:0.8;" x="71.89" xlink:href="#m6fc53d743c" y="212.090004"/>
      </g>
     </g>
     <g id="text_3">
      <!-- 20 -->
      <g transform="translate(52.165 215.889223)scale(0.1 -0.1)">
       <defs>
        <path d="M 1228 531 
L 3431 531 
L 3431 0 
L 469 0 
L 469 531 
Q 828 903 1448 1529 
Q 2069 2156 2228 2338 
Q 2531 2678 2651 2914 
Q 2772 3150 2772 3378 
Q 2772 3750 2511 3984 
Q 2250 4219 1831 4219 
Q 1534 4219 1204 4116 
Q 875 4013 500 3803 
L 500 4441 
Q 881 4594 1212 4672 
Q 1544 4750 1819 4750 
Q 2544 4750 2975 4387 
Q 3406 4025 3406 3419 
Q 3406 3131 3298 2873 
Q 3191 2616 2906 2266 
Q 2828 2175 2409 1742 
Q 1991 1309 1228 531 
z
" id="DejaVuSans-32" transform="scale(0.015625)"/>
       </defs>
       <use xlink:href="#DejaVuSans-32"/>
       <use x="63.623047" xlink:href="#DejaVuSans-30"/>
      </g>
     </g>
    </g>
    <g id="ytick_3">
     <g id="line2d_15">
      <path clip-path="url(#p835f950b38)" d="M 71.89 174.173644 
L 256.95 174.173644 
" style="fill:none;stroke:#b0b0b0;stroke-linecap:square;stroke-width:0.8;"/>
     </g>
     <g id="line2d_16">
      <g>
       <use style="stroke:#000000;stroke-width:0.8;" x="71.89" xlink:href="#m6fc53d743c" y="174.173644"/>
      </g>
     </g>
     <g id="text_4">
      <!-- 40 -->
      <g transform="translate(52.165 177.972863)scale(0.1 -0.1)">
       <defs>
        <path d="M 2419 4116 
L 825 1625 
L 2419 1625 
L 2419 4116 
z
M 2253 4666 
L 3047 4666 
L 3047 1625 
L 3713 1625 
L 3713 1100 
L 3047 1100 
L 3047 0 
L 2419 0 
L 2419 1100 
L 313 1100 
L 313 1709 
L 2253 4666 
z
" id="DejaVuSans-34" transform="scale(0.015625)"/>
       </defs>
       <use xlink:href="#DejaVuSans-34"/>
       <use x="63.623047" xlink:href="#DejaVuSans-30"/>
      </g>
     </g>
    </g>
    <g id="ytick_4">
     <g id="line2d_17">
      <path clip-path="url(#p835f950b38)" d="M 71.89 136.257285 
L 256.95 136.257285 
" style="fill:none;stroke:#b0b0b0;stroke-linecap:square;stroke-width:0.8;"/>
     </g>
     <g id="line2d_18">
      <g>
       <use style="stroke:#000000;stroke-width:0.8;" x="71.89" xlink:href="#m6fc53d743c" y="136.257285"/>
      </g>
     </g>
     <g id="text_5">
      <!-- 60 -->
      <g transform="translate(52.165 140.056504)scale(0.1 -0.1)">
       <defs>
        <path d="M 2113 2584 
Q 1688 2584 1439 2293 
Q 1191 2003 1191 1497 
Q 1191 994 1439 701 
Q 1688 409 2113 409 
Q 2538 409 2786 701 
Q 3034 994 3034 1497 
Q 3034 2003 2786 2293 
Q 2538 2584 2113 2584 
z
M 3366 4563 
L 3366 3988 
Q 3128 4100 2886 4159 
Q 2644 4219 2406 4219 
Q 1781 4219 1451 3797 
Q 1122 3375 1075 2522 
Q 1259 2794 1537 2939 
Q 1816 3084 2150 3084 
Q 2853 3084 3261 2657 
Q 3669 2231 3669 1497 
Q 3669 778 3244 343 
Q 2819 -91 2113 -91 
Q 1303 -91 875 529 
Q 447 1150 447 2328 
Q 447 3434 972 4092 
Q 1497 4750 2381 4750 
Q 2619 4750 2861 4703 
Q 3103 4656 3366 4563 
z
" id="DejaVuSans-36" transform="scale(0.015625)"/>
       </defs>
       <use xlink:href="#DejaVuSans-36"/>
       <use x="63.623047" xlink:href="#DejaVuSans-30"/>
      </g>
     </g>
    </g>
    <g id="ytick_5">
     <g id="line2d_19">
      <path clip-path="url(#p835f950b38)" d="M 71.89 98.340925 
L 256.95 98.340925 
" style="fill:none;stroke:#b0b0b0;stroke-linecap:square;stroke-width:0.8;"/>
     </g>
     <g id="line2d_20">
      <g>
       <use style="stroke:#000000;stroke-width:0.8;" x="71.89" xlink:href="#m6fc53d743c" y="98.340925"/>
      </g>
     </g>
     <g id="text_6">
      <!-- 80 -->
      <g transform="translate(52.165 102.140144)scale(0.1 -0.1)">
       <defs>
        <path d="M 2034 2216 
Q 1584 2216 1326 1975 
Q 1069 1734 1069 1313 
Q 1069 891 1326 650 
Q 1584 409 2034 409 
Q 2484 409 2743 651 
Q 3003 894 3003 1313 
Q 3003 1734 2745 1975 
Q 2488 2216 2034 2216 
z
M 1403 2484 
Q 997 2584 770 2862 
Q 544 3141 544 3541 
Q 544 4100 942 4425 
Q 1341 4750 2034 4750 
Q 2731 4750 3128 4425 
Q 3525 4100 3525 3541 
Q 3525 3141 3298 2862 
Q 3072 2584 2669 2484 
Q 3125 2378 3379 2068 
Q 3634 1759 3634 1313 
Q 3634 634 3220 271 
Q 2806 -91 2034 -91 
Q 1263 -91 848 271 
Q 434 634 434 1313 
Q 434 1759 690 2068 
Q 947 2378 1403 2484 
z
M 1172 3481 
Q 1172 3119 1398 2916 
Q 1625 2713 2034 2713 
Q 2441 2713 2670 2916 
Q 2900 3119 2900 3481 
Q 2900 3844 2670 4047 
Q 2441 4250 2034 4250 
Q 1625 4250 1398 4047 
Q 1172 3844 1172 3481 
z
" id="DejaVuSans-38" transform="scale(0.015625)"/>
       </defs>
       <use xlink:href="#DejaVuSans-38"/>
       <use x="63.623047" xlink:href="#DejaVuSans-30"/>
      </g>
     </g>
    </g>
    <g id="ytick_6">
     <g id="line2d_21">
      <path clip-path="url(#p835f950b38)" d="M 71.89 60.424566 
L 256.95 60.424566 
" style="fill:none;stroke:#b0b0b0;stroke-linecap:square;stroke-width:0.8;"/>
     </g>
     <g id="line2d_22">
      <g>
       <use style="stroke:#000000;stroke-width:0.8;" x="71.89" xlink:href="#m6fc53d743c" y="60.424566"/>
      </g>
     </g>
     <g id="text_7">
      <!-- 100 -->
      <g transform="translate(45.8025 64.223784)scale(0.1 -0.1)">
       <defs>
        <path d="M 794 531 
L 1825 531 
L 1825 4091 
L 703 3866 
L 703 4441 
L 1819 4666 
L 2450 4666 
L 2450 531 
L 3481 531 
L 3481 0 
L 794 0 
L 794 531 
z
" id="DejaVuSans-31" transform="scale(0.015625)"/>
       </defs>
       <use xlink:href="#DejaVuSans-31"/>
       <use x="63.623047" xlink:href="#DejaVuSans-30"/>
       <use x="127.246094" xlink:href="#DejaVuSans-30"/>
      </g>
     </g>
    </g>
   </g>
   <g id="line2d_23">
    <path clip-path="url(#p835f950b38)" d="M 80.301818 250.006364 
L 122.509899 250.006364 
L 124.998914 237.153319 
L 125.945441 233.453885 
L 126.716685 231.277202 
L 127.382759 229.997047 
L 128.013777 229.222902 
L 128.679851 228.757484 
L 129.416039 228.518168 
L 130.537848 228.419505 
L 135.235426 228.166775 
L 136.672744 227.928836 
L 138.811193 227.313604 
L 144.595523 225.619804 
L 155.1826 222.617059 
L 162.684701 220.753467 
L 170.71265 218.989496 
L 179.231391 217.34799 
L 188.346093 215.821016 
L 198.126869 214.41059 
L 208.713946 213.111723 
L 220.247549 211.924436 
L 232.902962 210.84909 
L 246.925581 209.884701 
L 248.538182 209.786947 
L 248.538182 209.786947 
" style="fill:none;stroke:#1f77b4;stroke-linecap:square;stroke-opacity:0.7;stroke-width:1.5;"/>
   </g>
   <g id="line2d_24">
    <path clip-path="url(#p835f950b38)" d="M 80.301818 250.006364 
L 86.121205 249.895601 
L 89.136068 249.562408 
L 92.641722 248.937444 
L 96.007151 248.103929 
L 99.933484 246.907924 
L 103.614421 245.574849 
L 106.313775 244.369887 
L 108.522338 243.153838 
L 110.941239 241.55516 
L 113.885989 239.322243 
L 118.478397 235.558359 
L 122.509899 232.156034 
L 125.209253 215.978212 
L 126.15578 211.675431 
L 126.927024 209.129248 
L 127.593099 207.626488 
L 128.224116 206.71835 
L 128.820078 206.221382 
L 129.486152 205.953903 
L 130.432679 205.844612 
L 132.255619 205.656623 
L 134.07856 205.160449 
L 135.656104 204.830129 
L 140.423794 204.185141 
L 143.368544 203.725263 
L 146.628803 203.453039 
L 152.34302 203.082033 
L 155.743505 202.467267 
L 159.494555 201.569795 
L 163.80651 200.29205 
L 172.53559 197.425464 
L 175.550453 196.239074 
L 178.004412 195.030151 
L 180.423313 193.584458 
L 183.052554 191.743378 
L 186.523152 189.018629 
L 190.519598 185.598501 
L 198.757887 178.415591 
L 201.036562 176.854568 
L 204.822669 174.590074 
L 214.568389 168.737923 
L 237.705709 153.960157 
L 248.538182 147.127393 
L 248.538182 147.127393 
" style="fill:none;stroke:#d62728;stroke-linecap:square;stroke-opacity:0.7;stroke-width:1.5;"/>
   </g>
   <g id="line2d_25">
    <path clip-path="url(#p835f950b38)" d="M 80.301818 250.006364 
L 83.386794 249.901089 
L 84.403434 249.614654 
L 85.66547 249.003824 
L 88.364824 247.645468 
L 91.029121 246.715648 
L 92.817005 245.928618 
L 94.885341 244.74679 
L 98.005374 242.68859 
L 100.844954 240.556145 
L 105.402305 236.786011 
L 122.544956 222.288495 
L 125.13914 206.797612 
L 126.050611 202.698615 
L 126.786798 200.313683 
L 127.452872 198.87033 
L 128.048834 198.078235 
L 128.644795 197.653064 
L 129.275813 197.477522 
L 131.203923 197.36881 
L 132.921694 197.218972 
L 139.75772 195.869276 
L 141.545604 195.213815 
L 143.859336 194.107195 
L 147.400047 192.150558 
L 153.955621 188.201308 
L 166.9616 180.49577 
L 214.603445 152.284184 
L 248.538182 132.181007 
L 248.538182 132.181007 
" style="fill:none;stroke:#9467bd;stroke-linecap:square;stroke-opacity:0.7;stroke-width:1.5;"/>
   </g>
   <g id="line2d_26">
    <path clip-path="url(#p835f950b38)" d="M 80.301818 250.006364 
L 85.314904 249.897056 
L 95.165794 249.190996 
L 99.653032 248.860952 
L 101.966764 248.609263 
L 107.435585 248.350089 
L 111.326861 248.013134 
L 119.775489 247.64857 
L 122.509899 247.443245 
L 124.893745 235.092643 
L 125.840271 231.350416 
L 126.576459 229.269441 
L 127.207477 228.085821 
L 127.803438 227.419631 
L 128.364343 227.106503 
L 129.030417 226.996001 
L 131.484375 226.839897 
L 133.06192 226.470789 
L 134.218786 226.313794 
L 135.200369 226.202385 
L 136.322178 225.822777 
L 138.390515 225.083384 
L 139.407155 224.995136 
L 140.599077 224.84299 
L 142.492131 224.591105 
L 143.50877 224.478129 
L 144.805863 224.082966 
L 146.593746 223.56144 
L 147.820726 223.48058 
L 149.2931 223.251138 
L 150.870645 223.065245 
L 152.167737 222.943477 
L 155.778561 222.374698 
L 157.250936 222.169675 
L 159.179046 221.930205 
L 160.651421 221.803232 
L 163.420888 221.44488 
L 164.647868 221.287064 
L 167.592617 220.788806 
L 168.78454 220.669315 
L 172.220081 220.162275 
L 173.727513 219.997867 
L 176.076302 219.737434 
L 177.723959 219.618006 
L 180.808935 219.311917 
L 182.912328 219.184951 
L 191.396012 218.696858 
L 193.84997 218.525028 
L 197.285512 218.132106 
L 200.054979 217.998168 
L 202.929616 217.778066 
L 206.049648 217.382766 
L 213.23624 216.975975 
L 216.496499 216.809873 
L 219.230909 216.575496 
L 222.350942 216.300288 
L 227.153689 216.095887 
L 231.535757 215.611839 
L 237.039635 215.303793 
L 240.825742 214.935179 
L 248.538182 214.428685 
L 248.538182 214.428685 
" style="fill:none;stroke:#bcbd22;stroke-linecap:square;stroke-opacity:0.7;stroke-width:1.5;"/>
   </g>
   <g id="line2d_27">
    <path clip-path="url(#p835f950b38)" d="M 80.301818 250.006364 
L 83.421851 249.897251 
L 84.333321 249.625283 
L 85.209735 249.12394 
L 86.191318 248.287008 
L 87.803919 246.555283 
L 89.556746 244.784111 
L 90.888895 243.761672 
L 93.167571 242.384106 
L 94.534776 241.376175 
L 96.147377 239.870485 
L 98.741561 237.449008 
L 100.354162 236.2904 
L 102.492612 234.763156 
L 103.754647 233.538831 
L 105.822984 231.142785 
L 107.645924 229.192038 
L 109.328638 227.747206 
L 111.361918 225.980904 
L 112.694067 224.48779 
L 115.428477 220.943087 
L 117.041078 219.115711 
L 119.144471 217.123525 
L 120.932355 215.303316 
L 122.509899 213.388827 
L 125.454649 194.416736 
L 128.925247 174.627736 
L 129.591322 172.258934 
L 130.082113 171.233561 
L 130.467735 170.887645 
L 131.063697 170.602043 
L 131.449319 170.0138 
L 132.010223 168.694804 
L 134.008446 163.522262 
L 134.429125 163.128125 
L 135.550934 162.490639 
L 136.497461 161.198594 
L 137.443988 160.054418 
L 138.075006 159.624399 
L 138.600854 159.531393 
L 139.091646 159.361724 
L 139.65255 158.894639 
L 140.564021 157.766631 
L 141.405378 156.857658 
L 141.896169 156.612116 
L 142.737526 156.342084 
L 143.298431 155.784119 
L 144.174845 154.531072 
L 145.787446 152.215671 
L 146.55869 151.503531 
L 147.224764 151.174272 
L 147.925895 151.08402 
L 148.872422 150.939984 
L 150.204571 150.753094 
L 151.010871 150.619738 
L 151.852228 150.244997 
L 153.009094 149.459838 
L 155.883731 147.41357 
L 157.180823 146.848549 
L 159.354329 145.953112 
L 160.546252 145.159109 
L 162.754814 143.339312 
L 164.647868 141.91902 
L 166.295525 140.98093 
L 168.188579 139.874059 
L 169.660954 138.71081 
L 173.447061 135.591336 
L 175.410227 134.388391 
L 177.022828 133.298649 
L 178.600373 131.922377 
L 181.825575 129.0566 
L 183.718629 127.746946 
L 185.506512 126.438872 
L 186.943831 125.075154 
L 190.940277 121.11119 
L 194.726384 117.81487 
L 196.374042 115.846961 
L 199.213622 112.451638 
L 201.387128 110.296069 
L 203.139955 108.429916 
L 204.717499 106.392276 
L 208.819115 100.914473 
L 213.411523 95.369899 
L 216.812008 90.845395 
L 217.583252 90.260979 
L 218.284383 89.988625 
L 219.12574 89.917846 
L 221.614755 89.643091 
L 222.385999 89.331621 
L 223.192299 88.757045 
L 224.243996 87.704811 
L 228.836403 82.734078 
L 231.430587 80.169382 
L 235.041412 76.523177 
L 236.969522 74.959834 
L 239.037858 73.236976 
L 244.822188 67.998388 
L 247.381316 66.054988 
L 248.538182 64.933636 
L 248.538182 64.933636 
" style="fill:none;stroke:#2ca02c;stroke-linecap:square;stroke-opacity:0.7;stroke-width:1.5;"/>
   </g>
   <g id="line2d_28">
    <path clip-path="url(#p835f950b38)" d="M 80.301818 250.006364 
L 83.947699 249.899927 
L 85.314904 249.600766 
L 87.102788 248.952049 
L 90.959008 247.5281 
L 104.000043 243.29174 
L 122.509899 237.196188 
L 125.033971 224.935098 
L 126.015554 221.305161 
L 126.821855 219.127215 
L 127.522985 217.812399 
L 128.18906 216.991126 
L 128.890191 216.47367 
L 129.696491 216.171646 
L 130.888414 215.995952 
L 136.427348 215.374118 
L 138.039949 214.735866 
L 197.565964 188.124926 
L 248.538182 165.273788 
L 248.538182 165.273788 
" style="fill:none;stroke:#17becf;stroke-linecap:square;stroke-opacity:0.7;stroke-width:1.5;"/>
   </g>
   <g id="patch_3">
    <path d="M 71.89 259.26 
L 71.89 55.68 
" style="fill:none;stroke:#000000;stroke-linecap:square;stroke-linejoin:miter;stroke-width:0.8;"/>
   </g>
   <g id="patch_4">
    <path d="M 256.95 259.26 
L 256.95 55.68 
" style="fill:none;stroke:#000000;stroke-linecap:square;stroke-linejoin:miter;stroke-width:0.8;"/>
   </g>
   <g id="patch_5">
    <path d="M 71.89 259.26 
L 256.95 259.26 
" style="fill:none;stroke:#000000;stroke-linecap:square;stroke-linejoin:miter;stroke-width:0.8;"/>
   </g>
   <g id="patch_6">
    <path d="M 71.89 55.68 
L 256.95 55.68 
" style="fill:none;stroke:#000000;stroke-linecap:square;stroke-linejoin:miter;stroke-width:0.8;"/>
   </g>
   <g id="text_8">
    <!-- x (m) -->
    <g transform="translate(148.435625 49.68)scale(0.12 -0.12)">
     <defs>
      <path d="M 3513 3500 
L 2247 1797 
L 3578 0 
L 2900 0 
L 1881 1375 
L 863 0 
L 184 0 
L 1544 1831 
L 300 3500 
L 978 3500 
L 1906 2253 
L 2834 3500 
L 3513 3500 
z
" id="DejaVuSans-78" transform="scale(0.015625)"/>
     </defs>
     <use xlink:href="#DejaVuSans-78"/>
     <use x="59.179688" xlink:href="#DejaVuSans-20"/>
     <use x="90.966797" xlink:href="#DejaVuSans-28"/>
     <use x="129.980469" xlink:href="#DejaVuSans-6d"/>
     <use x="227.392578" xlink:href="#DejaVuSans-29"/>
    </g>
   </g>
  </g>
  <g id="axes_2">
   <g id="patch_7">
    <path d="M 293.74 259.26 
L 478.8 259.26 
L 478.8 55.68 
L 293.74 55.68 
z
" style="fill:#ffffff;"/>
   </g>
   <g id="matplotlib.axis_3">
    <g id="xtick_6">
     <g id="line2d_29">
      <path clip-path="url(#p4d6134d55d)" d="M 302.151818 259.26 
L 302.151818 55.68 
" style="fill:none;stroke:#b0b0b0;stroke-linecap:square;stroke-width:0.8;"/>
     </g>
     <g id="line2d_30">
      <g>
       <use style="stroke:#000000;stroke-width:0.8;" x="302.151818" xlink:href="#m91beb06971" y="259.26"/>
      </g>
     </g>
    </g>
    <g id="xtick_7">
     <g id="line2d_31">
      <path clip-path="url(#p4d6134d55d)" d="M 344.219673 259.26 
L 344.219673 55.68 
" style="fill:none;stroke:#b0b0b0;stroke-linecap:square;stroke-width:0.8;"/>
     </g>
     <g id="line2d_32">
      <g>
       <use style="stroke:#000000;stroke-width:0.8;" x="344.219673" xlink:href="#m91beb06971" y="259.26"/>
      </g>
     </g>
    </g>
    <g id="xtick_8">
     <g id="line2d_33">
      <path clip-path="url(#p4d6134d55d)" d="M 386.287528 259.26 
L 386.287528 55.68 
" style="fill:none;stroke:#b0b0b0;stroke-linecap:square;stroke-width:0.8;"/>
     </g>
     <g id="line2d_34">
      <g>
       <use style="stroke:#000000;stroke-width:0.8;" x="386.287528" xlink:href="#m91beb06971" y="259.26"/>
      </g>
     </g>
    </g>
    <g id="xtick_9">
     <g id="line2d_35">
      <path clip-path="url(#p4d6134d55d)" d="M 428.355383 259.26 
L 428.355383 55.68 
" style="fill:none;stroke:#b0b0b0;stroke-linecap:square;stroke-width:0.8;"/>
     </g>
     <g id="line2d_36">
      <g>
       <use style="stroke:#000000;stroke-width:0.8;" x="428.355383" xlink:href="#m91beb06971" y="259.26"/>
      </g>
     </g>
    </g>
    <g id="xtick_10">
     <g id="line2d_37">
      <path clip-path="url(#p4d6134d55d)" d="M 470.423238 259.26 
L 470.423238 55.68 
" style="fill:none;stroke:#b0b0b0;stroke-linecap:square;stroke-width:0.8;"/>
     </g>
     <g id="line2d_38">
      <g>
       <use style="stroke:#000000;stroke-width:0.8;" x="470.423238" xlink:href="#m91beb06971" y="259.26"/>
      </g>
     </g>
    </g>
    <g id="text_9">
     <!-- Tiempo (s) -->
     <g transform="translate(359.7075 270.858438)scale(0.1 -0.1)">
      <use xlink:href="#DejaVuSans-54"/>
      <use x="57.958984" xlink:href="#DejaVuSans-69"/>
      <use x="85.742188" xlink:href="#DejaVuSans-65"/>
      <use x="147.265625" xlink:href="#DejaVuSans-6d"/>
      <use x="244.677734" xlink:href="#DejaVuSans-70"/>
      <use x="308.154297" xlink:href="#DejaVuSans-6f"/>
      <use x="369.335938" xlink:href="#DejaVuSans-20"/>
      <use x="401.123047" xlink:href="#DejaVuSans-28"/>
      <use x="440.136719" xlink:href="#DejaVuSans-73"/>
      <use x="492.236328" xlink:href="#DejaVuSans-29"/>
     </g>
    </g>
   </g>
   <g id="matplotlib.axis_4">
    <g id="ytick_7">
     <g id="line2d_39">
      <path clip-path="url(#p4d6134d55d)" d="M 293.74 250.006364 
L 478.8 250.006364 
" style="fill:none;stroke:#b0b0b0;stroke-linecap:square;stroke-width:0.8;"/>
     </g>
     <g id="line2d_40">
      <g>
       <use style="stroke:#000000;stroke-width:0.8;" x="293.74" xlink:href="#m6fc53d743c" y="250.006364"/>
      </g>
     </g>
     <g id="text_10">
      <!-- 0 -->
      <g transform="translate(280.3775 253.805582)scale(0.1 -0.1)">
       <use xlink:href="#DejaVuSans-30"/>
      </g>
     </g>
    </g>
    <g id="ytick_8">
     <g id="line2d_41">
      <path clip-path="url(#p4d6134d55d)" d="M 293.74 222.328706 
L 478.8 222.328706 
" style="fill:none;stroke:#b0b0b0;stroke-linecap:square;stroke-width:0.8;"/>
     </g>
     <g id="line2d_42">
      <g>
       <use style="stroke:#000000;stroke-width:0.8;" x="293.74" xlink:href="#m6fc53d743c" y="222.328706"/>
      </g>
     </g>
     <g id="text_11">
      <!-- 10 -->
      <g transform="translate(274.015 226.127925)scale(0.1 -0.1)">
       <use xlink:href="#DejaVuSans-31"/>
       <use x="63.623047" xlink:href="#DejaVuSans-30"/>
      </g>
     </g>
    </g>
    <g id="ytick_9">
     <g id="line2d_43">
      <path clip-path="url(#p4d6134d55d)" d="M 293.74 194.651049 
L 478.8 194.651049 
" style="fill:none;stroke:#b0b0b0;stroke-linecap:square;stroke-width:0.8;"/>
     </g>
     <g id="line2d_44">
      <g>
       <use style="stroke:#000000;stroke-width:0.8;" x="293.74" xlink:href="#m6fc53d743c" y="194.651049"/>
      </g>
     </g>
     <g id="text_12">
      <!-- 20 -->
      <g transform="translate(274.015 198.450268)scale(0.1 -0.1)">
       <use xlink:href="#DejaVuSans-32"/>
       <use x="63.623047" xlink:href="#DejaVuSans-30"/>
      </g>
     </g>
    </g>
    <g id="ytick_10">
     <g id="line2d_45">
      <path clip-path="url(#p4d6134d55d)" d="M 293.74 166.973392 
L 478.8 166.973392 
" style="fill:none;stroke:#b0b0b0;stroke-linecap:square;stroke-width:0.8;"/>
     </g>
     <g id="line2d_46">
      <g>
       <use style="stroke:#000000;stroke-width:0.8;" x="293.74" xlink:href="#m6fc53d743c" y="166.973392"/>
      </g>
     </g>
     <g id="text_13">
      <!-- 30 -->
      <g transform="translate(274.015 170.77261)scale(0.1 -0.1)">
       <defs>
        <path d="M 2597 2516 
Q 3050 2419 3304 2112 
Q 3559 1806 3559 1356 
Q 3559 666 3084 287 
Q 2609 -91 1734 -91 
Q 1441 -91 1130 -33 
Q 819 25 488 141 
L 488 750 
Q 750 597 1062 519 
Q 1375 441 1716 441 
Q 2309 441 2620 675 
Q 2931 909 2931 1356 
Q 2931 1769 2642 2001 
Q 2353 2234 1838 2234 
L 1294 2234 
L 1294 2753 
L 1863 2753 
Q 2328 2753 2575 2939 
Q 2822 3125 2822 3475 
Q 2822 3834 2567 4026 
Q 2313 4219 1838 4219 
Q 1578 4219 1281 4162 
Q 984 4106 628 3988 
L 628 4550 
Q 988 4650 1302 4700 
Q 1616 4750 1894 4750 
Q 2613 4750 3031 4423 
Q 3450 4097 3450 3541 
Q 3450 3153 3228 2886 
Q 3006 2619 2597 2516 
z
" id="DejaVuSans-33" transform="scale(0.015625)"/>
       </defs>
       <use xlink:href="#DejaVuSans-33"/>
       <use x="63.623047" xlink:href="#DejaVuSans-30"/>
      </g>
     </g>
    </g>
    <g id="ytick_11">
     <g id="line2d_47">
      <path clip-path="url(#p4d6134d55d)" d="M 293.74 139.295734 
L 478.8 139.295734 
" style="fill:none;stroke:#b0b0b0;stroke-linecap:square;stroke-width:0.8;"/>
     </g>
     <g id="line2d_48">
      <g>
       <use style="stroke:#000000;stroke-width:0.8;" x="293.74" xlink:href="#m6fc53d743c" y="139.295734"/>
      </g>
     </g>
     <g id="text_14">
      <!-- 40 -->
      <g transform="translate(274.015 143.094953)scale(0.1 -0.1)">
       <use xlink:href="#DejaVuSans-34"/>
       <use x="63.623047" xlink:href="#DejaVuSans-30"/>
      </g>
     </g>
    </g>
    <g id="ytick_12">
     <g id="line2d_49">
      <path clip-path="url(#p4d6134d55d)" d="M 293.74 111.618077 
L 478.8 111.618077 
" style="fill:none;stroke:#b0b0b0;stroke-linecap:square;stroke-width:0.8;"/>
     </g>
     <g id="line2d_50">
      <g>
       <use style="stroke:#000000;stroke-width:0.8;" x="293.74" xlink:href="#m6fc53d743c" y="111.618077"/>
      </g>
     </g>
     <g id="text_15">
      <!-- 50 -->
      <g transform="translate(274.015 115.417296)scale(0.1 -0.1)">
       <defs>
        <path d="M 691 4666 
L 3169 4666 
L 3169 4134 
L 1269 4134 
L 1269 2991 
Q 1406 3038 1543 3061 
Q 1681 3084 1819 3084 
Q 2600 3084 3056 2656 
Q 3513 2228 3513 1497 
Q 3513 744 3044 326 
Q 2575 -91 1722 -91 
Q 1428 -91 1123 -41 
Q 819 9 494 109 
L 494 744 
Q 775 591 1075 516 
Q 1375 441 1709 441 
Q 2250 441 2565 725 
Q 2881 1009 2881 1497 
Q 2881 1984 2565 2268 
Q 2250 2553 1709 2553 
Q 1456 2553 1204 2497 
Q 953 2441 691 2322 
L 691 4666 
z
" id="DejaVuSans-35" transform="scale(0.015625)"/>
       </defs>
       <use xlink:href="#DejaVuSans-35"/>
       <use x="63.623047" xlink:href="#DejaVuSans-30"/>
      </g>
     </g>
    </g>
    <g id="ytick_13">
     <g id="line2d_51">
      <path clip-path="url(#p4d6134d55d)" d="M 293.74 83.94042 
L 478.8 83.94042 
" style="fill:none;stroke:#b0b0b0;stroke-linecap:square;stroke-width:0.8;"/>
     </g>
     <g id="line2d_52">
      <g>
       <use style="stroke:#000000;stroke-width:0.8;" x="293.74" xlink:href="#m6fc53d743c" y="83.94042"/>
      </g>
     </g>
     <g id="text_16">
      <!-- 60 -->
      <g transform="translate(274.015 87.739638)scale(0.1 -0.1)">
       <use xlink:href="#DejaVuSans-36"/>
       <use x="63.623047" xlink:href="#DejaVuSans-30"/>
      </g>
     </g>
    </g>
    <g id="ytick_14">
     <g id="line2d_53">
      <path clip-path="url(#p4d6134d55d)" d="M 293.74 56.262762 
L 478.8 56.262762 
" style="fill:none;stroke:#b0b0b0;stroke-linecap:square;stroke-width:0.8;"/>
     </g>
     <g id="line2d_54">
      <g>
       <use style="stroke:#000000;stroke-width:0.8;" x="293.74" xlink:href="#m6fc53d743c" y="56.262762"/>
      </g>
     </g>
     <g id="text_17">
      <!-- 70 -->
      <g transform="translate(274.015 60.061981)scale(0.1 -0.1)">
       <defs>
        <path d="M 525 4666 
L 3525 4666 
L 3525 4397 
L 1831 0 
L 1172 0 
L 2766 4134 
L 525 4134 
L 525 4666 
z
" id="DejaVuSans-37" transform="scale(0.015625)"/>
       </defs>
       <use xlink:href="#DejaVuSans-37"/>
       <use x="63.623047" xlink:href="#DejaVuSans-30"/>
      </g>
     </g>
    </g>
   </g>
   <g id="line2d_55">
    <path clip-path="url(#p4d6134d55d)" d="M 302.151818 250.006364 
L 344.359899 250.006364 
L 346.813858 231.492087 
L 347.725328 226.25566 
L 348.496572 223.040497 
L 349.162646 221.157893 
L 349.758607 220.078507 
L 350.354569 219.441832 
L 350.985587 219.097962 
L 351.897057 218.894912 
L 353.79011 218.506136 
L 355.963616 217.992966 
L 358.031952 217.700281 
L 359.504327 217.117515 
L 364.867979 214.831766 
L 381.099159 208.227185 
L 387.724847 205.946463 
L 394.560873 203.830945 
L 401.747465 201.840996 
L 409.319679 199.976059 
L 417.347628 198.229183 
L 425.901425 196.597398 
L 435.051184 195.080712 
L 444.902073 193.676358 
L 455.559263 192.385181 
L 467.16298 191.206916 
L 470.388182 190.916189 
L 470.388182 190.916189 
" style="fill:none;stroke:#1f77b4;stroke-linecap:square;stroke-opacity:0.7;stroke-width:1.5;"/>
   </g>
   <g id="line2d_56">
    <path clip-path="url(#p4d6134d55d)" d="M 302.151818 250.006364 
L 306.463773 249.895297 
L 307.971205 249.599755 
L 309.618862 249.033669 
L 316.525002 246.408338 
L 320.276052 245.306299 
L 323.571368 244.613563 
L 326.6914 244.224672 
L 329.215472 244.123704 
L 331.529204 244.011251 
L 333.702709 243.667627 
L 335.806102 243.116715 
L 338.189947 242.244694 
L 340.854245 241.027172 
L 344.359899 239.217465 
L 346.813858 219.42244 
L 347.725328 213.875183 
L 348.461515 210.635871 
L 349.12759 208.649373 
L 349.723551 207.516574 
L 350.319512 206.840563 
L 350.985587 206.435204 
L 352.002226 206.12621 
L 353.299319 205.677592 
L 354.526298 204.978349 
L 356.419351 203.903559 
L 357.400934 203.617656 
L 358.522744 203.543302 
L 359.995119 203.345186 
L 362.449077 203.022527 
L 365.253601 202.971811 
L 372.755702 202.758619 
L 377.172826 202.440538 
L 385.796737 201.498203 
L 389.72307 200.797628 
L 395.156834 199.554183 
L 402.09803 198.015922 
L 404.832441 197.672572 
L 407.356512 197.579293 
L 409.424849 197.425387 
L 411.458128 197.049617 
L 413.491408 196.440841 
L 416.015479 195.438323 
L 418.434381 194.235555 
L 431.089794 187.575609 
L 446.619844 179.629772 
L 465.1297 169.841536 
L 470.388182 167.152393 
L 470.388182 167.152393 
" style="fill:none;stroke:#d62728;stroke-linecap:square;stroke-opacity:0.7;stroke-width:1.5;"/>
   </g>
   <g id="line2d_57">
    <path clip-path="url(#p4d6134d55d)" d="M 302.151818 250.006364 
L 306.49883 249.898441 
L 308.32177 249.58293 
L 312.002708 248.869488 
L 316.279606 248.383332 
L 317.787038 247.840661 
L 319.364582 247.030196 
L 321.152466 245.850301 
L 323.466198 244.038596 
L 327.006909 240.951551 
L 338.680739 230.594663 
L 344.359899 225.827515 
L 346.98914 203.826538 
L 347.935667 197.784773 
L 348.706911 194.17012 
L 349.408042 191.882885 
L 350.03906 190.510487 
L 350.670078 189.624721 
L 351.406265 188.982447 
L 352.633244 188.275121 
L 354.245845 187.266753 
L 356.910143 185.524104 
L 358.277348 184.95383 
L 363.395604 183.104499 
L 365.709336 181.819951 
L 368.864425 179.796493 
L 375.034377 175.4972 
L 383.272665 169.857297 
L 391.65118 164.439399 
L 457.978165 122.365739 
L 470.388182 114.490351 
L 470.388182 114.490351 
" style="fill:none;stroke:#9467bd;stroke-linecap:square;stroke-opacity:0.7;stroke-width:1.5;"/>
   </g>
   <g id="line2d_58">
    <path clip-path="url(#p4d6134d55d)" d="M 302.151818 250.006364 
L 306.779282 249.895777 
L 308.847618 249.565347 
L 311.336633 249.20279 
L 313.545196 249.160186 
L 315.333079 249.044456 
L 316.700285 248.719147 
L 320.521448 247.629613 
L 324.132272 247.08828 
L 325.324195 246.538575 
L 327.357475 245.282168 
L 328.689623 244.610544 
L 329.74132 244.327728 
L 330.968299 244.243123 
L 333.071692 244.122575 
L 334.193501 243.793825 
L 335.630819 243.108578 
L 338.26006 241.839219 
L 339.732435 241.405889 
L 341.695602 241.090333 
L 344.359899 240.622746 
L 346.813858 221.590942 
L 347.690271 216.499477 
L 348.426459 213.447546 
L 349.057477 211.735468 
L 349.618381 210.826143 
L 350.144229 210.380021 
L 350.705134 210.192826 
L 352.948753 209.752902 
L 353.684941 209.167031 
L 354.80675 207.927851 
L 355.998673 206.716541 
L 356.699804 206.299938 
L 357.330821 206.168004 
L 358.102065 206.048554 
L 359.223875 205.580105 
L 360.275571 205.227916 
L 361.818059 204.868701 
L 362.659416 204.277514 
L 364.797866 202.653079 
L 365.534053 202.444146 
L 366.831145 202.210811 
L 369.32016 201.38491 
L 370.266687 201.251799 
L 371.213214 200.850095 
L 373.772341 199.62932 
L 374.648755 199.545227 
L 375.560225 199.378626 
L 378.680258 198.577822 
L 379.696898 198.443417 
L 382.571534 197.910169 
L 383.83357 197.78343 
L 386.357641 197.481697 
L 387.970242 197.368611 
L 390.319031 197.208642 
L 391.686236 196.986733 
L 394.315477 196.504243 
L 395.928078 196.334901 
L 399.679129 195.571185 
L 400.871051 195.353214 
L 403.044557 194.919725 
L 404.972667 194.704081 
L 408.653605 193.984705 
L 412.019033 193.891454 
L 413.841973 193.763734 
L 420.607887 192.828159 
L 423.307241 192.165212 
L 424.779616 192.095577 
L 428.180101 191.89236 
L 429.617419 191.519918 
L 433.929374 190.214276 
L 435.577032 190.161542 
L 437.890764 190.035288 
L 439.573478 189.667722 
L 445.988826 188.077006 
L 448.723236 187.804567 
L 451.247308 187.464636 
L 453.210474 186.975473 
L 457.802882 185.637246 
L 459.590766 185.586067 
L 461.483819 185.467337 
L 463.026307 185.125433 
L 465.23487 184.376669 
L 467.443432 183.689088 
L 468.950863 183.468108 
L 470.388182 183.392958 
L 470.388182 183.392958 
" style="fill:none;stroke:#bcbd22;stroke-linecap:square;stroke-opacity:0.7;stroke-width:1.5;"/>
   </g>
   <g id="line2d_59">
    <path clip-path="url(#p4d6134d55d)" d="M 302.151818 250.006364 
L 305.412077 249.895983 
L 306.49883 249.59486 
L 307.936148 248.922827 
L 309.513693 248.250166 
L 310.670559 248.00542 
L 312.598669 247.884931 
L 314.31644 247.660208 
L 316.209493 247.418222 
L 317.085907 247.283745 
L 317.96232 246.920731 
L 319.259413 246.104293 
L 320.626618 245.319082 
L 321.503032 245.06212 
L 326.551174 244.1944 
L 327.70804 243.520834 
L 329.180415 242.703167 
L 330.021772 242.488698 
L 331.599317 242.218908 
L 333.246974 241.492889 
L 334.438897 241.103963 
L 335.455537 241.01272 
L 337.068138 240.874915 
L 338.996248 240.622406 
L 339.942775 240.170201 
L 341.134697 239.324079 
L 344.359899 236.790803 
L 347.550045 214.586102 
L 348.601741 206.868092 
L 349.372985 199.49001 
L 350.214343 189.097845 
L 351.441322 170.667218 
L 352.913697 149.368229 
L 353.649884 141.654008 
L 354.210789 137.755 
L 354.666524 135.916793 
L 355.017089 135.260673 
L 355.297542 135.140798 
L 355.542938 134.989249 
L 355.893503 134.468678 
L 356.699804 132.702255 
L 357.295765 131.676829 
L 357.681387 131.371738 
L 358.452631 131.003095 
L 358.978479 130.280875 
L 360.170402 128.555485 
L 360.556024 128.372338 
L 360.906589 128.253974 
L 361.257155 127.838168 
L 361.677833 126.942117 
L 362.238738 125.153109 
L 363.115151 121.478082 
L 364.412244 116.152555 
L 365.078318 114.322885 
L 365.639223 113.395019 
L 366.130014 112.980388 
L 366.655863 112.823848 
L 368.443746 112.549297 
L 369.004651 112.105055 
L 369.670726 111.269814 
L 370.547139 109.776216 
L 372.685588 105.987216 
L 373.386719 105.240683 
L 374.017737 104.87684 
L 374.648755 104.763824 
L 375.700451 104.6408 
L 377.94407 104.15057 
L 378.785427 103.522813 
L 380.433085 101.913936 
L 381.414668 101.145164 
L 382.150856 100.842101 
L 384.359418 100.254775 
L 385.65651 99.775104 
L 387.619677 99.293386 
L 388.776543 98.512851 
L 390.143748 97.651999 
L 390.914992 97.433576 
L 392.212085 97.188484 
L 393.404007 96.576951 
L 394.560873 96.072558 
L 395.332117 95.973769 
L 396.068305 95.842427 
L 396.944718 95.446758 
L 399.223394 94.292556 
L 401.29173 93.742522 
L 403.675575 92.51677 
L 405.989307 91.917746 
L 407.742134 91.141675 
L 408.618548 91.053188 
L 409.354735 90.849761 
L 410.336319 90.316191 
L 412.019033 89.377572 
L 412.790277 89.211456 
L 413.87703 89.042499 
L 414.928726 88.569952 
L 416.506271 87.866494 
L 417.347628 87.751927 
L 418.188985 87.628128 
L 419.451021 87.169823 
L 420.642943 86.818931 
L 422.430827 86.458195 
L 423.447467 85.853533 
L 426.041651 84.190528 
L 427.198517 83.799092 
L 429.792702 83.036992 
L 430.774285 82.428233 
L 431.896094 81.456691 
L 433.824204 79.425518 
L 436.523559 76.681261 
L 438.662008 74.758051 
L 439.748761 74.075027 
L 440.695287 73.732536 
L 441.711927 73.610174 
L 443.184302 73.481395 
L 444.972186 73.064968 
L 447.180748 72.561562 
L 449.389311 72.236256 
L 452.64957 71.241943 
L 453.45587 71.107369 
L 454.402397 70.708562 
L 456.470733 69.757838 
L 457.347147 69.671609 
L 458.153447 69.475982 
L 459.2402 68.946741 
L 460.677519 68.278816 
L 461.448763 68.173194 
L 462.18495 68.038668 
L 463.061364 67.625282 
L 465.269926 66.453593 
L 466.04117 66.364909 
L 466.812414 66.21029 
L 467.829054 65.747878 
L 469.371542 65.051145 
L 470.177843 64.957752 
L 470.388182 64.933636 
L 470.388182 64.933636 
" style="fill:none;stroke:#2ca02c;stroke-linecap:square;stroke-opacity:0.7;stroke-width:1.5;"/>
   </g>
   <g id="line2d_60">
    <path clip-path="url(#p4d6134d55d)" d="M 302.151818 250.006364 
L 305.902869 249.897096 
L 307.30513 249.598131 
L 312.738895 248.147462 
L 316.770398 247.739896 
L 321.152466 247.429571 
L 332.090108 247.122736 
L 344.359899 246.779207 
L 346.954084 227.098512 
L 347.830497 222.14358 
L 348.531628 219.318215 
L 349.12759 217.728905 
L 349.653438 216.88443 
L 350.144229 216.486712 
L 350.635021 216.374797 
L 351.230982 216.262957 
L 353.369432 215.65345 
L 354.140676 215.520576 
L 355.157316 215.091175 
L 356.804973 214.397965 
L 357.64633 214.298364 
L 358.487687 214.163839 
L 359.469271 213.763359 
L 363.43066 211.869522 
L 365.253601 211.48509 
L 367.602389 210.944779 
L 370.021291 210.111035 
L 373.421776 208.987528 
L 380.047463 206.929924 
L 424.884785 192.303184 
L 470.388182 177.441852 
L 470.388182 177.441852 
" style="fill:none;stroke:#17becf;stroke-linecap:square;stroke-opacity:0.7;stroke-width:1.5;"/>
   </g>
   <g id="patch_8">
    <path d="M 293.74 259.26 
L 293.74 55.68 
" style="fill:none;stroke:#000000;stroke-linecap:square;stroke-linejoin:miter;stroke-width:0.8;"/>
   </g>
   <g id="patch_9">
    <path d="M 478.8 259.26 
L 478.8 55.68 
" style="fill:none;stroke:#000000;stroke-linecap:square;stroke-linejoin:miter;stroke-width:0.8;"/>
   </g>
   <g id="patch_10">
    <path d="M 293.74 259.26 
L 478.8 259.26 
" style="fill:none;stroke:#000000;stroke-linecap:square;stroke-linejoin:miter;stroke-width:0.8;"/>
   </g>
   <g id="patch_11">
    <path d="M 293.74 55.68 
L 478.8 55.68 
" style="fill:none;stroke:#000000;stroke-linecap:square;stroke-linejoin:miter;stroke-width:0.8;"/>
   </g>
   <g id="text_18">
    <!-- y (m) -->
    <g transform="translate(370.285625 49.68)scale(0.12 -0.12)">
     <defs>
      <path d="M 2059 -325 
Q 1816 -950 1584 -1140 
Q 1353 -1331 966 -1331 
L 506 -1331 
L 506 -850 
L 844 -850 
Q 1081 -850 1212 -737 
Q 1344 -625 1503 -206 
L 1606 56 
L 191 3500 
L 800 3500 
L 1894 763 
L 2988 3500 
L 3597 3500 
L 2059 -325 
z
" id="DejaVuSans-79" transform="scale(0.015625)"/>
     </defs>
     <use xlink:href="#DejaVuSans-79"/>
     <use x="59.179688" xlink:href="#DejaVuSans-20"/>
     <use x="90.966797" xlink:href="#DejaVuSans-28"/>
     <use x="129.980469" xlink:href="#DejaVuSans-6d"/>
     <use x="227.392578" xlink:href="#DejaVuSans-29"/>
    </g>
   </g>
  </g>
  <g id="axes_3">
   <g id="patch_12">
    <path d="M 71.89 505.24 
L 256.95 505.24 
L 256.95 301.66 
L 71.89 301.66 
z
" style="fill:#ffffff;"/>
   </g>
   <g id="matplotlib.axis_5">
    <g id="xtick_11">
     <g id="line2d_61">
      <path clip-path="url(#pbbbc8092af)" d="M 80.301818 505.24 
L 80.301818 301.66 
" style="fill:none;stroke:#b0b0b0;stroke-linecap:square;stroke-width:0.8;"/>
     </g>
     <g id="line2d_62">
      <g>
       <use style="stroke:#000000;stroke-width:0.8;" x="80.301818" xlink:href="#m91beb06971" y="505.24"/>
      </g>
     </g>
     <g id="text_19">
      <!-- 0 -->
      <g transform="translate(77.120568 519.838438)scale(0.1 -0.1)">
       <use xlink:href="#DejaVuSans-30"/>
      </g>
     </g>
    </g>
    <g id="xtick_12">
     <g id="line2d_63">
      <path clip-path="url(#pbbbc8092af)" d="M 122.369673 505.24 
L 122.369673 301.66 
" style="fill:none;stroke:#b0b0b0;stroke-linecap:square;stroke-width:0.8;"/>
     </g>
     <g id="line2d_64">
      <g>
       <use style="stroke:#000000;stroke-width:0.8;" x="122.369673" xlink:href="#m91beb06971" y="505.24"/>
      </g>
     </g>
     <g id="text_20">
      <!-- 5 -->
      <g transform="translate(119.188423 519.838438)scale(0.1 -0.1)">
       <use xlink:href="#DejaVuSans-35"/>
      </g>
     </g>
    </g>
    <g id="xtick_13">
     <g id="line2d_65">
      <path clip-path="url(#pbbbc8092af)" d="M 164.437528 505.24 
L 164.437528 301.66 
" style="fill:none;stroke:#b0b0b0;stroke-linecap:square;stroke-width:0.8;"/>
     </g>
     <g id="line2d_66">
      <g>
       <use style="stroke:#000000;stroke-width:0.8;" x="164.437528" xlink:href="#m91beb06971" y="505.24"/>
      </g>
     </g>
     <g id="text_21">
      <!-- 10 -->
      <g transform="translate(158.075028 519.838438)scale(0.1 -0.1)">
       <use xlink:href="#DejaVuSans-31"/>
       <use x="63.623047" xlink:href="#DejaVuSans-30"/>
      </g>
     </g>
    </g>
    <g id="xtick_14">
     <g id="line2d_67">
      <path clip-path="url(#pbbbc8092af)" d="M 206.505383 505.24 
L 206.505383 301.66 
" style="fill:none;stroke:#b0b0b0;stroke-linecap:square;stroke-width:0.8;"/>
     </g>
     <g id="line2d_68">
      <g>
       <use style="stroke:#000000;stroke-width:0.8;" x="206.505383" xlink:href="#m91beb06971" y="505.24"/>
      </g>
     </g>
     <g id="text_22">
      <!-- 15 -->
      <g transform="translate(200.142883 519.838438)scale(0.1 -0.1)">
       <use xlink:href="#DejaVuSans-31"/>
       <use x="63.623047" xlink:href="#DejaVuSans-35"/>
      </g>
     </g>
    </g>
    <g id="xtick_15">
     <g id="line2d_69">
      <path clip-path="url(#pbbbc8092af)" d="M 248.573238 505.24 
L 248.573238 301.66 
" style="fill:none;stroke:#b0b0b0;stroke-linecap:square;stroke-width:0.8;"/>
     </g>
     <g id="line2d_70">
      <g>
       <use style="stroke:#000000;stroke-width:0.8;" x="248.573238" xlink:href="#m91beb06971" y="505.24"/>
      </g>
     </g>
     <g id="text_23">
      <!-- 20 -->
      <g transform="translate(242.210738 519.838438)scale(0.1 -0.1)">
       <use xlink:href="#DejaVuSans-32"/>
       <use x="63.623047" xlink:href="#DejaVuSans-30"/>
      </g>
     </g>
    </g>
    <g id="text_24">
     <!-- Tiempo (s) -->
     <g transform="translate(137.8575 533.516563)scale(0.1 -0.1)">
      <use xlink:href="#DejaVuSans-54"/>
      <use x="57.958984" xlink:href="#DejaVuSans-69"/>
      <use x="85.742188" xlink:href="#DejaVuSans-65"/>
      <use x="147.265625" xlink:href="#DejaVuSans-6d"/>
      <use x="244.677734" xlink:href="#DejaVuSans-70"/>
      <use x="308.154297" xlink:href="#DejaVuSans-6f"/>
      <use x="369.335938" xlink:href="#DejaVuSans-20"/>
      <use x="401.123047" xlink:href="#DejaVuSans-28"/>
      <use x="440.136719" xlink:href="#DejaVuSans-73"/>
      <use x="492.236328" xlink:href="#DejaVuSans-29"/>
     </g>
    </g>
   </g>
   <g id="matplotlib.axis_6">
    <g id="ytick_15">
     <g id="line2d_71">
      <path clip-path="url(#pbbbc8092af)" d="M 71.89 495.986382 
L 256.95 495.986382 
" style="fill:none;stroke:#b0b0b0;stroke-linecap:square;stroke-width:0.8;"/>
     </g>
     <g id="line2d_72">
      <g>
       <use style="stroke:#000000;stroke-width:0.8;" x="71.89" xlink:href="#m6fc53d743c" y="495.986382"/>
      </g>
     </g>
     <g id="text_25">
      <!-- 0 -->
      <g transform="translate(58.5275 499.785601)scale(0.1 -0.1)">
       <use xlink:href="#DejaVuSans-30"/>
      </g>
     </g>
    </g>
    <g id="ytick_16">
     <g id="line2d_73">
      <path clip-path="url(#pbbbc8092af)" d="M 71.89 468.409851 
L 256.95 468.409851 
" style="fill:none;stroke:#b0b0b0;stroke-linecap:square;stroke-width:0.8;"/>
     </g>
     <g id="line2d_74">
      <g>
       <use style="stroke:#000000;stroke-width:0.8;" x="71.89" xlink:href="#m6fc53d743c" y="468.409851"/>
      </g>
     </g>
     <g id="text_26">
      <!-- 250 -->
      <g transform="translate(45.8025 472.209069)scale(0.1 -0.1)">
       <use xlink:href="#DejaVuSans-32"/>
       <use x="63.623047" xlink:href="#DejaVuSans-35"/>
       <use x="127.246094" xlink:href="#DejaVuSans-30"/>
      </g>
     </g>
    </g>
    <g id="ytick_17">
     <g id="line2d_75">
      <path clip-path="url(#pbbbc8092af)" d="M 71.89 440.833319 
L 256.95 440.833319 
" style="fill:none;stroke:#b0b0b0;stroke-linecap:square;stroke-width:0.8;"/>
     </g>
     <g id="line2d_76">
      <g>
       <use style="stroke:#000000;stroke-width:0.8;" x="71.89" xlink:href="#m6fc53d743c" y="440.833319"/>
      </g>
     </g>
     <g id="text_27">
      <!-- 500 -->
      <g transform="translate(45.8025 444.632538)scale(0.1 -0.1)">
       <use xlink:href="#DejaVuSans-35"/>
       <use x="63.623047" xlink:href="#DejaVuSans-30"/>
       <use x="127.246094" xlink:href="#DejaVuSans-30"/>
      </g>
     </g>
    </g>
    <g id="ytick_18">
     <g id="line2d_77">
      <path clip-path="url(#pbbbc8092af)" d="M 71.89 413.256787 
L 256.95 413.256787 
" style="fill:none;stroke:#b0b0b0;stroke-linecap:square;stroke-width:0.8;"/>
     </g>
     <g id="line2d_78">
      <g>
       <use style="stroke:#000000;stroke-width:0.8;" x="71.89" xlink:href="#m6fc53d743c" y="413.256787"/>
      </g>
     </g>
     <g id="text_28">
      <!-- 750 -->
      <g transform="translate(45.8025 417.056006)scale(0.1 -0.1)">
       <use xlink:href="#DejaVuSans-37"/>
       <use x="63.623047" xlink:href="#DejaVuSans-35"/>
       <use x="127.246094" xlink:href="#DejaVuSans-30"/>
      </g>
     </g>
    </g>
    <g id="ytick_19">
     <g id="line2d_79">
      <path clip-path="url(#pbbbc8092af)" d="M 71.89 385.680255 
L 256.95 385.680255 
" style="fill:none;stroke:#b0b0b0;stroke-linecap:square;stroke-width:0.8;"/>
     </g>
     <g id="line2d_80">
      <g>
       <use style="stroke:#000000;stroke-width:0.8;" x="71.89" xlink:href="#m6fc53d743c" y="385.680255"/>
      </g>
     </g>
     <g id="text_29">
      <!-- 1000 -->
      <g transform="translate(39.44 389.479474)scale(0.1 -0.1)">
       <use xlink:href="#DejaVuSans-31"/>
       <use x="63.623047" xlink:href="#DejaVuSans-30"/>
       <use x="127.246094" xlink:href="#DejaVuSans-30"/>
       <use x="190.869141" xlink:href="#DejaVuSans-30"/>
      </g>
     </g>
    </g>
    <g id="ytick_20">
     <g id="line2d_81">
      <path clip-path="url(#pbbbc8092af)" d="M 71.89 358.103724 
L 256.95 358.103724 
" style="fill:none;stroke:#b0b0b0;stroke-linecap:square;stroke-width:0.8;"/>
     </g>
     <g id="line2d_82">
      <g>
       <use style="stroke:#000000;stroke-width:0.8;" x="71.89" xlink:href="#m6fc53d743c" y="358.103724"/>
      </g>
     </g>
     <g id="text_30">
      <!-- 1250 -->
      <g transform="translate(39.44 361.902942)scale(0.1 -0.1)">
       <use xlink:href="#DejaVuSans-31"/>
       <use x="63.623047" xlink:href="#DejaVuSans-32"/>
       <use x="127.246094" xlink:href="#DejaVuSans-35"/>
       <use x="190.869141" xlink:href="#DejaVuSans-30"/>
      </g>
     </g>
    </g>
    <g id="ytick_21">
     <g id="line2d_83">
      <path clip-path="url(#pbbbc8092af)" d="M 71.89 330.527192 
L 256.95 330.527192 
" style="fill:none;stroke:#b0b0b0;stroke-linecap:square;stroke-width:0.8;"/>
     </g>
     <g id="line2d_84">
      <g>
       <use style="stroke:#000000;stroke-width:0.8;" x="71.89" xlink:href="#m6fc53d743c" y="330.527192"/>
      </g>
     </g>
     <g id="text_31">
      <!-- 1500 -->
      <g transform="translate(39.44 334.326411)scale(0.1 -0.1)">
       <use xlink:href="#DejaVuSans-31"/>
       <use x="63.623047" xlink:href="#DejaVuSans-35"/>
       <use x="127.246094" xlink:href="#DejaVuSans-30"/>
       <use x="190.869141" xlink:href="#DejaVuSans-30"/>
      </g>
     </g>
    </g>
    <g id="ytick_22">
     <g id="line2d_85">
      <path clip-path="url(#pbbbc8092af)" d="M 71.89 302.95066 
L 256.95 302.95066 
" style="fill:none;stroke:#b0b0b0;stroke-linecap:square;stroke-width:0.8;"/>
     </g>
     <g id="line2d_86">
      <g>
       <use style="stroke:#000000;stroke-width:0.8;" x="71.89" xlink:href="#m6fc53d743c" y="302.95066"/>
      </g>
     </g>
     <g id="text_32">
      <!-- 1750 -->
      <g transform="translate(39.44 306.749879)scale(0.1 -0.1)">
       <use xlink:href="#DejaVuSans-31"/>
       <use x="63.623047" xlink:href="#DejaVuSans-37"/>
       <use x="127.246094" xlink:href="#DejaVuSans-35"/>
       <use x="190.869141" xlink:href="#DejaVuSans-30"/>
      </g>
     </g>
    </g>
   </g>
   <g id="line2d_87">
    <path clip-path="url(#pbbbc8092af)" d="M 80.301818 495.986364 
L 122.930578 495.835293 
L 124.683405 495.427509 
L 126.891968 495.164636 
L 130.187283 495.017507 
L 137.268705 494.974678 
L 210.39666 494.675161 
L 248.538182 494.553397 
L 248.538182 494.553397 
" style="fill:none;stroke:#1f77b4;stroke-linecap:square;stroke-opacity:0.7;stroke-width:1.5;"/>
   </g>
   <g id="line2d_88">
    <path clip-path="url(#pbbbc8092af)" d="M 80.301818 495.986364 
L 84.438491 495.872153 
L 88.39988 495.825975 
L 95.761755 495.624968 
L 107.540754 495.044272 
L 117.041078 494.539798 
L 122.720239 494.231102 
L 124.718462 493.824374 
L 127.978721 493.434029 
L 130.572905 493.352157 
L 144.946089 493.051759 
L 153.850451 492.631121 
L 161.17727 492.266337 
L 169.590841 491.783466 
L 190.764994 490.657923 
L 201.948032 490.371455 
L 222.000377 490.054252 
L 233.253528 489.88796 
L 243.17453 489.738772 
L 248.538182 489.64352 
L 248.538182 489.64352 
" style="fill:none;stroke:#d62728;stroke-linecap:square;stroke-opacity:0.7;stroke-width:1.5;"/>
   </g>
   <g id="line2d_89">
    <path clip-path="url(#pbbbc8092af)" d="M 80.301818 495.986364 
L 84.333321 495.871851 
L 88.434937 495.788942 
L 93.062401 495.612154 
L 101.440915 495.037894 
L 114.026215 494.20562 
L 123.21103 493.598494 
L 125.524762 493.123985 
L 128.18906 492.813764 
L 131.13381 492.707644 
L 139.021533 492.518238 
L 147.084538 491.990523 
L 159.03882 491.250905 
L 175.270001 490.539707 
L 248.538182 487.610545 
L 248.538182 487.610545 
" style="fill:none;stroke:#9467bd;stroke-linecap:square;stroke-opacity:0.7;stroke-width:1.5;"/>
   </g>
   <g id="line2d_90">
    <path clip-path="url(#pbbbc8092af)" d="M 80.301818 495.986364 
L 84.052869 495.87188 
L 87.838976 495.515058 
L 93.903758 494.684894 
L 108.943016 492.594638 
L 115.49859 491.95018 
L 121.668542 491.568639 
L 122.860465 491.411289 
L 124.998914 490.787223 
L 127.838494 490.235232 
L 131.098753 489.833682 
L 134.709577 489.614251 
L 144.385184 489.19926 
L 149.222987 488.629213 
L 155.007317 487.712575 
L 162.614588 486.265756 
L 184.700212 481.921351 
L 192.447708 480.707886 
L 200.265318 479.712496 
L 208.258211 478.924961 
L 216.987291 478.287082 
L 228.240442 477.703742 
L 248.538182 476.881594 
L 248.538182 476.881594 
" style="fill:none;stroke:#bcbd22;stroke-linecap:square;stroke-opacity:0.7;stroke-width:1.5;"/>
   </g>
   <g id="line2d_91">
    <path clip-path="url(#pbbbc8092af)" d="M 80.301818 495.986364 
L 83.772416 495.871706 
L 85.945922 495.587296 
L 88.014258 495.092007 
L 90.32799 494.299413 
L 92.817005 493.212014 
L 95.025567 492.012242 
L 97.164017 490.593111 
L 99.442692 488.804371 
L 101.756424 486.705654 
L 103.859817 484.495237 
L 105.893097 482.028031 
L 108.031546 479.071746 
L 110.240108 475.634222 
L 112.378558 471.893258 
L 114.48195 467.761044 
L 116.690513 462.924527 
L 119.039301 457.236333 
L 121.423146 450.869986 
L 123.070804 445.917806 
L 127.768381 430.768765 
L 129.345926 426.661108 
L 130.818301 423.42813 
L 132.255619 420.787706 
L 133.692938 418.596947 
L 135.130256 416.798083 
L 136.602631 415.308593 
L 138.320402 413.899575 
L 140.213455 412.626175 
L 141.861113 411.775461 
L 143.578883 411.138589 
L 145.682276 410.600299 
L 147.960952 410.245915 
L 151.256267 410.000795 
L 156.234297 409.565138 
L 161.808287 408.921272 
L 166.085186 408.117636 
L 169.976463 407.213245 
L 173.236721 406.201888 
L 177.268224 404.723477 
L 179.967578 403.498489 
L 182.842215 401.939294 
L 185.611682 400.199091 
L 187.855301 398.528009 
L 190.063863 396.596385 
L 192.342539 394.299551 
L 194.445932 391.867682 
L 196.409098 389.258412 
L 198.407321 386.228009 
L 200.510714 382.627522 
L 202.649163 378.523951 
L 204.752556 374.00016 
L 206.891005 368.862491 
L 209.134624 362.885711 
L 211.483413 355.989189 
L 213.867258 348.286573 
L 216.251103 340.598535 
L 217.653365 336.91972 
L 219.055627 333.852518 
L 220.492945 331.237562 
L 222.000377 328.951679 
L 223.612978 326.902725 
L 225.330748 325.072174 
L 227.153689 323.452773 
L 229.186968 321.949087 
L 231.851266 320.27587 
L 235.427034 318.297209 
L 244.892301 313.257964 
L 248.082447 311.232369 
L 248.538182 310.913636 
L 248.538182 310.913636 
" style="fill:none;stroke:#2ca02c;stroke-linecap:square;stroke-opacity:0.7;stroke-width:1.5;"/>
   </g>
   <g id="line2d_92">
    <path clip-path="url(#pbbbc8092af)" d="M 80.301818 495.986364 
L 84.894226 495.870493 
L 91.4498 495.633189 
L 97.374356 495.091398 
L 108.101659 493.848231 
L 128.259173 491.515589 
L 138.881306 491.15737 
L 149.433327 490.343011 
L 184.034137 487.597582 
L 248.538182 482.552852 
L 248.538182 482.552852 
" style="fill:none;stroke:#17becf;stroke-linecap:square;stroke-opacity:0.7;stroke-width:1.5;"/>
   </g>
   <g id="patch_13">
    <path d="M 71.89 505.24 
L 71.89 301.66 
" style="fill:none;stroke:#000000;stroke-linecap:square;stroke-linejoin:miter;stroke-width:0.8;"/>
   </g>
   <g id="patch_14">
    <path d="M 256.95 505.24 
L 256.95 301.66 
" style="fill:none;stroke:#000000;stroke-linecap:square;stroke-linejoin:miter;stroke-width:0.8;"/>
   </g>
   <g id="patch_15">
    <path d="M 71.89 505.24 
L 256.95 505.24 
" style="fill:none;stroke:#000000;stroke-linecap:square;stroke-linejoin:miter;stroke-width:0.8;"/>
   </g>
   <g id="patch_16">
    <path d="M 71.89 301.66 
L 256.95 301.66 
" style="fill:none;stroke:#000000;stroke-linecap:square;stroke-linejoin:miter;stroke-width:0.8;"/>
   </g>
   <g id="text_33">
    <!-- z (m) -->
    <g transform="translate(148.837812 295.66)scale(0.12 -0.12)">
     <defs>
      <path d="M 353 3500 
L 3084 3500 
L 3084 2975 
L 922 459 
L 3084 459 
L 3084 0 
L 275 0 
L 275 525 
L 2438 3041 
L 353 3041 
L 353 3500 
z
" id="DejaVuSans-7a" transform="scale(0.015625)"/>
     </defs>
     <use xlink:href="#DejaVuSans-7a"/>
     <use x="52.490234" xlink:href="#DejaVuSans-20"/>
     <use x="84.277344" xlink:href="#DejaVuSans-28"/>
     <use x="123.291016" xlink:href="#DejaVuSans-6d"/>
     <use x="220.703125" xlink:href="#DejaVuSans-29"/>
    </g>
   </g>
  </g>
  <g id="axes_4">
   <g id="patch_17">
    <path d="M 293.74 505.24 
L 478.8 505.24 
L 478.8 301.66 
L 293.74 301.66 
z
" style="fill:#ffffff;"/>
   </g>
   <g id="matplotlib.axis_7">
    <g id="xtick_16">
     <g id="line2d_93">
      <path clip-path="url(#p94628344c8)" d="M 302.151818 505.24 
L 302.151818 301.66 
" style="fill:none;stroke:#b0b0b0;stroke-linecap:square;stroke-width:0.8;"/>
     </g>
     <g id="line2d_94">
      <g>
       <use style="stroke:#000000;stroke-width:0.8;" x="302.151818" xlink:href="#m91beb06971" y="505.24"/>
      </g>
     </g>
     <g id="text_34">
      <!-- 0 -->
      <g transform="translate(298.970568 519.838438)scale(0.1 -0.1)">
       <use xlink:href="#DejaVuSans-30"/>
      </g>
     </g>
    </g>
    <g id="xtick_17">
     <g id="line2d_95">
      <path clip-path="url(#p94628344c8)" d="M 344.219673 505.24 
L 344.219673 301.66 
" style="fill:none;stroke:#b0b0b0;stroke-linecap:square;stroke-width:0.8;"/>
     </g>
     <g id="line2d_96">
      <g>
       <use style="stroke:#000000;stroke-width:0.8;" x="344.219673" xlink:href="#m91beb06971" y="505.24"/>
      </g>
     </g>
     <g id="text_35">
      <!-- 5 -->
      <g transform="translate(341.038423 519.838438)scale(0.1 -0.1)">
       <use xlink:href="#DejaVuSans-35"/>
      </g>
     </g>
    </g>
    <g id="xtick_18">
     <g id="line2d_97">
      <path clip-path="url(#p94628344c8)" d="M 386.287528 505.24 
L 386.287528 301.66 
" style="fill:none;stroke:#b0b0b0;stroke-linecap:square;stroke-width:0.8;"/>
     </g>
     <g id="line2d_98">
      <g>
       <use style="stroke:#000000;stroke-width:0.8;" x="386.287528" xlink:href="#m91beb06971" y="505.24"/>
      </g>
     </g>
     <g id="text_36">
      <!-- 10 -->
      <g transform="translate(379.925028 519.838438)scale(0.1 -0.1)">
       <use xlink:href="#DejaVuSans-31"/>
       <use x="63.623047" xlink:href="#DejaVuSans-30"/>
      </g>
     </g>
    </g>
    <g id="xtick_19">
     <g id="line2d_99">
      <path clip-path="url(#p94628344c8)" d="M 428.355383 505.24 
L 428.355383 301.66 
" style="fill:none;stroke:#b0b0b0;stroke-linecap:square;stroke-width:0.8;"/>
     </g>
     <g id="line2d_100">
      <g>
       <use style="stroke:#000000;stroke-width:0.8;" x="428.355383" xlink:href="#m91beb06971" y="505.24"/>
      </g>
     </g>
     <g id="text_37">
      <!-- 15 -->
      <g transform="translate(421.992883 519.838438)scale(0.1 -0.1)">
       <use xlink:href="#DejaVuSans-31"/>
       <use x="63.623047" xlink:href="#DejaVuSans-35"/>
      </g>
     </g>
    </g>
    <g id="xtick_20">
     <g id="line2d_101">
      <path clip-path="url(#p94628344c8)" d="M 470.423238 505.24 
L 470.423238 301.66 
" style="fill:none;stroke:#b0b0b0;stroke-linecap:square;stroke-width:0.8;"/>
     </g>
     <g id="line2d_102">
      <g>
       <use style="stroke:#000000;stroke-width:0.8;" x="470.423238" xlink:href="#m91beb06971" y="505.24"/>
      </g>
     </g>
     <g id="text_38">
      <!-- 20 -->
      <g transform="translate(464.060738 519.838438)scale(0.1 -0.1)">
       <use xlink:href="#DejaVuSans-32"/>
       <use x="63.623047" xlink:href="#DejaVuSans-30"/>
      </g>
     </g>
    </g>
    <g id="text_39">
     <!-- Tiempo (s) -->
     <g transform="translate(359.7075 533.516563)scale(0.1 -0.1)">
      <use xlink:href="#DejaVuSans-54"/>
      <use x="57.958984" xlink:href="#DejaVuSans-69"/>
      <use x="85.742188" xlink:href="#DejaVuSans-65"/>
      <use x="147.265625" xlink:href="#DejaVuSans-6d"/>
      <use x="244.677734" xlink:href="#DejaVuSans-70"/>
      <use x="308.154297" xlink:href="#DejaVuSans-6f"/>
      <use x="369.335938" xlink:href="#DejaVuSans-20"/>
      <use x="401.123047" xlink:href="#DejaVuSans-28"/>
      <use x="440.136719" xlink:href="#DejaVuSans-73"/>
      <use x="492.236328" xlink:href="#DejaVuSans-29"/>
     </g>
    </g>
   </g>
   <g id="matplotlib.axis_8">
    <g id="ytick_23">
     <g id="line2d_103">
      <path clip-path="url(#p94628344c8)" d="M 293.74 495.986364 
L 478.8 495.986364 
" style="fill:none;stroke:#b0b0b0;stroke-linecap:square;stroke-width:0.8;"/>
     </g>
     <g id="line2d_104">
      <g>
       <use style="stroke:#000000;stroke-width:0.8;" x="293.74" xlink:href="#m6fc53d743c" y="495.986364"/>
      </g>
     </g>
     <g id="text_40">
      <!-- 0 -->
      <g transform="translate(280.3775 499.785582)scale(0.1 -0.1)">
       <use xlink:href="#DejaVuSans-30"/>
      </g>
     </g>
    </g>
    <g id="ytick_24">
     <g id="line2d_105">
      <path clip-path="url(#p94628344c8)" d="M 293.74 468.981035 
L 478.8 468.981035 
" style="fill:none;stroke:#b0b0b0;stroke-linecap:square;stroke-width:0.8;"/>
     </g>
     <g id="line2d_106">
      <g>
       <use style="stroke:#000000;stroke-width:0.8;" x="293.74" xlink:href="#m6fc53d743c" y="468.981035"/>
      </g>
     </g>
     <g id="text_41">
      <!-- 100 -->
      <g transform="translate(267.6525 472.780254)scale(0.1 -0.1)">
       <use xlink:href="#DejaVuSans-31"/>
       <use x="63.623047" xlink:href="#DejaVuSans-30"/>
       <use x="127.246094" xlink:href="#DejaVuSans-30"/>
      </g>
     </g>
    </g>
    <g id="ytick_25">
     <g id="line2d_107">
      <path clip-path="url(#p94628344c8)" d="M 293.74 441.975707 
L 478.8 441.975707 
" style="fill:none;stroke:#b0b0b0;stroke-linecap:square;stroke-width:0.8;"/>
     </g>
     <g id="line2d_108">
      <g>
       <use style="stroke:#000000;stroke-width:0.8;" x="293.74" xlink:href="#m6fc53d743c" y="441.975707"/>
      </g>
     </g>
     <g id="text_42">
      <!-- 200 -->
      <g transform="translate(267.6525 445.774926)scale(0.1 -0.1)">
       <use xlink:href="#DejaVuSans-32"/>
       <use x="63.623047" xlink:href="#DejaVuSans-30"/>
       <use x="127.246094" xlink:href="#DejaVuSans-30"/>
      </g>
     </g>
    </g>
    <g id="ytick_26">
     <g id="line2d_109">
      <path clip-path="url(#p94628344c8)" d="M 293.74 414.970379 
L 478.8 414.970379 
" style="fill:none;stroke:#b0b0b0;stroke-linecap:square;stroke-width:0.8;"/>
     </g>
     <g id="line2d_110">
      <g>
       <use style="stroke:#000000;stroke-width:0.8;" x="293.74" xlink:href="#m6fc53d743c" y="414.970379"/>
      </g>
     </g>
     <g id="text_43">
      <!-- 300 -->
      <g transform="translate(267.6525 418.769598)scale(0.1 -0.1)">
       <use xlink:href="#DejaVuSans-33"/>
       <use x="63.623047" xlink:href="#DejaVuSans-30"/>
       <use x="127.246094" xlink:href="#DejaVuSans-30"/>
      </g>
     </g>
    </g>
    <g id="ytick_27">
     <g id="line2d_111">
      <path clip-path="url(#p94628344c8)" d="M 293.74 387.965051 
L 478.8 387.965051 
" style="fill:none;stroke:#b0b0b0;stroke-linecap:square;stroke-width:0.8;"/>
     </g>
     <g id="line2d_112">
      <g>
       <use style="stroke:#000000;stroke-width:0.8;" x="293.74" xlink:href="#m6fc53d743c" y="387.965051"/>
      </g>
     </g>
     <g id="text_44">
      <!-- 400 -->
      <g transform="translate(267.6525 391.76427)scale(0.1 -0.1)">
       <use xlink:href="#DejaVuSans-34"/>
       <use x="63.623047" xlink:href="#DejaVuSans-30"/>
       <use x="127.246094" xlink:href="#DejaVuSans-30"/>
      </g>
     </g>
    </g>
    <g id="ytick_28">
     <g id="line2d_113">
      <path clip-path="url(#p94628344c8)" d="M 293.74 360.959723 
L 478.8 360.959723 
" style="fill:none;stroke:#b0b0b0;stroke-linecap:square;stroke-width:0.8;"/>
     </g>
     <g id="line2d_114">
      <g>
       <use style="stroke:#000000;stroke-width:0.8;" x="293.74" xlink:href="#m6fc53d743c" y="360.959723"/>
      </g>
     </g>
     <g id="text_45">
      <!-- 500 -->
      <g transform="translate(267.6525 364.758941)scale(0.1 -0.1)">
       <use xlink:href="#DejaVuSans-35"/>
       <use x="63.623047" xlink:href="#DejaVuSans-30"/>
       <use x="127.246094" xlink:href="#DejaVuSans-30"/>
      </g>
     </g>
    </g>
    <g id="ytick_29">
     <g id="line2d_115">
      <path clip-path="url(#p94628344c8)" d="M 293.74 333.954395 
L 478.8 333.954395 
" style="fill:none;stroke:#b0b0b0;stroke-linecap:square;stroke-width:0.8;"/>
     </g>
     <g id="line2d_116">
      <g>
       <use style="stroke:#000000;stroke-width:0.8;" x="293.74" xlink:href="#m6fc53d743c" y="333.954395"/>
      </g>
     </g>
     <g id="text_46">
      <!-- 600 -->
      <g transform="translate(267.6525 337.753613)scale(0.1 -0.1)">
       <use xlink:href="#DejaVuSans-36"/>
       <use x="63.623047" xlink:href="#DejaVuSans-30"/>
       <use x="127.246094" xlink:href="#DejaVuSans-30"/>
      </g>
     </g>
    </g>
    <g id="ytick_30">
     <g id="line2d_117">
      <path clip-path="url(#p94628344c8)" d="M 293.74 306.949066 
L 478.8 306.949066 
" style="fill:none;stroke:#b0b0b0;stroke-linecap:square;stroke-width:0.8;"/>
     </g>
     <g id="line2d_118">
      <g>
       <use style="stroke:#000000;stroke-width:0.8;" x="293.74" xlink:href="#m6fc53d743c" y="306.949066"/>
      </g>
     </g>
     <g id="text_47">
      <!-- 700 -->
      <g transform="translate(267.6525 310.748285)scale(0.1 -0.1)">
       <use xlink:href="#DejaVuSans-37"/>
       <use x="63.623047" xlink:href="#DejaVuSans-30"/>
       <use x="127.246094" xlink:href="#DejaVuSans-30"/>
      </g>
     </g>
    </g>
   </g>
   <g id="line2d_119">
    <path clip-path="url(#p94628344c8)" d="M 302.151818 495.986364 
L 344.500126 495.878963 
L 345.236313 495.451617 
L 346.18284 495.224026 
L 347.725328 495.108931 
L 354.070563 495.02375 
L 470.388182 494.93913 
L 470.388182 494.93913 
" style="fill:none;stroke:#1f77b4;stroke-linecap:square;stroke-opacity:0.7;stroke-width:1.5;"/>
   </g>
   <g id="line2d_120">
    <path clip-path="url(#p94628344c8)" d="M 302.151818 495.986364 
L 307.164904 495.875483 
L 309.899315 495.566766 
L 319.329526 494.185768 
L 327.357475 492.96065 
L 338.084778 491.350375 
L 344.500126 490.346041 
L 345.306426 489.987315 
L 346.463292 489.812928 
L 348.601741 489.578112 
L 351.791887 488.913986 
L 355.087202 488.721974 
L 359.293988 488.503335 
L 366.796089 487.989384 
L 381.134216 485.735123 
L 391.966689 484.31125 
L 402.062974 482.584786 
L 413.561521 480.525371 
L 420.57283 479.141079 
L 424.744559 478.583721 
L 435.962654 477.198315 
L 447.285918 475.437188 
L 462.921138 473.057425 
L 470.388182 471.855547 
L 470.388182 471.855547 
" style="fill:none;stroke:#d62728;stroke-linecap:square;stroke-opacity:0.7;stroke-width:1.5;"/>
   </g>
   <g id="line2d_121">
    <path clip-path="url(#p94628344c8)" d="M 302.151818 495.986364 
L 306.078151 495.877207 
L 310.810785 495.379455 
L 316.875567 494.552309 
L 321.573145 494.058294 
L 327.883323 493.636197 
L 339.031304 493.14407 
L 344.535182 492.835074 
L 345.341483 492.371708 
L 346.007557 492.266826 
L 348.812081 492.082489 
L 351.511435 491.659893 
L 359.925006 489.971285 
L 369.916121 488.572711 
L 378.995767 487.505745 
L 387.339225 486.776264 
L 470.388182 480.11773 
L 470.388182 480.11773 
" style="fill:none;stroke:#9467bd;stroke-linecap:square;stroke-opacity:0.7;stroke-width:1.5;"/>
   </g>
   <g id="line2d_122">
    <path clip-path="url(#p94628344c8)" d="M 302.151818 495.986364 
L 304.956342 495.876679 
L 306.568943 495.57775 
L 308.111431 495.059946 
L 309.724032 494.273821 
L 311.582029 493.105753 
L 314.421609 491.288931 
L 315.157797 491.156988 
L 316.03421 491.031397 
L 319.715148 490.071448 
L 320.977183 489.943675 
L 322.063936 489.590539 
L 323.220802 488.974435 
L 325.008686 487.965767 
L 325.77993 487.850669 
L 326.621287 487.742181 
L 328.023549 487.270016 
L 329.601094 486.850922 
L 330.828073 486.751956 
L 331.949882 486.616578 
L 333.071692 486.253713 
L 334.263614 485.628451 
L 335.911272 484.73156 
L 336.717572 484.598356 
L 337.769269 484.466633 
L 341.940998 483.510395 
L 343.23809 483.388962 
L 344.394956 483.039823 
L 345.621935 482.709077 
L 346.778801 482.614491 
L 347.725328 482.446476 
L 348.706911 482.040905 
L 349.828721 481.32149 
L 351.160869 480.175284 
L 352.002226 479.566379 
L 352.668301 479.351506 
L 354.175732 479.045927 
L 355.367655 478.748448 
L 357.611274 478.368094 
L 358.627914 477.83501 
L 360.69625 476.630888 
L 361.50255 476.528897 
L 362.378964 476.403903 
L 365.218544 475.819627 
L 367.181711 475.605301 
L 368.338577 475.187833 
L 369.635669 474.4722 
L 370.792535 473.888277 
L 371.633892 473.734321 
L 373.036154 473.566254 
L 375.455056 473.162307 
L 378.04924 472.875655 
L 379.346332 472.405691 
L 380.783651 471.636449 
L 381.975573 471.052614 
L 382.851987 470.89369 
L 384.324362 470.719605 
L 387.444394 470.151512 
L 390.073635 469.856733 
L 391.335671 469.387801 
L 392.702876 468.633369 
L 394.315477 467.737861 
L 395.156834 467.582379 
L 396.453927 467.421209 
L 399.013054 466.948473 
L 401.607239 466.641922 
L 402.834218 466.168812 
L 404.23648 465.375114 
L 405.393346 464.780431 
L 406.234703 464.616096 
L 407.777191 464.420996 
L 410.406432 463.930313 
L 413.281069 463.576108 
L 414.508048 463.081842 
L 415.840196 462.301225 
L 417.312571 461.451718 
L 418.153928 461.271821 
L 419.696416 461.060947 
L 422.325657 460.497524 
L 425.410633 460.061087 
L 426.637613 459.505202 
L 428.250214 458.490306 
L 429.091571 458.116858 
L 429.897871 457.999779 
L 430.844398 457.886437 
L 434.17477 457.258743 
L 435.927597 457.089255 
L 437.11952 456.704303 
L 438.381555 456.053173 
L 440.590118 454.828766 
L 441.431475 454.734203 
L 442.378002 454.595506 
L 445.603204 453.929784 
L 447.846823 453.67958 
L 449.038745 453.236931 
L 450.300781 452.524047 
L 452.018552 451.518662 
L 452.824852 451.366931 
L 454.051831 451.205417 
L 456.926468 450.585978 
L 459.520653 450.255227 
L 460.712575 449.76165 
L 462.044724 448.953389 
L 463.20159 448.300873 
L 464.00789 448.117819 
L 465.655548 447.877305 
L 467.96928 447.372352 
L 470.388182 447.147241 
L 470.388182 447.147241 
" style="fill:none;stroke:#bcbd22;stroke-linecap:square;stroke-opacity:0.7;stroke-width:1.5;"/>
   </g>
   <g id="line2d_123">
    <path clip-path="url(#p94628344c8)" d="M 302.151818 495.986364 
L 305.58736 495.877176 
L 306.358604 495.648208 
L 306.989622 495.231022 
L 307.620639 494.537842 
L 308.356827 493.37254 
L 309.548749 490.976261 
L 310.670559 488.896751 
L 311.336633 488.095479 
L 311.862481 487.788684 
L 313.019347 487.365844 
L 313.790591 486.598654 
L 315.017571 485.385512 
L 315.578475 485.136809 
L 316.384776 484.900491 
L 316.910624 484.387846 
L 317.576698 483.384092 
L 320.065713 479.261999 
L 320.591561 478.93408 
L 321.81854 478.446422 
L 322.519671 477.669607 
L 324.307555 475.565052 
L 324.86846 475.270264 
L 326.165552 474.815093 
L 326.936796 474.057919 
L 328.654567 472.283371 
L 329.285585 471.987449 
L 330.477507 471.625537 
L 331.143582 471.019506 
L 332.265391 469.633666 
L 333.457314 468.274948 
L 334.193501 467.745037 
L 334.859575 467.520689 
L 338.926135 466.779458 
L 339.662322 466.307881 
L 340.573792 465.435448 
L 344.324843 461.493673 
L 344.535182 461.208031 
L 345.902387 459.396025 
L 346.98914 458.299708 
L 347.795441 457.748656 
L 348.321289 457.625689 
L 348.777024 457.507778 
L 349.232759 457.15458 
L 349.828721 456.38757 
L 351.406265 454.200933 
L 351.897057 453.926848 
L 352.703357 453.633799 
L 353.124036 453.116068 
L 353.649884 452.086419 
L 354.456185 449.932366 
L 355.507881 447.235162 
L 355.998673 446.537108 
L 356.349238 446.392177 
L 356.62969 446.280584 
L 356.980256 445.878286 
L 357.471048 444.925601 
L 358.417574 442.453952 
L 359.329044 440.325622 
L 359.819836 439.656932 
L 360.170402 439.481069 
L 360.520967 439.362618 
L 360.871533 438.9409 
L 361.292211 438.038915 
L 361.888172 436.149538 
L 364.412244 427.346742 
L 364.903035 426.663074 
L 365.288657 426.466318 
L 365.814505 426.305853 
L 366.305297 425.849747 
L 368.233407 423.768852 
L 369.355217 423.267025 
L 369.951178 422.472718 
L 371.739062 419.86743 
L 372.15974 419.674802 
L 372.650532 419.520825 
L 373.036154 419.105968 
L 373.526946 418.207881 
L 374.19302 416.456589 
L 376.541809 409.773951 
L 377.067657 409.052894 
L 377.488335 408.810356 
L 378.15441 408.585085 
L 378.680258 408.036268 
L 379.907237 406.270185 
L 380.573311 405.571382 
L 381.029046 405.384657 
L 381.484781 405.260772 
L 381.90546 404.857433 
L 382.396252 404.04251 
L 383.062326 402.45855 
L 385.446171 396.348256 
L 385.972019 395.715078 
L 386.392698 395.506832 
L 387.058772 395.305823 
L 387.619677 394.787573 
L 389.477674 392.835693 
L 390.003522 392.736213 
L 390.389144 392.53343 
L 390.844879 392.015294 
L 391.405784 390.996858 
L 392.247141 388.921688 
L 393.824686 384.991323 
L 394.455703 384.007552 
L 394.946495 383.611529 
L 395.40223 383.525402 
L 395.857965 383.335466 
L 396.453927 382.798299 
L 398.171697 381.05852 
L 398.662489 380.942887 
L 399.083168 380.800596 
L 399.538903 380.38154 
L 400.099807 379.513156 
L 400.906108 377.773111 
L 402.588822 374.032512 
L 403.21984 373.181402 
L 403.710632 372.855267 
L 404.937611 372.339571 
L 405.814024 371.395855 
L 406.795608 370.441885 
L 407.321456 370.208188 
L 408.127756 369.96956 
L 408.653605 369.454698 
L 409.319679 368.456812 
L 411.703524 364.572654 
L 412.264429 364.199231 
L 412.825333 364.111898 
L 413.316125 363.908697 
L 413.947143 363.386779 
L 416.155705 361.318563 
L 416.71661 361.194326 
L 417.242458 361.08747 
L 417.83842 360.733102 
L 418.714833 359.916129 
L 420.152152 358.575217 
L 420.818226 358.249617 
L 422.50094 357.684238 
L 423.447467 356.837703 
L 425.060068 355.397781 
L 425.866369 354.994048 
L 426.602556 354.868817 
L 427.619196 354.743681 
L 429.792702 354.34818 
L 430.634059 354.214706 
L 431.510472 353.843745 
L 432.702395 353.065572 
L 435.156353 351.413882 
L 436.698841 350.718607 
L 437.820651 350.377869 
L 440.625174 349.820795 
L 441.676871 349.275635 
L 442.413058 348.650712 
L 443.114189 347.745286 
L 443.850377 346.390005 
L 444.72679 344.264979 
L 447.145692 338.078876 
L 447.77671 337.143396 
L 448.302558 336.708817 
L 448.79335 336.566743 
L 449.529537 336.428657 
L 450.966855 336.02412 
L 451.457647 335.868375 
L 451.913382 335.486348 
L 452.43923 334.728512 
L 453.070248 333.391493 
L 454.051831 330.690079 
L 455.454093 326.917264 
L 456.120168 325.72036 
L 456.646016 325.185919 
L 457.101751 325.025843 
L 457.627599 324.898617 
L 458.22356 324.471192 
L 459.766048 323.239944 
L 460.993028 322.698022 
L 461.518876 321.942564 
L 462.220007 320.479999 
L 464.638908 315.016495 
L 465.199813 314.429472 
L 465.655548 314.250898 
L 466.251509 314.100816 
L 466.812414 313.669845 
L 468.775581 311.938467 
L 469.89739 311.50348 
L 470.388182 310.913636 
L 470.388182 310.913636 
" style="fill:none;stroke:#2ca02c;stroke-linecap:square;stroke-opacity:0.7;stroke-width:1.5;"/>
   </g>
   <g id="line2d_124">
    <path clip-path="url(#p94628344c8)" d="M 302.151818 495.986364 
L 304.57072 495.879527 
L 306.113208 495.562794 
L 307.585583 495.328712 
L 309.969428 495.229083 
L 312.17799 495.050705 
L 316.279606 494.333135 
L 344.359899 488.938193 
L 345.656992 487.83232 
L 346.288009 487.607594 
L 349.12759 487.112531 
L 351.160869 486.91818 
L 353.194149 486.517969 
L 371.774118 481.978332 
L 414.017256 471.58919 
L 470.388182 457.72485 
L 470.388182 457.72485 
" style="fill:none;stroke:#17becf;stroke-linecap:square;stroke-opacity:0.7;stroke-width:1.5;"/>
   </g>
   <g id="patch_18">
    <path d="M 293.74 505.24 
L 293.74 301.66 
" style="fill:none;stroke:#000000;stroke-linecap:square;stroke-linejoin:miter;stroke-width:0.8;"/>
   </g>
   <g id="patch_19">
    <path d="M 478.8 505.24 
L 478.8 301.66 
" style="fill:none;stroke:#000000;stroke-linecap:square;stroke-linejoin:miter;stroke-width:0.8;"/>
   </g>
   <g id="patch_20">
    <path d="M 293.74 505.24 
L 478.8 505.24 
" style="fill:none;stroke:#000000;stroke-linecap:square;stroke-linejoin:miter;stroke-width:0.8;"/>
   </g>
   <g id="patch_21">
    <path d="M 293.74 301.66 
L 478.8 301.66 
" style="fill:none;stroke:#000000;stroke-linecap:square;stroke-linejoin:miter;stroke-width:0.8;"/>
   </g>
   <g id="text_48">
    <!-- $\psi$ (rad) -->
    <g transform="translate(365.75 295.66)scale(0.12 -0.12)">
     <defs>
      <path d="M 1591 -78 
Q 891 38 616 341 
Q 278 713 425 1472 
L 819 3500 
L 1400 3500 
L 1009 1494 
Q 900 922 1119 684 
Q 1313 478 1691 434 
L 2284 3500 
L 2856 3500 
L 2263 438 
Q 2681 481 2928 688 
Q 3247 950 3353 1497 
L 3741 3500 
L 4322 3500 
L 3928 1475 
Q 3775 688 3300 344 
Q 2872 34 2163 -75 
L 1919 -1331 
L 1347 -1331 
L 1591 -78 
z
" id="DejaVuSans-Oblique-3c8" transform="scale(0.015625)"/>
      <path d="M 2631 2963 
Q 2534 3019 2420 3045 
Q 2306 3072 2169 3072 
Q 1681 3072 1420 2755 
Q 1159 2438 1159 1844 
L 1159 0 
L 581 0 
L 581 3500 
L 1159 3500 
L 1159 2956 
Q 1341 3275 1631 3429 
Q 1922 3584 2338 3584 
Q 2397 3584 2469 3576 
Q 2541 3569 2628 3553 
L 2631 2963 
z
" id="DejaVuSans-72" transform="scale(0.015625)"/>
      <path d="M 2194 1759 
Q 1497 1759 1228 1600 
Q 959 1441 959 1056 
Q 959 750 1161 570 
Q 1363 391 1709 391 
Q 2188 391 2477 730 
Q 2766 1069 2766 1631 
L 2766 1759 
L 2194 1759 
z
M 3341 1997 
L 3341 0 
L 2766 0 
L 2766 531 
Q 2569 213 2275 61 
Q 1981 -91 1556 -91 
Q 1019 -91 701 211 
Q 384 513 384 1019 
Q 384 1609 779 1909 
Q 1175 2209 1959 2209 
L 2766 2209 
L 2766 2266 
Q 2766 2663 2505 2880 
Q 2244 3097 1772 3097 
Q 1472 3097 1187 3025 
Q 903 2953 641 2809 
L 641 3341 
Q 956 3463 1253 3523 
Q 1550 3584 1831 3584 
Q 2591 3584 2966 3190 
Q 3341 2797 3341 1997 
z
" id="DejaVuSans-61" transform="scale(0.015625)"/>
      <path d="M 2906 2969 
L 2906 4863 
L 3481 4863 
L 3481 0 
L 2906 0 
L 2906 525 
Q 2725 213 2448 61 
Q 2172 -91 1784 -91 
Q 1150 -91 751 415 
Q 353 922 353 1747 
Q 353 2572 751 3078 
Q 1150 3584 1784 3584 
Q 2172 3584 2448 3432 
Q 2725 3281 2906 2969 
z
M 947 1747 
Q 947 1113 1208 752 
Q 1469 391 1925 391 
Q 2381 391 2643 752 
Q 2906 1113 2906 1747 
Q 2906 2381 2643 2742 
Q 2381 3103 1925 3103 
Q 1469 3103 1208 2742 
Q 947 2381 947 1747 
z
" id="DejaVuSans-64" transform="scale(0.015625)"/>
     </defs>
     <use transform="translate(0 0.015625)" xlink:href="#DejaVuSans-Oblique-3c8"/>
     <use transform="translate(65.966797 0.015625)" xlink:href="#DejaVuSans-20"/>
     <use transform="translate(97.753906 0.015625)" xlink:href="#DejaVuSans-28"/>
     <use transform="translate(136.767578 0.015625)" xlink:href="#DejaVuSans-72"/>
     <use transform="translate(177.880859 0.015625)" xlink:href="#DejaVuSans-61"/>
     <use transform="translate(239.160156 0.015625)" xlink:href="#DejaVuSans-64"/>
     <use transform="translate(302.636719 0.015625)" xlink:href="#DejaVuSans-29"/>
    </g>
   </g>
  </g>
  <g id="legend_1">
   <g id="patch_22">
    <path d="M 477.035937 334.229688 
L 569 334.229688 
Q 571 334.229688 571 332.229688 
L 571 243.770313 
Q 571 241.770313 569 241.770313 
L 477.035937 241.770313 
Q 475.035937 241.770313 475.035937 243.770313 
L 475.035937 332.229688 
Q 475.035937 334.229688 477.035937 334.229688 
z
" style="fill:#ffffff;opacity:0.8;stroke:#cccccc;stroke-linejoin:miter;"/>
   </g>
   <g id="line2d_125">
    <path d="M 479.035937 249.86875 
L 499.035937 249.86875 
" style="fill:none;stroke:#1f77b4;stroke-linecap:square;stroke-opacity:0.7;stroke-width:1.5;"/>
   </g>
   <g id="line2d_126"/>
   <g id="text_49">
    <!-- DSLPID -->
    <g transform="translate(507.035937 253.36875)scale(0.1 -0.1)">
     <defs>
      <path d="M 1259 4147 
L 1259 519 
L 2022 519 
Q 2988 519 3436 956 
Q 3884 1394 3884 2338 
Q 3884 3275 3436 3711 
Q 2988 4147 2022 4147 
L 1259 4147 
z
M 628 4666 
L 1925 4666 
Q 3281 4666 3915 4102 
Q 4550 3538 4550 2338 
Q 4550 1131 3912 565 
Q 3275 0 1925 0 
L 628 0 
L 628 4666 
z
" id="DejaVuSans-44" transform="scale(0.015625)"/>
      <path d="M 3425 4513 
L 3425 3897 
Q 3066 4069 2747 4153 
Q 2428 4238 2131 4238 
Q 1616 4238 1336 4038 
Q 1056 3838 1056 3469 
Q 1056 3159 1242 3001 
Q 1428 2844 1947 2747 
L 2328 2669 
Q 3034 2534 3370 2195 
Q 3706 1856 3706 1288 
Q 3706 609 3251 259 
Q 2797 -91 1919 -91 
Q 1588 -91 1214 -16 
Q 841 59 441 206 
L 441 856 
Q 825 641 1194 531 
Q 1563 422 1919 422 
Q 2459 422 2753 634 
Q 3047 847 3047 1241 
Q 3047 1584 2836 1778 
Q 2625 1972 2144 2069 
L 1759 2144 
Q 1053 2284 737 2584 
Q 422 2884 422 3419 
Q 422 4038 858 4394 
Q 1294 4750 2059 4750 
Q 2388 4750 2728 4690 
Q 3069 4631 3425 4513 
z
" id="DejaVuSans-53" transform="scale(0.015625)"/>
      <path d="M 628 4666 
L 1259 4666 
L 1259 531 
L 3531 531 
L 3531 0 
L 628 0 
L 628 4666 
z
" id="DejaVuSans-4c" transform="scale(0.015625)"/>
      <path d="M 1259 4147 
L 1259 2394 
L 2053 2394 
Q 2494 2394 2734 2622 
Q 2975 2850 2975 3272 
Q 2975 3691 2734 3919 
Q 2494 4147 2053 4147 
L 1259 4147 
z
M 628 4666 
L 2053 4666 
Q 2838 4666 3239 4311 
Q 3641 3956 3641 3272 
Q 3641 2581 3239 2228 
Q 2838 1875 2053 1875 
L 1259 1875 
L 1259 0 
L 628 0 
L 628 4666 
z
" id="DejaVuSans-50" transform="scale(0.015625)"/>
      <path d="M 628 4666 
L 1259 4666 
L 1259 0 
L 628 0 
L 628 4666 
z
" id="DejaVuSans-49" transform="scale(0.015625)"/>
     </defs>
     <use xlink:href="#DejaVuSans-44"/>
     <use x="77.001953" xlink:href="#DejaVuSans-53"/>
     <use x="140.478516" xlink:href="#DejaVuSans-4c"/>
     <use x="196.191406" xlink:href="#DejaVuSans-50"/>
     <use x="256.494141" xlink:href="#DejaVuSans-49"/>
     <use x="285.986328" xlink:href="#DejaVuSans-44"/>
    </g>
   </g>
   <g id="line2d_127">
    <path d="M 479.035937 264.546875 
L 499.035937 264.546875 
" style="fill:none;stroke:#d62728;stroke-linecap:square;stroke-opacity:0.7;stroke-width:1.5;"/>
   </g>
   <g id="line2d_128"/>
   <g id="text_50">
    <!-- LSTMCNN_1 -->
    <g transform="translate(507.035937 268.046875)scale(0.1 -0.1)">
     <defs>
      <path d="M 628 4666 
L 1569 4666 
L 2759 1491 
L 3956 4666 
L 4897 4666 
L 4897 0 
L 4281 0 
L 4281 4097 
L 3078 897 
L 2444 897 
L 1241 4097 
L 1241 0 
L 628 0 
L 628 4666 
z
" id="DejaVuSans-4d" transform="scale(0.015625)"/>
      <path d="M 4122 4306 
L 4122 3641 
Q 3803 3938 3442 4084 
Q 3081 4231 2675 4231 
Q 1875 4231 1450 3742 
Q 1025 3253 1025 2328 
Q 1025 1406 1450 917 
Q 1875 428 2675 428 
Q 3081 428 3442 575 
Q 3803 722 4122 1019 
L 4122 359 
Q 3791 134 3420 21 
Q 3050 -91 2638 -91 
Q 1578 -91 968 557 
Q 359 1206 359 2328 
Q 359 3453 968 4101 
Q 1578 4750 2638 4750 
Q 3056 4750 3426 4639 
Q 3797 4528 4122 4306 
z
" id="DejaVuSans-43" transform="scale(0.015625)"/>
      <path d="M 628 4666 
L 1478 4666 
L 3547 763 
L 3547 4666 
L 4159 4666 
L 4159 0 
L 3309 0 
L 1241 3903 
L 1241 0 
L 628 0 
L 628 4666 
z
" id="DejaVuSans-4e" transform="scale(0.015625)"/>
      <path d="M 3263 -1063 
L 3263 -1509 
L -63 -1509 
L -63 -1063 
L 3263 -1063 
z
" id="DejaVuSans-5f" transform="scale(0.015625)"/>
     </defs>
     <use xlink:href="#DejaVuSans-4c"/>
     <use x="55.712891" xlink:href="#DejaVuSans-53"/>
     <use x="119.189453" xlink:href="#DejaVuSans-54"/>
     <use x="180.273438" xlink:href="#DejaVuSans-4d"/>
     <use x="266.552734" xlink:href="#DejaVuSans-43"/>
     <use x="336.376953" xlink:href="#DejaVuSans-4e"/>
     <use x="411.181641" xlink:href="#DejaVuSans-4e"/>
     <use x="485.986328" xlink:href="#DejaVuSans-5f"/>
     <use x="535.986328" xlink:href="#DejaVuSans-31"/>
    </g>
   </g>
   <g id="line2d_129">
    <path d="M 479.035937 279.503125 
L 499.035937 279.503125 
" style="fill:none;stroke:#9467bd;stroke-linecap:square;stroke-opacity:0.7;stroke-width:1.5;"/>
   </g>
   <g id="line2d_130"/>
   <g id="text_51">
    <!-- LSTMCNN_2 -->
    <g transform="translate(507.035937 283.003125)scale(0.1 -0.1)">
     <use xlink:href="#DejaVuSans-4c"/>
     <use x="55.712891" xlink:href="#DejaVuSans-53"/>
     <use x="119.189453" xlink:href="#DejaVuSans-54"/>
     <use x="180.273438" xlink:href="#DejaVuSans-4d"/>
     <use x="266.552734" xlink:href="#DejaVuSans-43"/>
     <use x="336.376953" xlink:href="#DejaVuSans-4e"/>
     <use x="411.181641" xlink:href="#DejaVuSans-4e"/>
     <use x="485.986328" xlink:href="#DejaVuSans-5f"/>
     <use x="535.986328" xlink:href="#DejaVuSans-32"/>
    </g>
   </g>
   <g id="line2d_131">
    <path d="M 479.035937 294.459375 
L 499.035937 294.459375 
" style="fill:none;stroke:#bcbd22;stroke-linecap:square;stroke-opacity:0.7;stroke-width:1.5;"/>
   </g>
   <g id="line2d_132"/>
   <g id="text_52">
    <!-- LSTMCNN_3 -->
    <g transform="translate(507.035937 297.959375)scale(0.1 -0.1)">
     <use xlink:href="#DejaVuSans-4c"/>
     <use x="55.712891" xlink:href="#DejaVuSans-53"/>
     <use x="119.189453" xlink:href="#DejaVuSans-54"/>
     <use x="180.273438" xlink:href="#DejaVuSans-4d"/>
     <use x="266.552734" xlink:href="#DejaVuSans-43"/>
     <use x="336.376953" xlink:href="#DejaVuSans-4e"/>
     <use x="411.181641" xlink:href="#DejaVuSans-4e"/>
     <use x="485.986328" xlink:href="#DejaVuSans-5f"/>
     <use x="535.986328" xlink:href="#DejaVuSans-33"/>
    </g>
   </g>
   <g id="line2d_133">
    <path d="M 479.035937 309.415625 
L 499.035937 309.415625 
" style="fill:none;stroke:#2ca02c;stroke-linecap:square;stroke-opacity:0.7;stroke-width:1.5;"/>
   </g>
   <g id="line2d_134"/>
   <g id="text_53">
    <!-- LSTMCNN_4 -->
    <g transform="translate(507.035937 312.915625)scale(0.1 -0.1)">
     <use xlink:href="#DejaVuSans-4c"/>
     <use x="55.712891" xlink:href="#DejaVuSans-53"/>
     <use x="119.189453" xlink:href="#DejaVuSans-54"/>
     <use x="180.273438" xlink:href="#DejaVuSans-4d"/>
     <use x="266.552734" xlink:href="#DejaVuSans-43"/>
     <use x="336.376953" xlink:href="#DejaVuSans-4e"/>
     <use x="411.181641" xlink:href="#DejaVuSans-4e"/>
     <use x="485.986328" xlink:href="#DejaVuSans-5f"/>
     <use x="535.986328" xlink:href="#DejaVuSans-34"/>
    </g>
   </g>
   <g id="line2d_135">
    <path d="M 479.035937 324.371875 
L 499.035937 324.371875 
" style="fill:none;stroke:#17becf;stroke-linecap:square;stroke-opacity:0.7;stroke-width:1.5;"/>
   </g>
   <g id="line2d_136"/>
   <g id="text_54">
    <!-- LSTMCNN_5 -->
    <g transform="translate(507.035937 327.871875)scale(0.1 -0.1)">
     <use xlink:href="#DejaVuSans-4c"/>
     <use x="55.712891" xlink:href="#DejaVuSans-53"/>
     <use x="119.189453" xlink:href="#DejaVuSans-54"/>
     <use x="180.273438" xlink:href="#DejaVuSans-4d"/>
     <use x="266.552734" xlink:href="#DejaVuSans-43"/>
     <use x="336.376953" xlink:href="#DejaVuSans-4e"/>
     <use x="411.181641" xlink:href="#DejaVuSans-4e"/>
     <use x="485.986328" xlink:href="#DejaVuSans-5f"/>
     <use x="535.986328" xlink:href="#DejaVuSans-35"/>
    </g>
   </g>
  </g>
 </g>
 <defs>
  <clipPath id="p835f950b38">
   <rect height="203.58" width="185.06" x="71.89" y="55.68"/>
  </clipPath>
  <clipPath id="p4d6134d55d">
   <rect height="203.58" width="185.06" x="293.74" y="55.68"/>
  </clipPath>
  <clipPath id="pbbbc8092af">
   <rect height="203.58" width="185.06" x="71.89" y="301.66"/>
  </clipPath>
  <clipPath id="p94628344c8">
   <rect height="203.58" width="185.06" x="293.74" y="301.66"/>
  </clipPath>
 </defs>
</svg>
