<?xml version="1.0" encoding="utf-8" standalone="no"?>
<!DOCTYPE svg PUBLIC "-//W3C//DTD SVG 1.1//EN"
  "http://www.w3.org/Graphics/SVG/1.1/DTD/svg11.dtd">
<svg height="288pt" version="1.1" viewBox="0 0 576 288" width="576pt" xmlns="http://www.w3.org/2000/svg" xmlns:xlink="http://www.w3.org/1999/xlink">
 <metadata>
  <rdf:RDF xmlns:cc="http://creativecommons.org/ns#" xmlns:dc="http://purl.org/dc/elements/1.1/" xmlns:rdf="http://www.w3.org/1999/02/22-rdf-syntax-ns#">
   <cc:Work>
    <dc:type rdf:resource="http://purl.org/dc/dcmitype/StillImage"/>
    <dc:date>2022-02-27T16:23:06.262640</dc:date>
    <dc:format>image/svg+xml</dc:format>
    <dc:creator>
     <cc:Agent>
      <dc:title>Matplotlib v3.4.3, https://matplotlib.org/</dc:title>
     </cc:Agent>
    </dc:creator>
   </cc:Work>
  </rdf:RDF>
 </metadata>
 <defs>
  <style type="text/css">*{stroke-linecap:butt;stroke-linejoin:round;}</style>
 </defs>
 <g id="figure_1">
  <g id="patch_1">
   <path d="M 0 288 
L 576 288 
L 576 0 
L 0 0 
z
" style="fill:#ffffff;"/>
  </g>
  <g id="axes_1">
   <g id="patch_2">
    <path d="M 91.19 231.64 
L 261.135 231.64 
L 261.135 41.28 
L 91.19 41.28 
z
" style="fill:#ffffff;"/>
   </g>
   <g id="matplotlib.axis_1">
    <g id="xtick_1">
     <g id="line2d_1">
      <path clip-path="url(#pf5474a06d3)" d="M 119.92625 231.64 
L 119.92625 41.28 
" style="fill:none;stroke:#b0b0b0;stroke-linecap:square;stroke-width:0.8;"/>
     </g>
     <g id="line2d_2">
      <defs>
       <path d="M 0 0 
L 0 3.5 
" id="m034018ca73" style="stroke:#000000;stroke-width:0.8;"/>
      </defs>
      <g>
       <use style="stroke:#000000;stroke-width:0.8;" x="119.92625" xlink:href="#m034018ca73" y="231.64"/>
      </g>
     </g>
     <g id="text_1">
      <!-- 0.00 -->
      <g transform="translate(108.793437 246.238438)scale(0.1 -0.1)">
       <defs>
        <path d="M 2034 4250 
Q 1547 4250 1301 3770 
Q 1056 3291 1056 2328 
Q 1056 1369 1301 889 
Q 1547 409 2034 409 
Q 2525 409 2770 889 
Q 3016 1369 3016 2328 
Q 3016 3291 2770 3770 
Q 2525 4250 2034 4250 
z
M 2034 4750 
Q 2819 4750 3233 4129 
Q 3647 3509 3647 2328 
Q 3647 1150 3233 529 
Q 2819 -91 2034 -91 
Q 1250 -91 836 529 
Q 422 1150 422 2328 
Q 422 3509 836 4129 
Q 1250 4750 2034 4750 
z
" id="DejaVuSans-30" transform="scale(0.015625)"/>
        <path d="M 684 794 
L 1344 794 
L 1344 0 
L 684 0 
L 684 794 
z
" id="DejaVuSans-2e" transform="scale(0.015625)"/>
       </defs>
       <use xlink:href="#DejaVuSans-30"/>
       <use x="63.623047" xlink:href="#DejaVuSans-2e"/>
       <use x="95.410156" xlink:href="#DejaVuSans-30"/>
       <use x="159.033203" xlink:href="#DejaVuSans-30"/>
      </g>
     </g>
    </g>
    <g id="xtick_2">
     <g id="line2d_3">
      <path clip-path="url(#pf5474a06d3)" d="M 162.700734 231.64 
L 162.700734 41.28 
" style="fill:none;stroke:#b0b0b0;stroke-linecap:square;stroke-width:0.8;"/>
     </g>
     <g id="line2d_4">
      <g>
       <use style="stroke:#000000;stroke-width:0.8;" x="162.700734" xlink:href="#m034018ca73" y="231.64"/>
      </g>
     </g>
     <g id="text_2">
      <!-- 0.05 -->
      <g transform="translate(151.567921 246.238438)scale(0.1 -0.1)">
       <defs>
        <path d="M 691 4666 
L 3169 4666 
L 3169 4134 
L 1269 4134 
L 1269 2991 
Q 1406 3038 1543 3061 
Q 1681 3084 1819 3084 
Q 2600 3084 3056 2656 
Q 3513 2228 3513 1497 
Q 3513 744 3044 326 
Q 2575 -91 1722 -91 
Q 1428 -91 1123 -41 
Q 819 9 494 109 
L 494 744 
Q 775 591 1075 516 
Q 1375 441 1709 441 
Q 2250 441 2565 725 
Q 2881 1009 2881 1497 
Q 2881 1984 2565 2268 
Q 2250 2553 1709 2553 
Q 1456 2553 1204 2497 
Q 953 2441 691 2322 
L 691 4666 
z
" id="DejaVuSans-35" transform="scale(0.015625)"/>
       </defs>
       <use xlink:href="#DejaVuSans-30"/>
       <use x="63.623047" xlink:href="#DejaVuSans-2e"/>
       <use x="95.410156" xlink:href="#DejaVuSans-30"/>
       <use x="159.033203" xlink:href="#DejaVuSans-35"/>
      </g>
     </g>
    </g>
    <g id="xtick_3">
     <g id="line2d_5">
      <path clip-path="url(#pf5474a06d3)" d="M 205.475217 231.64 
L 205.475217 41.28 
" style="fill:none;stroke:#b0b0b0;stroke-linecap:square;stroke-width:0.8;"/>
     </g>
     <g id="line2d_6">
      <g>
       <use style="stroke:#000000;stroke-width:0.8;" x="205.475217" xlink:href="#m034018ca73" y="231.64"/>
      </g>
     </g>
     <g id="text_3">
      <!-- 0.10 -->
      <g transform="translate(194.342405 246.238438)scale(0.1 -0.1)">
       <defs>
        <path d="M 794 531 
L 1825 531 
L 1825 4091 
L 703 3866 
L 703 4441 
L 1819 4666 
L 2450 4666 
L 2450 531 
L 3481 531 
L 3481 0 
L 794 0 
L 794 531 
z
" id="DejaVuSans-31" transform="scale(0.015625)"/>
       </defs>
       <use xlink:href="#DejaVuSans-30"/>
       <use x="63.623047" xlink:href="#DejaVuSans-2e"/>
       <use x="95.410156" xlink:href="#DejaVuSans-31"/>
       <use x="159.033203" xlink:href="#DejaVuSans-30"/>
      </g>
     </g>
    </g>
    <g id="xtick_4">
     <g id="line2d_7">
      <path clip-path="url(#pf5474a06d3)" d="M 248.249701 231.64 
L 248.249701 41.28 
" style="fill:none;stroke:#b0b0b0;stroke-linecap:square;stroke-width:0.8;"/>
     </g>
     <g id="line2d_8">
      <g>
       <use style="stroke:#000000;stroke-width:0.8;" x="248.249701" xlink:href="#m034018ca73" y="231.64"/>
      </g>
     </g>
     <g id="text_4">
      <!-- 0.15 -->
      <g transform="translate(237.116888 246.238438)scale(0.1 -0.1)">
       <use xlink:href="#DejaVuSans-30"/>
       <use x="63.623047" xlink:href="#DejaVuSans-2e"/>
       <use x="95.410156" xlink:href="#DejaVuSans-31"/>
       <use x="159.033203" xlink:href="#DejaVuSans-35"/>
      </g>
     </g>
    </g>
    <g id="text_5">
     <!-- x (m) -->
     <g transform="translate(162.842187 259.916562)scale(0.1 -0.1)">
      <defs>
       <path d="M 3513 3500 
L 2247 1797 
L 3578 0 
L 2900 0 
L 1881 1375 
L 863 0 
L 184 0 
L 1544 1831 
L 300 3500 
L 978 3500 
L 1906 2253 
L 2834 3500 
L 3513 3500 
z
" id="DejaVuSans-78" transform="scale(0.015625)"/>
       <path id="DejaVuSans-20" transform="scale(0.015625)"/>
       <path d="M 1984 4856 
Q 1566 4138 1362 3434 
Q 1159 2731 1159 2009 
Q 1159 1288 1364 580 
Q 1569 -128 1984 -844 
L 1484 -844 
Q 1016 -109 783 600 
Q 550 1309 550 2009 
Q 550 2706 781 3412 
Q 1013 4119 1484 4856 
L 1984 4856 
z
" id="DejaVuSans-28" transform="scale(0.015625)"/>
       <path d="M 3328 2828 
Q 3544 3216 3844 3400 
Q 4144 3584 4550 3584 
Q 5097 3584 5394 3201 
Q 5691 2819 5691 2113 
L 5691 0 
L 5113 0 
L 5113 2094 
Q 5113 2597 4934 2840 
Q 4756 3084 4391 3084 
Q 3944 3084 3684 2787 
Q 3425 2491 3425 1978 
L 3425 0 
L 2847 0 
L 2847 2094 
Q 2847 2600 2669 2842 
Q 2491 3084 2119 3084 
Q 1678 3084 1418 2786 
Q 1159 2488 1159 1978 
L 1159 0 
L 581 0 
L 581 3500 
L 1159 3500 
L 1159 2956 
Q 1356 3278 1631 3431 
Q 1906 3584 2284 3584 
Q 2666 3584 2933 3390 
Q 3200 3197 3328 2828 
z
" id="DejaVuSans-6d" transform="scale(0.015625)"/>
       <path d="M 513 4856 
L 1013 4856 
Q 1481 4119 1714 3412 
Q 1947 2706 1947 2009 
Q 1947 1309 1714 600 
Q 1481 -109 1013 -844 
L 513 -844 
Q 928 -128 1133 580 
Q 1338 1288 1338 2009 
Q 1338 2731 1133 3434 
Q 928 4138 513 4856 
z
" id="DejaVuSans-29" transform="scale(0.015625)"/>
      </defs>
      <use xlink:href="#DejaVuSans-78"/>
      <use x="59.179688" xlink:href="#DejaVuSans-20"/>
      <use x="90.966797" xlink:href="#DejaVuSans-28"/>
      <use x="129.980469" xlink:href="#DejaVuSans-6d"/>
      <use x="227.392578" xlink:href="#DejaVuSans-29"/>
     </g>
    </g>
   </g>
   <g id="matplotlib.axis_2">
    <g id="ytick_1">
     <g id="line2d_9">
      <path clip-path="url(#pf5474a06d3)" d="M 91.19 224.192236 
L 261.135 224.192236 
" style="fill:none;stroke:#b0b0b0;stroke-linecap:square;stroke-width:0.8;"/>
     </g>
     <g id="line2d_10">
      <defs>
       <path d="M 0 0 
L -3.5 0 
" id="m8bb4d637a4" style="stroke:#000000;stroke-width:0.8;"/>
      </defs>
      <g>
       <use style="stroke:#000000;stroke-width:0.8;" x="91.19" xlink:href="#m8bb4d637a4" y="224.192236"/>
      </g>
     </g>
     <g id="text_6">
      <!-- −0.10 -->
      <g transform="translate(53.544688 227.991455)scale(0.1 -0.1)">
       <defs>
        <path d="M 678 2272 
L 4684 2272 
L 4684 1741 
L 678 1741 
L 678 2272 
z
" id="DejaVuSans-2212" transform="scale(0.015625)"/>
       </defs>
       <use xlink:href="#DejaVuSans-2212"/>
       <use x="83.789062" xlink:href="#DejaVuSans-30"/>
       <use x="147.412109" xlink:href="#DejaVuSans-2e"/>
       <use x="179.199219" xlink:href="#DejaVuSans-31"/>
       <use x="242.822266" xlink:href="#DejaVuSans-30"/>
      </g>
     </g>
    </g>
    <g id="ytick_2">
     <g id="line2d_11">
      <path clip-path="url(#pf5474a06d3)" d="M 91.19 190.262406 
L 261.135 190.262406 
" style="fill:none;stroke:#b0b0b0;stroke-linecap:square;stroke-width:0.8;"/>
     </g>
     <g id="line2d_12">
      <g>
       <use style="stroke:#000000;stroke-width:0.8;" x="91.19" xlink:href="#m8bb4d637a4" y="190.262406"/>
      </g>
     </g>
     <g id="text_7">
      <!-- −0.05 -->
      <g transform="translate(53.544688 194.061625)scale(0.1 -0.1)">
       <use xlink:href="#DejaVuSans-2212"/>
       <use x="83.789062" xlink:href="#DejaVuSans-30"/>
       <use x="147.412109" xlink:href="#DejaVuSans-2e"/>
       <use x="179.199219" xlink:href="#DejaVuSans-30"/>
       <use x="242.822266" xlink:href="#DejaVuSans-35"/>
      </g>
     </g>
    </g>
    <g id="ytick_3">
     <g id="line2d_13">
      <path clip-path="url(#pf5474a06d3)" d="M 91.19 156.332575 
L 261.135 156.332575 
" style="fill:none;stroke:#b0b0b0;stroke-linecap:square;stroke-width:0.8;"/>
     </g>
     <g id="line2d_14">
      <g>
       <use style="stroke:#000000;stroke-width:0.8;" x="91.19" xlink:href="#m8bb4d637a4" y="156.332575"/>
      </g>
     </g>
     <g id="text_8">
      <!-- 0.00 -->
      <g transform="translate(61.924375 160.131794)scale(0.1 -0.1)">
       <use xlink:href="#DejaVuSans-30"/>
       <use x="63.623047" xlink:href="#DejaVuSans-2e"/>
       <use x="95.410156" xlink:href="#DejaVuSans-30"/>
       <use x="159.033203" xlink:href="#DejaVuSans-30"/>
      </g>
     </g>
    </g>
    <g id="ytick_4">
     <g id="line2d_15">
      <path clip-path="url(#pf5474a06d3)" d="M 91.19 122.402745 
L 261.135 122.402745 
" style="fill:none;stroke:#b0b0b0;stroke-linecap:square;stroke-width:0.8;"/>
     </g>
     <g id="line2d_16">
      <g>
       <use style="stroke:#000000;stroke-width:0.8;" x="91.19" xlink:href="#m8bb4d637a4" y="122.402745"/>
      </g>
     </g>
     <g id="text_9">
      <!-- 0.05 -->
      <g transform="translate(61.924375 126.201964)scale(0.1 -0.1)">
       <use xlink:href="#DejaVuSans-30"/>
       <use x="63.623047" xlink:href="#DejaVuSans-2e"/>
       <use x="95.410156" xlink:href="#DejaVuSans-30"/>
       <use x="159.033203" xlink:href="#DejaVuSans-35"/>
      </g>
     </g>
    </g>
    <g id="ytick_5">
     <g id="line2d_17">
      <path clip-path="url(#pf5474a06d3)" d="M 91.19 88.472915 
L 261.135 88.472915 
" style="fill:none;stroke:#b0b0b0;stroke-linecap:square;stroke-width:0.8;"/>
     </g>
     <g id="line2d_18">
      <g>
       <use style="stroke:#000000;stroke-width:0.8;" x="91.19" xlink:href="#m8bb4d637a4" y="88.472915"/>
      </g>
     </g>
     <g id="text_10">
      <!-- 0.10 -->
      <g transform="translate(61.924375 92.272133)scale(0.1 -0.1)">
       <use xlink:href="#DejaVuSans-30"/>
       <use x="63.623047" xlink:href="#DejaVuSans-2e"/>
       <use x="95.410156" xlink:href="#DejaVuSans-31"/>
       <use x="159.033203" xlink:href="#DejaVuSans-30"/>
      </g>
     </g>
    </g>
    <g id="ytick_6">
     <g id="line2d_19">
      <path clip-path="url(#pf5474a06d3)" d="M 91.19 54.543084 
L 261.135 54.543084 
" style="fill:none;stroke:#b0b0b0;stroke-linecap:square;stroke-width:0.8;"/>
     </g>
     <g id="line2d_20">
      <g>
       <use style="stroke:#000000;stroke-width:0.8;" x="91.19" xlink:href="#m8bb4d637a4" y="54.543084"/>
      </g>
     </g>
     <g id="text_11">
      <!-- 0.15 -->
      <g transform="translate(61.924375 58.342303)scale(0.1 -0.1)">
       <use xlink:href="#DejaVuSans-30"/>
       <use x="63.623047" xlink:href="#DejaVuSans-2e"/>
       <use x="95.410156" xlink:href="#DejaVuSans-31"/>
       <use x="159.033203" xlink:href="#DejaVuSans-35"/>
      </g>
     </g>
    </g>
    <g id="text_12">
     <!-- y (m) -->
     <g transform="translate(47.465 149.780313)rotate(-90)scale(0.1 -0.1)">
      <defs>
       <path d="M 2059 -325 
Q 1816 -950 1584 -1140 
Q 1353 -1331 966 -1331 
L 506 -1331 
L 506 -850 
L 844 -850 
Q 1081 -850 1212 -737 
Q 1344 -625 1503 -206 
L 1606 56 
L 191 3500 
L 800 3500 
L 1894 763 
L 2988 3500 
L 3597 3500 
L 2059 -325 
z
" id="DejaVuSans-79" transform="scale(0.015625)"/>
      </defs>
      <use xlink:href="#DejaVuSans-79"/>
      <use x="59.179688" xlink:href="#DejaVuSans-20"/>
      <use x="90.966797" xlink:href="#DejaVuSans-28"/>
      <use x="129.980469" xlink:href="#DejaVuSans-6d"/>
      <use x="227.392578" xlink:href="#DejaVuSans-29"/>
     </g>
    </g>
   </g>
   <g id="line2d_21">
    <path clip-path="url(#pf5474a06d3)" d="M 119.92625 156.332575 
L 126.75994 150.772824 
L 168.355352 117.085178 
L 187.974881 101.484734 
L 198.993418 92.965904 
L 201.858616 91.003394 
L 203.682161 89.999791 
L 204.565499 89.729769 
L 204.954289 89.801681 
L 205.054639 90.029161 
L 204.93986 90.377094 
L 204.509146 90.865993 
L 204.153016 91.002277 
L 204.094562 90.854646 
L 204.253043 90.418363 
L 204.835737 89.523719 
L 206.048249 88.083753 
L 207.775962 86.37896 
L 209.44388 85.023568 
L 210.344371 84.529023 
L 210.425196 84.56877 
L 210.409401 84.631093 
L 210.141382 84.925097 
L 209.948151 85.003753 
L 209.970432 84.916218 
L 210.216556 84.66325 
L 209.763487 85.048791 
L 206.764363 87.44459 
L 206.422196 87.7176 
L 206.422196 87.7176 
" style="fill:none;stroke:#1f77b4;stroke-linecap:square;stroke-opacity:0.7;stroke-width:1.5;"/>
   </g>
   <g id="line2d_22">
    <path clip-path="url(#pf5474a06d3)" d="M 119.92625 156.332575 
L 119.555512 155.594734 
L 117.925859 152.812807 
L 117.577672 152.823738 
L 116.497406 153.234298 
L 115.824093 153.550936 
L 115.483581 153.711685 
L 113.567125 155.300578 
L 112.748938 155.721185 
L 111.845237 156.149983 
L 110.140533 156.825307 
L 108.056995 158.165302 
L 107.634627 158.673623 
L 106.741641 160.419805 
L 106.569465 160.612258 
L 106.520719 160.822505 
L 106.568685 161.033812 
L 106.635259 160.911056 
L 107.469685 159.833091 
L 109.383534 157.722774 
L 112.785037 154.337004 
L 117.752737 149.727314 
L 124.188258 144.067622 
L 131.853368 137.631582 
L 140.41684 130.74153 
L 149.495109 123.738934 
L 158.672492 116.955798 
L 166.766262 111.232018 
L 174.352348 106.11637 
L 181.232668 101.728943 
L 187.272558 98.127721 
L 192.39667 95.314331 
L 196.947183 93.073603 
L 200.378652 91.632631 
L 202.749248 90.876211 
L 204.068777 90.678091 
L 204.625263 90.78539 
L 204.804237 91.027412 
L 204.746397 91.370127 
L 204.405493 91.900692 
L 203.584337 92.709885 
L 202.486166 93.491177 
L 201.543357 93.923958 
L 201.0418 93.955981 
L 200.849523 93.794063 
L 200.823553 93.485263 
L 201.04018 92.879634 
L 201.667922 91.897509 
L 202.808128 90.56661 
L 204.319788 89.146188 
L 205.886079 87.960672 
L 207.191205 87.225563 
L 208.064165 86.96278 
L 208.51958 87.03047 
L 208.688528 87.256638 
L 208.664421 87.62406 
L 208.39763 88.10191 
L 207.935224 88.485207 
L 207.470583 88.60635 
L 207.026293 88.489084 
L 206.138266 88.187871 
L 204.850929 88.142036 
L 203.384588 87.99978 
L 202.372756 87.668373 
L 201.853417 87.638162 
L 201.024984 87.57819 
L 200.589044 87.325137 
L 200.377027 86.952032 
L 200.122752 86.472154 
L 198.651022 86.407534 
L 197.181457 86.552789 
L 195.632156 86.934748 
L 194.196413 87.506898 
L 193.326622 88.073032 
L 192.769792 88.702449 
L 191.70038 90.407729 
L 191.197259 91.582198 
L 191.171851 92.187985 
L 191.353623 92.682385 
L 191.690915 93.00302 
L 192.168337 93.122589 
L 193.22358 93.124521 
L 196.225981 92.888824 
L 196.228478 92.793226 
L 196.139996 92.800859 
L 195.158059 92.903198 
L 195.285726 93.054794 
L 195.211164 93.16234 
L 195.175499 93.171223 
L 195.487617 93.053569 
L 195.748201 92.935394 
L 195.741376 92.910775 
L 195.624823 92.978242 
L 195.609939 92.954324 
L 195.456431 92.958678 
L 195.412882 92.855302 
L 195.485435 92.858352 
" style="fill:none;stroke:#d62728;stroke-linecap:square;stroke-opacity:0.7;stroke-width:1.5;"/>
   </g>
   <g id="line2d_23">
    <path clip-path="url(#pf5474a06d3)" d="M 119.92625 156.332575 
L 116.774909 155.984338 
L 113.419562 155.449928 
L 111.671544 154.973927 
L 111.094354 154.627593 
L 111.114866 154.464008 
L 111.403336 154.344825 
L 112.195222 154.293662 
L 113.359437 154.440809 
L 114.26021 154.759667 
L 114.646246 155.105142 
L 114.690084 155.424381 
L 114.497473 155.760509 
L 113.931732 156.228687 
L 112.133053 157.298809 
L 111.006907 158.120578 
L 110.332886 158.880415 
L 109.812434 159.823173 
L 108.833371 161.710072 
L 108.071134 162.582564 
L 106.587134 164.135043 
L 106.805508 163.64283 
L 107.015024 163.291509 
L 108.717967 161.984985 
L 117.460357 155.63187 
L 136.970237 141.755288 
L 161.22909 124.790116 
L 206.719591 93.113435 
L 206.62186 93.131724 
L 205.345516 93.732526 
L 203.531413 94.477917 
L 202.608657 94.644758 
L 202.184743 94.52721 
L 202.019232 94.274816 
L 202.020421 93.835226 
L 202.286445 93.035938 
L 203.041099 91.039104 
L 202.861542 90.953129 
L 202.386511 91.040389 
L 201.171092 91.548208 
L 198.146055 93.098545 
L 196.755853 94.012738 
L 195.859316 94.510582 
L 196.032368 94.386411 
L 196.148071 93.981712 
L 196.107895 93.913978 
L 196.103754 93.927364 
" style="fill:none;stroke:#9467bd;stroke-linecap:square;stroke-opacity:0.7;stroke-width:1.5;"/>
   </g>
   <g id="line2d_24">
    <path clip-path="url(#pf5474a06d3)" d="M 119.92625 156.332575 
L 118.691605 157.366986 
L 118.434668 157.832564 
L 118.54693 157.956462 
L 118.914764 157.940797 
L 119.763744 157.653402 
L 121.129667 156.945478 
L 121.993933 156.305304 
L 121.926977 156.327892 
L 121.337356 156.79699 
L 119.904111 158.249086 
L 119.118642 159.288945 
L 119.139286 159.423359 
L 119.184849 159.425491 
L 119.533883 159.275151 
L 120.613236 158.525032 
L 122.243552 157.129833 
L 122.408226 156.935263 
L 119.661375 159.878207 
L 119.01382 160.98819 
L 118.848014 161.644059 
L 118.973982 161.837064 
L 119.229994 161.800796 
L 119.705218 161.48751 
L 120.413528 160.747175 
L 121.172937 159.641657 
L 121.768806 158.410654 
L 122.050668 157.359705 
L 122.025821 156.716279 
L 121.812837 156.399177 
L 121.511136 156.327838 
L 121.08505 156.457577 
L 120.471575 156.895994 
L 119.775033 157.675283 
L 119.145369 158.721009 
L 118.812993 159.674839 
L 118.787895 160.377003 
L 118.968659 160.740958 
L 119.286705 160.905546 
L 119.732539 160.878874 
L 120.183356 160.636686 
L 120.496111 160.223431 
L 120.594261 159.734125 
L 120.478653 159.201438 
L 120.122796 158.610627 
L 119.492223 157.998153 
L 118.739439 157.560526 
L 118.358085 157.53434 
L 118.420725 157.670655 
L 118.842391 157.958474 
L 119.676837 158.263531 
L 120.10859 158.249447 
L 120.706537 157.891484 
L 122.328055 156.582518 
L 131.228583 148.878605 
L 144.099408 137.960559 
L 162.323522 122.80449 
L 179.165283 109.066432 
L 192.543025 98.417904 
L 200.198188 92.556863 
L 203.982606 89.902192 
L 205.759137 88.88596 
L 206.545012 88.653987 
L 206.807432 88.78005 
L 206.838168 89.057451 
L 206.635573 89.670426 
L 205.958482 90.898865 
L 204.12685 93.657788 
L 201.804154 97.244109 
L 201.373504 98.235132 
L 201.42996 98.468697 
L 201.634647 98.442277 
L 202.187713 98.078601 
L 203.325971 97.031524 
L 205.356286 94.839976 
L 207.910754 91.758362 
L 210.19954 88.66242 
L 211.604432 86.407813 
L 212.136225 85.170681 
L 212.151741 84.69353 
L 211.966081 84.549786 
L 211.61704 84.604724 
L 210.951675 84.956364 
L 209.752671 85.873296 
L 208.054454 87.47136 
L 205.997909 89.731365 
L 204.165156 92.077994 
L 203.008366 93.888789 
L 202.478822 95.072891 
L 202.401167 95.70935 
L 202.544291 95.937092 
L 202.842138 95.974648 
L 203.355618 95.782736 
L 204.218189 95.206168 
L 205.489845 94.08332 
L 207.12831 92.333579 
L 208.816745 90.19245 
L 210.095197 88.219776 
L 210.821888 86.740589 
L 211.120548 85.67485 
L 211.085098 85.063779 
L 210.885059 84.769283 
L 210.542526 84.639464 
L 209.993527 84.69235 
L 209.207215 84.996963 
L 208.070499 85.683233 
L 206.606254 86.843034 
L 205.070919 88.342559 
L 203.698255 89.994954 
L 202.886572 91.281712 
L 202.522166 92.248128 
L 202.517128 92.84697 
L 202.703448 93.171899 
L 203.045996 93.349969 
L 203.594696 93.370091 
L 204.365689 93.171488 
L 205.433989 92.645321 
L 206.548795 91.84545 
L 207.5906 90.833162 
L 208.44936 89.68891 
L 209.000235 88.606484 
L 209.278012 87.574331 
L 209.275571 86.74442 
L 209.067349 86.129175 
L 208.678089 85.66912 
L 208.132097 85.384429 
L 207.462426 85.285139 
L 206.621677 85.391154 
L 205.648941 85.751425 
L 204.62405 86.387272 
L 203.734248 87.201368 
L 203.064001 88.101268 
L 202.674354 88.988889 
L 202.59196 89.711706 
L 202.747943 90.239254 
L 203.065206 90.577459 
L 203.530219 90.76797 
L 204.186996 90.796747 
L 205.025779 90.61037 
L 206.078214 90.135689 
L 207.212323 89.369971 
L 208.070635 88.545305 
L 208.465969 87.901048 
L 208.497606 87.465159 
L 208.309077 87.206252 
L 207.884254 87.033997 
L 207.115369 86.990581 
L 205.871422 87.16558 
L 204.228891 87.632048 
L 202.715839 88.281216 
L 201.873139 88.85048 
L 201.676684 89.195562 
L 201.787127 89.360565 
L 202.186738 89.461264 
L 203.061659 89.413046 
L 204.508631 89.093995 
L 206.290799 88.469528 
L 207.837995 87.709741 
L 208.765986 87.037717 
L 209.006378 86.649607 
L 208.906048 86.480104 
L 208.551241 86.414948 
L 207.792309 86.523693 
L 206.574238 86.922948 
L 205.198006 87.606497 
L 204.122303 88.389149 
L 203.383363 89.200726 
L 203.006115 89.935807 
L 202.949015 90.4792 
L 203.110605 90.857997 
L 203.457539 91.084655 
L 203.956893 91.131405 
L 204.623888 90.962131 
L 205.416778 90.530707 
L 206.313116 89.774115 
L 207.07134 88.852743 
L 207.615394 87.848929 
L 207.812488 87.03968 
L 207.725692 86.537615 
L 207.479567 86.300283 
L 207.102002 86.252118 
L 206.58267 86.414105 
L 205.908297 86.855485 
L 205.164307 87.606848 
L 204.548008 88.541922 
L 204.240401 89.386919 
L 204.233086 89.985782 
L 204.444208 90.371493 
L 204.831132 90.589801 
L 205.417704 90.656591 
L 206.166415 90.511025 
L 206.782291 90.172934 
L 207.093854 89.765448 
L 207.132138 89.366303 
L 206.945797 88.964549 
L 206.500219 88.554898 
L 205.81858 88.228333 
L 205.044571 88.098104 
L 204.503185 88.212373 
L 204.309269 88.453975 
L 204.373603 88.730704 
L 204.707899 89.064652 
L 205.391285 89.404809 
L 206.326879 89.623449 
L 207.278967 89.630555 
L 207.877314 89.4419 
L 207.989402 89.229761 
L 207.836928 89.118196 
L 207.435425 89.122304 
L 206.671877 89.373759 
L 205.566818 89.987863 
L 204.533293 90.807668 
L 204.381463 91.025459 
L 204.484283 91.007562 
L 205.153176 90.598784 
L 206.914526 89.254574 
L 208.136478 88.096254 
L 208.137303 88.053261 
L 208.025731 88.091259 
L 207.342998 88.589949 
L 206.193411 89.685615 
L 205.582387 90.52519 
L 205.412673 91.102761 
L 205.511075 91.52188 
L 205.787104 91.743644 
L 206.144443 91.756714 
L 206.524981 91.556486 
L 206.879537 91.116724 
L 207.141877 90.422675 
L 207.219309 89.578917 
L 207.069541 88.840735 
L 206.790744 88.464409 
L 206.515418 88.420555 
L 206.268296 88.619418 
L 206.089687 89.059424 
L 206.070929 89.702633 
L 206.26853 90.296493 
L 206.617027 90.671616 
L 207.080824 90.836272 
L 207.443729 90.873622 
L 205.920625 90.543828 
L 205.425169 90.195041 
L 205.311924 89.882967 
L 205.457222 89.619975 
L 205.889012 89.373401 
L 206.651402 89.210657 
L 207.444382 89.250205 
L 207.803927 89.452794 
L 207.811593 89.6769 
L 207.566727 89.975848 
L 205.709621 91.674345 
L 205.974047 91.207059 
L 207.497418 88.493288 
L 206.322315 90.811354 
L 206.356461 91.315487 
L 206.57592 91.599543 
L 206.707849 91.531137 
L 206.744301 91.168809 
L 206.576133 90.047722 
L 206.376181 88.831163 
L 206.404012 88.849583 
" style="fill:none;stroke:#bcbd22;stroke-linecap:square;stroke-opacity:0.7;stroke-width:1.5;"/>
   </g>
   <g id="line2d_25">
    <path clip-path="url(#pf5474a06d3)" d="M 119.92625 156.332575 
L 113.369056 153.645085 
L 110.514767 152.767757 
L 108.051904 152.230603 
L 106.000282 152.005837 
L 104.442391 152.053655 
L 103.372815 152.299145 
L 102.729564 152.661684 
L 102.423814 153.07223 
L 102.367651 153.532764 
L 102.541604 154.013313 
L 102.97138 154.535437 
L 103.679489 155.05407 
L 104.658546 155.509126 
L 105.864979 155.833132 
L 107.214511 155.965093 
L 108.57761 155.870339 
L 109.774384 155.564601 
L 110.545892 155.163834 
L 110.772391 154.855905 
L 110.6529 154.726013 
L 110.257155 154.722126 
L 109.479864 154.959287 
L 108.379889 155.546081 
L 107.170943 156.464023 
L 106.104156 157.545884 
L 105.155068 158.833612 
L 104.508952 160.08716 
L 104.209611 161.13716 
L 104.229479 161.764409 
L 104.428275 162.044519 
L 104.735262 162.090142 
L 105.20072 161.909194 
L 105.962794 161.334026 
L 107.050017 160.197634 
L 108.274288 158.579157 
L 109.140791 157.081704 
L 109.543718 155.980779 
L 109.602762 155.215171 
L 109.435395 154.74348 
L 109.120663 154.463175 
L 108.65722 154.327741 
L 107.978334 154.358919 
L 107.069467 154.624666 
L 105.95265 155.184347 
L 104.699115 156.06909 
L 103.523207 157.159573 
L 102.452968 158.447628 
L 101.681994 159.695863 
L 101.257587 160.752369 
L 101.181545 161.445464 
L 101.338827 161.76139 
L 101.596735 161.825351 
L 102.011073 161.69248 
L 102.732598 161.192296 
L 103.743592 160.2045 
L 105.055029 158.591176 
L 106.170393 156.886197 
L 106.886479 155.430568 
L 107.212492 154.319719 
L 107.241661 153.545676 
L 107.067337 152.995981 
L 106.705366 152.603612 
L 106.16972 152.379336 
L 105.401154 152.33138 
L 104.399593 152.515254 
L 103.207022 152.968451 
L 101.916861 153.692004 
L 100.672566 154.63068 
L 99.651025 155.659192 
L 99.054727 156.535808 
L 98.916676 157.053664 
L 99.046473 157.251631 
L 99.325637 157.264527 
L 99.905968 157.034403 
L 100.887874 156.378496 
L 102.267153 155.168774 
L 103.692363 153.616861 
L 104.70236 152.209028 
L 105.241654 151.096404 
L 105.383706 150.357873 
L 105.277274 149.827795 
L 104.992789 149.478692 
L 104.497849 149.242845 
L 103.721122 149.153931 
L 102.672549 149.270494 
L 101.327134 149.651199 
L 99.95539 150.270303 
L 99.460387 150.630525 
L 99.559521 150.619418 
L 100.491834 150.180003 
L 105.215854 147.598305 
L 109.199641 145.515565 
L 110.782878 144.910498 
L 111.828583 144.747774 
L 112.459093 144.888611 
L 112.805737 145.170863 
L 113.043888 145.615008 
L 113.196376 146.473157 
L 113.170111 147.650296 
L 112.835143 150.039351 
L 110.355614 164.34351 
L 110.027239 168.018892 
L 109.882946 171.930043 
L 109.981389 176.031683 
L 110.246461 179.2017 
L 110.696675 182.425595 
L 111.348089 185.678277 
L 112.212998 188.933858 
L 113.30116 192.16621 
L 114.618976 195.349265 
L 116.169965 198.457619 
L 117.955822 201.466407 
L 119.974964 204.352345 
L 122.224826 207.093034 
L 124.700399 209.667948 
L 127.395231 212.058332 
L 130.302129 214.246614 
L 133.411936 216.217808 
L 136.715313 217.957856 
L 140.20146 219.454982 
L 143.858889 220.698947 
L 147.675507 221.680695 
L 151.638079 222.393191 
L 155.73286 222.83023 
L 159.945052 222.987273 
L 164.259111 222.860739 
L 168.658559 222.44826 
L 173.126069 221.748372 
L 177.643415 220.760755 
L 182.191596 219.485933 
L 186.750921 217.925274 
L 191.301186 216.081438 
L 195.82188 213.957627 
L 200.292505 211.558504 
L 204.692743 208.88948 
L 209.002803 205.957286 
L 213.203533 202.769697 
L 217.276661 199.33583 
L 221.204744 195.665849 
L 224.9713 191.771268 
L 228.560979 187.665037 
L 231.958897 183.360883 
L 235.151682 178.874459 
L 238.12605 174.221976 
L 240.869883 169.421326 
L 243.371658 164.491487 
L 245.619819 159.452425 
L 247.604 154.325646 
L 249.313505 149.133621 
L 250.738624 143.900243 
L 251.86947 138.650514 
L 252.697275 133.410602 
L 253.213043 128.207653 
L 253.410227 123.069326 
L 253.283394 118.023534 
L 253.017268 114.724859 
L 252.60582 111.487742 
L 252.049907 108.320017 
L 251.350174 105.229758 
L 250.509071 102.224271 
L 249.528779 99.311217 
L 248.412716 96.497672 
L 247.165023 93.790436 
L 245.790072 91.1964 
L 244.29355 88.721626 
L 242.681361 86.372309 
L 240.960374 84.153984 
L 239.13817 82.071749 
L 237.222807 80.130509 
L 235.223204 78.334364 
L 233.14878 76.68706 
L 231.00955 75.191707 
L 228.816034 73.850735 
L 226.579201 72.665872 
L 224.31028 71.638306 
L 222.020779 70.768102 
L 219.722264 70.05488 
L 216.282695 69.276403 
L 212.886705 68.840333 
L 209.570453 68.734931 
L 206.367792 68.945134 
L 203.309219 69.451661 
L 200.421864 70.232578 
L 197.728598 71.262573 
L 195.247594 72.513778 
L 192.992857 73.956813 
L 190.972556 75.560115 
L 189.190988 77.292135 
L 187.647237 79.120876 
L 186.336826 81.015716 
L 185.253021 82.947874 
L 184.386106 84.89074 
L 183.725977 86.820047 
L 183.261232 88.713628 
L 182.92592 91.14786 
L 182.890615 93.438718 
L 183.128523 95.547032 
L 183.613914 97.437988 
L 184.322575 99.081068 
L 184.987082 100.134792 
L 185.755912 101.024877 
L 186.621153 101.74324 
L 187.57553 102.28331 
L 188.61248 102.639864 
L 189.726071 102.80907 
L 190.91091 102.788592 
L 192.162146 102.577341 
L 193.475257 102.175784 
L 195.315052 101.347594 
L 197.247645 100.192456 
L 199.263089 98.722915 
L 201.350461 96.956263 
L 204.041528 94.363662 
L 206.795389 91.393773 
L 210.129541 87.422266 
L 213.418024 83.128409 
L 216.560509 78.656069 
L 219.441678 74.155227 
L 221.555264 70.486594 
L 223.335172 66.971265 
L 224.477892 64.311429 
L 225.341762 61.816525 
L 225.904985 59.510121 
L 226.150779 57.413247 
L 226.119953 55.9895 
L 225.901901 54.701434 
L 225.496114 53.555791 
L 224.904331 52.558615 
L 224.130392 51.715343 
L 223.180214 51.030793 
L 222.061977 50.508894 
L 220.785811 50.152792 
L 219.363898 49.964535 
L 217.81024 49.944935 
L 215.560753 50.180237 
L 213.14517 50.709075 
L 210.606675 51.520806 
L 207.989768 52.599248 
L 205.338729 53.92299 
L 202.69617 55.465748 
L 200.10155 57.197614 
L 196.978898 59.579616 
L 194.044276 62.143604 
L 191.344792 64.827078 
L 188.917107 67.56957 
L 186.788009 70.312916 
L 184.974698 73.001835 
L 183.485285 75.58494 
L 182.319788 78.01583 
L 181.471474 80.253988 
L 180.928305 82.265449 
L 180.674359 84.023259 
L 180.691159 85.507715 
L 180.886185 86.489885 
L 181.231284 87.285979 
L 181.715932 87.895803 
L 182.329699 88.321859 
L 183.062285 88.569195 
L 183.903519 88.645195 
L 185.092484 88.513888 
L 186.415749 88.152293 
L 188.152798 87.451194 
L 190.339905 86.327878 
L 193.314456 84.528347 
L 197.3499 81.786193 
L 202.051518 78.312956 
L 206.030802 75.114287 
L 208.101966 73.198572 
L 208.868947 72.2505 
L 208.953772 71.858055 
L 208.7774 71.786005 
L 208.256535 71.913231 
L 207.17651 72.46543 
L 205.557629 73.567332 
L 203.662754 75.124069 
L 201.665569 77.040902 
L 199.721496 79.194883 
L 197.787188 81.670365 
L 196.033163 84.278382 
L 194.433031 87.064996 
L 193.160025 89.726398 
L 193.090916 89.967898 
L 193.284061 89.70688 
L 196.285087 85.175721 
L 199.961655 79.911579 
L 199.856736 79.76732 
L 199.553397 79.860844 
L 198.847591 80.336218 
L 197.687897 81.395293 
L 196.34957 82.918438 
L 195.026473 84.769474 
L 193.879869 86.765522 
L 192.954108 88.842159 
L 192.354709 90.710138 
L 192.12098 92.079851 
L 192.211336 92.461043 
L 192.369043 92.39338 
L 192.742131 91.881204 
L 193.815541 89.902251 
L 196.966897 83.618357 
L 197.221655 82.643624 
L 197.130779 82.272027 
L 196.890569 82.192289 
L 196.457242 82.344262 
L 195.738946 82.876354 
L 194.811078 83.860144 
L 193.853584 85.190487 
L 192.917923 86.889229 
L 192.192653 88.679306 
L 191.703572 90.487887 
L 191.508334 92.040885 
L 191.586198 92.94475 
L 191.791726 93.212307 
L 192.010623 93.150541 
L 192.35999 92.779017 
L 193.029281 91.679775 
L 194.479161 88.767374 
L 195.808757 85.678306 
L 196.19588 84.295547 
L 196.198577 83.608638 
L 196.004157 83.297152 
L 195.686648 83.227901 
L 195.185761 83.392948 
L 194.492178 83.875535 
L 193.635576 84.74361 
L 192.694836 86.024585 
L 191.855328 87.542393 
L 191.153916 89.289909 
L 190.717453 90.956964 
L 190.543285 92.453762 
L 190.622431 93.407668 
L 190.839825 93.809562 
L 191.071439 93.85034 
L 191.396951 93.643545 
L 191.924594 92.979651 
L 192.757335 91.528885 
L 193.977849 88.93253 
L 194.814729 86.678322 
L 195.104947 85.307684 
L 195.061637 84.522888 
L 194.830379 84.11925 
L 194.479877 83.961582 
L 194.006622 84.003261 
L 193.355377 84.290435 
L 192.533995 84.895238 
L 191.588935 85.867426 
L 190.609826 87.209774 
L 189.779526 88.722386 
L 189.122632 90.383839 
L 188.733788 91.989686 
L 188.665028 93.20301 
L 188.830633 93.812744 
L 189.070949 93.972634 
L 189.356082 93.894111 
L 189.792253 93.513252 
L 190.460488 92.59826 
L 191.419647 90.863645 
L 192.36398 88.702628 
L 192.916772 86.944217 
L 193.104519 85.636976 
L 193.01906 84.849536 
L 192.758403 84.342853 
L 192.383379 84.072254 
L 191.885102 83.980753 
L 191.201099 84.094836 
L 190.331001 84.481779 
L 189.308852 85.191167 
L 188.210632 86.233828 
L 187.151347 87.558064 
L 186.268149 89.030658 
L 185.718395 90.350178 
L 185.520714 91.333563 
L 185.617421 91.805457 
L 185.834433 91.902596 
L 186.158718 91.773031 
L 186.727007 91.262582 
L 187.585266 90.157374 
L 188.677734 88.362289 
L 189.574856 86.490494 
L 190.09668 84.93373 
L 190.25431 83.795147 
L 190.140631 83.050621 
L 189.875357 82.616415 
L 189.463722 82.350634 
L 188.856331 82.254993 
L 188.047064 82.381775 
L 187.062986 82.764552 
L 185.890989 83.457812 
L 184.678066 84.427331 
L 183.617752 85.555264 
L 183.104783 86.385236 
L 183.136096 86.606257 
L 183.15005 86.608989 
L 183.397856 86.520885 
L 184.022707 86.020034 
L 185.145014 84.813908 
L 186.430672 83.102805 
L 187.287169 81.617527 
L 187.644341 80.608466 
L 187.666013 79.929371 
L 187.465445 79.520819 
L 187.08173 79.273763 
L 186.500095 79.173656 
L 185.578335 79.254419 
L 184.195228 79.615822 
L 182.81387 80.12852 
L 182.848479 80.157861 
L 183.459804 80.34636 
L 199.768428 84.46754 
L 203.655139 85.773099 
L 206.007762 86.772828 
L 207.27137 87.532112 
L 207.731626 88.021923 
L 207.811772 88.404768 
L 207.645501 88.699516 
L 207.189913 89.006866 
L 206.223864 89.350885 
L 204.371234 89.737857 
L 200.973935 90.188487 
L 195.429071 90.689641 
L 191.143449 90.882353 
L 188.822495 90.776996 
L 187.614672 90.526861 
L 186.965582 90.200942 
L 186.648509 89.820648 
L 186.565175 89.367298 
L 186.714281 88.794284 
L 187.165787 88.042445 
L 188.074011 87.008805 
L 189.642964 85.597206 
L 190.720564 84.854728 
L 190.737042 84.960316 
L 190.439025 85.618569 
L 189.550844 87.666885 
L 189.008383 89.504873 
L 188.737222 91.185047 
L 188.728793 92.479302 
L 188.912647 93.085334 
L 189.122527 93.148647 
L 189.399518 92.925561 
L 189.901617 92.156019 
L 191.049964 89.880567 
L 192.908698 85.75664 
L 193.313167 84.403631 
L 193.289321 83.866847 
L 193.094552 83.735971 
L 192.763676 83.853953 
L 192.217805 84.336638 
L 191.527326 85.256623 
L 190.788302 86.62852 
L 190.176119 88.246745 
L 189.769804 89.931501 
L 189.592349 91.604217 
L 189.663568 92.920116 
L 189.887034 93.63506 
L 190.165625 93.886836 
L 190.440099 93.850947 
L 190.798116 93.561974 
L 191.34862 92.799749 
L 192.240299 91.134656 
L 193.477134 88.331587 
L 194.195395 86.232652 
L 194.418233 84.944013 
L 194.341162 84.304592 
L 194.092548 83.970574 
L 193.735942 83.88364 
L 193.26847 84.001848 
L 192.566387 84.435443 
L 191.711892 85.253045 
L 190.783056 86.482913 
L 189.960847 87.953695 
L 189.323925 89.524298 
L 189.239258 89.785108 
L 189.239258 89.785108 
" style="fill:none;stroke:#2ca02c;stroke-linecap:square;stroke-opacity:0.7;stroke-width:1.5;"/>
   </g>
   <g id="line2d_26">
    <path clip-path="url(#pf5474a06d3)" d="M 119.92625 156.332575 
L 125.681111 159.16383 
L 126.250705 159.279143 
L 126.245252 159.120005 
L 125.880705 158.541322 
L 125.193811 157.375539 
L 125.000547 156.5432 
L 125.079304 156.578203 
L 129.146578 153.767132 
L 132.899875 150.608158 
L 137.80887 146.161717 
L 144.78623 139.500976 
L 153.881286 130.499136 
L 166.547612 117.619863 
L 186.063352 97.78165 
L 191.950737 92.133405 
L 195.669133 88.852417 
L 198.362557 86.762834 
L 200.256585 85.574518 
L 201.552652 85.02172 
L 202.418048 84.88321 
L 202.983332 84.987642 
L 203.406463 85.267918 
L 203.747647 85.777614 
L 203.976601 86.542917 
L 204.094877 87.79107 
L 204.056498 90.673124 
L 204.168472 92.017215 
L 204.409861 92.560157 
L 204.723711 92.746344 
L 205.140421 92.699943 
L 205.711556 92.391494 
L 206.588146 91.639346 
L 207.868232 90.213453 
L 209.681077 87.820426 
L 212.865409 83.513825 
L 212.872198 83.519767 
L 212.905964 83.731392 
L 212.743058 84.621841 
L 212.190764 86.903406 
L 212.608327 85.672275 
L 212.684743 85.327855 
L 212.409609 85.998125 
L 212.567223 85.665593 
" style="fill:none;stroke:#17becf;stroke-linecap:square;stroke-opacity:0.7;stroke-width:1.5;"/>
   </g>
   <g id="line2d_27">
    <path clip-path="url(#pf5474a06d3)" d="M 119.92625 156.332575 
L 205.475217 88.472915 
L 205.475217 88.472915 
" style="fill:none;stroke:#000000;stroke-dasharray:5.55,2.4;stroke-dashoffset:0;stroke-opacity:0.595;stroke-width:1.5;"/>
   </g>
   <g id="patch_3">
    <path d="M 91.19 231.64 
L 91.19 41.28 
" style="fill:none;stroke:#000000;stroke-linecap:square;stroke-linejoin:miter;stroke-width:0.8;"/>
   </g>
   <g id="patch_4">
    <path d="M 261.135 231.64 
L 261.135 41.28 
" style="fill:none;stroke:#000000;stroke-linecap:square;stroke-linejoin:miter;stroke-width:0.8;"/>
   </g>
   <g id="patch_5">
    <path d="M 91.19 231.64 
L 261.135 231.64 
" style="fill:none;stroke:#000000;stroke-linecap:square;stroke-linejoin:miter;stroke-width:0.8;"/>
   </g>
   <g id="patch_6">
    <path d="M 91.19 41.28 
L 261.135 41.28 
" style="fill:none;stroke:#000000;stroke-linecap:square;stroke-linejoin:miter;stroke-width:0.8;"/>
   </g>
   <g id="text_13">
    <!-- Plano xy -->
    <g transform="translate(150.717812 35.28)scale(0.12 -0.12)">
     <defs>
      <path d="M 1259 4147 
L 1259 2394 
L 2053 2394 
Q 2494 2394 2734 2622 
Q 2975 2850 2975 3272 
Q 2975 3691 2734 3919 
Q 2494 4147 2053 4147 
L 1259 4147 
z
M 628 4666 
L 2053 4666 
Q 2838 4666 3239 4311 
Q 3641 3956 3641 3272 
Q 3641 2581 3239 2228 
Q 2838 1875 2053 1875 
L 1259 1875 
L 1259 0 
L 628 0 
L 628 4666 
z
" id="DejaVuSans-50" transform="scale(0.015625)"/>
      <path d="M 603 4863 
L 1178 4863 
L 1178 0 
L 603 0 
L 603 4863 
z
" id="DejaVuSans-6c" transform="scale(0.015625)"/>
      <path d="M 2194 1759 
Q 1497 1759 1228 1600 
Q 959 1441 959 1056 
Q 959 750 1161 570 
Q 1363 391 1709 391 
Q 2188 391 2477 730 
Q 2766 1069 2766 1631 
L 2766 1759 
L 2194 1759 
z
M 3341 1997 
L 3341 0 
L 2766 0 
L 2766 531 
Q 2569 213 2275 61 
Q 1981 -91 1556 -91 
Q 1019 -91 701 211 
Q 384 513 384 1019 
Q 384 1609 779 1909 
Q 1175 2209 1959 2209 
L 2766 2209 
L 2766 2266 
Q 2766 2663 2505 2880 
Q 2244 3097 1772 3097 
Q 1472 3097 1187 3025 
Q 903 2953 641 2809 
L 641 3341 
Q 956 3463 1253 3523 
Q 1550 3584 1831 3584 
Q 2591 3584 2966 3190 
Q 3341 2797 3341 1997 
z
" id="DejaVuSans-61" transform="scale(0.015625)"/>
      <path d="M 3513 2113 
L 3513 0 
L 2938 0 
L 2938 2094 
Q 2938 2591 2744 2837 
Q 2550 3084 2163 3084 
Q 1697 3084 1428 2787 
Q 1159 2491 1159 1978 
L 1159 0 
L 581 0 
L 581 3500 
L 1159 3500 
L 1159 2956 
Q 1366 3272 1645 3428 
Q 1925 3584 2291 3584 
Q 2894 3584 3203 3211 
Q 3513 2838 3513 2113 
z
" id="DejaVuSans-6e" transform="scale(0.015625)"/>
      <path d="M 1959 3097 
Q 1497 3097 1228 2736 
Q 959 2375 959 1747 
Q 959 1119 1226 758 
Q 1494 397 1959 397 
Q 2419 397 2687 759 
Q 2956 1122 2956 1747 
Q 2956 2369 2687 2733 
Q 2419 3097 1959 3097 
z
M 1959 3584 
Q 2709 3584 3137 3096 
Q 3566 2609 3566 1747 
Q 3566 888 3137 398 
Q 2709 -91 1959 -91 
Q 1206 -91 779 398 
Q 353 888 353 1747 
Q 353 2609 779 3096 
Q 1206 3584 1959 3584 
z
" id="DejaVuSans-6f" transform="scale(0.015625)"/>
     </defs>
     <use xlink:href="#DejaVuSans-50"/>
     <use x="60.302734" xlink:href="#DejaVuSans-6c"/>
     <use x="88.085938" xlink:href="#DejaVuSans-61"/>
     <use x="149.365234" xlink:href="#DejaVuSans-6e"/>
     <use x="212.744141" xlink:href="#DejaVuSans-6f"/>
     <use x="273.925781" xlink:href="#DejaVuSans-20"/>
     <use x="305.712891" xlink:href="#DejaVuSans-78"/>
     <use x="364.892578" xlink:href="#DejaVuSans-79"/>
    </g>
   </g>
  </g>
  <g id="axes_2">
   <g id="patch_7">
    <path d="M 308.855 231.64 
L 478.8 231.64 
L 478.8 41.28 
L 308.855 41.28 
z
" style="fill:#ffffff;"/>
   </g>
   <g id="matplotlib.axis_3">
    <g id="xtick_5">
     <g id="line2d_28">
      <path clip-path="url(#p88c2afbaef)" d="M 316.579773 231.64 
L 316.579773 41.28 
" style="fill:none;stroke:#b0b0b0;stroke-linecap:square;stroke-width:0.8;"/>
     </g>
     <g id="line2d_29">
      <g>
       <use style="stroke:#000000;stroke-width:0.8;" x="316.579773" xlink:href="#m034018ca73" y="231.64"/>
      </g>
     </g>
     <g id="text_14">
      <!-- 0 -->
      <g transform="translate(313.398523 246.238438)scale(0.1 -0.1)">
       <use xlink:href="#DejaVuSans-30"/>
      </g>
     </g>
    </g>
    <g id="xtick_6">
     <g id="line2d_30">
      <path clip-path="url(#p88c2afbaef)" d="M 355.211685 231.64 
L 355.211685 41.28 
" style="fill:none;stroke:#b0b0b0;stroke-linecap:square;stroke-width:0.8;"/>
     </g>
     <g id="line2d_31">
      <g>
       <use style="stroke:#000000;stroke-width:0.8;" x="355.211685" xlink:href="#m034018ca73" y="231.64"/>
      </g>
     </g>
     <g id="text_15">
      <!-- 5 -->
      <g transform="translate(352.030435 246.238438)scale(0.1 -0.1)">
       <use xlink:href="#DejaVuSans-35"/>
      </g>
     </g>
    </g>
    <g id="xtick_7">
     <g id="line2d_32">
      <path clip-path="url(#p88c2afbaef)" d="M 393.843597 231.64 
L 393.843597 41.28 
" style="fill:none;stroke:#b0b0b0;stroke-linecap:square;stroke-width:0.8;"/>
     </g>
     <g id="line2d_33">
      <g>
       <use style="stroke:#000000;stroke-width:0.8;" x="393.843597" xlink:href="#m034018ca73" y="231.64"/>
      </g>
     </g>
     <g id="text_16">
      <!-- 10 -->
      <g transform="translate(387.481097 246.238438)scale(0.1 -0.1)">
       <use xlink:href="#DejaVuSans-31"/>
       <use x="63.623047" xlink:href="#DejaVuSans-30"/>
      </g>
     </g>
    </g>
    <g id="xtick_8">
     <g id="line2d_34">
      <path clip-path="url(#p88c2afbaef)" d="M 432.475509 231.64 
L 432.475509 41.28 
" style="fill:none;stroke:#b0b0b0;stroke-linecap:square;stroke-width:0.8;"/>
     </g>
     <g id="line2d_35">
      <g>
       <use style="stroke:#000000;stroke-width:0.8;" x="432.475509" xlink:href="#m034018ca73" y="231.64"/>
      </g>
     </g>
     <g id="text_17">
      <!-- 15 -->
      <g transform="translate(426.113009 246.238438)scale(0.1 -0.1)">
       <use xlink:href="#DejaVuSans-31"/>
       <use x="63.623047" xlink:href="#DejaVuSans-35"/>
      </g>
     </g>
    </g>
    <g id="xtick_9">
     <g id="line2d_36">
      <path clip-path="url(#p88c2afbaef)" d="M 471.107421 231.64 
L 471.107421 41.28 
" style="fill:none;stroke:#b0b0b0;stroke-linecap:square;stroke-width:0.8;"/>
     </g>
     <g id="line2d_37">
      <g>
       <use style="stroke:#000000;stroke-width:0.8;" x="471.107421" xlink:href="#m034018ca73" y="231.64"/>
      </g>
     </g>
     <g id="text_18">
      <!-- 20 -->
      <g transform="translate(464.744921 246.238438)scale(0.1 -0.1)">
       <defs>
        <path d="M 1228 531 
L 3431 531 
L 3431 0 
L 469 0 
L 469 531 
Q 828 903 1448 1529 
Q 2069 2156 2228 2338 
Q 2531 2678 2651 2914 
Q 2772 3150 2772 3378 
Q 2772 3750 2511 3984 
Q 2250 4219 1831 4219 
Q 1534 4219 1204 4116 
Q 875 4013 500 3803 
L 500 4441 
Q 881 4594 1212 4672 
Q 1544 4750 1819 4750 
Q 2544 4750 2975 4387 
Q 3406 4025 3406 3419 
Q 3406 3131 3298 2873 
Q 3191 2616 2906 2266 
Q 2828 2175 2409 1742 
Q 1991 1309 1228 531 
z
" id="DejaVuSans-32" transform="scale(0.015625)"/>
       </defs>
       <use xlink:href="#DejaVuSans-32"/>
       <use x="63.623047" xlink:href="#DejaVuSans-30"/>
      </g>
     </g>
    </g>
    <g id="text_19">
     <!-- Tiempo (s) -->
     <g transform="translate(367.265 259.916562)scale(0.1 -0.1)">
      <defs>
       <path d="M -19 4666 
L 3928 4666 
L 3928 4134 
L 2272 4134 
L 2272 0 
L 1638 0 
L 1638 4134 
L -19 4134 
L -19 4666 
z
" id="DejaVuSans-54" transform="scale(0.015625)"/>
       <path d="M 603 3500 
L 1178 3500 
L 1178 0 
L 603 0 
L 603 3500 
z
M 603 4863 
L 1178 4863 
L 1178 4134 
L 603 4134 
L 603 4863 
z
" id="DejaVuSans-69" transform="scale(0.015625)"/>
       <path d="M 3597 1894 
L 3597 1613 
L 953 1613 
Q 991 1019 1311 708 
Q 1631 397 2203 397 
Q 2534 397 2845 478 
Q 3156 559 3463 722 
L 3463 178 
Q 3153 47 2828 -22 
Q 2503 -91 2169 -91 
Q 1331 -91 842 396 
Q 353 884 353 1716 
Q 353 2575 817 3079 
Q 1281 3584 2069 3584 
Q 2775 3584 3186 3129 
Q 3597 2675 3597 1894 
z
M 3022 2063 
Q 3016 2534 2758 2815 
Q 2500 3097 2075 3097 
Q 1594 3097 1305 2825 
Q 1016 2553 972 2059 
L 3022 2063 
z
" id="DejaVuSans-65" transform="scale(0.015625)"/>
       <path d="M 1159 525 
L 1159 -1331 
L 581 -1331 
L 581 3500 
L 1159 3500 
L 1159 2969 
Q 1341 3281 1617 3432 
Q 1894 3584 2278 3584 
Q 2916 3584 3314 3078 
Q 3713 2572 3713 1747 
Q 3713 922 3314 415 
Q 2916 -91 2278 -91 
Q 1894 -91 1617 61 
Q 1341 213 1159 525 
z
M 3116 1747 
Q 3116 2381 2855 2742 
Q 2594 3103 2138 3103 
Q 1681 3103 1420 2742 
Q 1159 2381 1159 1747 
Q 1159 1113 1420 752 
Q 1681 391 2138 391 
Q 2594 391 2855 752 
Q 3116 1113 3116 1747 
z
" id="DejaVuSans-70" transform="scale(0.015625)"/>
       <path d="M 2834 3397 
L 2834 2853 
Q 2591 2978 2328 3040 
Q 2066 3103 1784 3103 
Q 1356 3103 1142 2972 
Q 928 2841 928 2578 
Q 928 2378 1081 2264 
Q 1234 2150 1697 2047 
L 1894 2003 
Q 2506 1872 2764 1633 
Q 3022 1394 3022 966 
Q 3022 478 2636 193 
Q 2250 -91 1575 -91 
Q 1294 -91 989 -36 
Q 684 19 347 128 
L 347 722 
Q 666 556 975 473 
Q 1284 391 1588 391 
Q 1994 391 2212 530 
Q 2431 669 2431 922 
Q 2431 1156 2273 1281 
Q 2116 1406 1581 1522 
L 1381 1569 
Q 847 1681 609 1914 
Q 372 2147 372 2553 
Q 372 3047 722 3315 
Q 1072 3584 1716 3584 
Q 2034 3584 2315 3537 
Q 2597 3491 2834 3397 
z
" id="DejaVuSans-73" transform="scale(0.015625)"/>
      </defs>
      <use xlink:href="#DejaVuSans-54"/>
      <use x="57.958984" xlink:href="#DejaVuSans-69"/>
      <use x="85.742188" xlink:href="#DejaVuSans-65"/>
      <use x="147.265625" xlink:href="#DejaVuSans-6d"/>
      <use x="244.677734" xlink:href="#DejaVuSans-70"/>
      <use x="308.154297" xlink:href="#DejaVuSans-6f"/>
      <use x="369.335938" xlink:href="#DejaVuSans-20"/>
      <use x="401.123047" xlink:href="#DejaVuSans-28"/>
      <use x="440.136719" xlink:href="#DejaVuSans-73"/>
      <use x="492.236328" xlink:href="#DejaVuSans-29"/>
     </g>
    </g>
   </g>
   <g id="matplotlib.axis_4">
    <g id="ytick_7">
     <g id="line2d_38">
      <path clip-path="url(#p88c2afbaef)" d="M 308.855 224.940269 
L 478.8 224.940269 
" style="fill:none;stroke:#b0b0b0;stroke-linecap:square;stroke-width:0.8;"/>
     </g>
     <g id="line2d_39">
      <g>
       <use style="stroke:#000000;stroke-width:0.8;" x="308.855" xlink:href="#m8bb4d637a4" y="224.940269"/>
      </g>
     </g>
     <g id="text_20">
      <!-- 0.0 -->
      <g transform="translate(285.951875 228.739487)scale(0.1 -0.1)">
       <use xlink:href="#DejaVuSans-30"/>
       <use x="63.623047" xlink:href="#DejaVuSans-2e"/>
       <use x="95.410156" xlink:href="#DejaVuSans-30"/>
      </g>
     </g>
    </g>
    <g id="ytick_8">
     <g id="line2d_40">
      <path clip-path="url(#p88c2afbaef)" d="M 308.855 194.912371 
L 478.8 194.912371 
" style="fill:none;stroke:#b0b0b0;stroke-linecap:square;stroke-width:0.8;"/>
     </g>
     <g id="line2d_41">
      <g>
       <use style="stroke:#000000;stroke-width:0.8;" x="308.855" xlink:href="#m8bb4d637a4" y="194.912371"/>
      </g>
     </g>
     <g id="text_21">
      <!-- 0.2 -->
      <g transform="translate(285.951875 198.71159)scale(0.1 -0.1)">
       <use xlink:href="#DejaVuSans-30"/>
       <use x="63.623047" xlink:href="#DejaVuSans-2e"/>
       <use x="95.410156" xlink:href="#DejaVuSans-32"/>
      </g>
     </g>
    </g>
    <g id="ytick_9">
     <g id="line2d_42">
      <path clip-path="url(#p88c2afbaef)" d="M 308.855 164.884473 
L 478.8 164.884473 
" style="fill:none;stroke:#b0b0b0;stroke-linecap:square;stroke-width:0.8;"/>
     </g>
     <g id="line2d_43">
      <g>
       <use style="stroke:#000000;stroke-width:0.8;" x="308.855" xlink:href="#m8bb4d637a4" y="164.884473"/>
      </g>
     </g>
     <g id="text_22">
      <!-- 0.4 -->
      <g transform="translate(285.951875 168.683692)scale(0.1 -0.1)">
       <defs>
        <path d="M 2419 4116 
L 825 1625 
L 2419 1625 
L 2419 4116 
z
M 2253 4666 
L 3047 4666 
L 3047 1625 
L 3713 1625 
L 3713 1100 
L 3047 1100 
L 3047 0 
L 2419 0 
L 2419 1100 
L 313 1100 
L 313 1709 
L 2253 4666 
z
" id="DejaVuSans-34" transform="scale(0.015625)"/>
       </defs>
       <use xlink:href="#DejaVuSans-30"/>
       <use x="63.623047" xlink:href="#DejaVuSans-2e"/>
       <use x="95.410156" xlink:href="#DejaVuSans-34"/>
      </g>
     </g>
    </g>
    <g id="ytick_10">
     <g id="line2d_44">
      <path clip-path="url(#p88c2afbaef)" d="M 308.855 134.856575 
L 478.8 134.856575 
" style="fill:none;stroke:#b0b0b0;stroke-linecap:square;stroke-width:0.8;"/>
     </g>
     <g id="line2d_45">
      <g>
       <use style="stroke:#000000;stroke-width:0.8;" x="308.855" xlink:href="#m8bb4d637a4" y="134.856575"/>
      </g>
     </g>
     <g id="text_23">
      <!-- 0.6 -->
      <g transform="translate(285.951875 138.655794)scale(0.1 -0.1)">
       <defs>
        <path d="M 2113 2584 
Q 1688 2584 1439 2293 
Q 1191 2003 1191 1497 
Q 1191 994 1439 701 
Q 1688 409 2113 409 
Q 2538 409 2786 701 
Q 3034 994 3034 1497 
Q 3034 2003 2786 2293 
Q 2538 2584 2113 2584 
z
M 3366 4563 
L 3366 3988 
Q 3128 4100 2886 4159 
Q 2644 4219 2406 4219 
Q 1781 4219 1451 3797 
Q 1122 3375 1075 2522 
Q 1259 2794 1537 2939 
Q 1816 3084 2150 3084 
Q 2853 3084 3261 2657 
Q 3669 2231 3669 1497 
Q 3669 778 3244 343 
Q 2819 -91 2113 -91 
Q 1303 -91 875 529 
Q 447 1150 447 2328 
Q 447 3434 972 4092 
Q 1497 4750 2381 4750 
Q 2619 4750 2861 4703 
Q 3103 4656 3366 4563 
z
" id="DejaVuSans-36" transform="scale(0.015625)"/>
       </defs>
       <use xlink:href="#DejaVuSans-30"/>
       <use x="63.623047" xlink:href="#DejaVuSans-2e"/>
       <use x="95.410156" xlink:href="#DejaVuSans-36"/>
      </g>
     </g>
    </g>
    <g id="ytick_11">
     <g id="line2d_46">
      <path clip-path="url(#p88c2afbaef)" d="M 308.855 104.828678 
L 478.8 104.828678 
" style="fill:none;stroke:#b0b0b0;stroke-linecap:square;stroke-width:0.8;"/>
     </g>
     <g id="line2d_47">
      <g>
       <use style="stroke:#000000;stroke-width:0.8;" x="308.855" xlink:href="#m8bb4d637a4" y="104.828678"/>
      </g>
     </g>
     <g id="text_24">
      <!-- 0.8 -->
      <g transform="translate(285.951875 108.627896)scale(0.1 -0.1)">
       <defs>
        <path d="M 2034 2216 
Q 1584 2216 1326 1975 
Q 1069 1734 1069 1313 
Q 1069 891 1326 650 
Q 1584 409 2034 409 
Q 2484 409 2743 651 
Q 3003 894 3003 1313 
Q 3003 1734 2745 1975 
Q 2488 2216 2034 2216 
z
M 1403 2484 
Q 997 2584 770 2862 
Q 544 3141 544 3541 
Q 544 4100 942 4425 
Q 1341 4750 2034 4750 
Q 2731 4750 3128 4425 
Q 3525 4100 3525 3541 
Q 3525 3141 3298 2862 
Q 3072 2584 2669 2484 
Q 3125 2378 3379 2068 
Q 3634 1759 3634 1313 
Q 3634 634 3220 271 
Q 2806 -91 2034 -91 
Q 1263 -91 848 271 
Q 434 634 434 1313 
Q 434 1759 690 2068 
Q 947 2378 1403 2484 
z
M 1172 3481 
Q 1172 3119 1398 2916 
Q 1625 2713 2034 2713 
Q 2441 2713 2670 2916 
Q 2900 3119 2900 3481 
Q 2900 3844 2670 4047 
Q 2441 4250 2034 4250 
Q 1625 4250 1398 4047 
Q 1172 3844 1172 3481 
z
" id="DejaVuSans-38" transform="scale(0.015625)"/>
       </defs>
       <use xlink:href="#DejaVuSans-30"/>
       <use x="63.623047" xlink:href="#DejaVuSans-2e"/>
       <use x="95.410156" xlink:href="#DejaVuSans-38"/>
      </g>
     </g>
    </g>
    <g id="ytick_12">
     <g id="line2d_48">
      <path clip-path="url(#p88c2afbaef)" d="M 308.855 74.80078 
L 478.8 74.80078 
" style="fill:none;stroke:#b0b0b0;stroke-linecap:square;stroke-width:0.8;"/>
     </g>
     <g id="line2d_49">
      <g>
       <use style="stroke:#000000;stroke-width:0.8;" x="308.855" xlink:href="#m8bb4d637a4" y="74.80078"/>
      </g>
     </g>
     <g id="text_25">
      <!-- 1.0 -->
      <g transform="translate(285.951875 78.599999)scale(0.1 -0.1)">
       <use xlink:href="#DejaVuSans-31"/>
       <use x="63.623047" xlink:href="#DejaVuSans-2e"/>
       <use x="95.410156" xlink:href="#DejaVuSans-30"/>
      </g>
     </g>
    </g>
    <g id="ytick_13">
     <g id="line2d_50">
      <path clip-path="url(#p88c2afbaef)" d="M 308.855 44.772882 
L 478.8 44.772882 
" style="fill:none;stroke:#b0b0b0;stroke-linecap:square;stroke-width:0.8;"/>
     </g>
     <g id="line2d_51">
      <g>
       <use style="stroke:#000000;stroke-width:0.8;" x="308.855" xlink:href="#m8bb4d637a4" y="44.772882"/>
      </g>
     </g>
     <g id="text_26">
      <!-- 1.2 -->
      <g transform="translate(285.951875 48.572101)scale(0.1 -0.1)">
       <use xlink:href="#DejaVuSans-31"/>
       <use x="63.623047" xlink:href="#DejaVuSans-2e"/>
       <use x="95.410156" xlink:href="#DejaVuSans-32"/>
      </g>
     </g>
    </g>
    <g id="text_27">
     <!-- z (m) -->
     <g transform="translate(279.872187 149.445156)rotate(-90)scale(0.1 -0.1)">
      <defs>
       <path d="M 353 3500 
L 3084 3500 
L 3084 2975 
L 922 459 
L 3084 459 
L 3084 0 
L 275 0 
L 275 525 
L 2438 3041 
L 353 3041 
L 353 3500 
z
" id="DejaVuSans-7a" transform="scale(0.015625)"/>
      </defs>
      <use xlink:href="#DejaVuSans-7a"/>
      <use x="52.490234" xlink:href="#DejaVuSans-20"/>
      <use x="84.277344" xlink:href="#DejaVuSans-28"/>
      <use x="123.291016" xlink:href="#DejaVuSans-6d"/>
      <use x="220.703125" xlink:href="#DejaVuSans-29"/>
     </g>
    </g>
   </g>
   <g id="line2d_52">
    <path clip-path="url(#p88c2afbaef)" d="M 316.579773 74.826324 
L 316.998285 75.004498 
L 317.73873 75.027636 
L 324.434928 74.816802 
L 341.722709 74.796695 
L 355.469231 74.723682 
L 355.694584 74.197923 
L 356.209676 72.217427 
L 357.304247 68.078143 
L 358.109078 65.903727 
L 358.978296 64.176984 
L 359.911901 62.803226 
L 360.813312 61.856174 
L 361.811303 61.136885 
L 362.97026 60.594632 
L 364.45115 60.150965 
L 366.253973 59.85632 
L 368.958207 59.662563 
L 373.851582 59.57383 
L 393.070958 59.57772 
L 471.075227 59.648092 
L 471.075227 59.648092 
" style="fill:none;stroke:#1f77b4;stroke-linecap:square;stroke-opacity:0.7;stroke-width:1.5;"/>
   </g>
   <g id="line2d_53">
    <path clip-path="url(#p88c2afbaef)" d="M 316.579773 74.826324 
L 318.511368 76.212773 
L 319.734712 76.907917 
L 320.153225 76.854324 
L 320.571737 76.548965 
L 321.183409 75.757312 
L 321.923854 74.881194 
L 322.342366 74.698707 
L 322.728685 74.762425 
L 323.308164 75.127385 
L 323.855449 75.393289 
L 324.209575 75.320312 
L 324.563701 74.988687 
L 325.23976 73.924432 
L 325.754852 73.325309 
L 326.108978 73.204256 
L 326.463104 73.325148 
L 326.978196 73.790091 
L 327.622061 74.309647 
L 327.943993 74.314696 
L 328.265926 74.079492 
L 328.748825 73.374846 
L 329.48927 72.338445 
L 329.843396 72.177559 
L 330.165328 72.262299 
L 330.583841 72.633393 
L 331.485252 73.508031 
L 331.807185 73.511805 
L 332.129117 73.270805 
L 332.644209 72.536435 
L 333.223688 71.812604 
L 333.577814 71.672369 
L 333.899747 71.780289 
L 334.318259 72.194933 
L 335.31625 73.275528 
L 335.638183 73.26914 
L 335.960115 73.011287 
L 336.60398 72.091037 
L 337.086879 71.59449 
L 337.441005 71.523227 
L 337.762938 71.686592 
L 338.245837 72.234614 
L 339.018475 73.107438 
L 339.340408 73.173407 
L 339.630147 73.011831 
L 340.048659 72.485741 
L 340.789104 71.560998 
L 341.14323 71.449278 
L 341.465163 71.576098 
L 341.883675 72.007176 
L 342.849473 73.095483 
L 343.171405 73.119064 
L 343.493338 72.887241 
L 344.040623 72.12606 
L 344.587909 71.497778 
L 344.942035 71.385995 
L 345.263967 71.51074 
L 345.68248 71.939946 
L 346.680471 73.057638 
L 347.002403 73.065159 
L 347.324336 72.82105 
L 348.000394 71.895638 
L 348.4511 71.482679 
L 348.805226 71.442349 
L 349.159352 71.659941 
L 349.674444 72.302835 
L 350.382696 73.143425 
L 350.704628 73.240212 
L 350.994368 73.108271 
L 351.41288 72.622022 
L 352.217712 71.670884 
L 352.571837 71.591387 
L 352.89377 71.742938 
L 353.344476 72.240416 
L 354.245887 73.299513 
L 354.567819 73.358856 
L 354.889752 73.165181 
L 355.372651 72.546149 
L 355.694584 71.847828 
L 356.435029 69.467506 
L 357.14328 67.602342 
L 357.754952 66.579823 
L 358.334431 66.027405 
L 359.461195 65.106888 
L 359.976287 64.242076 
L 361.843496 60.670599 
L 362.294202 60.455166 
L 363.034647 60.410509 
L 363.678512 60.263681 
L 364.386764 59.83514 
L 365.255982 59.366298 
L 365.803267 59.322557 
L 366.608099 59.53603 
L 367.31635 59.621903 
L 368.024602 59.466735 
L 370.084971 58.673733 
L 372.145339 57.857261 
L 372.885784 57.874206 
L 375.235892 58.135603 
L 377.264068 58.043243 
L 379.581982 57.711007 
L 382.286216 57.087913 
L 384.217812 56.687098 
L 384.926064 56.813725 
L 387.565911 57.582048 
L 389.23996 57.724295 
L 391.139363 57.657016 
L 393.199731 57.355898 
L 395.678612 56.751755 
L 397.030729 56.487711 
L 397.706788 56.598239 
L 398.769165 57.070736 
L 399.734963 57.354382 
L 401.698752 57.606458 
L 403.759121 57.651003 
L 405.980456 57.471697 
L 408.49153 57.037302 
L 411.936209 56.404757 
L 412.580074 56.641478 
L 414.382896 57.501346 
L 414.994568 57.437728 
L 416.411072 57.199944 
L 416.990551 57.395396 
L 418.052928 58.092014 
L 418.6646 58.311811 
L 419.147499 58.241774 
L 419.726978 57.899222 
L 420.564002 57.431296 
L 420.982515 57.443449 
L 421.401027 57.692466 
L 421.916119 58.288089 
L 422.946304 59.534757 
L 423.300429 59.616185 
L 423.622362 59.458977 
L 424.073068 58.943047 
L 424.910092 57.964766 
L 425.264218 57.866766 
L 425.586151 57.996242 
L 426.004663 58.434355 
L 427.292394 60.007349 
L 427.614326 60.004814 
L 427.968452 59.74402 
L 428.644511 58.850164 
L 429.159603 58.351287 
L 429.513729 58.279851 
L 429.867855 58.45033 
L 430.350753 58.994194 
L 431.284358 60.102072 
L 431.638484 60.187612 
L 431.960416 60.030533 
L 432.411122 59.509378 
L 433.28034 58.480994 
L 433.634466 58.382808 
L 433.988592 58.527842 
L 434.439297 59.006639 
L 435.501675 60.251677 
L 435.823608 60.29719 
L 436.14554 60.113333 
L 436.596246 59.553819 
L 437.433271 58.513674 
L 437.787396 58.397439 
L 438.109329 58.509412 
L 438.527841 58.923064 
L 439.783379 60.376087 
L 440.105311 60.350178 
L 440.459437 60.047953 
L 441.071109 59.128215 
L 441.618394 58.470643 
L 441.97252 58.340788 
L 442.294453 58.450931 
L 442.712965 58.875662 
L 443.904116 60.285458 
L 444.226048 60.279542 
L 444.547981 60.03047 
L 445.063073 59.287727 
L 445.739132 58.403387 
L 446.125451 58.246865 
L 446.447383 58.353497 
L 446.865896 58.767583 
L 448.08924 60.169508 
L 448.411172 60.143402 
L 448.765298 59.847047 
L 449.409163 58.910113 
L 449.956449 58.304785 
L 450.310575 58.20451 
L 450.632507 58.334102 
L 451.05102 58.768024 
L 452.209977 60.11748 
L 452.53191 60.121079 
L 452.853842 59.885231 
L 453.368934 59.16708 
L 454.044993 58.310264 
L 454.399119 58.170151 
L 454.721051 58.270203 
L 455.10737 58.64374 
L 456.491681 60.251559 
L 456.813613 60.189071 
L 457.167739 59.857624 
L 458.552049 58.255015 
L 458.873982 58.304544 
L 459.260301 58.621517 
L 459.968553 59.600984 
L 460.515838 60.162308 
L 460.837771 60.222662 
L 461.159703 60.041879 
L 461.610409 59.466772 
L 462.447434 58.360086 
L 462.801559 58.220144 
L 463.123492 58.317568 
L 463.509811 58.686031 
L 464.861928 60.219753 
L 465.151667 60.168107 
L 465.505793 59.844245 
L 466.922297 58.190097 
L 467.244229 58.261454 
L 467.630548 58.609523 
L 469.111438 60.274114 
L 469.433371 60.161702 
L 469.81969 59.736986 
L 470.978647 58.274555 
L 471.075227 58.239697 
L 471.075227 58.239697 
" style="fill:none;stroke:#d62728;stroke-linecap:square;stroke-opacity:0.7;stroke-width:1.5;"/>
   </g>
   <g id="line2d_54">
    <path clip-path="url(#p88c2afbaef)" d="M 316.579773 74.826324 
L 318.962074 76.571452 
L 319.766905 77.030454 
L 320.249804 77.063342 
L 320.732703 76.850154 
L 321.408762 76.259337 
L 322.986231 74.866382 
L 324.821247 73.637427 
L 326.398717 72.786496 
L 327.783027 72.311903 
L 330.133135 71.76045 
L 332.740789 71.384601 
L 335.380637 71.229577 
L 338.149257 71.295099 
L 341.883675 71.631554 
L 349.545671 72.333529 
L 354.986332 72.573909 
L 355.565811 72.499752 
L 355.887743 72.10197 
L 356.435029 71.020482 
L 358.141271 67.328718 
L 360.942085 62.738555 
L 362.068849 61.178147 
L 362.777101 60.54526 
L 363.581932 60.145977 
L 370.889802 57.220383 
L 373.078944 56.73338 
L 375.332472 56.457536 
L 377.77916 56.387566 
L 380.676553 56.53648 
L 385.666509 57.069209 
L 390.656464 57.489335 
L 396.580024 57.743435 
L 404.918078 57.862159 
L 430.286367 57.880477 
L 471.075227 57.880333 
L 471.075227 57.880333 
" style="fill:none;stroke:#9467bd;stroke-linecap:square;stroke-opacity:0.7;stroke-width:1.5;"/>
   </g>
   <g id="line2d_55">
    <path clip-path="url(#p88c2afbaef)" d="M 316.579773 74.826324 
L 319.3162 77.12942 
L 320.79709 78.579709 
L 322.27798 79.714201 
L 323.726676 80.548713 
L 325.175373 81.129613 
L 326.849423 81.551721 
L 328.491279 81.751501 
L 332.096924 81.887667 
L 334.833351 81.759255 
L 337.634165 81.414308 
L 342.302187 80.44771 
L 346.777051 79.26312 
L 354.632206 76.863457 
L 355.565811 76.471887 
L 355.887743 75.916752 
L 356.435029 74.426218 
L 357.658372 70.977598 
L 358.302238 69.89255 
L 360.909892 66.529108 
L 362.551748 64.82337 
L 365.030629 62.556074 
L 369.119173 59.292806 
L 372.209726 57.137915 
L 375.042733 55.496191 
L 377.940126 54.009927 
L 380.934099 52.746682 
L 383.670526 51.847756 
L 386.600113 51.086867 
L 390.012599 50.454091 
L 392.716833 50.110546 
L 396.000545 49.946237 
L 400.056896 49.986146 
L 403.726927 50.264581 
L 409.650487 51.133436 
L 416.990551 52.506049 
L 430.093207 55.040412 
L 437.304498 56.200195 
L 442.680772 56.902532 
L 450.053029 57.560637 
L 454.753244 57.774418 
L 464.668769 57.906025 
L 471.075227 57.766448 
L 471.075227 57.766448 
" style="fill:none;stroke:#bcbd22;stroke-linecap:square;stroke-opacity:0.7;stroke-width:1.5;"/>
   </g>
   <g id="line2d_56">
    <path clip-path="url(#p88c2afbaef)" d="M 316.579773 74.826324 
L 318.382595 76.398787 
L 318.962074 77.110964 
L 319.670326 78.401759 
L 320.70051 80.790699 
L 322.567719 85.811636 
L 324.306155 90.22669 
L 325.754852 93.275799 
L 328.040573 97.977469 
L 329.328304 101.289653 
L 331.485252 107.618543 
L 333.73878 113.920814 
L 335.766956 119.622383 
L 336.9903 123.844457 
L 338.567769 130.174293 
L 344.748875 156.619362 
L 346.519504 165.812452 
L 354.921945 211.975544 
L 356.016516 217.982639 
L 357.078894 222.195151 
L 357.207667 222.192184 
L 357.368633 221.868342 
L 357.626179 220.733812 
L 358.076885 217.496558 
L 358.91391 209.549333 
L 359.879707 198.337219 
L 361.231824 179.412205 
L 363.099033 154.236346 
L 364.676503 135.495074 
L 366.318359 119.143283 
L 367.70267 107.304342 
L 368.636274 101.15075 
L 369.505492 96.836422 
L 372.724818 82.706253 
L 374.109128 76.613544 
L 375.01054 73.718237 
L 376.29827 70.397208 
L 378.519605 65.373585 
L 379.388823 63.906296 
L 380.064881 63.162287 
L 380.64436 62.823402 
L 381.191645 62.748046 
L 381.771124 62.897625 
L 382.640342 63.395457 
L 384.056846 64.191201 
L 384.926064 64.410072 
L 385.891861 64.400141 
L 387.501524 64.354957 
L 388.274163 64.578303 
L 389.046801 65.037311 
L 389.916019 65.826559 
L 392.588059 68.46725 
L 393.489471 68.931639 
L 394.873781 69.334562 
L 395.903965 69.746981 
L 396.773183 70.347968 
L 397.674595 71.256761 
L 399.058905 73.037221 
L 400.475408 74.726485 
L 401.505593 75.609916 
L 403.018676 76.545102 
L 404.016667 77.307078 
L 404.918078 78.29403 
L 405.883876 79.699689 
L 407.493539 82.526514 
L 409.231975 85.403406 
L 412.258141 90.084622 
L 413.256132 92.340699 
L 414.479476 95.702944 
L 417.37687 104.592819 
L 419.694784 112.007509 
L 420.918128 116.792694 
L 422.399018 123.559148 
L 427.067041 146.641133 
L 428.93425 156.605115 
L 430.962425 168.792424 
L 438.785388 218.179285 
L 439.493639 222.987273 
L 439.590219 222.938763 
L 439.718992 222.476724 
L 439.976538 220.508104 
L 440.362857 215.613987 
L 441.103302 202.746218 
L 442.938318 170.660471 
L 444.226048 152.1097 
L 445.385006 138.411502 
L 446.479577 127.967091 
L 447.606341 119.282585 
L 448.861878 111.306788 
L 450.278381 103.718032 
L 451.566112 97.966702 
L 452.628489 94.175266 
L 453.594287 91.521197 
L 454.463505 89.741445 
L 455.364916 88.391077 
L 456.556067 87.038881 
L 459.195914 84.461865 
L 460.129519 83.815494 
L 460.869964 83.561293 
L 461.546022 83.563823 
L 462.222081 83.79094 
L 463.026912 84.314707 
L 464.443416 85.573138 
L 466.149658 86.987078 
L 468.177834 88.583204 
L 469.014859 89.618624 
L 469.884077 91.065304 
L 470.946454 93.303873 
L 471.075227 93.602394 
L 471.075227 93.602394 
" style="fill:none;stroke:#2ca02c;stroke-linecap:square;stroke-opacity:0.7;stroke-width:1.5;"/>
   </g>
   <g id="line2d_57">
    <path clip-path="url(#p88c2afbaef)" d="M 316.579773 74.826324 
L 318.350402 76.08869 
L 319.444973 76.659494 
L 319.831292 76.599309 
L 320.281998 76.280443 
L 324.048609 72.898469 
L 325.722659 71.851624 
L 327.203549 71.180593 
L 329.29611 70.454034 
L 331.614025 69.893213 
L 334.318259 69.472039 
L 337.698551 69.180526 
L 342.334381 69.016053 
L 349.706637 69.01136 
L 355.565811 68.94687 
L 355.887743 68.500806 
L 356.595995 67.000984 
L 357.754952 64.727759 
L 358.881716 62.937526 
L 360.169447 61.389913 
L 361.264018 60.379499 
L 362.358588 59.689193 
L 364.45115 58.681685 
L 367.799249 57.27942 
L 369.698652 56.748383 
L 371.919987 56.376226 
L 375.364665 56.037895 
L 379.388823 55.856615 
L 384.89387 55.871405 
L 409.071009 56.076723 
L 471.075227 56.054685 
L 471.075227 56.054685 
" style="fill:none;stroke:#17becf;stroke-linecap:square;stroke-opacity:0.7;stroke-width:1.5;"/>
   </g>
   <g id="line2d_58">
    <path clip-path="url(#p88c2afbaef)" d="M 316.579773 74.80078 
L 355.340458 74.80078 
L 355.469231 59.786831 
L 471.075227 59.786831 
L 471.075227 59.786831 
" style="fill:none;stroke:#000000;stroke-dasharray:5.55,2.4;stroke-dashoffset:0;stroke-opacity:0.595;stroke-width:1.5;"/>
   </g>
   <g id="patch_8">
    <path d="M 308.855 231.64 
L 308.855 41.28 
" style="fill:none;stroke:#000000;stroke-linecap:square;stroke-linejoin:miter;stroke-width:0.8;"/>
   </g>
   <g id="patch_9">
    <path d="M 478.8 231.64 
L 478.8 41.28 
" style="fill:none;stroke:#000000;stroke-linecap:square;stroke-linejoin:miter;stroke-width:0.8;"/>
   </g>
   <g id="patch_10">
    <path d="M 308.855 231.64 
L 478.8 231.64 
" style="fill:none;stroke:#000000;stroke-linecap:square;stroke-linejoin:miter;stroke-width:0.8;"/>
   </g>
   <g id="patch_11">
    <path d="M 308.855 41.28 
L 478.8 41.28 
" style="fill:none;stroke:#000000;stroke-linecap:square;stroke-linejoin:miter;stroke-width:0.8;"/>
   </g>
   <g id="text_28">
    <!-- Plano z -->
    <g transform="translate(372.33625 35.28)scale(0.12 -0.12)">
     <use xlink:href="#DejaVuSans-50"/>
     <use x="60.302734" xlink:href="#DejaVuSans-6c"/>
     <use x="88.085938" xlink:href="#DejaVuSans-61"/>
     <use x="149.365234" xlink:href="#DejaVuSans-6e"/>
     <use x="212.744141" xlink:href="#DejaVuSans-6f"/>
     <use x="273.925781" xlink:href="#DejaVuSans-20"/>
     <use x="305.712891" xlink:href="#DejaVuSans-7a"/>
    </g>
   </g>
  </g>
  <g id="legend_1">
   <g id="patch_12">
    <path d="M 477.035937 197.56875 
L 569 197.56875 
Q 571 197.56875 571 195.56875 
L 571 92.43125 
Q 571 90.43125 569 90.43125 
L 477.035937 90.43125 
Q 475.035937 90.43125 475.035937 92.43125 
L 475.035937 195.56875 
Q 475.035937 197.56875 477.035937 197.56875 
z
" style="fill:#ffffff;opacity:0.8;stroke:#cccccc;stroke-linejoin:miter;"/>
   </g>
   <g id="line2d_59">
    <path d="M 479.035937 98.529688 
L 499.035937 98.529688 
" style="fill:none;stroke:#1f77b4;stroke-linecap:square;stroke-opacity:0.7;stroke-width:1.5;"/>
   </g>
   <g id="line2d_60"/>
   <g id="text_29">
    <!-- DSLPID -->
    <g transform="translate(507.035937 102.029688)scale(0.1 -0.1)">
     <defs>
      <path d="M 1259 4147 
L 1259 519 
L 2022 519 
Q 2988 519 3436 956 
Q 3884 1394 3884 2338 
Q 3884 3275 3436 3711 
Q 2988 4147 2022 4147 
L 1259 4147 
z
M 628 4666 
L 1925 4666 
Q 3281 4666 3915 4102 
Q 4550 3538 4550 2338 
Q 4550 1131 3912 565 
Q 3275 0 1925 0 
L 628 0 
L 628 4666 
z
" id="DejaVuSans-44" transform="scale(0.015625)"/>
      <path d="M 3425 4513 
L 3425 3897 
Q 3066 4069 2747 4153 
Q 2428 4238 2131 4238 
Q 1616 4238 1336 4038 
Q 1056 3838 1056 3469 
Q 1056 3159 1242 3001 
Q 1428 2844 1947 2747 
L 2328 2669 
Q 3034 2534 3370 2195 
Q 3706 1856 3706 1288 
Q 3706 609 3251 259 
Q 2797 -91 1919 -91 
Q 1588 -91 1214 -16 
Q 841 59 441 206 
L 441 856 
Q 825 641 1194 531 
Q 1563 422 1919 422 
Q 2459 422 2753 634 
Q 3047 847 3047 1241 
Q 3047 1584 2836 1778 
Q 2625 1972 2144 2069 
L 1759 2144 
Q 1053 2284 737 2584 
Q 422 2884 422 3419 
Q 422 4038 858 4394 
Q 1294 4750 2059 4750 
Q 2388 4750 2728 4690 
Q 3069 4631 3425 4513 
z
" id="DejaVuSans-53" transform="scale(0.015625)"/>
      <path d="M 628 4666 
L 1259 4666 
L 1259 531 
L 3531 531 
L 3531 0 
L 628 0 
L 628 4666 
z
" id="DejaVuSans-4c" transform="scale(0.015625)"/>
      <path d="M 628 4666 
L 1259 4666 
L 1259 0 
L 628 0 
L 628 4666 
z
" id="DejaVuSans-49" transform="scale(0.015625)"/>
     </defs>
     <use xlink:href="#DejaVuSans-44"/>
     <use x="77.001953" xlink:href="#DejaVuSans-53"/>
     <use x="140.478516" xlink:href="#DejaVuSans-4c"/>
     <use x="196.191406" xlink:href="#DejaVuSans-50"/>
     <use x="256.494141" xlink:href="#DejaVuSans-49"/>
     <use x="285.986328" xlink:href="#DejaVuSans-44"/>
    </g>
   </g>
   <g id="line2d_61">
    <path d="M 479.035937 113.207813 
L 499.035937 113.207813 
" style="fill:none;stroke:#d62728;stroke-linecap:square;stroke-opacity:0.7;stroke-width:1.5;"/>
   </g>
   <g id="line2d_62"/>
   <g id="text_30">
    <!-- LSTMCNN_1 -->
    <g transform="translate(507.035937 116.707813)scale(0.1 -0.1)">
     <defs>
      <path d="M 628 4666 
L 1569 4666 
L 2759 1491 
L 3956 4666 
L 4897 4666 
L 4897 0 
L 4281 0 
L 4281 4097 
L 3078 897 
L 2444 897 
L 1241 4097 
L 1241 0 
L 628 0 
L 628 4666 
z
" id="DejaVuSans-4d" transform="scale(0.015625)"/>
      <path d="M 4122 4306 
L 4122 3641 
Q 3803 3938 3442 4084 
Q 3081 4231 2675 4231 
Q 1875 4231 1450 3742 
Q 1025 3253 1025 2328 
Q 1025 1406 1450 917 
Q 1875 428 2675 428 
Q 3081 428 3442 575 
Q 3803 722 4122 1019 
L 4122 359 
Q 3791 134 3420 21 
Q 3050 -91 2638 -91 
Q 1578 -91 968 557 
Q 359 1206 359 2328 
Q 359 3453 968 4101 
Q 1578 4750 2638 4750 
Q 3056 4750 3426 4639 
Q 3797 4528 4122 4306 
z
" id="DejaVuSans-43" transform="scale(0.015625)"/>
      <path d="M 628 4666 
L 1478 4666 
L 3547 763 
L 3547 4666 
L 4159 4666 
L 4159 0 
L 3309 0 
L 1241 3903 
L 1241 0 
L 628 0 
L 628 4666 
z
" id="DejaVuSans-4e" transform="scale(0.015625)"/>
      <path d="M 3263 -1063 
L 3263 -1509 
L -63 -1509 
L -63 -1063 
L 3263 -1063 
z
" id="DejaVuSans-5f" transform="scale(0.015625)"/>
     </defs>
     <use xlink:href="#DejaVuSans-4c"/>
     <use x="55.712891" xlink:href="#DejaVuSans-53"/>
     <use x="119.189453" xlink:href="#DejaVuSans-54"/>
     <use x="180.273438" xlink:href="#DejaVuSans-4d"/>
     <use x="266.552734" xlink:href="#DejaVuSans-43"/>
     <use x="336.376953" xlink:href="#DejaVuSans-4e"/>
     <use x="411.181641" xlink:href="#DejaVuSans-4e"/>
     <use x="485.986328" xlink:href="#DejaVuSans-5f"/>
     <use x="535.986328" xlink:href="#DejaVuSans-31"/>
    </g>
   </g>
   <g id="line2d_63">
    <path d="M 479.035937 128.164063 
L 499.035937 128.164063 
" style="fill:none;stroke:#9467bd;stroke-linecap:square;stroke-opacity:0.7;stroke-width:1.5;"/>
   </g>
   <g id="line2d_64"/>
   <g id="text_31">
    <!-- LSTMCNN_2 -->
    <g transform="translate(507.035937 131.664063)scale(0.1 -0.1)">
     <use xlink:href="#DejaVuSans-4c"/>
     <use x="55.712891" xlink:href="#DejaVuSans-53"/>
     <use x="119.189453" xlink:href="#DejaVuSans-54"/>
     <use x="180.273438" xlink:href="#DejaVuSans-4d"/>
     <use x="266.552734" xlink:href="#DejaVuSans-43"/>
     <use x="336.376953" xlink:href="#DejaVuSans-4e"/>
     <use x="411.181641" xlink:href="#DejaVuSans-4e"/>
     <use x="485.986328" xlink:href="#DejaVuSans-5f"/>
     <use x="535.986328" xlink:href="#DejaVuSans-32"/>
    </g>
   </g>
   <g id="line2d_65">
    <path d="M 479.035937 143.120313 
L 499.035937 143.120313 
" style="fill:none;stroke:#bcbd22;stroke-linecap:square;stroke-opacity:0.7;stroke-width:1.5;"/>
   </g>
   <g id="line2d_66"/>
   <g id="text_32">
    <!-- LSTMCNN_3 -->
    <g transform="translate(507.035937 146.620313)scale(0.1 -0.1)">
     <defs>
      <path d="M 2597 2516 
Q 3050 2419 3304 2112 
Q 3559 1806 3559 1356 
Q 3559 666 3084 287 
Q 2609 -91 1734 -91 
Q 1441 -91 1130 -33 
Q 819 25 488 141 
L 488 750 
Q 750 597 1062 519 
Q 1375 441 1716 441 
Q 2309 441 2620 675 
Q 2931 909 2931 1356 
Q 2931 1769 2642 2001 
Q 2353 2234 1838 2234 
L 1294 2234 
L 1294 2753 
L 1863 2753 
Q 2328 2753 2575 2939 
Q 2822 3125 2822 3475 
Q 2822 3834 2567 4026 
Q 2313 4219 1838 4219 
Q 1578 4219 1281 4162 
Q 984 4106 628 3988 
L 628 4550 
Q 988 4650 1302 4700 
Q 1616 4750 1894 4750 
Q 2613 4750 3031 4423 
Q 3450 4097 3450 3541 
Q 3450 3153 3228 2886 
Q 3006 2619 2597 2516 
z
" id="DejaVuSans-33" transform="scale(0.015625)"/>
     </defs>
     <use xlink:href="#DejaVuSans-4c"/>
     <use x="55.712891" xlink:href="#DejaVuSans-53"/>
     <use x="119.189453" xlink:href="#DejaVuSans-54"/>
     <use x="180.273438" xlink:href="#DejaVuSans-4d"/>
     <use x="266.552734" xlink:href="#DejaVuSans-43"/>
     <use x="336.376953" xlink:href="#DejaVuSans-4e"/>
     <use x="411.181641" xlink:href="#DejaVuSans-4e"/>
     <use x="485.986328" xlink:href="#DejaVuSans-5f"/>
     <use x="535.986328" xlink:href="#DejaVuSans-33"/>
    </g>
   </g>
   <g id="line2d_67">
    <path d="M 479.035937 158.076563 
L 499.035937 158.076563 
" style="fill:none;stroke:#2ca02c;stroke-linecap:square;stroke-opacity:0.7;stroke-width:1.5;"/>
   </g>
   <g id="line2d_68"/>
   <g id="text_33">
    <!-- LSTMCNN_4 -->
    <g transform="translate(507.035937 161.576563)scale(0.1 -0.1)">
     <use xlink:href="#DejaVuSans-4c"/>
     <use x="55.712891" xlink:href="#DejaVuSans-53"/>
     <use x="119.189453" xlink:href="#DejaVuSans-54"/>
     <use x="180.273438" xlink:href="#DejaVuSans-4d"/>
     <use x="266.552734" xlink:href="#DejaVuSans-43"/>
     <use x="336.376953" xlink:href="#DejaVuSans-4e"/>
     <use x="411.181641" xlink:href="#DejaVuSans-4e"/>
     <use x="485.986328" xlink:href="#DejaVuSans-5f"/>
     <use x="535.986328" xlink:href="#DejaVuSans-34"/>
    </g>
   </g>
   <g id="line2d_69">
    <path d="M 479.035937 173.032813 
L 499.035937 173.032813 
" style="fill:none;stroke:#17becf;stroke-linecap:square;stroke-opacity:0.7;stroke-width:1.5;"/>
   </g>
   <g id="line2d_70"/>
   <g id="text_34">
    <!-- LSTMCNN_5 -->
    <g transform="translate(507.035937 176.532813)scale(0.1 -0.1)">
     <use xlink:href="#DejaVuSans-4c"/>
     <use x="55.712891" xlink:href="#DejaVuSans-53"/>
     <use x="119.189453" xlink:href="#DejaVuSans-54"/>
     <use x="180.273438" xlink:href="#DejaVuSans-4d"/>
     <use x="266.552734" xlink:href="#DejaVuSans-43"/>
     <use x="336.376953" xlink:href="#DejaVuSans-4e"/>
     <use x="411.181641" xlink:href="#DejaVuSans-4e"/>
     <use x="485.986328" xlink:href="#DejaVuSans-5f"/>
     <use x="535.986328" xlink:href="#DejaVuSans-35"/>
    </g>
   </g>
   <g id="line2d_71">
    <path d="M 479.035937 187.989063 
L 499.035937 187.989063 
" style="fill:none;stroke:#000000;stroke-dasharray:5.55,2.4;stroke-dashoffset:0;stroke-opacity:0.595;stroke-width:1.5;"/>
   </g>
   <g id="line2d_72"/>
   <g id="text_35">
    <!-- Referencia -->
    <g transform="translate(507.035937 191.489063)scale(0.1 -0.1)">
     <defs>
      <path d="M 2841 2188 
Q 3044 2119 3236 1894 
Q 3428 1669 3622 1275 
L 4263 0 
L 3584 0 
L 2988 1197 
Q 2756 1666 2539 1819 
Q 2322 1972 1947 1972 
L 1259 1972 
L 1259 0 
L 628 0 
L 628 4666 
L 2053 4666 
Q 2853 4666 3247 4331 
Q 3641 3997 3641 3322 
Q 3641 2881 3436 2590 
Q 3231 2300 2841 2188 
z
M 1259 4147 
L 1259 2491 
L 2053 2491 
Q 2509 2491 2742 2702 
Q 2975 2913 2975 3322 
Q 2975 3731 2742 3939 
Q 2509 4147 2053 4147 
L 1259 4147 
z
" id="DejaVuSans-52" transform="scale(0.015625)"/>
      <path d="M 2375 4863 
L 2375 4384 
L 1825 4384 
Q 1516 4384 1395 4259 
Q 1275 4134 1275 3809 
L 1275 3500 
L 2222 3500 
L 2222 3053 
L 1275 3053 
L 1275 0 
L 697 0 
L 697 3053 
L 147 3053 
L 147 3500 
L 697 3500 
L 697 3744 
Q 697 4328 969 4595 
Q 1241 4863 1831 4863 
L 2375 4863 
z
" id="DejaVuSans-66" transform="scale(0.015625)"/>
      <path d="M 2631 2963 
Q 2534 3019 2420 3045 
Q 2306 3072 2169 3072 
Q 1681 3072 1420 2755 
Q 1159 2438 1159 1844 
L 1159 0 
L 581 0 
L 581 3500 
L 1159 3500 
L 1159 2956 
Q 1341 3275 1631 3429 
Q 1922 3584 2338 3584 
Q 2397 3584 2469 3576 
Q 2541 3569 2628 3553 
L 2631 2963 
z
" id="DejaVuSans-72" transform="scale(0.015625)"/>
      <path d="M 3122 3366 
L 3122 2828 
Q 2878 2963 2633 3030 
Q 2388 3097 2138 3097 
Q 1578 3097 1268 2742 
Q 959 2388 959 1747 
Q 959 1106 1268 751 
Q 1578 397 2138 397 
Q 2388 397 2633 464 
Q 2878 531 3122 666 
L 3122 134 
Q 2881 22 2623 -34 
Q 2366 -91 2075 -91 
Q 1284 -91 818 406 
Q 353 903 353 1747 
Q 353 2603 823 3093 
Q 1294 3584 2113 3584 
Q 2378 3584 2631 3529 
Q 2884 3475 3122 3366 
z
" id="DejaVuSans-63" transform="scale(0.015625)"/>
     </defs>
     <use xlink:href="#DejaVuSans-52"/>
     <use x="64.982422" xlink:href="#DejaVuSans-65"/>
     <use x="126.505859" xlink:href="#DejaVuSans-66"/>
     <use x="161.710938" xlink:href="#DejaVuSans-65"/>
     <use x="223.234375" xlink:href="#DejaVuSans-72"/>
     <use x="262.097656" xlink:href="#DejaVuSans-65"/>
     <use x="323.621094" xlink:href="#DejaVuSans-6e"/>
     <use x="387" xlink:href="#DejaVuSans-63"/>
     <use x="441.980469" xlink:href="#DejaVuSans-69"/>
     <use x="469.763672" xlink:href="#DejaVuSans-61"/>
    </g>
   </g>
  </g>
 </g>
 <defs>
  <clipPath id="pf5474a06d3">
   <rect height="190.36" width="169.945" x="91.19" y="41.28"/>
  </clipPath>
  <clipPath id="p88c2afbaef">
   <rect height="190.36" width="169.945" x="308.855" y="41.28"/>
  </clipPath>
 </defs>
</svg>
