<?xml version="1.0" encoding="utf-8" standalone="no"?>
<!DOCTYPE svg PUBLIC "-//W3C//DTD SVG 1.1//EN"
  "http://www.w3.org/Graphics/SVG/1.1/DTD/svg11.dtd">
<svg height="576pt" version="1.1" viewBox="0 0 576 576" width="576pt" xmlns="http://www.w3.org/2000/svg" xmlns:xlink="http://www.w3.org/1999/xlink">
 <metadata>
  <rdf:RDF xmlns:cc="http://creativecommons.org/ns#" xmlns:dc="http://purl.org/dc/elements/1.1/" xmlns:rdf="http://www.w3.org/1999/02/22-rdf-syntax-ns#">
   <cc:Work>
    <dc:type rdf:resource="http://purl.org/dc/dcmitype/StillImage"/>
    <dc:date>2022-02-26T04:02:32.912296</dc:date>
    <dc:format>image/svg+xml</dc:format>
    <dc:creator>
     <cc:Agent>
      <dc:title>Matplotlib v3.4.3, https://matplotlib.org/</dc:title>
     </cc:Agent>
    </dc:creator>
   </cc:Work>
  </rdf:RDF>
 </metadata>
 <defs>
  <style type="text/css">*{stroke-linecap:butt;stroke-linejoin:round;}</style>
 </defs>
 <g id="figure_1">
  <g id="patch_1">
   <path d="M 0 576 
L 576 576 
L 576 0 
L 0 0 
z
" style="fill:#ffffff;"/>
  </g>
  <g id="axes_1">
   <g id="patch_2">
    <path d="M 65.59 271.86 
L 253.8 271.86 
L 253.8 80.88 
L 65.59 80.88 
z
" style="fill:#ffffff;"/>
   </g>
   <g id="matplotlib.axis_1">
    <g id="xtick_1">
     <g id="line2d_1">
      <path clip-path="url(#pf05d024363)" d="M 74.145 271.86 
L 74.145 80.88 
" style="fill:none;stroke:#b0b0b0;stroke-linecap:square;stroke-width:0.8;"/>
     </g>
     <g id="line2d_2">
      <defs>
       <path d="M 0 0 
L 0 3.5 
" id="m7c10423ffc" style="stroke:#000000;stroke-width:0.8;"/>
      </defs>
      <g>
       <use style="stroke:#000000;stroke-width:0.8;" x="74.145" xlink:href="#m7c10423ffc" y="271.86"/>
      </g>
     </g>
    </g>
    <g id="xtick_2">
     <g id="line2d_3">
      <path clip-path="url(#pf05d024363)" d="M 116.928913 271.86 
L 116.928913 80.88 
" style="fill:none;stroke:#b0b0b0;stroke-linecap:square;stroke-width:0.8;"/>
     </g>
     <g id="line2d_4">
      <g>
       <use style="stroke:#000000;stroke-width:0.8;" x="116.928913" xlink:href="#m7c10423ffc" y="271.86"/>
      </g>
     </g>
    </g>
    <g id="xtick_3">
     <g id="line2d_5">
      <path clip-path="url(#pf05d024363)" d="M 159.712827 271.86 
L 159.712827 80.88 
" style="fill:none;stroke:#b0b0b0;stroke-linecap:square;stroke-width:0.8;"/>
     </g>
     <g id="line2d_6">
      <g>
       <use style="stroke:#000000;stroke-width:0.8;" x="159.712827" xlink:href="#m7c10423ffc" y="271.86"/>
      </g>
     </g>
    </g>
    <g id="xtick_4">
     <g id="line2d_7">
      <path clip-path="url(#pf05d024363)" d="M 202.49674 271.86 
L 202.49674 80.88 
" style="fill:none;stroke:#b0b0b0;stroke-linecap:square;stroke-width:0.8;"/>
     </g>
     <g id="line2d_8">
      <g>
       <use style="stroke:#000000;stroke-width:0.8;" x="202.49674" xlink:href="#m7c10423ffc" y="271.86"/>
      </g>
     </g>
    </g>
    <g id="xtick_5">
     <g id="line2d_9">
      <path clip-path="url(#pf05d024363)" d="M 245.280653 271.86 
L 245.280653 80.88 
" style="fill:none;stroke:#b0b0b0;stroke-linecap:square;stroke-width:0.8;"/>
     </g>
     <g id="line2d_10">
      <g>
       <use style="stroke:#000000;stroke-width:0.8;" x="245.280653" xlink:href="#m7c10423ffc" y="271.86"/>
      </g>
     </g>
    </g>
    <g id="text_1">
     <!-- Tiempo (s) -->
     <g transform="translate(133.1325 283.458437)scale(0.1 -0.1)">
      <defs>
       <path d="M -19 4666 
L 3928 4666 
L 3928 4134 
L 2272 4134 
L 2272 0 
L 1638 0 
L 1638 4134 
L -19 4134 
L -19 4666 
z
" id="DejaVuSans-54" transform="scale(0.015625)"/>
       <path d="M 603 3500 
L 1178 3500 
L 1178 0 
L 603 0 
L 603 3500 
z
M 603 4863 
L 1178 4863 
L 1178 4134 
L 603 4134 
L 603 4863 
z
" id="DejaVuSans-69" transform="scale(0.015625)"/>
       <path d="M 3597 1894 
L 3597 1613 
L 953 1613 
Q 991 1019 1311 708 
Q 1631 397 2203 397 
Q 2534 397 2845 478 
Q 3156 559 3463 722 
L 3463 178 
Q 3153 47 2828 -22 
Q 2503 -91 2169 -91 
Q 1331 -91 842 396 
Q 353 884 353 1716 
Q 353 2575 817 3079 
Q 1281 3584 2069 3584 
Q 2775 3584 3186 3129 
Q 3597 2675 3597 1894 
z
M 3022 2063 
Q 3016 2534 2758 2815 
Q 2500 3097 2075 3097 
Q 1594 3097 1305 2825 
Q 1016 2553 972 2059 
L 3022 2063 
z
" id="DejaVuSans-65" transform="scale(0.015625)"/>
       <path d="M 3328 2828 
Q 3544 3216 3844 3400 
Q 4144 3584 4550 3584 
Q 5097 3584 5394 3201 
Q 5691 2819 5691 2113 
L 5691 0 
L 5113 0 
L 5113 2094 
Q 5113 2597 4934 2840 
Q 4756 3084 4391 3084 
Q 3944 3084 3684 2787 
Q 3425 2491 3425 1978 
L 3425 0 
L 2847 0 
L 2847 2094 
Q 2847 2600 2669 2842 
Q 2491 3084 2119 3084 
Q 1678 3084 1418 2786 
Q 1159 2488 1159 1978 
L 1159 0 
L 581 0 
L 581 3500 
L 1159 3500 
L 1159 2956 
Q 1356 3278 1631 3431 
Q 1906 3584 2284 3584 
Q 2666 3584 2933 3390 
Q 3200 3197 3328 2828 
z
" id="DejaVuSans-6d" transform="scale(0.015625)"/>
       <path d="M 1159 525 
L 1159 -1331 
L 581 -1331 
L 581 3500 
L 1159 3500 
L 1159 2969 
Q 1341 3281 1617 3432 
Q 1894 3584 2278 3584 
Q 2916 3584 3314 3078 
Q 3713 2572 3713 1747 
Q 3713 922 3314 415 
Q 2916 -91 2278 -91 
Q 1894 -91 1617 61 
Q 1341 213 1159 525 
z
M 3116 1747 
Q 3116 2381 2855 2742 
Q 2594 3103 2138 3103 
Q 1681 3103 1420 2742 
Q 1159 2381 1159 1747 
Q 1159 1113 1420 752 
Q 1681 391 2138 391 
Q 2594 391 2855 752 
Q 3116 1113 3116 1747 
z
" id="DejaVuSans-70" transform="scale(0.015625)"/>
       <path d="M 1959 3097 
Q 1497 3097 1228 2736 
Q 959 2375 959 1747 
Q 959 1119 1226 758 
Q 1494 397 1959 397 
Q 2419 397 2687 759 
Q 2956 1122 2956 1747 
Q 2956 2369 2687 2733 
Q 2419 3097 1959 3097 
z
M 1959 3584 
Q 2709 3584 3137 3096 
Q 3566 2609 3566 1747 
Q 3566 888 3137 398 
Q 2709 -91 1959 -91 
Q 1206 -91 779 398 
Q 353 888 353 1747 
Q 353 2609 779 3096 
Q 1206 3584 1959 3584 
z
" id="DejaVuSans-6f" transform="scale(0.015625)"/>
       <path id="DejaVuSans-20" transform="scale(0.015625)"/>
       <path d="M 1984 4856 
Q 1566 4138 1362 3434 
Q 1159 2731 1159 2009 
Q 1159 1288 1364 580 
Q 1569 -128 1984 -844 
L 1484 -844 
Q 1016 -109 783 600 
Q 550 1309 550 2009 
Q 550 2706 781 3412 
Q 1013 4119 1484 4856 
L 1984 4856 
z
" id="DejaVuSans-28" transform="scale(0.015625)"/>
       <path d="M 2834 3397 
L 2834 2853 
Q 2591 2978 2328 3040 
Q 2066 3103 1784 3103 
Q 1356 3103 1142 2972 
Q 928 2841 928 2578 
Q 928 2378 1081 2264 
Q 1234 2150 1697 2047 
L 1894 2003 
Q 2506 1872 2764 1633 
Q 3022 1394 3022 966 
Q 3022 478 2636 193 
Q 2250 -91 1575 -91 
Q 1294 -91 989 -36 
Q 684 19 347 128 
L 347 722 
Q 666 556 975 473 
Q 1284 391 1588 391 
Q 1994 391 2212 530 
Q 2431 669 2431 922 
Q 2431 1156 2273 1281 
Q 2116 1406 1581 1522 
L 1381 1569 
Q 847 1681 609 1914 
Q 372 2147 372 2553 
Q 372 3047 722 3315 
Q 1072 3584 1716 3584 
Q 2034 3584 2315 3537 
Q 2597 3491 2834 3397 
z
" id="DejaVuSans-73" transform="scale(0.015625)"/>
       <path d="M 513 4856 
L 1013 4856 
Q 1481 4119 1714 3412 
Q 1947 2706 1947 2009 
Q 1947 1309 1714 600 
Q 1481 -109 1013 -844 
L 513 -844 
Q 928 -128 1133 580 
Q 1338 1288 1338 2009 
Q 1338 2731 1133 3434 
Q 928 4138 513 4856 
z
" id="DejaVuSans-29" transform="scale(0.015625)"/>
      </defs>
      <use xlink:href="#DejaVuSans-54"/>
      <use x="57.958984" xlink:href="#DejaVuSans-69"/>
      <use x="85.742188" xlink:href="#DejaVuSans-65"/>
      <use x="147.265625" xlink:href="#DejaVuSans-6d"/>
      <use x="244.677734" xlink:href="#DejaVuSans-70"/>
      <use x="308.154297" xlink:href="#DejaVuSans-6f"/>
      <use x="369.335938" xlink:href="#DejaVuSans-20"/>
      <use x="401.123047" xlink:href="#DejaVuSans-28"/>
      <use x="440.136719" xlink:href="#DejaVuSans-73"/>
      <use x="492.236328" xlink:href="#DejaVuSans-29"/>
     </g>
    </g>
   </g>
   <g id="matplotlib.axis_2">
    <g id="ytick_1">
     <g id="line2d_11">
      <path clip-path="url(#pf05d024363)" d="M 65.59 263.179091 
L 253.8 263.179091 
" style="fill:none;stroke:#b0b0b0;stroke-linecap:square;stroke-width:0.8;"/>
     </g>
     <g id="line2d_12">
      <defs>
       <path d="M 0 0 
L -3.5 0 
" id="mafe79c066a" style="stroke:#000000;stroke-width:0.8;"/>
      </defs>
      <g>
       <use style="stroke:#000000;stroke-width:0.8;" x="65.59" xlink:href="#mafe79c066a" y="263.179091"/>
      </g>
     </g>
     <g id="text_2">
      <!-- 0 -->
      <g transform="translate(52.2275 266.97831)scale(0.1 -0.1)">
       <defs>
        <path d="M 2034 4250 
Q 1547 4250 1301 3770 
Q 1056 3291 1056 2328 
Q 1056 1369 1301 889 
Q 1547 409 2034 409 
Q 2525 409 2770 889 
Q 3016 1369 3016 2328 
Q 3016 3291 2770 3770 
Q 2525 4250 2034 4250 
z
M 2034 4750 
Q 2819 4750 3233 4129 
Q 3647 3509 3647 2328 
Q 3647 1150 3233 529 
Q 2819 -91 2034 -91 
Q 1250 -91 836 529 
Q 422 1150 422 2328 
Q 422 3509 836 4129 
Q 1250 4750 2034 4750 
z
" id="DejaVuSans-30" transform="scale(0.015625)"/>
       </defs>
       <use xlink:href="#DejaVuSans-30"/>
      </g>
     </g>
    </g>
    <g id="ytick_2">
     <g id="line2d_13">
      <path clip-path="url(#pf05d024363)" d="M 65.59 224.333527 
L 253.8 224.333527 
" style="fill:none;stroke:#b0b0b0;stroke-linecap:square;stroke-width:0.8;"/>
     </g>
     <g id="line2d_14">
      <g>
       <use style="stroke:#000000;stroke-width:0.8;" x="65.59" xlink:href="#mafe79c066a" y="224.333527"/>
      </g>
     </g>
     <g id="text_3">
      <!-- 10 -->
      <g transform="translate(45.865 228.132746)scale(0.1 -0.1)">
       <defs>
        <path d="M 794 531 
L 1825 531 
L 1825 4091 
L 703 3866 
L 703 4441 
L 1819 4666 
L 2450 4666 
L 2450 531 
L 3481 531 
L 3481 0 
L 794 0 
L 794 531 
z
" id="DejaVuSans-31" transform="scale(0.015625)"/>
       </defs>
       <use xlink:href="#DejaVuSans-31"/>
       <use x="63.623047" xlink:href="#DejaVuSans-30"/>
      </g>
     </g>
    </g>
    <g id="ytick_3">
     <g id="line2d_15">
      <path clip-path="url(#pf05d024363)" d="M 65.59 185.487963 
L 253.8 185.487963 
" style="fill:none;stroke:#b0b0b0;stroke-linecap:square;stroke-width:0.8;"/>
     </g>
     <g id="line2d_16">
      <g>
       <use style="stroke:#000000;stroke-width:0.8;" x="65.59" xlink:href="#mafe79c066a" y="185.487963"/>
      </g>
     </g>
     <g id="text_4">
      <!-- 20 -->
      <g transform="translate(45.865 189.287182)scale(0.1 -0.1)">
       <defs>
        <path d="M 1228 531 
L 3431 531 
L 3431 0 
L 469 0 
L 469 531 
Q 828 903 1448 1529 
Q 2069 2156 2228 2338 
Q 2531 2678 2651 2914 
Q 2772 3150 2772 3378 
Q 2772 3750 2511 3984 
Q 2250 4219 1831 4219 
Q 1534 4219 1204 4116 
Q 875 4013 500 3803 
L 500 4441 
Q 881 4594 1212 4672 
Q 1544 4750 1819 4750 
Q 2544 4750 2975 4387 
Q 3406 4025 3406 3419 
Q 3406 3131 3298 2873 
Q 3191 2616 2906 2266 
Q 2828 2175 2409 1742 
Q 1991 1309 1228 531 
z
" id="DejaVuSans-32" transform="scale(0.015625)"/>
       </defs>
       <use xlink:href="#DejaVuSans-32"/>
       <use x="63.623047" xlink:href="#DejaVuSans-30"/>
      </g>
     </g>
    </g>
    <g id="ytick_4">
     <g id="line2d_17">
      <path clip-path="url(#pf05d024363)" d="M 65.59 146.642399 
L 253.8 146.642399 
" style="fill:none;stroke:#b0b0b0;stroke-linecap:square;stroke-width:0.8;"/>
     </g>
     <g id="line2d_18">
      <g>
       <use style="stroke:#000000;stroke-width:0.8;" x="65.59" xlink:href="#mafe79c066a" y="146.642399"/>
      </g>
     </g>
     <g id="text_5">
      <!-- 30 -->
      <g transform="translate(45.865 150.441618)scale(0.1 -0.1)">
       <defs>
        <path d="M 2597 2516 
Q 3050 2419 3304 2112 
Q 3559 1806 3559 1356 
Q 3559 666 3084 287 
Q 2609 -91 1734 -91 
Q 1441 -91 1130 -33 
Q 819 25 488 141 
L 488 750 
Q 750 597 1062 519 
Q 1375 441 1716 441 
Q 2309 441 2620 675 
Q 2931 909 2931 1356 
Q 2931 1769 2642 2001 
Q 2353 2234 1838 2234 
L 1294 2234 
L 1294 2753 
L 1863 2753 
Q 2328 2753 2575 2939 
Q 2822 3125 2822 3475 
Q 2822 3834 2567 4026 
Q 2313 4219 1838 4219 
Q 1578 4219 1281 4162 
Q 984 4106 628 3988 
L 628 4550 
Q 988 4650 1302 4700 
Q 1616 4750 1894 4750 
Q 2613 4750 3031 4423 
Q 3450 4097 3450 3541 
Q 3450 3153 3228 2886 
Q 3006 2619 2597 2516 
z
" id="DejaVuSans-33" transform="scale(0.015625)"/>
       </defs>
       <use xlink:href="#DejaVuSans-33"/>
       <use x="63.623047" xlink:href="#DejaVuSans-30"/>
      </g>
     </g>
    </g>
    <g id="ytick_5">
     <g id="line2d_19">
      <path clip-path="url(#pf05d024363)" d="M 65.59 107.796835 
L 253.8 107.796835 
" style="fill:none;stroke:#b0b0b0;stroke-linecap:square;stroke-width:0.8;"/>
     </g>
     <g id="line2d_20">
      <g>
       <use style="stroke:#000000;stroke-width:0.8;" x="65.59" xlink:href="#mafe79c066a" y="107.796835"/>
      </g>
     </g>
     <g id="text_6">
      <!-- 40 -->
      <g transform="translate(45.865 111.596054)scale(0.1 -0.1)">
       <defs>
        <path d="M 2419 4116 
L 825 1625 
L 2419 1625 
L 2419 4116 
z
M 2253 4666 
L 3047 4666 
L 3047 1625 
L 3713 1625 
L 3713 1100 
L 3047 1100 
L 3047 0 
L 2419 0 
L 2419 1100 
L 313 1100 
L 313 1709 
L 2253 4666 
z
" id="DejaVuSans-34" transform="scale(0.015625)"/>
       </defs>
       <use xlink:href="#DejaVuSans-34"/>
       <use x="63.623047" xlink:href="#DejaVuSans-30"/>
      </g>
     </g>
    </g>
   </g>
   <g id="line2d_21">
    <path clip-path="url(#pf05d024363)" d="M 74.145 263.179091 
L 117.071526 263.179091 
L 119.567255 237.163809 
L 120.529893 229.503307 
L 121.278611 225.143081 
L 121.956023 222.406476 
L 122.562129 220.805548 
L 123.132581 219.876305 
L 123.703033 219.349592 
L 124.344792 219.056818 
L 125.450043 218.846305 
L 127.197053 218.462869 
L 129.015369 218.083978 
L 130.619766 217.869954 
L 131.689363 217.420463 
L 133.329413 216.452084 
L 137.215619 214.127076 
L 141.957503 211.30244 
L 146.913306 208.418385 
L 153.045667 205.118981 
L 158.714535 202.331412 
L 164.56167 199.700714 
L 170.658378 197.201799 
L 177.004658 194.841335 
L 183.636165 192.612468 
L 190.588551 190.510782 
L 197.933123 188.525014 
L 205.66988 186.665497 
L 213.87013 184.925094 
L 222.605179 183.300717 
L 231.946334 181.792149 
L 242.000553 180.396445 
L 245.245 179.990855 
L 245.245 179.990855 
" style="fill:none;stroke:#1f77b4;stroke-linecap:square;stroke-opacity:0.7;stroke-width:1.5;"/>
   </g>
   <g id="line2d_22">
    <path clip-path="url(#pf05d024363)" d="M 74.145 263.179091 
L 77.353793 263.071227 
L 78.352085 262.79396 
L 79.350376 262.282696 
L 80.669547 261.331954 
L 84.627059 258.341975 
L 92.649043 253.032212 
L 104.664191 245.211452 
L 117.071526 236.930869 
L 119.638561 211.807732 
L 120.601199 204.598496 
L 121.385571 200.235481 
L 122.098636 197.436929 
L 122.740395 195.746931 
L 123.3465 194.725447 
L 123.952606 194.113342 
L 124.630018 193.742952 
L 125.628309 193.484584 
L 128.58753 193.04113 
L 129.692781 192.918772 
L 130.619766 192.56828 
L 131.65371 191.918949 
L 133.044187 190.747127 
L 139.533081 184.943709 
L 144.168005 180.741345 
L 153.830039 172.109989 
L 205.705533 125.273897 
L 245.245 89.560909 
L 245.245 89.560909 
" style="fill:none;stroke:#d62728;stroke-linecap:square;stroke-opacity:0.7;stroke-width:1.5;"/>
   </g>
   <g id="patch_3">
    <path d="M 65.59 271.86 
L 65.59 80.88 
" style="fill:none;stroke:#000000;stroke-linecap:square;stroke-linejoin:miter;stroke-width:0.8;"/>
   </g>
   <g id="patch_4">
    <path d="M 253.8 271.86 
L 253.8 80.88 
" style="fill:none;stroke:#000000;stroke-linecap:square;stroke-linejoin:miter;stroke-width:0.8;"/>
   </g>
   <g id="patch_5">
    <path d="M 65.59 271.86 
L 253.8 271.86 
" style="fill:none;stroke:#000000;stroke-linecap:square;stroke-linejoin:miter;stroke-width:0.8;"/>
   </g>
   <g id="patch_6">
    <path d="M 65.59 80.88 
L 253.8 80.88 
" style="fill:none;stroke:#000000;stroke-linecap:square;stroke-linejoin:miter;stroke-width:0.8;"/>
   </g>
   <g id="text_7">
    <!-- x (m) -->
    <g transform="translate(143.710625 74.88)scale(0.12 -0.12)">
     <defs>
      <path d="M 3513 3500 
L 2247 1797 
L 3578 0 
L 2900 0 
L 1881 1375 
L 863 0 
L 184 0 
L 1544 1831 
L 300 3500 
L 978 3500 
L 1906 2253 
L 2834 3500 
L 3513 3500 
z
" id="DejaVuSans-78" transform="scale(0.015625)"/>
     </defs>
     <use xlink:href="#DejaVuSans-78"/>
     <use x="59.179688" xlink:href="#DejaVuSans-20"/>
     <use x="90.966797" xlink:href="#DejaVuSans-28"/>
     <use x="129.980469" xlink:href="#DejaVuSans-6d"/>
     <use x="227.392578" xlink:href="#DejaVuSans-29"/>
    </g>
   </g>
  </g>
  <g id="axes_2">
   <g id="patch_7">
    <path d="M 290.59 271.86 
L 478.8 271.86 
L 478.8 80.88 
L 290.59 80.88 
z
" style="fill:#ffffff;"/>
   </g>
   <g id="matplotlib.axis_3">
    <g id="xtick_6">
     <g id="line2d_23">
      <path clip-path="url(#paecd5a8cc8)" d="M 299.145 271.86 
L 299.145 80.88 
" style="fill:none;stroke:#b0b0b0;stroke-linecap:square;stroke-width:0.8;"/>
     </g>
     <g id="line2d_24">
      <g>
       <use style="stroke:#000000;stroke-width:0.8;" x="299.145" xlink:href="#m7c10423ffc" y="271.86"/>
      </g>
     </g>
    </g>
    <g id="xtick_7">
     <g id="line2d_25">
      <path clip-path="url(#paecd5a8cc8)" d="M 341.928913 271.86 
L 341.928913 80.88 
" style="fill:none;stroke:#b0b0b0;stroke-linecap:square;stroke-width:0.8;"/>
     </g>
     <g id="line2d_26">
      <g>
       <use style="stroke:#000000;stroke-width:0.8;" x="341.928913" xlink:href="#m7c10423ffc" y="271.86"/>
      </g>
     </g>
    </g>
    <g id="xtick_8">
     <g id="line2d_27">
      <path clip-path="url(#paecd5a8cc8)" d="M 384.712827 271.86 
L 384.712827 80.88 
" style="fill:none;stroke:#b0b0b0;stroke-linecap:square;stroke-width:0.8;"/>
     </g>
     <g id="line2d_28">
      <g>
       <use style="stroke:#000000;stroke-width:0.8;" x="384.712827" xlink:href="#m7c10423ffc" y="271.86"/>
      </g>
     </g>
    </g>
    <g id="xtick_9">
     <g id="line2d_29">
      <path clip-path="url(#paecd5a8cc8)" d="M 427.49674 271.86 
L 427.49674 80.88 
" style="fill:none;stroke:#b0b0b0;stroke-linecap:square;stroke-width:0.8;"/>
     </g>
     <g id="line2d_30">
      <g>
       <use style="stroke:#000000;stroke-width:0.8;" x="427.49674" xlink:href="#m7c10423ffc" y="271.86"/>
      </g>
     </g>
    </g>
    <g id="xtick_10">
     <g id="line2d_31">
      <path clip-path="url(#paecd5a8cc8)" d="M 470.280653 271.86 
L 470.280653 80.88 
" style="fill:none;stroke:#b0b0b0;stroke-linecap:square;stroke-width:0.8;"/>
     </g>
     <g id="line2d_32">
      <g>
       <use style="stroke:#000000;stroke-width:0.8;" x="470.280653" xlink:href="#m7c10423ffc" y="271.86"/>
      </g>
     </g>
    </g>
    <g id="text_8">
     <!-- Tiempo (s) -->
     <g transform="translate(358.1325 283.458437)scale(0.1 -0.1)">
      <use xlink:href="#DejaVuSans-54"/>
      <use x="57.958984" xlink:href="#DejaVuSans-69"/>
      <use x="85.742188" xlink:href="#DejaVuSans-65"/>
      <use x="147.265625" xlink:href="#DejaVuSans-6d"/>
      <use x="244.677734" xlink:href="#DejaVuSans-70"/>
      <use x="308.154297" xlink:href="#DejaVuSans-6f"/>
      <use x="369.335938" xlink:href="#DejaVuSans-20"/>
      <use x="401.123047" xlink:href="#DejaVuSans-28"/>
      <use x="440.136719" xlink:href="#DejaVuSans-73"/>
      <use x="492.236328" xlink:href="#DejaVuSans-29"/>
     </g>
    </g>
   </g>
   <g id="matplotlib.axis_4">
    <g id="ytick_6">
     <g id="line2d_33">
      <path clip-path="url(#paecd5a8cc8)" d="M 290.59 263.179091 
L 478.8 263.179091 
" style="fill:none;stroke:#b0b0b0;stroke-linecap:square;stroke-width:0.8;"/>
     </g>
     <g id="line2d_34">
      <g>
       <use style="stroke:#000000;stroke-width:0.8;" x="290.59" xlink:href="#mafe79c066a" y="263.179091"/>
      </g>
     </g>
     <g id="text_9">
      <!-- 0 -->
      <g transform="translate(277.2275 266.97831)scale(0.1 -0.1)">
       <use xlink:href="#DejaVuSans-30"/>
      </g>
     </g>
    </g>
    <g id="ytick_7">
     <g id="line2d_35">
      <path clip-path="url(#paecd5a8cc8)" d="M 290.59 230.068246 
L 478.8 230.068246 
" style="fill:none;stroke:#b0b0b0;stroke-linecap:square;stroke-width:0.8;"/>
     </g>
     <g id="line2d_36">
      <g>
       <use style="stroke:#000000;stroke-width:0.8;" x="290.59" xlink:href="#mafe79c066a" y="230.068246"/>
      </g>
     </g>
     <g id="text_10">
      <!-- 5 -->
      <g transform="translate(277.2275 233.867465)scale(0.1 -0.1)">
       <defs>
        <path d="M 691 4666 
L 3169 4666 
L 3169 4134 
L 1269 4134 
L 1269 2991 
Q 1406 3038 1543 3061 
Q 1681 3084 1819 3084 
Q 2600 3084 3056 2656 
Q 3513 2228 3513 1497 
Q 3513 744 3044 326 
Q 2575 -91 1722 -91 
Q 1428 -91 1123 -41 
Q 819 9 494 109 
L 494 744 
Q 775 591 1075 516 
Q 1375 441 1709 441 
Q 2250 441 2565 725 
Q 2881 1009 2881 1497 
Q 2881 1984 2565 2268 
Q 2250 2553 1709 2553 
Q 1456 2553 1204 2497 
Q 953 2441 691 2322 
L 691 4666 
z
" id="DejaVuSans-35" transform="scale(0.015625)"/>
       </defs>
       <use xlink:href="#DejaVuSans-35"/>
      </g>
     </g>
    </g>
    <g id="ytick_8">
     <g id="line2d_37">
      <path clip-path="url(#paecd5a8cc8)" d="M 290.59 196.957402 
L 478.8 196.957402 
" style="fill:none;stroke:#b0b0b0;stroke-linecap:square;stroke-width:0.8;"/>
     </g>
     <g id="line2d_38">
      <g>
       <use style="stroke:#000000;stroke-width:0.8;" x="290.59" xlink:href="#mafe79c066a" y="196.957402"/>
      </g>
     </g>
     <g id="text_11">
      <!-- 10 -->
      <g transform="translate(270.865 200.756621)scale(0.1 -0.1)">
       <use xlink:href="#DejaVuSans-31"/>
       <use x="63.623047" xlink:href="#DejaVuSans-30"/>
      </g>
     </g>
    </g>
    <g id="ytick_9">
     <g id="line2d_39">
      <path clip-path="url(#paecd5a8cc8)" d="M 290.59 163.846558 
L 478.8 163.846558 
" style="fill:none;stroke:#b0b0b0;stroke-linecap:square;stroke-width:0.8;"/>
     </g>
     <g id="line2d_40">
      <g>
       <use style="stroke:#000000;stroke-width:0.8;" x="290.59" xlink:href="#mafe79c066a" y="163.846558"/>
      </g>
     </g>
     <g id="text_12">
      <!-- 15 -->
      <g transform="translate(270.865 167.645776)scale(0.1 -0.1)">
       <use xlink:href="#DejaVuSans-31"/>
       <use x="63.623047" xlink:href="#DejaVuSans-35"/>
      </g>
     </g>
    </g>
    <g id="ytick_10">
     <g id="line2d_41">
      <path clip-path="url(#paecd5a8cc8)" d="M 290.59 130.735713 
L 478.8 130.735713 
" style="fill:none;stroke:#b0b0b0;stroke-linecap:square;stroke-width:0.8;"/>
     </g>
     <g id="line2d_42">
      <g>
       <use style="stroke:#000000;stroke-width:0.8;" x="290.59" xlink:href="#mafe79c066a" y="130.735713"/>
      </g>
     </g>
     <g id="text_13">
      <!-- 20 -->
      <g transform="translate(270.865 134.534932)scale(0.1 -0.1)">
       <use xlink:href="#DejaVuSans-32"/>
       <use x="63.623047" xlink:href="#DejaVuSans-30"/>
      </g>
     </g>
    </g>
    <g id="ytick_11">
     <g id="line2d_43">
      <path clip-path="url(#paecd5a8cc8)" d="M 290.59 97.624869 
L 478.8 97.624869 
" style="fill:none;stroke:#b0b0b0;stroke-linecap:square;stroke-width:0.8;"/>
     </g>
     <g id="line2d_44">
      <g>
       <use style="stroke:#000000;stroke-width:0.8;" x="290.59" xlink:href="#mafe79c066a" y="97.624869"/>
      </g>
     </g>
     <g id="text_14">
      <!-- 25 -->
      <g transform="translate(270.865 101.424087)scale(0.1 -0.1)">
       <use xlink:href="#DejaVuSans-32"/>
       <use x="63.623047" xlink:href="#DejaVuSans-35"/>
      </g>
     </g>
    </g>
   </g>
   <g id="line2d_45">
    <path clip-path="url(#paecd5a8cc8)" d="M 299.145 263.179091 
L 342.071526 263.179091 
L 344.567255 218.881748 
L 345.494239 206.353049 
L 346.242958 198.950686 
L 346.884717 194.544092 
L 347.490822 191.816172 
L 348.025621 190.330695 
L 348.524767 189.517183 
L 349.059566 189.054675 
L 349.736977 188.79428 
L 351.697907 188.198189 
L 353.801449 187.331967 
L 355.405846 186.981506 
L 356.225871 186.43285 
L 357.366775 185.370362 
L 363.499136 179.231597 
L 375.157753 167.885498 
L 379.757023 163.882854 
L 384.605867 159.961975 
L 389.45471 156.32513 
L 394.446167 152.857952 
L 399.580237 149.562782 
L 404.856919 146.440406 
L 410.311868 143.471955 
L 415.945083 140.660784 
L 421.792218 137.993 
L 427.853273 135.473093 
L 434.1639 133.091036 
L 440.759753 130.839903 
L 447.676486 128.715618 
L 454.949751 126.716057 
L 462.615202 124.840586 
L 470.245 123.184065 
L 470.245 123.184065 
" style="fill:none;stroke:#1f77b4;stroke-linecap:square;stroke-opacity:0.7;stroke-width:1.5;"/>
   </g>
   <g id="line2d_46">
    <path clip-path="url(#paecd5a8cc8)" d="M 299.145 263.179091 
L 302.31814 263.071127 
L 303.316432 262.788229 
L 304.27907 262.273124 
L 305.59824 261.28112 
L 307.701783 259.711967 
L 308.949647 259.07361 
L 310.411431 258.589365 
L 313.727184 257.820987 
L 317.07859 257.171108 
L 319.716932 256.918999 
L 342.071526 255.457782 
L 344.674214 208.91405 
L 345.565546 196.918416 
L 346.278611 190.032678 
L 346.884717 186.128852 
L 347.419516 184.031359 
L 347.847355 183.118515 
L 348.239541 182.757621 
L 349.309138 182.229682 
L 350.663962 181.104737 
L 351.198761 180.987721 
L 351.697907 180.860945 
L 352.268359 180.467312 
L 353.124037 179.557739 
L 354.443208 178.177384 
L 355.084967 177.817377 
L 355.726725 177.728321 
L 356.261524 177.532722 
L 356.903283 177.040997 
L 357.758961 176.066934 
L 360.575569 172.619238 
L 361.57386 171.864958 
L 362.786071 171.244113 
L 365.17484 170.073178 
L 366.565317 169.07781 
L 372.768984 164.260528 
L 376.120391 161.853762 
L 420.972193 127.418318 
L 470.245 89.560909 
L 470.245 89.560909 
" style="fill:none;stroke:#d62728;stroke-linecap:square;stroke-opacity:0.7;stroke-width:1.5;"/>
   </g>
   <g id="patch_8">
    <path d="M 290.59 271.86 
L 290.59 80.88 
" style="fill:none;stroke:#000000;stroke-linecap:square;stroke-linejoin:miter;stroke-width:0.8;"/>
   </g>
   <g id="patch_9">
    <path d="M 478.8 271.86 
L 478.8 80.88 
" style="fill:none;stroke:#000000;stroke-linecap:square;stroke-linejoin:miter;stroke-width:0.8;"/>
   </g>
   <g id="patch_10">
    <path d="M 290.59 271.86 
L 478.8 271.86 
" style="fill:none;stroke:#000000;stroke-linecap:square;stroke-linejoin:miter;stroke-width:0.8;"/>
   </g>
   <g id="patch_11">
    <path d="M 290.59 80.88 
L 478.8 80.88 
" style="fill:none;stroke:#000000;stroke-linecap:square;stroke-linejoin:miter;stroke-width:0.8;"/>
   </g>
   <g id="text_15">
    <!-- y (m) -->
    <g transform="translate(368.710625 74.88)scale(0.12 -0.12)">
     <defs>
      <path d="M 2059 -325 
Q 1816 -950 1584 -1140 
Q 1353 -1331 966 -1331 
L 506 -1331 
L 506 -850 
L 844 -850 
Q 1081 -850 1212 -737 
Q 1344 -625 1503 -206 
L 1606 56 
L 191 3500 
L 800 3500 
L 1894 763 
L 2988 3500 
L 3597 3500 
L 2059 -325 
z
" id="DejaVuSans-79" transform="scale(0.015625)"/>
     </defs>
     <use xlink:href="#DejaVuSans-79"/>
     <use x="59.179688" xlink:href="#DejaVuSans-20"/>
     <use x="90.966797" xlink:href="#DejaVuSans-28"/>
     <use x="129.980469" xlink:href="#DejaVuSans-6d"/>
     <use x="227.392578" xlink:href="#DejaVuSans-29"/>
    </g>
   </g>
  </g>
  <g id="axes_3">
   <g id="patch_12">
    <path d="M 65.59 505.24 
L 253.8 505.24 
L 253.8 314.26 
L 65.59 314.26 
z
" style="fill:#ffffff;"/>
   </g>
   <g id="matplotlib.axis_5">
    <g id="xtick_11">
     <g id="line2d_47">
      <path clip-path="url(#pc46c5be1ea)" d="M 74.145 505.24 
L 74.145 314.26 
" style="fill:none;stroke:#b0b0b0;stroke-linecap:square;stroke-width:0.8;"/>
     </g>
     <g id="line2d_48">
      <g>
       <use style="stroke:#000000;stroke-width:0.8;" x="74.145" xlink:href="#m7c10423ffc" y="505.24"/>
      </g>
     </g>
     <g id="text_16">
      <!-- 0 -->
      <g transform="translate(70.96375 519.838438)scale(0.1 -0.1)">
       <use xlink:href="#DejaVuSans-30"/>
      </g>
     </g>
    </g>
    <g id="xtick_12">
     <g id="line2d_49">
      <path clip-path="url(#pc46c5be1ea)" d="M 116.928913 505.24 
L 116.928913 314.26 
" style="fill:none;stroke:#b0b0b0;stroke-linecap:square;stroke-width:0.8;"/>
     </g>
     <g id="line2d_50">
      <g>
       <use style="stroke:#000000;stroke-width:0.8;" x="116.928913" xlink:href="#m7c10423ffc" y="505.24"/>
      </g>
     </g>
     <g id="text_17">
      <!-- 5 -->
      <g transform="translate(113.747663 519.838438)scale(0.1 -0.1)">
       <use xlink:href="#DejaVuSans-35"/>
      </g>
     </g>
    </g>
    <g id="xtick_13">
     <g id="line2d_51">
      <path clip-path="url(#pc46c5be1ea)" d="M 159.712827 505.24 
L 159.712827 314.26 
" style="fill:none;stroke:#b0b0b0;stroke-linecap:square;stroke-width:0.8;"/>
     </g>
     <g id="line2d_52">
      <g>
       <use style="stroke:#000000;stroke-width:0.8;" x="159.712827" xlink:href="#m7c10423ffc" y="505.24"/>
      </g>
     </g>
     <g id="text_18">
      <!-- 10 -->
      <g transform="translate(153.350327 519.838438)scale(0.1 -0.1)">
       <use xlink:href="#DejaVuSans-31"/>
       <use x="63.623047" xlink:href="#DejaVuSans-30"/>
      </g>
     </g>
    </g>
    <g id="xtick_14">
     <g id="line2d_53">
      <path clip-path="url(#pc46c5be1ea)" d="M 202.49674 505.24 
L 202.49674 314.26 
" style="fill:none;stroke:#b0b0b0;stroke-linecap:square;stroke-width:0.8;"/>
     </g>
     <g id="line2d_54">
      <g>
       <use style="stroke:#000000;stroke-width:0.8;" x="202.49674" xlink:href="#m7c10423ffc" y="505.24"/>
      </g>
     </g>
     <g id="text_19">
      <!-- 15 -->
      <g transform="translate(196.13424 519.838438)scale(0.1 -0.1)">
       <use xlink:href="#DejaVuSans-31"/>
       <use x="63.623047" xlink:href="#DejaVuSans-35"/>
      </g>
     </g>
    </g>
    <g id="xtick_15">
     <g id="line2d_55">
      <path clip-path="url(#pc46c5be1ea)" d="M 245.280653 505.24 
L 245.280653 314.26 
" style="fill:none;stroke:#b0b0b0;stroke-linecap:square;stroke-width:0.8;"/>
     </g>
     <g id="line2d_56">
      <g>
       <use style="stroke:#000000;stroke-width:0.8;" x="245.280653" xlink:href="#m7c10423ffc" y="505.24"/>
      </g>
     </g>
     <g id="text_20">
      <!-- 20 -->
      <g transform="translate(238.918153 519.838438)scale(0.1 -0.1)">
       <use xlink:href="#DejaVuSans-32"/>
       <use x="63.623047" xlink:href="#DejaVuSans-30"/>
      </g>
     </g>
    </g>
    <g id="text_21">
     <!-- Tiempo (s) -->
     <g transform="translate(133.1325 533.516562)scale(0.1 -0.1)">
      <use xlink:href="#DejaVuSans-54"/>
      <use x="57.958984" xlink:href="#DejaVuSans-69"/>
      <use x="85.742188" xlink:href="#DejaVuSans-65"/>
      <use x="147.265625" xlink:href="#DejaVuSans-6d"/>
      <use x="244.677734" xlink:href="#DejaVuSans-70"/>
      <use x="308.154297" xlink:href="#DejaVuSans-6f"/>
      <use x="369.335938" xlink:href="#DejaVuSans-20"/>
      <use x="401.123047" xlink:href="#DejaVuSans-28"/>
      <use x="440.136719" xlink:href="#DejaVuSans-73"/>
      <use x="492.236328" xlink:href="#DejaVuSans-29"/>
     </g>
    </g>
   </g>
   <g id="matplotlib.axis_6">
    <g id="ytick_12">
     <g id="line2d_57">
      <path clip-path="url(#pc46c5be1ea)" d="M 65.59 496.559333 
L 253.8 496.559333 
" style="fill:none;stroke:#b0b0b0;stroke-linecap:square;stroke-width:0.8;"/>
     </g>
     <g id="line2d_58">
      <g>
       <use style="stroke:#000000;stroke-width:0.8;" x="65.59" xlink:href="#mafe79c066a" y="496.559333"/>
      </g>
     </g>
     <g id="text_22">
      <!-- 0 -->
      <g transform="translate(52.2275 500.358552)scale(0.1 -0.1)">
       <use xlink:href="#DejaVuSans-30"/>
      </g>
     </g>
    </g>
    <g id="ytick_13">
     <g id="line2d_59">
      <path clip-path="url(#pc46c5be1ea)" d="M 65.59 468.046835 
L 253.8 468.046835 
" style="fill:none;stroke:#b0b0b0;stroke-linecap:square;stroke-width:0.8;"/>
     </g>
     <g id="line2d_60">
      <g>
       <use style="stroke:#000000;stroke-width:0.8;" x="65.59" xlink:href="#mafe79c066a" y="468.046835"/>
      </g>
     </g>
     <g id="text_23">
      <!-- 20 -->
      <g transform="translate(45.865 471.846054)scale(0.1 -0.1)">
       <use xlink:href="#DejaVuSans-32"/>
       <use x="63.623047" xlink:href="#DejaVuSans-30"/>
      </g>
     </g>
    </g>
    <g id="ytick_14">
     <g id="line2d_61">
      <path clip-path="url(#pc46c5be1ea)" d="M 65.59 439.534336 
L 253.8 439.534336 
" style="fill:none;stroke:#b0b0b0;stroke-linecap:square;stroke-width:0.8;"/>
     </g>
     <g id="line2d_62">
      <g>
       <use style="stroke:#000000;stroke-width:0.8;" x="65.59" xlink:href="#mafe79c066a" y="439.534336"/>
      </g>
     </g>
     <g id="text_24">
      <!-- 40 -->
      <g transform="translate(45.865 443.333555)scale(0.1 -0.1)">
       <use xlink:href="#DejaVuSans-34"/>
       <use x="63.623047" xlink:href="#DejaVuSans-30"/>
      </g>
     </g>
    </g>
    <g id="ytick_15">
     <g id="line2d_63">
      <path clip-path="url(#pc46c5be1ea)" d="M 65.59 411.021838 
L 253.8 411.021838 
" style="fill:none;stroke:#b0b0b0;stroke-linecap:square;stroke-width:0.8;"/>
     </g>
     <g id="line2d_64">
      <g>
       <use style="stroke:#000000;stroke-width:0.8;" x="65.59" xlink:href="#mafe79c066a" y="411.021838"/>
      </g>
     </g>
     <g id="text_25">
      <!-- 60 -->
      <g transform="translate(45.865 414.821057)scale(0.1 -0.1)">
       <defs>
        <path d="M 2113 2584 
Q 1688 2584 1439 2293 
Q 1191 2003 1191 1497 
Q 1191 994 1439 701 
Q 1688 409 2113 409 
Q 2538 409 2786 701 
Q 3034 994 3034 1497 
Q 3034 2003 2786 2293 
Q 2538 2584 2113 2584 
z
M 3366 4563 
L 3366 3988 
Q 3128 4100 2886 4159 
Q 2644 4219 2406 4219 
Q 1781 4219 1451 3797 
Q 1122 3375 1075 2522 
Q 1259 2794 1537 2939 
Q 1816 3084 2150 3084 
Q 2853 3084 3261 2657 
Q 3669 2231 3669 1497 
Q 3669 778 3244 343 
Q 2819 -91 2113 -91 
Q 1303 -91 875 529 
Q 447 1150 447 2328 
Q 447 3434 972 4092 
Q 1497 4750 2381 4750 
Q 2619 4750 2861 4703 
Q 3103 4656 3366 4563 
z
" id="DejaVuSans-36" transform="scale(0.015625)"/>
       </defs>
       <use xlink:href="#DejaVuSans-36"/>
       <use x="63.623047" xlink:href="#DejaVuSans-30"/>
      </g>
     </g>
    </g>
    <g id="ytick_16">
     <g id="line2d_65">
      <path clip-path="url(#pc46c5be1ea)" d="M 65.59 382.509339 
L 253.8 382.509339 
" style="fill:none;stroke:#b0b0b0;stroke-linecap:square;stroke-width:0.8;"/>
     </g>
     <g id="line2d_66">
      <g>
       <use style="stroke:#000000;stroke-width:0.8;" x="65.59" xlink:href="#mafe79c066a" y="382.509339"/>
      </g>
     </g>
     <g id="text_26">
      <!-- 80 -->
      <g transform="translate(45.865 386.308558)scale(0.1 -0.1)">
       <defs>
        <path d="M 2034 2216 
Q 1584 2216 1326 1975 
Q 1069 1734 1069 1313 
Q 1069 891 1326 650 
Q 1584 409 2034 409 
Q 2484 409 2743 651 
Q 3003 894 3003 1313 
Q 3003 1734 2745 1975 
Q 2488 2216 2034 2216 
z
M 1403 2484 
Q 997 2584 770 2862 
Q 544 3141 544 3541 
Q 544 4100 942 4425 
Q 1341 4750 2034 4750 
Q 2731 4750 3128 4425 
Q 3525 4100 3525 3541 
Q 3525 3141 3298 2862 
Q 3072 2584 2669 2484 
Q 3125 2378 3379 2068 
Q 3634 1759 3634 1313 
Q 3634 634 3220 271 
Q 2806 -91 2034 -91 
Q 1263 -91 848 271 
Q 434 634 434 1313 
Q 434 1759 690 2068 
Q 947 2378 1403 2484 
z
M 1172 3481 
Q 1172 3119 1398 2916 
Q 1625 2713 2034 2713 
Q 2441 2713 2670 2916 
Q 2900 3119 2900 3481 
Q 2900 3844 2670 4047 
Q 2441 4250 2034 4250 
Q 1625 4250 1398 4047 
Q 1172 3844 1172 3481 
z
" id="DejaVuSans-38" transform="scale(0.015625)"/>
       </defs>
       <use xlink:href="#DejaVuSans-38"/>
       <use x="63.623047" xlink:href="#DejaVuSans-30"/>
      </g>
     </g>
    </g>
    <g id="ytick_17">
     <g id="line2d_67">
      <path clip-path="url(#pc46c5be1ea)" d="M 65.59 353.996841 
L 253.8 353.996841 
" style="fill:none;stroke:#b0b0b0;stroke-linecap:square;stroke-width:0.8;"/>
     </g>
     <g id="line2d_68">
      <g>
       <use style="stroke:#000000;stroke-width:0.8;" x="65.59" xlink:href="#mafe79c066a" y="353.996841"/>
      </g>
     </g>
     <g id="text_27">
      <!-- 100 -->
      <g transform="translate(39.5025 357.79606)scale(0.1 -0.1)">
       <use xlink:href="#DejaVuSans-31"/>
       <use x="63.623047" xlink:href="#DejaVuSans-30"/>
       <use x="127.246094" xlink:href="#DejaVuSans-30"/>
      </g>
     </g>
    </g>
    <g id="ytick_18">
     <g id="line2d_69">
      <path clip-path="url(#pc46c5be1ea)" d="M 65.59 325.484342 
L 253.8 325.484342 
" style="fill:none;stroke:#b0b0b0;stroke-linecap:square;stroke-width:0.8;"/>
     </g>
     <g id="line2d_70">
      <g>
       <use style="stroke:#000000;stroke-width:0.8;" x="65.59" xlink:href="#mafe79c066a" y="325.484342"/>
      </g>
     </g>
     <g id="text_28">
      <!-- 120 -->
      <g transform="translate(39.5025 329.283561)scale(0.1 -0.1)">
       <use xlink:href="#DejaVuSans-31"/>
       <use x="63.623047" xlink:href="#DejaVuSans-32"/>
       <use x="127.246094" xlink:href="#DejaVuSans-30"/>
      </g>
     </g>
    </g>
   </g>
   <g id="line2d_71">
    <path clip-path="url(#pc46c5be1ea)" d="M 74.145 496.559091 
L 77.175527 496.40847 
L 82.773089 496.32297 
L 116.7863 496.286665 
L 117.071526 496.286374 
L 118.248084 492.024837 
L 119.139416 489.653185 
L 120.030747 487.904159 
L 120.957732 486.569943 
L 121.92037 485.574418 
L 122.918661 484.854661 
L 124.059566 484.304828 
L 125.450043 483.890745 
L 127.161399 483.626012 
L 129.443208 483.514836 
L 135.04077 483.344724 
L 151.013431 482.418507 
L 180.320412 480.835805 
L 211.588322 479.373157 
L 245.245 478.02354 
L 245.245 478.02354 
" style="fill:none;stroke:#1f77b4;stroke-linecap:square;stroke-opacity:0.7;stroke-width:1.5;"/>
   </g>
   <g id="line2d_72">
    <path clip-path="url(#pc46c5be1ea)" d="M 74.145 496.559091 
L 75.250251 496.436064 
L 76.426809 496.079218 
L 79.564296 494.941692 
L 81.239999 494.725292 
L 82.34525 494.285255 
L 83.593114 493.538304 
L 85.019245 492.411783 
L 86.730601 490.766459 
L 88.762837 488.48568 
L 91.222912 485.372705 
L 94.360399 481.023894 
L 98.781403 474.483617 
L 106.981653 461.875467 
L 117.356752 445.639511 
L 118.497657 443.148638 
L 119.495948 441.504112 
L 120.458586 440.336794 
L 121.421224 439.514921 
L 122.383862 438.972754 
L 123.382154 438.661648 
L 124.523058 438.544681 
L 126.056148 438.416094 
L 127.482279 438.055187 
L 128.944062 437.455957 
L 130.512806 436.568539 
L 132.366775 435.249261 
L 134.719891 433.283161 
L 137.893031 430.324145 
L 142.135769 426.042908 
L 162.386821 405.202951 
L 185.276215 382.556496 
L 245.245 322.940909 
L 245.245 322.940909 
" style="fill:none;stroke:#d62728;stroke-linecap:square;stroke-opacity:0.7;stroke-width:1.5;"/>
   </g>
   <g id="patch_13">
    <path d="M 65.59 505.24 
L 65.59 314.26 
" style="fill:none;stroke:#000000;stroke-linecap:square;stroke-linejoin:miter;stroke-width:0.8;"/>
   </g>
   <g id="patch_14">
    <path d="M 253.8 505.24 
L 253.8 314.26 
" style="fill:none;stroke:#000000;stroke-linecap:square;stroke-linejoin:miter;stroke-width:0.8;"/>
   </g>
   <g id="patch_15">
    <path d="M 65.59 505.24 
L 253.8 505.24 
" style="fill:none;stroke:#000000;stroke-linecap:square;stroke-linejoin:miter;stroke-width:0.8;"/>
   </g>
   <g id="patch_16">
    <path d="M 65.59 314.26 
L 253.8 314.26 
" style="fill:none;stroke:#000000;stroke-linecap:square;stroke-linejoin:miter;stroke-width:0.8;"/>
   </g>
   <g id="text_29">
    <!-- z (m) -->
    <g transform="translate(144.112812 308.26)scale(0.12 -0.12)">
     <defs>
      <path d="M 353 3500 
L 3084 3500 
L 3084 2975 
L 922 459 
L 3084 459 
L 3084 0 
L 275 0 
L 275 525 
L 2438 3041 
L 353 3041 
L 353 3500 
z
" id="DejaVuSans-7a" transform="scale(0.015625)"/>
     </defs>
     <use xlink:href="#DejaVuSans-7a"/>
     <use x="52.490234" xlink:href="#DejaVuSans-20"/>
     <use x="84.277344" xlink:href="#DejaVuSans-28"/>
     <use x="123.291016" xlink:href="#DejaVuSans-6d"/>
     <use x="220.703125" xlink:href="#DejaVuSans-29"/>
    </g>
   </g>
  </g>
  <g id="axes_4">
   <g id="patch_17">
    <path d="M 290.59 505.24 
L 478.8 505.24 
L 478.8 314.26 
L 290.59 314.26 
z
" style="fill:#ffffff;"/>
   </g>
   <g id="matplotlib.axis_7">
    <g id="xtick_16">
     <g id="line2d_73">
      <path clip-path="url(#p2f2c3e86d2)" d="M 299.145 505.24 
L 299.145 314.26 
" style="fill:none;stroke:#b0b0b0;stroke-linecap:square;stroke-width:0.8;"/>
     </g>
     <g id="line2d_74">
      <g>
       <use style="stroke:#000000;stroke-width:0.8;" x="299.145" xlink:href="#m7c10423ffc" y="505.24"/>
      </g>
     </g>
     <g id="text_30">
      <!-- 0 -->
      <g transform="translate(295.96375 519.838438)scale(0.1 -0.1)">
       <use xlink:href="#DejaVuSans-30"/>
      </g>
     </g>
    </g>
    <g id="xtick_17">
     <g id="line2d_75">
      <path clip-path="url(#p2f2c3e86d2)" d="M 341.928913 505.24 
L 341.928913 314.26 
" style="fill:none;stroke:#b0b0b0;stroke-linecap:square;stroke-width:0.8;"/>
     </g>
     <g id="line2d_76">
      <g>
       <use style="stroke:#000000;stroke-width:0.8;" x="341.928913" xlink:href="#m7c10423ffc" y="505.24"/>
      </g>
     </g>
     <g id="text_31">
      <!-- 5 -->
      <g transform="translate(338.747663 519.838438)scale(0.1 -0.1)">
       <use xlink:href="#DejaVuSans-35"/>
      </g>
     </g>
    </g>
    <g id="xtick_18">
     <g id="line2d_77">
      <path clip-path="url(#p2f2c3e86d2)" d="M 384.712827 505.24 
L 384.712827 314.26 
" style="fill:none;stroke:#b0b0b0;stroke-linecap:square;stroke-width:0.8;"/>
     </g>
     <g id="line2d_78">
      <g>
       <use style="stroke:#000000;stroke-width:0.8;" x="384.712827" xlink:href="#m7c10423ffc" y="505.24"/>
      </g>
     </g>
     <g id="text_32">
      <!-- 10 -->
      <g transform="translate(378.350327 519.838438)scale(0.1 -0.1)">
       <use xlink:href="#DejaVuSans-31"/>
       <use x="63.623047" xlink:href="#DejaVuSans-30"/>
      </g>
     </g>
    </g>
    <g id="xtick_19">
     <g id="line2d_79">
      <path clip-path="url(#p2f2c3e86d2)" d="M 427.49674 505.24 
L 427.49674 314.26 
" style="fill:none;stroke:#b0b0b0;stroke-linecap:square;stroke-width:0.8;"/>
     </g>
     <g id="line2d_80">
      <g>
       <use style="stroke:#000000;stroke-width:0.8;" x="427.49674" xlink:href="#m7c10423ffc" y="505.24"/>
      </g>
     </g>
     <g id="text_33">
      <!-- 15 -->
      <g transform="translate(421.13424 519.838438)scale(0.1 -0.1)">
       <use xlink:href="#DejaVuSans-31"/>
       <use x="63.623047" xlink:href="#DejaVuSans-35"/>
      </g>
     </g>
    </g>
    <g id="xtick_20">
     <g id="line2d_81">
      <path clip-path="url(#p2f2c3e86d2)" d="M 470.280653 505.24 
L 470.280653 314.26 
" style="fill:none;stroke:#b0b0b0;stroke-linecap:square;stroke-width:0.8;"/>
     </g>
     <g id="line2d_82">
      <g>
       <use style="stroke:#000000;stroke-width:0.8;" x="470.280653" xlink:href="#m7c10423ffc" y="505.24"/>
      </g>
     </g>
     <g id="text_34">
      <!-- 20 -->
      <g transform="translate(463.918153 519.838438)scale(0.1 -0.1)">
       <use xlink:href="#DejaVuSans-32"/>
       <use x="63.623047" xlink:href="#DejaVuSans-30"/>
      </g>
     </g>
    </g>
    <g id="text_35">
     <!-- Tiempo (s) -->
     <g transform="translate(358.1325 533.516562)scale(0.1 -0.1)">
      <use xlink:href="#DejaVuSans-54"/>
      <use x="57.958984" xlink:href="#DejaVuSans-69"/>
      <use x="85.742188" xlink:href="#DejaVuSans-65"/>
      <use x="147.265625" xlink:href="#DejaVuSans-6d"/>
      <use x="244.677734" xlink:href="#DejaVuSans-70"/>
      <use x="308.154297" xlink:href="#DejaVuSans-6f"/>
      <use x="369.335938" xlink:href="#DejaVuSans-20"/>
      <use x="401.123047" xlink:href="#DejaVuSans-28"/>
      <use x="440.136719" xlink:href="#DejaVuSans-73"/>
      <use x="492.236328" xlink:href="#DejaVuSans-29"/>
     </g>
    </g>
   </g>
   <g id="matplotlib.axis_8">
    <g id="ytick_19">
     <g id="line2d_83">
      <path clip-path="url(#p2f2c3e86d2)" d="M 290.59 496.559091 
L 478.8 496.559091 
" style="fill:none;stroke:#b0b0b0;stroke-linecap:square;stroke-width:0.8;"/>
     </g>
     <g id="line2d_84">
      <g>
       <use style="stroke:#000000;stroke-width:0.8;" x="290.59" xlink:href="#mafe79c066a" y="496.559091"/>
      </g>
     </g>
     <g id="text_36">
      <!-- 0 -->
      <g transform="translate(277.2275 500.35831)scale(0.1 -0.1)">
       <use xlink:href="#DejaVuSans-30"/>
      </g>
     </g>
    </g>
    <g id="ytick_20">
     <g id="line2d_85">
      <path clip-path="url(#p2f2c3e86d2)" d="M 290.59 472.050829 
L 478.8 472.050829 
" style="fill:none;stroke:#b0b0b0;stroke-linecap:square;stroke-width:0.8;"/>
     </g>
     <g id="line2d_86">
      <g>
       <use style="stroke:#000000;stroke-width:0.8;" x="290.59" xlink:href="#mafe79c066a" y="472.050829"/>
      </g>
     </g>
     <g id="text_37">
      <!-- 20 -->
      <g transform="translate(270.865 475.850048)scale(0.1 -0.1)">
       <use xlink:href="#DejaVuSans-32"/>
       <use x="63.623047" xlink:href="#DejaVuSans-30"/>
      </g>
     </g>
    </g>
    <g id="ytick_21">
     <g id="line2d_87">
      <path clip-path="url(#p2f2c3e86d2)" d="M 290.59 447.542567 
L 478.8 447.542567 
" style="fill:none;stroke:#b0b0b0;stroke-linecap:square;stroke-width:0.8;"/>
     </g>
     <g id="line2d_88">
      <g>
       <use style="stroke:#000000;stroke-width:0.8;" x="290.59" xlink:href="#mafe79c066a" y="447.542567"/>
      </g>
     </g>
     <g id="text_38">
      <!-- 40 -->
      <g transform="translate(270.865 451.341786)scale(0.1 -0.1)">
       <use xlink:href="#DejaVuSans-34"/>
       <use x="63.623047" xlink:href="#DejaVuSans-30"/>
      </g>
     </g>
    </g>
    <g id="ytick_22">
     <g id="line2d_89">
      <path clip-path="url(#p2f2c3e86d2)" d="M 290.59 423.034305 
L 478.8 423.034305 
" style="fill:none;stroke:#b0b0b0;stroke-linecap:square;stroke-width:0.8;"/>
     </g>
     <g id="line2d_90">
      <g>
       <use style="stroke:#000000;stroke-width:0.8;" x="290.59" xlink:href="#mafe79c066a" y="423.034305"/>
      </g>
     </g>
     <g id="text_39">
      <!-- 60 -->
      <g transform="translate(270.865 426.833524)scale(0.1 -0.1)">
       <use xlink:href="#DejaVuSans-36"/>
       <use x="63.623047" xlink:href="#DejaVuSans-30"/>
      </g>
     </g>
    </g>
    <g id="ytick_23">
     <g id="line2d_91">
      <path clip-path="url(#p2f2c3e86d2)" d="M 290.59 398.526043 
L 478.8 398.526043 
" style="fill:none;stroke:#b0b0b0;stroke-linecap:square;stroke-width:0.8;"/>
     </g>
     <g id="line2d_92">
      <g>
       <use style="stroke:#000000;stroke-width:0.8;" x="290.59" xlink:href="#mafe79c066a" y="398.526043"/>
      </g>
     </g>
     <g id="text_40">
      <!-- 80 -->
      <g transform="translate(270.865 402.325262)scale(0.1 -0.1)">
       <use xlink:href="#DejaVuSans-38"/>
       <use x="63.623047" xlink:href="#DejaVuSans-30"/>
      </g>
     </g>
    </g>
    <g id="ytick_24">
     <g id="line2d_93">
      <path clip-path="url(#p2f2c3e86d2)" d="M 290.59 374.017782 
L 478.8 374.017782 
" style="fill:none;stroke:#b0b0b0;stroke-linecap:square;stroke-width:0.8;"/>
     </g>
     <g id="line2d_94">
      <g>
       <use style="stroke:#000000;stroke-width:0.8;" x="290.59" xlink:href="#mafe79c066a" y="374.017782"/>
      </g>
     </g>
     <g id="text_41">
      <!-- 100 -->
      <g transform="translate(264.5025 377.817)scale(0.1 -0.1)">
       <use xlink:href="#DejaVuSans-31"/>
       <use x="63.623047" xlink:href="#DejaVuSans-30"/>
       <use x="127.246094" xlink:href="#DejaVuSans-30"/>
      </g>
     </g>
    </g>
    <g id="ytick_25">
     <g id="line2d_95">
      <path clip-path="url(#p2f2c3e86d2)" d="M 290.59 349.50952 
L 478.8 349.50952 
" style="fill:none;stroke:#b0b0b0;stroke-linecap:square;stroke-width:0.8;"/>
     </g>
     <g id="line2d_96">
      <g>
       <use style="stroke:#000000;stroke-width:0.8;" x="290.59" xlink:href="#mafe79c066a" y="349.50952"/>
      </g>
     </g>
     <g id="text_42">
      <!-- 120 -->
      <g transform="translate(264.5025 353.308738)scale(0.1 -0.1)">
       <use xlink:href="#DejaVuSans-31"/>
       <use x="63.623047" xlink:href="#DejaVuSans-32"/>
       <use x="127.246094" xlink:href="#DejaVuSans-30"/>
      </g>
     </g>
    </g>
    <g id="ytick_26">
     <g id="line2d_97">
      <path clip-path="url(#p2f2c3e86d2)" d="M 290.59 325.001258 
L 478.8 325.001258 
" style="fill:none;stroke:#b0b0b0;stroke-linecap:square;stroke-width:0.8;"/>
     </g>
     <g id="line2d_98">
      <g>
       <use style="stroke:#000000;stroke-width:0.8;" x="290.59" xlink:href="#mafe79c066a" y="325.001258"/>
      </g>
     </g>
     <g id="text_43">
      <!-- 140 -->
      <g transform="translate(264.5025 328.800477)scale(0.1 -0.1)">
       <use xlink:href="#DejaVuSans-31"/>
       <use x="63.623047" xlink:href="#DejaVuSans-34"/>
       <use x="127.246094" xlink:href="#DejaVuSans-30"/>
      </g>
     </g>
    </g>
   </g>
   <g id="line2d_99">
    <path clip-path="url(#p2f2c3e86d2)" d="M 299.145 496.559091 
L 342.071526 496.559091 
L 342.784592 494.45977 
L 343.283737 493.687519 
L 343.925496 493.099854 
L 344.638561 492.762057 
L 345.601199 492.563212 
L 349.808284 492.134449 
L 353.444917 492.099169 
L 403.644708 491.932798 
L 470.245 491.71673 
L 470.245 491.71673 
" style="fill:none;stroke:#1f77b4;stroke-linecap:square;stroke-opacity:0.7;stroke-width:1.5;"/>
   </g>
   <g id="line2d_100">
    <path clip-path="url(#p2f2c3e86d2)" d="M 299.145 496.559091 
L 300.606784 496.454435 
L 301.426809 496.171691 
L 302.139874 495.691031 
L 303.031205 494.7908 
L 303.922537 493.976331 
L 304.742562 493.547319 
L 305.740853 493.294151 
L 308.557461 492.742682 
L 309.448792 492.242158 
L 311.552335 490.679763 
L 316.864671 486.229877 
L 330.840749 474.311304 
L 342.071526 464.576808 
L 343.283737 459.841773 
L 343.74723 458.871156 
L 344.282029 458.312173 
L 344.852481 457.652374 
L 345.779466 456.47921 
L 346.207305 456.338726 
L 347.490822 456.138383 
L 348.596073 455.644049 
L 349.701324 454.900915 
L 350.770922 453.904647 
L 352.197053 452.22952 
L 355.655419 448.054798 
L 357.901574 445.870888 
L 360.504262 443.249586 
L 374.5873 427.9198 
L 401.469859 398.41239 
L 470.245 322.940909 
L 470.245 322.940909 
" style="fill:none;stroke:#d62728;stroke-linecap:square;stroke-opacity:0.7;stroke-width:1.5;"/>
   </g>
   <g id="patch_18">
    <path d="M 290.59 505.24 
L 290.59 314.26 
" style="fill:none;stroke:#000000;stroke-linecap:square;stroke-linejoin:miter;stroke-width:0.8;"/>
   </g>
   <g id="patch_19">
    <path d="M 478.8 505.24 
L 478.8 314.26 
" style="fill:none;stroke:#000000;stroke-linecap:square;stroke-linejoin:miter;stroke-width:0.8;"/>
   </g>
   <g id="patch_20">
    <path d="M 290.59 505.24 
L 478.8 505.24 
" style="fill:none;stroke:#000000;stroke-linecap:square;stroke-linejoin:miter;stroke-width:0.8;"/>
   </g>
   <g id="patch_21">
    <path d="M 290.59 314.26 
L 478.8 314.26 
" style="fill:none;stroke:#000000;stroke-linecap:square;stroke-linejoin:miter;stroke-width:0.8;"/>
   </g>
   <g id="text_44">
    <!-- $\psi$ (rad) -->
    <g transform="translate(364.175 308.26)scale(0.12 -0.12)">
     <defs>
      <path d="M 1591 -78 
Q 891 38 616 341 
Q 278 713 425 1472 
L 819 3500 
L 1400 3500 
L 1009 1494 
Q 900 922 1119 684 
Q 1313 478 1691 434 
L 2284 3500 
L 2856 3500 
L 2263 438 
Q 2681 481 2928 688 
Q 3247 950 3353 1497 
L 3741 3500 
L 4322 3500 
L 3928 1475 
Q 3775 688 3300 344 
Q 2872 34 2163 -75 
L 1919 -1331 
L 1347 -1331 
L 1591 -78 
z
" id="DejaVuSans-Oblique-3c8" transform="scale(0.015625)"/>
      <path d="M 2631 2963 
Q 2534 3019 2420 3045 
Q 2306 3072 2169 3072 
Q 1681 3072 1420 2755 
Q 1159 2438 1159 1844 
L 1159 0 
L 581 0 
L 581 3500 
L 1159 3500 
L 1159 2956 
Q 1341 3275 1631 3429 
Q 1922 3584 2338 3584 
Q 2397 3584 2469 3576 
Q 2541 3569 2628 3553 
L 2631 2963 
z
" id="DejaVuSans-72" transform="scale(0.015625)"/>
      <path d="M 2194 1759 
Q 1497 1759 1228 1600 
Q 959 1441 959 1056 
Q 959 750 1161 570 
Q 1363 391 1709 391 
Q 2188 391 2477 730 
Q 2766 1069 2766 1631 
L 2766 1759 
L 2194 1759 
z
M 3341 1997 
L 3341 0 
L 2766 0 
L 2766 531 
Q 2569 213 2275 61 
Q 1981 -91 1556 -91 
Q 1019 -91 701 211 
Q 384 513 384 1019 
Q 384 1609 779 1909 
Q 1175 2209 1959 2209 
L 2766 2209 
L 2766 2266 
Q 2766 2663 2505 2880 
Q 2244 3097 1772 3097 
Q 1472 3097 1187 3025 
Q 903 2953 641 2809 
L 641 3341 
Q 956 3463 1253 3523 
Q 1550 3584 1831 3584 
Q 2591 3584 2966 3190 
Q 3341 2797 3341 1997 
z
" id="DejaVuSans-61" transform="scale(0.015625)"/>
      <path d="M 2906 2969 
L 2906 4863 
L 3481 4863 
L 3481 0 
L 2906 0 
L 2906 525 
Q 2725 213 2448 61 
Q 2172 -91 1784 -91 
Q 1150 -91 751 415 
Q 353 922 353 1747 
Q 353 2572 751 3078 
Q 1150 3584 1784 3584 
Q 2172 3584 2448 3432 
Q 2725 3281 2906 2969 
z
M 947 1747 
Q 947 1113 1208 752 
Q 1469 391 1925 391 
Q 2381 391 2643 752 
Q 2906 1113 2906 1747 
Q 2906 2381 2643 2742 
Q 2381 3103 1925 3103 
Q 1469 3103 1208 2742 
Q 947 2381 947 1747 
z
" id="DejaVuSans-64" transform="scale(0.015625)"/>
     </defs>
     <use transform="translate(0 0.015625)" xlink:href="#DejaVuSans-Oblique-3c8"/>
     <use transform="translate(65.966797 0.015625)" xlink:href="#DejaVuSans-20"/>
     <use transform="translate(97.753906 0.015625)" xlink:href="#DejaVuSans-28"/>
     <use transform="translate(136.767578 0.015625)" xlink:href="#DejaVuSans-72"/>
     <use transform="translate(177.880859 0.015625)" xlink:href="#DejaVuSans-61"/>
     <use transform="translate(239.160156 0.015625)" xlink:href="#DejaVuSans-64"/>
     <use transform="translate(302.636719 0.015625)" xlink:href="#DejaVuSans-29"/>
    </g>
   </g>
  </g>
  <g id="text_45">
   <!-- Error acumulado -->
   <g transform="translate(221.62875 23.6775)scale(0.16 -0.16)">
    <defs>
     <path d="M 628 4666 
L 3578 4666 
L 3578 4134 
L 1259 4134 
L 1259 2753 
L 3481 2753 
L 3481 2222 
L 1259 2222 
L 1259 531 
L 3634 531 
L 3634 0 
L 628 0 
L 628 4666 
z
" id="DejaVuSans-45" transform="scale(0.015625)"/>
     <path d="M 3122 3366 
L 3122 2828 
Q 2878 2963 2633 3030 
Q 2388 3097 2138 3097 
Q 1578 3097 1268 2742 
Q 959 2388 959 1747 
Q 959 1106 1268 751 
Q 1578 397 2138 397 
Q 2388 397 2633 464 
Q 2878 531 3122 666 
L 3122 134 
Q 2881 22 2623 -34 
Q 2366 -91 2075 -91 
Q 1284 -91 818 406 
Q 353 903 353 1747 
Q 353 2603 823 3093 
Q 1294 3584 2113 3584 
Q 2378 3584 2631 3529 
Q 2884 3475 3122 3366 
z
" id="DejaVuSans-63" transform="scale(0.015625)"/>
     <path d="M 544 1381 
L 544 3500 
L 1119 3500 
L 1119 1403 
Q 1119 906 1312 657 
Q 1506 409 1894 409 
Q 2359 409 2629 706 
Q 2900 1003 2900 1516 
L 2900 3500 
L 3475 3500 
L 3475 0 
L 2900 0 
L 2900 538 
Q 2691 219 2414 64 
Q 2138 -91 1772 -91 
Q 1169 -91 856 284 
Q 544 659 544 1381 
z
M 1991 3584 
L 1991 3584 
z
" id="DejaVuSans-75" transform="scale(0.015625)"/>
     <path d="M 603 4863 
L 1178 4863 
L 1178 0 
L 603 0 
L 603 4863 
z
" id="DejaVuSans-6c" transform="scale(0.015625)"/>
    </defs>
    <use xlink:href="#DejaVuSans-45"/>
    <use x="63.183594" xlink:href="#DejaVuSans-72"/>
    <use x="102.546875" xlink:href="#DejaVuSans-72"/>
    <use x="141.410156" xlink:href="#DejaVuSans-6f"/>
    <use x="202.591797" xlink:href="#DejaVuSans-72"/>
    <use x="243.705078" xlink:href="#DejaVuSans-20"/>
    <use x="275.492188" xlink:href="#DejaVuSans-61"/>
    <use x="336.771484" xlink:href="#DejaVuSans-63"/>
    <use x="391.751953" xlink:href="#DejaVuSans-75"/>
    <use x="455.130859" xlink:href="#DejaVuSans-6d"/>
    <use x="552.542969" xlink:href="#DejaVuSans-75"/>
    <use x="615.921875" xlink:href="#DejaVuSans-6c"/>
    <use x="643.705078" xlink:href="#DejaVuSans-61"/>
    <use x="704.984375" xlink:href="#DejaVuSans-64"/>
    <use x="768.460938" xlink:href="#DejaVuSans-6f"/>
   </g>
  </g>
  <g id="legend_1">
   <g id="patch_22">
    <path d="M 488.398438 304.178125 
L 569 304.178125 
Q 571 304.178125 571 302.178125 
L 571 273.821875 
Q 571 271.821875 569 271.821875 
L 488.398438 271.821875 
Q 486.398438 271.821875 486.398438 273.821875 
L 486.398438 302.178125 
Q 486.398438 304.178125 488.398438 304.178125 
z
" style="fill:#ffffff;opacity:0.8;stroke:#cccccc;stroke-linejoin:miter;"/>
   </g>
   <g id="line2d_101">
    <path d="M 490.398438 279.920313 
L 510.398438 279.920313 
" style="fill:none;stroke:#1f77b4;stroke-linecap:square;stroke-opacity:0.7;stroke-width:1.5;"/>
   </g>
   <g id="line2d_102"/>
   <g id="text_46">
    <!-- DSLPID -->
    <g transform="translate(518.398438 283.420313)scale(0.1 -0.1)">
     <defs>
      <path d="M 1259 4147 
L 1259 519 
L 2022 519 
Q 2988 519 3436 956 
Q 3884 1394 3884 2338 
Q 3884 3275 3436 3711 
Q 2988 4147 2022 4147 
L 1259 4147 
z
M 628 4666 
L 1925 4666 
Q 3281 4666 3915 4102 
Q 4550 3538 4550 2338 
Q 4550 1131 3912 565 
Q 3275 0 1925 0 
L 628 0 
L 628 4666 
z
" id="DejaVuSans-44" transform="scale(0.015625)"/>
      <path d="M 3425 4513 
L 3425 3897 
Q 3066 4069 2747 4153 
Q 2428 4238 2131 4238 
Q 1616 4238 1336 4038 
Q 1056 3838 1056 3469 
Q 1056 3159 1242 3001 
Q 1428 2844 1947 2747 
L 2328 2669 
Q 3034 2534 3370 2195 
Q 3706 1856 3706 1288 
Q 3706 609 3251 259 
Q 2797 -91 1919 -91 
Q 1588 -91 1214 -16 
Q 841 59 441 206 
L 441 856 
Q 825 641 1194 531 
Q 1563 422 1919 422 
Q 2459 422 2753 634 
Q 3047 847 3047 1241 
Q 3047 1584 2836 1778 
Q 2625 1972 2144 2069 
L 1759 2144 
Q 1053 2284 737 2584 
Q 422 2884 422 3419 
Q 422 4038 858 4394 
Q 1294 4750 2059 4750 
Q 2388 4750 2728 4690 
Q 3069 4631 3425 4513 
z
" id="DejaVuSans-53" transform="scale(0.015625)"/>
      <path d="M 628 4666 
L 1259 4666 
L 1259 531 
L 3531 531 
L 3531 0 
L 628 0 
L 628 4666 
z
" id="DejaVuSans-4c" transform="scale(0.015625)"/>
      <path d="M 1259 4147 
L 1259 2394 
L 2053 2394 
Q 2494 2394 2734 2622 
Q 2975 2850 2975 3272 
Q 2975 3691 2734 3919 
Q 2494 4147 2053 4147 
L 1259 4147 
z
M 628 4666 
L 2053 4666 
Q 2838 4666 3239 4311 
Q 3641 3956 3641 3272 
Q 3641 2581 3239 2228 
Q 2838 1875 2053 1875 
L 1259 1875 
L 1259 0 
L 628 0 
L 628 4666 
z
" id="DejaVuSans-50" transform="scale(0.015625)"/>
      <path d="M 628 4666 
L 1259 4666 
L 1259 0 
L 628 0 
L 628 4666 
z
" id="DejaVuSans-49" transform="scale(0.015625)"/>
     </defs>
     <use xlink:href="#DejaVuSans-44"/>
     <use x="77.001953" xlink:href="#DejaVuSans-53"/>
     <use x="140.478516" xlink:href="#DejaVuSans-4c"/>
     <use x="196.191406" xlink:href="#DejaVuSans-50"/>
     <use x="256.494141" xlink:href="#DejaVuSans-49"/>
     <use x="285.986328" xlink:href="#DejaVuSans-44"/>
    </g>
   </g>
   <g id="line2d_103">
    <path d="M 490.398438 294.598438 
L 510.398438 294.598438 
" style="fill:none;stroke:#d62728;stroke-linecap:square;stroke-opacity:0.7;stroke-width:1.5;"/>
   </g>
   <g id="line2d_104"/>
   <g id="text_47">
    <!-- LSTMCNN -->
    <g transform="translate(518.398438 298.098438)scale(0.1 -0.1)">
     <defs>
      <path d="M 628 4666 
L 1569 4666 
L 2759 1491 
L 3956 4666 
L 4897 4666 
L 4897 0 
L 4281 0 
L 4281 4097 
L 3078 897 
L 2444 897 
L 1241 4097 
L 1241 0 
L 628 0 
L 628 4666 
z
" id="DejaVuSans-4d" transform="scale(0.015625)"/>
      <path d="M 4122 4306 
L 4122 3641 
Q 3803 3938 3442 4084 
Q 3081 4231 2675 4231 
Q 1875 4231 1450 3742 
Q 1025 3253 1025 2328 
Q 1025 1406 1450 917 
Q 1875 428 2675 428 
Q 3081 428 3442 575 
Q 3803 722 4122 1019 
L 4122 359 
Q 3791 134 3420 21 
Q 3050 -91 2638 -91 
Q 1578 -91 968 557 
Q 359 1206 359 2328 
Q 359 3453 968 4101 
Q 1578 4750 2638 4750 
Q 3056 4750 3426 4639 
Q 3797 4528 4122 4306 
z
" id="DejaVuSans-43" transform="scale(0.015625)"/>
      <path d="M 628 4666 
L 1478 4666 
L 3547 763 
L 3547 4666 
L 4159 4666 
L 4159 0 
L 3309 0 
L 1241 3903 
L 1241 0 
L 628 0 
L 628 4666 
z
" id="DejaVuSans-4e" transform="scale(0.015625)"/>
     </defs>
     <use xlink:href="#DejaVuSans-4c"/>
     <use x="55.712891" xlink:href="#DejaVuSans-53"/>
     <use x="119.189453" xlink:href="#DejaVuSans-54"/>
     <use x="180.273438" xlink:href="#DejaVuSans-4d"/>
     <use x="266.552734" xlink:href="#DejaVuSans-43"/>
     <use x="336.376953" xlink:href="#DejaVuSans-4e"/>
     <use x="411.181641" xlink:href="#DejaVuSans-4e"/>
    </g>
   </g>
  </g>
 </g>
 <defs>
  <clipPath id="pf05d024363">
   <rect height="190.98" width="188.21" x="65.59" y="80.88"/>
  </clipPath>
  <clipPath id="paecd5a8cc8">
   <rect height="190.98" width="188.21" x="290.59" y="80.88"/>
  </clipPath>
  <clipPath id="pc46c5be1ea">
   <rect height="190.98" width="188.21" x="65.59" y="314.26"/>
  </clipPath>
  <clipPath id="p2f2c3e86d2">
   <rect height="190.98" width="188.21" x="290.59" y="314.26"/>
  </clipPath>
 </defs>
</svg>
