<?xml version="1.0" encoding="utf-8" standalone="no"?>
<!DOCTYPE svg PUBLIC "-//W3C//DTD SVG 1.1//EN"
  "http://www.w3.org/Graphics/SVG/1.1/DTD/svg11.dtd">
<svg height="576pt" version="1.1" viewBox="0 0 576 576" width="576pt" xmlns="http://www.w3.org/2000/svg" xmlns:xlink="http://www.w3.org/1999/xlink">
 <metadata>
  <rdf:RDF xmlns:cc="http://creativecommons.org/ns#" xmlns:dc="http://purl.org/dc/elements/1.1/" xmlns:rdf="http://www.w3.org/1999/02/22-rdf-syntax-ns#">
   <cc:Work>
    <dc:type rdf:resource="http://purl.org/dc/dcmitype/StillImage"/>
    <dc:date>2022-02-26T04:02:33.333212</dc:date>
    <dc:format>image/svg+xml</dc:format>
    <dc:creator>
     <cc:Agent>
      <dc:title>Matplotlib v3.4.3, https://matplotlib.org/</dc:title>
     </cc:Agent>
    </dc:creator>
   </cc:Work>
  </rdf:RDF>
 </metadata>
 <defs>
  <style type="text/css">*{stroke-linecap:butt;stroke-linejoin:round;}</style>
 </defs>
 <g id="figure_1">
  <g id="patch_1">
   <path d="M 0 576 
L 576 576 
L 576 0 
L 0 0 
z
" style="fill:#ffffff;"/>
  </g>
  <g id="axes_1">
   <g id="patch_2">
    <path d="M 78.19 272.58 
L 253.8 272.58 
L 253.8 80.88 
L 78.19 80.88 
z
" style="fill:#ffffff;"/>
   </g>
   <g id="matplotlib.axis_1">
    <g id="xtick_1">
     <g id="line2d_1">
      <path clip-path="url(#p8c6d975b93)" d="M 86.172273 272.58 
L 86.172273 80.88 
" style="fill:none;stroke:#b0b0b0;stroke-linecap:square;stroke-width:0.8;"/>
     </g>
     <g id="line2d_2">
      <defs>
       <path d="M 0 0 
L 0 3.5 
" id="m1fb1333ce3" style="stroke:#000000;stroke-width:0.8;"/>
      </defs>
      <g>
       <use style="stroke:#000000;stroke-width:0.8;" x="86.172273" xlink:href="#m1fb1333ce3" y="272.58"/>
      </g>
     </g>
    </g>
    <g id="xtick_2">
     <g id="line2d_3">
      <path clip-path="url(#p8c6d975b93)" d="M 126.091953 272.58 
L 126.091953 80.88 
" style="fill:none;stroke:#b0b0b0;stroke-linecap:square;stroke-width:0.8;"/>
     </g>
     <g id="line2d_4">
      <g>
       <use style="stroke:#000000;stroke-width:0.8;" x="126.091953" xlink:href="#m1fb1333ce3" y="272.58"/>
      </g>
     </g>
    </g>
    <g id="xtick_3">
     <g id="line2d_5">
      <path clip-path="url(#p8c6d975b93)" d="M 166.011633 272.58 
L 166.011633 80.88 
" style="fill:none;stroke:#b0b0b0;stroke-linecap:square;stroke-width:0.8;"/>
     </g>
     <g id="line2d_6">
      <g>
       <use style="stroke:#000000;stroke-width:0.8;" x="166.011633" xlink:href="#m1fb1333ce3" y="272.58"/>
      </g>
     </g>
    </g>
    <g id="xtick_4">
     <g id="line2d_7">
      <path clip-path="url(#p8c6d975b93)" d="M 205.931313 272.58 
L 205.931313 80.88 
" style="fill:none;stroke:#b0b0b0;stroke-linecap:square;stroke-width:0.8;"/>
     </g>
     <g id="line2d_8">
      <g>
       <use style="stroke:#000000;stroke-width:0.8;" x="205.931313" xlink:href="#m1fb1333ce3" y="272.58"/>
      </g>
     </g>
    </g>
    <g id="xtick_5">
     <g id="line2d_9">
      <path clip-path="url(#p8c6d975b93)" d="M 245.850994 272.58 
L 245.850994 80.88 
" style="fill:none;stroke:#b0b0b0;stroke-linecap:square;stroke-width:0.8;"/>
     </g>
     <g id="line2d_10">
      <g>
       <use style="stroke:#000000;stroke-width:0.8;" x="245.850994" xlink:href="#m1fb1333ce3" y="272.58"/>
      </g>
     </g>
    </g>
    <g id="text_1">
     <!-- Tiempo (s) -->
     <g transform="translate(139.4325 284.178437)scale(0.1 -0.1)">
      <defs>
       <path d="M -19 4666 
L 3928 4666 
L 3928 4134 
L 2272 4134 
L 2272 0 
L 1638 0 
L 1638 4134 
L -19 4134 
L -19 4666 
z
" id="DejaVuSans-54" transform="scale(0.015625)"/>
       <path d="M 603 3500 
L 1178 3500 
L 1178 0 
L 603 0 
L 603 3500 
z
M 603 4863 
L 1178 4863 
L 1178 4134 
L 603 4134 
L 603 4863 
z
" id="DejaVuSans-69" transform="scale(0.015625)"/>
       <path d="M 3597 1894 
L 3597 1613 
L 953 1613 
Q 991 1019 1311 708 
Q 1631 397 2203 397 
Q 2534 397 2845 478 
Q 3156 559 3463 722 
L 3463 178 
Q 3153 47 2828 -22 
Q 2503 -91 2169 -91 
Q 1331 -91 842 396 
Q 353 884 353 1716 
Q 353 2575 817 3079 
Q 1281 3584 2069 3584 
Q 2775 3584 3186 3129 
Q 3597 2675 3597 1894 
z
M 3022 2063 
Q 3016 2534 2758 2815 
Q 2500 3097 2075 3097 
Q 1594 3097 1305 2825 
Q 1016 2553 972 2059 
L 3022 2063 
z
" id="DejaVuSans-65" transform="scale(0.015625)"/>
       <path d="M 3328 2828 
Q 3544 3216 3844 3400 
Q 4144 3584 4550 3584 
Q 5097 3584 5394 3201 
Q 5691 2819 5691 2113 
L 5691 0 
L 5113 0 
L 5113 2094 
Q 5113 2597 4934 2840 
Q 4756 3084 4391 3084 
Q 3944 3084 3684 2787 
Q 3425 2491 3425 1978 
L 3425 0 
L 2847 0 
L 2847 2094 
Q 2847 2600 2669 2842 
Q 2491 3084 2119 3084 
Q 1678 3084 1418 2786 
Q 1159 2488 1159 1978 
L 1159 0 
L 581 0 
L 581 3500 
L 1159 3500 
L 1159 2956 
Q 1356 3278 1631 3431 
Q 1906 3584 2284 3584 
Q 2666 3584 2933 3390 
Q 3200 3197 3328 2828 
z
" id="DejaVuSans-6d" transform="scale(0.015625)"/>
       <path d="M 1159 525 
L 1159 -1331 
L 581 -1331 
L 581 3500 
L 1159 3500 
L 1159 2969 
Q 1341 3281 1617 3432 
Q 1894 3584 2278 3584 
Q 2916 3584 3314 3078 
Q 3713 2572 3713 1747 
Q 3713 922 3314 415 
Q 2916 -91 2278 -91 
Q 1894 -91 1617 61 
Q 1341 213 1159 525 
z
M 3116 1747 
Q 3116 2381 2855 2742 
Q 2594 3103 2138 3103 
Q 1681 3103 1420 2742 
Q 1159 2381 1159 1747 
Q 1159 1113 1420 752 
Q 1681 391 2138 391 
Q 2594 391 2855 752 
Q 3116 1113 3116 1747 
z
" id="DejaVuSans-70" transform="scale(0.015625)"/>
       <path d="M 1959 3097 
Q 1497 3097 1228 2736 
Q 959 2375 959 1747 
Q 959 1119 1226 758 
Q 1494 397 1959 397 
Q 2419 397 2687 759 
Q 2956 1122 2956 1747 
Q 2956 2369 2687 2733 
Q 2419 3097 1959 3097 
z
M 1959 3584 
Q 2709 3584 3137 3096 
Q 3566 2609 3566 1747 
Q 3566 888 3137 398 
Q 2709 -91 1959 -91 
Q 1206 -91 779 398 
Q 353 888 353 1747 
Q 353 2609 779 3096 
Q 1206 3584 1959 3584 
z
" id="DejaVuSans-6f" transform="scale(0.015625)"/>
       <path id="DejaVuSans-20" transform="scale(0.015625)"/>
       <path d="M 1984 4856 
Q 1566 4138 1362 3434 
Q 1159 2731 1159 2009 
Q 1159 1288 1364 580 
Q 1569 -128 1984 -844 
L 1484 -844 
Q 1016 -109 783 600 
Q 550 1309 550 2009 
Q 550 2706 781 3412 
Q 1013 4119 1484 4856 
L 1984 4856 
z
" id="DejaVuSans-28" transform="scale(0.015625)"/>
       <path d="M 2834 3397 
L 2834 2853 
Q 2591 2978 2328 3040 
Q 2066 3103 1784 3103 
Q 1356 3103 1142 2972 
Q 928 2841 928 2578 
Q 928 2378 1081 2264 
Q 1234 2150 1697 2047 
L 1894 2003 
Q 2506 1872 2764 1633 
Q 3022 1394 3022 966 
Q 3022 478 2636 193 
Q 2250 -91 1575 -91 
Q 1294 -91 989 -36 
Q 684 19 347 128 
L 347 722 
Q 666 556 975 473 
Q 1284 391 1588 391 
Q 1994 391 2212 530 
Q 2431 669 2431 922 
Q 2431 1156 2273 1281 
Q 2116 1406 1581 1522 
L 1381 1569 
Q 847 1681 609 1914 
Q 372 2147 372 2553 
Q 372 3047 722 3315 
Q 1072 3584 1716 3584 
Q 2034 3584 2315 3537 
Q 2597 3491 2834 3397 
z
" id="DejaVuSans-73" transform="scale(0.015625)"/>
       <path d="M 513 4856 
L 1013 4856 
Q 1481 4119 1714 3412 
Q 1947 2706 1947 2009 
Q 1947 1309 1714 600 
Q 1481 -109 1013 -844 
L 513 -844 
Q 928 -128 1133 580 
Q 1338 1288 1338 2009 
Q 1338 2731 1133 3434 
Q 928 4138 513 4856 
z
" id="DejaVuSans-29" transform="scale(0.015625)"/>
      </defs>
      <use xlink:href="#DejaVuSans-54"/>
      <use x="57.958984" xlink:href="#DejaVuSans-69"/>
      <use x="85.742188" xlink:href="#DejaVuSans-65"/>
      <use x="147.265625" xlink:href="#DejaVuSans-6d"/>
      <use x="244.677734" xlink:href="#DejaVuSans-70"/>
      <use x="308.154297" xlink:href="#DejaVuSans-6f"/>
      <use x="369.335938" xlink:href="#DejaVuSans-20"/>
      <use x="401.123047" xlink:href="#DejaVuSans-28"/>
      <use x="440.136719" xlink:href="#DejaVuSans-73"/>
      <use x="492.236328" xlink:href="#DejaVuSans-29"/>
     </g>
    </g>
   </g>
   <g id="matplotlib.axis_2">
    <g id="ytick_1">
     <g id="line2d_11">
      <path clip-path="url(#p8c6d975b93)" d="M 78.19 263.866364 
L 253.8 263.866364 
" style="fill:none;stroke:#b0b0b0;stroke-linecap:square;stroke-width:0.8;"/>
     </g>
     <g id="line2d_12">
      <defs>
       <path d="M 0 0 
L -3.5 0 
" id="m49db297e6b" style="stroke:#000000;stroke-width:0.8;"/>
      </defs>
      <g>
       <use style="stroke:#000000;stroke-width:0.8;" x="78.19" xlink:href="#m49db297e6b" y="263.866364"/>
      </g>
     </g>
     <g id="text_2">
      <!-- 0 -->
      <g transform="translate(64.8275 267.665582)scale(0.1 -0.1)">
       <defs>
        <path d="M 2034 4250 
Q 1547 4250 1301 3770 
Q 1056 3291 1056 2328 
Q 1056 1369 1301 889 
Q 1547 409 2034 409 
Q 2525 409 2770 889 
Q 3016 1369 3016 2328 
Q 3016 3291 2770 3770 
Q 2525 4250 2034 4250 
z
M 2034 4750 
Q 2819 4750 3233 4129 
Q 3647 3509 3647 2328 
Q 3647 1150 3233 529 
Q 2819 -91 2034 -91 
Q 1250 -91 836 529 
Q 422 1150 422 2328 
Q 422 3509 836 4129 
Q 1250 4750 2034 4750 
z
" id="DejaVuSans-30" transform="scale(0.015625)"/>
       </defs>
       <use xlink:href="#DejaVuSans-30"/>
      </g>
     </g>
    </g>
    <g id="ytick_2">
     <g id="line2d_13">
      <path clip-path="url(#p8c6d975b93)" d="M 78.19 237.293704 
L 253.8 237.293704 
" style="fill:none;stroke:#b0b0b0;stroke-linecap:square;stroke-width:0.8;"/>
     </g>
     <g id="line2d_14">
      <g>
       <use style="stroke:#000000;stroke-width:0.8;" x="78.19" xlink:href="#m49db297e6b" y="237.293704"/>
      </g>
     </g>
     <g id="text_3">
      <!-- 2500 -->
      <g transform="translate(45.74 241.092922)scale(0.1 -0.1)">
       <defs>
        <path d="M 1228 531 
L 3431 531 
L 3431 0 
L 469 0 
L 469 531 
Q 828 903 1448 1529 
Q 2069 2156 2228 2338 
Q 2531 2678 2651 2914 
Q 2772 3150 2772 3378 
Q 2772 3750 2511 3984 
Q 2250 4219 1831 4219 
Q 1534 4219 1204 4116 
Q 875 4013 500 3803 
L 500 4441 
Q 881 4594 1212 4672 
Q 1544 4750 1819 4750 
Q 2544 4750 2975 4387 
Q 3406 4025 3406 3419 
Q 3406 3131 3298 2873 
Q 3191 2616 2906 2266 
Q 2828 2175 2409 1742 
Q 1991 1309 1228 531 
z
" id="DejaVuSans-32" transform="scale(0.015625)"/>
        <path d="M 691 4666 
L 3169 4666 
L 3169 4134 
L 1269 4134 
L 1269 2991 
Q 1406 3038 1543 3061 
Q 1681 3084 1819 3084 
Q 2600 3084 3056 2656 
Q 3513 2228 3513 1497 
Q 3513 744 3044 326 
Q 2575 -91 1722 -91 
Q 1428 -91 1123 -41 
Q 819 9 494 109 
L 494 744 
Q 775 591 1075 516 
Q 1375 441 1709 441 
Q 2250 441 2565 725 
Q 2881 1009 2881 1497 
Q 2881 1984 2565 2268 
Q 2250 2553 1709 2553 
Q 1456 2553 1204 2497 
Q 953 2441 691 2322 
L 691 4666 
z
" id="DejaVuSans-35" transform="scale(0.015625)"/>
       </defs>
       <use xlink:href="#DejaVuSans-32"/>
       <use x="63.623047" xlink:href="#DejaVuSans-35"/>
       <use x="127.246094" xlink:href="#DejaVuSans-30"/>
       <use x="190.869141" xlink:href="#DejaVuSans-30"/>
      </g>
     </g>
    </g>
    <g id="ytick_3">
     <g id="line2d_15">
      <path clip-path="url(#p8c6d975b93)" d="M 78.19 210.721044 
L 253.8 210.721044 
" style="fill:none;stroke:#b0b0b0;stroke-linecap:square;stroke-width:0.8;"/>
     </g>
     <g id="line2d_16">
      <g>
       <use style="stroke:#000000;stroke-width:0.8;" x="78.19" xlink:href="#m49db297e6b" y="210.721044"/>
      </g>
     </g>
     <g id="text_4">
      <!-- 5000 -->
      <g transform="translate(45.74 214.520262)scale(0.1 -0.1)">
       <use xlink:href="#DejaVuSans-35"/>
       <use x="63.623047" xlink:href="#DejaVuSans-30"/>
       <use x="127.246094" xlink:href="#DejaVuSans-30"/>
       <use x="190.869141" xlink:href="#DejaVuSans-30"/>
      </g>
     </g>
    </g>
    <g id="ytick_4">
     <g id="line2d_17">
      <path clip-path="url(#p8c6d975b93)" d="M 78.19 184.148384 
L 253.8 184.148384 
" style="fill:none;stroke:#b0b0b0;stroke-linecap:square;stroke-width:0.8;"/>
     </g>
     <g id="line2d_18">
      <g>
       <use style="stroke:#000000;stroke-width:0.8;" x="78.19" xlink:href="#m49db297e6b" y="184.148384"/>
      </g>
     </g>
     <g id="text_5">
      <!-- 7500 -->
      <g transform="translate(45.74 187.947602)scale(0.1 -0.1)">
       <defs>
        <path d="M 525 4666 
L 3525 4666 
L 3525 4397 
L 1831 0 
L 1172 0 
L 2766 4134 
L 525 4134 
L 525 4666 
z
" id="DejaVuSans-37" transform="scale(0.015625)"/>
       </defs>
       <use xlink:href="#DejaVuSans-37"/>
       <use x="63.623047" xlink:href="#DejaVuSans-35"/>
       <use x="127.246094" xlink:href="#DejaVuSans-30"/>
       <use x="190.869141" xlink:href="#DejaVuSans-30"/>
      </g>
     </g>
    </g>
    <g id="ytick_5">
     <g id="line2d_19">
      <path clip-path="url(#p8c6d975b93)" d="M 78.19 157.575724 
L 253.8 157.575724 
" style="fill:none;stroke:#b0b0b0;stroke-linecap:square;stroke-width:0.8;"/>
     </g>
     <g id="line2d_20">
      <g>
       <use style="stroke:#000000;stroke-width:0.8;" x="78.19" xlink:href="#m49db297e6b" y="157.575724"/>
      </g>
     </g>
     <g id="text_6">
      <!-- 10000 -->
      <g transform="translate(39.3775 161.374942)scale(0.1 -0.1)">
       <defs>
        <path d="M 794 531 
L 1825 531 
L 1825 4091 
L 703 3866 
L 703 4441 
L 1819 4666 
L 2450 4666 
L 2450 531 
L 3481 531 
L 3481 0 
L 794 0 
L 794 531 
z
" id="DejaVuSans-31" transform="scale(0.015625)"/>
       </defs>
       <use xlink:href="#DejaVuSans-31"/>
       <use x="63.623047" xlink:href="#DejaVuSans-30"/>
       <use x="127.246094" xlink:href="#DejaVuSans-30"/>
       <use x="190.869141" xlink:href="#DejaVuSans-30"/>
       <use x="254.492188" xlink:href="#DejaVuSans-30"/>
      </g>
     </g>
    </g>
    <g id="ytick_6">
     <g id="line2d_21">
      <path clip-path="url(#p8c6d975b93)" d="M 78.19 131.003064 
L 253.8 131.003064 
" style="fill:none;stroke:#b0b0b0;stroke-linecap:square;stroke-width:0.8;"/>
     </g>
     <g id="line2d_22">
      <g>
       <use style="stroke:#000000;stroke-width:0.8;" x="78.19" xlink:href="#m49db297e6b" y="131.003064"/>
      </g>
     </g>
     <g id="text_7">
      <!-- 12500 -->
      <g transform="translate(39.3775 134.802282)scale(0.1 -0.1)">
       <use xlink:href="#DejaVuSans-31"/>
       <use x="63.623047" xlink:href="#DejaVuSans-32"/>
       <use x="127.246094" xlink:href="#DejaVuSans-35"/>
       <use x="190.869141" xlink:href="#DejaVuSans-30"/>
       <use x="254.492188" xlink:href="#DejaVuSans-30"/>
      </g>
     </g>
    </g>
    <g id="ytick_7">
     <g id="line2d_23">
      <path clip-path="url(#p8c6d975b93)" d="M 78.19 104.430404 
L 253.8 104.430404 
" style="fill:none;stroke:#b0b0b0;stroke-linecap:square;stroke-width:0.8;"/>
     </g>
     <g id="line2d_24">
      <g>
       <use style="stroke:#000000;stroke-width:0.8;" x="78.19" xlink:href="#m49db297e6b" y="104.430404"/>
      </g>
     </g>
     <g id="text_8">
      <!-- 15000 -->
      <g transform="translate(39.3775 108.229622)scale(0.1 -0.1)">
       <use xlink:href="#DejaVuSans-31"/>
       <use x="63.623047" xlink:href="#DejaVuSans-35"/>
       <use x="127.246094" xlink:href="#DejaVuSans-30"/>
       <use x="190.869141" xlink:href="#DejaVuSans-30"/>
       <use x="254.492188" xlink:href="#DejaVuSans-30"/>
      </g>
     </g>
    </g>
   </g>
   <g id="line2d_25">
    <path clip-path="url(#p8c6d975b93)" d="M 86.172273 263.866364 
L 86.305338 104.198057 
L 86.338605 104.198057 
L 86.47167 106.214488 
L 86.504937 106.214488 
L 86.638002 107.557996 
L 86.671269 107.557996 
L 86.804334 108.449315 
L 86.837601 108.449315 
L 86.970666 109.038549 
L 87.003933 109.038549 
L 87.136998 109.426802 
L 87.170265 109.426802 
L 87.30333 109.68173 
L 87.336597 109.68173 
L 87.469662 109.848406 
L 87.669261 109.956768 
L 87.802326 110.026661 
L 126.258285 110.080504 
L 126.391351 95.498101 
L 126.424617 95.498101 
L 126.557683 107.86472 
L 126.590949 107.86472 
L 126.724015 116.31796 
L 126.757281 116.31796 
L 126.890347 107.128398 
L 126.923613 107.128398 
L 127.056679 89.593636 
L 127.089945 89.593636 
L 127.223011 93.16745 
L 127.256277 93.16745 
L 127.389343 103.388304 
L 127.422609 103.388304 
L 127.555675 110.362694 
L 127.588941 110.362694 
L 127.722007 108.237939 
L 127.755273 108.237939 
L 127.888339 105.415538 
L 127.921605 105.415538 
L 128.054671 107.345534 
L 128.087937 107.345534 
L 128.221003 110.173018 
L 128.420601 110.221055 
L 128.553667 109.441376 
L 128.586933 109.441376 
L 128.719999 110.290345 
L 128.753265 110.290345 
L 128.886331 111.661933 
L 128.919597 111.661933 
L 129.052663 111.824738 
L 129.085929 111.824738 
L 129.218995 111.420926 
L 129.252261 111.420926 
L 129.385327 111.766341 
L 129.418593 111.766341 
L 129.551659 112.55716 
L 129.584925 112.55716 
L 129.717991 112.809519 
L 129.751257 112.809519 
L 129.884323 112.611778 
L 130.083921 112.680352 
L 130.216987 113.052003 
L 130.250253 113.052003 
L 130.383319 113.225235 
L 130.416585 113.225235 
L 130.549651 113.10644 
L 131.081913 113.12925 
L 131.214979 112.974559 
L 131.248245 112.974559 
L 131.381311 112.798066 
L 131.580909 112.691415 
L 131.713975 112.568835 
L 131.747241 112.568835 
L 131.880307 112.362886 
L 131.913573 112.362886 
L 132.046639 112.132242 
L 132.079905 112.132242 
L 132.212971 111.937576 
L 132.246237 111.937576 
L 132.379303 111.751946 
L 132.412569 111.751946 
L 132.545635 111.53676 
L 132.578901 111.53676 
L 132.711967 111.312235 
L 132.745233 111.312235 
L 132.878299 111.112627 
L 132.911565 111.112627 
L 133.044631 110.932559 
L 133.077897 110.932559 
L 133.210963 110.751938 
L 133.244229 110.751938 
L 133.377295 110.575618 
L 133.410561 110.575618 
L 133.543627 110.420597 
L 133.576893 110.420597 
L 133.709959 110.287398 
L 133.743225 110.287398 
L 133.876291 110.165822 
L 134.075889 110.055264 
L 134.208955 109.496089 
L 134.242221 109.496089 
L 134.375287 110.76975 
L 134.408553 110.76975 
L 134.541619 110.033867 
L 134.574885 110.033867 
L 134.707951 108.536801 
L 134.741217 108.536801 
L 134.874283 109.537909 
L 134.907549 109.537909 
L 135.040615 111.084741 
L 135.073881 111.084741 
L 135.206947 110.171151 
L 135.240213 110.171151 
L 135.373279 108.619476 
L 135.406545 108.619476 
L 135.539611 109.215599 
L 135.572877 109.215599 
L 135.705943 110.623122 
L 135.739209 110.623122 
L 135.872275 110.343325 
L 135.905541 110.343325 
L 136.038607 109.189231 
L 136.071873 109.189231 
L 136.204939 109.301196 
L 136.238205 109.301196 
L 136.371271 110.05321 
L 136.404537 110.05321 
L 136.537603 110.50925 
L 136.570869 110.50925 
L 136.703935 109.913822 
L 136.737201 109.913822 
L 136.870267 109.703687 
L 136.903533 109.703687 
L 137.036599 110.131717 
L 137.069865 110.131717 
L 137.202931 110.340006 
L 137.236197 110.340006 
L 137.369263 110.119774 
L 137.568861 110.037697 
L 137.701927 110.252892 
L 137.735193 110.252892 
L 137.868259 110.383246 
L 138.067857 110.286423 
L 138.200923 110.225408 
L 138.400521 110.320459 
L 138.533587 110.39992 
L 140.063841 110.302676 
L 140.263439 110.252053 
L 141.228165 110.158038 
L 141.527563 110.119384 
L 245.817727 110.080504 
L 245.817727 110.080504 
" style="fill:none;stroke:#1f77b4;stroke-linecap:square;stroke-opacity:0.7;stroke-width:1.5;"/>
   </g>
   <g id="line2d_26">
    <path clip-path="url(#p8c6d975b93)" d="M 86.172273 263.866364 
L 86.305338 109.510836 
L 87.835593 109.561439 
L 87.968658 109.751357 
L 88.001925 109.751357 
L 88.13499 109.880841 
L 88.334589 109.818561 
L 88.467654 108.778585 
L 88.500921 108.778585 
L 88.633986 108.221744 
L 88.667253 108.221744 
L 88.800318 107.804318 
L 88.833585 107.804318 
L 88.96665 107.379055 
L 88.999917 107.379055 
L 89.132982 106.71421 
L 89.166249 106.71421 
L 89.299314 106.219012 
L 89.332581 106.219012 
L 89.465646 106.506393 
L 89.498913 106.506393 
L 89.631978 107.499112 
L 89.665245 107.499112 
L 89.79831 108.768616 
L 89.831577 108.768616 
L 89.964642 109.717305 
L 89.997909 109.717305 
L 90.130974 110.055672 
L 90.164241 110.055672 
L 90.297306 109.755802 
L 90.330573 109.755802 
L 90.463638 109.415604 
L 90.496905 109.415604 
L 90.62997 109.822817 
L 90.663237 109.822817 
L 90.796302 110.427279 
L 90.995901 110.340536 
L 91.128966 109.86233 
L 91.162233 109.86233 
L 91.295298 109.730925 
L 91.328565 109.730925 
L 91.46163 110.007406 
L 91.494897 110.007406 
L 91.627962 110.205968 
L 91.661229 110.205968 
L 91.794294 110.08721 
L 91.827561 110.08721 
L 91.960626 109.915962 
L 92.160225 109.983843 
L 92.29329 110.175488 
L 92.659221 110.104125 
L 92.792286 110.041606 
L 92.991885 110.123913 
L 93.12495 110.215132 
L 93.324549 110.18658 
L 93.457614 110.097666 
L 95.154201 110.195895 
L 95.287266 110.391035 
L 95.320533 110.391035 
L 95.453598 110.644168 
L 95.486865 110.644168 
L 95.61993 110.888861 
L 95.653197 110.888861 
L 95.786262 111.088157 
L 96.152193 111.13259 
L 96.285258 110.866755 
L 96.318525 110.866755 
L 96.45159 110.492975 
L 96.484857 110.492975 
L 96.617922 110.159171 
L 96.651189 110.159171 
L 96.784254 109.979957 
L 97.150185 110.030835 
L 97.28325 110.135142 
L 97.316517 110.135142 
L 97.449582 110.24743 
L 97.482849 110.24743 
L 97.615914 110.364968 
L 97.815513 110.464167 
L 97.981845 110.507369 
L 98.247976 110.409403 
L 98.480841 110.331992 
L 98.613906 110.262132 
L 98.979837 110.156981 
L 99.312501 110.168766 
L 99.512099 110.233232 
L 107.629101 110.122287 
L 110.057548 110.109189 
L 126.258285 110.078529 
L 126.391351 99.346936 
L 126.424617 99.346936 
L 126.557683 113.26959 
L 126.590949 113.26959 
L 126.724015 115.379035 
L 126.757281 115.379035 
L 126.890347 117.540575 
L 126.923613 117.540575 
L 127.056679 117.269008 
L 127.089945 117.269008 
L 127.223011 112.1871 
L 127.256277 112.1871 
L 127.389343 105.804248 
L 127.422609 105.804248 
L 127.555675 101.640202 
L 127.588941 101.640202 
L 127.722007 97.14904 
L 127.755273 97.14904 
L 127.888339 95.147987 
L 127.921605 95.147987 
L 128.054671 97.154003 
L 128.087937 97.154003 
L 128.221003 100.227574 
L 128.254269 100.227574 
L 128.387335 102.773967 
L 128.420601 102.773967 
L 128.553667 106.120979 
L 128.586933 106.120979 
L 128.719999 109.373287 
L 128.753265 109.373287 
L 128.886331 114.145098 
L 128.919597 114.145098 
L 129.052663 117.65789 
L 129.085929 117.65789 
L 129.218995 118.699731 
L 129.252261 118.699731 
L 129.385327 117.605337 
L 129.418593 117.605337 
L 129.551659 114.58168 
L 129.584925 114.58168 
L 129.717991 111.320409 
L 129.751257 111.320409 
L 129.884323 108.399174 
L 129.917589 108.399174 
L 130.050655 106.158214 
L 130.083921 106.158214 
L 130.216987 105.555936 
L 130.250253 105.555936 
L 130.383319 107.218249 
L 130.416585 107.218249 
L 130.549651 110.460959 
L 130.582917 110.460959 
L 130.715983 112.204759 
L 130.749249 112.204759 
L 130.882315 112.520075 
L 131.248245 112.437491 
L 131.381311 112.299707 
L 131.414577 112.299707 
L 131.547643 112.08753 
L 131.580909 112.08753 
L 131.713975 111.953857 
L 131.913573 111.985119 
L 132.046639 112.077042 
L 132.246237 112.069114 
L 132.379303 111.932544 
L 132.412569 111.932544 
L 132.545635 111.738482 
L 132.578901 111.738482 
L 132.711967 111.548283 
L 132.745233 111.548283 
L 132.878299 111.349084 
L 132.911565 111.349084 
L 133.044631 111.084302 
L 133.077897 111.084302 
L 133.210963 110.809979 
L 133.244229 110.809979 
L 133.377295 110.585806 
L 133.410561 110.585806 
L 133.543627 110.450385 
L 133.743225 110.371618 
L 133.876291 110.313262 
L 134.075889 110.238665 
L 134.208955 110.167448 
L 134.408553 110.075813 
L 134.541619 109.949171 
L 134.574885 109.949171 
L 134.707951 109.819592 
L 134.907549 109.730634 
L 135.073881 109.68291 
L 135.340012 109.610562 
L 136.737201 109.711172 
L 136.870267 109.772406 
L 137.069865 109.827421 
L 137.202931 109.902596 
L 137.402529 109.993239 
L 137.535595 110.075858 
L 137.735193 110.139463 
L 137.868259 110.194823 
L 138.234189 110.299866 
L 138.400521 110.349167 
L 138.600119 110.387289 
L 141.893493 110.285759 
L 142.159624 110.240895 
L 143.057817 110.141329 
L 143.357215 110.107455 
L 245.817727 110.08051 
L 245.817727 110.08051 
" style="fill:none;stroke:#d62728;stroke-linecap:square;stroke-opacity:0.7;stroke-width:1.5;"/>
   </g>
   <g id="patch_3">
    <path d="M 78.19 272.58 
L 78.19 80.88 
" style="fill:none;stroke:#000000;stroke-linecap:square;stroke-linejoin:miter;stroke-width:0.8;"/>
   </g>
   <g id="patch_4">
    <path d="M 253.8 272.58 
L 253.8 80.88 
" style="fill:none;stroke:#000000;stroke-linecap:square;stroke-linejoin:miter;stroke-width:0.8;"/>
   </g>
   <g id="patch_5">
    <path d="M 78.19 272.58 
L 253.8 272.58 
" style="fill:none;stroke:#000000;stroke-linecap:square;stroke-linejoin:miter;stroke-width:0.8;"/>
   </g>
   <g id="patch_6">
    <path d="M 78.19 80.88 
L 253.8 80.88 
" style="fill:none;stroke:#000000;stroke-linecap:square;stroke-linejoin:miter;stroke-width:0.8;"/>
   </g>
   <g id="text_9">
    <!-- RPM0 (rpm) -->
    <g transform="translate(130.505 74.88)scale(0.12 -0.12)">
     <defs>
      <path d="M 2841 2188 
Q 3044 2119 3236 1894 
Q 3428 1669 3622 1275 
L 4263 0 
L 3584 0 
L 2988 1197 
Q 2756 1666 2539 1819 
Q 2322 1972 1947 1972 
L 1259 1972 
L 1259 0 
L 628 0 
L 628 4666 
L 2053 4666 
Q 2853 4666 3247 4331 
Q 3641 3997 3641 3322 
Q 3641 2881 3436 2590 
Q 3231 2300 2841 2188 
z
M 1259 4147 
L 1259 2491 
L 2053 2491 
Q 2509 2491 2742 2702 
Q 2975 2913 2975 3322 
Q 2975 3731 2742 3939 
Q 2509 4147 2053 4147 
L 1259 4147 
z
" id="DejaVuSans-52" transform="scale(0.015625)"/>
      <path d="M 1259 4147 
L 1259 2394 
L 2053 2394 
Q 2494 2394 2734 2622 
Q 2975 2850 2975 3272 
Q 2975 3691 2734 3919 
Q 2494 4147 2053 4147 
L 1259 4147 
z
M 628 4666 
L 2053 4666 
Q 2838 4666 3239 4311 
Q 3641 3956 3641 3272 
Q 3641 2581 3239 2228 
Q 2838 1875 2053 1875 
L 1259 1875 
L 1259 0 
L 628 0 
L 628 4666 
z
" id="DejaVuSans-50" transform="scale(0.015625)"/>
      <path d="M 628 4666 
L 1569 4666 
L 2759 1491 
L 3956 4666 
L 4897 4666 
L 4897 0 
L 4281 0 
L 4281 4097 
L 3078 897 
L 2444 897 
L 1241 4097 
L 1241 0 
L 628 0 
L 628 4666 
z
" id="DejaVuSans-4d" transform="scale(0.015625)"/>
      <path d="M 2631 2963 
Q 2534 3019 2420 3045 
Q 2306 3072 2169 3072 
Q 1681 3072 1420 2755 
Q 1159 2438 1159 1844 
L 1159 0 
L 581 0 
L 581 3500 
L 1159 3500 
L 1159 2956 
Q 1341 3275 1631 3429 
Q 1922 3584 2338 3584 
Q 2397 3584 2469 3576 
Q 2541 3569 2628 3553 
L 2631 2963 
z
" id="DejaVuSans-72" transform="scale(0.015625)"/>
     </defs>
     <use xlink:href="#DejaVuSans-52"/>
     <use x="69.482422" xlink:href="#DejaVuSans-50"/>
     <use x="129.785156" xlink:href="#DejaVuSans-4d"/>
     <use x="216.064453" xlink:href="#DejaVuSans-30"/>
     <use x="279.6875" xlink:href="#DejaVuSans-20"/>
     <use x="311.474609" xlink:href="#DejaVuSans-28"/>
     <use x="350.488281" xlink:href="#DejaVuSans-72"/>
     <use x="391.601562" xlink:href="#DejaVuSans-70"/>
     <use x="455.078125" xlink:href="#DejaVuSans-6d"/>
     <use x="552.490234" xlink:href="#DejaVuSans-29"/>
    </g>
   </g>
  </g>
  <g id="axes_2">
   <g id="patch_7">
    <path d="M 303.19 272.58 
L 478.8 272.58 
L 478.8 80.88 
L 303.19 80.88 
z
" style="fill:#ffffff;"/>
   </g>
   <g id="matplotlib.axis_3">
    <g id="xtick_6">
     <g id="line2d_27">
      <path clip-path="url(#p0dd3dcc3dd)" d="M 311.172273 272.58 
L 311.172273 80.88 
" style="fill:none;stroke:#b0b0b0;stroke-linecap:square;stroke-width:0.8;"/>
     </g>
     <g id="line2d_28">
      <g>
       <use style="stroke:#000000;stroke-width:0.8;" x="311.172273" xlink:href="#m1fb1333ce3" y="272.58"/>
      </g>
     </g>
    </g>
    <g id="xtick_7">
     <g id="line2d_29">
      <path clip-path="url(#p0dd3dcc3dd)" d="M 351.091953 272.58 
L 351.091953 80.88 
" style="fill:none;stroke:#b0b0b0;stroke-linecap:square;stroke-width:0.8;"/>
     </g>
     <g id="line2d_30">
      <g>
       <use style="stroke:#000000;stroke-width:0.8;" x="351.091953" xlink:href="#m1fb1333ce3" y="272.58"/>
      </g>
     </g>
    </g>
    <g id="xtick_8">
     <g id="line2d_31">
      <path clip-path="url(#p0dd3dcc3dd)" d="M 391.011633 272.58 
L 391.011633 80.88 
" style="fill:none;stroke:#b0b0b0;stroke-linecap:square;stroke-width:0.8;"/>
     </g>
     <g id="line2d_32">
      <g>
       <use style="stroke:#000000;stroke-width:0.8;" x="391.011633" xlink:href="#m1fb1333ce3" y="272.58"/>
      </g>
     </g>
    </g>
    <g id="xtick_9">
     <g id="line2d_33">
      <path clip-path="url(#p0dd3dcc3dd)" d="M 430.931313 272.58 
L 430.931313 80.88 
" style="fill:none;stroke:#b0b0b0;stroke-linecap:square;stroke-width:0.8;"/>
     </g>
     <g id="line2d_34">
      <g>
       <use style="stroke:#000000;stroke-width:0.8;" x="430.931313" xlink:href="#m1fb1333ce3" y="272.58"/>
      </g>
     </g>
    </g>
    <g id="xtick_10">
     <g id="line2d_35">
      <path clip-path="url(#p0dd3dcc3dd)" d="M 470.850994 272.58 
L 470.850994 80.88 
" style="fill:none;stroke:#b0b0b0;stroke-linecap:square;stroke-width:0.8;"/>
     </g>
     <g id="line2d_36">
      <g>
       <use style="stroke:#000000;stroke-width:0.8;" x="470.850994" xlink:href="#m1fb1333ce3" y="272.58"/>
      </g>
     </g>
    </g>
    <g id="text_10">
     <!-- Tiempo (s) -->
     <g transform="translate(364.4325 284.178437)scale(0.1 -0.1)">
      <use xlink:href="#DejaVuSans-54"/>
      <use x="57.958984" xlink:href="#DejaVuSans-69"/>
      <use x="85.742188" xlink:href="#DejaVuSans-65"/>
      <use x="147.265625" xlink:href="#DejaVuSans-6d"/>
      <use x="244.677734" xlink:href="#DejaVuSans-70"/>
      <use x="308.154297" xlink:href="#DejaVuSans-6f"/>
      <use x="369.335938" xlink:href="#DejaVuSans-20"/>
      <use x="401.123047" xlink:href="#DejaVuSans-28"/>
      <use x="440.136719" xlink:href="#DejaVuSans-73"/>
      <use x="492.236328" xlink:href="#DejaVuSans-29"/>
     </g>
    </g>
   </g>
   <g id="matplotlib.axis_4">
    <g id="ytick_8">
     <g id="line2d_37">
      <path clip-path="url(#p0dd3dcc3dd)" d="M 303.19 263.866364 
L 478.8 263.866364 
" style="fill:none;stroke:#b0b0b0;stroke-linecap:square;stroke-width:0.8;"/>
     </g>
     <g id="line2d_38">
      <g>
       <use style="stroke:#000000;stroke-width:0.8;" x="303.19" xlink:href="#m49db297e6b" y="263.866364"/>
      </g>
     </g>
     <g id="text_11">
      <!-- 0 -->
      <g transform="translate(289.8275 267.665582)scale(0.1 -0.1)">
       <use xlink:href="#DejaVuSans-30"/>
      </g>
     </g>
    </g>
    <g id="ytick_9">
     <g id="line2d_39">
      <path clip-path="url(#p0dd3dcc3dd)" d="M 303.19 240.211101 
L 478.8 240.211101 
" style="fill:none;stroke:#b0b0b0;stroke-linecap:square;stroke-width:0.8;"/>
     </g>
     <g id="line2d_40">
      <g>
       <use style="stroke:#000000;stroke-width:0.8;" x="303.19" xlink:href="#m49db297e6b" y="240.211101"/>
      </g>
     </g>
     <g id="text_12">
      <!-- 2500 -->
      <g transform="translate(270.74 244.01032)scale(0.1 -0.1)">
       <use xlink:href="#DejaVuSans-32"/>
       <use x="63.623047" xlink:href="#DejaVuSans-35"/>
       <use x="127.246094" xlink:href="#DejaVuSans-30"/>
       <use x="190.869141" xlink:href="#DejaVuSans-30"/>
      </g>
     </g>
    </g>
    <g id="ytick_10">
     <g id="line2d_41">
      <path clip-path="url(#p0dd3dcc3dd)" d="M 303.19 216.555839 
L 478.8 216.555839 
" style="fill:none;stroke:#b0b0b0;stroke-linecap:square;stroke-width:0.8;"/>
     </g>
     <g id="line2d_42">
      <g>
       <use style="stroke:#000000;stroke-width:0.8;" x="303.19" xlink:href="#m49db297e6b" y="216.555839"/>
      </g>
     </g>
     <g id="text_13">
      <!-- 5000 -->
      <g transform="translate(270.74 220.355057)scale(0.1 -0.1)">
       <use xlink:href="#DejaVuSans-35"/>
       <use x="63.623047" xlink:href="#DejaVuSans-30"/>
       <use x="127.246094" xlink:href="#DejaVuSans-30"/>
       <use x="190.869141" xlink:href="#DejaVuSans-30"/>
      </g>
     </g>
    </g>
    <g id="ytick_11">
     <g id="line2d_43">
      <path clip-path="url(#p0dd3dcc3dd)" d="M 303.19 192.900576 
L 478.8 192.900576 
" style="fill:none;stroke:#b0b0b0;stroke-linecap:square;stroke-width:0.8;"/>
     </g>
     <g id="line2d_44">
      <g>
       <use style="stroke:#000000;stroke-width:0.8;" x="303.19" xlink:href="#m49db297e6b" y="192.900576"/>
      </g>
     </g>
     <g id="text_14">
      <!-- 7500 -->
      <g transform="translate(270.74 196.699795)scale(0.1 -0.1)">
       <use xlink:href="#DejaVuSans-37"/>
       <use x="63.623047" xlink:href="#DejaVuSans-35"/>
       <use x="127.246094" xlink:href="#DejaVuSans-30"/>
       <use x="190.869141" xlink:href="#DejaVuSans-30"/>
      </g>
     </g>
    </g>
    <g id="ytick_12">
     <g id="line2d_45">
      <path clip-path="url(#p0dd3dcc3dd)" d="M 303.19 169.245313 
L 478.8 169.245313 
" style="fill:none;stroke:#b0b0b0;stroke-linecap:square;stroke-width:0.8;"/>
     </g>
     <g id="line2d_46">
      <g>
       <use style="stroke:#000000;stroke-width:0.8;" x="303.19" xlink:href="#m49db297e6b" y="169.245313"/>
      </g>
     </g>
     <g id="text_15">
      <!-- 10000 -->
      <g transform="translate(264.3775 173.044532)scale(0.1 -0.1)">
       <use xlink:href="#DejaVuSans-31"/>
       <use x="63.623047" xlink:href="#DejaVuSans-30"/>
       <use x="127.246094" xlink:href="#DejaVuSans-30"/>
       <use x="190.869141" xlink:href="#DejaVuSans-30"/>
       <use x="254.492188" xlink:href="#DejaVuSans-30"/>
      </g>
     </g>
    </g>
    <g id="ytick_13">
     <g id="line2d_47">
      <path clip-path="url(#p0dd3dcc3dd)" d="M 303.19 145.590051 
L 478.8 145.590051 
" style="fill:none;stroke:#b0b0b0;stroke-linecap:square;stroke-width:0.8;"/>
     </g>
     <g id="line2d_48">
      <g>
       <use style="stroke:#000000;stroke-width:0.8;" x="303.19" xlink:href="#m49db297e6b" y="145.590051"/>
      </g>
     </g>
     <g id="text_16">
      <!-- 12500 -->
      <g transform="translate(264.3775 149.38927)scale(0.1 -0.1)">
       <use xlink:href="#DejaVuSans-31"/>
       <use x="63.623047" xlink:href="#DejaVuSans-32"/>
       <use x="127.246094" xlink:href="#DejaVuSans-35"/>
       <use x="190.869141" xlink:href="#DejaVuSans-30"/>
       <use x="254.492188" xlink:href="#DejaVuSans-30"/>
      </g>
     </g>
    </g>
    <g id="ytick_14">
     <g id="line2d_49">
      <path clip-path="url(#p0dd3dcc3dd)" d="M 303.19 121.934788 
L 478.8 121.934788 
" style="fill:none;stroke:#b0b0b0;stroke-linecap:square;stroke-width:0.8;"/>
     </g>
     <g id="line2d_50">
      <g>
       <use style="stroke:#000000;stroke-width:0.8;" x="303.19" xlink:href="#m49db297e6b" y="121.934788"/>
      </g>
     </g>
     <g id="text_17">
      <!-- 15000 -->
      <g transform="translate(264.3775 125.734007)scale(0.1 -0.1)">
       <use xlink:href="#DejaVuSans-31"/>
       <use x="63.623047" xlink:href="#DejaVuSans-35"/>
       <use x="127.246094" xlink:href="#DejaVuSans-30"/>
       <use x="190.869141" xlink:href="#DejaVuSans-30"/>
       <use x="254.492188" xlink:href="#DejaVuSans-30"/>
      </g>
     </g>
    </g>
    <g id="ytick_15">
     <g id="line2d_51">
      <path clip-path="url(#p0dd3dcc3dd)" d="M 303.19 98.279526 
L 478.8 98.279526 
" style="fill:none;stroke:#b0b0b0;stroke-linecap:square;stroke-width:0.8;"/>
     </g>
     <g id="line2d_52">
      <g>
       <use style="stroke:#000000;stroke-width:0.8;" x="303.19" xlink:href="#m49db297e6b" y="98.279526"/>
      </g>
     </g>
     <g id="text_18">
      <!-- 17500 -->
      <g transform="translate(264.3775 102.078744)scale(0.1 -0.1)">
       <use xlink:href="#DejaVuSans-31"/>
       <use x="63.623047" xlink:href="#DejaVuSans-37"/>
       <use x="127.246094" xlink:href="#DejaVuSans-35"/>
       <use x="190.869141" xlink:href="#DejaVuSans-30"/>
       <use x="254.492188" xlink:href="#DejaVuSans-30"/>
      </g>
     </g>
    </g>
   </g>
   <g id="line2d_53">
    <path clip-path="url(#p0dd3dcc3dd)" d="M 311.172273 263.866364 
L 311.305338 121.727951 
L 311.338605 121.727951 
L 311.47167 123.522999 
L 311.504937 123.522999 
L 311.638002 124.719005 
L 311.671269 124.719005 
L 311.804334 125.512466 
L 311.837601 125.512466 
L 311.970666 126.037008 
L 312.003933 126.037008 
L 312.136998 126.382635 
L 312.170265 126.382635 
L 312.30333 126.609575 
L 312.336597 126.609575 
L 312.469662 126.757952 
L 312.669261 126.854417 
L 312.802326 126.916636 
L 351.258285 126.964567 
L 351.391351 89.593636 
L 351.424617 89.593636 
L 351.557683 100.602531 
L 351.590949 100.602531 
L 351.724015 108.127695 
L 351.757281 108.127695 
L 351.890347 119.804072 
L 351.923613 119.804072 
L 352.056679 132.084389 
L 352.089945 132.084389 
L 352.223011 133.418438 
L 352.256277 133.418438 
L 352.389343 132.261653 
L 352.422609 132.261653 
L 352.555675 129.894283 
L 352.588941 129.894283 
L 352.722007 129.645987 
L 352.755273 129.645987 
L 352.888339 131.241745 
L 352.921605 131.241745 
L 353.054671 132.230073 
L 353.087937 132.230073 
L 353.221003 131.564155 
L 353.254269 131.564155 
L 353.387335 130.515801 
L 353.420601 130.515801 
L 353.553667 130.278791 
L 353.586933 130.278791 
L 353.719999 130.431172 
L 353.753265 130.431172 
L 353.886331 130.155345 
L 353.919597 130.155345 
L 354.052663 129.610542 
L 354.085929 129.610542 
L 354.218995 129.339627 
L 354.418593 129.278185 
L 354.551659 129.06871 
L 354.584925 129.06871 
L 354.717991 128.752902 
L 354.751257 128.752902 
L 354.884323 128.584581 
L 355.083921 128.538091 
L 355.216987 128.423421 
L 355.250253 128.423421 
L 355.383319 128.24224 
L 355.416585 128.24224 
L 355.549651 128.127525 
L 355.915581 128.022665 
L 356.048647 127.919071 
L 356.248245 127.838975 
L 356.447843 127.75714 
L 356.747241 127.693488 
L 356.880307 127.636014 
L 357.412569 127.528797 
L 357.612167 127.462302 
L 358.743225 127.355287 
L 359.075889 127.334077 
L 359.208955 124.237272 
L 359.242221 124.237272 
L 359.375287 131.087354 
L 359.408553 131.087354 
L 359.541619 129.958128 
L 359.574885 129.958128 
L 359.707951 125.164298 
L 359.741217 125.164298 
L 359.874283 125.047344 
L 359.907549 125.047344 
L 360.040615 128.204242 
L 360.073881 128.204242 
L 360.206947 128.832148 
L 360.240213 128.832148 
L 360.373279 126.775625 
L 360.406545 126.775625 
L 360.539611 125.937476 
L 360.572877 125.937476 
L 360.705943 127.209047 
L 360.739209 127.209047 
L 360.872275 128.059583 
L 360.905541 128.059583 
L 361.038607 127.312565 
L 361.071873 127.312565 
L 361.204939 126.509511 
L 361.238205 126.509511 
L 361.371271 124.103779 
L 361.404537 124.103779 
L 361.537603 130.316864 
L 361.570869 130.316864 
L 361.703935 129.729343 
L 361.737201 129.729343 
L 361.870267 125.252352 
L 362.069865 125.175008 
L 362.202931 128.297397 
L 362.236197 128.297397 
L 362.369263 128.675555 
L 362.402529 128.675555 
L 362.535595 126.503865 
L 362.568861 126.503865 
L 362.701927 125.962041 
L 362.735193 125.962041 
L 362.868259 127.390874 
L 362.901525 127.390874 
L 363.034591 127.907065 
L 363.067857 127.907065 
L 363.200923 126.952245 
L 363.234189 126.952245 
L 363.367255 126.468659 
L 363.400521 126.468659 
L 363.533587 127.062847 
L 363.566853 127.062847 
L 363.699919 127.4486 
L 363.733185 127.4486 
L 363.866251 127.063491 
L 363.899517 127.063491 
L 364.032583 126.740022 
L 364.065849 126.740022 
L 364.198915 126.961411 
L 364.232181 126.961411 
L 364.365247 127.200565 
L 364.398513 127.200565 
L 364.531579 127.063601 
L 364.564845 127.063601 
L 364.697911 126.87395 
L 364.897509 126.941279 
L 365.030575 127.074443 
L 365.230173 127.037065 
L 365.363239 126.93599 
L 470.817727 126.964567 
L 470.817727 126.964567 
" style="fill:none;stroke:#1f77b4;stroke-linecap:square;stroke-opacity:0.7;stroke-width:1.5;"/>
   </g>
   <g id="line2d_54">
    <path clip-path="url(#p0dd3dcc3dd)" d="M 311.172273 263.866364 
L 311.305338 126.916774 
L 312.835593 126.903487 
L 312.968658 126.642665 
L 313.001925 126.642665 
L 313.13499 125.845625 
L 313.168257 125.845625 
L 313.301322 128.272241 
L 313.334589 128.272241 
L 313.467654 129.115413 
L 313.500921 129.115413 
L 313.633986 127.62983 
L 313.667253 127.62983 
L 313.800318 124.864738 
L 313.833585 124.864738 
L 313.96665 123.163538 
L 313.999917 123.163538 
L 314.132982 123.382823 
L 314.166249 123.382823 
L 314.299314 123.621887 
L 314.332581 123.621887 
L 314.465646 122.56393 
L 314.498913 122.56393 
L 314.631978 121.318352 
L 314.831577 121.395804 
L 314.964642 122.823902 
L 314.997909 122.823902 
L 315.130974 124.541934 
L 315.164241 124.541934 
L 315.297306 126.093087 
L 315.330573 126.093087 
L 315.463638 127.039215 
L 315.496905 127.039215 
L 315.62997 127.23319 
L 315.663237 127.23319 
L 315.796302 127.406952 
L 315.995901 127.494306 
L 316.128966 127.235816 
L 316.162233 127.235816 
L 316.295298 126.964918 
L 316.328565 126.964918 
L 316.46163 127.08663 
L 316.494897 127.08663 
L 316.627962 127.392436 
L 316.827561 127.449767 
L 316.960626 127.256645 
L 317.326557 127.346514 
L 317.459622 127.533824 
L 317.659221 127.516215 
L 317.792286 127.389101 
L 317.991885 127.377839 
L 318.12495 127.505378 
L 320.154201 127.412441 
L 320.287266 127.269434 
L 320.320533 127.269434 
L 320.453598 127.143688 
L 320.653197 127.033217 
L 320.786262 126.914501 
L 321.318525 127.019398 
L 321.45159 127.200806 
L 322.316517 127.14583 
L 322.449582 127.063403 
L 351.258285 126.962646 
L 351.391351 113.719402 
L 351.424617 113.719402 
L 351.557683 114.276844 
L 351.590949 114.276844 
L 351.724015 115.064576 
L 351.757281 115.064576 
L 351.890347 117.615674 
L 351.923613 117.615674 
L 352.056679 121.413644 
L 352.089945 121.413644 
L 352.223011 123.197868 
L 352.256277 123.197868 
L 352.389343 122.420937 
L 352.422609 122.420937 
L 352.555675 126.544928 
L 352.588941 126.544928 
L 352.722007 131.884338 
L 352.755273 131.884338 
L 352.888339 135.037319 
L 352.921605 135.037319 
L 353.054671 135.350354 
L 353.087937 135.350354 
L 353.221003 134.885486 
L 353.254269 134.885486 
L 353.387335 133.488601 
L 353.420601 133.488601 
L 353.553667 128.871518 
L 353.586933 128.871518 
L 353.719999 124.908662 
L 353.753265 124.908662 
L 353.886331 122.969485 
L 353.919597 122.969485 
L 354.052663 122.279162 
L 354.085929 122.279162 
L 354.218995 121.901801 
L 354.252261 121.901801 
L 354.385327 122.132346 
L 354.418593 122.132346 
L 354.551659 124.595045 
L 354.584925 124.595045 
L 354.717991 128.337256 
L 354.751257 128.337256 
L 354.884323 131.716053 
L 354.917589 131.716053 
L 355.050655 133.403387 
L 355.083921 133.403387 
L 355.216987 133.234743 
L 355.250253 133.234743 
L 355.383319 131.463472 
L 355.416585 131.463472 
L 355.549651 128.762919 
L 355.582917 128.762919 
L 355.715983 127.076357 
L 355.749249 127.076357 
L 355.882315 126.58637 
L 356.081913 126.630891 
L 356.214979 127.069525 
L 356.248245 127.069525 
L 356.381311 127.591325 
L 356.414577 127.591325 
L 356.547643 127.852546 
L 357.745233 127.786299 
L 357.878299 127.655054 
L 357.911565 127.655054 
L 358.044631 127.529894 
L 358.244229 127.428375 
L 358.377295 127.329618 
L 358.576893 127.23469 
L 358.709959 127.139804 
L 358.909557 127.064219 
L 359.042623 127.00861 
L 359.242221 126.956093 
L 359.375287 126.879553 
L 359.574885 126.798284 
L 359.707951 126.739338 
L 362.568861 126.828825 
L 362.768459 126.930765 
L 363.067857 126.992105 
L 363.200923 127.051351 
L 363.566853 127.15039 
L 363.766451 127.226244 
L 367.226157 127.130064 
L 367.459022 127.075727 
L 368.723145 126.965111 
L 369.122342 126.936813 
L 373.879437 127.047664 
L 376.540749 126.998447 
L 377.505475 126.972477 
L 470.817727 126.964573 
L 470.817727 126.964573 
" style="fill:none;stroke:#d62728;stroke-linecap:square;stroke-opacity:0.7;stroke-width:1.5;"/>
   </g>
   <g id="patch_8">
    <path d="M 303.19 272.58 
L 303.19 80.88 
" style="fill:none;stroke:#000000;stroke-linecap:square;stroke-linejoin:miter;stroke-width:0.8;"/>
   </g>
   <g id="patch_9">
    <path d="M 478.8 272.58 
L 478.8 80.88 
" style="fill:none;stroke:#000000;stroke-linecap:square;stroke-linejoin:miter;stroke-width:0.8;"/>
   </g>
   <g id="patch_10">
    <path d="M 303.19 272.58 
L 478.8 272.58 
" style="fill:none;stroke:#000000;stroke-linecap:square;stroke-linejoin:miter;stroke-width:0.8;"/>
   </g>
   <g id="patch_11">
    <path d="M 303.19 80.88 
L 478.8 80.88 
" style="fill:none;stroke:#000000;stroke-linecap:square;stroke-linejoin:miter;stroke-width:0.8;"/>
   </g>
   <g id="text_19">
    <!-- RPM1 (rpm) -->
    <g transform="translate(355.505 74.88)scale(0.12 -0.12)">
     <use xlink:href="#DejaVuSans-52"/>
     <use x="69.482422" xlink:href="#DejaVuSans-50"/>
     <use x="129.785156" xlink:href="#DejaVuSans-4d"/>
     <use x="216.064453" xlink:href="#DejaVuSans-31"/>
     <use x="279.6875" xlink:href="#DejaVuSans-20"/>
     <use x="311.474609" xlink:href="#DejaVuSans-28"/>
     <use x="350.488281" xlink:href="#DejaVuSans-72"/>
     <use x="391.601562" xlink:href="#DejaVuSans-70"/>
     <use x="455.078125" xlink:href="#DejaVuSans-6d"/>
     <use x="552.490234" xlink:href="#DejaVuSans-29"/>
    </g>
   </g>
  </g>
  <g id="axes_3">
   <g id="patch_12">
    <path d="M 78.19 505.24 
L 253.8 505.24 
L 253.8 313.54 
L 78.19 313.54 
z
" style="fill:#ffffff;"/>
   </g>
   <g id="matplotlib.axis_5">
    <g id="xtick_11">
     <g id="line2d_55">
      <path clip-path="url(#pfc93812910)" d="M 86.172273 505.24 
L 86.172273 313.54 
" style="fill:none;stroke:#b0b0b0;stroke-linecap:square;stroke-width:0.8;"/>
     </g>
     <g id="line2d_56">
      <g>
       <use style="stroke:#000000;stroke-width:0.8;" x="86.172273" xlink:href="#m1fb1333ce3" y="505.24"/>
      </g>
     </g>
     <g id="text_20">
      <!-- 0 -->
      <g transform="translate(82.991023 519.838438)scale(0.1 -0.1)">
       <use xlink:href="#DejaVuSans-30"/>
      </g>
     </g>
    </g>
    <g id="xtick_12">
     <g id="line2d_57">
      <path clip-path="url(#pfc93812910)" d="M 126.091953 505.24 
L 126.091953 313.54 
" style="fill:none;stroke:#b0b0b0;stroke-linecap:square;stroke-width:0.8;"/>
     </g>
     <g id="line2d_58">
      <g>
       <use style="stroke:#000000;stroke-width:0.8;" x="126.091953" xlink:href="#m1fb1333ce3" y="505.24"/>
      </g>
     </g>
     <g id="text_21">
      <!-- 5 -->
      <g transform="translate(122.910703 519.838438)scale(0.1 -0.1)">
       <use xlink:href="#DejaVuSans-35"/>
      </g>
     </g>
    </g>
    <g id="xtick_13">
     <g id="line2d_59">
      <path clip-path="url(#pfc93812910)" d="M 166.011633 505.24 
L 166.011633 313.54 
" style="fill:none;stroke:#b0b0b0;stroke-linecap:square;stroke-width:0.8;"/>
     </g>
     <g id="line2d_60">
      <g>
       <use style="stroke:#000000;stroke-width:0.8;" x="166.011633" xlink:href="#m1fb1333ce3" y="505.24"/>
      </g>
     </g>
     <g id="text_22">
      <!-- 10 -->
      <g transform="translate(159.649133 519.838438)scale(0.1 -0.1)">
       <use xlink:href="#DejaVuSans-31"/>
       <use x="63.623047" xlink:href="#DejaVuSans-30"/>
      </g>
     </g>
    </g>
    <g id="xtick_14">
     <g id="line2d_61">
      <path clip-path="url(#pfc93812910)" d="M 205.931313 505.24 
L 205.931313 313.54 
" style="fill:none;stroke:#b0b0b0;stroke-linecap:square;stroke-width:0.8;"/>
     </g>
     <g id="line2d_62">
      <g>
       <use style="stroke:#000000;stroke-width:0.8;" x="205.931313" xlink:href="#m1fb1333ce3" y="505.24"/>
      </g>
     </g>
     <g id="text_23">
      <!-- 15 -->
      <g transform="translate(199.568813 519.838438)scale(0.1 -0.1)">
       <use xlink:href="#DejaVuSans-31"/>
       <use x="63.623047" xlink:href="#DejaVuSans-35"/>
      </g>
     </g>
    </g>
    <g id="xtick_15">
     <g id="line2d_63">
      <path clip-path="url(#pfc93812910)" d="M 245.850994 505.24 
L 245.850994 313.54 
" style="fill:none;stroke:#b0b0b0;stroke-linecap:square;stroke-width:0.8;"/>
     </g>
     <g id="line2d_64">
      <g>
       <use style="stroke:#000000;stroke-width:0.8;" x="245.850994" xlink:href="#m1fb1333ce3" y="505.24"/>
      </g>
     </g>
     <g id="text_24">
      <!-- 20 -->
      <g transform="translate(239.488494 519.838438)scale(0.1 -0.1)">
       <use xlink:href="#DejaVuSans-32"/>
       <use x="63.623047" xlink:href="#DejaVuSans-30"/>
      </g>
     </g>
    </g>
    <g id="text_25">
     <!-- Tiempo (s) -->
     <g transform="translate(139.4325 533.516562)scale(0.1 -0.1)">
      <use xlink:href="#DejaVuSans-54"/>
      <use x="57.958984" xlink:href="#DejaVuSans-69"/>
      <use x="85.742188" xlink:href="#DejaVuSans-65"/>
      <use x="147.265625" xlink:href="#DejaVuSans-6d"/>
      <use x="244.677734" xlink:href="#DejaVuSans-70"/>
      <use x="308.154297" xlink:href="#DejaVuSans-6f"/>
      <use x="369.335938" xlink:href="#DejaVuSans-20"/>
      <use x="401.123047" xlink:href="#DejaVuSans-28"/>
      <use x="440.136719" xlink:href="#DejaVuSans-73"/>
      <use x="492.236328" xlink:href="#DejaVuSans-29"/>
     </g>
    </g>
   </g>
   <g id="matplotlib.axis_6">
    <g id="ytick_16">
     <g id="line2d_65">
      <path clip-path="url(#pfc93812910)" d="M 78.19 496.526364 
L 253.8 496.526364 
" style="fill:none;stroke:#b0b0b0;stroke-linecap:square;stroke-width:0.8;"/>
     </g>
     <g id="line2d_66">
      <g>
       <use style="stroke:#000000;stroke-width:0.8;" x="78.19" xlink:href="#m49db297e6b" y="496.526364"/>
      </g>
     </g>
     <g id="text_26">
      <!-- 0 -->
      <g transform="translate(64.8275 500.325582)scale(0.1 -0.1)">
       <use xlink:href="#DejaVuSans-30"/>
      </g>
     </g>
    </g>
    <g id="ytick_17">
     <g id="line2d_67">
      <path clip-path="url(#pfc93812910)" d="M 78.19 471.713582 
L 253.8 471.713582 
" style="fill:none;stroke:#b0b0b0;stroke-linecap:square;stroke-width:0.8;"/>
     </g>
     <g id="line2d_68">
      <g>
       <use style="stroke:#000000;stroke-width:0.8;" x="78.19" xlink:href="#m49db297e6b" y="471.713582"/>
      </g>
     </g>
     <g id="text_27">
      <!-- 2500 -->
      <g transform="translate(45.74 475.512801)scale(0.1 -0.1)">
       <use xlink:href="#DejaVuSans-32"/>
       <use x="63.623047" xlink:href="#DejaVuSans-35"/>
       <use x="127.246094" xlink:href="#DejaVuSans-30"/>
       <use x="190.869141" xlink:href="#DejaVuSans-30"/>
      </g>
     </g>
    </g>
    <g id="ytick_18">
     <g id="line2d_69">
      <path clip-path="url(#pfc93812910)" d="M 78.19 446.900801 
L 253.8 446.900801 
" style="fill:none;stroke:#b0b0b0;stroke-linecap:square;stroke-width:0.8;"/>
     </g>
     <g id="line2d_70">
      <g>
       <use style="stroke:#000000;stroke-width:0.8;" x="78.19" xlink:href="#m49db297e6b" y="446.900801"/>
      </g>
     </g>
     <g id="text_28">
      <!-- 5000 -->
      <g transform="translate(45.74 450.70002)scale(0.1 -0.1)">
       <use xlink:href="#DejaVuSans-35"/>
       <use x="63.623047" xlink:href="#DejaVuSans-30"/>
       <use x="127.246094" xlink:href="#DejaVuSans-30"/>
       <use x="190.869141" xlink:href="#DejaVuSans-30"/>
      </g>
     </g>
    </g>
    <g id="ytick_19">
     <g id="line2d_71">
      <path clip-path="url(#pfc93812910)" d="M 78.19 422.08802 
L 253.8 422.08802 
" style="fill:none;stroke:#b0b0b0;stroke-linecap:square;stroke-width:0.8;"/>
     </g>
     <g id="line2d_72">
      <g>
       <use style="stroke:#000000;stroke-width:0.8;" x="78.19" xlink:href="#m49db297e6b" y="422.08802"/>
      </g>
     </g>
     <g id="text_29">
      <!-- 7500 -->
      <g transform="translate(45.74 425.887238)scale(0.1 -0.1)">
       <use xlink:href="#DejaVuSans-37"/>
       <use x="63.623047" xlink:href="#DejaVuSans-35"/>
       <use x="127.246094" xlink:href="#DejaVuSans-30"/>
       <use x="190.869141" xlink:href="#DejaVuSans-30"/>
      </g>
     </g>
    </g>
    <g id="ytick_20">
     <g id="line2d_73">
      <path clip-path="url(#pfc93812910)" d="M 78.19 397.275238 
L 253.8 397.275238 
" style="fill:none;stroke:#b0b0b0;stroke-linecap:square;stroke-width:0.8;"/>
     </g>
     <g id="line2d_74">
      <g>
       <use style="stroke:#000000;stroke-width:0.8;" x="78.19" xlink:href="#m49db297e6b" y="397.275238"/>
      </g>
     </g>
     <g id="text_30">
      <!-- 10000 -->
      <g transform="translate(39.3775 401.074457)scale(0.1 -0.1)">
       <use xlink:href="#DejaVuSans-31"/>
       <use x="63.623047" xlink:href="#DejaVuSans-30"/>
       <use x="127.246094" xlink:href="#DejaVuSans-30"/>
       <use x="190.869141" xlink:href="#DejaVuSans-30"/>
       <use x="254.492188" xlink:href="#DejaVuSans-30"/>
      </g>
     </g>
    </g>
    <g id="ytick_21">
     <g id="line2d_75">
      <path clip-path="url(#pfc93812910)" d="M 78.19 372.462457 
L 253.8 372.462457 
" style="fill:none;stroke:#b0b0b0;stroke-linecap:square;stroke-width:0.8;"/>
     </g>
     <g id="line2d_76">
      <g>
       <use style="stroke:#000000;stroke-width:0.8;" x="78.19" xlink:href="#m49db297e6b" y="372.462457"/>
      </g>
     </g>
     <g id="text_31">
      <!-- 12500 -->
      <g transform="translate(39.3775 376.261676)scale(0.1 -0.1)">
       <use xlink:href="#DejaVuSans-31"/>
       <use x="63.623047" xlink:href="#DejaVuSans-32"/>
       <use x="127.246094" xlink:href="#DejaVuSans-35"/>
       <use x="190.869141" xlink:href="#DejaVuSans-30"/>
       <use x="254.492188" xlink:href="#DejaVuSans-30"/>
      </g>
     </g>
    </g>
    <g id="ytick_22">
     <g id="line2d_77">
      <path clip-path="url(#pfc93812910)" d="M 78.19 347.649675 
L 253.8 347.649675 
" style="fill:none;stroke:#b0b0b0;stroke-linecap:square;stroke-width:0.8;"/>
     </g>
     <g id="line2d_78">
      <g>
       <use style="stroke:#000000;stroke-width:0.8;" x="78.19" xlink:href="#m49db297e6b" y="347.649675"/>
      </g>
     </g>
     <g id="text_32">
      <!-- 15000 -->
      <g transform="translate(39.3775 351.448894)scale(0.1 -0.1)">
       <use xlink:href="#DejaVuSans-31"/>
       <use x="63.623047" xlink:href="#DejaVuSans-35"/>
       <use x="127.246094" xlink:href="#DejaVuSans-30"/>
       <use x="190.869141" xlink:href="#DejaVuSans-30"/>
       <use x="254.492188" xlink:href="#DejaVuSans-30"/>
      </g>
     </g>
    </g>
    <g id="ytick_23">
     <g id="line2d_79">
      <path clip-path="url(#pfc93812910)" d="M 78.19 322.836894 
L 253.8 322.836894 
" style="fill:none;stroke:#b0b0b0;stroke-linecap:square;stroke-width:0.8;"/>
     </g>
     <g id="line2d_80">
      <g>
       <use style="stroke:#000000;stroke-width:0.8;" x="78.19" xlink:href="#m49db297e6b" y="322.836894"/>
      </g>
     </g>
     <g id="text_33">
      <!-- 17500 -->
      <g transform="translate(39.3775 326.636113)scale(0.1 -0.1)">
       <use xlink:href="#DejaVuSans-31"/>
       <use x="63.623047" xlink:href="#DejaVuSans-37"/>
       <use x="127.246094" xlink:href="#DejaVuSans-35"/>
       <use x="190.869141" xlink:href="#DejaVuSans-30"/>
       <use x="254.492188" xlink:href="#DejaVuSans-30"/>
      </g>
     </g>
    </g>
   </g>
   <g id="line2d_81">
    <path clip-path="url(#pfc93812910)" d="M 86.172273 496.526364 
L 86.305338 347.432717 
L 86.338605 347.432717 
L 86.47167 349.315602 
L 86.504937 349.315602 
L 86.638002 350.570131 
L 86.671269 350.570131 
L 86.804334 351.402419 
L 86.837601 351.402419 
L 86.970666 351.952628 
L 87.003933 351.952628 
L 87.136998 352.315168 
L 87.170265 352.315168 
L 87.30333 352.553212 
L 87.336597 352.553212 
L 87.469662 352.70885 
L 87.669261 352.810035 
L 87.802326 352.875299 
L 126.258285 352.925576 
L 126.391351 322.253636 
L 126.424617 322.253636 
L 126.557683 333.801228 
L 126.590949 333.801228 
L 126.724015 341.694619 
L 126.757281 341.694619 
L 126.890347 342.077606 
L 126.923613 342.077606 
L 127.056679 350.850845 
L 127.089945 350.850845 
L 127.223011 354.187968 
L 127.256277 354.187968 
L 127.389343 355.673696 
L 127.588941 355.595884 
L 127.722007 359.028773 
L 127.755273 359.028773 
L 127.888339 361.090027 
L 127.921605 361.090027 
L 128.054671 358.741187 
L 128.087937 358.741187 
L 128.221003 356.405149 
L 128.254269 356.405149 
L 128.387335 357.311068 
L 128.420601 357.311068 
L 128.553667 358.638932 
L 128.586933 358.638932 
L 128.719999 357.607378 
L 128.753265 357.607378 
L 128.886331 355.779669 
L 128.919597 355.779669 
L 129.052663 355.367134 
L 129.085929 355.367134 
L 129.218995 355.699949 
L 129.252261 355.699949 
L 129.385327 355.243482 
L 129.418593 355.243482 
L 129.551659 354.253015 
L 129.584925 354.253015 
L 129.717991 353.775954 
L 129.917589 353.768504 
L 130.050655 353.537489 
L 130.083921 353.537489 
L 130.216987 353.041579 
L 130.250253 353.041579 
L 130.383319 352.739904 
L 130.749249 352.63808 
L 130.882315 352.446212 
L 130.915581 352.446212 
L 131.048647 352.324131 
L 131.747241 352.389863 
L 131.880307 352.471674 
L 132.079905 352.575664 
L 132.212971 352.654596 
L 132.412569 352.732499 
L 132.545635 352.84009 
L 132.578901 352.84009 
L 132.711967 352.959811 
L 132.911565 353.064233 
L 133.044631 353.158772 
L 133.244229 353.2599 
L 133.377295 353.362764 
L 133.576893 353.452631 
L 133.709959 353.52886 
L 133.909557 353.599674 
L 134.042623 353.664765 
L 134.075889 353.664765 
L 134.208955 354.550378 
L 134.242221 354.550378 
L 134.375287 352.513085 
L 134.408553 352.513085 
L 134.541619 353.218484 
L 134.574885 353.218484 
L 134.707951 355.040114 
L 134.741217 355.040114 
L 134.874283 354.313222 
L 134.907549 354.313222 
L 135.040615 352.730332 
L 135.073881 352.730332 
L 135.206947 353.371271 
L 135.240213 353.371271 
L 135.373279 354.744374 
L 135.406545 354.744374 
L 135.539611 354.176989 
L 135.572877 354.176989 
L 135.705943 352.855894 
L 135.739209 352.855894 
L 135.872275 353.13371 
L 135.905541 353.13371 
L 136.038607 354.206754 
L 136.071873 354.206754 
L 136.204939 354.02627 
L 136.238205 354.02627 
L 136.371271 352.846466 
L 136.404537 352.846466 
L 136.537603 353.113397 
L 136.570869 353.113397 
L 136.703935 353.721293 
L 136.737201 353.721293 
L 136.870267 353.602141 
L 136.903533 353.602141 
L 137.036599 353.04223 
L 137.069865 353.04223 
L 137.202931 352.920334 
L 137.236197 352.920334 
L 137.369263 353.194907 
L 137.568861 353.247454 
L 137.701927 352.995761 
L 137.735193 352.995761 
L 137.868259 352.856251 
L 138.067857 352.941853 
L 138.234189 352.989203 
L 138.367255 352.884401 
L 142.392489 352.995084 
L 143.224149 353.009088 
L 148.513507 352.91334 
L 245.817727 352.925575 
L 245.817727 352.925575 
" style="fill:none;stroke:#1f77b4;stroke-linecap:square;stroke-opacity:0.7;stroke-width:1.5;"/>
   </g>
   <g id="line2d_82">
    <path clip-path="url(#pfc93812910)" d="M 86.172273 496.526364 
L 86.305338 352.346608 
L 87.835593 352.312272 
L 87.968658 352.139429 
L 88.001925 352.139429 
L 88.13499 351.788483 
L 88.168257 351.788483 
L 88.301322 353.241538 
L 88.500921 353.176223 
L 88.633986 352.564705 
L 88.667253 352.564705 
L 88.800318 351.29592 
L 88.833585 351.29592 
L 88.96665 349.806952 
L 88.999917 349.806952 
L 89.132982 349.083884 
L 89.166249 349.083884 
L 89.299314 349.250593 
L 89.332581 349.250593 
L 89.465646 349.870029 
L 89.498913 349.870029 
L 89.631978 350.626852 
L 89.665245 350.626852 
L 89.79831 351.392734 
L 89.831577 351.392734 
L 89.964642 352.220218 
L 89.997909 352.220218 
L 90.130974 352.925776 
L 90.164241 352.925776 
L 90.297306 353.044762 
L 90.330573 353.044762 
L 90.463638 352.702787 
L 90.496905 352.702787 
L 90.62997 352.520937 
L 90.829569 352.58511 
L 90.962634 352.731536 
L 90.995901 352.731536 
L 91.128966 352.910024 
L 91.328565 352.901549 
L 91.46163 352.697685 
L 91.661229 352.622473 
L 91.794294 352.816652 
L 91.827561 352.816652 
L 91.960626 353.012047 
L 92.160225 352.966438 
L 92.29329 352.82623 
L 92.492889 352.853641 
L 92.625954 353.014673 
L 95.154201 353.102531 
L 95.287266 353.249973 
L 95.320533 353.249973 
L 95.453598 353.440131 
L 95.486865 353.440131 
L 95.61993 353.672343 
L 95.653197 353.672343 
L 95.786262 353.889042 
L 96.152193 353.901781 
L 96.285258 353.622631 
L 96.318525 353.622631 
L 96.45159 353.271958 
L 96.484857 353.271958 
L 96.617922 352.983084 
L 96.651189 352.983084 
L 96.784254 352.827343 
L 97.316517 352.923109 
L 97.449582 353.072396 
L 97.482849 353.072396 
L 97.615914 353.192234 
L 98.480841 353.157086 
L 98.613906 353.071659 
L 108.959757 352.960884 
L 115.646303 352.936242 
L 126.258285 352.923885 
L 126.391351 337.899661 
L 126.424617 337.899661 
L 126.557683 337.369535 
L 126.590949 337.369535 
L 126.724015 342.466045 
L 126.757281 342.466045 
L 126.890347 346.926513 
L 126.923613 346.926513 
L 127.056679 352.85294 
L 127.089945 352.85294 
L 127.223011 361.53729 
L 127.256277 361.53729 
L 127.389343 364.896725 
L 127.422609 364.896725 
L 127.555675 360.919062 
L 127.588941 360.919062 
L 127.722007 355.92882 
L 127.755273 355.92882 
L 127.888339 352.10527 
L 127.921605 352.10527 
L 128.054671 349.556027 
L 128.087937 349.556027 
L 128.221003 346.239276 
L 128.254269 346.239276 
L 128.387335 346.478188 
L 128.420601 346.478188 
L 128.553667 352.244225 
L 128.586933 352.244225 
L 128.719999 356.494573 
L 128.753265 356.494573 
L 128.886331 358.758486 
L 128.919597 358.758486 
L 129.052663 360.1145 
L 129.085929 360.1145 
L 129.218995 361.042763 
L 129.418593 360.945708 
L 129.551659 358.069269 
L 129.584925 358.069269 
L 129.717991 353.543292 
L 129.751257 353.543292 
L 129.884323 350.083106 
L 129.917589 350.083106 
L 130.050655 348.247576 
L 130.083921 348.247576 
L 130.216987 347.548675 
L 130.250253 347.548675 
L 130.383319 348.062499 
L 130.416585 348.062499 
L 130.549651 350.197015 
L 130.582917 350.197015 
L 130.715983 351.990554 
L 130.749249 351.990554 
L 130.882315 352.893043 
L 131.081913 353.003024 
L 131.214979 352.528876 
L 131.248245 352.528876 
L 131.381311 352.031007 
L 132.079905 352.121896 
L 132.346036 352.273092 
L 132.578901 352.372471 
L 132.811766 352.403801 
L 133.077897 352.487033 
L 133.210963 352.637196 
L 133.244229 352.637196 
L 133.377295 352.788535 
L 133.410561 352.788535 
L 133.543627 352.90121 
L 133.576893 352.90121 
L 133.709959 353.037123 
L 133.743225 353.037123 
L 133.876291 353.222638 
L 133.909557 353.222638 
L 134.042623 353.398776 
L 134.075889 353.398776 
L 134.208955 353.513061 
L 134.408553 353.58293 
L 134.541619 353.645962 
L 135.406545 353.747413 
L 135.739209 353.752469 
L 136.00534 353.726349 
L 136.570869 353.62098 
L 136.703935 353.544067 
L 137.069865 353.45405 
L 137.269463 353.340434 
L 137.568861 353.274881 
L 137.735193 353.229162 
L 137.934791 353.163433 
L 138.400521 353.060463 
L 138.533587 353.005875 
L 138.733185 352.950519 
L 138.866251 352.892693 
L 139.232181 352.795828 
L 139.431779 352.755756 
L 141.394497 352.845813 
L 141.627362 352.89288 
L 142.392489 352.988198 
L 142.65862 353.029768 
L 147.715113 352.926476 
L 148.247375 352.900788 
L 245.817727 352.925583 
L 245.817727 352.925583 
" style="fill:none;stroke:#d62728;stroke-linecap:square;stroke-opacity:0.7;stroke-width:1.5;"/>
   </g>
   <g id="patch_13">
    <path d="M 78.19 505.24 
L 78.19 313.54 
" style="fill:none;stroke:#000000;stroke-linecap:square;stroke-linejoin:miter;stroke-width:0.8;"/>
   </g>
   <g id="patch_14">
    <path d="M 253.8 505.24 
L 253.8 313.54 
" style="fill:none;stroke:#000000;stroke-linecap:square;stroke-linejoin:miter;stroke-width:0.8;"/>
   </g>
   <g id="patch_15">
    <path d="M 78.19 505.24 
L 253.8 505.24 
" style="fill:none;stroke:#000000;stroke-linecap:square;stroke-linejoin:miter;stroke-width:0.8;"/>
   </g>
   <g id="patch_16">
    <path d="M 78.19 313.54 
L 253.8 313.54 
" style="fill:none;stroke:#000000;stroke-linecap:square;stroke-linejoin:miter;stroke-width:0.8;"/>
   </g>
   <g id="text_34">
    <!-- RPM2 (rpm) -->
    <g transform="translate(130.505 307.54)scale(0.12 -0.12)">
     <use xlink:href="#DejaVuSans-52"/>
     <use x="69.482422" xlink:href="#DejaVuSans-50"/>
     <use x="129.785156" xlink:href="#DejaVuSans-4d"/>
     <use x="216.064453" xlink:href="#DejaVuSans-32"/>
     <use x="279.6875" xlink:href="#DejaVuSans-20"/>
     <use x="311.474609" xlink:href="#DejaVuSans-28"/>
     <use x="350.488281" xlink:href="#DejaVuSans-72"/>
     <use x="391.601562" xlink:href="#DejaVuSans-70"/>
     <use x="455.078125" xlink:href="#DejaVuSans-6d"/>
     <use x="552.490234" xlink:href="#DejaVuSans-29"/>
    </g>
   </g>
  </g>
  <g id="axes_4">
   <g id="patch_17">
    <path d="M 303.19 505.24 
L 478.8 505.24 
L 478.8 313.54 
L 303.19 313.54 
z
" style="fill:#ffffff;"/>
   </g>
   <g id="matplotlib.axis_7">
    <g id="xtick_16">
     <g id="line2d_83">
      <path clip-path="url(#pb54a20f1f9)" d="M 311.172273 505.24 
L 311.172273 313.54 
" style="fill:none;stroke:#b0b0b0;stroke-linecap:square;stroke-width:0.8;"/>
     </g>
     <g id="line2d_84">
      <g>
       <use style="stroke:#000000;stroke-width:0.8;" x="311.172273" xlink:href="#m1fb1333ce3" y="505.24"/>
      </g>
     </g>
     <g id="text_35">
      <!-- 0 -->
      <g transform="translate(307.991023 519.838438)scale(0.1 -0.1)">
       <use xlink:href="#DejaVuSans-30"/>
      </g>
     </g>
    </g>
    <g id="xtick_17">
     <g id="line2d_85">
      <path clip-path="url(#pb54a20f1f9)" d="M 351.091953 505.24 
L 351.091953 313.54 
" style="fill:none;stroke:#b0b0b0;stroke-linecap:square;stroke-width:0.8;"/>
     </g>
     <g id="line2d_86">
      <g>
       <use style="stroke:#000000;stroke-width:0.8;" x="351.091953" xlink:href="#m1fb1333ce3" y="505.24"/>
      </g>
     </g>
     <g id="text_36">
      <!-- 5 -->
      <g transform="translate(347.910703 519.838438)scale(0.1 -0.1)">
       <use xlink:href="#DejaVuSans-35"/>
      </g>
     </g>
    </g>
    <g id="xtick_18">
     <g id="line2d_87">
      <path clip-path="url(#pb54a20f1f9)" d="M 391.011633 505.24 
L 391.011633 313.54 
" style="fill:none;stroke:#b0b0b0;stroke-linecap:square;stroke-width:0.8;"/>
     </g>
     <g id="line2d_88">
      <g>
       <use style="stroke:#000000;stroke-width:0.8;" x="391.011633" xlink:href="#m1fb1333ce3" y="505.24"/>
      </g>
     </g>
     <g id="text_37">
      <!-- 10 -->
      <g transform="translate(384.649133 519.838438)scale(0.1 -0.1)">
       <use xlink:href="#DejaVuSans-31"/>
       <use x="63.623047" xlink:href="#DejaVuSans-30"/>
      </g>
     </g>
    </g>
    <g id="xtick_19">
     <g id="line2d_89">
      <path clip-path="url(#pb54a20f1f9)" d="M 430.931313 505.24 
L 430.931313 313.54 
" style="fill:none;stroke:#b0b0b0;stroke-linecap:square;stroke-width:0.8;"/>
     </g>
     <g id="line2d_90">
      <g>
       <use style="stroke:#000000;stroke-width:0.8;" x="430.931313" xlink:href="#m1fb1333ce3" y="505.24"/>
      </g>
     </g>
     <g id="text_38">
      <!-- 15 -->
      <g transform="translate(424.568813 519.838438)scale(0.1 -0.1)">
       <use xlink:href="#DejaVuSans-31"/>
       <use x="63.623047" xlink:href="#DejaVuSans-35"/>
      </g>
     </g>
    </g>
    <g id="xtick_20">
     <g id="line2d_91">
      <path clip-path="url(#pb54a20f1f9)" d="M 470.850994 505.24 
L 470.850994 313.54 
" style="fill:none;stroke:#b0b0b0;stroke-linecap:square;stroke-width:0.8;"/>
     </g>
     <g id="line2d_92">
      <g>
       <use style="stroke:#000000;stroke-width:0.8;" x="470.850994" xlink:href="#m1fb1333ce3" y="505.24"/>
      </g>
     </g>
     <g id="text_39">
      <!-- 20 -->
      <g transform="translate(464.488494 519.838438)scale(0.1 -0.1)">
       <use xlink:href="#DejaVuSans-32"/>
       <use x="63.623047" xlink:href="#DejaVuSans-30"/>
      </g>
     </g>
    </g>
    <g id="text_40">
     <!-- Tiempo (s) -->
     <g transform="translate(364.4325 533.516562)scale(0.1 -0.1)">
      <use xlink:href="#DejaVuSans-54"/>
      <use x="57.958984" xlink:href="#DejaVuSans-69"/>
      <use x="85.742188" xlink:href="#DejaVuSans-65"/>
      <use x="147.265625" xlink:href="#DejaVuSans-6d"/>
      <use x="244.677734" xlink:href="#DejaVuSans-70"/>
      <use x="308.154297" xlink:href="#DejaVuSans-6f"/>
      <use x="369.335938" xlink:href="#DejaVuSans-20"/>
      <use x="401.123047" xlink:href="#DejaVuSans-28"/>
      <use x="440.136719" xlink:href="#DejaVuSans-73"/>
      <use x="492.236328" xlink:href="#DejaVuSans-29"/>
     </g>
    </g>
   </g>
   <g id="matplotlib.axis_8">
    <g id="ytick_24">
     <g id="line2d_93">
      <path clip-path="url(#pb54a20f1f9)" d="M 303.19 496.526364 
L 478.8 496.526364 
" style="fill:none;stroke:#b0b0b0;stroke-linecap:square;stroke-width:0.8;"/>
     </g>
     <g id="line2d_94">
      <g>
       <use style="stroke:#000000;stroke-width:0.8;" x="303.19" xlink:href="#m49db297e6b" y="496.526364"/>
      </g>
     </g>
     <g id="text_41">
      <!-- 0 -->
      <g transform="translate(289.8275 500.325582)scale(0.1 -0.1)">
       <use xlink:href="#DejaVuSans-30"/>
      </g>
     </g>
    </g>
    <g id="ytick_25">
     <g id="line2d_95">
      <path clip-path="url(#pb54a20f1f9)" d="M 303.19 472.871101 
L 478.8 472.871101 
" style="fill:none;stroke:#b0b0b0;stroke-linecap:square;stroke-width:0.8;"/>
     </g>
     <g id="line2d_96">
      <g>
       <use style="stroke:#000000;stroke-width:0.8;" x="303.19" xlink:href="#m49db297e6b" y="472.871101"/>
      </g>
     </g>
     <g id="text_42">
      <!-- 2500 -->
      <g transform="translate(270.74 476.67032)scale(0.1 -0.1)">
       <use xlink:href="#DejaVuSans-32"/>
       <use x="63.623047" xlink:href="#DejaVuSans-35"/>
       <use x="127.246094" xlink:href="#DejaVuSans-30"/>
       <use x="190.869141" xlink:href="#DejaVuSans-30"/>
      </g>
     </g>
    </g>
    <g id="ytick_26">
     <g id="line2d_97">
      <path clip-path="url(#pb54a20f1f9)" d="M 303.19 449.215839 
L 478.8 449.215839 
" style="fill:none;stroke:#b0b0b0;stroke-linecap:square;stroke-width:0.8;"/>
     </g>
     <g id="line2d_98">
      <g>
       <use style="stroke:#000000;stroke-width:0.8;" x="303.19" xlink:href="#m49db297e6b" y="449.215839"/>
      </g>
     </g>
     <g id="text_43">
      <!-- 5000 -->
      <g transform="translate(270.74 453.015057)scale(0.1 -0.1)">
       <use xlink:href="#DejaVuSans-35"/>
       <use x="63.623047" xlink:href="#DejaVuSans-30"/>
       <use x="127.246094" xlink:href="#DejaVuSans-30"/>
       <use x="190.869141" xlink:href="#DejaVuSans-30"/>
      </g>
     </g>
    </g>
    <g id="ytick_27">
     <g id="line2d_99">
      <path clip-path="url(#pb54a20f1f9)" d="M 303.19 425.560576 
L 478.8 425.560576 
" style="fill:none;stroke:#b0b0b0;stroke-linecap:square;stroke-width:0.8;"/>
     </g>
     <g id="line2d_100">
      <g>
       <use style="stroke:#000000;stroke-width:0.8;" x="303.19" xlink:href="#m49db297e6b" y="425.560576"/>
      </g>
     </g>
     <g id="text_44">
      <!-- 7500 -->
      <g transform="translate(270.74 429.359795)scale(0.1 -0.1)">
       <use xlink:href="#DejaVuSans-37"/>
       <use x="63.623047" xlink:href="#DejaVuSans-35"/>
       <use x="127.246094" xlink:href="#DejaVuSans-30"/>
       <use x="190.869141" xlink:href="#DejaVuSans-30"/>
      </g>
     </g>
    </g>
    <g id="ytick_28">
     <g id="line2d_101">
      <path clip-path="url(#pb54a20f1f9)" d="M 303.19 401.905313 
L 478.8 401.905313 
" style="fill:none;stroke:#b0b0b0;stroke-linecap:square;stroke-width:0.8;"/>
     </g>
     <g id="line2d_102">
      <g>
       <use style="stroke:#000000;stroke-width:0.8;" x="303.19" xlink:href="#m49db297e6b" y="401.905313"/>
      </g>
     </g>
     <g id="text_45">
      <!-- 10000 -->
      <g transform="translate(264.3775 405.704532)scale(0.1 -0.1)">
       <use xlink:href="#DejaVuSans-31"/>
       <use x="63.623047" xlink:href="#DejaVuSans-30"/>
       <use x="127.246094" xlink:href="#DejaVuSans-30"/>
       <use x="190.869141" xlink:href="#DejaVuSans-30"/>
       <use x="254.492188" xlink:href="#DejaVuSans-30"/>
      </g>
     </g>
    </g>
    <g id="ytick_29">
     <g id="line2d_103">
      <path clip-path="url(#pb54a20f1f9)" d="M 303.19 378.250051 
L 478.8 378.250051 
" style="fill:none;stroke:#b0b0b0;stroke-linecap:square;stroke-width:0.8;"/>
     </g>
     <g id="line2d_104">
      <g>
       <use style="stroke:#000000;stroke-width:0.8;" x="303.19" xlink:href="#m49db297e6b" y="378.250051"/>
      </g>
     </g>
     <g id="text_46">
      <!-- 12500 -->
      <g transform="translate(264.3775 382.04927)scale(0.1 -0.1)">
       <use xlink:href="#DejaVuSans-31"/>
       <use x="63.623047" xlink:href="#DejaVuSans-32"/>
       <use x="127.246094" xlink:href="#DejaVuSans-35"/>
       <use x="190.869141" xlink:href="#DejaVuSans-30"/>
       <use x="254.492188" xlink:href="#DejaVuSans-30"/>
      </g>
     </g>
    </g>
    <g id="ytick_30">
     <g id="line2d_105">
      <path clip-path="url(#pb54a20f1f9)" d="M 303.19 354.594788 
L 478.8 354.594788 
" style="fill:none;stroke:#b0b0b0;stroke-linecap:square;stroke-width:0.8;"/>
     </g>
     <g id="line2d_106">
      <g>
       <use style="stroke:#000000;stroke-width:0.8;" x="303.19" xlink:href="#m49db297e6b" y="354.594788"/>
      </g>
     </g>
     <g id="text_47">
      <!-- 15000 -->
      <g transform="translate(264.3775 358.394007)scale(0.1 -0.1)">
       <use xlink:href="#DejaVuSans-31"/>
       <use x="63.623047" xlink:href="#DejaVuSans-35"/>
       <use x="127.246094" xlink:href="#DejaVuSans-30"/>
       <use x="190.869141" xlink:href="#DejaVuSans-30"/>
       <use x="254.492188" xlink:href="#DejaVuSans-30"/>
      </g>
     </g>
    </g>
    <g id="ytick_31">
     <g id="line2d_107">
      <path clip-path="url(#pb54a20f1f9)" d="M 303.19 330.939526 
L 478.8 330.939526 
" style="fill:none;stroke:#b0b0b0;stroke-linecap:square;stroke-width:0.8;"/>
     </g>
     <g id="line2d_108">
      <g>
       <use style="stroke:#000000;stroke-width:0.8;" x="303.19" xlink:href="#m49db297e6b" y="330.939526"/>
      </g>
     </g>
     <g id="text_48">
      <!-- 17500 -->
      <g transform="translate(264.3775 334.738744)scale(0.1 -0.1)">
       <use xlink:href="#DejaVuSans-31"/>
       <use x="63.623047" xlink:href="#DejaVuSans-37"/>
       <use x="127.246094" xlink:href="#DejaVuSans-35"/>
       <use x="190.869141" xlink:href="#DejaVuSans-30"/>
       <use x="254.492188" xlink:href="#DejaVuSans-30"/>
      </g>
     </g>
    </g>
   </g>
   <g id="line2d_109">
    <path clip-path="url(#pb54a20f1f9)" d="M 311.172273 496.526364 
L 311.305338 354.387951 
L 311.338605 354.387951 
L 311.47167 356.182999 
L 311.504937 356.182999 
L 311.638002 357.379005 
L 311.671269 357.379005 
L 311.804334 358.172466 
L 311.837601 358.172466 
L 311.970666 358.697008 
L 312.003933 358.697008 
L 312.136998 359.042635 
L 312.170265 359.042635 
L 312.30333 359.269575 
L 312.336597 359.269575 
L 312.469662 359.417952 
L 312.669261 359.514417 
L 312.802326 359.576636 
L 351.258285 359.624567 
L 351.391351 322.253636 
L 351.424617 322.253636 
L 351.557683 333.262531 
L 351.590949 333.262531 
L 351.724015 340.787695 
L 351.757281 340.787695 
L 351.890347 357.022113 
L 351.923613 357.022113 
L 352.056679 364.744389 
L 352.089945 364.744389 
L 352.223011 366.078438 
L 352.256277 366.078438 
L 352.389343 362.712401 
L 352.422609 362.712401 
L 352.555675 362.454555 
L 352.588941 362.454555 
L 352.722007 363.318136 
L 352.921605 363.380246 
L 353.054671 363.445765 
L 353.087937 363.445765 
L 353.221003 363.822295 
L 353.254269 363.822295 
L 353.387335 363.626361 
L 353.420601 363.626361 
L 353.553667 362.782165 
L 353.586933 362.782165 
L 353.719999 362.244189 
L 353.919597 362.34825 
L 354.052663 362.43712 
L 354.085929 362.43712 
L 354.218995 362.082859 
L 354.252261 362.082859 
L 354.385327 361.644243 
L 354.418593 361.644243 
L 354.551659 361.508055 
L 354.917589 361.413922 
L 355.050655 361.205699 
L 355.083921 361.205699 
L 355.216987 361.090629 
L 355.582917 361.030337 
L 355.715983 360.929388 
L 355.915581 360.848119 
L 356.115179 360.779366 
L 356.414577 360.710656 
L 356.547643 360.638038 
L 356.913573 360.539474 
L 357.046639 360.477019 
L 357.246237 360.409323 
L 357.379303 360.352912 
L 357.745233 360.251679 
L 357.878299 360.198425 
L 358.244229 360.115121 
L 358.443827 360.043486 
L 359.075889 359.965369 
L 359.208955 362.65281 
L 359.242221 362.65281 
L 359.375287 356.586062 
L 359.408553 356.586062 
L 359.541619 357.674517 
L 359.574885 357.674517 
L 359.707951 362.009012 
L 359.741217 362.009012 
L 359.874283 361.884523 
L 359.907549 361.884523 
L 360.040615 358.813732 
L 360.073881 358.813732 
L 360.206947 358.328662 
L 360.240213 358.328662 
L 360.373279 360.404328 
L 360.406545 360.404328 
L 360.539611 361.204459 
L 360.572877 361.204459 
L 360.705943 359.893809 
L 360.739209 359.893809 
L 360.872275 358.97399 
L 360.905541 358.97399 
L 361.038607 359.676994 
L 361.071873 359.676994 
L 361.204939 360.507003 
L 361.238205 360.507003 
L 361.371271 363.324945 
L 361.404537 363.324945 
L 361.537603 356.435374 
L 361.570869 356.435374 
L 361.703935 356.951001 
L 361.737201 356.951001 
L 361.870267 361.692368 
L 361.903533 361.692368 
L 362.036599 361.875504 
L 362.069865 361.875504 
L 362.202931 358.642794 
L 362.236197 358.642794 
L 362.369263 358.154584 
L 362.402529 358.154584 
L 362.535595 360.314152 
L 362.568861 360.314152 
L 362.701927 360.866074 
L 362.735193 360.866074 
L 362.868259 359.423894 
L 362.901525 359.423894 
L 363.034591 358.882128 
L 363.067857 358.882128 
L 363.200923 359.821226 
L 363.234189 359.821226 
L 363.367255 360.295265 
L 363.400521 360.295265 
L 363.533587 359.693251 
L 363.566853 359.693251 
L 363.699919 359.296238 
L 363.733185 359.296238 
L 363.866251 359.668578 
L 363.899517 359.668578 
L 364.032583 359.982643 
L 364.065849 359.982643 
L 364.198915 359.757072 
L 364.232181 359.757072 
L 364.365247 359.512502 
L 364.398513 359.512502 
L 364.531579 359.639781 
L 364.564845 359.639781 
L 364.697911 359.820288 
L 364.897509 359.748292 
L 365.030575 359.611478 
L 365.230173 359.642545 
L 365.363239 359.7365 
L 375.210093 359.689661 
L 375.343159 359.556336 
L 375.709089 359.665164 
L 376.041753 359.607448 
L 376.241352 359.632485 
L 470.817727 359.624567 
L 470.817727 359.624567 
" style="fill:none;stroke:#1f77b4;stroke-linecap:square;stroke-opacity:0.7;stroke-width:1.5;"/>
   </g>
   <g id="line2d_110">
    <path clip-path="url(#pb54a20f1f9)" d="M 311.172273 496.526364 
L 311.305338 359.786819 
L 312.835593 359.756507 
L 312.968658 360.114268 
L 313.001925 360.114268 
L 313.13499 361.096436 
L 313.168257 361.096436 
L 313.301322 360.316073 
L 313.334589 360.316073 
L 313.467654 357.314317 
L 313.500921 357.314317 
L 313.633986 356.773966 
L 313.667253 356.773966 
L 313.800318 357.827395 
L 313.833585 357.827395 
L 313.96665 357.95966 
L 313.999917 357.95966 
L 314.132982 355.994164 
L 314.166249 355.994164 
L 314.299314 354.084269 
L 314.332581 354.084269 
L 314.465646 353.972251 
L 314.498913 353.972251 
L 314.631978 354.797911 
L 314.665245 354.797911 
L 314.79831 355.043183 
L 314.831577 355.043183 
L 314.964642 354.931162 
L 314.997909 354.931162 
L 315.130974 355.939589 
L 315.164241 355.939589 
L 315.297306 358.514733 
L 315.330573 358.514733 
L 315.463638 360.739312 
L 315.496905 360.739312 
L 315.62997 360.894236 
L 315.663237 360.894236 
L 315.796302 360.174493 
L 315.829569 360.174493 
L 315.962634 359.967244 
L 315.995901 359.967244 
L 316.128966 360.370932 
L 316.162233 360.370932 
L 316.295298 360.667795 
L 316.328565 360.667795 
L 316.46163 360.462812 
L 316.494897 360.462812 
L 316.627962 360.113286 
L 316.827561 360.098753 
L 316.960626 360.376465 
L 316.993893 360.376465 
L 317.126958 360.522085 
L 317.160225 360.522085 
L 317.29329 360.360183 
L 317.326557 360.360183 
L 317.459622 360.155143 
L 317.659221 360.183182 
L 317.792286 360.350688 
L 317.991885 360.380715 
L 318.12495 360.227485 
L 318.158217 360.227485 
L 318.291282 360.103196 
L 318.490881 360.14151 
L 318.623946 360.226044 
L 318.823545 360.193332 
L 318.95661 360.070528 
L 319.821537 359.966926 
L 320.021135 359.899352 
L 320.320533 359.810456 
L 320.453598 359.651541 
L 320.486865 359.651541 
L 320.61993 359.484954 
L 320.819529 359.379826 
L 320.985861 359.367778 
L 321.118926 359.444017 
L 321.152193 359.444017 
L 321.285258 359.593271 
L 321.318525 359.593271 
L 321.45159 359.768636 
L 321.484857 359.768636 
L 321.617922 359.899925 
L 322.150185 359.838177 
L 322.28325 359.755439 
L 322.649181 359.675391 
L 322.848779 359.623151 
L 323.314509 359.704813 
L 323.447574 359.765413 
L 334.458753 359.654675 
L 341.145299 359.633254 
L 351.258285 359.622721 
L 351.391351 346.877205 
L 351.424617 346.877205 
L 351.557683 349.48356 
L 351.590949 349.48356 
L 351.724015 349.939986 
L 351.757281 349.939986 
L 351.890347 348.90215 
L 351.923613 348.90215 
L 352.056679 346.850284 
L 352.089945 346.850284 
L 352.223011 349.0191 
L 352.256277 349.0191 
L 352.389343 356.279787 
L 352.422609 356.279787 
L 352.555675 361.043217 
L 352.588941 361.043217 
L 352.722007 366.126357 
L 352.755273 366.126357 
L 352.888339 369.549936 
L 352.921605 369.549936 
L 353.054671 370.358366 
L 353.254269 370.357906 
L 353.387335 368.255875 
L 353.420601 368.255875 
L 353.553667 363.314389 
L 353.586933 363.314389 
L 353.719999 359.46335 
L 353.753265 359.46335 
L 353.886331 355.964043 
L 353.919597 355.964043 
L 354.052663 353.884762 
L 354.252261 353.89775 
L 354.385327 355.643381 
L 354.418593 355.643381 
L 354.551659 358.624226 
L 354.584925 358.624226 
L 354.717991 361.313133 
L 354.751257 361.313133 
L 354.884323 363.302015 
L 354.917589 363.302015 
L 355.050655 364.877417 
L 355.083921 364.877417 
L 355.216987 365.533605 
L 355.250253 365.533605 
L 355.383319 364.505854 
L 355.416585 364.505854 
L 355.549651 361.796302 
L 355.582917 361.796302 
L 355.715983 359.826941 
L 355.749249 359.826941 
L 355.882315 359.166713 
L 355.915581 359.166713 
L 356.048647 359.298658 
L 356.081913 359.298658 
L 356.214979 359.601258 
L 356.248245 359.601258 
L 356.381311 359.821382 
L 356.580909 359.931841 
L 356.747241 359.968046 
L 357.412569 359.982593 
L 357.745233 359.99094 
L 357.944831 359.858745 
L 358.743225 359.750909 
L 358.942823 359.639387 
L 363.067857 359.747314 
L 363.333988 359.791314 
L 367.558821 359.686356 
L 368.024551 359.680479 
L 470.817727 359.624575 
L 470.817727 359.624575 
" style="fill:none;stroke:#d62728;stroke-linecap:square;stroke-opacity:0.7;stroke-width:1.5;"/>
   </g>
   <g id="patch_18">
    <path d="M 303.19 505.24 
L 303.19 313.54 
" style="fill:none;stroke:#000000;stroke-linecap:square;stroke-linejoin:miter;stroke-width:0.8;"/>
   </g>
   <g id="patch_19">
    <path d="M 478.8 505.24 
L 478.8 313.54 
" style="fill:none;stroke:#000000;stroke-linecap:square;stroke-linejoin:miter;stroke-width:0.8;"/>
   </g>
   <g id="patch_20">
    <path d="M 303.19 505.24 
L 478.8 505.24 
" style="fill:none;stroke:#000000;stroke-linecap:square;stroke-linejoin:miter;stroke-width:0.8;"/>
   </g>
   <g id="patch_21">
    <path d="M 303.19 313.54 
L 478.8 313.54 
" style="fill:none;stroke:#000000;stroke-linecap:square;stroke-linejoin:miter;stroke-width:0.8;"/>
   </g>
   <g id="text_49">
    <!-- RPM3 (rpm) -->
    <g transform="translate(355.505 307.54)scale(0.12 -0.12)">
     <defs>
      <path d="M 2597 2516 
Q 3050 2419 3304 2112 
Q 3559 1806 3559 1356 
Q 3559 666 3084 287 
Q 2609 -91 1734 -91 
Q 1441 -91 1130 -33 
Q 819 25 488 141 
L 488 750 
Q 750 597 1062 519 
Q 1375 441 1716 441 
Q 2309 441 2620 675 
Q 2931 909 2931 1356 
Q 2931 1769 2642 2001 
Q 2353 2234 1838 2234 
L 1294 2234 
L 1294 2753 
L 1863 2753 
Q 2328 2753 2575 2939 
Q 2822 3125 2822 3475 
Q 2822 3834 2567 4026 
Q 2313 4219 1838 4219 
Q 1578 4219 1281 4162 
Q 984 4106 628 3988 
L 628 4550 
Q 988 4650 1302 4700 
Q 1616 4750 1894 4750 
Q 2613 4750 3031 4423 
Q 3450 4097 3450 3541 
Q 3450 3153 3228 2886 
Q 3006 2619 2597 2516 
z
" id="DejaVuSans-33" transform="scale(0.015625)"/>
     </defs>
     <use xlink:href="#DejaVuSans-52"/>
     <use x="69.482422" xlink:href="#DejaVuSans-50"/>
     <use x="129.785156" xlink:href="#DejaVuSans-4d"/>
     <use x="216.064453" xlink:href="#DejaVuSans-33"/>
     <use x="279.6875" xlink:href="#DejaVuSans-20"/>
     <use x="311.474609" xlink:href="#DejaVuSans-28"/>
     <use x="350.488281" xlink:href="#DejaVuSans-72"/>
     <use x="391.601562" xlink:href="#DejaVuSans-70"/>
     <use x="455.078125" xlink:href="#DejaVuSans-6d"/>
     <use x="552.490234" xlink:href="#DejaVuSans-29"/>
    </g>
   </g>
  </g>
  <g id="text_50">
   <!-- Actuadores -->
   <g transform="translate(242.9875 23.6775)scale(0.16 -0.16)">
    <defs>
     <path d="M 2188 4044 
L 1331 1722 
L 3047 1722 
L 2188 4044 
z
M 1831 4666 
L 2547 4666 
L 4325 0 
L 3669 0 
L 3244 1197 
L 1141 1197 
L 716 0 
L 50 0 
L 1831 4666 
z
" id="DejaVuSans-41" transform="scale(0.015625)"/>
     <path d="M 3122 3366 
L 3122 2828 
Q 2878 2963 2633 3030 
Q 2388 3097 2138 3097 
Q 1578 3097 1268 2742 
Q 959 2388 959 1747 
Q 959 1106 1268 751 
Q 1578 397 2138 397 
Q 2388 397 2633 464 
Q 2878 531 3122 666 
L 3122 134 
Q 2881 22 2623 -34 
Q 2366 -91 2075 -91 
Q 1284 -91 818 406 
Q 353 903 353 1747 
Q 353 2603 823 3093 
Q 1294 3584 2113 3584 
Q 2378 3584 2631 3529 
Q 2884 3475 3122 3366 
z
" id="DejaVuSans-63" transform="scale(0.015625)"/>
     <path d="M 1172 4494 
L 1172 3500 
L 2356 3500 
L 2356 3053 
L 1172 3053 
L 1172 1153 
Q 1172 725 1289 603 
Q 1406 481 1766 481 
L 2356 481 
L 2356 0 
L 1766 0 
Q 1100 0 847 248 
Q 594 497 594 1153 
L 594 3053 
L 172 3053 
L 172 3500 
L 594 3500 
L 594 4494 
L 1172 4494 
z
" id="DejaVuSans-74" transform="scale(0.015625)"/>
     <path d="M 544 1381 
L 544 3500 
L 1119 3500 
L 1119 1403 
Q 1119 906 1312 657 
Q 1506 409 1894 409 
Q 2359 409 2629 706 
Q 2900 1003 2900 1516 
L 2900 3500 
L 3475 3500 
L 3475 0 
L 2900 0 
L 2900 538 
Q 2691 219 2414 64 
Q 2138 -91 1772 -91 
Q 1169 -91 856 284 
Q 544 659 544 1381 
z
M 1991 3584 
L 1991 3584 
z
" id="DejaVuSans-75" transform="scale(0.015625)"/>
     <path d="M 2194 1759 
Q 1497 1759 1228 1600 
Q 959 1441 959 1056 
Q 959 750 1161 570 
Q 1363 391 1709 391 
Q 2188 391 2477 730 
Q 2766 1069 2766 1631 
L 2766 1759 
L 2194 1759 
z
M 3341 1997 
L 3341 0 
L 2766 0 
L 2766 531 
Q 2569 213 2275 61 
Q 1981 -91 1556 -91 
Q 1019 -91 701 211 
Q 384 513 384 1019 
Q 384 1609 779 1909 
Q 1175 2209 1959 2209 
L 2766 2209 
L 2766 2266 
Q 2766 2663 2505 2880 
Q 2244 3097 1772 3097 
Q 1472 3097 1187 3025 
Q 903 2953 641 2809 
L 641 3341 
Q 956 3463 1253 3523 
Q 1550 3584 1831 3584 
Q 2591 3584 2966 3190 
Q 3341 2797 3341 1997 
z
" id="DejaVuSans-61" transform="scale(0.015625)"/>
     <path d="M 2906 2969 
L 2906 4863 
L 3481 4863 
L 3481 0 
L 2906 0 
L 2906 525 
Q 2725 213 2448 61 
Q 2172 -91 1784 -91 
Q 1150 -91 751 415 
Q 353 922 353 1747 
Q 353 2572 751 3078 
Q 1150 3584 1784 3584 
Q 2172 3584 2448 3432 
Q 2725 3281 2906 2969 
z
M 947 1747 
Q 947 1113 1208 752 
Q 1469 391 1925 391 
Q 2381 391 2643 752 
Q 2906 1113 2906 1747 
Q 2906 2381 2643 2742 
Q 2381 3103 1925 3103 
Q 1469 3103 1208 2742 
Q 947 2381 947 1747 
z
" id="DejaVuSans-64" transform="scale(0.015625)"/>
    </defs>
    <use xlink:href="#DejaVuSans-41"/>
    <use x="66.658203" xlink:href="#DejaVuSans-63"/>
    <use x="121.638672" xlink:href="#DejaVuSans-74"/>
    <use x="160.847656" xlink:href="#DejaVuSans-75"/>
    <use x="224.226562" xlink:href="#DejaVuSans-61"/>
    <use x="285.505859" xlink:href="#DejaVuSans-64"/>
    <use x="348.982422" xlink:href="#DejaVuSans-6f"/>
    <use x="410.164062" xlink:href="#DejaVuSans-72"/>
    <use x="449.027344" xlink:href="#DejaVuSans-65"/>
    <use x="510.550781" xlink:href="#DejaVuSans-73"/>
   </g>
  </g>
  <g id="legend_1">
   <g id="patch_22">
    <path d="M 488.398438 304.178125 
L 569 304.178125 
Q 571 304.178125 571 302.178125 
L 571 273.821875 
Q 571 271.821875 569 271.821875 
L 488.398438 271.821875 
Q 486.398438 271.821875 486.398438 273.821875 
L 486.398438 302.178125 
Q 486.398438 304.178125 488.398438 304.178125 
z
" style="fill:#ffffff;opacity:0.8;stroke:#cccccc;stroke-linejoin:miter;"/>
   </g>
   <g id="line2d_111">
    <path d="M 490.398438 279.920313 
L 510.398438 279.920313 
" style="fill:none;stroke:#1f77b4;stroke-linecap:square;stroke-opacity:0.7;stroke-width:1.5;"/>
   </g>
   <g id="line2d_112"/>
   <g id="text_51">
    <!-- DSLPID -->
    <g transform="translate(518.398438 283.420313)scale(0.1 -0.1)">
     <defs>
      <path d="M 1259 4147 
L 1259 519 
L 2022 519 
Q 2988 519 3436 956 
Q 3884 1394 3884 2338 
Q 3884 3275 3436 3711 
Q 2988 4147 2022 4147 
L 1259 4147 
z
M 628 4666 
L 1925 4666 
Q 3281 4666 3915 4102 
Q 4550 3538 4550 2338 
Q 4550 1131 3912 565 
Q 3275 0 1925 0 
L 628 0 
L 628 4666 
z
" id="DejaVuSans-44" transform="scale(0.015625)"/>
      <path d="M 3425 4513 
L 3425 3897 
Q 3066 4069 2747 4153 
Q 2428 4238 2131 4238 
Q 1616 4238 1336 4038 
Q 1056 3838 1056 3469 
Q 1056 3159 1242 3001 
Q 1428 2844 1947 2747 
L 2328 2669 
Q 3034 2534 3370 2195 
Q 3706 1856 3706 1288 
Q 3706 609 3251 259 
Q 2797 -91 1919 -91 
Q 1588 -91 1214 -16 
Q 841 59 441 206 
L 441 856 
Q 825 641 1194 531 
Q 1563 422 1919 422 
Q 2459 422 2753 634 
Q 3047 847 3047 1241 
Q 3047 1584 2836 1778 
Q 2625 1972 2144 2069 
L 1759 2144 
Q 1053 2284 737 2584 
Q 422 2884 422 3419 
Q 422 4038 858 4394 
Q 1294 4750 2059 4750 
Q 2388 4750 2728 4690 
Q 3069 4631 3425 4513 
z
" id="DejaVuSans-53" transform="scale(0.015625)"/>
      <path d="M 628 4666 
L 1259 4666 
L 1259 531 
L 3531 531 
L 3531 0 
L 628 0 
L 628 4666 
z
" id="DejaVuSans-4c" transform="scale(0.015625)"/>
      <path d="M 628 4666 
L 1259 4666 
L 1259 0 
L 628 0 
L 628 4666 
z
" id="DejaVuSans-49" transform="scale(0.015625)"/>
     </defs>
     <use xlink:href="#DejaVuSans-44"/>
     <use x="77.001953" xlink:href="#DejaVuSans-53"/>
     <use x="140.478516" xlink:href="#DejaVuSans-4c"/>
     <use x="196.191406" xlink:href="#DejaVuSans-50"/>
     <use x="256.494141" xlink:href="#DejaVuSans-49"/>
     <use x="285.986328" xlink:href="#DejaVuSans-44"/>
    </g>
   </g>
   <g id="line2d_113">
    <path d="M 490.398438 294.598438 
L 510.398438 294.598438 
" style="fill:none;stroke:#d62728;stroke-linecap:square;stroke-opacity:0.7;stroke-width:1.5;"/>
   </g>
   <g id="line2d_114"/>
   <g id="text_52">
    <!-- LSTMCNN -->
    <g transform="translate(518.398438 298.098438)scale(0.1 -0.1)">
     <defs>
      <path d="M 4122 4306 
L 4122 3641 
Q 3803 3938 3442 4084 
Q 3081 4231 2675 4231 
Q 1875 4231 1450 3742 
Q 1025 3253 1025 2328 
Q 1025 1406 1450 917 
Q 1875 428 2675 428 
Q 3081 428 3442 575 
Q 3803 722 4122 1019 
L 4122 359 
Q 3791 134 3420 21 
Q 3050 -91 2638 -91 
Q 1578 -91 968 557 
Q 359 1206 359 2328 
Q 359 3453 968 4101 
Q 1578 4750 2638 4750 
Q 3056 4750 3426 4639 
Q 3797 4528 4122 4306 
z
" id="DejaVuSans-43" transform="scale(0.015625)"/>
      <path d="M 628 4666 
L 1478 4666 
L 3547 763 
L 3547 4666 
L 4159 4666 
L 4159 0 
L 3309 0 
L 1241 3903 
L 1241 0 
L 628 0 
L 628 4666 
z
" id="DejaVuSans-4e" transform="scale(0.015625)"/>
     </defs>
     <use xlink:href="#DejaVuSans-4c"/>
     <use x="55.712891" xlink:href="#DejaVuSans-53"/>
     <use x="119.189453" xlink:href="#DejaVuSans-54"/>
     <use x="180.273438" xlink:href="#DejaVuSans-4d"/>
     <use x="266.552734" xlink:href="#DejaVuSans-43"/>
     <use x="336.376953" xlink:href="#DejaVuSans-4e"/>
     <use x="411.181641" xlink:href="#DejaVuSans-4e"/>
    </g>
   </g>
  </g>
 </g>
 <defs>
  <clipPath id="p8c6d975b93">
   <rect height="191.7" width="175.61" x="78.19" y="80.88"/>
  </clipPath>
  <clipPath id="p0dd3dcc3dd">
   <rect height="191.7" width="175.61" x="303.19" y="80.88"/>
  </clipPath>
  <clipPath id="pfc93812910">
   <rect height="191.7" width="175.61" x="78.19" y="313.54"/>
  </clipPath>
  <clipPath id="pb54a20f1f9">
   <rect height="191.7" width="175.61" x="303.19" y="313.54"/>
  </clipPath>
 </defs>
</svg>
