<?xml version="1.0" encoding="utf-8" standalone="no"?>
<!DOCTYPE svg PUBLIC "-//W3C//DTD SVG 1.1//EN"
  "http://www.w3.org/Graphics/SVG/1.1/DTD/svg11.dtd">
<svg height="576pt" version="1.1" viewBox="0 0 576 576" width="576pt" xmlns="http://www.w3.org/2000/svg" xmlns:xlink="http://www.w3.org/1999/xlink">
 <metadata>
  <rdf:RDF xmlns:cc="http://creativecommons.org/ns#" xmlns:dc="http://purl.org/dc/elements/1.1/" xmlns:rdf="http://www.w3.org/1999/02/22-rdf-syntax-ns#">
   <cc:Work>
    <dc:type rdf:resource="http://purl.org/dc/dcmitype/StillImage"/>
    <dc:date>2022-02-27T23:10:16.323982</dc:date>
    <dc:format>image/svg+xml</dc:format>
    <dc:creator>
     <cc:Agent>
      <dc:title>Matplotlib v3.4.3, https://matplotlib.org/</dc:title>
     </cc:Agent>
    </dc:creator>
   </cc:Work>
  </rdf:RDF>
 </metadata>
 <defs>
  <style type="text/css">*{stroke-linecap:butt;stroke-linejoin:round;}</style>
 </defs>
 <g id="figure_1">
  <g id="patch_1">
   <path d="M 0 576 
L 576 576 
L 576 0 
L 0 0 
z
" style="fill:#ffffff;"/>
  </g>
  <g id="patch_2">
   <path d="M 10.8 565.2 
L 565.2 565.2 
L 565.2 10.8 
L 10.8 10.8 
z
" style="fill:#ffffff;"/>
  </g>
  <g id="pane3d_1">
   <g id="patch_3">
    <path d="M 52.661023 428.502727 
L 235.742009 275.040614 
L 233.197008 53.720814 
L 41.354653 193.718627 
" style="fill:#f2f2f2;opacity:0.5;stroke:#f2f2f2;stroke-linejoin:miter;"/>
   </g>
  </g>
  <g id="pane3d_2">
   <g id="patch_4">
    <path d="M 235.742009 275.040614 
L 529.521668 360.430763 
L 540.005628 131.487856 
L 233.197008 53.720814 
" style="fill:#e6e6e6;opacity:0.5;stroke:#e6e6e6;stroke-linejoin:miter;"/>
   </g>
  </g>
  <g id="pane3d_3">
   <g id="patch_5">
    <path d="M 52.661023 428.502727 
L 364.08181 530.212756 
L 529.521668 360.430763 
L 235.742009 275.040614 
" style="fill:#ececec;opacity:0.5;stroke:#ececec;stroke-linejoin:miter;"/>
   </g>
  </g>
  <g id="axis3d_1">
   <g id="line2d_1">
    <path d="M 52.661023 428.502727 
L 364.08181 530.212756 
" style="fill:none;stroke:#000000;stroke-linecap:square;stroke-width:0.8;"/>
   </g>
   <g id="text_1">
    <!-- x (m) -->
    <g transform="translate(174.526236 511.624996)rotate(-341.912962)scale(0.1 -0.1)">
     <defs>
      <path d="M 3513 3500 
L 2247 1797 
L 3578 0 
L 2900 0 
L 1881 1375 
L 863 0 
L 184 0 
L 1544 1831 
L 300 3500 
L 978 3500 
L 1906 2253 
L 2834 3500 
L 3513 3500 
z
" id="DejaVuSans-78" transform="scale(0.015625)"/>
      <path id="DejaVuSans-20" transform="scale(0.015625)"/>
      <path d="M 1984 4856 
Q 1566 4138 1362 3434 
Q 1159 2731 1159 2009 
Q 1159 1288 1364 580 
Q 1569 -128 1984 -844 
L 1484 -844 
Q 1016 -109 783 600 
Q 550 1309 550 2009 
Q 550 2706 781 3412 
Q 1013 4119 1484 4856 
L 1984 4856 
z
" id="DejaVuSans-28" transform="scale(0.015625)"/>
      <path d="M 3328 2828 
Q 3544 3216 3844 3400 
Q 4144 3584 4550 3584 
Q 5097 3584 5394 3201 
Q 5691 2819 5691 2113 
L 5691 0 
L 5113 0 
L 5113 2094 
Q 5113 2597 4934 2840 
Q 4756 3084 4391 3084 
Q 3944 3084 3684 2787 
Q 3425 2491 3425 1978 
L 3425 0 
L 2847 0 
L 2847 2094 
Q 2847 2600 2669 2842 
Q 2491 3084 2119 3084 
Q 1678 3084 1418 2786 
Q 1159 2488 1159 1978 
L 1159 0 
L 581 0 
L 581 3500 
L 1159 3500 
L 1159 2956 
Q 1356 3278 1631 3431 
Q 1906 3584 2284 3584 
Q 2666 3584 2933 3390 
Q 3200 3197 3328 2828 
z
" id="DejaVuSans-6d" transform="scale(0.015625)"/>
      <path d="M 513 4856 
L 1013 4856 
Q 1481 4119 1714 3412 
Q 1947 2706 1947 2009 
Q 1947 1309 1714 600 
Q 1481 -109 1013 -844 
L 513 -844 
Q 928 -128 1133 580 
Q 1338 1288 1338 2009 
Q 1338 2731 1133 3434 
Q 928 4138 513 4856 
z
" id="DejaVuSans-29" transform="scale(0.015625)"/>
     </defs>
     <use xlink:href="#DejaVuSans-78"/>
     <use x="59.179688" xlink:href="#DejaVuSans-20"/>
     <use x="90.966797" xlink:href="#DejaVuSans-28"/>
     <use x="129.980469" xlink:href="#DejaVuSans-6d"/>
     <use x="227.392578" xlink:href="#DejaVuSans-29"/>
    </g>
   </g>
   <g id="Line3DCollection_1">
    <path d="M 67.733602 433.425431 
L 250.020625 279.190844 
L 248.078951 57.492953 
" style="fill:none;stroke:#b0b0b0;stroke-width:0.8;"/>
    <path d="M 103.088945 444.972486 
L 283.489611 288.918957 
L 282.974093 66.337854 
" style="fill:none;stroke:#b0b0b0;stroke-width:0.8;"/>
    <path d="M 138.880558 456.662027 
L 317.337381 298.757168 
L 318.281221 75.287182 
" style="fill:none;stroke:#b0b0b0;stroke-width:0.8;"/>
    <path d="M 175.116567 468.496707 
L 351.570402 308.707355 
L 354.007676 84.342797 
" style="fill:none;stroke:#b0b0b0;stroke-width:0.8;"/>
    <path d="M 211.805298 480.479247 
L 386.195288 318.771443 
L 390.160973 93.506604 
" style="fill:none;stroke:#b0b0b0;stroke-width:0.8;"/>
    <path d="M 248.95529 492.612434 
L 421.218808 328.951397 
L 426.748807 102.780553 
" style="fill:none;stroke:#b0b0b0;stroke-width:0.8;"/>
    <path d="M 286.575297 504.899129 
L 456.647885 339.249231 
L 463.77906 112.166643 
" style="fill:none;stroke:#b0b0b0;stroke-width:0.8;"/>
    <path d="M 324.674295 517.342261 
L 492.489605 349.667004 
L 501.259805 121.666919 
" style="fill:none;stroke:#b0b0b0;stroke-width:0.8;"/>
   </g>
   <g id="xtick_1">
    <g id="line2d_2">
     <path d="M 69.320862 432.082437 
L 64.552275 436.117179 
" style="fill:none;stroke:#000000;stroke-linecap:square;stroke-width:0.8;"/>
    </g>
    <g id="text_2">
     <!-- −0.030 -->
     <g transform="translate(41.713372 456.691753)scale(0.1 -0.1)">
      <defs>
       <path d="M 678 2272 
L 4684 2272 
L 4684 1741 
L 678 1741 
L 678 2272 
z
" id="DejaVuSans-2212" transform="scale(0.015625)"/>
       <path d="M 2034 4250 
Q 1547 4250 1301 3770 
Q 1056 3291 1056 2328 
Q 1056 1369 1301 889 
Q 1547 409 2034 409 
Q 2525 409 2770 889 
Q 3016 1369 3016 2328 
Q 3016 3291 2770 3770 
Q 2525 4250 2034 4250 
z
M 2034 4750 
Q 2819 4750 3233 4129 
Q 3647 3509 3647 2328 
Q 3647 1150 3233 529 
Q 2819 -91 2034 -91 
Q 1250 -91 836 529 
Q 422 1150 422 2328 
Q 422 3509 836 4129 
Q 1250 4750 2034 4750 
z
" id="DejaVuSans-30" transform="scale(0.015625)"/>
       <path d="M 684 794 
L 1344 794 
L 1344 0 
L 684 0 
L 684 794 
z
" id="DejaVuSans-2e" transform="scale(0.015625)"/>
       <path d="M 2597 2516 
Q 3050 2419 3304 2112 
Q 3559 1806 3559 1356 
Q 3559 666 3084 287 
Q 2609 -91 1734 -91 
Q 1441 -91 1130 -33 
Q 819 25 488 141 
L 488 750 
Q 750 597 1062 519 
Q 1375 441 1716 441 
Q 2309 441 2620 675 
Q 2931 909 2931 1356 
Q 2931 1769 2642 2001 
Q 2353 2234 1838 2234 
L 1294 2234 
L 1294 2753 
L 1863 2753 
Q 2328 2753 2575 2939 
Q 2822 3125 2822 3475 
Q 2822 3834 2567 4026 
Q 2313 4219 1838 4219 
Q 1578 4219 1281 4162 
Q 984 4106 628 3988 
L 628 4550 
Q 988 4650 1302 4700 
Q 1616 4750 1894 4750 
Q 2613 4750 3031 4423 
Q 3450 4097 3450 3541 
Q 3450 3153 3228 2886 
Q 3006 2619 2597 2516 
z
" id="DejaVuSans-33" transform="scale(0.015625)"/>
      </defs>
      <use xlink:href="#DejaVuSans-2212"/>
      <use x="83.789062" xlink:href="#DejaVuSans-30"/>
      <use x="147.412109" xlink:href="#DejaVuSans-2e"/>
      <use x="179.199219" xlink:href="#DejaVuSans-30"/>
      <use x="242.822266" xlink:href="#DejaVuSans-33"/>
      <use x="306.445312" xlink:href="#DejaVuSans-30"/>
     </g>
    </g>
   </g>
   <g id="xtick_2">
    <g id="line2d_3">
     <path d="M 104.660562 443.612977 
L 99.93893 447.697371 
" style="fill:none;stroke:#000000;stroke-linecap:square;stroke-width:0.8;"/>
    </g>
    <g id="text_3">
     <!-- −0.025 -->
     <g transform="translate(77.085851 468.355731)scale(0.1 -0.1)">
      <defs>
       <path d="M 1228 531 
L 3431 531 
L 3431 0 
L 469 0 
L 469 531 
Q 828 903 1448 1529 
Q 2069 2156 2228 2338 
Q 2531 2678 2651 2914 
Q 2772 3150 2772 3378 
Q 2772 3750 2511 3984 
Q 2250 4219 1831 4219 
Q 1534 4219 1204 4116 
Q 875 4013 500 3803 
L 500 4441 
Q 881 4594 1212 4672 
Q 1544 4750 1819 4750 
Q 2544 4750 2975 4387 
Q 3406 4025 3406 3419 
Q 3406 3131 3298 2873 
Q 3191 2616 2906 2266 
Q 2828 2175 2409 1742 
Q 1991 1309 1228 531 
z
" id="DejaVuSans-32" transform="scale(0.015625)"/>
       <path d="M 691 4666 
L 3169 4666 
L 3169 4134 
L 1269 4134 
L 1269 2991 
Q 1406 3038 1543 3061 
Q 1681 3084 1819 3084 
Q 2600 3084 3056 2656 
Q 3513 2228 3513 1497 
Q 3513 744 3044 326 
Q 2575 -91 1722 -91 
Q 1428 -91 1123 -41 
Q 819 9 494 109 
L 494 744 
Q 775 591 1075 516 
Q 1375 441 1709 441 
Q 2250 441 2565 725 
Q 2881 1009 2881 1497 
Q 2881 1984 2565 2268 
Q 2250 2553 1709 2553 
Q 1456 2553 1204 2497 
Q 953 2441 691 2322 
L 691 4666 
z
" id="DejaVuSans-35" transform="scale(0.015625)"/>
      </defs>
      <use xlink:href="#DejaVuSans-2212"/>
      <use x="83.789062" xlink:href="#DejaVuSans-30"/>
      <use x="147.412109" xlink:href="#DejaVuSans-2e"/>
      <use x="179.199219" xlink:href="#DejaVuSans-30"/>
      <use x="242.822266" xlink:href="#DejaVuSans-32"/>
      <use x="306.445312" xlink:href="#DejaVuSans-35"/>
     </g>
    </g>
   </g>
   <g id="xtick_3">
    <g id="line2d_4">
     <path d="M 140.436024 455.285696 
L 135.762874 459.420664 
" style="fill:none;stroke:#000000;stroke-linecap:square;stroke-width:0.8;"/>
    </g>
    <g id="text_4">
     <!-- −0.020 -->
     <g transform="translate(112.895597 480.163897)scale(0.1 -0.1)">
      <use xlink:href="#DejaVuSans-2212"/>
      <use x="83.789062" xlink:href="#DejaVuSans-30"/>
      <use x="147.412109" xlink:href="#DejaVuSans-2e"/>
      <use x="179.199219" xlink:href="#DejaVuSans-30"/>
      <use x="242.822266" xlink:href="#DejaVuSans-32"/>
      <use x="306.445312" xlink:href="#DejaVuSans-30"/>
     </g>
    </g>
   </g>
   <g id="xtick_4">
    <g id="line2d_5">
     <path d="M 176.655358 467.103241 
L 172.032262 471.289727 
" style="fill:none;stroke:#000000;stroke-linecap:square;stroke-width:0.8;"/>
    </g>
    <g id="text_5">
     <!-- −0.015 -->
     <g transform="translate(149.150769 492.118941)scale(0.1 -0.1)">
      <defs>
       <path d="M 794 531 
L 1825 531 
L 1825 4091 
L 703 3866 
L 703 4441 
L 1819 4666 
L 2450 4666 
L 2450 531 
L 3481 531 
L 3481 0 
L 794 0 
L 794 531 
z
" id="DejaVuSans-31" transform="scale(0.015625)"/>
      </defs>
      <use xlink:href="#DejaVuSans-2212"/>
      <use x="83.789062" xlink:href="#DejaVuSans-30"/>
      <use x="147.412109" xlink:href="#DejaVuSans-2e"/>
      <use x="179.199219" xlink:href="#DejaVuSans-30"/>
      <use x="242.822266" xlink:href="#DejaVuSans-31"/>
      <use x="306.445312" xlink:href="#DejaVuSans-35"/>
     </g>
    </g>
   </g>
   <g id="xtick_5">
    <g id="line2d_6">
     <path d="M 213.326876 479.068323 
L 208.755454 483.307297 
" style="fill:none;stroke:#000000;stroke-linecap:square;stroke-width:0.8;"/>
    </g>
    <g id="text_6">
     <!-- −0.010 -->
     <g transform="translate(185.85973 504.22362)scale(0.1 -0.1)">
      <use xlink:href="#DejaVuSans-2212"/>
      <use x="83.789062" xlink:href="#DejaVuSans-30"/>
      <use x="147.412109" xlink:href="#DejaVuSans-2e"/>
      <use x="179.199219" xlink:href="#DejaVuSans-30"/>
      <use x="242.822266" xlink:href="#DejaVuSans-31"/>
      <use x="306.445312" xlink:href="#DejaVuSans-30"/>
     </g>
    </g>
   </g>
   <g id="xtick_6">
    <g id="line2d_7">
     <path d="M 250.459099 491.183723 
L 245.941021 495.476177 
" style="fill:none;stroke:#000000;stroke-linecap:square;stroke-width:0.8;"/>
    </g>
    <g id="text_7">
     <!-- −0.005 -->
     <g transform="translate(223.031054 516.480763)scale(0.1 -0.1)">
      <use xlink:href="#DejaVuSans-2212"/>
      <use x="83.789062" xlink:href="#DejaVuSans-30"/>
      <use x="147.412109" xlink:href="#DejaVuSans-2e"/>
      <use x="179.199219" xlink:href="#DejaVuSans-30"/>
      <use x="242.822266" xlink:href="#DejaVuSans-30"/>
      <use x="306.445312" xlink:href="#DejaVuSans-35"/>
     </g>
    </g>
   </g>
   <g id="xtick_7">
    <g id="line2d_8">
     <path d="M 288.060764 503.452291 
L 283.597751 507.799244 
" style="fill:none;stroke:#000000;stroke-linecap:square;stroke-width:0.8;"/>
    </g>
    <g id="text_8">
     <!-- 0.000 -->
     <g transform="translate(264.863375 528.893267)scale(0.1 -0.1)">
      <use xlink:href="#DejaVuSans-30"/>
      <use x="63.623047" xlink:href="#DejaVuSans-2e"/>
      <use x="95.410156" xlink:href="#DejaVuSans-30"/>
      <use x="159.033203" xlink:href="#DejaVuSans-30"/>
      <use x="222.65625" xlink:href="#DejaVuSans-30"/>
     </g>
    </g>
   </g>
   <g id="xtick_8">
    <g id="line2d_9">
     <path d="M 326.140831 515.87695 
L 321.734656 520.279448 
" style="fill:none;stroke:#000000;stroke-linecap:square;stroke-width:0.8;"/>
    </g>
    <g id="text_9">
     <!-- 0.005 -->
     <g transform="translate(302.98602 541.464105)scale(0.1 -0.1)">
      <use xlink:href="#DejaVuSans-30"/>
      <use x="63.623047" xlink:href="#DejaVuSans-2e"/>
      <use x="95.410156" xlink:href="#DejaVuSans-30"/>
      <use x="159.033203" xlink:href="#DejaVuSans-30"/>
      <use x="222.65625" xlink:href="#DejaVuSans-35"/>
     </g>
    </g>
   </g>
  </g>
  <g id="axis3d_2">
   <g id="line2d_10">
    <path d="M 529.521668 360.430763 
L 364.08181 530.212756 
" style="fill:none;stroke:#000000;stroke-linecap:square;stroke-width:0.8;"/>
   </g>
   <g id="text_10">
    <!-- y (m) -->
    <g transform="translate(470.139263 480.978729)rotate(-45.742112)scale(0.1 -0.1)">
     <defs>
      <path d="M 2059 -325 
Q 1816 -950 1584 -1140 
Q 1353 -1331 966 -1331 
L 506 -1331 
L 506 -850 
L 844 -850 
Q 1081 -850 1212 -737 
Q 1344 -625 1503 -206 
L 1606 56 
L 191 3500 
L 800 3500 
L 1894 763 
L 2988 3500 
L 3597 3500 
L 2059 -325 
z
" id="DejaVuSans-79" transform="scale(0.015625)"/>
     </defs>
     <use xlink:href="#DejaVuSans-79"/>
     <use x="59.179688" xlink:href="#DejaVuSans-20"/>
     <use x="90.966797" xlink:href="#DejaVuSans-28"/>
     <use x="129.980469" xlink:href="#DejaVuSans-6d"/>
     <use x="227.392578" xlink:href="#DejaVuSans-29"/>
    </g>
   </g>
   <g id="Line3DCollection_2">
    <path d="M 47.54771 189.199216 
L 58.549566 423.566834 
L 369.425736 524.728574 
" style="fill:none;stroke:#b0b0b0;stroke-width:0.8;"/>
    <path d="M 71.54855 171.684497 
L 81.383901 404.426641 
L 390.133801 503.477005 
" style="fill:none;stroke:#b0b0b0;stroke-width:0.8;"/>
    <path d="M 95.041816 154.540181 
L 103.756326 385.673631 
L 410.400827 482.678049 
" style="fill:none;stroke:#b0b0b0;stroke-width:0.8;"/>
    <path d="M 118.043443 137.754641 
L 125.680718 367.296171 
L 430.240757 462.3174 
" style="fill:none;stroke:#b0b0b0;stroke-width:0.8;"/>
    <path d="M 140.568702 121.316733 
L 147.1704 349.283094 
L 449.666951 442.381347 
" style="fill:none;stroke:#b0b0b0;stroke-width:0.8;"/>
    <path d="M 162.632241 105.215767 
L 168.238175 331.623667 
L 468.692215 422.856745 
" style="fill:none;stroke:#b0b0b0;stroke-width:0.8;"/>
    <path d="M 184.248112 89.441489 
L 188.896348 314.307577 
L 487.328837 403.730987 
" style="fill:none;stroke:#b0b0b0;stroke-width:0.8;"/>
    <path d="M 205.429802 73.984056 
L 209.156748 297.324908 
L 505.588603 384.991975 
" style="fill:none;stroke:#b0b0b0;stroke-width:0.8;"/>
    <path d="M 226.190264 58.834017 
L 229.030754 280.666121 
L 523.48283 366.628096 
" style="fill:none;stroke:#b0b0b0;stroke-width:0.8;"/>
   </g>
   <g id="xtick_9">
    <g id="line2d_11">
     <path d="M 366.805551 523.875943 
L 374.672904 526.436046 
" style="fill:none;stroke:#000000;stroke-linecap:square;stroke-width:0.8;"/>
    </g>
    <g id="text_11">
     <!-- −0.030 -->
     <g transform="translate(363.837686 545.790648)scale(0.1 -0.1)">
      <use xlink:href="#DejaVuSans-2212"/>
      <use x="83.789062" xlink:href="#DejaVuSans-30"/>
      <use x="147.412109" xlink:href="#DejaVuSans-2e"/>
      <use x="179.199219" xlink:href="#DejaVuSans-30"/>
      <use x="242.822266" xlink:href="#DejaVuSans-33"/>
      <use x="306.445312" xlink:href="#DejaVuSans-30"/>
     </g>
    </g>
   </g>
   <g id="xtick_10">
    <g id="line2d_12">
     <path d="M 387.53296 502.642626 
L 395.342158 505.147903 
" style="fill:none;stroke:#000000;stroke-linecap:square;stroke-width:0.8;"/>
    </g>
    <g id="text_12">
     <!-- −0.025 -->
     <g transform="translate(384.412595 524.388062)scale(0.1 -0.1)">
      <use xlink:href="#DejaVuSans-2212"/>
      <use x="83.789062" xlink:href="#DejaVuSans-30"/>
      <use x="147.412109" xlink:href="#DejaVuSans-2e"/>
      <use x="179.199219" xlink:href="#DejaVuSans-30"/>
      <use x="242.822266" xlink:href="#DejaVuSans-32"/>
      <use x="306.445312" xlink:href="#DejaVuSans-35"/>
     </g>
    </g>
   </g>
   <g id="xtick_11">
    <g id="line2d_13">
     <path d="M 407.819105 481.861343 
L 415.570827 484.313536 
" style="fill:none;stroke:#000000;stroke-linecap:square;stroke-width:0.8;"/>
    </g>
    <g id="text_13">
     <!-- −0.020 -->
     <g transform="translate(404.549178 503.441434)scale(0.1 -0.1)">
      <use xlink:href="#DejaVuSans-2212"/>
      <use x="83.789062" xlink:href="#DejaVuSans-30"/>
      <use x="147.412109" xlink:href="#DejaVuSans-2e"/>
      <use x="179.199219" xlink:href="#DejaVuSans-30"/>
      <use x="242.822266" xlink:href="#DejaVuSans-32"/>
      <use x="306.445312" xlink:href="#DejaVuSans-30"/>
     </g>
    </g>
   </g>
   <g id="xtick_12">
    <g id="line2d_14">
     <path d="M 427.67793 461.517811 
L 435.372852 463.918589 
" style="fill:none;stroke:#000000;stroke-linecap:square;stroke-width:0.8;"/>
    </g>
    <g id="text_14">
     <!-- −0.015 -->
     <g transform="translate(424.261295 482.936347)scale(0.1 -0.1)">
      <use xlink:href="#DejaVuSans-2212"/>
      <use x="83.789062" xlink:href="#DejaVuSans-30"/>
      <use x="147.412109" xlink:href="#DejaVuSans-2e"/>
      <use x="179.199219" xlink:href="#DejaVuSans-30"/>
      <use x="242.822266" xlink:href="#DejaVuSans-31"/>
      <use x="306.445312" xlink:href="#DejaVuSans-35"/>
     </g>
    </g>
   </g>
   <g id="xtick_13">
    <g id="line2d_15">
     <path d="M 447.122795 441.598342 
L 454.761588 443.949305 
" style="fill:none;stroke:#000000;stroke-linecap:square;stroke-width:0.8;"/>
    </g>
    <g id="text_15">
     <!-- −0.010 -->
     <g transform="translate(443.562227 462.858987)scale(0.1 -0.1)">
      <use xlink:href="#DejaVuSans-2212"/>
      <use x="83.789062" xlink:href="#DejaVuSans-30"/>
      <use x="147.412109" xlink:href="#DejaVuSans-2e"/>
      <use x="179.199219" xlink:href="#DejaVuSans-30"/>
      <use x="242.822266" xlink:href="#DejaVuSans-31"/>
      <use x="306.445312" xlink:href="#DejaVuSans-30"/>
     </g>
    </g>
   </g>
   <g id="xtick_14">
    <g id="line2d_16">
     <path d="M 466.16651 422.089813 
L 473.74984 424.392497 
" style="fill:none;stroke:#000000;stroke-linecap:square;stroke-width:0.8;"/>
    </g>
    <g id="text_16">
     <!-- −0.005 -->
     <g transform="translate(462.464707 443.196108)scale(0.1 -0.1)">
      <use xlink:href="#DejaVuSans-2212"/>
      <use x="83.789062" xlink:href="#DejaVuSans-30"/>
      <use x="147.412109" xlink:href="#DejaVuSans-2e"/>
      <use x="179.199219" xlink:href="#DejaVuSans-30"/>
      <use x="242.822266" xlink:href="#DejaVuSans-30"/>
      <use x="306.445312" xlink:href="#DejaVuSans-35"/>
     </g>
    </g>
   </g>
   <g id="xtick_15">
    <g id="line2d_17">
     <path d="M 484.821363 402.979639 
L 492.34989 405.235514 
" style="fill:none;stroke:#000000;stroke-linecap:square;stroke-width:0.8;"/>
    </g>
    <g id="text_17">
     <!-- 0.000 -->
     <g transform="translate(485.170791 423.935005)scale(0.1 -0.1)">
      <use xlink:href="#DejaVuSans-30"/>
      <use x="63.623047" xlink:href="#DejaVuSans-2e"/>
      <use x="95.410156" xlink:href="#DejaVuSans-30"/>
      <use x="159.033203" xlink:href="#DejaVuSans-30"/>
      <use x="222.65625" xlink:href="#DejaVuSans-30"/>
     </g>
    </g>
   </g>
   <g id="xtick_16">
    <g id="line2d_18">
     <path d="M 503.099144 384.25574 
L 510.573522 386.46622 
" style="fill:none;stroke:#000000;stroke-linecap:square;stroke-width:0.8;"/>
    </g>
    <g id="text_18">
     <!-- 0.005 -->
     <g transform="translate(503.31251 405.06349)scale(0.1 -0.1)">
      <use xlink:href="#DejaVuSans-30"/>
      <use x="63.623047" xlink:href="#DejaVuSans-2e"/>
      <use x="95.410156" xlink:href="#DejaVuSans-30"/>
      <use x="159.033203" xlink:href="#DejaVuSans-30"/>
      <use x="222.65625" xlink:href="#DejaVuSans-35"/>
     </g>
    </g>
   </g>
   <g id="xtick_17">
    <g id="line2d_19">
     <path d="M 521.01117 365.906523 
L 528.432048 368.072964 
" style="fill:none;stroke:#000000;stroke-linecap:square;stroke-width:0.8;"/>
    </g>
    <g id="text_19">
     <!-- 0.010 -->
     <g transform="translate(521.090957 386.56986)scale(0.1 -0.1)">
      <use xlink:href="#DejaVuSans-30"/>
      <use x="63.623047" xlink:href="#DejaVuSans-2e"/>
      <use x="95.410156" xlink:href="#DejaVuSans-30"/>
      <use x="159.033203" xlink:href="#DejaVuSans-31"/>
      <use x="222.65625" xlink:href="#DejaVuSans-30"/>
     </g>
    </g>
   </g>
  </g>
  <g id="axis3d_3">
   <g id="line2d_20">
    <path d="M 529.521668 360.430763 
L 540.005628 131.487856 
" style="fill:none;stroke:#000000;stroke-linecap:square;stroke-width:0.8;"/>
   </g>
   <g id="text_20">
    <!-- z (m) -->
    <g transform="translate(577.326905 256.136884)rotate(-87.378092)scale(0.1 -0.1)">
     <defs>
      <path d="M 353 3500 
L 3084 3500 
L 3084 2975 
L 922 459 
L 3084 459 
L 3084 0 
L 275 0 
L 275 525 
L 2438 3041 
L 353 3041 
L 353 3500 
z
" id="DejaVuSans-7a" transform="scale(0.015625)"/>
     </defs>
     <use xlink:href="#DejaVuSans-7a"/>
     <use x="52.490234" xlink:href="#DejaVuSans-20"/>
     <use x="84.277344" xlink:href="#DejaVuSans-28"/>
     <use x="123.291016" xlink:href="#DejaVuSans-6d"/>
     <use x="220.703125" xlink:href="#DejaVuSans-29"/>
    </g>
   </g>
   <g id="Line3DCollection_3">
    <path d="M 531.194374 323.903139 
L 235.335236 239.666554 
L 50.859657 391.096199 
" style="fill:none;stroke:#b0b0b0;stroke-width:0.8;"/>
    <path d="M 532.886675 286.947598 
L 234.923976 203.902349 
L 49.036203 353.230984 
" style="fill:none;stroke:#b0b0b0;stroke-width:0.8;"/>
    <path d="M 534.603453 249.457551 
L 234.507054 167.645775 
L 47.185361 314.797045 
" style="fill:none;stroke:#b0b0b0;stroke-width:0.8;"/>
    <path d="M 536.345243 211.421317 
L 234.084353 130.886595 
L 45.306509 275.781472 
" style="fill:none;stroke:#b0b0b0;stroke-width:0.8;"/>
    <path d="M 538.112595 172.826873 
L 233.655751 93.614283 
L 43.399007 236.170963 
" style="fill:none;stroke:#b0b0b0;stroke-width:0.8;"/>
   </g>
   <g id="xtick_18">
    <g id="line2d_21">
     <path d="M 528.71047 323.195925 
L 536.16813 325.31926 
" style="fill:none;stroke:#000000;stroke-linecap:square;stroke-width:0.8;"/>
    </g>
    <g id="text_21">
     <!-- 0.94 -->
     <g transform="translate(538.466712 328.926917)scale(0.1 -0.1)">
      <defs>
       <path d="M 703 97 
L 703 672 
Q 941 559 1184 500 
Q 1428 441 1663 441 
Q 2288 441 2617 861 
Q 2947 1281 2994 2138 
Q 2813 1869 2534 1725 
Q 2256 1581 1919 1581 
Q 1219 1581 811 2004 
Q 403 2428 403 3163 
Q 403 3881 828 4315 
Q 1253 4750 1959 4750 
Q 2769 4750 3195 4129 
Q 3622 3509 3622 2328 
Q 3622 1225 3098 567 
Q 2575 -91 1691 -91 
Q 1453 -91 1209 -44 
Q 966 3 703 97 
z
M 1959 2075 
Q 2384 2075 2632 2365 
Q 2881 2656 2881 3163 
Q 2881 3666 2632 3958 
Q 2384 4250 1959 4250 
Q 1534 4250 1286 3958 
Q 1038 3666 1038 3163 
Q 1038 2656 1286 2365 
Q 1534 2075 1959 2075 
z
" id="DejaVuSans-39" transform="scale(0.015625)"/>
       <path d="M 2419 4116 
L 825 1625 
L 2419 1625 
L 2419 4116 
z
M 2253 4666 
L 3047 4666 
L 3047 1625 
L 3713 1625 
L 3713 1100 
L 3047 1100 
L 3047 0 
L 2419 0 
L 2419 1100 
L 313 1100 
L 313 1709 
L 2253 4666 
z
" id="DejaVuSans-34" transform="scale(0.015625)"/>
      </defs>
      <use xlink:href="#DejaVuSans-30"/>
      <use x="63.623047" xlink:href="#DejaVuSans-2e"/>
      <use x="95.410156" xlink:href="#DejaVuSans-39"/>
      <use x="159.033203" xlink:href="#DejaVuSans-34"/>
     </g>
    </g>
   </g>
   <g id="xtick_19">
    <g id="line2d_22">
     <path d="M 530.384266 286.250151 
L 537.897532 288.344175 
" style="fill:none;stroke:#000000;stroke-linecap:square;stroke-width:0.8;"/>
    </g>
    <g id="text_22">
     <!-- 0.96 -->
     <g transform="translate(540.288492 292.006949)scale(0.1 -0.1)">
      <defs>
       <path d="M 2113 2584 
Q 1688 2584 1439 2293 
Q 1191 2003 1191 1497 
Q 1191 994 1439 701 
Q 1688 409 2113 409 
Q 2538 409 2786 701 
Q 3034 994 3034 1497 
Q 3034 2003 2786 2293 
Q 2538 2584 2113 2584 
z
M 3366 4563 
L 3366 3988 
Q 3128 4100 2886 4159 
Q 2644 4219 2406 4219 
Q 1781 4219 1451 3797 
Q 1122 3375 1075 2522 
Q 1259 2794 1537 2939 
Q 1816 3084 2150 3084 
Q 2853 3084 3261 2657 
Q 3669 2231 3669 1497 
Q 3669 778 3244 343 
Q 2819 -91 2113 -91 
Q 1303 -91 875 529 
Q 447 1150 447 2328 
Q 447 3434 972 4092 
Q 1497 4750 2381 4750 
Q 2619 4750 2861 4703 
Q 3103 4656 3366 4563 
z
" id="DejaVuSans-36" transform="scale(0.015625)"/>
      </defs>
      <use xlink:href="#DejaVuSans-30"/>
      <use x="63.623047" xlink:href="#DejaVuSans-2e"/>
      <use x="95.410156" xlink:href="#DejaVuSans-39"/>
      <use x="159.033203" xlink:href="#DejaVuSans-36"/>
     </g>
    </g>
   </g>
   <g id="xtick_20">
    <g id="line2d_23">
     <path d="M 532.08226 248.770227 
L 539.651967 250.833868 
" style="fill:none;stroke:#000000;stroke-linecap:square;stroke-width:0.8;"/>
    </g>
    <g id="text_23">
     <!-- 0.98 -->
     <g transform="translate(542.136582 254.553777)scale(0.1 -0.1)">
      <defs>
       <path d="M 2034 2216 
Q 1584 2216 1326 1975 
Q 1069 1734 1069 1313 
Q 1069 891 1326 650 
Q 1584 409 2034 409 
Q 2484 409 2743 651 
Q 3003 894 3003 1313 
Q 3003 1734 2745 1975 
Q 2488 2216 2034 2216 
z
M 1403 2484 
Q 997 2584 770 2862 
Q 544 3141 544 3541 
Q 544 4100 942 4425 
Q 1341 4750 2034 4750 
Q 2731 4750 3128 4425 
Q 3525 4100 3525 3541 
Q 3525 3141 3298 2862 
Q 3072 2584 2669 2484 
Q 3125 2378 3379 2068 
Q 3634 1759 3634 1313 
Q 3634 634 3220 271 
Q 2806 -91 2034 -91 
Q 1263 -91 848 271 
Q 434 634 434 1313 
Q 434 1759 690 2068 
Q 947 2378 1403 2484 
z
M 1172 3481 
Q 1172 3119 1398 2916 
Q 1625 2713 2034 2713 
Q 2441 2713 2670 2916 
Q 2900 3119 2900 3481 
Q 2900 3844 2670 4047 
Q 2441 4250 2034 4250 
Q 1625 4250 1398 4047 
Q 1172 3844 1172 3481 
z
" id="DejaVuSans-38" transform="scale(0.015625)"/>
      </defs>
      <use xlink:href="#DejaVuSans-30"/>
      <use x="63.623047" xlink:href="#DejaVuSans-2e"/>
      <use x="95.410156" xlink:href="#DejaVuSans-39"/>
      <use x="159.033203" xlink:href="#DejaVuSans-38"/>
     </g>
    </g>
   </g>
   <g id="xtick_21">
    <g id="line2d_24">
     <path d="M 533.804982 210.744487 
L 541.431984 212.776634 
" style="fill:none;stroke:#000000;stroke-linecap:square;stroke-width:0.8;"/>
    </g>
    <g id="text_24">
     <!-- 1.00 -->
     <g transform="translate(544.011557 216.555764)scale(0.1 -0.1)">
      <use xlink:href="#DejaVuSans-31"/>
      <use x="63.623047" xlink:href="#DejaVuSans-2e"/>
      <use x="95.410156" xlink:href="#DejaVuSans-30"/>
      <use x="159.033203" xlink:href="#DejaVuSans-30"/>
     </g>
    </g>
   </g>
   <g id="xtick_22">
    <g id="line2d_25">
     <path d="M 535.552975 172.16092 
L 543.238144 174.160422 
" style="fill:none;stroke:#000000;stroke-linecap:square;stroke-width:0.8;"/>
    </g>
    <g id="text_25">
     <!-- 1.02 -->
     <g transform="translate(545.914007 178.000936)scale(0.1 -0.1)">
      <use xlink:href="#DejaVuSans-31"/>
      <use x="63.623047" xlink:href="#DejaVuSans-2e"/>
      <use x="95.410156" xlink:href="#DejaVuSans-30"/>
      <use x="159.033203" xlink:href="#DejaVuSans-32"/>
     </g>
    </g>
   </g>
  </g>
  <g id="axes_1">
   <g id="line2d_26">
    <path clip-path="url(#pbd03480215)" d="M 416.704801 231.683686 
L 416.71362 231.302466 
L 416.090547 254.039253 
L 415.554222 263.891631 
L 414.846232 271.673874 
L 414.161096 276.991554 
L 413.262534 282.362627 
L 412.122612 287.773457 
L 410.719535 293.215499 
L 409.032108 298.654272 
L 407.049868 304.092389 
L 404.759839 309.509675 
L 402.153254 314.899511 
L 399.220966 320.258608 
L 395.950908 325.576473 
L 392.333741 330.853277 
L 388.359353 336.082844 
L 384.020684 341.263924 
L 379.314706 346.396397 
L 374.241581 351.477805 
L 368.805128 356.50862 
L 363.011087 361.487553 
L 356.866796 366.413497 
L 350.379505 371.285524 
L 343.556193 376.102689 
L 336.403933 380.863847 
L 332.651231 382.996476 
L 328.76375 384.888443 
L 324.743492 386.539796 
L 320.593335 387.950406 
L 316.317035 389.119961 
L 311.938963 390.139137 
L 307.463876 391.007389 
L 302.897217 391.724067 
L 298.24512 392.288411 
L 288.721547 393.017045 
L 278.978558 393.367438 
L 269.075466 393.33216 
L 259.07929 393.02457 
L 249.047645 392.478252 
L 239.028714 391.712467 
L 229.06216 390.798095 
L 214.289981 389.154635 
L 199.824417 387.289729 
L 185.778274 385.240942 
L 172.268277 383.064721 
L 159.410586 380.787053 
L 147.312084 378.420565 
L 136.05528 375.988878 
L 125.709687 373.497805 
L 116.331017 370.958193 
L 110.64205 369.239722 
L 105.421518 367.501328 
L 100.683586 365.742182 
L 96.440429 363.963227 
L 92.702492 362.163505 
L 89.476725 360.343792 
L 86.767498 358.504387 
L 84.576751 356.645496 
L 82.903925 354.76771 
L 81.746934 352.871549 
L 81.361002 351.916484 
L 81.102814 350.956776 
L 80.971782 349.992509 
L 80.967251 349.023776 
L 81.088494 348.050678 
L 81.334863 347.072885 
L 81.705491 346.090511 
L 82.815501 344.11255 
L 84.409524 342.117527 
L 86.477099 340.105457 
L 89.005671 338.077969 
L 91.981581 336.035325 
L 95.389539 333.978956 
L 99.213447 331.910309 
L 103.436779 329.829763 
L 110.482352 326.690698 
L 118.327038 323.532492 
L 126.907385 320.360694 
L 136.157125 317.180285 
L 146.007203 313.99679 
L 159.951866 309.758686 
L 174.669209 305.541179 
L 189.992994 301.359047 
L 209.752841 296.204039 
L 233.945195 290.163249 
L 262.195822 283.377482 
L 297.459201 275.175014 
L 406.090596 250.142782 
L 420.747284 246.437872 
L 430.605586 243.727462 
L 436.947068 241.775141 
L 440.831341 240.39178 
L 443.529448 239.213525 
L 444.896123 238.407559 
L 445.614852 237.71355 
L 445.761478 237.26108 
L 445.598191 236.86259 
L 445.149343 236.514368 
L 444.149295 236.121436 
L 442.336555 235.732399 
L 439.48688 235.392685 
L 434.859057 235.108956 
L 427.678046 234.930143 
L 406.690226 234.570432 
L 404.354682 234.275943 
L 403.618018 233.995328 
L 403.531853 233.757874 
L 403.714823 233.54676 
L 404.382995 233.197379 
L 405.936709 232.677874 
L 409.090471 231.886807 
L 415.074333 230.654454 
L 425.669234 228.738213 
L 439.049115 226.301911 
L 439.170336 226.228732 
L 439.04921 226.197671 
L 437.93479 226.228937 
L 432.463118 226.614613 
L 433.829053 226.374874 
L 435.03193 226.209047 
L 429.682621 227.084973 
L 423.998423 228.189015 
L 423.998423 228.189015 
" style="fill:none;stroke:#1f77b4;stroke-linecap:square;stroke-opacity:0.7;stroke-width:1.5;"/>
   </g>
   <g id="line2d_27">
    <path clip-path="url(#pbd03480215)" d="M 416.704801 231.683686 
L 416.584835 241.645328 
L 416.762497 244.969393 
L 417.119987 247.763282 
L 417.68702 250.37753 
L 418.482581 252.930318 
L 419.482455 255.320288 
L 420.55973 257.346601 
L 421.835839 259.285106 
L 423.280255 261.02241 
L 424.543734 262.206706 
L 425.896716 263.172871 
L 427.330845 263.904958 
L 428.833151 264.401669 
L 430.388259 264.671655 
L 431.981772 264.738812 
L 434.010125 264.595648 
L 436.881117 264.13014 
L 441.3069 263.154852 
L 444.309018 262.282114 
L 446.714365 261.340097 
L 448.58757 260.355117 
L 450.002839 259.391218 
L 451.278777 258.293565 
L 452.414888 257.063341 
L 453.414229 255.702181 
L 454.437671 253.900382 
L 455.276535 251.926341 
L 455.944882 249.797614 
L 456.53425 247.143326 
L 456.991825 243.922615 
L 457.285344 240.124423 
L 457.425287 235.336847 
L 457.402548 227.053816 
L 457.450037 218.103264 
L 457.70274 212.751221 
L 458.134162 208.230454 
L 458.810208 203.640563 
L 459.976381 196.053404 
L 460.149674 193.31027 
L 460.08623 190.668731 
L 459.733056 182.978544 
L 459.95139 180.575993 
L 460.389657 178.30968 
L 461.053005 176.062472 
L 462.647536 171.087818 
L 462.847531 169.661768 
L 463.195761 169.079927 
L 463.41974 168.957766 
L 463.437097 168.976873 
L 463.924606 169.433261 
L 464.733936 170.098477 
L 464.67143 170.04409 
L 463.797486 194.731716 
L 463.229249 206.304614 
L 462.600129 215.60481 
L 461.700929 225.214248 
L 460.89404 231.66091 
L 459.882848 238.113536 
L 458.627105 244.495158 
L 457.100061 250.807297 
L 455.273777 257.018507 
L 453.129034 263.120524 
L 450.653114 269.115977 
L 447.837385 275.006614 
L 444.675959 280.795532 
L 441.167091 286.496881 
L 437.308182 292.116674 
L 433.096849 297.662417 
L 428.533298 303.152822 
L 423.613629 308.588217 
L 418.338993 313.986287 
L 412.708644 319.352875 
L 406.723389 324.692269 
L 400.388209 330.016987 
L 393.707145 335.328223 
L 390.184321 337.770972 
L 386.523254 340.003495 
L 382.725562 342.026696 
L 378.793334 343.841335 
L 374.72913 345.448022 
L 370.557633 346.936281 
L 366.281893 348.306293 
L 361.905545 349.558182 
L 357.432805 350.692016 
L 348.227356 352.653631 
L 338.736848 354.334873 
L 329.009765 355.734467 
L 319.109935 356.926176 
L 309.097811 357.933191 
L 299.031838 358.761375 
L 288.970617 359.432649 
L 278.968104 359.94358 
L 269.072339 360.294911 
L 259.325987 360.483873 
L 249.76638 360.506969 
L 240.42557 360.362428 
L 231.333368 360.046706 
L 222.517499 359.561468 
L 214.00547 358.906143 
L 205.825144 358.081006 
L 198.003998 357.090353 
L 190.56968 355.933207 
L 183.545878 354.616764 
L 176.955322 353.142448 
L 170.816306 351.513669 
L 165.14028 349.743671 
L 159.939816 347.830714 
L 155.218224 345.792418 
L 150.980281 343.633873 
L 147.229136 341.361039 
L 143.962192 338.994004 
L 141.182594 336.532779 
L 138.885875 333.998639 
L 137.071157 331.399174 
L 135.735952 328.742284 
L 135.245033 327.400662 
L 134.871447 326.050373 
L 134.614699 324.6915 
L 134.474176 323.324127 
L 134.447598 321.953159 
L 134.534124 320.578678 
L 135.042687 317.819547 
L 135.990216 315.051409 
L 137.363427 312.286784 
L 139.151716 309.526911 
L 141.34102 306.783138 
L 143.918624 304.060489 
L 146.871674 301.363133 
L 150.185665 298.699903 
L 153.847333 296.072829 
L 157.842204 293.486242 
L 162.155597 290.942805 
L 166.772554 288.443933 
L 171.677743 285.990254 
L 176.855281 283.583379 
L 185.098379 280.056625 
L 193.865371 276.630643 
L 203.10307 273.296576 
L 212.756745 270.050751 
L 222.771648 266.884142 
L 236.59019 262.770053 
L 250.817811 258.766488 
L 268.976794 253.893296 
L 294.657504 247.278174 
L 330.73381 238.254815 
L 389.348 223.860702 
L 430.255719 214.001735 
L 470.151195 204.430047 
L 473.860148 203.311098 
L 475.129071 202.749859 
L 475.375343 202.500125 
L 475.336403 202.367833 
L 474.988018 202.218315 
L 474.014564 202.105017 
L 471.56827 202.102684 
L 466.747164 202.366396 
L 457.95827 203.099363 
L 438.032953 205.044984 
L 422.077078 206.507555 
L 414.398134 206.997162 
L 409.722126 207.074084 
L 407.19359 206.909564 
L 405.824549 206.606813 
L 405.321255 206.321949 
L 405.14042 205.971606 
L 405.211837 205.666715 
L 405.574904 205.205229 
L 406.441084 204.542952 
L 408.045399 203.628901 
L 411.041986 202.223296 
L 415.930308 200.206123 
L 424.900387 196.784547 
L 446.095453 188.78047 
L 453.183251 185.835675 
L 458.115183 183.562003 
L 461.632763 181.719357 
L 463.981659 180.270192 
L 465.429472 179.159454 
L 466.305141 178.218844 
L 466.637657 177.533765 
L 466.631085 177.045615 
L 466.384803 176.644525 
L 465.929226 176.325138 
L 465.05172 176.015247 
L 463.630725 175.789259 
L 461.478142 175.703967 
L 458.45584 175.822662 
L 454.078498 176.02076 
L 454.128791 175.899411 
L 454.6359 175.579572 
L 457.157831 174.378125 
L 460.918935 172.493407 
L 463.023198 171.208664 
L 464.083692 170.334171 
L 464.455645 169.782144 
L 464.438921 169.468236 
L 464.194138 169.274533 
L 463.663254 169.175051 
L 462.706232 169.24357 
L 461.817473 169.505477 
L 461.931475 169.519037 
L 462.832562 169.331769 
L 463.983256 169.047989 
L 463.913873 169.161644 
L 463.754186 169.542463 
L 463.91599 169.698251 
L 464.746483 170.088695 
L 464.67056 170.043068 
" style="fill:none;stroke:#d62728;stroke-linecap:square;stroke-opacity:0.7;stroke-width:1.5;"/>
   </g>
   <g id="line2d_28">
    <path clip-path="url(#pbd03480215)" d="M 416.712402 231.355117 
L 416.712402 231.355117 
" style="fill:none;stroke:#000000;stroke-dasharray:5.55,2.4;stroke-dashoffset:0;stroke-opacity:0.595;stroke-width:1.5;"/>
   </g>
   <g id="legend_1">
    <g id="patch_6">
     <path d="M 473.09375 62.834375 
L 558.2 62.834375 
Q 560.2 62.834375 560.2 60.834375 
L 560.2 17.8 
Q 560.2 15.8 558.2 15.8 
L 473.09375 15.8 
Q 471.09375 15.8 471.09375 17.8 
L 471.09375 60.834375 
Q 471.09375 62.834375 473.09375 62.834375 
z
" style="fill:#ffffff;opacity:0.8;stroke:#cccccc;stroke-linejoin:miter;"/>
    </g>
    <g id="line2d_29">
     <path d="M 475.09375 23.898438 
L 495.09375 23.898438 
" style="fill:none;stroke:#1f77b4;stroke-linecap:square;stroke-opacity:0.7;stroke-width:1.5;"/>
    </g>
    <g id="line2d_30"/>
    <g id="text_26">
     <!-- DSLPID -->
     <g transform="translate(503.09375 27.398438)scale(0.1 -0.1)">
      <defs>
       <path d="M 1259 4147 
L 1259 519 
L 2022 519 
Q 2988 519 3436 956 
Q 3884 1394 3884 2338 
Q 3884 3275 3436 3711 
Q 2988 4147 2022 4147 
L 1259 4147 
z
M 628 4666 
L 1925 4666 
Q 3281 4666 3915 4102 
Q 4550 3538 4550 2338 
Q 4550 1131 3912 565 
Q 3275 0 1925 0 
L 628 0 
L 628 4666 
z
" id="DejaVuSans-44" transform="scale(0.015625)"/>
       <path d="M 3425 4513 
L 3425 3897 
Q 3066 4069 2747 4153 
Q 2428 4238 2131 4238 
Q 1616 4238 1336 4038 
Q 1056 3838 1056 3469 
Q 1056 3159 1242 3001 
Q 1428 2844 1947 2747 
L 2328 2669 
Q 3034 2534 3370 2195 
Q 3706 1856 3706 1288 
Q 3706 609 3251 259 
Q 2797 -91 1919 -91 
Q 1588 -91 1214 -16 
Q 841 59 441 206 
L 441 856 
Q 825 641 1194 531 
Q 1563 422 1919 422 
Q 2459 422 2753 634 
Q 3047 847 3047 1241 
Q 3047 1584 2836 1778 
Q 2625 1972 2144 2069 
L 1759 2144 
Q 1053 2284 737 2584 
Q 422 2884 422 3419 
Q 422 4038 858 4394 
Q 1294 4750 2059 4750 
Q 2388 4750 2728 4690 
Q 3069 4631 3425 4513 
z
" id="DejaVuSans-53" transform="scale(0.015625)"/>
       <path d="M 628 4666 
L 1259 4666 
L 1259 531 
L 3531 531 
L 3531 0 
L 628 0 
L 628 4666 
z
" id="DejaVuSans-4c" transform="scale(0.015625)"/>
       <path d="M 1259 4147 
L 1259 2394 
L 2053 2394 
Q 2494 2394 2734 2622 
Q 2975 2850 2975 3272 
Q 2975 3691 2734 3919 
Q 2494 4147 2053 4147 
L 1259 4147 
z
M 628 4666 
L 2053 4666 
Q 2838 4666 3239 4311 
Q 3641 3956 3641 3272 
Q 3641 2581 3239 2228 
Q 2838 1875 2053 1875 
L 1259 1875 
L 1259 0 
L 628 0 
L 628 4666 
z
" id="DejaVuSans-50" transform="scale(0.015625)"/>
       <path d="M 628 4666 
L 1259 4666 
L 1259 0 
L 628 0 
L 628 4666 
z
" id="DejaVuSans-49" transform="scale(0.015625)"/>
      </defs>
      <use xlink:href="#DejaVuSans-44"/>
      <use x="77.001953" xlink:href="#DejaVuSans-53"/>
      <use x="140.478516" xlink:href="#DejaVuSans-4c"/>
      <use x="196.191406" xlink:href="#DejaVuSans-50"/>
      <use x="256.494141" xlink:href="#DejaVuSans-49"/>
      <use x="285.986328" xlink:href="#DejaVuSans-44"/>
     </g>
    </g>
    <g id="line2d_31">
     <path d="M 475.09375 38.576563 
L 495.09375 38.576563 
" style="fill:none;stroke:#d62728;stroke-linecap:square;stroke-opacity:0.7;stroke-width:1.5;"/>
    </g>
    <g id="line2d_32"/>
    <g id="text_27">
     <!-- LSTMCNN -->
     <g transform="translate(503.09375 42.076563)scale(0.1 -0.1)">
      <defs>
       <path d="M -19 4666 
L 3928 4666 
L 3928 4134 
L 2272 4134 
L 2272 0 
L 1638 0 
L 1638 4134 
L -19 4134 
L -19 4666 
z
" id="DejaVuSans-54" transform="scale(0.015625)"/>
       <path d="M 628 4666 
L 1569 4666 
L 2759 1491 
L 3956 4666 
L 4897 4666 
L 4897 0 
L 4281 0 
L 4281 4097 
L 3078 897 
L 2444 897 
L 1241 4097 
L 1241 0 
L 628 0 
L 628 4666 
z
" id="DejaVuSans-4d" transform="scale(0.015625)"/>
       <path d="M 4122 4306 
L 4122 3641 
Q 3803 3938 3442 4084 
Q 3081 4231 2675 4231 
Q 1875 4231 1450 3742 
Q 1025 3253 1025 2328 
Q 1025 1406 1450 917 
Q 1875 428 2675 428 
Q 3081 428 3442 575 
Q 3803 722 4122 1019 
L 4122 359 
Q 3791 134 3420 21 
Q 3050 -91 2638 -91 
Q 1578 -91 968 557 
Q 359 1206 359 2328 
Q 359 3453 968 4101 
Q 1578 4750 2638 4750 
Q 3056 4750 3426 4639 
Q 3797 4528 4122 4306 
z
" id="DejaVuSans-43" transform="scale(0.015625)"/>
       <path d="M 628 4666 
L 1478 4666 
L 3547 763 
L 3547 4666 
L 4159 4666 
L 4159 0 
L 3309 0 
L 1241 3903 
L 1241 0 
L 628 0 
L 628 4666 
z
" id="DejaVuSans-4e" transform="scale(0.015625)"/>
      </defs>
      <use xlink:href="#DejaVuSans-4c"/>
      <use x="55.712891" xlink:href="#DejaVuSans-53"/>
      <use x="119.189453" xlink:href="#DejaVuSans-54"/>
      <use x="180.273438" xlink:href="#DejaVuSans-4d"/>
      <use x="266.552734" xlink:href="#DejaVuSans-43"/>
      <use x="336.376953" xlink:href="#DejaVuSans-4e"/>
      <use x="411.181641" xlink:href="#DejaVuSans-4e"/>
     </g>
    </g>
    <g id="line2d_33">
     <path d="M 475.09375 53.254688 
L 495.09375 53.254688 
" style="fill:none;stroke:#000000;stroke-dasharray:5.55,2.4;stroke-dashoffset:0;stroke-opacity:0.595;stroke-width:1.5;"/>
    </g>
    <g id="line2d_34"/>
    <g id="text_28">
     <!-- Referencia -->
     <g transform="translate(503.09375 56.754688)scale(0.1 -0.1)">
      <defs>
       <path d="M 2841 2188 
Q 3044 2119 3236 1894 
Q 3428 1669 3622 1275 
L 4263 0 
L 3584 0 
L 2988 1197 
Q 2756 1666 2539 1819 
Q 2322 1972 1947 1972 
L 1259 1972 
L 1259 0 
L 628 0 
L 628 4666 
L 2053 4666 
Q 2853 4666 3247 4331 
Q 3641 3997 3641 3322 
Q 3641 2881 3436 2590 
Q 3231 2300 2841 2188 
z
M 1259 4147 
L 1259 2491 
L 2053 2491 
Q 2509 2491 2742 2702 
Q 2975 2913 2975 3322 
Q 2975 3731 2742 3939 
Q 2509 4147 2053 4147 
L 1259 4147 
z
" id="DejaVuSans-52" transform="scale(0.015625)"/>
       <path d="M 3597 1894 
L 3597 1613 
L 953 1613 
Q 991 1019 1311 708 
Q 1631 397 2203 397 
Q 2534 397 2845 478 
Q 3156 559 3463 722 
L 3463 178 
Q 3153 47 2828 -22 
Q 2503 -91 2169 -91 
Q 1331 -91 842 396 
Q 353 884 353 1716 
Q 353 2575 817 3079 
Q 1281 3584 2069 3584 
Q 2775 3584 3186 3129 
Q 3597 2675 3597 1894 
z
M 3022 2063 
Q 3016 2534 2758 2815 
Q 2500 3097 2075 3097 
Q 1594 3097 1305 2825 
Q 1016 2553 972 2059 
L 3022 2063 
z
" id="DejaVuSans-65" transform="scale(0.015625)"/>
       <path d="M 2375 4863 
L 2375 4384 
L 1825 4384 
Q 1516 4384 1395 4259 
Q 1275 4134 1275 3809 
L 1275 3500 
L 2222 3500 
L 2222 3053 
L 1275 3053 
L 1275 0 
L 697 0 
L 697 3053 
L 147 3053 
L 147 3500 
L 697 3500 
L 697 3744 
Q 697 4328 969 4595 
Q 1241 4863 1831 4863 
L 2375 4863 
z
" id="DejaVuSans-66" transform="scale(0.015625)"/>
       <path d="M 2631 2963 
Q 2534 3019 2420 3045 
Q 2306 3072 2169 3072 
Q 1681 3072 1420 2755 
Q 1159 2438 1159 1844 
L 1159 0 
L 581 0 
L 581 3500 
L 1159 3500 
L 1159 2956 
Q 1341 3275 1631 3429 
Q 1922 3584 2338 3584 
Q 2397 3584 2469 3576 
Q 2541 3569 2628 3553 
L 2631 2963 
z
" id="DejaVuSans-72" transform="scale(0.015625)"/>
       <path d="M 3513 2113 
L 3513 0 
L 2938 0 
L 2938 2094 
Q 2938 2591 2744 2837 
Q 2550 3084 2163 3084 
Q 1697 3084 1428 2787 
Q 1159 2491 1159 1978 
L 1159 0 
L 581 0 
L 581 3500 
L 1159 3500 
L 1159 2956 
Q 1366 3272 1645 3428 
Q 1925 3584 2291 3584 
Q 2894 3584 3203 3211 
Q 3513 2838 3513 2113 
z
" id="DejaVuSans-6e" transform="scale(0.015625)"/>
       <path d="M 3122 3366 
L 3122 2828 
Q 2878 2963 2633 3030 
Q 2388 3097 2138 3097 
Q 1578 3097 1268 2742 
Q 959 2388 959 1747 
Q 959 1106 1268 751 
Q 1578 397 2138 397 
Q 2388 397 2633 464 
Q 2878 531 3122 666 
L 3122 134 
Q 2881 22 2623 -34 
Q 2366 -91 2075 -91 
Q 1284 -91 818 406 
Q 353 903 353 1747 
Q 353 2603 823 3093 
Q 1294 3584 2113 3584 
Q 2378 3584 2631 3529 
Q 2884 3475 3122 3366 
z
" id="DejaVuSans-63" transform="scale(0.015625)"/>
       <path d="M 603 3500 
L 1178 3500 
L 1178 0 
L 603 0 
L 603 3500 
z
M 603 4863 
L 1178 4863 
L 1178 4134 
L 603 4134 
L 603 4863 
z
" id="DejaVuSans-69" transform="scale(0.015625)"/>
       <path d="M 2194 1759 
Q 1497 1759 1228 1600 
Q 959 1441 959 1056 
Q 959 750 1161 570 
Q 1363 391 1709 391 
Q 2188 391 2477 730 
Q 2766 1069 2766 1631 
L 2766 1759 
L 2194 1759 
z
M 3341 1997 
L 3341 0 
L 2766 0 
L 2766 531 
Q 2569 213 2275 61 
Q 1981 -91 1556 -91 
Q 1019 -91 701 211 
Q 384 513 384 1019 
Q 384 1609 779 1909 
Q 1175 2209 1959 2209 
L 2766 2209 
L 2766 2266 
Q 2766 2663 2505 2880 
Q 2244 3097 1772 3097 
Q 1472 3097 1187 3025 
Q 903 2953 641 2809 
L 641 3341 
Q 956 3463 1253 3523 
Q 1550 3584 1831 3584 
Q 2591 3584 2966 3190 
Q 3341 2797 3341 1997 
z
" id="DejaVuSans-61" transform="scale(0.015625)"/>
      </defs>
      <use xlink:href="#DejaVuSans-52"/>
      <use x="64.982422" xlink:href="#DejaVuSans-65"/>
      <use x="126.505859" xlink:href="#DejaVuSans-66"/>
      <use x="161.710938" xlink:href="#DejaVuSans-65"/>
      <use x="223.234375" xlink:href="#DejaVuSans-72"/>
      <use x="262.097656" xlink:href="#DejaVuSans-65"/>
      <use x="323.621094" xlink:href="#DejaVuSans-6e"/>
      <use x="387" xlink:href="#DejaVuSans-63"/>
      <use x="441.980469" xlink:href="#DejaVuSans-69"/>
      <use x="469.763672" xlink:href="#DejaVuSans-61"/>
     </g>
    </g>
   </g>
  </g>
 </g>
 <defs>
  <clipPath id="pbd03480215">
   <rect height="554.4" width="554.4" x="10.8" y="10.8"/>
  </clipPath>
 </defs>
</svg>
