<?xml version="1.0" encoding="utf-8" standalone="no"?>
<!DOCTYPE svg PUBLIC "-//W3C//DTD SVG 1.1//EN"
  "http://www.w3.org/Graphics/SVG/1.1/DTD/svg11.dtd">
<svg height="576pt" version="1.1" viewBox="0 0 576 576" width="576pt" xmlns="http://www.w3.org/2000/svg" xmlns:xlink="http://www.w3.org/1999/xlink">
 <metadata>
  <rdf:RDF xmlns:cc="http://creativecommons.org/ns#" xmlns:dc="http://purl.org/dc/elements/1.1/" xmlns:rdf="http://www.w3.org/1999/02/22-rdf-syntax-ns#">
   <cc:Work>
    <dc:type rdf:resource="http://purl.org/dc/dcmitype/StillImage"/>
    <dc:date>2022-02-27T23:10:16.090770</dc:date>
    <dc:format>image/svg+xml</dc:format>
    <dc:creator>
     <cc:Agent>
      <dc:title>Matplotlib v3.4.3, https://matplotlib.org/</dc:title>
     </cc:Agent>
    </dc:creator>
   </cc:Work>
  </rdf:RDF>
 </metadata>
 <defs>
  <style type="text/css">*{stroke-linecap:butt;stroke-linejoin:round;}</style>
 </defs>
 <g id="figure_1">
  <g id="patch_1">
   <path d="M 0 576 
L 576 576 
L 576 0 
L 0 0 
z
" style="fill:#ffffff;"/>
  </g>
  <g id="axes_1">
   <g id="patch_2">
    <path d="M 78.19 259.98 
L 253.8 259.98 
L 253.8 55.68 
L 78.19 55.68 
z
" style="fill:#ffffff;"/>
   </g>
   <g id="matplotlib.axis_1">
    <g id="xtick_1">
     <g id="line2d_1">
      <path clip-path="url(#p771f018275)" d="M 86.172273 259.98 
L 86.172273 55.68 
" style="fill:none;stroke:#b0b0b0;stroke-linecap:square;stroke-width:0.8;"/>
     </g>
     <g id="line2d_2">
      <defs>
       <path d="M 0 0 
L 0 3.5 
" id="m61f4c2c041" style="stroke:#000000;stroke-width:0.8;"/>
      </defs>
      <g>
       <use style="stroke:#000000;stroke-width:0.8;" x="86.172273" xlink:href="#m61f4c2c041" y="259.98"/>
      </g>
     </g>
    </g>
    <g id="xtick_2">
     <g id="line2d_3">
      <path clip-path="url(#p771f018275)" d="M 126.091953 259.98 
L 126.091953 55.68 
" style="fill:none;stroke:#b0b0b0;stroke-linecap:square;stroke-width:0.8;"/>
     </g>
     <g id="line2d_4">
      <g>
       <use style="stroke:#000000;stroke-width:0.8;" x="126.091953" xlink:href="#m61f4c2c041" y="259.98"/>
      </g>
     </g>
    </g>
    <g id="xtick_3">
     <g id="line2d_5">
      <path clip-path="url(#p771f018275)" d="M 166.011633 259.98 
L 166.011633 55.68 
" style="fill:none;stroke:#b0b0b0;stroke-linecap:square;stroke-width:0.8;"/>
     </g>
     <g id="line2d_6">
      <g>
       <use style="stroke:#000000;stroke-width:0.8;" x="166.011633" xlink:href="#m61f4c2c041" y="259.98"/>
      </g>
     </g>
    </g>
    <g id="xtick_4">
     <g id="line2d_7">
      <path clip-path="url(#p771f018275)" d="M 205.931313 259.98 
L 205.931313 55.68 
" style="fill:none;stroke:#b0b0b0;stroke-linecap:square;stroke-width:0.8;"/>
     </g>
     <g id="line2d_8">
      <g>
       <use style="stroke:#000000;stroke-width:0.8;" x="205.931313" xlink:href="#m61f4c2c041" y="259.98"/>
      </g>
     </g>
    </g>
    <g id="xtick_5">
     <g id="line2d_9">
      <path clip-path="url(#p771f018275)" d="M 245.850994 259.98 
L 245.850994 55.68 
" style="fill:none;stroke:#b0b0b0;stroke-linecap:square;stroke-width:0.8;"/>
     </g>
     <g id="line2d_10">
      <g>
       <use style="stroke:#000000;stroke-width:0.8;" x="245.850994" xlink:href="#m61f4c2c041" y="259.98"/>
      </g>
     </g>
    </g>
    <g id="text_1">
     <!-- Tiempo (s) -->
     <g transform="translate(139.4325 271.578438)scale(0.1 -0.1)">
      <defs>
       <path d="M -19 4666 
L 3928 4666 
L 3928 4134 
L 2272 4134 
L 2272 0 
L 1638 0 
L 1638 4134 
L -19 4134 
L -19 4666 
z
" id="DejaVuSans-54" transform="scale(0.015625)"/>
       <path d="M 603 3500 
L 1178 3500 
L 1178 0 
L 603 0 
L 603 3500 
z
M 603 4863 
L 1178 4863 
L 1178 4134 
L 603 4134 
L 603 4863 
z
" id="DejaVuSans-69" transform="scale(0.015625)"/>
       <path d="M 3597 1894 
L 3597 1613 
L 953 1613 
Q 991 1019 1311 708 
Q 1631 397 2203 397 
Q 2534 397 2845 478 
Q 3156 559 3463 722 
L 3463 178 
Q 3153 47 2828 -22 
Q 2503 -91 2169 -91 
Q 1331 -91 842 396 
Q 353 884 353 1716 
Q 353 2575 817 3079 
Q 1281 3584 2069 3584 
Q 2775 3584 3186 3129 
Q 3597 2675 3597 1894 
z
M 3022 2063 
Q 3016 2534 2758 2815 
Q 2500 3097 2075 3097 
Q 1594 3097 1305 2825 
Q 1016 2553 972 2059 
L 3022 2063 
z
" id="DejaVuSans-65" transform="scale(0.015625)"/>
       <path d="M 3328 2828 
Q 3544 3216 3844 3400 
Q 4144 3584 4550 3584 
Q 5097 3584 5394 3201 
Q 5691 2819 5691 2113 
L 5691 0 
L 5113 0 
L 5113 2094 
Q 5113 2597 4934 2840 
Q 4756 3084 4391 3084 
Q 3944 3084 3684 2787 
Q 3425 2491 3425 1978 
L 3425 0 
L 2847 0 
L 2847 2094 
Q 2847 2600 2669 2842 
Q 2491 3084 2119 3084 
Q 1678 3084 1418 2786 
Q 1159 2488 1159 1978 
L 1159 0 
L 581 0 
L 581 3500 
L 1159 3500 
L 1159 2956 
Q 1356 3278 1631 3431 
Q 1906 3584 2284 3584 
Q 2666 3584 2933 3390 
Q 3200 3197 3328 2828 
z
" id="DejaVuSans-6d" transform="scale(0.015625)"/>
       <path d="M 1159 525 
L 1159 -1331 
L 581 -1331 
L 581 3500 
L 1159 3500 
L 1159 2969 
Q 1341 3281 1617 3432 
Q 1894 3584 2278 3584 
Q 2916 3584 3314 3078 
Q 3713 2572 3713 1747 
Q 3713 922 3314 415 
Q 2916 -91 2278 -91 
Q 1894 -91 1617 61 
Q 1341 213 1159 525 
z
M 3116 1747 
Q 3116 2381 2855 2742 
Q 2594 3103 2138 3103 
Q 1681 3103 1420 2742 
Q 1159 2381 1159 1747 
Q 1159 1113 1420 752 
Q 1681 391 2138 391 
Q 2594 391 2855 752 
Q 3116 1113 3116 1747 
z
" id="DejaVuSans-70" transform="scale(0.015625)"/>
       <path d="M 1959 3097 
Q 1497 3097 1228 2736 
Q 959 2375 959 1747 
Q 959 1119 1226 758 
Q 1494 397 1959 397 
Q 2419 397 2687 759 
Q 2956 1122 2956 1747 
Q 2956 2369 2687 2733 
Q 2419 3097 1959 3097 
z
M 1959 3584 
Q 2709 3584 3137 3096 
Q 3566 2609 3566 1747 
Q 3566 888 3137 398 
Q 2709 -91 1959 -91 
Q 1206 -91 779 398 
Q 353 888 353 1747 
Q 353 2609 779 3096 
Q 1206 3584 1959 3584 
z
" id="DejaVuSans-6f" transform="scale(0.015625)"/>
       <path id="DejaVuSans-20" transform="scale(0.015625)"/>
       <path d="M 1984 4856 
Q 1566 4138 1362 3434 
Q 1159 2731 1159 2009 
Q 1159 1288 1364 580 
Q 1569 -128 1984 -844 
L 1484 -844 
Q 1016 -109 783 600 
Q 550 1309 550 2009 
Q 550 2706 781 3412 
Q 1013 4119 1484 4856 
L 1984 4856 
z
" id="DejaVuSans-28" transform="scale(0.015625)"/>
       <path d="M 2834 3397 
L 2834 2853 
Q 2591 2978 2328 3040 
Q 2066 3103 1784 3103 
Q 1356 3103 1142 2972 
Q 928 2841 928 2578 
Q 928 2378 1081 2264 
Q 1234 2150 1697 2047 
L 1894 2003 
Q 2506 1872 2764 1633 
Q 3022 1394 3022 966 
Q 3022 478 2636 193 
Q 2250 -91 1575 -91 
Q 1294 -91 989 -36 
Q 684 19 347 128 
L 347 722 
Q 666 556 975 473 
Q 1284 391 1588 391 
Q 1994 391 2212 530 
Q 2431 669 2431 922 
Q 2431 1156 2273 1281 
Q 2116 1406 1581 1522 
L 1381 1569 
Q 847 1681 609 1914 
Q 372 2147 372 2553 
Q 372 3047 722 3315 
Q 1072 3584 1716 3584 
Q 2034 3584 2315 3537 
Q 2597 3491 2834 3397 
z
" id="DejaVuSans-73" transform="scale(0.015625)"/>
       <path d="M 513 4856 
L 1013 4856 
Q 1481 4119 1714 3412 
Q 1947 2706 1947 2009 
Q 1947 1309 1714 600 
Q 1481 -109 1013 -844 
L 513 -844 
Q 928 -128 1133 580 
Q 1338 1288 1338 2009 
Q 1338 2731 1133 3434 
Q 928 4138 513 4856 
z
" id="DejaVuSans-29" transform="scale(0.015625)"/>
      </defs>
      <use xlink:href="#DejaVuSans-54"/>
      <use x="57.958984" xlink:href="#DejaVuSans-69"/>
      <use x="85.742188" xlink:href="#DejaVuSans-65"/>
      <use x="147.265625" xlink:href="#DejaVuSans-6d"/>
      <use x="244.677734" xlink:href="#DejaVuSans-70"/>
      <use x="308.154297" xlink:href="#DejaVuSans-6f"/>
      <use x="369.335938" xlink:href="#DejaVuSans-20"/>
      <use x="401.123047" xlink:href="#DejaVuSans-28"/>
      <use x="440.136719" xlink:href="#DejaVuSans-73"/>
      <use x="492.236328" xlink:href="#DejaVuSans-29"/>
     </g>
    </g>
   </g>
   <g id="matplotlib.axis_2">
    <g id="ytick_1">
     <g id="line2d_11">
      <path clip-path="url(#p771f018275)" d="M 78.19 250.693636 
L 253.8 250.693636 
" style="fill:none;stroke:#b0b0b0;stroke-linecap:square;stroke-width:0.8;"/>
     </g>
     <g id="line2d_12">
      <defs>
       <path d="M 0 0 
L -3.5 0 
" id="m80690bfd0e" style="stroke:#000000;stroke-width:0.8;"/>
      </defs>
      <g>
       <use style="stroke:#000000;stroke-width:0.8;" x="78.19" xlink:href="#m80690bfd0e" y="250.693636"/>
      </g>
     </g>
     <g id="text_2">
      <!-- 0 -->
      <g transform="translate(64.8275 254.492855)scale(0.1 -0.1)">
       <defs>
        <path d="M 2034 4250 
Q 1547 4250 1301 3770 
Q 1056 3291 1056 2328 
Q 1056 1369 1301 889 
Q 1547 409 2034 409 
Q 2525 409 2770 889 
Q 3016 1369 3016 2328 
Q 3016 3291 2770 3770 
Q 2525 4250 2034 4250 
z
M 2034 4750 
Q 2819 4750 3233 4129 
Q 3647 3509 3647 2328 
Q 3647 1150 3233 529 
Q 2819 -91 2034 -91 
Q 1250 -91 836 529 
Q 422 1150 422 2328 
Q 422 3509 836 4129 
Q 1250 4750 2034 4750 
z
" id="DejaVuSans-30" transform="scale(0.015625)"/>
       </defs>
       <use xlink:href="#DejaVuSans-30"/>
      </g>
     </g>
    </g>
    <g id="ytick_2">
     <g id="line2d_13">
      <path clip-path="url(#p771f018275)" d="M 78.19 224.797753 
L 253.8 224.797753 
" style="fill:none;stroke:#b0b0b0;stroke-linecap:square;stroke-width:0.8;"/>
     </g>
     <g id="line2d_14">
      <g>
       <use style="stroke:#000000;stroke-width:0.8;" x="78.19" xlink:href="#m80690bfd0e" y="224.797753"/>
      </g>
     </g>
     <g id="text_3">
      <!-- 2500 -->
      <g transform="translate(45.74 228.596972)scale(0.1 -0.1)">
       <defs>
        <path d="M 1228 531 
L 3431 531 
L 3431 0 
L 469 0 
L 469 531 
Q 828 903 1448 1529 
Q 2069 2156 2228 2338 
Q 2531 2678 2651 2914 
Q 2772 3150 2772 3378 
Q 2772 3750 2511 3984 
Q 2250 4219 1831 4219 
Q 1534 4219 1204 4116 
Q 875 4013 500 3803 
L 500 4441 
Q 881 4594 1212 4672 
Q 1544 4750 1819 4750 
Q 2544 4750 2975 4387 
Q 3406 4025 3406 3419 
Q 3406 3131 3298 2873 
Q 3191 2616 2906 2266 
Q 2828 2175 2409 1742 
Q 1991 1309 1228 531 
z
" id="DejaVuSans-32" transform="scale(0.015625)"/>
        <path d="M 691 4666 
L 3169 4666 
L 3169 4134 
L 1269 4134 
L 1269 2991 
Q 1406 3038 1543 3061 
Q 1681 3084 1819 3084 
Q 2600 3084 3056 2656 
Q 3513 2228 3513 1497 
Q 3513 744 3044 326 
Q 2575 -91 1722 -91 
Q 1428 -91 1123 -41 
Q 819 9 494 109 
L 494 744 
Q 775 591 1075 516 
Q 1375 441 1709 441 
Q 2250 441 2565 725 
Q 2881 1009 2881 1497 
Q 2881 1984 2565 2268 
Q 2250 2553 1709 2553 
Q 1456 2553 1204 2497 
Q 953 2441 691 2322 
L 691 4666 
z
" id="DejaVuSans-35" transform="scale(0.015625)"/>
       </defs>
       <use xlink:href="#DejaVuSans-32"/>
       <use x="63.623047" xlink:href="#DejaVuSans-35"/>
       <use x="127.246094" xlink:href="#DejaVuSans-30"/>
       <use x="190.869141" xlink:href="#DejaVuSans-30"/>
      </g>
     </g>
    </g>
    <g id="ytick_3">
     <g id="line2d_15">
      <path clip-path="url(#p771f018275)" d="M 78.19 198.901871 
L 253.8 198.901871 
" style="fill:none;stroke:#b0b0b0;stroke-linecap:square;stroke-width:0.8;"/>
     </g>
     <g id="line2d_16">
      <g>
       <use style="stroke:#000000;stroke-width:0.8;" x="78.19" xlink:href="#m80690bfd0e" y="198.901871"/>
      </g>
     </g>
     <g id="text_4">
      <!-- 5000 -->
      <g transform="translate(45.74 202.701089)scale(0.1 -0.1)">
       <use xlink:href="#DejaVuSans-35"/>
       <use x="63.623047" xlink:href="#DejaVuSans-30"/>
       <use x="127.246094" xlink:href="#DejaVuSans-30"/>
       <use x="190.869141" xlink:href="#DejaVuSans-30"/>
      </g>
     </g>
    </g>
    <g id="ytick_4">
     <g id="line2d_17">
      <path clip-path="url(#p771f018275)" d="M 78.19 173.005988 
L 253.8 173.005988 
" style="fill:none;stroke:#b0b0b0;stroke-linecap:square;stroke-width:0.8;"/>
     </g>
     <g id="line2d_18">
      <g>
       <use style="stroke:#000000;stroke-width:0.8;" x="78.19" xlink:href="#m80690bfd0e" y="173.005988"/>
      </g>
     </g>
     <g id="text_5">
      <!-- 7500 -->
      <g transform="translate(45.74 176.805206)scale(0.1 -0.1)">
       <defs>
        <path d="M 525 4666 
L 3525 4666 
L 3525 4397 
L 1831 0 
L 1172 0 
L 2766 4134 
L 525 4134 
L 525 4666 
z
" id="DejaVuSans-37" transform="scale(0.015625)"/>
       </defs>
       <use xlink:href="#DejaVuSans-37"/>
       <use x="63.623047" xlink:href="#DejaVuSans-35"/>
       <use x="127.246094" xlink:href="#DejaVuSans-30"/>
       <use x="190.869141" xlink:href="#DejaVuSans-30"/>
      </g>
     </g>
    </g>
    <g id="ytick_5">
     <g id="line2d_19">
      <path clip-path="url(#p771f018275)" d="M 78.19 147.110105 
L 253.8 147.110105 
" style="fill:none;stroke:#b0b0b0;stroke-linecap:square;stroke-width:0.8;"/>
     </g>
     <g id="line2d_20">
      <g>
       <use style="stroke:#000000;stroke-width:0.8;" x="78.19" xlink:href="#m80690bfd0e" y="147.110105"/>
      </g>
     </g>
     <g id="text_6">
      <!-- 10000 -->
      <g transform="translate(39.3775 150.909324)scale(0.1 -0.1)">
       <defs>
        <path d="M 794 531 
L 1825 531 
L 1825 4091 
L 703 3866 
L 703 4441 
L 1819 4666 
L 2450 4666 
L 2450 531 
L 3481 531 
L 3481 0 
L 794 0 
L 794 531 
z
" id="DejaVuSans-31" transform="scale(0.015625)"/>
       </defs>
       <use xlink:href="#DejaVuSans-31"/>
       <use x="63.623047" xlink:href="#DejaVuSans-30"/>
       <use x="127.246094" xlink:href="#DejaVuSans-30"/>
       <use x="190.869141" xlink:href="#DejaVuSans-30"/>
       <use x="254.492188" xlink:href="#DejaVuSans-30"/>
      </g>
     </g>
    </g>
    <g id="ytick_6">
     <g id="line2d_21">
      <path clip-path="url(#p771f018275)" d="M 78.19 121.214222 
L 253.8 121.214222 
" style="fill:none;stroke:#b0b0b0;stroke-linecap:square;stroke-width:0.8;"/>
     </g>
     <g id="line2d_22">
      <g>
       <use style="stroke:#000000;stroke-width:0.8;" x="78.19" xlink:href="#m80690bfd0e" y="121.214222"/>
      </g>
     </g>
     <g id="text_7">
      <!-- 12500 -->
      <g transform="translate(39.3775 125.013441)scale(0.1 -0.1)">
       <use xlink:href="#DejaVuSans-31"/>
       <use x="63.623047" xlink:href="#DejaVuSans-32"/>
       <use x="127.246094" xlink:href="#DejaVuSans-35"/>
       <use x="190.869141" xlink:href="#DejaVuSans-30"/>
       <use x="254.492188" xlink:href="#DejaVuSans-30"/>
      </g>
     </g>
    </g>
    <g id="ytick_7">
     <g id="line2d_23">
      <path clip-path="url(#p771f018275)" d="M 78.19 95.318339 
L 253.8 95.318339 
" style="fill:none;stroke:#b0b0b0;stroke-linecap:square;stroke-width:0.8;"/>
     </g>
     <g id="line2d_24">
      <g>
       <use style="stroke:#000000;stroke-width:0.8;" x="78.19" xlink:href="#m80690bfd0e" y="95.318339"/>
      </g>
     </g>
     <g id="text_8">
      <!-- 15000 -->
      <g transform="translate(39.3775 99.117558)scale(0.1 -0.1)">
       <use xlink:href="#DejaVuSans-31"/>
       <use x="63.623047" xlink:href="#DejaVuSans-35"/>
       <use x="127.246094" xlink:href="#DejaVuSans-30"/>
       <use x="190.869141" xlink:href="#DejaVuSans-30"/>
       <use x="254.492188" xlink:href="#DejaVuSans-30"/>
      </g>
     </g>
    </g>
    <g id="ytick_8">
     <g id="line2d_25">
      <path clip-path="url(#p771f018275)" d="M 78.19 69.422456 
L 253.8 69.422456 
" style="fill:none;stroke:#b0b0b0;stroke-linecap:square;stroke-width:0.8;"/>
     </g>
     <g id="line2d_26">
      <g>
       <use style="stroke:#000000;stroke-width:0.8;" x="78.19" xlink:href="#m80690bfd0e" y="69.422456"/>
      </g>
     </g>
     <g id="text_9">
      <!-- 17500 -->
      <g transform="translate(39.3775 73.221675)scale(0.1 -0.1)">
       <use xlink:href="#DejaVuSans-31"/>
       <use x="63.623047" xlink:href="#DejaVuSans-37"/>
       <use x="127.246094" xlink:href="#DejaVuSans-35"/>
       <use x="190.869141" xlink:href="#DejaVuSans-30"/>
       <use x="254.492188" xlink:href="#DejaVuSans-30"/>
      </g>
     </g>
    </g>
   </g>
   <g id="line2d_27">
    <path clip-path="url(#p771f018275)" d="M 86.172273 250.693636 
L 86.305338 95.09191 
L 86.338605 95.09191 
L 86.47167 97.056985 
L 86.504937 97.056985 
L 86.638002 98.366276 
L 86.671269 98.366276 
L 86.804334 99.234893 
L 86.837601 99.234893 
L 86.970666 99.80912 
L 87.003933 99.80912 
L 87.136998 100.187484 
L 87.170265 100.187484 
L 87.30333 100.43592 
L 87.336597 100.43592 
L 87.469662 100.598351 
L 87.669261 100.703953 
L 87.802326 100.772066 
L 166.011633 100.824537 
L 166.144699 152.907675 
L 166.177965 152.907675 
L 166.311031 130.200168 
L 166.344297 130.200168 
L 166.477363 109.1412 
L 166.510629 109.1412 
L 166.643695 96.557081 
L 166.676961 96.557081 
L 166.810027 104.236372 
L 166.843293 104.236372 
L 166.976359 108.910309 
L 167.009625 108.910309 
L 167.142691 111.414852 
L 167.175957 111.414852 
L 167.309023 104.755838 
L 167.342289 104.755838 
L 167.475355 102.871233 
L 167.508621 102.871233 
L 167.641687 102.022769 
L 167.674953 102.022769 
L 167.808019 98.637859 
L 167.841285 98.637859 
L 167.974351 95.976074 
L 168.007617 95.976074 
L 168.140683 97.416899 
L 168.173949 97.416899 
L 168.307015 66.587013 
L 168.340281 66.587013 
L 168.473347 84.004575 
L 168.506613 84.004575 
L 168.639679 88.784486 
L 168.672945 88.784486 
L 168.806011 80.383872 
L 168.839277 80.383872 
L 168.972343 82.291287 
L 169.005609 82.291287 
L 169.138675 91.897352 
L 169.171941 91.897352 
L 169.305007 94.763299 
L 169.338273 94.763299 
L 169.471339 94.475045 
L 169.504605 94.475045 
L 169.637671 97.780263 
L 169.670937 97.780263 
L 169.804003 100.701296 
L 169.837269 100.701296 
L 169.970335 99.496804 
L 170.003601 99.496804 
L 170.136667 97.847093 
L 170.169933 97.847093 
L 170.302999 99.254806 
L 170.336265 99.254806 
L 170.469331 101.421272 
L 170.668929 101.424046 
L 170.801995 100.415332 
L 170.835261 100.415332 
L 170.968327 100.6445 
L 171.001593 100.6445 
L 171.134659 101.712589 
L 171.167925 101.712589 
L 171.300991 102.047585 
L 171.334257 102.047585 
L 171.467323 101.698391 
L 171.666921 101.731791 
L 171.799987 102.245945 
L 171.833253 102.245945 
L 171.966319 102.523674 
L 172.165917 102.416355 
L 172.332249 102.404479 
L 172.465315 102.645291 
L 172.498581 102.645291 
L 172.631647 102.818947 
L 173.496573 102.791734 
L 173.629639 102.69723 
L 173.995569 102.608076 
L 174.128635 102.509359 
L 174.161901 102.509359 
L 174.294967 102.380623 
L 174.494565 102.270361 
L 174.627631 102.169357 
L 174.660897 102.169357 
L 174.793963 102.046586 
L 174.827229 102.046586 
L 174.960295 101.908512 
L 174.993561 101.908512 
L 175.126627 101.780742 
L 175.159893 101.780742 
L 175.292959 101.664852 
L 175.326225 101.664852 
L 175.459291 101.546219 
L 175.492557 101.546219 
L 175.625623 101.42474 
L 175.658889 101.42474 
L 175.791955 101.312798 
L 175.991553 101.213778 
L 176.124619 101.1211 
L 176.324217 101.032953 
L 176.457283 100.954601 
L 176.656881 100.888488 
L 176.789947 100.831575 
L 177.155877 100.74114 
L 177.355476 100.688235 
L 179.318193 100.793554 
L 179.551058 100.841847 
L 180.482517 100.943102 
L 180.815181 100.969588 
L 181.280911 100.990962 
L 183.642825 100.884328 
L 184.075289 100.851203 
L 245.817727 100.824537 
L 245.817727 100.824537 
" style="fill:none;stroke:#1f77b4;stroke-linecap:square;stroke-opacity:0.7;stroke-width:1.5;"/>
   </g>
   <g id="line2d_28">
    <path clip-path="url(#p771f018275)" d="M 86.172273 250.693636 
L 86.305338 100.269378 
L 87.835593 100.318693 
L 87.968658 100.503773 
L 88.001925 100.503773 
L 88.13499 100.62996 
L 88.334589 100.569266 
L 88.467654 99.555777 
L 88.500921 99.555777 
L 88.633986 99.013118 
L 88.667253 99.013118 
L 88.800318 98.606324 
L 88.833585 98.606324 
L 88.96665 98.191891 
L 88.999917 98.191891 
L 89.132982 97.543979 
L 89.166249 97.543979 
L 89.299314 97.061393 
L 89.332581 97.061393 
L 89.465646 97.341455 
L 89.498913 97.341455 
L 89.631978 98.308891 
L 89.665245 98.308891 
L 89.79831 99.546061 
L 89.831577 99.546061 
L 89.964642 100.470589 
L 89.997909 100.470589 
L 90.130974 100.800338 
L 90.164241 100.800338 
L 90.297306 100.508105 
L 90.330573 100.508105 
L 90.463638 100.176572 
L 90.496905 100.176572 
L 90.62997 100.573414 
L 90.663237 100.573414 
L 90.796302 101.16248 
L 90.995901 101.077946 
L 91.128966 100.61192 
L 91.162233 100.61192 
L 91.295298 100.483862 
L 91.328565 100.483862 
L 91.46163 100.753302 
L 91.494897 100.753302 
L 91.627962 100.946806 
L 91.661229 100.946806 
L 91.794294 100.831073 
L 91.827561 100.831073 
L 91.960626 100.664186 
L 92.160225 100.730338 
L 92.29329 100.917102 
L 92.659221 100.847557 
L 92.792286 100.78663 
L 92.991885 100.866841 
L 93.12495 100.955737 
L 93.324549 100.927912 
L 93.457614 100.841262 
L 95.154201 100.93699 
L 95.287266 101.12716 
L 95.320533 101.12716 
L 95.453598 101.373845 
L 95.486865 101.373845 
L 95.61993 101.612306 
L 95.653197 101.612306 
L 95.786262 101.806526 
L 96.152193 101.849828 
L 96.285258 101.590763 
L 96.318525 101.590763 
L 96.45159 101.226504 
L 96.484857 101.226504 
L 96.617922 100.901201 
L 96.651189 100.901201 
L 96.784254 100.726552 
L 97.150185 100.776134 
L 97.28325 100.877783 
L 97.482849 100.987212 
L 97.615914 101.101757 
L 97.815513 101.198429 
L 97.981845 101.240531 
L 98.247976 101.14506 
L 98.480841 101.06962 
L 98.613906 101.001539 
L 98.979837 100.899067 
L 99.312501 100.910551 
L 99.512099 100.973376 
L 107.795433 100.863612 
L 110.68961 100.85072 
L 166.011633 100.824532 
L 166.144699 139.169883 
L 166.177965 139.169883 
L 166.311031 141.489528 
L 166.344297 141.489528 
L 166.477363 131.612889 
L 166.510629 131.612889 
L 166.643695 110.708873 
L 166.676961 110.708873 
L 166.810027 99.03968 
L 166.843293 99.03968 
L 166.976359 96.606446 
L 167.009625 96.606446 
L 167.142691 101.855423 
L 167.175957 101.855423 
L 167.309023 105.054987 
L 167.342289 105.054987 
L 167.475355 105.344865 
L 167.508621 105.344865 
L 167.641687 104.739422 
L 167.674953 104.739422 
L 167.808019 107.164988 
L 167.841285 107.164988 
L 167.974351 109.706035 
L 168.007617 109.706035 
L 168.140683 108.550686 
L 168.173949 108.550686 
L 168.307015 64.966364 
L 168.340281 64.966364 
L 168.473347 85.519004 
L 168.506613 85.519004 
L 168.639679 93.221238 
L 168.672945 93.221238 
L 168.806011 91.167461 
L 168.839277 91.167461 
L 168.972343 85.324862 
L 169.005609 85.324862 
L 169.138675 85.55778 
L 169.171941 85.55778 
L 169.305007 89.775352 
L 169.338273 89.775352 
L 169.471339 92.127716 
L 169.504605 92.127716 
L 169.637671 90.223754 
L 169.670937 90.223754 
L 169.804003 88.632073 
L 169.837269 88.632073 
L 169.970335 90.245357 
L 170.003601 90.245357 
L 170.136667 93.320064 
L 170.169933 93.320064 
L 170.302999 95.255277 
L 170.336265 95.255277 
L 170.469331 95.758765 
L 170.502597 95.758765 
L 170.635663 96.859053 
L 170.668929 96.859053 
L 170.801995 98.184855 
L 170.835261 98.184855 
L 170.968327 99.453064 
L 171.001593 99.453064 
L 171.134659 100.339521 
L 171.167925 100.339521 
L 171.300991 101.310446 
L 171.334257 101.310446 
L 171.467323 102.734311 
L 171.500589 102.734311 
L 171.633655 103.602978 
L 171.666921 103.602978 
L 171.799987 103.3877 
L 171.833253 103.3877 
L 171.966319 102.745449 
L 171.999585 102.745449 
L 172.132651 102.282487 
L 172.165917 102.282487 
L 172.298983 102.061316 
L 172.332249 102.061316 
L 172.465315 101.850915 
L 172.498581 101.850915 
L 172.631647 101.461416 
L 172.664913 101.461416 
L 172.797979 101.095705 
L 172.997577 101.124576 
L 173.130643 101.526025 
L 173.163909 101.526025 
L 173.296975 102.045543 
L 173.330241 102.045543 
L 173.463307 102.544641 
L 173.496573 102.544641 
L 173.629639 103.024056 
L 173.662905 103.024056 
L 173.795971 103.398796 
L 173.995569 103.478852 
L 174.128635 103.099079 
L 174.161901 103.099079 
L 174.294967 102.511034 
L 174.328233 102.511034 
L 174.461299 102.209699 
L 174.827229 102.142986 
L 174.960295 101.915067 
L 174.993561 101.915067 
L 175.126627 101.614705 
L 175.159893 101.614705 
L 175.292959 101.386487 
L 175.326225 101.386487 
L 175.459291 101.250301 
L 175.658889 101.148286 
L 175.791955 101.04496 
L 175.991553 100.961658 
L 176.157885 100.928926 
L 177.322209 101.005742 
L 177.455275 100.931209 
L 177.654873 100.830747 
L 177.787939 100.709523 
L 177.987537 100.599636 
L 178.120603 100.523667 
L 178.819197 100.611504 
L 178.952263 100.67951 
L 179.151861 100.752925 
L 179.284927 100.818336 
L 180.149853 100.919027 
L 180.582316 100.998946 
L 180.981513 101.100332 
L 181.147845 101.146481 
L 181.347444 101.208523 
L 183.476493 101.113628 
L 183.742625 101.0711 
L 184.640817 100.972677 
L 185.040014 100.937323 
L 203.768997 100.8265 
L 212.085597 100.822826 
L 245.817727 100.824543 
L 245.817727 100.824543 
" style="fill:none;stroke:#d62728;stroke-linecap:square;stroke-opacity:0.7;stroke-width:1.5;"/>
   </g>
   <g id="patch_3">
    <path d="M 78.19 259.98 
L 78.19 55.68 
" style="fill:none;stroke:#000000;stroke-linecap:square;stroke-linejoin:miter;stroke-width:0.8;"/>
   </g>
   <g id="patch_4">
    <path d="M 253.8 259.98 
L 253.8 55.68 
" style="fill:none;stroke:#000000;stroke-linecap:square;stroke-linejoin:miter;stroke-width:0.8;"/>
   </g>
   <g id="patch_5">
    <path d="M 78.19 259.98 
L 253.8 259.98 
" style="fill:none;stroke:#000000;stroke-linecap:square;stroke-linejoin:miter;stroke-width:0.8;"/>
   </g>
   <g id="patch_6">
    <path d="M 78.19 55.68 
L 253.8 55.68 
" style="fill:none;stroke:#000000;stroke-linecap:square;stroke-linejoin:miter;stroke-width:0.8;"/>
   </g>
   <g id="text_10">
    <!-- RPM0 (rpm) -->
    <g transform="translate(130.505 49.68)scale(0.12 -0.12)">
     <defs>
      <path d="M 2841 2188 
Q 3044 2119 3236 1894 
Q 3428 1669 3622 1275 
L 4263 0 
L 3584 0 
L 2988 1197 
Q 2756 1666 2539 1819 
Q 2322 1972 1947 1972 
L 1259 1972 
L 1259 0 
L 628 0 
L 628 4666 
L 2053 4666 
Q 2853 4666 3247 4331 
Q 3641 3997 3641 3322 
Q 3641 2881 3436 2590 
Q 3231 2300 2841 2188 
z
M 1259 4147 
L 1259 2491 
L 2053 2491 
Q 2509 2491 2742 2702 
Q 2975 2913 2975 3322 
Q 2975 3731 2742 3939 
Q 2509 4147 2053 4147 
L 1259 4147 
z
" id="DejaVuSans-52" transform="scale(0.015625)"/>
      <path d="M 1259 4147 
L 1259 2394 
L 2053 2394 
Q 2494 2394 2734 2622 
Q 2975 2850 2975 3272 
Q 2975 3691 2734 3919 
Q 2494 4147 2053 4147 
L 1259 4147 
z
M 628 4666 
L 2053 4666 
Q 2838 4666 3239 4311 
Q 3641 3956 3641 3272 
Q 3641 2581 3239 2228 
Q 2838 1875 2053 1875 
L 1259 1875 
L 1259 0 
L 628 0 
L 628 4666 
z
" id="DejaVuSans-50" transform="scale(0.015625)"/>
      <path d="M 628 4666 
L 1569 4666 
L 2759 1491 
L 3956 4666 
L 4897 4666 
L 4897 0 
L 4281 0 
L 4281 4097 
L 3078 897 
L 2444 897 
L 1241 4097 
L 1241 0 
L 628 0 
L 628 4666 
z
" id="DejaVuSans-4d" transform="scale(0.015625)"/>
      <path d="M 2631 2963 
Q 2534 3019 2420 3045 
Q 2306 3072 2169 3072 
Q 1681 3072 1420 2755 
Q 1159 2438 1159 1844 
L 1159 0 
L 581 0 
L 581 3500 
L 1159 3500 
L 1159 2956 
Q 1341 3275 1631 3429 
Q 1922 3584 2338 3584 
Q 2397 3584 2469 3576 
Q 2541 3569 2628 3553 
L 2631 2963 
z
" id="DejaVuSans-72" transform="scale(0.015625)"/>
     </defs>
     <use xlink:href="#DejaVuSans-52"/>
     <use x="69.482422" xlink:href="#DejaVuSans-50"/>
     <use x="129.785156" xlink:href="#DejaVuSans-4d"/>
     <use x="216.064453" xlink:href="#DejaVuSans-30"/>
     <use x="279.6875" xlink:href="#DejaVuSans-20"/>
     <use x="311.474609" xlink:href="#DejaVuSans-28"/>
     <use x="350.488281" xlink:href="#DejaVuSans-72"/>
     <use x="391.601562" xlink:href="#DejaVuSans-70"/>
     <use x="455.078125" xlink:href="#DejaVuSans-6d"/>
     <use x="552.490234" xlink:href="#DejaVuSans-29"/>
    </g>
   </g>
  </g>
  <g id="axes_2">
   <g id="patch_7">
    <path d="M 303.19 259.98 
L 478.8 259.98 
L 478.8 55.68 
L 303.19 55.68 
z
" style="fill:#ffffff;"/>
   </g>
   <g id="matplotlib.axis_3">
    <g id="xtick_6">
     <g id="line2d_29">
      <path clip-path="url(#pb61126cbe8)" d="M 311.172273 259.98 
L 311.172273 55.68 
" style="fill:none;stroke:#b0b0b0;stroke-linecap:square;stroke-width:0.8;"/>
     </g>
     <g id="line2d_30">
      <g>
       <use style="stroke:#000000;stroke-width:0.8;" x="311.172273" xlink:href="#m61f4c2c041" y="259.98"/>
      </g>
     </g>
    </g>
    <g id="xtick_7">
     <g id="line2d_31">
      <path clip-path="url(#pb61126cbe8)" d="M 351.091953 259.98 
L 351.091953 55.68 
" style="fill:none;stroke:#b0b0b0;stroke-linecap:square;stroke-width:0.8;"/>
     </g>
     <g id="line2d_32">
      <g>
       <use style="stroke:#000000;stroke-width:0.8;" x="351.091953" xlink:href="#m61f4c2c041" y="259.98"/>
      </g>
     </g>
    </g>
    <g id="xtick_8">
     <g id="line2d_33">
      <path clip-path="url(#pb61126cbe8)" d="M 391.011633 259.98 
L 391.011633 55.68 
" style="fill:none;stroke:#b0b0b0;stroke-linecap:square;stroke-width:0.8;"/>
     </g>
     <g id="line2d_34">
      <g>
       <use style="stroke:#000000;stroke-width:0.8;" x="391.011633" xlink:href="#m61f4c2c041" y="259.98"/>
      </g>
     </g>
    </g>
    <g id="xtick_9">
     <g id="line2d_35">
      <path clip-path="url(#pb61126cbe8)" d="M 430.931313 259.98 
L 430.931313 55.68 
" style="fill:none;stroke:#b0b0b0;stroke-linecap:square;stroke-width:0.8;"/>
     </g>
     <g id="line2d_36">
      <g>
       <use style="stroke:#000000;stroke-width:0.8;" x="430.931313" xlink:href="#m61f4c2c041" y="259.98"/>
      </g>
     </g>
    </g>
    <g id="xtick_10">
     <g id="line2d_37">
      <path clip-path="url(#pb61126cbe8)" d="M 470.850994 259.98 
L 470.850994 55.68 
" style="fill:none;stroke:#b0b0b0;stroke-linecap:square;stroke-width:0.8;"/>
     </g>
     <g id="line2d_38">
      <g>
       <use style="stroke:#000000;stroke-width:0.8;" x="470.850994" xlink:href="#m61f4c2c041" y="259.98"/>
      </g>
     </g>
    </g>
    <g id="text_11">
     <!-- Tiempo (s) -->
     <g transform="translate(364.4325 271.578438)scale(0.1 -0.1)">
      <use xlink:href="#DejaVuSans-54"/>
      <use x="57.958984" xlink:href="#DejaVuSans-69"/>
      <use x="85.742188" xlink:href="#DejaVuSans-65"/>
      <use x="147.265625" xlink:href="#DejaVuSans-6d"/>
      <use x="244.677734" xlink:href="#DejaVuSans-70"/>
      <use x="308.154297" xlink:href="#DejaVuSans-6f"/>
      <use x="369.335938" xlink:href="#DejaVuSans-20"/>
      <use x="401.123047" xlink:href="#DejaVuSans-28"/>
      <use x="440.136719" xlink:href="#DejaVuSans-73"/>
      <use x="492.236328" xlink:href="#DejaVuSans-29"/>
     </g>
    </g>
   </g>
   <g id="matplotlib.axis_4">
    <g id="ytick_9">
     <g id="line2d_39">
      <path clip-path="url(#pb61126cbe8)" d="M 303.19 250.693636 
L 478.8 250.693636 
" style="fill:none;stroke:#b0b0b0;stroke-linecap:square;stroke-width:0.8;"/>
     </g>
     <g id="line2d_40">
      <g>
       <use style="stroke:#000000;stroke-width:0.8;" x="303.19" xlink:href="#m80690bfd0e" y="250.693636"/>
      </g>
     </g>
     <g id="text_12">
      <!-- 0 -->
      <g transform="translate(289.8275 254.492855)scale(0.1 -0.1)">
       <use xlink:href="#DejaVuSans-30"/>
      </g>
     </g>
    </g>
    <g id="ytick_10">
     <g id="line2d_41">
      <path clip-path="url(#pb61126cbe8)" d="M 303.19 227.878515 
L 478.8 227.878515 
" style="fill:none;stroke:#b0b0b0;stroke-linecap:square;stroke-width:0.8;"/>
     </g>
     <g id="line2d_42">
      <g>
       <use style="stroke:#000000;stroke-width:0.8;" x="303.19" xlink:href="#m80690bfd0e" y="227.878515"/>
      </g>
     </g>
     <g id="text_13">
      <!-- 2500 -->
      <g transform="translate(270.74 231.677733)scale(0.1 -0.1)">
       <use xlink:href="#DejaVuSans-32"/>
       <use x="63.623047" xlink:href="#DejaVuSans-35"/>
       <use x="127.246094" xlink:href="#DejaVuSans-30"/>
       <use x="190.869141" xlink:href="#DejaVuSans-30"/>
      </g>
     </g>
    </g>
    <g id="ytick_11">
     <g id="line2d_43">
      <path clip-path="url(#pb61126cbe8)" d="M 303.19 205.063393 
L 478.8 205.063393 
" style="fill:none;stroke:#b0b0b0;stroke-linecap:square;stroke-width:0.8;"/>
     </g>
     <g id="line2d_44">
      <g>
       <use style="stroke:#000000;stroke-width:0.8;" x="303.19" xlink:href="#m80690bfd0e" y="205.063393"/>
      </g>
     </g>
     <g id="text_14">
      <!-- 5000 -->
      <g transform="translate(270.74 208.862612)scale(0.1 -0.1)">
       <use xlink:href="#DejaVuSans-35"/>
       <use x="63.623047" xlink:href="#DejaVuSans-30"/>
       <use x="127.246094" xlink:href="#DejaVuSans-30"/>
       <use x="190.869141" xlink:href="#DejaVuSans-30"/>
      </g>
     </g>
    </g>
    <g id="ytick_12">
     <g id="line2d_45">
      <path clip-path="url(#pb61126cbe8)" d="M 303.19 182.248271 
L 478.8 182.248271 
" style="fill:none;stroke:#b0b0b0;stroke-linecap:square;stroke-width:0.8;"/>
     </g>
     <g id="line2d_46">
      <g>
       <use style="stroke:#000000;stroke-width:0.8;" x="303.19" xlink:href="#m80690bfd0e" y="182.248271"/>
      </g>
     </g>
     <g id="text_15">
      <!-- 7500 -->
      <g transform="translate(270.74 186.04749)scale(0.1 -0.1)">
       <use xlink:href="#DejaVuSans-37"/>
       <use x="63.623047" xlink:href="#DejaVuSans-35"/>
       <use x="127.246094" xlink:href="#DejaVuSans-30"/>
       <use x="190.869141" xlink:href="#DejaVuSans-30"/>
      </g>
     </g>
    </g>
    <g id="ytick_13">
     <g id="line2d_47">
      <path clip-path="url(#pb61126cbe8)" d="M 303.19 159.43315 
L 478.8 159.43315 
" style="fill:none;stroke:#b0b0b0;stroke-linecap:square;stroke-width:0.8;"/>
     </g>
     <g id="line2d_48">
      <g>
       <use style="stroke:#000000;stroke-width:0.8;" x="303.19" xlink:href="#m80690bfd0e" y="159.43315"/>
      </g>
     </g>
     <g id="text_16">
      <!-- 10000 -->
      <g transform="translate(264.3775 163.232368)scale(0.1 -0.1)">
       <use xlink:href="#DejaVuSans-31"/>
       <use x="63.623047" xlink:href="#DejaVuSans-30"/>
       <use x="127.246094" xlink:href="#DejaVuSans-30"/>
       <use x="190.869141" xlink:href="#DejaVuSans-30"/>
       <use x="254.492188" xlink:href="#DejaVuSans-30"/>
      </g>
     </g>
    </g>
    <g id="ytick_14">
     <g id="line2d_49">
      <path clip-path="url(#pb61126cbe8)" d="M 303.19 136.618028 
L 478.8 136.618028 
" style="fill:none;stroke:#b0b0b0;stroke-linecap:square;stroke-width:0.8;"/>
     </g>
     <g id="line2d_50">
      <g>
       <use style="stroke:#000000;stroke-width:0.8;" x="303.19" xlink:href="#m80690bfd0e" y="136.618028"/>
      </g>
     </g>
     <g id="text_17">
      <!-- 12500 -->
      <g transform="translate(264.3775 140.417247)scale(0.1 -0.1)">
       <use xlink:href="#DejaVuSans-31"/>
       <use x="63.623047" xlink:href="#DejaVuSans-32"/>
       <use x="127.246094" xlink:href="#DejaVuSans-35"/>
       <use x="190.869141" xlink:href="#DejaVuSans-30"/>
       <use x="254.492188" xlink:href="#DejaVuSans-30"/>
      </g>
     </g>
    </g>
    <g id="ytick_15">
     <g id="line2d_51">
      <path clip-path="url(#pb61126cbe8)" d="M 303.19 113.802906 
L 478.8 113.802906 
" style="fill:none;stroke:#b0b0b0;stroke-linecap:square;stroke-width:0.8;"/>
     </g>
     <g id="line2d_52">
      <g>
       <use style="stroke:#000000;stroke-width:0.8;" x="303.19" xlink:href="#m80690bfd0e" y="113.802906"/>
      </g>
     </g>
     <g id="text_18">
      <!-- 15000 -->
      <g transform="translate(264.3775 117.602125)scale(0.1 -0.1)">
       <use xlink:href="#DejaVuSans-31"/>
       <use x="63.623047" xlink:href="#DejaVuSans-35"/>
       <use x="127.246094" xlink:href="#DejaVuSans-30"/>
       <use x="190.869141" xlink:href="#DejaVuSans-30"/>
       <use x="254.492188" xlink:href="#DejaVuSans-30"/>
      </g>
     </g>
    </g>
    <g id="ytick_16">
     <g id="line2d_53">
      <path clip-path="url(#pb61126cbe8)" d="M 303.19 90.987785 
L 478.8 90.987785 
" style="fill:none;stroke:#b0b0b0;stroke-linecap:square;stroke-width:0.8;"/>
     </g>
     <g id="line2d_54">
      <g>
       <use style="stroke:#000000;stroke-width:0.8;" x="303.19" xlink:href="#m80690bfd0e" y="90.987785"/>
      </g>
     </g>
     <g id="text_19">
      <!-- 17500 -->
      <g transform="translate(264.3775 94.787004)scale(0.1 -0.1)">
       <use xlink:href="#DejaVuSans-31"/>
       <use x="63.623047" xlink:href="#DejaVuSans-37"/>
       <use x="127.246094" xlink:href="#DejaVuSans-35"/>
       <use x="190.869141" xlink:href="#DejaVuSans-30"/>
       <use x="254.492188" xlink:href="#DejaVuSans-30"/>
      </g>
     </g>
    </g>
    <g id="ytick_17">
     <g id="line2d_55">
      <path clip-path="url(#pb61126cbe8)" d="M 303.19 68.172663 
L 478.8 68.172663 
" style="fill:none;stroke:#b0b0b0;stroke-linecap:square;stroke-width:0.8;"/>
     </g>
     <g id="line2d_56">
      <g>
       <use style="stroke:#000000;stroke-width:0.8;" x="303.19" xlink:href="#m80690bfd0e" y="68.172663"/>
      </g>
     </g>
     <g id="text_20">
      <!-- 20000 -->
      <g transform="translate(264.3775 71.971882)scale(0.1 -0.1)">
       <use xlink:href="#DejaVuSans-32"/>
       <use x="63.623047" xlink:href="#DejaVuSans-30"/>
       <use x="127.246094" xlink:href="#DejaVuSans-30"/>
       <use x="190.869141" xlink:href="#DejaVuSans-30"/>
       <use x="254.492188" xlink:href="#DejaVuSans-30"/>
      </g>
     </g>
    </g>
   </g>
   <g id="line2d_57">
    <path clip-path="url(#pb61126cbe8)" d="M 311.172273 250.693636 
L 311.305338 113.603415 
L 311.338605 113.603415 
L 311.47167 115.33471 
L 311.504937 115.33471 
L 311.638002 116.488238 
L 311.671269 116.488238 
L 311.804334 117.253519 
L 311.837601 117.253519 
L 311.970666 117.759432 
L 312.003933 117.759432 
L 312.136998 118.092783 
L 312.170265 118.092783 
L 312.30333 118.311663 
L 312.336597 118.311663 
L 312.469662 118.45477 
L 312.669261 118.547809 
L 312.802326 118.607818 
L 391.011633 118.654048 
L 391.144699 164.540999 
L 391.344297 164.540999 
L 391.477363 149.504603 
L 391.510629 149.504603 
L 391.643695 138.417582 
L 391.676961 138.417582 
L 391.810027 129.501087 
L 391.843293 129.501087 
L 391.976359 121.532739 
L 392.009625 121.532739 
L 392.142691 111.87245 
L 392.175957 111.87245 
L 392.309023 108.746301 
L 392.508621 108.726514 
L 392.641687 112.374835 
L 392.674953 112.374835 
L 392.808019 114.914588 
L 392.841285 114.914588 
L 392.974351 113.778553 
L 393.007617 113.778553 
L 393.140683 111.82513 
L 393.173949 111.82513 
L 393.307015 64.966364 
L 393.340281 64.966364 
L 393.473347 80.311806 
L 393.506613 80.311806 
L 393.639679 90.642626 
L 393.672945 90.642626 
L 393.806011 105.919949 
L 393.839277 105.919949 
L 393.972343 119.160741 
L 394.005609 119.160741 
L 394.138675 122.140274 
L 394.171941 122.140274 
L 394.305007 119.773744 
L 394.338273 119.773744 
L 394.471339 118.650499 
L 394.504605 118.650499 
L 394.637671 120.096958 
L 394.670937 120.096958 
L 394.804003 121.65803 
L 394.837269 121.65803 
L 394.970335 121.865652 
L 395.003601 121.865652 
L 395.136667 121.466331 
L 395.502597 121.390008 
L 395.635663 121.170422 
L 395.668929 121.170422 
L 395.801995 120.924207 
L 396.167925 120.837229 
L 396.300991 120.613598 
L 396.334257 120.613598 
L 396.467323 120.369382 
L 396.666921 120.271061 
L 396.899786 120.107945 
L 396.999585 120.107945 
L 397.132651 119.96205 
L 397.332249 119.876419 
L 397.531848 119.75933 
L 397.831245 119.67678 
L 397.964311 119.617191 
L 398.330241 119.527402 
L 398.463307 119.472175 
L 398.829237 119.388376 
L 399.028836 119.305736 
L 399.660897 119.197818 
L 399.860496 119.129751 
L 400.658889 119.021 
L 400.891754 118.97849 
L 402.155877 118.87384 
L 402.58834 118.843063 
L 405.149853 118.733387 
L 406.081312 118.708752 
L 470.817727 118.654047 
L 470.817727 118.654047 
" style="fill:none;stroke:#1f77b4;stroke-linecap:square;stroke-opacity:0.7;stroke-width:1.5;"/>
   </g>
   <g id="line2d_58">
    <path clip-path="url(#pb61126cbe8)" d="M 311.172273 250.693636 
L 311.305338 118.607952 
L 312.835593 118.595137 
L 312.968658 118.343578 
L 313.001925 118.343578 
L 313.13499 117.574846 
L 313.168257 117.574846 
L 313.301322 119.915278 
L 313.334589 119.915278 
L 313.467654 120.728504 
L 313.500921 120.728504 
L 313.633986 119.295683 
L 313.667253 119.295683 
L 313.800318 116.628796 
L 313.833585 116.628796 
L 313.96665 114.988016 
L 313.999917 114.988016 
L 314.132982 115.199513 
L 314.166249 115.199513 
L 314.299314 115.430087 
L 314.332581 115.430087 
L 314.465646 114.409704 
L 314.498913 114.409704 
L 314.631978 113.208364 
L 314.831577 113.283065 
L 314.964642 114.660442 
L 314.997909 114.660442 
L 315.130974 116.317457 
L 315.164241 116.317457 
L 315.297306 117.813519 
L 315.330573 117.813519 
L 315.463638 118.726044 
L 315.496905 118.726044 
L 315.62997 118.91313 
L 315.663237 118.91313 
L 315.796302 119.080721 
L 315.995901 119.164972 
L 316.128966 118.915663 
L 316.162233 118.915663 
L 316.295298 118.654386 
L 316.328565 118.654386 
L 316.46163 118.771775 
L 316.494897 118.771775 
L 316.627962 119.06672 
L 316.827561 119.122015 
L 316.960626 118.935752 
L 317.326557 119.022429 
L 317.459622 119.203087 
L 317.659221 119.186104 
L 317.792286 119.063504 
L 317.991885 119.052642 
L 318.12495 119.175651 
L 320.154201 119.086015 
L 320.287266 118.948087 
L 320.320533 118.948087 
L 320.453598 118.826807 
L 320.653197 118.720259 
L 320.786262 118.605759 
L 321.318525 118.706931 
L 321.45159 118.881897 
L 322.316517 118.828872 
L 322.449582 118.749373 
L 391.011633 118.654045 
L 391.144699 153.278789 
L 391.177965 153.278789 
L 391.311031 162.990361 
L 391.344297 162.990361 
L 391.477363 162.044069 
L 391.510629 162.044069 
L 391.643695 151.382885 
L 391.676961 151.382885 
L 391.810027 139.396828 
L 391.843293 139.396828 
L 391.976359 127.216428 
L 392.009625 127.216428 
L 392.142691 115.533216 
L 392.175957 115.533216 
L 392.309023 109.542451 
L 392.342289 109.542451 
L 392.475355 107.999623 
L 392.508621 107.999623 
L 392.641687 109.167548 
L 393.007617 109.272198 
L 393.140683 111.799776 
L 393.173949 111.799776 
L 393.307015 78.709546 
L 393.340281 78.709546 
L 393.473347 92.424579 
L 393.506613 92.424579 
L 393.639679 101.815893 
L 393.672945 101.815893 
L 393.806011 109.229111 
L 393.839277 109.229111 
L 393.972343 112.601934 
L 394.005609 112.601934 
L 394.138675 111.643421 
L 394.171941 111.643421 
L 394.305007 109.979261 
L 394.338273 109.979261 
L 394.471339 110.665947 
L 394.504605 110.665947 
L 394.637671 112.837701 
L 394.670937 112.837701 
L 394.804003 113.730392 
L 394.837269 113.730392 
L 394.970335 113.94509 
L 395.003601 113.94509 
L 395.136667 114.441644 
L 395.169933 114.441644 
L 395.302999 116.207515 
L 395.336265 116.207515 
L 395.469331 118.620428 
L 395.502597 118.620428 
L 395.635663 120.376834 
L 395.668929 120.376834 
L 395.801995 121.089943 
L 395.835261 121.089943 
L 395.968327 121.809256 
L 396.001593 121.809256 
L 396.134659 122.852581 
L 396.167925 122.852581 
L 396.300991 123.414448 
L 396.334257 123.414448 
L 396.467323 122.678158 
L 396.500589 122.678158 
L 396.633655 121.728166 
L 396.666921 121.728166 
L 396.799987 121.381563 
L 396.833253 121.381563 
L 396.966319 121.181213 
L 396.999585 121.181213 
L 397.132651 120.722205 
L 397.165917 120.722205 
L 397.298983 120.07572 
L 397.332249 120.07572 
L 397.465315 119.47436 
L 397.498581 119.47436 
L 397.631647 119.063922 
L 397.664913 119.063922 
L 397.797979 118.835602 
L 397.997577 118.744211 
L 398.130643 118.635582 
L 398.163909 118.635582 
L 398.296975 118.447035 
L 398.330241 118.447035 
L 398.463307 118.240258 
L 398.829237 118.220027 
L 398.962303 118.566213 
L 398.995569 118.566213 
L 399.128635 119.150449 
L 399.161901 119.150449 
L 399.294967 119.719612 
L 399.328233 119.719612 
L 399.461299 119.880765 
L 399.494565 119.880765 
L 399.627631 119.75887 
L 399.660897 119.75887 
L 399.793963 119.636829 
L 399.827229 119.636829 
L 399.960295 119.505819 
L 399.993561 119.505819 
L 400.126627 119.334282 
L 400.159893 119.334282 
L 400.292959 119.191579 
L 400.492557 119.11225 
L 400.692156 119.062979 
L 401.324217 118.974196 
L 401.457283 118.871011 
L 401.490549 118.871011 
L 401.623615 118.741166 
L 401.823213 118.638126 
L 401.956279 118.578064 
L 402.821205 118.641132 
L 402.954271 118.696791 
L 403.985529 118.590549 
L 404.185128 118.577839 
L 404.817189 118.68672 
L 405.016788 118.771348 
L 405.981513 118.871497 
L 406.347444 118.909882 
L 409.807149 118.812212 
L 410.17308 118.76999 
L 427.937337 118.659291 
L 434.524085 118.653172 
L 470.817727 118.654053 
L 470.817727 118.654053 
" style="fill:none;stroke:#d62728;stroke-linecap:square;stroke-opacity:0.7;stroke-width:1.5;"/>
   </g>
   <g id="patch_8">
    <path d="M 303.19 259.98 
L 303.19 55.68 
" style="fill:none;stroke:#000000;stroke-linecap:square;stroke-linejoin:miter;stroke-width:0.8;"/>
   </g>
   <g id="patch_9">
    <path d="M 478.8 259.98 
L 478.8 55.68 
" style="fill:none;stroke:#000000;stroke-linecap:square;stroke-linejoin:miter;stroke-width:0.8;"/>
   </g>
   <g id="patch_10">
    <path d="M 303.19 259.98 
L 478.8 259.98 
" style="fill:none;stroke:#000000;stroke-linecap:square;stroke-linejoin:miter;stroke-width:0.8;"/>
   </g>
   <g id="patch_11">
    <path d="M 303.19 55.68 
L 478.8 55.68 
" style="fill:none;stroke:#000000;stroke-linecap:square;stroke-linejoin:miter;stroke-width:0.8;"/>
   </g>
   <g id="text_21">
    <!-- RPM1 (rpm) -->
    <g transform="translate(355.505 49.68)scale(0.12 -0.12)">
     <use xlink:href="#DejaVuSans-52"/>
     <use x="69.482422" xlink:href="#DejaVuSans-50"/>
     <use x="129.785156" xlink:href="#DejaVuSans-4d"/>
     <use x="216.064453" xlink:href="#DejaVuSans-31"/>
     <use x="279.6875" xlink:href="#DejaVuSans-20"/>
     <use x="311.474609" xlink:href="#DejaVuSans-28"/>
     <use x="350.488281" xlink:href="#DejaVuSans-72"/>
     <use x="391.601562" xlink:href="#DejaVuSans-70"/>
     <use x="455.078125" xlink:href="#DejaVuSans-6d"/>
     <use x="552.490234" xlink:href="#DejaVuSans-29"/>
    </g>
   </g>
  </g>
  <g id="axes_3">
   <g id="patch_12">
    <path d="M 78.19 505.24 
L 253.8 505.24 
L 253.8 300.94 
L 78.19 300.94 
z
" style="fill:#ffffff;"/>
   </g>
   <g id="matplotlib.axis_5">
    <g id="xtick_11">
     <g id="line2d_59">
      <path clip-path="url(#p26111d3eb8)" d="M 86.172273 505.24 
L 86.172273 300.94 
" style="fill:none;stroke:#b0b0b0;stroke-linecap:square;stroke-width:0.8;"/>
     </g>
     <g id="line2d_60">
      <g>
       <use style="stroke:#000000;stroke-width:0.8;" x="86.172273" xlink:href="#m61f4c2c041" y="505.24"/>
      </g>
     </g>
     <g id="text_22">
      <!-- 0 -->
      <g transform="translate(82.991023 519.838438)scale(0.1 -0.1)">
       <use xlink:href="#DejaVuSans-30"/>
      </g>
     </g>
    </g>
    <g id="xtick_12">
     <g id="line2d_61">
      <path clip-path="url(#p26111d3eb8)" d="M 126.091953 505.24 
L 126.091953 300.94 
" style="fill:none;stroke:#b0b0b0;stroke-linecap:square;stroke-width:0.8;"/>
     </g>
     <g id="line2d_62">
      <g>
       <use style="stroke:#000000;stroke-width:0.8;" x="126.091953" xlink:href="#m61f4c2c041" y="505.24"/>
      </g>
     </g>
     <g id="text_23">
      <!-- 5 -->
      <g transform="translate(122.910703 519.838438)scale(0.1 -0.1)">
       <use xlink:href="#DejaVuSans-35"/>
      </g>
     </g>
    </g>
    <g id="xtick_13">
     <g id="line2d_63">
      <path clip-path="url(#p26111d3eb8)" d="M 166.011633 505.24 
L 166.011633 300.94 
" style="fill:none;stroke:#b0b0b0;stroke-linecap:square;stroke-width:0.8;"/>
     </g>
     <g id="line2d_64">
      <g>
       <use style="stroke:#000000;stroke-width:0.8;" x="166.011633" xlink:href="#m61f4c2c041" y="505.24"/>
      </g>
     </g>
     <g id="text_24">
      <!-- 10 -->
      <g transform="translate(159.649133 519.838438)scale(0.1 -0.1)">
       <use xlink:href="#DejaVuSans-31"/>
       <use x="63.623047" xlink:href="#DejaVuSans-30"/>
      </g>
     </g>
    </g>
    <g id="xtick_14">
     <g id="line2d_65">
      <path clip-path="url(#p26111d3eb8)" d="M 205.931313 505.24 
L 205.931313 300.94 
" style="fill:none;stroke:#b0b0b0;stroke-linecap:square;stroke-width:0.8;"/>
     </g>
     <g id="line2d_66">
      <g>
       <use style="stroke:#000000;stroke-width:0.8;" x="205.931313" xlink:href="#m61f4c2c041" y="505.24"/>
      </g>
     </g>
     <g id="text_25">
      <!-- 15 -->
      <g transform="translate(199.568813 519.838438)scale(0.1 -0.1)">
       <use xlink:href="#DejaVuSans-31"/>
       <use x="63.623047" xlink:href="#DejaVuSans-35"/>
      </g>
     </g>
    </g>
    <g id="xtick_15">
     <g id="line2d_67">
      <path clip-path="url(#p26111d3eb8)" d="M 245.850994 505.24 
L 245.850994 300.94 
" style="fill:none;stroke:#b0b0b0;stroke-linecap:square;stroke-width:0.8;"/>
     </g>
     <g id="line2d_68">
      <g>
       <use style="stroke:#000000;stroke-width:0.8;" x="245.850994" xlink:href="#m61f4c2c041" y="505.24"/>
      </g>
     </g>
     <g id="text_26">
      <!-- 20 -->
      <g transform="translate(239.488494 519.838438)scale(0.1 -0.1)">
       <use xlink:href="#DejaVuSans-32"/>
       <use x="63.623047" xlink:href="#DejaVuSans-30"/>
      </g>
     </g>
    </g>
    <g id="text_27">
     <!-- Tiempo (s) -->
     <g transform="translate(139.4325 533.516562)scale(0.1 -0.1)">
      <use xlink:href="#DejaVuSans-54"/>
      <use x="57.958984" xlink:href="#DejaVuSans-69"/>
      <use x="85.742188" xlink:href="#DejaVuSans-65"/>
      <use x="147.265625" xlink:href="#DejaVuSans-6d"/>
      <use x="244.677734" xlink:href="#DejaVuSans-70"/>
      <use x="308.154297" xlink:href="#DejaVuSans-6f"/>
      <use x="369.335938" xlink:href="#DejaVuSans-20"/>
      <use x="401.123047" xlink:href="#DejaVuSans-28"/>
      <use x="440.136719" xlink:href="#DejaVuSans-73"/>
      <use x="492.236328" xlink:href="#DejaVuSans-29"/>
     </g>
    </g>
   </g>
   <g id="matplotlib.axis_6">
    <g id="ytick_18">
     <g id="line2d_69">
      <path clip-path="url(#p26111d3eb8)" d="M 78.19 495.953636 
L 253.8 495.953636 
" style="fill:none;stroke:#b0b0b0;stroke-linecap:square;stroke-width:0.8;"/>
     </g>
     <g id="line2d_70">
      <g>
       <use style="stroke:#000000;stroke-width:0.8;" x="78.19" xlink:href="#m80690bfd0e" y="495.953636"/>
      </g>
     </g>
     <g id="text_28">
      <!-- 0 -->
      <g transform="translate(64.8275 499.752855)scale(0.1 -0.1)">
       <use xlink:href="#DejaVuSans-30"/>
      </g>
     </g>
    </g>
    <g id="ytick_19">
     <g id="line2d_71">
      <path clip-path="url(#p26111d3eb8)" d="M 78.19 472.13284 
L 253.8 472.13284 
" style="fill:none;stroke:#b0b0b0;stroke-linecap:square;stroke-width:0.8;"/>
     </g>
     <g id="line2d_72">
      <g>
       <use style="stroke:#000000;stroke-width:0.8;" x="78.19" xlink:href="#m80690bfd0e" y="472.13284"/>
      </g>
     </g>
     <g id="text_29">
      <!-- 2500 -->
      <g transform="translate(45.74 475.932058)scale(0.1 -0.1)">
       <use xlink:href="#DejaVuSans-32"/>
       <use x="63.623047" xlink:href="#DejaVuSans-35"/>
       <use x="127.246094" xlink:href="#DejaVuSans-30"/>
       <use x="190.869141" xlink:href="#DejaVuSans-30"/>
      </g>
     </g>
    </g>
    <g id="ytick_20">
     <g id="line2d_73">
      <path clip-path="url(#p26111d3eb8)" d="M 78.19 448.312043 
L 253.8 448.312043 
" style="fill:none;stroke:#b0b0b0;stroke-linecap:square;stroke-width:0.8;"/>
     </g>
     <g id="line2d_74">
      <g>
       <use style="stroke:#000000;stroke-width:0.8;" x="78.19" xlink:href="#m80690bfd0e" y="448.312043"/>
      </g>
     </g>
     <g id="text_30">
      <!-- 5000 -->
      <g transform="translate(45.74 452.111262)scale(0.1 -0.1)">
       <use xlink:href="#DejaVuSans-35"/>
       <use x="63.623047" xlink:href="#DejaVuSans-30"/>
       <use x="127.246094" xlink:href="#DejaVuSans-30"/>
       <use x="190.869141" xlink:href="#DejaVuSans-30"/>
      </g>
     </g>
    </g>
    <g id="ytick_21">
     <g id="line2d_75">
      <path clip-path="url(#p26111d3eb8)" d="M 78.19 424.491246 
L 253.8 424.491246 
" style="fill:none;stroke:#b0b0b0;stroke-linecap:square;stroke-width:0.8;"/>
     </g>
     <g id="line2d_76">
      <g>
       <use style="stroke:#000000;stroke-width:0.8;" x="78.19" xlink:href="#m80690bfd0e" y="424.491246"/>
      </g>
     </g>
     <g id="text_31">
      <!-- 7500 -->
      <g transform="translate(45.74 428.290465)scale(0.1 -0.1)">
       <use xlink:href="#DejaVuSans-37"/>
       <use x="63.623047" xlink:href="#DejaVuSans-35"/>
       <use x="127.246094" xlink:href="#DejaVuSans-30"/>
       <use x="190.869141" xlink:href="#DejaVuSans-30"/>
      </g>
     </g>
    </g>
    <g id="ytick_22">
     <g id="line2d_77">
      <path clip-path="url(#p26111d3eb8)" d="M 78.19 400.67045 
L 253.8 400.67045 
" style="fill:none;stroke:#b0b0b0;stroke-linecap:square;stroke-width:0.8;"/>
     </g>
     <g id="line2d_78">
      <g>
       <use style="stroke:#000000;stroke-width:0.8;" x="78.19" xlink:href="#m80690bfd0e" y="400.67045"/>
      </g>
     </g>
     <g id="text_32">
      <!-- 10000 -->
      <g transform="translate(39.3775 404.469669)scale(0.1 -0.1)">
       <use xlink:href="#DejaVuSans-31"/>
       <use x="63.623047" xlink:href="#DejaVuSans-30"/>
       <use x="127.246094" xlink:href="#DejaVuSans-30"/>
       <use x="190.869141" xlink:href="#DejaVuSans-30"/>
       <use x="254.492188" xlink:href="#DejaVuSans-30"/>
      </g>
     </g>
    </g>
    <g id="ytick_23">
     <g id="line2d_79">
      <path clip-path="url(#p26111d3eb8)" d="M 78.19 376.849653 
L 253.8 376.849653 
" style="fill:none;stroke:#b0b0b0;stroke-linecap:square;stroke-width:0.8;"/>
     </g>
     <g id="line2d_80">
      <g>
       <use style="stroke:#000000;stroke-width:0.8;" x="78.19" xlink:href="#m80690bfd0e" y="376.849653"/>
      </g>
     </g>
     <g id="text_33">
      <!-- 12500 -->
      <g transform="translate(39.3775 380.648872)scale(0.1 -0.1)">
       <use xlink:href="#DejaVuSans-31"/>
       <use x="63.623047" xlink:href="#DejaVuSans-32"/>
       <use x="127.246094" xlink:href="#DejaVuSans-35"/>
       <use x="190.869141" xlink:href="#DejaVuSans-30"/>
       <use x="254.492188" xlink:href="#DejaVuSans-30"/>
      </g>
     </g>
    </g>
    <g id="ytick_24">
     <g id="line2d_81">
      <path clip-path="url(#p26111d3eb8)" d="M 78.19 353.028857 
L 253.8 353.028857 
" style="fill:none;stroke:#b0b0b0;stroke-linecap:square;stroke-width:0.8;"/>
     </g>
     <g id="line2d_82">
      <g>
       <use style="stroke:#000000;stroke-width:0.8;" x="78.19" xlink:href="#m80690bfd0e" y="353.028857"/>
      </g>
     </g>
     <g id="text_34">
      <!-- 15000 -->
      <g transform="translate(39.3775 356.828075)scale(0.1 -0.1)">
       <use xlink:href="#DejaVuSans-31"/>
       <use x="63.623047" xlink:href="#DejaVuSans-35"/>
       <use x="127.246094" xlink:href="#DejaVuSans-30"/>
       <use x="190.869141" xlink:href="#DejaVuSans-30"/>
       <use x="254.492188" xlink:href="#DejaVuSans-30"/>
      </g>
     </g>
    </g>
    <g id="ytick_25">
     <g id="line2d_83">
      <path clip-path="url(#p26111d3eb8)" d="M 78.19 329.20806 
L 253.8 329.20806 
" style="fill:none;stroke:#b0b0b0;stroke-linecap:square;stroke-width:0.8;"/>
     </g>
     <g id="line2d_84">
      <g>
       <use style="stroke:#000000;stroke-width:0.8;" x="78.19" xlink:href="#m80690bfd0e" y="329.20806"/>
      </g>
     </g>
     <g id="text_35">
      <!-- 17500 -->
      <g transform="translate(39.3775 333.007279)scale(0.1 -0.1)">
       <use xlink:href="#DejaVuSans-31"/>
       <use x="63.623047" xlink:href="#DejaVuSans-37"/>
       <use x="127.246094" xlink:href="#DejaVuSans-35"/>
       <use x="190.869141" xlink:href="#DejaVuSans-30"/>
       <use x="254.492188" xlink:href="#DejaVuSans-30"/>
      </g>
     </g>
    </g>
    <g id="ytick_26">
     <g id="line2d_85">
      <path clip-path="url(#p26111d3eb8)" d="M 78.19 305.387263 
L 253.8 305.387263 
" style="fill:none;stroke:#b0b0b0;stroke-linecap:square;stroke-width:0.8;"/>
     </g>
     <g id="line2d_86">
      <g>
       <use style="stroke:#000000;stroke-width:0.8;" x="78.19" xlink:href="#m80690bfd0e" y="305.387263"/>
      </g>
     </g>
     <g id="text_36">
      <!-- 20000 -->
      <g transform="translate(39.3775 309.186482)scale(0.1 -0.1)">
       <use xlink:href="#DejaVuSans-32"/>
       <use x="63.623047" xlink:href="#DejaVuSans-30"/>
       <use x="127.246094" xlink:href="#DejaVuSans-30"/>
       <use x="190.869141" xlink:href="#DejaVuSans-30"/>
       <use x="254.492188" xlink:href="#DejaVuSans-30"/>
      </g>
     </g>
    </g>
   </g>
   <g id="line2d_87">
    <path clip-path="url(#p26111d3eb8)" d="M 86.172273 495.953636 
L 86.305338 352.820572 
L 86.338605 352.820572 
L 86.47167 354.628181 
L 86.504937 354.628181 
L 86.638002 355.832556 
L 86.671269 355.832556 
L 86.804334 356.63157 
L 86.837601 356.63157 
L 86.970666 357.159783 
L 87.003933 357.159783 
L 87.136998 357.507828 
L 87.170265 357.507828 
L 87.30333 357.736356 
L 87.336597 357.736356 
L 87.469662 357.885771 
L 87.669261 357.982911 
L 87.802326 358.045566 
L 166.011633 358.093833 
L 166.144699 406.00345 
L 166.177965 406.00345 
L 166.311031 401.489001 
L 166.344297 401.489001 
L 166.477363 382.117528 
L 166.510629 382.117528 
L 166.643695 370.541798 
L 166.676961 370.541798 
L 166.810027 349.471082 
L 166.843293 349.471082 
L 166.976359 349.158213 
L 167.009625 349.158213 
L 167.142691 360.401713 
L 167.175957 360.401713 
L 167.309023 364.570795 
L 167.342289 364.570795 
L 167.475355 358.01215 
L 167.508621 358.01215 
L 167.641687 349.999005 
L 167.674953 349.999005 
L 167.808019 350.257769 
L 167.841285 350.257769 
L 167.974351 354.096932 
L 168.173949 354.163484 
L 168.307015 310.226364 
L 168.340281 310.226364 
L 168.473347 326.248223 
L 168.506613 326.248223 
L 168.639679 344.50079 
L 168.672945 344.50079 
L 168.806011 352.296737 
L 168.839277 352.296737 
L 168.972343 345.17108 
L 169.005609 345.17108 
L 169.138675 344.109813 
L 169.171941 344.109813 
L 169.305007 355.033912 
L 169.338273 355.033912 
L 169.471339 363.938441 
L 169.504605 363.938441 
L 169.637671 362.69831 
L 169.670937 362.69831 
L 169.804003 359.085617 
L 169.837269 359.085617 
L 169.970335 360.349424 
L 170.003601 360.349424 
L 170.136667 363.262563 
L 170.169933 363.262563 
L 170.302999 363.05999 
L 170.336265 363.05999 
L 170.469331 361.319023 
L 170.668929 361.258407 
L 170.801995 362.139621 
L 170.835261 362.139621 
L 170.968327 361.814321 
L 171.001593 361.814321 
L 171.134659 360.666114 
L 171.167925 360.666114 
L 171.300991 360.255899 
L 171.334257 360.255899 
L 171.467323 360.496453 
L 171.500589 360.496453 
L 171.633655 360.302188 
L 171.666921 360.302188 
L 171.799987 359.615712 
L 171.833253 359.615712 
L 171.966319 359.189278 
L 172.165917 359.164266 
L 172.298983 359.049362 
L 172.332249 359.049362 
L 172.465315 358.690884 
L 172.498581 358.690884 
L 172.631647 358.404818 
L 172.831245 358.333368 
L 172.964311 358.278671 
L 172.997577 358.278671 
L 173.130643 358.120504 
L 173.163909 358.120504 
L 173.296975 357.977897 
L 174.827229 358.030575 
L 174.960295 358.092888 
L 175.326225 358.198514 
L 175.459291 358.253355 
L 175.658889 358.313866 
L 175.791955 358.369237 
L 176.157885 358.461037 
L 176.357484 358.54191 
L 178.819197 358.446726 
L 179.018796 358.376326 
L 179.650857 358.271143 
L 179.850456 358.207213 
L 180.648849 358.105591 
L 180.91498 358.070636 
L 245.817727 358.093832 
L 245.817727 358.093832 
" style="fill:none;stroke:#1f77b4;stroke-linecap:square;stroke-opacity:0.7;stroke-width:1.5;"/>
   </g>
   <g id="line2d_88">
    <path clip-path="url(#p26111d3eb8)" d="M 86.172273 495.953636 
L 86.305338 357.538011 
L 87.835593 357.505048 
L 87.968658 357.339115 
L 88.001925 357.339115 
L 88.13499 357.0022 
L 88.168257 357.0022 
L 88.301322 358.397164 
L 88.500921 358.334459 
L 88.633986 357.74739 
L 88.667253 357.74739 
L 88.800318 356.529328 
L 88.833585 356.529328 
L 88.96665 355.099888 
L 88.999917 355.099888 
L 89.132982 354.405727 
L 89.166249 354.405727 
L 89.299314 354.565772 
L 89.332581 354.565772 
L 89.465646 355.160443 
L 89.498913 355.160443 
L 89.631978 355.887009 
L 89.665245 355.887009 
L 89.79831 356.622272 
L 89.831577 356.622272 
L 89.964642 357.416674 
L 89.997909 357.416674 
L 90.130974 358.094025 
L 90.164241 358.094025 
L 90.297306 358.208254 
L 90.330573 358.208254 
L 90.463638 357.879951 
L 90.496905 357.879951 
L 90.62997 357.705371 
L 90.829569 357.766978 
L 90.962634 357.90755 
L 90.995901 357.90755 
L 91.128966 358.078902 
L 91.328565 358.070766 
L 91.46163 357.875053 
L 91.661229 357.802847 
L 91.794294 357.989264 
L 91.827561 357.989264 
L 91.960626 358.176847 
L 92.160225 358.133061 
L 92.29329 357.998459 
L 92.492889 358.024774 
L 92.625954 358.179368 
L 95.154201 358.263714 
L 95.287266 358.405261 
L 95.320533 358.405261 
L 95.453598 358.587816 
L 95.486865 358.587816 
L 95.61993 358.810745 
L 95.653197 358.810745 
L 95.786262 359.018781 
L 96.152193 359.031011 
L 96.285258 358.763021 
L 96.318525 358.763021 
L 96.45159 358.426367 
L 96.484857 358.426367 
L 96.617922 358.149042 
L 96.651189 358.149042 
L 96.784254 357.999527 
L 97.316517 358.091465 
L 97.449582 358.234783 
L 97.482849 358.234783 
L 97.615914 358.34983 
L 98.480841 358.316087 
L 98.613906 358.234076 
L 110.124081 358.122973 
L 115.945701 358.10374 
L 128.121203 358.092119 
L 166.011633 358.093828 
L 166.144699 394.664757 
L 166.177965 394.664757 
L 166.311031 401.920782 
L 166.344297 401.920782 
L 166.477363 396.22596 
L 166.510629 396.22596 
L 166.643695 378.844662 
L 166.676961 378.844662 
L 166.810027 365.105536 
L 166.843293 365.105536 
L 166.976359 352.808652 
L 167.009625 352.808652 
L 167.142691 348.243695 
L 167.175957 348.243695 
L 167.309023 351.878487 
L 167.342289 351.878487 
L 167.475355 358.312453 
L 167.508621 358.312453 
L 167.641687 362.097952 
L 167.674953 362.097952 
L 167.808019 362.437789 
L 167.841285 362.437789 
L 167.974351 361.304365 
L 168.007617 361.304365 
L 168.140683 359.98747 
L 168.173949 359.98747 
L 168.307015 314.916079 
L 168.340281 314.916079 
L 168.473347 328.660806 
L 168.506613 328.660806 
L 168.639679 337.809902 
L 168.672945 337.809902 
L 168.806011 347.129097 
L 168.839277 347.129097 
L 168.972343 355.123815 
L 169.005609 355.123815 
L 169.138675 355.446892 
L 169.171941 355.446892 
L 169.305007 351.377722 
L 169.338273 351.377722 
L 169.471339 349.324464 
L 169.504605 349.324464 
L 169.637671 351.894545 
L 169.670937 351.894545 
L 169.804003 354.945719 
L 169.837269 354.945719 
L 169.970335 355.379406 
L 170.003601 355.379406 
L 170.136667 354.53538 
L 170.169933 354.53538 
L 170.302999 354.888968 
L 170.336265 354.888968 
L 170.469331 357.091218 
L 170.502597 357.091218 
L 170.635663 358.975356 
L 170.668929 358.975356 
L 170.801995 359.164428 
L 170.835261 359.164428 
L 170.968327 358.693431 
L 171.001593 358.693431 
L 171.134659 358.983416 
L 171.167925 358.983416 
L 171.300991 360.099967 
L 171.334257 360.099967 
L 171.467323 361.133759 
L 171.500589 361.133759 
L 171.633655 361.280102 
L 171.666921 361.280102 
L 171.799987 360.710549 
L 171.833253 360.710549 
L 171.966319 360.211849 
L 171.999585 360.211849 
L 172.132651 359.744744 
L 172.165917 359.744744 
L 172.298983 359.01412 
L 172.332249 359.01412 
L 172.465315 358.234112 
L 172.498581 358.234112 
L 172.631647 357.720035 
L 172.664913 357.720035 
L 172.797979 357.475931 
L 173.163909 357.460575 
L 173.296975 357.719288 
L 173.330241 357.719288 
L 173.463307 358.208663 
L 173.496573 358.208663 
L 173.629639 358.73378 
L 173.662905 358.73378 
L 173.795971 359.053128 
L 173.995569 359.046434 
L 174.128635 358.667901 
L 174.161901 358.667901 
L 174.294967 358.15833 
L 174.328233 358.15833 
L 174.461299 358.018118 
L 174.827229 357.990917 
L 174.960295 357.865726 
L 175.159893 357.779422 
L 175.292959 357.71657 
L 175.991553 357.824098 
L 176.124619 357.914687 
L 176.324217 358.022535 
L 176.457283 358.158977 
L 176.490549 358.158977 
L 176.623615 358.304487 
L 176.656881 358.304487 
L 176.789947 358.426466 
L 176.989545 358.532534 
L 177.122611 358.625727 
L 177.821205 358.538118 
L 177.954271 358.480086 
L 178.985529 358.570607 
L 179.185128 358.612493 
L 179.983521 358.50786 
L 180.149853 358.460239 
L 180.349452 358.393657 
L 181.646841 358.306824 
L 181.84644 358.228459 
L 183.310161 358.120991 
L 184.407953 358.106139 
L 186.969465 358.217059 
L 188.466453 358.201697 
L 189.530978 358.161802 
L 245.817727 358.093836 
L 245.817727 358.093836 
" style="fill:none;stroke:#d62728;stroke-linecap:square;stroke-opacity:0.7;stroke-width:1.5;"/>
   </g>
   <g id="patch_13">
    <path d="M 78.19 505.24 
L 78.19 300.94 
" style="fill:none;stroke:#000000;stroke-linecap:square;stroke-linejoin:miter;stroke-width:0.8;"/>
   </g>
   <g id="patch_14">
    <path d="M 253.8 505.24 
L 253.8 300.94 
" style="fill:none;stroke:#000000;stroke-linecap:square;stroke-linejoin:miter;stroke-width:0.8;"/>
   </g>
   <g id="patch_15">
    <path d="M 78.19 505.24 
L 253.8 505.24 
" style="fill:none;stroke:#000000;stroke-linecap:square;stroke-linejoin:miter;stroke-width:0.8;"/>
   </g>
   <g id="patch_16">
    <path d="M 78.19 300.94 
L 253.8 300.94 
" style="fill:none;stroke:#000000;stroke-linecap:square;stroke-linejoin:miter;stroke-width:0.8;"/>
   </g>
   <g id="text_37">
    <!-- RPM2 (rpm) -->
    <g transform="translate(130.505 294.94)scale(0.12 -0.12)">
     <use xlink:href="#DejaVuSans-52"/>
     <use x="69.482422" xlink:href="#DejaVuSans-50"/>
     <use x="129.785156" xlink:href="#DejaVuSans-4d"/>
     <use x="216.064453" xlink:href="#DejaVuSans-32"/>
     <use x="279.6875" xlink:href="#DejaVuSans-20"/>
     <use x="311.474609" xlink:href="#DejaVuSans-28"/>
     <use x="350.488281" xlink:href="#DejaVuSans-72"/>
     <use x="391.601562" xlink:href="#DejaVuSans-70"/>
     <use x="455.078125" xlink:href="#DejaVuSans-6d"/>
     <use x="552.490234" xlink:href="#DejaVuSans-29"/>
    </g>
   </g>
  </g>
  <g id="axes_4">
   <g id="patch_17">
    <path d="M 303.19 505.24 
L 478.8 505.24 
L 478.8 300.94 
L 303.19 300.94 
z
" style="fill:#ffffff;"/>
   </g>
   <g id="matplotlib.axis_7">
    <g id="xtick_16">
     <g id="line2d_89">
      <path clip-path="url(#p5ff27c54d1)" d="M 311.172273 505.24 
L 311.172273 300.94 
" style="fill:none;stroke:#b0b0b0;stroke-linecap:square;stroke-width:0.8;"/>
     </g>
     <g id="line2d_90">
      <g>
       <use style="stroke:#000000;stroke-width:0.8;" x="311.172273" xlink:href="#m61f4c2c041" y="505.24"/>
      </g>
     </g>
     <g id="text_38">
      <!-- 0 -->
      <g transform="translate(307.991023 519.838438)scale(0.1 -0.1)">
       <use xlink:href="#DejaVuSans-30"/>
      </g>
     </g>
    </g>
    <g id="xtick_17">
     <g id="line2d_91">
      <path clip-path="url(#p5ff27c54d1)" d="M 351.091953 505.24 
L 351.091953 300.94 
" style="fill:none;stroke:#b0b0b0;stroke-linecap:square;stroke-width:0.8;"/>
     </g>
     <g id="line2d_92">
      <g>
       <use style="stroke:#000000;stroke-width:0.8;" x="351.091953" xlink:href="#m61f4c2c041" y="505.24"/>
      </g>
     </g>
     <g id="text_39">
      <!-- 5 -->
      <g transform="translate(347.910703 519.838438)scale(0.1 -0.1)">
       <use xlink:href="#DejaVuSans-35"/>
      </g>
     </g>
    </g>
    <g id="xtick_18">
     <g id="line2d_93">
      <path clip-path="url(#p5ff27c54d1)" d="M 391.011633 505.24 
L 391.011633 300.94 
" style="fill:none;stroke:#b0b0b0;stroke-linecap:square;stroke-width:0.8;"/>
     </g>
     <g id="line2d_94">
      <g>
       <use style="stroke:#000000;stroke-width:0.8;" x="391.011633" xlink:href="#m61f4c2c041" y="505.24"/>
      </g>
     </g>
     <g id="text_40">
      <!-- 10 -->
      <g transform="translate(384.649133 519.838438)scale(0.1 -0.1)">
       <use xlink:href="#DejaVuSans-31"/>
       <use x="63.623047" xlink:href="#DejaVuSans-30"/>
      </g>
     </g>
    </g>
    <g id="xtick_19">
     <g id="line2d_95">
      <path clip-path="url(#p5ff27c54d1)" d="M 430.931313 505.24 
L 430.931313 300.94 
" style="fill:none;stroke:#b0b0b0;stroke-linecap:square;stroke-width:0.8;"/>
     </g>
     <g id="line2d_96">
      <g>
       <use style="stroke:#000000;stroke-width:0.8;" x="430.931313" xlink:href="#m61f4c2c041" y="505.24"/>
      </g>
     </g>
     <g id="text_41">
      <!-- 15 -->
      <g transform="translate(424.568813 519.838438)scale(0.1 -0.1)">
       <use xlink:href="#DejaVuSans-31"/>
       <use x="63.623047" xlink:href="#DejaVuSans-35"/>
      </g>
     </g>
    </g>
    <g id="xtick_20">
     <g id="line2d_97">
      <path clip-path="url(#p5ff27c54d1)" d="M 470.850994 505.24 
L 470.850994 300.94 
" style="fill:none;stroke:#b0b0b0;stroke-linecap:square;stroke-width:0.8;"/>
     </g>
     <g id="line2d_98">
      <g>
       <use style="stroke:#000000;stroke-width:0.8;" x="470.850994" xlink:href="#m61f4c2c041" y="505.24"/>
      </g>
     </g>
     <g id="text_42">
      <!-- 20 -->
      <g transform="translate(464.488494 519.838438)scale(0.1 -0.1)">
       <use xlink:href="#DejaVuSans-32"/>
       <use x="63.623047" xlink:href="#DejaVuSans-30"/>
      </g>
     </g>
    </g>
    <g id="text_43">
     <!-- Tiempo (s) -->
     <g transform="translate(364.4325 533.516562)scale(0.1 -0.1)">
      <use xlink:href="#DejaVuSans-54"/>
      <use x="57.958984" xlink:href="#DejaVuSans-69"/>
      <use x="85.742188" xlink:href="#DejaVuSans-65"/>
      <use x="147.265625" xlink:href="#DejaVuSans-6d"/>
      <use x="244.677734" xlink:href="#DejaVuSans-70"/>
      <use x="308.154297" xlink:href="#DejaVuSans-6f"/>
      <use x="369.335938" xlink:href="#DejaVuSans-20"/>
      <use x="401.123047" xlink:href="#DejaVuSans-28"/>
      <use x="440.136719" xlink:href="#DejaVuSans-73"/>
      <use x="492.236328" xlink:href="#DejaVuSans-29"/>
     </g>
    </g>
   </g>
   <g id="matplotlib.axis_8">
    <g id="ytick_27">
     <g id="line2d_99">
      <path clip-path="url(#p5ff27c54d1)" d="M 303.19 495.953636 
L 478.8 495.953636 
" style="fill:none;stroke:#b0b0b0;stroke-linecap:square;stroke-width:0.8;"/>
     </g>
     <g id="line2d_100">
      <g>
       <use style="stroke:#000000;stroke-width:0.8;" x="303.19" xlink:href="#m80690bfd0e" y="495.953636"/>
      </g>
     </g>
     <g id="text_44">
      <!-- 0 -->
      <g transform="translate(289.8275 499.752855)scale(0.1 -0.1)">
       <use xlink:href="#DejaVuSans-30"/>
      </g>
     </g>
    </g>
    <g id="ytick_28">
     <g id="line2d_101">
      <path clip-path="url(#p5ff27c54d1)" d="M 303.19 473.138515 
L 478.8 473.138515 
" style="fill:none;stroke:#b0b0b0;stroke-linecap:square;stroke-width:0.8;"/>
     </g>
     <g id="line2d_102">
      <g>
       <use style="stroke:#000000;stroke-width:0.8;" x="303.19" xlink:href="#m80690bfd0e" y="473.138515"/>
      </g>
     </g>
     <g id="text_45">
      <!-- 2500 -->
      <g transform="translate(270.74 476.937733)scale(0.1 -0.1)">
       <use xlink:href="#DejaVuSans-32"/>
       <use x="63.623047" xlink:href="#DejaVuSans-35"/>
       <use x="127.246094" xlink:href="#DejaVuSans-30"/>
       <use x="190.869141" xlink:href="#DejaVuSans-30"/>
      </g>
     </g>
    </g>
    <g id="ytick_29">
     <g id="line2d_103">
      <path clip-path="url(#p5ff27c54d1)" d="M 303.19 450.323393 
L 478.8 450.323393 
" style="fill:none;stroke:#b0b0b0;stroke-linecap:square;stroke-width:0.8;"/>
     </g>
     <g id="line2d_104">
      <g>
       <use style="stroke:#000000;stroke-width:0.8;" x="303.19" xlink:href="#m80690bfd0e" y="450.323393"/>
      </g>
     </g>
     <g id="text_46">
      <!-- 5000 -->
      <g transform="translate(270.74 454.122612)scale(0.1 -0.1)">
       <use xlink:href="#DejaVuSans-35"/>
       <use x="63.623047" xlink:href="#DejaVuSans-30"/>
       <use x="127.246094" xlink:href="#DejaVuSans-30"/>
       <use x="190.869141" xlink:href="#DejaVuSans-30"/>
      </g>
     </g>
    </g>
    <g id="ytick_30">
     <g id="line2d_105">
      <path clip-path="url(#p5ff27c54d1)" d="M 303.19 427.508271 
L 478.8 427.508271 
" style="fill:none;stroke:#b0b0b0;stroke-linecap:square;stroke-width:0.8;"/>
     </g>
     <g id="line2d_106">
      <g>
       <use style="stroke:#000000;stroke-width:0.8;" x="303.19" xlink:href="#m80690bfd0e" y="427.508271"/>
      </g>
     </g>
     <g id="text_47">
      <!-- 7500 -->
      <g transform="translate(270.74 431.30749)scale(0.1 -0.1)">
       <use xlink:href="#DejaVuSans-37"/>
       <use x="63.623047" xlink:href="#DejaVuSans-35"/>
       <use x="127.246094" xlink:href="#DejaVuSans-30"/>
       <use x="190.869141" xlink:href="#DejaVuSans-30"/>
      </g>
     </g>
    </g>
    <g id="ytick_31">
     <g id="line2d_107">
      <path clip-path="url(#p5ff27c54d1)" d="M 303.19 404.69315 
L 478.8 404.69315 
" style="fill:none;stroke:#b0b0b0;stroke-linecap:square;stroke-width:0.8;"/>
     </g>
     <g id="line2d_108">
      <g>
       <use style="stroke:#000000;stroke-width:0.8;" x="303.19" xlink:href="#m80690bfd0e" y="404.69315"/>
      </g>
     </g>
     <g id="text_48">
      <!-- 10000 -->
      <g transform="translate(264.3775 408.492368)scale(0.1 -0.1)">
       <use xlink:href="#DejaVuSans-31"/>
       <use x="63.623047" xlink:href="#DejaVuSans-30"/>
       <use x="127.246094" xlink:href="#DejaVuSans-30"/>
       <use x="190.869141" xlink:href="#DejaVuSans-30"/>
       <use x="254.492188" xlink:href="#DejaVuSans-30"/>
      </g>
     </g>
    </g>
    <g id="ytick_32">
     <g id="line2d_109">
      <path clip-path="url(#p5ff27c54d1)" d="M 303.19 381.878028 
L 478.8 381.878028 
" style="fill:none;stroke:#b0b0b0;stroke-linecap:square;stroke-width:0.8;"/>
     </g>
     <g id="line2d_110">
      <g>
       <use style="stroke:#000000;stroke-width:0.8;" x="303.19" xlink:href="#m80690bfd0e" y="381.878028"/>
      </g>
     </g>
     <g id="text_49">
      <!-- 12500 -->
      <g transform="translate(264.3775 385.677247)scale(0.1 -0.1)">
       <use xlink:href="#DejaVuSans-31"/>
       <use x="63.623047" xlink:href="#DejaVuSans-32"/>
       <use x="127.246094" xlink:href="#DejaVuSans-35"/>
       <use x="190.869141" xlink:href="#DejaVuSans-30"/>
       <use x="254.492188" xlink:href="#DejaVuSans-30"/>
      </g>
     </g>
    </g>
    <g id="ytick_33">
     <g id="line2d_111">
      <path clip-path="url(#p5ff27c54d1)" d="M 303.19 359.062906 
L 478.8 359.062906 
" style="fill:none;stroke:#b0b0b0;stroke-linecap:square;stroke-width:0.8;"/>
     </g>
     <g id="line2d_112">
      <g>
       <use style="stroke:#000000;stroke-width:0.8;" x="303.19" xlink:href="#m80690bfd0e" y="359.062906"/>
      </g>
     </g>
     <g id="text_50">
      <!-- 15000 -->
      <g transform="translate(264.3775 362.862125)scale(0.1 -0.1)">
       <use xlink:href="#DejaVuSans-31"/>
       <use x="63.623047" xlink:href="#DejaVuSans-35"/>
       <use x="127.246094" xlink:href="#DejaVuSans-30"/>
       <use x="190.869141" xlink:href="#DejaVuSans-30"/>
       <use x="254.492188" xlink:href="#DejaVuSans-30"/>
      </g>
     </g>
    </g>
    <g id="ytick_34">
     <g id="line2d_113">
      <path clip-path="url(#p5ff27c54d1)" d="M 303.19 336.247785 
L 478.8 336.247785 
" style="fill:none;stroke:#b0b0b0;stroke-linecap:square;stroke-width:0.8;"/>
     </g>
     <g id="line2d_114">
      <g>
       <use style="stroke:#000000;stroke-width:0.8;" x="303.19" xlink:href="#m80690bfd0e" y="336.247785"/>
      </g>
     </g>
     <g id="text_51">
      <!-- 17500 -->
      <g transform="translate(264.3775 340.047004)scale(0.1 -0.1)">
       <use xlink:href="#DejaVuSans-31"/>
       <use x="63.623047" xlink:href="#DejaVuSans-37"/>
       <use x="127.246094" xlink:href="#DejaVuSans-35"/>
       <use x="190.869141" xlink:href="#DejaVuSans-30"/>
       <use x="254.492188" xlink:href="#DejaVuSans-30"/>
      </g>
     </g>
    </g>
    <g id="ytick_35">
     <g id="line2d_115">
      <path clip-path="url(#p5ff27c54d1)" d="M 303.19 313.432663 
L 478.8 313.432663 
" style="fill:none;stroke:#b0b0b0;stroke-linecap:square;stroke-width:0.8;"/>
     </g>
     <g id="line2d_116">
      <g>
       <use style="stroke:#000000;stroke-width:0.8;" x="303.19" xlink:href="#m80690bfd0e" y="313.432663"/>
      </g>
     </g>
     <g id="text_52">
      <!-- 20000 -->
      <g transform="translate(264.3775 317.231882)scale(0.1 -0.1)">
       <use xlink:href="#DejaVuSans-32"/>
       <use x="63.623047" xlink:href="#DejaVuSans-30"/>
       <use x="127.246094" xlink:href="#DejaVuSans-30"/>
       <use x="190.869141" xlink:href="#DejaVuSans-30"/>
       <use x="254.492188" xlink:href="#DejaVuSans-30"/>
      </g>
     </g>
    </g>
   </g>
   <g id="line2d_117">
    <path clip-path="url(#p5ff27c54d1)" d="M 311.172273 495.953636 
L 311.305338 358.863415 
L 311.338605 358.863415 
L 311.47167 360.59471 
L 311.504937 360.59471 
L 311.638002 361.748238 
L 311.671269 361.748238 
L 311.804334 362.513519 
L 311.837601 362.513519 
L 311.970666 363.019432 
L 312.003933 363.019432 
L 312.136998 363.352783 
L 312.170265 363.352783 
L 312.30333 363.571663 
L 312.336597 363.571663 
L 312.469662 363.71477 
L 312.669261 363.807809 
L 312.802326 363.867818 
L 391.011633 363.914048 
L 391.144699 409.800999 
L 391.344297 409.800999 
L 391.477363 394.764603 
L 391.510629 394.764603 
L 391.643695 383.677582 
L 391.676961 383.677582 
L 391.810027 379.178638 
L 391.843293 379.178638 
L 391.976359 366.792739 
L 392.009625 366.792739 
L 392.142691 353.15425 
L 392.175957 353.15425 
L 392.309023 352.124511 
L 392.342289 352.124511 
L 392.475355 356.600434 
L 392.508621 356.600434 
L 392.641687 359.280754 
L 392.674953 359.280754 
L 392.808019 358.424954 
L 392.841285 358.424954 
L 392.974351 357.871519 
L 393.007617 357.871519 
L 393.140683 358.603529 
L 393.173949 358.603529 
L 393.307015 310.226364 
L 393.340281 310.226364 
L 393.473347 325.571806 
L 393.506613 325.571806 
L 393.639679 336.934218 
L 393.672945 336.934218 
L 393.806011 351.56192 
L 393.839277 351.56192 
L 393.972343 363.852289 
L 394.005609 363.852289 
L 394.138675 367.427893 
L 394.171941 367.427893 
L 394.305007 365.99542 
L 394.338273 365.99542 
L 394.471339 364.514769 
L 394.504605 364.514769 
L 394.637671 365.04557 
L 394.670937 365.04557 
L 394.804003 366.63857 
L 394.837269 366.63857 
L 394.970335 367.572018 
L 395.003601 367.572018 
L 395.136667 367.312379 
L 395.169933 367.312379 
L 395.302999 366.659659 
L 395.336265 366.659659 
L 395.469331 366.387291 
L 395.835261 366.412534 
L 395.968327 366.184465 
L 396.001593 366.184465 
L 396.134659 365.957653 
L 396.167925 365.957653 
L 396.300991 365.831985 
L 396.334257 365.831985 
L 396.467323 365.717882 
L 396.500589 365.717882 
L 396.633655 365.555998 
L 396.666921 365.555998 
L 396.799987 365.40787 
L 396.999585 365.319944 
L 397.132651 365.247697 
L 397.332249 365.147199 
L 397.465315 365.045465 
L 397.831245 364.936938 
L 397.964311 364.881664 
L 398.163909 364.817505 
L 398.330241 364.767938 
L 398.52984 364.695378 
L 398.995569 364.608174 
L 399.195168 364.541164 
L 399.827229 364.434981 
L 400.060094 364.373726 
L 400.825221 364.269596 
L 401.058086 364.227629 
L 402.322209 364.124745 
L 402.754672 364.092589 
L 405.316185 363.985223 
L 406.38071 363.961782 
L 470.817727 363.914047 
L 470.817727 363.914047 
" style="fill:none;stroke:#1f77b4;stroke-linecap:square;stroke-opacity:0.7;stroke-width:1.5;"/>
   </g>
   <g id="line2d_118">
    <path clip-path="url(#p5ff27c54d1)" d="M 311.172273 495.953636 
L 311.305338 364.070537 
L 312.835593 364.041302 
L 312.968658 364.386356 
L 313.001925 364.386356 
L 313.13499 365.333642 
L 313.168257 365.333642 
L 313.301322 364.580994 
L 313.334589 364.580994 
L 313.467654 361.685848 
L 313.500921 361.685848 
L 313.633986 361.164688 
L 313.667253 361.164688 
L 313.800318 362.180704 
L 313.833585 362.180704 
L 313.96665 362.308271 
L 313.999917 362.308271 
L 314.132982 360.412582 
L 314.166249 360.412582 
L 314.299314 358.570518 
L 314.498913 358.462479 
L 314.631978 359.258815 
L 314.665245 359.258815 
L 314.79831 359.495376 
L 314.997909 359.387334 
L 315.130974 360.359945 
L 315.164241 360.359945 
L 315.297306 362.84363 
L 315.330573 362.84363 
L 315.463638 364.989201 
L 315.496905 364.989201 
L 315.62997 365.138623 
L 315.663237 365.138623 
L 315.796302 364.444442 
L 315.829569 364.444442 
L 315.962634 364.244554 
L 315.995901 364.244554 
L 316.128966 364.633905 
L 316.162233 364.633905 
L 316.295298 364.920224 
L 316.328565 364.920224 
L 316.46163 364.722521 
L 316.494897 364.722521 
L 316.627962 364.385409 
L 316.827561 364.371392 
L 316.960626 364.639241 
L 316.993893 364.639241 
L 317.126958 364.77969 
L 317.160225 364.77969 
L 317.29329 364.623537 
L 317.326557 364.623537 
L 317.459622 364.425779 
L 317.659221 364.452823 
L 317.792286 364.614379 
L 317.991885 364.64334 
L 318.12495 364.495552 
L 318.158217 364.495552 
L 318.291282 364.375678 
L 318.490881 364.412631 
L 318.623946 364.494163 
L 318.823545 364.462612 
L 318.95661 364.34417 
L 319.821537 364.244247 
L 320.021135 364.179073 
L 320.320533 364.093335 
L 320.453598 363.940064 
L 320.486865 363.940064 
L 320.61993 363.779393 
L 320.819529 363.677999 
L 320.985861 363.666378 
L 321.118926 363.73991 
L 321.152193 363.73991 
L 321.285258 363.883863 
L 321.318525 363.883863 
L 321.45159 364.053 
L 321.484857 364.053 
L 321.617922 364.179626 
L 322.150185 364.120071 
L 322.28325 364.040272 
L 322.815513 363.930844 
L 323.015111 363.934395 
L 323.314509 363.991444 
L 323.447574 364.049892 
L 335.456745 363.939218 
L 342.176558 363.920117 
L 391.011633 363.914045 
L 391.144699 397.419819 
L 391.177965 397.419819 
L 391.311031 406.619471 
L 391.344297 406.619471 
L 391.477363 404.364625 
L 391.510629 404.364625 
L 391.643695 393.572045 
L 391.676961 393.572045 
L 391.810027 382.957325 
L 391.843293 382.957325 
L 391.976359 376.294441 
L 392.009625 376.294441 
L 392.142691 366.607042 
L 392.175957 366.607042 
L 392.309023 357.575943 
L 392.342289 357.575943 
L 392.475355 352.611253 
L 392.508621 352.611253 
L 392.641687 351.50661 
L 392.674953 351.50661 
L 392.808019 353.824781 
L 392.841285 353.824781 
L 392.974351 357.298144 
L 393.007617 357.298144 
L 393.140683 359.959677 
L 393.173949 359.959677 
L 393.307015 322.522036 
L 393.340281 322.522036 
L 393.473347 338.485494 
L 393.506613 338.485494 
L 393.639679 348.879497 
L 393.672945 348.879497 
L 393.806011 353.380519 
L 393.839277 353.380519 
L 393.972343 354.212871 
L 394.005609 354.212871 
L 394.138675 355.88133 
L 394.171941 355.88133 
L 394.305007 358.160365 
L 394.338273 358.160365 
L 394.471339 358.493153 
L 394.504605 358.493153 
L 394.637671 356.91903 
L 394.670937 356.91903 
L 394.804003 356.760273 
L 394.837269 356.760273 
L 394.970335 358.566479 
L 395.003601 358.566479 
L 395.136667 361.110611 
L 395.169933 361.110611 
L 395.302999 362.654378 
L 395.336265 362.654378 
L 395.469331 363.227122 
L 395.502597 363.227122 
L 395.635663 364.500738 
L 395.668929 364.500738 
L 395.801995 366.326696 
L 395.835261 366.326696 
L 395.968327 368.06982 
L 396.001593 368.06982 
L 396.134659 368.651229 
L 396.167925 368.651229 
L 396.300991 367.999631 
L 396.334257 367.999631 
L 396.467323 367.110233 
L 396.500589 367.110233 
L 396.633655 366.860853 
L 396.833253 366.87482 
L 396.966319 366.391127 
L 396.999585 366.391127 
L 397.132651 365.658176 
L 397.165917 365.658176 
L 397.298983 365.146971 
L 397.332249 365.146971 
L 397.465315 364.877094 
L 397.498581 364.877094 
L 397.631647 364.522506 
L 397.664913 364.522506 
L 397.797979 364.129739 
L 397.831245 364.129739 
L 397.964311 363.937535 
L 398.163909 363.851714 
L 398.296975 363.746545 
L 398.330241 363.746545 
L 398.463307 363.59145 
L 398.829237 363.554848 
L 398.962303 363.858981 
L 398.995569 363.858981 
L 399.128635 364.419157 
L 399.161901 364.419157 
L 399.294967 365.019036 
L 399.328233 365.019036 
L 399.461299 365.168933 
L 399.494565 365.168933 
L 399.627631 365.006648 
L 399.660897 365.006648 
L 399.793963 364.867672 
L 399.993561 364.793109 
L 400.126627 364.662063 
L 400.159893 364.662063 
L 400.292959 364.486575 
L 400.326225 364.486575 
L 400.459291 364.357028 
L 400.991553 364.280279 
L 401.124619 364.228422 
L 401.324217 364.150855 
L 401.457283 364.075754 
L 401.656881 363.998902 
L 401.789947 363.910327 
L 401.989545 363.810376 
L 402.122611 363.740097 
L 402.654873 363.837205 
L 402.787939 363.894086 
L 403.153869 363.980739 
L 403.353468 363.99755 
L 405.149853 364.099647 
L 405.349452 364.157373 
L 409.141821 364.05094 
L 409.773883 364.012856 
L 470.817727 363.914053 
L 470.817727 363.914053 
" style="fill:none;stroke:#d62728;stroke-linecap:square;stroke-opacity:0.7;stroke-width:1.5;"/>
   </g>
   <g id="patch_18">
    <path d="M 303.19 505.24 
L 303.19 300.94 
" style="fill:none;stroke:#000000;stroke-linecap:square;stroke-linejoin:miter;stroke-width:0.8;"/>
   </g>
   <g id="patch_19">
    <path d="M 478.8 505.24 
L 478.8 300.94 
" style="fill:none;stroke:#000000;stroke-linecap:square;stroke-linejoin:miter;stroke-width:0.8;"/>
   </g>
   <g id="patch_20">
    <path d="M 303.19 505.24 
L 478.8 505.24 
" style="fill:none;stroke:#000000;stroke-linecap:square;stroke-linejoin:miter;stroke-width:0.8;"/>
   </g>
   <g id="patch_21">
    <path d="M 303.19 300.94 
L 478.8 300.94 
" style="fill:none;stroke:#000000;stroke-linecap:square;stroke-linejoin:miter;stroke-width:0.8;"/>
   </g>
   <g id="text_53">
    <!-- RPM3 (rpm) -->
    <g transform="translate(355.505 294.94)scale(0.12 -0.12)">
     <defs>
      <path d="M 2597 2516 
Q 3050 2419 3304 2112 
Q 3559 1806 3559 1356 
Q 3559 666 3084 287 
Q 2609 -91 1734 -91 
Q 1441 -91 1130 -33 
Q 819 25 488 141 
L 488 750 
Q 750 597 1062 519 
Q 1375 441 1716 441 
Q 2309 441 2620 675 
Q 2931 909 2931 1356 
Q 2931 1769 2642 2001 
Q 2353 2234 1838 2234 
L 1294 2234 
L 1294 2753 
L 1863 2753 
Q 2328 2753 2575 2939 
Q 2822 3125 2822 3475 
Q 2822 3834 2567 4026 
Q 2313 4219 1838 4219 
Q 1578 4219 1281 4162 
Q 984 4106 628 3988 
L 628 4550 
Q 988 4650 1302 4700 
Q 1616 4750 1894 4750 
Q 2613 4750 3031 4423 
Q 3450 4097 3450 3541 
Q 3450 3153 3228 2886 
Q 3006 2619 2597 2516 
z
" id="DejaVuSans-33" transform="scale(0.015625)"/>
     </defs>
     <use xlink:href="#DejaVuSans-52"/>
     <use x="69.482422" xlink:href="#DejaVuSans-50"/>
     <use x="129.785156" xlink:href="#DejaVuSans-4d"/>
     <use x="216.064453" xlink:href="#DejaVuSans-33"/>
     <use x="279.6875" xlink:href="#DejaVuSans-20"/>
     <use x="311.474609" xlink:href="#DejaVuSans-28"/>
     <use x="350.488281" xlink:href="#DejaVuSans-72"/>
     <use x="391.601562" xlink:href="#DejaVuSans-70"/>
     <use x="455.078125" xlink:href="#DejaVuSans-6d"/>
     <use x="552.490234" xlink:href="#DejaVuSans-29"/>
    </g>
   </g>
  </g>
  <g id="legend_1">
   <g id="patch_22">
    <path d="M 488.398438 304.178125 
L 569 304.178125 
Q 571 304.178125 571 302.178125 
L 571 273.821875 
Q 571 271.821875 569 271.821875 
L 488.398438 271.821875 
Q 486.398438 271.821875 486.398438 273.821875 
L 486.398438 302.178125 
Q 486.398438 304.178125 488.398438 304.178125 
z
" style="fill:#ffffff;opacity:0.8;stroke:#cccccc;stroke-linejoin:miter;"/>
   </g>
   <g id="line2d_119">
    <path d="M 490.398438 279.920313 
L 510.398438 279.920313 
" style="fill:none;stroke:#1f77b4;stroke-linecap:square;stroke-opacity:0.7;stroke-width:1.5;"/>
   </g>
   <g id="line2d_120"/>
   <g id="text_54">
    <!-- DSLPID -->
    <g transform="translate(518.398438 283.420313)scale(0.1 -0.1)">
     <defs>
      <path d="M 1259 4147 
L 1259 519 
L 2022 519 
Q 2988 519 3436 956 
Q 3884 1394 3884 2338 
Q 3884 3275 3436 3711 
Q 2988 4147 2022 4147 
L 1259 4147 
z
M 628 4666 
L 1925 4666 
Q 3281 4666 3915 4102 
Q 4550 3538 4550 2338 
Q 4550 1131 3912 565 
Q 3275 0 1925 0 
L 628 0 
L 628 4666 
z
" id="DejaVuSans-44" transform="scale(0.015625)"/>
      <path d="M 3425 4513 
L 3425 3897 
Q 3066 4069 2747 4153 
Q 2428 4238 2131 4238 
Q 1616 4238 1336 4038 
Q 1056 3838 1056 3469 
Q 1056 3159 1242 3001 
Q 1428 2844 1947 2747 
L 2328 2669 
Q 3034 2534 3370 2195 
Q 3706 1856 3706 1288 
Q 3706 609 3251 259 
Q 2797 -91 1919 -91 
Q 1588 -91 1214 -16 
Q 841 59 441 206 
L 441 856 
Q 825 641 1194 531 
Q 1563 422 1919 422 
Q 2459 422 2753 634 
Q 3047 847 3047 1241 
Q 3047 1584 2836 1778 
Q 2625 1972 2144 2069 
L 1759 2144 
Q 1053 2284 737 2584 
Q 422 2884 422 3419 
Q 422 4038 858 4394 
Q 1294 4750 2059 4750 
Q 2388 4750 2728 4690 
Q 3069 4631 3425 4513 
z
" id="DejaVuSans-53" transform="scale(0.015625)"/>
      <path d="M 628 4666 
L 1259 4666 
L 1259 531 
L 3531 531 
L 3531 0 
L 628 0 
L 628 4666 
z
" id="DejaVuSans-4c" transform="scale(0.015625)"/>
      <path d="M 628 4666 
L 1259 4666 
L 1259 0 
L 628 0 
L 628 4666 
z
" id="DejaVuSans-49" transform="scale(0.015625)"/>
     </defs>
     <use xlink:href="#DejaVuSans-44"/>
     <use x="77.001953" xlink:href="#DejaVuSans-53"/>
     <use x="140.478516" xlink:href="#DejaVuSans-4c"/>
     <use x="196.191406" xlink:href="#DejaVuSans-50"/>
     <use x="256.494141" xlink:href="#DejaVuSans-49"/>
     <use x="285.986328" xlink:href="#DejaVuSans-44"/>
    </g>
   </g>
   <g id="line2d_121">
    <path d="M 490.398438 294.598438 
L 510.398438 294.598438 
" style="fill:none;stroke:#d62728;stroke-linecap:square;stroke-opacity:0.7;stroke-width:1.5;"/>
   </g>
   <g id="line2d_122"/>
   <g id="text_55">
    <!-- LSTMCNN -->
    <g transform="translate(518.398438 298.098438)scale(0.1 -0.1)">
     <defs>
      <path d="M 4122 4306 
L 4122 3641 
Q 3803 3938 3442 4084 
Q 3081 4231 2675 4231 
Q 1875 4231 1450 3742 
Q 1025 3253 1025 2328 
Q 1025 1406 1450 917 
Q 1875 428 2675 428 
Q 3081 428 3442 575 
Q 3803 722 4122 1019 
L 4122 359 
Q 3791 134 3420 21 
Q 3050 -91 2638 -91 
Q 1578 -91 968 557 
Q 359 1206 359 2328 
Q 359 3453 968 4101 
Q 1578 4750 2638 4750 
Q 3056 4750 3426 4639 
Q 3797 4528 4122 4306 
z
" id="DejaVuSans-43" transform="scale(0.015625)"/>
      <path d="M 628 4666 
L 1478 4666 
L 3547 763 
L 3547 4666 
L 4159 4666 
L 4159 0 
L 3309 0 
L 1241 3903 
L 1241 0 
L 628 0 
L 628 4666 
z
" id="DejaVuSans-4e" transform="scale(0.015625)"/>
     </defs>
     <use xlink:href="#DejaVuSans-4c"/>
     <use x="55.712891" xlink:href="#DejaVuSans-53"/>
     <use x="119.189453" xlink:href="#DejaVuSans-54"/>
     <use x="180.273438" xlink:href="#DejaVuSans-4d"/>
     <use x="266.552734" xlink:href="#DejaVuSans-43"/>
     <use x="336.376953" xlink:href="#DejaVuSans-4e"/>
     <use x="411.181641" xlink:href="#DejaVuSans-4e"/>
    </g>
   </g>
  </g>
 </g>
 <defs>
  <clipPath id="p771f018275">
   <rect height="204.3" width="175.61" x="78.19" y="55.68"/>
  </clipPath>
  <clipPath id="pb61126cbe8">
   <rect height="204.3" width="175.61" x="303.19" y="55.68"/>
  </clipPath>
  <clipPath id="p26111d3eb8">
   <rect height="204.3" width="175.61" x="78.19" y="300.94"/>
  </clipPath>
  <clipPath id="p5ff27c54d1">
   <rect height="204.3" width="175.61" x="303.19" y="300.94"/>
  </clipPath>
 </defs>
</svg>
