<?xml version="1.0" encoding="utf-8" standalone="no"?>
<!DOCTYPE svg PUBLIC "-//W3C//DTD SVG 1.1//EN"
  "http://www.w3.org/Graphics/SVG/1.1/DTD/svg11.dtd">
<!-- Created with matplotlib (https://matplotlib.org/) -->
<svg height="277.51875pt" version="1.1" viewBox="0 0 400.545312 277.51875" width="400.545312pt" xmlns="http://www.w3.org/2000/svg" xmlns:xlink="http://www.w3.org/1999/xlink">
 <metadata>
  <rdf:RDF xmlns:cc="http://creativecommons.org/ns#" xmlns:dc="http://purl.org/dc/elements/1.1/" xmlns:rdf="http://www.w3.org/1999/02/22-rdf-syntax-ns#">
   <cc:Work>
    <dc:type rdf:resource="http://purl.org/dc/dcmitype/StillImage"/>
    <dc:date>2022-02-21T15:25:20.691537</dc:date>
    <dc:format>image/svg+xml</dc:format>
    <dc:creator>
     <cc:Agent>
      <dc:title>Matplotlib v3.3.4, https://matplotlib.org/</dc:title>
     </cc:Agent>
    </dc:creator>
   </cc:Work>
  </rdf:RDF>
 </metadata>
 <defs>
  <style type="text/css">*{stroke-linecap:butt;stroke-linejoin:round;}</style>
 </defs>
 <g id="figure_1">
  <g id="patch_1">
   <path d="M 0 277.51875 
L 400.545312 277.51875 
L 400.545312 0 
L 0 0 
z
" style="fill:none;"/>
  </g>
  <g id="axes_1">
   <g id="patch_2">
    <path d="M 58.545313 101.591591 
L 393.345313 101.591591 
L 393.345313 22.5225 
L 58.545313 22.5225 
z
" style="fill:#ffffff;"/>
   </g>
   <g id="matplotlib.axis_1">
    <g id="xtick_1">
     <g id="line2d_1">
      <path clip-path="url(#pedc2fed14f)" d="M 73.763494 101.591591 
L 73.763494 22.5225 
" style="fill:none;stroke:#b0b0b0;stroke-linecap:square;stroke-width:0.8;"/>
     </g>
     <g id="line2d_2">
      <defs>
       <path d="M 0 0 
L 0 3.5 
" id="mf4987c82af" style="stroke:#000000;stroke-width:0.8;"/>
      </defs>
      <g>
       <use style="stroke:#000000;stroke-width:0.8;" x="73.763494" xlink:href="#mf4987c82af" y="101.591591"/>
      </g>
     </g>
     <g id="text_1">
      <!-- 0 -->
      <g transform="translate(70.582244 116.190028)scale(0.1 -0.1)">
       <defs>
        <path d="M 31.78125 66.40625 
Q 24.171875 66.40625 20.328125 58.90625 
Q 16.5 51.421875 16.5 36.375 
Q 16.5 21.390625 20.328125 13.890625 
Q 24.171875 6.390625 31.78125 6.390625 
Q 39.453125 6.390625 43.28125 13.890625 
Q 47.125 21.390625 47.125 36.375 
Q 47.125 51.421875 43.28125 58.90625 
Q 39.453125 66.40625 31.78125 66.40625 
z
M 31.78125 74.21875 
Q 44.046875 74.21875 50.515625 64.515625 
Q 56.984375 54.828125 56.984375 36.375 
Q 56.984375 17.96875 50.515625 8.265625 
Q 44.046875 -1.421875 31.78125 -1.421875 
Q 19.53125 -1.421875 13.0625 8.265625 
Q 6.59375 17.96875 6.59375 36.375 
Q 6.59375 54.828125 13.0625 64.515625 
Q 19.53125 74.21875 31.78125 74.21875 
z
" id="DejaVuSans-48"/>
       </defs>
       <use xlink:href="#DejaVuSans-48"/>
      </g>
     </g>
    </g>
    <g id="xtick_2">
     <g id="line2d_3">
      <path clip-path="url(#pedc2fed14f)" d="M 134.646369 101.591591 
L 134.646369 22.5225 
" style="fill:none;stroke:#b0b0b0;stroke-linecap:square;stroke-width:0.8;"/>
     </g>
     <g id="line2d_4">
      <g>
       <use style="stroke:#000000;stroke-width:0.8;" x="134.646369" xlink:href="#mf4987c82af" y="101.591591"/>
      </g>
     </g>
     <g id="text_2">
      <!-- 10 -->
      <g transform="translate(128.283869 116.190028)scale(0.1 -0.1)">
       <defs>
        <path d="M 12.40625 8.296875 
L 28.515625 8.296875 
L 28.515625 63.921875 
L 10.984375 60.40625 
L 10.984375 69.390625 
L 28.421875 72.90625 
L 38.28125 72.90625 
L 38.28125 8.296875 
L 54.390625 8.296875 
L 54.390625 0 
L 12.40625 0 
z
" id="DejaVuSans-49"/>
       </defs>
       <use xlink:href="#DejaVuSans-49"/>
       <use x="63.623047" xlink:href="#DejaVuSans-48"/>
      </g>
     </g>
    </g>
    <g id="xtick_3">
     <g id="line2d_5">
      <path clip-path="url(#pedc2fed14f)" d="M 195.529243 101.591591 
L 195.529243 22.5225 
" style="fill:none;stroke:#b0b0b0;stroke-linecap:square;stroke-width:0.8;"/>
     </g>
     <g id="line2d_6">
      <g>
       <use style="stroke:#000000;stroke-width:0.8;" x="195.529243" xlink:href="#mf4987c82af" y="101.591591"/>
      </g>
     </g>
     <g id="text_3">
      <!-- 20 -->
      <g transform="translate(189.166743 116.190028)scale(0.1 -0.1)">
       <defs>
        <path d="M 19.1875 8.296875 
L 53.609375 8.296875 
L 53.609375 0 
L 7.328125 0 
L 7.328125 8.296875 
Q 12.9375 14.109375 22.625 23.890625 
Q 32.328125 33.6875 34.8125 36.53125 
Q 39.546875 41.84375 41.421875 45.53125 
Q 43.3125 49.21875 43.3125 52.78125 
Q 43.3125 58.59375 39.234375 62.25 
Q 35.15625 65.921875 28.609375 65.921875 
Q 23.96875 65.921875 18.8125 64.3125 
Q 13.671875 62.703125 7.8125 59.421875 
L 7.8125 69.390625 
Q 13.765625 71.78125 18.9375 73 
Q 24.125 74.21875 28.421875 74.21875 
Q 39.75 74.21875 46.484375 68.546875 
Q 53.21875 62.890625 53.21875 53.421875 
Q 53.21875 48.921875 51.53125 44.890625 
Q 49.859375 40.875 45.40625 35.40625 
Q 44.1875 33.984375 37.640625 27.21875 
Q 31.109375 20.453125 19.1875 8.296875 
z
" id="DejaVuSans-50"/>
       </defs>
       <use xlink:href="#DejaVuSans-50"/>
       <use x="63.623047" xlink:href="#DejaVuSans-48"/>
      </g>
     </g>
    </g>
    <g id="xtick_4">
     <g id="line2d_7">
      <path clip-path="url(#pedc2fed14f)" d="M 256.412118 101.591591 
L 256.412118 22.5225 
" style="fill:none;stroke:#b0b0b0;stroke-linecap:square;stroke-width:0.8;"/>
     </g>
     <g id="line2d_8">
      <g>
       <use style="stroke:#000000;stroke-width:0.8;" x="256.412118" xlink:href="#mf4987c82af" y="101.591591"/>
      </g>
     </g>
     <g id="text_4">
      <!-- 30 -->
      <g transform="translate(250.049618 116.190028)scale(0.1 -0.1)">
       <defs>
        <path d="M 40.578125 39.3125 
Q 47.65625 37.796875 51.625 33 
Q 55.609375 28.21875 55.609375 21.1875 
Q 55.609375 10.40625 48.1875 4.484375 
Q 40.765625 -1.421875 27.09375 -1.421875 
Q 22.515625 -1.421875 17.65625 -0.515625 
Q 12.796875 0.390625 7.625 2.203125 
L 7.625 11.71875 
Q 11.71875 9.328125 16.59375 8.109375 
Q 21.484375 6.890625 26.8125 6.890625 
Q 36.078125 6.890625 40.9375 10.546875 
Q 45.796875 14.203125 45.796875 21.1875 
Q 45.796875 27.640625 41.28125 31.265625 
Q 36.765625 34.90625 28.71875 34.90625 
L 20.21875 34.90625 
L 20.21875 43.015625 
L 29.109375 43.015625 
Q 36.375 43.015625 40.234375 45.921875 
Q 44.09375 48.828125 44.09375 54.296875 
Q 44.09375 59.90625 40.109375 62.90625 
Q 36.140625 65.921875 28.71875 65.921875 
Q 24.65625 65.921875 20.015625 65.03125 
Q 15.375 64.15625 9.8125 62.3125 
L 9.8125 71.09375 
Q 15.4375 72.65625 20.34375 73.4375 
Q 25.25 74.21875 29.59375 74.21875 
Q 40.828125 74.21875 47.359375 69.109375 
Q 53.90625 64.015625 53.90625 55.328125 
Q 53.90625 49.265625 50.4375 45.09375 
Q 46.96875 40.921875 40.578125 39.3125 
z
" id="DejaVuSans-51"/>
       </defs>
       <use xlink:href="#DejaVuSans-51"/>
       <use x="63.623047" xlink:href="#DejaVuSans-48"/>
      </g>
     </g>
    </g>
    <g id="xtick_5">
     <g id="line2d_9">
      <path clip-path="url(#pedc2fed14f)" d="M 317.294992 101.591591 
L 317.294992 22.5225 
" style="fill:none;stroke:#b0b0b0;stroke-linecap:square;stroke-width:0.8;"/>
     </g>
     <g id="line2d_10">
      <g>
       <use style="stroke:#000000;stroke-width:0.8;" x="317.294992" xlink:href="#mf4987c82af" y="101.591591"/>
      </g>
     </g>
     <g id="text_5">
      <!-- 40 -->
      <g transform="translate(310.932492 116.190028)scale(0.1 -0.1)">
       <defs>
        <path d="M 37.796875 64.3125 
L 12.890625 25.390625 
L 37.796875 25.390625 
z
M 35.203125 72.90625 
L 47.609375 72.90625 
L 47.609375 25.390625 
L 58.015625 25.390625 
L 58.015625 17.1875 
L 47.609375 17.1875 
L 47.609375 0 
L 37.796875 0 
L 37.796875 17.1875 
L 4.890625 17.1875 
L 4.890625 26.703125 
z
" id="DejaVuSans-52"/>
       </defs>
       <use xlink:href="#DejaVuSans-52"/>
       <use x="63.623047" xlink:href="#DejaVuSans-48"/>
      </g>
     </g>
    </g>
    <g id="xtick_6">
     <g id="line2d_11">
      <path clip-path="url(#pedc2fed14f)" d="M 378.177866 101.591591 
L 378.177866 22.5225 
" style="fill:none;stroke:#b0b0b0;stroke-linecap:square;stroke-width:0.8;"/>
     </g>
     <g id="line2d_12">
      <g>
       <use style="stroke:#000000;stroke-width:0.8;" x="378.177866" xlink:href="#mf4987c82af" y="101.591591"/>
      </g>
     </g>
     <g id="text_6">
      <!-- 50 -->
      <g transform="translate(371.815366 116.190028)scale(0.1 -0.1)">
       <defs>
        <path d="M 10.796875 72.90625 
L 49.515625 72.90625 
L 49.515625 64.59375 
L 19.828125 64.59375 
L 19.828125 46.734375 
Q 21.96875 47.46875 24.109375 47.828125 
Q 26.265625 48.1875 28.421875 48.1875 
Q 40.625 48.1875 47.75 41.5 
Q 54.890625 34.8125 54.890625 23.390625 
Q 54.890625 11.625 47.5625 5.09375 
Q 40.234375 -1.421875 26.90625 -1.421875 
Q 22.3125 -1.421875 17.546875 -0.640625 
Q 12.796875 0.140625 7.71875 1.703125 
L 7.71875 11.625 
Q 12.109375 9.234375 16.796875 8.0625 
Q 21.484375 6.890625 26.703125 6.890625 
Q 35.15625 6.890625 40.078125 11.328125 
Q 45.015625 15.765625 45.015625 23.390625 
Q 45.015625 31 40.078125 35.4375 
Q 35.15625 39.890625 26.703125 39.890625 
Q 22.75 39.890625 18.8125 39.015625 
Q 14.890625 38.140625 10.796875 36.28125 
z
" id="DejaVuSans-53"/>
       </defs>
       <use xlink:href="#DejaVuSans-53"/>
       <use x="63.623047" xlink:href="#DejaVuSans-48"/>
      </g>
     </g>
    </g>
    <g id="text_7">
     <!-- Tiempo (s) -->
     <g transform="translate(199.382812 129.868153)scale(0.1 -0.1)">
      <defs>
       <path d="M -0.296875 72.90625 
L 61.375 72.90625 
L 61.375 64.59375 
L 35.5 64.59375 
L 35.5 0 
L 25.59375 0 
L 25.59375 64.59375 
L -0.296875 64.59375 
z
" id="DejaVuSans-84"/>
       <path d="M 9.421875 54.6875 
L 18.40625 54.6875 
L 18.40625 0 
L 9.421875 0 
z
M 9.421875 75.984375 
L 18.40625 75.984375 
L 18.40625 64.59375 
L 9.421875 64.59375 
z
" id="DejaVuSans-105"/>
       <path d="M 56.203125 29.59375 
L 56.203125 25.203125 
L 14.890625 25.203125 
Q 15.484375 15.921875 20.484375 11.0625 
Q 25.484375 6.203125 34.421875 6.203125 
Q 39.59375 6.203125 44.453125 7.46875 
Q 49.3125 8.734375 54.109375 11.28125 
L 54.109375 2.78125 
Q 49.265625 0.734375 44.1875 -0.34375 
Q 39.109375 -1.421875 33.890625 -1.421875 
Q 20.796875 -1.421875 13.15625 6.1875 
Q 5.515625 13.8125 5.515625 26.8125 
Q 5.515625 40.234375 12.765625 48.109375 
Q 20.015625 56 32.328125 56 
Q 43.359375 56 49.78125 48.890625 
Q 56.203125 41.796875 56.203125 29.59375 
z
M 47.21875 32.234375 
Q 47.125 39.59375 43.09375 43.984375 
Q 39.0625 48.390625 32.421875 48.390625 
Q 24.90625 48.390625 20.390625 44.140625 
Q 15.875 39.890625 15.1875 32.171875 
z
" id="DejaVuSans-101"/>
       <path d="M 52 44.1875 
Q 55.375 50.25 60.0625 53.125 
Q 64.75 56 71.09375 56 
Q 79.640625 56 84.28125 50.015625 
Q 88.921875 44.046875 88.921875 33.015625 
L 88.921875 0 
L 79.890625 0 
L 79.890625 32.71875 
Q 79.890625 40.578125 77.09375 44.375 
Q 74.3125 48.1875 68.609375 48.1875 
Q 61.625 48.1875 57.5625 43.546875 
Q 53.515625 38.921875 53.515625 30.90625 
L 53.515625 0 
L 44.484375 0 
L 44.484375 32.71875 
Q 44.484375 40.625 41.703125 44.40625 
Q 38.921875 48.1875 33.109375 48.1875 
Q 26.21875 48.1875 22.15625 43.53125 
Q 18.109375 38.875 18.109375 30.90625 
L 18.109375 0 
L 9.078125 0 
L 9.078125 54.6875 
L 18.109375 54.6875 
L 18.109375 46.1875 
Q 21.1875 51.21875 25.484375 53.609375 
Q 29.78125 56 35.6875 56 
Q 41.65625 56 45.828125 52.96875 
Q 50 49.953125 52 44.1875 
z
" id="DejaVuSans-109"/>
       <path d="M 18.109375 8.203125 
L 18.109375 -20.796875 
L 9.078125 -20.796875 
L 9.078125 54.6875 
L 18.109375 54.6875 
L 18.109375 46.390625 
Q 20.953125 51.265625 25.265625 53.625 
Q 29.59375 56 35.59375 56 
Q 45.5625 56 51.78125 48.09375 
Q 58.015625 40.1875 58.015625 27.296875 
Q 58.015625 14.40625 51.78125 6.484375 
Q 45.5625 -1.421875 35.59375 -1.421875 
Q 29.59375 -1.421875 25.265625 0.953125 
Q 20.953125 3.328125 18.109375 8.203125 
z
M 48.6875 27.296875 
Q 48.6875 37.203125 44.609375 42.84375 
Q 40.53125 48.484375 33.40625 48.484375 
Q 26.265625 48.484375 22.1875 42.84375 
Q 18.109375 37.203125 18.109375 27.296875 
Q 18.109375 17.390625 22.1875 11.75 
Q 26.265625 6.109375 33.40625 6.109375 
Q 40.53125 6.109375 44.609375 11.75 
Q 48.6875 17.390625 48.6875 27.296875 
z
" id="DejaVuSans-112"/>
       <path d="M 30.609375 48.390625 
Q 23.390625 48.390625 19.1875 42.75 
Q 14.984375 37.109375 14.984375 27.296875 
Q 14.984375 17.484375 19.15625 11.84375 
Q 23.34375 6.203125 30.609375 6.203125 
Q 37.796875 6.203125 41.984375 11.859375 
Q 46.1875 17.53125 46.1875 27.296875 
Q 46.1875 37.015625 41.984375 42.703125 
Q 37.796875 48.390625 30.609375 48.390625 
z
M 30.609375 56 
Q 42.328125 56 49.015625 48.375 
Q 55.71875 40.765625 55.71875 27.296875 
Q 55.71875 13.875 49.015625 6.21875 
Q 42.328125 -1.421875 30.609375 -1.421875 
Q 18.84375 -1.421875 12.171875 6.21875 
Q 5.515625 13.875 5.515625 27.296875 
Q 5.515625 40.765625 12.171875 48.375 
Q 18.84375 56 30.609375 56 
z
" id="DejaVuSans-111"/>
       <path id="DejaVuSans-32"/>
       <path d="M 31 75.875 
Q 24.46875 64.65625 21.28125 53.65625 
Q 18.109375 42.671875 18.109375 31.390625 
Q 18.109375 20.125 21.3125 9.0625 
Q 24.515625 -2 31 -13.1875 
L 23.1875 -13.1875 
Q 15.875 -1.703125 12.234375 9.375 
Q 8.59375 20.453125 8.59375 31.390625 
Q 8.59375 42.28125 12.203125 53.3125 
Q 15.828125 64.359375 23.1875 75.875 
z
" id="DejaVuSans-40"/>
       <path d="M 44.28125 53.078125 
L 44.28125 44.578125 
Q 40.484375 46.53125 36.375 47.5 
Q 32.28125 48.484375 27.875 48.484375 
Q 21.1875 48.484375 17.84375 46.4375 
Q 14.5 44.390625 14.5 40.28125 
Q 14.5 37.15625 16.890625 35.375 
Q 19.28125 33.59375 26.515625 31.984375 
L 29.59375 31.296875 
Q 39.15625 29.25 43.1875 25.515625 
Q 47.21875 21.78125 47.21875 15.09375 
Q 47.21875 7.46875 41.1875 3.015625 
Q 35.15625 -1.421875 24.609375 -1.421875 
Q 20.21875 -1.421875 15.453125 -0.5625 
Q 10.6875 0.296875 5.421875 2 
L 5.421875 11.28125 
Q 10.40625 8.6875 15.234375 7.390625 
Q 20.0625 6.109375 24.8125 6.109375 
Q 31.15625 6.109375 34.5625 8.28125 
Q 37.984375 10.453125 37.984375 14.40625 
Q 37.984375 18.0625 35.515625 20.015625 
Q 33.0625 21.96875 24.703125 23.78125 
L 21.578125 24.515625 
Q 13.234375 26.265625 9.515625 29.90625 
Q 5.8125 33.546875 5.8125 39.890625 
Q 5.8125 47.609375 11.28125 51.796875 
Q 16.75 56 26.8125 56 
Q 31.78125 56 36.171875 55.265625 
Q 40.578125 54.546875 44.28125 53.078125 
z
" id="DejaVuSans-115"/>
       <path d="M 8.015625 75.875 
L 15.828125 75.875 
Q 23.140625 64.359375 26.78125 53.3125 
Q 30.421875 42.28125 30.421875 31.390625 
Q 30.421875 20.453125 26.78125 9.375 
Q 23.140625 -1.703125 15.828125 -13.1875 
L 8.015625 -13.1875 
Q 14.5 -2 17.703125 9.0625 
Q 20.90625 20.125 20.90625 31.390625 
Q 20.90625 42.671875 17.703125 53.65625 
Q 14.5 64.65625 8.015625 75.875 
z
" id="DejaVuSans-41"/>
      </defs>
      <use xlink:href="#DejaVuSans-84"/>
      <use x="57.958984" xlink:href="#DejaVuSans-105"/>
      <use x="85.742188" xlink:href="#DejaVuSans-101"/>
      <use x="147.265625" xlink:href="#DejaVuSans-109"/>
      <use x="244.677734" xlink:href="#DejaVuSans-112"/>
      <use x="308.154297" xlink:href="#DejaVuSans-111"/>
      <use x="369.335938" xlink:href="#DejaVuSans-32"/>
      <use x="401.123047" xlink:href="#DejaVuSans-40"/>
      <use x="440.136719" xlink:href="#DejaVuSans-115"/>
      <use x="492.236328" xlink:href="#DejaVuSans-41"/>
     </g>
    </g>
   </g>
   <g id="matplotlib.axis_2">
    <g id="ytick_1">
     <g id="line2d_13">
      <path clip-path="url(#pedc2fed14f)" d="M 58.545313 94.273041 
L 393.345313 94.273041 
" style="fill:none;stroke:#b0b0b0;stroke-linecap:square;stroke-width:0.8;"/>
     </g>
     <g id="line2d_14">
      <defs>
       <path d="M 0 0 
L -3.5 0 
" id="m04ec330d8c" style="stroke:#000000;stroke-width:0.8;"/>
      </defs>
      <g>
       <use style="stroke:#000000;stroke-width:0.8;" x="58.545313" xlink:href="#m04ec330d8c" y="94.273041"/>
      </g>
     </g>
     <g id="text_8">
      <!-- −0.25 -->
      <g transform="translate(20.9 98.07226)scale(0.1 -0.1)">
       <defs>
        <path d="M 10.59375 35.5 
L 73.1875 35.5 
L 73.1875 27.203125 
L 10.59375 27.203125 
z
" id="DejaVuSans-8722"/>
        <path d="M 10.6875 12.40625 
L 21 12.40625 
L 21 0 
L 10.6875 0 
z
" id="DejaVuSans-46"/>
       </defs>
       <use xlink:href="#DejaVuSans-8722"/>
       <use x="83.789062" xlink:href="#DejaVuSans-48"/>
       <use x="147.412109" xlink:href="#DejaVuSans-46"/>
       <use x="179.199219" xlink:href="#DejaVuSans-50"/>
       <use x="242.822266" xlink:href="#DejaVuSans-53"/>
      </g>
     </g>
    </g>
    <g id="ytick_2">
     <g id="line2d_15">
      <path clip-path="url(#pedc2fed14f)" d="M 58.545313 61.952477 
L 393.345313 61.952477 
" style="fill:none;stroke:#b0b0b0;stroke-linecap:square;stroke-width:0.8;"/>
     </g>
     <g id="line2d_16">
      <g>
       <use style="stroke:#000000;stroke-width:0.8;" x="58.545313" xlink:href="#m04ec330d8c" y="61.952477"/>
      </g>
     </g>
     <g id="text_9">
      <!-- 0.00 -->
      <g transform="translate(29.279688 65.751695)scale(0.1 -0.1)">
       <use xlink:href="#DejaVuSans-48"/>
       <use x="63.623047" xlink:href="#DejaVuSans-46"/>
       <use x="95.410156" xlink:href="#DejaVuSans-48"/>
       <use x="159.033203" xlink:href="#DejaVuSans-48"/>
      </g>
     </g>
    </g>
    <g id="ytick_3">
     <g id="line2d_17">
      <path clip-path="url(#pedc2fed14f)" d="M 58.545313 29.631912 
L 393.345313 29.631912 
" style="fill:none;stroke:#b0b0b0;stroke-linecap:square;stroke-width:0.8;"/>
     </g>
     <g id="line2d_18">
      <g>
       <use style="stroke:#000000;stroke-width:0.8;" x="58.545313" xlink:href="#m04ec330d8c" y="29.631912"/>
      </g>
     </g>
     <g id="text_10">
      <!-- 0.25 -->
      <g transform="translate(29.279688 33.431131)scale(0.1 -0.1)">
       <use xlink:href="#DejaVuSans-48"/>
       <use x="63.623047" xlink:href="#DejaVuSans-46"/>
       <use x="95.410156" xlink:href="#DejaVuSans-50"/>
       <use x="159.033203" xlink:href="#DejaVuSans-53"/>
      </g>
     </g>
    </g>
    <g id="text_11">
     <!-- $y(t)$ -->
     <g transform="translate(14.8 70.907045)rotate(-90)scale(0.1 -0.1)">
      <defs>
       <path d="M 24.8125 -5.078125 
Q 18.5625 -15.578125 14.625 -18.1875 
Q 10.6875 -20.796875 4.59375 -20.796875 
L -2.484375 -20.796875 
L -0.984375 -13.28125 
L 4.203125 -13.28125 
Q 7.953125 -13.28125 10.59375 -11.234375 
Q 13.234375 -9.1875 16.5 -3.21875 
L 19.28125 2 
L 7.171875 54.6875 
L 16.703125 54.6875 
L 25.78125 12.796875 
L 50.875 54.6875 
L 60.296875 54.6875 
z
" id="DejaVuSans-Oblique-121"/>
       <path d="M 42.28125 54.6875 
L 40.921875 47.703125 
L 23 47.703125 
L 17.1875 18.015625 
Q 16.890625 16.359375 16.75 15.234375 
Q 16.609375 14.109375 16.609375 13.484375 
Q 16.609375 10.359375 18.484375 8.9375 
Q 20.359375 7.515625 24.515625 7.515625 
L 33.59375 7.515625 
L 32.078125 0 
L 23.484375 0 
Q 15.484375 0 11.546875 3.125 
Q 7.625 6.25 7.625 12.59375 
Q 7.625 13.71875 7.765625 15.0625 
Q 7.90625 16.40625 8.203125 18.015625 
L 14.015625 47.703125 
L 6.390625 47.703125 
L 7.8125 54.6875 
L 15.28125 54.6875 
L 18.3125 70.21875 
L 27.296875 70.21875 
L 24.3125 54.6875 
z
" id="DejaVuSans-Oblique-116"/>
      </defs>
      <use transform="translate(0 0.125)" xlink:href="#DejaVuSans-Oblique-121"/>
      <use transform="translate(59.179688 0.125)" xlink:href="#DejaVuSans-40"/>
      <use transform="translate(98.193359 0.125)" xlink:href="#DejaVuSans-Oblique-116"/>
      <use transform="translate(137.402344 0.125)" xlink:href="#DejaVuSans-41"/>
     </g>
    </g>
   </g>
   <g id="line2d_19">
    <path clip-path="url(#pedc2fed14f)" d="M 73.763494 61.952483 
L 90.988274 61.857593 
L 91.318056 61.523965 
L 91.622471 60.875547 
L 91.952253 59.593671 
L 92.332771 57.104823 
L 92.81476 52.281617 
L 93.525061 42.559924 
L 94.412936 31.04958 
L 94.818822 28.220972 
L 95.0725 27.546675 
L 95.224708 27.567595 
L 95.402283 27.996423 
L 95.655961 29.345353 
L 96.036479 32.855164 
L 96.61994 40.769619 
L 97.862965 57.870964 
L 98.446426 62.911723 
L 99.004519 65.918582 
L 99.664084 68.20392 
L 100.551959 71.288379 
L 101.186156 74.460296 
L 102.023295 79.948465 
L 103.799046 91.864846 
L 104.509346 95.063756 
L 105.092807 96.777074 
L 105.600164 97.639645 
L 106.00605 97.953965 
L 106.3612 97.982778 
L 106.741718 97.77972 
L 107.172972 97.275369 
L 107.680329 96.322833 
L 108.289158 94.669165 
L 108.97409 92.129346 
L 109.760494 88.319084 
L 110.699105 82.595895 
L 111.916762 73.653918 
L 116.762024 36.3718 
L 117.700635 31.512056 
L 118.461671 28.632106 
L 119.0705 27.088376 
L 119.577857 26.34774 
L 119.958375 26.126641 
L 120.288158 26.169266 
L 120.643308 26.458601 
L 121.049193 27.096181 
L 121.556551 28.345042 
L 122.165379 30.482391 
L 122.901048 33.933172 
L 123.814291 39.383642 
L 124.981212 47.826533 
L 127.010642 64.507407 
L 128.837128 78.775206 
L 129.927946 85.683799 
L 130.790453 89.850766 
L 131.500754 92.264193 
L 132.058847 93.456814 
L 132.4901 93.935691 
L 132.84525 94.03486 
L 133.175033 93.886952 
L 133.555551 93.430166 
L 134.012172 92.482912 
L 134.570265 90.751529 
L 135.255197 87.813459 
L 136.092337 83.13143 
L 137.157787 75.765289 
L 138.781331 62.722717 
L 141.013703 45.057927 
L 142.104521 38.172406 
L 142.94166 34.193459 
L 143.601225 32.007746 
L 144.13395 30.907575 
L 144.565204 30.470832 
L 144.894986 30.415676 
L 145.224768 30.603136 
L 145.605286 31.119273 
L 146.061908 32.155597 
L 146.620001 34.018273 
L 147.304933 37.141245 
L 148.142073 42.061565 
L 149.258259 50.087619 
L 151.515999 68.485011 
L 152.936599 79.000815 
L 153.900578 84.639278 
L 154.661614 87.910724 
L 155.270442 89.664212 
L 155.752432 90.468672 
L 156.13295 90.727605 
L 156.437364 90.693066 
L 156.767146 90.413285 
L 157.173032 89.726425 
L 157.655022 88.431871 
L 158.26385 86.089969 
L 158.999519 82.303126 
L 159.938129 76.205638 
L 161.282626 65.836613 
L 163.844781 45.946659 
L 164.834127 40.076397 
L 165.595163 36.773397 
L 166.203992 35.017552 
L 166.685981 34.229294 
L 167.041132 34.000096 
L 167.345546 34.043751 
L 167.675328 34.340927 
L 168.081214 35.059319 
L 168.563203 36.404044 
L 169.172032 38.824031 
L 169.933068 42.865815 
L 170.897047 49.296532 
L 172.444487 61.389734 
L 174.347076 75.865255 
L 175.336423 81.759784 
L 176.097459 85.063814 
L 176.706288 86.799534 
L 177.162909 87.53017 
L 177.518059 87.748716 
L 177.822474 87.689946 
L 178.152256 87.370464 
L 178.558142 86.617013 
L 179.065499 85.133963 
L 179.674328 82.610188 
L 180.435364 78.446935 
L 181.450078 71.539928 
L 185.432833 42.924159 
L 186.193869 39.650993 
L 186.77733 38.008675 
L 187.233952 37.291114 
L 187.589102 37.089243 
L 187.893516 37.166829 
L 188.223298 37.511123 
L 188.629184 38.300599 
L 189.136541 39.834851 
L 189.770738 42.547621 
L 190.557142 46.97488 
L 191.622592 54.36127 
L 194.844311 77.60442 
L 195.656082 81.55817 
L 196.290279 83.673526 
L 196.797636 84.680564 
L 197.178154 85.016539 
L 197.482569 85.022105 
L 197.786983 84.793551 
L 198.167501 84.182469 
L 198.624123 82.985635 
L 199.207583 80.764046 
L 199.943252 76.981728 
L 200.90723 70.736279 
L 204.687042 44.834492 
L 205.397342 41.977874 
L 205.955435 40.540231 
L 206.386689 39.953253 
L 206.716471 39.821974 
L 207.020886 39.946879 
L 207.350668 40.347072 
L 207.781922 41.277074 
L 208.314647 43.032326 
L 208.974211 46.047949 
L 209.836719 51.146056 
L 211.155848 60.484831 
L 213.03307 73.553838 
L 213.920945 78.254315 
L 214.605877 80.806661 
L 215.138602 82.038431 
L 215.544488 82.50385 
L 215.87427 82.573019 
L 216.178685 82.390057 
L 216.533835 81.880314 
L 216.990456 80.769574 
L 217.548549 78.758141 
L 218.25885 75.280277 
L 219.197461 69.471484 
L 222.622122 47.105944 
L 223.332422 44.315576 
L 223.890515 42.927633 
L 224.321769 42.380557 
L 224.651551 42.280994 
L 224.955966 42.435775 
L 225.311116 42.91273 
L 225.74237 43.909033 
L 226.300463 45.837036 
L 226.985395 49.073718 
L 227.924006 54.704896 
L 231.247196 75.76144 
L 231.957496 78.453234 
L 232.490221 79.720965 
L 232.921475 80.236537 
L 233.251257 80.313208 
L 233.555672 80.138542 
L 233.910822 79.640492 
L 234.342076 78.622915 
L 234.900169 76.677768 
L 235.610469 73.308466 
L 236.599816 67.387819 
L 239.415648 49.842394 
L 240.151317 46.838104 
L 240.734777 45.290359 
L 241.166031 44.671448 
L 241.495813 44.511567 
L 241.800228 44.60747 
L 242.13001 44.97322 
L 242.535896 45.7878 
L 243.043253 47.340828 
L 243.702818 50.151463 
L 244.590693 55.037542 
L 247.939251 74.653188 
L 248.598815 76.838645 
L 249.106173 77.848283 
L 249.486691 78.19518 
L 249.791105 78.213532 
L 250.095519 78.001441 
L 250.476037 77.41775 
L 250.932659 76.269169 
L 251.51612 74.149969 
L 252.277156 70.46969 
L 253.444077 63.553458 
L 255.270564 52.826427 
L 256.082335 49.338446 
L 256.691164 47.581647 
L 257.173154 46.791108 
L 257.528304 46.567237 
L 257.832718 46.621421 
L 258.1625 46.935005 
L 258.568386 47.675652 
L 259.075743 49.120695 
L 259.735308 51.762045 
L 260.623183 56.357109 
L 263.616591 72.719487 
L 264.276156 74.86665 
L 264.783513 75.879586 
L 265.189399 76.257387 
L 265.493813 76.28156 
L 265.798227 76.083428 
L 266.178745 75.528936 
L 266.635367 74.433667 
L 267.218828 72.41469 
L 268.005232 68.798314 
L 269.324361 61.450775 
L 270.744961 53.912366 
L 271.531365 50.830753 
L 272.140193 49.261287 
L 272.596815 48.619924 
L 272.951965 48.455477 
L 273.256379 48.550218 
L 273.61153 48.932771 
L 274.042783 49.777516 
L 274.575508 51.353967 
L 275.285809 54.234127 
L 276.325891 59.530317 
L 278.304584 69.711457 
L 279.06562 72.467279 
L 279.649081 73.831943 
L 280.080335 74.367723 
L 280.435485 74.492836 
L 280.739899 74.370856 
L 281.09505 73.964911 
L 281.526303 73.105284 
L 282.084396 71.445822 
L 282.820064 68.476319 
L 283.961618 62.792627 
L 285.585162 54.887806 
L 286.346197 52.212516 
L 286.929658 50.879277 
L 287.38628 50.332015 
L 287.74143 50.222521 
L 288.071212 50.370534 
L 288.426362 50.794199 
L 288.882984 51.723061 
L 289.466445 53.478137 
L 290.252849 56.649629 
L 291.724185 63.772915 
L 292.891106 68.898569 
L 293.626775 71.219445 
L 294.184868 72.323024 
L 294.616121 72.74001 
L 294.945904 72.792343 
L 295.275686 72.61312 
L 295.656204 72.125115 
L 296.138193 71.098724 
L 296.747022 69.225785 
L 297.584161 65.854403 
L 300.298523 54.336505 
L 300.932719 52.775904 
L 301.414709 52.092244 
L 301.795227 51.882174 
L 302.125009 51.939968 
L 302.480159 52.248581 
L 302.911413 52.953163 
L 303.469506 54.354919 
L 304.205174 56.893186 
L 305.422831 62.063629 
L 306.792696 67.596833 
L 307.528364 69.729173 
L 308.086457 70.752449 
L 308.517711 71.145125 
L 308.872861 71.196692 
L 309.228011 71.00245 
L 309.633897 70.48822 
L 310.141254 69.437719 
L 310.800819 67.493231 
L 311.764798 63.850246 
L 313.692755 56.464215 
L 314.403055 54.626596 
L 314.935781 53.778517 
L 315.367034 53.464066 
L 315.722184 53.463822 
L 316.077335 53.69599 
L 316.508588 54.278492 
L 317.041313 55.414386 
L 317.751614 57.51716 
L 318.918535 61.81196 
L 320.313768 66.720694 
L 321.049436 68.54249 
L 321.607529 69.384023 
L 322.038783 69.674305 
L 322.393933 69.669274 
L 322.774451 69.421129 
L 323.205704 68.849279 
L 323.763797 67.694919 
L 324.499465 65.60156 
L 325.920066 60.693124 
L 327.010884 57.316093 
L 327.695816 55.83223 
L 328.228542 55.144326 
L 328.659795 54.918789 
L 329.040313 54.972722 
L 329.446199 55.287134 
L 329.928188 55.98434 
L 330.537017 57.303154 
L 331.399525 59.777685 
L 333.606529 66.371275 
L 334.266093 67.592124 
L 334.773451 68.123015 
L 335.179336 68.269326 
L 335.559854 68.17829 
L 335.96574 67.844391 
L 336.473097 67.108706 
L 337.132662 65.706034 
L 338.122009 62.989075 
L 339.796288 58.406074 
L 340.506588 57.091529 
L 341.064681 56.490316 
L 341.495935 56.315921 
L 341.90182 56.388536 
L 342.333074 56.710691 
L 342.840431 57.387973 
L 343.499996 58.671879 
L 344.51471 61.2062 
L 346.06215 65.01183 
L 346.77245 66.203194 
L 347.330543 66.746364 
L 347.787165 66.903788 
L 348.218419 66.810432 
L 348.67504 66.464443 
L 349.233133 65.729904 
L 349.968801 64.346433 
L 351.617712 60.57223 
L 352.556323 58.797169 
L 353.215888 57.995461 
L 353.723245 57.692135 
L 354.179867 57.667043 
L 354.636488 57.873916 
L 355.169213 58.386781 
L 355.828778 59.36044 
L 356.843492 61.314553 
L 358.390932 64.238221 
L 359.101232 65.12767 
L 359.659325 65.511916 
L 360.141315 65.59856 
L 360.623304 65.457458 
L 361.156029 65.054227 
L 361.815594 64.252177 
L 362.804941 62.647531 
L 364.809002 59.368772 
L 365.722245 58.295774 
L 366.432545 57.784766 
L 367.016006 57.629649 
L 367.523363 57.71882 
L 368.030721 58.039979 
L 368.51271 58.599133 
L 368.86786 59.374281 
L 369.57816 61.624156 
L 370.313828 63.656157 
L 370.795818 64.392924 
L 371.176336 64.607965 
L 371.531486 64.55471 
L 371.96274 64.242626 
L 372.749143 63.330404 
L 373.687754 62.349435 
L 374.321951 62.001283 
L 374.956148 61.914361 
L 375.818655 62.053258 
L 377.442198 62.331545 
L 378.127131 62.333493 
L 378.127131 62.333493 
" style="fill:none;stroke:#1f77b4;stroke-linecap:square;stroke-width:1.5;"/>
   </g>
   <g id="patch_3">
    <path d="M 58.545313 101.591591 
L 58.545313 22.5225 
" style="fill:none;stroke:#000000;stroke-linecap:square;stroke-linejoin:miter;stroke-width:0.8;"/>
   </g>
   <g id="patch_4">
    <path d="M 393.345313 101.591591 
L 393.345313 22.5225 
" style="fill:none;stroke:#000000;stroke-linecap:square;stroke-linejoin:miter;stroke-width:0.8;"/>
   </g>
   <g id="patch_5">
    <path d="M 58.545313 101.591591 
L 393.345313 101.591591 
" style="fill:none;stroke:#000000;stroke-linecap:square;stroke-linejoin:miter;stroke-width:0.8;"/>
   </g>
   <g id="patch_6">
    <path d="M 58.545313 22.5225 
L 393.345313 22.5225 
" style="fill:none;stroke:#000000;stroke-linecap:square;stroke-linejoin:miter;stroke-width:0.8;"/>
   </g>
   <g id="text_12">
    <!-- Señal en el tiempo -->
    <g transform="translate(169.68875 16.5225)scale(0.12 -0.12)">
     <defs>
      <path d="M 53.515625 70.515625 
L 53.515625 60.890625 
Q 47.90625 63.578125 42.921875 64.890625 
Q 37.9375 66.21875 33.296875 66.21875 
Q 25.25 66.21875 20.875 63.09375 
Q 16.5 59.96875 16.5 54.203125 
Q 16.5 49.359375 19.40625 46.890625 
Q 22.3125 44.4375 30.421875 42.921875 
L 36.375 41.703125 
Q 47.40625 39.59375 52.65625 34.296875 
Q 57.90625 29 57.90625 20.125 
Q 57.90625 9.515625 50.796875 4.046875 
Q 43.703125 -1.421875 29.984375 -1.421875 
Q 24.8125 -1.421875 18.96875 -0.25 
Q 13.140625 0.921875 6.890625 3.21875 
L 6.890625 13.375 
Q 12.890625 10.015625 18.65625 8.296875 
Q 24.421875 6.59375 29.984375 6.59375 
Q 38.421875 6.59375 43.015625 9.90625 
Q 47.609375 13.234375 47.609375 19.390625 
Q 47.609375 24.75 44.3125 27.78125 
Q 41.015625 30.8125 33.5 32.328125 
L 27.484375 33.5 
Q 16.453125 35.6875 11.515625 40.375 
Q 6.59375 45.0625 6.59375 53.421875 
Q 6.59375 63.09375 13.40625 68.65625 
Q 20.21875 74.21875 32.171875 74.21875 
Q 37.3125 74.21875 42.625 73.28125 
Q 47.953125 72.359375 53.515625 70.515625 
z
" id="DejaVuSans-83"/>
      <path d="M 54.890625 33.015625 
L 54.890625 0 
L 45.90625 0 
L 45.90625 32.71875 
Q 45.90625 40.484375 42.875 44.328125 
Q 39.84375 48.1875 33.796875 48.1875 
Q 26.515625 48.1875 22.3125 43.546875 
Q 18.109375 38.921875 18.109375 30.90625 
L 18.109375 0 
L 9.078125 0 
L 9.078125 54.6875 
L 18.109375 54.6875 
L 18.109375 46.1875 
Q 21.34375 51.125 25.703125 53.5625 
Q 30.078125 56 35.796875 56 
Q 45.21875 56 50.046875 50.171875 
Q 54.890625 44.34375 54.890625 33.015625 
z
M 32.234375 66.890625 
L 29.4375 69.578125 
Q 28.375 70.5625 27.5625 71.015625 
Q 26.765625 71.484375 26.125 71.484375 
Q 24.265625 71.484375 23.390625 69.703125 
Q 22.515625 67.921875 22.40625 63.921875 
L 16.3125 63.921875 
Q 16.40625 70.515625 18.890625 74.09375 
Q 21.390625 77.6875 25.828125 77.6875 
Q 27.6875 77.6875 29.25 77 
Q 30.8125 76.3125 32.625 74.703125 
L 35.40625 72.015625 
Q 36.46875 71.046875 37.28125 70.578125 
Q 38.09375 70.125 38.71875 70.125 
Q 40.578125 70.125 41.453125 71.90625 
Q 42.328125 73.6875 42.4375 77.6875 
L 48.53125 77.6875 
Q 48.4375 71.09375 45.9375 67.5 
Q 43.453125 63.921875 39.015625 63.921875 
Q 37.15625 63.921875 35.59375 64.59375 
Q 34.03125 65.28125 32.234375 66.890625 
z
" id="DejaVuSans-241"/>
      <path d="M 34.28125 27.484375 
Q 23.390625 27.484375 19.1875 25 
Q 14.984375 22.515625 14.984375 16.5 
Q 14.984375 11.71875 18.140625 8.90625 
Q 21.296875 6.109375 26.703125 6.109375 
Q 34.1875 6.109375 38.703125 11.40625 
Q 43.21875 16.703125 43.21875 25.484375 
L 43.21875 27.484375 
z
M 52.203125 31.203125 
L 52.203125 0 
L 43.21875 0 
L 43.21875 8.296875 
Q 40.140625 3.328125 35.546875 0.953125 
Q 30.953125 -1.421875 24.3125 -1.421875 
Q 15.921875 -1.421875 10.953125 3.296875 
Q 6 8.015625 6 15.921875 
Q 6 25.140625 12.171875 29.828125 
Q 18.359375 34.515625 30.609375 34.515625 
L 43.21875 34.515625 
L 43.21875 35.40625 
Q 43.21875 41.609375 39.140625 45 
Q 35.0625 48.390625 27.6875 48.390625 
Q 23 48.390625 18.546875 47.265625 
Q 14.109375 46.140625 10.015625 43.890625 
L 10.015625 52.203125 
Q 14.9375 54.109375 19.578125 55.046875 
Q 24.21875 56 28.609375 56 
Q 40.484375 56 46.34375 49.84375 
Q 52.203125 43.703125 52.203125 31.203125 
z
" id="DejaVuSans-97"/>
      <path d="M 9.421875 75.984375 
L 18.40625 75.984375 
L 18.40625 0 
L 9.421875 0 
z
" id="DejaVuSans-108"/>
      <path d="M 54.890625 33.015625 
L 54.890625 0 
L 45.90625 0 
L 45.90625 32.71875 
Q 45.90625 40.484375 42.875 44.328125 
Q 39.84375 48.1875 33.796875 48.1875 
Q 26.515625 48.1875 22.3125 43.546875 
Q 18.109375 38.921875 18.109375 30.90625 
L 18.109375 0 
L 9.078125 0 
L 9.078125 54.6875 
L 18.109375 54.6875 
L 18.109375 46.1875 
Q 21.34375 51.125 25.703125 53.5625 
Q 30.078125 56 35.796875 56 
Q 45.21875 56 50.046875 50.171875 
Q 54.890625 44.34375 54.890625 33.015625 
z
" id="DejaVuSans-110"/>
      <path d="M 18.3125 70.21875 
L 18.3125 54.6875 
L 36.8125 54.6875 
L 36.8125 47.703125 
L 18.3125 47.703125 
L 18.3125 18.015625 
Q 18.3125 11.328125 20.140625 9.421875 
Q 21.96875 7.515625 27.59375 7.515625 
L 36.8125 7.515625 
L 36.8125 0 
L 27.59375 0 
Q 17.1875 0 13.234375 3.875 
Q 9.28125 7.765625 9.28125 18.015625 
L 9.28125 47.703125 
L 2.6875 47.703125 
L 2.6875 54.6875 
L 9.28125 54.6875 
L 9.28125 70.21875 
z
" id="DejaVuSans-116"/>
     </defs>
     <use xlink:href="#DejaVuSans-83"/>
     <use x="63.476562" xlink:href="#DejaVuSans-101"/>
     <use x="125" xlink:href="#DejaVuSans-241"/>
     <use x="188.378906" xlink:href="#DejaVuSans-97"/>
     <use x="249.658203" xlink:href="#DejaVuSans-108"/>
     <use x="277.441406" xlink:href="#DejaVuSans-32"/>
     <use x="309.228516" xlink:href="#DejaVuSans-101"/>
     <use x="370.751953" xlink:href="#DejaVuSans-110"/>
     <use x="434.130859" xlink:href="#DejaVuSans-32"/>
     <use x="465.917969" xlink:href="#DejaVuSans-101"/>
     <use x="527.441406" xlink:href="#DejaVuSans-108"/>
     <use x="555.224609" xlink:href="#DejaVuSans-32"/>
     <use x="587.011719" xlink:href="#DejaVuSans-116"/>
     <use x="626.220703" xlink:href="#DejaVuSans-105"/>
     <use x="654.003906" xlink:href="#DejaVuSans-101"/>
     <use x="715.527344" xlink:href="#DejaVuSans-109"/>
     <use x="812.939453" xlink:href="#DejaVuSans-112"/>
     <use x="876.416016" xlink:href="#DejaVuSans-111"/>
    </g>
   </g>
  </g>
  <g id="axes_2">
   <g id="patch_7">
    <path d="M 58.545313 239.9625 
L 393.345313 239.9625 
L 393.345313 160.893409 
L 58.545313 160.893409 
z
" style="fill:#ffffff;"/>
   </g>
   <g id="matplotlib.axis_3">
    <g id="xtick_7">
     <g id="line2d_20">
      <path clip-path="url(#p024e18afef)" d="M 73.763494 239.9625 
L 73.763494 160.893409 
" style="fill:none;stroke:#b0b0b0;stroke-linecap:square;stroke-width:0.8;"/>
     </g>
     <g id="line2d_21">
      <g>
       <use style="stroke:#000000;stroke-width:0.8;" x="73.763494" xlink:href="#mf4987c82af" y="239.9625"/>
      </g>
     </g>
     <g id="text_13">
      <!-- 0 -->
      <g transform="translate(70.582244 254.560937)scale(0.1 -0.1)">
       <use xlink:href="#DejaVuSans-48"/>
      </g>
     </g>
    </g>
    <g id="xtick_8">
     <g id="line2d_22">
      <path clip-path="url(#p024e18afef)" d="M 137.700106 239.9625 
L 137.700106 160.893409 
" style="fill:none;stroke:#b0b0b0;stroke-linecap:square;stroke-width:0.8;"/>
     </g>
     <g id="line2d_23">
      <g>
       <use style="stroke:#000000;stroke-width:0.8;" x="137.700106" xlink:href="#mf4987c82af" y="239.9625"/>
      </g>
     </g>
     <g id="text_14">
      <!-- 1 -->
      <g transform="translate(134.518856 254.560937)scale(0.1 -0.1)">
       <use xlink:href="#DejaVuSans-49"/>
      </g>
     </g>
    </g>
    <g id="xtick_9">
     <g id="line2d_24">
      <path clip-path="url(#p024e18afef)" d="M 201.636718 239.9625 
L 201.636718 160.893409 
" style="fill:none;stroke:#b0b0b0;stroke-linecap:square;stroke-width:0.8;"/>
     </g>
     <g id="line2d_25">
      <g>
       <use style="stroke:#000000;stroke-width:0.8;" x="201.636718" xlink:href="#mf4987c82af" y="239.9625"/>
      </g>
     </g>
     <g id="text_15">
      <!-- 2 -->
      <g transform="translate(198.455468 254.560937)scale(0.1 -0.1)">
       <use xlink:href="#DejaVuSans-50"/>
      </g>
     </g>
    </g>
    <g id="xtick_10">
     <g id="line2d_26">
      <path clip-path="url(#p024e18afef)" d="M 265.57333 239.9625 
L 265.57333 160.893409 
" style="fill:none;stroke:#b0b0b0;stroke-linecap:square;stroke-width:0.8;"/>
     </g>
     <g id="line2d_27">
      <g>
       <use style="stroke:#000000;stroke-width:0.8;" x="265.57333" xlink:href="#mf4987c82af" y="239.9625"/>
      </g>
     </g>
     <g id="text_16">
      <!-- 3 -->
      <g transform="translate(262.39208 254.560937)scale(0.1 -0.1)">
       <use xlink:href="#DejaVuSans-51"/>
      </g>
     </g>
    </g>
    <g id="xtick_11">
     <g id="line2d_28">
      <path clip-path="url(#p024e18afef)" d="M 329.509942 239.9625 
L 329.509942 160.893409 
" style="fill:none;stroke:#b0b0b0;stroke-linecap:square;stroke-width:0.8;"/>
     </g>
     <g id="line2d_29">
      <g>
       <use style="stroke:#000000;stroke-width:0.8;" x="329.509942" xlink:href="#mf4987c82af" y="239.9625"/>
      </g>
     </g>
     <g id="text_17">
      <!-- 4 -->
      <g transform="translate(326.328692 254.560937)scale(0.1 -0.1)">
       <use xlink:href="#DejaVuSans-52"/>
      </g>
     </g>
    </g>
    <g id="text_18">
     <!-- Frecuencia (Hz) -->
     <g transform="translate(187.171875 268.239062)scale(0.1 -0.1)">
      <defs>
       <path d="M 9.8125 72.90625 
L 51.703125 72.90625 
L 51.703125 64.59375 
L 19.671875 64.59375 
L 19.671875 43.109375 
L 48.578125 43.109375 
L 48.578125 34.8125 
L 19.671875 34.8125 
L 19.671875 0 
L 9.8125 0 
z
" id="DejaVuSans-70"/>
       <path d="M 41.109375 46.296875 
Q 39.59375 47.171875 37.8125 47.578125 
Q 36.03125 48 33.890625 48 
Q 26.265625 48 22.1875 43.046875 
Q 18.109375 38.09375 18.109375 28.8125 
L 18.109375 0 
L 9.078125 0 
L 9.078125 54.6875 
L 18.109375 54.6875 
L 18.109375 46.1875 
Q 20.953125 51.171875 25.484375 53.578125 
Q 30.03125 56 36.53125 56 
Q 37.453125 56 38.578125 55.875 
Q 39.703125 55.765625 41.0625 55.515625 
z
" id="DejaVuSans-114"/>
       <path d="M 48.78125 52.59375 
L 48.78125 44.1875 
Q 44.96875 46.296875 41.140625 47.34375 
Q 37.3125 48.390625 33.40625 48.390625 
Q 24.65625 48.390625 19.8125 42.84375 
Q 14.984375 37.3125 14.984375 27.296875 
Q 14.984375 17.28125 19.8125 11.734375 
Q 24.65625 6.203125 33.40625 6.203125 
Q 37.3125 6.203125 41.140625 7.25 
Q 44.96875 8.296875 48.78125 10.40625 
L 48.78125 2.09375 
Q 45.015625 0.34375 40.984375 -0.53125 
Q 36.96875 -1.421875 32.421875 -1.421875 
Q 20.0625 -1.421875 12.78125 6.34375 
Q 5.515625 14.109375 5.515625 27.296875 
Q 5.515625 40.671875 12.859375 48.328125 
Q 20.21875 56 33.015625 56 
Q 37.15625 56 41.109375 55.140625 
Q 45.0625 54.296875 48.78125 52.59375 
z
" id="DejaVuSans-99"/>
       <path d="M 8.5 21.578125 
L 8.5 54.6875 
L 17.484375 54.6875 
L 17.484375 21.921875 
Q 17.484375 14.15625 20.5 10.265625 
Q 23.53125 6.390625 29.59375 6.390625 
Q 36.859375 6.390625 41.078125 11.03125 
Q 45.3125 15.671875 45.3125 23.6875 
L 45.3125 54.6875 
L 54.296875 54.6875 
L 54.296875 0 
L 45.3125 0 
L 45.3125 8.40625 
Q 42.046875 3.421875 37.71875 1 
Q 33.40625 -1.421875 27.6875 -1.421875 
Q 18.265625 -1.421875 13.375 4.4375 
Q 8.5 10.296875 8.5 21.578125 
z
M 31.109375 56 
z
" id="DejaVuSans-117"/>
       <path d="M 9.8125 72.90625 
L 19.671875 72.90625 
L 19.671875 43.015625 
L 55.515625 43.015625 
L 55.515625 72.90625 
L 65.375 72.90625 
L 65.375 0 
L 55.515625 0 
L 55.515625 34.71875 
L 19.671875 34.71875 
L 19.671875 0 
L 9.8125 0 
z
" id="DejaVuSans-72"/>
       <path d="M 5.515625 54.6875 
L 48.1875 54.6875 
L 48.1875 46.484375 
L 14.40625 7.171875 
L 48.1875 7.171875 
L 48.1875 0 
L 4.296875 0 
L 4.296875 8.203125 
L 38.09375 47.515625 
L 5.515625 47.515625 
z
" id="DejaVuSans-122"/>
      </defs>
      <use xlink:href="#DejaVuSans-70"/>
      <use x="50.269531" xlink:href="#DejaVuSans-114"/>
      <use x="89.132812" xlink:href="#DejaVuSans-101"/>
      <use x="150.65625" xlink:href="#DejaVuSans-99"/>
      <use x="205.636719" xlink:href="#DejaVuSans-117"/>
      <use x="269.015625" xlink:href="#DejaVuSans-101"/>
      <use x="330.539062" xlink:href="#DejaVuSans-110"/>
      <use x="393.917969" xlink:href="#DejaVuSans-99"/>
      <use x="448.898438" xlink:href="#DejaVuSans-105"/>
      <use x="476.681641" xlink:href="#DejaVuSans-97"/>
      <use x="537.960938" xlink:href="#DejaVuSans-32"/>
      <use x="569.748047" xlink:href="#DejaVuSans-40"/>
      <use x="608.761719" xlink:href="#DejaVuSans-72"/>
      <use x="683.957031" xlink:href="#DejaVuSans-122"/>
      <use x="736.447266" xlink:href="#DejaVuSans-41"/>
     </g>
    </g>
   </g>
   <g id="matplotlib.axis_4">
    <g id="ytick_4">
     <g id="line2d_30">
      <path clip-path="url(#p024e18afef)" d="M 58.545313 236.36845 
L 393.345313 236.36845 
" style="fill:none;stroke:#b0b0b0;stroke-linecap:square;stroke-width:0.8;"/>
     </g>
     <g id="line2d_31">
      <g>
       <use style="stroke:#000000;stroke-width:0.8;" x="58.545313" xlink:href="#m04ec330d8c" y="236.36845"/>
      </g>
     </g>
     <g id="text_19">
      <!-- 0.00 -->
      <g transform="translate(29.279688 240.167669)scale(0.1 -0.1)">
       <use xlink:href="#DejaVuSans-48"/>
       <use x="63.623047" xlink:href="#DejaVuSans-46"/>
       <use x="95.410156" xlink:href="#DejaVuSans-48"/>
       <use x="159.033203" xlink:href="#DejaVuSans-48"/>
      </g>
     </g>
    </g>
    <g id="ytick_5">
     <g id="line2d_32">
      <path clip-path="url(#p024e18afef)" d="M 58.545313 193.349377 
L 393.345313 193.349377 
" style="fill:none;stroke:#b0b0b0;stroke-linecap:square;stroke-width:0.8;"/>
     </g>
     <g id="line2d_33">
      <g>
       <use style="stroke:#000000;stroke-width:0.8;" x="58.545313" xlink:href="#m04ec330d8c" y="193.349377"/>
      </g>
     </g>
     <g id="text_20">
      <!-- 0.02 -->
      <g transform="translate(29.279688 197.148596)scale(0.1 -0.1)">
       <use xlink:href="#DejaVuSans-48"/>
       <use x="63.623047" xlink:href="#DejaVuSans-46"/>
       <use x="95.410156" xlink:href="#DejaVuSans-48"/>
       <use x="159.033203" xlink:href="#DejaVuSans-50"/>
      </g>
     </g>
    </g>
    <g id="text_21">
     <!-- Abs($Y$) -->
     <g transform="translate(23.2 216.627955)rotate(-90)scale(0.1 -0.1)">
      <defs>
       <path d="M 34.1875 63.1875 
L 20.796875 26.90625 
L 47.609375 26.90625 
z
M 28.609375 72.90625 
L 39.796875 72.90625 
L 67.578125 0 
L 57.328125 0 
L 50.6875 18.703125 
L 17.828125 18.703125 
L 11.1875 0 
L 0.78125 0 
z
" id="DejaVuSans-65"/>
       <path d="M 48.6875 27.296875 
Q 48.6875 37.203125 44.609375 42.84375 
Q 40.53125 48.484375 33.40625 48.484375 
Q 26.265625 48.484375 22.1875 42.84375 
Q 18.109375 37.203125 18.109375 27.296875 
Q 18.109375 17.390625 22.1875 11.75 
Q 26.265625 6.109375 33.40625 6.109375 
Q 40.53125 6.109375 44.609375 11.75 
Q 48.6875 17.390625 48.6875 27.296875 
z
M 18.109375 46.390625 
Q 20.953125 51.265625 25.265625 53.625 
Q 29.59375 56 35.59375 56 
Q 45.5625 56 51.78125 48.09375 
Q 58.015625 40.1875 58.015625 27.296875 
Q 58.015625 14.40625 51.78125 6.484375 
Q 45.5625 -1.421875 35.59375 -1.421875 
Q 29.59375 -1.421875 25.265625 0.953125 
Q 20.953125 3.328125 18.109375 8.203125 
L 18.109375 0 
L 9.078125 0 
L 9.078125 75.984375 
L 18.109375 75.984375 
z
" id="DejaVuSans-98"/>
       <path d="M 6.296875 72.90625 
L 16.890625 72.90625 
L 30.515625 42.921875 
L 56.5 72.90625 
L 67.578125 72.90625 
L 34.515625 34.71875 
L 27.78125 0 
L 17.921875 0 
L 24.609375 34.71875 
z
" id="DejaVuSans-Oblique-89"/>
      </defs>
      <use transform="translate(0 0.015625)" xlink:href="#DejaVuSans-65"/>
      <use transform="translate(68.408203 0.015625)" xlink:href="#DejaVuSans-98"/>
      <use transform="translate(131.884766 0.015625)" xlink:href="#DejaVuSans-115"/>
      <use transform="translate(183.984375 0.015625)" xlink:href="#DejaVuSans-40"/>
      <use transform="translate(222.998047 0.015625)" xlink:href="#DejaVuSans-Oblique-89"/>
      <use transform="translate(284.082031 0.015625)" xlink:href="#DejaVuSans-41"/>
     </g>
    </g>
   </g>
   <g id="LineCollection_1">
    <path clip-path="url(#p024e18afef)" d="M 73.763494 236.36845 
L 73.763494 235.819621 
" style="fill:none;stroke:#1f77b4;stroke-width:1.5;"/>
    <path clip-path="url(#p024e18afef)" d="M 75.042333 236.36845 
L 75.042333 234.583786 
" style="fill:none;stroke:#1f77b4;stroke-width:1.5;"/>
    <path clip-path="url(#p024e18afef)" d="M 76.321172 236.36845 
L 76.321172 233.153812 
" style="fill:none;stroke:#1f77b4;stroke-width:1.5;"/>
    <path clip-path="url(#p024e18afef)" d="M 77.600011 236.36845 
L 77.600011 231.784325 
" style="fill:none;stroke:#1f77b4;stroke-width:1.5;"/>
    <path clip-path="url(#p024e18afef)" d="M 78.87885 236.36845 
L 78.87885 230.416265 
" style="fill:none;stroke:#1f77b4;stroke-width:1.5;"/>
    <path clip-path="url(#p024e18afef)" d="M 80.157688 236.36845 
L 80.157688 228.87766 
" style="fill:none;stroke:#1f77b4;stroke-width:1.5;"/>
    <path clip-path="url(#p024e18afef)" d="M 81.436527 236.36845 
L 81.436527 226.846373 
" style="fill:none;stroke:#1f77b4;stroke-width:1.5;"/>
    <path clip-path="url(#p024e18afef)" d="M 82.715366 236.36845 
L 82.715366 223.843448 
" style="fill:none;stroke:#1f77b4;stroke-width:1.5;"/>
    <path clip-path="url(#p024e18afef)" d="M 83.994205 236.36845 
L 83.994205 219.242348 
" style="fill:none;stroke:#1f77b4;stroke-width:1.5;"/>
    <path clip-path="url(#p024e18afef)" d="M 85.273044 236.36845 
L 85.273044 212.298488 
" style="fill:none;stroke:#1f77b4;stroke-width:1.5;"/>
    <path clip-path="url(#p024e18afef)" d="M 86.551882 236.36845 
L 86.551882 202.321845 
" style="fill:none;stroke:#1f77b4;stroke-width:1.5;"/>
    <path clip-path="url(#p024e18afef)" d="M 87.830721 236.36845 
L 87.830721 189.262 
" style="fill:none;stroke:#1f77b4;stroke-width:1.5;"/>
    <path clip-path="url(#p024e18afef)" d="M 89.10956 236.36845 
L 89.10956 174.918501 
" style="fill:none;stroke:#1f77b4;stroke-width:1.5;"/>
    <path clip-path="url(#p024e18afef)" d="M 90.388399 236.36845 
L 90.388399 164.487459 
" style="fill:none;stroke:#1f77b4;stroke-width:1.5;"/>
    <path clip-path="url(#p024e18afef)" d="M 91.667238 236.36845 
L 91.667238 166.73512 
" style="fill:none;stroke:#1f77b4;stroke-width:1.5;"/>
    <path clip-path="url(#p024e18afef)" d="M 92.946076 236.36845 
L 92.946076 186.760719 
" style="fill:none;stroke:#1f77b4;stroke-width:1.5;"/>
    <path clip-path="url(#p024e18afef)" d="M 94.224915 236.36845 
L 94.224915 196.521425 
" style="fill:none;stroke:#1f77b4;stroke-width:1.5;"/>
    <path clip-path="url(#p024e18afef)" d="M 95.503754 236.36845 
L 95.503754 186.092539 
" style="fill:none;stroke:#1f77b4;stroke-width:1.5;"/>
    <path clip-path="url(#p024e18afef)" d="M 96.782593 236.36845 
L 96.782593 206.264845 
" style="fill:none;stroke:#1f77b4;stroke-width:1.5;"/>
    <path clip-path="url(#p024e18afef)" d="M 98.061432 236.36845 
L 98.061432 197.330528 
" style="fill:none;stroke:#1f77b4;stroke-width:1.5;"/>
    <path clip-path="url(#p024e18afef)" d="M 99.34027 236.36845 
L 99.34027 214.661672 
" style="fill:none;stroke:#1f77b4;stroke-width:1.5;"/>
    <path clip-path="url(#p024e18afef)" d="M 100.619109 236.36845 
L 100.619109 207.885977 
" style="fill:none;stroke:#1f77b4;stroke-width:1.5;"/>
    <path clip-path="url(#p024e18afef)" d="M 101.897948 236.36845 
L 101.897948 215.109649 
" style="fill:none;stroke:#1f77b4;stroke-width:1.5;"/>
    <path clip-path="url(#p024e18afef)" d="M 103.176787 236.36845 
L 103.176787 225.164457 
" style="fill:none;stroke:#1f77b4;stroke-width:1.5;"/>
    <path clip-path="url(#p024e18afef)" d="M 104.455626 236.36845 
L 104.455626 225.124605 
" style="fill:none;stroke:#1f77b4;stroke-width:1.5;"/>
    <path clip-path="url(#p024e18afef)" d="M 105.734465 236.36845 
L 105.734465 225.669725 
" style="fill:none;stroke:#1f77b4;stroke-width:1.5;"/>
    <path clip-path="url(#p024e18afef)" d="M 107.013303 236.36845 
L 107.013303 228.288061 
" style="fill:none;stroke:#1f77b4;stroke-width:1.5;"/>
    <path clip-path="url(#p024e18afef)" d="M 108.292142 236.36845 
L 108.292142 230.857898 
" style="fill:none;stroke:#1f77b4;stroke-width:1.5;"/>
    <path clip-path="url(#p024e18afef)" d="M 109.570981 236.36845 
L 109.570981 232.419587 
" style="fill:none;stroke:#1f77b4;stroke-width:1.5;"/>
    <path clip-path="url(#p024e18afef)" d="M 110.84982 236.36845 
L 110.84982 233.048754 
" style="fill:none;stroke:#1f77b4;stroke-width:1.5;"/>
    <path clip-path="url(#p024e18afef)" d="M 112.128659 236.36845 
L 112.128659 233.214814 
" style="fill:none;stroke:#1f77b4;stroke-width:1.5;"/>
    <path clip-path="url(#p024e18afef)" d="M 113.407497 236.36845 
L 113.407497 233.224519 
" style="fill:none;stroke:#1f77b4;stroke-width:1.5;"/>
    <path clip-path="url(#p024e18afef)" d="M 114.686336 236.36845 
L 114.686336 233.158984 
" style="fill:none;stroke:#1f77b4;stroke-width:1.5;"/>
    <path clip-path="url(#p024e18afef)" d="M 115.965175 236.36845 
L 115.965175 233.021296 
" style="fill:none;stroke:#1f77b4;stroke-width:1.5;"/>
    <path clip-path="url(#p024e18afef)" d="M 117.244014 236.36845 
L 117.244014 232.825805 
" style="fill:none;stroke:#1f77b4;stroke-width:1.5;"/>
    <path clip-path="url(#p024e18afef)" d="M 118.522853 236.36845 
L 118.522853 232.616134 
" style="fill:none;stroke:#1f77b4;stroke-width:1.5;"/>
    <path clip-path="url(#p024e18afef)" d="M 119.801691 236.36845 
L 119.801691 232.448183 
" style="fill:none;stroke:#1f77b4;stroke-width:1.5;"/>
    <path clip-path="url(#p024e18afef)" d="M 121.08053 236.36845 
L 121.08053 232.371098 
" style="fill:none;stroke:#1f77b4;stroke-width:1.5;"/>
    <path clip-path="url(#p024e18afef)" d="M 122.359369 236.36845 
L 122.359369 232.415902 
" style="fill:none;stroke:#1f77b4;stroke-width:1.5;"/>
    <path clip-path="url(#p024e18afef)" d="M 123.638208 236.36845 
L 123.638208 232.588216 
" style="fill:none;stroke:#1f77b4;stroke-width:1.5;"/>
    <path clip-path="url(#p024e18afef)" d="M 124.917047 236.36845 
L 124.917047 232.861262 
" style="fill:none;stroke:#1f77b4;stroke-width:1.5;"/>
    <path clip-path="url(#p024e18afef)" d="M 126.195885 236.36845 
L 126.195885 233.172724 
" style="fill:none;stroke:#1f77b4;stroke-width:1.5;"/>
    <path clip-path="url(#p024e18afef)" d="M 127.474724 236.36845 
L 127.474724 233.432443 
" style="fill:none;stroke:#1f77b4;stroke-width:1.5;"/>
    <path clip-path="url(#p024e18afef)" d="M 128.753563 236.36845 
L 128.753563 233.55388 
" style="fill:none;stroke:#1f77b4;stroke-width:1.5;"/>
    <path clip-path="url(#p024e18afef)" d="M 130.032402 236.36845 
L 130.032402 233.509124 
" style="fill:none;stroke:#1f77b4;stroke-width:1.5;"/>
    <path clip-path="url(#p024e18afef)" d="M 131.311241 236.36845 
L 131.311241 233.353984 
" style="fill:none;stroke:#1f77b4;stroke-width:1.5;"/>
    <path clip-path="url(#p024e18afef)" d="M 132.590079 236.36845 
L 132.590079 233.191731 
" style="fill:none;stroke:#1f77b4;stroke-width:1.5;"/>
    <path clip-path="url(#p024e18afef)" d="M 133.868918 236.36845 
L 133.868918 233.112052 
" style="fill:none;stroke:#1f77b4;stroke-width:1.5;"/>
    <path clip-path="url(#p024e18afef)" d="M 135.147757 236.36845 
L 135.147757 233.150821 
" style="fill:none;stroke:#1f77b4;stroke-width:1.5;"/>
    <path clip-path="url(#p024e18afef)" d="M 136.426596 236.36845 
L 136.426596 233.321907 
" style="fill:none;stroke:#1f77b4;stroke-width:1.5;"/>
    <path clip-path="url(#p024e18afef)" d="M 137.705435 236.36845 
L 137.705435 233.610828 
" style="fill:none;stroke:#1f77b4;stroke-width:1.5;"/>
    <path clip-path="url(#p024e18afef)" d="M 138.984274 236.36845 
L 138.984274 233.946168 
" style="fill:none;stroke:#1f77b4;stroke-width:1.5;"/>
    <path clip-path="url(#p024e18afef)" d="M 140.263112 236.36845 
L 140.263112 234.264973 
" style="fill:none;stroke:#1f77b4;stroke-width:1.5;"/>
    <path clip-path="url(#p024e18afef)" d="M 141.541951 236.36845 
L 141.541951 234.483158 
" style="fill:none;stroke:#1f77b4;stroke-width:1.5;"/>
    <path clip-path="url(#p024e18afef)" d="M 142.82079 236.36845 
L 142.82079 234.563637 
" style="fill:none;stroke:#1f77b4;stroke-width:1.5;"/>
    <path clip-path="url(#p024e18afef)" d="M 144.099629 236.36845 
L 144.099629 234.54972 
" style="fill:none;stroke:#1f77b4;stroke-width:1.5;"/>
    <path clip-path="url(#p024e18afef)" d="M 145.378468 236.36845 
L 145.378468 234.499963 
" style="fill:none;stroke:#1f77b4;stroke-width:1.5;"/>
    <path clip-path="url(#p024e18afef)" d="M 146.657306 236.36845 
L 146.657306 234.491089 
" style="fill:none;stroke:#1f77b4;stroke-width:1.5;"/>
    <path clip-path="url(#p024e18afef)" d="M 147.936145 236.36845 
L 147.936145 234.542882 
" style="fill:none;stroke:#1f77b4;stroke-width:1.5;"/>
    <path clip-path="url(#p024e18afef)" d="M 149.214984 236.36845 
L 149.214984 234.673383 
" style="fill:none;stroke:#1f77b4;stroke-width:1.5;"/>
    <path clip-path="url(#p024e18afef)" d="M 150.493823 236.36845 
L 150.493823 234.861051 
" style="fill:none;stroke:#1f77b4;stroke-width:1.5;"/>
    <path clip-path="url(#p024e18afef)" d="M 151.772662 236.36845 
L 151.772662 235.078476 
" style="fill:none;stroke:#1f77b4;stroke-width:1.5;"/>
    <path clip-path="url(#p024e18afef)" d="M 153.0515 236.36845 
L 153.0515 235.291889 
" style="fill:none;stroke:#1f77b4;stroke-width:1.5;"/>
    <path clip-path="url(#p024e18afef)" d="M 154.330339 236.36845 
L 154.330339 235.455533 
" style="fill:none;stroke:#1f77b4;stroke-width:1.5;"/>
    <path clip-path="url(#p024e18afef)" d="M 155.609178 236.36845 
L 155.609178 235.551492 
" style="fill:none;stroke:#1f77b4;stroke-width:1.5;"/>
    <path clip-path="url(#p024e18afef)" d="M 156.888017 236.36845 
L 156.888017 235.57932 
" style="fill:none;stroke:#1f77b4;stroke-width:1.5;"/>
    <path clip-path="url(#p024e18afef)" d="M 158.166856 236.36845 
L 158.166856 235.570647 
" style="fill:none;stroke:#1f77b4;stroke-width:1.5;"/>
    <path clip-path="url(#p024e18afef)" d="M 159.445694 236.36845 
L 159.445694 235.565249 
" style="fill:none;stroke:#1f77b4;stroke-width:1.5;"/>
    <path clip-path="url(#p024e18afef)" d="M 160.724533 236.36845 
L 160.724533 235.583701 
" style="fill:none;stroke:#1f77b4;stroke-width:1.5;"/>
    <path clip-path="url(#p024e18afef)" d="M 162.003372 236.36845 
L 162.003372 235.632996 
" style="fill:none;stroke:#1f77b4;stroke-width:1.5;"/>
    <path clip-path="url(#p024e18afef)" d="M 163.282211 236.36845 
L 163.282211 235.710851 
" style="fill:none;stroke:#1f77b4;stroke-width:1.5;"/>
    <path clip-path="url(#p024e18afef)" d="M 164.56105 236.36845 
L 164.56105 235.806737 
" style="fill:none;stroke:#1f77b4;stroke-width:1.5;"/>
    <path clip-path="url(#p024e18afef)" d="M 165.839889 236.36845 
L 165.839889 235.905507 
" style="fill:none;stroke:#1f77b4;stroke-width:1.5;"/>
    <path clip-path="url(#p024e18afef)" d="M 167.118727 236.36845 
L 167.118727 235.990603 
" style="fill:none;stroke:#1f77b4;stroke-width:1.5;"/>
    <path clip-path="url(#p024e18afef)" d="M 168.397566 236.36845 
L 168.397566 236.046758 
" style="fill:none;stroke:#1f77b4;stroke-width:1.5;"/>
    <path clip-path="url(#p024e18afef)" d="M 169.676405 236.36845 
L 169.676405 236.067752 
" style="fill:none;stroke:#1f77b4;stroke-width:1.5;"/>
    <path clip-path="url(#p024e18afef)" d="M 170.955244 236.36845 
L 170.955244 236.064356 
" style="fill:none;stroke:#1f77b4;stroke-width:1.5;"/>
    <path clip-path="url(#p024e18afef)" d="M 172.234083 236.36845 
L 172.234083 236.055937 
" style="fill:none;stroke:#1f77b4;stroke-width:1.5;"/>
    <path clip-path="url(#p024e18afef)" d="M 173.512921 236.36845 
L 173.512921 236.056817 
" style="fill:none;stroke:#1f77b4;stroke-width:1.5;"/>
    <path clip-path="url(#p024e18afef)" d="M 174.79176 236.36845 
L 174.79176 236.072959 
" style="fill:none;stroke:#1f77b4;stroke-width:1.5;"/>
    <path clip-path="url(#p024e18afef)" d="M 176.070599 236.36845 
L 176.070599 236.10434 
" style="fill:none;stroke:#1f77b4;stroke-width:1.5;"/>
    <path clip-path="url(#p024e18afef)" d="M 177.349438 236.36845 
L 177.349438 236.14768 
" style="fill:none;stroke:#1f77b4;stroke-width:1.5;"/>
    <path clip-path="url(#p024e18afef)" d="M 178.628277 236.36845 
L 178.628277 236.198016 
" style="fill:none;stroke:#1f77b4;stroke-width:1.5;"/>
    <path clip-path="url(#p024e18afef)" d="M 179.907115 236.36845 
L 179.907115 236.248913 
" style="fill:none;stroke:#1f77b4;stroke-width:1.5;"/>
    <path clip-path="url(#p024e18afef)" d="M 181.185954 236.36845 
L 181.185954 236.290228 
" style="fill:none;stroke:#1f77b4;stroke-width:1.5;"/>
    <path clip-path="url(#p024e18afef)" d="M 182.464793 236.36845 
L 182.464793 236.304277 
" style="fill:none;stroke:#1f77b4;stroke-width:1.5;"/>
    <path clip-path="url(#p024e18afef)" d="M 183.743632 236.36845 
L 183.743632 236.289225 
" style="fill:none;stroke:#1f77b4;stroke-width:1.5;"/>
    <path clip-path="url(#p024e18afef)" d="M 185.022471 236.36845 
L 185.022471 236.268593 
" style="fill:none;stroke:#1f77b4;stroke-width:1.5;"/>
    <path clip-path="url(#p024e18afef)" d="M 186.301309 236.36845 
L 186.301309 236.254446 
" style="fill:none;stroke:#1f77b4;stroke-width:1.5;"/>
    <path clip-path="url(#p024e18afef)" d="M 187.580148 236.36845 
L 187.580148 236.249498 
" style="fill:none;stroke:#1f77b4;stroke-width:1.5;"/>
    <path clip-path="url(#p024e18afef)" d="M 188.858987 236.36845 
L 188.858987 236.253256 
" style="fill:none;stroke:#1f77b4;stroke-width:1.5;"/>
    <path clip-path="url(#p024e18afef)" d="M 190.137826 236.36845 
L 190.137826 236.264069 
" style="fill:none;stroke:#1f77b4;stroke-width:1.5;"/>
    <path clip-path="url(#p024e18afef)" d="M 191.416665 236.36845 
L 191.416665 236.279756 
" style="fill:none;stroke:#1f77b4;stroke-width:1.5;"/>
    <path clip-path="url(#p024e18afef)" d="M 192.695503 236.36845 
L 192.695503 236.297968 
" style="fill:none;stroke:#1f77b4;stroke-width:1.5;"/>
    <path clip-path="url(#p024e18afef)" d="M 193.974342 236.36845 
L 193.974342 236.316357 
" style="fill:none;stroke:#1f77b4;stroke-width:1.5;"/>
    <path clip-path="url(#p024e18afef)" d="M 195.253181 236.36845 
L 195.253181 236.332822 
" style="fill:none;stroke:#1f77b4;stroke-width:1.5;"/>
    <path clip-path="url(#p024e18afef)" d="M 196.53202 236.36845 
L 196.53202 236.345428 
" style="fill:none;stroke:#1f77b4;stroke-width:1.5;"/>
    <path clip-path="url(#p024e18afef)" d="M 197.810859 236.36845 
L 197.810859 236.351878 
" style="fill:none;stroke:#1f77b4;stroke-width:1.5;"/>
    <path clip-path="url(#p024e18afef)" d="M 199.089698 236.36845 
L 199.089698 236.351065 
" style="fill:none;stroke:#1f77b4;stroke-width:1.5;"/>
    <path clip-path="url(#p024e18afef)" d="M 200.368536 236.36845 
L 200.368536 236.346306 
" style="fill:none;stroke:#1f77b4;stroke-width:1.5;"/>
    <path clip-path="url(#p024e18afef)" d="M 201.647375 236.36845 
L 201.647375 236.340551 
" style="fill:none;stroke:#1f77b4;stroke-width:1.5;"/>
    <path clip-path="url(#p024e18afef)" d="M 202.926214 236.36845 
L 202.926214 236.335036 
" style="fill:none;stroke:#1f77b4;stroke-width:1.5;"/>
    <path clip-path="url(#p024e18afef)" d="M 204.205053 236.36845 
L 204.205053 236.330664 
" style="fill:none;stroke:#1f77b4;stroke-width:1.5;"/>
    <path clip-path="url(#p024e18afef)" d="M 205.483892 236.36845 
L 205.483892 236.328316 
" style="fill:none;stroke:#1f77b4;stroke-width:1.5;"/>
    <path clip-path="url(#p024e18afef)" d="M 206.76273 236.36845 
L 206.76273 236.328694 
" style="fill:none;stroke:#1f77b4;stroke-width:1.5;"/>
    <path clip-path="url(#p024e18afef)" d="M 208.041569 236.36845 
L 208.041569 236.332131 
" style="fill:none;stroke:#1f77b4;stroke-width:1.5;"/>
    <path clip-path="url(#p024e18afef)" d="M 209.320408 236.36845 
L 209.320408 236.338518 
" style="fill:none;stroke:#1f77b4;stroke-width:1.5;"/>
    <path clip-path="url(#p024e18afef)" d="M 210.599247 236.36845 
L 210.599247 236.347259 
" style="fill:none;stroke:#1f77b4;stroke-width:1.5;"/>
    <path clip-path="url(#p024e18afef)" d="M 211.878086 236.36845 
L 211.878086 236.356668 
" style="fill:none;stroke:#1f77b4;stroke-width:1.5;"/>
    <path clip-path="url(#p024e18afef)" d="M 213.156924 236.36845 
L 213.156924 236.358947 
" style="fill:none;stroke:#1f77b4;stroke-width:1.5;"/>
    <path clip-path="url(#p024e18afef)" d="M 214.435763 236.36845 
L 214.435763 236.350021 
" style="fill:none;stroke:#1f77b4;stroke-width:1.5;"/>
    <path clip-path="url(#p024e18afef)" d="M 215.714602 236.36845 
L 215.714602 236.340038 
" style="fill:none;stroke:#1f77b4;stroke-width:1.5;"/>
    <path clip-path="url(#p024e18afef)" d="M 216.993441 236.36845 
L 216.993441 236.332102 
" style="fill:none;stroke:#1f77b4;stroke-width:1.5;"/>
    <path clip-path="url(#p024e18afef)" d="M 218.27228 236.36845 
L 218.27228 236.327371 
" style="fill:none;stroke:#1f77b4;stroke-width:1.5;"/>
    <path clip-path="url(#p024e18afef)" d="M 219.551118 236.36845 
L 219.551118 236.326362 
" style="fill:none;stroke:#1f77b4;stroke-width:1.5;"/>
    <path clip-path="url(#p024e18afef)" d="M 220.829957 236.36845 
L 220.829957 236.329124 
" style="fill:none;stroke:#1f77b4;stroke-width:1.5;"/>
    <path clip-path="url(#p024e18afef)" d="M 222.108796 236.36845 
L 222.108796 236.335344 
" style="fill:none;stroke:#1f77b4;stroke-width:1.5;"/>
    <path clip-path="url(#p024e18afef)" d="M 223.387635 236.36845 
L 223.387635 236.344417 
" style="fill:none;stroke:#1f77b4;stroke-width:1.5;"/>
    <path clip-path="url(#p024e18afef)" d="M 224.666474 236.36845 
L 224.666474 236.355454 
" style="fill:none;stroke:#1f77b4;stroke-width:1.5;"/>
    <path clip-path="url(#p024e18afef)" d="M 225.945312 236.36845 
L 225.945312 236.365954 
" style="fill:none;stroke:#1f77b4;stroke-width:1.5;"/>
    <path clip-path="url(#p024e18afef)" d="M 227.224151 236.36845 
L 227.224151 236.356851 
" style="fill:none;stroke:#1f77b4;stroke-width:1.5;"/>
    <path clip-path="url(#p024e18afef)" d="M 228.50299 236.36845 
L 228.50299 236.346265 
" style="fill:none;stroke:#1f77b4;stroke-width:1.5;"/>
    <path clip-path="url(#p024e18afef)" d="M 229.781829 236.36845 
L 229.781829 236.337779 
" style="fill:none;stroke:#1f77b4;stroke-width:1.5;"/>
    <path clip-path="url(#p024e18afef)" d="M 231.060668 236.36845 
L 231.060668 236.332081 
" style="fill:none;stroke:#1f77b4;stroke-width:1.5;"/>
    <path clip-path="url(#p024e18afef)" d="M 232.339507 236.36845 
L 232.339507 236.329501 
" style="fill:none;stroke:#1f77b4;stroke-width:1.5;"/>
    <path clip-path="url(#p024e18afef)" d="M 233.618345 236.36845 
L 233.618345 236.330085 
" style="fill:none;stroke:#1f77b4;stroke-width:1.5;"/>
    <path clip-path="url(#p024e18afef)" d="M 234.897184 236.36845 
L 234.897184 236.333623 
" style="fill:none;stroke:#1f77b4;stroke-width:1.5;"/>
    <path clip-path="url(#p024e18afef)" d="M 236.176023 236.36845 
L 236.176023 236.339648 
" style="fill:none;stroke:#1f77b4;stroke-width:1.5;"/>
    <path clip-path="url(#p024e18afef)" d="M 237.454862 236.36845 
L 237.454862 236.347461 
" style="fill:none;stroke:#1f77b4;stroke-width:1.5;"/>
    <path clip-path="url(#p024e18afef)" d="M 238.733701 236.36845 
L 238.733701 236.356192 
" style="fill:none;stroke:#1f77b4;stroke-width:1.5;"/>
    <path clip-path="url(#p024e18afef)" d="M 240.012539 236.36845 
L 240.012539 236.364897 
" style="fill:none;stroke:#1f77b4;stroke-width:1.5;"/>
    <path clip-path="url(#p024e18afef)" d="M 241.291378 236.36845 
L 241.291378 236.36389 
" style="fill:none;stroke:#1f77b4;stroke-width:1.5;"/>
    <path clip-path="url(#p024e18afef)" d="M 242.570217 236.36845 
L 242.570217 236.357394 
" style="fill:none;stroke:#1f77b4;stroke-width:1.5;"/>
    <path clip-path="url(#p024e18afef)" d="M 243.849056 236.36845 
L 243.849056 236.352758 
" style="fill:none;stroke:#1f77b4;stroke-width:1.5;"/>
    <path clip-path="url(#p024e18afef)" d="M 245.127895 236.36845 
L 245.127895 236.350264 
" style="fill:none;stroke:#1f77b4;stroke-width:1.5;"/>
    <path clip-path="url(#p024e18afef)" d="M 246.406733 236.36845 
L 246.406733 236.349958 
" style="fill:none;stroke:#1f77b4;stroke-width:1.5;"/>
    <path clip-path="url(#p024e18afef)" d="M 247.685572 236.36845 
L 247.685572 236.351623 
" style="fill:none;stroke:#1f77b4;stroke-width:1.5;"/>
    <path clip-path="url(#p024e18afef)" d="M 248.964411 236.36845 
L 248.964411 236.354732 
" style="fill:none;stroke:#1f77b4;stroke-width:1.5;"/>
    <path clip-path="url(#p024e18afef)" d="M 250.24325 236.36845 
L 250.24325 236.358348 
" style="fill:none;stroke:#1f77b4;stroke-width:1.5;"/>
    <path clip-path="url(#p024e18afef)" d="M 251.522089 236.36845 
L 251.522089 236.360817 
" style="fill:none;stroke:#1f77b4;stroke-width:1.5;"/>
    <path clip-path="url(#p024e18afef)" d="M 252.800927 236.36845 
L 252.800927 236.360336 
" style="fill:none;stroke:#1f77b4;stroke-width:1.5;"/>
    <path clip-path="url(#p024e18afef)" d="M 254.079766 236.36845 
L 254.079766 236.357979 
" style="fill:none;stroke:#1f77b4;stroke-width:1.5;"/>
    <path clip-path="url(#p024e18afef)" d="M 255.358605 236.36845 
L 255.358605 236.355781 
" style="fill:none;stroke:#1f77b4;stroke-width:1.5;"/>
    <path clip-path="url(#p024e18afef)" d="M 256.637444 236.36845 
L 256.637444 236.354716 
" style="fill:none;stroke:#1f77b4;stroke-width:1.5;"/>
    <path clip-path="url(#p024e18afef)" d="M 257.916283 236.36845 
L 257.916283 236.35516 
" style="fill:none;stroke:#1f77b4;stroke-width:1.5;"/>
    <path clip-path="url(#p024e18afef)" d="M 259.195122 236.36845 
L 259.195122 236.357151 
" style="fill:none;stroke:#1f77b4;stroke-width:1.5;"/>
    <path clip-path="url(#p024e18afef)" d="M 260.47396 236.36845 
L 260.47396 236.360407 
" style="fill:none;stroke:#1f77b4;stroke-width:1.5;"/>
    <path clip-path="url(#p024e18afef)" d="M 261.752799 236.36845 
L 261.752799 236.364014 
" style="fill:none;stroke:#1f77b4;stroke-width:1.5;"/>
    <path clip-path="url(#p024e18afef)" d="M 263.031638 236.36845 
L 263.031638 236.364138 
" style="fill:none;stroke:#1f77b4;stroke-width:1.5;"/>
    <path clip-path="url(#p024e18afef)" d="M 264.310477 236.36845 
L 264.310477 236.360085 
" style="fill:none;stroke:#1f77b4;stroke-width:1.5;"/>
    <path clip-path="url(#p024e18afef)" d="M 265.589316 236.36845 
L 265.589316 236.355731 
" style="fill:none;stroke:#1f77b4;stroke-width:1.5;"/>
    <path clip-path="url(#p024e18afef)" d="M 266.868154 236.36845 
L 266.868154 236.352139 
" style="fill:none;stroke:#1f77b4;stroke-width:1.5;"/>
    <path clip-path="url(#p024e18afef)" d="M 268.146993 236.36845 
L 268.146993 236.349772 
" style="fill:none;stroke:#1f77b4;stroke-width:1.5;"/>
    <path clip-path="url(#p024e18afef)" d="M 269.425832 236.36845 
L 269.425832 236.348885 
" style="fill:none;stroke:#1f77b4;stroke-width:1.5;"/>
    <path clip-path="url(#p024e18afef)" d="M 270.704671 236.36845 
L 270.704671 236.349546 
" style="fill:none;stroke:#1f77b4;stroke-width:1.5;"/>
    <path clip-path="url(#p024e18afef)" d="M 271.98351 236.36845 
L 271.98351 236.351623 
" style="fill:none;stroke:#1f77b4;stroke-width:1.5;"/>
    <path clip-path="url(#p024e18afef)" d="M 273.262348 236.36845 
L 273.262348 236.354795 
" style="fill:none;stroke:#1f77b4;stroke-width:1.5;"/>
    <path clip-path="url(#p024e18afef)" d="M 274.541187 236.36845 
L 274.541187 236.358534 
" style="fill:none;stroke:#1f77b4;stroke-width:1.5;"/>
    <path clip-path="url(#p024e18afef)" d="M 275.820026 236.36845 
L 275.820026 236.36188 
" style="fill:none;stroke:#1f77b4;stroke-width:1.5;"/>
    <path clip-path="url(#p024e18afef)" d="M 277.098865 236.36845 
L 277.098865 236.362832 
" style="fill:none;stroke:#1f77b4;stroke-width:1.5;"/>
    <path clip-path="url(#p024e18afef)" d="M 278.377704 236.36845 
L 278.377704 236.360812 
" style="fill:none;stroke:#1f77b4;stroke-width:1.5;"/>
    <path clip-path="url(#p024e18afef)" d="M 279.656542 236.36845 
L 279.656542 236.358161 
" style="fill:none;stroke:#1f77b4;stroke-width:1.5;"/>
    <path clip-path="url(#p024e18afef)" d="M 280.935381 236.36845 
L 280.935381 236.356135 
" style="fill:none;stroke:#1f77b4;stroke-width:1.5;"/>
    <path clip-path="url(#p024e18afef)" d="M 282.21422 236.36845 
L 282.21422 236.355134 
" style="fill:none;stroke:#1f77b4;stroke-width:1.5;"/>
    <path clip-path="url(#p024e18afef)" d="M 283.493059 236.36845 
L 283.493059 236.355226 
" style="fill:none;stroke:#1f77b4;stroke-width:1.5;"/>
    <path clip-path="url(#p024e18afef)" d="M 284.771898 236.36845 
L 284.771898 236.356286 
" style="fill:none;stroke:#1f77b4;stroke-width:1.5;"/>
    <path clip-path="url(#p024e18afef)" d="M 286.050736 236.36845 
L 286.050736 236.358061 
" style="fill:none;stroke:#1f77b4;stroke-width:1.5;"/>
    <path clip-path="url(#p024e18afef)" d="M 287.329575 236.36845 
L 287.329575 236.36019 
" style="fill:none;stroke:#1f77b4;stroke-width:1.5;"/>
    <path clip-path="url(#p024e18afef)" d="M 288.608414 236.36845 
L 288.608414 236.362182 
" style="fill:none;stroke:#1f77b4;stroke-width:1.5;"/>
    <path clip-path="url(#p024e18afef)" d="M 289.887253 236.36845 
L 289.887253 236.363412 
" style="fill:none;stroke:#1f77b4;stroke-width:1.5;"/>
    <path clip-path="url(#p024e18afef)" d="M 291.166092 236.36845 
L 291.166092 236.363578 
" style="fill:none;stroke:#1f77b4;stroke-width:1.5;"/>
    <path clip-path="url(#p024e18afef)" d="M 292.444931 236.36845 
L 292.444931 236.363256 
" style="fill:none;stroke:#1f77b4;stroke-width:1.5;"/>
    <path clip-path="url(#p024e18afef)" d="M 293.723769 236.36845 
L 293.723769 236.363208 
" style="fill:none;stroke:#1f77b4;stroke-width:1.5;"/>
    <path clip-path="url(#p024e18afef)" d="M 295.002608 236.36845 
L 295.002608 236.363803 
" style="fill:none;stroke:#1f77b4;stroke-width:1.5;"/>
    <path clip-path="url(#p024e18afef)" d="M 296.281447 236.36845 
L 296.281447 236.365103 
" style="fill:none;stroke:#1f77b4;stroke-width:1.5;"/>
    <path clip-path="url(#p024e18afef)" d="M 297.560286 236.36845 
L 297.560286 236.366897 
" style="fill:none;stroke:#1f77b4;stroke-width:1.5;"/>
    <path clip-path="url(#p024e18afef)" d="M 298.839125 236.36845 
L 298.839125 236.366865 
" style="fill:none;stroke:#1f77b4;stroke-width:1.5;"/>
    <path clip-path="url(#p024e18afef)" d="M 300.117963 236.36845 
L 300.117963 236.364359 
" style="fill:none;stroke:#1f77b4;stroke-width:1.5;"/>
    <path clip-path="url(#p024e18afef)" d="M 301.396802 236.36845 
L 301.396802 236.361692 
" style="fill:none;stroke:#1f77b4;stroke-width:1.5;"/>
    <path clip-path="url(#p024e18afef)" d="M 302.675641 236.36845 
L 302.675641 236.359271 
" style="fill:none;stroke:#1f77b4;stroke-width:1.5;"/>
    <path clip-path="url(#p024e18afef)" d="M 303.95448 236.36845 
L 303.95448 236.35736 
" style="fill:none;stroke:#1f77b4;stroke-width:1.5;"/>
    <path clip-path="url(#p024e18afef)" d="M 305.233319 236.36845 
L 305.233319 236.356148 
" style="fill:none;stroke:#1f77b4;stroke-width:1.5;"/>
    <path clip-path="url(#p024e18afef)" d="M 306.512157 236.36845 
L 306.512157 236.355737 
" style="fill:none;stroke:#1f77b4;stroke-width:1.5;"/>
    <path clip-path="url(#p024e18afef)" d="M 307.790996 236.36845 
L 307.790996 236.356141 
" style="fill:none;stroke:#1f77b4;stroke-width:1.5;"/>
    <path clip-path="url(#p024e18afef)" d="M 309.069835 236.36845 
L 309.069835 236.357288 
" style="fill:none;stroke:#1f77b4;stroke-width:1.5;"/>
    <path clip-path="url(#p024e18afef)" d="M 310.348674 236.36845 
L 310.348674 236.359023 
" style="fill:none;stroke:#1f77b4;stroke-width:1.5;"/>
    <path clip-path="url(#p024e18afef)" d="M 311.627513 236.36845 
L 311.627513 236.361084 
" style="fill:none;stroke:#1f77b4;stroke-width:1.5;"/>
    <path clip-path="url(#p024e18afef)" d="M 312.906351 236.36845 
L 312.906351 236.363 
" style="fill:none;stroke:#1f77b4;stroke-width:1.5;"/>
    <path clip-path="url(#p024e18afef)" d="M 314.18519 236.36845 
L 314.18519 236.363934 
" style="fill:none;stroke:#1f77b4;stroke-width:1.5;"/>
    <path clip-path="url(#p024e18afef)" d="M 315.464029 236.36845 
L 315.464029 236.363306 
" style="fill:none;stroke:#1f77b4;stroke-width:1.5;"/>
    <path clip-path="url(#p024e18afef)" d="M 316.742868 236.36845 
L 316.742868 236.36186 
" style="fill:none;stroke:#1f77b4;stroke-width:1.5;"/>
    <path clip-path="url(#p024e18afef)" d="M 318.021707 236.36845 
L 318.021707 236.360433 
" style="fill:none;stroke:#1f77b4;stroke-width:1.5;"/>
    <path clip-path="url(#p024e18afef)" d="M 319.300546 236.36845 
L 319.300546 236.359402 
" style="fill:none;stroke:#1f77b4;stroke-width:1.5;"/>
    <path clip-path="url(#p024e18afef)" d="M 320.579384 236.36845 
L 320.579384 236.358914 
" style="fill:none;stroke:#1f77b4;stroke-width:1.5;"/>
    <path clip-path="url(#p024e18afef)" d="M 321.858223 236.36845 
L 321.858223 236.359 
" style="fill:none;stroke:#1f77b4;stroke-width:1.5;"/>
    <path clip-path="url(#p024e18afef)" d="M 323.137062 236.36845 
L 323.137062 236.359611 
" style="fill:none;stroke:#1f77b4;stroke-width:1.5;"/>
    <path clip-path="url(#p024e18afef)" d="M 324.415901 236.36845 
L 324.415901 236.360642 
" style="fill:none;stroke:#1f77b4;stroke-width:1.5;"/>
    <path clip-path="url(#p024e18afef)" d="M 325.69474 236.36845 
L 325.69474 236.361942 
" style="fill:none;stroke:#1f77b4;stroke-width:1.5;"/>
    <path clip-path="url(#p024e18afef)" d="M 326.973578 236.36845 
L 326.973578 236.363348 
" style="fill:none;stroke:#1f77b4;stroke-width:1.5;"/>
    <path clip-path="url(#p024e18afef)" d="M 328.252417 236.36845 
L 328.252417 236.364708 
" style="fill:none;stroke:#1f77b4;stroke-width:1.5;"/>
    <path clip-path="url(#p024e18afef)" d="M 329.531256 236.36845 
L 329.531256 236.365896 
" style="fill:none;stroke:#1f77b4;stroke-width:1.5;"/>
    <path clip-path="url(#p024e18afef)" d="M 330.810095 236.36845 
L 330.810095 236.366825 
" style="fill:none;stroke:#1f77b4;stroke-width:1.5;"/>
    <path clip-path="url(#p024e18afef)" d="M 332.088934 236.36845 
L 332.088934 236.367465 
" style="fill:none;stroke:#1f77b4;stroke-width:1.5;"/>
    <path clip-path="url(#p024e18afef)" d="M 333.367772 236.36845 
L 333.367772 236.36783 
" style="fill:none;stroke:#1f77b4;stroke-width:1.5;"/>
    <path clip-path="url(#p024e18afef)" d="M 334.646611 236.36845 
L 334.646611 236.367792 
" style="fill:none;stroke:#1f77b4;stroke-width:1.5;"/>
    <path clip-path="url(#p024e18afef)" d="M 335.92545 236.36845 
L 335.92545 236.367273 
" style="fill:none;stroke:#1f77b4;stroke-width:1.5;"/>
    <path clip-path="url(#p024e18afef)" d="M 337.204289 236.36845 
L 337.204289 236.366482 
" style="fill:none;stroke:#1f77b4;stroke-width:1.5;"/>
    <path clip-path="url(#p024e18afef)" d="M 338.483128 236.36845 
L 338.483128 236.365555 
" style="fill:none;stroke:#1f77b4;stroke-width:1.5;"/>
    <path clip-path="url(#p024e18afef)" d="M 339.761966 236.36845 
L 339.761966 236.364597 
" style="fill:none;stroke:#1f77b4;stroke-width:1.5;"/>
    <path clip-path="url(#p024e18afef)" d="M 341.040805 236.36845 
L 341.040805 236.363692 
" style="fill:none;stroke:#1f77b4;stroke-width:1.5;"/>
    <path clip-path="url(#p024e18afef)" d="M 342.319644 236.36845 
L 342.319644 236.362909 
" style="fill:none;stroke:#1f77b4;stroke-width:1.5;"/>
    <path clip-path="url(#p024e18afef)" d="M 343.598483 236.36845 
L 343.598483 236.362293 
" style="fill:none;stroke:#1f77b4;stroke-width:1.5;"/>
    <path clip-path="url(#p024e18afef)" d="M 344.877322 236.36845 
L 344.877322 236.361869 
" style="fill:none;stroke:#1f77b4;stroke-width:1.5;"/>
    <path clip-path="url(#p024e18afef)" d="M 346.15616 236.36845 
L 346.15616 236.361639 
" style="fill:none;stroke:#1f77b4;stroke-width:1.5;"/>
    <path clip-path="url(#p024e18afef)" d="M 347.434999 236.36845 
L 347.434999 236.361581 
" style="fill:none;stroke:#1f77b4;stroke-width:1.5;"/>
    <path clip-path="url(#p024e18afef)" d="M 348.713838 236.36845 
L 348.713838 236.361658 
" style="fill:none;stroke:#1f77b4;stroke-width:1.5;"/>
    <path clip-path="url(#p024e18afef)" d="M 349.992677 236.36845 
L 349.992677 236.36182 
" style="fill:none;stroke:#1f77b4;stroke-width:1.5;"/>
    <path clip-path="url(#p024e18afef)" d="M 351.271516 236.36845 
L 351.271516 236.362024 
" style="fill:none;stroke:#1f77b4;stroke-width:1.5;"/>
    <path clip-path="url(#p024e18afef)" d="M 352.550355 236.36845 
L 352.550355 236.362238 
" style="fill:none;stroke:#1f77b4;stroke-width:1.5;"/>
    <path clip-path="url(#p024e18afef)" d="M 353.829193 236.36845 
L 353.829193 236.362443 
" style="fill:none;stroke:#1f77b4;stroke-width:1.5;"/>
    <path clip-path="url(#p024e18afef)" d="M 355.108032 236.36845 
L 355.108032 236.362632 
" style="fill:none;stroke:#1f77b4;stroke-width:1.5;"/>
    <path clip-path="url(#p024e18afef)" d="M 356.386871 236.36845 
L 356.386871 236.362802 
" style="fill:none;stroke:#1f77b4;stroke-width:1.5;"/>
    <path clip-path="url(#p024e18afef)" d="M 357.66571 236.36845 
L 357.66571 236.362951 
" style="fill:none;stroke:#1f77b4;stroke-width:1.5;"/>
    <path clip-path="url(#p024e18afef)" d="M 358.944549 236.36845 
L 358.944549 236.363078 
" style="fill:none;stroke:#1f77b4;stroke-width:1.5;"/>
    <path clip-path="url(#p024e18afef)" d="M 360.223387 236.36845 
L 360.223387 236.363185 
" style="fill:none;stroke:#1f77b4;stroke-width:1.5;"/>
    <path clip-path="url(#p024e18afef)" d="M 361.502226 236.36845 
L 361.502226 236.363284 
" style="fill:none;stroke:#1f77b4;stroke-width:1.5;"/>
    <path clip-path="url(#p024e18afef)" d="M 362.781065 236.36845 
L 362.781065 236.363394 
" style="fill:none;stroke:#1f77b4;stroke-width:1.5;"/>
    <path clip-path="url(#p024e18afef)" d="M 364.059904 236.36845 
L 364.059904 236.363538 
" style="fill:none;stroke:#1f77b4;stroke-width:1.5;"/>
    <path clip-path="url(#p024e18afef)" d="M 365.338743 236.36845 
L 365.338743 236.363736 
" style="fill:none;stroke:#1f77b4;stroke-width:1.5;"/>
    <path clip-path="url(#p024e18afef)" d="M 366.617581 236.36845 
L 366.617581 236.363996 
" style="fill:none;stroke:#1f77b4;stroke-width:1.5;"/>
    <path clip-path="url(#p024e18afef)" d="M 367.89642 236.36845 
L 367.89642 236.364306 
" style="fill:none;stroke:#1f77b4;stroke-width:1.5;"/>
    <path clip-path="url(#p024e18afef)" d="M 369.175259 236.36845 
L 369.175259 236.364641 
" style="fill:none;stroke:#1f77b4;stroke-width:1.5;"/>
    <path clip-path="url(#p024e18afef)" d="M 370.454098 236.36845 
L 370.454098 236.364971 
" style="fill:none;stroke:#1f77b4;stroke-width:1.5;"/>
    <path clip-path="url(#p024e18afef)" d="M 371.732937 236.36845 
L 371.732937 236.365269 
" style="fill:none;stroke:#1f77b4;stroke-width:1.5;"/>
    <path clip-path="url(#p024e18afef)" d="M 373.011775 236.36845 
L 373.011775 236.365521 
" style="fill:none;stroke:#1f77b4;stroke-width:1.5;"/>
    <path clip-path="url(#p024e18afef)" d="M 374.290614 236.36845 
L 374.290614 236.365721 
" style="fill:none;stroke:#1f77b4;stroke-width:1.5;"/>
    <path clip-path="url(#p024e18afef)" d="M 375.569453 236.36845 
L 375.569453 236.365866 
" style="fill:none;stroke:#1f77b4;stroke-width:1.5;"/>
    <path clip-path="url(#p024e18afef)" d="M 376.848292 236.36845 
L 376.848292 236.365945 
" style="fill:none;stroke:#1f77b4;stroke-width:1.5;"/>
    <path clip-path="url(#p024e18afef)" d="M 378.127131 236.36845 
L 378.127131 236.365923 
" style="fill:none;stroke:#1f77b4;stroke-width:1.5;"/>
   </g>
   <g id="patch_8">
    <path d="M 58.545313 239.9625 
L 58.545313 160.893409 
" style="fill:none;stroke:#000000;stroke-linecap:square;stroke-linejoin:miter;stroke-width:0.8;"/>
   </g>
   <g id="patch_9">
    <path d="M 393.345313 239.9625 
L 393.345313 160.893409 
" style="fill:none;stroke:#000000;stroke-linecap:square;stroke-linejoin:miter;stroke-width:0.8;"/>
   </g>
   <g id="patch_10">
    <path d="M 58.545312 239.9625 
L 393.345312 239.9625 
" style="fill:none;stroke:#000000;stroke-linecap:square;stroke-linejoin:miter;stroke-width:0.8;"/>
   </g>
   <g id="patch_11">
    <path d="M 58.545312 160.893409 
L 393.345312 160.893409 
" style="fill:none;stroke:#000000;stroke-linecap:square;stroke-linejoin:miter;stroke-width:0.8;"/>
   </g>
   <g id="text_22">
    <!-- Señal en frecuencia -->
    <g transform="translate(166.615625 154.893409)scale(0.12 -0.12)">
     <defs>
      <path d="M 37.109375 75.984375 
L 37.109375 68.5 
L 28.515625 68.5 
Q 23.6875 68.5 21.796875 66.546875 
Q 19.921875 64.59375 19.921875 59.515625 
L 19.921875 54.6875 
L 34.71875 54.6875 
L 34.71875 47.703125 
L 19.921875 47.703125 
L 19.921875 0 
L 10.890625 0 
L 10.890625 47.703125 
L 2.296875 47.703125 
L 2.296875 54.6875 
L 10.890625 54.6875 
L 10.890625 58.5 
Q 10.890625 67.625 15.140625 71.796875 
Q 19.390625 75.984375 28.609375 75.984375 
z
" id="DejaVuSans-102"/>
     </defs>
     <use xlink:href="#DejaVuSans-83"/>
     <use x="63.476562" xlink:href="#DejaVuSans-101"/>
     <use x="125" xlink:href="#DejaVuSans-241"/>
     <use x="188.378906" xlink:href="#DejaVuSans-97"/>
     <use x="249.658203" xlink:href="#DejaVuSans-108"/>
     <use x="277.441406" xlink:href="#DejaVuSans-32"/>
     <use x="309.228516" xlink:href="#DejaVuSans-101"/>
     <use x="370.751953" xlink:href="#DejaVuSans-110"/>
     <use x="434.130859" xlink:href="#DejaVuSans-32"/>
     <use x="465.917969" xlink:href="#DejaVuSans-102"/>
     <use x="501.123047" xlink:href="#DejaVuSans-114"/>
     <use x="539.986328" xlink:href="#DejaVuSans-101"/>
     <use x="601.509766" xlink:href="#DejaVuSans-99"/>
     <use x="656.490234" xlink:href="#DejaVuSans-117"/>
     <use x="719.869141" xlink:href="#DejaVuSans-101"/>
     <use x="781.392578" xlink:href="#DejaVuSans-110"/>
     <use x="844.771484" xlink:href="#DejaVuSans-99"/>
     <use x="899.751953" xlink:href="#DejaVuSans-105"/>
     <use x="927.535156" xlink:href="#DejaVuSans-97"/>
    </g>
   </g>
  </g>
 </g>
 <defs>
  <clipPath id="pedc2fed14f">
   <rect height="79.069091" width="334.8" x="58.545313" y="22.5225"/>
  </clipPath>
  <clipPath id="p024e18afef">
   <rect height="79.069091" width="334.8" x="58.545313" y="160.893409"/>
  </clipPath>
 </defs>
</svg>
