<?xml version="1.0" encoding="utf-8" standalone="no"?>
<!DOCTYPE svg PUBLIC "-//W3C//DTD SVG 1.1//EN"
  "http://www.w3.org/Graphics/SVG/1.1/DTD/svg11.dtd">
<svg height="576pt" version="1.1" viewBox="0 0 576 576" width="576pt" xmlns="http://www.w3.org/2000/svg" xmlns:xlink="http://www.w3.org/1999/xlink">
 <metadata>
  <rdf:RDF xmlns:cc="http://creativecommons.org/ns#" xmlns:dc="http://purl.org/dc/elements/1.1/" xmlns:rdf="http://www.w3.org/1999/02/22-rdf-syntax-ns#">
   <cc:Work>
    <dc:type rdf:resource="http://purl.org/dc/dcmitype/StillImage"/>
    <dc:date>2022-02-26T04:25:43.345216</dc:date>
    <dc:format>image/svg+xml</dc:format>
    <dc:creator>
     <cc:Agent>
      <dc:title>Matplotlib v3.4.3, https://matplotlib.org/</dc:title>
     </cc:Agent>
    </dc:creator>
   </cc:Work>
  </rdf:RDF>
 </metadata>
 <defs>
  <style type="text/css">*{stroke-linecap:butt;stroke-linejoin:round;}</style>
 </defs>
 <g id="figure_1">
  <g id="patch_1">
   <path d="M 0 576 
L 576 576 
L 576 0 
L 0 0 
z
" style="fill:#ffffff;"/>
  </g>
  <g id="patch_2">
   <path d="M 23.4 565.2 
L 552.6 565.2 
L 552.6 36 
L 23.4 36 
z
" style="fill:#ffffff;"/>
  </g>
  <g id="pane3d_1">
   <g id="patch_3">
    <path d="M 63.358249 434.71624 
L 238.117372 288.229677 
L 235.688053 76.969868 
L 52.565805 210.604144 
" style="fill:#f2f2f2;opacity:0.5;stroke:#f2f2f2;stroke-linejoin:miter;"/>
   </g>
  </g>
  <g id="pane3d_2">
   <g id="patch_4">
    <path d="M 238.117372 288.229677 
L 518.54341 369.738455 
L 528.550827 151.202044 
L 235.688053 76.969868 
" style="fill:#e6e6e6;opacity:0.5;stroke:#e6e6e6;stroke-linejoin:miter;"/>
   </g>
  </g>
  <g id="pane3d_3">
   <g id="patch_5">
    <path d="M 63.358249 434.71624 
L 360.623546 531.803085 
L 518.54341 369.738455 
L 238.117372 288.229677 
" style="fill:#ececec;opacity:0.5;stroke:#ececec;stroke-linejoin:miter;"/>
   </g>
  </g>
  <g id="axis3d_1">
   <g id="line2d_1">
    <path d="M 63.358249 434.71624 
L 360.623546 531.803085 
" style="fill:none;stroke:#000000;stroke-linecap:square;stroke-width:0.8;"/>
   </g>
   <g id="text_1">
    <!-- x (m) -->
    <g transform="translate(178.329241 515.594496)rotate(-341.912962)scale(0.1 -0.1)">
     <defs>
      <path d="M 3513 3500 
L 2247 1797 
L 3578 0 
L 2900 0 
L 1881 1375 
L 863 0 
L 184 0 
L 1544 1831 
L 300 3500 
L 978 3500 
L 1906 2253 
L 2834 3500 
L 3513 3500 
z
" id="DejaVuSans-78" transform="scale(0.015625)"/>
      <path id="DejaVuSans-20" transform="scale(0.015625)"/>
      <path d="M 1984 4856 
Q 1566 4138 1362 3434 
Q 1159 2731 1159 2009 
Q 1159 1288 1364 580 
Q 1569 -128 1984 -844 
L 1484 -844 
Q 1016 -109 783 600 
Q 550 1309 550 2009 
Q 550 2706 781 3412 
Q 1013 4119 1484 4856 
L 1984 4856 
z
" id="DejaVuSans-28" transform="scale(0.015625)"/>
      <path d="M 3328 2828 
Q 3544 3216 3844 3400 
Q 4144 3584 4550 3584 
Q 5097 3584 5394 3201 
Q 5691 2819 5691 2113 
L 5691 0 
L 5113 0 
L 5113 2094 
Q 5113 2597 4934 2840 
Q 4756 3084 4391 3084 
Q 3944 3084 3684 2787 
Q 3425 2491 3425 1978 
L 3425 0 
L 2847 0 
L 2847 2094 
Q 2847 2600 2669 2842 
Q 2491 3084 2119 3084 
Q 1678 3084 1418 2786 
Q 1159 2488 1159 1978 
L 1159 0 
L 581 0 
L 581 3500 
L 1159 3500 
L 1159 2956 
Q 1356 3278 1631 3431 
Q 1906 3584 2284 3584 
Q 2666 3584 2933 3390 
Q 3200 3197 3328 2828 
z
" id="DejaVuSans-6d" transform="scale(0.015625)"/>
      <path d="M 513 4856 
L 1013 4856 
Q 1481 4119 1714 3412 
Q 1947 2706 1947 2009 
Q 1947 1309 1714 600 
Q 1481 -109 1013 -844 
L 513 -844 
Q 928 -128 1133 580 
Q 1338 1288 1338 2009 
Q 1338 2731 1133 3434 
Q 928 4138 513 4856 
z
" id="DejaVuSans-29" transform="scale(0.015625)"/>
     </defs>
     <use xlink:href="#DejaVuSans-78"/>
     <use x="59.179688" xlink:href="#DejaVuSans-20"/>
     <use x="90.966797" xlink:href="#DejaVuSans-28"/>
     <use x="129.980469" xlink:href="#DejaVuSans-6d"/>
     <use x="227.392578" xlink:href="#DejaVuSans-29"/>
    </g>
   </g>
   <g id="Line3DCollection_1">
    <path d="M 114.103577 451.289663 
L 286.163644 302.194832 
L 285.777432 89.666066 
" style="fill:none;stroke:#b0b0b0;stroke-width:0.8;"/>
    <path d="M 160.407865 466.412644 
L 329.941846 314.919427 
L 331.448785 101.242422 
" style="fill:none;stroke:#b0b0b0;stroke-width:0.8;"/>
    <path d="M 207.492711 481.790554 
L 374.396274 327.840574 
L 377.856411 113.005403 
" style="fill:none;stroke:#b0b0b0;stroke-width:0.8;"/>
    <path d="M 255.378021 497.429896 
L 419.542719 340.962863 
L 425.018258 124.959556 
" style="fill:none;stroke:#b0b0b0;stroke-width:0.8;"/>
    <path d="M 304.08438 513.337393 
L 465.397465 354.291027 
L 472.952863 137.109581 
" style="fill:none;stroke:#b0b0b0;stroke-width:0.8;"/>
    <path d="M 353.633089 529.520001 
L 511.977313 367.82995 
L 521.679376 149.460332 
" style="fill:none;stroke:#b0b0b0;stroke-width:0.8;"/>
   </g>
   <g id="xtick_1">
    <g id="line2d_2">
     <path d="M 115.602589 449.990727 
L 111.09908 453.893143 
" style="fill:none;stroke:#000000;stroke-linecap:square;stroke-width:0.8;"/>
    </g>
    <g id="text_2">
     <!-- −0.04 -->
     <g transform="translate(91.282449 474.683307)scale(0.1 -0.1)">
      <defs>
       <path d="M 678 2272 
L 4684 2272 
L 4684 1741 
L 678 1741 
L 678 2272 
z
" id="DejaVuSans-2212" transform="scale(0.015625)"/>
       <path d="M 2034 4250 
Q 1547 4250 1301 3770 
Q 1056 3291 1056 2328 
Q 1056 1369 1301 889 
Q 1547 409 2034 409 
Q 2525 409 2770 889 
Q 3016 1369 3016 2328 
Q 3016 3291 2770 3770 
Q 2525 4250 2034 4250 
z
M 2034 4750 
Q 2819 4750 3233 4129 
Q 3647 3509 3647 2328 
Q 3647 1150 3233 529 
Q 2819 -91 2034 -91 
Q 1250 -91 836 529 
Q 422 1150 422 2328 
Q 422 3509 836 4129 
Q 1250 4750 2034 4750 
z
" id="DejaVuSans-30" transform="scale(0.015625)"/>
       <path d="M 684 794 
L 1344 794 
L 1344 0 
L 684 0 
L 684 794 
z
" id="DejaVuSans-2e" transform="scale(0.015625)"/>
       <path d="M 2419 4116 
L 825 1625 
L 2419 1625 
L 2419 4116 
z
M 2253 4666 
L 3047 4666 
L 3047 1625 
L 3713 1625 
L 3713 1100 
L 3047 1100 
L 3047 0 
L 2419 0 
L 2419 1100 
L 313 1100 
L 313 1709 
L 2253 4666 
z
" id="DejaVuSans-34" transform="scale(0.015625)"/>
      </defs>
      <use xlink:href="#DejaVuSans-2212"/>
      <use x="83.789062" xlink:href="#DejaVuSans-30"/>
      <use x="147.412109" xlink:href="#DejaVuSans-2e"/>
      <use x="179.199219" xlink:href="#DejaVuSans-30"/>
      <use x="242.822266" xlink:href="#DejaVuSans-34"/>
     </g>
    </g>
   </g>
   <g id="xtick_2">
    <g id="line2d_3">
     <path d="M 161.885879 465.091911 
L 157.445404 469.059858 
" style="fill:none;stroke:#000000;stroke-linecap:square;stroke-width:0.8;"/>
    </g>
    <g id="text_3">
     <!-- −0.03 -->
     <g transform="translate(137.611583 489.967178)scale(0.1 -0.1)">
      <defs>
       <path d="M 2597 2516 
Q 3050 2419 3304 2112 
Q 3559 1806 3559 1356 
Q 3559 666 3084 287 
Q 2609 -91 1734 -91 
Q 1441 -91 1130 -33 
Q 819 25 488 141 
L 488 750 
Q 750 597 1062 519 
Q 1375 441 1716 441 
Q 2309 441 2620 675 
Q 2931 909 2931 1356 
Q 2931 1769 2642 2001 
Q 2353 2234 1838 2234 
L 1294 2234 
L 1294 2753 
L 1863 2753 
Q 2328 2753 2575 2939 
Q 2822 3125 2822 3475 
Q 2822 3834 2567 4026 
Q 2313 4219 1838 4219 
Q 1578 4219 1281 4162 
Q 984 4106 628 3988 
L 628 4550 
Q 988 4650 1302 4700 
Q 1616 4750 1894 4750 
Q 2613 4750 3031 4423 
Q 3450 4097 3450 3541 
Q 3450 3153 3228 2886 
Q 3006 2619 2597 2516 
z
" id="DejaVuSans-33" transform="scale(0.015625)"/>
      </defs>
      <use xlink:href="#DejaVuSans-2212"/>
      <use x="83.789062" xlink:href="#DejaVuSans-30"/>
      <use x="147.412109" xlink:href="#DejaVuSans-2e"/>
      <use x="179.199219" xlink:href="#DejaVuSans-30"/>
      <use x="242.822266" xlink:href="#DejaVuSans-33"/>
     </g>
    </g>
   </g>
   <g id="xtick_3">
    <g id="line2d_4">
     <path d="M 208.948802 480.447472 
L 204.574138 484.482614 
" style="fill:none;stroke:#000000;stroke-linecap:square;stroke-width:0.8;"/>
    </g>
    <g id="text_4">
     <!-- −0.02 -->
     <g transform="translate(184.723184 505.509183)scale(0.1 -0.1)">
      <defs>
       <path d="M 1228 531 
L 3431 531 
L 3431 0 
L 469 0 
L 469 531 
Q 828 903 1448 1529 
Q 2069 2156 2228 2338 
Q 2531 2678 2651 2914 
Q 2772 3150 2772 3378 
Q 2772 3750 2511 3984 
Q 2250 4219 1831 4219 
Q 1534 4219 1204 4116 
Q 875 4013 500 3803 
L 500 4441 
Q 881 4594 1212 4672 
Q 1544 4750 1819 4750 
Q 2544 4750 2975 4387 
Q 3406 4025 3406 3419 
Q 3406 3131 3298 2873 
Q 3191 2616 2906 2266 
Q 2828 2175 2409 1742 
Q 1991 1309 1228 531 
z
" id="DejaVuSans-32" transform="scale(0.015625)"/>
      </defs>
      <use xlink:href="#DejaVuSans-2212"/>
      <use x="83.789062" xlink:href="#DejaVuSans-30"/>
      <use x="147.412109" xlink:href="#DejaVuSans-2e"/>
      <use x="179.199219" xlink:href="#DejaVuSans-30"/>
      <use x="242.822266" xlink:href="#DejaVuSans-32"/>
     </g>
    </g>
   </g>
   <g id="xtick_4">
    <g id="line2d_5">
     <path d="M 256.811227 496.063893 
L 252.505263 500.167951 
" style="fill:none;stroke:#000000;stroke-linecap:square;stroke-width:0.8;"/>
    </g>
    <g id="text_5">
     <!-- −0.01 -->
     <g transform="translate(232.637245 521.315918)scale(0.1 -0.1)">
      <defs>
       <path d="M 794 531 
L 1825 531 
L 1825 4091 
L 703 3866 
L 703 4441 
L 1819 4666 
L 2450 4666 
L 2450 531 
L 3481 531 
L 3481 0 
L 794 0 
L 794 531 
z
" id="DejaVuSans-31" transform="scale(0.015625)"/>
      </defs>
      <use xlink:href="#DejaVuSans-2212"/>
      <use x="83.789062" xlink:href="#DejaVuSans-30"/>
      <use x="147.412109" xlink:href="#DejaVuSans-2e"/>
      <use x="179.199219" xlink:href="#DejaVuSans-30"/>
      <use x="242.822266" xlink:href="#DejaVuSans-31"/>
     </g>
    </g>
   </g>
   <g id="xtick_5">
    <g id="line2d_6">
     <path d="M 305.4937 511.947876 
L 301.259447 516.122631 
" style="fill:none;stroke:#000000;stroke-linecap:square;stroke-width:0.8;"/>
    </g>
    <g id="text_6">
     <!-- 0.00 -->
     <g transform="translate(285.564287 537.394203)scale(0.1 -0.1)">
      <use xlink:href="#DejaVuSans-30"/>
      <use x="63.623047" xlink:href="#DejaVuSans-2e"/>
      <use x="95.410156" xlink:href="#DejaVuSans-30"/>
      <use x="159.033203" xlink:href="#DejaVuSans-30"/>
     </g>
    </g>
   </g>
   <g id="xtick_6">
    <g id="line2d_7">
     <path d="M 355.017479 528.106359 
L 350.858073 532.353653 
" style="fill:none;stroke:#000000;stroke-linecap:square;stroke-width:0.8;"/>
    </g>
    <g id="text_7">
     <!-- 0.01 -->
     <g transform="translate(335.146019 553.751099)scale(0.1 -0.1)">
      <use xlink:href="#DejaVuSans-30"/>
      <use x="63.623047" xlink:href="#DejaVuSans-2e"/>
      <use x="95.410156" xlink:href="#DejaVuSans-30"/>
      <use x="159.033203" xlink:href="#DejaVuSans-31"/>
     </g>
    </g>
   </g>
  </g>
  <g id="axis3d_2">
   <g id="line2d_8">
    <path d="M 518.54341 369.738455 
L 360.623546 531.803085 
" style="fill:none;stroke:#000000;stroke-linecap:square;stroke-width:0.8;"/>
   </g>
   <g id="text_8">
    <!-- y (m) -->
    <g transform="translate(462.753334 486.601399)rotate(-45.742112)scale(0.1 -0.1)">
     <defs>
      <path d="M 2059 -325 
Q 1816 -950 1584 -1140 
Q 1353 -1331 966 -1331 
L 506 -1331 
L 506 -850 
L 844 -850 
Q 1081 -850 1212 -737 
Q 1344 -625 1503 -206 
L 1606 56 
L 191 3500 
L 800 3500 
L 1894 763 
L 2988 3500 
L 3597 3500 
L 2059 -325 
z
" id="DejaVuSans-79" transform="scale(0.015625)"/>
     </defs>
     <use xlink:href="#DejaVuSans-79"/>
     <use x="59.179688" xlink:href="#DejaVuSans-20"/>
     <use x="90.966797" xlink:href="#DejaVuSans-28"/>
     <use x="129.980469" xlink:href="#DejaVuSans-6d"/>
     <use x="227.392578" xlink:href="#DejaVuSans-29"/>
    </g>
   </g>
   <g id="Line3DCollection_2">
    <path d="M 66.188323 200.663051 
L 76.313013 423.8573 
L 372.377972 519.740153 
" style="fill:none;stroke:#b0b0b0;stroke-width:0.8;"/>
    <path d="M 87.96935 184.76825 
L 97.041557 406.482223 
L 391.169862 500.45505 
" style="fill:none;stroke:#b0b0b0;stroke-width:0.8;"/>
    <path d="M 109.310651 169.19434 
L 117.369772 389.44271 
L 409.579695 481.562033 
" style="fill:none;stroke:#b0b0b0;stroke-width:0.8;"/>
    <path d="M 130.225411 153.931701 
L 137.309143 372.729134 
L 427.619003 463.049265 
" style="fill:none;stroke:#b0b0b0;stroke-width:0.8;"/>
    <path d="M 150.726289 138.971094 
L 156.870723 356.33223 
L 445.298861 444.905381 
" style="fill:none;stroke:#b0b0b0;stroke-width:0.8;"/>
    <path d="M 170.825452 124.30364 
L 176.065146 340.243084 
L 462.629907 427.119465 
" style="fill:none;stroke:#b0b0b0;stroke-width:0.8;"/>
    <path d="M 190.534591 109.920808 
L 194.902655 324.453111 
L 479.622363 409.681024 
" style="fill:none;stroke:#b0b0b0;stroke-width:0.8;"/>
    <path d="M 209.864951 95.814392 
L 213.393112 308.954043 
L 496.286055 392.579977 
" style="fill:none;stroke:#b0b0b0;stroke-width:0.8;"/>
    <path d="M 228.827347 81.976499 
L 231.54602 293.737915 
L 512.630433 375.806624 
" style="fill:none;stroke:#b0b0b0;stroke-width:0.8;"/>
   </g>
   <g id="xtick_7">
    <g id="line2d_9">
     <path d="M 369.88308 518.932164 
L 377.374203 521.35822 
" style="fill:none;stroke:#000000;stroke-linecap:square;stroke-width:0.8;"/>
    </g>
    <g id="text_9">
     <!-- −0.030 -->
     <g transform="translate(366.745292 540.751564)scale(0.1 -0.1)">
      <use xlink:href="#DejaVuSans-2212"/>
      <use x="83.789062" xlink:href="#DejaVuSans-30"/>
      <use x="147.412109" xlink:href="#DejaVuSans-2e"/>
      <use x="179.199219" xlink:href="#DejaVuSans-30"/>
      <use x="242.822266" xlink:href="#DejaVuSans-33"/>
      <use x="306.445312" xlink:href="#DejaVuSans-30"/>
     </g>
    </g>
   </g>
   <g id="xtick_8">
    <g id="line2d_10">
     <path d="M 388.69258 499.663568 
L 396.130765 502.040039 
" style="fill:none;stroke:#000000;stroke-linecap:square;stroke-width:0.8;"/>
    </g>
    <g id="text_10">
     <!-- −0.025 -->
     <g transform="translate(385.410553 521.322928)scale(0.1 -0.1)">
      <defs>
       <path d="M 691 4666 
L 3169 4666 
L 3169 4134 
L 1269 4134 
L 1269 2991 
Q 1406 3038 1543 3061 
Q 1681 3084 1819 3084 
Q 2600 3084 3056 2656 
Q 3513 2228 3513 1497 
Q 3513 744 3044 326 
Q 2575 -91 1722 -91 
Q 1428 -91 1123 -41 
Q 819 9 494 109 
L 494 744 
Q 775 591 1075 516 
Q 1375 441 1709 441 
Q 2250 441 2565 725 
Q 2881 1009 2881 1497 
Q 2881 1984 2565 2268 
Q 2250 2553 1709 2553 
Q 1456 2553 1204 2497 
Q 953 2441 691 2322 
L 691 4666 
z
" id="DejaVuSans-35" transform="scale(0.015625)"/>
      </defs>
      <use xlink:href="#DejaVuSans-2212"/>
      <use x="83.789062" xlink:href="#DejaVuSans-30"/>
      <use x="147.412109" xlink:href="#DejaVuSans-2e"/>
      <use x="179.199219" xlink:href="#DejaVuSans-30"/>
      <use x="242.822266" xlink:href="#DejaVuSans-32"/>
      <use x="306.445312" xlink:href="#DejaVuSans-35"/>
     </g>
    </g>
   </g>
   <g id="xtick_9">
    <g id="line2d_11">
     <path d="M 407.119824 480.786558 
L 414.505665 483.114948 
" style="fill:none;stroke:#000000;stroke-linecap:square;stroke-width:0.8;"/>
    </g>
    <g id="text_11">
     <!-- −0.020 -->
     <g transform="translate(403.696218 502.289412)scale(0.1 -0.1)">
      <use xlink:href="#DejaVuSans-2212"/>
      <use x="83.789062" xlink:href="#DejaVuSans-30"/>
      <use x="147.412109" xlink:href="#DejaVuSans-2e"/>
      <use x="179.199219" xlink:href="#DejaVuSans-30"/>
      <use x="242.822266" xlink:href="#DejaVuSans-32"/>
      <use x="306.445312" xlink:href="#DejaVuSans-30"/>
     </g>
    </g>
   </g>
   <g id="xtick_10">
    <g id="line2d_12">
     <path d="M 425.176348 462.289316 
L 432.510435 464.57107 
" style="fill:none;stroke:#000000;stroke-linecap:square;stroke-width:0.8;"/>
    </g>
    <g id="text_12">
     <!-- −0.015 -->
     <g transform="translate(421.61375 483.639084)scale(0.1 -0.1)">
      <use xlink:href="#DejaVuSans-2212"/>
      <use x="83.789062" xlink:href="#DejaVuSans-30"/>
      <use x="147.412109" xlink:href="#DejaVuSans-2e"/>
      <use x="179.199219" xlink:href="#DejaVuSans-30"/>
      <use x="242.822266" xlink:href="#DejaVuSans-31"/>
      <use x="306.445312" xlink:href="#DejaVuSans-35"/>
     </g>
    </g>
   </g>
   <g id="xtick_11">
    <g id="line2d_13">
     <path d="M 442.873228 444.160496 
L 450.156147 446.397001 
" style="fill:none;stroke:#000000;stroke-linecap:square;stroke-width:0.8;"/>
    </g>
    <g id="text_13">
     <!-- −0.010 -->
     <g transform="translate(439.174157 465.360489)scale(0.1 -0.1)">
      <use xlink:href="#DejaVuSans-2212"/>
      <use x="83.789062" xlink:href="#DejaVuSans-30"/>
      <use x="147.412109" xlink:href="#DejaVuSans-2e"/>
      <use x="179.199219" xlink:href="#DejaVuSans-30"/>
      <use x="242.822266" xlink:href="#DejaVuSans-31"/>
      <use x="306.445312" xlink:href="#DejaVuSans-30"/>
     </g>
    </g>
   </g>
   <g id="xtick_12">
    <g id="line2d_14">
     <path d="M 460.221103 426.3892 
L 467.453434 428.581789 
" style="fill:none;stroke:#000000;stroke-linecap:square;stroke-width:0.8;"/>
    </g>
    <g id="text_14">
     <!-- −0.005 -->
     <g transform="translate(456.388008 447.442622)scale(0.1 -0.1)">
      <use xlink:href="#DejaVuSans-2212"/>
      <use x="83.789062" xlink:href="#DejaVuSans-30"/>
      <use x="147.412109" xlink:href="#DejaVuSans-2e"/>
      <use x="179.199219" xlink:href="#DejaVuSans-30"/>
      <use x="242.822266" xlink:href="#DejaVuSans-30"/>
      <use x="306.445312" xlink:href="#DejaVuSans-35"/>
     </g>
    </g>
   </g>
   <g id="xtick_13">
    <g id="line2d_15">
     <path d="M 477.230197 408.964954 
L 484.412518 411.114908 
" style="fill:none;stroke:#000000;stroke-linecap:square;stroke-width:0.8;"/>
    </g>
    <g id="text_15">
     <!-- 0.000 -->
     <g transform="translate(477.455308 429.874908)scale(0.1 -0.1)">
      <use xlink:href="#DejaVuSans-30"/>
      <use x="63.623047" xlink:href="#DejaVuSans-2e"/>
      <use x="95.410156" xlink:href="#DejaVuSans-30"/>
      <use x="159.033203" xlink:href="#DejaVuSans-30"/>
      <use x="222.65625" xlink:href="#DejaVuSans-30"/>
     </g>
    </g>
   </g>
   <g id="xtick_14">
    <g id="line2d_16">
     <path d="M 493.910336 391.877691 
L 501.043219 393.986241 
" style="fill:none;stroke:#000000;stroke-linecap:square;stroke-width:0.8;"/>
    </g>
    <g id="text_16">
     <!-- 0.005 -->
     <g transform="translate(494.006133 412.647184)scale(0.1 -0.1)">
      <use xlink:href="#DejaVuSans-30"/>
      <use x="63.623047" xlink:href="#DejaVuSans-2e"/>
      <use x="95.410156" xlink:href="#DejaVuSans-30"/>
      <use x="159.033203" xlink:href="#DejaVuSans-30"/>
      <use x="222.65625" xlink:href="#DejaVuSans-35"/>
     </g>
    </g>
   </g>
   <g id="xtick_15">
    <g id="line2d_17">
     <path d="M 510.270973 375.117729 
L 517.354985 377.18606 
" style="fill:none;stroke:#000000;stroke-linecap:square;stroke-width:0.8;"/>
    </g>
    <g id="text_17">
     <!-- 0.010 -->
     <g transform="translate(510.239719 395.749673)scale(0.1 -0.1)">
      <use xlink:href="#DejaVuSans-30"/>
      <use x="63.623047" xlink:href="#DejaVuSans-2e"/>
      <use x="95.410156" xlink:href="#DejaVuSans-30"/>
      <use x="159.033203" xlink:href="#DejaVuSans-31"/>
      <use x="222.65625" xlink:href="#DejaVuSans-30"/>
     </g>
    </g>
   </g>
  </g>
  <g id="axis3d_3">
   <g id="line2d_18">
    <path d="M 518.54341 369.738455 
L 528.550827 151.202044 
" style="fill:none;stroke:#000000;stroke-linecap:square;stroke-width:0.8;"/>
   </g>
   <g id="text_18">
    <!-- z (m) -->
    <g transform="translate(566.10943 270.534657)rotate(-87.378092)scale(0.1 -0.1)">
     <defs>
      <path d="M 353 3500 
L 3084 3500 
L 3084 2975 
L 922 459 
L 3084 459 
L 3084 0 
L 275 0 
L 275 525 
L 2438 3041 
L 353 3041 
L 353 3500 
z
" id="DejaVuSans-7a" transform="scale(0.015625)"/>
     </defs>
     <use xlink:href="#DejaVuSans-7a"/>
     <use x="52.490234" xlink:href="#DejaVuSans-20"/>
     <use x="84.277344" xlink:href="#DejaVuSans-28"/>
     <use x="123.291016" xlink:href="#DejaVuSans-6d"/>
     <use x="220.703125" xlink:href="#DejaVuSans-29"/>
    </g>
   </g>
   <g id="Line3DCollection_3">
    <path d="M 519.467145 349.566456 
L 237.892704 268.691946 
L 62.363577 414.061215 
" style="fill:none;stroke:#b0b0b0;stroke-width:0.8;"/>
    <path d="M 520.73927 321.786483 
L 237.583444 241.797929 
L 60.993251 385.605523 
" style="fill:none;stroke:#b0b0b0;stroke-width:0.8;"/>
    <path d="M 522.025907 293.689625 
L 237.270826 214.61182 
L 59.606698 356.812834 
" style="fill:none;stroke:#b0b0b0;stroke-width:0.8;"/>
    <path d="M 523.327304 265.270429 
L 236.954793 187.128835 
L 58.203625 327.677125 
" style="fill:none;stroke:#b0b0b0;stroke-width:0.8;"/>
    <path d="M 524.643718 236.523315 
L 236.635291 159.344083 
L 56.783737 298.192229 
" style="fill:none;stroke:#b0b0b0;stroke-width:0.8;"/>
    <path d="M 525.97541 207.442576 
L 236.312261 131.252567 
L 55.346729 268.351832 
" style="fill:none;stroke:#b0b0b0;stroke-width:0.8;"/>
    <path d="M 527.322646 178.022369 
L 235.985645 102.849178 
L 53.89229 238.149465 
" style="fill:none;stroke:#b0b0b0;stroke-width:0.8;"/>
   </g>
   <g id="xtick_16">
    <g id="line2d_19">
     <path d="M 517.103502 348.887565 
L 524.200074 350.92586 
" style="fill:none;stroke:#000000;stroke-linecap:square;stroke-width:0.8;"/>
    </g>
    <g id="text_19">
     <!-- 0.85 -->
     <g transform="translate(526.684269 354.57582)scale(0.1 -0.1)">
      <defs>
       <path d="M 2034 2216 
Q 1584 2216 1326 1975 
Q 1069 1734 1069 1313 
Q 1069 891 1326 650 
Q 1584 409 2034 409 
Q 2484 409 2743 651 
Q 3003 894 3003 1313 
Q 3003 1734 2745 1975 
Q 2488 2216 2034 2216 
z
M 1403 2484 
Q 997 2584 770 2862 
Q 544 3141 544 3541 
Q 544 4100 942 4425 
Q 1341 4750 2034 4750 
Q 2731 4750 3128 4425 
Q 3525 4100 3525 3541 
Q 3525 3141 3298 2862 
Q 3072 2584 2669 2484 
Q 3125 2378 3379 2068 
Q 3634 1759 3634 1313 
Q 3634 634 3220 271 
Q 2806 -91 2034 -91 
Q 1263 -91 848 271 
Q 434 634 434 1313 
Q 434 1759 690 2068 
Q 947 2378 1403 2484 
z
M 1172 3481 
Q 1172 3119 1398 2916 
Q 1625 2713 2034 2713 
Q 2441 2713 2670 2916 
Q 2900 3119 2900 3481 
Q 2900 3844 2670 4047 
Q 2441 4250 2034 4250 
Q 1625 4250 1398 4047 
Q 1172 3844 1172 3481 
z
" id="DejaVuSans-38" transform="scale(0.015625)"/>
      </defs>
      <use xlink:href="#DejaVuSans-30"/>
      <use x="63.623047" xlink:href="#DejaVuSans-2e"/>
      <use x="95.410156" xlink:href="#DejaVuSans-38"/>
      <use x="159.033203" xlink:href="#DejaVuSans-35"/>
     </g>
    </g>
   </g>
   <g id="xtick_17">
    <g id="line2d_20">
     <path d="M 518.36172 321.11485 
L 525.500081 323.131362 
" style="fill:none;stroke:#000000;stroke-linecap:square;stroke-width:0.8;"/>
    </g>
    <g id="text_20">
     <!-- 0.90 -->
     <g transform="translate(528.058361 326.823544)scale(0.1 -0.1)">
      <defs>
       <path d="M 703 97 
L 703 672 
Q 941 559 1184 500 
Q 1428 441 1663 441 
Q 2288 441 2617 861 
Q 2947 1281 2994 2138 
Q 2813 1869 2534 1725 
Q 2256 1581 1919 1581 
Q 1219 1581 811 2004 
Q 403 2428 403 3163 
Q 403 3881 828 4315 
Q 1253 4750 1959 4750 
Q 2769 4750 3195 4129 
Q 3622 3509 3622 2328 
Q 3622 1225 3098 567 
Q 2575 -91 1691 -91 
Q 1453 -91 1209 -44 
Q 966 3 703 97 
z
M 1959 2075 
Q 2384 2075 2632 2365 
Q 2881 2656 2881 3163 
Q 2881 3666 2632 3958 
Q 2384 4250 1959 4250 
Q 1534 4250 1286 3958 
Q 1038 3666 1038 3163 
Q 1038 2656 1286 2365 
Q 1534 2075 1959 2075 
z
" id="DejaVuSans-39" transform="scale(0.015625)"/>
      </defs>
      <use xlink:href="#DejaVuSans-30"/>
      <use x="63.623047" xlink:href="#DejaVuSans-2e"/>
      <use x="95.410156" xlink:href="#DejaVuSans-39"/>
      <use x="159.033203" xlink:href="#DejaVuSans-30"/>
     </g>
    </g>
   </g>
   <g id="xtick_18">
    <g id="line2d_21">
     <path d="M 519.634285 293.02546 
L 526.814928 295.019558 
" style="fill:none;stroke:#000000;stroke-linecap:square;stroke-width:0.8;"/>
    </g>
    <g id="text_21">
     <!-- 0.95 -->
     <g transform="translate(529.448103 298.755184)scale(0.1 -0.1)">
      <use xlink:href="#DejaVuSans-30"/>
      <use x="63.623047" xlink:href="#DejaVuSans-2e"/>
      <use x="95.410156" xlink:href="#DejaVuSans-39"/>
      <use x="159.033203" xlink:href="#DejaVuSans-35"/>
     </g>
    </g>
   </g>
   <g id="xtick_19">
    <g id="line2d_22">
     <path d="M 520.921443 264.613948 
L 528.144873 266.584984 
" style="fill:none;stroke:#000000;stroke-linecap:square;stroke-width:0.8;"/>
    </g>
    <g id="text_22">
     <!-- 1.00 -->
     <g transform="translate(530.853765 270.365309)scale(0.1 -0.1)">
      <use xlink:href="#DejaVuSans-31"/>
      <use x="63.623047" xlink:href="#DejaVuSans-2e"/>
      <use x="95.410156" xlink:href="#DejaVuSans-30"/>
      <use x="159.033203" xlink:href="#DejaVuSans-30"/>
     </g>
    </g>
   </g>
   <g id="xtick_20">
    <g id="line2d_23">
     <path d="M 522.223447 235.874741 
L 529.490175 237.822047 
" style="fill:none;stroke:#000000;stroke-linecap:square;stroke-width:0.8;"/>
    </g>
    <g id="text_23">
     <!-- 1.05 -->
     <g transform="translate(532.275621 241.648364)scale(0.1 -0.1)">
      <use xlink:href="#DejaVuSans-31"/>
      <use x="63.623047" xlink:href="#DejaVuSans-2e"/>
      <use x="95.410156" xlink:href="#DejaVuSans-30"/>
      <use x="159.033203" xlink:href="#DejaVuSans-35"/>
     </g>
    </g>
   </g>
   <g id="xtick_21">
    <g id="line2d_24">
     <path d="M 523.540555 206.802136 
L 530.851104 208.725028 
" style="fill:none;stroke:#000000;stroke-linecap:square;stroke-width:0.8;"/>
    </g>
    <g id="text_24">
     <!-- 1.10 -->
     <g transform="translate(533.713952 212.598663)scale(0.1 -0.1)">
      <use xlink:href="#DejaVuSans-31"/>
      <use x="63.623047" xlink:href="#DejaVuSans-2e"/>
      <use x="95.410156" xlink:href="#DejaVuSans-31"/>
      <use x="159.033203" xlink:href="#DejaVuSans-30"/>
     </g>
    </g>
   </g>
   <g id="xtick_22">
    <g id="line2d_25">
     <path d="M 524.873032 177.390299 
L 532.227931 179.288071 
" style="fill:none;stroke:#000000;stroke-linecap:square;stroke-width:0.8;"/>
    </g>
    <g id="text_25">
     <!-- 1.15 -->
     <g transform="translate(535.169047 183.210388)scale(0.1 -0.1)">
      <use xlink:href="#DejaVuSans-31"/>
      <use x="63.623047" xlink:href="#DejaVuSans-2e"/>
      <use x="95.410156" xlink:href="#DejaVuSans-31"/>
      <use x="159.033203" xlink:href="#DejaVuSans-35"/>
     </g>
    </g>
   </g>
  </g>
  <g id="axes_1">
   <g id="line2d_26">
    <path clip-path="url(#p3ea36e4319)" d="M 428.445498 288.192172 
L 428.448559 288.078269 
L 428.139198 295.626693 
L 427.764414 298.701419 
L 427.225188 301.156587 
L 426.364391 303.728689 
L 425.570938 305.500473 
L 424.581856 307.319888 
L 423.38049 309.180124 
L 421.958546 311.083711 
L 420.305848 313.026157 
L 418.415615 315.006029 
L 416.280915 317.022631 
L 412.601266 320.111305 
L 408.326661 323.275863 
L 403.436048 326.515155 
L 397.921637 329.82928 
L 391.7883 333.217159 
L 385.04962 336.674945 
L 377.722403 340.197588 
L 369.823119 343.779643 
L 364.123471 346.007512 
L 358.022582 348.002801 
L 351.556331 349.786786 
L 344.797658 351.431074 
L 337.782187 352.928156 
L 326.9114 354.98426 
L 315.772013 356.829001 
L 300.774685 359.043122 
L 285.874152 361.019028 
L 267.716877 363.199747 
L 247.127681 365.425822 
L 228.501232 367.192236 
L 214.893252 368.272238 
L 203.269825 368.968574 
L 195.52448 369.229756 
L 189.25017 369.210846 
L 185.546526 369.00588 
L 182.716264 368.635385 
L 181.316289 368.296329 
L 180.304488 367.884076 
L 179.678691 367.399085 
L 179.436 366.841769 
L 179.572419 366.213012 
L 180.083455 365.513416 
L 180.963364 364.744131 
L 182.205079 363.906622 
L 184.727748 362.52587 
L 188.012282 361.002249 
L 193.509563 358.762349 
L 200.191737 356.303283 
L 210.046349 352.95496 
L 221.360054 349.345129 
L 236.524306 344.739499 
L 255.863843 339.103525 
L 282.314099 331.659055 
L 315.261437 322.643653 
L 360.367377 310.55847 
L 432.915057 291.159773 
L 444.775071 287.760444 
L 448.847814 286.412527 
L 449.836554 285.923446 
L 449.8517 285.813378 
L 449.806995 285.788792 
L 449.397048 285.746779 
L 447.892796 285.865185 
L 443.990891 286.429068 
L 434.07374 288.139833 
L 420.498615 290.45144 
L 418.818426 290.567759 
L 418.829764 290.50536 
L 418.858129 290.484363 
L 419.43245 290.243282 
L 421.948298 289.491517 
L 429.040724 287.645751 
L 444.796965 283.75568 
L 440.79631 284.581795 
L 441.762643 284.300925 
L 435.99039 285.688352 
L 433.734722 286.256264 
L 433.734722 286.256264 
" style="fill:none;stroke:#1f77b4;stroke-linecap:square;stroke-opacity:0.7;stroke-width:1.5;"/>
   </g>
   <g id="line2d_27">
    <path clip-path="url(#p3ea36e4319)" d="M 428.445498 288.192172 
L 428.481171 290.997255 
L 428.716399 291.805611 
L 429.126631 292.468681 
L 429.82129 293.168527 
L 431.015784 294.009905 
L 433.389269 295.33614 
L 439.804841 298.584836 
L 444.056036 300.532925 
L 447.035736 301.666134 
L 449.511087 302.369997 
L 451.222716 302.640782 
L 452.389907 302.609058 
L 453.005797 302.395246 
L 453.308622 302.079176 
L 453.391846 301.6424 
L 453.249659 301.088887 
L 452.798976 300.303619 
L 451.921446 299.237966 
L 450.331087 297.689281 
L 447.61226 295.405257 
L 438.201569 287.765363 
L 437.039347 286.446353 
L 436.383204 285.380091 
L 436.1005 284.534935 
L 436.07307 283.753405 
L 436.296711 283.031894 
L 436.764387 282.363403 
L 437.598711 281.63924 
L 438.889271 280.864675 
L 440.913736 279.932403 
L 449.036903 276.422751 
L 451.105858 275.185437 
L 452.713118 273.945688 
L 453.883636 272.746511 
L 454.680637 271.63258 
L 455.266633 270.440616 
L 455.627583 269.173896 
L 455.755217 267.837415 
L 455.647444 266.437687 
L 455.30861 264.982532 
L 454.749595 263.480845 
L 453.842579 261.68313 
L 452.517557 259.588605 
L 450.748377 257.211937 
L 447.708905 253.55335 
L 444.451717 249.559251 
L 443.169706 247.671231 
L 442.330145 246.086613 
L 441.784024 244.562742 
L 441.560901 243.29946 
L 441.570802 242.069126 
L 441.813403 240.863768 
L 442.276979 239.677984 
L 443.06957 238.322839 
L 444.098498 237.01365 
L 445.515546 235.59635 
L 447.555464 233.911329 
L 451.960619 230.676168 
L 454.556282 228.620765 
L 456.012843 227.2126 
L 456.98373 225.972565 
L 457.540027 224.900931 
L 457.778817 223.994519 
L 457.787594 223.100186 
L 457.56281 222.217981 
L 457.107125 221.347273 
L 456.29599 220.344294 
L 455.208118 219.352471 
L 453.462335 218.088031 
L 450.697004 216.406699 
L 444.428055 212.684538 
L 442.680108 211.346395 
L 441.496763 210.146216 
L 440.796484 209.115775 
L 440.422551 208.138868 
L 440.359223 207.367389 
L 440.527337 206.653766 
L 440.917997 205.981165 
L 441.63546 205.231613 
L 442.760173 204.400159 
L 444.527295 203.386543 
L 446.549346 202.474215 
L 448.449853 201.865295 
L 450.702843 201.418434 
L 454.009002 201.042465 
L 455.470896 200.898634 
L 454.851036 200.858777 
L 452.210551 200.623759 
L 449.865279 200.205365 
L 447.852763 199.621804 
L 446.37163 198.962401 
L 445.419725 198.317778 
L 444.817981 197.668753 
L 444.472172 196.95479 
L 444.39237 196.316151 
L 444.508644 195.683143 
L 444.873722 194.992589 
L 445.45764 194.372116 
L 446.475212 193.639301 
L 448.308241 192.631266 
L 450.877356 191.45725 
L 452.212303 191.062815 
L 453.271209 190.982848 
L 454.052522 191.133856 
L 454.212258 191.344699 
L 454.051666 191.553484 
L 453.455305 191.862848 
L 452.118847 192.265587 
L 450.141808 192.632154 
L 447.608425 192.88758 
L 444.661115 192.95929 
L 441.785993 192.81221 
L 439.188834 192.477205 
L 436.728512 191.935857 
L 434.773411 191.280194 
L 433.322872 190.577962 
L 432.179137 189.770825 
L 431.483388 189.018804 
L 431.077906 188.238801 
L 430.970809 187.586587 
L 431.070802 186.9473 
L 431.367499 186.332757 
L 431.963059 185.639961 
L 432.953253 184.900044 
L 434.413421 184.133492 
L 436.367326 183.390186 
L 438.26706 182.908991 
L 439.970337 182.68706 
L 441.878536 182.676693 
L 443.876036 182.902491 
L 445.608602 183.300242 
L 446.841811 183.775561 
L 447.718631 184.346452 
L 448.151171 184.905583 
L 448.251552 185.413824 
L 448.090781 185.933895 
L 447.664393 186.45066 
L 446.974643 186.948766 
L 445.849877 187.486095 
L 444.176777 188.014455 
L 442.149833 188.421863 
L 439.550382 188.703609 
L 436.754397 188.772474 
L 433.931448 188.613406 
L 431.266134 188.224691 
L 429.182706 187.695691 
L 427.687047 187.104504 
L 426.71298 186.513052 
L 426.152834 185.967143 
L 425.842545 185.379937 
L 425.79279 184.760776 
L 426.003558 184.12733 
L 426.465479 183.507369 
L 427.162396 182.937474 
L 428.072535 182.460042 
L 429.409807 182.038018 
L 431.243752 181.731552 
L 433.909437 181.554735 
L 437.402768 181.569814 
L 440.524216 181.783049 
L 443.052419 182.165068 
L 444.708229 182.634972 
L 445.851251 183.203352 
L 446.582948 183.798467 
L 447.096794 184.491171 
L 447.380537 185.254329 
L 447.428049 186.051709 
L 447.241455 186.854847 
L 446.829593 187.645222 
L 446.057735 188.558601 
L 445.01402 189.420237 
L 443.50798 190.347504 
L 441.501056 191.287661 
L 439.024395 192.167313 
L 436.19631 192.910288 
L 433.490859 193.398451 
L 431.103683 193.605372 
L 429.379404 193.540149 
L 428.29569 193.286296 
L 427.814829 192.984797 
L 427.65612 192.675309 
L 427.727186 192.337031 
L 428.019221 192.00502 
L 428.615767 191.666821 
L 429.699498 191.348216 
L 433.291098 190.465462 
L 434.750229 189.834929 
L 435.615481 189.239576 
L 436.109397 188.650168 
L 436.172091 188.330644 
L 436.160605 188.326339 
L 435.895094 188.381134 
L 434.17931 188.813846 
L 431.514108 189.204662 
L 430.290377 189.497888 
L 430.07395 189.726678 
L 430.090834 190.022164 
L 430.352355 190.426123 
L 430.742079 190.651921 
L 430.980161 190.575791 
L 431.284778 190.044921 
L 431.68733 189.688992 
L 432.318916 189.464683 
L 433.348774 189.383133 
L 434.756978 189.250154 
L 434.827827 189.087993 
L 434.587993 188.84409 
L 433.854622 188.347389 
L 434.15729 188.404088 
L 434.364657 188.299931 
L 434.368073 188.054773 
L 434.078918 187.428119 
L 433.772211 186.607543 
L 433.850662 186.208987 
L 434.143971 185.954424 
L 434.643874 185.83934 
L 435.500141 185.922827 
L 436.043382 185.951077 
L 436.029914 185.911299 
L 435.695464 185.645623 
L 435.402668 185.359919 
L 435.460046 185.345052 
L 435.939305 185.476745 
L 436.416111 185.517606 
L 436.397313 185.370762 
L 435.989334 184.928988 
L 435.14905 184.006187 
L 435.147017 183.732076 
L 435.351971 183.641244 
L 435.83035 183.747604 
L 435.977703 183.767233 
L 435.863481 183.647446 
L 435.200809 182.990605 
L 435.332732 182.921198 
L 435.770954 182.984465 
L 436.739601 183.258422 
L 436.585987 183.112881 
L 436.523657 183.115929 
L 436.370039 183.652211 
L 436.129655 185.492527 
L 435.665642 191.225435 
L 434.321986 210.447927 
L 433.822841 214.296593 
L 433.113809 218.219882 
L 432.125167 222.212081 
L 431.277929 224.91725 
L 430.256327 227.658624 
L 429.042091 230.44056 
L 427.617876 233.266901 
L 425.967279 236.140663 
L 424.075779 239.064865 
L 421.931542 242.0435 
L 419.522443 245.077128 
L 416.838738 248.166634 
L 413.871971 251.311906 
L 410.593544 254.486443 
L 406.932564 257.611645 
L 402.887382 260.686325 
L 398.451538 263.695144 
L 393.631941 266.630009 
L 388.446375 269.487015 
L 382.92082 272.263613 
L 377.084148 274.952016 
L 370.976215 277.5531 
L 364.638224 280.061172 
L 354.801453 283.648199 
L 344.717998 287.033649 
L 334.546712 290.228473 
L 321.097626 294.201592 
L 304.8465 298.772067 
L 278.225739 305.98288 
L 251.895006 313.1817 
L 239.585754 316.778315 
L 233.233035 318.81841 
L 229.041981 320.391034 
L 227.281168 321.300473 
L 226.931644 321.636574 
L 226.932655 321.89259 
L 227.279433 322.068464 
L 228.43458 322.182678 
L 230.330034 322.119068 
L 233.960377 321.765452 
L 240.167657 320.91272 
L 249.849713 319.337657 
L 263.796563 316.836352 
L 282.452101 313.269415 
L 308.363373 308.084217 
L 345.97665 300.31776 
L 399.723062 288.966863 
L 427.407964 283.22267 
L 440.643198 280.682224 
L 442.308636 280.475299 
L 442.21374 280.52142 
L 440.883112 280.882029 
L 434.972171 282.214876 
L 423.787014 284.517257 
L 413.093746 286.501462 
L 405.763796 287.645128 
L 401.257202 288.137527 
L 398.946374 288.19066 
L 397.998858 288.041245 
L 397.676917 287.80862 
L 397.691582 287.569124 
L 398.050115 287.165507 
L 399.030529 286.531675 
L 400.948376 285.596303 
L 404.638338 284.093003 
L 410.741873 281.895615 
L 420.350698 278.706975 
L 444.27847 270.868243 
L 449.849534 268.777424 
L 453.358427 267.253148 
L 455.693416 266.025175 
L 457.121076 265.060805 
L 458.054137 264.152025 
L 458.437938 263.464716 
L 458.514869 262.971358 
L 458.413806 262.495591 
L 458.009602 261.886343 
L 457.309791 261.302418 
L 456.044475 260.603372 
L 454.003447 259.801869 
L 450.997953 258.904928 
L 446.360926 257.785249 
L 428.444321 253.707262 
L 425.067445 252.643819 
L 422.653188 251.672829 
L 421.039024 250.819681 
L 419.815508 249.925427 
L 419.127245 249.18006 
L 418.700784 248.408569 
L 418.537318 247.611576 
L 418.635833 246.789946 
L 418.991948 245.944776 
L 419.596902 245.077228 
L 420.682505 243.966803 
L 422.103385 242.840783 
L 424.199702 241.49932 
L 426.659061 240.203026 
L 429.889503 238.75093 
L 434.93546 236.762499 
L 452.965516 229.933522 
L 454.936478 228.862143 
L 455.880338 228.129971 
L 456.297245 227.564102 
L 456.383598 227.138418 
L 456.249505 226.734838 
L 455.897047 226.351341 
L 455.156813 225.896789 
L 453.849555 225.381331 
L 451.459998 224.729966 
L 447.613923 223.940584 
L 433.286897 221.17145 
L 430.064949 220.268986 
L 427.752405 219.394264 
L 426.237611 218.57963 
L 425.336634 217.854803 
L 424.774451 217.089808 
L 424.570045 216.453115 
L 424.581727 215.805219 
L 424.80398 215.16253 
L 425.227434 214.539534 
L 426.018984 213.799978 
L 427.313094 212.95367 
L 429.224962 211.999258 
L 432.169651 210.80502 
L 436.977983 209.127132 
L 441.121044 207.86689 
L 444.287299 207.14238 
L 448.15227 206.525206 
L 452.010821 205.891221 
L 452.00738 205.82677 
L 451.947231 205.795434 
L 451.320936 205.669722 
L 448.076089 205.334009 
L 440.275353 204.482338 
L 435.135471 203.708609 
L 431.456916 202.954468 
L 428.998701 202.250202 
L 427.410614 201.567992 
L 426.653396 201.029415 
L 426.321079 200.566178 
L 426.26006 200.093352 
L 426.465349 199.619551 
L 426.92862 199.160043 
L 427.803956 198.655297 
L 429.211655 198.159927 
L 431.500646 197.651318 
L 435.385653 197.051814 
L 440.577774 196.447488 
L 442.987453 196.36465 
L 444.97733 196.528383 
L 446.69505 196.899237 
L 447.524249 197.264795 
L 447.577979 197.442494 
L 447.346397 197.541703 
L 446.575807 197.579761 
L 445.08365 197.422074 
L 442.86083 196.950584 
L 440.763771 196.291667 
L 439.123267 195.548811 
L 438.138452 194.885985 
L 437.591665 194.295269 
L 437.384305 193.802761 
L 437.431325 193.352731 
L 437.717166 192.984368 
L 438.209584 192.758481 
L 438.865343 192.718776 
L 439.872232 192.925285 
L 441.598601 193.554909 
L 443.434445 194.437701 
L 444.534484 195.170582 
L 445.07827 195.787986 
L 445.144686 196.132942 
L 444.984076 196.307992 
L 444.573293 196.394023 
L 443.735211 196.31763 
L 442.316066 195.952028 
L 440.418193 195.239243 
L 438.378862 194.25115 
L 436.621971 193.164418 
L 435.431962 192.185849 
L 434.758576 191.38508 
L 434.424684 190.685752 
L 434.350729 190.095646 
L 434.481257 189.526891 
L 434.815899 189.001344 
L 435.347403 188.546633 
L 436.196746 188.142579 
L 437.260002 187.897914 
L 438.875473 187.772435 
L 441.735258 187.808568 
L 445.028996 188.053906 
L 446.800396 188.368653 
L 447.935019 188.785613 
L 448.76061 189.328564 
L 449.236378 189.908296 
L 449.34416 190.334666 
L 449.227821 190.740809 
L 448.882121 191.116617 
L 448.18809 191.502931 
L 447.021346 191.855757 
L 445.483479 192.089231 
L 443.371443 192.176165 
L 440.955659 192.044849 
L 438.372497 191.670691 
L 436.064361 191.125574 
L 433.870584 190.388247 
L 432.141086 189.600836 
L 430.671766 188.701376 
L 429.674871 187.85975 
L 428.96357 186.970145 
L 428.613215 186.204376 
L 428.497191 185.427534 
L 428.620374 184.649862 
L 428.979256 183.883535 
L 429.563027 183.148526 
L 430.3556 182.473497 
L 431.335943 181.894892 
L 432.476575 181.453691 
L 433.743844 181.178049 
L 435.379843 181.057587 
L 437.36791 181.153222 
L 439.632728 181.504371 
L 441.765737 182.052385 
L 443.638192 182.77031 
L 444.966649 183.527721 
L 445.816637 184.265702 
L 446.292293 184.948942 
L 446.540124 185.700669 
L 446.55135 186.506843 
L 446.324209 187.332655 
L 445.865946 188.149945 
L 445.191653 188.941879 
L 444.129037 189.840951 
L 442.603709 190.799491 
L 440.857757 191.641033 
L 438.709647 192.430978 
L 436.515938 193.000436 
L 434.37995 193.331843 
L 432.39335 193.415646 
L 430.844594 193.282925 
L 429.534616 192.963599 
L 428.652074 192.554049 
L 428.032892 192.038568 
L 427.740632 191.548952 
L 427.666617 191.025566 
L 427.815359 190.484806 
L 428.264497 189.853479 
L 428.946706 189.298133 
L 429.937618 188.790097 
L 431.856128 188.124479 
L 434.561628 187.129259 
L 435.823063 186.434769 
L 436.380027 185.977413 
L 436.284607 186.235349 
L 435.891946 186.719565 
L 435.281201 187.135252 
L 434.396295 187.469169 
L 433.174999 187.684055 
L 431.163021 187.773159 
L 430.654598 187.862927 
L 430.664013 187.888215 
L 430.893628 188.037988 
L 431.462929 188.144612 
L 431.961091 188.026786 
L 432.210312 187.742807 
L 432.403518 187.011177 
L 432.62918 186.653084 
L 433.03581 186.443039 
L 433.674155 186.380052 
L 435.178213 186.393715 
L 435.147819 186.323034 
L 434.77393 186.048411 
L 433.97919 185.457346 
L 433.994589 185.443656 
L 434.259775 185.444264 
L 434.670162 185.359405 
L 434.757659 185.131773 
L 434.64365 184.677229 
L 434.361275 183.667251 
L 434.478331 183.34331 
L 434.798546 183.118785 
L 435.320765 183.043298 
L 436.090524 183.191825 
L 436.719388 183.417524 
L 435.906036 183.151865 
L 435.906036 183.151865 
" style="fill:none;stroke:#d62728;stroke-linecap:square;stroke-opacity:0.7;stroke-width:1.5;"/>
   </g>
   <g id="line2d_28">
    <path clip-path="url(#p3ea36e4319)" d="M 428.445498 288.192172 
L 428.241286 291.679216 
L 427.985735 292.486695 
L 427.628714 292.903246 
L 427.198677 293.070775 
L 426.769449 293.020706 
L 426.241713 292.741221 
L 425.512903 292.054957 
L 424.686906 290.938197 
L 423.658982 289.131985 
L 422.440186 286.492682 
L 420.927144 282.616711 
L 419.095684 277.271454 
L 417.655718 272.447952 
L 416.744897 268.677741 
L 416.215552 265.63659 
L 415.996767 263.077615 
L 416.070827 261.262928 
L 416.344939 260.079988 
L 416.734196 259.394338 
L 417.170031 259.067861 
L 417.693387 258.974198 
L 418.297813 259.097187 
L 419.094274 259.485128 
L 420.233268 260.305882 
L 421.863251 261.791205 
L 424.193473 264.248737 
L 425.9769 266.293121 
L 424.258196 264.160746 
L 422.015919 261.018261 
L 419.928496 257.727382 
L 417.983856 254.267212 
L 416.324597 250.903471 
L 414.85412 247.430105 
L 413.776935 244.351748 
L 412.973035 241.371746 
L 412.530717 238.909726 
L 412.359171 236.638041 
L 412.442486 234.879081 
L 412.746815 233.323369 
L 413.17171 232.200052 
L 413.751742 231.247194 
L 414.483968 230.474909 
L 415.36314 229.891113 
L 416.381683 229.501224 
L 417.530062 229.307343 
L 418.797273 229.307355 
L 420.457326 229.553628 
L 422.246077 230.050354 
L 424.456243 230.91299 
L 427.07644 232.21337 
L 429.704395 233.768803 
L 432.533041 235.704629 
L 435.060285 237.694104 
L 437.10273 239.580359 
L 438.361721 241.043017 
L 438.890225 241.944401 
L 439.030368 242.539163 
L 438.938265 242.901461 
L 438.663872 243.156879 
L 438.070221 243.321025 
L 437.211683 243.310933 
L 435.860936 243.071429 
L 433.899952 242.490829 
L 431.254028 241.462017 
L 427.928052 239.903214 
L 424.427271 238.008169 
L 420.944588 235.877954 
L 417.658741 233.619197 
L 414.7322 231.340719 
L 412.549603 229.385775 
L 410.853557 227.572765 
L 409.827789 226.156183 
L 409.321798 225.100772 
L 409.178776 224.350511 
L 409.2983 223.729682 
L 409.587002 223.33259 
L 410.049365 223.02833 
L 410.872483 222.783184 
L 411.966688 222.691893 
L 413.63057 222.78734 
L 416.032701 223.17681 
L 419.3265 223.967532 
L 423.610497 225.245616 
L 428.88194 227.049337 
L 436.081465 229.767874 
L 444.464959 233.178402 
L 451.99755 236.466219 
L 453.929239 237.488687 
L 453.971421 237.59579 
L 453.941069 237.607449 
L 453.547914 237.577826 
L 451.609898 237.113191 
L 435.226641 232.829512 
L 429.371873 231.606556 
L 424.136077 230.743342 
L 419.713298 230.241684 
L 416.162676 230.044653 
L 413.026286 230.093782 
L 410.745968 230.340283 
L 409.179114 230.691137 
L 407.948894 231.171933 
L 407.226037 231.646753 
L 406.748933 232.197409 
L 406.527368 232.818384 
L 406.567974 233.502621 
L 406.873929 234.241505 
L 407.445074 235.024985 
L 408.527034 236.049824 
L 410.007357 237.102796 
L 411.870403 238.158564 
L 414.096377 239.191057 
L 417.21227 240.362463 
L 420.765166 241.417896 
L 424.694484 242.313701 
L 428.928374 243.009455 
L 433.381303 243.471357 
L 437.187438 243.659489 
L 441.011078 243.658566 
L 444.782106 243.463414 
L 448.427122 243.072449 
L 451.871489 242.487486 
L 455.04247 241.714121 
L 457.873497 240.762729 
L 459.855727 239.884282 
L 461.562702 238.913891 
L 462.978735 237.865932 
L 464.09319 236.757026 
L 464.899011 235.605243 
L 465.391637 234.429492 
L 465.55397 233.543599 
L 465.538318 232.663397 
L 465.344992 231.797316 
L 464.974988 230.95382 
L 464.430097 230.141291 
L 463.436337 229.119991 
L 462.145995 228.185939 
L 460.572422 227.354906 
L 458.733105 226.640002 
L 456.64939 226.051357 
L 454.345963 225.596115 
L 451.199893 225.220906 
L 447.812688 225.063536 
L 444.247963 225.12181 
L 440.572724 225.38912 
L 436.855836 225.855138 
L 433.166131 226.507056 
L 429.571196 227.330491 
L 426.136886 228.309441 
L 422.926981 229.426074 
L 420.002897 230.660837 
L 417.423441 231.992532 
L 415.244356 233.398385 
L 413.823905 234.560084 
L 412.715388 235.740166 
L 411.937713 236.924211 
L 411.580414 237.805617 
L 411.421761 238.673785 
L 411.464671 239.521659 
L 411.710678 240.342036 
L 412.159987 241.127666 
L 412.811423 241.871482 
L 413.662372 242.566775 
L 415.099886 243.407915 
L 416.870044 244.13993 
L 418.953083 244.75382 
L 421.324245 245.24368 
L 424.649036 245.676375 
L 428.31529 245.906664 
L 432.253675 245.934325 
L 436.389917 245.761715 
L 440.645437 245.393794 
L 445.793731 244.70527 
L 450.849152 243.763902 
L 454.883814 242.802056 
L 458.665423 241.695394 
L 462.112701 240.462408 
L 465.152822 239.125729 
L 467.725341 237.713136 
L 469.415154 236.550464 
L 470.758445 235.37928 
L 471.742405 234.219862 
L 472.357898 233.093307 
L 472.573977 232.28267 
L 472.578002 231.511035 
L 472.369835 230.78642 
L 471.950772 230.116167 
L 471.323759 229.50674 
L 470.493509 228.963745 
L 469.081791 228.351003 
L 467.340154 227.873024 
L 465.292463 227.535405 
L 462.34415 227.314791 
L 459.019287 227.317706 
L 455.382314 227.538878 
L 450.703061 228.078642 
L 445.798146 228.895718 
L 440.794752 229.962305 
L 435.819433 231.247425 
L 430.996745 232.717215 
L 426.448317 234.334952 
L 422.291781 236.061104 
L 419.208718 237.551998 
L 416.537934 239.063293 
L 414.337625 240.56855 
L 412.951692 241.7501 
L 411.923636 242.895839 
L 411.271913 243.990678 
L 411.038286 244.769071 
L 411.027455 245.503546 
L 411.241021 246.187794 
L 411.678552 246.815949 
L 412.337432 247.38293 
L 413.212821 247.884623 
L 414.704392 248.446907 
L 416.546494 248.883414 
L 418.712892 249.192163 
L 421.831682 249.397948 
L 425.347681 249.404991 
L 429.994311 249.156336 
L 434.985701 248.637764 
L 440.18413 247.865487 
L 445.444937 246.860099 
L 450.619051 245.645913 
L 455.554851 244.251027 
L 460.100987 242.707409 
L 463.487349 241.333611 
L 466.428375 239.906768 
L 468.862443 238.456375 
L 470.412757 237.301934 
L 471.591093 236.173629 
L 472.385204 235.091907 
L 472.723739 234.323514 
L 472.839833 233.601021 
L 472.73314 232.931949 
L 472.404972 232.322906 
L 471.858537 231.779569 
L 471.099014 231.306565 
L 469.767348 230.791519 
L 468.090922 230.413922 
L 466.095001 230.176968 
L 463.194038 230.079278 
L 459.898528 230.198334 
L 455.515534 230.615064 
L 450.779292 231.309648 
L 445.81543 232.254404 
L 440.75124 233.418132 
L 434.885035 235.007195 
L 429.252443 236.789845 
L 424.756622 238.42448 
L 420.690897 240.113324 
L 417.16664 241.812381 
L 414.719041 243.203331 
L 412.776095 244.543172 
L 411.61868 245.560121 
L 410.83733 246.513083 
L 410.508081 247.177377 
L 410.404264 247.792049 
L 410.528407 248.351713 
L 410.880692 248.851619 
L 411.458864 249.287874 
L 412.572685 249.76565 
L 414.06236 250.121032 
L 416.418482 250.39065 
L 419.275097 250.466416 
L 423.281689 250.305065 
L 427.814163 249.876623 
L 432.749735 249.194759 
L 438.839308 248.104283 
L 445.071785 246.731181 
L 450.351063 245.361106 
L 455.414198 243.844077 
L 460.110813 242.212891 
L 464.294926 240.503556 
L 467.293568 239.048902 
L 469.778378 237.59624 
L 471.361608 236.456945 
L 472.56406 235.357643 
L 473.372308 234.317629 
L 473.714674 233.588088 
L 473.829015 232.910214 
L 473.715468 232.290764 
L 473.37604 231.735578 
L 472.814682 231.249444 
L 472.037292 230.836109 
L 470.678157 230.402864 
L 468.970848 230.107737 
L 466.386585 229.934784 
L 463.354994 229.976716 
L 459.213971 230.299183 
L 454.633437 230.897721 
L 449.735649 231.744379 
L 443.788251 233.003704 
L 437.780163 234.503991 
L 431.909669 236.187175 
L 426.371271 237.991409 
L 421.353329 239.851363 
L 417.035282 241.698811 
L 414.018335 243.219219 
L 412.060863 244.407778 
L 410.662982 245.497877 
L 409.97582 246.282348 
L 409.722549 246.81168 
L 409.698628 247.285289 
L 409.905625 247.699297 
L 410.342494 248.050666 
L 411.275914 248.418281 
L 412.59638 248.668388 
L 414.759978 248.814983 
L 417.449112 248.778561 
L 421.293596 248.498465 
L 426.496613 247.85948 
L 432.293003 246.909052 
L 438.475316 245.68139 
L 444.822344 244.216239 
L 451.103629 242.557563 
L 457.082978 240.753485 
L 461.78747 239.130878 
L 465.949103 237.474918 
L 468.904668 236.097549 
L 471.322482 234.750111 
L 473.149959 233.462559 
L 474.161668 232.497915 
L 474.760316 231.610368 
L 474.93503 231.005449 
L 474.87474 230.45963 
L 474.58167 229.978374 
L 474.059978 229.566066 
L 473.315667 229.225966 
L 471.990491 228.888582 
L 470.305616 228.686162 
L 467.73338 228.622813 
L 464.696442 228.76552 
L 460.526776 229.195129 
L 455.894057 229.883935 
L 450.068255 230.975376 
L 443.980734 232.326335 
L 436.96238 234.11534 
L 430.165317 236.079402 
L 423.881938 238.12373 
L 418.392826 240.149664 
L 414.448317 241.827796 
L 411.833521 243.141909 
L 410.02135 244.297338 
L 409.178147 245.1111 
L 408.961697 245.650613 
L 409.071409 245.985171 
L 409.414143 246.257202 
L 410.228082 246.520622 
L 411.43747 246.66976 
L 413.476534 246.696428 
L 416.637338 246.498636 
L 421.19495 245.963408 
L 427.346845 244.979586 
L 434.232712 243.646289 
L 441.540011 242.023053 
L 448.936025 240.175428 
L 456.07461 238.173929 
L 461.832377 236.355437 
L 466.887986 234.529801 
L 470.493781 233.002221 
L 472.891738 231.786464 
L 474.678393 230.65182 
L 475.641404 229.822519 
L 476.177716 229.079665 
L 476.29781 228.587945 
L 476.177374 228.158141 
L 475.819859 227.794686 
L 475.230521 227.500825 
L 474.096344 227.221103 
L 472.582967 227.071756 
L 470.195252 227.06813 
L 466.674941 227.324995 
L 462.539864 227.850097 
L 457.092771 228.76801 
L 450.285614 230.158547 
L 443.146323 231.833619 
L 435.094613 233.948265 
L 427.432803 236.179161 
L 420.575867 238.389541 
L 414.916093 240.440721 
L 411.179705 242.019304 
L 409.089611 243.136755 
L 408.338083 243.754013 
L 408.201888 244.128954 
L 408.374063 244.33823 
L 408.96674 244.520172 
L 410.276532 244.592233 
L 412.640402 244.455414 
L 416.398462 244.000225 
L 421.840222 243.11858 
L 429.995163 241.546412 
L 439.126804 239.562436 
L 449.558431 237.060187 
L 458.675983 234.645248 
L 466.001238 232.481021 
L 471.397099 230.654545 
L 474.993671 229.197095 
L 477.102734 228.101486 
L 478.119336 227.32897 
L 478.434719 226.819883 
L 478.381176 226.508594 
L 478.082585 226.261967 
L 477.312645 226.038321 
L 476.477437 226.002487 
L 475.847649 226.237541 
L 475.167353 226.706745 
L 474.053612 227.844122 
L 472.828325 229.490655 
L 471.000365 232.374555 
L 465.733003 240.949218 
L 463.438662 244.280213 
L 460.749956 247.800322 
L 457.584128 251.500388 
L 453.867761 255.377949 
L 449.536531 259.42358 
L 444.546851 263.629086 
L 438.869541 267.977843 
L 432.49248 272.450067 
L 425.418605 277.024862 
L 417.659621 281.679071 
L 409.236493 286.39259 
L 400.174782 291.14584 
L 390.505519 295.922191 
L 383.739079 299.11193 
L 376.608772 302.093351 
L 369.09613 304.790075 
L 361.246598 307.214559 
L 353.135782 309.4237 
L 344.812831 311.402036 
L 336.344985 313.188145 
L 327.791745 314.784261 
L 319.210242 316.18867 
L 310.656705 317.428508 
L 302.185892 318.4919 
L 289.732811 319.802127 
L 277.716137 320.778526 
L 266.246176 321.474302 
L 255.425005 321.909864 
L 245.325043 322.122366 
L 236.006046 322.135428 
L 227.517835 321.96436 
L 219.890024 321.632596 
L 213.154193 321.148608 
L 207.333261 320.522977 
L 202.450568 319.760987 
L 198.526886 318.867527 
L 196.454294 318.19979 
L 194.820969 317.476698 
L 193.632298 316.697772 
L 192.88999 315.865247 
L 192.593823 314.981873 
L 192.743723 314.048716 
L 193.333992 313.070825 
L 194.358998 312.051284 
L 195.80923 310.995243 
L 197.672772 309.908418 
L 199.936603 308.795773 
L 204.049271 307.090768 
L 208.976762 305.353364 
L 214.663987 303.594666 
L 221.057214 301.819615 
L 230.575287 299.445287 
L 241.093721 297.086656 
L 252.462783 294.769119 
L 264.529841 292.516693 
L 280.362292 289.821098 
L 296.752347 287.280912 
L 313.414277 284.90831 
L 333.377211 282.287562 
L 356.047739 279.539734 
L 383.247452 276.492375 
L 407.322127 274.016714 
L 427.561933 272.166084 
L 443.511226 270.939228 
L 456.01455 270.195312 
L 463.151525 269.959853 
L 465.220249 270.062443 
L 465.262876 270.122661 
L 465.216111 270.157558 
L 464.589963 270.32751 
L 461.911384 270.733345 
L 454.208872 271.618996 
L 398.814517 277.449251 
L 391.772789 278.00334 
L 388.500478 278.09117 
L 386.742129 277.953192 
L 385.991831 277.69088 
L 385.812491 277.402132 
L 385.956952 277.03388 
L 386.417922 276.586345 
L 387.508863 275.867928 
L 389.602647 274.778007 
L 393.796685 272.906454 
L 401.088714 269.952191 
L 414.521249 264.793681 
L 448.037625 251.999729 
L 459.075702 247.533544 
L 466.757356 244.184622 
L 471.630741 241.843779 
L 475.611253 239.678032 
L 478.182469 238.0276 
L 479.727902 236.820685 
L 480.810547 235.723843 
L 481.430338 234.744475 
L 481.594769 234.090503 
L 481.506443 233.507447 
L 481.171176 232.996128 
L 480.596093 232.556558 
L 479.789539 232.188002 
L 478.370579 231.804502 
L 476.58237 231.539708 
L 473.871159 231.365925 
L 470.000636 231.368687 
L 464.779856 231.627888 
L 458.121203 232.204846 
L 450.105686 233.127501 
L 440.159193 234.500215 
L 427.648174 236.465059 
L 412.395857 238.947888 
L 412.931394 238.7926 
L 417.097661 237.95366 
L 434.303399 234.778391 
L 464.518676 229.168835 
L 473.513265 227.289898 
L 478.042192 226.140359 
L 479.805648 225.485705 
L 480.01367 225.225034 
L 479.80917 225.13015 
L 478.933717 225.081393 
L 476.639443 225.250769 
L 472.030333 225.867454 
L 464.298222 227.157948 
L 452.181879 229.426901 
L 434.406078 232.997294 
L 409.993511 237.910291 
L 407.865939 238.158828 
L 407.819245 238.126069 
L 407.878979 238.06988 
L 408.692965 237.765144 
L 411.638853 236.95128 
L 419.150712 235.127218 
L 433.298473 231.930721 
L 457.509998 226.72279 
L 477.10052 222.44862 
L 481.225279 221.360137 
L 481.522005 221.20295 
L 481.437621 221.185488 
L 480.505605 221.296113 
L 477.305354 221.930603 
L 470.10557 223.607312 
L 458.510079 226.542224 
L 441.983888 230.965862 
L 423.840949 236.058753 
L 410.563068 239.99172 
L 404.650811 241.931194 
L 403.890897 242.327001 
L 404.059513 242.356316 
L 405.131596 242.224719 
L 408.98955 241.473221 
L 418.948119 239.265253 
L 438.38663 234.702648 
L 457.208569 230.086803 
L 468.999254 226.9846 
L 475.163614 225.160182 
L 478.294712 224.042633 
L 479.476683 223.449551 
L 479.698637 223.184943 
L 479.572205 223.059264 
L 479.023423 222.991821 
L 477.421001 223.107244 
L 473.945492 223.653016 
L 467.757665 224.897532 
L 457.446577 227.237402 
L 442.971342 230.770211 
L 425.604156 235.249239 
L 411.210558 239.170758 
L 409.680731 239.672015 
L 409.898405 239.664649 
L 412.22147 239.232306 
L 425.924797 236.363218 
L 479.322999 224.952718 
L 481.507917 224.347957 
L 481.321479 224.351995 
L 479.289268 224.772078 
L 473.440237 226.217429 
L 462.146349 229.260832 
L 447.141279 233.534815 
L 430.509433 238.502864 
L 417.540618 242.589188 
L 409.126966 245.441632 
L 405.145674 246.976508 
L 403.872001 247.634738 
L 403.741124 247.844244 
L 403.932527 247.920682 
L 404.799526 247.8957 
L 407.127424 247.549134 
L 411.876995 246.599587 
L 419.943782 244.755744 
L 431.761564 241.820471 
L 444.748035 238.371068 
L 455.543174 235.299158 
L 464.366888 232.565411 
L 470.266587 230.522208 
L 474.31568 228.90788 
L 476.836672 227.700951 
L 478.424227 226.698171 
L 478.955474 226.160039 
L 479.078826 225.830467 
L 478.969832 225.566687 
L 478.633053 225.369807 
L 477.83986 225.211383 
L 476.319773 225.177198 
L 473.775229 225.364029 
L 469.302458 225.962254 
L 463.071517 227.039536 
L 454.26999 228.80081 
L 443.135733 231.269295 
L 430.829218 234.224128 
L 418.78434 237.34226 
L 413.663355 238.844849 
L 413.539721 238.920746 
L 413.634841 238.94628 
L 414.704052 238.817163 
L 420.217441 237.843613 
L 469.595064 228.839603 
L 481.489434 226.902305 
L 482.44089 226.862157 
L 482.429042 226.885164 
L 482.092512 227.042677 
L 479.7044 227.792777 
L 444.562114 238.281527 
L 425.909784 244.179677 
L 409.223678 249.689774 
L 398.512071 253.437542 
L 398.230652 253.574952 
L 398.668606 253.478355 
L 403.550825 252.050929 
L 445.155086 239.481324 
L 465.817613 233.099769 
L 473.935232 230.388693 
L 478.441581 228.668733 
L 480.437091 227.700902 
L 481.031966 227.228036 
L 481.060623 227.035521 
L 480.848307 226.912291 
L 480.200493 226.855165 
L 478.482626 226.992272 
L 474.913252 227.5587 
L 468.694897 228.790836 
L 457.589286 231.23507 
L 439.615122 235.439164 
L 411.015488 242.332934 
L 413.042838 241.900599 
L 429.072713 238.612198 
L 450.707934 234.388295 
L 470.375777 230.765034 
L 478.200297 229.502438 
L 478.859249 229.510275 
L 478.837522 229.537005 
L 478.302772 229.769696 
L 475.212335 230.734758 
L 463.899275 234.011406 
L 463.899275 234.011406 
" style="fill:none;stroke:#bcbd22;stroke-linecap:square;stroke-opacity:0.7;stroke-width:1.5;"/>
   </g>
   <g id="line2d_29">
    <path clip-path="url(#p3ea36e4319)" d="M 428.445498 288.192172 
L 428.454545 291.70967 
L 428.689211 293.22615 
L 429.176879 294.845033 
L 429.874503 296.446073 
L 430.946941 298.349598 
L 432.319654 300.340225 
L 433.913406 302.248323 
L 435.670077 303.972976 
L 437.71934 305.648825 
L 440.813453 307.859842 
L 443.284368 309.400993 
L 444.789173 310.121568 
L 445.964228 310.454515 
L 446.858092 310.495102 
L 447.631528 310.298786 
L 448.291475 309.867927 
L 448.844798 309.217122 
L 449.36407 308.230165 
L 449.830874 306.848987 
L 450.307639 304.661813 
L 450.8557 300.941882 
L 451.867015 293.979589 
L 452.588359 290.688736 
L 453.393772 288.072838 
L 454.481918 284.675875 
L 454.488393 283.78844 
L 454.28566 281.055583 
L 454.520326 279.803416 
L 454.995707 278.503644 
L 455.727334 277.158694 
L 457.224531 274.971988 
L 457.240475 274.988835 
L 457.47784 275.163557 
L 458.130766 275.351661 
L 458.086467 275.380927 
L 457.687662 284.232317 
L 457.350452 287.815466 
L 456.919818 290.65563 
L 456.248892 293.549323 
L 455.62868 295.496875 
L 454.836539 297.437518 
L 453.853066 299.373727 
L 452.657437 301.298554 
L 451.235034 303.211737 
L 449.575844 305.116 
L 447.672653 307.013667 
L 445.520211 308.907218 
L 443.11638 310.802006 
L 439.033015 313.652048 
L 434.372338 316.524443 
L 429.12705 319.427083 
L 423.295524 322.371776 
L 416.87685 325.364174 
L 409.878241 328.412987 
L 404.773645 330.300799 
L 399.261572 331.980073 
L 393.371714 333.476679 
L 387.170244 334.865742 
L 377.342834 336.75624 
L 367.024962 338.498962 
L 352.745066 340.632777 
L 338.194839 342.586285 
L 323.710542 344.34166 
L 309.58098 345.85559 
L 296.034503 347.083231 
L 283.255875 347.988889 
L 271.414297 348.549403 
L 263.248673 348.73371 
L 255.767919 348.711336 
L 249.026919 348.47753 
L 243.061591 348.035466 
L 237.897131 347.385957 
L 234.903998 346.842212 
L 232.27406 346.210922 
L 230.005138 345.498604 
L 228.099536 344.705088 
L 226.55343 343.837792 
L 225.36582 342.899588 
L 224.534473 341.89358 
L 224.052187 340.827992 
L 223.916111 339.703666 
L 224.118285 338.526527 
L 224.651966 337.29932 
L 225.509632 336.024668 
L 226.68091 334.708033 
L 228.157576 333.35121 
L 229.928627 331.959594 
L 233.115603 329.814088 
L 236.90714 327.610993 
L 241.267263 325.361713 
L 246.158401 323.076874 
L 251.542177 320.764952 
L 259.418348 317.653128 
L 268.005014 314.520949 
L 277.206729 311.380599 
L 289.42675 307.461502 
L 302.266118 303.567951 
L 318.218943 298.957582 
L 337.172034 293.708049 
L 361.342833 287.262413 
L 386.916079 280.686506 
L 410.149683 274.932538 
L 430.286339 270.176666 
L 445.339072 266.851384 
L 456.098189 264.684582 
L 464.336779 263.251623 
L 469.502049 262.572161 
L 472.465805 262.386832 
L 473.955169 262.491604 
L 474.540727 262.733642 
L 474.645758 263.002054 
L 474.479557 263.340929 
L 473.861296 263.895874 
L 472.502396 264.742097 
L 470.110898 265.955937 
L 465.851816 267.853407 
L 458.551623 270.835357 
L 442.742473 276.982841 
L 428.657649 282.550407 
L 422.02643 285.385907 
L 418.824076 286.964407 
L 417.663357 287.726747 
L 417.428135 288.08422 
L 417.562528 288.222303 
L 418.042404 288.285224 
L 419.256734 288.177105 
L 421.641274 287.726894 
L 425.97267 286.65682 
L 432.119578 284.894576 
L 439.682758 282.488899 
L 447.294917 279.83117 
L 453.592124 277.402194 
L 458.040892 275.46705 
L 460.387546 274.242694 
L 461.055819 273.704942 
L 461.011867 273.579279 
L 460.666654 273.565293 
L 459.569099 273.801007 
L 457.358988 274.525617 
L 454.406511 275.726676 
L 451.966867 276.935529 
L 450.83892 277.698097 
L 450.7383 277.947625 
L 450.960809 277.991358 
L 451.736725 277.843688 
L 453.43732 277.259334 
L 455.700772 276.248683 
L 457.538195 275.209745 
L 458.198162 274.631617 
L 458.159467 274.516727 
L 458.138338 274.51042 
L 457.773308 274.54775 
L 456.868836 274.885944 
L 456.088748 275.379558 
L 456.085072 275.45124 
L 456.160616 275.467101 
L 456.652059 275.35646 
L 457.647893 274.964059 
L 457.443275 275.212811 
L 457.494232 275.311286 
L 457.522403 275.318066 
L 457.961669 275.278446 
L 458.140339 275.3453 
L 458.087354 275.335705 
" style="fill:none;stroke:#2ca02c;stroke-linecap:square;stroke-opacity:0.7;stroke-width:1.5;"/>
   </g>
   <g id="line2d_30">
    <path clip-path="url(#p3ea36e4319)" d="M 428.445498 288.192172 
L 428.260345 291.237613 
L 427.958479 292.331972 
L 427.515195 293.135685 
L 426.684413 294.0787 
L 423.225486 298.199844 
L 421.180722 300.194121 
L 418.988268 302.03163 
L 416.351612 303.933077 
L 413.25237 305.85078 
L 409.689052 307.739013 
L 405.674574 309.564596 
L 401.236233 311.304592 
L 396.414558 312.944111 
L 391.257551 314.472265 
L 384.887532 316.105306 
L 378.225176 317.570525 
L 371.37364 318.862515 
L 363.458694 320.118299 
L 355.633727 321.127207 
L 348.097046 321.877752 
L 341.048406 322.36021 
L 334.683182 322.570163 
L 329.819014 322.53197 
L 325.730153 322.294238 
L 322.914972 321.941648 
L 320.784977 321.464283 
L 319.556146 320.978655 
L 318.938838 320.535509 
L 318.649514 320.045464 
L 318.647465 319.648363 
L 318.828022 319.227412 
L 319.348552 318.630484 
L 320.436635 317.831094 
L 321.989485 316.977602 
L 324.424052 315.891442 
L 327.968534 314.561345 
L 332.799763 312.986801 
L 340.455533 310.748785 
L 365.875487 303.526322 
L 371.624525 301.596458 
L 376.01842 299.895161 
L 379.229795 298.424695 
L 381.480488 297.182043 
L 383.25675 295.958673 
L 384.375437 294.955259 
L 385.172176 293.967123 
L 385.65786 292.994688 
L 385.847019 292.038298 
L 385.757328 291.099076 
L 385.409314 290.179629 
L 384.825917 289.283353 
L 383.85029 288.244936 
L 382.61756 287.256231 
L 380.918555 286.177217 
L 378.727264 285.05494 
L 376.078162 283.945516 
L 372.500073 282.714947 
L 366.276094 280.89055 
L 364.304408 280.183455 
L 363.808005 279.819312 
L 363.836831 279.61077 
L 364.157656 279.426901 
L 365.032642 279.21834 
L 367.023553 279.000427 
L 370.710668 278.846781 
L 380.353128 278.742349 
L 386.609224 278.871001 
L 391.606148 279.196627 
L 394.792234 279.601146 
L 396.87071 280.072677 
L 397.863835 280.508027 
L 398.184492 280.860484 
L 398.165373 281.167034 
L 397.884748 281.481891 
L 397.207634 281.866313 
L 395.750726 282.381167 
L 393.417583 282.947188 
L 389.722203 283.586397 
L 385.338622 284.121684 
L 380.119913 284.537268 
L 374.831045 284.745112 
L 369.834971 284.727846 
L 365.782645 284.505239 
L 362.992501 284.147107 
L 360.986281 283.659501 
L 359.628242 283.08627 
L 358.768502 282.482036 
L 358.188929 281.774576 
L 357.914905 281.108964 
L 357.823519 280.377613 
L 357.941762 279.418643 
L 358.289382 278.378285 
L 358.952194 277.073073 
L 360.142019 275.271286 
L 362.141815 272.69938 
L 366.806278 266.81401 
L 368.254986 264.594428 
L 369.222486 262.694063 
L 369.757685 261.115336 
L 369.949314 259.838245 
L 369.899236 258.830544 
L 369.650041 257.908655 
L 369.205653 257.075619 
L 368.574547 256.332172 
L 367.619514 255.575769 
L 366.454918 254.932536 
L 364.910331 254.322242 
L 362.74471 253.714583 
L 359.50247 253.065608 
L 354.711977 252.344883 
L 352.122671 252.144621 
L 351.059741 252.245281 
L 350.739676 252.445191 
L 350.775096 252.656786 
L 351.128718 252.961225 
L 352.084164 253.431563 
L 354.207811 254.181927 
L 358.381326 255.381786 
L 367.083389 257.602144 
L 381.776181 261.403249 
L 385.066389 262.453277 
L 386.860888 263.228012 
L 387.785376 263.826764 
L 388.221803 264.338335 
L 388.324863 264.764479 
L 388.187533 265.191614 
L 387.810314 265.621525 
L 387.047222 266.144349 
L 385.527479 266.860575 
L 382.893656 267.799396 
L 378.459154 269.106029 
L 368.484015 271.742383 
L 358.091845 274.574193 
L 352.425383 276.341124 
L 348.825335 277.684169 
L 347.190311 278.487759 
L 347.2023 278.515127 
L 347.285896 278.513138 
L 348.059131 278.289103 
L 350.268987 277.411872 
L 353.431257 275.924477 
L 356.519056 274.231007 
L 359.353094 272.411972 
L 361.497049 270.792008 
L 363.35653 269.109577 
L 364.691113 267.606523 
L 365.568301 266.316782 
L 366.146644 265.075412 
L 366.391986 264.065756 
L 366.401299 263.118376 
L 366.175281 262.242803 
L 365.719717 261.446488 
L 365.045379 260.734598 
L 364.167461 260.109824 
L 362.911329 259.490975 
L 361.213941 258.923624 
L 359.043329 258.450772 
L 356.416859 258.112984 
L 353.419876 257.964197 
L 350.743549 258.04282 
L 348.249603 258.334325 
L 346.263814 258.774063 
L 344.608345 259.373243 
L 343.470314 260.031059 
L 342.764468 260.694198 
L 342.389765 261.321542 
L 342.234233 261.999188 
L 342.299449 262.724345 
L 342.583279 263.494579 
L 343.184153 264.444323 
L 344.213676 265.586019 
L 345.589638 266.774254 
L 347.519834 268.148344 
L 350.088492 269.690127 
L 353.038398 271.201938 
L 356.298303 272.617323 
L 359.435437 273.728158 
L 362.695089 274.639098 
L 365.992857 275.341046 
L 369.582762 275.874387 
L 372.962743 276.14712 
L 376.012878 276.159122 
L 378.393579 275.955573 
L 380.36722 275.567179 
L 381.741872 275.088824 
L 382.735337 274.511861 
L 383.283133 273.949919 
L 383.514026 273.443241 
L 383.529688 272.928448 
L 383.338943 272.419139 
L 382.872066 271.848318 
L 382.047277 271.248264 
L 380.955137 270.726066 
L 379.469274 270.257601 
L 377.58737 269.915936 
L 375.564313 269.794812 
L 373.708696 269.893581 
L 371.703014 270.225269 
L 369.682141 270.801788 
L 367.973377 271.525805 
L 366.673863 272.318042 
L 365.902746 273.027744 
L 365.563838 273.603263 
L 365.544077 274.025918 
L 365.728122 274.306545 
L 366.133381 274.512176 
L 366.778452 274.584076 
L 367.636986 274.460194 
L 368.616317 274.0979 
L 369.483378 273.53898 
L 370.069338 272.907824 
L 370.377517 272.28456 
L 370.440891 271.650386 
L 370.25463 271.109463 
L 369.871811 270.676267 
L 369.257175 270.298268 
L 368.251377 269.952753 
L 366.726303 269.693264 
L 364.560028 269.576093 
L 361.397131 269.660903 
L 356.560877 270.054685 
L 348.509095 270.739553 
L 346.125888 270.732711 
L 344.621272 270.538146 
L 343.64878 270.201983 
L 343.090814 269.780432 
L 342.826684 269.33199 
L 342.747117 268.794512 
L 342.894212 268.03462 
L 343.301777 267.157375 
L 344.098366 266.002356 
L 345.41617 264.539684 
L 347.140406 262.970455 
L 349.230976 261.34905 
L 351.957146 259.531796 
L 354.989128 257.793216 
L 358.21415 256.205806 
L 361.509932 254.840299 
L 364.400704 253.865014 
L 367.171985 253.158961 
L 369.439947 252.794603 
L 371.509943 252.697876 
L 373.091751 252.851312 
L 374.255274 253.158368 
L 375.265732 253.63471 
L 376.11348 254.283285 
L 376.790828 255.104804 
L 377.292126 256.097233 
L 377.613548 257.255101 
L 377.753038 258.569739 
L 377.680107 260.337422 
L 377.348393 262.287688 
L 376.766408 264.389932 
L 375.792453 266.996324 
L 374.537029 269.727571 
L 372.817464 272.937117 
L 370.617333 276.565689 
L 367.742984 280.864071 
L 361.505071 289.980282 
L 360.587744 291.763413 
L 360.088939 293.161314 
L 359.876607 294.460097 
L 359.928955 295.474741 
L 360.194425 296.435443 
L 360.672996 297.349529 
L 361.361778 298.220362 
L 362.460106 299.203041 
L 363.845495 300.106579 
L 365.193769 300.950556 
L 366.03967 301.975144 
L 367.207027 303.917481 
L 368.709001 307.052684 
L 369.865953 309.955137 
L 370.622333 312.311528 
L 371.192005 314.795821 
L 371.42453 316.52727 
L 371.504288 318.313181 
L 371.4085 320.161816 
L 371.112505 322.071982 
L 370.597761 324.047042 
L 369.847914 326.088944 
L 368.844692 328.192705 
L 367.577778 330.360261 
L 366.032483 332.585547 
L 364.198801 334.866017 
L 362.067439 337.199805 
L 359.626279 339.582022 
L 356.868462 342.013357 
L 353.783368 344.490607 
L 350.364454 347.01419 
L 346.607326 349.585128 
L 340.328585 353.529132 
L 333.275714 357.578672 
L 325.450173 361.729564 
L 319.683821 364.429432 
L 313.419328 367.008018 
L 306.686558 369.477138 
L 299.551013 371.878084 
L 292.041621 374.204676 
L 280.201582 377.600767 
L 267.816629 380.883595 
L 255.078929 384.068475 
L 237.865281 388.131233 
L 220.756437 391.944684 
L 204.059485 395.467798 
L 187.996999 398.674749 
L 169.106088 402.198454 
L 155.18078 404.590201 
L 142.494299 406.571387 
L 131.150984 408.131529 
L 121.208251 409.268001 
L 112.7127 409.976041 
L 107.318499 410.22226 
L 102.779457 410.221603 
L 99.094579 409.980773 
L 96.253999 409.504621 
L 94.818222 409.061662 
L 93.741038 408.520739 
L 93.013813 407.886587 
L 92.630471 407.160219 
L 92.5821 406.346738 
L 92.861268 405.448546 
L 93.459132 404.468701 
L 94.363434 403.413976 
L 95.563845 402.286722 
L 97.890876 400.471818 
L 100.81114 398.520104 
L 104.279993 396.447425 
L 109.684135 393.518487 
L 115.885404 390.429061 
L 124.602999 386.386547 
L 134.205552 382.19769 
L 146.614117 377.057607 
L 161.887831 371.01655 
L 179.769768 364.213797 
L 201.746526 356.107783 
L 233.577996 344.626932 
L 281.684673 327.52346 
L 297.061571 322.23118 
L 299.734927 321.48603 
L 307.713146 319.780856 
L 314.700269 318.568531 
L 322.742998 317.399524 
L 331.545527 316.349884 
L 340.441326 315.512419 
L 349.754835 314.870273 
L 358.247701 314.50952 
L 365.645561 314.399309 
L 372.576704 314.508645 
L 378.827928 314.839573 
L 383.664108 315.313664 
L 387.254316 315.858811 
L 390.192553 316.515026 
L 392.167437 317.156256 
L 393.630538 317.860101 
L 394.459421 318.486576 
L 394.939728 319.141899 
L 395.080241 319.681879 
L 395.012405 320.231428 
L 394.745764 320.786281 
L 394.150001 321.480553 
L 393.083191 322.302955 
L 391.677974 323.099077 
L 389.68105 323.974785 
L 387.036601 324.878724 
L 383.763408 325.736658 
L 380.360614 326.388442 
L 377.01293 326.799053 
L 373.884643 326.943827 
L 371.399636 326.838295 
L 369.51745 326.563442 
L 367.949386 326.122833 
L 366.877689 325.619683 
L 366.071324 325.008484 
L 365.538217 324.298498 
L 365.30495 323.639149 
L 365.262485 322.925922 
L 365.458167 322.010415 
L 365.91292 321.043931 
L 366.751456 319.871763 
L 367.892896 318.673681 
L 369.51955 317.30243 
L 371.679267 315.798752 
L 374.359566 314.23275 
L 377.452804 312.710317 
L 380.457707 311.471268 
L 383.340304 310.50819 
L 385.52023 309.984916 
L 386.703832 309.89273 
L 387.009577 310.045165 
L 386.953938 310.22613 
L 386.559064 310.578204 
L 385.530556 311.173751 
L 383.345286 312.146935 
L 380.146936 313.311683 
L 376.38964 314.453227 
L 372.402733 315.440639 
L 368.795317 316.113997 
L 365.744744 316.468636 
L 363.295836 316.549597 
L 361.412665 316.417561 
L 359.861708 316.093481 
L 358.770826 315.650492 
L 357.950662 315.067376 
L 357.449656 314.446132 
L 357.140571 313.721983 
L 357.002391 312.767046 
L 357.082467 311.531815 
L 357.435485 309.806039 
L 359.113222 302.722253 
L 359.258444 300.817275 
L 359.182659 299.134402 
L 358.896378 297.487463 
L 358.341309 295.703747 
L 357.483993 293.798137 
L 356.232211 291.612836 
L 352.095638 284.784141 
L 351.370952 282.987603 
L 350.939686 281.341165 
L 350.774039 279.857649 
L 350.83615 278.551256 
L 351.124232 277.274333 
L 351.580364 276.197656 
L 352.237984 275.174439 
L 353.099806 274.217459 
L 354.32628 273.21805 
L 355.788718 272.332926 
L 357.455344 271.574736 
L 359.527797 270.886459 
L 361.751632 270.381379 
L 364.310081 270.043789 
L 366.594026 269.959268 
L 368.529475 270.08366 
L 370.308451 270.421453 
L 371.690459 270.917248 
L 372.718047 271.50413 
L 373.581828 272.245574 
L 374.26745 273.140765 
L 374.763647 274.182665 
L 375.062064 275.35803 
L 375.157304 276.647304 
L 375.047678 278.025474 
L 374.666067 279.711507 
L 374.027548 281.449484 
L 373.158235 283.204049 
L 371.926309 285.179875 
L 370.318841 287.298667 
L 368.406964 289.43325 
L 366.049911 291.714372 
L 363.68613 294.002427 
L 363.309636 294.649277 
L 363.23882 295.16993 
L 363.41373 295.677747 
L 363.838743 296.192405 
L 364.650912 296.815432 
L 365.992889 297.551812 
L 368.014506 298.382521 
L 370.542788 299.160575 
L 373.523326 299.84154 
L 376.884367 300.386596 
L 381.34988 300.872374 
L 388.799502 301.410466 
L 395.136124 301.93117 
L 397.395603 302.304098 
L 398.568397 302.676831 
L 399.110558 303.052926 
L 399.219665 303.327246 
L 399.120564 303.615615 
L 398.69942 303.987511 
L 397.757602 304.433669 
L 396.349274 304.854228 
L 394.143682 305.274127 
L 391.373245 305.583232 
L 387.582264 305.77485 
L 382.642734 305.791163 
L 372.047092 305.527285 
L 359.133857 305.315065 
L 340.811884 305.042029 
L 337.493249 304.741292 
L 335.879025 304.4079 
L 335.029822 304.035824 
L 334.717977 303.664482 
L 334.746625 303.324658 
L 335.031725 302.963033 
L 335.702534 302.507956 
L 336.919797 301.960236 
L 338.848962 301.333645 
L 341.640016 300.66491 
L 345.402895 300.014892 
L 350.182488 299.443053 
L 355.429668 299.032237 
L 361.42086 298.794301 
L 367.874484 298.778666 
L 373.438162 298.972575 
L 377.51848 299.31177 
L 380.569434 299.763309 
L 382.661577 300.279537 
L 383.939417 300.814875 
L 384.587841 301.330745 
L 384.799324 301.796182 
L 384.749773 302.188962 
L 384.414539 302.702178 
L 383.779918 303.235893 
L 382.636373 303.895783 
L 380.808562 304.677307 
L 378.1379 305.560939 
L 374.514254 306.508356 
L 369.916913 307.457435 
L 364.965665 308.251604 
L 359.923303 308.848316 
L 355.042744 309.207384 
L 350.981221 309.293537 
L 347.76133 309.157602 
L 345.317659 308.862102 
L 343.27097 308.396535 
L 341.857583 307.867007 
L 340.773611 307.220164 
L 340.127963 306.590366 
L 339.717939 305.877787 
L 339.541235 305.08386 
L 339.592486 304.211468 
L 339.863682 303.264631 
L 340.46461 302.037142 
L 341.517394 300.491112 
L 343.13365 298.592459 
L 345.392823 296.315354 
L 348.932362 293.100431 
L 357.761171 285.227226 
L 360.475236 282.451515 
L 362.288815 280.304624 
L 363.715302 278.259762 
L 364.611764 276.587949 
L 365.16475 275.061912 
L 365.363159 273.896682 
L 365.3098 272.883379 
L 365.076938 272.165231 
L 364.677495 271.567741 
L 364.116876 271.093819 
L 363.24022 270.688171 
L 362.152929 270.456279 
L 360.637965 270.394656 
L 358.617447 270.578862 
L 356.042017 271.075953 
L 352.917844 271.93554 
L 349.335598 273.177863 
L 345.812678 274.644606 
L 342.853166 276.100472 
L 340.299118 277.606906 
L 338.654157 278.805746 
L 337.566262 279.824646 
L 336.847748 280.795846 
L 336.550577 281.574862 
L 336.540365 282.171898 
L 336.753303 282.710491 
L 337.193001 283.185655 
L 337.859999 283.595587 
L 338.956948 284.000245 
L 340.632507 284.352982 
L 343.035507 284.606153 
L 346.2928 284.713989 
L 350.923241 284.618655 
L 356.525564 284.27164 
L 363.295361 283.620206 
L 370.083946 282.746784 
L 375.868635 281.784987 
L 379.249333 281.021962 
L 380.28188 280.617942 
L 380.284349 280.539122 
L 380.25852 280.524179 
L 379.885609 280.47776 
L 378.467784 280.56627 
L 374.993513 281.042546 
L 372.005722 281.538135 
L 372.005722 281.538135 
" style="fill:none;stroke:#17becf;stroke-linecap:square;stroke-opacity:0.7;stroke-width:1.5;"/>
   </g>
   <g id="line2d_31">
    <path clip-path="url(#p3ea36e4319)" d="M 428.448137 288.093999 
L 428.448137 288.093999 
" style="fill:none;stroke:#000000;stroke-dasharray:5.55,2.4;stroke-dashoffset:0;stroke-opacity:0.595;stroke-width:1.5;"/>
   </g>
   <g id="legend_1">
    <g id="patch_6">
     <path d="M 460.49375 132.06875 
L 545.6 132.06875 
Q 547.6 132.06875 547.6 130.06875 
L 547.6 43 
Q 547.6 41 545.6 41 
L 460.49375 41 
Q 458.49375 41 458.49375 43 
L 458.49375 130.06875 
Q 458.49375 132.06875 460.49375 132.06875 
z
" style="fill:#ffffff;opacity:0.8;stroke:#cccccc;stroke-linejoin:miter;"/>
    </g>
    <g id="line2d_32">
     <path d="M 462.49375 49.098437 
L 482.49375 49.098437 
" style="fill:none;stroke:#1f77b4;stroke-linecap:square;stroke-opacity:0.7;stroke-width:1.5;"/>
    </g>
    <g id="line2d_33"/>
    <g id="text_26">
     <!-- DSLPID -->
     <g transform="translate(490.49375 52.598437)scale(0.1 -0.1)">
      <defs>
       <path d="M 1259 4147 
L 1259 519 
L 2022 519 
Q 2988 519 3436 956 
Q 3884 1394 3884 2338 
Q 3884 3275 3436 3711 
Q 2988 4147 2022 4147 
L 1259 4147 
z
M 628 4666 
L 1925 4666 
Q 3281 4666 3915 4102 
Q 4550 3538 4550 2338 
Q 4550 1131 3912 565 
Q 3275 0 1925 0 
L 628 0 
L 628 4666 
z
" id="DejaVuSans-44" transform="scale(0.015625)"/>
       <path d="M 3425 4513 
L 3425 3897 
Q 3066 4069 2747 4153 
Q 2428 4238 2131 4238 
Q 1616 4238 1336 4038 
Q 1056 3838 1056 3469 
Q 1056 3159 1242 3001 
Q 1428 2844 1947 2747 
L 2328 2669 
Q 3034 2534 3370 2195 
Q 3706 1856 3706 1288 
Q 3706 609 3251 259 
Q 2797 -91 1919 -91 
Q 1588 -91 1214 -16 
Q 841 59 441 206 
L 441 856 
Q 825 641 1194 531 
Q 1563 422 1919 422 
Q 2459 422 2753 634 
Q 3047 847 3047 1241 
Q 3047 1584 2836 1778 
Q 2625 1972 2144 2069 
L 1759 2144 
Q 1053 2284 737 2584 
Q 422 2884 422 3419 
Q 422 4038 858 4394 
Q 1294 4750 2059 4750 
Q 2388 4750 2728 4690 
Q 3069 4631 3425 4513 
z
" id="DejaVuSans-53" transform="scale(0.015625)"/>
       <path d="M 628 4666 
L 1259 4666 
L 1259 531 
L 3531 531 
L 3531 0 
L 628 0 
L 628 4666 
z
" id="DejaVuSans-4c" transform="scale(0.015625)"/>
       <path d="M 1259 4147 
L 1259 2394 
L 2053 2394 
Q 2494 2394 2734 2622 
Q 2975 2850 2975 3272 
Q 2975 3691 2734 3919 
Q 2494 4147 2053 4147 
L 1259 4147 
z
M 628 4666 
L 2053 4666 
Q 2838 4666 3239 4311 
Q 3641 3956 3641 3272 
Q 3641 2581 3239 2228 
Q 2838 1875 2053 1875 
L 1259 1875 
L 1259 0 
L 628 0 
L 628 4666 
z
" id="DejaVuSans-50" transform="scale(0.015625)"/>
       <path d="M 628 4666 
L 1259 4666 
L 1259 0 
L 628 0 
L 628 4666 
z
" id="DejaVuSans-49" transform="scale(0.015625)"/>
      </defs>
      <use xlink:href="#DejaVuSans-44"/>
      <use x="77.001953" xlink:href="#DejaVuSans-53"/>
      <use x="140.478516" xlink:href="#DejaVuSans-4c"/>
      <use x="196.191406" xlink:href="#DejaVuSans-50"/>
      <use x="256.494141" xlink:href="#DejaVuSans-49"/>
      <use x="285.986328" xlink:href="#DejaVuSans-44"/>
     </g>
    </g>
    <g id="line2d_34">
     <path d="M 462.49375 63.776562 
L 482.49375 63.776562 
" style="fill:none;stroke:#d62728;stroke-linecap:square;stroke-opacity:0.7;stroke-width:1.5;"/>
    </g>
    <g id="line2d_35"/>
    <g id="text_27">
     <!-- ANN -->
     <g transform="translate(490.49375 67.276562)scale(0.1 -0.1)">
      <defs>
       <path d="M 2188 4044 
L 1331 1722 
L 3047 1722 
L 2188 4044 
z
M 1831 4666 
L 2547 4666 
L 4325 0 
L 3669 0 
L 3244 1197 
L 1141 1197 
L 716 0 
L 50 0 
L 1831 4666 
z
" id="DejaVuSans-41" transform="scale(0.015625)"/>
       <path d="M 628 4666 
L 1478 4666 
L 3547 763 
L 3547 4666 
L 4159 4666 
L 4159 0 
L 3309 0 
L 1241 3903 
L 1241 0 
L 628 0 
L 628 4666 
z
" id="DejaVuSans-4e" transform="scale(0.015625)"/>
      </defs>
      <use xlink:href="#DejaVuSans-41"/>
      <use x="68.408203" xlink:href="#DejaVuSans-4e"/>
      <use x="143.212891" xlink:href="#DejaVuSans-4e"/>
     </g>
    </g>
    <g id="line2d_36">
     <path d="M 462.49375 78.454687 
L 482.49375 78.454687 
" style="fill:none;stroke:#bcbd22;stroke-linecap:square;stroke-opacity:0.7;stroke-width:1.5;"/>
    </g>
    <g id="line2d_37"/>
    <g id="text_28">
     <!-- LSTM -->
     <g transform="translate(490.49375 81.954687)scale(0.1 -0.1)">
      <defs>
       <path d="M -19 4666 
L 3928 4666 
L 3928 4134 
L 2272 4134 
L 2272 0 
L 1638 0 
L 1638 4134 
L -19 4134 
L -19 4666 
z
" id="DejaVuSans-54" transform="scale(0.015625)"/>
       <path d="M 628 4666 
L 1569 4666 
L 2759 1491 
L 3956 4666 
L 4897 4666 
L 4897 0 
L 4281 0 
L 4281 4097 
L 3078 897 
L 2444 897 
L 1241 4097 
L 1241 0 
L 628 0 
L 628 4666 
z
" id="DejaVuSans-4d" transform="scale(0.015625)"/>
      </defs>
      <use xlink:href="#DejaVuSans-4c"/>
      <use x="55.712891" xlink:href="#DejaVuSans-53"/>
      <use x="119.189453" xlink:href="#DejaVuSans-54"/>
      <use x="180.273438" xlink:href="#DejaVuSans-4d"/>
     </g>
    </g>
    <g id="line2d_38">
     <path d="M 462.49375 93.132812 
L 482.49375 93.132812 
" style="fill:none;stroke:#2ca02c;stroke-linecap:square;stroke-opacity:0.7;stroke-width:1.5;"/>
    </g>
    <g id="line2d_39"/>
    <g id="text_29">
     <!-- LSTMCNN -->
     <g transform="translate(490.49375 96.632812)scale(0.1 -0.1)">
      <defs>
       <path d="M 4122 4306 
L 4122 3641 
Q 3803 3938 3442 4084 
Q 3081 4231 2675 4231 
Q 1875 4231 1450 3742 
Q 1025 3253 1025 2328 
Q 1025 1406 1450 917 
Q 1875 428 2675 428 
Q 3081 428 3442 575 
Q 3803 722 4122 1019 
L 4122 359 
Q 3791 134 3420 21 
Q 3050 -91 2638 -91 
Q 1578 -91 968 557 
Q 359 1206 359 2328 
Q 359 3453 968 4101 
Q 1578 4750 2638 4750 
Q 3056 4750 3426 4639 
Q 3797 4528 4122 4306 
z
" id="DejaVuSans-43" transform="scale(0.015625)"/>
      </defs>
      <use xlink:href="#DejaVuSans-4c"/>
      <use x="55.712891" xlink:href="#DejaVuSans-53"/>
      <use x="119.189453" xlink:href="#DejaVuSans-54"/>
      <use x="180.273438" xlink:href="#DejaVuSans-4d"/>
      <use x="266.552734" xlink:href="#DejaVuSans-43"/>
      <use x="336.376953" xlink:href="#DejaVuSans-4e"/>
      <use x="411.181641" xlink:href="#DejaVuSans-4e"/>
     </g>
    </g>
    <g id="line2d_40">
     <path d="M 462.49375 107.810937 
L 482.49375 107.810937 
" style="fill:none;stroke:#17becf;stroke-linecap:square;stroke-opacity:0.7;stroke-width:1.5;"/>
    </g>
    <g id="line2d_41"/>
    <g id="text_30">
     <!-- CLSTM -->
     <g transform="translate(490.49375 111.310937)scale(0.1 -0.1)">
      <use xlink:href="#DejaVuSans-43"/>
      <use x="69.824219" xlink:href="#DejaVuSans-4c"/>
      <use x="125.537109" xlink:href="#DejaVuSans-53"/>
      <use x="189.013672" xlink:href="#DejaVuSans-54"/>
      <use x="250.097656" xlink:href="#DejaVuSans-4d"/>
     </g>
    </g>
    <g id="line2d_42">
     <path d="M 462.49375 122.489062 
L 482.49375 122.489062 
" style="fill:none;stroke:#000000;stroke-dasharray:5.55,2.4;stroke-dashoffset:0;stroke-opacity:0.595;stroke-width:1.5;"/>
    </g>
    <g id="line2d_43"/>
    <g id="text_31">
     <!-- Referencia -->
     <g transform="translate(490.49375 125.989062)scale(0.1 -0.1)">
      <defs>
       <path d="M 2841 2188 
Q 3044 2119 3236 1894 
Q 3428 1669 3622 1275 
L 4263 0 
L 3584 0 
L 2988 1197 
Q 2756 1666 2539 1819 
Q 2322 1972 1947 1972 
L 1259 1972 
L 1259 0 
L 628 0 
L 628 4666 
L 2053 4666 
Q 2853 4666 3247 4331 
Q 3641 3997 3641 3322 
Q 3641 2881 3436 2590 
Q 3231 2300 2841 2188 
z
M 1259 4147 
L 1259 2491 
L 2053 2491 
Q 2509 2491 2742 2702 
Q 2975 2913 2975 3322 
Q 2975 3731 2742 3939 
Q 2509 4147 2053 4147 
L 1259 4147 
z
" id="DejaVuSans-52" transform="scale(0.015625)"/>
       <path d="M 3597 1894 
L 3597 1613 
L 953 1613 
Q 991 1019 1311 708 
Q 1631 397 2203 397 
Q 2534 397 2845 478 
Q 3156 559 3463 722 
L 3463 178 
Q 3153 47 2828 -22 
Q 2503 -91 2169 -91 
Q 1331 -91 842 396 
Q 353 884 353 1716 
Q 353 2575 817 3079 
Q 1281 3584 2069 3584 
Q 2775 3584 3186 3129 
Q 3597 2675 3597 1894 
z
M 3022 2063 
Q 3016 2534 2758 2815 
Q 2500 3097 2075 3097 
Q 1594 3097 1305 2825 
Q 1016 2553 972 2059 
L 3022 2063 
z
" id="DejaVuSans-65" transform="scale(0.015625)"/>
       <path d="M 2375 4863 
L 2375 4384 
L 1825 4384 
Q 1516 4384 1395 4259 
Q 1275 4134 1275 3809 
L 1275 3500 
L 2222 3500 
L 2222 3053 
L 1275 3053 
L 1275 0 
L 697 0 
L 697 3053 
L 147 3053 
L 147 3500 
L 697 3500 
L 697 3744 
Q 697 4328 969 4595 
Q 1241 4863 1831 4863 
L 2375 4863 
z
" id="DejaVuSans-66" transform="scale(0.015625)"/>
       <path d="M 2631 2963 
Q 2534 3019 2420 3045 
Q 2306 3072 2169 3072 
Q 1681 3072 1420 2755 
Q 1159 2438 1159 1844 
L 1159 0 
L 581 0 
L 581 3500 
L 1159 3500 
L 1159 2956 
Q 1341 3275 1631 3429 
Q 1922 3584 2338 3584 
Q 2397 3584 2469 3576 
Q 2541 3569 2628 3553 
L 2631 2963 
z
" id="DejaVuSans-72" transform="scale(0.015625)"/>
       <path d="M 3513 2113 
L 3513 0 
L 2938 0 
L 2938 2094 
Q 2938 2591 2744 2837 
Q 2550 3084 2163 3084 
Q 1697 3084 1428 2787 
Q 1159 2491 1159 1978 
L 1159 0 
L 581 0 
L 581 3500 
L 1159 3500 
L 1159 2956 
Q 1366 3272 1645 3428 
Q 1925 3584 2291 3584 
Q 2894 3584 3203 3211 
Q 3513 2838 3513 2113 
z
" id="DejaVuSans-6e" transform="scale(0.015625)"/>
       <path d="M 3122 3366 
L 3122 2828 
Q 2878 2963 2633 3030 
Q 2388 3097 2138 3097 
Q 1578 3097 1268 2742 
Q 959 2388 959 1747 
Q 959 1106 1268 751 
Q 1578 397 2138 397 
Q 2388 397 2633 464 
Q 2878 531 3122 666 
L 3122 134 
Q 2881 22 2623 -34 
Q 2366 -91 2075 -91 
Q 1284 -91 818 406 
Q 353 903 353 1747 
Q 353 2603 823 3093 
Q 1294 3584 2113 3584 
Q 2378 3584 2631 3529 
Q 2884 3475 3122 3366 
z
" id="DejaVuSans-63" transform="scale(0.015625)"/>
       <path d="M 603 3500 
L 1178 3500 
L 1178 0 
L 603 0 
L 603 3500 
z
M 603 4863 
L 1178 4863 
L 1178 4134 
L 603 4134 
L 603 4863 
z
" id="DejaVuSans-69" transform="scale(0.015625)"/>
       <path d="M 2194 1759 
Q 1497 1759 1228 1600 
Q 959 1441 959 1056 
Q 959 750 1161 570 
Q 1363 391 1709 391 
Q 2188 391 2477 730 
Q 2766 1069 2766 1631 
L 2766 1759 
L 2194 1759 
z
M 3341 1997 
L 3341 0 
L 2766 0 
L 2766 531 
Q 2569 213 2275 61 
Q 1981 -91 1556 -91 
Q 1019 -91 701 211 
Q 384 513 384 1019 
Q 384 1609 779 1909 
Q 1175 2209 1959 2209 
L 2766 2209 
L 2766 2266 
Q 2766 2663 2505 2880 
Q 2244 3097 1772 3097 
Q 1472 3097 1187 3025 
Q 903 2953 641 2809 
L 641 3341 
Q 956 3463 1253 3523 
Q 1550 3584 1831 3584 
Q 2591 3584 2966 3190 
Q 3341 2797 3341 1997 
z
" id="DejaVuSans-61" transform="scale(0.015625)"/>
      </defs>
      <use xlink:href="#DejaVuSans-52"/>
      <use x="64.982422" xlink:href="#DejaVuSans-65"/>
      <use x="126.505859" xlink:href="#DejaVuSans-66"/>
      <use x="161.710938" xlink:href="#DejaVuSans-65"/>
      <use x="223.234375" xlink:href="#DejaVuSans-72"/>
      <use x="262.097656" xlink:href="#DejaVuSans-65"/>
      <use x="323.621094" xlink:href="#DejaVuSans-6e"/>
      <use x="387" xlink:href="#DejaVuSans-63"/>
      <use x="441.980469" xlink:href="#DejaVuSans-69"/>
      <use x="469.763672" xlink:href="#DejaVuSans-61"/>
     </g>
    </g>
   </g>
  </g>
  <g id="text_32">
   <!-- Vista 3D -->
   <g transform="translate(254.48625 23.6775)scale(0.16 -0.16)">
    <defs>
     <path d="M 1831 0 
L 50 4666 
L 709 4666 
L 2188 738 
L 3669 4666 
L 4325 4666 
L 2547 0 
L 1831 0 
z
" id="DejaVuSans-56" transform="scale(0.015625)"/>
     <path d="M 2834 3397 
L 2834 2853 
Q 2591 2978 2328 3040 
Q 2066 3103 1784 3103 
Q 1356 3103 1142 2972 
Q 928 2841 928 2578 
Q 928 2378 1081 2264 
Q 1234 2150 1697 2047 
L 1894 2003 
Q 2506 1872 2764 1633 
Q 3022 1394 3022 966 
Q 3022 478 2636 193 
Q 2250 -91 1575 -91 
Q 1294 -91 989 -36 
Q 684 19 347 128 
L 347 722 
Q 666 556 975 473 
Q 1284 391 1588 391 
Q 1994 391 2212 530 
Q 2431 669 2431 922 
Q 2431 1156 2273 1281 
Q 2116 1406 1581 1522 
L 1381 1569 
Q 847 1681 609 1914 
Q 372 2147 372 2553 
Q 372 3047 722 3315 
Q 1072 3584 1716 3584 
Q 2034 3584 2315 3537 
Q 2597 3491 2834 3397 
z
" id="DejaVuSans-73" transform="scale(0.015625)"/>
     <path d="M 1172 4494 
L 1172 3500 
L 2356 3500 
L 2356 3053 
L 1172 3053 
L 1172 1153 
Q 1172 725 1289 603 
Q 1406 481 1766 481 
L 2356 481 
L 2356 0 
L 1766 0 
Q 1100 0 847 248 
Q 594 497 594 1153 
L 594 3053 
L 172 3053 
L 172 3500 
L 594 3500 
L 594 4494 
L 1172 4494 
z
" id="DejaVuSans-74" transform="scale(0.015625)"/>
    </defs>
    <use xlink:href="#DejaVuSans-56"/>
    <use x="66.158203" xlink:href="#DejaVuSans-69"/>
    <use x="93.941406" xlink:href="#DejaVuSans-73"/>
    <use x="146.041016" xlink:href="#DejaVuSans-74"/>
    <use x="185.25" xlink:href="#DejaVuSans-61"/>
    <use x="246.529297" xlink:href="#DejaVuSans-20"/>
    <use x="278.316406" xlink:href="#DejaVuSans-33"/>
    <use x="341.939453" xlink:href="#DejaVuSans-44"/>
   </g>
  </g>
 </g>
 <defs>
  <clipPath id="p3ea36e4319">
   <rect height="529.2" width="529.2" x="23.4" y="36"/>
  </clipPath>
 </defs>
</svg>
