<?xml version="1.0" encoding="utf-8" standalone="no"?>
<!DOCTYPE svg PUBLIC "-//W3C//DTD SVG 1.1//EN"
  "http://www.w3.org/Graphics/SVG/1.1/DTD/svg11.dtd">
<svg height="576pt" version="1.1" viewBox="0 0 576 576" width="576pt" xmlns="http://www.w3.org/2000/svg" xmlns:xlink="http://www.w3.org/1999/xlink">
 <metadata>
  <rdf:RDF xmlns:cc="http://creativecommons.org/ns#" xmlns:dc="http://purl.org/dc/elements/1.1/" xmlns:rdf="http://www.w3.org/1999/02/22-rdf-syntax-ns#">
   <cc:Work>
    <dc:type rdf:resource="http://purl.org/dc/dcmitype/StillImage"/>
    <dc:date>2022-02-28T00:29:16.624488</dc:date>
    <dc:format>image/svg+xml</dc:format>
    <dc:creator>
     <cc:Agent>
      <dc:title>Matplotlib v3.4.3, https://matplotlib.org/</dc:title>
     </cc:Agent>
    </dc:creator>
   </cc:Work>
  </rdf:RDF>
 </metadata>
 <defs>
  <style type="text/css">*{stroke-linecap:butt;stroke-linejoin:round;}</style>
 </defs>
 <g id="figure_1">
  <g id="patch_1">
   <path d="M 0 576 
L 576 576 
L 576 0 
L 0 0 
z
" style="fill:#ffffff;"/>
  </g>
  <g id="patch_2">
   <path d="M 10.8 565.2 
L 565.2 565.2 
L 565.2 10.8 
L 10.8 10.8 
z
" style="fill:#ffffff;"/>
  </g>
  <g id="pane3d_1">
   <g id="patch_3">
    <path d="M 52.661023 428.502727 
L 235.742009 275.040614 
L 233.197008 53.720814 
L 41.354653 193.718627 
" style="fill:#f2f2f2;opacity:0.5;stroke:#f2f2f2;stroke-linejoin:miter;"/>
   </g>
  </g>
  <g id="pane3d_2">
   <g id="patch_4">
    <path d="M 235.742009 275.040614 
L 529.521668 360.430763 
L 540.005628 131.487856 
L 233.197008 53.720814 
" style="fill:#e6e6e6;opacity:0.5;stroke:#e6e6e6;stroke-linejoin:miter;"/>
   </g>
  </g>
  <g id="pane3d_3">
   <g id="patch_5">
    <path d="M 52.661023 428.502727 
L 364.08181 530.212756 
L 529.521668 360.430763 
L 235.742009 275.040614 
" style="fill:#ececec;opacity:0.5;stroke:#ececec;stroke-linejoin:miter;"/>
   </g>
  </g>
  <g id="axis3d_1">
   <g id="line2d_1">
    <path d="M 52.661023 428.502727 
L 364.08181 530.212756 
" style="fill:none;stroke:#000000;stroke-linecap:square;stroke-width:0.8;"/>
   </g>
   <g id="text_1">
    <!-- x (m) -->
    <g transform="translate(174.526236 511.624996)rotate(-341.912962)scale(0.1 -0.1)">
     <defs>
      <path d="M 3513 3500 
L 2247 1797 
L 3578 0 
L 2900 0 
L 1881 1375 
L 863 0 
L 184 0 
L 1544 1831 
L 300 3500 
L 978 3500 
L 1906 2253 
L 2834 3500 
L 3513 3500 
z
" id="DejaVuSans-78" transform="scale(0.015625)"/>
      <path id="DejaVuSans-20" transform="scale(0.015625)"/>
      <path d="M 1984 4856 
Q 1566 4138 1362 3434 
Q 1159 2731 1159 2009 
Q 1159 1288 1364 580 
Q 1569 -128 1984 -844 
L 1484 -844 
Q 1016 -109 783 600 
Q 550 1309 550 2009 
Q 550 2706 781 3412 
Q 1013 4119 1484 4856 
L 1984 4856 
z
" id="DejaVuSans-28" transform="scale(0.015625)"/>
      <path d="M 3328 2828 
Q 3544 3216 3844 3400 
Q 4144 3584 4550 3584 
Q 5097 3584 5394 3201 
Q 5691 2819 5691 2113 
L 5691 0 
L 5113 0 
L 5113 2094 
Q 5113 2597 4934 2840 
Q 4756 3084 4391 3084 
Q 3944 3084 3684 2787 
Q 3425 2491 3425 1978 
L 3425 0 
L 2847 0 
L 2847 2094 
Q 2847 2600 2669 2842 
Q 2491 3084 2119 3084 
Q 1678 3084 1418 2786 
Q 1159 2488 1159 1978 
L 1159 0 
L 581 0 
L 581 3500 
L 1159 3500 
L 1159 2956 
Q 1356 3278 1631 3431 
Q 1906 3584 2284 3584 
Q 2666 3584 2933 3390 
Q 3200 3197 3328 2828 
z
" id="DejaVuSans-6d" transform="scale(0.015625)"/>
      <path d="M 513 4856 
L 1013 4856 
Q 1481 4119 1714 3412 
Q 1947 2706 1947 2009 
Q 1947 1309 1714 600 
Q 1481 -109 1013 -844 
L 513 -844 
Q 928 -128 1133 580 
Q 1338 1288 1338 2009 
Q 1338 2731 1133 3434 
Q 928 4138 513 4856 
z
" id="DejaVuSans-29" transform="scale(0.015625)"/>
     </defs>
     <use xlink:href="#DejaVuSans-78"/>
     <use x="59.179688" xlink:href="#DejaVuSans-20"/>
     <use x="90.966797" xlink:href="#DejaVuSans-28"/>
     <use x="129.980469" xlink:href="#DejaVuSans-6d"/>
     <use x="227.392578" xlink:href="#DejaVuSans-29"/>
    </g>
   </g>
   <g id="Line3DCollection_1">
    <path d="M 108.24612 446.656819 
L 288.36882 290.337151 
L 288.062612 67.627646 
" style="fill:none;stroke:#b0b0b0;stroke-width:0.8;"/>
    <path d="M 168.212694 466.241902 
L 345.050862 306.812382 
L 347.202363 82.617849 
" style="fill:none;stroke:#b0b0b0;stroke-width:0.8;"/>
    <path d="M 229.430852 486.235753 
L 402.81655 323.602587 
L 407.522322 97.9072 
" style="fill:none;stroke:#b0b0b0;stroke-width:0.8;"/>
    <path d="M 291.940191 506.651303 
L 461.69726 340.716885 
L 469.058172 113.504744 
" style="fill:none;stroke:#b0b0b0;stroke-width:0.8;"/>
    <path d="M 355.781996 527.502036 
L 521.725591 358.164751 
L 531.847052 129.419895 
" style="fill:none;stroke:#b0b0b0;stroke-width:0.8;"/>
   </g>
   <g id="xtick_1">
    <g id="line2d_2">
     <path d="M 109.815429 445.294893 
L 105.100724 449.386554 
" style="fill:none;stroke:#000000;stroke-linecap:square;stroke-width:0.8;"/>
    </g>
    <g id="text_2">
     <!-- −0.2 -->
     <g transform="translate(88.608089 470.057141)scale(0.1 -0.1)">
      <defs>
       <path d="M 678 2272 
L 4684 2272 
L 4684 1741 
L 678 1741 
L 678 2272 
z
" id="DejaVuSans-2212" transform="scale(0.015625)"/>
       <path d="M 2034 4250 
Q 1547 4250 1301 3770 
Q 1056 3291 1056 2328 
Q 1056 1369 1301 889 
Q 1547 409 2034 409 
Q 2525 409 2770 889 
Q 3016 1369 3016 2328 
Q 3016 3291 2770 3770 
Q 2525 4250 2034 4250 
z
M 2034 4750 
Q 2819 4750 3233 4129 
Q 3647 3509 3647 2328 
Q 3647 1150 3233 529 
Q 2819 -91 2034 -91 
Q 1250 -91 836 529 
Q 422 1150 422 2328 
Q 422 3509 836 4129 
Q 1250 4750 2034 4750 
z
" id="DejaVuSans-30" transform="scale(0.015625)"/>
       <path d="M 684 794 
L 1344 794 
L 1344 0 
L 684 0 
L 684 794 
z
" id="DejaVuSans-2e" transform="scale(0.015625)"/>
       <path d="M 1228 531 
L 3431 531 
L 3431 0 
L 469 0 
L 469 531 
Q 828 903 1448 1529 
Q 2069 2156 2228 2338 
Q 2531 2678 2651 2914 
Q 2772 3150 2772 3378 
Q 2772 3750 2511 3984 
Q 2250 4219 1831 4219 
Q 1534 4219 1204 4116 
Q 875 4013 500 3803 
L 500 4441 
Q 881 4594 1212 4672 
Q 1544 4750 1819 4750 
Q 2544 4750 2975 4387 
Q 3406 4025 3406 3419 
Q 3406 3131 3298 2873 
Q 3191 2616 2906 2266 
Q 2828 2175 2409 1742 
Q 1991 1309 1228 531 
z
" id="DejaVuSans-32" transform="scale(0.015625)"/>
      </defs>
      <use xlink:href="#DejaVuSans-2212"/>
      <use x="83.789062" xlink:href="#DejaVuSans-30"/>
      <use x="147.412109" xlink:href="#DejaVuSans-2e"/>
      <use x="179.199219" xlink:href="#DejaVuSans-32"/>
     </g>
    </g>
   </g>
   <g id="xtick_2">
    <g id="line2d_3">
     <path d="M 169.754687 464.851709 
L 165.121979 469.028355 
" style="fill:none;stroke:#000000;stroke-linecap:square;stroke-width:0.8;"/>
    </g>
    <g id="text_3">
     <!-- 0.0 -->
     <g transform="translate(152.795526 489.841183)scale(0.1 -0.1)">
      <use xlink:href="#DejaVuSans-30"/>
      <use x="63.623047" xlink:href="#DejaVuSans-2e"/>
      <use x="95.410156" xlink:href="#DejaVuSans-30"/>
     </g>
    </g>
   </g>
   <g id="xtick_3">
    <g id="line2d_4">
     <path d="M 230.944042 484.816403 
L 226.397801 489.080709 
" style="fill:none;stroke:#000000;stroke-linecap:square;stroke-width:0.8;"/>
    </g>
    <g id="text_4">
     <!-- 0.2 -->
     <g transform="translate(214.047642 510.038901)scale(0.1 -0.1)">
      <use xlink:href="#DejaVuSans-30"/>
      <use x="63.623047" xlink:href="#DejaVuSans-2e"/>
      <use x="95.410156" xlink:href="#DejaVuSans-32"/>
     </g>
    </g>
   </g>
   <g id="xtick_4">
    <g id="line2d_5">
     <path d="M 293.423014 505.201871 
L 288.967939 509.556625 
" style="fill:none;stroke:#000000;stroke-linecap:square;stroke-width:0.8;"/>
    </g>
    <g id="text_5">
     <!-- 0.4 -->
     <g transform="translate(276.594044 530.663406)scale(0.1 -0.1)">
      <defs>
       <path d="M 2419 4116 
L 825 1625 
L 2419 1625 
L 2419 4116 
z
M 2253 4666 
L 3047 4666 
L 3047 1625 
L 3713 1625 
L 3713 1100 
L 3047 1100 
L 3047 0 
L 2419 0 
L 2419 1100 
L 313 1100 
L 313 1709 
L 2253 4666 
z
" id="DejaVuSans-34" transform="scale(0.015625)"/>
      </defs>
      <use xlink:href="#DejaVuSans-30"/>
      <use x="63.623047" xlink:href="#DejaVuSans-2e"/>
      <use x="95.410156" xlink:href="#DejaVuSans-34"/>
     </g>
    </g>
   </g>
   <g id="xtick_5">
    <g id="line2d_6">
     <path d="M 357.232807 526.021555 
L 352.873841 530.469665 
" style="fill:none;stroke:#000000;stroke-linecap:square;stroke-width:0.8;"/>
    </g>
    <g id="text_6">
     <!-- 0.6 -->
     <g transform="translate(340.476193 551.72837)scale(0.1 -0.1)">
      <defs>
       <path d="M 2113 2584 
Q 1688 2584 1439 2293 
Q 1191 2003 1191 1497 
Q 1191 994 1439 701 
Q 1688 409 2113 409 
Q 2538 409 2786 701 
Q 3034 994 3034 1497 
Q 3034 2003 2786 2293 
Q 2538 2584 2113 2584 
z
M 3366 4563 
L 3366 3988 
Q 3128 4100 2886 4159 
Q 2644 4219 2406 4219 
Q 1781 4219 1451 3797 
Q 1122 3375 1075 2522 
Q 1259 2794 1537 2939 
Q 1816 3084 2150 3084 
Q 2853 3084 3261 2657 
Q 3669 2231 3669 1497 
Q 3669 778 3244 343 
Q 2819 -91 2113 -91 
Q 1303 -91 875 529 
Q 447 1150 447 2328 
Q 447 3434 972 4092 
Q 1497 4750 2381 4750 
Q 2619 4750 2861 4703 
Q 3103 4656 3366 4563 
z
" id="DejaVuSans-36" transform="scale(0.015625)"/>
      </defs>
      <use xlink:href="#DejaVuSans-30"/>
      <use x="63.623047" xlink:href="#DejaVuSans-2e"/>
      <use x="95.410156" xlink:href="#DejaVuSans-36"/>
     </g>
    </g>
   </g>
  </g>
  <g id="axis3d_2">
   <g id="line2d_7">
    <path d="M 529.521668 360.430763 
L 364.08181 530.212756 
" style="fill:none;stroke:#000000;stroke-linecap:square;stroke-width:0.8;"/>
   </g>
   <g id="text_7">
    <!-- y (m) -->
    <g transform="translate(470.139263 480.978729)rotate(-45.742112)scale(0.1 -0.1)">
     <defs>
      <path d="M 2059 -325 
Q 1816 -950 1584 -1140 
Q 1353 -1331 966 -1331 
L 506 -1331 
L 506 -850 
L 844 -850 
Q 1081 -850 1212 -737 
Q 1344 -625 1503 -206 
L 1606 56 
L 191 3500 
L 800 3500 
L 1894 763 
L 2988 3500 
L 3597 3500 
L 2059 -325 
z
" id="DejaVuSans-79" transform="scale(0.015625)"/>
     </defs>
     <use xlink:href="#DejaVuSans-79"/>
     <use x="59.179688" xlink:href="#DejaVuSans-20"/>
     <use x="90.966797" xlink:href="#DejaVuSans-28"/>
     <use x="129.980469" xlink:href="#DejaVuSans-6d"/>
     <use x="227.392578" xlink:href="#DejaVuSans-29"/>
    </g>
   </g>
   <g id="Line3DCollection_2">
    <path d="M 50.129183 187.315375 
L 61.004534 421.509031 
L 371.6532 522.442647 
" style="fill:none;stroke:#b0b0b0;stroke-width:0.8;"/>
    <path d="M 75.64646 168.694028 
L 85.284808 401.156824 
L 393.669181 499.848834 
" style="fill:none;stroke:#b0b0b0;stroke-width:0.8;"/>
    <path d="M 100.589728 150.491567 
L 109.042587 381.242582 
L 415.186418 477.766856 
" style="fill:none;stroke:#b0b0b0;stroke-width:0.8;"/>
    <path d="M 124.978141 132.694014 
L 132.294559 361.752318 
L 436.221668 456.179515 
" style="fill:none;stroke:#b0b0b0;stroke-width:0.8;"/>
    <path d="M 148.830009 115.288007 
L 155.056705 342.672636 
L 456.790946 435.070376 
" style="fill:none;stroke:#b0b0b0;stroke-width:0.8;"/>
    <path d="M 172.162846 98.260766 
L 177.344343 323.990696 
L 476.909566 414.423723 
" style="fill:none;stroke:#b0b0b0;stroke-width:0.8;"/>
    <path d="M 194.993409 81.600061 
L 199.172157 305.69419 
L 496.592177 394.224521 
" style="fill:none;stroke:#b0b0b0;stroke-width:0.8;"/>
    <path d="M 217.337746 65.294181 
L 220.554231 287.771311 
L 515.852803 374.458381 
" style="fill:none;stroke:#b0b0b0;stroke-width:0.8;"/>
   </g>
   <g id="xtick_6">
    <g id="line2d_8">
     <path d="M 369.035086 521.59199 
L 376.896211 524.146167 
" style="fill:none;stroke:#000000;stroke-linecap:square;stroke-width:0.8;"/>
    </g>
    <g id="text_8">
     <!-- −0.4 -->
     <g transform="translate(372.413333 543.488471)scale(0.1 -0.1)">
      <use xlink:href="#DejaVuSans-2212"/>
      <use x="83.789062" xlink:href="#DejaVuSans-30"/>
      <use x="147.412109" xlink:href="#DejaVuSans-2e"/>
      <use x="179.199219" xlink:href="#DejaVuSans-34"/>
     </g>
    </g>
   </g>
   <g id="xtick_7">
    <g id="line2d_9">
     <path d="M 391.071662 499.017552 
L 398.870874 501.513528 
" style="fill:none;stroke:#000000;stroke-linecap:square;stroke-width:0.8;"/>
    </g>
    <g id="text_9">
     <!-- −0.2 -->
     <g transform="translate(394.28773 520.734122)scale(0.1 -0.1)">
      <use xlink:href="#DejaVuSans-2212"/>
      <use x="83.789062" xlink:href="#DejaVuSans-30"/>
      <use x="147.412109" xlink:href="#DejaVuSans-2e"/>
      <use x="179.199219" xlink:href="#DejaVuSans-32"/>
     </g>
    </g>
   </g>
   <g id="xtick_8">
    <g id="line2d_10">
     <path d="M 412.609237 476.954295 
L 420.347307 479.394036 
" style="fill:none;stroke:#000000;stroke-linecap:square;stroke-width:0.8;"/>
    </g>
    <g id="text_10">
     <!-- 0.0 -->
     <g transform="translate(419.856294 498.495389)scale(0.1 -0.1)">
      <use xlink:href="#DejaVuSans-30"/>
      <use x="63.623047" xlink:href="#DejaVuSans-2e"/>
      <use x="95.410156" xlink:href="#DejaVuSans-30"/>
     </g>
    </g>
   </g>
   <g id="xtick_9">
    <g id="line2d_11">
     <path d="M 433.664571 455.38505 
L 441.342266 457.770435 
" style="fill:none;stroke:#000000;stroke-linecap:square;stroke-width:0.8;"/>
    </g>
    <g id="text_11">
     <!-- 0.2 -->
     <g transform="translate(440.755996 476.754944)scale(0.1 -0.1)">
      <use xlink:href="#DejaVuSans-30"/>
      <use x="63.623047" xlink:href="#DejaVuSans-2e"/>
      <use x="95.410156" xlink:href="#DejaVuSans-32"/>
     </g>
    </g>
   </g>
   <g id="xtick_10">
    <g id="line2d_12">
     <path d="M 454.25368 434.293408 
L 461.871761 436.626235 
" style="fill:none;stroke:#000000;stroke-linecap:square;stroke-width:0.8;"/>
    </g>
    <g id="text_12">
     <!-- 0.4 -->
     <g transform="translate(461.192602 455.496224)scale(0.1 -0.1)">
      <use xlink:href="#DejaVuSans-30"/>
      <use x="63.623047" xlink:href="#DejaVuSans-2e"/>
      <use x="95.410156" xlink:href="#DejaVuSans-34"/>
     </g>
    </g>
   </g>
   <g id="xtick_11">
    <g id="line2d_13">
     <path d="M 474.39188 413.663681 
L 481.951103 415.945667 
" style="fill:none;stroke:#000000;stroke-linecap:square;stroke-width:0.8;"/>
    </g>
    <g id="text_13">
     <!-- 0.6 -->
     <g transform="translate(481.181335 434.703395)scale(0.1 -0.1)">
      <use xlink:href="#DejaVuSans-30"/>
      <use x="63.623047" xlink:href="#DejaVuSans-2e"/>
      <use x="95.410156" xlink:href="#DejaVuSans-36"/>
     </g>
    </g>
   </g>
   <g id="xtick_12">
    <g id="line2d_14">
     <path d="M 494.093824 393.480859 
L 501.594937 395.713647 
" style="fill:none;stroke:#000000;stroke-linecap:square;stroke-width:0.8;"/>
    </g>
    <g id="text_14">
     <!-- 0.8 -->
     <g transform="translate(500.736758 414.361306)scale(0.1 -0.1)">
      <defs>
       <path d="M 2034 2216 
Q 1584 2216 1326 1975 
Q 1069 1734 1069 1313 
Q 1069 891 1326 650 
Q 1584 409 2034 409 
Q 2484 409 2743 651 
Q 3003 894 3003 1313 
Q 3003 1734 2745 1975 
Q 2488 2216 2034 2216 
z
M 1403 2484 
Q 997 2584 770 2862 
Q 544 3141 544 3541 
Q 544 4100 942 4425 
Q 1341 4750 2034 4750 
Q 2731 4750 3128 4425 
Q 3525 4100 3525 3541 
Q 3525 3141 3298 2862 
Q 3072 2584 2669 2484 
Q 3125 2378 3379 2068 
Q 3634 1759 3634 1313 
Q 3634 634 3220 271 
Q 2806 -91 2034 -91 
Q 1263 -91 848 271 
Q 434 634 434 1313 
Q 434 1759 690 2068 
Q 947 2378 1403 2484 
z
M 1172 3481 
Q 1172 3119 1398 2916 
Q 1625 2713 2034 2713 
Q 2441 2713 2670 2916 
Q 2900 3119 2900 3481 
Q 2900 3844 2670 4047 
Q 2441 4250 2034 4250 
Q 1625 4250 1398 4047 
Q 1172 3844 1172 3481 
z
" id="DejaVuSans-38" transform="scale(0.015625)"/>
      </defs>
      <use xlink:href="#DejaVuSans-30"/>
      <use x="63.623047" xlink:href="#DejaVuSans-2e"/>
      <use x="95.410156" xlink:href="#DejaVuSans-38"/>
     </g>
    </g>
   </g>
   <g id="xtick_13">
    <g id="line2d_15">
     <path d="M 513.373536 373.730574 
L 520.817279 375.91574 
" style="fill:none;stroke:#000000;stroke-linecap:square;stroke-width:0.8;"/>
    </g>
    <g id="text_15">
     <!-- 1.0 -->
     <g transform="translate(519.87281 394.455458)scale(0.1 -0.1)">
      <defs>
       <path d="M 794 531 
L 1825 531 
L 1825 4091 
L 703 3866 
L 703 4441 
L 1819 4666 
L 2450 4666 
L 2450 531 
L 3481 531 
L 3481 0 
L 794 0 
L 794 531 
z
" id="DejaVuSans-31" transform="scale(0.015625)"/>
      </defs>
      <use xlink:href="#DejaVuSans-31"/>
      <use x="63.623047" xlink:href="#DejaVuSans-2e"/>
      <use x="95.410156" xlink:href="#DejaVuSans-30"/>
     </g>
    </g>
   </g>
  </g>
  <g id="axis3d_3">
   <g id="line2d_16">
    <path d="M 529.521668 360.430763 
L 540.005628 131.487856 
" style="fill:none;stroke:#000000;stroke-linecap:square;stroke-width:0.8;"/>
   </g>
   <g id="text_16">
    <!-- z (m) -->
    <g transform="translate(577.326905 256.136884)rotate(-87.378092)scale(0.1 -0.1)">
     <defs>
      <path d="M 353 3500 
L 3084 3500 
L 3084 2975 
L 922 459 
L 3084 459 
L 3084 0 
L 275 0 
L 275 525 
L 2438 3041 
L 353 3041 
L 353 3500 
z
" id="DejaVuSans-7a" transform="scale(0.015625)"/>
     </defs>
     <use xlink:href="#DejaVuSans-7a"/>
     <use x="52.490234" xlink:href="#DejaVuSans-20"/>
     <use x="84.277344" xlink:href="#DejaVuSans-28"/>
     <use x="123.291016" xlink:href="#DejaVuSans-6d"/>
     <use x="220.703125" xlink:href="#DejaVuSans-29"/>
    </g>
   </g>
   <g id="Line3DCollection_3">
    <path d="M 529.729136 355.900186 
L 235.691542 270.65182 
L 52.43765 423.864231 
" style="fill:none;stroke:#b0b0b0;stroke-width:0.8;"/>
    <path d="M 531.050963 327.034866 
L 235.3701 242.698444 
L 51.014137 394.304068 
" style="fill:none;stroke:#b0b0b0;stroke-width:0.8;"/>
    <path d="M 532.387793 297.841916 
L 235.045184 214.442932 
L 49.573852 364.395612 
" style="fill:none;stroke:#b0b0b0;stroke-width:0.8;"/>
    <path d="M 533.739883 268.315728 
L 234.716737 185.880359 
L 48.116496 334.132669 
" style="fill:none;stroke:#b0b0b0;stroke-width:0.8;"/>
    <path d="M 535.107495 238.450562 
L 234.384702 157.005691 
L 46.641764 303.5089 
" style="fill:none;stroke:#b0b0b0;stroke-width:0.8;"/>
    <path d="M 536.4909 208.240546 
L 234.049018 127.813785 
L 45.149343 272.517814 
" style="fill:none;stroke:#b0b0b0;stroke-width:0.8;"/>
    <path d="M 537.890371 177.679674 
L 233.709626 98.299385 
L 43.638913 241.152761 
" style="fill:none;stroke:#b0b0b0;stroke-width:0.8;"/>
    <path d="M 539.30619 146.761798 
L 233.366464 68.457116 
L 42.110146 209.406931 
" style="fill:none;stroke:#b0b0b0;stroke-width:0.8;"/>
   </g>
   <g id="xtick_14">
    <g id="line2d_17">
     <path d="M 527.261248 355.184687 
L 534.670786 357.332885 
" style="fill:none;stroke:#000000;stroke-linecap:square;stroke-width:0.8;"/>
    </g>
    <g id="text_17">
     <!-- 0.0 -->
     <g transform="translate(540.070588 360.893785)scale(0.1 -0.1)">
      <use xlink:href="#DejaVuSans-30"/>
      <use x="63.623047" xlink:href="#DejaVuSans-2e"/>
      <use x="95.410156" xlink:href="#DejaVuSans-30"/>
     </g>
    </g>
   </g>
   <g id="xtick_15">
    <g id="line2d_18">
     <path d="M 528.568627 326.326834 
L 536.021576 328.452623 
" style="fill:none;stroke:#000000;stroke-linecap:square;stroke-width:0.8;"/>
    </g>
    <g id="text_18">
     <!-- 0.5 -->
     <g transform="translate(541.493577 332.055664)scale(0.1 -0.1)">
      <defs>
       <path d="M 691 4666 
L 3169 4666 
L 3169 4134 
L 1269 4134 
L 1269 2991 
Q 1406 3038 1543 3061 
Q 1681 3084 1819 3084 
Q 2600 3084 3056 2656 
Q 3513 2228 3513 1497 
Q 3513 744 3044 326 
Q 2575 -91 1722 -91 
Q 1428 -91 1123 -41 
Q 819 9 494 109 
L 494 744 
Q 775 591 1075 516 
Q 1375 441 1709 441 
Q 2250 441 2565 725 
Q 2881 1009 2881 1497 
Q 2881 1984 2565 2268 
Q 2250 2553 1709 2553 
Q 1456 2553 1204 2497 
Q 953 2441 691 2322 
L 691 4666 
z
" id="DejaVuSans-35" transform="scale(0.015625)"/>
      </defs>
      <use xlink:href="#DejaVuSans-30"/>
      <use x="63.623047" xlink:href="#DejaVuSans-2e"/>
      <use x="95.410156" xlink:href="#DejaVuSans-35"/>
     </g>
    </g>
   </g>
   <g id="xtick_16">
    <g id="line2d_19">
     <path d="M 529.89084 297.141568 
L 537.387711 299.244299 
" style="fill:none;stroke:#000000;stroke-linecap:square;stroke-width:0.8;"/>
    </g>
    <g id="text_19">
     <!-- 1.0 -->
     <g transform="translate(542.932694 302.890701)scale(0.1 -0.1)">
      <use xlink:href="#DejaVuSans-31"/>
      <use x="63.623047" xlink:href="#DejaVuSans-2e"/>
      <use x="95.410156" xlink:href="#DejaVuSans-30"/>
     </g>
    </g>
   </g>
   <g id="xtick_17">
    <g id="line2d_20">
     <path d="M 531.228139 267.623285 
L 538.769452 269.702291 
" style="fill:none;stroke:#000000;stroke-linecap:square;stroke-width:0.8;"/>
    </g>
    <g id="text_20">
     <!-- 1.5 -->
     <g transform="translate(544.388214 273.393306)scale(0.1 -0.1)">
      <use xlink:href="#DejaVuSans-31"/>
      <use x="63.623047" xlink:href="#DejaVuSans-2e"/>
      <use x="95.410156" xlink:href="#DejaVuSans-35"/>
     </g>
    </g>
   </g>
   <g id="xtick_18">
    <g id="line2d_21">
     <path d="M 532.580785 237.766252 
L 540.167069 239.820848 
" style="fill:none;stroke:#000000;stroke-linecap:square;stroke-width:0.8;"/>
    </g>
    <g id="text_21">
     <!-- 2.0 -->
     <g transform="translate(545.86042 243.557764)scale(0.1 -0.1)">
      <use xlink:href="#DejaVuSans-32"/>
      <use x="63.623047" xlink:href="#DejaVuSans-2e"/>
      <use x="95.410156" xlink:href="#DejaVuSans-30"/>
     </g>
    </g>
   </g>
   <g id="xtick_19">
    <g id="line2d_22">
     <path d="M 533.949043 207.564604 
L 541.580838 209.594087 
" style="fill:none;stroke:#000000;stroke-linecap:square;stroke-width:0.8;"/>
    </g>
    <g id="text_22">
     <!-- 2.5 -->
     <g transform="translate(547.349599 213.378227)scale(0.1 -0.1)">
      <use xlink:href="#DejaVuSans-32"/>
      <use x="63.623047" xlink:href="#DejaVuSans-2e"/>
      <use x="95.410156" xlink:href="#DejaVuSans-35"/>
     </g>
    </g>
   </g>
   <g id="xtick_20">
    <g id="line2d_23">
     <path d="M 535.333186 177.012341 
L 543.01104 179.015986 
" style="fill:none;stroke:#000000;stroke-linecap:square;stroke-width:0.8;"/>
    </g>
    <g id="text_23">
     <!-- 3.0 -->
     <g transform="translate(548.856049 182.84871)scale(0.1 -0.1)">
      <defs>
       <path d="M 2597 2516 
Q 3050 2419 3304 2112 
Q 3559 1806 3559 1356 
Q 3559 666 3084 287 
Q 2609 -91 1734 -91 
Q 1441 -91 1130 -33 
Q 819 25 488 141 
L 488 750 
Q 750 597 1062 519 
Q 1375 441 1716 441 
Q 2309 441 2620 675 
Q 2931 909 2931 1356 
Q 2931 1769 2642 2001 
Q 2353 2234 1838 2234 
L 1294 2234 
L 1294 2753 
L 1863 2753 
Q 2328 2753 2575 2939 
Q 2822 3125 2822 3475 
Q 2822 3834 2567 4026 
Q 2313 4219 1838 4219 
Q 1578 4219 1281 4162 
Q 984 4106 628 3988 
L 628 4550 
Q 988 4650 1302 4700 
Q 1616 4750 1894 4750 
Q 2613 4750 3031 4423 
Q 3450 4097 3450 3541 
Q 3450 3153 3228 2886 
Q 3006 2619 2597 2516 
z
" id="DejaVuSans-33" transform="scale(0.015625)"/>
      </defs>
      <use xlink:href="#DejaVuSans-33"/>
      <use x="63.623047" xlink:href="#DejaVuSans-2e"/>
      <use x="95.410156" xlink:href="#DejaVuSans-30"/>
     </g>
    </g>
   </g>
   <g id="xtick_21">
    <g id="line2d_24">
     <path d="M 536.733491 146.103321 
L 544.457962 148.080384 
" style="fill:none;stroke:#000000;stroke-linecap:square;stroke-width:0.8;"/>
    </g>
    <g id="text_24">
     <!-- 3.5 -->
     <g transform="translate(550.380069 151.96309)scale(0.1 -0.1)">
      <use xlink:href="#DejaVuSans-33"/>
      <use x="63.623047" xlink:href="#DejaVuSans-2e"/>
      <use x="95.410156" xlink:href="#DejaVuSans-35"/>
     </g>
    </g>
   </g>
  </g>
  <g id="axes_1">
   <g id="line2d_25">
    <path clip-path="url(#p3959707e0d)" d="M 221.814411 353.241667 
L 221.815617 353.325497 
L 221.866888 353.185588 
L 221.923135 353.193403 
L 222.308789 353.400225 
L 222.876142 353.941382 
L 223.479473 354.844875 
L 223.972616 356.030528 
L 224.266009 357.370699 
L 224.332067 358.733281 
L 224.198139 360.004873 
L 223.84157 361.383504 
L 223.219564 362.852175 
L 222.297436 364.393388 
L 221.048834 365.988944 
L 219.455789 367.619649 
L 217.508339 369.264937 
L 215.202852 370.902159 
L 212.540624 372.506093 
L 209.528673 374.049164 
L 206.181108 375.501864 
L 202.518939 376.832793 
L 198.569469 378.008786 
L 194.366794 378.995543 
L 189.952751 379.758555 
L 186.302188 380.185424 
L 182.574898 380.433465 
L 178.798934 380.49187 
L 175.003059 380.352795 
L 171.21673 380.011238 
L 167.46996 379.464734 
L 163.793131 378.71304 
L 160.216766 377.757882 
L 156.771295 376.602508 
L 153.486522 375.251794 
L 150.391044 373.711746 
L 147.511493 371.989164 
L 144.87169 370.091264 
L 142.492052 368.025089 
L 140.888052 366.369132 
L 139.444998 364.625093 
L 138.167372 362.795133 
L 137.058486 360.881452 
L 136.121165 358.885841 
L 135.357716 356.809994 
L 134.770479 354.655162 
L 134.361478 352.422571 
L 134.132752 350.11302 
L 134.086349 347.726695 
L 134.223014 345.264295 
L 134.544169 342.724926 
L 135.049457 340.10868 
L 136.009897 336.499177 
L 137.29816 332.749843 
L 138.91616 328.85946 
L 140.866375 324.828407 
L 143.150904 320.657341 
L 145.767191 316.348067 
L 148.708417 311.902329 
L 151.963149 307.323695 
L 156.451906 301.424537 
L 161.387672 295.349904 
L 166.747359 289.13014 
L 172.494614 282.802344 
L 178.581178 276.409026 
L 184.955409 270.00019 
L 191.56852 263.634952 
L 198.370284 257.379795 
L 205.305442 251.307539 
L 212.320771 245.498836 
L 217.959521 241.100611 
L 223.598294 236.972502 
L 229.216234 233.157005 
L 234.795059 229.693891 
L 238.945163 227.351299 
L 243.061998 225.24514 
L 247.143614 223.390921 
L 251.188658 221.8024 
L 255.195525 220.49131 
L 259.162291 219.466491 
L 263.086216 218.736204 
L 266.964639 218.303692 
L 270.794114 218.172438 
L 274.571412 218.341676 
L 278.293831 218.807047 
L 281.957573 219.566479 
L 285.56127 220.608951 
L 289.102083 221.928024 
L 292.579379 223.510489 
L 295.994224 225.340526 
L 299.345712 227.407467 
L 302.639571 229.68833 
L 305.877796 232.170167 
L 309.067546 234.832578 
L 313.252605 238.642661 
L 317.360213 242.741384 
L 321.384534 247.130069 
L 325.320545 251.809971 
L 329.164058 256.782281 
L 332.911747 262.048106 
L 336.561165 267.60847 
L 340.110755 273.464301 
L 343.559867 279.616426 
L 346.908755 286.065564 
L 350.158585 292.81232 
L 353.311425 299.85718 
L 356.370243 307.200505 
L 359.338888 314.842527 
L 362.222081 322.783346 
L 365.714464 333.129488 
L 369.094759 343.94207 
L 372.377555 355.22039 
L 375.57926 366.963411 
L 379.339869 381.666493 
L 383.044104 397.033788 
L 387.344157 415.796945 
L 391.681401 435.452491 
L 393.255528 440.423544 
L 395.285474 443.286964 
L 397.258004 445.371668 
L 398.50542 446.395194 
L 401.045649 448.367452 
L 402.44782 449.748918 
L 403.302485 450.880798 
L 403.923557 452.058803 
L 404.446618 453.618851 
L 404.851761 454.689486 
L 405.128427 454.72651 
L 405.376128 454.571618 
L 405.382704 454.333894 
L 405.148137 454.234346 
L 404.863001 454.342513 
L 404.858576 454.560673 
L 405.207735 454.762465 
L 405.644566 454.681254 
L 405.586032 454.48861 
L 405.27864 454.343732 
L 404.840181 454.364877 
L 404.792412 454.540669 
L 405.087355 454.72971 
L 405.574549 454.751284 
L 405.587119 454.601009 
L 405.297669 454.46979 
L 404.909909 454.509289 
L 404.96994 454.677703 
L 405.460937 454.828463 
L 405.73437 454.7034 
L 405.550566 454.542584 
L 405.101119 454.487758 
L 405.015916 454.612795 
L 405.265076 454.754906 
L 405.666739 454.755454 
L 405.626673 454.608525 
L 405.181682 454.484796 
L 404.973693 454.615149 
L 405.208697 454.764612 
L 405.612655 454.765956 
L 405.647092 454.681514 
L 405.405655 454.538203 
L 404.988064 454.536751 
L 404.954594 454.627657 
L 405.189282 454.780525 
L 405.633217 454.798109 
L 405.649812 454.656168 
L 405.361665 454.526405 
L 405.008445 454.564828 
L 405.02479 454.665555 
L 405.312562 454.795758 
L 405.667592 454.752016 
L 405.651421 454.657249 
L 405.36371 454.529431 
L 405.01549 454.57106 
L 405.118195 454.720514 
L 405.533204 454.785966 
L 405.631139 454.686582 
L 405.385322 454.55666 
L 405.015257 454.582975 
L 405.031287 454.677707 
L 405.307662 454.790124 
L 405.633812 454.752365 
L 405.57714 454.654818 
L 405.171926 454.5496 
L 405.017479 454.638697 
L 405.213293 454.772687 
L 405.640356 454.757359 
L 405.578775 454.65967 
L 405.16814 454.556579 
L 405.015181 454.647931 
L 405.216718 454.782607 
L 405.617057 454.798825 
L 405.641391 454.710991 
L 405.402582 454.573934 
L 405.02631 454.585063 
L 405.039326 454.671713 
L 405.292323 454.803216 
L 405.619578 454.755097 
L 405.595219 454.667061 
L 405.310534 454.557135 
L 405.030109 454.628692 
L 405.099391 454.73054 
L 405.51373 454.819441 
L 405.630373 454.717605 
L 405.418892 454.583609 
L 405.050175 454.58761 
L 405.033812 454.67841 
L 405.289166 454.805387 
L 405.642222 454.772144 
L 405.616003 454.676888 
L 405.329456 454.557381 
L 405.00808 454.613175 
L 405.072017 454.707649 
L 405.483487 454.820757 
L 405.636488 454.730239 
L 405.458504 454.591648 
L 405.062573 454.572596 
L 405.076185 454.704982 
L 405.367245 454.818292 
L 405.627365 454.732105 
L 405.450044 454.595204 
L 405.059424 454.579562 
L 405.090844 454.706868 
L 405.38001 454.820384 
L 405.632841 454.733867 
L 405.432594 454.594414 
L 405.048273 454.588093 
L 405.034285 454.673672 
L 405.28216 454.792413 
L 405.634628 454.776436 
L 405.60389 454.680127 
L 405.318353 454.563474 
L 405.010375 454.624345 
L 405.169151 454.760739 
L 405.62813 454.772341 
L 405.598649 454.677069 
L 405.318496 454.56269 
L 405.012876 454.625114 
L 405.173364 454.761632 
L 405.630725 454.772337 
L 405.59963 454.676984 
L 405.317867 454.563187 
L 405.013426 454.626813 
L 405.17569 454.763222 
L 405.632101 454.772471 
L 405.600006 454.677116 
L 405.318413 454.564308 
L 405.017192 454.629557 
L 405.181567 454.766297 
L 405.637118 454.774147 
L 405.602739 454.677785 
L 405.317394 454.563807 
L 405.01459 454.628003 
L 405.178476 454.763156 
L 405.589517 454.811098 
L 405.642744 454.730596 
L 405.60565 454.679048 
L 405.333779 454.561361 
L 405.022733 454.613162 
L 405.06438 454.713917 
L 405.365837 454.819767 
L 405.647287 454.740561 
L 405.475089 454.597971 
L 405.07023 454.5722 
L 405.023868 454.653411 
L 405.065026 454.703255 
L 405.354669 454.805028 
L 405.634241 454.740826 
L 405.457811 454.60344 
L 405.077995 454.58741 
L 405.081328 454.724059 
L 405.38155 454.828208 
L 405.622269 454.730957 
L 405.442909 454.597825 
L 405.06047 454.58797 
L 405.096605 454.721156 
L 405.394543 454.826414 
L 405.627795 454.729233 
L 405.422278 454.594337 
L 405.046811 454.597504 
L 405.046133 454.684913 
L 405.303639 454.798513 
L 405.638625 454.772353 
L 405.593326 454.675885 
L 405.195684 454.562193 
L 405.023293 454.644997 
L 405.204288 454.783399 
L 405.593937 454.795354 
L 405.631124 454.718328 
L 405.585357 454.669052 
L 405.180548 454.561183 
L 405.022242 454.649362 
L 405.209447 454.790649 
L 405.606804 454.799758 
L 405.644556 454.719028 
L 405.598393 454.667748 
L 405.184673 454.550939 
L 405.00678 454.631996 
L 405.030015 454.680126 
L 405.292724 454.803928 
L 405.638043 454.769333 
L 405.531036 454.624655 
L 405.116435 454.557518 
L 405.03248 454.621168 
L 405.052752 454.666349 
L 405.287659 454.802381 
L 405.624562 454.767876 
L 405.581569 454.671818 
L 405.192061 454.560048 
L 405.02449 454.64222 
L 405.049808 454.690393 
L 405.315232 454.802685 
L 405.633842 454.762728 
L 405.62821 454.71786 
L 405.391857 454.588069 
L 405.057969 454.612162 
L 405.070187 454.706786 
L 405.345371 454.823992 
L 405.626821 454.750569 
L 405.470161 454.612515 
L 405.066855 454.582686 
L 405.02919 454.659947 
L 405.073099 454.706282 
L 405.35368 454.826125 
L 405.638609 454.75014 
L 405.480647 454.608472 
L 405.077698 454.57461 
L 405.068476 454.701227 
L 405.347319 454.819432 
L 405.627398 454.745082 
L 405.469185 454.608017 
L 405.070711 454.581661 
L 405.036582 454.660126 
L 405.081798 454.706769 
L 405.475381 454.826988 
L 405.636052 454.745396 
L 405.448123 454.605364 
L 405.06554 454.595496 
L 405.091676 454.731686 
L 405.49752 454.823156 
L 405.607566 454.720627 
L 405.41115 454.595362 
L 405.046185 454.606734 
L 405.059161 454.694647 
L 405.433544 454.819577 
L 405.636076 454.764203 
L 405.626473 454.718239 
L 405.384378 454.589959 
L 405.062394 454.619582 
L 405.082774 454.71496 
L 405.362544 454.829098 
L 405.630123 454.749085 
L 405.444337 454.60855 
L 405.05682 454.594264 
L 405.084212 454.726293 
L 405.49128 454.823869 
L 405.642985 454.740612 
L 405.441673 454.599742 
L 405.050149 454.591689 
L 405.027728 454.677888 
L 405.273793 454.80181 
L 405.637045 454.782505 
L 405.617543 454.687927 
L 405.3414 454.568134 
L 405.023707 454.621991 
L 405.085314 454.717014 
L 405.494737 454.824627 
L 405.645985 454.737726 
L 405.445324 454.595515 
L 405.051157 454.584829 
L 405.081651 454.717857 
L 405.492652 454.82429 
L 405.643075 454.736506 
L 405.442678 454.594731 
L 405.052356 454.585505 
L 405.085655 454.719003 
L 405.490943 454.813984 
L 405.633502 454.730354 
L 405.425676 454.593874 
L 405.067238 454.595704 
L 405.052727 454.684979 
L 405.304208 454.811075 
L 405.61715 454.759546 
L 405.47677 454.619717 
L 405.082184 454.583654 
L 405.026669 454.661076 
L 405.063028 454.710632 
L 405.348979 454.816878 
L 405.621386 454.741355 
L 405.461248 454.608831 
L 405.074131 454.590475 
L 405.104853 454.715823 
L 405.497707 454.825441 
L 405.633767 454.737492 
L 405.42183 454.600319 
L 405.067859 454.603538 
L 405.057238 454.692695 
L 405.311496 454.816523 
L 405.618855 454.761036 
L 405.472627 454.620562 
L 405.101208 454.592328 
L 405.09786 454.724085 
L 405.38931 454.834342 
L 405.636469 454.74324 
L 405.422925 454.59721 
L 405.040973 454.589162 
L 405.029156 454.673017 
L 405.275763 454.799552 
L 405.634278 454.778208 
L 405.606766 454.680758 
L 405.3303 454.563478 
L 405.028977 454.621819 
L 405.187837 454.755596 
L 405.59574 454.80621 
L 405.649283 454.72651 
L 405.611607 454.674606 
L 405.327327 454.556678 
L 405.019943 454.614934 
L 405.170278 454.757419 
L 405.586379 454.804342 
L 405.623197 454.676051 
L 405.352686 454.551103 
L 405.021248 454.594229 
L 405.057849 454.691293 
L 405.463145 454.809931 
L 405.653145 454.739036 
L 405.63531 454.689323 
L 405.382035 454.558996 
L 405.024559 454.586724 
L 405.056074 454.677009 
L 405.327554 454.804532 
L 405.638714 454.741634 
L 405.598093 454.649479 
L 405.19447 454.537454 
L 405.025171 454.622366 
L 405.046306 454.672637 
L 405.312304 454.794247 
L 405.643973 454.751056 
L 405.601891 454.656441 
L 405.199726 454.541403 
L 405.018038 454.623223 
L 405.039131 454.67258 
L 405.30336 454.791193 
L 405.643959 454.756426 
L 405.603442 454.660296 
L 405.202772 454.543039 
L 405.02334 454.623033 
L 405.044586 454.671623 
L 405.305872 454.7884 
L 405.638847 454.754471 
L 405.638369 454.709807 
L 405.413007 454.576248 
L 405.043803 454.591408 
L 405.046866 454.684167 
L 405.317352 454.802832 
L 405.645457 454.754294 
L 405.600322 454.658484 
L 405.199909 454.54498 
L 405.025164 454.628028 
L 405.204909 454.766824 
L 405.606292 454.79023 
L 405.64569 454.710374 
L 405.600669 454.659495 
L 405.190406 454.543459 
L 405.01227 454.624939 
L 405.035322 454.673423 
L 405.29939 454.798681 
L 405.650267 454.763753 
L 405.545243 454.615382 
L 405.127796 454.541279 
L 405.028256 454.652555 
L 405.265688 454.786761 
L 405.641355 454.770839 
L 405.635875 454.678399 
L 405.364537 454.550843 
L 405.019644 454.589675 
L 405.131755 454.73447 
L 405.55683 454.805648 
L 405.639898 454.689154 
L 405.402425 454.557234 
L 405.031268 454.577991 
L 405.039844 454.671952 
L 405.314161 454.787747 
L 405.657023 454.753513 
L 405.61066 454.653303 
L 405.208263 454.531917 
L 405.032913 454.607187 
L 405.054965 454.652974 
L 405.295188 454.789148 
L 405.633349 454.752218 
L 405.535105 454.614162 
L 405.118778 454.549426 
L 405.038274 454.614061 
L 405.06068 454.659221 
L 405.300446 454.793266 
L 405.634437 454.75448 
L 405.522132 454.614501 
L 405.114439 454.558979 
L 405.039397 454.628047 
L 405.065164 454.675229 
L 405.326688 454.784073 
L 405.643255 454.751314 
L 405.585658 454.656458 
L 405.182345 454.555569 
L 405.054204 454.647114 
L 405.249009 454.787265 
L 405.617498 454.779677 
L 405.608818 454.687277 
L 405.351626 454.568466 
L 405.034816 454.61894 
L 405.092946 454.714506 
L 405.492729 454.803936 
L 405.631823 454.719011 
L 405.600832 454.672539 
L 405.321183 454.562683 
L 405.048274 454.630424 
L 405.219483 454.765463 
L 405.607031 454.794654 
L 405.583593 454.660587 
L 405.189889 454.558737 
L 405.041334 454.650357 
L 405.242543 454.788003 
L 405.610067 454.776009 
L 405.549436 454.639159 
L 405.145623 454.557082 
L 405.046343 454.659215 
L 405.279036 454.778773 
L 405.635926 454.7729 
L 405.61572 454.680325 
L 405.337943 454.562889 
L 405.028617 454.622846 
L 405.093122 454.720619 
L 405.501176 454.806763 
L 405.652132 454.723653 
L 405.449614 454.583378 
L 405.059055 454.576827 
L 405.037725 454.663544 
L 405.284217 454.787641 
L 405.645115 454.768299 
L 405.62356 454.673881 
L 405.34463 454.554861 
L 405.026489 454.610221 
L 405.089473 454.705502 
L 405.500732 454.811984 
L 405.651971 454.724645 
L 405.453778 454.583881 
L 405.058758 454.57228 
L 405.089238 454.704264 
L 405.500577 454.818599 
L 405.654993 454.72734 
L 405.467018 454.584603 
L 405.072433 454.565957 
L 405.098352 454.692377 
L 405.384468 454.807061 
L 405.641099 454.724134 
L 405.445641 454.586327 
L 405.062059 454.580542 
L 405.046441 454.666929 
L 405.295099 454.788109 
L 405.632379 454.756769 
L 405.602171 454.667249 
L 405.315179 454.559019 
L 405.059426 454.631212 
L 405.221599 454.776686 
L 405.611365 454.792644 
L 405.629852 454.704381 
L 405.394081 454.574585 
L 405.042321 454.599247 
L 405.070053 454.690328 
L 405.457822 454.808664 
L 405.647497 454.74468 
L 405.631351 454.697095 
L 405.376981 454.570396 
L 405.039738 454.608767 
L 405.073822 454.705219 
L 405.366414 454.81122 
L 405.653212 454.73823 
L 405.487074 454.595949 
L 405.084522 454.566661 
L 405.03207 454.646874 
L 405.070741 454.697094 
L 405.361058 454.802009 
L 405.657204 454.738767 
L 405.49135 454.594812 
L 405.081679 454.562918 
L 405.028981 454.641986 
L 405.06735 454.691482 
L 405.466508 454.809555 
L 405.656825 454.740782 
L 405.639801 454.691716 
L 405.386044 454.562882 
L 405.034201 454.594558 
L 405.067253 454.687546 
L 405.464614 454.814208 
L 405.656016 454.742759 
L 405.639553 454.693243 
L 405.391912 454.563662 
L 405.039263 454.591743 
L 405.071148 454.682606 
L 405.461421 454.816204 
L 405.652655 454.742981 
L 405.636517 454.693451 
L 405.396738 454.564339 
L 405.041981 454.588828 
L 405.134573 454.729337 
L 405.551021 454.80844 
L 405.630373 454.69267 
L 405.404646 454.565984 
L 405.053827 454.588017 
L 405.133237 454.732558 
L 405.55076 454.809562 
L 405.628935 454.692715 
L 405.403045 454.566086 
L 405.055366 454.588879 
L 405.136899 454.733354 
L 405.553701 454.8096 
L 405.628911 454.692151 
L 405.399385 454.565284 
L 405.05002 454.58845 
L 405.133116 454.732454 
L 405.54996 454.806913 
L 405.639964 454.696217 
L 405.408762 454.566374 
L 405.059968 454.586171 
L 405.063505 454.680738 
L 405.335284 454.801698 
L 405.649462 454.744173 
L 405.602672 454.650832 
L 405.197414 454.541873 
L 405.035964 454.629239 
L 405.219608 454.770999 
L 405.615638 454.783176 
L 405.654434 454.70428 
L 405.608905 454.653774 
L 405.20402 454.540667 
L 405.029002 454.624213 
L 405.209862 454.762392 
L 405.609908 454.784696 
L 405.648826 454.705726 
L 405.604279 454.655812 
L 405.209385 454.546898 
L 405.042336 454.633249 
L 405.228225 454.773485 
L 405.604634 454.773599 
L 405.577425 454.646257 
L 405.176111 454.553888 
L 405.058369 454.649103 
L 405.274999 454.770981 
L 405.636614 454.77672 
L 405.626857 454.687666 
L 405.354771 454.567825 
L 405.054658 454.622003 
L 405.107437 454.720377 
L 405.40936 454.818645 
L 405.632144 454.715327 
L 405.43986 454.584396 
L 405.061969 454.583539 
L 405.112988 454.719369 
L 405.419977 454.819909 
L 405.645012 454.761078 
L 405.644338 454.71355 
L 405.449104 454.578751 
L 405.068934 454.573317 
L 405.102917 454.710699 
L 405.406915 454.80919 
L 405.642523 454.713488 
L 405.446517 454.58009 
L 405.069945 454.577616 
L 405.107412 454.7165 
L 405.414195 454.815001 
L 405.649003 454.715911 
L 405.448706 454.578855 
L 405.068173 454.572106 
L 405.08945 454.710475 
L 405.498182 454.803595 
L 405.659516 454.723907 
L 405.46539 454.581823 
L 405.059883 454.565755 
L 405.028684 454.649396 
L 405.077386 454.698127 
L 405.49046 454.819651 
L 405.661634 454.731446 
L 405.497694 454.585996 
L 405.09354 454.549538 
L 405.025045 454.627941 
L 405.05611 454.679171 
L 405.338415 454.793759 
L 405.66102 454.743816 
L 405.601865 454.644224 
L 405.183902 454.5323 
L 405.019469 454.616843 
L 405.201766 454.757684 
L 405.606405 454.785356 
L 405.607724 454.653618 
L 405.32393 454.543928 
L 405.051173 454.612484 
L 405.115576 454.714568 
L 405.526788 454.807512 
L 405.631254 454.700973 
L 405.4249 454.571735 
L 405.05444 454.579935 
L 405.120104 454.717325 
L 405.530759 454.809558 
L 405.632605 454.702016 
L 405.422982 454.572095 
L 405.051245 454.580191 
L 405.105055 454.722567 
L 405.524141 454.81138 
L 405.661664 454.715207 
L 405.627352 454.664539 
L 405.340183 454.544683 
L 405.024804 454.602534 
L 405.087447 454.698359 
L 405.497879 454.805786 
L 405.648324 454.719529 
L 405.449881 454.580329 
L 405.055532 454.571066 
L 405.087966 454.704543 
L 405.499868 454.809522 
L 405.649631 454.72202 
L 405.452623 454.583356 
L 405.063712 454.575682 
L 405.045456 454.661349 
L 405.29068 454.78217 
L 405.649177 454.769486 
L 405.62364 454.673527 
L 405.34251 454.554026 
L 405.023135 454.608255 
L 405.164485 454.75195 
L 405.586033 454.804891 
L 405.637946 454.679471 
L 405.380689 454.55314 
L 405.032931 454.591093 
L 405.063351 454.68802 
L 405.353263 454.795657 
L 405.669825 454.743959 
L 405.514585 454.594782 
L 405.097581 454.546685 
L 405.052721 454.669996 
L 405.318341 454.799266 
L 405.656655 454.751311 
L 405.624837 454.656903 
L 405.33428 454.541996 
L 405.03356 454.608519 
L 405.193532 454.747975 
L 405.653474 454.762256 
L 405.621859 454.666145 
L 405.336604 454.550847 
L 405.032409 454.613839 
L 405.193108 454.750824 
L 405.649139 454.762289 
L 405.616411 454.666786 
L 405.332133 454.553694 
L 405.03229 454.619878 
L 405.197759 454.758065 
L 405.601901 454.789625 
L 405.651583 454.713635 
L 405.612051 454.663655 
L 405.218378 454.546219 
L 405.03438 454.625666 
L 405.053593 454.674873 
L 405.315095 454.795609 
L 405.649135 454.754426 
L 405.610428 454.660304 
L 405.210228 454.54346 
L 405.02481 454.623707 
L 405.04454 454.672957 
L 405.30775 454.792562 
L 405.655158 454.759244 
L 405.619449 454.662576 
L 405.332723 454.548829 
L 405.031511 454.613728 
L 405.196255 454.748446 
L 405.604208 454.795819 
L 405.654959 454.71597 
L 405.616799 454.665027 
L 405.226552 454.541483 
L 405.040005 454.613971 
L 405.057852 454.660361 
L 405.416064 454.816228 
L 405.657042 454.718666 
L 405.458856 454.578725 
L 405.066644 454.566908 
L 405.084625 454.70422 
L 405.387369 454.808677 
L 405.663313 454.727475 
L 405.485724 454.58504 
L 405.079644 454.561477 
L 405.035915 454.64341 
L 405.078655 454.693169 
L 405.481989 454.80625 
L 405.66067 454.733627 
L 405.63899 454.684579 
L 405.37777 454.560369 
L 405.036436 454.60179 
L 405.079954 454.696854 
L 405.487118 454.818368 
L 405.66941 454.739999 
L 405.504228 454.593152 
L 405.088352 454.55309 
L 405.06368 454.678181 
L 405.337504 454.799686 
L 405.665241 454.749884 
L 405.616641 454.652412 
L 405.201908 454.535204 
L 405.022029 454.615932 
L 405.044451 454.664054 
L 405.304771 454.788495 
L 405.648985 454.756254 
L 405.542318 454.613379 
L 405.126419 454.547927 
L 405.041859 454.612524 
L 405.062363 454.658202 
L 405.29983 454.795377 
L 405.642841 454.759647 
L 405.548303 454.619104 
L 405.128549 454.547616 
L 405.047591 454.657991 
L 405.284848 454.791356 
L 405.640429 454.764004 
L 405.629432 454.674874 
L 405.351277 454.553651 
L 405.030012 454.606908 
L 405.081815 454.70462 
L 405.492947 454.812301 
L 405.662431 454.732559 
L 405.475747 454.587177 
L 405.071027 454.563872 
L 405.034732 454.644563 
L 405.080079 454.692589 
L 405.482529 454.816988 
L 405.653903 454.733997 
L 405.480325 454.589637 
L 405.073215 454.559221 
L 405.064582 454.688784 
L 405.349287 454.808323 
L 405.654661 454.740017 
L 405.597206 454.64285 
L 405.1863 454.53479 
L 405.021479 454.62248 
L 405.21122 454.758769 
L 405.648864 454.748571 
L 405.594609 454.650809 
L 405.185955 454.541178 
L 405.022525 454.627091 
L 405.212514 454.760743 
L 405.616446 454.792346 
L 405.602619 454.654276 
L 405.314131 454.543387 
L 405.029727 454.610058 
L 405.091178 454.712077 
L 405.402363 454.808297 
L 405.651107 454.715115 
L 405.453998 454.576847 
L 405.06132 454.570385 
L 405.087994 454.70824 
L 405.493898 454.798764 
L 405.64805 454.719645 
L 405.449659 454.582142 
L 405.07224 454.57888 
L 405.050626 454.667239 
L 405.297498 454.795582 
L 405.622292 454.750569 
L 405.599638 454.66476 
L 405.315205 454.556325 
L 405.045305 454.626896 
L 405.212521 454.769488 
L 405.607585 454.793405 
L 405.587239 454.657675 
L 405.301555 454.554518 
L 405.034739 454.632583 
L 405.219146 454.770567 
L 405.616457 454.793914 
L 405.593466 454.65546 
L 405.304181 454.549741 
L 405.035386 454.624744 
L 405.207803 454.768548 
L 405.605648 454.790035 
L 405.597672 454.657326 
L 405.309456 454.550501 
L 405.044226 454.624102 
L 405.115014 454.726888 
L 405.532273 454.815053 
L 405.648373 454.710679 
L 405.435246 454.57424 
L 405.051469 454.57614 
L 405.034851 454.66595 
L 405.289444 454.790834 
L 405.652604 454.767219 
L 405.629486 454.671213 
L 405.352062 454.551489 
L 405.035563 454.605044 
L 405.174724 454.748817 
L 405.591475 454.804081 
L 405.624457 454.674615 
L 405.364366 454.553418 
L 405.043778 454.596819 
L 405.075354 454.696285 
L 405.369025 454.807011 
L 405.662678 454.736139 
L 405.498108 454.591195 
L 405.078825 454.554553 
L 405.019811 454.631928 
L 405.055446 454.680983 
L 405.452293 454.811645 
L 405.653046 454.743412 
L 405.640763 454.694616 
L 405.409377 454.564769 
L 405.050136 454.584996 
L 405.074157 454.673445 
L 405.33561 454.803075 
L 405.64843 454.746871 
L 405.507491 454.60384 
L 405.100912 454.559989 
L 405.043857 454.632991 
L 405.078275 454.679802 
L 405.459082 454.815256 
L 405.650202 454.746133 
L 405.634321 454.697383 
L 405.385477 454.569666 
L 405.037878 454.602254 
L 405.071852 454.696031 
L 405.47033 454.812916 
L 405.659469 454.743534 
L 405.641869 454.694203 
L 405.385731 454.564408 
L 405.031041 454.594945 
L 405.063706 454.687326 
L 405.461798 454.82208 
L 405.660267 454.746281 
L 405.525284 454.599729 
L 405.111349 454.54494 
L 405.040752 454.666205 
L 405.305401 454.787988 
L 405.655689 454.755723 
L 405.620723 454.658828 
L 405.334369 454.544385 
L 405.032342 454.608215 
L 405.194655 454.742729 
L 405.599096 454.791716 
L 405.6488 454.713229 
L 405.610071 454.662901 
L 405.328582 454.552414 
L 405.03612 454.621606 
L 405.206501 454.758772 
L 405.604899 454.786964 
L 405.648302 454.710499 
L 405.605684 454.660904 
L 405.206622 454.548367 
L 405.04246 454.632711 
L 405.064659 454.682613 
L 405.331596 454.802917 
L 405.630044 454.739384 
L 405.585882 454.650855 
L 405.184435 454.550111 
L 405.0553 454.639327 
L 405.249984 454.779533 
L 405.630766 454.785043 
L 405.63442 454.693673 
L 405.382923 454.566894 
L 405.041705 454.601685 
L 405.082383 454.693794 
L 405.47982 454.813461 
L 405.657223 454.738077 
L 405.482674 454.594526 
L 405.079423 454.568824 
L 405.037982 454.649484 
L 405.08146 454.698396 
L 405.483173 454.807831 
L 405.657466 454.733663 
L 405.63431 454.684526 
L 405.370257 454.561157 
L 405.041539 454.607888 
L 405.089181 454.704427 
L 405.489084 454.802902 
L 405.659018 454.729838 
L 405.633694 454.680861 
L 405.361157 454.557689 
L 405.038566 454.60703 
L 405.087219 454.703983 
L 405.488296 454.801558 
L 405.65723 454.727707 
L 405.631652 454.678804 
L 405.36037 454.556855 
L 405.042566 454.608164 
L 405.093061 454.705693 
L 405.495042 454.803244 
L 405.646892 454.72059 
L 405.619705 454.673222 
L 405.34381 454.556268 
L 405.055299 454.61241 
L 405.107551 454.711849 
L 405.408489 454.811523 
L 405.630286 454.755747 
L 405.629618 454.709822 
L 405.435518 454.579932 
L 405.055657 454.58062 
L 405.107198 454.717406 
L 405.41577 454.818064 
L 405.642064 454.711196 
L 405.449326 454.576627 
L 405.073661 454.571727 
L 405.108462 454.709404 
L 405.411484 454.808728 
L 405.630553 454.75182 
L 405.628381 454.705688 
L 405.421818 454.576259 
L 405.052549 454.58693 
L 405.061839 454.675546 
L 405.325896 454.784806 
L 405.646497 454.751045 
L 405.590708 454.655248 
L 405.191618 454.552546 
L 405.035092 454.643825 
L 405.233419 454.782869 
L 405.608386 454.774048 
L 405.636002 454.695342 
L 405.58602 454.646707 
L 405.181749 454.548579 
L 405.055377 454.642299 
L 405.253613 454.783374 
L 405.624018 454.775093 
L 405.615998 454.682922 
L 405.364647 454.564475 
L 405.044479 454.612013 
L 405.100719 454.705774 
L 405.500397 454.805727 
L 405.652271 454.726729 
L 405.451972 454.588887 
L 405.083785 454.584103 
L 405.06066 454.671678 
L 405.305865 454.799756 
L 405.631647 454.754002 
L 405.609218 454.666874 
L 405.322719 454.555232 
L 405.04692 454.621318 
L 405.111052 454.722175 
L 405.523734 454.812331 
L 405.646718 454.711872 
L 405.4429 454.57763 
L 405.07536 454.579021 
L 405.055503 454.669269 
L 405.306822 454.798632 
L 405.634341 454.750237 
L 405.611002 454.661977 
L 405.326111 454.550571 
L 405.041733 454.619901 
L 405.109605 454.721172 
L 405.524756 454.809826 
L 405.660534 454.71565 
L 405.625869 454.665725 
L 405.336949 454.547802 
L 405.019593 454.608347 
L 405.084377 454.705349 
L 405.503734 454.812007 
L 405.661038 454.723146 
L 405.484588 454.582741 
L 405.082323 454.558916 
L 405.074872 454.693293 
L 405.367605 454.806293 
L 405.669575 454.737988 
L 405.601083 454.638573 
L 405.182724 454.535781 
L 405.032789 454.627454 
L 405.23339 454.759628 
L 405.626982 454.783726 
L 405.646727 454.696368 
L 405.406905 454.564572 
L 405.043257 454.585465 
L 405.065463 454.675346 
L 405.449271 454.814727 
L 405.652619 454.747419 
L 405.641869 454.698858 
L 405.414492 454.568748 
L 405.054435 454.587259 
L 405.076713 454.675595 
L 405.454456 454.813084 
L 405.650788 454.746619 
L 405.637524 454.698527 
L 405.39535 454.571264 
L 405.047871 454.602693 
L 405.078887 454.696997 
L 405.364753 454.802064 
L 405.646179 454.733976 
L 405.480856 454.597677 
L 405.092892 454.576252 
L 405.110819 454.705267 
L 405.398032 454.81503 
L 405.64349 454.726667 
L 405.440224 454.589296 
L 405.066668 454.59108 
L 405.059326 454.679898 
L 405.317427 454.801027 
L 405.623625 454.744707 
L 405.499972 454.612434 
L 405.103871 454.576419 
L 405.05291 454.65307 
L 405.090967 454.701422 
L 405.37386 454.802695 
L 405.614541 454.719825 
L 405.432352 454.601601 
L 405.136938 454.633443 
L 405.176216 454.72658 
L 405.524663 454.799473 
L 405.58111 454.742568 
L 405.545652 454.701705 
L 405.214499 454.631698 
L 405.142825 454.691736 
L 405.163247 454.737017 
L 405.498387 454.827569 
L 405.570285 454.772534 
L 405.550997 454.73332 
L 405.317607 454.646595 
L 405.1444 454.696629 
L 405.162239 454.736481 
L 405.388 454.830998 
L 405.57368 454.79086 
L 405.556113 454.749841 
L 405.328386 454.654946 
L 405.328386 454.654946 
" style="fill:none;stroke:#1f77b4;stroke-linecap:square;stroke-opacity:0.7;stroke-width:1.5;"/>
   </g>
   <g id="line2d_26">
    <path clip-path="url(#p3959707e0d)" d="M 221.814411 353.241667 
L 221.932284 353.925697 
L 222.237007 354.246077 
L 222.628034 354.338462 
L 223.332948 354.226835 
L 223.527182 353.997137 
L 223.553727 353.565509 
L 223.492079 351.730623 
L 223.572057 351.505051 
L 223.652328 351.545796 
L 224.166119 351.86529 
L 224.908506 352.588844 
L 225.685706 353.661002 
L 226.415217 355.020598 
L 227.080592 356.75508 
L 227.515856 358.547585 
L 227.704114 360.250938 
L 227.678653 361.758237 
L 227.442068 363.317215 
L 226.952467 364.899899 
L 226.352975 366.163721 
L 225.550487 367.409084 
L 224.530948 368.620829 
L 223.283173 369.784238 
L 221.798988 370.88543 
L 220.073154 371.911442 
L 218.103409 372.850323 
L 215.890426 373.691107 
L 213.437815 374.423818 
L 210.045494 375.174265 
L 206.308767 375.726353 
L 202.254416 376.065885 
L 197.916692 376.179415 
L 193.338544 376.056003 
L 188.571699 375.688857 
L 183.675359 375.07572 
L 178.714549 374.220406 
L 173.75691 373.133814 
L 168.868579 371.832982 
L 164.110954 370.339031 
L 159.539215 368.674301 
L 155.202362 366.860071 
L 151.144214 364.914246 
L 147.40441 362.850604 
L 144.018661 360.680374 
L 141.586326 358.874559 
L 139.414874 357.012998 
L 137.516173 355.101908 
L 135.899989 353.147945 
L 134.57408 351.158058 
L 133.544112 349.139478 
L 132.813655 347.099654 
L 132.384187 345.046228 
L 132.259245 343.501969 
L 132.30212 341.957869 
L 132.617325 339.905065 
L 133.22227 337.866076 
L 134.109443 335.848245 
L 135.269187 333.858687 
L 136.690037 331.904196 
L 138.35916 329.991201 
L 140.262958 328.125712 
L 142.387201 326.313399 
L 145.329549 324.131144 
L 148.561818 322.050981 
L 152.051093 320.083268 
L 155.764108 318.237858 
L 159.668384 316.52403 
L 163.733701 314.950501 
L 168.788841 313.25845 
L 174.00618 311.791571 
L 179.366873 310.55986 
L 183.939045 309.719188 
L 188.608039 309.051437 
L 193.376608 308.559133 
L 199.231378 308.201476 
L 205.225982 308.097326 
L 211.350054 308.242896 
L 217.588799 308.631777 
L 223.9229 309.255485 
L 230.328456 310.103424 
L 236.777801 311.162586 
L 244.317793 312.644419 
L 251.828928 314.36482 
L 259.263606 316.29458 
L 266.575144 318.403483 
L 274.721496 320.995117 
L 282.580261 323.743413 
L 290.083986 326.614743 
L 297.162582 329.578905 
L 302.947935 332.225168 
L 308.292316 334.898337 
L 313.129556 337.574536 
L 316.815399 339.851999 
L 320.021574 342.098182 
L 322.287692 343.935827 
L 324.151463 345.734063 
L 325.333374 347.139383 
L 326.226946 348.511373 
L 326.821729 349.846477 
L 327.109074 351.14101 
L 327.118565 352.083014 
L 326.948793 352.998456 
L 326.598008 353.885798 
L 326.064946 354.743498 
L 325.069552 355.838442 
L 323.748793 356.874648 
L 322.104155 357.848787 
L 320.138872 358.757711 
L 317.857832 359.598408 
L 314.572585 360.549007 
L 310.820526 361.383343 
L 306.62185 362.096663 
L 301.027907 362.786805 
L 294.873498 363.289463 
L 288.213178 363.598261 
L 281.107958 363.707917 
L 273.624757 363.61396 
L 265.835499 363.311166 
L 257.817481 362.794035 
L 249.652691 362.057466 
L 241.426096 361.097368 
L 233.22344 359.912207 
L 225.128056 358.504883 
L 217.21696 356.883891 
L 209.557562 355.06325 
L 202.205971 353.061077 
L 195.207259 350.89737 
L 188.597531 348.591321 
L 182.406625 346.158804 
L 177.585456 344.044377 
L 173.08396 341.857573 
L 168.911006 339.604937 
L 165.072663 337.293348 
L 161.572274 334.929982 
L 158.410688 332.522185 
L 155.586666 330.07738 
L 153.097362 327.603032 
L 150.938568 325.106774 
L 149.104755 322.596486 
L 147.589103 320.08027 
L 146.383691 317.56637 
L 145.479856 315.063062 
L 144.868488 312.578569 
L 144.54002 310.12112 
L 144.484669 307.698925 
L 144.692808 305.32011 
L 145.155192 302.992751 
L 145.863272 300.724861 
L 146.809477 298.524421 
L 147.987419 296.399462 
L 149.392209 294.358106 
L 151.020812 292.408632 
L 152.872485 290.559502 
L 154.94932 288.819454 
L 157.257027 287.197495 
L 159.805466 285.702742 
L 162.607557 284.344282 
L 165.676556 283.130481 
L 169.021506 282.068438 
L 172.64616 281.163544 
L 176.549508 280.419551 
L 180.726247 279.838756 
L 185.167464 279.422108 
L 190.828801 279.138379 
L 196.826709 279.088301 
L 203.128361 279.267999 
L 209.695623 279.672354 
L 216.486185 280.295028 
L 224.629855 281.287146 
L 232.938716 282.551786 
L 241.332658 284.072962 
L 249.729757 285.832916 
L 258.047617 287.811597 
L 266.20467 289.987229 
L 274.121878 292.337087 
L 281.724215 294.837833 
L 288.941235 297.465117 
L 295.707616 300.193655 
L 301.102903 302.593079 
L 306.087578 305.030014 
L 310.628916 307.485639 
L 314.69632 309.939864 
L 318.259786 312.371213 
L 320.822495 314.363891 
L 322.996511 316.31292 
L 324.764462 318.206954 
L 325.874931 319.675669 
L 326.705795 321.097776 
L 327.248482 322.46873 
L 327.49539 323.784521 
L 327.482778 324.73306 
L 327.29858 325.647322 
L 326.941518 326.526046 
L 326.41092 327.36807 
L 325.433233 328.431738 
L 324.147491 329.425602 
L 322.55592 330.347321 
L 320.662206 331.194781 
L 317.878189 332.146862 
L 314.643451 332.976773 
L 310.974399 333.681527 
L 306.890451 334.258284 
L 301.47378 334.777798 
L 295.53605 335.10527 
L 289.126394 335.237058 
L 282.298633 335.170109 
L 275.110567 334.901745 
L 267.623583 334.429281 
L 259.902915 333.750248 
L 252.017813 332.863187 
L 244.04064 331.7679 
L 236.045201 330.465161 
L 228.105095 328.957328 
L 220.291706 327.248972 
L 212.67172 325.348183 
L 205.30481 323.267388 
L 198.242246 321.02247 
L 191.527119 318.63041 
L 185.195553 316.107663 
L 179.277612 313.469745 
L 174.679681 311.194284 
L 170.397214 308.857699 
L 166.438988 306.468473 
L 162.811576 304.034936 
L 159.519417 301.565208 
L 156.564902 299.067326 
L 153.948654 296.549372 
L 151.669693 294.019548 
L 149.725458 291.486153 
L 147.781766 288.492045 
L 146.19978 285.605227 
L 145.161896 283.277579 
L 144.381534 281.014215 
L 143.859918 278.808082 
L 143.595732 276.654148 
L 143.579372 274.55429 
L 143.794846 272.515126 
L 144.223712 270.544377 
L 144.847241 268.649215 
L 145.647288 266.835897 
L 146.816248 264.775628 
L 148.198423 262.835387 
L 149.813095 260.965565 
L 151.635348 259.18554 
L 153.652183 257.516973 
L 155.867185 255.976825 
L 158.299866 254.578972 
L 160.985287 253.33581 
L 163.450371 252.428554 
L 166.158096 251.64949 
L 169.147875 251.010413 
L 172.459485 250.52368 
L 176.126066 250.201899 
L 180.170958 250.057465 
L 184.608454 250.101532 
L 189.446466 250.343063 
L 195.784613 250.902597 
L 202.698804 251.762533 
L 210.172606 252.924355 
L 218.176857 254.3842 
L 228.128169 256.45176 
L 238.654166 258.889416 
L 249.645306 261.663517 
L 262.610643 265.18537 
L 275.789147 268.990107 
L 292.145029 273.956165 
L 310.781087 279.868641 
L 326.075873 284.937888 
L 336.891986 288.726332 
L 345.047364 291.794941 
L 350.957411 294.22511 
L 355.642484 296.389452 
L 358.635076 298.014511 
L 360.384478 299.197484 
L 361.288016 300.028503 
L 361.746422 300.755673 
L 361.796813 301.232763 
L 361.595419 301.651648 
L 361.142486 302.012954 
L 360.148664 302.406868 
L 358.712219 302.703518 
L 356.300526 302.943872 
L 352.517794 303.054636 
L 346.917452 302.967769 
L 337.945024 302.574444 
L 323.194431 301.663526 
L 305.778145 300.368311 
L 288.080227 298.825177 
L 272.85573 297.27854 
L 259.118139 295.656783 
L 247.182463 294.019466 
L 237.165736 292.440694 
L 227.457766 290.700186 
L 218.146841 288.805959 
L 209.302097 286.773111 
L 200.974799 284.620944 
L 193.205436 282.36647 
L 186.029194 280.021464 
L 180.524064 278.004131 
L 175.465796 275.933936 
L 170.864228 273.815392 
L 166.724858 271.653504 
L 163.04882 269.453795 
L 159.833268 267.222152 
L 157.588131 265.418038 
L 155.628803 263.600804 
L 153.949349 261.773771 
L 152.542926 259.940193 
L 151.401903 258.103303 
L 150.517981 256.26635 
L 149.882299 254.432629 
L 149.485442 252.605538 
L 149.317525 250.788583 
L 149.368317 248.985362 
L 149.627358 247.199568 
L 150.084164 245.434965 
L 150.728186 243.695445 
L 151.780333 241.562523 
L 153.088063 239.483389 
L 154.632167 237.466499 
L 156.395298 235.520471 
L 158.362392 233.65408 
L 160.521118 231.876186 
L 162.862286 230.195777 
L 165.380232 228.622109 
L 168.073492 227.164685 
L 170.945353 225.83315 
L 174.003532 224.636906 
L 177.257849 223.584484 
L 180.716366 222.682915 
L 184.383456 221.937268 
L 188.260726 221.350788 
L 192.347794 220.925555 
L 197.525171 220.630118 
L 202.990455 220.570022 
L 208.72704 220.744092 
L 214.711284 221.148588 
L 220.911947 221.777525 
L 227.290461 222.623184 
L 234.897587 223.871372 
L 242.610185 225.384881 
L 250.348656 227.143274 
L 258.031523 229.122524 
L 265.576348 231.295821 
L 272.900835 233.63412 
L 279.924334 236.106724 
L 286.569304 238.681656 
L 292.764163 241.327675 
L 298.445577 244.015644 
L 302.865707 246.333037 
L 306.841041 248.647436 
L 310.34814 250.946011 
L 313.365251 253.216554 
L 315.489029 255.078434 
L 317.242314 256.90447 
L 318.609218 258.685839 
L 319.414212 260.072568 
L 319.955467 261.420144 
L 320.227671 262.723998 
L 320.226772 263.97965 
L 319.949872 265.182735 
L 319.395289 266.329127 
L 318.562556 267.414975 
L 317.452359 268.436676 
L 316.06652 269.390895 
L 314.408002 270.274599 
L 312.480924 271.085088 
L 309.702531 271.991612 
L 306.52573 272.776049 
L 302.966438 273.435229 
L 298.216865 274.057309 
L 292.980334 274.491682 
L 287.297818 274.735112 
L 281.214051 274.784602 
L 274.777439 274.637521 
L 266.891209 274.214276 
L 258.682343 273.517663 
L 250.242571 272.54757 
L 241.666666 271.306328 
L 234.280572 270.030134 
L 226.925932 268.562195 
L 219.662108 266.90819 
L 212.545684 265.076348 
L 205.629466 263.077192 
L 198.961671 260.922744 
L 192.58534 258.626139 
L 186.538228 256.201273 
L 180.852811 253.662701 
L 175.556581 251.025286 
L 171.45714 248.762546 
L 167.655306 246.449726 
L 164.160356 244.09509 
L 160.979669 241.70681 
L 158.118778 239.293056 
L 155.581416 236.862096 
L 153.369565 234.422239 
L 151.483422 231.981804 
L 149.921466 229.549065 
L 148.680627 227.132194 
L 147.756506 224.739205 
L 147.241521 222.84728 
L 146.92228 220.979615 
L 146.79504 219.140114 
L 146.855769 217.332647 
L 147.100212 215.561059 
L 147.523958 213.829204 
L 148.122618 212.140943 
L 149.110534 210.097812 
L 150.357794 208.136361 
L 151.858234 206.264071 
L 153.607165 204.488385 
L 155.601406 202.816733 
L 157.839118 201.256514 
L 160.319422 199.815022 
L 163.04199 198.49925 
L 166.00664 197.315565 
L 169.212462 196.269375 
L 172.656859 195.364929 
L 176.335473 194.605288 
L 181.051295 193.887523 
L 186.085642 193.382446 
L 191.424155 193.089769 
L 197.046649 193.008283 
L 202.927694 193.13594 
L 209.038498 193.469263 
L 216.41541 194.111416 
L 224.004281 195.017551 
L 231.741476 196.178039 
L 239.55908 197.58266 
L 247.386973 199.219022 
L 255.153591 201.071671 
L 262.786205 203.122381 
L 270.211489 205.350448 
L 277.356417 207.733237 
L 284.149555 210.246671 
L 290.522711 212.865692 
L 295.602597 215.174956 
L 300.289384 217.525815 
L 304.548117 219.900939 
L 308.345804 222.282441 
L 311.135451 224.258597 
L 313.565889 226.216027 
L 315.622586 228.145323 
L 317.295537 230.038172 
L 318.354155 231.520821 
L 319.163428 232.970826 
L 319.723803 234.383693 
L 320.03661 235.754833 
L 320.104161 237.0798 
L 319.929725 238.354293 
L 319.517571 239.574164 
L 318.873268 240.735635 
L 318.00378 241.835305 
L 316.917592 242.870169 
L 315.624744 243.837524 
L 313.735963 244.948155 
L 311.569103 245.945838 
L 309.155071 246.828241 
L 305.981859 247.733994 
L 302.571833 248.474171 
L 298.393557 249.134788 
L 294.115643 249.589348 
L 289.254126 249.881176 
L 284.008988 249.962939 
L 278.680713 249.817799 
L 273.656949 249.460818 
L 269.695148 248.97443 
L 266.90099 248.420987 
L 265.371553 247.900345 
L 264.78396 247.487644 
L 264.668719 247.183231 
L 264.794318 246.883273 
L 265.197696 246.538403 
L 266.143374 246.053555 
L 268.307767 245.242535 
L 271.407041 244.042196 
L 272.466143 243.396506 
L 272.897106 242.892871 
L 272.98118 242.488058 
L 272.83396 242.083803 
L 272.407125 241.631759 
L 271.555171 241.085273 
L 269.950785 240.352548 
L 263.480821 237.634116 
L 262.63877 236.974803 
L 262.24238 236.405584 
L 262.139916 235.881303 
L 262.274675 235.353919 
L 262.673203 234.77572 
L 263.427199 234.103896 
L 264.812549 233.208252 
L 269.314108 230.486062 
L 269.463385 230.131605 
L 269.341337 229.880243 
L 268.94123 229.640368 
L 268.013146 229.378205 
L 264.541009 228.559664 
L 264.543851 228.548771 
L 264.71936 228.376473 
L 265.410154 228.086798 
L 267.356003 227.558765 
L 269.349511 227.139776 
L 267.076353 227.730194 
L 267.11488 227.729492 
L 269.117365 227.662482 
L 269.248657 227.806854 
L 269.244671 227.817742 
L 269.038333 228.018291 
L 268.827272 228.151233 
L 268.827272 228.151233 
" style="fill:none;stroke:#d62728;stroke-linecap:square;stroke-opacity:0.7;stroke-width:1.5;"/>
   </g>
   <g id="line2d_27">
    <path clip-path="url(#p3959707e0d)" d="M 221.814264 353.231471 
L 256.294003 394.614359 
L 256.294003 394.614359 
L 250.132661 394.143462 
L 250.132661 394.143462 
L 243.847848 393.49031 
L 243.847848 393.49031 
L 237.468412 392.656604 
L 237.468412 392.656604 
L 231.023628 391.644922 
L 231.023628 391.644922 
L 224.543038 390.458705 
L 224.543038 390.458705 
L 218.056286 389.102229 
L 218.056286 389.102229 
L 211.59296 387.580583 
L 211.59296 387.580583 
L 205.182434 385.899632 
L 205.182434 385.899632 
L 198.853712 384.065985 
L 198.853712 384.065985 
L 192.635273 382.086948 
L 192.635273 382.086948 
L 186.554932 379.970482 
L 186.554932 379.970482 
L 180.639698 377.725156 
L 180.639698 377.725156 
L 174.915641 375.360092 
L 174.915641 375.360092 
L 169.407771 372.884915 
L 169.407771 372.884915 
L 164.139925 370.309694 
L 164.139925 370.309694 
L 159.134659 367.644889 
L 159.134659 367.644889 
L 154.413157 364.901291 
L 154.413157 364.901291 
L 149.995147 362.089966 
L 149.995147 362.089966 
L 145.898823 359.222194 
L 145.898823 359.222194 
L 142.140787 356.309414 
L 142.140787 356.309414 
L 138.735994 353.363168 
L 138.735994 353.363168 
L 135.697709 350.395041 
L 135.697709 350.395041 
L 133.037478 347.416614 
L 133.037478 347.416614 
L 130.765102 344.439406 
L 130.765102 344.439406 
L 128.888623 341.474827 
L 128.888623 341.474827 
L 127.414325 338.534129 
L 127.414325 338.534129 
L 126.346733 335.628362 
L 126.346733 335.628362 
L 125.688626 332.768329 
L 125.688626 332.768329 
L 125.441056 329.964547 
L 125.441056 329.964547 
L 125.603375 327.22721 
L 125.603375 327.22721 
L 126.173263 324.566152 
L 126.173263 324.566152 
L 127.146767 321.990814 
L 127.146767 321.990814 
L 128.518344 319.51022 
L 128.518344 319.51022 
L 130.280905 317.132942 
L 130.280905 317.132942 
L 132.425863 314.86708 
L 132.425863 314.86708 
L 134.94319 312.720239 
L 134.94319 312.720239 
L 137.821471 310.699506 
L 137.821471 310.699506 
L 141.047962 308.811438 
L 141.047962 308.811438 
L 144.608649 307.06204 
L 144.608649 307.06204 
L 148.488313 305.456753 
L 148.488313 305.456753 
L 152.670594 304.000444 
L 152.670594 304.000444 
L 157.13805 302.697393 
L 157.13805 302.697393 
L 161.872232 301.551285 
L 161.872232 301.551285 
L 166.853743 300.565203 
L 166.853743 300.565203 
L 172.06231 299.741623 
L 172.06231 299.741623 
L 177.476852 299.082405 
L 177.476852 299.082405 
L 183.075551 298.588795 
L 183.075551 298.588795 
L 188.835921 298.261422 
L 188.835921 298.261422 
L 194.734878 298.100294 
L 194.734878 298.100294 
L 200.748817 298.104799 
L 200.748817 298.104799 
L 206.85368 298.273711 
L 206.85368 298.273711 
L 213.025036 298.605187 
L 213.025036 298.605187 
L 219.238154 299.096772 
L 219.238154 299.096772 
L 225.46808 299.745408 
L 225.46808 299.745408 
L 231.689718 300.547434 
L 231.689718 300.547434 
L 237.877908 301.498601 
L 237.877908 301.498601 
L 244.007513 302.594075 
L 244.007513 302.594075 
L 250.053495 303.828449 
L 250.053495 303.828449 
L 255.991008 305.19576 
L 255.991008 305.19576 
L 261.795481 306.689497 
L 261.795481 306.689497 
L 267.44271 308.302621 
L 267.44271 308.302621 
L 272.908945 310.027581 
L 272.908945 310.027581 
L 278.170986 311.856337 
L 278.170986 311.856337 
L 283.206274 313.780377 
L 283.206274 313.780377 
L 287.992983 315.790747 
L 287.992983 315.790747 
L 292.510122 317.878077 
L 292.510122 317.878077 
L 296.737624 320.032607 
L 296.737624 320.032607 
L 300.656443 322.244224 
L 300.656443 322.244224 
L 304.248648 324.502491 
L 304.248648 324.502491 
L 307.49752 326.796691 
L 307.49752 326.796691 
L 310.38764 329.115861 
L 310.38764 329.115861 
L 312.904978 331.448837 
L 312.904978 331.448837 
L 315.036982 333.784298 
L 315.036982 333.784298 
L 316.772657 336.110814 
L 316.772657 336.110814 
L 318.102645 338.416895 
L 318.102645 338.416895 
L 319.019294 340.69104 
L 319.019294 340.69104 
L 319.516727 342.921795 
L 319.516727 342.921795 
L 319.590896 345.097803 
L 319.590896 345.097803 
L 319.239637 347.207862 
L 319.239637 347.207862 
L 318.462706 349.240981 
L 318.462706 349.240981 
L 317.261815 351.186438 
L 317.261815 351.186438 
L 315.640649 353.033837 
L 315.640649 353.033837 
L 313.60488 354.773164 
L 313.60488 354.773164 
L 311.162164 356.394845 
L 311.162164 356.394845 
L 308.322128 357.889797 
L 308.322128 357.889797 
L 305.096344 359.249488 
L 305.096344 359.249488 
L 301.498289 360.465979 
L 301.498289 360.465979 
L 297.543299 361.531978 
L 297.543299 361.531978 
L 293.248499 362.440885 
L 293.248499 362.440885 
L 288.632732 363.18683 
L 288.632732 363.18683 
L 283.716466 363.764709 
L 283.716466 363.764709 
L 278.521701 364.170224 
L 278.521701 364.170224 
L 273.071849 364.3999 
L 273.071849 364.3999 
L 267.391622 364.451116 
L 267.391622 364.451116 
L 261.506894 364.322118 
L 261.506894 364.322118 
L 255.444569 364.012033 
L 255.444569 364.012033 
L 249.232429 363.520869 
L 249.232429 363.520869 
L 242.898986 362.849524 
L 242.898986 362.849524 
L 236.473324 361.99977 
L 236.473324 361.99977 
L 229.984939 360.97425 
L 229.984939 360.97425 
L 223.463579 359.776455 
L 223.463579 359.776455 
L 216.939079 358.410703 
L 216.939079 358.410703 
L 210.441199 356.882113 
L 210.441199 356.882113 
L 203.999468 355.196569 
L 203.999468 355.196569 
L 197.643023 353.360685 
L 197.643023 353.360685 
L 191.400463 351.381762 
L 191.400463 351.381762 
L 185.299698 349.267746 
L 185.299698 349.267746 
L 179.36781 347.027175 
L 179.36781 347.027175 
L 173.630926 344.669133 
L 173.630926 344.669133 
L 168.114092 342.203192 
L 168.114092 342.203192 
L 162.841159 339.639361 
L 162.841159 339.639361 
L 157.834679 336.988026 
L 157.834679 336.988026 
L 153.115813 334.259897 
L 153.115813 334.259897 
L 148.704245 331.465946 
L 148.704245 331.465946 
L 144.618112 328.617353 
L 144.618112 328.617353 
L 140.873938 325.725449 
L 140.873938 325.725449 
L 137.486586 322.801656 
L 137.486586 322.801656 
L 134.469215 319.857439 
L 134.469215 319.857439 
L 131.833247 316.904248 
L 131.833247 316.904248 
L 129.58835 313.953465 
L 129.58835 313.953465 
L 127.742421 311.016363 
L 127.742421 311.016363 
L 126.301586 308.104049 
L 126.301586 308.104049 
L 125.270204 305.227426 
L 125.270204 305.227426 
L 124.65088 302.397148 
L 124.65088 302.397148 
L 124.444483 299.623582 
L 124.444483 299.623582 
L 124.650176 296.91677 
L 124.650176 296.91677 
L 125.265446 294.286395 
L 125.265446 294.286395 
L 126.28614 291.741748 
L 126.28614 291.741748 
L 127.706512 289.291702 
L 127.706512 289.291702 
L 129.519267 286.944682 
L 129.519267 286.944682 
L 131.715613 284.708643 
L 131.715613 284.708643 
L 134.285312 282.591049 
L 134.285312 282.591049 
L 137.216738 280.59885 
L 137.216738 280.59885 
L 140.496939 278.738466 
L 140.496939 278.738466 
L 144.111692 277.015775 
L 144.111692 277.015775 
L 148.045571 275.436095 
L 148.045571 275.436095 
L 152.282007 274.004173 
L 152.282007 274.004173 
L 156.803356 272.724177 
L 156.803356 272.724177 
L 161.590966 271.599686 
L 161.590966 271.599686 
L 166.62524 270.633683 
L 166.62524 270.633683 
L 171.885712 269.82855 
L 171.885712 269.82855 
L 177.351108 269.186064 
L 177.351108 269.186064 
L 182.99942 268.70739 
L 182.99942 268.70739 
L 188.807979 268.393086 
L 188.807979 268.393086 
L 194.753522 268.243096 
L 194.753522 268.243096 
L 200.812268 268.256754 
L 200.812268 268.256754 
L 206.959992 268.432784 
L 206.959992 268.432784 
L 213.172097 268.769302 
L 213.172097 268.769302 
L 219.423695 269.263823 
L 219.423695 269.263823 
L 225.689682 269.913263 
L 225.689682 269.913263 
L 231.944816 270.713945 
L 231.944816 270.713945 
L 238.163801 271.661612 
L 238.163801 271.661612 
L 244.321368 272.751428 
L 244.321368 272.751428 
L 250.392361 273.977996 
L 250.392361 273.977996 
L 256.351818 275.335367 
L 256.351818 275.335367 
L 262.175067 276.817055 
L 262.175067 276.817055 
L 267.837808 278.41605 
L 267.837808 278.41605 
L 273.316209 280.124843 
L 273.316209 280.124843 
L 278.586997 281.935438 
L 278.586997 281.935438 
L 283.62755 283.839379 
L 283.62755 283.839379 
L 288.415998 285.827774 
L 288.415998 285.827774 
L 292.93131 287.891321 
L 292.93131 287.891321 
L 297.153396 290.020338 
L 297.153396 290.020338 
L 301.063203 292.204793 
L 301.063203 292.204793 
L 304.642806 294.434341 
L 304.642806 294.434341 
L 307.875505 296.698361 
L 307.875505 296.698361 
L 310.745917 298.985993 
L 310.745917 298.985993 
L 313.240065 301.286181 
L 313.240065 301.286181 
L 315.345464 303.58772 
L 315.345464 303.58772 
L 317.051205 305.8793 
L 317.051205 305.8793 
L 318.348028 308.149556 
L 318.348028 308.149556 
L 319.228402 310.387117 
L 319.228402 310.387117 
L 319.686583 312.580663 
L 319.686583 312.580663 
L 319.718674 314.718975 
L 319.718674 314.718975 
L 319.322676 316.790993 
L 319.322676 316.790993 
L 318.49853 318.785871 
L 318.49853 318.785871 
L 317.248143 320.693033 
L 317.248143 320.693033 
L 315.575414 322.502231 
L 315.575414 322.502231 
L 313.48624 324.203601 
L 313.48624 324.203601 
L 310.988515 325.787719 
L 310.988515 325.787719 
L 308.092115 327.245652 
L 308.092115 327.245652 
L 304.80887 328.569016 
L 304.80887 328.569016 
L 301.152527 329.750021 
L 301.152527 329.750021 
L 297.138696 330.78152 
L 297.138696 330.78152 
L 292.784782 331.657052 
L 292.784782 331.657052 
L 288.109913 332.370887 
L 288.109913 332.370887 
L 283.134845 332.918056 
L 283.134845 332.918056 
L 277.881861 333.294386 
L 277.881861 333.294386 
L 272.374661 333.496525 
L 272.374661 333.496525 
L 266.638236 333.521968 
L 266.638236 333.521968 
L 260.698737 333.369067 
L 260.698737 333.369067 
L 254.583336 333.037047 
L 254.583336 333.037047 
L 248.320075 332.526009 
L 248.320075 332.526009 
L 241.937715 331.83693 
L 241.937715 331.83693 
L 235.465574 330.971652 
L 235.465574 330.971652 
L 228.933374 329.932879 
L 228.933374 329.932879 
L 222.371068 328.724151 
L 222.371068 328.724151 
L 215.808681 327.349823 
L 215.808681 327.349823 
L 209.276149 325.815041 
L 209.276149 325.815041 
L 202.803152 324.125703 
L 202.803152 324.125703 
L 196.418967 322.288425 
L 196.418967 322.288425 
L 190.152304 320.3105 
L 190.152304 320.3105 
L 184.03117 318.19985 
L 184.03117 318.19985 
L 178.082723 315.964983 
L 178.082723 315.964983 
L 172.333143 313.614935 
L 172.333143 313.614935 
L 166.807511 311.159224 
L 166.807511 311.159224 
L 161.529691 308.607791 
L 161.529691 308.607791 
L 156.52223 305.970946 
L 156.52223 305.970946 
L 151.806263 303.259309 
L 151.806263 303.259309 
L 147.401432 300.483757 
L 147.401432 300.483757 
L 143.32581 297.655364 
L 143.32581 297.655364 
L 139.595844 294.785346 
L 139.595844 294.785346 
L 136.226304 291.885005 
L 136.226304 291.885005 
L 133.230236 288.965677 
L 133.230236 288.965677 
L 130.618943 286.038676 
L 130.618943 286.038676 
L 128.401953 283.115248 
L 128.401953 283.115248 
L 126.587018 280.206519 
L 126.587018 280.206519 
L 125.180104 277.32345 
L 125.180104 277.32345 
L 124.185401 274.476793 
L 124.185401 274.476793 
L 123.605338 271.677049 
L 123.605338 271.677049 
L 123.4406 268.934433 
L 123.4406 268.934433 
L 123.690159 266.258829 
L 123.690159 266.258829 
L 124.351304 263.659769 
L 124.351304 263.659769 
L 125.419684 261.146389 
L 125.419684 261.146389 
L 126.889348 258.72741 
L 126.889348 258.72741 
L 128.752793 256.411109 
L 128.752793 256.411109 
L 131.001018 254.205294 
L 131.001018 254.205294 
L 133.623574 252.117284 
L 133.623574 252.117284 
L 136.608626 250.153891 
L 136.608626 250.153891 
L 139.943008 248.321401 
L 139.943008 248.321401 
L 143.612289 246.62556 
L 143.612289 246.62556 
L 147.600831 245.071562 
L 147.600831 245.071562 
L 151.89186 243.664036 
L 151.89186 243.664036 
L 156.467526 242.407038 
L 156.467526 242.407038 
L 161.308971 241.304039 
L 161.308971 241.304039 
L 166.396402 240.357925 
L 166.396402 240.357925 
L 171.709152 239.570983 
L 171.709152 239.570983 
L 177.225756 238.944907 
L 177.225756 238.944907 
L 182.924016 238.480784 
L 182.924016 238.480784 
L 188.781077 238.179101 
L 188.781077 238.179101 
L 194.773497 238.039741 
L 194.773497 238.039741 
L 200.877318 238.061984 
L 200.877318 238.061984 
L 207.068145 238.244506 
L 207.068145 238.244506 
L 213.321218 238.585386 
L 213.321218 238.585386 
L 219.611488 239.082109 
L 219.611488 239.082109 
L 225.913699 239.731568 
L 225.913699 239.731568 
L 232.202465 240.530074 
L 232.202465 240.530074 
L 238.452351 241.473363 
L 238.452351 241.473363 
L 244.637959 242.556603 
L 244.637959 242.556603 
L 250.734008 243.774407 
L 250.734008 243.774407 
L 256.715425 245.120845 
L 256.715425 245.120845 
L 262.557433 246.589457 
L 262.557433 246.589457 
L 268.235639 248.173271 
L 268.235639 248.173271 
L 273.726126 249.864818 
L 273.726126 249.864818 
L 279.005549 251.656154 
L 279.005549 251.656154 
L 284.051225 253.538882 
L 284.051225 253.538882 
L 288.841233 255.504176 
L 288.841233 255.504176 
L 293.354508 257.542806 
L 293.354508 257.542806 
L 297.570939 259.645171 
L 297.570939 259.645171 
L 301.471461 261.801327 
L 301.471461 261.801327 
L 305.038158 264.001024 
L 305.038158 264.001024 
L 308.254351 266.233741 
L 308.254351 266.233741 
L 311.104693 268.488726 
L 311.104693 268.488726 
L 313.575261 270.755038 
L 313.575261 270.755038 
L 315.653638 273.021589 
L 315.653638 273.021589 
L 317.329002 275.277194 
L 317.329002 275.277194 
L 318.592196 277.510618 
L 318.592196 277.510618 
L 319.435809 279.710625 
L 319.435809 279.710625 
L 319.854231 281.866032 
L 319.854231 281.866032 
L 319.843719 283.965764 
L 319.843719 283.965764 
L 319.402445 285.998905 
L 319.402445 285.998905 
L 318.530533 287.954758 
L 318.530533 287.954758 
L 317.23009 289.822896 
L 317.23009 289.822896 
L 315.505231 291.593224 
L 315.505231 291.593224 
L 313.362081 293.256031 
L 313.362081 293.256031 
L 310.808773 294.802044 
L 310.808773 294.802044 
L 307.855437 296.222484 
L 307.855437 296.222484 
L 304.514165 297.509118 
L 304.514165 297.509118 
L 300.798976 298.654304 
L 300.798976 298.654304 
L 296.725756 299.651043 
L 296.725756 299.651043 
L 292.312195 300.493017 
L 292.312195 300.493017 
L 287.577708 301.174634 
L 287.577708 301.174634 
L 282.543339 301.691059 
L 282.543339 301.691059 
L 277.231662 302.038247 
L 277.231662 302.038247 
L 271.666663 302.212968 
L 271.666663 302.212968 
L 265.873618 302.212831 
L 265.873618 302.212831 
L 259.878956 302.036295 
L 259.878956 302.036295 
L 253.710118 301.682682 
L 253.710118 301.682682 
L 247.395409 301.152181 
L 247.395409 301.152181 
L 240.963838 300.445847 
L 240.963838 300.445847 
L 234.444965 299.565592 
L 234.444965 299.565592 
L 227.868731 298.514175 
L 227.868731 298.514175 
L 221.265299 297.295182 
L 221.265299 297.295182 
L 214.664887 295.913004 
L 214.664887 295.913004 
L 208.097601 294.372807 
L 208.097601 294.372807 
L 201.59328 292.6805 
L 201.59328 292.6805 
L 195.181332 290.842699 
L 195.181332 290.842699 
L 188.890585 288.866681 
L 188.890585 288.866681 
L 182.74914 286.760343 
L 182.74914 286.760343 
L 176.784229 284.532153 
L 176.784229 284.532153 
L 171.022087 282.1911 
L 171.022087 282.1911 
L 165.487825 279.746639 
L 165.487825 279.746639 
L 160.205321 277.20864 
L 160.205321 277.20864 
L 155.197115 274.587329 
L 155.197115 274.587329 
L 150.484315 271.893236 
L 150.484315 271.893236 
L 146.086516 269.137133 
L 146.086516 269.137133 
L 142.021731 266.329985 
L 142.021731 266.329985 
L 138.306324 263.482888 
L 138.306324 263.482888 
L 134.954969 260.607019 
L 134.954969 260.607019 
L 131.980603 257.71358 
L 131.980603 257.71358 
L 129.3944 254.813746 
L 129.3944 254.813746 
L 127.205753 251.91862 
L 127.205753 251.91862 
L 125.422261 249.039179 
L 125.422261 249.039179 
L 124.049731 246.186232 
L 124.049731 246.186232 
L 123.092183 243.370377 
L 123.092183 243.370377 
L 122.551866 240.601961 
L 122.551866 240.601961 
L 122.429279 237.891037 
L 122.429279 237.891037 
L 122.723201 235.247337 
L 122.723201 235.247337 
L 123.430724 232.680231 
L 123.430724 232.680231 
L 124.547294 230.198702 
L 124.547294 230.198702 
L 126.066752 227.811317 
L 126.066752 227.811317 
L 127.981389 225.526199 
L 127.981389 225.526199 
L 130.281991 223.351009 
L 130.281991 223.351009 
L 132.957897 221.292921 
L 132.957897 221.292921 
L 135.99706 219.358605 
L 135.99706 219.358605 
L 139.386102 217.554213 
L 139.386102 217.554213 
L 143.110378 215.885359 
L 143.110378 215.885359 
L 147.154041 214.357113 
L 147.154041 214.357113 
L 151.500107 212.973984 
L 151.500107 212.973984 
L 156.130518 211.739916 
L 156.130518 211.739916 
L 161.026214 210.658274 
L 161.026214 210.658274 
L 166.167198 209.731843 
L 166.167198 209.731843 
L 171.532607 208.962823 
L 171.532607 208.962823 
L 177.100779 208.352819 
L 177.100779 208.352819 
L 182.849327 207.902844 
L 182.849327 207.902844 
L 188.755209 207.613316 
L 188.755209 207.613316 
L 194.794801 207.484057 
L 194.794801 207.484057 
L 200.94397 207.514294 
L 200.94397 207.514294 
L 207.178147 207.70266 
L 207.178147 207.70266 
L 213.472408 208.047197 
L 213.472408 208.047197 
L 219.801545 208.545363 
L 219.801545 208.545363 
L 226.140147 209.194032 
L 226.140147 209.194032 
L 232.462683 209.989503 
L 232.462683 209.989503 
L 238.74358 210.927509 
L 238.74358 210.927509 
L 244.957306 212.003225 
L 244.957306 212.003225 
L 251.07846 213.211279 
L 251.07846 213.211279 
L 257.081855 214.545761 
L 257.081855 214.545761 
L 262.942607 216.000244 
L 262.942607 216.000244 
L 268.63623 217.567793 
L 268.63623 217.567793 
L 274.138723 219.240987 
L 274.138723 219.240987 
L 279.426667 221.011937 
L 279.426667 221.011937 
L 284.477319 222.872307 
L 284.477319 222.872307 
L 289.268709 224.813343 
L 289.268709 224.813343 
L 293.779736 226.825892 
L 293.779736 226.825892 
L 297.990266 228.900438 
L 297.990266 228.900438 
L 301.881228 231.02713 
L 301.881228 231.02713 
L 305.434712 233.195816 
L 305.434712 233.195816 
L 308.63406 235.396081 
L 308.63406 235.396081 
L 311.463965 237.617286 
L 311.463965 237.617286 
L 313.910556 239.848606 
L 313.910556 239.848606 
L 315.96149 242.079079 
L 315.96149 242.079079 
L 317.606028 244.297649 
L 317.606028 244.297649 
L 318.835122 246.493213 
L 318.835122 246.493213 
L 319.641478 248.654676 
L 319.641478 248.654676 
L 320.019628 250.770998 
L 320.019628 250.770998 
L 319.965983 252.831248 
L 319.965983 252.831248 
L 319.478886 254.824661 
L 319.478886 254.824661 
L 318.558648 256.740691 
L 318.558648 256.740691 
L 317.207581 258.569067 
L 317.207581 258.569067 
L 315.430016 260.299847 
L 315.430016 260.299847 
L 313.232308 261.923477 
L 313.232308 261.923477 
L 310.622836 263.430839 
L 310.622836 263.430839 
L 307.611985 264.81331 
L 307.611985 264.81331 
L 304.212112 266.062808 
L 304.212112 266.062808 
L 300.437509 267.171845 
L 300.437509 267.171845 
L 296.304344 268.133567 
L 296.304344 268.133567 
L 291.830594 268.941804 
L 291.830594 268.941804 
L 287.035964 269.591102 
L 287.035964 269.591102 
L 281.94179 270.07676 
L 281.94179 270.07676 
L 276.570938 270.39486 
L 276.570938 270.39486 
L 270.947684 270.542297 
L 270.947684 270.542297 
L 265.09759 270.516789 
L 265.09759 270.516789 
L 259.047365 270.316902 
L 259.047365 270.316902 
L 252.824724 269.942055 
L 252.824724 269.942055 
L 246.458234 269.392522 
L 246.458234 269.392522 
L 239.977157 268.669434 
L 239.977157 268.669434 
L 233.41129 267.77477 
L 233.41129 267.77477 
L 226.790802 266.711341 
L 226.790802 266.711341 
L 220.146063 265.482777 
L 220.146063 265.482777 
L 213.507483 264.093499 
L 213.507483 264.093499 
L 206.905343 262.548692 
L 206.905343 262.548692 
L 200.369635 260.854271 
L 200.369635 260.854271 
L 193.929904 259.016843 
L 193.929904 259.016843 
L 187.615092 257.04367 
L 187.615092 257.04367 
L 181.453394 254.942617 
L 181.453394 254.942617 
L 175.472117 252.722108 
L 175.472117 252.722108 
L 169.697546 250.391078 
L 169.697546 250.391078 
L 164.154825 247.958916 
L 164.154825 247.958916 
L 158.867843 245.435414 
L 158.867843 245.435414 
L 153.859131 242.830711 
L 153.859131 242.830711 
L 149.149768 240.155237 
L 149.149768 240.155237 
L 144.759304 237.419661 
L 144.759304 237.419661 
L 140.705684 234.634828 
L 140.705684 234.634828 
L 137.005193 231.811712 
L 137.005193 231.811712 
L 133.672403 228.961357 
L 133.672403 228.961357 
L 130.72014 226.094829 
L 130.72014 226.094829 
L 128.15945 223.22316 
L 128.15945 223.22316 
L 125.999585 220.357302 
L 125.999585 220.357302 
L 124.247993 217.508081 
L 124.247993 217.508081 
L 122.910317 214.686151 
L 122.910317 214.686151 
L 121.990406 211.901951 
L 121.990406 211.901951 
L 121.490326 209.165667 
L 121.490326 209.165667 
L 121.410389 206.487194 
L 121.410389 206.487194 
L 121.749179 203.876101 
L 121.749179 203.876101 
L 122.503589 201.341599 
L 122.503589 201.341599 
L 123.668858 198.892511 
L 123.668858 198.892511 
L 125.238622 196.537249 
L 125.238622 196.537249 
L 127.204958 194.283782 
L 127.204958 194.283782 
L 129.558442 192.13962 
L 129.558442 192.13962 
L 132.288199 190.111791 
L 132.288199 190.111791 
L 135.381966 188.206823 
L 135.381966 188.206823 
L 138.826151 186.43073 
L 138.826151 186.43073 
L 142.605897 184.788996 
L 142.605897 184.788996 
L 146.705144 183.286564 
L 146.705144 183.286564 
L 151.106697 181.927824 
L 151.106697 181.927824 
L 155.792291 180.716607 
L 155.792291 180.716607 
L 160.742658 179.656174 
L 160.742658 179.656174 
L 165.937599 178.74921 
L 165.937599 178.74921 
L 171.356052 177.997824 
L 171.356052 177.997824 
L 176.976158 177.403537 
L 176.976158 177.403537 
L 182.77534 176.967289 
L 182.77534 176.967289 
L 188.730366 176.68943 
L 188.730366 176.68943 
L 194.817431 176.569722 
L 194.817431 176.569722 
L 201.012224 176.607341 
L 201.012224 176.607341 
L 207.290003 176.800879 
L 207.290003 176.800879 
L 213.625678 177.148345 
L 213.625678 177.148345 
L 219.993879 177.64717 
L 219.993879 177.64717 
L 226.369043 178.294211 
L 226.369043 178.294211 
L 232.725491 179.08576 
L 232.725491 179.08576 
L 239.037509 180.017551 
L 239.037509 180.017551 
L 245.279435 181.084767 
L 245.279435 181.084767 
L 251.425743 182.282054 
L 251.425743 182.282054 
L 257.451132 183.603528 
L 257.451132 183.603528 
L 263.330614 185.042797 
L 263.330614 185.042797 
L 269.039607 186.592967 
L 269.039607 186.592967 
L 274.554025 188.24667 
L 274.554025 188.24667 
L 279.850376 189.996075 
L 279.850376 189.996075 
L 284.905856 191.832913 
L 284.905856 191.832913 
L 289.698447 193.748503 
L 289.698447 193.748503 
L 294.207012 195.733777 
L 294.207012 195.733777 
L 298.411394 197.779308 
L 298.411394 197.779308 
L 302.292517 199.875341 
L 302.292517 199.875341 
L 305.832475 202.011828 
L 305.832475 202.011828 
L 309.014636 204.178465 
L 309.014636 204.178465 
L 311.823731 206.364729 
L 311.823731 206.364729 
L 314.245944 208.559918 
L 314.245944 208.559918 
L 316.269004 210.753199 
L 316.269004 210.753199 
L 317.882263 212.933649 
L 317.882263 212.933649 
L 319.076776 215.090305 
L 319.076776 215.090305 
L 319.845375 217.212214 
L 319.845375 217.212214 
L 320.182731 219.288484 
L 320.182731 219.288484 
L 320.085414 221.308334 
L 320.085414 221.308334 
L 319.551939 223.261154 
L 319.551939 223.261154 
L 318.582808 225.136552 
L 318.582808 225.136552 
L 317.180539 226.924415 
L 317.180539 226.924415 
L 315.349682 228.61496 
L 315.349682 228.61496 
L 313.096828 230.198792 
L 313.096828 230.198792 
L 310.430602 231.666951 
L 310.430602 231.666951 
L 307.361646 233.010973 
L 307.361646 233.010973 
L 303.902587 234.22293 
L 303.902587 234.22293 
L 300.067995 235.295488 
L 300.067995 235.295488 
L 295.874321 236.221943 
L 295.874321 236.221943 
L 291.339832 236.99627 
L 291.339832 236.99627 
L 286.484526 237.613154 
L 286.484526 237.613154 
L 281.330034 238.068031 
L 281.330034 238.068031 
L 275.899517 238.357111 
L 275.899517 238.357111 
L 270.217545 238.477408 
L 270.217545 238.477408 
L 264.309966 238.426754 
L 264.309966 238.426754 
" style="fill:none;stroke:#000000;stroke-dasharray:5.55,2.4;stroke-dashoffset:0;stroke-opacity:0.595;stroke-width:1.5;"/>
   </g>
   <g id="legend_1">
    <g id="patch_6">
     <path d="M 473.09375 62.834375 
L 558.2 62.834375 
Q 560.2 62.834375 560.2 60.834375 
L 560.2 17.8 
Q 560.2 15.8 558.2 15.8 
L 473.09375 15.8 
Q 471.09375 15.8 471.09375 17.8 
L 471.09375 60.834375 
Q 471.09375 62.834375 473.09375 62.834375 
z
" style="fill:#ffffff;opacity:0.8;stroke:#cccccc;stroke-linejoin:miter;"/>
    </g>
    <g id="line2d_28">
     <path d="M 475.09375 23.898438 
L 495.09375 23.898438 
" style="fill:none;stroke:#1f77b4;stroke-linecap:square;stroke-opacity:0.7;stroke-width:1.5;"/>
    </g>
    <g id="line2d_29"/>
    <g id="text_25">
     <!-- DSLPID -->
     <g transform="translate(503.09375 27.398438)scale(0.1 -0.1)">
      <defs>
       <path d="M 1259 4147 
L 1259 519 
L 2022 519 
Q 2988 519 3436 956 
Q 3884 1394 3884 2338 
Q 3884 3275 3436 3711 
Q 2988 4147 2022 4147 
L 1259 4147 
z
M 628 4666 
L 1925 4666 
Q 3281 4666 3915 4102 
Q 4550 3538 4550 2338 
Q 4550 1131 3912 565 
Q 3275 0 1925 0 
L 628 0 
L 628 4666 
z
" id="DejaVuSans-44" transform="scale(0.015625)"/>
       <path d="M 3425 4513 
L 3425 3897 
Q 3066 4069 2747 4153 
Q 2428 4238 2131 4238 
Q 1616 4238 1336 4038 
Q 1056 3838 1056 3469 
Q 1056 3159 1242 3001 
Q 1428 2844 1947 2747 
L 2328 2669 
Q 3034 2534 3370 2195 
Q 3706 1856 3706 1288 
Q 3706 609 3251 259 
Q 2797 -91 1919 -91 
Q 1588 -91 1214 -16 
Q 841 59 441 206 
L 441 856 
Q 825 641 1194 531 
Q 1563 422 1919 422 
Q 2459 422 2753 634 
Q 3047 847 3047 1241 
Q 3047 1584 2836 1778 
Q 2625 1972 2144 2069 
L 1759 2144 
Q 1053 2284 737 2584 
Q 422 2884 422 3419 
Q 422 4038 858 4394 
Q 1294 4750 2059 4750 
Q 2388 4750 2728 4690 
Q 3069 4631 3425 4513 
z
" id="DejaVuSans-53" transform="scale(0.015625)"/>
       <path d="M 628 4666 
L 1259 4666 
L 1259 531 
L 3531 531 
L 3531 0 
L 628 0 
L 628 4666 
z
" id="DejaVuSans-4c" transform="scale(0.015625)"/>
       <path d="M 1259 4147 
L 1259 2394 
L 2053 2394 
Q 2494 2394 2734 2622 
Q 2975 2850 2975 3272 
Q 2975 3691 2734 3919 
Q 2494 4147 2053 4147 
L 1259 4147 
z
M 628 4666 
L 2053 4666 
Q 2838 4666 3239 4311 
Q 3641 3956 3641 3272 
Q 3641 2581 3239 2228 
Q 2838 1875 2053 1875 
L 1259 1875 
L 1259 0 
L 628 0 
L 628 4666 
z
" id="DejaVuSans-50" transform="scale(0.015625)"/>
       <path d="M 628 4666 
L 1259 4666 
L 1259 0 
L 628 0 
L 628 4666 
z
" id="DejaVuSans-49" transform="scale(0.015625)"/>
      </defs>
      <use xlink:href="#DejaVuSans-44"/>
      <use x="77.001953" xlink:href="#DejaVuSans-53"/>
      <use x="140.478516" xlink:href="#DejaVuSans-4c"/>
      <use x="196.191406" xlink:href="#DejaVuSans-50"/>
      <use x="256.494141" xlink:href="#DejaVuSans-49"/>
      <use x="285.986328" xlink:href="#DejaVuSans-44"/>
     </g>
    </g>
    <g id="line2d_30">
     <path d="M 475.09375 38.576563 
L 495.09375 38.576563 
" style="fill:none;stroke:#d62728;stroke-linecap:square;stroke-opacity:0.7;stroke-width:1.5;"/>
    </g>
    <g id="line2d_31"/>
    <g id="text_26">
     <!-- LSTMCNN -->
     <g transform="translate(503.09375 42.076563)scale(0.1 -0.1)">
      <defs>
       <path d="M -19 4666 
L 3928 4666 
L 3928 4134 
L 2272 4134 
L 2272 0 
L 1638 0 
L 1638 4134 
L -19 4134 
L -19 4666 
z
" id="DejaVuSans-54" transform="scale(0.015625)"/>
       <path d="M 628 4666 
L 1569 4666 
L 2759 1491 
L 3956 4666 
L 4897 4666 
L 4897 0 
L 4281 0 
L 4281 4097 
L 3078 897 
L 2444 897 
L 1241 4097 
L 1241 0 
L 628 0 
L 628 4666 
z
" id="DejaVuSans-4d" transform="scale(0.015625)"/>
       <path d="M 4122 4306 
L 4122 3641 
Q 3803 3938 3442 4084 
Q 3081 4231 2675 4231 
Q 1875 4231 1450 3742 
Q 1025 3253 1025 2328 
Q 1025 1406 1450 917 
Q 1875 428 2675 428 
Q 3081 428 3442 575 
Q 3803 722 4122 1019 
L 4122 359 
Q 3791 134 3420 21 
Q 3050 -91 2638 -91 
Q 1578 -91 968 557 
Q 359 1206 359 2328 
Q 359 3453 968 4101 
Q 1578 4750 2638 4750 
Q 3056 4750 3426 4639 
Q 3797 4528 4122 4306 
z
" id="DejaVuSans-43" transform="scale(0.015625)"/>
       <path d="M 628 4666 
L 1478 4666 
L 3547 763 
L 3547 4666 
L 4159 4666 
L 4159 0 
L 3309 0 
L 1241 3903 
L 1241 0 
L 628 0 
L 628 4666 
z
" id="DejaVuSans-4e" transform="scale(0.015625)"/>
      </defs>
      <use xlink:href="#DejaVuSans-4c"/>
      <use x="55.712891" xlink:href="#DejaVuSans-53"/>
      <use x="119.189453" xlink:href="#DejaVuSans-54"/>
      <use x="180.273438" xlink:href="#DejaVuSans-4d"/>
      <use x="266.552734" xlink:href="#DejaVuSans-43"/>
      <use x="336.376953" xlink:href="#DejaVuSans-4e"/>
      <use x="411.181641" xlink:href="#DejaVuSans-4e"/>
     </g>
    </g>
    <g id="line2d_32">
     <path d="M 475.09375 53.254688 
L 495.09375 53.254688 
" style="fill:none;stroke:#000000;stroke-dasharray:5.55,2.4;stroke-dashoffset:0;stroke-opacity:0.595;stroke-width:1.5;"/>
    </g>
    <g id="line2d_33"/>
    <g id="text_27">
     <!-- Referencia -->
     <g transform="translate(503.09375 56.754688)scale(0.1 -0.1)">
      <defs>
       <path d="M 2841 2188 
Q 3044 2119 3236 1894 
Q 3428 1669 3622 1275 
L 4263 0 
L 3584 0 
L 2988 1197 
Q 2756 1666 2539 1819 
Q 2322 1972 1947 1972 
L 1259 1972 
L 1259 0 
L 628 0 
L 628 4666 
L 2053 4666 
Q 2853 4666 3247 4331 
Q 3641 3997 3641 3322 
Q 3641 2881 3436 2590 
Q 3231 2300 2841 2188 
z
M 1259 4147 
L 1259 2491 
L 2053 2491 
Q 2509 2491 2742 2702 
Q 2975 2913 2975 3322 
Q 2975 3731 2742 3939 
Q 2509 4147 2053 4147 
L 1259 4147 
z
" id="DejaVuSans-52" transform="scale(0.015625)"/>
       <path d="M 3597 1894 
L 3597 1613 
L 953 1613 
Q 991 1019 1311 708 
Q 1631 397 2203 397 
Q 2534 397 2845 478 
Q 3156 559 3463 722 
L 3463 178 
Q 3153 47 2828 -22 
Q 2503 -91 2169 -91 
Q 1331 -91 842 396 
Q 353 884 353 1716 
Q 353 2575 817 3079 
Q 1281 3584 2069 3584 
Q 2775 3584 3186 3129 
Q 3597 2675 3597 1894 
z
M 3022 2063 
Q 3016 2534 2758 2815 
Q 2500 3097 2075 3097 
Q 1594 3097 1305 2825 
Q 1016 2553 972 2059 
L 3022 2063 
z
" id="DejaVuSans-65" transform="scale(0.015625)"/>
       <path d="M 2375 4863 
L 2375 4384 
L 1825 4384 
Q 1516 4384 1395 4259 
Q 1275 4134 1275 3809 
L 1275 3500 
L 2222 3500 
L 2222 3053 
L 1275 3053 
L 1275 0 
L 697 0 
L 697 3053 
L 147 3053 
L 147 3500 
L 697 3500 
L 697 3744 
Q 697 4328 969 4595 
Q 1241 4863 1831 4863 
L 2375 4863 
z
" id="DejaVuSans-66" transform="scale(0.015625)"/>
       <path d="M 2631 2963 
Q 2534 3019 2420 3045 
Q 2306 3072 2169 3072 
Q 1681 3072 1420 2755 
Q 1159 2438 1159 1844 
L 1159 0 
L 581 0 
L 581 3500 
L 1159 3500 
L 1159 2956 
Q 1341 3275 1631 3429 
Q 1922 3584 2338 3584 
Q 2397 3584 2469 3576 
Q 2541 3569 2628 3553 
L 2631 2963 
z
" id="DejaVuSans-72" transform="scale(0.015625)"/>
       <path d="M 3513 2113 
L 3513 0 
L 2938 0 
L 2938 2094 
Q 2938 2591 2744 2837 
Q 2550 3084 2163 3084 
Q 1697 3084 1428 2787 
Q 1159 2491 1159 1978 
L 1159 0 
L 581 0 
L 581 3500 
L 1159 3500 
L 1159 2956 
Q 1366 3272 1645 3428 
Q 1925 3584 2291 3584 
Q 2894 3584 3203 3211 
Q 3513 2838 3513 2113 
z
" id="DejaVuSans-6e" transform="scale(0.015625)"/>
       <path d="M 3122 3366 
L 3122 2828 
Q 2878 2963 2633 3030 
Q 2388 3097 2138 3097 
Q 1578 3097 1268 2742 
Q 959 2388 959 1747 
Q 959 1106 1268 751 
Q 1578 397 2138 397 
Q 2388 397 2633 464 
Q 2878 531 3122 666 
L 3122 134 
Q 2881 22 2623 -34 
Q 2366 -91 2075 -91 
Q 1284 -91 818 406 
Q 353 903 353 1747 
Q 353 2603 823 3093 
Q 1294 3584 2113 3584 
Q 2378 3584 2631 3529 
Q 2884 3475 3122 3366 
z
" id="DejaVuSans-63" transform="scale(0.015625)"/>
       <path d="M 603 3500 
L 1178 3500 
L 1178 0 
L 603 0 
L 603 3500 
z
M 603 4863 
L 1178 4863 
L 1178 4134 
L 603 4134 
L 603 4863 
z
" id="DejaVuSans-69" transform="scale(0.015625)"/>
       <path d="M 2194 1759 
Q 1497 1759 1228 1600 
Q 959 1441 959 1056 
Q 959 750 1161 570 
Q 1363 391 1709 391 
Q 2188 391 2477 730 
Q 2766 1069 2766 1631 
L 2766 1759 
L 2194 1759 
z
M 3341 1997 
L 3341 0 
L 2766 0 
L 2766 531 
Q 2569 213 2275 61 
Q 1981 -91 1556 -91 
Q 1019 -91 701 211 
Q 384 513 384 1019 
Q 384 1609 779 1909 
Q 1175 2209 1959 2209 
L 2766 2209 
L 2766 2266 
Q 2766 2663 2505 2880 
Q 2244 3097 1772 3097 
Q 1472 3097 1187 3025 
Q 903 2953 641 2809 
L 641 3341 
Q 956 3463 1253 3523 
Q 1550 3584 1831 3584 
Q 2591 3584 2966 3190 
Q 3341 2797 3341 1997 
z
" id="DejaVuSans-61" transform="scale(0.015625)"/>
      </defs>
      <use xlink:href="#DejaVuSans-52"/>
      <use x="64.982422" xlink:href="#DejaVuSans-65"/>
      <use x="126.505859" xlink:href="#DejaVuSans-66"/>
      <use x="161.710938" xlink:href="#DejaVuSans-65"/>
      <use x="223.234375" xlink:href="#DejaVuSans-72"/>
      <use x="262.097656" xlink:href="#DejaVuSans-65"/>
      <use x="323.621094" xlink:href="#DejaVuSans-6e"/>
      <use x="387" xlink:href="#DejaVuSans-63"/>
      <use x="441.980469" xlink:href="#DejaVuSans-69"/>
      <use x="469.763672" xlink:href="#DejaVuSans-61"/>
     </g>
    </g>
   </g>
  </g>
 </g>
 <defs>
  <clipPath id="p3959707e0d">
   <rect height="554.4" width="554.4" x="10.8" y="10.8"/>
  </clipPath>
 </defs>
</svg>
