<?xml version="1.0" encoding="utf-8" standalone="no"?>
<!DOCTYPE svg PUBLIC "-//W3C//DTD SVG 1.1//EN"
  "http://www.w3.org/Graphics/SVG/1.1/DTD/svg11.dtd">
<svg height="576pt" version="1.1" viewBox="0 0 576 576" width="576pt" xmlns="http://www.w3.org/2000/svg" xmlns:xlink="http://www.w3.org/1999/xlink">
 <metadata>
  <rdf:RDF xmlns:cc="http://creativecommons.org/ns#" xmlns:dc="http://purl.org/dc/elements/1.1/" xmlns:rdf="http://www.w3.org/1999/02/22-rdf-syntax-ns#">
   <cc:Work>
    <dc:type rdf:resource="http://purl.org/dc/dcmitype/StillImage"/>
    <dc:date>2022-02-28T00:29:16.004051</dc:date>
    <dc:format>image/svg+xml</dc:format>
    <dc:creator>
     <cc:Agent>
      <dc:title>Matplotlib v3.4.3, https://matplotlib.org/</dc:title>
     </cc:Agent>
    </dc:creator>
   </cc:Work>
  </rdf:RDF>
 </metadata>
 <defs>
  <style type="text/css">*{stroke-linecap:butt;stroke-linejoin:round;}</style>
 </defs>
 <g id="figure_1">
  <g id="patch_1">
   <path d="M 0 576 
L 576 576 
L 576 0 
L 0 0 
z
" style="fill:#ffffff;"/>
  </g>
  <g id="axes_1">
   <g id="patch_2">
    <path d="M 71.98 259.26 
L 253.845 259.26 
L 253.845 55.68 
L 71.98 55.68 
z
" style="fill:#ffffff;"/>
   </g>
   <g id="matplotlib.axis_1">
    <g id="xtick_1">
     <g id="line2d_1">
      <path clip-path="url(#p738f360ef7)" d="M 80.246591 259.26 
L 80.246591 55.68 
" style="fill:none;stroke:#b0b0b0;stroke-linecap:square;stroke-width:0.8;"/>
     </g>
     <g id="line2d_2">
      <defs>
       <path d="M 0 0 
L 0 3.5 
" id="mba10ff38dc" style="stroke:#000000;stroke-width:0.8;"/>
      </defs>
      <g>
       <use style="stroke:#000000;stroke-width:0.8;" x="80.246591" xlink:href="#mba10ff38dc" y="259.26"/>
      </g>
     </g>
    </g>
    <g id="xtick_2">
     <g id="line2d_3">
      <path clip-path="url(#p738f360ef7)" d="M 121.588158 259.26 
L 121.588158 55.68 
" style="fill:none;stroke:#b0b0b0;stroke-linecap:square;stroke-width:0.8;"/>
     </g>
     <g id="line2d_4">
      <g>
       <use style="stroke:#000000;stroke-width:0.8;" x="121.588158" xlink:href="#mba10ff38dc" y="259.26"/>
      </g>
     </g>
    </g>
    <g id="xtick_3">
     <g id="line2d_5">
      <path clip-path="url(#p738f360ef7)" d="M 162.929726 259.26 
L 162.929726 55.68 
" style="fill:none;stroke:#b0b0b0;stroke-linecap:square;stroke-width:0.8;"/>
     </g>
     <g id="line2d_6">
      <g>
       <use style="stroke:#000000;stroke-width:0.8;" x="162.929726" xlink:href="#mba10ff38dc" y="259.26"/>
      </g>
     </g>
    </g>
    <g id="xtick_4">
     <g id="line2d_7">
      <path clip-path="url(#p738f360ef7)" d="M 204.271293 259.26 
L 204.271293 55.68 
" style="fill:none;stroke:#b0b0b0;stroke-linecap:square;stroke-width:0.8;"/>
     </g>
     <g id="line2d_8">
      <g>
       <use style="stroke:#000000;stroke-width:0.8;" x="204.271293" xlink:href="#mba10ff38dc" y="259.26"/>
      </g>
     </g>
    </g>
    <g id="xtick_5">
     <g id="line2d_9">
      <path clip-path="url(#p738f360ef7)" d="M 245.61286 259.26 
L 245.61286 55.68 
" style="fill:none;stroke:#b0b0b0;stroke-linecap:square;stroke-width:0.8;"/>
     </g>
     <g id="line2d_10">
      <g>
       <use style="stroke:#000000;stroke-width:0.8;" x="245.61286" xlink:href="#mba10ff38dc" y="259.26"/>
      </g>
     </g>
    </g>
    <g id="text_1">
     <!-- Tiempo (s) -->
     <g transform="translate(136.35 270.858438)scale(0.1 -0.1)">
      <defs>
       <path d="M -19 4666 
L 3928 4666 
L 3928 4134 
L 2272 4134 
L 2272 0 
L 1638 0 
L 1638 4134 
L -19 4134 
L -19 4666 
z
" id="DejaVuSans-54" transform="scale(0.015625)"/>
       <path d="M 603 3500 
L 1178 3500 
L 1178 0 
L 603 0 
L 603 3500 
z
M 603 4863 
L 1178 4863 
L 1178 4134 
L 603 4134 
L 603 4863 
z
" id="DejaVuSans-69" transform="scale(0.015625)"/>
       <path d="M 3597 1894 
L 3597 1613 
L 953 1613 
Q 991 1019 1311 708 
Q 1631 397 2203 397 
Q 2534 397 2845 478 
Q 3156 559 3463 722 
L 3463 178 
Q 3153 47 2828 -22 
Q 2503 -91 2169 -91 
Q 1331 -91 842 396 
Q 353 884 353 1716 
Q 353 2575 817 3079 
Q 1281 3584 2069 3584 
Q 2775 3584 3186 3129 
Q 3597 2675 3597 1894 
z
M 3022 2063 
Q 3016 2534 2758 2815 
Q 2500 3097 2075 3097 
Q 1594 3097 1305 2825 
Q 1016 2553 972 2059 
L 3022 2063 
z
" id="DejaVuSans-65" transform="scale(0.015625)"/>
       <path d="M 3328 2828 
Q 3544 3216 3844 3400 
Q 4144 3584 4550 3584 
Q 5097 3584 5394 3201 
Q 5691 2819 5691 2113 
L 5691 0 
L 5113 0 
L 5113 2094 
Q 5113 2597 4934 2840 
Q 4756 3084 4391 3084 
Q 3944 3084 3684 2787 
Q 3425 2491 3425 1978 
L 3425 0 
L 2847 0 
L 2847 2094 
Q 2847 2600 2669 2842 
Q 2491 3084 2119 3084 
Q 1678 3084 1418 2786 
Q 1159 2488 1159 1978 
L 1159 0 
L 581 0 
L 581 3500 
L 1159 3500 
L 1159 2956 
Q 1356 3278 1631 3431 
Q 1906 3584 2284 3584 
Q 2666 3584 2933 3390 
Q 3200 3197 3328 2828 
z
" id="DejaVuSans-6d" transform="scale(0.015625)"/>
       <path d="M 1159 525 
L 1159 -1331 
L 581 -1331 
L 581 3500 
L 1159 3500 
L 1159 2969 
Q 1341 3281 1617 3432 
Q 1894 3584 2278 3584 
Q 2916 3584 3314 3078 
Q 3713 2572 3713 1747 
Q 3713 922 3314 415 
Q 2916 -91 2278 -91 
Q 1894 -91 1617 61 
Q 1341 213 1159 525 
z
M 3116 1747 
Q 3116 2381 2855 2742 
Q 2594 3103 2138 3103 
Q 1681 3103 1420 2742 
Q 1159 2381 1159 1747 
Q 1159 1113 1420 752 
Q 1681 391 2138 391 
Q 2594 391 2855 752 
Q 3116 1113 3116 1747 
z
" id="DejaVuSans-70" transform="scale(0.015625)"/>
       <path d="M 1959 3097 
Q 1497 3097 1228 2736 
Q 959 2375 959 1747 
Q 959 1119 1226 758 
Q 1494 397 1959 397 
Q 2419 397 2687 759 
Q 2956 1122 2956 1747 
Q 2956 2369 2687 2733 
Q 2419 3097 1959 3097 
z
M 1959 3584 
Q 2709 3584 3137 3096 
Q 3566 2609 3566 1747 
Q 3566 888 3137 398 
Q 2709 -91 1959 -91 
Q 1206 -91 779 398 
Q 353 888 353 1747 
Q 353 2609 779 3096 
Q 1206 3584 1959 3584 
z
" id="DejaVuSans-6f" transform="scale(0.015625)"/>
       <path id="DejaVuSans-20" transform="scale(0.015625)"/>
       <path d="M 1984 4856 
Q 1566 4138 1362 3434 
Q 1159 2731 1159 2009 
Q 1159 1288 1364 580 
Q 1569 -128 1984 -844 
L 1484 -844 
Q 1016 -109 783 600 
Q 550 1309 550 2009 
Q 550 2706 781 3412 
Q 1013 4119 1484 4856 
L 1984 4856 
z
" id="DejaVuSans-28" transform="scale(0.015625)"/>
       <path d="M 2834 3397 
L 2834 2853 
Q 2591 2978 2328 3040 
Q 2066 3103 1784 3103 
Q 1356 3103 1142 2972 
Q 928 2841 928 2578 
Q 928 2378 1081 2264 
Q 1234 2150 1697 2047 
L 1894 2003 
Q 2506 1872 2764 1633 
Q 3022 1394 3022 966 
Q 3022 478 2636 193 
Q 2250 -91 1575 -91 
Q 1294 -91 989 -36 
Q 684 19 347 128 
L 347 722 
Q 666 556 975 473 
Q 1284 391 1588 391 
Q 1994 391 2212 530 
Q 2431 669 2431 922 
Q 2431 1156 2273 1281 
Q 2116 1406 1581 1522 
L 1381 1569 
Q 847 1681 609 1914 
Q 372 2147 372 2553 
Q 372 3047 722 3315 
Q 1072 3584 1716 3584 
Q 2034 3584 2315 3537 
Q 2597 3491 2834 3397 
z
" id="DejaVuSans-73" transform="scale(0.015625)"/>
       <path d="M 513 4856 
L 1013 4856 
Q 1481 4119 1714 3412 
Q 1947 2706 1947 2009 
Q 1947 1309 1714 600 
Q 1481 -109 1013 -844 
L 513 -844 
Q 928 -128 1133 580 
Q 1338 1288 1338 2009 
Q 1338 2731 1133 3434 
Q 928 4138 513 4856 
z
" id="DejaVuSans-29" transform="scale(0.015625)"/>
      </defs>
      <use xlink:href="#DejaVuSans-54"/>
      <use x="57.958984" xlink:href="#DejaVuSans-69"/>
      <use x="85.742188" xlink:href="#DejaVuSans-65"/>
      <use x="147.265625" xlink:href="#DejaVuSans-6d"/>
      <use x="244.677734" xlink:href="#DejaVuSans-70"/>
      <use x="308.154297" xlink:href="#DejaVuSans-6f"/>
      <use x="369.335938" xlink:href="#DejaVuSans-20"/>
      <use x="401.123047" xlink:href="#DejaVuSans-28"/>
      <use x="440.136719" xlink:href="#DejaVuSans-73"/>
      <use x="492.236328" xlink:href="#DejaVuSans-29"/>
     </g>
    </g>
   </g>
   <g id="matplotlib.axis_2">
    <g id="ytick_1">
     <g id="line2d_11">
      <path clip-path="url(#p738f360ef7)" d="M 71.98 250.006364 
L 253.845 250.006364 
" style="fill:none;stroke:#b0b0b0;stroke-linecap:square;stroke-width:0.8;"/>
     </g>
     <g id="line2d_12">
      <defs>
       <path d="M 0 0 
L -3.5 0 
" id="md495346ff1" style="stroke:#000000;stroke-width:0.8;"/>
      </defs>
      <g>
       <use style="stroke:#000000;stroke-width:0.8;" x="71.98" xlink:href="#md495346ff1" y="250.006364"/>
      </g>
     </g>
     <g id="text_2">
      <!-- 0 -->
      <g transform="translate(58.6175 253.805582)scale(0.1 -0.1)">
       <defs>
        <path d="M 2034 4250 
Q 1547 4250 1301 3770 
Q 1056 3291 1056 2328 
Q 1056 1369 1301 889 
Q 1547 409 2034 409 
Q 2525 409 2770 889 
Q 3016 1369 3016 2328 
Q 3016 3291 2770 3770 
Q 2525 4250 2034 4250 
z
M 2034 4750 
Q 2819 4750 3233 4129 
Q 3647 3509 3647 2328 
Q 3647 1150 3233 529 
Q 2819 -91 2034 -91 
Q 1250 -91 836 529 
Q 422 1150 422 2328 
Q 422 3509 836 4129 
Q 1250 4750 2034 4750 
z
" id="DejaVuSans-30" transform="scale(0.015625)"/>
       </defs>
       <use xlink:href="#DejaVuSans-30"/>
      </g>
     </g>
    </g>
    <g id="ytick_2">
     <g id="line2d_13">
      <path clip-path="url(#p738f360ef7)" d="M 71.98 226.646403 
L 253.845 226.646403 
" style="fill:none;stroke:#b0b0b0;stroke-linecap:square;stroke-width:0.8;"/>
     </g>
     <g id="line2d_14">
      <g>
       <use style="stroke:#000000;stroke-width:0.8;" x="71.98" xlink:href="#md495346ff1" y="226.646403"/>
      </g>
     </g>
     <g id="text_3">
      <!-- 200 -->
      <g transform="translate(45.8925 230.445621)scale(0.1 -0.1)">
       <defs>
        <path d="M 1228 531 
L 3431 531 
L 3431 0 
L 469 0 
L 469 531 
Q 828 903 1448 1529 
Q 2069 2156 2228 2338 
Q 2531 2678 2651 2914 
Q 2772 3150 2772 3378 
Q 2772 3750 2511 3984 
Q 2250 4219 1831 4219 
Q 1534 4219 1204 4116 
Q 875 4013 500 3803 
L 500 4441 
Q 881 4594 1212 4672 
Q 1544 4750 1819 4750 
Q 2544 4750 2975 4387 
Q 3406 4025 3406 3419 
Q 3406 3131 3298 2873 
Q 3191 2616 2906 2266 
Q 2828 2175 2409 1742 
Q 1991 1309 1228 531 
z
" id="DejaVuSans-32" transform="scale(0.015625)"/>
       </defs>
       <use xlink:href="#DejaVuSans-32"/>
       <use x="63.623047" xlink:href="#DejaVuSans-30"/>
       <use x="127.246094" xlink:href="#DejaVuSans-30"/>
      </g>
     </g>
    </g>
    <g id="ytick_3">
     <g id="line2d_15">
      <path clip-path="url(#p738f360ef7)" d="M 71.98 203.286442 
L 253.845 203.286442 
" style="fill:none;stroke:#b0b0b0;stroke-linecap:square;stroke-width:0.8;"/>
     </g>
     <g id="line2d_16">
      <g>
       <use style="stroke:#000000;stroke-width:0.8;" x="71.98" xlink:href="#md495346ff1" y="203.286442"/>
      </g>
     </g>
     <g id="text_4">
      <!-- 400 -->
      <g transform="translate(45.8925 207.08566)scale(0.1 -0.1)">
       <defs>
        <path d="M 2419 4116 
L 825 1625 
L 2419 1625 
L 2419 4116 
z
M 2253 4666 
L 3047 4666 
L 3047 1625 
L 3713 1625 
L 3713 1100 
L 3047 1100 
L 3047 0 
L 2419 0 
L 2419 1100 
L 313 1100 
L 313 1709 
L 2253 4666 
z
" id="DejaVuSans-34" transform="scale(0.015625)"/>
       </defs>
       <use xlink:href="#DejaVuSans-34"/>
       <use x="63.623047" xlink:href="#DejaVuSans-30"/>
       <use x="127.246094" xlink:href="#DejaVuSans-30"/>
      </g>
     </g>
    </g>
    <g id="ytick_4">
     <g id="line2d_17">
      <path clip-path="url(#p738f360ef7)" d="M 71.98 179.926481 
L 253.845 179.926481 
" style="fill:none;stroke:#b0b0b0;stroke-linecap:square;stroke-width:0.8;"/>
     </g>
     <g id="line2d_18">
      <g>
       <use style="stroke:#000000;stroke-width:0.8;" x="71.98" xlink:href="#md495346ff1" y="179.926481"/>
      </g>
     </g>
     <g id="text_5">
      <!-- 600 -->
      <g transform="translate(45.8925 183.725699)scale(0.1 -0.1)">
       <defs>
        <path d="M 2113 2584 
Q 1688 2584 1439 2293 
Q 1191 2003 1191 1497 
Q 1191 994 1439 701 
Q 1688 409 2113 409 
Q 2538 409 2786 701 
Q 3034 994 3034 1497 
Q 3034 2003 2786 2293 
Q 2538 2584 2113 2584 
z
M 3366 4563 
L 3366 3988 
Q 3128 4100 2886 4159 
Q 2644 4219 2406 4219 
Q 1781 4219 1451 3797 
Q 1122 3375 1075 2522 
Q 1259 2794 1537 2939 
Q 1816 3084 2150 3084 
Q 2853 3084 3261 2657 
Q 3669 2231 3669 1497 
Q 3669 778 3244 343 
Q 2819 -91 2113 -91 
Q 1303 -91 875 529 
Q 447 1150 447 2328 
Q 447 3434 972 4092 
Q 1497 4750 2381 4750 
Q 2619 4750 2861 4703 
Q 3103 4656 3366 4563 
z
" id="DejaVuSans-36" transform="scale(0.015625)"/>
       </defs>
       <use xlink:href="#DejaVuSans-36"/>
       <use x="63.623047" xlink:href="#DejaVuSans-30"/>
       <use x="127.246094" xlink:href="#DejaVuSans-30"/>
      </g>
     </g>
    </g>
    <g id="ytick_5">
     <g id="line2d_19">
      <path clip-path="url(#p738f360ef7)" d="M 71.98 156.56652 
L 253.845 156.56652 
" style="fill:none;stroke:#b0b0b0;stroke-linecap:square;stroke-width:0.8;"/>
     </g>
     <g id="line2d_20">
      <g>
       <use style="stroke:#000000;stroke-width:0.8;" x="71.98" xlink:href="#md495346ff1" y="156.56652"/>
      </g>
     </g>
     <g id="text_6">
      <!-- 800 -->
      <g transform="translate(45.8925 160.365738)scale(0.1 -0.1)">
       <defs>
        <path d="M 2034 2216 
Q 1584 2216 1326 1975 
Q 1069 1734 1069 1313 
Q 1069 891 1326 650 
Q 1584 409 2034 409 
Q 2484 409 2743 651 
Q 3003 894 3003 1313 
Q 3003 1734 2745 1975 
Q 2488 2216 2034 2216 
z
M 1403 2484 
Q 997 2584 770 2862 
Q 544 3141 544 3541 
Q 544 4100 942 4425 
Q 1341 4750 2034 4750 
Q 2731 4750 3128 4425 
Q 3525 4100 3525 3541 
Q 3525 3141 3298 2862 
Q 3072 2584 2669 2484 
Q 3125 2378 3379 2068 
Q 3634 1759 3634 1313 
Q 3634 634 3220 271 
Q 2806 -91 2034 -91 
Q 1263 -91 848 271 
Q 434 634 434 1313 
Q 434 1759 690 2068 
Q 947 2378 1403 2484 
z
M 1172 3481 
Q 1172 3119 1398 2916 
Q 1625 2713 2034 2713 
Q 2441 2713 2670 2916 
Q 2900 3119 2900 3481 
Q 2900 3844 2670 4047 
Q 2441 4250 2034 4250 
Q 1625 4250 1398 4047 
Q 1172 3844 1172 3481 
z
" id="DejaVuSans-38" transform="scale(0.015625)"/>
       </defs>
       <use xlink:href="#DejaVuSans-38"/>
       <use x="63.623047" xlink:href="#DejaVuSans-30"/>
       <use x="127.246094" xlink:href="#DejaVuSans-30"/>
      </g>
     </g>
    </g>
    <g id="ytick_6">
     <g id="line2d_21">
      <path clip-path="url(#p738f360ef7)" d="M 71.98 133.206558 
L 253.845 133.206558 
" style="fill:none;stroke:#b0b0b0;stroke-linecap:square;stroke-width:0.8;"/>
     </g>
     <g id="line2d_22">
      <g>
       <use style="stroke:#000000;stroke-width:0.8;" x="71.98" xlink:href="#md495346ff1" y="133.206558"/>
      </g>
     </g>
     <g id="text_7">
      <!-- 1000 -->
      <g transform="translate(39.53 137.005777)scale(0.1 -0.1)">
       <defs>
        <path d="M 794 531 
L 1825 531 
L 1825 4091 
L 703 3866 
L 703 4441 
L 1819 4666 
L 2450 4666 
L 2450 531 
L 3481 531 
L 3481 0 
L 794 0 
L 794 531 
z
" id="DejaVuSans-31" transform="scale(0.015625)"/>
       </defs>
       <use xlink:href="#DejaVuSans-31"/>
       <use x="63.623047" xlink:href="#DejaVuSans-30"/>
       <use x="127.246094" xlink:href="#DejaVuSans-30"/>
       <use x="190.869141" xlink:href="#DejaVuSans-30"/>
      </g>
     </g>
    </g>
    <g id="ytick_7">
     <g id="line2d_23">
      <path clip-path="url(#p738f360ef7)" d="M 71.98 109.846597 
L 253.845 109.846597 
" style="fill:none;stroke:#b0b0b0;stroke-linecap:square;stroke-width:0.8;"/>
     </g>
     <g id="line2d_24">
      <g>
       <use style="stroke:#000000;stroke-width:0.8;" x="71.98" xlink:href="#md495346ff1" y="109.846597"/>
      </g>
     </g>
     <g id="text_8">
      <!-- 1200 -->
      <g transform="translate(39.53 113.645816)scale(0.1 -0.1)">
       <use xlink:href="#DejaVuSans-31"/>
       <use x="63.623047" xlink:href="#DejaVuSans-32"/>
       <use x="127.246094" xlink:href="#DejaVuSans-30"/>
       <use x="190.869141" xlink:href="#DejaVuSans-30"/>
      </g>
     </g>
    </g>
    <g id="ytick_8">
     <g id="line2d_25">
      <path clip-path="url(#p738f360ef7)" d="M 71.98 86.486636 
L 253.845 86.486636 
" style="fill:none;stroke:#b0b0b0;stroke-linecap:square;stroke-width:0.8;"/>
     </g>
     <g id="line2d_26">
      <g>
       <use style="stroke:#000000;stroke-width:0.8;" x="71.98" xlink:href="#md495346ff1" y="86.486636"/>
      </g>
     </g>
     <g id="text_9">
      <!-- 1400 -->
      <g transform="translate(39.53 90.285855)scale(0.1 -0.1)">
       <use xlink:href="#DejaVuSans-31"/>
       <use x="63.623047" xlink:href="#DejaVuSans-34"/>
       <use x="127.246094" xlink:href="#DejaVuSans-30"/>
       <use x="190.869141" xlink:href="#DejaVuSans-30"/>
      </g>
     </g>
    </g>
    <g id="ytick_9">
     <g id="line2d_27">
      <path clip-path="url(#p738f360ef7)" d="M 71.98 63.126675 
L 253.845 63.126675 
" style="fill:none;stroke:#b0b0b0;stroke-linecap:square;stroke-width:0.8;"/>
     </g>
     <g id="line2d_28">
      <g>
       <use style="stroke:#000000;stroke-width:0.8;" x="71.98" xlink:href="#md495346ff1" y="63.126675"/>
      </g>
     </g>
     <g id="text_10">
      <!-- 1600 -->
      <g transform="translate(39.53 66.925894)scale(0.1 -0.1)">
       <use xlink:href="#DejaVuSans-31"/>
       <use x="63.623047" xlink:href="#DejaVuSans-36"/>
       <use x="127.246094" xlink:href="#DejaVuSans-30"/>
       <use x="190.869141" xlink:href="#DejaVuSans-30"/>
      </g>
     </g>
    </g>
   </g>
   <g id="line2d_29">
    <path clip-path="url(#p738f360ef7)" d="M 80.246591 250.006364 
L 121.863769 249.913957 
L 122.725051 249.468985 
L 123.448529 249.306124 
L 124.378714 249.167793 
L 125.136643 248.784692 
L 125.963474 248.130005 
L 129.02964 245.523188 
L 129.753118 245.324049 
L 130.821108 245.10834 
L 131.441232 244.71084 
L 132.199161 243.956399 
L 133.060443 242.79442 
L 134.576301 240.356646 
L 135.782096 238.641431 
L 136.608928 237.830932 
L 137.263503 237.469923 
L 137.918077 237.375438 
L 138.469298 237.187651 
L 139.05497 236.719451 
L 139.640643 235.960976 
L 140.536377 234.375336 
L 141.707721 231.761969 
L 143.25803 227.643233 
L 147.323284 216.428063 
L 148.52908 213.883536 
L 149.59707 212.091977 
L 150.630609 210.736869 
L 151.801954 209.532172 
L 154.902571 206.503779 
L 155.936111 205.045954 
L 156.935198 203.267191 
L 158.072091 200.783504 
L 159.553498 196.918337 
L 164.238875 184.177392 
L 165.341317 181.994821 
L 166.47821 180.22468 
L 167.546201 178.943156 
L 169.130961 177.450775 
L 170.922429 175.73489 
L 171.955968 174.440551 
L 172.955056 172.850026 
L 174.057498 170.655313 
L 175.228842 167.839712 
L 176.882505 163.256565 
L 179.948671 154.711998 
L 181.292272 151.707387 
L 182.360262 149.803992 
L 183.531607 148.190313 
L 184.6685 146.985618 
L 188.148082 143.531745 
L 189.14717 142.057822 
L 190.21516 140.071919 
L 191.352053 137.488044 
L 192.867911 133.434695 
L 196.79536 122.567044 
L 198.001155 119.983735 
L 199.069146 118.15673 
L 200.24049 116.614323 
L 201.446286 115.389338 
L 204.44355 112.473829 
L 245.578409 64.933636 
L 245.578409 64.933636 
" style="fill:none;stroke:#1f77b4;stroke-linecap:square;stroke-opacity:0.7;stroke-width:1.5;"/>
   </g>
   <g id="line2d_30">
    <path clip-path="url(#p738f360ef7)" d="M 80.246591 250.006364 
L 88.790515 249.895817 
L 122.036025 249.02283 
L 122.862857 248.656833 
L 123.586334 248.549839 
L 124.27536 248.435944 
L 124.929935 248.125295 
L 125.722315 247.510773 
L 127.134819 246.04817 
L 128.375066 244.884459 
L 129.201897 244.40133 
L 129.925374 244.234508 
L 130.85556 244.072623 
L 131.682391 243.607389 
L 132.509222 242.888784 
L 133.646115 241.614748 
L 136.057707 238.824782 
L 136.91899 238.183199 
L 137.642467 237.90663 
L 139.158324 237.513104 
L 139.916253 236.909832 
L 140.811987 235.902922 
L 142.155588 234.061693 
L 143.981507 231.682338 
L 144.980595 230.749057 
L 145.807426 230.272379 
L 146.496453 230.108211 
L 147.564443 229.90741 
L 148.356823 229.424903 
L 149.183655 228.648651 
L 150.354999 227.211946 
L 152.422077 224.634796 
L 153.317811 223.883969 
L 154.041289 223.5531 
L 154.764766 223.472363 
L 155.350438 223.302042 
L 156.073916 222.84178 
L 156.900747 222.024401 
L 158.106543 220.447394 
L 160.587037 217.072802 
L 161.551673 216.157419 
L 162.344053 215.690292 
L 163.03308 215.520408 
L 164.10107 215.311825 
L 164.858999 214.836002 
L 165.68583 214.029349 
L 166.753821 212.629661 
L 169.441023 208.902824 
L 170.1645 208.366934 
L 170.750172 208.197342 
L 171.508101 208.038587 
L 172.162676 207.588548 
L 172.851702 206.84106 
L 173.747436 205.557069 
L 177.227018 200.175043 
L 178.122752 199.310856 
L 178.915132 198.835381 
L 179.67306 198.651515 
L 180.637697 198.493578 
L 181.464528 198.040472 
L 182.256908 197.357748 
L 183.393802 196.070133 
L 185.564234 193.523569 
L 186.459968 192.831128 
L 187.183445 192.537025 
L 188.837108 192.102422 
L 189.560585 191.534359 
L 190.421868 190.596733 
L 191.696566 188.897064 
L 193.591388 186.4134 
L 194.590476 185.455523 
L 195.417307 184.960364 
L 196.106333 184.784099 
L 197.243227 184.56329 
L 198.001155 184.103859 
L 198.793535 183.383603 
L 199.999331 181.969559 
L 202.100861 179.489986 
L 202.996595 178.793845 
L 203.720072 178.497813 
L 204.684709 178.414326 
L 205.890504 178.145096 
L 208.439901 177.524296 
L 210.024661 177.437058 
L 213.917659 177.30782 
L 217.535046 177.143138 
L 224.115245 177.005 
L 229.5241 176.913783 
L 236.069849 176.696822 
L 245.578409 176.371959 
L 245.578409 176.371959 
" style="fill:none;stroke:#d62728;stroke-linecap:square;stroke-opacity:0.7;stroke-width:1.5;"/>
   </g>
   <g id="patch_3">
    <path d="M 71.98 259.26 
L 71.98 55.68 
" style="fill:none;stroke:#000000;stroke-linecap:square;stroke-linejoin:miter;stroke-width:0.8;"/>
   </g>
   <g id="patch_4">
    <path d="M 253.845 259.26 
L 253.845 55.68 
" style="fill:none;stroke:#000000;stroke-linecap:square;stroke-linejoin:miter;stroke-width:0.8;"/>
   </g>
   <g id="patch_5">
    <path d="M 71.98 259.26 
L 253.845 259.26 
" style="fill:none;stroke:#000000;stroke-linecap:square;stroke-linejoin:miter;stroke-width:0.8;"/>
   </g>
   <g id="patch_6">
    <path d="M 71.98 55.68 
L 253.845 55.68 
" style="fill:none;stroke:#000000;stroke-linecap:square;stroke-linejoin:miter;stroke-width:0.8;"/>
   </g>
   <g id="text_11">
    <!-- x (m) -->
    <g transform="translate(146.928125 49.68)scale(0.12 -0.12)">
     <defs>
      <path d="M 3513 3500 
L 2247 1797 
L 3578 0 
L 2900 0 
L 1881 1375 
L 863 0 
L 184 0 
L 1544 1831 
L 300 3500 
L 978 3500 
L 1906 2253 
L 2834 3500 
L 3513 3500 
z
" id="DejaVuSans-78" transform="scale(0.015625)"/>
     </defs>
     <use xlink:href="#DejaVuSans-78"/>
     <use x="59.179688" xlink:href="#DejaVuSans-20"/>
     <use x="90.966797" xlink:href="#DejaVuSans-28"/>
     <use x="129.980469" xlink:href="#DejaVuSans-6d"/>
     <use x="227.392578" xlink:href="#DejaVuSans-29"/>
    </g>
   </g>
  </g>
  <g id="axes_2">
   <g id="patch_7">
    <path d="M 296.935 259.26 
L 478.8 259.26 
L 478.8 55.68 
L 296.935 55.68 
z
" style="fill:#ffffff;"/>
   </g>
   <g id="matplotlib.axis_3">
    <g id="xtick_6">
     <g id="line2d_31">
      <path clip-path="url(#pa839c36e35)" d="M 305.201591 259.26 
L 305.201591 55.68 
" style="fill:none;stroke:#b0b0b0;stroke-linecap:square;stroke-width:0.8;"/>
     </g>
     <g id="line2d_32">
      <g>
       <use style="stroke:#000000;stroke-width:0.8;" x="305.201591" xlink:href="#mba10ff38dc" y="259.26"/>
      </g>
     </g>
    </g>
    <g id="xtick_7">
     <g id="line2d_33">
      <path clip-path="url(#pa839c36e35)" d="M 346.543158 259.26 
L 346.543158 55.68 
" style="fill:none;stroke:#b0b0b0;stroke-linecap:square;stroke-width:0.8;"/>
     </g>
     <g id="line2d_34">
      <g>
       <use style="stroke:#000000;stroke-width:0.8;" x="346.543158" xlink:href="#mba10ff38dc" y="259.26"/>
      </g>
     </g>
    </g>
    <g id="xtick_8">
     <g id="line2d_35">
      <path clip-path="url(#pa839c36e35)" d="M 387.884726 259.26 
L 387.884726 55.68 
" style="fill:none;stroke:#b0b0b0;stroke-linecap:square;stroke-width:0.8;"/>
     </g>
     <g id="line2d_36">
      <g>
       <use style="stroke:#000000;stroke-width:0.8;" x="387.884726" xlink:href="#mba10ff38dc" y="259.26"/>
      </g>
     </g>
    </g>
    <g id="xtick_9">
     <g id="line2d_37">
      <path clip-path="url(#pa839c36e35)" d="M 429.226293 259.26 
L 429.226293 55.68 
" style="fill:none;stroke:#b0b0b0;stroke-linecap:square;stroke-width:0.8;"/>
     </g>
     <g id="line2d_38">
      <g>
       <use style="stroke:#000000;stroke-width:0.8;" x="429.226293" xlink:href="#mba10ff38dc" y="259.26"/>
      </g>
     </g>
    </g>
    <g id="xtick_10">
     <g id="line2d_39">
      <path clip-path="url(#pa839c36e35)" d="M 470.56786 259.26 
L 470.56786 55.68 
" style="fill:none;stroke:#b0b0b0;stroke-linecap:square;stroke-width:0.8;"/>
     </g>
     <g id="line2d_40">
      <g>
       <use style="stroke:#000000;stroke-width:0.8;" x="470.56786" xlink:href="#mba10ff38dc" y="259.26"/>
      </g>
     </g>
    </g>
    <g id="text_12">
     <!-- Tiempo (s) -->
     <g transform="translate(361.305 270.858438)scale(0.1 -0.1)">
      <use xlink:href="#DejaVuSans-54"/>
      <use x="57.958984" xlink:href="#DejaVuSans-69"/>
      <use x="85.742188" xlink:href="#DejaVuSans-65"/>
      <use x="147.265625" xlink:href="#DejaVuSans-6d"/>
      <use x="244.677734" xlink:href="#DejaVuSans-70"/>
      <use x="308.154297" xlink:href="#DejaVuSans-6f"/>
      <use x="369.335938" xlink:href="#DejaVuSans-20"/>
      <use x="401.123047" xlink:href="#DejaVuSans-28"/>
      <use x="440.136719" xlink:href="#DejaVuSans-73"/>
      <use x="492.236328" xlink:href="#DejaVuSans-29"/>
     </g>
    </g>
   </g>
   <g id="matplotlib.axis_4">
    <g id="ytick_10">
     <g id="line2d_41">
      <path clip-path="url(#pa839c36e35)" d="M 296.935 250.006364 
L 478.8 250.006364 
" style="fill:none;stroke:#b0b0b0;stroke-linecap:square;stroke-width:0.8;"/>
     </g>
     <g id="line2d_42">
      <g>
       <use style="stroke:#000000;stroke-width:0.8;" x="296.935" xlink:href="#md495346ff1" y="250.006364"/>
      </g>
     </g>
     <g id="text_13">
      <!-- 0 -->
      <g transform="translate(283.5725 253.805582)scale(0.1 -0.1)">
       <use xlink:href="#DejaVuSans-30"/>
      </g>
     </g>
    </g>
    <g id="ytick_11">
     <g id="line2d_43">
      <path clip-path="url(#pa839c36e35)" d="M 296.935 212.032152 
L 478.8 212.032152 
" style="fill:none;stroke:#b0b0b0;stroke-linecap:square;stroke-width:0.8;"/>
     </g>
     <g id="line2d_44">
      <g>
       <use style="stroke:#000000;stroke-width:0.8;" x="296.935" xlink:href="#md495346ff1" y="212.032152"/>
      </g>
     </g>
     <g id="text_14">
      <!-- 200 -->
      <g transform="translate(270.8475 215.83137)scale(0.1 -0.1)">
       <use xlink:href="#DejaVuSans-32"/>
       <use x="63.623047" xlink:href="#DejaVuSans-30"/>
       <use x="127.246094" xlink:href="#DejaVuSans-30"/>
      </g>
     </g>
    </g>
    <g id="ytick_12">
     <g id="line2d_45">
      <path clip-path="url(#pa839c36e35)" d="M 296.935 174.05794 
L 478.8 174.05794 
" style="fill:none;stroke:#b0b0b0;stroke-linecap:square;stroke-width:0.8;"/>
     </g>
     <g id="line2d_46">
      <g>
       <use style="stroke:#000000;stroke-width:0.8;" x="296.935" xlink:href="#md495346ff1" y="174.05794"/>
      </g>
     </g>
     <g id="text_15">
      <!-- 400 -->
      <g transform="translate(270.8475 177.857158)scale(0.1 -0.1)">
       <use xlink:href="#DejaVuSans-34"/>
       <use x="63.623047" xlink:href="#DejaVuSans-30"/>
       <use x="127.246094" xlink:href="#DejaVuSans-30"/>
      </g>
     </g>
    </g>
    <g id="ytick_13">
     <g id="line2d_47">
      <path clip-path="url(#pa839c36e35)" d="M 296.935 136.083728 
L 478.8 136.083728 
" style="fill:none;stroke:#b0b0b0;stroke-linecap:square;stroke-width:0.8;"/>
     </g>
     <g id="line2d_48">
      <g>
       <use style="stroke:#000000;stroke-width:0.8;" x="296.935" xlink:href="#md495346ff1" y="136.083728"/>
      </g>
     </g>
     <g id="text_16">
      <!-- 600 -->
      <g transform="translate(270.8475 139.882946)scale(0.1 -0.1)">
       <use xlink:href="#DejaVuSans-36"/>
       <use x="63.623047" xlink:href="#DejaVuSans-30"/>
       <use x="127.246094" xlink:href="#DejaVuSans-30"/>
      </g>
     </g>
    </g>
    <g id="ytick_14">
     <g id="line2d_49">
      <path clip-path="url(#pa839c36e35)" d="M 296.935 98.109515 
L 478.8 98.109515 
" style="fill:none;stroke:#b0b0b0;stroke-linecap:square;stroke-width:0.8;"/>
     </g>
     <g id="line2d_50">
      <g>
       <use style="stroke:#000000;stroke-width:0.8;" x="296.935" xlink:href="#md495346ff1" y="98.109515"/>
      </g>
     </g>
     <g id="text_17">
      <!-- 800 -->
      <g transform="translate(270.8475 101.908734)scale(0.1 -0.1)">
       <use xlink:href="#DejaVuSans-38"/>
       <use x="63.623047" xlink:href="#DejaVuSans-30"/>
       <use x="127.246094" xlink:href="#DejaVuSans-30"/>
      </g>
     </g>
    </g>
    <g id="ytick_15">
     <g id="line2d_51">
      <path clip-path="url(#pa839c36e35)" d="M 296.935 60.135303 
L 478.8 60.135303 
" style="fill:none;stroke:#b0b0b0;stroke-linecap:square;stroke-width:0.8;"/>
     </g>
     <g id="line2d_52">
      <g>
       <use style="stroke:#000000;stroke-width:0.8;" x="296.935" xlink:href="#md495346ff1" y="60.135303"/>
      </g>
     </g>
     <g id="text_18">
      <!-- 1000 -->
      <g transform="translate(264.485 63.934522)scale(0.1 -0.1)">
       <use xlink:href="#DejaVuSans-31"/>
       <use x="63.623047" xlink:href="#DejaVuSans-30"/>
       <use x="127.246094" xlink:href="#DejaVuSans-30"/>
       <use x="190.869141" xlink:href="#DejaVuSans-30"/>
      </g>
     </g>
    </g>
   </g>
   <g id="line2d_53">
    <path clip-path="url(#pa839c36e35)" d="M 305.201591 250.006364 
L 346.749866 249.920707 
L 347.748954 248.51157 
L 349.816032 245.481929 
L 350.470607 244.949561 
L 350.987377 244.81343 
L 351.469695 244.675232 
L 351.917562 244.305922 
L 352.468783 243.542581 
L 353.157809 242.180059 
L 354.260251 239.457406 
L 355.431595 236.710659 
L 356.08617 235.681398 
L 356.534037 235.330184 
L 357.360868 234.917178 
L 357.774284 234.225267 
L 358.291054 232.861005 
L 358.945628 230.430696 
L 359.979168 225.548455 
L 362.804175 211.749569 
L 363.837714 207.848063 
L 364.664545 205.551725 
L 366.214854 202.033942 
L 367.455101 199.695641 
L 368.316384 198.481229 
L 369.039861 197.790566 
L 369.659985 197.458792 
L 370.31456 197.359751 
L 371.003586 197.188655 
L 371.795966 196.701851 
L 372.657248 195.917082 
L 375.551158 193.142505 
L 376.240184 192.854554 
L 377.893847 192.331398 
L 378.617324 191.616724 
L 379.409704 190.492163 
L 380.512146 188.443246 
L 384.474046 180.540309 
L 385.300878 179.598538 
L 386.024355 179.117043 
L 386.644479 178.962071 
L 387.367956 178.849567 
L 388.125885 178.441932 
L 388.987167 177.706147 
L 392.294493 174.62138 
L 392.914616 174.423722 
L 394.051509 174.168296 
L 394.774987 173.61276 
L 395.532916 172.694607 
L 396.359747 171.345719 
L 397.565543 168.913037 
L 400.321647 163.179005 
L 401.251832 161.798726 
L 401.97531 161.062414 
L 402.698787 160.652505 
L 403.387813 160.553164 
L 404.042388 160.386432 
L 404.834768 159.898919 
L 405.764954 159.04382 
L 408.383253 156.470435 
L 409.175633 156.079927 
L 409.795756 155.996012 
L 410.41588 155.843285 
L 411.139357 155.357439 
L 411.897286 154.507228 
L 412.689666 153.281671 
L 413.86101 150.992336 
L 416.996079 144.514736 
L 417.926265 143.213438 
L 418.649742 142.544625 
L 419.235414 142.242898 
L 419.92444 142.147909 
L 420.613466 141.95782 
L 421.405847 141.4535 
L 422.30158 140.621969 
L 424.850977 138.101302 
L 425.574455 137.713959 
L 426.332383 137.592364 
L 426.952507 137.433133 
L 427.641533 136.972425 
L 428.399462 136.128373 
L 429.260744 134.793169 
L 470.533409 64.933636 
L 470.533409 64.933636 
" style="fill:none;stroke:#1f77b4;stroke-linecap:square;stroke-opacity:0.7;stroke-width:1.5;"/>
   </g>
   <g id="line2d_54">
    <path clip-path="url(#pa839c36e35)" d="M 305.201591 250.006364 
L 314.158931 249.895621 
L 326.630303 249.824143 
L 346.749866 249.699449 
L 347.748954 248.291765 
L 349.884935 245.165222 
L 350.53951 244.630036 
L 351.056279 244.466339 
L 351.641952 244.33398 
L 352.089819 244.010302 
L 352.675491 243.302872 
L 353.330066 242.171493 
L 354.260251 240.110049 
L 356.706294 234.37407 
L 357.533125 233.06179 
L 358.222151 232.369884 
L 358.807823 232.088231 
L 360.04807 231.697145 
L 360.633742 231.146907 
L 361.460574 229.990827 
L 362.356308 228.353969 
L 365.939244 221.275651 
L 366.62827 220.543932 
L 367.179491 220.236452 
L 368.48864 219.782462 
L 369.074312 219.175058 
L 369.935595 217.867951 
L 371.279196 215.226603 
L 373.277372 211.367592 
L 374.138655 210.197001 
L 374.827681 209.600218 
L 375.413353 209.363453 
L 376.515795 209.042559 
L 377.170369 208.438395 
L 377.962749 207.313793 
L 378.892935 205.578942 
L 382.234711 198.853944 
L 382.99264 197.946831 
L 383.578312 197.545268 
L 384.129533 197.42677 
L 384.646303 197.299569 
L 385.197524 196.92024 
L 385.817647 196.22162 
L 386.67893 194.863527 
L 388.125885 192.019132 
L 389.813999 188.842166 
L 390.709733 187.605124 
L 391.43321 186.939416 
L 392.018882 186.652378 
L 393.465837 186.175658 
L 394.085961 185.548696 
L 394.878341 184.387385 
L 395.774075 182.703503 
L 399.494816 175.190421 
L 400.183842 174.405258 
L 400.735063 174.07139 
L 401.251832 173.995308 
L 401.699699 173.82688 
L 402.25092 173.370118 
L 402.871044 172.569987 
L 403.801229 170.950129 
L 406.764041 165.520352 
L 407.52197 164.724962 
L 408.176545 164.35792 
L 409.726854 163.814556 
L 410.450331 163.025036 
L 411.311614 161.676832 
L 412.586312 159.147951 
L 414.756744 154.841111 
L 415.618027 153.642752 
L 416.307053 153.043829 
L 416.892725 152.824459 
L 417.788459 152.599185 
L 418.305229 152.195691 
L 418.925352 151.46407 
L 419.786635 150.089713 
L 421.23359 147.271137 
L 422.852801 144.298042 
L 423.714084 143.159424 
L 424.40311 142.578668 
L 425.023234 142.342721 
L 426.056773 142.061166 
L 426.607994 141.604353 
L 427.400374 140.585917 
L 428.261656 139.097761 
L 430.879956 134.369143 
L 431.741238 133.431488 
L 432.56807 132.840699 
L 433.463804 132.477302 
L 434.531794 132.295274 
L 436.771129 132.214881 
L 443.558036 131.855642 
L 446.417495 131.730968 
L 456.718435 131.442483 
L 463.918758 131.173797 
L 468.535233 130.985816 
L 470.533409 130.886609 
L 470.533409 130.886609 
" style="fill:none;stroke:#d62728;stroke-linecap:square;stroke-opacity:0.7;stroke-width:1.5;"/>
   </g>
   <g id="patch_8">
    <path d="M 296.935 259.26 
L 296.935 55.68 
" style="fill:none;stroke:#000000;stroke-linecap:square;stroke-linejoin:miter;stroke-width:0.8;"/>
   </g>
   <g id="patch_9">
    <path d="M 478.8 259.26 
L 478.8 55.68 
" style="fill:none;stroke:#000000;stroke-linecap:square;stroke-linejoin:miter;stroke-width:0.8;"/>
   </g>
   <g id="patch_10">
    <path d="M 296.935 259.26 
L 478.8 259.26 
" style="fill:none;stroke:#000000;stroke-linecap:square;stroke-linejoin:miter;stroke-width:0.8;"/>
   </g>
   <g id="patch_11">
    <path d="M 296.935 55.68 
L 478.8 55.68 
" style="fill:none;stroke:#000000;stroke-linecap:square;stroke-linejoin:miter;stroke-width:0.8;"/>
   </g>
   <g id="text_19">
    <!-- y (m) -->
    <g transform="translate(371.883125 49.68)scale(0.12 -0.12)">
     <defs>
      <path d="M 2059 -325 
Q 1816 -950 1584 -1140 
Q 1353 -1331 966 -1331 
L 506 -1331 
L 506 -850 
L 844 -850 
Q 1081 -850 1212 -737 
Q 1344 -625 1503 -206 
L 1606 56 
L 191 3500 
L 800 3500 
L 1894 763 
L 2988 3500 
L 3597 3500 
L 2059 -325 
z
" id="DejaVuSans-79" transform="scale(0.015625)"/>
     </defs>
     <use xlink:href="#DejaVuSans-79"/>
     <use x="59.179688" xlink:href="#DejaVuSans-20"/>
     <use x="90.966797" xlink:href="#DejaVuSans-28"/>
     <use x="129.980469" xlink:href="#DejaVuSans-6d"/>
     <use x="227.392578" xlink:href="#DejaVuSans-29"/>
    </g>
   </g>
  </g>
  <g id="axes_3">
   <g id="patch_12">
    <path d="M 71.98 505.24 
L 253.845 505.24 
L 253.845 301.66 
L 71.98 301.66 
z
" style="fill:#ffffff;"/>
   </g>
   <g id="matplotlib.axis_5">
    <g id="xtick_11">
     <g id="line2d_55">
      <path clip-path="url(#pbb8f55344c)" d="M 80.246591 505.24 
L 80.246591 301.66 
" style="fill:none;stroke:#b0b0b0;stroke-linecap:square;stroke-width:0.8;"/>
     </g>
     <g id="line2d_56">
      <g>
       <use style="stroke:#000000;stroke-width:0.8;" x="80.246591" xlink:href="#mba10ff38dc" y="505.24"/>
      </g>
     </g>
     <g id="text_20">
      <!-- 0 -->
      <g transform="translate(77.065341 519.838438)scale(0.1 -0.1)">
       <use xlink:href="#DejaVuSans-30"/>
      </g>
     </g>
    </g>
    <g id="xtick_12">
     <g id="line2d_57">
      <path clip-path="url(#pbb8f55344c)" d="M 121.588158 505.24 
L 121.588158 301.66 
" style="fill:none;stroke:#b0b0b0;stroke-linecap:square;stroke-width:0.8;"/>
     </g>
     <g id="line2d_58">
      <g>
       <use style="stroke:#000000;stroke-width:0.8;" x="121.588158" xlink:href="#mba10ff38dc" y="505.24"/>
      </g>
     </g>
     <g id="text_21">
      <!-- 5 -->
      <g transform="translate(118.406908 519.838438)scale(0.1 -0.1)">
       <defs>
        <path d="M 691 4666 
L 3169 4666 
L 3169 4134 
L 1269 4134 
L 1269 2991 
Q 1406 3038 1543 3061 
Q 1681 3084 1819 3084 
Q 2600 3084 3056 2656 
Q 3513 2228 3513 1497 
Q 3513 744 3044 326 
Q 2575 -91 1722 -91 
Q 1428 -91 1123 -41 
Q 819 9 494 109 
L 494 744 
Q 775 591 1075 516 
Q 1375 441 1709 441 
Q 2250 441 2565 725 
Q 2881 1009 2881 1497 
Q 2881 1984 2565 2268 
Q 2250 2553 1709 2553 
Q 1456 2553 1204 2497 
Q 953 2441 691 2322 
L 691 4666 
z
" id="DejaVuSans-35" transform="scale(0.015625)"/>
       </defs>
       <use xlink:href="#DejaVuSans-35"/>
      </g>
     </g>
    </g>
    <g id="xtick_13">
     <g id="line2d_59">
      <path clip-path="url(#pbb8f55344c)" d="M 162.929726 505.24 
L 162.929726 301.66 
" style="fill:none;stroke:#b0b0b0;stroke-linecap:square;stroke-width:0.8;"/>
     </g>
     <g id="line2d_60">
      <g>
       <use style="stroke:#000000;stroke-width:0.8;" x="162.929726" xlink:href="#mba10ff38dc" y="505.24"/>
      </g>
     </g>
     <g id="text_22">
      <!-- 10 -->
      <g transform="translate(156.567226 519.838438)scale(0.1 -0.1)">
       <use xlink:href="#DejaVuSans-31"/>
       <use x="63.623047" xlink:href="#DejaVuSans-30"/>
      </g>
     </g>
    </g>
    <g id="xtick_14">
     <g id="line2d_61">
      <path clip-path="url(#pbb8f55344c)" d="M 204.271293 505.24 
L 204.271293 301.66 
" style="fill:none;stroke:#b0b0b0;stroke-linecap:square;stroke-width:0.8;"/>
     </g>
     <g id="line2d_62">
      <g>
       <use style="stroke:#000000;stroke-width:0.8;" x="204.271293" xlink:href="#mba10ff38dc" y="505.24"/>
      </g>
     </g>
     <g id="text_23">
      <!-- 15 -->
      <g transform="translate(197.908793 519.838438)scale(0.1 -0.1)">
       <use xlink:href="#DejaVuSans-31"/>
       <use x="63.623047" xlink:href="#DejaVuSans-35"/>
      </g>
     </g>
    </g>
    <g id="xtick_15">
     <g id="line2d_63">
      <path clip-path="url(#pbb8f55344c)" d="M 245.61286 505.24 
L 245.61286 301.66 
" style="fill:none;stroke:#b0b0b0;stroke-linecap:square;stroke-width:0.8;"/>
     </g>
     <g id="line2d_64">
      <g>
       <use style="stroke:#000000;stroke-width:0.8;" x="245.61286" xlink:href="#mba10ff38dc" y="505.24"/>
      </g>
     </g>
     <g id="text_24">
      <!-- 20 -->
      <g transform="translate(239.25036 519.838438)scale(0.1 -0.1)">
       <use xlink:href="#DejaVuSans-32"/>
       <use x="63.623047" xlink:href="#DejaVuSans-30"/>
      </g>
     </g>
    </g>
    <g id="text_25">
     <!-- Tiempo (s) -->
     <g transform="translate(136.35 533.516563)scale(0.1 -0.1)">
      <use xlink:href="#DejaVuSans-54"/>
      <use x="57.958984" xlink:href="#DejaVuSans-69"/>
      <use x="85.742188" xlink:href="#DejaVuSans-65"/>
      <use x="147.265625" xlink:href="#DejaVuSans-6d"/>
      <use x="244.677734" xlink:href="#DejaVuSans-70"/>
      <use x="308.154297" xlink:href="#DejaVuSans-6f"/>
      <use x="369.335938" xlink:href="#DejaVuSans-20"/>
      <use x="401.123047" xlink:href="#DejaVuSans-28"/>
      <use x="440.136719" xlink:href="#DejaVuSans-73"/>
      <use x="492.236328" xlink:href="#DejaVuSans-29"/>
     </g>
    </g>
   </g>
   <g id="matplotlib.axis_6">
    <g id="ytick_16">
     <g id="line2d_65">
      <path clip-path="url(#pbb8f55344c)" d="M 71.98 495.986367 
L 253.845 495.986367 
" style="fill:none;stroke:#b0b0b0;stroke-linecap:square;stroke-width:0.8;"/>
     </g>
     <g id="line2d_66">
      <g>
       <use style="stroke:#000000;stroke-width:0.8;" x="71.98" xlink:href="#md495346ff1" y="495.986367"/>
      </g>
     </g>
     <g id="text_26">
      <!-- 0 -->
      <g transform="translate(58.6175 499.785586)scale(0.1 -0.1)">
       <use xlink:href="#DejaVuSans-30"/>
      </g>
     </g>
    </g>
    <g id="ytick_17">
     <g id="line2d_67">
      <path clip-path="url(#pbb8f55344c)" d="M 71.98 454.837939 
L 253.845 454.837939 
" style="fill:none;stroke:#b0b0b0;stroke-linecap:square;stroke-width:0.8;"/>
     </g>
     <g id="line2d_68">
      <g>
       <use style="stroke:#000000;stroke-width:0.8;" x="71.98" xlink:href="#md495346ff1" y="454.837939"/>
      </g>
     </g>
     <g id="text_27">
      <!-- 2000 -->
      <g transform="translate(39.53 458.637158)scale(0.1 -0.1)">
       <use xlink:href="#DejaVuSans-32"/>
       <use x="63.623047" xlink:href="#DejaVuSans-30"/>
       <use x="127.246094" xlink:href="#DejaVuSans-30"/>
       <use x="190.869141" xlink:href="#DejaVuSans-30"/>
      </g>
     </g>
    </g>
    <g id="ytick_18">
     <g id="line2d_69">
      <path clip-path="url(#pbb8f55344c)" d="M 71.98 413.68951 
L 253.845 413.68951 
" style="fill:none;stroke:#b0b0b0;stroke-linecap:square;stroke-width:0.8;"/>
     </g>
     <g id="line2d_70">
      <g>
       <use style="stroke:#000000;stroke-width:0.8;" x="71.98" xlink:href="#md495346ff1" y="413.68951"/>
      </g>
     </g>
     <g id="text_28">
      <!-- 4000 -->
      <g transform="translate(39.53 417.488729)scale(0.1 -0.1)">
       <use xlink:href="#DejaVuSans-34"/>
       <use x="63.623047" xlink:href="#DejaVuSans-30"/>
       <use x="127.246094" xlink:href="#DejaVuSans-30"/>
       <use x="190.869141" xlink:href="#DejaVuSans-30"/>
      </g>
     </g>
    </g>
    <g id="ytick_19">
     <g id="line2d_71">
      <path clip-path="url(#pbb8f55344c)" d="M 71.98 372.541082 
L 253.845 372.541082 
" style="fill:none;stroke:#b0b0b0;stroke-linecap:square;stroke-width:0.8;"/>
     </g>
     <g id="line2d_72">
      <g>
       <use style="stroke:#000000;stroke-width:0.8;" x="71.98" xlink:href="#md495346ff1" y="372.541082"/>
      </g>
     </g>
     <g id="text_29">
      <!-- 6000 -->
      <g transform="translate(39.53 376.340301)scale(0.1 -0.1)">
       <use xlink:href="#DejaVuSans-36"/>
       <use x="63.623047" xlink:href="#DejaVuSans-30"/>
       <use x="127.246094" xlink:href="#DejaVuSans-30"/>
       <use x="190.869141" xlink:href="#DejaVuSans-30"/>
      </g>
     </g>
    </g>
    <g id="ytick_20">
     <g id="line2d_73">
      <path clip-path="url(#pbb8f55344c)" d="M 71.98 331.392654 
L 253.845 331.392654 
" style="fill:none;stroke:#b0b0b0;stroke-linecap:square;stroke-width:0.8;"/>
     </g>
     <g id="line2d_74">
      <g>
       <use style="stroke:#000000;stroke-width:0.8;" x="71.98" xlink:href="#md495346ff1" y="331.392654"/>
      </g>
     </g>
     <g id="text_30">
      <!-- 8000 -->
      <g transform="translate(39.53 335.191872)scale(0.1 -0.1)">
       <use xlink:href="#DejaVuSans-38"/>
       <use x="63.623047" xlink:href="#DejaVuSans-30"/>
       <use x="127.246094" xlink:href="#DejaVuSans-30"/>
       <use x="190.869141" xlink:href="#DejaVuSans-30"/>
      </g>
     </g>
    </g>
   </g>
   <g id="line2d_75">
    <path clip-path="url(#pbb8f55344c)" d="M 80.246591 495.986364 
L 125.825669 495.866827 
L 131.510134 495.486542 
L 134.989716 495.150499 
L 137.056795 494.978873 
L 138.090334 494.651067 
L 138.951617 494.145159 
L 139.985156 493.235831 
L 144.015959 489.385871 
L 148.184567 485.09074 
L 152.387626 480.441848 
L 156.797393 475.221252 
L 161.172709 469.694456 
L 165.754733 463.535727 
L 170.302305 457.048645 
L 175.056585 449.867417 
L 179.776414 442.334815 
L 184.702951 434.042758 
L 189.629488 425.312677 
L 194.728281 415.815939 
L 199.792623 405.918575 
L 205.167027 394.918247 
L 245.578409 310.913636 
L 245.578409 310.913636 
" style="fill:none;stroke:#1f77b4;stroke-linecap:square;stroke-opacity:0.7;stroke-width:1.5;"/>
   </g>
   <g id="line2d_76">
    <path clip-path="url(#pbb8f55344c)" d="M 80.246591 495.986364 
L 94.19937 495.87291 
L 119.176567 495.320018 
L 129.959826 494.962087 
L 135.024168 494.490709 
L 150.354999 492.675951 
L 167.27059 490.311066 
L 174.505365 489.241016 
L 186.563322 487.62552 
L 197.174324 485.986212 
L 203.65117 484.878609 
L 207.992034 484.16125 
L 211.57497 483.79979 
L 215.226808 483.654862 
L 220.876823 483.487016 
L 226.974704 482.999749 
L 240.238457 481.648175 
L 245.578409 481.115832 
L 245.578409 481.115832 
" style="fill:none;stroke:#d62728;stroke-linecap:square;stroke-opacity:0.7;stroke-width:1.5;"/>
   </g>
   <g id="patch_13">
    <path d="M 71.98 505.24 
L 71.98 301.66 
" style="fill:none;stroke:#000000;stroke-linecap:square;stroke-linejoin:miter;stroke-width:0.8;"/>
   </g>
   <g id="patch_14">
    <path d="M 253.845 505.24 
L 253.845 301.66 
" style="fill:none;stroke:#000000;stroke-linecap:square;stroke-linejoin:miter;stroke-width:0.8;"/>
   </g>
   <g id="patch_15">
    <path d="M 71.98 505.24 
L 253.845 505.24 
" style="fill:none;stroke:#000000;stroke-linecap:square;stroke-linejoin:miter;stroke-width:0.8;"/>
   </g>
   <g id="patch_16">
    <path d="M 71.98 301.66 
L 253.845 301.66 
" style="fill:none;stroke:#000000;stroke-linecap:square;stroke-linejoin:miter;stroke-width:0.8;"/>
   </g>
   <g id="text_31">
    <!-- z (m) -->
    <g transform="translate(147.330312 295.66)scale(0.12 -0.12)">
     <defs>
      <path d="M 353 3500 
L 3084 3500 
L 3084 2975 
L 922 459 
L 3084 459 
L 3084 0 
L 275 0 
L 275 525 
L 2438 3041 
L 353 3041 
L 353 3500 
z
" id="DejaVuSans-7a" transform="scale(0.015625)"/>
     </defs>
     <use xlink:href="#DejaVuSans-7a"/>
     <use x="52.490234" xlink:href="#DejaVuSans-20"/>
     <use x="84.277344" xlink:href="#DejaVuSans-28"/>
     <use x="123.291016" xlink:href="#DejaVuSans-6d"/>
     <use x="220.703125" xlink:href="#DejaVuSans-29"/>
    </g>
   </g>
  </g>
  <g id="axes_4">
   <g id="patch_17">
    <path d="M 296.935 505.24 
L 478.8 505.24 
L 478.8 301.66 
L 296.935 301.66 
z
" style="fill:#ffffff;"/>
   </g>
   <g id="matplotlib.axis_7">
    <g id="xtick_16">
     <g id="line2d_77">
      <path clip-path="url(#p388a39118f)" d="M 305.201591 505.24 
L 305.201591 301.66 
" style="fill:none;stroke:#b0b0b0;stroke-linecap:square;stroke-width:0.8;"/>
     </g>
     <g id="line2d_78">
      <g>
       <use style="stroke:#000000;stroke-width:0.8;" x="305.201591" xlink:href="#mba10ff38dc" y="505.24"/>
      </g>
     </g>
     <g id="text_32">
      <!-- 0 -->
      <g transform="translate(302.020341 519.838438)scale(0.1 -0.1)">
       <use xlink:href="#DejaVuSans-30"/>
      </g>
     </g>
    </g>
    <g id="xtick_17">
     <g id="line2d_79">
      <path clip-path="url(#p388a39118f)" d="M 346.543158 505.24 
L 346.543158 301.66 
" style="fill:none;stroke:#b0b0b0;stroke-linecap:square;stroke-width:0.8;"/>
     </g>
     <g id="line2d_80">
      <g>
       <use style="stroke:#000000;stroke-width:0.8;" x="346.543158" xlink:href="#mba10ff38dc" y="505.24"/>
      </g>
     </g>
     <g id="text_33">
      <!-- 5 -->
      <g transform="translate(343.361908 519.838438)scale(0.1 -0.1)">
       <use xlink:href="#DejaVuSans-35"/>
      </g>
     </g>
    </g>
    <g id="xtick_18">
     <g id="line2d_81">
      <path clip-path="url(#p388a39118f)" d="M 387.884726 505.24 
L 387.884726 301.66 
" style="fill:none;stroke:#b0b0b0;stroke-linecap:square;stroke-width:0.8;"/>
     </g>
     <g id="line2d_82">
      <g>
       <use style="stroke:#000000;stroke-width:0.8;" x="387.884726" xlink:href="#mba10ff38dc" y="505.24"/>
      </g>
     </g>
     <g id="text_34">
      <!-- 10 -->
      <g transform="translate(381.522226 519.838438)scale(0.1 -0.1)">
       <use xlink:href="#DejaVuSans-31"/>
       <use x="63.623047" xlink:href="#DejaVuSans-30"/>
      </g>
     </g>
    </g>
    <g id="xtick_19">
     <g id="line2d_83">
      <path clip-path="url(#p388a39118f)" d="M 429.226293 505.24 
L 429.226293 301.66 
" style="fill:none;stroke:#b0b0b0;stroke-linecap:square;stroke-width:0.8;"/>
     </g>
     <g id="line2d_84">
      <g>
       <use style="stroke:#000000;stroke-width:0.8;" x="429.226293" xlink:href="#mba10ff38dc" y="505.24"/>
      </g>
     </g>
     <g id="text_35">
      <!-- 15 -->
      <g transform="translate(422.863793 519.838438)scale(0.1 -0.1)">
       <use xlink:href="#DejaVuSans-31"/>
       <use x="63.623047" xlink:href="#DejaVuSans-35"/>
      </g>
     </g>
    </g>
    <g id="xtick_20">
     <g id="line2d_85">
      <path clip-path="url(#p388a39118f)" d="M 470.56786 505.24 
L 470.56786 301.66 
" style="fill:none;stroke:#b0b0b0;stroke-linecap:square;stroke-width:0.8;"/>
     </g>
     <g id="line2d_86">
      <g>
       <use style="stroke:#000000;stroke-width:0.8;" x="470.56786" xlink:href="#mba10ff38dc" y="505.24"/>
      </g>
     </g>
     <g id="text_36">
      <!-- 20 -->
      <g transform="translate(464.20536 519.838438)scale(0.1 -0.1)">
       <use xlink:href="#DejaVuSans-32"/>
       <use x="63.623047" xlink:href="#DejaVuSans-30"/>
      </g>
     </g>
    </g>
    <g id="text_37">
     <!-- Tiempo (s) -->
     <g transform="translate(361.305 533.516563)scale(0.1 -0.1)">
      <use xlink:href="#DejaVuSans-54"/>
      <use x="57.958984" xlink:href="#DejaVuSans-69"/>
      <use x="85.742188" xlink:href="#DejaVuSans-65"/>
      <use x="147.265625" xlink:href="#DejaVuSans-6d"/>
      <use x="244.677734" xlink:href="#DejaVuSans-70"/>
      <use x="308.154297" xlink:href="#DejaVuSans-6f"/>
      <use x="369.335938" xlink:href="#DejaVuSans-20"/>
      <use x="401.123047" xlink:href="#DejaVuSans-28"/>
      <use x="440.136719" xlink:href="#DejaVuSans-73"/>
      <use x="492.236328" xlink:href="#DejaVuSans-29"/>
     </g>
    </g>
   </g>
   <g id="matplotlib.axis_8">
    <g id="ytick_21">
     <g id="line2d_87">
      <path clip-path="url(#p388a39118f)" d="M 296.935 495.986364 
L 478.8 495.986364 
" style="fill:none;stroke:#b0b0b0;stroke-linecap:square;stroke-width:0.8;"/>
     </g>
     <g id="line2d_88">
      <g>
       <use style="stroke:#000000;stroke-width:0.8;" x="296.935" xlink:href="#md495346ff1" y="495.986364"/>
      </g>
     </g>
     <g id="text_38">
      <!-- 0 -->
      <g transform="translate(283.5725 499.785582)scale(0.1 -0.1)">
       <use xlink:href="#DejaVuSans-30"/>
      </g>
     </g>
    </g>
    <g id="ytick_22">
     <g id="line2d_89">
      <path clip-path="url(#p388a39118f)" d="M 296.935 466.997142 
L 478.8 466.997142 
" style="fill:none;stroke:#b0b0b0;stroke-linecap:square;stroke-width:0.8;"/>
     </g>
     <g id="line2d_90">
      <g>
       <use style="stroke:#000000;stroke-width:0.8;" x="296.935" xlink:href="#md495346ff1" y="466.997142"/>
      </g>
     </g>
     <g id="text_39">
      <!-- 200 -->
      <g transform="translate(270.8475 470.796361)scale(0.1 -0.1)">
       <use xlink:href="#DejaVuSans-32"/>
       <use x="63.623047" xlink:href="#DejaVuSans-30"/>
       <use x="127.246094" xlink:href="#DejaVuSans-30"/>
      </g>
     </g>
    </g>
    <g id="ytick_23">
     <g id="line2d_91">
      <path clip-path="url(#p388a39118f)" d="M 296.935 438.007921 
L 478.8 438.007921 
" style="fill:none;stroke:#b0b0b0;stroke-linecap:square;stroke-width:0.8;"/>
     </g>
     <g id="line2d_92">
      <g>
       <use style="stroke:#000000;stroke-width:0.8;" x="296.935" xlink:href="#md495346ff1" y="438.007921"/>
      </g>
     </g>
     <g id="text_40">
      <!-- 400 -->
      <g transform="translate(270.8475 441.80714)scale(0.1 -0.1)">
       <use xlink:href="#DejaVuSans-34"/>
       <use x="63.623047" xlink:href="#DejaVuSans-30"/>
       <use x="127.246094" xlink:href="#DejaVuSans-30"/>
      </g>
     </g>
    </g>
    <g id="ytick_24">
     <g id="line2d_93">
      <path clip-path="url(#p388a39118f)" d="M 296.935 409.0187 
L 478.8 409.0187 
" style="fill:none;stroke:#b0b0b0;stroke-linecap:square;stroke-width:0.8;"/>
     </g>
     <g id="line2d_94">
      <g>
       <use style="stroke:#000000;stroke-width:0.8;" x="296.935" xlink:href="#md495346ff1" y="409.0187"/>
      </g>
     </g>
     <g id="text_41">
      <!-- 600 -->
      <g transform="translate(270.8475 412.817918)scale(0.1 -0.1)">
       <use xlink:href="#DejaVuSans-36"/>
       <use x="63.623047" xlink:href="#DejaVuSans-30"/>
       <use x="127.246094" xlink:href="#DejaVuSans-30"/>
      </g>
     </g>
    </g>
    <g id="ytick_25">
     <g id="line2d_95">
      <path clip-path="url(#p388a39118f)" d="M 296.935 380.029478 
L 478.8 380.029478 
" style="fill:none;stroke:#b0b0b0;stroke-linecap:square;stroke-width:0.8;"/>
     </g>
     <g id="line2d_96">
      <g>
       <use style="stroke:#000000;stroke-width:0.8;" x="296.935" xlink:href="#md495346ff1" y="380.029478"/>
      </g>
     </g>
     <g id="text_42">
      <!-- 800 -->
      <g transform="translate(270.8475 383.828697)scale(0.1 -0.1)">
       <use xlink:href="#DejaVuSans-38"/>
       <use x="63.623047" xlink:href="#DejaVuSans-30"/>
       <use x="127.246094" xlink:href="#DejaVuSans-30"/>
      </g>
     </g>
    </g>
    <g id="ytick_26">
     <g id="line2d_97">
      <path clip-path="url(#p388a39118f)" d="M 296.935 351.040257 
L 478.8 351.040257 
" style="fill:none;stroke:#b0b0b0;stroke-linecap:square;stroke-width:0.8;"/>
     </g>
     <g id="line2d_98">
      <g>
       <use style="stroke:#000000;stroke-width:0.8;" x="296.935" xlink:href="#md495346ff1" y="351.040257"/>
      </g>
     </g>
     <g id="text_43">
      <!-- 1000 -->
      <g transform="translate(264.485 354.839476)scale(0.1 -0.1)">
       <use xlink:href="#DejaVuSans-31"/>
       <use x="63.623047" xlink:href="#DejaVuSans-30"/>
       <use x="127.246094" xlink:href="#DejaVuSans-30"/>
       <use x="190.869141" xlink:href="#DejaVuSans-30"/>
      </g>
     </g>
    </g>
    <g id="ytick_27">
     <g id="line2d_99">
      <path clip-path="url(#p388a39118f)" d="M 296.935 322.051035 
L 478.8 322.051035 
" style="fill:none;stroke:#b0b0b0;stroke-linecap:square;stroke-width:0.8;"/>
     </g>
     <g id="line2d_100">
      <g>
       <use style="stroke:#000000;stroke-width:0.8;" x="296.935" xlink:href="#md495346ff1" y="322.051035"/>
      </g>
     </g>
     <g id="text_44">
      <!-- 1200 -->
      <g transform="translate(264.485 325.850254)scale(0.1 -0.1)">
       <use xlink:href="#DejaVuSans-31"/>
       <use x="63.623047" xlink:href="#DejaVuSans-32"/>
       <use x="127.246094" xlink:href="#DejaVuSans-30"/>
       <use x="190.869141" xlink:href="#DejaVuSans-30"/>
      </g>
     </g>
    </g>
   </g>
   <g id="line2d_101">
    <path clip-path="url(#p388a39118f)" d="M 305.201591 495.986364 
L 348.024564 495.876394 
L 351.021828 495.395228 
L 352.262075 494.786069 
L 353.467871 494.260295 
L 357.223063 493.110602 
L 358.118797 492.46661 
L 359.014531 491.519732 
L 360.289229 490.143615 
L 360.805999 489.900192 
L 361.770636 489.597612 
L 362.287405 489.076707 
L 362.907529 488.101622 
L 363.631006 486.495044 
L 364.423386 484.170701 
L 365.181315 482.029547 
L 365.698084 481.065697 
L 366.731624 479.946701 
L 368.970959 477.904499 
L 371.244745 476.101905 
L 373.690788 474.442782 
L 376.171282 473.043715 
L 378.445068 472.008846 
L 380.718854 471.210873 
L 383.061543 470.637424 
L 385.36978 470.316158 
L 387.781372 470.227678 
L 388.091433 470.116786 
L 390.571928 469.09146 
L 392.845714 468.636991 
L 395.050597 467.974074 
L 397.324384 467.066623 
L 399.701524 465.861876 
L 402.113115 464.373115 
L 404.455804 462.666648 
L 406.970749 460.55366 
L 409.657951 457.985204 
L 412.310702 455.127137 
L 415.032355 451.865613 
L 417.754008 448.263768 
L 420.682369 444.007788 
L 423.748535 439.13434 
L 426.711348 434.012662 
L 429.777514 428.283223 
L 433.050388 421.684565 
L 436.495519 414.204795 
L 439.837295 406.422357 
L 443.454682 397.411267 
L 447.209875 387.420201 
L 451.03397 376.574824 
L 454.99587 364.629137 
L 458.888868 352.197568 
L 463.057476 338.124558 
L 467.260535 323.128949 
L 470.533409 310.913636 
L 470.533409 310.913636 
" style="fill:none;stroke:#1f77b4;stroke-linecap:square;stroke-opacity:0.7;stroke-width:1.5;"/>
   </g>
   <g id="line2d_102">
    <path clip-path="url(#p388a39118f)" d="M 305.201591 495.986364 
L 308.164403 495.87644 
L 311.78179 495.596402 
L 315.812593 495.418787 
L 324.735481 494.515928 
L 349.678227 492.05086 
L 351.435244 491.902255 
L 353.398968 491.623378 
L 354.673667 491.510567 
L 356.120621 491.145461 
L 358.842275 490.424083 
L 361.047158 490.005121 
L 365.146864 489.810342 
L 367.42065 489.491039 
L 368.902056 489.018176 
L 371.589258 487.901912 
L 375.34445 486.259273 
L 384.474046 485.208675 
L 386.196612 484.564481 
L 388.401495 483.743264 
L 389.951804 483.451495 
L 390.227414 483.274543 
L 391.639918 482.41086 
L 392.397847 482.247083 
L 394.292669 482.192763 
L 395.808526 482.015785 
L 398.736887 481.589734 
L 400.66616 481.36805 
L 402.526531 480.745295 
L 408.486607 479.02628 
L 409.864659 478.802412 
L 411.759481 478.594327 
L 414.756744 478.545928 
L 416.927177 478.417336 
L 418.201875 478.108316 
L 419.545476 477.536538 
L 420.992431 476.670079 
L 423.369571 474.919355 
L 424.437561 474.285104 
L 425.229942 474.065855 
L 434.462892 472.678908 
L 436.80558 472.115587 
L 438.011376 472.009931 
L 439.182721 471.86384 
L 440.733029 471.416953 
L 443.868098 470.505868 
L 445.694017 470.223722 
L 447.692193 470.16091 
L 452.997694 469.938029 
L 457.200754 469.708402 
L 465.055651 469.510536 
L 470.533409 469.364028 
L 470.533409 469.364028 
" style="fill:none;stroke:#d62728;stroke-linecap:square;stroke-opacity:0.7;stroke-width:1.5;"/>
   </g>
   <g id="patch_18">
    <path d="M 296.935 505.24 
L 296.935 301.66 
" style="fill:none;stroke:#000000;stroke-linecap:square;stroke-linejoin:miter;stroke-width:0.8;"/>
   </g>
   <g id="patch_19">
    <path d="M 478.8 505.24 
L 478.8 301.66 
" style="fill:none;stroke:#000000;stroke-linecap:square;stroke-linejoin:miter;stroke-width:0.8;"/>
   </g>
   <g id="patch_20">
    <path d="M 296.935 505.24 
L 478.8 505.24 
" style="fill:none;stroke:#000000;stroke-linecap:square;stroke-linejoin:miter;stroke-width:0.8;"/>
   </g>
   <g id="patch_21">
    <path d="M 296.935 301.66 
L 478.8 301.66 
" style="fill:none;stroke:#000000;stroke-linecap:square;stroke-linejoin:miter;stroke-width:0.8;"/>
   </g>
   <g id="text_45">
    <!-- $\psi$ (rad) -->
    <g transform="translate(367.3475 295.66)scale(0.12 -0.12)">
     <defs>
      <path d="M 1591 -78 
Q 891 38 616 341 
Q 278 713 425 1472 
L 819 3500 
L 1400 3500 
L 1009 1494 
Q 900 922 1119 684 
Q 1313 478 1691 434 
L 2284 3500 
L 2856 3500 
L 2263 438 
Q 2681 481 2928 688 
Q 3247 950 3353 1497 
L 3741 3500 
L 4322 3500 
L 3928 1475 
Q 3775 688 3300 344 
Q 2872 34 2163 -75 
L 1919 -1331 
L 1347 -1331 
L 1591 -78 
z
" id="DejaVuSans-Oblique-3c8" transform="scale(0.015625)"/>
      <path d="M 2631 2963 
Q 2534 3019 2420 3045 
Q 2306 3072 2169 3072 
Q 1681 3072 1420 2755 
Q 1159 2438 1159 1844 
L 1159 0 
L 581 0 
L 581 3500 
L 1159 3500 
L 1159 2956 
Q 1341 3275 1631 3429 
Q 1922 3584 2338 3584 
Q 2397 3584 2469 3576 
Q 2541 3569 2628 3553 
L 2631 2963 
z
" id="DejaVuSans-72" transform="scale(0.015625)"/>
      <path d="M 2194 1759 
Q 1497 1759 1228 1600 
Q 959 1441 959 1056 
Q 959 750 1161 570 
Q 1363 391 1709 391 
Q 2188 391 2477 730 
Q 2766 1069 2766 1631 
L 2766 1759 
L 2194 1759 
z
M 3341 1997 
L 3341 0 
L 2766 0 
L 2766 531 
Q 2569 213 2275 61 
Q 1981 -91 1556 -91 
Q 1019 -91 701 211 
Q 384 513 384 1019 
Q 384 1609 779 1909 
Q 1175 2209 1959 2209 
L 2766 2209 
L 2766 2266 
Q 2766 2663 2505 2880 
Q 2244 3097 1772 3097 
Q 1472 3097 1187 3025 
Q 903 2953 641 2809 
L 641 3341 
Q 956 3463 1253 3523 
Q 1550 3584 1831 3584 
Q 2591 3584 2966 3190 
Q 3341 2797 3341 1997 
z
" id="DejaVuSans-61" transform="scale(0.015625)"/>
      <path d="M 2906 2969 
L 2906 4863 
L 3481 4863 
L 3481 0 
L 2906 0 
L 2906 525 
Q 2725 213 2448 61 
Q 2172 -91 1784 -91 
Q 1150 -91 751 415 
Q 353 922 353 1747 
Q 353 2572 751 3078 
Q 1150 3584 1784 3584 
Q 2172 3584 2448 3432 
Q 2725 3281 2906 2969 
z
M 947 1747 
Q 947 1113 1208 752 
Q 1469 391 1925 391 
Q 2381 391 2643 752 
Q 2906 1113 2906 1747 
Q 2906 2381 2643 2742 
Q 2381 3103 1925 3103 
Q 1469 3103 1208 2742 
Q 947 2381 947 1747 
z
" id="DejaVuSans-64" transform="scale(0.015625)"/>
     </defs>
     <use transform="translate(0 0.015625)" xlink:href="#DejaVuSans-Oblique-3c8"/>
     <use transform="translate(65.966797 0.015625)" xlink:href="#DejaVuSans-20"/>
     <use transform="translate(97.753906 0.015625)" xlink:href="#DejaVuSans-28"/>
     <use transform="translate(136.767578 0.015625)" xlink:href="#DejaVuSans-72"/>
     <use transform="translate(177.880859 0.015625)" xlink:href="#DejaVuSans-61"/>
     <use transform="translate(239.160156 0.015625)" xlink:href="#DejaVuSans-64"/>
     <use transform="translate(302.636719 0.015625)" xlink:href="#DejaVuSans-29"/>
    </g>
   </g>
  </g>
  <g id="legend_1">
   <g id="patch_22">
    <path d="M 488.398438 304.178125 
L 569 304.178125 
Q 571 304.178125 571 302.178125 
L 571 273.821875 
Q 571 271.821875 569 271.821875 
L 488.398438 271.821875 
Q 486.398438 271.821875 486.398438 273.821875 
L 486.398438 302.178125 
Q 486.398438 304.178125 488.398438 304.178125 
z
" style="fill:#ffffff;opacity:0.8;stroke:#cccccc;stroke-linejoin:miter;"/>
   </g>
   <g id="line2d_103">
    <path d="M 490.398438 279.920313 
L 510.398438 279.920313 
" style="fill:none;stroke:#1f77b4;stroke-linecap:square;stroke-opacity:0.7;stroke-width:1.5;"/>
   </g>
   <g id="line2d_104"/>
   <g id="text_46">
    <!-- DSLPID -->
    <g transform="translate(518.398438 283.420313)scale(0.1 -0.1)">
     <defs>
      <path d="M 1259 4147 
L 1259 519 
L 2022 519 
Q 2988 519 3436 956 
Q 3884 1394 3884 2338 
Q 3884 3275 3436 3711 
Q 2988 4147 2022 4147 
L 1259 4147 
z
M 628 4666 
L 1925 4666 
Q 3281 4666 3915 4102 
Q 4550 3538 4550 2338 
Q 4550 1131 3912 565 
Q 3275 0 1925 0 
L 628 0 
L 628 4666 
z
" id="DejaVuSans-44" transform="scale(0.015625)"/>
      <path d="M 3425 4513 
L 3425 3897 
Q 3066 4069 2747 4153 
Q 2428 4238 2131 4238 
Q 1616 4238 1336 4038 
Q 1056 3838 1056 3469 
Q 1056 3159 1242 3001 
Q 1428 2844 1947 2747 
L 2328 2669 
Q 3034 2534 3370 2195 
Q 3706 1856 3706 1288 
Q 3706 609 3251 259 
Q 2797 -91 1919 -91 
Q 1588 -91 1214 -16 
Q 841 59 441 206 
L 441 856 
Q 825 641 1194 531 
Q 1563 422 1919 422 
Q 2459 422 2753 634 
Q 3047 847 3047 1241 
Q 3047 1584 2836 1778 
Q 2625 1972 2144 2069 
L 1759 2144 
Q 1053 2284 737 2584 
Q 422 2884 422 3419 
Q 422 4038 858 4394 
Q 1294 4750 2059 4750 
Q 2388 4750 2728 4690 
Q 3069 4631 3425 4513 
z
" id="DejaVuSans-53" transform="scale(0.015625)"/>
      <path d="M 628 4666 
L 1259 4666 
L 1259 531 
L 3531 531 
L 3531 0 
L 628 0 
L 628 4666 
z
" id="DejaVuSans-4c" transform="scale(0.015625)"/>
      <path d="M 1259 4147 
L 1259 2394 
L 2053 2394 
Q 2494 2394 2734 2622 
Q 2975 2850 2975 3272 
Q 2975 3691 2734 3919 
Q 2494 4147 2053 4147 
L 1259 4147 
z
M 628 4666 
L 2053 4666 
Q 2838 4666 3239 4311 
Q 3641 3956 3641 3272 
Q 3641 2581 3239 2228 
Q 2838 1875 2053 1875 
L 1259 1875 
L 1259 0 
L 628 0 
L 628 4666 
z
" id="DejaVuSans-50" transform="scale(0.015625)"/>
      <path d="M 628 4666 
L 1259 4666 
L 1259 0 
L 628 0 
L 628 4666 
z
" id="DejaVuSans-49" transform="scale(0.015625)"/>
     </defs>
     <use xlink:href="#DejaVuSans-44"/>
     <use x="77.001953" xlink:href="#DejaVuSans-53"/>
     <use x="140.478516" xlink:href="#DejaVuSans-4c"/>
     <use x="196.191406" xlink:href="#DejaVuSans-50"/>
     <use x="256.494141" xlink:href="#DejaVuSans-49"/>
     <use x="285.986328" xlink:href="#DejaVuSans-44"/>
    </g>
   </g>
   <g id="line2d_105">
    <path d="M 490.398438 294.598438 
L 510.398438 294.598438 
" style="fill:none;stroke:#d62728;stroke-linecap:square;stroke-opacity:0.7;stroke-width:1.5;"/>
   </g>
   <g id="line2d_106"/>
   <g id="text_47">
    <!-- LSTMCNN -->
    <g transform="translate(518.398438 298.098438)scale(0.1 -0.1)">
     <defs>
      <path d="M 628 4666 
L 1569 4666 
L 2759 1491 
L 3956 4666 
L 4897 4666 
L 4897 0 
L 4281 0 
L 4281 4097 
L 3078 897 
L 2444 897 
L 1241 4097 
L 1241 0 
L 628 0 
L 628 4666 
z
" id="DejaVuSans-4d" transform="scale(0.015625)"/>
      <path d="M 4122 4306 
L 4122 3641 
Q 3803 3938 3442 4084 
Q 3081 4231 2675 4231 
Q 1875 4231 1450 3742 
Q 1025 3253 1025 2328 
Q 1025 1406 1450 917 
Q 1875 428 2675 428 
Q 3081 428 3442 575 
Q 3803 722 4122 1019 
L 4122 359 
Q 3791 134 3420 21 
Q 3050 -91 2638 -91 
Q 1578 -91 968 557 
Q 359 1206 359 2328 
Q 359 3453 968 4101 
Q 1578 4750 2638 4750 
Q 3056 4750 3426 4639 
Q 3797 4528 4122 4306 
z
" id="DejaVuSans-43" transform="scale(0.015625)"/>
      <path d="M 628 4666 
L 1478 4666 
L 3547 763 
L 3547 4666 
L 4159 4666 
L 4159 0 
L 3309 0 
L 1241 3903 
L 1241 0 
L 628 0 
L 628 4666 
z
" id="DejaVuSans-4e" transform="scale(0.015625)"/>
     </defs>
     <use xlink:href="#DejaVuSans-4c"/>
     <use x="55.712891" xlink:href="#DejaVuSans-53"/>
     <use x="119.189453" xlink:href="#DejaVuSans-54"/>
     <use x="180.273438" xlink:href="#DejaVuSans-4d"/>
     <use x="266.552734" xlink:href="#DejaVuSans-43"/>
     <use x="336.376953" xlink:href="#DejaVuSans-4e"/>
     <use x="411.181641" xlink:href="#DejaVuSans-4e"/>
    </g>
   </g>
  </g>
 </g>
 <defs>
  <clipPath id="p738f360ef7">
   <rect height="203.58" width="181.865" x="71.98" y="55.68"/>
  </clipPath>
  <clipPath id="pa839c36e35">
   <rect height="203.58" width="181.865" x="296.935" y="55.68"/>
  </clipPath>
  <clipPath id="pbb8f55344c">
   <rect height="203.58" width="181.865" x="71.98" y="301.66"/>
  </clipPath>
  <clipPath id="p388a39118f">
   <rect height="203.58" width="181.865" x="296.935" y="301.66"/>
  </clipPath>
 </defs>
</svg>
