<?xml version="1.0" encoding="utf-8" standalone="no"?>
<!DOCTYPE svg PUBLIC "-//W3C//DTD SVG 1.1//EN"
  "http://www.w3.org/Graphics/SVG/1.1/DTD/svg11.dtd">
<svg height="288pt" version="1.1" viewBox="0 0 576 288" width="576pt" xmlns="http://www.w3.org/2000/svg" xmlns:xlink="http://www.w3.org/1999/xlink">
 <metadata>
  <rdf:RDF xmlns:cc="http://creativecommons.org/ns#" xmlns:dc="http://purl.org/dc/elements/1.1/" xmlns:rdf="http://www.w3.org/1999/02/22-rdf-syntax-ns#">
   <cc:Work>
    <dc:type rdf:resource="http://purl.org/dc/dcmitype/StillImage"/>
    <dc:date>2022-02-26T03:59:44.055201</dc:date>
    <dc:format>image/svg+xml</dc:format>
    <dc:creator>
     <cc:Agent>
      <dc:title>Matplotlib v3.4.3, https://matplotlib.org/</dc:title>
     </cc:Agent>
    </dc:creator>
   </cc:Work>
  </rdf:RDF>
 </metadata>
 <defs>
  <style type="text/css">*{stroke-linecap:butt;stroke-linejoin:round;}</style>
 </defs>
 <g id="figure_1">
  <g id="patch_1">
   <path d="M 0 288 
L 576 288 
L 576 0 
L 0 0 
z
" style="fill:#ffffff;"/>
  </g>
  <g id="axes_1">
   <g id="patch_2">
    <path d="M 84.89 231.64 
L 257.985 231.64 
L 257.985 66.48 
L 84.89 66.48 
z
" style="fill:#ffffff;"/>
   </g>
   <g id="matplotlib.axis_1">
    <g id="xtick_1">
     <g id="line2d_1">
      <path clip-path="url(#p4c39a28b94)" d="M 130.806252 231.64 
L 130.806252 66.48 
" style="fill:none;stroke:#b0b0b0;stroke-linecap:square;stroke-width:0.8;"/>
     </g>
     <g id="line2d_2">
      <defs>
       <path d="M 0 0 
L 0 3.5 
" id="m24c3690717" style="stroke:#000000;stroke-width:0.8;"/>
      </defs>
      <g>
       <use style="stroke:#000000;stroke-width:0.8;" x="130.806252" xlink:href="#m24c3690717" y="231.64"/>
      </g>
     </g>
     <g id="text_1">
      <!-- −1.0 -->
      <g transform="translate(118.664845 246.238438)scale(0.1 -0.1)">
       <defs>
        <path d="M 678 2272 
L 4684 2272 
L 4684 1741 
L 678 1741 
L 678 2272 
z
" id="DejaVuSans-2212" transform="scale(0.015625)"/>
        <path d="M 794 531 
L 1825 531 
L 1825 4091 
L 703 3866 
L 703 4441 
L 1819 4666 
L 2450 4666 
L 2450 531 
L 3481 531 
L 3481 0 
L 794 0 
L 794 531 
z
" id="DejaVuSans-31" transform="scale(0.015625)"/>
        <path d="M 684 794 
L 1344 794 
L 1344 0 
L 684 0 
L 684 794 
z
" id="DejaVuSans-2e" transform="scale(0.015625)"/>
        <path d="M 2034 4250 
Q 1547 4250 1301 3770 
Q 1056 3291 1056 2328 
Q 1056 1369 1301 889 
Q 1547 409 2034 409 
Q 2525 409 2770 889 
Q 3016 1369 3016 2328 
Q 3016 3291 2770 3770 
Q 2525 4250 2034 4250 
z
M 2034 4750 
Q 2819 4750 3233 4129 
Q 3647 3509 3647 2328 
Q 3647 1150 3233 529 
Q 2819 -91 2034 -91 
Q 1250 -91 836 529 
Q 422 1150 422 2328 
Q 422 3509 836 4129 
Q 1250 4750 2034 4750 
z
" id="DejaVuSans-30" transform="scale(0.015625)"/>
       </defs>
       <use xlink:href="#DejaVuSans-2212"/>
       <use x="83.789062" xlink:href="#DejaVuSans-31"/>
       <use x="147.412109" xlink:href="#DejaVuSans-2e"/>
       <use x="179.199219" xlink:href="#DejaVuSans-30"/>
      </g>
     </g>
    </g>
    <g id="xtick_2">
     <g id="line2d_3">
      <path clip-path="url(#p4c39a28b94)" d="M 184.753433 231.64 
L 184.753433 66.48 
" style="fill:none;stroke:#b0b0b0;stroke-linecap:square;stroke-width:0.8;"/>
     </g>
     <g id="line2d_4">
      <g>
       <use style="stroke:#000000;stroke-width:0.8;" x="184.753433" xlink:href="#m24c3690717" y="231.64"/>
      </g>
     </g>
     <g id="text_2">
      <!-- −0.5 -->
      <g transform="translate(172.612027 246.238438)scale(0.1 -0.1)">
       <defs>
        <path d="M 691 4666 
L 3169 4666 
L 3169 4134 
L 1269 4134 
L 1269 2991 
Q 1406 3038 1543 3061 
Q 1681 3084 1819 3084 
Q 2600 3084 3056 2656 
Q 3513 2228 3513 1497 
Q 3513 744 3044 326 
Q 2575 -91 1722 -91 
Q 1428 -91 1123 -41 
Q 819 9 494 109 
L 494 744 
Q 775 591 1075 516 
Q 1375 441 1709 441 
Q 2250 441 2565 725 
Q 2881 1009 2881 1497 
Q 2881 1984 2565 2268 
Q 2250 2553 1709 2553 
Q 1456 2553 1204 2497 
Q 953 2441 691 2322 
L 691 4666 
z
" id="DejaVuSans-35" transform="scale(0.015625)"/>
       </defs>
       <use xlink:href="#DejaVuSans-2212"/>
       <use x="83.789062" xlink:href="#DejaVuSans-30"/>
       <use x="147.412109" xlink:href="#DejaVuSans-2e"/>
       <use x="179.199219" xlink:href="#DejaVuSans-35"/>
      </g>
     </g>
    </g>
    <g id="xtick_3">
     <g id="line2d_5">
      <path clip-path="url(#p4c39a28b94)" d="M 238.700614 231.64 
L 238.700614 66.48 
" style="fill:none;stroke:#b0b0b0;stroke-linecap:square;stroke-width:0.8;"/>
     </g>
     <g id="line2d_6">
      <g>
       <use style="stroke:#000000;stroke-width:0.8;" x="238.700614" xlink:href="#m24c3690717" y="231.64"/>
      </g>
     </g>
     <g id="text_3">
      <!-- 0.0 -->
      <g transform="translate(230.749051 246.238438)scale(0.1 -0.1)">
       <use xlink:href="#DejaVuSans-30"/>
       <use x="63.623047" xlink:href="#DejaVuSans-2e"/>
       <use x="95.410156" xlink:href="#DejaVuSans-30"/>
      </g>
     </g>
    </g>
    <g id="text_4">
     <!-- x (m) -->
     <g transform="translate(158.117188 259.916562)scale(0.1 -0.1)">
      <defs>
       <path d="M 3513 3500 
L 2247 1797 
L 3578 0 
L 2900 0 
L 1881 1375 
L 863 0 
L 184 0 
L 1544 1831 
L 300 3500 
L 978 3500 
L 1906 2253 
L 2834 3500 
L 3513 3500 
z
" id="DejaVuSans-78" transform="scale(0.015625)"/>
       <path id="DejaVuSans-20" transform="scale(0.015625)"/>
       <path d="M 1984 4856 
Q 1566 4138 1362 3434 
Q 1159 2731 1159 2009 
Q 1159 1288 1364 580 
Q 1569 -128 1984 -844 
L 1484 -844 
Q 1016 -109 783 600 
Q 550 1309 550 2009 
Q 550 2706 781 3412 
Q 1013 4119 1484 4856 
L 1984 4856 
z
" id="DejaVuSans-28" transform="scale(0.015625)"/>
       <path d="M 3328 2828 
Q 3544 3216 3844 3400 
Q 4144 3584 4550 3584 
Q 5097 3584 5394 3201 
Q 5691 2819 5691 2113 
L 5691 0 
L 5113 0 
L 5113 2094 
Q 5113 2597 4934 2840 
Q 4756 3084 4391 3084 
Q 3944 3084 3684 2787 
Q 3425 2491 3425 1978 
L 3425 0 
L 2847 0 
L 2847 2094 
Q 2847 2600 2669 2842 
Q 2491 3084 2119 3084 
Q 1678 3084 1418 2786 
Q 1159 2488 1159 1978 
L 1159 0 
L 581 0 
L 581 3500 
L 1159 3500 
L 1159 2956 
Q 1356 3278 1631 3431 
Q 1906 3584 2284 3584 
Q 2666 3584 2933 3390 
Q 3200 3197 3328 2828 
z
" id="DejaVuSans-6d" transform="scale(0.015625)"/>
       <path d="M 513 4856 
L 1013 4856 
Q 1481 4119 1714 3412 
Q 1947 2706 1947 2009 
Q 1947 1309 1714 600 
Q 1481 -109 1013 -844 
L 513 -844 
Q 928 -128 1133 580 
Q 1338 1288 1338 2009 
Q 1338 2731 1133 3434 
Q 928 4138 513 4856 
z
" id="DejaVuSans-29" transform="scale(0.015625)"/>
      </defs>
      <use xlink:href="#DejaVuSans-78"/>
      <use x="59.179688" xlink:href="#DejaVuSans-20"/>
      <use x="90.966797" xlink:href="#DejaVuSans-28"/>
      <use x="129.980469" xlink:href="#DejaVuSans-6d"/>
      <use x="227.392578" xlink:href="#DejaVuSans-29"/>
     </g>
    </g>
   </g>
   <g id="matplotlib.axis_2">
    <g id="ytick_1">
     <g id="line2d_7">
      <path clip-path="url(#p4c39a28b94)" d="M 84.89 230.100964 
L 257.985 230.100964 
" style="fill:none;stroke:#b0b0b0;stroke-linecap:square;stroke-width:0.8;"/>
     </g>
     <g id="line2d_8">
      <defs>
       <path d="M 0 0 
L -3.5 0 
" id="m0572d63646" style="stroke:#000000;stroke-width:0.8;"/>
      </defs>
      <g>
       <use style="stroke:#000000;stroke-width:0.8;" x="84.89" xlink:href="#m0572d63646" y="230.100964"/>
      </g>
     </g>
     <g id="text_5">
      <!-- −0.4 -->
      <g transform="translate(53.607187 233.900182)scale(0.1 -0.1)">
       <defs>
        <path d="M 2419 4116 
L 825 1625 
L 2419 1625 
L 2419 4116 
z
M 2253 4666 
L 3047 4666 
L 3047 1625 
L 3713 1625 
L 3713 1100 
L 3047 1100 
L 3047 0 
L 2419 0 
L 2419 1100 
L 313 1100 
L 313 1709 
L 2253 4666 
z
" id="DejaVuSans-34" transform="scale(0.015625)"/>
       </defs>
       <use xlink:href="#DejaVuSans-2212"/>
       <use x="83.789062" xlink:href="#DejaVuSans-30"/>
       <use x="147.412109" xlink:href="#DejaVuSans-2e"/>
       <use x="179.199219" xlink:href="#DejaVuSans-34"/>
      </g>
     </g>
    </g>
    <g id="ytick_2">
     <g id="line2d_9">
      <path clip-path="url(#p4c39a28b94)" d="M 84.89 203.436614 
L 257.985 203.436614 
" style="fill:none;stroke:#b0b0b0;stroke-linecap:square;stroke-width:0.8;"/>
     </g>
     <g id="line2d_10">
      <g>
       <use style="stroke:#000000;stroke-width:0.8;" x="84.89" xlink:href="#m0572d63646" y="203.436614"/>
      </g>
     </g>
     <g id="text_6">
      <!-- −0.3 -->
      <g transform="translate(53.607187 207.235833)scale(0.1 -0.1)">
       <defs>
        <path d="M 2597 2516 
Q 3050 2419 3304 2112 
Q 3559 1806 3559 1356 
Q 3559 666 3084 287 
Q 2609 -91 1734 -91 
Q 1441 -91 1130 -33 
Q 819 25 488 141 
L 488 750 
Q 750 597 1062 519 
Q 1375 441 1716 441 
Q 2309 441 2620 675 
Q 2931 909 2931 1356 
Q 2931 1769 2642 2001 
Q 2353 2234 1838 2234 
L 1294 2234 
L 1294 2753 
L 1863 2753 
Q 2328 2753 2575 2939 
Q 2822 3125 2822 3475 
Q 2822 3834 2567 4026 
Q 2313 4219 1838 4219 
Q 1578 4219 1281 4162 
Q 984 4106 628 3988 
L 628 4550 
Q 988 4650 1302 4700 
Q 1616 4750 1894 4750 
Q 2613 4750 3031 4423 
Q 3450 4097 3450 3541 
Q 3450 3153 3228 2886 
Q 3006 2619 2597 2516 
z
" id="DejaVuSans-33" transform="scale(0.015625)"/>
       </defs>
       <use xlink:href="#DejaVuSans-2212"/>
       <use x="83.789062" xlink:href="#DejaVuSans-30"/>
       <use x="147.412109" xlink:href="#DejaVuSans-2e"/>
       <use x="179.199219" xlink:href="#DejaVuSans-33"/>
      </g>
     </g>
    </g>
    <g id="ytick_3">
     <g id="line2d_11">
      <path clip-path="url(#p4c39a28b94)" d="M 84.89 176.772265 
L 257.985 176.772265 
" style="fill:none;stroke:#b0b0b0;stroke-linecap:square;stroke-width:0.8;"/>
     </g>
     <g id="line2d_12">
      <g>
       <use style="stroke:#000000;stroke-width:0.8;" x="84.89" xlink:href="#m0572d63646" y="176.772265"/>
      </g>
     </g>
     <g id="text_7">
      <!-- −0.2 -->
      <g transform="translate(53.607187 180.571484)scale(0.1 -0.1)">
       <defs>
        <path d="M 1228 531 
L 3431 531 
L 3431 0 
L 469 0 
L 469 531 
Q 828 903 1448 1529 
Q 2069 2156 2228 2338 
Q 2531 2678 2651 2914 
Q 2772 3150 2772 3378 
Q 2772 3750 2511 3984 
Q 2250 4219 1831 4219 
Q 1534 4219 1204 4116 
Q 875 4013 500 3803 
L 500 4441 
Q 881 4594 1212 4672 
Q 1544 4750 1819 4750 
Q 2544 4750 2975 4387 
Q 3406 4025 3406 3419 
Q 3406 3131 3298 2873 
Q 3191 2616 2906 2266 
Q 2828 2175 2409 1742 
Q 1991 1309 1228 531 
z
" id="DejaVuSans-32" transform="scale(0.015625)"/>
       </defs>
       <use xlink:href="#DejaVuSans-2212"/>
       <use x="83.789062" xlink:href="#DejaVuSans-30"/>
       <use x="147.412109" xlink:href="#DejaVuSans-2e"/>
       <use x="179.199219" xlink:href="#DejaVuSans-32"/>
      </g>
     </g>
    </g>
    <g id="ytick_4">
     <g id="line2d_13">
      <path clip-path="url(#p4c39a28b94)" d="M 84.89 150.107916 
L 257.985 150.107916 
" style="fill:none;stroke:#b0b0b0;stroke-linecap:square;stroke-width:0.8;"/>
     </g>
     <g id="line2d_14">
      <g>
       <use style="stroke:#000000;stroke-width:0.8;" x="84.89" xlink:href="#m0572d63646" y="150.107916"/>
      </g>
     </g>
     <g id="text_8">
      <!-- −0.1 -->
      <g transform="translate(53.607187 153.907134)scale(0.1 -0.1)">
       <use xlink:href="#DejaVuSans-2212"/>
       <use x="83.789062" xlink:href="#DejaVuSans-30"/>
       <use x="147.412109" xlink:href="#DejaVuSans-2e"/>
       <use x="179.199219" xlink:href="#DejaVuSans-31"/>
      </g>
     </g>
    </g>
    <g id="ytick_5">
     <g id="line2d_15">
      <path clip-path="url(#p4c39a28b94)" d="M 84.89 123.443566 
L 257.985 123.443566 
" style="fill:none;stroke:#b0b0b0;stroke-linecap:square;stroke-width:0.8;"/>
     </g>
     <g id="line2d_16">
      <g>
       <use style="stroke:#000000;stroke-width:0.8;" x="84.89" xlink:href="#m0572d63646" y="123.443566"/>
      </g>
     </g>
     <g id="text_9">
      <!-- 0.0 -->
      <g transform="translate(61.986875 127.242785)scale(0.1 -0.1)">
       <use xlink:href="#DejaVuSans-30"/>
       <use x="63.623047" xlink:href="#DejaVuSans-2e"/>
       <use x="95.410156" xlink:href="#DejaVuSans-30"/>
      </g>
     </g>
    </g>
    <g id="ytick_6">
     <g id="line2d_17">
      <path clip-path="url(#p4c39a28b94)" d="M 84.89 96.779217 
L 257.985 96.779217 
" style="fill:none;stroke:#b0b0b0;stroke-linecap:square;stroke-width:0.8;"/>
     </g>
     <g id="line2d_18">
      <g>
       <use style="stroke:#000000;stroke-width:0.8;" x="84.89" xlink:href="#m0572d63646" y="96.779217"/>
      </g>
     </g>
     <g id="text_10">
      <!-- 0.1 -->
      <g transform="translate(61.986875 100.578436)scale(0.1 -0.1)">
       <use xlink:href="#DejaVuSans-30"/>
       <use x="63.623047" xlink:href="#DejaVuSans-2e"/>
       <use x="95.410156" xlink:href="#DejaVuSans-31"/>
      </g>
     </g>
    </g>
    <g id="ytick_7">
     <g id="line2d_19">
      <path clip-path="url(#p4c39a28b94)" d="M 84.89 70.114868 
L 257.985 70.114868 
" style="fill:none;stroke:#b0b0b0;stroke-linecap:square;stroke-width:0.8;"/>
     </g>
     <g id="line2d_20">
      <g>
       <use style="stroke:#000000;stroke-width:0.8;" x="84.89" xlink:href="#m0572d63646" y="70.114868"/>
      </g>
     </g>
     <g id="text_11">
      <!-- 0.2 -->
      <g transform="translate(61.986875 73.914086)scale(0.1 -0.1)">
       <use xlink:href="#DejaVuSans-30"/>
       <use x="63.623047" xlink:href="#DejaVuSans-2e"/>
       <use x="95.410156" xlink:href="#DejaVuSans-32"/>
      </g>
     </g>
    </g>
    <g id="text_12">
     <!-- y (m) -->
     <g transform="translate(47.5275 162.380313)rotate(-90)scale(0.1 -0.1)">
      <defs>
       <path d="M 2059 -325 
Q 1816 -950 1584 -1140 
Q 1353 -1331 966 -1331 
L 506 -1331 
L 506 -850 
L 844 -850 
Q 1081 -850 1212 -737 
Q 1344 -625 1503 -206 
L 1606 56 
L 191 3500 
L 800 3500 
L 1894 763 
L 2988 3500 
L 3597 3500 
L 2059 -325 
z
" id="DejaVuSans-79" transform="scale(0.015625)"/>
      </defs>
      <use xlink:href="#DejaVuSans-79"/>
      <use x="59.179688" xlink:href="#DejaVuSans-20"/>
      <use x="90.966797" xlink:href="#DejaVuSans-28"/>
      <use x="129.980469" xlink:href="#DejaVuSans-6d"/>
      <use x="227.392578" xlink:href="#DejaVuSans-29"/>
     </g>
    </g>
   </g>
   <g id="line2d_21">
    <path clip-path="url(#p4c39a28b94)" d="M 238.700614 123.443566 
L 243.907252 110.279755 
L 249.059053 97.644678 
L 250.11586 95.243073 
L 249.610769 96.485656 
" style="fill:none;stroke:#1f77b4;stroke-linecap:square;stroke-opacity:0.7;stroke-width:1.5;"/>
   </g>
   <g id="line2d_22">
    <path clip-path="url(#p4c39a28b94)" d="M 238.700614 123.443566 
L 239.757322 124.190432 
L 241.515427 125.648406 
L 242.864896 127.034849 
L 244.08991 128.605984 
L 245.048118 130.173736 
L 245.801457 131.794943 
L 246.409246 133.666958 
L 246.76405 135.482186 
L 246.924053 137.49551 
L 246.855095 139.704329 
L 246.527131 142.104951 
L 245.912106 144.697751 
L 244.986094 147.489564 
L 243.728872 150.497642 
L 242.125307 153.749965 
L 239.809257 157.898381 
L 236.587834 163.168239 
L 231.244519 171.404167 
L 221.968266 185.224659 
L 214.899165 195.429565 
L 209.569845 202.739434 
L 205.529965 207.912751 
L 202.162248 211.88733 
L 199.479011 214.776315 
L 196.812595 217.354696 
L 194.167592 219.577426 
L 192.199504 220.986476 
L 190.245335 222.155815 
L 188.305064 223.06828 
L 186.378254 223.708239 
L 184.464128 224.062038 
L 182.561651 224.116513 
L 180.669624 223.855427 
L 178.786466 223.265879 
L 176.910294 222.334889 
L 175.038836 221.053033 
L 173.169483 219.413128 
L 171.299294 217.408907 
L 169.425036 215.037453 
L 167.543209 212.297881 
L 165.650106 209.191597 
L 163.101616 204.483974 
L 160.516523 199.142479 
L 157.884722 193.181217 
L 154.515425 184.902229 
L 150.34173 173.897889 
L 145.285896 159.87224 
L 137.687815 138.039063 
L 131.745187 120.508827 
L 126.757641 103.267737 
L 123.056284 91.26864 
L 121.679502 87.132651 
L 120.473179 84.326092 
L 119.296781 82.128728 
L 117.762945 79.932767 
L 116.271895 78.213921 
L 114.895279 76.963211 
L 112.962576 75.58925 
L 111.758957 74.969542 
L 109.775016 74.246799 
L 108.433061 74.00489 
L 107.109486 74.034338 
L 106.037143 74.266997 
L 104.933006 74.719389 
L 103.777098 75.40924 
L 102.243108 76.623366 
L 100.728644 78.03076 
L 99.056809 79.952169 
L 97.228239 82.514872 
L 95.324523 85.675442 
L 93.912005 88.400852 
L 93.357436 90.083151 
L 92.984754 91.977826 
L 92.76926 94.867103 
L 92.809579 97.571456 
L 93.074645 100.773419 
L 93.584137 104.215087 
L 94.20477 106.865456 
L 94.771413 108.265383 
L 95.228844 108.882525 
L 95.714045 109.217254 
L 96.22194 109.241568 
L 96.751398 109.034239 
L 97.307268 108.543426 
L 97.889111 107.766001 
L 98.720213 106.187981 
L 99.604566 103.78838 
L 100.487961 100.574891 
L 101.26317 96.820877 
L 101.425879 94.689722 
L 101.237734 92.650812 
L 100.840218 91.248386 
L 100.397322 90.31963 
L 99.765351 89.531275 
L 99.25126 89.252064 
L 98.922907 89.379224 
L 98.788562 89.69905 
L 98.845325 90.077748 
L 99.090608 90.428895 
L 99.505393 90.675633 
L 100.055138 90.735493 
L 100.690961 90.540033 
L 101.129409 90.205563 
L 101.536212 89.533121 
L 101.753055 88.504799 
L 101.714089 87.074896 
L 101.436487 85.825655 
L 101.042122 85.052801 
L 100.770843 84.943903 
L 100.710364 85.101046 
L 100.804923 85.528148 
L 101.223198 86.212596 
L 101.735841 86.639392 
L 102.049501 86.698325 
L 102.382345 86.530937 
L 102.661022 85.986144 
L 102.747725 85.243444 
L 102.62992 84.361446 
L 102.353842 83.758965 
L 102.100944 83.643543 
L 101.971519 83.775316 
L 101.923342 84.176237 
L 102.07587 84.735796 
L 102.430844 85.217727 
L 102.675983 85.341917 
L 102.956406 85.203532 
L 103.173309 84.730837 
L 103.226726 84.131751 
L 103.044662 83.407353 
L 102.871838 83.318114 
L 102.759194 83.495786 
L 102.758303 84.026195 
L 102.927331 84.378257 
L 103.153125 84.378821 
L 103.308514 84.136481 
L 103.397295 83.683929 
L 103.29915 82.967201 
L 103.043896 82.703415 
L 102.877013 82.773897 
L 102.697444 83.127139 
L 102.655887 83.788569 
L 102.809928 84.331928 
L 103.01359 84.49917 
L 103.170745 84.404241 
L 103.368137 83.937174 
L 103.412054 83.152866 
L 103.197467 82.503309 
L 102.997018 82.374189 
L 102.822745 82.493516 
L 102.687099 82.883278 
L 102.726046 83.358623 
L 102.852869 83.483916 
L 102.999023 83.338109 
L 103.095084 82.926411 
L 103.054336 82.337593 
L 102.836659 81.958093 
L 102.655502 81.995725 
L 102.472191 82.414134 
L 102.450636 82.953996 
L 102.638426 83.416476 
L 102.843043 83.405217 
L 103.010685 83.077144 
L 103.067882 82.510136 
L 102.952183 81.937493 
L 102.695543 81.67511 
L 102.508413 81.753877 
L 102.363172 82.028704 
L 102.294007 82.610553 
L 102.453704 83.166555 
L 102.637618 83.253514 
L 102.791603 83.0281 
L 102.83837 82.413211 
L 102.703815 81.965576 
L 102.448692 81.803689 
L 102.265581 81.98092 
L 102.139298 82.610878 
L 102.282679 83.292891 
L 102.459588 83.385907 
L 102.58511 83.197847 
L 102.589151 82.698858 
L 102.432217 82.357635 
L 102.257818 82.319853 
L 102.083311 82.566955 
L 102.011725 83.053398 
L 102.139206 83.689468 
L 102.359605 83.805426 
L 102.532976 83.623806 
L 102.615706 83.186499 
L 102.490313 82.746258 
L 102.309428 82.717418 
L 102.106602 82.992629 
L 102.002574 83.605391 
L 102.138612 84.129161 
L 102.281776 84.198523 
L 102.40416 84.081287 
L 102.489169 83.698387 
L 102.380474 83.185632 
L 102.19675 83.086499 
L 102.012249 83.298217 
L 101.9376 83.786148 
L 102.084901 84.340887 
L 102.266429 84.379092 
L 102.390403 84.113769 
L 102.392459 83.592558 
L 102.209563 83.251905 
L 102.077738 83.25662 
L 101.907532 83.574565 
L 101.894089 84.286246 
L 102.099204 84.681786 
L 102.268254 84.565368 
L 102.358229 84.204011 
L 102.244126 83.682012 
L 102.045221 83.582673 
L 101.911963 83.732314 
L 101.823589 84.221369 
L 101.966869 84.76999 
L 102.143341 84.749709 
L 102.24246 84.391792 
L 102.143873 83.836755 
L 101.955824 83.745423 
L 101.839011 83.971005 
L 101.825043 84.591343 
L 101.954276 84.894648 
L 102.114536 84.875756 
L 102.242198 84.511603 
L 102.149377 84.028464 
L 102.034712 84.063917 
L 101.974069 84.366543 
L 102.084994 84.855174 
L 102.215726 84.893511 
L 102.328424 84.707333 
L 102.346541 84.224005 
L 102.192876 83.86559 
L 101.966249 83.870518 
L 101.784998 84.156166 
L 101.719653 84.682007 
L 101.838234 84.933337 
L 101.914346 84.758824 
L 101.839399 84.384885 
L 101.680118 84.361478 
L 101.573867 84.697243 
L 101.675064 85.186183 
L 101.838901 85.176697 
L 101.946916 84.853763 
L 101.912818 84.4032 
L 101.739123 84.174811 
L 101.612884 84.253572 
L 101.520772 84.615403 
L 101.635381 84.980425 
L 101.727783 84.935233 
L 101.789185 84.596434 
L 101.70193 84.214945 
L 101.572024 84.149026 
L 101.405731 84.391137 
L 101.402606 84.80404 
L 101.535943 84.959506 
L 101.620871 84.832089 
L 101.591675 84.356433 
L 101.425732 84.293278 
L 101.314335 84.614973 
L 101.404564 85.011631 
L 101.485716 84.961665 
L 101.506034 84.666291 
L 101.382994 84.537378 
L 101.281448 84.790723 
L 101.38723 85.192007 
L 101.479403 85.132753 
L 101.465852 84.791829 
L 101.396163 84.779591 
L 101.36644 84.825885 
L 101.368204 85.1378 
L 101.478674 85.190823 
L 101.540128 84.910789 
L 101.445717 84.675274 
L 101.359643 84.745332 
L 101.357664 85.083466 
L 101.417417 85.076183 
L 101.433555 85.010716 
L 101.416692 84.875806 
L 101.356505 85.078361 
L 101.359745 84.983747 
" style="fill:none;stroke:#d62728;stroke-linecap:square;stroke-opacity:0.7;stroke-width:1.5;"/>
   </g>
   <g id="line2d_23">
    <path clip-path="url(#p4c39a28b94)" d="M 238.700614 123.443566 
L 249.49005 96.779217 
L 249.49005 96.779217 
" style="fill:none;stroke:#000000;stroke-dasharray:5.55,2.4;stroke-dashoffset:0;stroke-opacity:0.595;stroke-width:1.5;"/>
   </g>
   <g id="patch_3">
    <path d="M 84.89 231.64 
L 84.89 66.48 
" style="fill:none;stroke:#000000;stroke-linecap:square;stroke-linejoin:miter;stroke-width:0.8;"/>
   </g>
   <g id="patch_4">
    <path d="M 257.985 231.64 
L 257.985 66.48 
" style="fill:none;stroke:#000000;stroke-linecap:square;stroke-linejoin:miter;stroke-width:0.8;"/>
   </g>
   <g id="patch_5">
    <path d="M 84.89 231.64 
L 257.985 231.64 
" style="fill:none;stroke:#000000;stroke-linecap:square;stroke-linejoin:miter;stroke-width:0.8;"/>
   </g>
   <g id="patch_6">
    <path d="M 84.89 66.48 
L 257.985 66.48 
" style="fill:none;stroke:#000000;stroke-linecap:square;stroke-linejoin:miter;stroke-width:0.8;"/>
   </g>
   <g id="text_13">
    <!-- Plano xy -->
    <g transform="translate(145.992813 60.48)scale(0.12 -0.12)">
     <defs>
      <path d="M 1259 4147 
L 1259 2394 
L 2053 2394 
Q 2494 2394 2734 2622 
Q 2975 2850 2975 3272 
Q 2975 3691 2734 3919 
Q 2494 4147 2053 4147 
L 1259 4147 
z
M 628 4666 
L 2053 4666 
Q 2838 4666 3239 4311 
Q 3641 3956 3641 3272 
Q 3641 2581 3239 2228 
Q 2838 1875 2053 1875 
L 1259 1875 
L 1259 0 
L 628 0 
L 628 4666 
z
" id="DejaVuSans-50" transform="scale(0.015625)"/>
      <path d="M 603 4863 
L 1178 4863 
L 1178 0 
L 603 0 
L 603 4863 
z
" id="DejaVuSans-6c" transform="scale(0.015625)"/>
      <path d="M 2194 1759 
Q 1497 1759 1228 1600 
Q 959 1441 959 1056 
Q 959 750 1161 570 
Q 1363 391 1709 391 
Q 2188 391 2477 730 
Q 2766 1069 2766 1631 
L 2766 1759 
L 2194 1759 
z
M 3341 1997 
L 3341 0 
L 2766 0 
L 2766 531 
Q 2569 213 2275 61 
Q 1981 -91 1556 -91 
Q 1019 -91 701 211 
Q 384 513 384 1019 
Q 384 1609 779 1909 
Q 1175 2209 1959 2209 
L 2766 2209 
L 2766 2266 
Q 2766 2663 2505 2880 
Q 2244 3097 1772 3097 
Q 1472 3097 1187 3025 
Q 903 2953 641 2809 
L 641 3341 
Q 956 3463 1253 3523 
Q 1550 3584 1831 3584 
Q 2591 3584 2966 3190 
Q 3341 2797 3341 1997 
z
" id="DejaVuSans-61" transform="scale(0.015625)"/>
      <path d="M 3513 2113 
L 3513 0 
L 2938 0 
L 2938 2094 
Q 2938 2591 2744 2837 
Q 2550 3084 2163 3084 
Q 1697 3084 1428 2787 
Q 1159 2491 1159 1978 
L 1159 0 
L 581 0 
L 581 3500 
L 1159 3500 
L 1159 2956 
Q 1366 3272 1645 3428 
Q 1925 3584 2291 3584 
Q 2894 3584 3203 3211 
Q 3513 2838 3513 2113 
z
" id="DejaVuSans-6e" transform="scale(0.015625)"/>
      <path d="M 1959 3097 
Q 1497 3097 1228 2736 
Q 959 2375 959 1747 
Q 959 1119 1226 758 
Q 1494 397 1959 397 
Q 2419 397 2687 759 
Q 2956 1122 2956 1747 
Q 2956 2369 2687 2733 
Q 2419 3097 1959 3097 
z
M 1959 3584 
Q 2709 3584 3137 3096 
Q 3566 2609 3566 1747 
Q 3566 888 3137 398 
Q 2709 -91 1959 -91 
Q 1206 -91 779 398 
Q 353 888 353 1747 
Q 353 2609 779 3096 
Q 1206 3584 1959 3584 
z
" id="DejaVuSans-6f" transform="scale(0.015625)"/>
     </defs>
     <use xlink:href="#DejaVuSans-50"/>
     <use x="60.302734" xlink:href="#DejaVuSans-6c"/>
     <use x="88.085938" xlink:href="#DejaVuSans-61"/>
     <use x="149.365234" xlink:href="#DejaVuSans-6e"/>
     <use x="212.744141" xlink:href="#DejaVuSans-6f"/>
     <use x="273.925781" xlink:href="#DejaVuSans-20"/>
     <use x="305.712891" xlink:href="#DejaVuSans-78"/>
     <use x="364.892578" xlink:href="#DejaVuSans-79"/>
    </g>
   </g>
  </g>
  <g id="axes_2">
   <g id="patch_7">
    <path d="M 305.705 231.64 
L 478.8 231.64 
L 478.8 66.48 
L 305.705 66.48 
z
" style="fill:#ffffff;"/>
   </g>
   <g id="matplotlib.axis_3">
    <g id="xtick_4">
     <g id="line2d_24">
      <path clip-path="url(#p7646326ee3)" d="M 313.572955 231.64 
L 313.572955 66.48 
" style="fill:none;stroke:#b0b0b0;stroke-linecap:square;stroke-width:0.8;"/>
     </g>
     <g id="line2d_25">
      <g>
       <use style="stroke:#000000;stroke-width:0.8;" x="313.572955" xlink:href="#m24c3690717" y="231.64"/>
      </g>
     </g>
     <g id="text_14">
      <!-- 0 -->
      <g transform="translate(310.391705 246.238438)scale(0.1 -0.1)">
       <use xlink:href="#DejaVuSans-30"/>
      </g>
     </g>
    </g>
    <g id="xtick_5">
     <g id="line2d_26">
      <path clip-path="url(#p7646326ee3)" d="M 352.920925 231.64 
L 352.920925 66.48 
" style="fill:none;stroke:#b0b0b0;stroke-linecap:square;stroke-width:0.8;"/>
     </g>
     <g id="line2d_27">
      <g>
       <use style="stroke:#000000;stroke-width:0.8;" x="352.920925" xlink:href="#m24c3690717" y="231.64"/>
      </g>
     </g>
     <g id="text_15">
      <!-- 5 -->
      <g transform="translate(349.739675 246.238438)scale(0.1 -0.1)">
       <use xlink:href="#DejaVuSans-35"/>
      </g>
     </g>
    </g>
    <g id="xtick_6">
     <g id="line2d_28">
      <path clip-path="url(#p7646326ee3)" d="M 392.268895 231.64 
L 392.268895 66.48 
" style="fill:none;stroke:#b0b0b0;stroke-linecap:square;stroke-width:0.8;"/>
     </g>
     <g id="line2d_29">
      <g>
       <use style="stroke:#000000;stroke-width:0.8;" x="392.268895" xlink:href="#m24c3690717" y="231.64"/>
      </g>
     </g>
     <g id="text_16">
      <!-- 10 -->
      <g transform="translate(385.906395 246.238438)scale(0.1 -0.1)">
       <use xlink:href="#DejaVuSans-31"/>
       <use x="63.623047" xlink:href="#DejaVuSans-30"/>
      </g>
     </g>
    </g>
    <g id="xtick_7">
     <g id="line2d_30">
      <path clip-path="url(#p7646326ee3)" d="M 431.616865 231.64 
L 431.616865 66.48 
" style="fill:none;stroke:#b0b0b0;stroke-linecap:square;stroke-width:0.8;"/>
     </g>
     <g id="line2d_31">
      <g>
       <use style="stroke:#000000;stroke-width:0.8;" x="431.616865" xlink:href="#m24c3690717" y="231.64"/>
      </g>
     </g>
     <g id="text_17">
      <!-- 15 -->
      <g transform="translate(425.254365 246.238438)scale(0.1 -0.1)">
       <use xlink:href="#DejaVuSans-31"/>
       <use x="63.623047" xlink:href="#DejaVuSans-35"/>
      </g>
     </g>
    </g>
    <g id="xtick_8">
     <g id="line2d_32">
      <path clip-path="url(#p7646326ee3)" d="M 470.964835 231.64 
L 470.964835 66.48 
" style="fill:none;stroke:#b0b0b0;stroke-linecap:square;stroke-width:0.8;"/>
     </g>
     <g id="line2d_33">
      <g>
       <use style="stroke:#000000;stroke-width:0.8;" x="470.964835" xlink:href="#m24c3690717" y="231.64"/>
      </g>
     </g>
     <g id="text_18">
      <!-- 20 -->
      <g transform="translate(464.602335 246.238438)scale(0.1 -0.1)">
       <use xlink:href="#DejaVuSans-32"/>
       <use x="63.623047" xlink:href="#DejaVuSans-30"/>
      </g>
     </g>
    </g>
    <g id="text_19">
     <!-- Tiempo (s) -->
     <g transform="translate(365.69 259.916562)scale(0.1 -0.1)">
      <defs>
       <path d="M -19 4666 
L 3928 4666 
L 3928 4134 
L 2272 4134 
L 2272 0 
L 1638 0 
L 1638 4134 
L -19 4134 
L -19 4666 
z
" id="DejaVuSans-54" transform="scale(0.015625)"/>
       <path d="M 603 3500 
L 1178 3500 
L 1178 0 
L 603 0 
L 603 3500 
z
M 603 4863 
L 1178 4863 
L 1178 4134 
L 603 4134 
L 603 4863 
z
" id="DejaVuSans-69" transform="scale(0.015625)"/>
       <path d="M 3597 1894 
L 3597 1613 
L 953 1613 
Q 991 1019 1311 708 
Q 1631 397 2203 397 
Q 2534 397 2845 478 
Q 3156 559 3463 722 
L 3463 178 
Q 3153 47 2828 -22 
Q 2503 -91 2169 -91 
Q 1331 -91 842 396 
Q 353 884 353 1716 
Q 353 2575 817 3079 
Q 1281 3584 2069 3584 
Q 2775 3584 3186 3129 
Q 3597 2675 3597 1894 
z
M 3022 2063 
Q 3016 2534 2758 2815 
Q 2500 3097 2075 3097 
Q 1594 3097 1305 2825 
Q 1016 2553 972 2059 
L 3022 2063 
z
" id="DejaVuSans-65" transform="scale(0.015625)"/>
       <path d="M 1159 525 
L 1159 -1331 
L 581 -1331 
L 581 3500 
L 1159 3500 
L 1159 2969 
Q 1341 3281 1617 3432 
Q 1894 3584 2278 3584 
Q 2916 3584 3314 3078 
Q 3713 2572 3713 1747 
Q 3713 922 3314 415 
Q 2916 -91 2278 -91 
Q 1894 -91 1617 61 
Q 1341 213 1159 525 
z
M 3116 1747 
Q 3116 2381 2855 2742 
Q 2594 3103 2138 3103 
Q 1681 3103 1420 2742 
Q 1159 2381 1159 1747 
Q 1159 1113 1420 752 
Q 1681 391 2138 391 
Q 2594 391 2855 752 
Q 3116 1113 3116 1747 
z
" id="DejaVuSans-70" transform="scale(0.015625)"/>
       <path d="M 2834 3397 
L 2834 2853 
Q 2591 2978 2328 3040 
Q 2066 3103 1784 3103 
Q 1356 3103 1142 2972 
Q 928 2841 928 2578 
Q 928 2378 1081 2264 
Q 1234 2150 1697 2047 
L 1894 2003 
Q 2506 1872 2764 1633 
Q 3022 1394 3022 966 
Q 3022 478 2636 193 
Q 2250 -91 1575 -91 
Q 1294 -91 989 -36 
Q 684 19 347 128 
L 347 722 
Q 666 556 975 473 
Q 1284 391 1588 391 
Q 1994 391 2212 530 
Q 2431 669 2431 922 
Q 2431 1156 2273 1281 
Q 2116 1406 1581 1522 
L 1381 1569 
Q 847 1681 609 1914 
Q 372 2147 372 2553 
Q 372 3047 722 3315 
Q 1072 3584 1716 3584 
Q 2034 3584 2315 3537 
Q 2597 3491 2834 3397 
z
" id="DejaVuSans-73" transform="scale(0.015625)"/>
      </defs>
      <use xlink:href="#DejaVuSans-54"/>
      <use x="57.958984" xlink:href="#DejaVuSans-69"/>
      <use x="85.742188" xlink:href="#DejaVuSans-65"/>
      <use x="147.265625" xlink:href="#DejaVuSans-6d"/>
      <use x="244.677734" xlink:href="#DejaVuSans-70"/>
      <use x="308.154297" xlink:href="#DejaVuSans-6f"/>
      <use x="369.335938" xlink:href="#DejaVuSans-20"/>
      <use x="401.123047" xlink:href="#DejaVuSans-28"/>
      <use x="440.136719" xlink:href="#DejaVuSans-73"/>
      <use x="492.236328" xlink:href="#DejaVuSans-29"/>
     </g>
    </g>
   </g>
   <g id="matplotlib.axis_4">
    <g id="ytick_8">
     <g id="line2d_34">
      <path clip-path="url(#p7646326ee3)" d="M 305.705 225.745874 
L 478.8 225.745874 
" style="fill:none;stroke:#b0b0b0;stroke-linecap:square;stroke-width:0.8;"/>
     </g>
     <g id="line2d_35">
      <g>
       <use style="stroke:#000000;stroke-width:0.8;" x="305.705" xlink:href="#m0572d63646" y="225.745874"/>
      </g>
     </g>
     <g id="text_20">
      <!-- 0.0 -->
      <g transform="translate(282.801875 229.545092)scale(0.1 -0.1)">
       <use xlink:href="#DejaVuSans-30"/>
       <use x="63.623047" xlink:href="#DejaVuSans-2e"/>
       <use x="95.410156" xlink:href="#DejaVuSans-30"/>
      </g>
     </g>
    </g>
    <g id="ytick_9">
     <g id="line2d_36">
      <path clip-path="url(#p7646326ee3)" d="M 305.705 198.190562 
L 478.8 198.190562 
" style="fill:none;stroke:#b0b0b0;stroke-linecap:square;stroke-width:0.8;"/>
     </g>
     <g id="line2d_37">
      <g>
       <use style="stroke:#000000;stroke-width:0.8;" x="305.705" xlink:href="#m0572d63646" y="198.190562"/>
      </g>
     </g>
     <g id="text_21">
      <!-- 0.2 -->
      <g transform="translate(282.801875 201.98978)scale(0.1 -0.1)">
       <use xlink:href="#DejaVuSans-30"/>
       <use x="63.623047" xlink:href="#DejaVuSans-2e"/>
       <use x="95.410156" xlink:href="#DejaVuSans-32"/>
      </g>
     </g>
    </g>
    <g id="ytick_10">
     <g id="line2d_38">
      <path clip-path="url(#p7646326ee3)" d="M 305.705 170.635249 
L 478.8 170.635249 
" style="fill:none;stroke:#b0b0b0;stroke-linecap:square;stroke-width:0.8;"/>
     </g>
     <g id="line2d_39">
      <g>
       <use style="stroke:#000000;stroke-width:0.8;" x="305.705" xlink:href="#m0572d63646" y="170.635249"/>
      </g>
     </g>
     <g id="text_22">
      <!-- 0.4 -->
      <g transform="translate(282.801875 174.434468)scale(0.1 -0.1)">
       <use xlink:href="#DejaVuSans-30"/>
       <use x="63.623047" xlink:href="#DejaVuSans-2e"/>
       <use x="95.410156" xlink:href="#DejaVuSans-34"/>
      </g>
     </g>
    </g>
    <g id="ytick_11">
     <g id="line2d_40">
      <path clip-path="url(#p7646326ee3)" d="M 305.705 143.079937 
L 478.8 143.079937 
" style="fill:none;stroke:#b0b0b0;stroke-linecap:square;stroke-width:0.8;"/>
     </g>
     <g id="line2d_41">
      <g>
       <use style="stroke:#000000;stroke-width:0.8;" x="305.705" xlink:href="#m0572d63646" y="143.079937"/>
      </g>
     </g>
     <g id="text_23">
      <!-- 0.6 -->
      <g transform="translate(282.801875 146.879156)scale(0.1 -0.1)">
       <defs>
        <path d="M 2113 2584 
Q 1688 2584 1439 2293 
Q 1191 2003 1191 1497 
Q 1191 994 1439 701 
Q 1688 409 2113 409 
Q 2538 409 2786 701 
Q 3034 994 3034 1497 
Q 3034 2003 2786 2293 
Q 2538 2584 2113 2584 
z
M 3366 4563 
L 3366 3988 
Q 3128 4100 2886 4159 
Q 2644 4219 2406 4219 
Q 1781 4219 1451 3797 
Q 1122 3375 1075 2522 
Q 1259 2794 1537 2939 
Q 1816 3084 2150 3084 
Q 2853 3084 3261 2657 
Q 3669 2231 3669 1497 
Q 3669 778 3244 343 
Q 2819 -91 2113 -91 
Q 1303 -91 875 529 
Q 447 1150 447 2328 
Q 447 3434 972 4092 
Q 1497 4750 2381 4750 
Q 2619 4750 2861 4703 
Q 3103 4656 3366 4563 
z
" id="DejaVuSans-36" transform="scale(0.015625)"/>
       </defs>
       <use xlink:href="#DejaVuSans-30"/>
       <use x="63.623047" xlink:href="#DejaVuSans-2e"/>
       <use x="95.410156" xlink:href="#DejaVuSans-36"/>
      </g>
     </g>
    </g>
    <g id="ytick_12">
     <g id="line2d_42">
      <path clip-path="url(#p7646326ee3)" d="M 305.705 115.524625 
L 478.8 115.524625 
" style="fill:none;stroke:#b0b0b0;stroke-linecap:square;stroke-width:0.8;"/>
     </g>
     <g id="line2d_43">
      <g>
       <use style="stroke:#000000;stroke-width:0.8;" x="305.705" xlink:href="#m0572d63646" y="115.524625"/>
      </g>
     </g>
     <g id="text_24">
      <!-- 0.8 -->
      <g transform="translate(282.801875 119.323844)scale(0.1 -0.1)">
       <defs>
        <path d="M 2034 2216 
Q 1584 2216 1326 1975 
Q 1069 1734 1069 1313 
Q 1069 891 1326 650 
Q 1584 409 2034 409 
Q 2484 409 2743 651 
Q 3003 894 3003 1313 
Q 3003 1734 2745 1975 
Q 2488 2216 2034 2216 
z
M 1403 2484 
Q 997 2584 770 2862 
Q 544 3141 544 3541 
Q 544 4100 942 4425 
Q 1341 4750 2034 4750 
Q 2731 4750 3128 4425 
Q 3525 4100 3525 3541 
Q 3525 3141 3298 2862 
Q 3072 2584 2669 2484 
Q 3125 2378 3379 2068 
Q 3634 1759 3634 1313 
Q 3634 634 3220 271 
Q 2806 -91 2034 -91 
Q 1263 -91 848 271 
Q 434 634 434 1313 
Q 434 1759 690 2068 
Q 947 2378 1403 2484 
z
M 1172 3481 
Q 1172 3119 1398 2916 
Q 1625 2713 2034 2713 
Q 2441 2713 2670 2916 
Q 2900 3119 2900 3481 
Q 2900 3844 2670 4047 
Q 2441 4250 2034 4250 
Q 1625 4250 1398 4047 
Q 1172 3844 1172 3481 
z
" id="DejaVuSans-38" transform="scale(0.015625)"/>
       </defs>
       <use xlink:href="#DejaVuSans-30"/>
       <use x="63.623047" xlink:href="#DejaVuSans-2e"/>
       <use x="95.410156" xlink:href="#DejaVuSans-38"/>
      </g>
     </g>
    </g>
    <g id="ytick_13">
     <g id="line2d_44">
      <path clip-path="url(#p7646326ee3)" d="M 305.705 87.969313 
L 478.8 87.969313 
" style="fill:none;stroke:#b0b0b0;stroke-linecap:square;stroke-width:0.8;"/>
     </g>
     <g id="line2d_45">
      <g>
       <use style="stroke:#000000;stroke-width:0.8;" x="305.705" xlink:href="#m0572d63646" y="87.969313"/>
      </g>
     </g>
     <g id="text_25">
      <!-- 1.0 -->
      <g transform="translate(282.801875 91.768532)scale(0.1 -0.1)">
       <use xlink:href="#DejaVuSans-31"/>
       <use x="63.623047" xlink:href="#DejaVuSans-2e"/>
       <use x="95.410156" xlink:href="#DejaVuSans-30"/>
      </g>
     </g>
    </g>
    <g id="text_26">
     <!-- z (m) -->
     <g transform="translate(276.722188 162.045156)rotate(-90)scale(0.1 -0.1)">
      <defs>
       <path d="M 353 3500 
L 3084 3500 
L 3084 2975 
L 922 459 
L 3084 459 
L 3084 0 
L 275 0 
L 275 525 
L 2438 3041 
L 353 3041 
L 353 3500 
z
" id="DejaVuSans-7a" transform="scale(0.015625)"/>
      </defs>
      <use xlink:href="#DejaVuSans-7a"/>
      <use x="52.490234" xlink:href="#DejaVuSans-20"/>
      <use x="84.277344" xlink:href="#DejaVuSans-28"/>
      <use x="123.291016" xlink:href="#DejaVuSans-6d"/>
      <use x="220.703125" xlink:href="#DejaVuSans-29"/>
     </g>
    </g>
   </g>
   <g id="line2d_46">
    <path clip-path="url(#p7646326ee3)" d="M 313.572955 87.992754 
L 313.999224 88.156257 
L 314.818974 88.174583 
L 321.081859 87.987724 
L 337.345687 87.965557 
L 353.183245 87.898564 
L 353.412774 87.416097 
L 353.937414 85.598681 
L 355.052273 81.800238 
L 355.872023 79.80487 
L 356.757352 78.220312 
L 357.708261 76.959673 
L 358.65917 76.0651 
L 359.67566 75.423258 
L 360.954469 74.89753 
L 362.528387 74.492554 
L 364.528576 74.221973 
L 367.610834 74.055475 
L 373.873719 73.989537 
L 415.090718 74.021629 
L 470.932045 74.064228 
L 470.932045 74.064228 
" style="fill:none;stroke:#1f77b4;stroke-linecap:square;stroke-opacity:0.7;stroke-width:1.5;"/>
   </g>
   <g id="line2d_47">
    <path clip-path="url(#p7646326ee3)" d="M 313.572955 87.992754 
L 314.032014 88.482864 
L 314.655024 89.523809 
L 315.376403 91.195384 
L 316.392892 94.15506 
L 318.819351 102.030294 
L 319.44236 105.016198 
L 320.16374 109.702829 
L 321.475339 120.09321 
L 322.786938 131.392904 
L 323.278787 138.152699 
L 323.803427 148.737057 
L 324.360856 164.947848 
L 324.983866 189.876066 
L 325.541295 218.220332 
L 325.672455 217.439904 
L 325.901985 216.848793 
L 326.000355 217.010886 
L 326.164305 217.876097 
L 326.328255 219.197467 
L 326.393835 219.070701 
L 326.852894 217.112666 
L 327.115214 217.20041 
L 327.246374 217.21267 
L 327.574274 217.499112 
L 328.230073 217.214823 
L 328.361233 217.444314 
L 328.426813 217.293406 
L 328.557973 217.234812 
L 328.721923 217.524145 
L 328.951453 218.945516 
L 329.279353 221.38976 
L 329.312143 221.259552 
L 329.508882 219.708513 
L 329.803992 217.823428 
L 330.033522 217.400513 
L 330.230262 217.321489 
L 330.689322 217.610936 
L 330.918851 218.636962 
L 331.115591 220.692877 
L 331.312331 222.709208 
L 331.345121 222.58513 
L 331.902551 219.627395 
L 332.033711 219.814104 
L 332.23045 220.882401 
L 332.52556 223.036959 
L 332.55835 222.928869 
L 332.78788 221.686453 
L 333.11578 220.439576 
L 333.24694 220.395304 
L 333.3781 220.676313 
L 333.607629 221.934474 
L 333.804369 223.074888 
L 333.869949 223.008122 
L 334.427379 221.405832 
L 334.460169 221.435685 
L 334.591329 221.735169 
L 334.820858 223.016249 
L 334.952018 223.364183 
L 334.984808 223.293451 
L 335.345498 222.451844 
L 335.509448 222.519733 
L 335.706188 223.002433 
L 335.902928 223.340994 
L 336.066878 223.014932 
L 336.394777 222.517211 
L 336.558727 222.547372 
L 336.722677 222.802871 
L 336.984997 223.221536 
L 337.116157 223.01361 
L 337.378477 222.706363 
L 337.542426 222.835024 
L 337.837536 223.20321 
L 338.001486 223.021634 
L 338.263806 222.824818 
L 338.460546 222.911662 
L 338.821235 223.148506 
L 339.411455 222.802119 
L 339.706565 223.277971 
L 339.772145 223.222174 
L 340.100044 222.774582 
L 340.165624 222.843247 
L 340.493524 223.554306 
L 340.559104 223.474264 
L 341.018164 222.597965 
L 341.149324 222.82244 
L 341.411643 223.433193 
L 341.444433 223.410716 
L 341.870703 223.052379 
L 342.296973 223.228486 
L 342.657663 223.037128 
L 343.083932 223.241035 
L 343.411832 223.136448 
L 343.838102 223.351392 
L 344.100421 223.286929 
L 344.297161 223.373272 
L 344.526691 223.729942 
L 344.559481 223.708113 
L 344.952961 223.350938 
L 344.985751 223.388236 
L 345.34644 223.632453 
L 345.64155 223.452897 
L 346.16619 223.542561 
L 346.39572 223.604129 
L 346.756409 223.538252 
L 347.051519 223.636319 
L 347.379419 223.636343 
L 347.707319 223.718769 
L 348.002428 223.77551 
L 348.527068 223.902145 
L 348.756598 223.965325 
L 349.018918 224.003952 
L 349.346817 223.936203 
L 349.674717 224.048842 
L 349.937037 224.021423 
L 350.100987 224.042993 
L 350.166567 224.058156 
L 350.199357 224.021969 
L 350.428887 223.938803 
L 351.707696 223.889372 
L 375.119738 223.887335 
L 470.932045 223.887335 
L 470.932045 223.887335 
" style="fill:none;stroke:#d62728;stroke-linecap:square;stroke-opacity:0.7;stroke-width:1.5;"/>
   </g>
   <g id="line2d_48">
    <path clip-path="url(#p7646326ee3)" d="M 313.572955 87.969313 
L 353.052085 87.969313 
L 353.183245 74.191657 
L 470.932045 74.191657 
L 470.932045 74.191657 
" style="fill:none;stroke:#000000;stroke-dasharray:5.55,2.4;stroke-dashoffset:0;stroke-opacity:0.595;stroke-width:1.5;"/>
   </g>
   <g id="patch_8">
    <path d="M 305.705 231.64 
L 305.705 66.48 
" style="fill:none;stroke:#000000;stroke-linecap:square;stroke-linejoin:miter;stroke-width:0.8;"/>
   </g>
   <g id="patch_9">
    <path d="M 478.8 231.64 
L 478.8 66.48 
" style="fill:none;stroke:#000000;stroke-linecap:square;stroke-linejoin:miter;stroke-width:0.8;"/>
   </g>
   <g id="patch_10">
    <path d="M 305.705 231.64 
L 478.8 231.64 
" style="fill:none;stroke:#000000;stroke-linecap:square;stroke-linejoin:miter;stroke-width:0.8;"/>
   </g>
   <g id="patch_11">
    <path d="M 305.705 66.48 
L 478.8 66.48 
" style="fill:none;stroke:#000000;stroke-linecap:square;stroke-linejoin:miter;stroke-width:0.8;"/>
   </g>
   <g id="text_27">
    <!-- Plano z -->
    <g transform="translate(370.76125 60.48)scale(0.12 -0.12)">
     <use xlink:href="#DejaVuSans-50"/>
     <use x="60.302734" xlink:href="#DejaVuSans-6c"/>
     <use x="88.085938" xlink:href="#DejaVuSans-61"/>
     <use x="149.365234" xlink:href="#DejaVuSans-6e"/>
     <use x="212.744141" xlink:href="#DejaVuSans-6f"/>
     <use x="273.925781" xlink:href="#DejaVuSans-20"/>
     <use x="305.712891" xlink:href="#DejaVuSans-7a"/>
    </g>
   </g>
  </g>
  <g id="text_28">
   <!-- Vista planos -->
   <g transform="translate(239.4 17.9175)scale(0.16 -0.16)">
    <defs>
     <path d="M 1831 0 
L 50 4666 
L 709 4666 
L 2188 738 
L 3669 4666 
L 4325 4666 
L 2547 0 
L 1831 0 
z
" id="DejaVuSans-56" transform="scale(0.015625)"/>
     <path d="M 1172 4494 
L 1172 3500 
L 2356 3500 
L 2356 3053 
L 1172 3053 
L 1172 1153 
Q 1172 725 1289 603 
Q 1406 481 1766 481 
L 2356 481 
L 2356 0 
L 1766 0 
Q 1100 0 847 248 
Q 594 497 594 1153 
L 594 3053 
L 172 3053 
L 172 3500 
L 594 3500 
L 594 4494 
L 1172 4494 
z
" id="DejaVuSans-74" transform="scale(0.015625)"/>
    </defs>
    <use xlink:href="#DejaVuSans-56"/>
    <use x="66.158203" xlink:href="#DejaVuSans-69"/>
    <use x="93.941406" xlink:href="#DejaVuSans-73"/>
    <use x="146.041016" xlink:href="#DejaVuSans-74"/>
    <use x="185.25" xlink:href="#DejaVuSans-61"/>
    <use x="246.529297" xlink:href="#DejaVuSans-20"/>
    <use x="278.316406" xlink:href="#DejaVuSans-70"/>
    <use x="341.792969" xlink:href="#DejaVuSans-6c"/>
    <use x="369.576172" xlink:href="#DejaVuSans-61"/>
    <use x="430.855469" xlink:href="#DejaVuSans-6e"/>
    <use x="494.234375" xlink:href="#DejaVuSans-6f"/>
    <use x="555.416016" xlink:href="#DejaVuSans-73"/>
   </g>
  </g>
  <g id="legend_1">
   <g id="patch_12">
    <path d="M 464.25625 167.65625 
L 569 167.65625 
Q 571 167.65625 571 165.65625 
L 571 122.34375 
Q 571 120.34375 569 120.34375 
L 464.25625 120.34375 
Q 462.25625 120.34375 462.25625 122.34375 
L 462.25625 165.65625 
Q 462.25625 167.65625 464.25625 167.65625 
z
" style="fill:#ffffff;opacity:0.8;stroke:#cccccc;stroke-linejoin:miter;"/>
   </g>
   <g id="line2d_49">
    <path d="M 466.25625 128.442187 
L 486.25625 128.442187 
" style="fill:none;stroke:#1f77b4;stroke-linecap:square;stroke-opacity:0.7;stroke-width:1.5;"/>
   </g>
   <g id="line2d_50"/>
   <g id="text_29">
    <!-- DSLPID -->
    <g transform="translate(494.25625 131.942187)scale(0.1 -0.1)">
     <defs>
      <path d="M 1259 4147 
L 1259 519 
L 2022 519 
Q 2988 519 3436 956 
Q 3884 1394 3884 2338 
Q 3884 3275 3436 3711 
Q 2988 4147 2022 4147 
L 1259 4147 
z
M 628 4666 
L 1925 4666 
Q 3281 4666 3915 4102 
Q 4550 3538 4550 2338 
Q 4550 1131 3912 565 
Q 3275 0 1925 0 
L 628 0 
L 628 4666 
z
" id="DejaVuSans-44" transform="scale(0.015625)"/>
      <path d="M 3425 4513 
L 3425 3897 
Q 3066 4069 2747 4153 
Q 2428 4238 2131 4238 
Q 1616 4238 1336 4038 
Q 1056 3838 1056 3469 
Q 1056 3159 1242 3001 
Q 1428 2844 1947 2747 
L 2328 2669 
Q 3034 2534 3370 2195 
Q 3706 1856 3706 1288 
Q 3706 609 3251 259 
Q 2797 -91 1919 -91 
Q 1588 -91 1214 -16 
Q 841 59 441 206 
L 441 856 
Q 825 641 1194 531 
Q 1563 422 1919 422 
Q 2459 422 2753 634 
Q 3047 847 3047 1241 
Q 3047 1584 2836 1778 
Q 2625 1972 2144 2069 
L 1759 2144 
Q 1053 2284 737 2584 
Q 422 2884 422 3419 
Q 422 4038 858 4394 
Q 1294 4750 2059 4750 
Q 2388 4750 2728 4690 
Q 3069 4631 3425 4513 
z
" id="DejaVuSans-53" transform="scale(0.015625)"/>
      <path d="M 628 4666 
L 1259 4666 
L 1259 531 
L 3531 531 
L 3531 0 
L 628 0 
L 628 4666 
z
" id="DejaVuSans-4c" transform="scale(0.015625)"/>
      <path d="M 628 4666 
L 1259 4666 
L 1259 0 
L 628 0 
L 628 4666 
z
" id="DejaVuSans-49" transform="scale(0.015625)"/>
     </defs>
     <use xlink:href="#DejaVuSans-44"/>
     <use x="77.001953" xlink:href="#DejaVuSans-53"/>
     <use x="140.478516" xlink:href="#DejaVuSans-4c"/>
     <use x="196.191406" xlink:href="#DejaVuSans-50"/>
     <use x="256.494141" xlink:href="#DejaVuSans-49"/>
     <use x="285.986328" xlink:href="#DejaVuSans-44"/>
    </g>
   </g>
   <g id="line2d_51">
    <path d="M 466.25625 143.120312 
L 486.25625 143.120312 
" style="fill:none;stroke:#d62728;stroke-linecap:square;stroke-opacity:0.7;stroke-width:1.5;"/>
   </g>
   <g id="line2d_52"/>
   <g id="text_30">
    <!-- ANN_feedback -->
    <g transform="translate(494.25625 146.620312)scale(0.1 -0.1)">
     <defs>
      <path d="M 2188 4044 
L 1331 1722 
L 3047 1722 
L 2188 4044 
z
M 1831 4666 
L 2547 4666 
L 4325 0 
L 3669 0 
L 3244 1197 
L 1141 1197 
L 716 0 
L 50 0 
L 1831 4666 
z
" id="DejaVuSans-41" transform="scale(0.015625)"/>
      <path d="M 628 4666 
L 1478 4666 
L 3547 763 
L 3547 4666 
L 4159 4666 
L 4159 0 
L 3309 0 
L 1241 3903 
L 1241 0 
L 628 0 
L 628 4666 
z
" id="DejaVuSans-4e" transform="scale(0.015625)"/>
      <path d="M 3263 -1063 
L 3263 -1509 
L -63 -1509 
L -63 -1063 
L 3263 -1063 
z
" id="DejaVuSans-5f" transform="scale(0.015625)"/>
      <path d="M 2375 4863 
L 2375 4384 
L 1825 4384 
Q 1516 4384 1395 4259 
Q 1275 4134 1275 3809 
L 1275 3500 
L 2222 3500 
L 2222 3053 
L 1275 3053 
L 1275 0 
L 697 0 
L 697 3053 
L 147 3053 
L 147 3500 
L 697 3500 
L 697 3744 
Q 697 4328 969 4595 
Q 1241 4863 1831 4863 
L 2375 4863 
z
" id="DejaVuSans-66" transform="scale(0.015625)"/>
      <path d="M 2906 2969 
L 2906 4863 
L 3481 4863 
L 3481 0 
L 2906 0 
L 2906 525 
Q 2725 213 2448 61 
Q 2172 -91 1784 -91 
Q 1150 -91 751 415 
Q 353 922 353 1747 
Q 353 2572 751 3078 
Q 1150 3584 1784 3584 
Q 2172 3584 2448 3432 
Q 2725 3281 2906 2969 
z
M 947 1747 
Q 947 1113 1208 752 
Q 1469 391 1925 391 
Q 2381 391 2643 752 
Q 2906 1113 2906 1747 
Q 2906 2381 2643 2742 
Q 2381 3103 1925 3103 
Q 1469 3103 1208 2742 
Q 947 2381 947 1747 
z
" id="DejaVuSans-64" transform="scale(0.015625)"/>
      <path d="M 3116 1747 
Q 3116 2381 2855 2742 
Q 2594 3103 2138 3103 
Q 1681 3103 1420 2742 
Q 1159 2381 1159 1747 
Q 1159 1113 1420 752 
Q 1681 391 2138 391 
Q 2594 391 2855 752 
Q 3116 1113 3116 1747 
z
M 1159 2969 
Q 1341 3281 1617 3432 
Q 1894 3584 2278 3584 
Q 2916 3584 3314 3078 
Q 3713 2572 3713 1747 
Q 3713 922 3314 415 
Q 2916 -91 2278 -91 
Q 1894 -91 1617 61 
Q 1341 213 1159 525 
L 1159 0 
L 581 0 
L 581 4863 
L 1159 4863 
L 1159 2969 
z
" id="DejaVuSans-62" transform="scale(0.015625)"/>
      <path d="M 3122 3366 
L 3122 2828 
Q 2878 2963 2633 3030 
Q 2388 3097 2138 3097 
Q 1578 3097 1268 2742 
Q 959 2388 959 1747 
Q 959 1106 1268 751 
Q 1578 397 2138 397 
Q 2388 397 2633 464 
Q 2878 531 3122 666 
L 3122 134 
Q 2881 22 2623 -34 
Q 2366 -91 2075 -91 
Q 1284 -91 818 406 
Q 353 903 353 1747 
Q 353 2603 823 3093 
Q 1294 3584 2113 3584 
Q 2378 3584 2631 3529 
Q 2884 3475 3122 3366 
z
" id="DejaVuSans-63" transform="scale(0.015625)"/>
      <path d="M 581 4863 
L 1159 4863 
L 1159 1991 
L 2875 3500 
L 3609 3500 
L 1753 1863 
L 3688 0 
L 2938 0 
L 1159 1709 
L 1159 0 
L 581 0 
L 581 4863 
z
" id="DejaVuSans-6b" transform="scale(0.015625)"/>
     </defs>
     <use xlink:href="#DejaVuSans-41"/>
     <use x="68.408203" xlink:href="#DejaVuSans-4e"/>
     <use x="143.212891" xlink:href="#DejaVuSans-4e"/>
     <use x="218.017578" xlink:href="#DejaVuSans-5f"/>
     <use x="268.017578" xlink:href="#DejaVuSans-66"/>
     <use x="303.222656" xlink:href="#DejaVuSans-65"/>
     <use x="364.746094" xlink:href="#DejaVuSans-65"/>
     <use x="426.269531" xlink:href="#DejaVuSans-64"/>
     <use x="489.746094" xlink:href="#DejaVuSans-62"/>
     <use x="553.222656" xlink:href="#DejaVuSans-61"/>
     <use x="614.501953" xlink:href="#DejaVuSans-63"/>
     <use x="669.482422" xlink:href="#DejaVuSans-6b"/>
    </g>
   </g>
   <g id="line2d_53">
    <path d="M 466.25625 158.076562 
L 486.25625 158.076562 
" style="fill:none;stroke:#000000;stroke-dasharray:5.55,2.4;stroke-dashoffset:0;stroke-opacity:0.595;stroke-width:1.5;"/>
   </g>
   <g id="line2d_54"/>
   <g id="text_31">
    <!-- Referencia -->
    <g transform="translate(494.25625 161.576562)scale(0.1 -0.1)">
     <defs>
      <path d="M 2841 2188 
Q 3044 2119 3236 1894 
Q 3428 1669 3622 1275 
L 4263 0 
L 3584 0 
L 2988 1197 
Q 2756 1666 2539 1819 
Q 2322 1972 1947 1972 
L 1259 1972 
L 1259 0 
L 628 0 
L 628 4666 
L 2053 4666 
Q 2853 4666 3247 4331 
Q 3641 3997 3641 3322 
Q 3641 2881 3436 2590 
Q 3231 2300 2841 2188 
z
M 1259 4147 
L 1259 2491 
L 2053 2491 
Q 2509 2491 2742 2702 
Q 2975 2913 2975 3322 
Q 2975 3731 2742 3939 
Q 2509 4147 2053 4147 
L 1259 4147 
z
" id="DejaVuSans-52" transform="scale(0.015625)"/>
      <path d="M 2631 2963 
Q 2534 3019 2420 3045 
Q 2306 3072 2169 3072 
Q 1681 3072 1420 2755 
Q 1159 2438 1159 1844 
L 1159 0 
L 581 0 
L 581 3500 
L 1159 3500 
L 1159 2956 
Q 1341 3275 1631 3429 
Q 1922 3584 2338 3584 
Q 2397 3584 2469 3576 
Q 2541 3569 2628 3553 
L 2631 2963 
z
" id="DejaVuSans-72" transform="scale(0.015625)"/>
     </defs>
     <use xlink:href="#DejaVuSans-52"/>
     <use x="64.982422" xlink:href="#DejaVuSans-65"/>
     <use x="126.505859" xlink:href="#DejaVuSans-66"/>
     <use x="161.710938" xlink:href="#DejaVuSans-65"/>
     <use x="223.234375" xlink:href="#DejaVuSans-72"/>
     <use x="262.097656" xlink:href="#DejaVuSans-65"/>
     <use x="323.621094" xlink:href="#DejaVuSans-6e"/>
     <use x="387" xlink:href="#DejaVuSans-63"/>
     <use x="441.980469" xlink:href="#DejaVuSans-69"/>
     <use x="469.763672" xlink:href="#DejaVuSans-61"/>
    </g>
   </g>
  </g>
 </g>
 <defs>
  <clipPath id="p4c39a28b94">
   <rect height="165.16" width="173.095" x="84.89" y="66.48"/>
  </clipPath>
  <clipPath id="p7646326ee3">
   <rect height="165.16" width="173.095" x="305.705" y="66.48"/>
  </clipPath>
 </defs>
</svg>
