<?xml version="1.0" encoding="utf-8" standalone="no"?>
<!DOCTYPE svg PUBLIC "-//W3C//DTD SVG 1.1//EN"
  "http://www.w3.org/Graphics/SVG/1.1/DTD/svg11.dtd">
<svg height="576pt" version="1.1" viewBox="0 0 576 576" width="576pt" xmlns="http://www.w3.org/2000/svg" xmlns:xlink="http://www.w3.org/1999/xlink">
 <metadata>
  <rdf:RDF xmlns:cc="http://creativecommons.org/ns#" xmlns:dc="http://purl.org/dc/elements/1.1/" xmlns:rdf="http://www.w3.org/1999/02/22-rdf-syntax-ns#">
   <cc:Work>
    <dc:type rdf:resource="http://purl.org/dc/dcmitype/StillImage"/>
    <dc:date>2022-02-26T04:39:04.045996</dc:date>
    <dc:format>image/svg+xml</dc:format>
    <dc:creator>
     <cc:Agent>
      <dc:title>Matplotlib v3.4.3, https://matplotlib.org/</dc:title>
     </cc:Agent>
    </dc:creator>
   </cc:Work>
  </rdf:RDF>
 </metadata>
 <defs>
  <style type="text/css">*{stroke-linecap:butt;stroke-linejoin:round;}</style>
 </defs>
 <g id="figure_1">
  <g id="patch_1">
   <path d="M 0 576 
L 576 576 
L 576 0 
L 0 0 
z
" style="fill:#ffffff;"/>
  </g>
  <g id="patch_2">
   <path d="M 23.4 565.2 
L 552.6 565.2 
L 552.6 36 
L 23.4 36 
z
" style="fill:#ffffff;"/>
  </g>
  <g id="pane3d_1">
   <g id="patch_3">
    <path d="M 63.358249 434.71624 
L 238.117372 288.229677 
L 235.688053 76.969868 
L 52.565805 210.604144 
" style="fill:#f2f2f2;opacity:0.5;stroke:#f2f2f2;stroke-linejoin:miter;"/>
   </g>
  </g>
  <g id="pane3d_2">
   <g id="patch_4">
    <path d="M 238.117372 288.229677 
L 518.54341 369.738455 
L 528.550827 151.202044 
L 235.688053 76.969868 
" style="fill:#e6e6e6;opacity:0.5;stroke:#e6e6e6;stroke-linejoin:miter;"/>
   </g>
  </g>
  <g id="pane3d_3">
   <g id="patch_5">
    <path d="M 63.358249 434.71624 
L 360.623546 531.803085 
L 518.54341 369.738455 
L 238.117372 288.229677 
" style="fill:#ececec;opacity:0.5;stroke:#ececec;stroke-linejoin:miter;"/>
   </g>
  </g>
  <g id="axis3d_1">
   <g id="line2d_1">
    <path d="M 63.358249 434.71624 
L 360.623546 531.803085 
" style="fill:none;stroke:#000000;stroke-linecap:square;stroke-width:0.8;"/>
   </g>
   <g id="text_1">
    <!-- x (m) -->
    <g transform="translate(178.329241 515.594496)rotate(-341.912962)scale(0.1 -0.1)">
     <defs>
      <path d="M 3513 3500 
L 2247 1797 
L 3578 0 
L 2900 0 
L 1881 1375 
L 863 0 
L 184 0 
L 1544 1831 
L 300 3500 
L 978 3500 
L 1906 2253 
L 2834 3500 
L 3513 3500 
z
" id="DejaVuSans-78" transform="scale(0.015625)"/>
      <path id="DejaVuSans-20" transform="scale(0.015625)"/>
      <path d="M 1984 4856 
Q 1566 4138 1362 3434 
Q 1159 2731 1159 2009 
Q 1159 1288 1364 580 
Q 1569 -128 1984 -844 
L 1484 -844 
Q 1016 -109 783 600 
Q 550 1309 550 2009 
Q 550 2706 781 3412 
Q 1013 4119 1484 4856 
L 1984 4856 
z
" id="DejaVuSans-28" transform="scale(0.015625)"/>
      <path d="M 3328 2828 
Q 3544 3216 3844 3400 
Q 4144 3584 4550 3584 
Q 5097 3584 5394 3201 
Q 5691 2819 5691 2113 
L 5691 0 
L 5113 0 
L 5113 2094 
Q 5113 2597 4934 2840 
Q 4756 3084 4391 3084 
Q 3944 3084 3684 2787 
Q 3425 2491 3425 1978 
L 3425 0 
L 2847 0 
L 2847 2094 
Q 2847 2600 2669 2842 
Q 2491 3084 2119 3084 
Q 1678 3084 1418 2786 
Q 1159 2488 1159 1978 
L 1159 0 
L 581 0 
L 581 3500 
L 1159 3500 
L 1159 2956 
Q 1356 3278 1631 3431 
Q 1906 3584 2284 3584 
Q 2666 3584 2933 3390 
Q 3200 3197 3328 2828 
z
" id="DejaVuSans-6d" transform="scale(0.015625)"/>
      <path d="M 513 4856 
L 1013 4856 
Q 1481 4119 1714 3412 
Q 1947 2706 1947 2009 
Q 1947 1309 1714 600 
Q 1481 -109 1013 -844 
L 513 -844 
Q 928 -128 1133 580 
Q 1338 1288 1338 2009 
Q 1338 2731 1133 3434 
Q 928 4138 513 4856 
z
" id="DejaVuSans-29" transform="scale(0.015625)"/>
     </defs>
     <use xlink:href="#DejaVuSans-78"/>
     <use x="59.179688" xlink:href="#DejaVuSans-20"/>
     <use x="90.966797" xlink:href="#DejaVuSans-28"/>
     <use x="129.980469" xlink:href="#DejaVuSans-6d"/>
     <use x="227.392578" xlink:href="#DejaVuSans-29"/>
    </g>
   </g>
   <g id="Line3DCollection_1">
    <path d="M 70.222995 436.958265 
L 244.621239 290.120095 
L 242.46637 78.687974 
" style="fill:none;stroke:#b0b0b0;stroke-width:0.8;"/>
    <path d="M 101.13765 447.054992 
L 273.894252 298.628604 
L 272.982858 86.423014 
" style="fill:none;stroke:#b0b0b0;stroke-width:0.8;"/>
    <path d="M 132.402049 457.265944 
L 303.471065 307.225416 
L 303.829702 94.24179 
" style="fill:none;stroke:#b0b0b0;stroke-width:0.8;"/>
    <path d="M 164.022161 467.593073 
L 333.356432 315.911912 
L 335.012298 102.145669 
" style="fill:none;stroke:#b0b0b0;stroke-width:0.8;"/>
    <path d="M 196.00409 478.038371 
L 363.555207 324.689504 
L 366.536155 110.136048 
" style="fill:none;stroke:#b0b0b0;stroke-width:0.8;"/>
    <path d="M 228.354083 488.603878 
L 394.072344 333.559631 
L 398.406907 118.214354 
" style="fill:none;stroke:#b0b0b0;stroke-width:0.8;"/>
    <path d="M 261.078531 499.291683 
L 424.912907 342.523765 
L 430.630312 126.382048 
" style="fill:none;stroke:#b0b0b0;stroke-width:0.8;"/>
    <path d="M 294.183972 510.10392 
L 456.082062 351.583408 
L 463.212256 134.640621 
" style="fill:none;stroke:#b0b0b0;stroke-width:0.8;"/>
    <path d="M 327.6771 521.042775 
L 487.585091 360.740094 
L 496.158756 142.991599 
" style="fill:none;stroke:#b0b0b0;stroke-width:0.8;"/>
   </g>
   <g id="xtick_1">
    <g id="line2d_2">
     <path d="M 71.741395 435.679817 
L 67.179691 439.520637 
" style="fill:none;stroke:#000000;stroke-linecap:square;stroke-width:0.8;"/>
    </g>
    <g id="text_2">
     <!-- −0.02 -->
     <g transform="translate(47.379664 460.199883)scale(0.1 -0.1)">
      <defs>
       <path d="M 678 2272 
L 4684 2272 
L 4684 1741 
L 678 1741 
L 678 2272 
z
" id="DejaVuSans-2212" transform="scale(0.015625)"/>
       <path d="M 2034 4250 
Q 1547 4250 1301 3770 
Q 1056 3291 1056 2328 
Q 1056 1369 1301 889 
Q 1547 409 2034 409 
Q 2525 409 2770 889 
Q 3016 1369 3016 2328 
Q 3016 3291 2770 3770 
Q 2525 4250 2034 4250 
z
M 2034 4750 
Q 2819 4750 3233 4129 
Q 3647 3509 3647 2328 
Q 3647 1150 3233 529 
Q 2819 -91 2034 -91 
Q 1250 -91 836 529 
Q 422 1150 422 2328 
Q 422 3509 836 4129 
Q 1250 4750 2034 4750 
z
" id="DejaVuSans-30" transform="scale(0.015625)"/>
       <path d="M 684 794 
L 1344 794 
L 1344 0 
L 684 0 
L 684 794 
z
" id="DejaVuSans-2e" transform="scale(0.015625)"/>
       <path d="M 1228 531 
L 3431 531 
L 3431 0 
L 469 0 
L 469 531 
Q 828 903 1448 1529 
Q 2069 2156 2228 2338 
Q 2531 2678 2651 2914 
Q 2772 3150 2772 3378 
Q 2772 3750 2511 3984 
Q 2250 4219 1831 4219 
Q 1534 4219 1204 4116 
Q 875 4013 500 3803 
L 500 4441 
Q 881 4594 1212 4672 
Q 1544 4750 1819 4750 
Q 2544 4750 2975 4387 
Q 3406 4025 3406 3419 
Q 3406 3131 3298 2873 
Q 3191 2616 2906 2266 
Q 2828 2175 2409 1742 
Q 1991 1309 1228 531 
z
" id="DejaVuSans-32" transform="scale(0.015625)"/>
      </defs>
      <use xlink:href="#DejaVuSans-2212"/>
      <use x="83.789062" xlink:href="#DejaVuSans-30"/>
      <use x="147.412109" xlink:href="#DejaVuSans-2e"/>
      <use x="179.199219" xlink:href="#DejaVuSans-30"/>
      <use x="242.822266" xlink:href="#DejaVuSans-32"/>
     </g>
    </g>
   </g>
   <g id="xtick_2">
    <g id="line2d_3">
     <path d="M 102.642444 445.762126 
L 98.121583 449.646291 
" style="fill:none;stroke:#000000;stroke-linecap:square;stroke-width:0.8;"/>
    </g>
    <g id="text_3">
     <!-- 0.00 -->
     <g transform="translate(82.49967 470.40367)scale(0.1 -0.1)">
      <use xlink:href="#DejaVuSans-30"/>
      <use x="63.623047" xlink:href="#DejaVuSans-2e"/>
      <use x="95.410156" xlink:href="#DejaVuSans-30"/>
      <use x="159.033203" xlink:href="#DejaVuSans-30"/>
     </g>
    </g>
   </g>
   <g id="xtick_3">
    <g id="line2d_4">
     <path d="M 133.89283 455.958416 
L 129.414031 459.886664 
" style="fill:none;stroke:#000000;stroke-linecap:square;stroke-width:0.8;"/>
    </g>
    <g id="text_4">
     <!-- 0.02 -->
     <g transform="translate(113.780411 480.723112)scale(0.1 -0.1)">
      <use xlink:href="#DejaVuSans-30"/>
      <use x="63.623047" xlink:href="#DejaVuSans-2e"/>
      <use x="95.410156" xlink:href="#DejaVuSans-30"/>
      <use x="159.033203" xlink:href="#DejaVuSans-32"/>
     </g>
    </g>
   </g>
   <g id="xtick_4">
    <g id="line2d_5">
     <path d="M 165.498512 466.270631 
L 161.063028 470.243716 
" style="fill:none;stroke:#000000;stroke-linecap:square;stroke-width:0.8;"/>
    </g>
    <g id="text_5">
     <!-- 0.04 -->
     <g transform="translate(145.417723 491.160186)scale(0.1 -0.1)">
      <defs>
       <path d="M 2419 4116 
L 825 1625 
L 2419 1625 
L 2419 4116 
z
M 2253 4666 
L 3047 4666 
L 3047 1625 
L 3713 1625 
L 3713 1100 
L 3047 1100 
L 3047 0 
L 2419 0 
L 2419 1100 
L 313 1100 
L 313 1709 
L 2253 4666 
z
" id="DejaVuSans-34" transform="scale(0.015625)"/>
      </defs>
      <use xlink:href="#DejaVuSans-30"/>
      <use x="63.623047" xlink:href="#DejaVuSans-2e"/>
      <use x="95.410156" xlink:href="#DejaVuSans-30"/>
      <use x="159.033203" xlink:href="#DejaVuSans-34"/>
     </g>
    </g>
   </g>
   <g id="xtick_5">
    <g id="line2d_6">
     <path d="M 197.465583 476.700759 
L 193.074702 480.719453 
" style="fill:none;stroke:#000000;stroke-linecap:square;stroke-width:0.8;"/>
    </g>
    <g id="text_6">
     <!-- 0.06 -->
     <g transform="translate(177.41774 501.716915)scale(0.1 -0.1)">
      <defs>
       <path d="M 2113 2584 
Q 1688 2584 1439 2293 
Q 1191 2003 1191 1497 
Q 1191 994 1439 701 
Q 1688 409 2113 409 
Q 2538 409 2786 701 
Q 3034 994 3034 1497 
Q 3034 2003 2786 2293 
Q 2538 2584 2113 2584 
z
M 3366 4563 
L 3366 3988 
Q 3128 4100 2886 4159 
Q 2644 4219 2406 4219 
Q 1781 4219 1451 3797 
Q 1122 3375 1075 2522 
Q 1259 2794 1537 2939 
Q 1816 3084 2150 3084 
Q 2853 3084 3261 2657 
Q 3669 2231 3669 1497 
Q 3669 778 3244 343 
Q 2819 -91 2113 -91 
Q 1303 -91 875 529 
Q 447 1150 447 2328 
Q 447 3434 972 4092 
Q 1497 4750 2381 4750 
Q 2619 4750 2861 4703 
Q 3103 4656 3366 4563 
z
" id="DejaVuSans-36" transform="scale(0.015625)"/>
      </defs>
      <use xlink:href="#DejaVuSans-30"/>
      <use x="63.623047" xlink:href="#DejaVuSans-2e"/>
      <use x="95.410156" xlink:href="#DejaVuSans-30"/>
      <use x="159.033203" xlink:href="#DejaVuSans-36"/>
     </g>
    </g>
   </g>
   <g id="xtick_6">
    <g id="line2d_7">
     <path d="M 229.800278 487.250834 
L 225.455323 491.315928 
" style="fill:none;stroke:#000000;stroke-linecap:square;stroke-width:0.8;"/>
    </g>
    <g id="text_7">
     <!-- 0.08 -->
     <g transform="translate(209.786734 512.395369)scale(0.1 -0.1)">
      <defs>
       <path d="M 2034 2216 
Q 1584 2216 1326 1975 
Q 1069 1734 1069 1313 
Q 1069 891 1326 650 
Q 1584 409 2034 409 
Q 2484 409 2743 651 
Q 3003 894 3003 1313 
Q 3003 1734 2745 1975 
Q 2488 2216 2034 2216 
z
M 1403 2484 
Q 997 2584 770 2862 
Q 544 3141 544 3541 
Q 544 4100 942 4425 
Q 1341 4750 2034 4750 
Q 2731 4750 3128 4425 
Q 3525 4100 3525 3541 
Q 3525 3141 3298 2862 
Q 3072 2584 2669 2484 
Q 3125 2378 3379 2068 
Q 3634 1759 3634 1313 
Q 3634 634 3220 271 
Q 2806 -91 2034 -91 
Q 1263 -91 848 271 
Q 434 634 434 1313 
Q 434 1759 690 2068 
Q 947 2378 1403 2484 
z
M 1172 3481 
Q 1172 3119 1398 2916 
Q 1625 2713 2034 2713 
Q 2441 2713 2670 2916 
Q 2900 3119 2900 3481 
Q 2900 3844 2670 4047 
Q 2441 4250 2034 4250 
Q 1625 4250 1398 4047 
Q 1172 3844 1172 3481 
z
" id="DejaVuSans-38" transform="scale(0.015625)"/>
      </defs>
      <use xlink:href="#DejaVuSans-30"/>
      <use x="63.623047" xlink:href="#DejaVuSans-2e"/>
      <use x="95.410156" xlink:href="#DejaVuSans-30"/>
      <use x="159.033203" xlink:href="#DejaVuSans-38"/>
     </g>
    </g>
   </g>
   <g id="xtick_7">
    <g id="line2d_8">
     <path d="M 262.508973 497.922938 
L 258.211307 502.035239 
" style="fill:none;stroke:#000000;stroke-linecap:square;stroke-width:0.8;"/>
    </g>
    <g id="text_8">
     <!-- 0.10 -->
     <g transform="translate(242.531125 523.197666)scale(0.1 -0.1)">
      <defs>
       <path d="M 794 531 
L 1825 531 
L 1825 4091 
L 703 3866 
L 703 4441 
L 1819 4666 
L 2450 4666 
L 2450 531 
L 3481 531 
L 3481 0 
L 794 0 
L 794 531 
z
" id="DejaVuSans-31" transform="scale(0.015625)"/>
      </defs>
      <use xlink:href="#DejaVuSans-30"/>
      <use x="63.623047" xlink:href="#DejaVuSans-2e"/>
      <use x="95.410156" xlink:href="#DejaVuSans-31"/>
      <use x="159.033203" xlink:href="#DejaVuSans-30"/>
     </g>
    </g>
   </g>
   <g id="xtick_8">
    <g id="line2d_9">
     <path d="M 295.598197 508.719199 
L 291.349218 512.879534 
" style="fill:none;stroke:#000000;stroke-linecap:square;stroke-width:0.8;"/>
    </g>
    <g id="text_9">
     <!-- 0.12 -->
     <g transform="translate(275.65748 534.125971)scale(0.1 -0.1)">
      <use xlink:href="#DejaVuSans-30"/>
      <use x="63.623047" xlink:href="#DejaVuSans-2e"/>
      <use x="95.410156" xlink:href="#DejaVuSans-31"/>
      <use x="159.033203" xlink:href="#DejaVuSans-32"/>
     </g>
    </g>
   </g>
   <g id="xtick_9">
    <g id="line2d_10">
     <path d="M 329.074629 519.641797 
L 324.875776 523.851014 
" style="fill:none;stroke:#000000;stroke-linecap:square;stroke-width:0.8;"/>
    </g>
    <g id="text_10">
     <!-- 0.14 -->
     <g transform="translate(309.172523 545.182504)scale(0.1 -0.1)">
      <use xlink:href="#DejaVuSans-30"/>
      <use x="63.623047" xlink:href="#DejaVuSans-2e"/>
      <use x="95.410156" xlink:href="#DejaVuSans-31"/>
      <use x="159.033203" xlink:href="#DejaVuSans-34"/>
     </g>
    </g>
   </g>
  </g>
  <g id="axis3d_2">
   <g id="line2d_11">
    <path d="M 518.54341 369.738455 
L 360.623546 531.803085 
" style="fill:none;stroke:#000000;stroke-linecap:square;stroke-width:0.8;"/>
   </g>
   <g id="text_11">
    <!-- y (m) -->
    <g transform="translate(462.753334 486.601399)rotate(-45.742112)scale(0.1 -0.1)">
     <defs>
      <path d="M 2059 -325 
Q 1816 -950 1584 -1140 
Q 1353 -1331 966 -1331 
L 506 -1331 
L 506 -850 
L 844 -850 
Q 1081 -850 1212 -737 
Q 1344 -625 1503 -206 
L 1606 56 
L 191 3500 
L 800 3500 
L 1894 763 
L 2988 3500 
L 3597 3500 
L 2059 -325 
z
" id="DejaVuSans-79" transform="scale(0.015625)"/>
     </defs>
     <use xlink:href="#DejaVuSans-79"/>
     <use x="59.179688" xlink:href="#DejaVuSans-20"/>
     <use x="90.966797" xlink:href="#DejaVuSans-28"/>
     <use x="129.980469" xlink:href="#DejaVuSans-6d"/>
     <use x="227.392578" xlink:href="#DejaVuSans-29"/>
    </g>
   </g>
   <g id="Line3DCollection_2">
    <path d="M 65.652484 201.054082 
L 75.803302 424.28455 
L 371.915634 520.214625 
" style="fill:none;stroke:#b0b0b0;stroke-width:0.8;"/>
    <path d="M 99.899348 176.062281 
L 108.403014 396.958824 
L 401.461467 489.893332 
" style="fill:none;stroke:#b0b0b0;stroke-width:0.8;"/>
    <path d="M 133.065631 151.859038 
L 140.01824 370.458316 
L 430.068541 460.535437 
" style="fill:none;stroke:#b0b0b0;stroke-width:0.8;"/>
    <path d="M 165.201682 128.407611 
L 170.692911 344.746198 
L 457.780897 432.095742 
" style="fill:none;stroke:#b0b0b0;stroke-width:0.8;"/>
    <path d="M 196.354769 105.673507 
L 200.468385 319.787805 
L 484.639863 404.531836 
" style="fill:none;stroke:#b0b0b0;stroke-width:0.8;"/>
    <path d="M 226.569313 83.62431 
L 229.383629 295.550474 
L 510.684261 377.803876 
" style="fill:none;stroke:#b0b0b0;stroke-width:0.8;"/>
   </g>
   <g id="xtick_10">
    <g id="line2d_12">
     <path d="M 369.420312 519.406227 
L 376.912731 521.83351 
" style="fill:none;stroke:#000000;stroke-linecap:square;stroke-width:0.8;"/>
    </g>
    <g id="text_12">
     <!-- −0.2 -->
     <g transform="translate(372.648569 541.229569)scale(0.1 -0.1)">
      <use xlink:href="#DejaVuSans-2212"/>
      <use x="83.789062" xlink:href="#DejaVuSans-30"/>
      <use x="147.412109" xlink:href="#DejaVuSans-2e"/>
      <use x="179.199219" xlink:href="#DejaVuSans-32"/>
     </g>
    </g>
   </g>
   <g id="xtick_11">
    <g id="line2d_13">
     <path d="M 398.993899 489.110818 
L 406.402881 491.46035 
" style="fill:none;stroke:#000000;stroke-linecap:square;stroke-width:0.8;"/>
    </g>
    <g id="text_13">
     <!-- 0.0 -->
     <g transform="translate(406.185102 510.682652)scale(0.1 -0.1)">
      <use xlink:href="#DejaVuSans-30"/>
      <use x="63.623047" xlink:href="#DejaVuSans-2e"/>
      <use x="95.410156" xlink:href="#DejaVuSans-30"/>
     </g>
    </g>
   </g>
   <g id="xtick_12">
    <g id="line2d_14">
     <path d="M 427.628236 459.777583 
L 434.95526 462.053041 
" style="fill:none;stroke:#000000;stroke-linecap:square;stroke-width:0.8;"/>
    </g>
    <g id="text_14">
     <!-- 0.2 -->
     <g transform="translate(434.599089 481.106585)scale(0.1 -0.1)">
      <use xlink:href="#DejaVuSans-30"/>
      <use x="63.623047" xlink:href="#DejaVuSans-2e"/>
      <use x="95.410156" xlink:href="#DejaVuSans-32"/>
     </g>
    </g>
   </g>
   <g id="xtick_13">
    <g id="line2d_15">
     <path d="M 455.36737 431.361401 
L 462.613897 433.566234 
" style="fill:none;stroke:#000000;stroke-linecap:square;stroke-width:0.8;"/>
    </g>
    <g id="text_15">
     <!-- 0.4 -->
     <g transform="translate(462.124141 452.455807)scale(0.1 -0.1)">
      <use xlink:href="#DejaVuSans-30"/>
      <use x="63.623047" xlink:href="#DejaVuSans-2e"/>
      <use x="95.410156" xlink:href="#DejaVuSans-34"/>
     </g>
    </g>
   </g>
   <g id="xtick_14">
    <g id="line2d_16">
     <path d="M 482.252635 403.81993 
L 489.420111 405.957375 
" style="fill:none;stroke:#000000;stroke-linecap:square;stroke-width:0.8;"/>
    </g>
    <g id="text_16">
     <!-- 0.6 -->
     <g transform="translate(488.801332 424.687566)scale(0.1 -0.1)">
      <use xlink:href="#DejaVuSans-30"/>
      <use x="63.623047" xlink:href="#DejaVuSans-2e"/>
      <use x="95.410156" xlink:href="#DejaVuSans-36"/>
     </g>
    </g>
   </g>
   <g id="xtick_15">
    <g id="line2d_17">
     <path d="M 508.322859 377.113392 
L 515.412709 379.186492 
" style="fill:none;stroke:#000000;stroke-linecap:square;stroke-width:0.8;"/>
    </g>
    <g id="text_17">
     <!-- 0.8 -->
     <g transform="translate(514.669244 397.761704)scale(0.1 -0.1)">
      <use xlink:href="#DejaVuSans-30"/>
      <use x="63.623047" xlink:href="#DejaVuSans-2e"/>
      <use x="95.410156" xlink:href="#DejaVuSans-38"/>
     </g>
    </g>
   </g>
  </g>
  <g id="axis3d_3">
   <g id="line2d_18">
    <path d="M 518.54341 369.738455 
L 528.550827 151.202044 
" style="fill:none;stroke:#000000;stroke-linecap:square;stroke-width:0.8;"/>
   </g>
   <g id="text_18">
    <!-- z (m) -->
    <g transform="translate(566.10943 270.534657)rotate(-87.378092)scale(0.1 -0.1)">
     <defs>
      <path d="M 353 3500 
L 3084 3500 
L 3084 2975 
L 922 459 
L 3084 459 
L 3084 0 
L 275 0 
L 275 525 
L 2438 3041 
L 353 3041 
L 353 3500 
z
" id="DejaVuSans-7a" transform="scale(0.015625)"/>
     </defs>
     <use xlink:href="#DejaVuSans-7a"/>
     <use x="52.490234" xlink:href="#DejaVuSans-20"/>
     <use x="84.277344" xlink:href="#DejaVuSans-28"/>
     <use x="123.291016" xlink:href="#DejaVuSans-6d"/>
     <use x="220.703125" xlink:href="#DejaVuSans-29"/>
    </g>
   </g>
   <g id="Line3DCollection_3">
    <path d="M 520.402527 329.140084 
L 237.665292 248.915604 
L 61.356046 393.139179 
" style="fill:none;stroke:#b0b0b0;stroke-width:0.8;"/>
    <path d="M 522.1965 289.964302 
L 237.229389 211.008361 
L 59.422811 352.994315 
" style="fill:none;stroke:#b0b0b0;stroke-width:0.8;"/>
    <path d="M 524.019278 250.159494 
L 236.786825 172.521842 
L 57.457339 312.180005 
" style="fill:none;stroke:#b0b0b0;stroke-width:0.8;"/>
    <path d="M 525.87156 209.710386 
L 236.337445 133.442667 
L 55.458815 270.679365 
" style="fill:none;stroke:#b0b0b0;stroke-width:0.8;"/>
    <path d="M 527.754069 168.601207 
L 235.881092 93.75704 
L 53.426399 228.474935 
" style="fill:none;stroke:#b0b0b0;stroke-width:0.8;"/>
   </g>
   <g id="xtick_16">
    <g id="line2d_19">
     <path d="M 518.02866 328.466518 
L 525.155956 330.488832 
" style="fill:none;stroke:#000000;stroke-linecap:square;stroke-width:0.8;"/>
    </g>
    <g id="text_19">
     <!-- 0.2 -->
     <g transform="translate(530.875879 334.169767)scale(0.1 -0.1)">
      <use xlink:href="#DejaVuSans-30"/>
      <use x="63.623047" xlink:href="#DejaVuSans-2e"/>
      <use x="95.410156" xlink:href="#DejaVuSans-32"/>
     </g>
    </g>
   </g>
   <g id="xtick_17">
    <g id="line2d_20">
     <path d="M 519.803012 289.301138 
L 526.989263 291.292235 
" style="fill:none;stroke:#000000;stroke-linecap:square;stroke-width:0.8;"/>
    </g>
    <g id="text_20">
     <!-- 0.4 -->
     <g transform="translate(532.813616 295.033676)scale(0.1 -0.1)">
      <use xlink:href="#DejaVuSans-30"/>
      <use x="63.623047" xlink:href="#DejaVuSans-2e"/>
      <use x="95.410156" xlink:href="#DejaVuSans-34"/>
     </g>
    </g>
   </g>
   <g id="xtick_18">
    <g id="line2d_21">
     <path d="M 521.605842 249.507153 
L 528.85203 251.465765 
" style="fill:none;stroke:#000000;stroke-linecap:square;stroke-width:0.8;"/>
    </g>
    <g id="text_21">
     <!-- 0.6 -->
     <g transform="translate(534.782417 255.270169)scale(0.1 -0.1)">
      <use xlink:href="#DejaVuSans-30"/>
      <use x="63.623047" xlink:href="#DejaVuSans-2e"/>
      <use x="95.410156" xlink:href="#DejaVuSans-36"/>
     </g>
    </g>
   </g>
   <g id="xtick_19">
    <g id="line2d_22">
     <path d="M 523.437843 209.069307 
L 530.744974 210.994118 
" style="fill:none;stroke:#000000;stroke-linecap:square;stroke-width:0.8;"/>
    </g>
    <g id="text_22">
     <!-- 0.8 -->
     <g transform="translate(536.783037 214.864034)scale(0.1 -0.1)">
      <use xlink:href="#DejaVuSans-30"/>
      <use x="63.623047" xlink:href="#DejaVuSans-2e"/>
      <use x="95.410156" xlink:href="#DejaVuSans-38"/>
     </g>
    </g>
   </g>
   <g id="xtick_20">
    <g id="line2d_23">
     <path d="M 525.299726 167.971847 
L 532.668832 169.861487 
" style="fill:none;stroke:#000000;stroke-linecap:square;stroke-width:0.8;"/>
    </g>
    <g id="text_23">
     <!-- 1.0 -->
     <g transform="translate(538.816253 173.799566)scale(0.1 -0.1)">
      <use xlink:href="#DejaVuSans-31"/>
      <use x="63.623047" xlink:href="#DejaVuSans-2e"/>
      <use x="95.410156" xlink:href="#DejaVuSans-30"/>
     </g>
    </g>
   </g>
  </g>
  <g id="axes_1">
   <g id="line2d_24">
    <path clip-path="url(#p416a555846)" d="M 139.378176 204.59104 
L 139.387274 204.885616 
L 139.476059 204.429728 
L 140.586686 203.348364 
L 142.678915 201.623277 
L 145.997103 199.189904 
L 151.183208 195.678099 
L 171.21778 182.353968 
L 177.793109 177.638091 
L 184.328313 172.67049 
L 190.473279 167.706374 
L 196.835302 162.259765 
L 205.156381 155.092324 
L 205.529569 155.001285 
L 205.516099 155.177607 
L 205.192966 155.809055 
L 203.885398 157.710407 
L 200.86982 161.620827 
L 196.31786 167.149728 
L 190.925642 173.355899 
L 185.137781 179.676502 
L 179.351798 185.671373 
L 173.902861 191.032101 
L 168.057166 196.483921 
L 161.882695 201.910671 
L 156.546522 206.32692 
L 151.09814 210.57213 
L 145.603427 214.577889 
L 140.136017 218.279048 
L 134.77679 221.615541 
L 129.613151 224.534385 
L 124.737911 226.99245 
L 120.245982 228.96063 
L 116.226651 230.430552 
L 112.756544 231.418361 
L 109.898086 231.960128 
L 108.084362 232.106786 
L 106.710938 232.033061 
L 105.789276 231.776205 
L 105.397262 231.488939 
L 105.26325 231.138723 
L 105.384871 230.745666 
L 105.757274 230.331122 
L 106.637403 229.775484 
L 107.938509 229.262634 
L 109.638414 228.841007 
L 111.711078 228.558028 
L 114.129894 228.456569 
L 116.863872 228.579964 
L 119.880675 228.968672 
L 123.147594 229.659719 
L 126.632531 230.686201 
L 130.312431 232.069128 
L 134.172874 233.818729 
L 138.209684 235.9337 
L 142.418802 238.411917 
L 146.795963 241.25078 
L 151.336678 244.447268 
L 156.036246 247.997942 
L 160.889768 251.898958 
L 167.165411 257.261416 
L 173.663365 263.155562 
L 180.372979 269.571447 
L 187.283287 276.49831 
L 194.383054 283.924635 
L 201.660828 291.838207 
L 209.104984 300.226177 
L 216.703774 309.07512 
L 226.009782 320.28268 
L 229.153941 324.157297 
L 231.904639 321.274855 
L 234.739094 318.651635 
L 237.644396 316.33012 
L 240.600997 314.351674 
L 242.588706 313.241676 
L 244.580566 312.309629 
L 246.568462 311.562721 
L 248.544377 311.006066 
L 253.140125 306.842943 
L 255.44775 305.175279 
L 257.040007 304.279942 
L 258.525463 303.70003 
L 259.917839 303.44629 
L 260.801798 303.462654 
L 261.655661 303.629141 
L 262.784386 303.974282 
L 263.260539 303.583364 
L 263.588669 303.339689 
L 263.722334 302.966787 
L 263.720547 302.836658 
L 263.722723 302.836637 
" style="fill:none;stroke:#1f77b4;stroke-linecap:square;stroke-opacity:0.7;stroke-width:1.5;"/>
   </g>
   <g id="line2d_25">
    <path clip-path="url(#p416a555846)" d="M 139.378176 204.59104 
L 139.530303 206.047175 
L 139.826614 206.613494 
L 140.418432 207.216864 
L 141.29005 207.769005 
L 142.321619 208.156363 
L 143.516663 208.357595 
L 145.143746 208.382392 
L 148.15347 208.179505 
L 149.442308 207.896017 
L 150.109349 207.538888 
L 150.408709 207.151757 
L 150.491282 206.66591 
L 150.349684 206.048494 
L 149.864121 205.064159 
L 148.926129 203.20181 
L 148.809568 202.460418 
L 148.71654 200.855612 
L 148.460191 199.867696 
L 148.625754 199.426272 
L 148.799776 199.160245 
L 148.841545 199.185194 
L 148.987743 199.282085 
L 148.98664 199.152057 
L 149.064957 198.629765 
L 149.405463 198.043865 
L 150.151215 197.249199 
L 151.7034 195.943794 
L 154.445643 193.941535 
L 159.534723 190.533501 
L 171.820504 182.390772 
L 176.477772 179.003311 
L 179.948079 176.240215 
L 183.274396 173.311047 
L 185.852549 170.779397 
L 188.18851 168.208868 
L 190.235844 165.65296 
L 191.963095 163.169673 
L 193.34409 160.80963 
L 194.355975 158.61333 
L 194.891275 156.997933 
L 195.183871 155.526884 
L 195.241227 154.216284 
L 195.075497 153.081564 
L 194.701495 152.136816 
L 194.135107 151.394427 
L 193.392041 150.864526 
L 192.487357 150.554538 
L 191.435833 150.469246 
L 190.252451 150.611071 
L 188.952359 150.980165 
L 187.185696 151.757696 
L 185.287091 152.877127 
L 183.281598 154.322929 
L 180.765794 156.458564 
L 178.166098 158.987291 
L 175.523227 161.851456 
L 172.452356 165.520634 
L 169.495029 169.410449 
L 166.789448 173.357367 
L 164.800232 176.659155 
L 163.467701 179.289925 
L 162.666737 181.29589 
L 162.139323 183.212659 
L 161.941903 184.597305 
L 161.928497 185.94122 
L 162.107913 187.255232 
L 162.49046 188.545548 
L 163.083186 189.822801 
L 163.892015 191.097367 
L 164.924929 192.375128 
L 166.18908 193.66189 
L 168.251019 195.393472 
L 170.763411 197.144238 
L 173.747698 198.913396 
L 177.222431 200.700915 
L 181.20295 202.507755 
L 185.701652 204.33533 
L 192.067064 206.652218 
L 199.265813 209.009793 
L 207.299031 211.413447 
L 218.031129 214.362453 
L 229.932035 217.377215 
L 242.96101 220.442664 
L 257.054879 223.528844 
L 272.114962 226.589457 
L 287.993121 229.560692 
L 301.69856 231.911615 
L 315.661413 234.09658 
L 329.67887 236.066214 
L 343.512152 237.770161 
L 356.89038 239.155433 
L 367.066259 239.997202 
L 376.601748 240.572256 
L 385.33988 240.855068 
L 391.285175 240.864248 
L 396.653964 240.695208 
L 401.405837 240.346678 
L 405.508565 239.819651 
L 408.937684 239.117065 
L 410.84163 238.553982 
L 412.435591 237.916993 
L 413.718489 237.208775 
L 414.689492 236.43152 
L 415.34897 235.587644 
L 415.699475 234.680493 
L 415.742879 233.712373 
L 415.484415 232.68736 
L 414.928668 231.608567 
L 414.081134 230.479249 
L 412.949754 229.303869 
L 411.540852 228.085348 
L 408.924928 226.184803 
L 405.730683 224.206889 
L 401.988957 222.163197 
L 397.732355 220.064826 
L 391.316216 217.200985 
L 384.133756 214.285613 
L 376.275481 211.344357 
L 367.832815 208.40178 
L 356.595693 204.756595 
L 344.760742 201.186536 
L 332.495063 197.727663 
L 319.957415 194.410511 
L 307.297419 191.260363 
L 292.141096 187.72874 
L 277.236524 184.491788 
L 262.790301 181.56537 
L 246.759208 178.552471 
L 231.853507 175.967032 
L 214.702238 173.234464 
L 196.004372 170.500782 
L 177.117852 167.960224 
L 171.468574 167.378127 
L 170.579863 167.429635 
L 170.696461 167.513125 
L 171.580513 167.760556 
L 174.27196 168.261627 
L 179.129517 168.929478 
L 184.875602 169.499695 
L 190.694262 169.850259 
L 195.466714 169.913341 
L 199.004087 169.738134 
L 201.374408 169.397699 
L 202.615099 169.034957 
L 203.371819 168.589202 
L 203.628806 168.162001 
L 203.592817 167.788674 
L 203.34763 167.391343 
L 202.75862 166.866964 
L 201.66344 166.2077 
L 199.903819 165.414955 
L 197.355296 164.50476 
L 193.560858 163.405726 
L 188.920119 162.304954 
L 183.731148 161.298976 
L 178.475831 160.501488 
L 174.07489 160.047053 
L 171.078387 159.941646 
L 169.491109 160.07579 
L 168.84995 160.317322 
L 168.737388 160.569438 
L 168.88002 160.821473 
L 169.426709 161.230998 
L 170.681876 161.838828 
L 172.947548 162.67299 
L 176.714215 163.808187 
L 182.014583 165.152905 
L 187.928232 166.424094 
L 193.33935 167.378624 
L 196.935254 167.809383 
L 198.192281 167.778778 
L 198.260818 167.683371 
L 198.240647 167.653788 
L 197.897758 167.460348 
L 196.698236 167.085342 
L 194.308963 166.582214 
L 192.19653 166.336262 
L 191.687263 166.419267 
L 191.689442 166.435065 
L 191.844766 166.549752 
L 192.642451 166.803189 
L 194.232204 167.077718 
L 195.588738 167.109909 
L 196.138309 166.939715 
L 196.206262 166.729669 
L 196.023815 166.473241 
L 195.4193 166.069628 
L 194.597501 165.672554 
L 194.802906 165.621003 
L 194.968838 165.451123 
L 194.863698 165.230817 
L 194.523407 164.987178 
L 194.792687 165.176197 
" style="fill:none;stroke:#2ca02c;stroke-linecap:square;stroke-opacity:0.7;stroke-width:1.5;"/>
   </g>
   <g id="line2d_26">
    <path clip-path="url(#p416a555846)" d="M 139.377069 204.555209 
L 187.977006 167.739145 
L 187.977006 167.739145 
" style="fill:none;stroke:#000000;stroke-dasharray:5.55,2.4;stroke-dashoffset:0;stroke-opacity:0.595;stroke-width:1.5;"/>
   </g>
   <g id="legend_1">
    <g id="patch_6">
     <path d="M 460.49375 88.034375 
L 545.6 88.034375 
Q 547.6 88.034375 547.6 86.034375 
L 547.6 43 
Q 547.6 41 545.6 41 
L 460.49375 41 
Q 458.49375 41 458.49375 43 
L 458.49375 86.034375 
Q 458.49375 88.034375 460.49375 88.034375 
z
" style="fill:#ffffff;opacity:0.8;stroke:#cccccc;stroke-linejoin:miter;"/>
    </g>
    <g id="line2d_27">
     <path d="M 462.49375 49.098437 
L 482.49375 49.098437 
" style="fill:none;stroke:#1f77b4;stroke-linecap:square;stroke-opacity:0.7;stroke-width:1.5;"/>
    </g>
    <g id="line2d_28"/>
    <g id="text_24">
     <!-- DSLPID -->
     <g transform="translate(490.49375 52.598437)scale(0.1 -0.1)">
      <defs>
       <path d="M 1259 4147 
L 1259 519 
L 2022 519 
Q 2988 519 3436 956 
Q 3884 1394 3884 2338 
Q 3884 3275 3436 3711 
Q 2988 4147 2022 4147 
L 1259 4147 
z
M 628 4666 
L 1925 4666 
Q 3281 4666 3915 4102 
Q 4550 3538 4550 2338 
Q 4550 1131 3912 565 
Q 3275 0 1925 0 
L 628 0 
L 628 4666 
z
" id="DejaVuSans-44" transform="scale(0.015625)"/>
       <path d="M 3425 4513 
L 3425 3897 
Q 3066 4069 2747 4153 
Q 2428 4238 2131 4238 
Q 1616 4238 1336 4038 
Q 1056 3838 1056 3469 
Q 1056 3159 1242 3001 
Q 1428 2844 1947 2747 
L 2328 2669 
Q 3034 2534 3370 2195 
Q 3706 1856 3706 1288 
Q 3706 609 3251 259 
Q 2797 -91 1919 -91 
Q 1588 -91 1214 -16 
Q 841 59 441 206 
L 441 856 
Q 825 641 1194 531 
Q 1563 422 1919 422 
Q 2459 422 2753 634 
Q 3047 847 3047 1241 
Q 3047 1584 2836 1778 
Q 2625 1972 2144 2069 
L 1759 2144 
Q 1053 2284 737 2584 
Q 422 2884 422 3419 
Q 422 4038 858 4394 
Q 1294 4750 2059 4750 
Q 2388 4750 2728 4690 
Q 3069 4631 3425 4513 
z
" id="DejaVuSans-53" transform="scale(0.015625)"/>
       <path d="M 628 4666 
L 1259 4666 
L 1259 531 
L 3531 531 
L 3531 0 
L 628 0 
L 628 4666 
z
" id="DejaVuSans-4c" transform="scale(0.015625)"/>
       <path d="M 1259 4147 
L 1259 2394 
L 2053 2394 
Q 2494 2394 2734 2622 
Q 2975 2850 2975 3272 
Q 2975 3691 2734 3919 
Q 2494 4147 2053 4147 
L 1259 4147 
z
M 628 4666 
L 2053 4666 
Q 2838 4666 3239 4311 
Q 3641 3956 3641 3272 
Q 3641 2581 3239 2228 
Q 2838 1875 2053 1875 
L 1259 1875 
L 1259 0 
L 628 0 
L 628 4666 
z
" id="DejaVuSans-50" transform="scale(0.015625)"/>
       <path d="M 628 4666 
L 1259 4666 
L 1259 0 
L 628 0 
L 628 4666 
z
" id="DejaVuSans-49" transform="scale(0.015625)"/>
      </defs>
      <use xlink:href="#DejaVuSans-44"/>
      <use x="77.001953" xlink:href="#DejaVuSans-53"/>
      <use x="140.478516" xlink:href="#DejaVuSans-4c"/>
      <use x="196.191406" xlink:href="#DejaVuSans-50"/>
      <use x="256.494141" xlink:href="#DejaVuSans-49"/>
      <use x="285.986328" xlink:href="#DejaVuSans-44"/>
     </g>
    </g>
    <g id="line2d_29">
     <path d="M 462.49375 63.776562 
L 482.49375 63.776562 
" style="fill:none;stroke:#2ca02c;stroke-linecap:square;stroke-opacity:0.7;stroke-width:1.5;"/>
    </g>
    <g id="line2d_30"/>
    <g id="text_25">
     <!-- LSTMCNN -->
     <g transform="translate(490.49375 67.276562)scale(0.1 -0.1)">
      <defs>
       <path d="M -19 4666 
L 3928 4666 
L 3928 4134 
L 2272 4134 
L 2272 0 
L 1638 0 
L 1638 4134 
L -19 4134 
L -19 4666 
z
" id="DejaVuSans-54" transform="scale(0.015625)"/>
       <path d="M 628 4666 
L 1569 4666 
L 2759 1491 
L 3956 4666 
L 4897 4666 
L 4897 0 
L 4281 0 
L 4281 4097 
L 3078 897 
L 2444 897 
L 1241 4097 
L 1241 0 
L 628 0 
L 628 4666 
z
" id="DejaVuSans-4d" transform="scale(0.015625)"/>
       <path d="M 4122 4306 
L 4122 3641 
Q 3803 3938 3442 4084 
Q 3081 4231 2675 4231 
Q 1875 4231 1450 3742 
Q 1025 3253 1025 2328 
Q 1025 1406 1450 917 
Q 1875 428 2675 428 
Q 3081 428 3442 575 
Q 3803 722 4122 1019 
L 4122 359 
Q 3791 134 3420 21 
Q 3050 -91 2638 -91 
Q 1578 -91 968 557 
Q 359 1206 359 2328 
Q 359 3453 968 4101 
Q 1578 4750 2638 4750 
Q 3056 4750 3426 4639 
Q 3797 4528 4122 4306 
z
" id="DejaVuSans-43" transform="scale(0.015625)"/>
       <path d="M 628 4666 
L 1478 4666 
L 3547 763 
L 3547 4666 
L 4159 4666 
L 4159 0 
L 3309 0 
L 1241 3903 
L 1241 0 
L 628 0 
L 628 4666 
z
" id="DejaVuSans-4e" transform="scale(0.015625)"/>
      </defs>
      <use xlink:href="#DejaVuSans-4c"/>
      <use x="55.712891" xlink:href="#DejaVuSans-53"/>
      <use x="119.189453" xlink:href="#DejaVuSans-54"/>
      <use x="180.273438" xlink:href="#DejaVuSans-4d"/>
      <use x="266.552734" xlink:href="#DejaVuSans-43"/>
      <use x="336.376953" xlink:href="#DejaVuSans-4e"/>
      <use x="411.181641" xlink:href="#DejaVuSans-4e"/>
     </g>
    </g>
    <g id="line2d_31">
     <path d="M 462.49375 78.454687 
L 482.49375 78.454687 
" style="fill:none;stroke:#000000;stroke-dasharray:5.55,2.4;stroke-dashoffset:0;stroke-opacity:0.595;stroke-width:1.5;"/>
    </g>
    <g id="line2d_32"/>
    <g id="text_26">
     <!-- Referencia -->
     <g transform="translate(490.49375 81.954687)scale(0.1 -0.1)">
      <defs>
       <path d="M 2841 2188 
Q 3044 2119 3236 1894 
Q 3428 1669 3622 1275 
L 4263 0 
L 3584 0 
L 2988 1197 
Q 2756 1666 2539 1819 
Q 2322 1972 1947 1972 
L 1259 1972 
L 1259 0 
L 628 0 
L 628 4666 
L 2053 4666 
Q 2853 4666 3247 4331 
Q 3641 3997 3641 3322 
Q 3641 2881 3436 2590 
Q 3231 2300 2841 2188 
z
M 1259 4147 
L 1259 2491 
L 2053 2491 
Q 2509 2491 2742 2702 
Q 2975 2913 2975 3322 
Q 2975 3731 2742 3939 
Q 2509 4147 2053 4147 
L 1259 4147 
z
" id="DejaVuSans-52" transform="scale(0.015625)"/>
       <path d="M 3597 1894 
L 3597 1613 
L 953 1613 
Q 991 1019 1311 708 
Q 1631 397 2203 397 
Q 2534 397 2845 478 
Q 3156 559 3463 722 
L 3463 178 
Q 3153 47 2828 -22 
Q 2503 -91 2169 -91 
Q 1331 -91 842 396 
Q 353 884 353 1716 
Q 353 2575 817 3079 
Q 1281 3584 2069 3584 
Q 2775 3584 3186 3129 
Q 3597 2675 3597 1894 
z
M 3022 2063 
Q 3016 2534 2758 2815 
Q 2500 3097 2075 3097 
Q 1594 3097 1305 2825 
Q 1016 2553 972 2059 
L 3022 2063 
z
" id="DejaVuSans-65" transform="scale(0.015625)"/>
       <path d="M 2375 4863 
L 2375 4384 
L 1825 4384 
Q 1516 4384 1395 4259 
Q 1275 4134 1275 3809 
L 1275 3500 
L 2222 3500 
L 2222 3053 
L 1275 3053 
L 1275 0 
L 697 0 
L 697 3053 
L 147 3053 
L 147 3500 
L 697 3500 
L 697 3744 
Q 697 4328 969 4595 
Q 1241 4863 1831 4863 
L 2375 4863 
z
" id="DejaVuSans-66" transform="scale(0.015625)"/>
       <path d="M 2631 2963 
Q 2534 3019 2420 3045 
Q 2306 3072 2169 3072 
Q 1681 3072 1420 2755 
Q 1159 2438 1159 1844 
L 1159 0 
L 581 0 
L 581 3500 
L 1159 3500 
L 1159 2956 
Q 1341 3275 1631 3429 
Q 1922 3584 2338 3584 
Q 2397 3584 2469 3576 
Q 2541 3569 2628 3553 
L 2631 2963 
z
" id="DejaVuSans-72" transform="scale(0.015625)"/>
       <path d="M 3513 2113 
L 3513 0 
L 2938 0 
L 2938 2094 
Q 2938 2591 2744 2837 
Q 2550 3084 2163 3084 
Q 1697 3084 1428 2787 
Q 1159 2491 1159 1978 
L 1159 0 
L 581 0 
L 581 3500 
L 1159 3500 
L 1159 2956 
Q 1366 3272 1645 3428 
Q 1925 3584 2291 3584 
Q 2894 3584 3203 3211 
Q 3513 2838 3513 2113 
z
" id="DejaVuSans-6e" transform="scale(0.015625)"/>
       <path d="M 3122 3366 
L 3122 2828 
Q 2878 2963 2633 3030 
Q 2388 3097 2138 3097 
Q 1578 3097 1268 2742 
Q 959 2388 959 1747 
Q 959 1106 1268 751 
Q 1578 397 2138 397 
Q 2388 397 2633 464 
Q 2878 531 3122 666 
L 3122 134 
Q 2881 22 2623 -34 
Q 2366 -91 2075 -91 
Q 1284 -91 818 406 
Q 353 903 353 1747 
Q 353 2603 823 3093 
Q 1294 3584 2113 3584 
Q 2378 3584 2631 3529 
Q 2884 3475 3122 3366 
z
" id="DejaVuSans-63" transform="scale(0.015625)"/>
       <path d="M 603 3500 
L 1178 3500 
L 1178 0 
L 603 0 
L 603 3500 
z
M 603 4863 
L 1178 4863 
L 1178 4134 
L 603 4134 
L 603 4863 
z
" id="DejaVuSans-69" transform="scale(0.015625)"/>
       <path d="M 2194 1759 
Q 1497 1759 1228 1600 
Q 959 1441 959 1056 
Q 959 750 1161 570 
Q 1363 391 1709 391 
Q 2188 391 2477 730 
Q 2766 1069 2766 1631 
L 2766 1759 
L 2194 1759 
z
M 3341 1997 
L 3341 0 
L 2766 0 
L 2766 531 
Q 2569 213 2275 61 
Q 1981 -91 1556 -91 
Q 1019 -91 701 211 
Q 384 513 384 1019 
Q 384 1609 779 1909 
Q 1175 2209 1959 2209 
L 2766 2209 
L 2766 2266 
Q 2766 2663 2505 2880 
Q 2244 3097 1772 3097 
Q 1472 3097 1187 3025 
Q 903 2953 641 2809 
L 641 3341 
Q 956 3463 1253 3523 
Q 1550 3584 1831 3584 
Q 2591 3584 2966 3190 
Q 3341 2797 3341 1997 
z
" id="DejaVuSans-61" transform="scale(0.015625)"/>
      </defs>
      <use xlink:href="#DejaVuSans-52"/>
      <use x="64.982422" xlink:href="#DejaVuSans-65"/>
      <use x="126.505859" xlink:href="#DejaVuSans-66"/>
      <use x="161.710938" xlink:href="#DejaVuSans-65"/>
      <use x="223.234375" xlink:href="#DejaVuSans-72"/>
      <use x="262.097656" xlink:href="#DejaVuSans-65"/>
      <use x="323.621094" xlink:href="#DejaVuSans-6e"/>
      <use x="387" xlink:href="#DejaVuSans-63"/>
      <use x="441.980469" xlink:href="#DejaVuSans-69"/>
      <use x="469.763672" xlink:href="#DejaVuSans-61"/>
     </g>
    </g>
   </g>
  </g>
  <g id="text_27">
   <!-- Vista 3D -->
   <g transform="translate(254.48625 23.6775)scale(0.16 -0.16)">
    <defs>
     <path d="M 1831 0 
L 50 4666 
L 709 4666 
L 2188 738 
L 3669 4666 
L 4325 4666 
L 2547 0 
L 1831 0 
z
" id="DejaVuSans-56" transform="scale(0.015625)"/>
     <path d="M 2834 3397 
L 2834 2853 
Q 2591 2978 2328 3040 
Q 2066 3103 1784 3103 
Q 1356 3103 1142 2972 
Q 928 2841 928 2578 
Q 928 2378 1081 2264 
Q 1234 2150 1697 2047 
L 1894 2003 
Q 2506 1872 2764 1633 
Q 3022 1394 3022 966 
Q 3022 478 2636 193 
Q 2250 -91 1575 -91 
Q 1294 -91 989 -36 
Q 684 19 347 128 
L 347 722 
Q 666 556 975 473 
Q 1284 391 1588 391 
Q 1994 391 2212 530 
Q 2431 669 2431 922 
Q 2431 1156 2273 1281 
Q 2116 1406 1581 1522 
L 1381 1569 
Q 847 1681 609 1914 
Q 372 2147 372 2553 
Q 372 3047 722 3315 
Q 1072 3584 1716 3584 
Q 2034 3584 2315 3537 
Q 2597 3491 2834 3397 
z
" id="DejaVuSans-73" transform="scale(0.015625)"/>
     <path d="M 1172 4494 
L 1172 3500 
L 2356 3500 
L 2356 3053 
L 1172 3053 
L 1172 1153 
Q 1172 725 1289 603 
Q 1406 481 1766 481 
L 2356 481 
L 2356 0 
L 1766 0 
Q 1100 0 847 248 
Q 594 497 594 1153 
L 594 3053 
L 172 3053 
L 172 3500 
L 594 3500 
L 594 4494 
L 1172 4494 
z
" id="DejaVuSans-74" transform="scale(0.015625)"/>
     <path d="M 2597 2516 
Q 3050 2419 3304 2112 
Q 3559 1806 3559 1356 
Q 3559 666 3084 287 
Q 2609 -91 1734 -91 
Q 1441 -91 1130 -33 
Q 819 25 488 141 
L 488 750 
Q 750 597 1062 519 
Q 1375 441 1716 441 
Q 2309 441 2620 675 
Q 2931 909 2931 1356 
Q 2931 1769 2642 2001 
Q 2353 2234 1838 2234 
L 1294 2234 
L 1294 2753 
L 1863 2753 
Q 2328 2753 2575 2939 
Q 2822 3125 2822 3475 
Q 2822 3834 2567 4026 
Q 2313 4219 1838 4219 
Q 1578 4219 1281 4162 
Q 984 4106 628 3988 
L 628 4550 
Q 988 4650 1302 4700 
Q 1616 4750 1894 4750 
Q 2613 4750 3031 4423 
Q 3450 4097 3450 3541 
Q 3450 3153 3228 2886 
Q 3006 2619 2597 2516 
z
" id="DejaVuSans-33" transform="scale(0.015625)"/>
    </defs>
    <use xlink:href="#DejaVuSans-56"/>
    <use x="66.158203" xlink:href="#DejaVuSans-69"/>
    <use x="93.941406" xlink:href="#DejaVuSans-73"/>
    <use x="146.041016" xlink:href="#DejaVuSans-74"/>
    <use x="185.25" xlink:href="#DejaVuSans-61"/>
    <use x="246.529297" xlink:href="#DejaVuSans-20"/>
    <use x="278.316406" xlink:href="#DejaVuSans-33"/>
    <use x="341.939453" xlink:href="#DejaVuSans-44"/>
   </g>
  </g>
 </g>
 <defs>
  <clipPath id="p416a555846">
   <rect height="529.2" width="529.2" x="23.4" y="36"/>
  </clipPath>
 </defs>
</svg>
