<?xml version="1.0" encoding="utf-8" standalone="no"?>
<!DOCTYPE svg PUBLIC "-//W3C//DTD SVG 1.1//EN"
  "http://www.w3.org/Graphics/SVG/1.1/DTD/svg11.dtd">
<svg height="576pt" version="1.1" viewBox="0 0 576 576" width="576pt" xmlns="http://www.w3.org/2000/svg" xmlns:xlink="http://www.w3.org/1999/xlink">
 <metadata>
  <rdf:RDF xmlns:cc="http://creativecommons.org/ns#" xmlns:dc="http://purl.org/dc/elements/1.1/" xmlns:rdf="http://www.w3.org/1999/02/22-rdf-syntax-ns#">
   <cc:Work>
    <dc:type rdf:resource="http://purl.org/dc/dcmitype/StillImage"/>
    <dc:date>2022-02-27T11:52:58.781510</dc:date>
    <dc:format>image/svg+xml</dc:format>
    <dc:creator>
     <cc:Agent>
      <dc:title>Matplotlib v3.4.3, https://matplotlib.org/</dc:title>
     </cc:Agent>
    </dc:creator>
   </cc:Work>
  </rdf:RDF>
 </metadata>
 <defs>
  <style type="text/css">*{stroke-linecap:butt;stroke-linejoin:round;}</style>
 </defs>
 <g id="figure_1">
  <g id="patch_1">
   <path d="M 0 576 
L 576 576 
L 576 0 
L 0 0 
z
" style="fill:#ffffff;"/>
  </g>
  <g id="axes_1">
   <g id="patch_2">
    <path d="M 84.49 259.26 
L 253.8 259.26 
L 253.8 55.68 
L 84.49 55.68 
z
" style="fill:#ffffff;"/>
   </g>
   <g id="matplotlib.axis_1">
    <g id="xtick_1">
     <g id="line2d_1">
      <path clip-path="url(#pc13099ab38)" d="M 92.185909 259.26 
L 92.185909 55.68 
" style="fill:none;stroke:#b0b0b0;stroke-linecap:square;stroke-width:0.8;"/>
     </g>
     <g id="line2d_2">
      <defs>
       <path d="M 0 0 
L 0 3.5 
" id="me8cfebc4d9" style="stroke:#000000;stroke-width:0.8;"/>
      </defs>
      <g>
       <use style="stroke:#000000;stroke-width:0.8;" x="92.185909" xlink:href="#me8cfebc4d9" y="259.26"/>
      </g>
     </g>
    </g>
    <g id="xtick_2">
     <g id="line2d_3">
      <path clip-path="url(#pc13099ab38)" d="M 130.673473 259.26 
L 130.673473 55.68 
" style="fill:none;stroke:#b0b0b0;stroke-linecap:square;stroke-width:0.8;"/>
     </g>
     <g id="line2d_4">
      <g>
       <use style="stroke:#000000;stroke-width:0.8;" x="130.673473" xlink:href="#me8cfebc4d9" y="259.26"/>
      </g>
     </g>
    </g>
    <g id="xtick_3">
     <g id="line2d_5">
      <path clip-path="url(#pc13099ab38)" d="M 169.161036 259.26 
L 169.161036 55.68 
" style="fill:none;stroke:#b0b0b0;stroke-linecap:square;stroke-width:0.8;"/>
     </g>
     <g id="line2d_6">
      <g>
       <use style="stroke:#000000;stroke-width:0.8;" x="169.161036" xlink:href="#me8cfebc4d9" y="259.26"/>
      </g>
     </g>
    </g>
    <g id="xtick_4">
     <g id="line2d_7">
      <path clip-path="url(#pc13099ab38)" d="M 207.6486 259.26 
L 207.6486 55.68 
" style="fill:none;stroke:#b0b0b0;stroke-linecap:square;stroke-width:0.8;"/>
     </g>
     <g id="line2d_8">
      <g>
       <use style="stroke:#000000;stroke-width:0.8;" x="207.6486" xlink:href="#me8cfebc4d9" y="259.26"/>
      </g>
     </g>
    </g>
    <g id="xtick_5">
     <g id="line2d_9">
      <path clip-path="url(#pc13099ab38)" d="M 246.136164 259.26 
L 246.136164 55.68 
" style="fill:none;stroke:#b0b0b0;stroke-linecap:square;stroke-width:0.8;"/>
     </g>
     <g id="line2d_10">
      <g>
       <use style="stroke:#000000;stroke-width:0.8;" x="246.136164" xlink:href="#me8cfebc4d9" y="259.26"/>
      </g>
     </g>
    </g>
    <g id="text_1">
     <!-- Tiempo (s) -->
     <g transform="translate(142.5825 270.858438)scale(0.1 -0.1)">
      <defs>
       <path d="M -19 4666 
L 3928 4666 
L 3928 4134 
L 2272 4134 
L 2272 0 
L 1638 0 
L 1638 4134 
L -19 4134 
L -19 4666 
z
" id="DejaVuSans-54" transform="scale(0.015625)"/>
       <path d="M 603 3500 
L 1178 3500 
L 1178 0 
L 603 0 
L 603 3500 
z
M 603 4863 
L 1178 4863 
L 1178 4134 
L 603 4134 
L 603 4863 
z
" id="DejaVuSans-69" transform="scale(0.015625)"/>
       <path d="M 3597 1894 
L 3597 1613 
L 953 1613 
Q 991 1019 1311 708 
Q 1631 397 2203 397 
Q 2534 397 2845 478 
Q 3156 559 3463 722 
L 3463 178 
Q 3153 47 2828 -22 
Q 2503 -91 2169 -91 
Q 1331 -91 842 396 
Q 353 884 353 1716 
Q 353 2575 817 3079 
Q 1281 3584 2069 3584 
Q 2775 3584 3186 3129 
Q 3597 2675 3597 1894 
z
M 3022 2063 
Q 3016 2534 2758 2815 
Q 2500 3097 2075 3097 
Q 1594 3097 1305 2825 
Q 1016 2553 972 2059 
L 3022 2063 
z
" id="DejaVuSans-65" transform="scale(0.015625)"/>
       <path d="M 3328 2828 
Q 3544 3216 3844 3400 
Q 4144 3584 4550 3584 
Q 5097 3584 5394 3201 
Q 5691 2819 5691 2113 
L 5691 0 
L 5113 0 
L 5113 2094 
Q 5113 2597 4934 2840 
Q 4756 3084 4391 3084 
Q 3944 3084 3684 2787 
Q 3425 2491 3425 1978 
L 3425 0 
L 2847 0 
L 2847 2094 
Q 2847 2600 2669 2842 
Q 2491 3084 2119 3084 
Q 1678 3084 1418 2786 
Q 1159 2488 1159 1978 
L 1159 0 
L 581 0 
L 581 3500 
L 1159 3500 
L 1159 2956 
Q 1356 3278 1631 3431 
Q 1906 3584 2284 3584 
Q 2666 3584 2933 3390 
Q 3200 3197 3328 2828 
z
" id="DejaVuSans-6d" transform="scale(0.015625)"/>
       <path d="M 1159 525 
L 1159 -1331 
L 581 -1331 
L 581 3500 
L 1159 3500 
L 1159 2969 
Q 1341 3281 1617 3432 
Q 1894 3584 2278 3584 
Q 2916 3584 3314 3078 
Q 3713 2572 3713 1747 
Q 3713 922 3314 415 
Q 2916 -91 2278 -91 
Q 1894 -91 1617 61 
Q 1341 213 1159 525 
z
M 3116 1747 
Q 3116 2381 2855 2742 
Q 2594 3103 2138 3103 
Q 1681 3103 1420 2742 
Q 1159 2381 1159 1747 
Q 1159 1113 1420 752 
Q 1681 391 2138 391 
Q 2594 391 2855 752 
Q 3116 1113 3116 1747 
z
" id="DejaVuSans-70" transform="scale(0.015625)"/>
       <path d="M 1959 3097 
Q 1497 3097 1228 2736 
Q 959 2375 959 1747 
Q 959 1119 1226 758 
Q 1494 397 1959 397 
Q 2419 397 2687 759 
Q 2956 1122 2956 1747 
Q 2956 2369 2687 2733 
Q 2419 3097 1959 3097 
z
M 1959 3584 
Q 2709 3584 3137 3096 
Q 3566 2609 3566 1747 
Q 3566 888 3137 398 
Q 2709 -91 1959 -91 
Q 1206 -91 779 398 
Q 353 888 353 1747 
Q 353 2609 779 3096 
Q 1206 3584 1959 3584 
z
" id="DejaVuSans-6f" transform="scale(0.015625)"/>
       <path id="DejaVuSans-20" transform="scale(0.015625)"/>
       <path d="M 1984 4856 
Q 1566 4138 1362 3434 
Q 1159 2731 1159 2009 
Q 1159 1288 1364 580 
Q 1569 -128 1984 -844 
L 1484 -844 
Q 1016 -109 783 600 
Q 550 1309 550 2009 
Q 550 2706 781 3412 
Q 1013 4119 1484 4856 
L 1984 4856 
z
" id="DejaVuSans-28" transform="scale(0.015625)"/>
       <path d="M 2834 3397 
L 2834 2853 
Q 2591 2978 2328 3040 
Q 2066 3103 1784 3103 
Q 1356 3103 1142 2972 
Q 928 2841 928 2578 
Q 928 2378 1081 2264 
Q 1234 2150 1697 2047 
L 1894 2003 
Q 2506 1872 2764 1633 
Q 3022 1394 3022 966 
Q 3022 478 2636 193 
Q 2250 -91 1575 -91 
Q 1294 -91 989 -36 
Q 684 19 347 128 
L 347 722 
Q 666 556 975 473 
Q 1284 391 1588 391 
Q 1994 391 2212 530 
Q 2431 669 2431 922 
Q 2431 1156 2273 1281 
Q 2116 1406 1581 1522 
L 1381 1569 
Q 847 1681 609 1914 
Q 372 2147 372 2553 
Q 372 3047 722 3315 
Q 1072 3584 1716 3584 
Q 2034 3584 2315 3537 
Q 2597 3491 2834 3397 
z
" id="DejaVuSans-73" transform="scale(0.015625)"/>
       <path d="M 513 4856 
L 1013 4856 
Q 1481 4119 1714 3412 
Q 1947 2706 1947 2009 
Q 1947 1309 1714 600 
Q 1481 -109 1013 -844 
L 513 -844 
Q 928 -128 1133 580 
Q 1338 1288 1338 2009 
Q 1338 2731 1133 3434 
Q 928 4138 513 4856 
z
" id="DejaVuSans-29" transform="scale(0.015625)"/>
      </defs>
      <use xlink:href="#DejaVuSans-54"/>
      <use x="57.958984" xlink:href="#DejaVuSans-69"/>
      <use x="85.742188" xlink:href="#DejaVuSans-65"/>
      <use x="147.265625" xlink:href="#DejaVuSans-6d"/>
      <use x="244.677734" xlink:href="#DejaVuSans-70"/>
      <use x="308.154297" xlink:href="#DejaVuSans-6f"/>
      <use x="369.335938" xlink:href="#DejaVuSans-20"/>
      <use x="401.123047" xlink:href="#DejaVuSans-28"/>
      <use x="440.136719" xlink:href="#DejaVuSans-73"/>
      <use x="492.236328" xlink:href="#DejaVuSans-29"/>
     </g>
    </g>
   </g>
   <g id="matplotlib.axis_2">
    <g id="ytick_1">
     <g id="line2d_11">
      <path clip-path="url(#pc13099ab38)" d="M 84.49 250.006364 
L 253.8 250.006364 
" style="fill:none;stroke:#b0b0b0;stroke-linecap:square;stroke-width:0.8;"/>
     </g>
     <g id="line2d_12">
      <defs>
       <path d="M 0 0 
L -3.5 0 
" id="ma674c78775" style="stroke:#000000;stroke-width:0.8;"/>
      </defs>
      <g>
       <use style="stroke:#000000;stroke-width:0.8;" x="84.49" xlink:href="#ma674c78775" y="250.006364"/>
      </g>
     </g>
     <g id="text_2">
      <!-- 0 -->
      <g transform="translate(71.1275 253.805582)scale(0.1 -0.1)">
       <defs>
        <path d="M 2034 4250 
Q 1547 4250 1301 3770 
Q 1056 3291 1056 2328 
Q 1056 1369 1301 889 
Q 1547 409 2034 409 
Q 2525 409 2770 889 
Q 3016 1369 3016 2328 
Q 3016 3291 2770 3770 
Q 2525 4250 2034 4250 
z
M 2034 4750 
Q 2819 4750 3233 4129 
Q 3647 3509 3647 2328 
Q 3647 1150 3233 529 
Q 2819 -91 2034 -91 
Q 1250 -91 836 529 
Q 422 1150 422 2328 
Q 422 3509 836 4129 
Q 1250 4750 2034 4750 
z
" id="DejaVuSans-30" transform="scale(0.015625)"/>
       </defs>
       <use xlink:href="#DejaVuSans-30"/>
      </g>
     </g>
    </g>
    <g id="ytick_2">
     <g id="line2d_13">
      <path clip-path="url(#pc13099ab38)" d="M 84.49 205.539519 
L 253.8 205.539519 
" style="fill:none;stroke:#b0b0b0;stroke-linecap:square;stroke-width:0.8;"/>
     </g>
     <g id="line2d_14">
      <g>
       <use style="stroke:#000000;stroke-width:0.8;" x="84.49" xlink:href="#ma674c78775" y="205.539519"/>
      </g>
     </g>
     <g id="text_3">
      <!-- 50000 -->
      <g transform="translate(45.6775 209.338738)scale(0.1 -0.1)">
       <defs>
        <path d="M 691 4666 
L 3169 4666 
L 3169 4134 
L 1269 4134 
L 1269 2991 
Q 1406 3038 1543 3061 
Q 1681 3084 1819 3084 
Q 2600 3084 3056 2656 
Q 3513 2228 3513 1497 
Q 3513 744 3044 326 
Q 2575 -91 1722 -91 
Q 1428 -91 1123 -41 
Q 819 9 494 109 
L 494 744 
Q 775 591 1075 516 
Q 1375 441 1709 441 
Q 2250 441 2565 725 
Q 2881 1009 2881 1497 
Q 2881 1984 2565 2268 
Q 2250 2553 1709 2553 
Q 1456 2553 1204 2497 
Q 953 2441 691 2322 
L 691 4666 
z
" id="DejaVuSans-35" transform="scale(0.015625)"/>
       </defs>
       <use xlink:href="#DejaVuSans-35"/>
       <use x="63.623047" xlink:href="#DejaVuSans-30"/>
       <use x="127.246094" xlink:href="#DejaVuSans-30"/>
       <use x="190.869141" xlink:href="#DejaVuSans-30"/>
       <use x="254.492188" xlink:href="#DejaVuSans-30"/>
      </g>
     </g>
    </g>
    <g id="ytick_3">
     <g id="line2d_15">
      <path clip-path="url(#pc13099ab38)" d="M 84.49 161.072675 
L 253.8 161.072675 
" style="fill:none;stroke:#b0b0b0;stroke-linecap:square;stroke-width:0.8;"/>
     </g>
     <g id="line2d_16">
      <g>
       <use style="stroke:#000000;stroke-width:0.8;" x="84.49" xlink:href="#ma674c78775" y="161.072675"/>
      </g>
     </g>
     <g id="text_4">
      <!-- 100000 -->
      <g transform="translate(39.315 164.871893)scale(0.1 -0.1)">
       <defs>
        <path d="M 794 531 
L 1825 531 
L 1825 4091 
L 703 3866 
L 703 4441 
L 1819 4666 
L 2450 4666 
L 2450 531 
L 3481 531 
L 3481 0 
L 794 0 
L 794 531 
z
" id="DejaVuSans-31" transform="scale(0.015625)"/>
       </defs>
       <use xlink:href="#DejaVuSans-31"/>
       <use x="63.623047" xlink:href="#DejaVuSans-30"/>
       <use x="127.246094" xlink:href="#DejaVuSans-30"/>
       <use x="190.869141" xlink:href="#DejaVuSans-30"/>
       <use x="254.492188" xlink:href="#DejaVuSans-30"/>
       <use x="318.115234" xlink:href="#DejaVuSans-30"/>
      </g>
     </g>
    </g>
    <g id="ytick_4">
     <g id="line2d_17">
      <path clip-path="url(#pc13099ab38)" d="M 84.49 116.60583 
L 253.8 116.60583 
" style="fill:none;stroke:#b0b0b0;stroke-linecap:square;stroke-width:0.8;"/>
     </g>
     <g id="line2d_18">
      <g>
       <use style="stroke:#000000;stroke-width:0.8;" x="84.49" xlink:href="#ma674c78775" y="116.60583"/>
      </g>
     </g>
     <g id="text_5">
      <!-- 150000 -->
      <g transform="translate(39.315 120.405049)scale(0.1 -0.1)">
       <use xlink:href="#DejaVuSans-31"/>
       <use x="63.623047" xlink:href="#DejaVuSans-35"/>
       <use x="127.246094" xlink:href="#DejaVuSans-30"/>
       <use x="190.869141" xlink:href="#DejaVuSans-30"/>
       <use x="254.492188" xlink:href="#DejaVuSans-30"/>
       <use x="318.115234" xlink:href="#DejaVuSans-30"/>
      </g>
     </g>
    </g>
    <g id="ytick_5">
     <g id="line2d_19">
      <path clip-path="url(#pc13099ab38)" d="M 84.49 72.138985 
L 253.8 72.138985 
" style="fill:none;stroke:#b0b0b0;stroke-linecap:square;stroke-width:0.8;"/>
     </g>
     <g id="line2d_20">
      <g>
       <use style="stroke:#000000;stroke-width:0.8;" x="84.49" xlink:href="#ma674c78775" y="72.138985"/>
      </g>
     </g>
     <g id="text_6">
      <!-- 200000 -->
      <g transform="translate(39.315 75.938204)scale(0.1 -0.1)">
       <defs>
        <path d="M 1228 531 
L 3431 531 
L 3431 0 
L 469 0 
L 469 531 
Q 828 903 1448 1529 
Q 2069 2156 2228 2338 
Q 2531 2678 2651 2914 
Q 2772 3150 2772 3378 
Q 2772 3750 2511 3984 
Q 2250 4219 1831 4219 
Q 1534 4219 1204 4116 
Q 875 4013 500 3803 
L 500 4441 
Q 881 4594 1212 4672 
Q 1544 4750 1819 4750 
Q 2544 4750 2975 4387 
Q 3406 4025 3406 3419 
Q 3406 3131 3298 2873 
Q 3191 2616 2906 2266 
Q 2828 2175 2409 1742 
Q 1991 1309 1228 531 
z
" id="DejaVuSans-32" transform="scale(0.015625)"/>
       </defs>
       <use xlink:href="#DejaVuSans-32"/>
       <use x="63.623047" xlink:href="#DejaVuSans-30"/>
       <use x="127.246094" xlink:href="#DejaVuSans-30"/>
       <use x="190.869141" xlink:href="#DejaVuSans-30"/>
       <use x="254.492188" xlink:href="#DejaVuSans-30"/>
       <use x="318.115234" xlink:href="#DejaVuSans-30"/>
      </g>
     </g>
    </g>
   </g>
   <g id="line2d_21">
    <path clip-path="url(#pc13099ab38)" d="M 92.185909 250.006364 
L 246.104091 249.987497 
L 246.104091 249.987497 
" style="fill:none;stroke:#1f77b4;stroke-linecap:square;stroke-opacity:0.7;stroke-width:1.5;"/>
   </g>
   <g id="line2d_22">
    <path clip-path="url(#pc13099ab38)" d="M 92.185909 250.006364 
L 119.223423 249.895865 
L 124.772046 249.664659 
L 129.518846 249.246409 
L 135.163689 248.510288 
L 142.861201 247.504553 
L 146.004352 247.343911 
L 149.628598 247.190129 
L 152.194435 246.828136 
L 154.664054 246.257325 
L 157.133673 245.458494 
L 159.571219 244.433288 
L 162.040837 243.154261 
L 164.510456 241.620656 
L 167.076293 239.764438 
L 169.610058 237.653325 
L 172.304188 235.114844 
L 174.966244 232.30374 
L 177.724519 229.061287 
L 180.675233 225.244674 
L 183.5618 221.142002 
L 186.608732 216.409496 
L 189.848102 210.964347 
L 193.27991 204.749116 
L 197.128666 197.304106 
L 201.009495 189.316193 
L 205.05069 180.476197 
L 209.540905 170.112568 
L 214.415997 158.277805 
L 220.990956 141.724661 
L 225.609463 129.457854 
L 229.843095 117.577684 
L 233.916362 105.479642 
L 238.053776 92.469314 
L 242.223262 78.581212 
L 246.104091 64.933636 
L 246.104091 64.933636 
" style="fill:none;stroke:#d62728;stroke-linecap:square;stroke-opacity:0.7;stroke-width:1.5;"/>
   </g>
   <g id="line2d_23">
    <path clip-path="url(#pc13099ab38)" d="M 92.185909 250.006364 
L 114.380404 249.895357 
L 139.493539 249.535353 
L 246.104091 247.820833 
L 246.104091 247.820833 
" style="fill:none;stroke:#9467bd;stroke-linecap:square;stroke-opacity:0.7;stroke-width:1.5;"/>
   </g>
   <g id="line2d_24">
    <path clip-path="url(#pc13099ab38)" d="M 92.185909 250.006364 
L 105.111316 249.89563 
L 133.495894 248.888914 
L 246.104091 244.602013 
L 246.104091 244.602013 
" style="fill:none;stroke:#bcbd22;stroke-linecap:square;stroke-opacity:0.7;stroke-width:1.5;"/>
   </g>
   <g id="line2d_25">
    <path clip-path="url(#pc13099ab38)" d="M 92.185909 250.006364 
L 104.309492 249.896613 
L 109.088364 249.580712 
L 120.474268 248.520725 
L 171.021269 243.627591 
L 246.104091 236.316762 
L 246.104091 236.316762 
" style="fill:none;stroke:#2ca02c;stroke-linecap:square;stroke-opacity:0.7;stroke-width:1.5;"/>
   </g>
   <g id="line2d_26">
    <path clip-path="url(#pc13099ab38)" d="M 92.185909 250.006364 
L 105.143389 249.895364 
L 125.8946 249.238546 
L 170.05908 247.720455 
L 246.104091 245.082907 
L 246.104091 245.082907 
" style="fill:none;stroke:#17becf;stroke-linecap:square;stroke-opacity:0.7;stroke-width:1.5;"/>
   </g>
   <g id="patch_3">
    <path d="M 84.49 259.26 
L 84.49 55.68 
" style="fill:none;stroke:#000000;stroke-linecap:square;stroke-linejoin:miter;stroke-width:0.8;"/>
   </g>
   <g id="patch_4">
    <path d="M 253.8 259.26 
L 253.8 55.68 
" style="fill:none;stroke:#000000;stroke-linecap:square;stroke-linejoin:miter;stroke-width:0.8;"/>
   </g>
   <g id="patch_5">
    <path d="M 84.49 259.26 
L 253.8 259.26 
" style="fill:none;stroke:#000000;stroke-linecap:square;stroke-linejoin:miter;stroke-width:0.8;"/>
   </g>
   <g id="patch_6">
    <path d="M 84.49 55.68 
L 253.8 55.68 
" style="fill:none;stroke:#000000;stroke-linecap:square;stroke-linejoin:miter;stroke-width:0.8;"/>
   </g>
   <g id="text_7">
    <!-- x (m) -->
    <g transform="translate(153.160625 49.68)scale(0.12 -0.12)">
     <defs>
      <path d="M 3513 3500 
L 2247 1797 
L 3578 0 
L 2900 0 
L 1881 1375 
L 863 0 
L 184 0 
L 1544 1831 
L 300 3500 
L 978 3500 
L 1906 2253 
L 2834 3500 
L 3513 3500 
z
" id="DejaVuSans-78" transform="scale(0.015625)"/>
     </defs>
     <use xlink:href="#DejaVuSans-78"/>
     <use x="59.179688" xlink:href="#DejaVuSans-20"/>
     <use x="90.966797" xlink:href="#DejaVuSans-28"/>
     <use x="129.980469" xlink:href="#DejaVuSans-6d"/>
     <use x="227.392578" xlink:href="#DejaVuSans-29"/>
    </g>
   </g>
  </g>
  <g id="axes_2">
   <g id="patch_7">
    <path d="M 309.49 259.26 
L 478.8 259.26 
L 478.8 55.68 
L 309.49 55.68 
z
" style="fill:#ffffff;"/>
   </g>
   <g id="matplotlib.axis_3">
    <g id="xtick_6">
     <g id="line2d_27">
      <path clip-path="url(#p50605e6885)" d="M 317.185909 259.26 
L 317.185909 55.68 
" style="fill:none;stroke:#b0b0b0;stroke-linecap:square;stroke-width:0.8;"/>
     </g>
     <g id="line2d_28">
      <g>
       <use style="stroke:#000000;stroke-width:0.8;" x="317.185909" xlink:href="#me8cfebc4d9" y="259.26"/>
      </g>
     </g>
    </g>
    <g id="xtick_7">
     <g id="line2d_29">
      <path clip-path="url(#p50605e6885)" d="M 355.673473 259.26 
L 355.673473 55.68 
" style="fill:none;stroke:#b0b0b0;stroke-linecap:square;stroke-width:0.8;"/>
     </g>
     <g id="line2d_30">
      <g>
       <use style="stroke:#000000;stroke-width:0.8;" x="355.673473" xlink:href="#me8cfebc4d9" y="259.26"/>
      </g>
     </g>
    </g>
    <g id="xtick_8">
     <g id="line2d_31">
      <path clip-path="url(#p50605e6885)" d="M 394.161036 259.26 
L 394.161036 55.68 
" style="fill:none;stroke:#b0b0b0;stroke-linecap:square;stroke-width:0.8;"/>
     </g>
     <g id="line2d_32">
      <g>
       <use style="stroke:#000000;stroke-width:0.8;" x="394.161036" xlink:href="#me8cfebc4d9" y="259.26"/>
      </g>
     </g>
    </g>
    <g id="xtick_9">
     <g id="line2d_33">
      <path clip-path="url(#p50605e6885)" d="M 432.6486 259.26 
L 432.6486 55.68 
" style="fill:none;stroke:#b0b0b0;stroke-linecap:square;stroke-width:0.8;"/>
     </g>
     <g id="line2d_34">
      <g>
       <use style="stroke:#000000;stroke-width:0.8;" x="432.6486" xlink:href="#me8cfebc4d9" y="259.26"/>
      </g>
     </g>
    </g>
    <g id="xtick_10">
     <g id="line2d_35">
      <path clip-path="url(#p50605e6885)" d="M 471.136164 259.26 
L 471.136164 55.68 
" style="fill:none;stroke:#b0b0b0;stroke-linecap:square;stroke-width:0.8;"/>
     </g>
     <g id="line2d_36">
      <g>
       <use style="stroke:#000000;stroke-width:0.8;" x="471.136164" xlink:href="#me8cfebc4d9" y="259.26"/>
      </g>
     </g>
    </g>
    <g id="text_8">
     <!-- Tiempo (s) -->
     <g transform="translate(367.5825 270.858438)scale(0.1 -0.1)">
      <use xlink:href="#DejaVuSans-54"/>
      <use x="57.958984" xlink:href="#DejaVuSans-69"/>
      <use x="85.742188" xlink:href="#DejaVuSans-65"/>
      <use x="147.265625" xlink:href="#DejaVuSans-6d"/>
      <use x="244.677734" xlink:href="#DejaVuSans-70"/>
      <use x="308.154297" xlink:href="#DejaVuSans-6f"/>
      <use x="369.335938" xlink:href="#DejaVuSans-20"/>
      <use x="401.123047" xlink:href="#DejaVuSans-28"/>
      <use x="440.136719" xlink:href="#DejaVuSans-73"/>
      <use x="492.236328" xlink:href="#DejaVuSans-29"/>
     </g>
    </g>
   </g>
   <g id="matplotlib.axis_4">
    <g id="ytick_6">
     <g id="line2d_37">
      <path clip-path="url(#p50605e6885)" d="M 309.49 250.006364 
L 478.8 250.006364 
" style="fill:none;stroke:#b0b0b0;stroke-linecap:square;stroke-width:0.8;"/>
     </g>
     <g id="line2d_38">
      <g>
       <use style="stroke:#000000;stroke-width:0.8;" x="309.49" xlink:href="#ma674c78775" y="250.006364"/>
      </g>
     </g>
     <g id="text_9">
      <!-- 0 -->
      <g transform="translate(296.1275 253.805582)scale(0.1 -0.1)">
       <use xlink:href="#DejaVuSans-30"/>
      </g>
     </g>
    </g>
    <g id="ytick_7">
     <g id="line2d_39">
      <path clip-path="url(#p50605e6885)" d="M 309.49 221.342789 
L 478.8 221.342789 
" style="fill:none;stroke:#b0b0b0;stroke-linecap:square;stroke-width:0.8;"/>
     </g>
     <g id="line2d_40">
      <g>
       <use style="stroke:#000000;stroke-width:0.8;" x="309.49" xlink:href="#ma674c78775" y="221.342789"/>
      </g>
     </g>
     <g id="text_10">
      <!-- 20000 -->
      <g transform="translate(270.6775 225.142008)scale(0.1 -0.1)">
       <use xlink:href="#DejaVuSans-32"/>
       <use x="63.623047" xlink:href="#DejaVuSans-30"/>
       <use x="127.246094" xlink:href="#DejaVuSans-30"/>
       <use x="190.869141" xlink:href="#DejaVuSans-30"/>
       <use x="254.492188" xlink:href="#DejaVuSans-30"/>
      </g>
     </g>
    </g>
    <g id="ytick_8">
     <g id="line2d_41">
      <path clip-path="url(#p50605e6885)" d="M 309.49 192.679215 
L 478.8 192.679215 
" style="fill:none;stroke:#b0b0b0;stroke-linecap:square;stroke-width:0.8;"/>
     </g>
     <g id="line2d_42">
      <g>
       <use style="stroke:#000000;stroke-width:0.8;" x="309.49" xlink:href="#ma674c78775" y="192.679215"/>
      </g>
     </g>
     <g id="text_11">
      <!-- 40000 -->
      <g transform="translate(270.6775 196.478434)scale(0.1 -0.1)">
       <defs>
        <path d="M 2419 4116 
L 825 1625 
L 2419 1625 
L 2419 4116 
z
M 2253 4666 
L 3047 4666 
L 3047 1625 
L 3713 1625 
L 3713 1100 
L 3047 1100 
L 3047 0 
L 2419 0 
L 2419 1100 
L 313 1100 
L 313 1709 
L 2253 4666 
z
" id="DejaVuSans-34" transform="scale(0.015625)"/>
       </defs>
       <use xlink:href="#DejaVuSans-34"/>
       <use x="63.623047" xlink:href="#DejaVuSans-30"/>
       <use x="127.246094" xlink:href="#DejaVuSans-30"/>
       <use x="190.869141" xlink:href="#DejaVuSans-30"/>
       <use x="254.492188" xlink:href="#DejaVuSans-30"/>
      </g>
     </g>
    </g>
    <g id="ytick_9">
     <g id="line2d_43">
      <path clip-path="url(#p50605e6885)" d="M 309.49 164.015641 
L 478.8 164.015641 
" style="fill:none;stroke:#b0b0b0;stroke-linecap:square;stroke-width:0.8;"/>
     </g>
     <g id="line2d_44">
      <g>
       <use style="stroke:#000000;stroke-width:0.8;" x="309.49" xlink:href="#ma674c78775" y="164.015641"/>
      </g>
     </g>
     <g id="text_12">
      <!-- 60000 -->
      <g transform="translate(270.6775 167.81486)scale(0.1 -0.1)">
       <defs>
        <path d="M 2113 2584 
Q 1688 2584 1439 2293 
Q 1191 2003 1191 1497 
Q 1191 994 1439 701 
Q 1688 409 2113 409 
Q 2538 409 2786 701 
Q 3034 994 3034 1497 
Q 3034 2003 2786 2293 
Q 2538 2584 2113 2584 
z
M 3366 4563 
L 3366 3988 
Q 3128 4100 2886 4159 
Q 2644 4219 2406 4219 
Q 1781 4219 1451 3797 
Q 1122 3375 1075 2522 
Q 1259 2794 1537 2939 
Q 1816 3084 2150 3084 
Q 2853 3084 3261 2657 
Q 3669 2231 3669 1497 
Q 3669 778 3244 343 
Q 2819 -91 2113 -91 
Q 1303 -91 875 529 
Q 447 1150 447 2328 
Q 447 3434 972 4092 
Q 1497 4750 2381 4750 
Q 2619 4750 2861 4703 
Q 3103 4656 3366 4563 
z
" id="DejaVuSans-36" transform="scale(0.015625)"/>
       </defs>
       <use xlink:href="#DejaVuSans-36"/>
       <use x="63.623047" xlink:href="#DejaVuSans-30"/>
       <use x="127.246094" xlink:href="#DejaVuSans-30"/>
       <use x="190.869141" xlink:href="#DejaVuSans-30"/>
       <use x="254.492188" xlink:href="#DejaVuSans-30"/>
      </g>
     </g>
    </g>
    <g id="ytick_10">
     <g id="line2d_45">
      <path clip-path="url(#p50605e6885)" d="M 309.49 135.352067 
L 478.8 135.352067 
" style="fill:none;stroke:#b0b0b0;stroke-linecap:square;stroke-width:0.8;"/>
     </g>
     <g id="line2d_46">
      <g>
       <use style="stroke:#000000;stroke-width:0.8;" x="309.49" xlink:href="#ma674c78775" y="135.352067"/>
      </g>
     </g>
     <g id="text_13">
      <!-- 80000 -->
      <g transform="translate(270.6775 139.151286)scale(0.1 -0.1)">
       <defs>
        <path d="M 2034 2216 
Q 1584 2216 1326 1975 
Q 1069 1734 1069 1313 
Q 1069 891 1326 650 
Q 1584 409 2034 409 
Q 2484 409 2743 651 
Q 3003 894 3003 1313 
Q 3003 1734 2745 1975 
Q 2488 2216 2034 2216 
z
M 1403 2484 
Q 997 2584 770 2862 
Q 544 3141 544 3541 
Q 544 4100 942 4425 
Q 1341 4750 2034 4750 
Q 2731 4750 3128 4425 
Q 3525 4100 3525 3541 
Q 3525 3141 3298 2862 
Q 3072 2584 2669 2484 
Q 3125 2378 3379 2068 
Q 3634 1759 3634 1313 
Q 3634 634 3220 271 
Q 2806 -91 2034 -91 
Q 1263 -91 848 271 
Q 434 634 434 1313 
Q 434 1759 690 2068 
Q 947 2378 1403 2484 
z
M 1172 3481 
Q 1172 3119 1398 2916 
Q 1625 2713 2034 2713 
Q 2441 2713 2670 2916 
Q 2900 3119 2900 3481 
Q 2900 3844 2670 4047 
Q 2441 4250 2034 4250 
Q 1625 4250 1398 4047 
Q 1172 3844 1172 3481 
z
" id="DejaVuSans-38" transform="scale(0.015625)"/>
       </defs>
       <use xlink:href="#DejaVuSans-38"/>
       <use x="63.623047" xlink:href="#DejaVuSans-30"/>
       <use x="127.246094" xlink:href="#DejaVuSans-30"/>
       <use x="190.869141" xlink:href="#DejaVuSans-30"/>
       <use x="254.492188" xlink:href="#DejaVuSans-30"/>
      </g>
     </g>
    </g>
    <g id="ytick_11">
     <g id="line2d_47">
      <path clip-path="url(#p50605e6885)" d="M 309.49 106.688493 
L 478.8 106.688493 
" style="fill:none;stroke:#b0b0b0;stroke-linecap:square;stroke-width:0.8;"/>
     </g>
     <g id="line2d_48">
      <g>
       <use style="stroke:#000000;stroke-width:0.8;" x="309.49" xlink:href="#ma674c78775" y="106.688493"/>
      </g>
     </g>
     <g id="text_14">
      <!-- 100000 -->
      <g transform="translate(264.315 110.487712)scale(0.1 -0.1)">
       <use xlink:href="#DejaVuSans-31"/>
       <use x="63.623047" xlink:href="#DejaVuSans-30"/>
       <use x="127.246094" xlink:href="#DejaVuSans-30"/>
       <use x="190.869141" xlink:href="#DejaVuSans-30"/>
       <use x="254.492188" xlink:href="#DejaVuSans-30"/>
       <use x="318.115234" xlink:href="#DejaVuSans-30"/>
      </g>
     </g>
    </g>
    <g id="ytick_12">
     <g id="line2d_49">
      <path clip-path="url(#p50605e6885)" d="M 309.49 78.024919 
L 478.8 78.024919 
" style="fill:none;stroke:#b0b0b0;stroke-linecap:square;stroke-width:0.8;"/>
     </g>
     <g id="line2d_50">
      <g>
       <use style="stroke:#000000;stroke-width:0.8;" x="309.49" xlink:href="#ma674c78775" y="78.024919"/>
      </g>
     </g>
     <g id="text_15">
      <!-- 120000 -->
      <g transform="translate(264.315 81.824137)scale(0.1 -0.1)">
       <use xlink:href="#DejaVuSans-31"/>
       <use x="63.623047" xlink:href="#DejaVuSans-32"/>
       <use x="127.246094" xlink:href="#DejaVuSans-30"/>
       <use x="190.869141" xlink:href="#DejaVuSans-30"/>
       <use x="254.492188" xlink:href="#DejaVuSans-30"/>
       <use x="318.115234" xlink:href="#DejaVuSans-30"/>
      </g>
     </g>
    </g>
   </g>
   <g id="line2d_51">
    <path clip-path="url(#p50605e6885)" d="M 317.185909 250.006364 
L 471.104091 249.975766 
L 471.104091 249.975766 
" style="fill:none;stroke:#1f77b4;stroke-linecap:square;stroke-opacity:0.7;stroke-width:1.5;"/>
   </g>
   <g id="line2d_52">
    <path clip-path="url(#p50605e6885)" d="M 317.185909 250.006364 
L 328.379376 249.895325 
L 332.035694 249.605888 
L 335.467502 249.108304 
L 339.187966 248.332134 
L 343.742328 247.136039 
L 349.451317 245.397043 
L 366.834866 239.918241 
L 369.978017 239.283687 
L 372.768366 238.944163 
L 375.430422 238.845881 
L 377.964187 238.710513 
L 380.401732 238.360156 
L 382.903424 237.770917 
L 385.308897 236.972078 
L 387.810588 235.906941 
L 390.216061 234.64102 
L 392.813972 233.020151 
L 395.315663 231.199712 
L 397.97772 228.976948 
L 400.735995 226.386496 
L 403.398052 223.574184 
L 406.348765 220.122266 
L 409.299478 216.334934 
L 412.153973 212.302497 
L 415.265051 207.513443 
L 418.344056 202.367124 
L 421.583426 196.507097 
L 425.175598 189.541702 
L 428.671552 182.281807 
L 432.231652 174.358446 
L 436.176627 165.022335 
L 440.249894 154.799223 
L 448.460574 133.376184 
L 453.399812 119.938295 
L 457.793808 107.338422 
L 462.059513 94.454195 
L 466.293145 81.006868 
L 471.039945 65.154268 
L 471.104091 64.933636 
L 471.104091 64.933636 
" style="fill:none;stroke:#d62728;stroke-linecap:square;stroke-opacity:0.7;stroke-width:1.5;"/>
   </g>
   <g id="line2d_53">
    <path clip-path="url(#p50605e6885)" d="M 317.185909 250.006364 
L 341.978315 249.895338 
L 378.766011 249.808394 
L 471.104091 249.684757 
L 471.104091 249.684757 
" style="fill:none;stroke:#9467bd;stroke-linecap:square;stroke-opacity:0.7;stroke-width:1.5;"/>
   </g>
   <g id="line2d_54">
    <path clip-path="url(#p50605e6885)" d="M 317.185909 250.006364 
L 336.269326 249.895379 
L 381.267703 249.716364 
L 471.104091 249.538782 
L 471.104091 249.538782 
" style="fill:none;stroke:#bcbd22;stroke-linecap:square;stroke-opacity:0.7;stroke-width:1.5;"/>
   </g>
   <g id="line2d_55">
    <path clip-path="url(#p50605e6885)" d="M 317.185909 250.006364 
L 334.312875 249.895771 
L 366.353772 248.887943 
L 471.104091 245.876655 
L 471.104091 245.876655 
" style="fill:none;stroke:#2ca02c;stroke-linecap:square;stroke-opacity:0.7;stroke-width:1.5;"/>
   </g>
   <g id="line2d_56">
    <path clip-path="url(#p50605e6885)" d="M 317.185909 250.006364 
L 328.475594 249.89541 
L 340.150155 249.146593 
L 387.586078 245.970721 
L 471.104091 240.26026 
L 471.104091 240.26026 
" style="fill:none;stroke:#17becf;stroke-linecap:square;stroke-opacity:0.7;stroke-width:1.5;"/>
   </g>
   <g id="patch_8">
    <path d="M 309.49 259.26 
L 309.49 55.68 
" style="fill:none;stroke:#000000;stroke-linecap:square;stroke-linejoin:miter;stroke-width:0.8;"/>
   </g>
   <g id="patch_9">
    <path d="M 478.8 259.26 
L 478.8 55.68 
" style="fill:none;stroke:#000000;stroke-linecap:square;stroke-linejoin:miter;stroke-width:0.8;"/>
   </g>
   <g id="patch_10">
    <path d="M 309.49 259.26 
L 478.8 259.26 
" style="fill:none;stroke:#000000;stroke-linecap:square;stroke-linejoin:miter;stroke-width:0.8;"/>
   </g>
   <g id="patch_11">
    <path d="M 309.49 55.68 
L 478.8 55.68 
" style="fill:none;stroke:#000000;stroke-linecap:square;stroke-linejoin:miter;stroke-width:0.8;"/>
   </g>
   <g id="text_16">
    <!-- y (m) -->
    <g transform="translate(378.160625 49.68)scale(0.12 -0.12)">
     <defs>
      <path d="M 2059 -325 
Q 1816 -950 1584 -1140 
Q 1353 -1331 966 -1331 
L 506 -1331 
L 506 -850 
L 844 -850 
Q 1081 -850 1212 -737 
Q 1344 -625 1503 -206 
L 1606 56 
L 191 3500 
L 800 3500 
L 1894 763 
L 2988 3500 
L 3597 3500 
L 2059 -325 
z
" id="DejaVuSans-79" transform="scale(0.015625)"/>
     </defs>
     <use xlink:href="#DejaVuSans-79"/>
     <use x="59.179688" xlink:href="#DejaVuSans-20"/>
     <use x="90.966797" xlink:href="#DejaVuSans-28"/>
     <use x="129.980469" xlink:href="#DejaVuSans-6d"/>
     <use x="227.392578" xlink:href="#DejaVuSans-29"/>
    </g>
   </g>
  </g>
  <g id="axes_3">
   <g id="patch_12">
    <path d="M 84.49 505.24 
L 253.8 505.24 
L 253.8 301.66 
L 84.49 301.66 
z
" style="fill:#ffffff;"/>
   </g>
   <g id="matplotlib.axis_5">
    <g id="xtick_11">
     <g id="line2d_57">
      <path clip-path="url(#p1e099e12f5)" d="M 92.185909 505.24 
L 92.185909 301.66 
" style="fill:none;stroke:#b0b0b0;stroke-linecap:square;stroke-width:0.8;"/>
     </g>
     <g id="line2d_58">
      <g>
       <use style="stroke:#000000;stroke-width:0.8;" x="92.185909" xlink:href="#me8cfebc4d9" y="505.24"/>
      </g>
     </g>
     <g id="text_17">
      <!-- 0 -->
      <g transform="translate(89.004659 519.838438)scale(0.1 -0.1)">
       <use xlink:href="#DejaVuSans-30"/>
      </g>
     </g>
    </g>
    <g id="xtick_12">
     <g id="line2d_59">
      <path clip-path="url(#p1e099e12f5)" d="M 130.673473 505.24 
L 130.673473 301.66 
" style="fill:none;stroke:#b0b0b0;stroke-linecap:square;stroke-width:0.8;"/>
     </g>
     <g id="line2d_60">
      <g>
       <use style="stroke:#000000;stroke-width:0.8;" x="130.673473" xlink:href="#me8cfebc4d9" y="505.24"/>
      </g>
     </g>
     <g id="text_18">
      <!-- 5 -->
      <g transform="translate(127.492223 519.838438)scale(0.1 -0.1)">
       <use xlink:href="#DejaVuSans-35"/>
      </g>
     </g>
    </g>
    <g id="xtick_13">
     <g id="line2d_61">
      <path clip-path="url(#p1e099e12f5)" d="M 169.161036 505.24 
L 169.161036 301.66 
" style="fill:none;stroke:#b0b0b0;stroke-linecap:square;stroke-width:0.8;"/>
     </g>
     <g id="line2d_62">
      <g>
       <use style="stroke:#000000;stroke-width:0.8;" x="169.161036" xlink:href="#me8cfebc4d9" y="505.24"/>
      </g>
     </g>
     <g id="text_19">
      <!-- 10 -->
      <g transform="translate(162.798536 519.838438)scale(0.1 -0.1)">
       <use xlink:href="#DejaVuSans-31"/>
       <use x="63.623047" xlink:href="#DejaVuSans-30"/>
      </g>
     </g>
    </g>
    <g id="xtick_14">
     <g id="line2d_63">
      <path clip-path="url(#p1e099e12f5)" d="M 207.6486 505.24 
L 207.6486 301.66 
" style="fill:none;stroke:#b0b0b0;stroke-linecap:square;stroke-width:0.8;"/>
     </g>
     <g id="line2d_64">
      <g>
       <use style="stroke:#000000;stroke-width:0.8;" x="207.6486" xlink:href="#me8cfebc4d9" y="505.24"/>
      </g>
     </g>
     <g id="text_20">
      <!-- 15 -->
      <g transform="translate(201.2861 519.838438)scale(0.1 -0.1)">
       <use xlink:href="#DejaVuSans-31"/>
       <use x="63.623047" xlink:href="#DejaVuSans-35"/>
      </g>
     </g>
    </g>
    <g id="xtick_15">
     <g id="line2d_65">
      <path clip-path="url(#p1e099e12f5)" d="M 246.136164 505.24 
L 246.136164 301.66 
" style="fill:none;stroke:#b0b0b0;stroke-linecap:square;stroke-width:0.8;"/>
     </g>
     <g id="line2d_66">
      <g>
       <use style="stroke:#000000;stroke-width:0.8;" x="246.136164" xlink:href="#me8cfebc4d9" y="505.24"/>
      </g>
     </g>
     <g id="text_21">
      <!-- 20 -->
      <g transform="translate(239.773664 519.838438)scale(0.1 -0.1)">
       <use xlink:href="#DejaVuSans-32"/>
       <use x="63.623047" xlink:href="#DejaVuSans-30"/>
      </g>
     </g>
    </g>
    <g id="text_22">
     <!-- Tiempo (s) -->
     <g transform="translate(142.5825 533.516563)scale(0.1 -0.1)">
      <use xlink:href="#DejaVuSans-54"/>
      <use x="57.958984" xlink:href="#DejaVuSans-69"/>
      <use x="85.742188" xlink:href="#DejaVuSans-65"/>
      <use x="147.265625" xlink:href="#DejaVuSans-6d"/>
      <use x="244.677734" xlink:href="#DejaVuSans-70"/>
      <use x="308.154297" xlink:href="#DejaVuSans-6f"/>
      <use x="369.335938" xlink:href="#DejaVuSans-20"/>
      <use x="401.123047" xlink:href="#DejaVuSans-28"/>
      <use x="440.136719" xlink:href="#DejaVuSans-73"/>
      <use x="492.236328" xlink:href="#DejaVuSans-29"/>
     </g>
    </g>
   </g>
   <g id="matplotlib.axis_6">
    <g id="ytick_13">
     <g id="line2d_67">
      <path clip-path="url(#p1e099e12f5)" d="M 84.49 495.986364 
L 253.8 495.986364 
" style="fill:none;stroke:#b0b0b0;stroke-linecap:square;stroke-width:0.8;"/>
     </g>
     <g id="line2d_68">
      <g>
       <use style="stroke:#000000;stroke-width:0.8;" x="84.49" xlink:href="#ma674c78775" y="495.986364"/>
      </g>
     </g>
     <g id="text_23">
      <!-- 0 -->
      <g transform="translate(71.1275 499.785582)scale(0.1 -0.1)">
       <use xlink:href="#DejaVuSans-30"/>
      </g>
     </g>
    </g>
    <g id="ytick_14">
     <g id="line2d_69">
      <path clip-path="url(#p1e099e12f5)" d="M 84.49 452.14297 
L 253.8 452.14297 
" style="fill:none;stroke:#b0b0b0;stroke-linecap:square;stroke-width:0.8;"/>
     </g>
     <g id="line2d_70">
      <g>
       <use style="stroke:#000000;stroke-width:0.8;" x="84.49" xlink:href="#ma674c78775" y="452.14297"/>
      </g>
     </g>
     <g id="text_24">
      <!-- 100000 -->
      <g transform="translate(39.315 455.942189)scale(0.1 -0.1)">
       <use xlink:href="#DejaVuSans-31"/>
       <use x="63.623047" xlink:href="#DejaVuSans-30"/>
       <use x="127.246094" xlink:href="#DejaVuSans-30"/>
       <use x="190.869141" xlink:href="#DejaVuSans-30"/>
       <use x="254.492188" xlink:href="#DejaVuSans-30"/>
       <use x="318.115234" xlink:href="#DejaVuSans-30"/>
      </g>
     </g>
    </g>
    <g id="ytick_15">
     <g id="line2d_71">
      <path clip-path="url(#p1e099e12f5)" d="M 84.49 408.299577 
L 253.8 408.299577 
" style="fill:none;stroke:#b0b0b0;stroke-linecap:square;stroke-width:0.8;"/>
     </g>
     <g id="line2d_72">
      <g>
       <use style="stroke:#000000;stroke-width:0.8;" x="84.49" xlink:href="#ma674c78775" y="408.299577"/>
      </g>
     </g>
     <g id="text_25">
      <!-- 200000 -->
      <g transform="translate(39.315 412.098795)scale(0.1 -0.1)">
       <use xlink:href="#DejaVuSans-32"/>
       <use x="63.623047" xlink:href="#DejaVuSans-30"/>
       <use x="127.246094" xlink:href="#DejaVuSans-30"/>
       <use x="190.869141" xlink:href="#DejaVuSans-30"/>
       <use x="254.492188" xlink:href="#DejaVuSans-30"/>
       <use x="318.115234" xlink:href="#DejaVuSans-30"/>
      </g>
     </g>
    </g>
    <g id="ytick_16">
     <g id="line2d_73">
      <path clip-path="url(#p1e099e12f5)" d="M 84.49 364.456183 
L 253.8 364.456183 
" style="fill:none;stroke:#b0b0b0;stroke-linecap:square;stroke-width:0.8;"/>
     </g>
     <g id="line2d_74">
      <g>
       <use style="stroke:#000000;stroke-width:0.8;" x="84.49" xlink:href="#ma674c78775" y="364.456183"/>
      </g>
     </g>
     <g id="text_26">
      <!-- 300000 -->
      <g transform="translate(39.315 368.255402)scale(0.1 -0.1)">
       <defs>
        <path d="M 2597 2516 
Q 3050 2419 3304 2112 
Q 3559 1806 3559 1356 
Q 3559 666 3084 287 
Q 2609 -91 1734 -91 
Q 1441 -91 1130 -33 
Q 819 25 488 141 
L 488 750 
Q 750 597 1062 519 
Q 1375 441 1716 441 
Q 2309 441 2620 675 
Q 2931 909 2931 1356 
Q 2931 1769 2642 2001 
Q 2353 2234 1838 2234 
L 1294 2234 
L 1294 2753 
L 1863 2753 
Q 2328 2753 2575 2939 
Q 2822 3125 2822 3475 
Q 2822 3834 2567 4026 
Q 2313 4219 1838 4219 
Q 1578 4219 1281 4162 
Q 984 4106 628 3988 
L 628 4550 
Q 988 4650 1302 4700 
Q 1616 4750 1894 4750 
Q 2613 4750 3031 4423 
Q 3450 4097 3450 3541 
Q 3450 3153 3228 2886 
Q 3006 2619 2597 2516 
z
" id="DejaVuSans-33" transform="scale(0.015625)"/>
       </defs>
       <use xlink:href="#DejaVuSans-33"/>
       <use x="63.623047" xlink:href="#DejaVuSans-30"/>
       <use x="127.246094" xlink:href="#DejaVuSans-30"/>
       <use x="190.869141" xlink:href="#DejaVuSans-30"/>
       <use x="254.492188" xlink:href="#DejaVuSans-30"/>
       <use x="318.115234" xlink:href="#DejaVuSans-30"/>
      </g>
     </g>
    </g>
    <g id="ytick_17">
     <g id="line2d_75">
      <path clip-path="url(#p1e099e12f5)" d="M 84.49 320.61279 
L 253.8 320.61279 
" style="fill:none;stroke:#b0b0b0;stroke-linecap:square;stroke-width:0.8;"/>
     </g>
     <g id="line2d_76">
      <g>
       <use style="stroke:#000000;stroke-width:0.8;" x="84.49" xlink:href="#ma674c78775" y="320.61279"/>
      </g>
     </g>
     <g id="text_27">
      <!-- 400000 -->
      <g transform="translate(39.315 324.412008)scale(0.1 -0.1)">
       <use xlink:href="#DejaVuSans-34"/>
       <use x="63.623047" xlink:href="#DejaVuSans-30"/>
       <use x="127.246094" xlink:href="#DejaVuSans-30"/>
       <use x="190.869141" xlink:href="#DejaVuSans-30"/>
       <use x="254.492188" xlink:href="#DejaVuSans-30"/>
       <use x="318.115234" xlink:href="#DejaVuSans-30"/>
      </g>
     </g>
    </g>
   </g>
   <g id="line2d_77">
    <path clip-path="url(#p1e099e12f5)" d="M 92.185909 495.986364 
L 246.104091 495.980668 
L 246.104091 495.980668 
" style="fill:none;stroke:#1f77b4;stroke-linecap:square;stroke-opacity:0.7;stroke-width:1.5;"/>
   </g>
   <g id="line2d_78">
    <path clip-path="url(#p1e099e12f5)" d="M 92.185909 495.986364 
L 112.584318 495.875911 
L 117.234898 495.605292 
L 121.147801 495.162487 
L 124.739973 494.537898 
L 128.235927 493.706619 
L 131.699808 492.65598 
L 135.163689 491.375003 
L 138.627569 489.852366 
L 141.995231 488.125688 
L 145.33082 486.163147 
L 148.698482 483.919941 
L 152.13029 481.363711 
L 155.658316 478.455577 
L 159.314635 475.147624 
L 163.035099 471.479913 
L 166.883856 467.372006 
L 170.892977 462.75892 
L 174.934171 457.764488 
L 179.13573 452.214822 
L 183.369362 446.247744 
L 187.763359 439.670777 
L 192.09321 432.788088 
L 196.423061 425.485871 
L 200.720839 417.795995 
L 205.114836 409.474815 
L 209.508832 400.675621 
L 213.966975 391.243071 
L 218.425118 381.286871 
L 223.556793 369.247527 
L 229.265782 355.286859 
L 235.135135 340.342603 
L 241.325218 323.967219 
L 246.104091 310.913636 
L 246.104091 310.913636 
" style="fill:none;stroke:#d62728;stroke-linecap:square;stroke-opacity:0.7;stroke-width:1.5;"/>
   </g>
   <g id="line2d_79">
    <path clip-path="url(#p1e099e12f5)" d="M 92.185909 495.986364 
L 111.237253 495.875427 
L 196.230623 494.640583 
L 246.104091 493.899866 
L 246.104091 493.899866 
" style="fill:none;stroke:#9467bd;stroke-linecap:square;stroke-opacity:0.7;stroke-width:1.5;"/>
   </g>
   <g id="line2d_80">
    <path clip-path="url(#p1e099e12f5)" d="M 92.185909 495.986364 
L 109.826042 495.875562 
L 192.285648 494.68115 
L 246.104091 493.881813 
L 246.104091 493.881813 
" style="fill:none;stroke:#bcbd22;stroke-linecap:square;stroke-opacity:0.7;stroke-width:1.5;"/>
   </g>
   <g id="line2d_81">
    <path clip-path="url(#p1e099e12f5)" d="M 92.185909 495.986364 
L 112.744683 495.875516 
L 207.392016 494.494597 
L 246.104091 493.919627 
L 246.104091 493.919627 
" style="fill:none;stroke:#2ca02c;stroke-linecap:square;stroke-opacity:0.7;stroke-width:1.5;"/>
   </g>
   <g id="line2d_82">
    <path clip-path="url(#p1e099e12f5)" d="M 92.185909 495.986364 
L 111.173107 495.875392 
L 207.10336 494.47803 
L 246.104091 493.898771 
L 246.104091 493.898771 
" style="fill:none;stroke:#17becf;stroke-linecap:square;stroke-opacity:0.7;stroke-width:1.5;"/>
   </g>
   <g id="patch_13">
    <path d="M 84.49 505.24 
L 84.49 301.66 
" style="fill:none;stroke:#000000;stroke-linecap:square;stroke-linejoin:miter;stroke-width:0.8;"/>
   </g>
   <g id="patch_14">
    <path d="M 253.8 505.24 
L 253.8 301.66 
" style="fill:none;stroke:#000000;stroke-linecap:square;stroke-linejoin:miter;stroke-width:0.8;"/>
   </g>
   <g id="patch_15">
    <path d="M 84.49 505.24 
L 253.8 505.24 
" style="fill:none;stroke:#000000;stroke-linecap:square;stroke-linejoin:miter;stroke-width:0.8;"/>
   </g>
   <g id="patch_16">
    <path d="M 84.49 301.66 
L 253.8 301.66 
" style="fill:none;stroke:#000000;stroke-linecap:square;stroke-linejoin:miter;stroke-width:0.8;"/>
   </g>
   <g id="text_28">
    <!-- z (m) -->
    <g transform="translate(153.562812 295.66)scale(0.12 -0.12)">
     <defs>
      <path d="M 353 3500 
L 3084 3500 
L 3084 2975 
L 922 459 
L 3084 459 
L 3084 0 
L 275 0 
L 275 525 
L 2438 3041 
L 353 3041 
L 353 3500 
z
" id="DejaVuSans-7a" transform="scale(0.015625)"/>
     </defs>
     <use xlink:href="#DejaVuSans-7a"/>
     <use x="52.490234" xlink:href="#DejaVuSans-20"/>
     <use x="84.277344" xlink:href="#DejaVuSans-28"/>
     <use x="123.291016" xlink:href="#DejaVuSans-6d"/>
     <use x="220.703125" xlink:href="#DejaVuSans-29"/>
    </g>
   </g>
  </g>
  <g id="axes_4">
   <g id="patch_17">
    <path d="M 309.49 505.24 
L 478.8 505.24 
L 478.8 301.66 
L 309.49 301.66 
z
" style="fill:#ffffff;"/>
   </g>
   <g id="matplotlib.axis_7">
    <g id="xtick_16">
     <g id="line2d_83">
      <path clip-path="url(#p950986e88c)" d="M 317.185909 505.24 
L 317.185909 301.66 
" style="fill:none;stroke:#b0b0b0;stroke-linecap:square;stroke-width:0.8;"/>
     </g>
     <g id="line2d_84">
      <g>
       <use style="stroke:#000000;stroke-width:0.8;" x="317.185909" xlink:href="#me8cfebc4d9" y="505.24"/>
      </g>
     </g>
     <g id="text_29">
      <!-- 0 -->
      <g transform="translate(314.004659 519.838438)scale(0.1 -0.1)">
       <use xlink:href="#DejaVuSans-30"/>
      </g>
     </g>
    </g>
    <g id="xtick_17">
     <g id="line2d_85">
      <path clip-path="url(#p950986e88c)" d="M 355.673473 505.24 
L 355.673473 301.66 
" style="fill:none;stroke:#b0b0b0;stroke-linecap:square;stroke-width:0.8;"/>
     </g>
     <g id="line2d_86">
      <g>
       <use style="stroke:#000000;stroke-width:0.8;" x="355.673473" xlink:href="#me8cfebc4d9" y="505.24"/>
      </g>
     </g>
     <g id="text_30">
      <!-- 5 -->
      <g transform="translate(352.492223 519.838438)scale(0.1 -0.1)">
       <use xlink:href="#DejaVuSans-35"/>
      </g>
     </g>
    </g>
    <g id="xtick_18">
     <g id="line2d_87">
      <path clip-path="url(#p950986e88c)" d="M 394.161036 505.24 
L 394.161036 301.66 
" style="fill:none;stroke:#b0b0b0;stroke-linecap:square;stroke-width:0.8;"/>
     </g>
     <g id="line2d_88">
      <g>
       <use style="stroke:#000000;stroke-width:0.8;" x="394.161036" xlink:href="#me8cfebc4d9" y="505.24"/>
      </g>
     </g>
     <g id="text_31">
      <!-- 10 -->
      <g transform="translate(387.798536 519.838438)scale(0.1 -0.1)">
       <use xlink:href="#DejaVuSans-31"/>
       <use x="63.623047" xlink:href="#DejaVuSans-30"/>
      </g>
     </g>
    </g>
    <g id="xtick_19">
     <g id="line2d_89">
      <path clip-path="url(#p950986e88c)" d="M 432.6486 505.24 
L 432.6486 301.66 
" style="fill:none;stroke:#b0b0b0;stroke-linecap:square;stroke-width:0.8;"/>
     </g>
     <g id="line2d_90">
      <g>
       <use style="stroke:#000000;stroke-width:0.8;" x="432.6486" xlink:href="#me8cfebc4d9" y="505.24"/>
      </g>
     </g>
     <g id="text_32">
      <!-- 15 -->
      <g transform="translate(426.2861 519.838438)scale(0.1 -0.1)">
       <use xlink:href="#DejaVuSans-31"/>
       <use x="63.623047" xlink:href="#DejaVuSans-35"/>
      </g>
     </g>
    </g>
    <g id="xtick_20">
     <g id="line2d_91">
      <path clip-path="url(#p950986e88c)" d="M 471.136164 505.24 
L 471.136164 301.66 
" style="fill:none;stroke:#b0b0b0;stroke-linecap:square;stroke-width:0.8;"/>
     </g>
     <g id="line2d_92">
      <g>
       <use style="stroke:#000000;stroke-width:0.8;" x="471.136164" xlink:href="#me8cfebc4d9" y="505.24"/>
      </g>
     </g>
     <g id="text_33">
      <!-- 20 -->
      <g transform="translate(464.773664 519.838438)scale(0.1 -0.1)">
       <use xlink:href="#DejaVuSans-32"/>
       <use x="63.623047" xlink:href="#DejaVuSans-30"/>
      </g>
     </g>
    </g>
    <g id="text_34">
     <!-- Tiempo (s) -->
     <g transform="translate(367.5825 533.516563)scale(0.1 -0.1)">
      <use xlink:href="#DejaVuSans-54"/>
      <use x="57.958984" xlink:href="#DejaVuSans-69"/>
      <use x="85.742188" xlink:href="#DejaVuSans-65"/>
      <use x="147.265625" xlink:href="#DejaVuSans-6d"/>
      <use x="244.677734" xlink:href="#DejaVuSans-70"/>
      <use x="308.154297" xlink:href="#DejaVuSans-6f"/>
      <use x="369.335938" xlink:href="#DejaVuSans-20"/>
      <use x="401.123047" xlink:href="#DejaVuSans-28"/>
      <use x="440.136719" xlink:href="#DejaVuSans-73"/>
      <use x="492.236328" xlink:href="#DejaVuSans-29"/>
     </g>
    </g>
   </g>
   <g id="matplotlib.axis_8">
    <g id="ytick_18">
     <g id="line2d_93">
      <path clip-path="url(#p950986e88c)" d="M 309.49 495.986364 
L 478.8 495.986364 
" style="fill:none;stroke:#b0b0b0;stroke-linecap:square;stroke-width:0.8;"/>
     </g>
     <g id="line2d_94">
      <g>
       <use style="stroke:#000000;stroke-width:0.8;" x="309.49" xlink:href="#ma674c78775" y="495.986364"/>
      </g>
     </g>
     <g id="text_35">
      <!-- 0 -->
      <g transform="translate(296.1275 499.785582)scale(0.1 -0.1)">
       <use xlink:href="#DejaVuSans-30"/>
      </g>
     </g>
    </g>
    <g id="ytick_19">
     <g id="line2d_95">
      <path clip-path="url(#p950986e88c)" d="M 309.49 459.08802 
L 478.8 459.08802 
" style="fill:none;stroke:#b0b0b0;stroke-linecap:square;stroke-width:0.8;"/>
     </g>
     <g id="line2d_96">
      <g>
       <use style="stroke:#000000;stroke-width:0.8;" x="309.49" xlink:href="#ma674c78775" y="459.08802"/>
      </g>
     </g>
     <g id="text_36">
      <!-- 2000 -->
      <g transform="translate(277.04 462.887238)scale(0.1 -0.1)">
       <use xlink:href="#DejaVuSans-32"/>
       <use x="63.623047" xlink:href="#DejaVuSans-30"/>
       <use x="127.246094" xlink:href="#DejaVuSans-30"/>
       <use x="190.869141" xlink:href="#DejaVuSans-30"/>
      </g>
     </g>
    </g>
    <g id="ytick_20">
     <g id="line2d_97">
      <path clip-path="url(#p950986e88c)" d="M 309.49 422.189676 
L 478.8 422.189676 
" style="fill:none;stroke:#b0b0b0;stroke-linecap:square;stroke-width:0.8;"/>
     </g>
     <g id="line2d_98">
      <g>
       <use style="stroke:#000000;stroke-width:0.8;" x="309.49" xlink:href="#ma674c78775" y="422.189676"/>
      </g>
     </g>
     <g id="text_37">
      <!-- 4000 -->
      <g transform="translate(277.04 425.988894)scale(0.1 -0.1)">
       <use xlink:href="#DejaVuSans-34"/>
       <use x="63.623047" xlink:href="#DejaVuSans-30"/>
       <use x="127.246094" xlink:href="#DejaVuSans-30"/>
       <use x="190.869141" xlink:href="#DejaVuSans-30"/>
      </g>
     </g>
    </g>
    <g id="ytick_21">
     <g id="line2d_99">
      <path clip-path="url(#p950986e88c)" d="M 309.49 385.291332 
L 478.8 385.291332 
" style="fill:none;stroke:#b0b0b0;stroke-linecap:square;stroke-width:0.8;"/>
     </g>
     <g id="line2d_100">
      <g>
       <use style="stroke:#000000;stroke-width:0.8;" x="309.49" xlink:href="#ma674c78775" y="385.291332"/>
      </g>
     </g>
     <g id="text_38">
      <!-- 6000 -->
      <g transform="translate(277.04 389.090551)scale(0.1 -0.1)">
       <use xlink:href="#DejaVuSans-36"/>
       <use x="63.623047" xlink:href="#DejaVuSans-30"/>
       <use x="127.246094" xlink:href="#DejaVuSans-30"/>
       <use x="190.869141" xlink:href="#DejaVuSans-30"/>
      </g>
     </g>
    </g>
    <g id="ytick_22">
     <g id="line2d_101">
      <path clip-path="url(#p950986e88c)" d="M 309.49 348.392988 
L 478.8 348.392988 
" style="fill:none;stroke:#b0b0b0;stroke-linecap:square;stroke-width:0.8;"/>
     </g>
     <g id="line2d_102">
      <g>
       <use style="stroke:#000000;stroke-width:0.8;" x="309.49" xlink:href="#ma674c78775" y="348.392988"/>
      </g>
     </g>
     <g id="text_39">
      <!-- 8000 -->
      <g transform="translate(277.04 352.192207)scale(0.1 -0.1)">
       <use xlink:href="#DejaVuSans-38"/>
       <use x="63.623047" xlink:href="#DejaVuSans-30"/>
       <use x="127.246094" xlink:href="#DejaVuSans-30"/>
       <use x="190.869141" xlink:href="#DejaVuSans-30"/>
      </g>
     </g>
    </g>
    <g id="ytick_23">
     <g id="line2d_103">
      <path clip-path="url(#p950986e88c)" d="M 309.49 311.494644 
L 478.8 311.494644 
" style="fill:none;stroke:#b0b0b0;stroke-linecap:square;stroke-width:0.8;"/>
     </g>
     <g id="line2d_104">
      <g>
       <use style="stroke:#000000;stroke-width:0.8;" x="309.49" xlink:href="#ma674c78775" y="311.494644"/>
      </g>
     </g>
     <g id="text_40">
      <!-- 10000 -->
      <g transform="translate(270.6775 315.293863)scale(0.1 -0.1)">
       <use xlink:href="#DejaVuSans-31"/>
       <use x="63.623047" xlink:href="#DejaVuSans-30"/>
       <use x="127.246094" xlink:href="#DejaVuSans-30"/>
       <use x="190.869141" xlink:href="#DejaVuSans-30"/>
       <use x="254.492188" xlink:href="#DejaVuSans-30"/>
      </g>
     </g>
    </g>
   </g>
   <g id="line2d_105">
    <path clip-path="url(#p950986e88c)" d="M 317.185909 495.986364 
L 471.104091 495.91482 
L 471.104091 495.91482 
" style="fill:none;stroke:#1f77b4;stroke-linecap:square;stroke-opacity:0.7;stroke-width:1.5;"/>
   </g>
   <g id="line2d_106">
    <path clip-path="url(#p950986e88c)" d="M 317.185909 495.986364 
L 321.291249 495.876077 
L 325.749392 495.355001 
L 326.615362 494.973521 
L 327.449259 494.360092 
L 328.186938 493.547816 
L 328.924616 492.383581 
L 329.694367 491.254806 
L 330.399973 490.583791 
L 331.009359 490.277001 
L 332.292278 489.827288 
L 332.901664 489.161472 
L 333.639343 487.974312 
L 334.280802 487.165391 
L 334.858115 486.764257 
L 335.403356 486.647034 
L 335.916523 486.534902 
L 336.461764 486.177537 
L 337.039077 485.51444 
L 338.803091 483.183564 
L 339.348331 482.946472 
L 340.406739 482.638831 
L 340.984053 482.117095 
L 341.625512 481.211792 
L 342.587701 479.773133 
L 343.229161 479.218041 
L 343.806474 478.985716 
L 344.800736 478.719931 
L 345.345977 478.241442 
L 345.987436 477.352872 
L 347.10999 475.693164 
L 347.751449 475.181033 
L 348.29669 475.005269 
L 349.066441 474.830057 
L 349.611682 474.408014 
L 350.221068 473.622327 
L 351.664352 471.561737 
L 352.241665 471.186599 
L 352.786906 471.089518 
L 353.300073 470.941528 
L 353.813241 470.552124 
L 354.390554 469.820001 
L 355.801765 467.833559 
L 356.379078 467.454185 
L 356.924319 467.353697 
L 357.405413 467.211268 
L 357.918581 466.817871 
L 358.527967 466.049518 
L 359.971251 464.036243 
L 360.516491 463.735616 
L 361.767337 463.261667 
L 362.376723 462.562199 
L 364.140737 460.256885 
L 364.621831 460.100429 
L 365.070853 459.990331 
L 365.58402 459.59854 
L 366.193407 458.833956 
L 367.380107 457.186081 
L 368.021566 456.764484 
L 368.566807 456.659643 
L 369.047901 456.504312 
L 369.625215 456.055511 
L 370.33082 455.21025 
L 372.223125 452.686687 
L 372.928731 452.28337 
L 373.538117 452.169143 
L 374.083357 452.040334 
L 374.692744 451.639327 
L 375.462495 450.837208 
L 376.328465 449.598683 
L 377.67553 447.56754 
L 378.477354 446.845739 
L 379.311251 446.387102 
L 380.04893 446.222441 
L 380.850754 446.085726 
L 381.524286 445.697876 
L 382.326111 444.951827 
L 383.2883 443.73514 
L 384.314635 442.066376 
L 385.308897 440.508309 
L 386.20694 439.492753 
L 387.104983 438.797287 
L 388.035099 438.35533 
L 388.901069 438.184155 
L 390.023623 438.016924 
L 390.793375 437.635328 
L 391.659345 436.94455 
L 392.653607 435.849242 
L 393.776161 434.27085 
L 395.187372 431.857485 
L 396.374071 430.105671 
L 397.464552 428.872597 
L 398.52296 428.001775 
L 399.549295 427.439928 
L 400.543557 427.14801 
L 403.237687 426.594862 
L 404.264022 425.963651 
L 405.354503 425.023186 
L 406.541203 423.694917 
L 407.792049 421.955934 
L 409.10704 419.73858 
L 410.550324 417.378408 
L 411.929462 415.530963 
L 413.180308 414.219752 
L 414.367007 413.292274 
L 415.521634 412.670448 
L 416.644188 412.319783 
L 417.734669 412.21232 
L 418.82515 412.092297 
L 419.915631 411.746056 
L 421.038185 411.154899 
L 422.224885 410.275001 
L 423.507804 409.036673 
L 424.886942 407.383503 
L 426.362298 405.25672 
L 427.869728 402.690404 
L 429.537522 399.911532 
L 431.141171 397.655964 
L 432.680673 395.864174 
L 434.059811 394.585188 
L 435.278584 393.74563 
L 436.433211 393.211492 
L 437.587838 392.920281 
L 438.902829 392.838016 
L 440.025383 392.642259 
L 441.147937 392.224478 
L 442.270491 391.570108 
L 443.425118 390.633064 
L 444.547672 389.437908 
L 445.670226 388.221235 
L 446.568269 387.833414 
L 447.33802 387.735563 
L 447.883261 387.571827 
L 448.428501 387.169396 
L 449.102034 386.373754 
L 449.935931 385.020083 
L 450.930193 383.462879 
L 451.796163 382.486203 
L 452.533841 381.974874 
L 453.143228 381.802799 
L 454.105417 381.618613 
L 454.907241 381.168285 
L 455.805284 380.399964 
L 456.639182 379.384137 
L 459.044654 376.072965 
L 460.103062 375.232577 
L 461.033178 374.756073 
L 461.706711 374.647722 
L 462.284024 374.500436 
L 462.98963 374.066768 
L 463.951819 373.188695 
L 465.074373 371.856169 
L 466.164854 370.221729 
L 467.576064 368.038096 
L 468.474107 367.145324 
L 469.564588 366.376254 
L 470.783361 365.786767 
L 471.104091 365.676267 
L 471.104091 365.676267 
" style="fill:none;stroke:#d62728;stroke-linecap:square;stroke-opacity:0.7;stroke-width:1.5;"/>
   </g>
   <g id="line2d_107">
    <path clip-path="url(#p950986e88c)" d="M 317.185909 495.986364 
L 325.909757 495.876075 
L 327.224749 495.664537 
L 328.283157 495.280549 
L 329.084981 494.762161 
L 329.822659 494.017922 
L 330.624483 492.879003 
L 333.158248 488.925286 
L 334.088364 488.005043 
L 335.948596 486.692181 
L 337.71261 485.350488 
L 341.336855 482.297853 
L 342.395263 481.797182 
L 343.54989 481.522835 
L 345.698779 481.320885 
L 354.005678 480.79049 
L 369.817652 479.913752 
L 375.590787 479.2684 
L 381.331849 478.40958 
L 387.93888 477.175449 
L 394.289328 475.759698 
L 400.094536 474.257066 
L 406.220473 472.459613 
L 413.116162 470.191356 
L 419.723193 467.772436 
L 426.554736 465.016335 
L 433.354206 462.014678 
L 440.121602 458.773228 
L 447.081437 455.188766 
L 453.496031 451.649699 
L 460.61623 447.460235 
L 467.543991 443.14968 
L 471.104091 440.838849 
L 471.104091 440.838849 
" style="fill:none;stroke:#9467bd;stroke-linecap:square;stroke-opacity:0.7;stroke-width:1.5;"/>
   </g>
   <g id="line2d_108">
    <path clip-path="url(#p950986e88c)" d="M 317.185909 495.986364 
L 320.553571 495.877394 
L 322.189292 495.612868 
L 323.151481 495.230857 
L 324.113671 494.58858 
L 325.396589 493.436072 
L 326.583289 492.09041 
L 327.481332 490.721114 
L 329.245346 487.871238 
L 330.432046 486.657935 
L 332.131913 484.084851 
L 332.933737 483.599525 
L 333.478978 483.510812 
L 335.242991 483.373488 
L 337.007004 483.209841 
L 339.604915 483.157381 
L 343.229161 483.004855 
L 347.270355 482.602572 
L 359.682594 481.218557 
L 471.104091 473.035412 
L 471.104091 473.035412 
" style="fill:none;stroke:#bcbd22;stroke-linecap:square;stroke-opacity:0.7;stroke-width:1.5;"/>
   </g>
   <g id="line2d_109">
    <path clip-path="url(#p950986e88c)" d="M 317.185909 495.986364 
L 322.253438 495.879919 
L 323.2477 495.609496 
L 324.145744 495.134078 
L 325.107933 494.36137 
L 325.94183 493.414 
L 326.711581 492.16857 
L 327.545478 491.033478 
L 328.411449 490.217175 
L 329.084981 489.854344 
L 329.758513 489.762719 
L 330.335827 489.539533 
L 330.945213 489.057483 
L 331.650818 488.193868 
L 333.062029 485.939919 
L 334.954334 482.858561 
L 336.365545 480.977128 
L 338.386142 478.665302 
L 341.593439 474.934612 
L 353.652876 460.289443 
L 358.816624 453.839795 
L 471.104091 310.913636 
L 471.104091 310.913636 
" style="fill:none;stroke:#2ca02c;stroke-linecap:square;stroke-opacity:0.7;stroke-width:1.5;"/>
   </g>
   <g id="line2d_110">
    <path clip-path="url(#p950986e88c)" d="M 317.185909 495.986364 
L 322.606241 495.876496 
L 323.825014 495.604614 
L 325.396589 495.014551 
L 326.454997 494.400806 
L 327.385113 493.597252 
L 328.219011 492.576674 
L 329.213273 490.94165 
L 330.015097 489.901276 
L 330.945213 489.103765 
L 331.714964 488.66047 
L 333.094102 488.267924 
L 338.610653 486.979212 
L 343.00465 486.130317 
L 347.783522 485.478069 
L 351.888862 485.147624 
L 361.671118 484.487189 
L 471.104091 474.878363 
L 471.104091 474.878363 
" style="fill:none;stroke:#17becf;stroke-linecap:square;stroke-opacity:0.7;stroke-width:1.5;"/>
   </g>
   <g id="patch_18">
    <path d="M 309.49 505.24 
L 309.49 301.66 
" style="fill:none;stroke:#000000;stroke-linecap:square;stroke-linejoin:miter;stroke-width:0.8;"/>
   </g>
   <g id="patch_19">
    <path d="M 478.8 505.24 
L 478.8 301.66 
" style="fill:none;stroke:#000000;stroke-linecap:square;stroke-linejoin:miter;stroke-width:0.8;"/>
   </g>
   <g id="patch_20">
    <path d="M 309.49 505.24 
L 478.8 505.24 
" style="fill:none;stroke:#000000;stroke-linecap:square;stroke-linejoin:miter;stroke-width:0.8;"/>
   </g>
   <g id="patch_21">
    <path d="M 309.49 301.66 
L 478.8 301.66 
" style="fill:none;stroke:#000000;stroke-linecap:square;stroke-linejoin:miter;stroke-width:0.8;"/>
   </g>
   <g id="text_41">
    <!-- $\psi$ (rad) -->
    <g transform="translate(373.625 295.66)scale(0.12 -0.12)">
     <defs>
      <path d="M 1591 -78 
Q 891 38 616 341 
Q 278 713 425 1472 
L 819 3500 
L 1400 3500 
L 1009 1494 
Q 900 922 1119 684 
Q 1313 478 1691 434 
L 2284 3500 
L 2856 3500 
L 2263 438 
Q 2681 481 2928 688 
Q 3247 950 3353 1497 
L 3741 3500 
L 4322 3500 
L 3928 1475 
Q 3775 688 3300 344 
Q 2872 34 2163 -75 
L 1919 -1331 
L 1347 -1331 
L 1591 -78 
z
" id="DejaVuSans-Oblique-3c8" transform="scale(0.015625)"/>
      <path d="M 2631 2963 
Q 2534 3019 2420 3045 
Q 2306 3072 2169 3072 
Q 1681 3072 1420 2755 
Q 1159 2438 1159 1844 
L 1159 0 
L 581 0 
L 581 3500 
L 1159 3500 
L 1159 2956 
Q 1341 3275 1631 3429 
Q 1922 3584 2338 3584 
Q 2397 3584 2469 3576 
Q 2541 3569 2628 3553 
L 2631 2963 
z
" id="DejaVuSans-72" transform="scale(0.015625)"/>
      <path d="M 2194 1759 
Q 1497 1759 1228 1600 
Q 959 1441 959 1056 
Q 959 750 1161 570 
Q 1363 391 1709 391 
Q 2188 391 2477 730 
Q 2766 1069 2766 1631 
L 2766 1759 
L 2194 1759 
z
M 3341 1997 
L 3341 0 
L 2766 0 
L 2766 531 
Q 2569 213 2275 61 
Q 1981 -91 1556 -91 
Q 1019 -91 701 211 
Q 384 513 384 1019 
Q 384 1609 779 1909 
Q 1175 2209 1959 2209 
L 2766 2209 
L 2766 2266 
Q 2766 2663 2505 2880 
Q 2244 3097 1772 3097 
Q 1472 3097 1187 3025 
Q 903 2953 641 2809 
L 641 3341 
Q 956 3463 1253 3523 
Q 1550 3584 1831 3584 
Q 2591 3584 2966 3190 
Q 3341 2797 3341 1997 
z
" id="DejaVuSans-61" transform="scale(0.015625)"/>
      <path d="M 2906 2969 
L 2906 4863 
L 3481 4863 
L 3481 0 
L 2906 0 
L 2906 525 
Q 2725 213 2448 61 
Q 2172 -91 1784 -91 
Q 1150 -91 751 415 
Q 353 922 353 1747 
Q 353 2572 751 3078 
Q 1150 3584 1784 3584 
Q 2172 3584 2448 3432 
Q 2725 3281 2906 2969 
z
M 947 1747 
Q 947 1113 1208 752 
Q 1469 391 1925 391 
Q 2381 391 2643 752 
Q 2906 1113 2906 1747 
Q 2906 2381 2643 2742 
Q 2381 3103 1925 3103 
Q 1469 3103 1208 2742 
Q 947 2381 947 1747 
z
" id="DejaVuSans-64" transform="scale(0.015625)"/>
     </defs>
     <use transform="translate(0 0.015625)" xlink:href="#DejaVuSans-Oblique-3c8"/>
     <use transform="translate(65.966797 0.015625)" xlink:href="#DejaVuSans-20"/>
     <use transform="translate(97.753906 0.015625)" xlink:href="#DejaVuSans-28"/>
     <use transform="translate(136.767578 0.015625)" xlink:href="#DejaVuSans-72"/>
     <use transform="translate(177.880859 0.015625)" xlink:href="#DejaVuSans-61"/>
     <use transform="translate(239.160156 0.015625)" xlink:href="#DejaVuSans-64"/>
     <use transform="translate(302.636719 0.015625)" xlink:href="#DejaVuSans-29"/>
    </g>
   </g>
  </g>
  <g id="legend_1">
   <g id="patch_22">
    <path d="M 452.89375 334.229688 
L 569 334.229688 
Q 571 334.229688 571 332.229688 
L 571 243.770313 
Q 571 241.770313 569 241.770313 
L 452.89375 241.770313 
Q 450.89375 241.770313 450.89375 243.770313 
L 450.89375 332.229688 
Q 450.89375 334.229688 452.89375 334.229688 
z
" style="fill:#ffffff;opacity:0.8;stroke:#cccccc;stroke-linejoin:miter;"/>
   </g>
   <g id="line2d_111">
    <path d="M 454.89375 249.86875 
L 474.89375 249.86875 
" style="fill:none;stroke:#1f77b4;stroke-linecap:square;stroke-opacity:0.7;stroke-width:1.5;"/>
   </g>
   <g id="line2d_112"/>
   <g id="text_42">
    <!-- DSLPID -->
    <g transform="translate(482.89375 253.36875)scale(0.1 -0.1)">
     <defs>
      <path d="M 1259 4147 
L 1259 519 
L 2022 519 
Q 2988 519 3436 956 
Q 3884 1394 3884 2338 
Q 3884 3275 3436 3711 
Q 2988 4147 2022 4147 
L 1259 4147 
z
M 628 4666 
L 1925 4666 
Q 3281 4666 3915 4102 
Q 4550 3538 4550 2338 
Q 4550 1131 3912 565 
Q 3275 0 1925 0 
L 628 0 
L 628 4666 
z
" id="DejaVuSans-44" transform="scale(0.015625)"/>
      <path d="M 3425 4513 
L 3425 3897 
Q 3066 4069 2747 4153 
Q 2428 4238 2131 4238 
Q 1616 4238 1336 4038 
Q 1056 3838 1056 3469 
Q 1056 3159 1242 3001 
Q 1428 2844 1947 2747 
L 2328 2669 
Q 3034 2534 3370 2195 
Q 3706 1856 3706 1288 
Q 3706 609 3251 259 
Q 2797 -91 1919 -91 
Q 1588 -91 1214 -16 
Q 841 59 441 206 
L 441 856 
Q 825 641 1194 531 
Q 1563 422 1919 422 
Q 2459 422 2753 634 
Q 3047 847 3047 1241 
Q 3047 1584 2836 1778 
Q 2625 1972 2144 2069 
L 1759 2144 
Q 1053 2284 737 2584 
Q 422 2884 422 3419 
Q 422 4038 858 4394 
Q 1294 4750 2059 4750 
Q 2388 4750 2728 4690 
Q 3069 4631 3425 4513 
z
" id="DejaVuSans-53" transform="scale(0.015625)"/>
      <path d="M 628 4666 
L 1259 4666 
L 1259 531 
L 3531 531 
L 3531 0 
L 628 0 
L 628 4666 
z
" id="DejaVuSans-4c" transform="scale(0.015625)"/>
      <path d="M 1259 4147 
L 1259 2394 
L 2053 2394 
Q 2494 2394 2734 2622 
Q 2975 2850 2975 3272 
Q 2975 3691 2734 3919 
Q 2494 4147 2053 4147 
L 1259 4147 
z
M 628 4666 
L 2053 4666 
Q 2838 4666 3239 4311 
Q 3641 3956 3641 3272 
Q 3641 2581 3239 2228 
Q 2838 1875 2053 1875 
L 1259 1875 
L 1259 0 
L 628 0 
L 628 4666 
z
" id="DejaVuSans-50" transform="scale(0.015625)"/>
      <path d="M 628 4666 
L 1259 4666 
L 1259 0 
L 628 0 
L 628 4666 
z
" id="DejaVuSans-49" transform="scale(0.015625)"/>
     </defs>
     <use xlink:href="#DejaVuSans-44"/>
     <use x="77.001953" xlink:href="#DejaVuSans-53"/>
     <use x="140.478516" xlink:href="#DejaVuSans-4c"/>
     <use x="196.191406" xlink:href="#DejaVuSans-50"/>
     <use x="256.494141" xlink:href="#DejaVuSans-49"/>
     <use x="285.986328" xlink:href="#DejaVuSans-44"/>
    </g>
   </g>
   <g id="line2d_113">
    <path d="M 454.89375 264.546875 
L 474.89375 264.546875 
" style="fill:none;stroke:#d62728;stroke-linecap:square;stroke-opacity:0.7;stroke-width:1.5;"/>
   </g>
   <g id="line2d_114"/>
   <g id="text_43">
    <!-- ANN_feedback_1 -->
    <g transform="translate(482.89375 268.046875)scale(0.1 -0.1)">
     <defs>
      <path d="M 2188 4044 
L 1331 1722 
L 3047 1722 
L 2188 4044 
z
M 1831 4666 
L 2547 4666 
L 4325 0 
L 3669 0 
L 3244 1197 
L 1141 1197 
L 716 0 
L 50 0 
L 1831 4666 
z
" id="DejaVuSans-41" transform="scale(0.015625)"/>
      <path d="M 628 4666 
L 1478 4666 
L 3547 763 
L 3547 4666 
L 4159 4666 
L 4159 0 
L 3309 0 
L 1241 3903 
L 1241 0 
L 628 0 
L 628 4666 
z
" id="DejaVuSans-4e" transform="scale(0.015625)"/>
      <path d="M 3263 -1063 
L 3263 -1509 
L -63 -1509 
L -63 -1063 
L 3263 -1063 
z
" id="DejaVuSans-5f" transform="scale(0.015625)"/>
      <path d="M 2375 4863 
L 2375 4384 
L 1825 4384 
Q 1516 4384 1395 4259 
Q 1275 4134 1275 3809 
L 1275 3500 
L 2222 3500 
L 2222 3053 
L 1275 3053 
L 1275 0 
L 697 0 
L 697 3053 
L 147 3053 
L 147 3500 
L 697 3500 
L 697 3744 
Q 697 4328 969 4595 
Q 1241 4863 1831 4863 
L 2375 4863 
z
" id="DejaVuSans-66" transform="scale(0.015625)"/>
      <path d="M 3116 1747 
Q 3116 2381 2855 2742 
Q 2594 3103 2138 3103 
Q 1681 3103 1420 2742 
Q 1159 2381 1159 1747 
Q 1159 1113 1420 752 
Q 1681 391 2138 391 
Q 2594 391 2855 752 
Q 3116 1113 3116 1747 
z
M 1159 2969 
Q 1341 3281 1617 3432 
Q 1894 3584 2278 3584 
Q 2916 3584 3314 3078 
Q 3713 2572 3713 1747 
Q 3713 922 3314 415 
Q 2916 -91 2278 -91 
Q 1894 -91 1617 61 
Q 1341 213 1159 525 
L 1159 0 
L 581 0 
L 581 4863 
L 1159 4863 
L 1159 2969 
z
" id="DejaVuSans-62" transform="scale(0.015625)"/>
      <path d="M 3122 3366 
L 3122 2828 
Q 2878 2963 2633 3030 
Q 2388 3097 2138 3097 
Q 1578 3097 1268 2742 
Q 959 2388 959 1747 
Q 959 1106 1268 751 
Q 1578 397 2138 397 
Q 2388 397 2633 464 
Q 2878 531 3122 666 
L 3122 134 
Q 2881 22 2623 -34 
Q 2366 -91 2075 -91 
Q 1284 -91 818 406 
Q 353 903 353 1747 
Q 353 2603 823 3093 
Q 1294 3584 2113 3584 
Q 2378 3584 2631 3529 
Q 2884 3475 3122 3366 
z
" id="DejaVuSans-63" transform="scale(0.015625)"/>
      <path d="M 581 4863 
L 1159 4863 
L 1159 1991 
L 2875 3500 
L 3609 3500 
L 1753 1863 
L 3688 0 
L 2938 0 
L 1159 1709 
L 1159 0 
L 581 0 
L 581 4863 
z
" id="DejaVuSans-6b" transform="scale(0.015625)"/>
     </defs>
     <use xlink:href="#DejaVuSans-41"/>
     <use x="68.408203" xlink:href="#DejaVuSans-4e"/>
     <use x="143.212891" xlink:href="#DejaVuSans-4e"/>
     <use x="218.017578" xlink:href="#DejaVuSans-5f"/>
     <use x="268.017578" xlink:href="#DejaVuSans-66"/>
     <use x="303.222656" xlink:href="#DejaVuSans-65"/>
     <use x="364.746094" xlink:href="#DejaVuSans-65"/>
     <use x="426.269531" xlink:href="#DejaVuSans-64"/>
     <use x="489.746094" xlink:href="#DejaVuSans-62"/>
     <use x="553.222656" xlink:href="#DejaVuSans-61"/>
     <use x="614.501953" xlink:href="#DejaVuSans-63"/>
     <use x="669.482422" xlink:href="#DejaVuSans-6b"/>
     <use x="727.392578" xlink:href="#DejaVuSans-5f"/>
     <use x="777.392578" xlink:href="#DejaVuSans-31"/>
    </g>
   </g>
   <g id="line2d_115">
    <path d="M 454.89375 279.503125 
L 474.89375 279.503125 
" style="fill:none;stroke:#9467bd;stroke-linecap:square;stroke-opacity:0.7;stroke-width:1.5;"/>
   </g>
   <g id="line2d_116"/>
   <g id="text_44">
    <!-- ANN_feedback_2 -->
    <g transform="translate(482.89375 283.003125)scale(0.1 -0.1)">
     <use xlink:href="#DejaVuSans-41"/>
     <use x="68.408203" xlink:href="#DejaVuSans-4e"/>
     <use x="143.212891" xlink:href="#DejaVuSans-4e"/>
     <use x="218.017578" xlink:href="#DejaVuSans-5f"/>
     <use x="268.017578" xlink:href="#DejaVuSans-66"/>
     <use x="303.222656" xlink:href="#DejaVuSans-65"/>
     <use x="364.746094" xlink:href="#DejaVuSans-65"/>
     <use x="426.269531" xlink:href="#DejaVuSans-64"/>
     <use x="489.746094" xlink:href="#DejaVuSans-62"/>
     <use x="553.222656" xlink:href="#DejaVuSans-61"/>
     <use x="614.501953" xlink:href="#DejaVuSans-63"/>
     <use x="669.482422" xlink:href="#DejaVuSans-6b"/>
     <use x="727.392578" xlink:href="#DejaVuSans-5f"/>
     <use x="777.392578" xlink:href="#DejaVuSans-32"/>
    </g>
   </g>
   <g id="line2d_117">
    <path d="M 454.89375 294.459375 
L 474.89375 294.459375 
" style="fill:none;stroke:#bcbd22;stroke-linecap:square;stroke-opacity:0.7;stroke-width:1.5;"/>
   </g>
   <g id="line2d_118"/>
   <g id="text_45">
    <!-- ANN_feedback_3 -->
    <g transform="translate(482.89375 297.959375)scale(0.1 -0.1)">
     <use xlink:href="#DejaVuSans-41"/>
     <use x="68.408203" xlink:href="#DejaVuSans-4e"/>
     <use x="143.212891" xlink:href="#DejaVuSans-4e"/>
     <use x="218.017578" xlink:href="#DejaVuSans-5f"/>
     <use x="268.017578" xlink:href="#DejaVuSans-66"/>
     <use x="303.222656" xlink:href="#DejaVuSans-65"/>
     <use x="364.746094" xlink:href="#DejaVuSans-65"/>
     <use x="426.269531" xlink:href="#DejaVuSans-64"/>
     <use x="489.746094" xlink:href="#DejaVuSans-62"/>
     <use x="553.222656" xlink:href="#DejaVuSans-61"/>
     <use x="614.501953" xlink:href="#DejaVuSans-63"/>
     <use x="669.482422" xlink:href="#DejaVuSans-6b"/>
     <use x="727.392578" xlink:href="#DejaVuSans-5f"/>
     <use x="777.392578" xlink:href="#DejaVuSans-33"/>
    </g>
   </g>
   <g id="line2d_119">
    <path d="M 454.89375 309.415625 
L 474.89375 309.415625 
" style="fill:none;stroke:#2ca02c;stroke-linecap:square;stroke-opacity:0.7;stroke-width:1.5;"/>
   </g>
   <g id="line2d_120"/>
   <g id="text_46">
    <!-- ANN_feedback_4 -->
    <g transform="translate(482.89375 312.915625)scale(0.1 -0.1)">
     <use xlink:href="#DejaVuSans-41"/>
     <use x="68.408203" xlink:href="#DejaVuSans-4e"/>
     <use x="143.212891" xlink:href="#DejaVuSans-4e"/>
     <use x="218.017578" xlink:href="#DejaVuSans-5f"/>
     <use x="268.017578" xlink:href="#DejaVuSans-66"/>
     <use x="303.222656" xlink:href="#DejaVuSans-65"/>
     <use x="364.746094" xlink:href="#DejaVuSans-65"/>
     <use x="426.269531" xlink:href="#DejaVuSans-64"/>
     <use x="489.746094" xlink:href="#DejaVuSans-62"/>
     <use x="553.222656" xlink:href="#DejaVuSans-61"/>
     <use x="614.501953" xlink:href="#DejaVuSans-63"/>
     <use x="669.482422" xlink:href="#DejaVuSans-6b"/>
     <use x="727.392578" xlink:href="#DejaVuSans-5f"/>
     <use x="777.392578" xlink:href="#DejaVuSans-34"/>
    </g>
   </g>
   <g id="line2d_121">
    <path d="M 454.89375 324.371875 
L 474.89375 324.371875 
" style="fill:none;stroke:#17becf;stroke-linecap:square;stroke-opacity:0.7;stroke-width:1.5;"/>
   </g>
   <g id="line2d_122"/>
   <g id="text_47">
    <!-- ANN_feedback_5 -->
    <g transform="translate(482.89375 327.871875)scale(0.1 -0.1)">
     <use xlink:href="#DejaVuSans-41"/>
     <use x="68.408203" xlink:href="#DejaVuSans-4e"/>
     <use x="143.212891" xlink:href="#DejaVuSans-4e"/>
     <use x="218.017578" xlink:href="#DejaVuSans-5f"/>
     <use x="268.017578" xlink:href="#DejaVuSans-66"/>
     <use x="303.222656" xlink:href="#DejaVuSans-65"/>
     <use x="364.746094" xlink:href="#DejaVuSans-65"/>
     <use x="426.269531" xlink:href="#DejaVuSans-64"/>
     <use x="489.746094" xlink:href="#DejaVuSans-62"/>
     <use x="553.222656" xlink:href="#DejaVuSans-61"/>
     <use x="614.501953" xlink:href="#DejaVuSans-63"/>
     <use x="669.482422" xlink:href="#DejaVuSans-6b"/>
     <use x="727.392578" xlink:href="#DejaVuSans-5f"/>
     <use x="777.392578" xlink:href="#DejaVuSans-35"/>
    </g>
   </g>
  </g>
 </g>
 <defs>
  <clipPath id="pc13099ab38">
   <rect height="203.58" width="169.31" x="84.49" y="55.68"/>
  </clipPath>
  <clipPath id="p50605e6885">
   <rect height="203.58" width="169.31" x="309.49" y="55.68"/>
  </clipPath>
  <clipPath id="p1e099e12f5">
   <rect height="203.58" width="169.31" x="84.49" y="301.66"/>
  </clipPath>
  <clipPath id="p950986e88c">
   <rect height="203.58" width="169.31" x="309.49" y="301.66"/>
  </clipPath>
 </defs>
</svg>
