<?xml version="1.0" encoding="utf-8" standalone="no"?>
<!DOCTYPE svg PUBLIC "-//W3C//DTD SVG 1.1//EN"
  "http://www.w3.org/Graphics/SVG/1.1/DTD/svg11.dtd">
<svg height="576pt" version="1.1" viewBox="0 0 576 576" width="576pt" xmlns="http://www.w3.org/2000/svg" xmlns:xlink="http://www.w3.org/1999/xlink">
 <metadata>
  <rdf:RDF xmlns:cc="http://creativecommons.org/ns#" xmlns:dc="http://purl.org/dc/elements/1.1/" xmlns:rdf="http://www.w3.org/1999/02/22-rdf-syntax-ns#">
   <cc:Work>
    <dc:type rdf:resource="http://purl.org/dc/dcmitype/StillImage"/>
    <dc:date>2022-02-28T12:46:10.470825</dc:date>
    <dc:format>image/svg+xml</dc:format>
    <dc:creator>
     <cc:Agent>
      <dc:title>Matplotlib v3.4.3, https://matplotlib.org/</dc:title>
     </cc:Agent>
    </dc:creator>
   </cc:Work>
  </rdf:RDF>
 </metadata>
 <defs>
  <style type="text/css">*{stroke-linecap:butt;stroke-linejoin:round;}</style>
 </defs>
 <g id="figure_1">
  <g id="patch_1">
   <path d="M 0 576 
L 576 576 
L 576 0 
L 0 0 
z
" style="fill:#ffffff;"/>
  </g>
  <g id="axes_1">
   <g id="patch_2">
    <path d="M 89.12 251.44 
L 248.175 251.44 
L 248.175 39.6 
L 89.12 39.6 
z
" style="fill:#ffffff;"/>
   </g>
   <g id="matplotlib.axis_1">
    <g id="xtick_1">
     <g id="line2d_1">
      <path clip-path="url(#pad6580bb2e)" d="M 96.349773 251.44 
L 96.349773 39.6 
" style="fill:none;stroke:#b0b0b0;stroke-linecap:square;stroke-width:0.8;"/>
     </g>
     <g id="line2d_2">
      <defs>
       <path d="M 0 0 
L 0 3.5 
" id="mdd8188d5ca" style="stroke:#000000;stroke-width:0.8;"/>
      </defs>
      <g>
       <use style="stroke:#000000;stroke-width:0.8;" x="96.349773" xlink:href="#mdd8188d5ca" y="251.44"/>
      </g>
     </g>
     <g id="text_1">
      <!-- 0 -->
      <g transform="translate(93.168523 266.038438)scale(0.1 -0.1)">
       <defs>
        <path d="M 2034 4250 
Q 1547 4250 1301 3770 
Q 1056 3291 1056 2328 
Q 1056 1369 1301 889 
Q 1547 409 2034 409 
Q 2525 409 2770 889 
Q 3016 1369 3016 2328 
Q 3016 3291 2770 3770 
Q 2525 4250 2034 4250 
z
M 2034 4750 
Q 2819 4750 3233 4129 
Q 3647 3509 3647 2328 
Q 3647 1150 3233 529 
Q 2819 -91 2034 -91 
Q 1250 -91 836 529 
Q 422 1150 422 2328 
Q 422 3509 836 4129 
Q 1250 4750 2034 4750 
z
" id="DejaVuSans-30" transform="scale(0.015625)"/>
       </defs>
       <use xlink:href="#DejaVuSans-30"/>
      </g>
     </g>
    </g>
    <g id="xtick_2">
     <g id="line2d_3">
      <path clip-path="url(#pad6580bb2e)" d="M 144.554953 251.44 
L 144.554953 39.6 
" style="fill:none;stroke:#b0b0b0;stroke-linecap:square;stroke-width:0.8;"/>
     </g>
     <g id="line2d_4">
      <g>
       <use style="stroke:#000000;stroke-width:0.8;" x="144.554953" xlink:href="#mdd8188d5ca" y="251.44"/>
      </g>
     </g>
     <g id="text_2">
      <!-- 10 -->
      <g transform="translate(138.192453 266.038438)scale(0.1 -0.1)">
       <defs>
        <path d="M 794 531 
L 1825 531 
L 1825 4091 
L 703 3866 
L 703 4441 
L 1819 4666 
L 2450 4666 
L 2450 531 
L 3481 531 
L 3481 0 
L 794 0 
L 794 531 
z
" id="DejaVuSans-31" transform="scale(0.015625)"/>
       </defs>
       <use xlink:href="#DejaVuSans-31"/>
       <use x="63.623047" xlink:href="#DejaVuSans-30"/>
      </g>
     </g>
    </g>
    <g id="xtick_3">
     <g id="line2d_5">
      <path clip-path="url(#pad6580bb2e)" d="M 192.760133 251.44 
L 192.760133 39.6 
" style="fill:none;stroke:#b0b0b0;stroke-linecap:square;stroke-width:0.8;"/>
     </g>
     <g id="line2d_6">
      <g>
       <use style="stroke:#000000;stroke-width:0.8;" x="192.760133" xlink:href="#mdd8188d5ca" y="251.44"/>
      </g>
     </g>
     <g id="text_3">
      <!-- 20 -->
      <g transform="translate(186.397633 266.038438)scale(0.1 -0.1)">
       <defs>
        <path d="M 1228 531 
L 3431 531 
L 3431 0 
L 469 0 
L 469 531 
Q 828 903 1448 1529 
Q 2069 2156 2228 2338 
Q 2531 2678 2651 2914 
Q 2772 3150 2772 3378 
Q 2772 3750 2511 3984 
Q 2250 4219 1831 4219 
Q 1534 4219 1204 4116 
Q 875 4013 500 3803 
L 500 4441 
Q 881 4594 1212 4672 
Q 1544 4750 1819 4750 
Q 2544 4750 2975 4387 
Q 3406 4025 3406 3419 
Q 3406 3131 3298 2873 
Q 3191 2616 2906 2266 
Q 2828 2175 2409 1742 
Q 1991 1309 1228 531 
z
" id="DejaVuSans-32" transform="scale(0.015625)"/>
       </defs>
       <use xlink:href="#DejaVuSans-32"/>
       <use x="63.623047" xlink:href="#DejaVuSans-30"/>
      </g>
     </g>
    </g>
    <g id="xtick_4">
     <g id="line2d_7">
      <path clip-path="url(#pad6580bb2e)" d="M 240.965313 251.44 
L 240.965313 39.6 
" style="fill:none;stroke:#b0b0b0;stroke-linecap:square;stroke-width:0.8;"/>
     </g>
     <g id="line2d_8">
      <g>
       <use style="stroke:#000000;stroke-width:0.8;" x="240.965313" xlink:href="#mdd8188d5ca" y="251.44"/>
      </g>
     </g>
     <g id="text_4">
      <!-- 30 -->
      <g transform="translate(234.602813 266.038438)scale(0.1 -0.1)">
       <defs>
        <path d="M 2597 2516 
Q 3050 2419 3304 2112 
Q 3559 1806 3559 1356 
Q 3559 666 3084 287 
Q 2609 -91 1734 -91 
Q 1441 -91 1130 -33 
Q 819 25 488 141 
L 488 750 
Q 750 597 1062 519 
Q 1375 441 1716 441 
Q 2309 441 2620 675 
Q 2931 909 2931 1356 
Q 2931 1769 2642 2001 
Q 2353 2234 1838 2234 
L 1294 2234 
L 1294 2753 
L 1863 2753 
Q 2328 2753 2575 2939 
Q 2822 3125 2822 3475 
Q 2822 3834 2567 4026 
Q 2313 4219 1838 4219 
Q 1578 4219 1281 4162 
Q 984 4106 628 3988 
L 628 4550 
Q 988 4650 1302 4700 
Q 1616 4750 1894 4750 
Q 2613 4750 3031 4423 
Q 3450 4097 3450 3541 
Q 3450 3153 3228 2886 
Q 3006 2619 2597 2516 
z
" id="DejaVuSans-33" transform="scale(0.015625)"/>
       </defs>
       <use xlink:href="#DejaVuSans-33"/>
       <use x="63.623047" xlink:href="#DejaVuSans-30"/>
      </g>
     </g>
    </g>
    <g id="text_5">
     <!-- Tiempo (s) -->
     <g transform="translate(142.085 279.716563)scale(0.1 -0.1)">
      <defs>
       <path d="M -19 4666 
L 3928 4666 
L 3928 4134 
L 2272 4134 
L 2272 0 
L 1638 0 
L 1638 4134 
L -19 4134 
L -19 4666 
z
" id="DejaVuSans-54" transform="scale(0.015625)"/>
       <path d="M 603 3500 
L 1178 3500 
L 1178 0 
L 603 0 
L 603 3500 
z
M 603 4863 
L 1178 4863 
L 1178 4134 
L 603 4134 
L 603 4863 
z
" id="DejaVuSans-69" transform="scale(0.015625)"/>
       <path d="M 3597 1894 
L 3597 1613 
L 953 1613 
Q 991 1019 1311 708 
Q 1631 397 2203 397 
Q 2534 397 2845 478 
Q 3156 559 3463 722 
L 3463 178 
Q 3153 47 2828 -22 
Q 2503 -91 2169 -91 
Q 1331 -91 842 396 
Q 353 884 353 1716 
Q 353 2575 817 3079 
Q 1281 3584 2069 3584 
Q 2775 3584 3186 3129 
Q 3597 2675 3597 1894 
z
M 3022 2063 
Q 3016 2534 2758 2815 
Q 2500 3097 2075 3097 
Q 1594 3097 1305 2825 
Q 1016 2553 972 2059 
L 3022 2063 
z
" id="DejaVuSans-65" transform="scale(0.015625)"/>
       <path d="M 3328 2828 
Q 3544 3216 3844 3400 
Q 4144 3584 4550 3584 
Q 5097 3584 5394 3201 
Q 5691 2819 5691 2113 
L 5691 0 
L 5113 0 
L 5113 2094 
Q 5113 2597 4934 2840 
Q 4756 3084 4391 3084 
Q 3944 3084 3684 2787 
Q 3425 2491 3425 1978 
L 3425 0 
L 2847 0 
L 2847 2094 
Q 2847 2600 2669 2842 
Q 2491 3084 2119 3084 
Q 1678 3084 1418 2786 
Q 1159 2488 1159 1978 
L 1159 0 
L 581 0 
L 581 3500 
L 1159 3500 
L 1159 2956 
Q 1356 3278 1631 3431 
Q 1906 3584 2284 3584 
Q 2666 3584 2933 3390 
Q 3200 3197 3328 2828 
z
" id="DejaVuSans-6d" transform="scale(0.015625)"/>
       <path d="M 1159 525 
L 1159 -1331 
L 581 -1331 
L 581 3500 
L 1159 3500 
L 1159 2969 
Q 1341 3281 1617 3432 
Q 1894 3584 2278 3584 
Q 2916 3584 3314 3078 
Q 3713 2572 3713 1747 
Q 3713 922 3314 415 
Q 2916 -91 2278 -91 
Q 1894 -91 1617 61 
Q 1341 213 1159 525 
z
M 3116 1747 
Q 3116 2381 2855 2742 
Q 2594 3103 2138 3103 
Q 1681 3103 1420 2742 
Q 1159 2381 1159 1747 
Q 1159 1113 1420 752 
Q 1681 391 2138 391 
Q 2594 391 2855 752 
Q 3116 1113 3116 1747 
z
" id="DejaVuSans-70" transform="scale(0.015625)"/>
       <path d="M 1959 3097 
Q 1497 3097 1228 2736 
Q 959 2375 959 1747 
Q 959 1119 1226 758 
Q 1494 397 1959 397 
Q 2419 397 2687 759 
Q 2956 1122 2956 1747 
Q 2956 2369 2687 2733 
Q 2419 3097 1959 3097 
z
M 1959 3584 
Q 2709 3584 3137 3096 
Q 3566 2609 3566 1747 
Q 3566 888 3137 398 
Q 2709 -91 1959 -91 
Q 1206 -91 779 398 
Q 353 888 353 1747 
Q 353 2609 779 3096 
Q 1206 3584 1959 3584 
z
" id="DejaVuSans-6f" transform="scale(0.015625)"/>
       <path id="DejaVuSans-20" transform="scale(0.015625)"/>
       <path d="M 1984 4856 
Q 1566 4138 1362 3434 
Q 1159 2731 1159 2009 
Q 1159 1288 1364 580 
Q 1569 -128 1984 -844 
L 1484 -844 
Q 1016 -109 783 600 
Q 550 1309 550 2009 
Q 550 2706 781 3412 
Q 1013 4119 1484 4856 
L 1984 4856 
z
" id="DejaVuSans-28" transform="scale(0.015625)"/>
       <path d="M 2834 3397 
L 2834 2853 
Q 2591 2978 2328 3040 
Q 2066 3103 1784 3103 
Q 1356 3103 1142 2972 
Q 928 2841 928 2578 
Q 928 2378 1081 2264 
Q 1234 2150 1697 2047 
L 1894 2003 
Q 2506 1872 2764 1633 
Q 3022 1394 3022 966 
Q 3022 478 2636 193 
Q 2250 -91 1575 -91 
Q 1294 -91 989 -36 
Q 684 19 347 128 
L 347 722 
Q 666 556 975 473 
Q 1284 391 1588 391 
Q 1994 391 2212 530 
Q 2431 669 2431 922 
Q 2431 1156 2273 1281 
Q 2116 1406 1581 1522 
L 1381 1569 
Q 847 1681 609 1914 
Q 372 2147 372 2553 
Q 372 3047 722 3315 
Q 1072 3584 1716 3584 
Q 2034 3584 2315 3537 
Q 2597 3491 2834 3397 
z
" id="DejaVuSans-73" transform="scale(0.015625)"/>
       <path d="M 513 4856 
L 1013 4856 
Q 1481 4119 1714 3412 
Q 1947 2706 1947 2009 
Q 1947 1309 1714 600 
Q 1481 -109 1013 -844 
L 513 -844 
Q 928 -128 1133 580 
Q 1338 1288 1338 2009 
Q 1338 2731 1133 3434 
Q 928 4138 513 4856 
z
" id="DejaVuSans-29" transform="scale(0.015625)"/>
      </defs>
      <use xlink:href="#DejaVuSans-54"/>
      <use x="57.958984" xlink:href="#DejaVuSans-69"/>
      <use x="85.742188" xlink:href="#DejaVuSans-65"/>
      <use x="147.265625" xlink:href="#DejaVuSans-6d"/>
      <use x="244.677734" xlink:href="#DejaVuSans-70"/>
      <use x="308.154297" xlink:href="#DejaVuSans-6f"/>
      <use x="369.335938" xlink:href="#DejaVuSans-20"/>
      <use x="401.123047" xlink:href="#DejaVuSans-28"/>
      <use x="440.136719" xlink:href="#DejaVuSans-73"/>
      <use x="492.236328" xlink:href="#DejaVuSans-29"/>
     </g>
    </g>
   </g>
   <g id="matplotlib.axis_2">
    <g id="ytick_1">
     <g id="line2d_9">
      <path clip-path="url(#pad6580bb2e)" d="M 89.12 241.810909 
L 248.175 241.810909 
" style="fill:none;stroke:#b0b0b0;stroke-linecap:square;stroke-width:0.8;"/>
     </g>
     <g id="line2d_10">
      <defs>
       <path d="M 0 0 
L -3.5 0 
" id="me7b447ac0a" style="stroke:#000000;stroke-width:0.8;"/>
      </defs>
      <g>
       <use style="stroke:#000000;stroke-width:0.8;" x="89.12" xlink:href="#me7b447ac0a" y="241.810909"/>
      </g>
     </g>
     <g id="text_6">
      <!-- 0.000 -->
      <g transform="translate(53.491875 245.610128)scale(0.1 -0.1)">
       <defs>
        <path d="M 684 794 
L 1344 794 
L 1344 0 
L 684 0 
L 684 794 
z
" id="DejaVuSans-2e" transform="scale(0.015625)"/>
       </defs>
       <use xlink:href="#DejaVuSans-30"/>
       <use x="63.623047" xlink:href="#DejaVuSans-2e"/>
       <use x="95.410156" xlink:href="#DejaVuSans-30"/>
       <use x="159.033203" xlink:href="#DejaVuSans-30"/>
       <use x="222.65625" xlink:href="#DejaVuSans-30"/>
      </g>
     </g>
    </g>
    <g id="ytick_2">
     <g id="line2d_11">
      <path clip-path="url(#pad6580bb2e)" d="M 89.12 215.726876 
L 248.175 215.726876 
" style="fill:none;stroke:#b0b0b0;stroke-linecap:square;stroke-width:0.8;"/>
     </g>
     <g id="line2d_12">
      <g>
       <use style="stroke:#000000;stroke-width:0.8;" x="89.12" xlink:href="#me7b447ac0a" y="215.726876"/>
      </g>
     </g>
     <g id="text_7">
      <!-- 0.001 -->
      <g transform="translate(53.491875 219.526094)scale(0.1 -0.1)">
       <use xlink:href="#DejaVuSans-30"/>
       <use x="63.623047" xlink:href="#DejaVuSans-2e"/>
       <use x="95.410156" xlink:href="#DejaVuSans-30"/>
       <use x="159.033203" xlink:href="#DejaVuSans-30"/>
       <use x="222.65625" xlink:href="#DejaVuSans-31"/>
      </g>
     </g>
    </g>
    <g id="ytick_3">
     <g id="line2d_13">
      <path clip-path="url(#pad6580bb2e)" d="M 89.12 189.642842 
L 248.175 189.642842 
" style="fill:none;stroke:#b0b0b0;stroke-linecap:square;stroke-width:0.8;"/>
     </g>
     <g id="line2d_14">
      <g>
       <use style="stroke:#000000;stroke-width:0.8;" x="89.12" xlink:href="#me7b447ac0a" y="189.642842"/>
      </g>
     </g>
     <g id="text_8">
      <!-- 0.002 -->
      <g transform="translate(53.491875 193.442061)scale(0.1 -0.1)">
       <use xlink:href="#DejaVuSans-30"/>
       <use x="63.623047" xlink:href="#DejaVuSans-2e"/>
       <use x="95.410156" xlink:href="#DejaVuSans-30"/>
       <use x="159.033203" xlink:href="#DejaVuSans-30"/>
       <use x="222.65625" xlink:href="#DejaVuSans-32"/>
      </g>
     </g>
    </g>
    <g id="ytick_4">
     <g id="line2d_15">
      <path clip-path="url(#pad6580bb2e)" d="M 89.12 163.558809 
L 248.175 163.558809 
" style="fill:none;stroke:#b0b0b0;stroke-linecap:square;stroke-width:0.8;"/>
     </g>
     <g id="line2d_16">
      <g>
       <use style="stroke:#000000;stroke-width:0.8;" x="89.12" xlink:href="#me7b447ac0a" y="163.558809"/>
      </g>
     </g>
     <g id="text_9">
      <!-- 0.003 -->
      <g transform="translate(53.491875 167.358027)scale(0.1 -0.1)">
       <use xlink:href="#DejaVuSans-30"/>
       <use x="63.623047" xlink:href="#DejaVuSans-2e"/>
       <use x="95.410156" xlink:href="#DejaVuSans-30"/>
       <use x="159.033203" xlink:href="#DejaVuSans-30"/>
       <use x="222.65625" xlink:href="#DejaVuSans-33"/>
      </g>
     </g>
    </g>
    <g id="ytick_5">
     <g id="line2d_17">
      <path clip-path="url(#pad6580bb2e)" d="M 89.12 137.474775 
L 248.175 137.474775 
" style="fill:none;stroke:#b0b0b0;stroke-linecap:square;stroke-width:0.8;"/>
     </g>
     <g id="line2d_18">
      <g>
       <use style="stroke:#000000;stroke-width:0.8;" x="89.12" xlink:href="#me7b447ac0a" y="137.474775"/>
      </g>
     </g>
     <g id="text_10">
      <!-- 0.004 -->
      <g transform="translate(53.491875 141.273994)scale(0.1 -0.1)">
       <defs>
        <path d="M 2419 4116 
L 825 1625 
L 2419 1625 
L 2419 4116 
z
M 2253 4666 
L 3047 4666 
L 3047 1625 
L 3713 1625 
L 3713 1100 
L 3047 1100 
L 3047 0 
L 2419 0 
L 2419 1100 
L 313 1100 
L 313 1709 
L 2253 4666 
z
" id="DejaVuSans-34" transform="scale(0.015625)"/>
       </defs>
       <use xlink:href="#DejaVuSans-30"/>
       <use x="63.623047" xlink:href="#DejaVuSans-2e"/>
       <use x="95.410156" xlink:href="#DejaVuSans-30"/>
       <use x="159.033203" xlink:href="#DejaVuSans-30"/>
       <use x="222.65625" xlink:href="#DejaVuSans-34"/>
      </g>
     </g>
    </g>
    <g id="ytick_6">
     <g id="line2d_19">
      <path clip-path="url(#pad6580bb2e)" d="M 89.12 111.390741 
L 248.175 111.390741 
" style="fill:none;stroke:#b0b0b0;stroke-linecap:square;stroke-width:0.8;"/>
     </g>
     <g id="line2d_20">
      <g>
       <use style="stroke:#000000;stroke-width:0.8;" x="89.12" xlink:href="#me7b447ac0a" y="111.390741"/>
      </g>
     </g>
     <g id="text_11">
      <!-- 0.005 -->
      <g transform="translate(53.491875 115.18996)scale(0.1 -0.1)">
       <defs>
        <path d="M 691 4666 
L 3169 4666 
L 3169 4134 
L 1269 4134 
L 1269 2991 
Q 1406 3038 1543 3061 
Q 1681 3084 1819 3084 
Q 2600 3084 3056 2656 
Q 3513 2228 3513 1497 
Q 3513 744 3044 326 
Q 2575 -91 1722 -91 
Q 1428 -91 1123 -41 
Q 819 9 494 109 
L 494 744 
Q 775 591 1075 516 
Q 1375 441 1709 441 
Q 2250 441 2565 725 
Q 2881 1009 2881 1497 
Q 2881 1984 2565 2268 
Q 2250 2553 1709 2553 
Q 1456 2553 1204 2497 
Q 953 2441 691 2322 
L 691 4666 
z
" id="DejaVuSans-35" transform="scale(0.015625)"/>
       </defs>
       <use xlink:href="#DejaVuSans-30"/>
       <use x="63.623047" xlink:href="#DejaVuSans-2e"/>
       <use x="95.410156" xlink:href="#DejaVuSans-30"/>
       <use x="159.033203" xlink:href="#DejaVuSans-30"/>
       <use x="222.65625" xlink:href="#DejaVuSans-35"/>
      </g>
     </g>
    </g>
    <g id="ytick_7">
     <g id="line2d_21">
      <path clip-path="url(#pad6580bb2e)" d="M 89.12 85.306708 
L 248.175 85.306708 
" style="fill:none;stroke:#b0b0b0;stroke-linecap:square;stroke-width:0.8;"/>
     </g>
     <g id="line2d_22">
      <g>
       <use style="stroke:#000000;stroke-width:0.8;" x="89.12" xlink:href="#me7b447ac0a" y="85.306708"/>
      </g>
     </g>
     <g id="text_12">
      <!-- 0.006 -->
      <g transform="translate(53.491875 89.105927)scale(0.1 -0.1)">
       <defs>
        <path d="M 2113 2584 
Q 1688 2584 1439 2293 
Q 1191 2003 1191 1497 
Q 1191 994 1439 701 
Q 1688 409 2113 409 
Q 2538 409 2786 701 
Q 3034 994 3034 1497 
Q 3034 2003 2786 2293 
Q 2538 2584 2113 2584 
z
M 3366 4563 
L 3366 3988 
Q 3128 4100 2886 4159 
Q 2644 4219 2406 4219 
Q 1781 4219 1451 3797 
Q 1122 3375 1075 2522 
Q 1259 2794 1537 2939 
Q 1816 3084 2150 3084 
Q 2853 3084 3261 2657 
Q 3669 2231 3669 1497 
Q 3669 778 3244 343 
Q 2819 -91 2113 -91 
Q 1303 -91 875 529 
Q 447 1150 447 2328 
Q 447 3434 972 4092 
Q 1497 4750 2381 4750 
Q 2619 4750 2861 4703 
Q 3103 4656 3366 4563 
z
" id="DejaVuSans-36" transform="scale(0.015625)"/>
       </defs>
       <use xlink:href="#DejaVuSans-30"/>
       <use x="63.623047" xlink:href="#DejaVuSans-2e"/>
       <use x="95.410156" xlink:href="#DejaVuSans-30"/>
       <use x="159.033203" xlink:href="#DejaVuSans-30"/>
       <use x="222.65625" xlink:href="#DejaVuSans-36"/>
      </g>
     </g>
    </g>
    <g id="ytick_8">
     <g id="line2d_23">
      <path clip-path="url(#pad6580bb2e)" d="M 89.12 59.222674 
L 248.175 59.222674 
" style="fill:none;stroke:#b0b0b0;stroke-linecap:square;stroke-width:0.8;"/>
     </g>
     <g id="line2d_24">
      <g>
       <use style="stroke:#000000;stroke-width:0.8;" x="89.12" xlink:href="#me7b447ac0a" y="59.222674"/>
      </g>
     </g>
     <g id="text_13">
      <!-- 0.007 -->
      <g transform="translate(53.491875 63.021893)scale(0.1 -0.1)">
       <defs>
        <path d="M 525 4666 
L 3525 4666 
L 3525 4397 
L 1831 0 
L 1172 0 
L 2766 4134 
L 525 4134 
L 525 4666 
z
" id="DejaVuSans-37" transform="scale(0.015625)"/>
       </defs>
       <use xlink:href="#DejaVuSans-30"/>
       <use x="63.623047" xlink:href="#DejaVuSans-2e"/>
       <use x="95.410156" xlink:href="#DejaVuSans-30"/>
       <use x="159.033203" xlink:href="#DejaVuSans-30"/>
       <use x="222.65625" xlink:href="#DejaVuSans-37"/>
      </g>
     </g>
    </g>
    <g id="text_14">
     <!-- x (m) -->
     <g transform="translate(47.412188 158.840313)rotate(-90)scale(0.1 -0.1)">
      <defs>
       <path d="M 3513 3500 
L 2247 1797 
L 3578 0 
L 2900 0 
L 1881 1375 
L 863 0 
L 184 0 
L 1544 1831 
L 300 3500 
L 978 3500 
L 1906 2253 
L 2834 3500 
L 3513 3500 
z
" id="DejaVuSans-78" transform="scale(0.015625)"/>
      </defs>
      <use xlink:href="#DejaVuSans-78"/>
      <use x="59.179688" xlink:href="#DejaVuSans-20"/>
      <use x="90.966797" xlink:href="#DejaVuSans-28"/>
      <use x="129.980469" xlink:href="#DejaVuSans-6d"/>
      <use x="227.392578" xlink:href="#DejaVuSans-29"/>
     </g>
    </g>
   </g>
   <g id="line2d_25">
    <path clip-path="url(#pad6580bb2e)" d="M 96.349773 241.810909 
L 240.945227 241.810909 
L 240.945227 241.810909 
" style="fill:none;stroke:#1f77b4;stroke-linecap:square;stroke-opacity:0.7;stroke-width:1.5;"/>
   </g>
   <g id="line2d_26">
    <path clip-path="url(#pad6580bb2e)" d="M 96.349773 241.810909 
L 96.771568 241.708026 
L 96.952337 241.369047 
L 97.153192 240.392207 
L 97.374133 238.025094 
L 97.615159 232.833969 
L 97.87627 221.621703 
L 98.257894 193.614969 
L 99.904905 57.247441 
L 100.226273 50.141556 
L 100.407042 49.229091 
L 100.427128 49.246145 
L 100.527555 49.650863 
L 100.72841 51.835418 
L 101.089949 58.874736 
L 102.114309 79.930394 
L 102.516019 83.701705 
L 102.837387 84.980286 
L 103.098498 85.295206 
L 103.339524 85.256203 
L 104.002345 84.999156 
L 104.243371 85.240523 
L 104.544653 85.901895 
L 105.00662 87.537811 
L 106.292091 92.390654 
L 106.673715 92.994715 
L 106.974998 93.115822 
L 107.256195 92.980309 
L 107.637819 92.505889 
L 108.380982 91.121007 
L 109.385257 89.389786 
L 110.248933 88.366467 
L 112.337824 86.390633 
L 113.281842 85.741481 
L 114.125433 85.429279 
L 115.290391 85.267837 
L 129.872458 84.141205 
L 137.806228 84.160753 
L 163.85711 84.171675 
L 240.945227 84.17135 
L 240.945227 84.17135 
" style="fill:none;stroke:#d62728;stroke-linecap:square;stroke-opacity:0.7;stroke-width:1.5;"/>
   </g>
   <g id="line2d_27">
    <path clip-path="url(#pad6580bb2e)" d="M 96.349773 241.810909 
L 240.945227 241.810909 
L 240.945227 241.810909 
" style="fill:none;stroke:#000000;stroke-dasharray:5.55,2.4;stroke-dashoffset:0;stroke-opacity:0.595;stroke-width:1.5;"/>
   </g>
   <g id="patch_3">
    <path d="M 89.12 251.44 
L 89.12 39.6 
" style="fill:none;stroke:#000000;stroke-linecap:square;stroke-linejoin:miter;stroke-width:0.8;"/>
   </g>
   <g id="patch_4">
    <path d="M 248.175 251.44 
L 248.175 39.6 
" style="fill:none;stroke:#000000;stroke-linecap:square;stroke-linejoin:miter;stroke-width:0.8;"/>
   </g>
   <g id="patch_5">
    <path d="M 89.12 251.44 
L 248.175 251.44 
" style="fill:none;stroke:#000000;stroke-linecap:square;stroke-linejoin:miter;stroke-width:0.8;"/>
   </g>
   <g id="patch_6">
    <path d="M 89.12 39.6 
L 248.175 39.6 
" style="fill:none;stroke:#000000;stroke-linecap:square;stroke-linejoin:miter;stroke-width:0.8;"/>
   </g>
  </g>
  <g id="axes_2">
   <g id="patch_7">
    <path d="M 319.745 251.44 
L 478.8 251.44 
L 478.8 39.6 
L 319.745 39.6 
z
" style="fill:#ffffff;"/>
   </g>
   <g id="matplotlib.axis_3">
    <g id="xtick_5">
     <g id="line2d_28">
      <path clip-path="url(#p0801cb14cb)" d="M 326.974773 251.44 
L 326.974773 39.6 
" style="fill:none;stroke:#b0b0b0;stroke-linecap:square;stroke-width:0.8;"/>
     </g>
     <g id="line2d_29">
      <g>
       <use style="stroke:#000000;stroke-width:0.8;" x="326.974773" xlink:href="#mdd8188d5ca" y="251.44"/>
      </g>
     </g>
     <g id="text_15">
      <!-- 0 -->
      <g transform="translate(323.793523 266.038438)scale(0.1 -0.1)">
       <use xlink:href="#DejaVuSans-30"/>
      </g>
     </g>
    </g>
    <g id="xtick_6">
     <g id="line2d_30">
      <path clip-path="url(#p0801cb14cb)" d="M 375.179953 251.44 
L 375.179953 39.6 
" style="fill:none;stroke:#b0b0b0;stroke-linecap:square;stroke-width:0.8;"/>
     </g>
     <g id="line2d_31">
      <g>
       <use style="stroke:#000000;stroke-width:0.8;" x="375.179953" xlink:href="#mdd8188d5ca" y="251.44"/>
      </g>
     </g>
     <g id="text_16">
      <!-- 10 -->
      <g transform="translate(368.817453 266.038438)scale(0.1 -0.1)">
       <use xlink:href="#DejaVuSans-31"/>
       <use x="63.623047" xlink:href="#DejaVuSans-30"/>
      </g>
     </g>
    </g>
    <g id="xtick_7">
     <g id="line2d_32">
      <path clip-path="url(#p0801cb14cb)" d="M 423.385133 251.44 
L 423.385133 39.6 
" style="fill:none;stroke:#b0b0b0;stroke-linecap:square;stroke-width:0.8;"/>
     </g>
     <g id="line2d_33">
      <g>
       <use style="stroke:#000000;stroke-width:0.8;" x="423.385133" xlink:href="#mdd8188d5ca" y="251.44"/>
      </g>
     </g>
     <g id="text_17">
      <!-- 20 -->
      <g transform="translate(417.022633 266.038438)scale(0.1 -0.1)">
       <use xlink:href="#DejaVuSans-32"/>
       <use x="63.623047" xlink:href="#DejaVuSans-30"/>
      </g>
     </g>
    </g>
    <g id="xtick_8">
     <g id="line2d_34">
      <path clip-path="url(#p0801cb14cb)" d="M 471.590313 251.44 
L 471.590313 39.6 
" style="fill:none;stroke:#b0b0b0;stroke-linecap:square;stroke-width:0.8;"/>
     </g>
     <g id="line2d_35">
      <g>
       <use style="stroke:#000000;stroke-width:0.8;" x="471.590313" xlink:href="#mdd8188d5ca" y="251.44"/>
      </g>
     </g>
     <g id="text_18">
      <!-- 30 -->
      <g transform="translate(465.227813 266.038438)scale(0.1 -0.1)">
       <use xlink:href="#DejaVuSans-33"/>
       <use x="63.623047" xlink:href="#DejaVuSans-30"/>
      </g>
     </g>
    </g>
    <g id="text_19">
     <!-- Tiempo (s) -->
     <g transform="translate(372.71 279.716563)scale(0.1 -0.1)">
      <use xlink:href="#DejaVuSans-54"/>
      <use x="57.958984" xlink:href="#DejaVuSans-69"/>
      <use x="85.742188" xlink:href="#DejaVuSans-65"/>
      <use x="147.265625" xlink:href="#DejaVuSans-6d"/>
      <use x="244.677734" xlink:href="#DejaVuSans-70"/>
      <use x="308.154297" xlink:href="#DejaVuSans-6f"/>
      <use x="369.335938" xlink:href="#DejaVuSans-20"/>
      <use x="401.123047" xlink:href="#DejaVuSans-28"/>
      <use x="440.136719" xlink:href="#DejaVuSans-73"/>
      <use x="492.236328" xlink:href="#DejaVuSans-29"/>
     </g>
    </g>
   </g>
   <g id="matplotlib.axis_4">
    <g id="ytick_9">
     <g id="line2d_36">
      <path clip-path="url(#p0801cb14cb)" d="M 319.745 225.267867 
L 478.8 225.267867 
" style="fill:none;stroke:#b0b0b0;stroke-linecap:square;stroke-width:0.8;"/>
     </g>
     <g id="line2d_37">
      <g>
       <use style="stroke:#000000;stroke-width:0.8;" x="319.745" xlink:href="#me7b447ac0a" y="225.267867"/>
      </g>
     </g>
     <g id="text_20">
      <!-- −0.004 -->
      <g transform="translate(275.737188 229.067085)scale(0.1 -0.1)">
       <defs>
        <path d="M 678 2272 
L 4684 2272 
L 4684 1741 
L 678 1741 
L 678 2272 
z
" id="DejaVuSans-2212" transform="scale(0.015625)"/>
       </defs>
       <use xlink:href="#DejaVuSans-2212"/>
       <use x="83.789062" xlink:href="#DejaVuSans-30"/>
       <use x="147.412109" xlink:href="#DejaVuSans-2e"/>
       <use x="179.199219" xlink:href="#DejaVuSans-30"/>
       <use x="242.822266" xlink:href="#DejaVuSans-30"/>
       <use x="306.445312" xlink:href="#DejaVuSans-34"/>
      </g>
     </g>
    </g>
    <g id="ytick_10">
     <g id="line2d_38">
      <path clip-path="url(#p0801cb14cb)" d="M 319.745 181.258173 
L 478.8 181.258173 
" style="fill:none;stroke:#b0b0b0;stroke-linecap:square;stroke-width:0.8;"/>
     </g>
     <g id="line2d_39">
      <g>
       <use style="stroke:#000000;stroke-width:0.8;" x="319.745" xlink:href="#me7b447ac0a" y="181.258173"/>
      </g>
     </g>
     <g id="text_21">
      <!-- −0.003 -->
      <g transform="translate(275.737188 185.057391)scale(0.1 -0.1)">
       <use xlink:href="#DejaVuSans-2212"/>
       <use x="83.789062" xlink:href="#DejaVuSans-30"/>
       <use x="147.412109" xlink:href="#DejaVuSans-2e"/>
       <use x="179.199219" xlink:href="#DejaVuSans-30"/>
       <use x="242.822266" xlink:href="#DejaVuSans-30"/>
       <use x="306.445312" xlink:href="#DejaVuSans-33"/>
      </g>
     </g>
    </g>
    <g id="ytick_11">
     <g id="line2d_40">
      <path clip-path="url(#p0801cb14cb)" d="M 319.745 137.248479 
L 478.8 137.248479 
" style="fill:none;stroke:#b0b0b0;stroke-linecap:square;stroke-width:0.8;"/>
     </g>
     <g id="line2d_41">
      <g>
       <use style="stroke:#000000;stroke-width:0.8;" x="319.745" xlink:href="#me7b447ac0a" y="137.248479"/>
      </g>
     </g>
     <g id="text_22">
      <!-- −0.002 -->
      <g transform="translate(275.737188 141.047697)scale(0.1 -0.1)">
       <use xlink:href="#DejaVuSans-2212"/>
       <use x="83.789062" xlink:href="#DejaVuSans-30"/>
       <use x="147.412109" xlink:href="#DejaVuSans-2e"/>
       <use x="179.199219" xlink:href="#DejaVuSans-30"/>
       <use x="242.822266" xlink:href="#DejaVuSans-30"/>
       <use x="306.445312" xlink:href="#DejaVuSans-32"/>
      </g>
     </g>
    </g>
    <g id="ytick_12">
     <g id="line2d_42">
      <path clip-path="url(#p0801cb14cb)" d="M 319.745 93.238785 
L 478.8 93.238785 
" style="fill:none;stroke:#b0b0b0;stroke-linecap:square;stroke-width:0.8;"/>
     </g>
     <g id="line2d_43">
      <g>
       <use style="stroke:#000000;stroke-width:0.8;" x="319.745" xlink:href="#me7b447ac0a" y="93.238785"/>
      </g>
     </g>
     <g id="text_23">
      <!-- −0.001 -->
      <g transform="translate(275.737188 97.038004)scale(0.1 -0.1)">
       <use xlink:href="#DejaVuSans-2212"/>
       <use x="83.789062" xlink:href="#DejaVuSans-30"/>
       <use x="147.412109" xlink:href="#DejaVuSans-2e"/>
       <use x="179.199219" xlink:href="#DejaVuSans-30"/>
       <use x="242.822266" xlink:href="#DejaVuSans-30"/>
       <use x="306.445312" xlink:href="#DejaVuSans-31"/>
      </g>
     </g>
    </g>
    <g id="ytick_13">
     <g id="line2d_44">
      <path clip-path="url(#p0801cb14cb)" d="M 319.745 49.229091 
L 478.8 49.229091 
" style="fill:none;stroke:#b0b0b0;stroke-linecap:square;stroke-width:0.8;"/>
     </g>
     <g id="line2d_45">
      <g>
       <use style="stroke:#000000;stroke-width:0.8;" x="319.745" xlink:href="#me7b447ac0a" y="49.229091"/>
      </g>
     </g>
     <g id="text_24">
      <!-- 0.000 -->
      <g transform="translate(284.116875 53.02831)scale(0.1 -0.1)">
       <use xlink:href="#DejaVuSans-30"/>
       <use x="63.623047" xlink:href="#DejaVuSans-2e"/>
       <use x="95.410156" xlink:href="#DejaVuSans-30"/>
       <use x="159.033203" xlink:href="#DejaVuSans-30"/>
       <use x="222.65625" xlink:href="#DejaVuSans-30"/>
      </g>
     </g>
    </g>
    <g id="text_25">
     <!-- y (m) -->
     <g transform="translate(269.6575 158.840313)rotate(-90)scale(0.1 -0.1)">
      <defs>
       <path d="M 2059 -325 
Q 1816 -950 1584 -1140 
Q 1353 -1331 966 -1331 
L 506 -1331 
L 506 -850 
L 844 -850 
Q 1081 -850 1212 -737 
Q 1344 -625 1503 -206 
L 1606 56 
L 191 3500 
L 800 3500 
L 1894 763 
L 2988 3500 
L 3597 3500 
L 2059 -325 
z
" id="DejaVuSans-79" transform="scale(0.015625)"/>
      </defs>
      <use xlink:href="#DejaVuSans-79"/>
      <use x="59.179688" xlink:href="#DejaVuSans-20"/>
      <use x="90.966797" xlink:href="#DejaVuSans-28"/>
      <use x="129.980469" xlink:href="#DejaVuSans-6d"/>
      <use x="227.392578" xlink:href="#DejaVuSans-29"/>
     </g>
    </g>
   </g>
   <g id="line2d_46">
    <path clip-path="url(#p0801cb14cb)" d="M 326.974773 49.229091 
L 471.570227 49.229091 
L 471.570227 49.229091 
" style="fill:none;stroke:#1f77b4;stroke-linecap:square;stroke-opacity:0.7;stroke-width:1.5;"/>
   </g>
   <g id="line2d_47">
    <path clip-path="url(#p0801cb14cb)" d="M 326.974773 49.229091 
L 327.376483 49.321103 
L 327.557252 49.650331 
L 327.758107 50.632969 
L 327.979047 53.058977 
L 328.240159 58.920959 
L 328.50127 70.303307 
L 328.862809 97.023244 
L 329.505545 165.610542 
L 330.128195 222.660752 
L 330.489734 238.999696 
L 330.710674 241.810909 
L 330.750845 241.756778 
L 330.851273 240.907571 
L 331.032042 236.946197 
L 331.333324 224.426543 
L 331.875633 190.483626 
L 332.839736 131.674387 
L 333.321788 114.591734 
L 333.723498 107.101393 
L 334.044866 104.546598 
L 334.285892 104.002531 
L 334.446576 104.038154 
L 334.767943 104.473039 
L 335.04914 104.680708 
L 335.209824 104.546656 
L 335.410679 104.014525 
L 335.691876 102.478839 
L 336.053415 99.101839 
L 336.595723 91.656967 
L 338.061964 70.566228 
L 338.544016 66.877313 
L 338.92564 65.398492 
L 339.206837 64.992333 
L 339.427778 64.988744 
L 339.688889 65.241696 
L 340.191026 66.1235 
L 340.873933 67.198297 
L 341.255557 67.434247 
L 341.597011 67.39087 
L 342.018806 67.07621 
L 343.485047 65.766012 
L 343.886757 65.783104 
L 344.328638 66.041885 
L 344.951288 66.709252 
L 346.437614 68.382812 
L 347.100435 68.752853 
L 347.843599 68.904647 
L 353.206425 69.243461 
L 356.580787 69.010656 
L 364.353873 68.844552 
L 469.180054 68.869825 
L 471.570227 68.869885 
L 471.570227 68.869885 
" style="fill:none;stroke:#d62728;stroke-linecap:square;stroke-opacity:0.7;stroke-width:1.5;"/>
   </g>
   <g id="line2d_48">
    <path clip-path="url(#p0801cb14cb)" d="M 326.974773 49.229091 
L 471.570227 49.229091 
L 471.570227 49.229091 
" style="fill:none;stroke:#000000;stroke-dasharray:5.55,2.4;stroke-dashoffset:0;stroke-opacity:0.595;stroke-width:1.5;"/>
   </g>
   <g id="patch_8">
    <path d="M 319.745 251.44 
L 319.745 39.6 
" style="fill:none;stroke:#000000;stroke-linecap:square;stroke-linejoin:miter;stroke-width:0.8;"/>
   </g>
   <g id="patch_9">
    <path d="M 478.8 251.44 
L 478.8 39.6 
" style="fill:none;stroke:#000000;stroke-linecap:square;stroke-linejoin:miter;stroke-width:0.8;"/>
   </g>
   <g id="patch_10">
    <path d="M 319.745 251.44 
L 478.8 251.44 
" style="fill:none;stroke:#000000;stroke-linecap:square;stroke-linejoin:miter;stroke-width:0.8;"/>
   </g>
   <g id="patch_11">
    <path d="M 319.745 39.6 
L 478.8 39.6 
" style="fill:none;stroke:#000000;stroke-linecap:square;stroke-linejoin:miter;stroke-width:0.8;"/>
   </g>
  </g>
  <g id="axes_3">
   <g id="patch_12">
    <path d="M 89.12 505.24 
L 248.175 505.24 
L 248.175 293.4 
L 89.12 293.4 
z
" style="fill:#ffffff;"/>
   </g>
   <g id="matplotlib.axis_5">
    <g id="xtick_9">
     <g id="line2d_49">
      <path clip-path="url(#pa22ab6c87f)" d="M 96.349773 505.24 
L 96.349773 293.4 
" style="fill:none;stroke:#b0b0b0;stroke-linecap:square;stroke-width:0.8;"/>
     </g>
     <g id="line2d_50">
      <g>
       <use style="stroke:#000000;stroke-width:0.8;" x="96.349773" xlink:href="#mdd8188d5ca" y="505.24"/>
      </g>
     </g>
     <g id="text_26">
      <!-- 0 -->
      <g transform="translate(93.168523 519.838437)scale(0.1 -0.1)">
       <use xlink:href="#DejaVuSans-30"/>
      </g>
     </g>
    </g>
    <g id="xtick_10">
     <g id="line2d_51">
      <path clip-path="url(#pa22ab6c87f)" d="M 144.554953 505.24 
L 144.554953 293.4 
" style="fill:none;stroke:#b0b0b0;stroke-linecap:square;stroke-width:0.8;"/>
     </g>
     <g id="line2d_52">
      <g>
       <use style="stroke:#000000;stroke-width:0.8;" x="144.554953" xlink:href="#mdd8188d5ca" y="505.24"/>
      </g>
     </g>
     <g id="text_27">
      <!-- 10 -->
      <g transform="translate(138.192453 519.838437)scale(0.1 -0.1)">
       <use xlink:href="#DejaVuSans-31"/>
       <use x="63.623047" xlink:href="#DejaVuSans-30"/>
      </g>
     </g>
    </g>
    <g id="xtick_11">
     <g id="line2d_53">
      <path clip-path="url(#pa22ab6c87f)" d="M 192.760133 505.24 
L 192.760133 293.4 
" style="fill:none;stroke:#b0b0b0;stroke-linecap:square;stroke-width:0.8;"/>
     </g>
     <g id="line2d_54">
      <g>
       <use style="stroke:#000000;stroke-width:0.8;" x="192.760133" xlink:href="#mdd8188d5ca" y="505.24"/>
      </g>
     </g>
     <g id="text_28">
      <!-- 20 -->
      <g transform="translate(186.397633 519.838437)scale(0.1 -0.1)">
       <use xlink:href="#DejaVuSans-32"/>
       <use x="63.623047" xlink:href="#DejaVuSans-30"/>
      </g>
     </g>
    </g>
    <g id="xtick_12">
     <g id="line2d_55">
      <path clip-path="url(#pa22ab6c87f)" d="M 240.965313 505.24 
L 240.965313 293.4 
" style="fill:none;stroke:#b0b0b0;stroke-linecap:square;stroke-width:0.8;"/>
     </g>
     <g id="line2d_56">
      <g>
       <use style="stroke:#000000;stroke-width:0.8;" x="240.965313" xlink:href="#mdd8188d5ca" y="505.24"/>
      </g>
     </g>
     <g id="text_29">
      <!-- 30 -->
      <g transform="translate(234.602813 519.838437)scale(0.1 -0.1)">
       <use xlink:href="#DejaVuSans-33"/>
       <use x="63.623047" xlink:href="#DejaVuSans-30"/>
      </g>
     </g>
    </g>
    <g id="text_30">
     <!-- Tiempo (s) -->
     <g transform="translate(142.085 533.516562)scale(0.1 -0.1)">
      <use xlink:href="#DejaVuSans-54"/>
      <use x="57.958984" xlink:href="#DejaVuSans-69"/>
      <use x="85.742188" xlink:href="#DejaVuSans-65"/>
      <use x="147.265625" xlink:href="#DejaVuSans-6d"/>
      <use x="244.677734" xlink:href="#DejaVuSans-70"/>
      <use x="308.154297" xlink:href="#DejaVuSans-6f"/>
      <use x="369.335938" xlink:href="#DejaVuSans-20"/>
      <use x="401.123047" xlink:href="#DejaVuSans-28"/>
      <use x="440.136719" xlink:href="#DejaVuSans-73"/>
      <use x="492.236328" xlink:href="#DejaVuSans-29"/>
     </g>
    </g>
   </g>
   <g id="matplotlib.axis_6">
    <g id="ytick_14">
     <g id="line2d_57">
      <path clip-path="url(#pa22ab6c87f)" d="M 89.12 487.921976 
L 248.175 487.921976 
" style="fill:none;stroke:#b0b0b0;stroke-linecap:square;stroke-width:0.8;"/>
     </g>
     <g id="line2d_58">
      <g>
       <use style="stroke:#000000;stroke-width:0.8;" x="89.12" xlink:href="#me7b447ac0a" y="487.921976"/>
      </g>
     </g>
     <g id="text_31">
      <!-- 0.99 -->
      <g transform="translate(59.854375 491.721195)scale(0.1 -0.1)">
       <defs>
        <path d="M 703 97 
L 703 672 
Q 941 559 1184 500 
Q 1428 441 1663 441 
Q 2288 441 2617 861 
Q 2947 1281 2994 2138 
Q 2813 1869 2534 1725 
Q 2256 1581 1919 1581 
Q 1219 1581 811 2004 
Q 403 2428 403 3163 
Q 403 3881 828 4315 
Q 1253 4750 1959 4750 
Q 2769 4750 3195 4129 
Q 3622 3509 3622 2328 
Q 3622 1225 3098 567 
Q 2575 -91 1691 -91 
Q 1453 -91 1209 -44 
Q 966 3 703 97 
z
M 1959 2075 
Q 2384 2075 2632 2365 
Q 2881 2656 2881 3163 
Q 2881 3666 2632 3958 
Q 2384 4250 1959 4250 
Q 1534 4250 1286 3958 
Q 1038 3666 1038 3163 
Q 1038 2656 1286 2365 
Q 1534 2075 1959 2075 
z
" id="DejaVuSans-39" transform="scale(0.015625)"/>
       </defs>
       <use xlink:href="#DejaVuSans-30"/>
       <use x="63.623047" xlink:href="#DejaVuSans-2e"/>
       <use x="95.410156" xlink:href="#DejaVuSans-39"/>
       <use x="159.033203" xlink:href="#DejaVuSans-39"/>
      </g>
     </g>
    </g>
    <g id="ytick_15">
     <g id="line2d_59">
      <path clip-path="url(#pa22ab6c87f)" d="M 89.12 451.325539 
L 248.175 451.325539 
" style="fill:none;stroke:#b0b0b0;stroke-linecap:square;stroke-width:0.8;"/>
     </g>
     <g id="line2d_60">
      <g>
       <use style="stroke:#000000;stroke-width:0.8;" x="89.12" xlink:href="#me7b447ac0a" y="451.325539"/>
      </g>
     </g>
     <g id="text_32">
      <!-- 1.00 -->
      <g transform="translate(59.854375 455.124758)scale(0.1 -0.1)">
       <use xlink:href="#DejaVuSans-31"/>
       <use x="63.623047" xlink:href="#DejaVuSans-2e"/>
       <use x="95.410156" xlink:href="#DejaVuSans-30"/>
       <use x="159.033203" xlink:href="#DejaVuSans-30"/>
      </g>
     </g>
    </g>
    <g id="ytick_16">
     <g id="line2d_61">
      <path clip-path="url(#pa22ab6c87f)" d="M 89.12 414.729102 
L 248.175 414.729102 
" style="fill:none;stroke:#b0b0b0;stroke-linecap:square;stroke-width:0.8;"/>
     </g>
     <g id="line2d_62">
      <g>
       <use style="stroke:#000000;stroke-width:0.8;" x="89.12" xlink:href="#me7b447ac0a" y="414.729102"/>
      </g>
     </g>
     <g id="text_33">
      <!-- 1.01 -->
      <g transform="translate(59.854375 418.528321)scale(0.1 -0.1)">
       <use xlink:href="#DejaVuSans-31"/>
       <use x="63.623047" xlink:href="#DejaVuSans-2e"/>
       <use x="95.410156" xlink:href="#DejaVuSans-30"/>
       <use x="159.033203" xlink:href="#DejaVuSans-31"/>
      </g>
     </g>
    </g>
    <g id="ytick_17">
     <g id="line2d_63">
      <path clip-path="url(#pa22ab6c87f)" d="M 89.12 378.132665 
L 248.175 378.132665 
" style="fill:none;stroke:#b0b0b0;stroke-linecap:square;stroke-width:0.8;"/>
     </g>
     <g id="line2d_64">
      <g>
       <use style="stroke:#000000;stroke-width:0.8;" x="89.12" xlink:href="#me7b447ac0a" y="378.132665"/>
      </g>
     </g>
     <g id="text_34">
      <!-- 1.02 -->
      <g transform="translate(59.854375 381.931884)scale(0.1 -0.1)">
       <use xlink:href="#DejaVuSans-31"/>
       <use x="63.623047" xlink:href="#DejaVuSans-2e"/>
       <use x="95.410156" xlink:href="#DejaVuSans-30"/>
       <use x="159.033203" xlink:href="#DejaVuSans-32"/>
      </g>
     </g>
    </g>
    <g id="ytick_18">
     <g id="line2d_65">
      <path clip-path="url(#pa22ab6c87f)" d="M 89.12 341.536229 
L 248.175 341.536229 
" style="fill:none;stroke:#b0b0b0;stroke-linecap:square;stroke-width:0.8;"/>
     </g>
     <g id="line2d_66">
      <g>
       <use style="stroke:#000000;stroke-width:0.8;" x="89.12" xlink:href="#me7b447ac0a" y="341.536229"/>
      </g>
     </g>
     <g id="text_35">
      <!-- 1.03 -->
      <g transform="translate(59.854375 345.335447)scale(0.1 -0.1)">
       <use xlink:href="#DejaVuSans-31"/>
       <use x="63.623047" xlink:href="#DejaVuSans-2e"/>
       <use x="95.410156" xlink:href="#DejaVuSans-30"/>
       <use x="159.033203" xlink:href="#DejaVuSans-33"/>
      </g>
     </g>
    </g>
    <g id="ytick_19">
     <g id="line2d_67">
      <path clip-path="url(#pa22ab6c87f)" d="M 89.12 304.939792 
L 248.175 304.939792 
" style="fill:none;stroke:#b0b0b0;stroke-linecap:square;stroke-width:0.8;"/>
     </g>
     <g id="line2d_68">
      <g>
       <use style="stroke:#000000;stroke-width:0.8;" x="89.12" xlink:href="#me7b447ac0a" y="304.939792"/>
      </g>
     </g>
     <g id="text_36">
      <!-- 1.04 -->
      <g transform="translate(59.854375 308.73901)scale(0.1 -0.1)">
       <use xlink:href="#DejaVuSans-31"/>
       <use x="63.623047" xlink:href="#DejaVuSans-2e"/>
       <use x="95.410156" xlink:href="#DejaVuSans-30"/>
       <use x="159.033203" xlink:href="#DejaVuSans-34"/>
      </g>
     </g>
    </g>
    <g id="text_37">
     <!-- z (m) -->
     <g transform="translate(53.774688 412.305156)rotate(-90)scale(0.1 -0.1)">
      <defs>
       <path d="M 353 3500 
L 3084 3500 
L 3084 2975 
L 922 459 
L 3084 459 
L 3084 0 
L 275 0 
L 275 525 
L 2438 3041 
L 353 3041 
L 353 3500 
z
" id="DejaVuSans-7a" transform="scale(0.015625)"/>
      </defs>
      <use xlink:href="#DejaVuSans-7a"/>
      <use x="52.490234" xlink:href="#DejaVuSans-20"/>
      <use x="84.277344" xlink:href="#DejaVuSans-28"/>
      <use x="123.291016" xlink:href="#DejaVuSans-6d"/>
      <use x="220.703125" xlink:href="#DejaVuSans-29"/>
     </g>
    </g>
   </g>
   <g id="line2d_69">
    <path clip-path="url(#pa22ab6c87f)" d="M 96.349773 451.948187 
L 96.610884 456.272225 
L 96.831825 457.008419 
L 96.972423 456.941982 
L 97.233534 456.412665 
L 98.398493 453.766803 
L 99.101485 452.791584 
L 99.864734 452.107379 
L 100.72841 451.631186 
L 101.813026 451.296593 
L 103.319438 451.081552 
L 105.870296 450.972082 
L 113.261757 450.963019 
L 234.859323 451.195336 
L 240.945227 451.201847 
L 240.945227 451.201847 
" style="fill:none;stroke:#1f77b4;stroke-linecap:square;stroke-opacity:0.7;stroke-width:1.5;"/>
   </g>
   <g id="line2d_70">
    <path clip-path="url(#pa22ab6c87f)" d="M 96.349773 451.948187 
L 97.394218 480.886643 
L 98.097211 495.351041 
L 98.177552 495.610909 
L 98.217723 495.526292 
L 98.318151 494.666544 
L 98.519006 490.283543 
L 98.940801 474.111923 
L 100.226273 425.536648 
L 101.210462 395.981422 
L 102.174565 373.306614 
L 102.977985 359.446051 
L 104.002345 344.949627 
L 105.00662 333.978186 
L 105.970723 325.872191 
L 106.894656 319.904909 
L 107.778417 315.545574 
L 108.662179 312.250793 
L 109.545941 309.784515 
L 110.449788 307.897892 
L 111.393806 306.429317 
L 112.377995 305.30525 
L 113.402355 304.467681 
L 114.547228 303.820972 
L 115.792529 303.372803 
L 117.198513 303.111092 
L 118.925865 303.029416 
L 121.637407 303.156323 
L 127.863909 303.473616 
L 134.311352 303.499987 
L 167.351986 303.480646 
L 240.945227 303.480643 
L 240.945227 303.480643 
" style="fill:none;stroke:#d62728;stroke-linecap:square;stroke-opacity:0.7;stroke-width:1.5;"/>
   </g>
   <g id="line2d_71">
    <path clip-path="url(#pa22ab6c87f)" d="M 96.349773 451.325539 
L 240.945227 451.325539 
L 240.945227 451.325539 
" style="fill:none;stroke:#000000;stroke-dasharray:5.55,2.4;stroke-dashoffset:0;stroke-opacity:0.595;stroke-width:1.5;"/>
   </g>
   <g id="patch_13">
    <path d="M 89.12 505.24 
L 89.12 293.4 
" style="fill:none;stroke:#000000;stroke-linecap:square;stroke-linejoin:miter;stroke-width:0.8;"/>
   </g>
   <g id="patch_14">
    <path d="M 248.175 505.24 
L 248.175 293.4 
" style="fill:none;stroke:#000000;stroke-linecap:square;stroke-linejoin:miter;stroke-width:0.8;"/>
   </g>
   <g id="patch_15">
    <path d="M 89.12 505.24 
L 248.175 505.24 
" style="fill:none;stroke:#000000;stroke-linecap:square;stroke-linejoin:miter;stroke-width:0.8;"/>
   </g>
   <g id="patch_16">
    <path d="M 89.12 293.4 
L 248.175 293.4 
" style="fill:none;stroke:#000000;stroke-linecap:square;stroke-linejoin:miter;stroke-width:0.8;"/>
   </g>
  </g>
  <g id="axes_4">
   <g id="patch_17">
    <path d="M 319.745 505.24 
L 478.8 505.24 
L 478.8 293.4 
L 319.745 293.4 
z
" style="fill:#ffffff;"/>
   </g>
   <g id="matplotlib.axis_7">
    <g id="xtick_13">
     <g id="line2d_72">
      <path clip-path="url(#p25181e33ff)" d="M 326.974773 505.24 
L 326.974773 293.4 
" style="fill:none;stroke:#b0b0b0;stroke-linecap:square;stroke-width:0.8;"/>
     </g>
     <g id="line2d_73">
      <g>
       <use style="stroke:#000000;stroke-width:0.8;" x="326.974773" xlink:href="#mdd8188d5ca" y="505.24"/>
      </g>
     </g>
     <g id="text_38">
      <!-- 0 -->
      <g transform="translate(323.793523 519.838437)scale(0.1 -0.1)">
       <use xlink:href="#DejaVuSans-30"/>
      </g>
     </g>
    </g>
    <g id="xtick_14">
     <g id="line2d_74">
      <path clip-path="url(#p25181e33ff)" d="M 375.179953 505.24 
L 375.179953 293.4 
" style="fill:none;stroke:#b0b0b0;stroke-linecap:square;stroke-width:0.8;"/>
     </g>
     <g id="line2d_75">
      <g>
       <use style="stroke:#000000;stroke-width:0.8;" x="375.179953" xlink:href="#mdd8188d5ca" y="505.24"/>
      </g>
     </g>
     <g id="text_39">
      <!-- 10 -->
      <g transform="translate(368.817453 519.838437)scale(0.1 -0.1)">
       <use xlink:href="#DejaVuSans-31"/>
       <use x="63.623047" xlink:href="#DejaVuSans-30"/>
      </g>
     </g>
    </g>
    <g id="xtick_15">
     <g id="line2d_76">
      <path clip-path="url(#p25181e33ff)" d="M 423.385133 505.24 
L 423.385133 293.4 
" style="fill:none;stroke:#b0b0b0;stroke-linecap:square;stroke-width:0.8;"/>
     </g>
     <g id="line2d_77">
      <g>
       <use style="stroke:#000000;stroke-width:0.8;" x="423.385133" xlink:href="#mdd8188d5ca" y="505.24"/>
      </g>
     </g>
     <g id="text_40">
      <!-- 20 -->
      <g transform="translate(417.022633 519.838437)scale(0.1 -0.1)">
       <use xlink:href="#DejaVuSans-32"/>
       <use x="63.623047" xlink:href="#DejaVuSans-30"/>
      </g>
     </g>
    </g>
    <g id="xtick_16">
     <g id="line2d_78">
      <path clip-path="url(#p25181e33ff)" d="M 471.590313 505.24 
L 471.590313 293.4 
" style="fill:none;stroke:#b0b0b0;stroke-linecap:square;stroke-width:0.8;"/>
     </g>
     <g id="line2d_79">
      <g>
       <use style="stroke:#000000;stroke-width:0.8;" x="471.590313" xlink:href="#mdd8188d5ca" y="505.24"/>
      </g>
     </g>
     <g id="text_41">
      <!-- 30 -->
      <g transform="translate(465.227813 519.838437)scale(0.1 -0.1)">
       <use xlink:href="#DejaVuSans-33"/>
       <use x="63.623047" xlink:href="#DejaVuSans-30"/>
      </g>
     </g>
    </g>
    <g id="text_42">
     <!-- Tiempo (s) -->
     <g transform="translate(372.71 533.516562)scale(0.1 -0.1)">
      <use xlink:href="#DejaVuSans-54"/>
      <use x="57.958984" xlink:href="#DejaVuSans-69"/>
      <use x="85.742188" xlink:href="#DejaVuSans-65"/>
      <use x="147.265625" xlink:href="#DejaVuSans-6d"/>
      <use x="244.677734" xlink:href="#DejaVuSans-70"/>
      <use x="308.154297" xlink:href="#DejaVuSans-6f"/>
      <use x="369.335938" xlink:href="#DejaVuSans-20"/>
      <use x="401.123047" xlink:href="#DejaVuSans-28"/>
      <use x="440.136719" xlink:href="#DejaVuSans-73"/>
      <use x="492.236328" xlink:href="#DejaVuSans-29"/>
     </g>
    </g>
   </g>
   <g id="matplotlib.axis_8">
    <g id="ytick_20">
     <g id="line2d_80">
      <path clip-path="url(#p25181e33ff)" d="M 319.745 485.539695 
L 478.8 485.539695 
" style="fill:none;stroke:#b0b0b0;stroke-linecap:square;stroke-width:0.8;"/>
     </g>
     <g id="line2d_81">
      <g>
       <use style="stroke:#000000;stroke-width:0.8;" x="319.745" xlink:href="#me7b447ac0a" y="485.539695"/>
      </g>
     </g>
     <g id="text_43">
      <!-- −0.030 -->
      <g transform="translate(275.737188 489.338914)scale(0.1 -0.1)">
       <use xlink:href="#DejaVuSans-2212"/>
       <use x="83.789062" xlink:href="#DejaVuSans-30"/>
       <use x="147.412109" xlink:href="#DejaVuSans-2e"/>
       <use x="179.199219" xlink:href="#DejaVuSans-30"/>
       <use x="242.822266" xlink:href="#DejaVuSans-33"/>
       <use x="306.445312" xlink:href="#DejaVuSans-30"/>
      </g>
     </g>
    </g>
    <g id="ytick_21">
     <g id="line2d_82">
      <path clip-path="url(#p25181e33ff)" d="M 319.745 455.121261 
L 478.8 455.121261 
" style="fill:none;stroke:#b0b0b0;stroke-linecap:square;stroke-width:0.8;"/>
     </g>
     <g id="line2d_83">
      <g>
       <use style="stroke:#000000;stroke-width:0.8;" x="319.745" xlink:href="#me7b447ac0a" y="455.121261"/>
      </g>
     </g>
     <g id="text_44">
      <!-- −0.025 -->
      <g transform="translate(275.737188 458.92048)scale(0.1 -0.1)">
       <use xlink:href="#DejaVuSans-2212"/>
       <use x="83.789062" xlink:href="#DejaVuSans-30"/>
       <use x="147.412109" xlink:href="#DejaVuSans-2e"/>
       <use x="179.199219" xlink:href="#DejaVuSans-30"/>
       <use x="242.822266" xlink:href="#DejaVuSans-32"/>
       <use x="306.445312" xlink:href="#DejaVuSans-35"/>
      </g>
     </g>
    </g>
    <g id="ytick_22">
     <g id="line2d_84">
      <path clip-path="url(#p25181e33ff)" d="M 319.745 424.702827 
L 478.8 424.702827 
" style="fill:none;stroke:#b0b0b0;stroke-linecap:square;stroke-width:0.8;"/>
     </g>
     <g id="line2d_85">
      <g>
       <use style="stroke:#000000;stroke-width:0.8;" x="319.745" xlink:href="#me7b447ac0a" y="424.702827"/>
      </g>
     </g>
     <g id="text_45">
      <!-- −0.020 -->
      <g transform="translate(275.737188 428.502046)scale(0.1 -0.1)">
       <use xlink:href="#DejaVuSans-2212"/>
       <use x="83.789062" xlink:href="#DejaVuSans-30"/>
       <use x="147.412109" xlink:href="#DejaVuSans-2e"/>
       <use x="179.199219" xlink:href="#DejaVuSans-30"/>
       <use x="242.822266" xlink:href="#DejaVuSans-32"/>
       <use x="306.445312" xlink:href="#DejaVuSans-30"/>
      </g>
     </g>
    </g>
    <g id="ytick_23">
     <g id="line2d_86">
      <path clip-path="url(#p25181e33ff)" d="M 319.745 394.284393 
L 478.8 394.284393 
" style="fill:none;stroke:#b0b0b0;stroke-linecap:square;stroke-width:0.8;"/>
     </g>
     <g id="line2d_87">
      <g>
       <use style="stroke:#000000;stroke-width:0.8;" x="319.745" xlink:href="#me7b447ac0a" y="394.284393"/>
      </g>
     </g>
     <g id="text_46">
      <!-- −0.015 -->
      <g transform="translate(275.737188 398.083612)scale(0.1 -0.1)">
       <use xlink:href="#DejaVuSans-2212"/>
       <use x="83.789062" xlink:href="#DejaVuSans-30"/>
       <use x="147.412109" xlink:href="#DejaVuSans-2e"/>
       <use x="179.199219" xlink:href="#DejaVuSans-30"/>
       <use x="242.822266" xlink:href="#DejaVuSans-31"/>
       <use x="306.445312" xlink:href="#DejaVuSans-35"/>
      </g>
     </g>
    </g>
    <g id="ytick_24">
     <g id="line2d_88">
      <path clip-path="url(#p25181e33ff)" d="M 319.745 363.865959 
L 478.8 363.865959 
" style="fill:none;stroke:#b0b0b0;stroke-linecap:square;stroke-width:0.8;"/>
     </g>
     <g id="line2d_89">
      <g>
       <use style="stroke:#000000;stroke-width:0.8;" x="319.745" xlink:href="#me7b447ac0a" y="363.865959"/>
      </g>
     </g>
     <g id="text_47">
      <!-- −0.010 -->
      <g transform="translate(275.737188 367.665178)scale(0.1 -0.1)">
       <use xlink:href="#DejaVuSans-2212"/>
       <use x="83.789062" xlink:href="#DejaVuSans-30"/>
       <use x="147.412109" xlink:href="#DejaVuSans-2e"/>
       <use x="179.199219" xlink:href="#DejaVuSans-30"/>
       <use x="242.822266" xlink:href="#DejaVuSans-31"/>
       <use x="306.445312" xlink:href="#DejaVuSans-30"/>
      </g>
     </g>
    </g>
    <g id="ytick_25">
     <g id="line2d_90">
      <path clip-path="url(#p25181e33ff)" d="M 319.745 333.447525 
L 478.8 333.447525 
" style="fill:none;stroke:#b0b0b0;stroke-linecap:square;stroke-width:0.8;"/>
     </g>
     <g id="line2d_91">
      <g>
       <use style="stroke:#000000;stroke-width:0.8;" x="319.745" xlink:href="#me7b447ac0a" y="333.447525"/>
      </g>
     </g>
     <g id="text_48">
      <!-- −0.005 -->
      <g transform="translate(275.737188 337.246744)scale(0.1 -0.1)">
       <use xlink:href="#DejaVuSans-2212"/>
       <use x="83.789062" xlink:href="#DejaVuSans-30"/>
       <use x="147.412109" xlink:href="#DejaVuSans-2e"/>
       <use x="179.199219" xlink:href="#DejaVuSans-30"/>
       <use x="242.822266" xlink:href="#DejaVuSans-30"/>
       <use x="306.445312" xlink:href="#DejaVuSans-35"/>
      </g>
     </g>
    </g>
    <g id="ytick_26">
     <g id="line2d_92">
      <path clip-path="url(#p25181e33ff)" d="M 319.745 303.029091 
L 478.8 303.029091 
" style="fill:none;stroke:#b0b0b0;stroke-linecap:square;stroke-width:0.8;"/>
     </g>
     <g id="line2d_93">
      <g>
       <use style="stroke:#000000;stroke-width:0.8;" x="319.745" xlink:href="#me7b447ac0a" y="303.029091"/>
      </g>
     </g>
     <g id="text_49">
      <!-- 0.000 -->
      <g transform="translate(284.116875 306.82831)scale(0.1 -0.1)">
       <use xlink:href="#DejaVuSans-30"/>
       <use x="63.623047" xlink:href="#DejaVuSans-2e"/>
       <use x="95.410156" xlink:href="#DejaVuSans-30"/>
       <use x="159.033203" xlink:href="#DejaVuSans-30"/>
       <use x="222.65625" xlink:href="#DejaVuSans-30"/>
      </g>
     </g>
    </g>
    <g id="text_50">
     <!-- $\psi$ (rad) -->
     <g transform="translate(269.637187 416.42)rotate(-90)scale(0.1 -0.1)">
      <defs>
       <path d="M 1591 -78 
Q 891 38 616 341 
Q 278 713 425 1472 
L 819 3500 
L 1400 3500 
L 1009 1494 
Q 900 922 1119 684 
Q 1313 478 1691 434 
L 2284 3500 
L 2856 3500 
L 2263 438 
Q 2681 481 2928 688 
Q 3247 950 3353 1497 
L 3741 3500 
L 4322 3500 
L 3928 1475 
Q 3775 688 3300 344 
Q 2872 34 2163 -75 
L 1919 -1331 
L 1347 -1331 
L 1591 -78 
z
" id="DejaVuSans-Oblique-3c8" transform="scale(0.015625)"/>
       <path d="M 2631 2963 
Q 2534 3019 2420 3045 
Q 2306 3072 2169 3072 
Q 1681 3072 1420 2755 
Q 1159 2438 1159 1844 
L 1159 0 
L 581 0 
L 581 3500 
L 1159 3500 
L 1159 2956 
Q 1341 3275 1631 3429 
Q 1922 3584 2338 3584 
Q 2397 3584 2469 3576 
Q 2541 3569 2628 3553 
L 2631 2963 
z
" id="DejaVuSans-72" transform="scale(0.015625)"/>
       <path d="M 2194 1759 
Q 1497 1759 1228 1600 
Q 959 1441 959 1056 
Q 959 750 1161 570 
Q 1363 391 1709 391 
Q 2188 391 2477 730 
Q 2766 1069 2766 1631 
L 2766 1759 
L 2194 1759 
z
M 3341 1997 
L 3341 0 
L 2766 0 
L 2766 531 
Q 2569 213 2275 61 
Q 1981 -91 1556 -91 
Q 1019 -91 701 211 
Q 384 513 384 1019 
Q 384 1609 779 1909 
Q 1175 2209 1959 2209 
L 2766 2209 
L 2766 2266 
Q 2766 2663 2505 2880 
Q 2244 3097 1772 3097 
Q 1472 3097 1187 3025 
Q 903 2953 641 2809 
L 641 3341 
Q 956 3463 1253 3523 
Q 1550 3584 1831 3584 
Q 2591 3584 2966 3190 
Q 3341 2797 3341 1997 
z
" id="DejaVuSans-61" transform="scale(0.015625)"/>
       <path d="M 2906 2969 
L 2906 4863 
L 3481 4863 
L 3481 0 
L 2906 0 
L 2906 525 
Q 2725 213 2448 61 
Q 2172 -91 1784 -91 
Q 1150 -91 751 415 
Q 353 922 353 1747 
Q 353 2572 751 3078 
Q 1150 3584 1784 3584 
Q 2172 3584 2448 3432 
Q 2725 3281 2906 2969 
z
M 947 1747 
Q 947 1113 1208 752 
Q 1469 391 1925 391 
Q 2381 391 2643 752 
Q 2906 1113 2906 1747 
Q 2906 2381 2643 2742 
Q 2381 3103 1925 3103 
Q 1469 3103 1208 2742 
Q 947 2381 947 1747 
z
" id="DejaVuSans-64" transform="scale(0.015625)"/>
      </defs>
      <use transform="translate(0 0.015625)" xlink:href="#DejaVuSans-Oblique-3c8"/>
      <use transform="translate(65.966797 0.015625)" xlink:href="#DejaVuSans-20"/>
      <use transform="translate(97.753906 0.015625)" xlink:href="#DejaVuSans-28"/>
      <use transform="translate(136.767578 0.015625)" xlink:href="#DejaVuSans-72"/>
      <use transform="translate(177.880859 0.015625)" xlink:href="#DejaVuSans-61"/>
      <use transform="translate(239.160156 0.015625)" xlink:href="#DejaVuSans-64"/>
      <use transform="translate(302.636719 0.015625)" xlink:href="#DejaVuSans-29"/>
     </g>
    </g>
   </g>
   <g id="line2d_94">
    <path clip-path="url(#p25181e33ff)" d="M 326.974773 303.029091 
L 471.570227 303.029091 
L 471.570227 303.029091 
" style="fill:none;stroke:#1f77b4;stroke-linecap:square;stroke-opacity:0.7;stroke-width:1.5;"/>
   </g>
   <g id="line2d_95">
    <path clip-path="url(#p25181e33ff)" d="M 326.974773 303.029091 
L 327.055115 303.451001 
L 327.195713 305.812516 
L 327.436739 314.659557 
L 327.758107 335.837179 
L 328.179902 379.890931 
L 329.103835 495.610909 
L 329.144006 495.305781 
L 329.244433 489.614358 
L 329.465374 456.797185 
L 329.987596 382.359639 
L 330.469648 340.422473 
L 330.831187 324.433108 
L 331.072213 320.620545 
L 331.13247 320.515527 
L 331.17264 320.628961 
L 331.293153 321.814091 
L 331.494008 326.509446 
L 331.795291 339.893362 
L 332.197001 368.887812 
L 332.960249 427.3127 
L 333.161104 429.390443 
L 333.321788 430.188273 
L 333.502558 432.971862 
L 334.245721 447.285387 
L 334.346148 447.320895 
L 334.366234 447.30385 
L 334.587174 447.155005 
L 334.60726 447.178949 
L 334.747858 447.621716 
L 335.410679 450.711051 
L 335.470936 450.668767 
L 336.033329 450.112826 
L 336.053415 450.130262 
L 336.535467 450.470266 
L 336.776493 450.232681 
L 337.158117 449.911189 
L 337.439314 449.98528 
L 338.041879 450.159348 
L 338.403417 450.346752 
L 340.693164 452.17644 
L 341.496583 452.348315 
L 346.558127 452.844305 
L 353.065826 453.286215 
L 359.272243 453.319999 
L 381.165429 453.291536 
L 471.570227 453.29141 
L 471.570227 453.29141 
" style="fill:none;stroke:#d62728;stroke-linecap:square;stroke-opacity:0.7;stroke-width:1.5;"/>
   </g>
   <g id="line2d_96">
    <path clip-path="url(#p25181e33ff)" d="M 326.974773 303.029091 
L 471.570227 303.029091 
L 471.570227 303.029091 
" style="fill:none;stroke:#000000;stroke-dasharray:5.55,2.4;stroke-dashoffset:0;stroke-opacity:0.595;stroke-width:1.5;"/>
   </g>
   <g id="patch_18">
    <path d="M 319.745 505.24 
L 319.745 293.4 
" style="fill:none;stroke:#000000;stroke-linecap:square;stroke-linejoin:miter;stroke-width:0.8;"/>
   </g>
   <g id="patch_19">
    <path d="M 478.8 505.24 
L 478.8 293.4 
" style="fill:none;stroke:#000000;stroke-linecap:square;stroke-linejoin:miter;stroke-width:0.8;"/>
   </g>
   <g id="patch_20">
    <path d="M 319.745 505.24 
L 478.8 505.24 
" style="fill:none;stroke:#000000;stroke-linecap:square;stroke-linejoin:miter;stroke-width:0.8;"/>
   </g>
   <g id="patch_21">
    <path d="M 319.745 293.4 
L 478.8 293.4 
" style="fill:none;stroke:#000000;stroke-linecap:square;stroke-linejoin:miter;stroke-width:0.8;"/>
   </g>
  </g>
  <g id="legend_1">
   <g id="patch_22">
    <path d="M 483.89375 311.517187 
L 569 311.517187 
Q 571 311.517187 571 309.517187 
L 571 266.482812 
Q 571 264.482812 569 264.482812 
L 483.89375 264.482812 
Q 481.89375 264.482812 481.89375 266.482812 
L 481.89375 309.517187 
Q 481.89375 311.517187 483.89375 311.517187 
z
" style="fill:#ffffff;opacity:0.8;stroke:#cccccc;stroke-linejoin:miter;"/>
   </g>
   <g id="line2d_97">
    <path d="M 485.89375 272.58125 
L 505.89375 272.58125 
" style="fill:none;stroke:#1f77b4;stroke-linecap:square;stroke-opacity:0.7;stroke-width:1.5;"/>
   </g>
   <g id="line2d_98"/>
   <g id="text_51">
    <!-- DSLPID -->
    <g transform="translate(513.89375 276.08125)scale(0.1 -0.1)">
     <defs>
      <path d="M 1259 4147 
L 1259 519 
L 2022 519 
Q 2988 519 3436 956 
Q 3884 1394 3884 2338 
Q 3884 3275 3436 3711 
Q 2988 4147 2022 4147 
L 1259 4147 
z
M 628 4666 
L 1925 4666 
Q 3281 4666 3915 4102 
Q 4550 3538 4550 2338 
Q 4550 1131 3912 565 
Q 3275 0 1925 0 
L 628 0 
L 628 4666 
z
" id="DejaVuSans-44" transform="scale(0.015625)"/>
      <path d="M 3425 4513 
L 3425 3897 
Q 3066 4069 2747 4153 
Q 2428 4238 2131 4238 
Q 1616 4238 1336 4038 
Q 1056 3838 1056 3469 
Q 1056 3159 1242 3001 
Q 1428 2844 1947 2747 
L 2328 2669 
Q 3034 2534 3370 2195 
Q 3706 1856 3706 1288 
Q 3706 609 3251 259 
Q 2797 -91 1919 -91 
Q 1588 -91 1214 -16 
Q 841 59 441 206 
L 441 856 
Q 825 641 1194 531 
Q 1563 422 1919 422 
Q 2459 422 2753 634 
Q 3047 847 3047 1241 
Q 3047 1584 2836 1778 
Q 2625 1972 2144 2069 
L 1759 2144 
Q 1053 2284 737 2584 
Q 422 2884 422 3419 
Q 422 4038 858 4394 
Q 1294 4750 2059 4750 
Q 2388 4750 2728 4690 
Q 3069 4631 3425 4513 
z
" id="DejaVuSans-53" transform="scale(0.015625)"/>
      <path d="M 628 4666 
L 1259 4666 
L 1259 531 
L 3531 531 
L 3531 0 
L 628 0 
L 628 4666 
z
" id="DejaVuSans-4c" transform="scale(0.015625)"/>
      <path d="M 1259 4147 
L 1259 2394 
L 2053 2394 
Q 2494 2394 2734 2622 
Q 2975 2850 2975 3272 
Q 2975 3691 2734 3919 
Q 2494 4147 2053 4147 
L 1259 4147 
z
M 628 4666 
L 2053 4666 
Q 2838 4666 3239 4311 
Q 3641 3956 3641 3272 
Q 3641 2581 3239 2228 
Q 2838 1875 2053 1875 
L 1259 1875 
L 1259 0 
L 628 0 
L 628 4666 
z
" id="DejaVuSans-50" transform="scale(0.015625)"/>
      <path d="M 628 4666 
L 1259 4666 
L 1259 0 
L 628 0 
L 628 4666 
z
" id="DejaVuSans-49" transform="scale(0.015625)"/>
     </defs>
     <use xlink:href="#DejaVuSans-44"/>
     <use x="77.001953" xlink:href="#DejaVuSans-53"/>
     <use x="140.478516" xlink:href="#DejaVuSans-4c"/>
     <use x="196.191406" xlink:href="#DejaVuSans-50"/>
     <use x="256.494141" xlink:href="#DejaVuSans-49"/>
     <use x="285.986328" xlink:href="#DejaVuSans-44"/>
    </g>
   </g>
   <g id="line2d_99">
    <path d="M 485.89375 287.259375 
L 505.89375 287.259375 
" style="fill:none;stroke:#d62728;stroke-linecap:square;stroke-opacity:0.7;stroke-width:1.5;"/>
   </g>
   <g id="line2d_100"/>
   <g id="text_52">
    <!-- LSTMCNN -->
    <g transform="translate(513.89375 290.759375)scale(0.1 -0.1)">
     <defs>
      <path d="M 628 4666 
L 1569 4666 
L 2759 1491 
L 3956 4666 
L 4897 4666 
L 4897 0 
L 4281 0 
L 4281 4097 
L 3078 897 
L 2444 897 
L 1241 4097 
L 1241 0 
L 628 0 
L 628 4666 
z
" id="DejaVuSans-4d" transform="scale(0.015625)"/>
      <path d="M 4122 4306 
L 4122 3641 
Q 3803 3938 3442 4084 
Q 3081 4231 2675 4231 
Q 1875 4231 1450 3742 
Q 1025 3253 1025 2328 
Q 1025 1406 1450 917 
Q 1875 428 2675 428 
Q 3081 428 3442 575 
Q 3803 722 4122 1019 
L 4122 359 
Q 3791 134 3420 21 
Q 3050 -91 2638 -91 
Q 1578 -91 968 557 
Q 359 1206 359 2328 
Q 359 3453 968 4101 
Q 1578 4750 2638 4750 
Q 3056 4750 3426 4639 
Q 3797 4528 4122 4306 
z
" id="DejaVuSans-43" transform="scale(0.015625)"/>
      <path d="M 628 4666 
L 1478 4666 
L 3547 763 
L 3547 4666 
L 4159 4666 
L 4159 0 
L 3309 0 
L 1241 3903 
L 1241 0 
L 628 0 
L 628 4666 
z
" id="DejaVuSans-4e" transform="scale(0.015625)"/>
     </defs>
     <use xlink:href="#DejaVuSans-4c"/>
     <use x="55.712891" xlink:href="#DejaVuSans-53"/>
     <use x="119.189453" xlink:href="#DejaVuSans-54"/>
     <use x="180.273438" xlink:href="#DejaVuSans-4d"/>
     <use x="266.552734" xlink:href="#DejaVuSans-43"/>
     <use x="336.376953" xlink:href="#DejaVuSans-4e"/>
     <use x="411.181641" xlink:href="#DejaVuSans-4e"/>
    </g>
   </g>
   <g id="line2d_101">
    <path d="M 485.89375 301.9375 
L 505.89375 301.9375 
" style="fill:none;stroke:#000000;stroke-dasharray:5.55,2.4;stroke-dashoffset:0;stroke-opacity:0.595;stroke-width:1.5;"/>
   </g>
   <g id="line2d_102"/>
   <g id="text_53">
    <!-- Referencia -->
    <g transform="translate(513.89375 305.4375)scale(0.1 -0.1)">
     <defs>
      <path d="M 2841 2188 
Q 3044 2119 3236 1894 
Q 3428 1669 3622 1275 
L 4263 0 
L 3584 0 
L 2988 1197 
Q 2756 1666 2539 1819 
Q 2322 1972 1947 1972 
L 1259 1972 
L 1259 0 
L 628 0 
L 628 4666 
L 2053 4666 
Q 2853 4666 3247 4331 
Q 3641 3997 3641 3322 
Q 3641 2881 3436 2590 
Q 3231 2300 2841 2188 
z
M 1259 4147 
L 1259 2491 
L 2053 2491 
Q 2509 2491 2742 2702 
Q 2975 2913 2975 3322 
Q 2975 3731 2742 3939 
Q 2509 4147 2053 4147 
L 1259 4147 
z
" id="DejaVuSans-52" transform="scale(0.015625)"/>
      <path d="M 2375 4863 
L 2375 4384 
L 1825 4384 
Q 1516 4384 1395 4259 
Q 1275 4134 1275 3809 
L 1275 3500 
L 2222 3500 
L 2222 3053 
L 1275 3053 
L 1275 0 
L 697 0 
L 697 3053 
L 147 3053 
L 147 3500 
L 697 3500 
L 697 3744 
Q 697 4328 969 4595 
Q 1241 4863 1831 4863 
L 2375 4863 
z
" id="DejaVuSans-66" transform="scale(0.015625)"/>
      <path d="M 3513 2113 
L 3513 0 
L 2938 0 
L 2938 2094 
Q 2938 2591 2744 2837 
Q 2550 3084 2163 3084 
Q 1697 3084 1428 2787 
Q 1159 2491 1159 1978 
L 1159 0 
L 581 0 
L 581 3500 
L 1159 3500 
L 1159 2956 
Q 1366 3272 1645 3428 
Q 1925 3584 2291 3584 
Q 2894 3584 3203 3211 
Q 3513 2838 3513 2113 
z
" id="DejaVuSans-6e" transform="scale(0.015625)"/>
      <path d="M 3122 3366 
L 3122 2828 
Q 2878 2963 2633 3030 
Q 2388 3097 2138 3097 
Q 1578 3097 1268 2742 
Q 959 2388 959 1747 
Q 959 1106 1268 751 
Q 1578 397 2138 397 
Q 2388 397 2633 464 
Q 2878 531 3122 666 
L 3122 134 
Q 2881 22 2623 -34 
Q 2366 -91 2075 -91 
Q 1284 -91 818 406 
Q 353 903 353 1747 
Q 353 2603 823 3093 
Q 1294 3584 2113 3584 
Q 2378 3584 2631 3529 
Q 2884 3475 3122 3366 
z
" id="DejaVuSans-63" transform="scale(0.015625)"/>
     </defs>
     <use xlink:href="#DejaVuSans-52"/>
     <use x="64.982422" xlink:href="#DejaVuSans-65"/>
     <use x="126.505859" xlink:href="#DejaVuSans-66"/>
     <use x="161.710938" xlink:href="#DejaVuSans-65"/>
     <use x="223.234375" xlink:href="#DejaVuSans-72"/>
     <use x="262.097656" xlink:href="#DejaVuSans-65"/>
     <use x="323.621094" xlink:href="#DejaVuSans-6e"/>
     <use x="387" xlink:href="#DejaVuSans-63"/>
     <use x="441.980469" xlink:href="#DejaVuSans-69"/>
     <use x="469.763672" xlink:href="#DejaVuSans-61"/>
    </g>
   </g>
  </g>
 </g>
 <defs>
  <clipPath id="pad6580bb2e">
   <rect height="211.84" width="159.055" x="89.12" y="39.6"/>
  </clipPath>
  <clipPath id="p0801cb14cb">
   <rect height="211.84" width="159.055" x="319.745" y="39.6"/>
  </clipPath>
  <clipPath id="pa22ab6c87f">
   <rect height="211.84" width="159.055" x="89.12" y="293.4"/>
  </clipPath>
  <clipPath id="p25181e33ff">
   <rect height="211.84" width="159.055" x="319.745" y="293.4"/>
  </clipPath>
 </defs>
</svg>
