<?xml version="1.0" encoding="utf-8" standalone="no"?>
<!DOCTYPE svg PUBLIC "-//W3C//DTD SVG 1.1//EN"
  "http://www.w3.org/Graphics/SVG/1.1/DTD/svg11.dtd">
<svg height="288pt" version="1.1" viewBox="0 0 576 288" width="576pt" xmlns="http://www.w3.org/2000/svg" xmlns:xlink="http://www.w3.org/1999/xlink">
 <metadata>
  <rdf:RDF xmlns:cc="http://creativecommons.org/ns#" xmlns:dc="http://purl.org/dc/elements/1.1/" xmlns:rdf="http://www.w3.org/1999/02/22-rdf-syntax-ns#">
   <cc:Work>
    <dc:type rdf:resource="http://purl.org/dc/dcmitype/StillImage"/>
    <dc:date>2022-02-28T12:46:10.164435</dc:date>
    <dc:format>image/svg+xml</dc:format>
    <dc:creator>
     <cc:Agent>
      <dc:title>Matplotlib v3.4.3, https://matplotlib.org/</dc:title>
     </cc:Agent>
    </dc:creator>
   </cc:Work>
  </rdf:RDF>
 </metadata>
 <defs>
  <style type="text/css">*{stroke-linecap:butt;stroke-linejoin:round;}</style>
 </defs>
 <g id="figure_1">
  <g id="patch_1">
   <path d="M 0 288 
L 576 288 
L 576 0 
L 0 0 
z
" style="fill:#ffffff;"/>
  </g>
  <g id="axes_1">
   <g id="patch_2">
    <path d="M 97.49 231.64 
L 261.09 231.64 
L 261.09 41.28 
L 97.49 41.28 
z
" style="fill:#ffffff;"/>
   </g>
   <g id="matplotlib.axis_1">
    <g id="xtick_1">
     <g id="line2d_1">
      <path clip-path="url(#p632cdba7df)" d="M 104.926364 231.64 
L 104.926364 41.28 
" style="fill:none;stroke:#b0b0b0;stroke-linecap:square;stroke-width:0.8;"/>
     </g>
     <g id="line2d_2">
      <defs>
       <path d="M 0 0 
L 0 3.5 
" id="m26e46494a8" style="stroke:#000000;stroke-width:0.8;"/>
      </defs>
      <g>
       <use style="stroke:#000000;stroke-width:0.8;" x="104.926364" xlink:href="#m26e46494a8" y="231.64"/>
      </g>
     </g>
     <g id="text_1">
      <!-- 0.000 -->
      <g transform="translate(90.612301 246.238438)scale(0.1 -0.1)">
       <defs>
        <path d="M 2034 4250 
Q 1547 4250 1301 3770 
Q 1056 3291 1056 2328 
Q 1056 1369 1301 889 
Q 1547 409 2034 409 
Q 2525 409 2770 889 
Q 3016 1369 3016 2328 
Q 3016 3291 2770 3770 
Q 2525 4250 2034 4250 
z
M 2034 4750 
Q 2819 4750 3233 4129 
Q 3647 3509 3647 2328 
Q 3647 1150 3233 529 
Q 2819 -91 2034 -91 
Q 1250 -91 836 529 
Q 422 1150 422 2328 
Q 422 3509 836 4129 
Q 1250 4750 2034 4750 
z
" id="DejaVuSans-30" transform="scale(0.015625)"/>
        <path d="M 684 794 
L 1344 794 
L 1344 0 
L 684 0 
L 684 794 
z
" id="DejaVuSans-2e" transform="scale(0.015625)"/>
       </defs>
       <use xlink:href="#DejaVuSans-30"/>
       <use x="63.623047" xlink:href="#DejaVuSans-2e"/>
       <use x="95.410156" xlink:href="#DejaVuSans-30"/>
       <use x="159.033203" xlink:href="#DejaVuSans-30"/>
       <use x="222.65625" xlink:href="#DejaVuSans-30"/>
      </g>
     </g>
    </g>
    <g id="xtick_2">
     <g id="line2d_3">
      <path clip-path="url(#p632cdba7df)" d="M 145.214769 231.64 
L 145.214769 41.28 
" style="fill:none;stroke:#b0b0b0;stroke-linecap:square;stroke-width:0.8;"/>
     </g>
     <g id="line2d_4">
      <g>
       <use style="stroke:#000000;stroke-width:0.8;" x="145.214769" xlink:href="#m26e46494a8" y="231.64"/>
      </g>
     </g>
     <g id="text_2">
      <!-- 0.002 -->
      <g transform="translate(130.900706 246.238438)scale(0.1 -0.1)">
       <defs>
        <path d="M 1228 531 
L 3431 531 
L 3431 0 
L 469 0 
L 469 531 
Q 828 903 1448 1529 
Q 2069 2156 2228 2338 
Q 2531 2678 2651 2914 
Q 2772 3150 2772 3378 
Q 2772 3750 2511 3984 
Q 2250 4219 1831 4219 
Q 1534 4219 1204 4116 
Q 875 4013 500 3803 
L 500 4441 
Q 881 4594 1212 4672 
Q 1544 4750 1819 4750 
Q 2544 4750 2975 4387 
Q 3406 4025 3406 3419 
Q 3406 3131 3298 2873 
Q 3191 2616 2906 2266 
Q 2828 2175 2409 1742 
Q 1991 1309 1228 531 
z
" id="DejaVuSans-32" transform="scale(0.015625)"/>
       </defs>
       <use xlink:href="#DejaVuSans-30"/>
       <use x="63.623047" xlink:href="#DejaVuSans-2e"/>
       <use x="95.410156" xlink:href="#DejaVuSans-30"/>
       <use x="159.033203" xlink:href="#DejaVuSans-30"/>
       <use x="222.65625" xlink:href="#DejaVuSans-32"/>
      </g>
     </g>
    </g>
    <g id="xtick_3">
     <g id="line2d_5">
      <path clip-path="url(#p632cdba7df)" d="M 185.503174 231.64 
L 185.503174 41.28 
" style="fill:none;stroke:#b0b0b0;stroke-linecap:square;stroke-width:0.8;"/>
     </g>
     <g id="line2d_6">
      <g>
       <use style="stroke:#000000;stroke-width:0.8;" x="185.503174" xlink:href="#m26e46494a8" y="231.64"/>
      </g>
     </g>
     <g id="text_3">
      <!-- 0.004 -->
      <g transform="translate(171.189112 246.238438)scale(0.1 -0.1)">
       <defs>
        <path d="M 2419 4116 
L 825 1625 
L 2419 1625 
L 2419 4116 
z
M 2253 4666 
L 3047 4666 
L 3047 1625 
L 3713 1625 
L 3713 1100 
L 3047 1100 
L 3047 0 
L 2419 0 
L 2419 1100 
L 313 1100 
L 313 1709 
L 2253 4666 
z
" id="DejaVuSans-34" transform="scale(0.015625)"/>
       </defs>
       <use xlink:href="#DejaVuSans-30"/>
       <use x="63.623047" xlink:href="#DejaVuSans-2e"/>
       <use x="95.410156" xlink:href="#DejaVuSans-30"/>
       <use x="159.033203" xlink:href="#DejaVuSans-30"/>
       <use x="222.65625" xlink:href="#DejaVuSans-34"/>
      </g>
     </g>
    </g>
    <g id="xtick_4">
     <g id="line2d_7">
      <path clip-path="url(#p632cdba7df)" d="M 225.791579 231.64 
L 225.791579 41.28 
" style="fill:none;stroke:#b0b0b0;stroke-linecap:square;stroke-width:0.8;"/>
     </g>
     <g id="line2d_8">
      <g>
       <use style="stroke:#000000;stroke-width:0.8;" x="225.791579" xlink:href="#m26e46494a8" y="231.64"/>
      </g>
     </g>
     <g id="text_4">
      <!-- 0.006 -->
      <g transform="translate(211.477517 246.238438)scale(0.1 -0.1)">
       <defs>
        <path d="M 2113 2584 
Q 1688 2584 1439 2293 
Q 1191 2003 1191 1497 
Q 1191 994 1439 701 
Q 1688 409 2113 409 
Q 2538 409 2786 701 
Q 3034 994 3034 1497 
Q 3034 2003 2786 2293 
Q 2538 2584 2113 2584 
z
M 3366 4563 
L 3366 3988 
Q 3128 4100 2886 4159 
Q 2644 4219 2406 4219 
Q 1781 4219 1451 3797 
Q 1122 3375 1075 2522 
Q 1259 2794 1537 2939 
Q 1816 3084 2150 3084 
Q 2853 3084 3261 2657 
Q 3669 2231 3669 1497 
Q 3669 778 3244 343 
Q 2819 -91 2113 -91 
Q 1303 -91 875 529 
Q 447 1150 447 2328 
Q 447 3434 972 4092 
Q 1497 4750 2381 4750 
Q 2619 4750 2861 4703 
Q 3103 4656 3366 4563 
z
" id="DejaVuSans-36" transform="scale(0.015625)"/>
       </defs>
       <use xlink:href="#DejaVuSans-30"/>
       <use x="63.623047" xlink:href="#DejaVuSans-2e"/>
       <use x="95.410156" xlink:href="#DejaVuSans-30"/>
       <use x="159.033203" xlink:href="#DejaVuSans-30"/>
       <use x="222.65625" xlink:href="#DejaVuSans-36"/>
      </g>
     </g>
    </g>
    <g id="text_5">
     <!-- x (m) -->
     <g transform="translate(165.969687 259.916562)scale(0.1 -0.1)">
      <defs>
       <path d="M 3513 3500 
L 2247 1797 
L 3578 0 
L 2900 0 
L 1881 1375 
L 863 0 
L 184 0 
L 1544 1831 
L 300 3500 
L 978 3500 
L 1906 2253 
L 2834 3500 
L 3513 3500 
z
" id="DejaVuSans-78" transform="scale(0.015625)"/>
       <path id="DejaVuSans-20" transform="scale(0.015625)"/>
       <path d="M 1984 4856 
Q 1566 4138 1362 3434 
Q 1159 2731 1159 2009 
Q 1159 1288 1364 580 
Q 1569 -128 1984 -844 
L 1484 -844 
Q 1016 -109 783 600 
Q 550 1309 550 2009 
Q 550 2706 781 3412 
Q 1013 4119 1484 4856 
L 1984 4856 
z
" id="DejaVuSans-28" transform="scale(0.015625)"/>
       <path d="M 3328 2828 
Q 3544 3216 3844 3400 
Q 4144 3584 4550 3584 
Q 5097 3584 5394 3201 
Q 5691 2819 5691 2113 
L 5691 0 
L 5113 0 
L 5113 2094 
Q 5113 2597 4934 2840 
Q 4756 3084 4391 3084 
Q 3944 3084 3684 2787 
Q 3425 2491 3425 1978 
L 3425 0 
L 2847 0 
L 2847 2094 
Q 2847 2600 2669 2842 
Q 2491 3084 2119 3084 
Q 1678 3084 1418 2786 
Q 1159 2488 1159 1978 
L 1159 0 
L 581 0 
L 581 3500 
L 1159 3500 
L 1159 2956 
Q 1356 3278 1631 3431 
Q 1906 3584 2284 3584 
Q 2666 3584 2933 3390 
Q 3200 3197 3328 2828 
z
" id="DejaVuSans-6d" transform="scale(0.015625)"/>
       <path d="M 513 4856 
L 1013 4856 
Q 1481 4119 1714 3412 
Q 1947 2706 1947 2009 
Q 1947 1309 1714 600 
Q 1481 -109 1013 -844 
L 513 -844 
Q 928 -128 1133 580 
Q 1338 1288 1338 2009 
Q 1338 2731 1133 3434 
Q 928 4138 513 4856 
z
" id="DejaVuSans-29" transform="scale(0.015625)"/>
      </defs>
      <use xlink:href="#DejaVuSans-78"/>
      <use x="59.179688" xlink:href="#DejaVuSans-20"/>
      <use x="90.966797" xlink:href="#DejaVuSans-28"/>
      <use x="129.980469" xlink:href="#DejaVuSans-6d"/>
      <use x="227.392578" xlink:href="#DejaVuSans-29"/>
     </g>
    </g>
   </g>
   <g id="matplotlib.axis_2">
    <g id="ytick_1">
     <g id="line2d_9">
      <path clip-path="url(#p632cdba7df)" d="M 97.49 208.12165 
L 261.09 208.12165 
" style="fill:none;stroke:#b0b0b0;stroke-linecap:square;stroke-width:0.8;"/>
     </g>
     <g id="line2d_10">
      <defs>
       <path d="M 0 0 
L -3.5 0 
" id="mdb784ddbb2" style="stroke:#000000;stroke-width:0.8;"/>
      </defs>
      <g>
       <use style="stroke:#000000;stroke-width:0.8;" x="97.49" xlink:href="#mdb784ddbb2" y="208.12165"/>
      </g>
     </g>
     <g id="text_6">
      <!-- −0.004 -->
      <g transform="translate(53.482188 211.920868)scale(0.1 -0.1)">
       <defs>
        <path d="M 678 2272 
L 4684 2272 
L 4684 1741 
L 678 1741 
L 678 2272 
z
" id="DejaVuSans-2212" transform="scale(0.015625)"/>
       </defs>
       <use xlink:href="#DejaVuSans-2212"/>
       <use x="83.789062" xlink:href="#DejaVuSans-30"/>
       <use x="147.412109" xlink:href="#DejaVuSans-2e"/>
       <use x="179.199219" xlink:href="#DejaVuSans-30"/>
       <use x="242.822266" xlink:href="#DejaVuSans-30"/>
       <use x="306.445312" xlink:href="#DejaVuSans-34"/>
      </g>
     </g>
    </g>
    <g id="ytick_2">
     <g id="line2d_11">
      <path clip-path="url(#p632cdba7df)" d="M 97.49 168.574419 
L 261.09 168.574419 
" style="fill:none;stroke:#b0b0b0;stroke-linecap:square;stroke-width:0.8;"/>
     </g>
     <g id="line2d_12">
      <g>
       <use style="stroke:#000000;stroke-width:0.8;" x="97.49" xlink:href="#mdb784ddbb2" y="168.574419"/>
      </g>
     </g>
     <g id="text_7">
      <!-- −0.003 -->
      <g transform="translate(53.482188 172.373638)scale(0.1 -0.1)">
       <defs>
        <path d="M 2597 2516 
Q 3050 2419 3304 2112 
Q 3559 1806 3559 1356 
Q 3559 666 3084 287 
Q 2609 -91 1734 -91 
Q 1441 -91 1130 -33 
Q 819 25 488 141 
L 488 750 
Q 750 597 1062 519 
Q 1375 441 1716 441 
Q 2309 441 2620 675 
Q 2931 909 2931 1356 
Q 2931 1769 2642 2001 
Q 2353 2234 1838 2234 
L 1294 2234 
L 1294 2753 
L 1863 2753 
Q 2328 2753 2575 2939 
Q 2822 3125 2822 3475 
Q 2822 3834 2567 4026 
Q 2313 4219 1838 4219 
Q 1578 4219 1281 4162 
Q 984 4106 628 3988 
L 628 4550 
Q 988 4650 1302 4700 
Q 1616 4750 1894 4750 
Q 2613 4750 3031 4423 
Q 3450 4097 3450 3541 
Q 3450 3153 3228 2886 
Q 3006 2619 2597 2516 
z
" id="DejaVuSans-33" transform="scale(0.015625)"/>
       </defs>
       <use xlink:href="#DejaVuSans-2212"/>
       <use x="83.789062" xlink:href="#DejaVuSans-30"/>
       <use x="147.412109" xlink:href="#DejaVuSans-2e"/>
       <use x="179.199219" xlink:href="#DejaVuSans-30"/>
       <use x="242.822266" xlink:href="#DejaVuSans-30"/>
       <use x="306.445312" xlink:href="#DejaVuSans-33"/>
      </g>
     </g>
    </g>
    <g id="ytick_3">
     <g id="line2d_13">
      <path clip-path="url(#p632cdba7df)" d="M 97.49 129.027188 
L 261.09 129.027188 
" style="fill:none;stroke:#b0b0b0;stroke-linecap:square;stroke-width:0.8;"/>
     </g>
     <g id="line2d_14">
      <g>
       <use style="stroke:#000000;stroke-width:0.8;" x="97.49" xlink:href="#mdb784ddbb2" y="129.027188"/>
      </g>
     </g>
     <g id="text_8">
      <!-- −0.002 -->
      <g transform="translate(53.482188 132.826407)scale(0.1 -0.1)">
       <use xlink:href="#DejaVuSans-2212"/>
       <use x="83.789062" xlink:href="#DejaVuSans-30"/>
       <use x="147.412109" xlink:href="#DejaVuSans-2e"/>
       <use x="179.199219" xlink:href="#DejaVuSans-30"/>
       <use x="242.822266" xlink:href="#DejaVuSans-30"/>
       <use x="306.445312" xlink:href="#DejaVuSans-32"/>
      </g>
     </g>
    </g>
    <g id="ytick_4">
     <g id="line2d_15">
      <path clip-path="url(#p632cdba7df)" d="M 97.49 89.479958 
L 261.09 89.479958 
" style="fill:none;stroke:#b0b0b0;stroke-linecap:square;stroke-width:0.8;"/>
     </g>
     <g id="line2d_16">
      <g>
       <use style="stroke:#000000;stroke-width:0.8;" x="97.49" xlink:href="#mdb784ddbb2" y="89.479958"/>
      </g>
     </g>
     <g id="text_9">
      <!-- −0.001 -->
      <g transform="translate(53.482188 93.279177)scale(0.1 -0.1)">
       <defs>
        <path d="M 794 531 
L 1825 531 
L 1825 4091 
L 703 3866 
L 703 4441 
L 1819 4666 
L 2450 4666 
L 2450 531 
L 3481 531 
L 3481 0 
L 794 0 
L 794 531 
z
" id="DejaVuSans-31" transform="scale(0.015625)"/>
       </defs>
       <use xlink:href="#DejaVuSans-2212"/>
       <use x="83.789062" xlink:href="#DejaVuSans-30"/>
       <use x="147.412109" xlink:href="#DejaVuSans-2e"/>
       <use x="179.199219" xlink:href="#DejaVuSans-30"/>
       <use x="242.822266" xlink:href="#DejaVuSans-30"/>
       <use x="306.445312" xlink:href="#DejaVuSans-31"/>
      </g>
     </g>
    </g>
    <g id="ytick_5">
     <g id="line2d_17">
      <path clip-path="url(#p632cdba7df)" d="M 97.49 49.932727 
L 261.09 49.932727 
" style="fill:none;stroke:#b0b0b0;stroke-linecap:square;stroke-width:0.8;"/>
     </g>
     <g id="line2d_18">
      <g>
       <use style="stroke:#000000;stroke-width:0.8;" x="97.49" xlink:href="#mdb784ddbb2" y="49.932727"/>
      </g>
     </g>
     <g id="text_10">
      <!-- 0.000 -->
      <g transform="translate(61.861875 53.731946)scale(0.1 -0.1)">
       <use xlink:href="#DejaVuSans-30"/>
       <use x="63.623047" xlink:href="#DejaVuSans-2e"/>
       <use x="95.410156" xlink:href="#DejaVuSans-30"/>
       <use x="159.033203" xlink:href="#DejaVuSans-30"/>
       <use x="222.65625" xlink:href="#DejaVuSans-30"/>
      </g>
     </g>
    </g>
    <g id="text_11">
     <!-- y (m) -->
     <g transform="translate(47.4025 149.780313)rotate(-90)scale(0.1 -0.1)">
      <defs>
       <path d="M 2059 -325 
Q 1816 -950 1584 -1140 
Q 1353 -1331 966 -1331 
L 506 -1331 
L 506 -850 
L 844 -850 
Q 1081 -850 1212 -737 
Q 1344 -625 1503 -206 
L 1606 56 
L 191 3500 
L 800 3500 
L 1894 763 
L 2988 3500 
L 3597 3500 
L 2059 -325 
z
" id="DejaVuSans-79" transform="scale(0.015625)"/>
      </defs>
      <use xlink:href="#DejaVuSans-79"/>
      <use x="59.179688" xlink:href="#DejaVuSans-20"/>
      <use x="90.966797" xlink:href="#DejaVuSans-28"/>
      <use x="129.980469" xlink:href="#DejaVuSans-6d"/>
      <use x="227.392578" xlink:href="#DejaVuSans-29"/>
     </g>
    </g>
   </g>
   <g id="line2d_19">
    <path clip-path="url(#p632cdba7df)" d="M 104.926364 49.932727 
L 104.926364 49.932727 
" style="fill:none;stroke:#1f77b4;stroke-linecap:square;stroke-opacity:0.7;stroke-width:1.5;"/>
   </g>
   <g id="line2d_20">
    <path clip-path="url(#p632cdba7df)" d="M 104.926364 49.932727 
L 112.837966 59.824547 
L 120.518104 68.870075 
L 135.606796 86.606547 
L 144.912034 97.92375 
L 158.183845 114.435715 
L 177.078384 138.326667 
L 199.162043 166.230951 
L 215.017085 185.858572 
L 225.140029 198.078708 
L 231.788267 205.77889 
L 237.550747 212.098535 
L 241.657742 216.287356 
L 244.488192 218.917734 
L 246.916518 220.893155 
L 248.476424 221.942711 
L 249.816052 222.626838 
L 250.940831 222.955036 
L 251.858034 222.938631 
L 252.35839 222.741884 
L 252.772975 222.40002 
L 253.104514 221.915801 
L 253.451961 220.928773 
L 253.627535 219.638304 
L 253.640466 218.057657 
L 253.421949 215.527297 
L 252.807087 211.748021 
L 251.864006 207.365634 
L 250.094322 200.37093 
L 247.249728 190.24514 
L 240.703855 168.14842 
L 235.804521 151.179456 
L 232.804243 140.043703 
L 230.360671 130.120952 
L 228.672014 122.408854 
L 227.333434 115.269076 
L 226.418721 109.139144 
L 225.927455 104.35854 
L 225.792356 100.970954 
L 225.922632 99.337201 
L 226.020309 99.14005 
L 226.048671 99.284802 
L 225.908017 99.622794 
L 225.641383 99.761415 
L 225.287743 99.667989 
L 224.841043 99.290889 
L 224.257363 98.480372 
L 223.544023 97.079409 
L 222.731009 94.952097 
L 221.877532 92.02863 
L 221.119843 88.614985 
L 220.469605 84.614913 
L 220.02541 80.530378 
L 219.789027 76.339444 
L 219.792207 72.361688 
L 220.012363 69.106336 
L 220.385113 66.684267 
L 220.813999 65.177581 
L 221.240307 64.381697 
L 221.601817 64.09762 
L 221.917521 64.094394 
L 222.262193 64.321698 
L 222.724134 64.941006 
L 223.660392 66.270476 
L 223.92973 66.274156 
L 224.241859 66.0223 
L 225.447715 64.808208 
L 225.604966 65.055946 
L 225.746876 65.776469 
L 226.069031 67.662223 
L 226.179066 67.920198 
L 226.290487 67.971821 
L 226.319638 67.952629 
L 226.698 67.561029 
L 226.668395 67.581998 
" style="fill:none;stroke:#d62728;stroke-linecap:square;stroke-opacity:0.7;stroke-width:1.5;"/>
   </g>
   <g id="line2d_21">
    <path clip-path="url(#p632cdba7df)" d="M 104.926364 49.932727 
L 104.926364 49.932727 
" style="fill:none;stroke:#000000;stroke-dasharray:5.55,2.4;stroke-dashoffset:0;stroke-opacity:0.595;stroke-width:1.5;"/>
   </g>
   <g id="patch_3">
    <path d="M 97.49 231.64 
L 97.49 41.28 
" style="fill:none;stroke:#000000;stroke-linecap:square;stroke-linejoin:miter;stroke-width:0.8;"/>
   </g>
   <g id="patch_4">
    <path d="M 261.09 231.64 
L 261.09 41.28 
" style="fill:none;stroke:#000000;stroke-linecap:square;stroke-linejoin:miter;stroke-width:0.8;"/>
   </g>
   <g id="patch_5">
    <path d="M 97.49 231.64 
L 261.09 231.64 
" style="fill:none;stroke:#000000;stroke-linecap:square;stroke-linejoin:miter;stroke-width:0.8;"/>
   </g>
   <g id="patch_6">
    <path d="M 97.49 41.28 
L 261.09 41.28 
" style="fill:none;stroke:#000000;stroke-linecap:square;stroke-linejoin:miter;stroke-width:0.8;"/>
   </g>
   <g id="text_12">
    <!-- Plano xy -->
    <g transform="translate(153.845312 35.28)scale(0.12 -0.12)">
     <defs>
      <path d="M 1259 4147 
L 1259 2394 
L 2053 2394 
Q 2494 2394 2734 2622 
Q 2975 2850 2975 3272 
Q 2975 3691 2734 3919 
Q 2494 4147 2053 4147 
L 1259 4147 
z
M 628 4666 
L 2053 4666 
Q 2838 4666 3239 4311 
Q 3641 3956 3641 3272 
Q 3641 2581 3239 2228 
Q 2838 1875 2053 1875 
L 1259 1875 
L 1259 0 
L 628 0 
L 628 4666 
z
" id="DejaVuSans-50" transform="scale(0.015625)"/>
      <path d="M 603 4863 
L 1178 4863 
L 1178 0 
L 603 0 
L 603 4863 
z
" id="DejaVuSans-6c" transform="scale(0.015625)"/>
      <path d="M 2194 1759 
Q 1497 1759 1228 1600 
Q 959 1441 959 1056 
Q 959 750 1161 570 
Q 1363 391 1709 391 
Q 2188 391 2477 730 
Q 2766 1069 2766 1631 
L 2766 1759 
L 2194 1759 
z
M 3341 1997 
L 3341 0 
L 2766 0 
L 2766 531 
Q 2569 213 2275 61 
Q 1981 -91 1556 -91 
Q 1019 -91 701 211 
Q 384 513 384 1019 
Q 384 1609 779 1909 
Q 1175 2209 1959 2209 
L 2766 2209 
L 2766 2266 
Q 2766 2663 2505 2880 
Q 2244 3097 1772 3097 
Q 1472 3097 1187 3025 
Q 903 2953 641 2809 
L 641 3341 
Q 956 3463 1253 3523 
Q 1550 3584 1831 3584 
Q 2591 3584 2966 3190 
Q 3341 2797 3341 1997 
z
" id="DejaVuSans-61" transform="scale(0.015625)"/>
      <path d="M 3513 2113 
L 3513 0 
L 2938 0 
L 2938 2094 
Q 2938 2591 2744 2837 
Q 2550 3084 2163 3084 
Q 1697 3084 1428 2787 
Q 1159 2491 1159 1978 
L 1159 0 
L 581 0 
L 581 3500 
L 1159 3500 
L 1159 2956 
Q 1366 3272 1645 3428 
Q 1925 3584 2291 3584 
Q 2894 3584 3203 3211 
Q 3513 2838 3513 2113 
z
" id="DejaVuSans-6e" transform="scale(0.015625)"/>
      <path d="M 1959 3097 
Q 1497 3097 1228 2736 
Q 959 2375 959 1747 
Q 959 1119 1226 758 
Q 1494 397 1959 397 
Q 2419 397 2687 759 
Q 2956 1122 2956 1747 
Q 2956 2369 2687 2733 
Q 2419 3097 1959 3097 
z
M 1959 3584 
Q 2709 3584 3137 3096 
Q 3566 2609 3566 1747 
Q 3566 888 3137 398 
Q 2709 -91 1959 -91 
Q 1206 -91 779 398 
Q 353 888 353 1747 
Q 353 2609 779 3096 
Q 1206 3584 1959 3584 
z
" id="DejaVuSans-6f" transform="scale(0.015625)"/>
     </defs>
     <use xlink:href="#DejaVuSans-50"/>
     <use x="60.302734" xlink:href="#DejaVuSans-6c"/>
     <use x="88.085938" xlink:href="#DejaVuSans-61"/>
     <use x="149.365234" xlink:href="#DejaVuSans-6e"/>
     <use x="212.744141" xlink:href="#DejaVuSans-6f"/>
     <use x="273.925781" xlink:href="#DejaVuSans-20"/>
     <use x="305.712891" xlink:href="#DejaVuSans-78"/>
     <use x="364.892578" xlink:href="#DejaVuSans-79"/>
    </g>
   </g>
  </g>
  <g id="axes_2">
   <g id="patch_7">
    <path d="M 315.2 231.64 
L 478.8 231.64 
L 478.8 41.28 
L 315.2 41.28 
z
" style="fill:#ffffff;"/>
   </g>
   <g id="matplotlib.axis_3">
    <g id="xtick_5">
     <g id="line2d_22">
      <path clip-path="url(#pc5260261e7)" d="M 322.636364 231.64 
L 322.636364 41.28 
" style="fill:none;stroke:#b0b0b0;stroke-linecap:square;stroke-width:0.8;"/>
     </g>
     <g id="line2d_23">
      <g>
       <use style="stroke:#000000;stroke-width:0.8;" x="322.636364" xlink:href="#m26e46494a8" y="231.64"/>
      </g>
     </g>
     <g id="text_13">
      <!-- 0 -->
      <g transform="translate(319.455114 246.238438)scale(0.1 -0.1)">
       <use xlink:href="#DejaVuSans-30"/>
      </g>
     </g>
    </g>
    <g id="xtick_6">
     <g id="line2d_24">
      <path clip-path="url(#pc5260261e7)" d="M 372.219008 231.64 
L 372.219008 41.28 
" style="fill:none;stroke:#b0b0b0;stroke-linecap:square;stroke-width:0.8;"/>
     </g>
     <g id="line2d_25">
      <g>
       <use style="stroke:#000000;stroke-width:0.8;" x="372.219008" xlink:href="#m26e46494a8" y="231.64"/>
      </g>
     </g>
     <g id="text_14">
      <!-- 10 -->
      <g transform="translate(365.856508 246.238438)scale(0.1 -0.1)">
       <use xlink:href="#DejaVuSans-31"/>
       <use x="63.623047" xlink:href="#DejaVuSans-30"/>
      </g>
     </g>
    </g>
    <g id="xtick_7">
     <g id="line2d_26">
      <path clip-path="url(#pc5260261e7)" d="M 421.801652 231.64 
L 421.801652 41.28 
" style="fill:none;stroke:#b0b0b0;stroke-linecap:square;stroke-width:0.8;"/>
     </g>
     <g id="line2d_27">
      <g>
       <use style="stroke:#000000;stroke-width:0.8;" x="421.801652" xlink:href="#m26e46494a8" y="231.64"/>
      </g>
     </g>
     <g id="text_15">
      <!-- 20 -->
      <g transform="translate(415.439152 246.238438)scale(0.1 -0.1)">
       <use xlink:href="#DejaVuSans-32"/>
       <use x="63.623047" xlink:href="#DejaVuSans-30"/>
      </g>
     </g>
    </g>
    <g id="xtick_8">
     <g id="line2d_28">
      <path clip-path="url(#pc5260261e7)" d="M 471.384296 231.64 
L 471.384296 41.28 
" style="fill:none;stroke:#b0b0b0;stroke-linecap:square;stroke-width:0.8;"/>
     </g>
     <g id="line2d_29">
      <g>
       <use style="stroke:#000000;stroke-width:0.8;" x="471.384296" xlink:href="#m26e46494a8" y="231.64"/>
      </g>
     </g>
     <g id="text_16">
      <!-- 30 -->
      <g transform="translate(465.021796 246.238438)scale(0.1 -0.1)">
       <use xlink:href="#DejaVuSans-33"/>
       <use x="63.623047" xlink:href="#DejaVuSans-30"/>
      </g>
     </g>
    </g>
    <g id="text_17">
     <!-- Tiempo (s) -->
     <g transform="translate(370.4375 259.916562)scale(0.1 -0.1)">
      <defs>
       <path d="M -19 4666 
L 3928 4666 
L 3928 4134 
L 2272 4134 
L 2272 0 
L 1638 0 
L 1638 4134 
L -19 4134 
L -19 4666 
z
" id="DejaVuSans-54" transform="scale(0.015625)"/>
       <path d="M 603 3500 
L 1178 3500 
L 1178 0 
L 603 0 
L 603 3500 
z
M 603 4863 
L 1178 4863 
L 1178 4134 
L 603 4134 
L 603 4863 
z
" id="DejaVuSans-69" transform="scale(0.015625)"/>
       <path d="M 3597 1894 
L 3597 1613 
L 953 1613 
Q 991 1019 1311 708 
Q 1631 397 2203 397 
Q 2534 397 2845 478 
Q 3156 559 3463 722 
L 3463 178 
Q 3153 47 2828 -22 
Q 2503 -91 2169 -91 
Q 1331 -91 842 396 
Q 353 884 353 1716 
Q 353 2575 817 3079 
Q 1281 3584 2069 3584 
Q 2775 3584 3186 3129 
Q 3597 2675 3597 1894 
z
M 3022 2063 
Q 3016 2534 2758 2815 
Q 2500 3097 2075 3097 
Q 1594 3097 1305 2825 
Q 1016 2553 972 2059 
L 3022 2063 
z
" id="DejaVuSans-65" transform="scale(0.015625)"/>
       <path d="M 1159 525 
L 1159 -1331 
L 581 -1331 
L 581 3500 
L 1159 3500 
L 1159 2969 
Q 1341 3281 1617 3432 
Q 1894 3584 2278 3584 
Q 2916 3584 3314 3078 
Q 3713 2572 3713 1747 
Q 3713 922 3314 415 
Q 2916 -91 2278 -91 
Q 1894 -91 1617 61 
Q 1341 213 1159 525 
z
M 3116 1747 
Q 3116 2381 2855 2742 
Q 2594 3103 2138 3103 
Q 1681 3103 1420 2742 
Q 1159 2381 1159 1747 
Q 1159 1113 1420 752 
Q 1681 391 2138 391 
Q 2594 391 2855 752 
Q 3116 1113 3116 1747 
z
" id="DejaVuSans-70" transform="scale(0.015625)"/>
       <path d="M 2834 3397 
L 2834 2853 
Q 2591 2978 2328 3040 
Q 2066 3103 1784 3103 
Q 1356 3103 1142 2972 
Q 928 2841 928 2578 
Q 928 2378 1081 2264 
Q 1234 2150 1697 2047 
L 1894 2003 
Q 2506 1872 2764 1633 
Q 3022 1394 3022 966 
Q 3022 478 2636 193 
Q 2250 -91 1575 -91 
Q 1294 -91 989 -36 
Q 684 19 347 128 
L 347 722 
Q 666 556 975 473 
Q 1284 391 1588 391 
Q 1994 391 2212 530 
Q 2431 669 2431 922 
Q 2431 1156 2273 1281 
Q 2116 1406 1581 1522 
L 1381 1569 
Q 847 1681 609 1914 
Q 372 2147 372 2553 
Q 372 3047 722 3315 
Q 1072 3584 1716 3584 
Q 2034 3584 2315 3537 
Q 2597 3491 2834 3397 
z
" id="DejaVuSans-73" transform="scale(0.015625)"/>
      </defs>
      <use xlink:href="#DejaVuSans-54"/>
      <use x="57.958984" xlink:href="#DejaVuSans-69"/>
      <use x="85.742188" xlink:href="#DejaVuSans-65"/>
      <use x="147.265625" xlink:href="#DejaVuSans-6d"/>
      <use x="244.677734" xlink:href="#DejaVuSans-70"/>
      <use x="308.154297" xlink:href="#DejaVuSans-6f"/>
      <use x="369.335938" xlink:href="#DejaVuSans-20"/>
      <use x="401.123047" xlink:href="#DejaVuSans-28"/>
      <use x="440.136719" xlink:href="#DejaVuSans-73"/>
      <use x="492.236328" xlink:href="#DejaVuSans-29"/>
     </g>
    </g>
   </g>
   <g id="matplotlib.axis_4">
    <g id="ytick_6">
     <g id="line2d_30">
      <path clip-path="url(#pc5260261e7)" d="M 315.2 216.077977 
L 478.8 216.077977 
" style="fill:none;stroke:#b0b0b0;stroke-linecap:square;stroke-width:0.8;"/>
     </g>
     <g id="line2d_31">
      <g>
       <use style="stroke:#000000;stroke-width:0.8;" x="315.2" xlink:href="#mdb784ddbb2" y="216.077977"/>
      </g>
     </g>
     <g id="text_18">
      <!-- 0.99 -->
      <g transform="translate(285.934375 219.877195)scale(0.1 -0.1)">
       <defs>
        <path d="M 703 97 
L 703 672 
Q 941 559 1184 500 
Q 1428 441 1663 441 
Q 2288 441 2617 861 
Q 2947 1281 2994 2138 
Q 2813 1869 2534 1725 
Q 2256 1581 1919 1581 
Q 1219 1581 811 2004 
Q 403 2428 403 3163 
Q 403 3881 828 4315 
Q 1253 4750 1959 4750 
Q 2769 4750 3195 4129 
Q 3622 3509 3622 2328 
Q 3622 1225 3098 567 
Q 2575 -91 1691 -91 
Q 1453 -91 1209 -44 
Q 966 3 703 97 
z
M 1959 2075 
Q 2384 2075 2632 2365 
Q 2881 2656 2881 3163 
Q 2881 3666 2632 3958 
Q 2384 4250 1959 4250 
Q 1534 4250 1286 3958 
Q 1038 3666 1038 3163 
Q 1038 2656 1286 2365 
Q 1534 2075 1959 2075 
z
" id="DejaVuSans-39" transform="scale(0.015625)"/>
       </defs>
       <use xlink:href="#DejaVuSans-30"/>
       <use x="63.623047" xlink:href="#DejaVuSans-2e"/>
       <use x="95.410156" xlink:href="#DejaVuSans-39"/>
       <use x="159.033203" xlink:href="#DejaVuSans-39"/>
      </g>
     </g>
    </g>
    <g id="ytick_7">
     <g id="line2d_32">
      <path clip-path="url(#pc5260261e7)" d="M 315.2 183.192319 
L 478.8 183.192319 
" style="fill:none;stroke:#b0b0b0;stroke-linecap:square;stroke-width:0.8;"/>
     </g>
     <g id="line2d_33">
      <g>
       <use style="stroke:#000000;stroke-width:0.8;" x="315.2" xlink:href="#mdb784ddbb2" y="183.192319"/>
      </g>
     </g>
     <g id="text_19">
      <!-- 1.00 -->
      <g transform="translate(285.934375 186.991538)scale(0.1 -0.1)">
       <use xlink:href="#DejaVuSans-31"/>
       <use x="63.623047" xlink:href="#DejaVuSans-2e"/>
       <use x="95.410156" xlink:href="#DejaVuSans-30"/>
       <use x="159.033203" xlink:href="#DejaVuSans-30"/>
      </g>
     </g>
    </g>
    <g id="ytick_8">
     <g id="line2d_34">
      <path clip-path="url(#pc5260261e7)" d="M 315.2 150.306661 
L 478.8 150.306661 
" style="fill:none;stroke:#b0b0b0;stroke-linecap:square;stroke-width:0.8;"/>
     </g>
     <g id="line2d_35">
      <g>
       <use style="stroke:#000000;stroke-width:0.8;" x="315.2" xlink:href="#mdb784ddbb2" y="150.306661"/>
      </g>
     </g>
     <g id="text_20">
      <!-- 1.01 -->
      <g transform="translate(285.934375 154.10588)scale(0.1 -0.1)">
       <use xlink:href="#DejaVuSans-31"/>
       <use x="63.623047" xlink:href="#DejaVuSans-2e"/>
       <use x="95.410156" xlink:href="#DejaVuSans-30"/>
       <use x="159.033203" xlink:href="#DejaVuSans-31"/>
      </g>
     </g>
    </g>
    <g id="ytick_9">
     <g id="line2d_36">
      <path clip-path="url(#pc5260261e7)" d="M 315.2 117.421004 
L 478.8 117.421004 
" style="fill:none;stroke:#b0b0b0;stroke-linecap:square;stroke-width:0.8;"/>
     </g>
     <g id="line2d_37">
      <g>
       <use style="stroke:#000000;stroke-width:0.8;" x="315.2" xlink:href="#mdb784ddbb2" y="117.421004"/>
      </g>
     </g>
     <g id="text_21">
      <!-- 1.02 -->
      <g transform="translate(285.934375 121.220222)scale(0.1 -0.1)">
       <use xlink:href="#DejaVuSans-31"/>
       <use x="63.623047" xlink:href="#DejaVuSans-2e"/>
       <use x="95.410156" xlink:href="#DejaVuSans-30"/>
       <use x="159.033203" xlink:href="#DejaVuSans-32"/>
      </g>
     </g>
    </g>
    <g id="ytick_10">
     <g id="line2d_38">
      <path clip-path="url(#pc5260261e7)" d="M 315.2 84.535346 
L 478.8 84.535346 
" style="fill:none;stroke:#b0b0b0;stroke-linecap:square;stroke-width:0.8;"/>
     </g>
     <g id="line2d_39">
      <g>
       <use style="stroke:#000000;stroke-width:0.8;" x="315.2" xlink:href="#mdb784ddbb2" y="84.535346"/>
      </g>
     </g>
     <g id="text_22">
      <!-- 1.03 -->
      <g transform="translate(285.934375 88.334565)scale(0.1 -0.1)">
       <use xlink:href="#DejaVuSans-31"/>
       <use x="63.623047" xlink:href="#DejaVuSans-2e"/>
       <use x="95.410156" xlink:href="#DejaVuSans-30"/>
       <use x="159.033203" xlink:href="#DejaVuSans-33"/>
      </g>
     </g>
    </g>
    <g id="ytick_11">
     <g id="line2d_40">
      <path clip-path="url(#pc5260261e7)" d="M 315.2 51.649688 
L 478.8 51.649688 
" style="fill:none;stroke:#b0b0b0;stroke-linecap:square;stroke-width:0.8;"/>
     </g>
     <g id="line2d_41">
      <g>
       <use style="stroke:#000000;stroke-width:0.8;" x="315.2" xlink:href="#mdb784ddbb2" y="51.649688"/>
      </g>
     </g>
     <g id="text_23">
      <!-- 1.04 -->
      <g transform="translate(285.934375 55.448907)scale(0.1 -0.1)">
       <use xlink:href="#DejaVuSans-31"/>
       <use x="63.623047" xlink:href="#DejaVuSans-2e"/>
       <use x="95.410156" xlink:href="#DejaVuSans-30"/>
       <use x="159.033203" xlink:href="#DejaVuSans-34"/>
      </g>
     </g>
    </g>
    <g id="text_24">
     <!-- z (m) -->
     <g transform="translate(279.854688 149.445156)rotate(-90)scale(0.1 -0.1)">
      <defs>
       <path d="M 353 3500 
L 3084 3500 
L 3084 2975 
L 922 459 
L 3084 459 
L 3084 0 
L 275 0 
L 275 525 
L 2438 3041 
L 353 3041 
L 353 3500 
z
" id="DejaVuSans-7a" transform="scale(0.015625)"/>
      </defs>
      <use xlink:href="#DejaVuSans-7a"/>
      <use x="52.490234" xlink:href="#DejaVuSans-20"/>
      <use x="84.277344" xlink:href="#DejaVuSans-28"/>
      <use x="123.291016" xlink:href="#DejaVuSans-6d"/>
      <use x="220.703125" xlink:href="#DejaVuSans-29"/>
     </g>
    </g>
   </g>
   <g id="line2d_42">
    <path clip-path="url(#pc5260261e7)" d="M 322.636364 183.751832 
L 322.884277 187.496728 
L 323.111531 188.28586 
L 323.256147 188.260478 
L 323.50406 187.851929 
L 324.888242 185.180434 
L 325.631982 184.35594 
L 326.458359 183.774707 
L 327.429353 183.369256 
L 328.710238 183.090306 
L 330.631565 182.923833 
L 334.47422 182.859981 
L 358.852353 182.912818 
L 471.363636 183.081169 
L 471.363636 183.081169 
" style="fill:none;stroke:#1f77b4;stroke-linecap:square;stroke-opacity:0.7;stroke-width:1.5;"/>
   </g>
   <g id="line2d_43">
    <path clip-path="url(#pc5260261e7)" d="M 322.636364 183.751832 
L 323.710654 209.756007 
L 324.413075 222.621531 
L 324.516372 222.987273 
L 324.557691 222.911236 
L 324.660988 222.138664 
L 324.846923 218.721889 
L 325.218793 206.656887 
L 326.582316 161.242925 
L 327.594628 134.422653 
L 328.586281 113.813518 
L 329.391999 101.491351 
L 330.46629 88.04822 
L 331.499261 78.088581 
L 332.470255 70.860998 
L 333.399929 65.509501 
L 334.308944 61.493234 
L 335.21796 58.454537 
L 336.126975 56.179225 
L 337.056649 54.439488 
L 338.027643 53.08572 
L 339.039955 52.048864 
L 340.114246 51.262829 
L 341.312493 50.660993 
L 342.655356 50.236752 
L 344.163495 49.998538 
L 346.064163 49.934868 
L 349.328354 50.088523 
L 355.174974 50.334441 
L 362.488414 50.353043 
L 397.940004 50.338493 
L 471.363636 50.338494 
L 471.363636 50.338494 
" style="fill:none;stroke:#d62728;stroke-linecap:square;stroke-opacity:0.7;stroke-width:1.5;"/>
   </g>
   <g id="line2d_44">
    <path clip-path="url(#pc5260261e7)" d="M 322.636364 183.192319 
L 471.363636 183.192319 
L 471.363636 183.192319 
" style="fill:none;stroke:#000000;stroke-dasharray:5.55,2.4;stroke-dashoffset:0;stroke-opacity:0.595;stroke-width:1.5;"/>
   </g>
   <g id="patch_8">
    <path d="M 315.2 231.64 
L 315.2 41.28 
" style="fill:none;stroke:#000000;stroke-linecap:square;stroke-linejoin:miter;stroke-width:0.8;"/>
   </g>
   <g id="patch_9">
    <path d="M 478.8 231.64 
L 478.8 41.28 
" style="fill:none;stroke:#000000;stroke-linecap:square;stroke-linejoin:miter;stroke-width:0.8;"/>
   </g>
   <g id="patch_10">
    <path d="M 315.2 231.64 
L 478.8 231.64 
" style="fill:none;stroke:#000000;stroke-linecap:square;stroke-linejoin:miter;stroke-width:0.8;"/>
   </g>
   <g id="patch_11">
    <path d="M 315.2 41.28 
L 478.8 41.28 
" style="fill:none;stroke:#000000;stroke-linecap:square;stroke-linejoin:miter;stroke-width:0.8;"/>
   </g>
   <g id="text_25">
    <!-- Plano z -->
    <g transform="translate(375.50875 35.28)scale(0.12 -0.12)">
     <use xlink:href="#DejaVuSans-50"/>
     <use x="60.302734" xlink:href="#DejaVuSans-6c"/>
     <use x="88.085938" xlink:href="#DejaVuSans-61"/>
     <use x="149.365234" xlink:href="#DejaVuSans-6e"/>
     <use x="212.744141" xlink:href="#DejaVuSans-6f"/>
     <use x="273.925781" xlink:href="#DejaVuSans-20"/>
     <use x="305.712891" xlink:href="#DejaVuSans-7a"/>
    </g>
   </g>
  </g>
  <g id="legend_1">
   <g id="patch_12">
    <path d="M 483.89375 167.517188 
L 569 167.517188 
Q 571 167.517188 571 165.517188 
L 571 122.482812 
Q 571 120.482812 569 120.482812 
L 483.89375 120.482812 
Q 481.89375 120.482812 481.89375 122.482812 
L 481.89375 165.517188 
Q 481.89375 167.517188 483.89375 167.517188 
z
" style="fill:#ffffff;opacity:0.8;stroke:#cccccc;stroke-linejoin:miter;"/>
   </g>
   <g id="line2d_45">
    <path d="M 485.89375 128.58125 
L 505.89375 128.58125 
" style="fill:none;stroke:#1f77b4;stroke-linecap:square;stroke-opacity:0.7;stroke-width:1.5;"/>
   </g>
   <g id="line2d_46"/>
   <g id="text_26">
    <!-- DSLPID -->
    <g transform="translate(513.89375 132.08125)scale(0.1 -0.1)">
     <defs>
      <path d="M 1259 4147 
L 1259 519 
L 2022 519 
Q 2988 519 3436 956 
Q 3884 1394 3884 2338 
Q 3884 3275 3436 3711 
Q 2988 4147 2022 4147 
L 1259 4147 
z
M 628 4666 
L 1925 4666 
Q 3281 4666 3915 4102 
Q 4550 3538 4550 2338 
Q 4550 1131 3912 565 
Q 3275 0 1925 0 
L 628 0 
L 628 4666 
z
" id="DejaVuSans-44" transform="scale(0.015625)"/>
      <path d="M 3425 4513 
L 3425 3897 
Q 3066 4069 2747 4153 
Q 2428 4238 2131 4238 
Q 1616 4238 1336 4038 
Q 1056 3838 1056 3469 
Q 1056 3159 1242 3001 
Q 1428 2844 1947 2747 
L 2328 2669 
Q 3034 2534 3370 2195 
Q 3706 1856 3706 1288 
Q 3706 609 3251 259 
Q 2797 -91 1919 -91 
Q 1588 -91 1214 -16 
Q 841 59 441 206 
L 441 856 
Q 825 641 1194 531 
Q 1563 422 1919 422 
Q 2459 422 2753 634 
Q 3047 847 3047 1241 
Q 3047 1584 2836 1778 
Q 2625 1972 2144 2069 
L 1759 2144 
Q 1053 2284 737 2584 
Q 422 2884 422 3419 
Q 422 4038 858 4394 
Q 1294 4750 2059 4750 
Q 2388 4750 2728 4690 
Q 3069 4631 3425 4513 
z
" id="DejaVuSans-53" transform="scale(0.015625)"/>
      <path d="M 628 4666 
L 1259 4666 
L 1259 531 
L 3531 531 
L 3531 0 
L 628 0 
L 628 4666 
z
" id="DejaVuSans-4c" transform="scale(0.015625)"/>
      <path d="M 628 4666 
L 1259 4666 
L 1259 0 
L 628 0 
L 628 4666 
z
" id="DejaVuSans-49" transform="scale(0.015625)"/>
     </defs>
     <use xlink:href="#DejaVuSans-44"/>
     <use x="77.001953" xlink:href="#DejaVuSans-53"/>
     <use x="140.478516" xlink:href="#DejaVuSans-4c"/>
     <use x="196.191406" xlink:href="#DejaVuSans-50"/>
     <use x="256.494141" xlink:href="#DejaVuSans-49"/>
     <use x="285.986328" xlink:href="#DejaVuSans-44"/>
    </g>
   </g>
   <g id="line2d_47">
    <path d="M 485.89375 143.259375 
L 505.89375 143.259375 
" style="fill:none;stroke:#d62728;stroke-linecap:square;stroke-opacity:0.7;stroke-width:1.5;"/>
   </g>
   <g id="line2d_48"/>
   <g id="text_27">
    <!-- LSTMCNN -->
    <g transform="translate(513.89375 146.759375)scale(0.1 -0.1)">
     <defs>
      <path d="M 628 4666 
L 1569 4666 
L 2759 1491 
L 3956 4666 
L 4897 4666 
L 4897 0 
L 4281 0 
L 4281 4097 
L 3078 897 
L 2444 897 
L 1241 4097 
L 1241 0 
L 628 0 
L 628 4666 
z
" id="DejaVuSans-4d" transform="scale(0.015625)"/>
      <path d="M 4122 4306 
L 4122 3641 
Q 3803 3938 3442 4084 
Q 3081 4231 2675 4231 
Q 1875 4231 1450 3742 
Q 1025 3253 1025 2328 
Q 1025 1406 1450 917 
Q 1875 428 2675 428 
Q 3081 428 3442 575 
Q 3803 722 4122 1019 
L 4122 359 
Q 3791 134 3420 21 
Q 3050 -91 2638 -91 
Q 1578 -91 968 557 
Q 359 1206 359 2328 
Q 359 3453 968 4101 
Q 1578 4750 2638 4750 
Q 3056 4750 3426 4639 
Q 3797 4528 4122 4306 
z
" id="DejaVuSans-43" transform="scale(0.015625)"/>
      <path d="M 628 4666 
L 1478 4666 
L 3547 763 
L 3547 4666 
L 4159 4666 
L 4159 0 
L 3309 0 
L 1241 3903 
L 1241 0 
L 628 0 
L 628 4666 
z
" id="DejaVuSans-4e" transform="scale(0.015625)"/>
     </defs>
     <use xlink:href="#DejaVuSans-4c"/>
     <use x="55.712891" xlink:href="#DejaVuSans-53"/>
     <use x="119.189453" xlink:href="#DejaVuSans-54"/>
     <use x="180.273438" xlink:href="#DejaVuSans-4d"/>
     <use x="266.552734" xlink:href="#DejaVuSans-43"/>
     <use x="336.376953" xlink:href="#DejaVuSans-4e"/>
     <use x="411.181641" xlink:href="#DejaVuSans-4e"/>
    </g>
   </g>
   <g id="line2d_49">
    <path d="M 485.89375 157.9375 
L 505.89375 157.9375 
" style="fill:none;stroke:#000000;stroke-dasharray:5.55,2.4;stroke-dashoffset:0;stroke-opacity:0.595;stroke-width:1.5;"/>
   </g>
   <g id="line2d_50"/>
   <g id="text_28">
    <!-- Referencia -->
    <g transform="translate(513.89375 161.4375)scale(0.1 -0.1)">
     <defs>
      <path d="M 2841 2188 
Q 3044 2119 3236 1894 
Q 3428 1669 3622 1275 
L 4263 0 
L 3584 0 
L 2988 1197 
Q 2756 1666 2539 1819 
Q 2322 1972 1947 1972 
L 1259 1972 
L 1259 0 
L 628 0 
L 628 4666 
L 2053 4666 
Q 2853 4666 3247 4331 
Q 3641 3997 3641 3322 
Q 3641 2881 3436 2590 
Q 3231 2300 2841 2188 
z
M 1259 4147 
L 1259 2491 
L 2053 2491 
Q 2509 2491 2742 2702 
Q 2975 2913 2975 3322 
Q 2975 3731 2742 3939 
Q 2509 4147 2053 4147 
L 1259 4147 
z
" id="DejaVuSans-52" transform="scale(0.015625)"/>
      <path d="M 2375 4863 
L 2375 4384 
L 1825 4384 
Q 1516 4384 1395 4259 
Q 1275 4134 1275 3809 
L 1275 3500 
L 2222 3500 
L 2222 3053 
L 1275 3053 
L 1275 0 
L 697 0 
L 697 3053 
L 147 3053 
L 147 3500 
L 697 3500 
L 697 3744 
Q 697 4328 969 4595 
Q 1241 4863 1831 4863 
L 2375 4863 
z
" id="DejaVuSans-66" transform="scale(0.015625)"/>
      <path d="M 2631 2963 
Q 2534 3019 2420 3045 
Q 2306 3072 2169 3072 
Q 1681 3072 1420 2755 
Q 1159 2438 1159 1844 
L 1159 0 
L 581 0 
L 581 3500 
L 1159 3500 
L 1159 2956 
Q 1341 3275 1631 3429 
Q 1922 3584 2338 3584 
Q 2397 3584 2469 3576 
Q 2541 3569 2628 3553 
L 2631 2963 
z
" id="DejaVuSans-72" transform="scale(0.015625)"/>
      <path d="M 3122 3366 
L 3122 2828 
Q 2878 2963 2633 3030 
Q 2388 3097 2138 3097 
Q 1578 3097 1268 2742 
Q 959 2388 959 1747 
Q 959 1106 1268 751 
Q 1578 397 2138 397 
Q 2388 397 2633 464 
Q 2878 531 3122 666 
L 3122 134 
Q 2881 22 2623 -34 
Q 2366 -91 2075 -91 
Q 1284 -91 818 406 
Q 353 903 353 1747 
Q 353 2603 823 3093 
Q 1294 3584 2113 3584 
Q 2378 3584 2631 3529 
Q 2884 3475 3122 3366 
z
" id="DejaVuSans-63" transform="scale(0.015625)"/>
     </defs>
     <use xlink:href="#DejaVuSans-52"/>
     <use x="64.982422" xlink:href="#DejaVuSans-65"/>
     <use x="126.505859" xlink:href="#DejaVuSans-66"/>
     <use x="161.710938" xlink:href="#DejaVuSans-65"/>
     <use x="223.234375" xlink:href="#DejaVuSans-72"/>
     <use x="262.097656" xlink:href="#DejaVuSans-65"/>
     <use x="323.621094" xlink:href="#DejaVuSans-6e"/>
     <use x="387" xlink:href="#DejaVuSans-63"/>
     <use x="441.980469" xlink:href="#DejaVuSans-69"/>
     <use x="469.763672" xlink:href="#DejaVuSans-61"/>
    </g>
   </g>
  </g>
 </g>
 <defs>
  <clipPath id="p632cdba7df">
   <rect height="190.36" width="163.6" x="97.49" y="41.28"/>
  </clipPath>
  <clipPath id="pc5260261e7">
   <rect height="190.36" width="163.6" x="315.2" y="41.28"/>
  </clipPath>
 </defs>
</svg>
