<?xml version="1.0" encoding="utf-8" standalone="no"?>
<!DOCTYPE svg PUBLIC "-//W3C//DTD SVG 1.1//EN"
  "http://www.w3.org/Graphics/SVG/1.1/DTD/svg11.dtd">
<svg height="576pt" version="1.1" viewBox="0 0 576 576" width="576pt" xmlns="http://www.w3.org/2000/svg" xmlns:xlink="http://www.w3.org/1999/xlink">
 <metadata>
  <rdf:RDF xmlns:cc="http://creativecommons.org/ns#" xmlns:dc="http://purl.org/dc/elements/1.1/" xmlns:rdf="http://www.w3.org/1999/02/22-rdf-syntax-ns#">
   <cc:Work>
    <dc:type rdf:resource="http://purl.org/dc/dcmitype/StillImage"/>
    <dc:date>2022-02-28T00:01:55.409005</dc:date>
    <dc:format>image/svg+xml</dc:format>
    <dc:creator>
     <cc:Agent>
      <dc:title>Matplotlib v3.4.3, https://matplotlib.org/</dc:title>
     </cc:Agent>
    </dc:creator>
   </cc:Work>
  </rdf:RDF>
 </metadata>
 <defs>
  <style type="text/css">*{stroke-linecap:butt;stroke-linejoin:round;}</style>
 </defs>
 <g id="figure_1">
  <g id="patch_1">
   <path d="M 0 576 
L 576 576 
L 576 0 
L 0 0 
z
" style="fill:#ffffff;"/>
  </g>
  <g id="patch_2">
   <path d="M 10.8 565.2 
L 565.2 565.2 
L 565.2 10.8 
L 10.8 10.8 
z
" style="fill:#ffffff;"/>
  </g>
  <g id="pane3d_1">
   <g id="patch_3">
    <path d="M 87.901696 388.731672 
L 413.687875 373.386758 
L 415.151079 126.113638 
L 85.257937 134.543115 
" style="fill:#f2f2f2;opacity:0.5;stroke:#f2f2f2;stroke-linejoin:miter;"/>
   </g>
  </g>
  <g id="pane3d_2">
   <g id="patch_4">
    <path d="M 413.687875 373.386758 
L 521.190523 437.210194 
L 524.319113 161.212988 
L 415.151079 126.113638 
" style="fill:#e6e6e6;opacity:0.5;stroke:#e6e6e6;stroke-linejoin:miter;"/>
   </g>
  </g>
  <g id="pane3d_3">
   <g id="patch_5">
    <path d="M 87.901696 388.731672 
L 159.126541 456.458293 
L 521.190523 437.210194 
L 413.687875 373.386758 
" style="fill:#ececec;opacity:0.5;stroke:#ececec;stroke-linejoin:miter;"/>
   </g>
  </g>
  <g id="axis3d_1">
   <g id="line2d_1">
    <path d="M 87.901696 388.731672 
L 159.126541 456.458293 
" style="fill:none;stroke:#000000;stroke-linecap:square;stroke-width:0.8;"/>
   </g>
   <g id="text_1">
    <!-- x (m) -->
    <g transform="translate(79.484368 437.976388)rotate(-316.442166)scale(0.1 -0.1)">
     <defs>
      <path d="M 3513 3500 
L 2247 1797 
L 3578 0 
L 2900 0 
L 1881 1375 
L 863 0 
L 184 0 
L 1544 1831 
L 300 3500 
L 978 3500 
L 1906 2253 
L 2834 3500 
L 3513 3500 
z
" id="DejaVuSans-78" transform="scale(0.015625)"/>
      <path id="DejaVuSans-20" transform="scale(0.015625)"/>
      <path d="M 1984 4856 
Q 1566 4138 1362 3434 
Q 1159 2731 1159 2009 
Q 1159 1288 1364 580 
Q 1569 -128 1984 -844 
L 1484 -844 
Q 1016 -109 783 600 
Q 550 1309 550 2009 
Q 550 2706 781 3412 
Q 1013 4119 1484 4856 
L 1984 4856 
z
" id="DejaVuSans-28" transform="scale(0.015625)"/>
      <path d="M 3328 2828 
Q 3544 3216 3844 3400 
Q 4144 3584 4550 3584 
Q 5097 3584 5394 3201 
Q 5691 2819 5691 2113 
L 5691 0 
L 5113 0 
L 5113 2094 
Q 5113 2597 4934 2840 
Q 4756 3084 4391 3084 
Q 3944 3084 3684 2787 
Q 3425 2491 3425 1978 
L 3425 0 
L 2847 0 
L 2847 2094 
Q 2847 2600 2669 2842 
Q 2491 3084 2119 3084 
Q 1678 3084 1418 2786 
Q 1159 2488 1159 1978 
L 1159 0 
L 581 0 
L 581 3500 
L 1159 3500 
L 1159 2956 
Q 1356 3278 1631 3431 
Q 1906 3584 2284 3584 
Q 2666 3584 2933 3390 
Q 3200 3197 3328 2828 
z
" id="DejaVuSans-6d" transform="scale(0.015625)"/>
      <path d="M 513 4856 
L 1013 4856 
Q 1481 4119 1714 3412 
Q 1947 2706 1947 2009 
Q 1947 1309 1714 600 
Q 1481 -109 1013 -844 
L 513 -844 
Q 928 -128 1133 580 
Q 1338 1288 1338 2009 
Q 1338 2731 1133 3434 
Q 928 4138 513 4856 
z
" id="DejaVuSans-29" transform="scale(0.015625)"/>
     </defs>
     <use xlink:href="#DejaVuSans-78"/>
     <use x="59.179688" xlink:href="#DejaVuSans-20"/>
     <use x="90.966797" xlink:href="#DejaVuSans-28"/>
     <use x="129.980469" xlink:href="#DejaVuSans-6d"/>
     <use x="227.392578" xlink:href="#DejaVuSans-29"/>
    </g>
   </g>
   <g id="Line3DCollection_1">
    <path d="M 99.374942 399.641407 
L 431.053784 383.696755 
L 432.76439 131.776612 
" style="fill:none;stroke:#b0b0b0;stroke-width:0.8;"/>
    <path d="M 112.859203 412.463386 
L 451.439529 395.799604 
L 453.45118 138.427762 
" style="fill:none;stroke:#b0b0b0;stroke-width:0.8;"/>
    <path d="M 126.967822 425.879057 
L 472.741437 408.446371 
L 475.079928 145.381766 
" style="fill:none;stroke:#b0b0b0;stroke-width:0.8;"/>
    <path d="M 141.745191 439.930633 
L 495.022687 421.674565 
L 497.716469 152.659792 
" style="fill:none;stroke:#b0b0b0;stroke-width:0.8;"/>
    <path d="M 157.240013 454.664423 
L 518.352405 435.525226 
L 521.43292 160.285028 
" style="fill:none;stroke:#b0b0b0;stroke-width:0.8;"/>
   </g>
   <g id="xtick_1">
    <g id="line2d_2">
     <path d="M 102.104565 399.510187 
L 93.911901 399.904029 
" style="fill:none;stroke:#000000;stroke-linecap:square;stroke-width:0.8;"/>
    </g>
    <g id="text_2">
     <!-- −0.02 -->
     <g transform="translate(70.551583 418.087107)scale(0.1 -0.1)">
      <defs>
       <path d="M 678 2272 
L 4684 2272 
L 4684 1741 
L 678 1741 
L 678 2272 
z
" id="DejaVuSans-2212" transform="scale(0.015625)"/>
       <path d="M 2034 4250 
Q 1547 4250 1301 3770 
Q 1056 3291 1056 2328 
Q 1056 1369 1301 889 
Q 1547 409 2034 409 
Q 2525 409 2770 889 
Q 3016 1369 3016 2328 
Q 3016 3291 2770 3770 
Q 2525 4250 2034 4250 
z
M 2034 4750 
Q 2819 4750 3233 4129 
Q 3647 3509 3647 2328 
Q 3647 1150 3233 529 
Q 2819 -91 2034 -91 
Q 1250 -91 836 529 
Q 422 1150 422 2328 
Q 422 3509 836 4129 
Q 1250 4750 2034 4750 
z
" id="DejaVuSans-30" transform="scale(0.015625)"/>
       <path d="M 684 794 
L 1344 794 
L 1344 0 
L 684 0 
L 684 794 
z
" id="DejaVuSans-2e" transform="scale(0.015625)"/>
       <path d="M 1228 531 
L 3431 531 
L 3431 0 
L 469 0 
L 469 531 
Q 828 903 1448 1529 
Q 2069 2156 2228 2338 
Q 2531 2678 2651 2914 
Q 2772 3150 2772 3378 
Q 2772 3750 2511 3984 
Q 2250 4219 1831 4219 
Q 1534 4219 1204 4116 
Q 875 4013 500 3803 
L 500 4441 
Q 881 4594 1212 4672 
Q 1544 4750 1819 4750 
Q 2544 4750 2975 4387 
Q 3406 4025 3406 3419 
Q 3406 3131 3298 2873 
Q 3191 2616 2906 2266 
Q 2828 2175 2409 1742 
Q 1991 1309 1228 531 
z
" id="DejaVuSans-32" transform="scale(0.015625)"/>
      </defs>
      <use xlink:href="#DejaVuSans-2212"/>
      <use x="83.789062" xlink:href="#DejaVuSans-30"/>
      <use x="147.412109" xlink:href="#DejaVuSans-2e"/>
      <use x="179.199219" xlink:href="#DejaVuSans-30"/>
      <use x="242.822266" xlink:href="#DejaVuSans-32"/>
     </g>
    </g>
   </g>
   <g id="xtick_2">
    <g id="line2d_3">
     <path d="M 115.647383 412.326161 
L 107.278879 412.73803 
" style="fill:none;stroke:#000000;stroke-linecap:square;stroke-width:0.8;"/>
    </g>
    <g id="text_3">
     <!-- −0.01 -->
     <g transform="translate(83.73902 431.163123)scale(0.1 -0.1)">
      <defs>
       <path d="M 794 531 
L 1825 531 
L 1825 4091 
L 703 3866 
L 703 4441 
L 1819 4666 
L 2450 4666 
L 2450 531 
L 3481 531 
L 3481 0 
L 794 0 
L 794 531 
z
" id="DejaVuSans-31" transform="scale(0.015625)"/>
      </defs>
      <use xlink:href="#DejaVuSans-2212"/>
      <use x="83.789062" xlink:href="#DejaVuSans-30"/>
      <use x="147.412109" xlink:href="#DejaVuSans-2e"/>
      <use x="179.199219" xlink:href="#DejaVuSans-30"/>
      <use x="242.822266" xlink:href="#DejaVuSans-31"/>
     </g>
    </g>
   </g>
   <g id="xtick_3">
    <g id="line2d_4">
     <path d="M 129.817118 425.735405 
L 121.265085 426.166569 
" style="fill:none;stroke:#000000;stroke-linecap:square;stroke-width:0.8;"/>
    </g>
    <g id="text_4">
     <!-- 0.00 -->
     <g transform="translate(101.727327 444.845002)scale(0.1 -0.1)">
      <use xlink:href="#DejaVuSans-30"/>
      <use x="63.623047" xlink:href="#DejaVuSans-2e"/>
      <use x="95.410156" xlink:href="#DejaVuSans-30"/>
      <use x="159.033203" xlink:href="#DejaVuSans-30"/>
     </g>
    </g>
   </g>
   <g id="xtick_4">
    <g id="line2d_5">
     <path d="M 144.658334 439.780092 
L 135.914568 440.231938 
" style="fill:none;stroke:#000000;stroke-linecap:square;stroke-width:0.8;"/>
    </g>
    <g id="text_5">
     <!-- 0.01 -->
     <g transform="translate(116.180288 459.175849)scale(0.1 -0.1)">
      <use xlink:href="#DejaVuSans-30"/>
      <use x="63.623047" xlink:href="#DejaVuSans-2e"/>
      <use x="95.410156" xlink:href="#DejaVuSans-30"/>
      <use x="159.033203" xlink:href="#DejaVuSans-31"/>
     </g>
    </g>
   </g>
   <g id="xtick_5">
    <g id="line2d_6">
     <path d="M 160.219919 454.506486 
L 151.275656 454.980538 
" style="fill:none;stroke:#000000;stroke-linecap:square;stroke-width:0.8;"/>
    </g>
    <g id="text_6">
     <!-- 0.02 -->
     <g transform="translate(131.335447 474.202961)scale(0.1 -0.1)">
      <use xlink:href="#DejaVuSans-30"/>
      <use x="63.623047" xlink:href="#DejaVuSans-2e"/>
      <use x="95.410156" xlink:href="#DejaVuSans-30"/>
      <use x="159.033203" xlink:href="#DejaVuSans-32"/>
     </g>
    </g>
   </g>
  </g>
  <g id="axis3d_2">
   <g id="line2d_7">
    <path d="M 521.190523 437.210194 
L 159.126541 456.458293 
" style="fill:none;stroke:#000000;stroke-linecap:square;stroke-width:0.8;"/>
   </g>
   <g id="text_7">
    <!-- y (m) -->
    <g transform="translate(338.584259 480.727826)rotate(-3.043102)scale(0.1 -0.1)">
     <defs>
      <path d="M 2059 -325 
Q 1816 -950 1584 -1140 
Q 1353 -1331 966 -1331 
L 506 -1331 
L 506 -850 
L 844 -850 
Q 1081 -850 1212 -737 
Q 1344 -625 1503 -206 
L 1606 56 
L 191 3500 
L 800 3500 
L 1894 763 
L 2988 3500 
L 3597 3500 
L 2059 -325 
z
" id="DejaVuSans-79" transform="scale(0.015625)"/>
     </defs>
     <use xlink:href="#DejaVuSans-79"/>
     <use x="59.179688" xlink:href="#DejaVuSans-20"/>
     <use x="90.966797" xlink:href="#DejaVuSans-28"/>
     <use x="129.980469" xlink:href="#DejaVuSans-6d"/>
     <use x="227.392578" xlink:href="#DejaVuSans-29"/>
    </g>
   </g>
   <g id="Line3DCollection_2">
    <path d="M 129.714151 133.407163 
L 131.791104 386.664429 
L 208.045192 453.857673 
" style="fill:none;stroke:#b0b0b0;stroke-width:0.8;"/>
    <path d="M 195.06574 131.73729 
L 196.317026 383.625182 
L 279.88463 450.038534 
" style="fill:none;stroke:#b0b0b0;stroke-width:0.8;"/>
    <path d="M 259.694836 130.085878 
L 260.138424 380.619119 
L 350.845665 446.266093 
" style="fill:none;stroke:#b0b0b0;stroke-width:0.8;"/>
    <path d="M 323.613356 128.452623 
L 323.266773 377.645699 
L 420.944309 442.539498 
" style="fill:none;stroke:#b0b0b0;stroke-width:0.8;"/>
    <path d="M 386.832953 126.837227 
L 385.713302 374.704394 
L 490.196189 438.857919 
" style="fill:none;stroke:#b0b0b0;stroke-width:0.8;"/>
   </g>
   <g id="xtick_6">
    <g id="line2d_8">
     <path d="M 207.36179 453.255476 
L 209.415984 455.065581 
" style="fill:none;stroke:#000000;stroke-linecap:square;stroke-width:0.8;"/>
    </g>
    <g id="text_8">
     <!-- −0.2 -->
     <g transform="translate(199.37306 475.648834)scale(0.1 -0.1)">
      <use xlink:href="#DejaVuSans-2212"/>
      <use x="83.789062" xlink:href="#DejaVuSans-30"/>
      <use x="147.412109" xlink:href="#DejaVuSans-2e"/>
      <use x="179.199219" xlink:href="#DejaVuSans-32"/>
     </g>
    </g>
   </g>
   <g id="xtick_7">
    <g id="line2d_9">
     <path d="M 279.136178 449.443719 
L 281.385876 451.231613 
" style="fill:none;stroke:#000000;stroke-linecap:square;stroke-width:0.8;"/>
    </g>
    <g id="text_9">
     <!-- −0.1 -->
     <g transform="translate(271.497506 471.725729)scale(0.1 -0.1)">
      <use xlink:href="#DejaVuSans-2212"/>
      <use x="83.789062" xlink:href="#DejaVuSans-30"/>
      <use x="147.412109" xlink:href="#DejaVuSans-2e"/>
      <use x="179.199219" xlink:href="#DejaVuSans-31"/>
     </g>
    </g>
   </g>
   <g id="xtick_8">
    <g id="line2d_10">
     <path d="M 350.033798 445.678525 
L 352.474079 447.444615 
" style="fill:none;stroke:#000000;stroke-linecap:square;stroke-width:0.8;"/>
    </g>
    <g id="text_10">
     <!-- 0.0 -->
     <g transform="translate(346.926169 467.850795)scale(0.1 -0.1)">
      <use xlink:href="#DejaVuSans-30"/>
      <use x="63.623047" xlink:href="#DejaVuSans-2e"/>
      <use x="95.410156" xlink:href="#DejaVuSans-30"/>
     </g>
    </g>
   </g>
   <g id="xtick_9">
    <g id="line2d_11">
     <path d="M 420.070619 441.959046 
L 422.696697 443.703727 
" style="fill:none;stroke:#000000;stroke-linecap:square;stroke-width:0.8;"/>
    </g>
    <g id="text_11">
     <!-- 0.1 -->
     <g transform="translate(417.295574 464.023153)scale(0.1 -0.1)">
      <use xlink:href="#DejaVuSans-30"/>
      <use x="63.623047" xlink:href="#DejaVuSans-2e"/>
      <use x="95.410156" xlink:href="#DejaVuSans-31"/>
     </g>
    </g>
   </g>
   <g id="xtick_10">
    <g id="line2d_12">
     <path d="M 489.262223 438.284455 
L 492.069441 440.008114 
" style="fill:none;stroke:#000000;stroke-linecap:square;stroke-width:0.8;"/>
    </g>
    <g id="text_12">
     <!-- 0.2 -->
     <g transform="translate(486.811384 460.24194)scale(0.1 -0.1)">
      <use xlink:href="#DejaVuSans-30"/>
      <use x="63.623047" xlink:href="#DejaVuSans-2e"/>
      <use x="95.410156" xlink:href="#DejaVuSans-32"/>
     </g>
    </g>
   </g>
  </g>
  <g id="axis3d_3">
   <g id="line2d_13">
    <path d="M 521.190523 437.210194 
L 524.319113 161.212988 
" style="fill:none;stroke:#000000;stroke-linecap:square;stroke-width:0.8;"/>
   </g>
   <g id="text_13">
    <!-- z (m) -->
    <g transform="translate(566.750008 316.756917)rotate(-89.350546)scale(0.1 -0.1)">
     <defs>
      <path d="M 353 3500 
L 3084 3500 
L 3084 2975 
L 922 459 
L 3084 459 
L 3084 0 
L 275 0 
L 275 525 
L 2438 3041 
L 353 3041 
L 353 3500 
z
" id="DejaVuSans-7a" transform="scale(0.015625)"/>
     </defs>
     <use xlink:href="#DejaVuSans-7a"/>
     <use x="52.490234" xlink:href="#DejaVuSans-20"/>
     <use x="84.277344" xlink:href="#DejaVuSans-28"/>
     <use x="123.291016" xlink:href="#DejaVuSans-6d"/>
     <use x="220.703125" xlink:href="#DejaVuSans-29"/>
    </g>
   </g>
   <g id="Line3DCollection_3">
    <path d="M 521.287734 428.634421 
L 413.733404 365.692599 
L 87.819461 380.825026 
" style="fill:none;stroke:#b0b0b0;stroke-width:0.8;"/>
    <path d="M 521.8608 378.079824 
L 414.001716 320.349382 
L 87.334795 334.226066 
" style="fill:none;stroke:#b0b0b0;stroke-width:0.8;"/>
    <path d="M 522.436783 327.267961 
L 414.271249 274.799912 
L 86.847862 287.409092 
" style="fill:none;stroke:#b0b0b0;stroke-width:0.8;"/>
    <path d="M 523.015704 276.196863 
L 414.54201 229.042779 
L 86.358646 240.37257 
" style="fill:none;stroke:#b0b0b0;stroke-width:0.8;"/>
    <path d="M 523.597586 224.86454 
L 414.814009 183.07656 
L 85.86713 193.114953 
" style="fill:none;stroke:#b0b0b0;stroke-width:0.8;"/>
    <path d="M 524.182452 173.268984 
L 415.087253 136.899817 
L 85.373298 145.634678 
" style="fill:none;stroke:#b0b0b0;stroke-width:0.8;"/>
   </g>
   <g id="xtick_11">
    <g id="line2d_14">
     <path d="M 520.326543 428.071923 
L 523.215577 429.762614 
" style="fill:none;stroke:#000000;stroke-linecap:square;stroke-width:0.8;"/>
    </g>
    <g id="text_14">
     <!-- 1.0 -->
     <g transform="translate(532.171897 438.310346)scale(0.1 -0.1)">
      <use xlink:href="#DejaVuSans-31"/>
      <use x="63.623047" xlink:href="#DejaVuSans-2e"/>
      <use x="95.410156" xlink:href="#DejaVuSans-30"/>
     </g>
    </g>
   </g>
   <g id="xtick_12">
    <g id="line2d_15">
     <path d="M 520.89663 377.563762 
L 523.794634 379.114889 
" style="fill:none;stroke:#000000;stroke-linecap:square;stroke-width:0.8;"/>
    </g>
    <g id="text_15">
     <!-- 1.2 -->
     <g transform="translate(532.794939 387.584268)scale(0.1 -0.1)">
      <use xlink:href="#DejaVuSans-31"/>
      <use x="63.623047" xlink:href="#DejaVuSans-2e"/>
      <use x="95.410156" xlink:href="#DejaVuSans-32"/>
     </g>
    </g>
   </g>
   <g id="xtick_13">
    <g id="line2d_16">
     <path d="M 521.469615 326.798815 
L 524.376642 328.208932 
" style="fill:none;stroke:#000000;stroke-linecap:square;stroke-width:0.8;"/>
    </g>
    <g id="text_16">
     <!-- 1.4 -->
     <g transform="translate(533.421162 336.599145)scale(0.1 -0.1)">
      <defs>
       <path d="M 2419 4116 
L 825 1625 
L 2419 1625 
L 2419 4116 
z
M 2253 4666 
L 3047 4666 
L 3047 1625 
L 3713 1625 
L 3713 1100 
L 3047 1100 
L 3047 0 
L 2419 0 
L 2419 1100 
L 313 1100 
L 313 1709 
L 2253 4666 
z
" id="DejaVuSans-34" transform="scale(0.015625)"/>
      </defs>
      <use xlink:href="#DejaVuSans-31"/>
      <use x="63.623047" xlink:href="#DejaVuSans-2e"/>
      <use x="95.410156" xlink:href="#DejaVuSans-34"/>
     </g>
    </g>
   </g>
   <g id="xtick_14">
    <g id="line2d_17">
     <path d="M 522.04552 275.775119 
L 524.961626 277.042766 
" style="fill:none;stroke:#000000;stroke-linecap:square;stroke-width:0.8;"/>
    </g>
    <g id="text_17">
     <!-- 1.6 -->
     <g transform="translate(534.050592 285.35299)scale(0.1 -0.1)">
      <defs>
       <path d="M 2113 2584 
Q 1688 2584 1439 2293 
Q 1191 2003 1191 1497 
Q 1191 994 1439 701 
Q 1688 409 2113 409 
Q 2538 409 2786 701 
Q 3034 994 3034 1497 
Q 3034 2003 2786 2293 
Q 2538 2584 2113 2584 
z
M 3366 4563 
L 3366 3988 
Q 3128 4100 2886 4159 
Q 2644 4219 2406 4219 
Q 1781 4219 1451 3797 
Q 1122 3375 1075 2522 
Q 1259 2794 1537 2939 
Q 1816 3084 2150 3084 
Q 2853 3084 3261 2657 
Q 3669 2231 3669 1497 
Q 3669 778 3244 343 
Q 2819 -91 2113 -91 
Q 1303 -91 875 529 
Q 447 1150 447 2328 
Q 447 3434 972 4092 
Q 1497 4750 2381 4750 
Q 2619 4750 2861 4703 
Q 3103 4656 3366 4563 
z
" id="DejaVuSans-36" transform="scale(0.015625)"/>
      </defs>
      <use xlink:href="#DejaVuSans-31"/>
      <use x="63.623047" xlink:href="#DejaVuSans-2e"/>
      <use x="95.410156" xlink:href="#DejaVuSans-36"/>
     </g>
    </g>
   </g>
   <g id="xtick_15">
    <g id="line2d_18">
     <path d="M 522.624368 224.490689 
L 525.549608 225.614387 
" style="fill:none;stroke:#000000;stroke-linecap:square;stroke-width:0.8;"/>
    </g>
    <g id="text_18">
     <!-- 1.8 -->
     <g transform="translate(534.683252 233.843791)scale(0.1 -0.1)">
      <defs>
       <path d="M 2034 2216 
Q 1584 2216 1326 1975 
Q 1069 1734 1069 1313 
Q 1069 891 1326 650 
Q 1584 409 2034 409 
Q 2484 409 2743 651 
Q 3003 894 3003 1313 
Q 3003 1734 2745 1975 
Q 2488 2216 2034 2216 
z
M 1403 2484 
Q 997 2584 770 2862 
Q 544 3141 544 3541 
Q 544 4100 942 4425 
Q 1341 4750 2034 4750 
Q 2731 4750 3128 4425 
Q 3525 4100 3525 3541 
Q 3525 3141 3298 2862 
Q 3072 2584 2669 2484 
Q 3125 2378 3379 2068 
Q 3634 1759 3634 1313 
Q 3634 634 3220 271 
Q 2806 -91 2034 -91 
Q 1263 -91 848 271 
Q 434 634 434 1313 
Q 434 1759 690 2068 
Q 947 2378 1403 2484 
z
M 1172 3481 
Q 1172 3119 1398 2916 
Q 1625 2713 2034 2713 
Q 2441 2713 2670 2916 
Q 2900 3119 2900 3481 
Q 2900 3844 2670 4047 
Q 2441 4250 2034 4250 
Q 1625 4250 1398 4047 
Q 1172 3844 1172 3481 
z
" id="DejaVuSans-38" transform="scale(0.015625)"/>
      </defs>
      <use xlink:href="#DejaVuSans-31"/>
      <use x="63.623047" xlink:href="#DejaVuSans-2e"/>
      <use x="95.410156" xlink:href="#DejaVuSans-38"/>
     </g>
    </g>
   </g>
   <g id="xtick_16">
    <g id="line2d_19">
     <path d="M 523.206182 172.943524 
L 526.14061 173.921777 
" style="fill:none;stroke:#000000;stroke-linecap:square;stroke-width:0.8;"/>
    </g>
    <g id="text_19">
     <!-- 2.0 -->
     <g transform="translate(535.319169 182.069519)scale(0.1 -0.1)">
      <use xlink:href="#DejaVuSans-32"/>
      <use x="63.623047" xlink:href="#DejaVuSans-2e"/>
      <use x="95.410156" xlink:href="#DejaVuSans-30"/>
     </g>
    </g>
   </g>
  </g>
  <g id="axes_1">
   <g id="line2d_20">
    <path clip-path="url(#p1a4b291d33)" d="M 309.936352 408.403752 
L 309.936105 408.74478 
L 310.028395 408.242302 
L 310.589812 407.987379 
L 312.109768 407.583627 
L 315.207074 407.015987 
L 320.879491 406.235927 
L 329.943643 405.234924 
L 349.661527 403.341552 
L 374.217755 400.913696 
L 392.422724 398.885778 
L 406.614811 397.096304 
L 417.709532 395.496057 
L 425.87711 394.116189 
L 431.544917 392.950942 
L 435.234088 391.976425 
L 437.450818 391.164588 
L 438.63594 390.490527 
L 439.089796 390.026504 
L 439.247019 389.57454 
L 439.136551 389.132431 
L 438.788328 388.698056 
L 437.959083 388.099199 
L 436.42831 387.338146 
L 433.610471 386.241318 
L 424.759016 382.934417 
L 422.149827 381.660437 
L 420.187013 380.450992 
L 418.615752 379.219507 
L 417.144405 377.777839 
L 413.482672 373.997573 
L 411.855109 372.750357 
L 409.86926 371.517838 
L 407.485082 370.302068 
L 404.466031 369.011433 
L 400.481509 367.557034 
L 395.127711 365.849981 
L 387.026026 363.525688 
L 337.206417 349.643565 
L 270.350348 330.553232 
L 259.306187 327.701921 
L 251.016531 325.784074 
L 244.197753 324.428848 
L 238.405466 323.496204 
L 233.065433 322.858858 
L 227.592648 322.438012 
L 216.620484 321.68994 
L 213.324069 321.163583 
L 210.271457 320.452212 
L 207.096858 319.479179 
L 203.787701 318.226517 
L 200.358982 316.695149 
L 196.656173 314.798958 
L 192.748355 312.540797 
L 188.941048 310.082762 
L 185.359314 307.505146 
L 182.274506 305.26631 
L 181.815116 305.309993 
L 181.361886 305.549963 
L 180.612964 306.25521 
L 178.512224 308.513454 
L 177.539538 309.188188 
L 176.364591 309.745462 
L 174.969278 310.160893 
L 173.339411 310.417303 
L 171.460004 310.499818 
L 169.32091 310.398228 
L 166.284744 310.009614 
L 162.868277 309.33882 
L 159.091681 308.36283 
L 156.588368 307.348054 
L 153.914174 305.969804 
L 150.17315 303.742083 
L 145.373901 300.56354 
L 139.679178 296.488565 
L 133.386806 291.7022 
L 126.947593 286.506699 
L 122.210939 282.402753 
L 118.928014 279.294024 
L 116.417755 276.598149 
L 114.945917 274.681886 
L 114.182603 273.368406 
L 113.786257 272.248415 
L 113.726861 271.533131 
L 113.868293 270.922456 
L 114.207176 270.413925 
L 114.739195 270.004748 
L 115.458937 269.691464 
L 116.699058 269.416163 
L 118.243109 269.294006 
L 120.570675 269.339636 
L 123.892276 269.655015 
L 128.396585 270.32871 
L 134.972808 271.568552 
L 145.459739 273.811742 
L 163.579159 277.705004 
L 171.115103 279.108687 
L 177.204455 280.028809 
L 181.958288 280.52515 
L 185.566127 280.692316 
L 188.645855 280.604996 
L 190.870171 280.330392 
L 192.725935 279.878687 
L 194.235661 279.260544 
L 195.250266 278.628024 
L 196.064372 277.898443 
L 196.807195 276.908902 
L 197.332359 275.812252 
L 197.725051 274.422589 
L 197.964202 272.72561 
L 198.108823 269.825762 
L 198.330983 266.220827 
L 198.660977 264.257319 
L 199.147997 262.581528 
L 199.849901 260.98534 
L 200.785482 259.476798 
L 201.96255 258.059112 
L 203.379313 256.731352 
L 205.025942 255.48919 
L 207.132787 254.185317 
L 209.75401 252.837728 
L 213.223469 251.334059 
L 217.608698 249.691898 
L 224.26466 247.461233 
L 245.728997 240.649061 
L 255.745677 237.629441 
L 263.617047 235.481047 
L 271.49596 233.559215 
L 280.606265 231.580542 
L 293.168744 229.111176 
L 311.200089 225.555766 
L 319.704889 223.640888 
L 326.6141 221.862352 
L 332.398809 220.158204 
L 337.849934 218.318216 
L 342.614795 216.476123 
L 347.058964 214.516427 
L 351.184354 212.446327 
L 355.002563 210.276889 
L 358.533956 208.022561 
L 362.031481 205.532745 
L 365.691694 202.648063 
L 369.876981 199.04896 
L 379.68496 190.460854 
L 382.863657 188.051416 
L 385.820437 186.079328 
L 388.757965 184.379122 
L 391.916418 182.818135 
L 395.053724 181.509577 
L 398.422818 180.334008 
L 402.036228 179.294788 
L 406.233341 178.323696 
L 410.722487 177.510938 
L 415.869212 176.805235 
L 421.709267 176.229431 
L 428.664808 175.773674 
L 437.156618 175.447749 
L 450.434447 175.192069 
L 463.647 174.875493 
L 470.296615 174.495061 
L 477.252558 173.823958 
L 483.232844 173.063298 
L 486.228662 172.482859 
L 488.061734 171.922111 
L 489.491199 171.24951 
L 490.749988 170.701322 
L 491.755706 170.54228 
L 493.313947 170.551422 
L 493.886897 170.542718 
L 493.646468 170.455308 
L 492.90227 170.410972 
L 489.343075 170.215672 
L 489.343075 170.215672 
" style="fill:none;stroke:#1f77b4;stroke-linecap:square;stroke-opacity:0.7;stroke-width:1.5;"/>
   </g>
   <g id="line2d_21">
    <path clip-path="url(#p1a4b291d33)" d="M 309.936352 408.403752 
L 310.037137 410.142447 
L 310.329514 410.993487 
L 310.914639 412.002727 
L 311.855872 413.164368 
L 312.980542 414.183395 
L 314.27064 415.032119 
L 316.191212 415.986812 
L 318.606989 416.988599 
L 319.708021 417.230615 
L 320.321427 417.168113 
L 320.684278 416.921635 
L 320.880534 416.520295 
L 320.940924 415.838157 
L 320.787993 414.61327 
L 320.346769 411.589702 
L 320.467547 410.618695 
L 320.611353 409.497092 
L 320.517594 407.535149 
L 321.018576 406.882156 
L 321.49341 407.009836 
L 322.603121 406.733615 
L 326.346033 406.110859 
L 334.175998 405.072508 
L 371.371535 400.394975 
L 383.153618 398.610518 
L 394.689702 396.627376 
L 405.456956 394.548554 
L 414.039019 392.682381 
L 420.591813 391.060784 
L 426.141227 389.472616 
L 430.051581 388.15554 
L 433.162981 386.894499 
L 435.146108 385.895436 
L 436.583623 384.949132 
L 437.350735 384.232359 
L 437.789191 383.552351 
L 437.912866 382.909123 
L 437.73852 382.301945 
L 437.285843 381.729583 
L 436.577483 381.190509 
L 435.371751 380.561313 
L 433.528154 379.868777 
L 430.955362 379.143441 
L 427.21758 378.340311 
L 422.855623 377.630679 
L 418.275872 377.101361 
L 414.689843 376.882388 
L 412.158872 376.921332 
L 410.569406 377.148792 
L 409.814429 377.434444 
L 409.475013 377.742362 
L 409.393569 378.107696 
L 409.559077 378.523578 
L 410.061332 379.078615 
L 411.021531 379.785164 
L 412.742207 380.746045 
L 415.101645 381.807849 
L 418.209418 382.954725 
L 421.44554 383.9163 
L 424.073217 384.486376 
L 425.631953 384.616726 
L 426.105109 384.487435 
L 426.151574 384.321448 
L 425.947226 384.040154 
L 425.231975 383.535642 
L 423.644324 382.721515 
L 420.79649 381.526487 
L 416.36158 379.920074 
L 410.190372 377.937667 
L 402.420781 375.690524 
L 393.529886 373.354526 
L 383.055385 370.840618 
L 359.940693 365.412998 
L 354.029873 363.684923 
L 347.340665 361.492901 
L 337.534264 358.019211 
L 317.432002 350.603293 
L 286.398427 338.944643 
L 264.814347 330.594999 
L 227.438461 316.051228 
L 220.321667 313.580861 
L 214.878209 311.920827 
L 210.64685 310.860953 
L 207.305379 310.249877 
L 204.531697 309.960668 
L 199.222051 309.525295 
L 198.002773 309.049259 
L 196.652025 308.269407 
L 194.958333 307.015293 
L 192.966211 305.244791 
L 192.199087 304.606424 
L 191.909744 304.608571 
L 191.620154 304.812114 
L 191.23209 305.392529 
L 190.631169 306.823873 
L 189.533246 309.565696 
L 188.853282 310.750192 
L 187.971347 311.789319 
L 187.147701 312.439268 
L 186.171003 312.966181 
L 185.034674 313.364676 
L 183.269305 313.700644 
L 181.219337 313.821593 
L 178.88756 313.739754 
L 175.583161 313.374259 
L 172.627011 312.856065 
L 170.15455 312.096533 
L 166.54065 310.594347 
L 162.660981 308.708919 
L 157.590296 306.01213 
L 151.442126 302.519 
L 144.561658 298.351512 
L 139.148213 294.83698 
L 134.319658 291.458664 
L 130.186785 288.288436 
L 127.337904 285.849852 
L 125.058891 283.622676 
L 123.356495 281.624798 
L 122.407929 280.201709 
L 121.822465 278.941799 
L 121.594999 277.848472 
L 121.655814 277.137281 
L 121.911516 276.51762 
L 122.358463 275.98697 
L 122.99238 275.542518 
L 124.120241 275.078522 
L 125.559309 274.754646 
L 127.773359 274.535205 
L 130.418048 274.507018 
L 134.107534 274.701327 
L 139.032207 275.201067 
L 145.325369 276.064083 
L 154.78313 277.61363 
L 170.083008 280.40009 
L 186.096568 283.267904 
L 193.99312 284.452407 
L 198.867053 284.984374 
L 202.459896 285.183339 
L 205.016358 285.139902 
L 207.083675 284.891199 
L 208.437027 284.525675 
L 209.464462 284.017832 
L 210.061252 283.511673 
L 210.467874 282.919956 
L 210.695175 282.246636 
L 210.745752 281.297452 
L 210.561357 280.238862 
L 210.070008 278.840864 
L 209.19061 277.061248 
L 207.707345 274.592121 
L 201.398722 264.591683 
L 200.325916 262.313623 
L 199.645232 260.395178 
L 199.239258 258.560155 
L 199.127026 257.060532 
L 199.241617 255.632523 
L 199.586848 254.278286 
L 200.162301 252.998541 
L 200.963737 251.792664 
L 201.983506 250.658794 
L 203.434918 249.423024 
L 205.148045 248.275122 
L 207.39481 247.06114 
L 210.242018 245.805015 
L 213.730531 244.523753 
L 218.253403 243.113762 
L 224.229829 241.498194 
L 232.828205 239.42229 
L 244.214113 236.899173 
L 252.664591 235.23242 
L 259.211338 234.157752 
L 265.156156 233.395504 
L 271.416728 232.823622 
L 278.081703 232.45273 
L 285.733528 232.27145 
L 295.055989 232.297043 
L 309.816246 232.605861 
L 327.031469 232.914185 
L 336.080872 232.859961 
L 343.586127 232.597572 
L 349.578003 232.180583 
L 354.670897 231.625594 
L 359.377402 230.890429 
L 363.253104 230.068846 
L 366.769352 229.094226 
L 369.585839 228.101048 
L 372.110807 226.992244 
L 374.349083 225.773401 
L 376.310464 224.451804 
L 378.009328 223.03621 
L 379.464175 221.536646 
L 380.697098 219.964244 
L 381.850204 218.123163 
L 382.88717 216.008985 
L 383.797574 213.629336 
L 384.790143 210.352336 
L 386.651219 203.986804 
L 387.605595 201.611367 
L 388.579681 199.739356 
L 389.755325 197.979335 
L 391.010435 196.49982 
L 392.469934 195.125361 
L 394.146302 193.859964 
L 396.047556 192.705921 
L 398.177324 191.663912 
L 400.810847 190.636357 
L 403.718915 189.742487 
L 407.219793 188.906907 
L 411.371762 188.160117 
L 416.21472 187.526162 
L 422.16604 186.988454 
L 429.664117 186.557085 
L 440.318842 186.19389 
L 456.470395 185.643001 
L 462.813976 185.206171 
L 467.461497 184.683695 
L 470.948825 184.090987 
L 473.684628 183.416647 
L 475.765732 182.688873 
L 477.298304 181.942178 
L 478.498563 181.12531 
L 479.387557 180.253704 
L 479.994511 179.344467 
L 480.354785 178.414367 
L 480.512839 177.386542 
L 480.450833 176.191058 
L 480.129805 174.778827 
L 479.308398 172.435194 
L 478.698964 170.433523 
L 478.54625 169.179481 
L 478.64078 168.138355 
L 478.987784 166.987201 
L 479.397477 165.584164 
L 479.34975 164.890098 
L 479.073978 164.216925 
L 478.45763 163.360733 
L 477.17798 161.664795 
L 476.706834 160.801144 
L 476.494368 160.571221 
L 476.668974 160.613651 
L 477.172212 160.943363 
L 477.172212 160.943363 
" style="fill:none;stroke:#d62728;stroke-linecap:square;stroke-opacity:0.7;stroke-width:1.5;"/>
   </g>
   <g id="line2d_22">
    <path clip-path="url(#p1a4b291d33)" d="M 309.936382 408.362272 
L 443.153712 401.239277 
L 443.153712 401.239277 
L 442.995264 399.740771 
L 442.995264 399.740771 
L 442.633414 398.252039 
L 442.633414 398.252039 
L 442.068567 396.772981 
L 442.068567 396.772981 
L 441.301418 395.303483 
L 441.301418 395.303483 
L 440.332956 393.843416 
L 440.332956 393.843416 
L 438.730776 391.911083 
L 438.730776 391.911083 
L 436.776856 389.994887 
L 436.776856 389.994887 
L 434.475948 388.094412 
L 434.475948 388.094412 
L 431.833705 386.209198 
L 431.833705 386.209198 
L 428.856668 384.338743 
L 428.856668 384.338743 
L 424.675939 382.020589 
L 424.675939 382.020589 
L 420.00008 379.723462 
L 420.00008 379.723462 
L 414.847469 377.446082 
L 414.847469 377.446082 
L 409.238481 375.187074 
L 409.238481 375.187074 
L 401.936696 372.498379 
L 401.936696 372.498379 
L 394.050674 369.830537 
L 394.050674 369.830537 
L 384.165282 366.735854 
L 384.165282 366.735854 
L 372.022632 363.193126 
L 372.022632 363.193126 
L 352.104894 357.674244 
L 352.104894 357.674244 
L 333.639522 352.48618 
L 333.639522 352.48618 
L 321.526146 348.880758 
L 321.526146 348.880758 
L 308.525951 344.770049 
L 308.525951 344.770049 
L 297.01306 340.915378 
L 297.01306 340.915378 
L 282.497396 335.797087 
L 282.497396 335.797087 
L 267.503435 330.270916 
L 267.503435 330.270916 
L 240.429318 319.990765 
L 240.429318 319.990765 
L 224.948509 314.223231 
L 224.948509 314.223231 
L 215.393777 310.889246 
L 215.393777 310.889246 
L 208.876685 308.836709 
L 208.876685 308.836709 
L 203.468874 307.399165 
L 203.468874 307.399165 
L 200.170062 306.742195 
L 200.170062 306.742195 
L 197.519242 306.443802 
L 197.519242 306.443802 
L 195.494761 306.487206 
L 195.494761 306.487206 
L 194.473544 306.691462 
L 194.473544 306.691462 
L 193.695879 307.021795 
L 193.695879 307.021795 
L 193.141229 307.463083 
L 193.141229 307.463083 
L 192.785685 307.997722 
L 192.785685 307.997722 
L 192.602283 308.605843 
L 192.602283 308.605843 
L 192.584585 309.607545 
L 192.584585 309.607545 
L 192.870923 310.983922 
L 192.870923 310.983922 
L 193.473395 313.387966 
L 193.473395 313.387966 
L 193.329664 313.506559 
L 193.329664 313.506559 
L 193.042118 313.46173 
L 193.042118 313.46173 
L 192.310077 313.063336 
L 192.310077 313.063336 
L 190.738994 311.884395 
L 190.738994 311.884395 
L 187.863645 309.391563 
L 187.863645 309.391563 
L 184.208309 305.922218 
L 184.208309 305.922218 
L 180.190266 301.765638 
L 180.190266 301.765638 
L 177.063156 298.189051 
L 177.063156 298.189051 
L 174.951057 295.487202 
L 174.951057 295.487202 
L 173.161469 292.853721 
L 173.161469 292.853721 
L 171.790926 290.354874 
L 171.790926 290.354874 
L 171.149676 288.790626 
L 171.149676 288.790626 
L 170.748032 287.322083 
L 170.748032 287.322083 
L 170.599306 285.957831 
L 170.599306 285.957831 
L 170.711841 284.702941 
L 170.711841 284.702941 
L 171.088829 283.558897 
L 171.088829 283.558897 
L 171.728243 282.523587 
L 171.728243 282.523587 
L 172.62285 281.591378 
L 172.62285 281.591378 
L 173.760343 280.753268 
L 173.760343 280.753268 
L 175.123567 279.997105 
L 175.123567 279.997105 
L 177.543132 278.983011 
L 177.543132 278.983011 
L 181.324633 277.758218 
L 181.324633 277.758218 
L 188.735883 275.488713 
L 188.735883 275.488713 
L 191.916891 274.277371 
L 191.916891 274.277371 
L 194.941139 272.828713 
L 194.941139 272.828713 
L 196.824778 271.706296 
L 196.824778 271.706296 
L 198.577252 270.446062 
L 198.577252 270.446062 
L 200.183242 269.041637 
L 200.183242 269.041637 
L 201.633655 267.490826 
L 201.633655 267.490826 
L 202.926044 265.795761 
L 202.926044 265.795761 
L 204.064803 263.962895 
L 204.064803 263.962895 
L 205.061147 262.002858 
L 205.061147 262.002858 
L 206.329237 258.857066 
L 206.329237 258.857066 
L 207.403555 255.521713 
L 207.403555 255.521713 
L 209.814901 247.448 
L 209.814901 247.448 
L 211.138327 244.073701 
L 211.138327 244.073701 
L 212.224765 241.9178 
L 212.224765 241.9178 
L 213.523744 239.86515 
L 213.523744 239.86515 
L 215.075285 237.938016 
L 215.075285 237.938016 
L 216.916588 236.156394 
L 216.916588 236.156394 
L 219.0813 234.537657 
L 219.0813 234.537657 
L 221.598851 233.096255 
L 221.598851 233.096255 
L 224.493867 231.843484 
L 224.493867 231.843484 
L 227.785645 230.787298 
L 227.785645 230.787298 
L 231.487682 229.932163 
L 231.487682 229.932163 
L 235.607264 229.278961 
L 235.607264 229.278961 
L 240.145103 228.824926 
L 240.145103 228.824926 
L 245.095035 228.563614 
L 245.095035 228.563614 
L 250.44377 228.484926 
L 250.44377 228.484926 
L 256.170733 228.575153 
L 256.170733 228.575153 
L 265.407208 228.988651 
L 265.407208 228.988651 
L 275.305007 229.670791 
L 275.305007 229.670791 
L 292.820625 231.163107 
L 292.820625 231.163107 
L 310.788241 232.685836 
L 310.788241 232.685836 
L 321.339942 233.402169 
L 321.339942 233.402169 
L 331.426151 233.838912 
L 331.426151 233.838912 
L 337.777671 233.926489 
L 337.777671 233.926489 
L 343.757936 233.821902 
L 343.757936 233.821902 
L 349.311899 233.504551 
L 349.311899 233.504551 
L 354.393238 232.958583 
L 354.393238 232.958583 
L 358.965843 232.173416 
L 358.965843 232.173416 
L 363.005003 231.14409 
L 363.005003 231.14409 
L 366.49821 229.871427 
L 366.49821 229.871427 
L 369.445535 228.36199 
L 369.445535 228.36199 
L 370.717948 227.522045 
L 370.717948 227.522045 
L 371.859568 226.627837 
L 371.859568 226.627837 
L 372.873843 225.681662 
L 372.873843 225.681662 
L 373.764917 224.686097 
L 373.764917 224.686097 
L 374.537594 223.643977 
L 374.537594 223.643977 
L 375.1973 222.558374 
L 375.1973 222.558374 
L 376.202303 220.270029 
L 376.202303 220.270029 
L 376.833852 217.849369 
L 376.833852 217.849369 
L 377.152503 215.326796 
L 377.152503 215.326796 
L 377.223626 212.733934 
L 377.223626 212.733934 
L 377.016074 208.782798 
L 377.016074 208.782798 
L 376.265889 199.808198 
L 376.265889 199.808198 
L 376.273406 197.42986 
L 376.273406 197.42986 
L 376.483955 195.176116 
L 376.483955 195.176116 
L 376.945083 193.065016 
L 376.945083 193.065016 
L 377.697558 191.111376 
L 377.697558 191.111376 
L 378.774951 189.326711 
L 378.774951 189.326711 
L 380.203348 187.719233 
L 380.203348 187.719233 
L 382.001185 186.293887 
L 382.001185 186.293887 
L 384.179176 185.052435 
L 384.179176 185.052435 
L 386.740336 183.993558 
L 386.740336 183.993558 
L 389.680073 183.112994 
L 389.680073 183.112994 
L 392.986365 182.403688 
L 392.986365 182.403688 
L 396.639997 181.855972 
L 396.639997 181.855972 
L 400.614876 181.457756 
L 400.614876 181.457756 
L 407.106635 181.108942 
L 407.106635 181.108942 
L 414.11191 181.00767 
L 414.11191 181.00767 
L 423.971094 181.146208 
L 423.971094 181.146208 
L 452.857317 181.84586 
L 452.857317 181.84586 
L 458.908027 181.728647 
L 458.908027 181.728647 
L 464.156099 181.382293 
L 464.156099 181.382293 
L 467.147962 181.005152 
L 467.147962 181.005152 
L 469.702014 180.501648 
L 469.702014 180.501648 
L 471.799213 179.866911 
L 471.799213 179.866911 
L 473.428515 179.098915 
L 473.428515 179.098915 
L 474.586899 178.198428 
L 474.586899 178.198428 
L 475.279155 177.168879 
L 475.279155 177.168879 
L 475.454022 176.607461 
L 475.454022 176.607461 
L 475.517476 176.01617 
L 475.517476 176.01617 
L 475.320853 174.748416 
L 475.320853 174.748416 
L 474.714314 173.375646 
L 474.714314 173.375646 
L 473.728052 171.909474 
L 473.728052 171.909474 
L 472.396457 170.362743 
L 472.396457 170.362743 
L 470.757111 168.749167 
L 470.757111 168.749167 
L 467.808385 166.234659 
L 467.808385 166.234659 
" style="fill:none;stroke:#000000;stroke-dasharray:5.55,2.4;stroke-dashoffset:0;stroke-opacity:0.595;stroke-width:1.5;"/>
   </g>
   <g id="legend_1">
    <g id="patch_6">
     <path d="M 473.09375 62.834375 
L 558.2 62.834375 
Q 560.2 62.834375 560.2 60.834375 
L 560.2 17.8 
Q 560.2 15.8 558.2 15.8 
L 473.09375 15.8 
Q 471.09375 15.8 471.09375 17.8 
L 471.09375 60.834375 
Q 471.09375 62.834375 473.09375 62.834375 
z
" style="fill:#ffffff;opacity:0.8;stroke:#cccccc;stroke-linejoin:miter;"/>
    </g>
    <g id="line2d_23">
     <path d="M 475.09375 23.898438 
L 495.09375 23.898438 
" style="fill:none;stroke:#1f77b4;stroke-linecap:square;stroke-opacity:0.7;stroke-width:1.5;"/>
    </g>
    <g id="line2d_24"/>
    <g id="text_20">
     <!-- DSLPID -->
     <g transform="translate(503.09375 27.398438)scale(0.1 -0.1)">
      <defs>
       <path d="M 1259 4147 
L 1259 519 
L 2022 519 
Q 2988 519 3436 956 
Q 3884 1394 3884 2338 
Q 3884 3275 3436 3711 
Q 2988 4147 2022 4147 
L 1259 4147 
z
M 628 4666 
L 1925 4666 
Q 3281 4666 3915 4102 
Q 4550 3538 4550 2338 
Q 4550 1131 3912 565 
Q 3275 0 1925 0 
L 628 0 
L 628 4666 
z
" id="DejaVuSans-44" transform="scale(0.015625)"/>
       <path d="M 3425 4513 
L 3425 3897 
Q 3066 4069 2747 4153 
Q 2428 4238 2131 4238 
Q 1616 4238 1336 4038 
Q 1056 3838 1056 3469 
Q 1056 3159 1242 3001 
Q 1428 2844 1947 2747 
L 2328 2669 
Q 3034 2534 3370 2195 
Q 3706 1856 3706 1288 
Q 3706 609 3251 259 
Q 2797 -91 1919 -91 
Q 1588 -91 1214 -16 
Q 841 59 441 206 
L 441 856 
Q 825 641 1194 531 
Q 1563 422 1919 422 
Q 2459 422 2753 634 
Q 3047 847 3047 1241 
Q 3047 1584 2836 1778 
Q 2625 1972 2144 2069 
L 1759 2144 
Q 1053 2284 737 2584 
Q 422 2884 422 3419 
Q 422 4038 858 4394 
Q 1294 4750 2059 4750 
Q 2388 4750 2728 4690 
Q 3069 4631 3425 4513 
z
" id="DejaVuSans-53" transform="scale(0.015625)"/>
       <path d="M 628 4666 
L 1259 4666 
L 1259 531 
L 3531 531 
L 3531 0 
L 628 0 
L 628 4666 
z
" id="DejaVuSans-4c" transform="scale(0.015625)"/>
       <path d="M 1259 4147 
L 1259 2394 
L 2053 2394 
Q 2494 2394 2734 2622 
Q 2975 2850 2975 3272 
Q 2975 3691 2734 3919 
Q 2494 4147 2053 4147 
L 1259 4147 
z
M 628 4666 
L 2053 4666 
Q 2838 4666 3239 4311 
Q 3641 3956 3641 3272 
Q 3641 2581 3239 2228 
Q 2838 1875 2053 1875 
L 1259 1875 
L 1259 0 
L 628 0 
L 628 4666 
z
" id="DejaVuSans-50" transform="scale(0.015625)"/>
       <path d="M 628 4666 
L 1259 4666 
L 1259 0 
L 628 0 
L 628 4666 
z
" id="DejaVuSans-49" transform="scale(0.015625)"/>
      </defs>
      <use xlink:href="#DejaVuSans-44"/>
      <use x="77.001953" xlink:href="#DejaVuSans-53"/>
      <use x="140.478516" xlink:href="#DejaVuSans-4c"/>
      <use x="196.191406" xlink:href="#DejaVuSans-50"/>
      <use x="256.494141" xlink:href="#DejaVuSans-49"/>
      <use x="285.986328" xlink:href="#DejaVuSans-44"/>
     </g>
    </g>
    <g id="line2d_25">
     <path d="M 475.09375 38.576563 
L 495.09375 38.576563 
" style="fill:none;stroke:#d62728;stroke-linecap:square;stroke-opacity:0.7;stroke-width:1.5;"/>
    </g>
    <g id="line2d_26"/>
    <g id="text_21">
     <!-- LSTMCNN -->
     <g transform="translate(503.09375 42.076563)scale(0.1 -0.1)">
      <defs>
       <path d="M -19 4666 
L 3928 4666 
L 3928 4134 
L 2272 4134 
L 2272 0 
L 1638 0 
L 1638 4134 
L -19 4134 
L -19 4666 
z
" id="DejaVuSans-54" transform="scale(0.015625)"/>
       <path d="M 628 4666 
L 1569 4666 
L 2759 1491 
L 3956 4666 
L 4897 4666 
L 4897 0 
L 4281 0 
L 4281 4097 
L 3078 897 
L 2444 897 
L 1241 4097 
L 1241 0 
L 628 0 
L 628 4666 
z
" id="DejaVuSans-4d" transform="scale(0.015625)"/>
       <path d="M 4122 4306 
L 4122 3641 
Q 3803 3938 3442 4084 
Q 3081 4231 2675 4231 
Q 1875 4231 1450 3742 
Q 1025 3253 1025 2328 
Q 1025 1406 1450 917 
Q 1875 428 2675 428 
Q 3081 428 3442 575 
Q 3803 722 4122 1019 
L 4122 359 
Q 3791 134 3420 21 
Q 3050 -91 2638 -91 
Q 1578 -91 968 557 
Q 359 1206 359 2328 
Q 359 3453 968 4101 
Q 1578 4750 2638 4750 
Q 3056 4750 3426 4639 
Q 3797 4528 4122 4306 
z
" id="DejaVuSans-43" transform="scale(0.015625)"/>
       <path d="M 628 4666 
L 1478 4666 
L 3547 763 
L 3547 4666 
L 4159 4666 
L 4159 0 
L 3309 0 
L 1241 3903 
L 1241 0 
L 628 0 
L 628 4666 
z
" id="DejaVuSans-4e" transform="scale(0.015625)"/>
      </defs>
      <use xlink:href="#DejaVuSans-4c"/>
      <use x="55.712891" xlink:href="#DejaVuSans-53"/>
      <use x="119.189453" xlink:href="#DejaVuSans-54"/>
      <use x="180.273438" xlink:href="#DejaVuSans-4d"/>
      <use x="266.552734" xlink:href="#DejaVuSans-43"/>
      <use x="336.376953" xlink:href="#DejaVuSans-4e"/>
      <use x="411.181641" xlink:href="#DejaVuSans-4e"/>
     </g>
    </g>
    <g id="line2d_27">
     <path d="M 475.09375 53.254688 
L 495.09375 53.254688 
" style="fill:none;stroke:#000000;stroke-dasharray:5.55,2.4;stroke-dashoffset:0;stroke-opacity:0.595;stroke-width:1.5;"/>
    </g>
    <g id="line2d_28"/>
    <g id="text_22">
     <!-- Referencia -->
     <g transform="translate(503.09375 56.754688)scale(0.1 -0.1)">
      <defs>
       <path d="M 2841 2188 
Q 3044 2119 3236 1894 
Q 3428 1669 3622 1275 
L 4263 0 
L 3584 0 
L 2988 1197 
Q 2756 1666 2539 1819 
Q 2322 1972 1947 1972 
L 1259 1972 
L 1259 0 
L 628 0 
L 628 4666 
L 2053 4666 
Q 2853 4666 3247 4331 
Q 3641 3997 3641 3322 
Q 3641 2881 3436 2590 
Q 3231 2300 2841 2188 
z
M 1259 4147 
L 1259 2491 
L 2053 2491 
Q 2509 2491 2742 2702 
Q 2975 2913 2975 3322 
Q 2975 3731 2742 3939 
Q 2509 4147 2053 4147 
L 1259 4147 
z
" id="DejaVuSans-52" transform="scale(0.015625)"/>
       <path d="M 3597 1894 
L 3597 1613 
L 953 1613 
Q 991 1019 1311 708 
Q 1631 397 2203 397 
Q 2534 397 2845 478 
Q 3156 559 3463 722 
L 3463 178 
Q 3153 47 2828 -22 
Q 2503 -91 2169 -91 
Q 1331 -91 842 396 
Q 353 884 353 1716 
Q 353 2575 817 3079 
Q 1281 3584 2069 3584 
Q 2775 3584 3186 3129 
Q 3597 2675 3597 1894 
z
M 3022 2063 
Q 3016 2534 2758 2815 
Q 2500 3097 2075 3097 
Q 1594 3097 1305 2825 
Q 1016 2553 972 2059 
L 3022 2063 
z
" id="DejaVuSans-65" transform="scale(0.015625)"/>
       <path d="M 2375 4863 
L 2375 4384 
L 1825 4384 
Q 1516 4384 1395 4259 
Q 1275 4134 1275 3809 
L 1275 3500 
L 2222 3500 
L 2222 3053 
L 1275 3053 
L 1275 0 
L 697 0 
L 697 3053 
L 147 3053 
L 147 3500 
L 697 3500 
L 697 3744 
Q 697 4328 969 4595 
Q 1241 4863 1831 4863 
L 2375 4863 
z
" id="DejaVuSans-66" transform="scale(0.015625)"/>
       <path d="M 2631 2963 
Q 2534 3019 2420 3045 
Q 2306 3072 2169 3072 
Q 1681 3072 1420 2755 
Q 1159 2438 1159 1844 
L 1159 0 
L 581 0 
L 581 3500 
L 1159 3500 
L 1159 2956 
Q 1341 3275 1631 3429 
Q 1922 3584 2338 3584 
Q 2397 3584 2469 3576 
Q 2541 3569 2628 3553 
L 2631 2963 
z
" id="DejaVuSans-72" transform="scale(0.015625)"/>
       <path d="M 3513 2113 
L 3513 0 
L 2938 0 
L 2938 2094 
Q 2938 2591 2744 2837 
Q 2550 3084 2163 3084 
Q 1697 3084 1428 2787 
Q 1159 2491 1159 1978 
L 1159 0 
L 581 0 
L 581 3500 
L 1159 3500 
L 1159 2956 
Q 1366 3272 1645 3428 
Q 1925 3584 2291 3584 
Q 2894 3584 3203 3211 
Q 3513 2838 3513 2113 
z
" id="DejaVuSans-6e" transform="scale(0.015625)"/>
       <path d="M 3122 3366 
L 3122 2828 
Q 2878 2963 2633 3030 
Q 2388 3097 2138 3097 
Q 1578 3097 1268 2742 
Q 959 2388 959 1747 
Q 959 1106 1268 751 
Q 1578 397 2138 397 
Q 2388 397 2633 464 
Q 2878 531 3122 666 
L 3122 134 
Q 2881 22 2623 -34 
Q 2366 -91 2075 -91 
Q 1284 -91 818 406 
Q 353 903 353 1747 
Q 353 2603 823 3093 
Q 1294 3584 2113 3584 
Q 2378 3584 2631 3529 
Q 2884 3475 3122 3366 
z
" id="DejaVuSans-63" transform="scale(0.015625)"/>
       <path d="M 603 3500 
L 1178 3500 
L 1178 0 
L 603 0 
L 603 3500 
z
M 603 4863 
L 1178 4863 
L 1178 4134 
L 603 4134 
L 603 4863 
z
" id="DejaVuSans-69" transform="scale(0.015625)"/>
       <path d="M 2194 1759 
Q 1497 1759 1228 1600 
Q 959 1441 959 1056 
Q 959 750 1161 570 
Q 1363 391 1709 391 
Q 2188 391 2477 730 
Q 2766 1069 2766 1631 
L 2766 1759 
L 2194 1759 
z
M 3341 1997 
L 3341 0 
L 2766 0 
L 2766 531 
Q 2569 213 2275 61 
Q 1981 -91 1556 -91 
Q 1019 -91 701 211 
Q 384 513 384 1019 
Q 384 1609 779 1909 
Q 1175 2209 1959 2209 
L 2766 2209 
L 2766 2266 
Q 2766 2663 2505 2880 
Q 2244 3097 1772 3097 
Q 1472 3097 1187 3025 
Q 903 2953 641 2809 
L 641 3341 
Q 956 3463 1253 3523 
Q 1550 3584 1831 3584 
Q 2591 3584 2966 3190 
Q 3341 2797 3341 1997 
z
" id="DejaVuSans-61" transform="scale(0.015625)"/>
      </defs>
      <use xlink:href="#DejaVuSans-52"/>
      <use x="64.982422" xlink:href="#DejaVuSans-65"/>
      <use x="126.505859" xlink:href="#DejaVuSans-66"/>
      <use x="161.710938" xlink:href="#DejaVuSans-65"/>
      <use x="223.234375" xlink:href="#DejaVuSans-72"/>
      <use x="262.097656" xlink:href="#DejaVuSans-65"/>
      <use x="323.621094" xlink:href="#DejaVuSans-6e"/>
      <use x="387" xlink:href="#DejaVuSans-63"/>
      <use x="441.980469" xlink:href="#DejaVuSans-69"/>
      <use x="469.763672" xlink:href="#DejaVuSans-61"/>
     </g>
    </g>
   </g>
  </g>
 </g>
 <defs>
  <clipPath id="p1a4b291d33">
   <rect height="554.4" width="554.4" x="10.8" y="10.8"/>
  </clipPath>
 </defs>
</svg>
