<?xml version="1.0" encoding="utf-8" standalone="no"?>
<!DOCTYPE svg PUBLIC "-//W3C//DTD SVG 1.1//EN"
  "http://www.w3.org/Graphics/SVG/1.1/DTD/svg11.dtd">
<svg height="576pt" version="1.1" viewBox="0 0 576 576" width="576pt" xmlns="http://www.w3.org/2000/svg" xmlns:xlink="http://www.w3.org/1999/xlink">
 <metadata>
  <rdf:RDF xmlns:cc="http://creativecommons.org/ns#" xmlns:dc="http://purl.org/dc/elements/1.1/" xmlns:rdf="http://www.w3.org/1999/02/22-rdf-syntax-ns#">
   <cc:Work>
    <dc:type rdf:resource="http://purl.org/dc/dcmitype/StillImage"/>
    <dc:date>2022-02-27T23:59:44.243527</dc:date>
    <dc:format>image/svg+xml</dc:format>
    <dc:creator>
     <cc:Agent>
      <dc:title>Matplotlib v3.4.3, https://matplotlib.org/</dc:title>
     </cc:Agent>
    </dc:creator>
   </cc:Work>
  </rdf:RDF>
 </metadata>
 <defs>
  <style type="text/css">*{stroke-linecap:butt;stroke-linejoin:round;}</style>
 </defs>
 <g id="figure_1">
  <g id="patch_1">
   <path d="M 0 576 
L 576 576 
L 576 0 
L 0 0 
z
" style="fill:#ffffff;"/>
  </g>
  <g id="axes_1">
   <g id="patch_2">
    <path d="M 65.59 259.26 
L 253.8 259.26 
L 253.8 55.68 
L 65.59 55.68 
z
" style="fill:#ffffff;"/>
   </g>
   <g id="matplotlib.axis_1">
    <g id="xtick_1">
     <g id="line2d_1">
      <path clip-path="url(#p30c0714471)" d="M 74.145 259.26 
L 74.145 55.68 
" style="fill:none;stroke:#b0b0b0;stroke-linecap:square;stroke-width:0.8;"/>
     </g>
     <g id="line2d_2">
      <defs>
       <path d="M 0 0 
L 0 3.5 
" id="m683997d625" style="stroke:#000000;stroke-width:0.8;"/>
      </defs>
      <g>
       <use style="stroke:#000000;stroke-width:0.8;" x="74.145" xlink:href="#m683997d625" y="259.26"/>
      </g>
     </g>
    </g>
    <g id="xtick_2">
     <g id="line2d_3">
      <path clip-path="url(#p30c0714471)" d="M 116.928913 259.26 
L 116.928913 55.68 
" style="fill:none;stroke:#b0b0b0;stroke-linecap:square;stroke-width:0.8;"/>
     </g>
     <g id="line2d_4">
      <g>
       <use style="stroke:#000000;stroke-width:0.8;" x="116.928913" xlink:href="#m683997d625" y="259.26"/>
      </g>
     </g>
    </g>
    <g id="xtick_3">
     <g id="line2d_5">
      <path clip-path="url(#p30c0714471)" d="M 159.712827 259.26 
L 159.712827 55.68 
" style="fill:none;stroke:#b0b0b0;stroke-linecap:square;stroke-width:0.8;"/>
     </g>
     <g id="line2d_6">
      <g>
       <use style="stroke:#000000;stroke-width:0.8;" x="159.712827" xlink:href="#m683997d625" y="259.26"/>
      </g>
     </g>
    </g>
    <g id="xtick_4">
     <g id="line2d_7">
      <path clip-path="url(#p30c0714471)" d="M 202.49674 259.26 
L 202.49674 55.68 
" style="fill:none;stroke:#b0b0b0;stroke-linecap:square;stroke-width:0.8;"/>
     </g>
     <g id="line2d_8">
      <g>
       <use style="stroke:#000000;stroke-width:0.8;" x="202.49674" xlink:href="#m683997d625" y="259.26"/>
      </g>
     </g>
    </g>
    <g id="xtick_5">
     <g id="line2d_9">
      <path clip-path="url(#p30c0714471)" d="M 245.280653 259.26 
L 245.280653 55.68 
" style="fill:none;stroke:#b0b0b0;stroke-linecap:square;stroke-width:0.8;"/>
     </g>
     <g id="line2d_10">
      <g>
       <use style="stroke:#000000;stroke-width:0.8;" x="245.280653" xlink:href="#m683997d625" y="259.26"/>
      </g>
     </g>
    </g>
    <g id="text_1">
     <!-- Tiempo (s) -->
     <g transform="translate(133.1325 270.858438)scale(0.1 -0.1)">
      <defs>
       <path d="M -19 4666 
L 3928 4666 
L 3928 4134 
L 2272 4134 
L 2272 0 
L 1638 0 
L 1638 4134 
L -19 4134 
L -19 4666 
z
" id="DejaVuSans-54" transform="scale(0.015625)"/>
       <path d="M 603 3500 
L 1178 3500 
L 1178 0 
L 603 0 
L 603 3500 
z
M 603 4863 
L 1178 4863 
L 1178 4134 
L 603 4134 
L 603 4863 
z
" id="DejaVuSans-69" transform="scale(0.015625)"/>
       <path d="M 3597 1894 
L 3597 1613 
L 953 1613 
Q 991 1019 1311 708 
Q 1631 397 2203 397 
Q 2534 397 2845 478 
Q 3156 559 3463 722 
L 3463 178 
Q 3153 47 2828 -22 
Q 2503 -91 2169 -91 
Q 1331 -91 842 396 
Q 353 884 353 1716 
Q 353 2575 817 3079 
Q 1281 3584 2069 3584 
Q 2775 3584 3186 3129 
Q 3597 2675 3597 1894 
z
M 3022 2063 
Q 3016 2534 2758 2815 
Q 2500 3097 2075 3097 
Q 1594 3097 1305 2825 
Q 1016 2553 972 2059 
L 3022 2063 
z
" id="DejaVuSans-65" transform="scale(0.015625)"/>
       <path d="M 3328 2828 
Q 3544 3216 3844 3400 
Q 4144 3584 4550 3584 
Q 5097 3584 5394 3201 
Q 5691 2819 5691 2113 
L 5691 0 
L 5113 0 
L 5113 2094 
Q 5113 2597 4934 2840 
Q 4756 3084 4391 3084 
Q 3944 3084 3684 2787 
Q 3425 2491 3425 1978 
L 3425 0 
L 2847 0 
L 2847 2094 
Q 2847 2600 2669 2842 
Q 2491 3084 2119 3084 
Q 1678 3084 1418 2786 
Q 1159 2488 1159 1978 
L 1159 0 
L 581 0 
L 581 3500 
L 1159 3500 
L 1159 2956 
Q 1356 3278 1631 3431 
Q 1906 3584 2284 3584 
Q 2666 3584 2933 3390 
Q 3200 3197 3328 2828 
z
" id="DejaVuSans-6d" transform="scale(0.015625)"/>
       <path d="M 1159 525 
L 1159 -1331 
L 581 -1331 
L 581 3500 
L 1159 3500 
L 1159 2969 
Q 1341 3281 1617 3432 
Q 1894 3584 2278 3584 
Q 2916 3584 3314 3078 
Q 3713 2572 3713 1747 
Q 3713 922 3314 415 
Q 2916 -91 2278 -91 
Q 1894 -91 1617 61 
Q 1341 213 1159 525 
z
M 3116 1747 
Q 3116 2381 2855 2742 
Q 2594 3103 2138 3103 
Q 1681 3103 1420 2742 
Q 1159 2381 1159 1747 
Q 1159 1113 1420 752 
Q 1681 391 2138 391 
Q 2594 391 2855 752 
Q 3116 1113 3116 1747 
z
" id="DejaVuSans-70" transform="scale(0.015625)"/>
       <path d="M 1959 3097 
Q 1497 3097 1228 2736 
Q 959 2375 959 1747 
Q 959 1119 1226 758 
Q 1494 397 1959 397 
Q 2419 397 2687 759 
Q 2956 1122 2956 1747 
Q 2956 2369 2687 2733 
Q 2419 3097 1959 3097 
z
M 1959 3584 
Q 2709 3584 3137 3096 
Q 3566 2609 3566 1747 
Q 3566 888 3137 398 
Q 2709 -91 1959 -91 
Q 1206 -91 779 398 
Q 353 888 353 1747 
Q 353 2609 779 3096 
Q 1206 3584 1959 3584 
z
" id="DejaVuSans-6f" transform="scale(0.015625)"/>
       <path id="DejaVuSans-20" transform="scale(0.015625)"/>
       <path d="M 1984 4856 
Q 1566 4138 1362 3434 
Q 1159 2731 1159 2009 
Q 1159 1288 1364 580 
Q 1569 -128 1984 -844 
L 1484 -844 
Q 1016 -109 783 600 
Q 550 1309 550 2009 
Q 550 2706 781 3412 
Q 1013 4119 1484 4856 
L 1984 4856 
z
" id="DejaVuSans-28" transform="scale(0.015625)"/>
       <path d="M 2834 3397 
L 2834 2853 
Q 2591 2978 2328 3040 
Q 2066 3103 1784 3103 
Q 1356 3103 1142 2972 
Q 928 2841 928 2578 
Q 928 2378 1081 2264 
Q 1234 2150 1697 2047 
L 1894 2003 
Q 2506 1872 2764 1633 
Q 3022 1394 3022 966 
Q 3022 478 2636 193 
Q 2250 -91 1575 -91 
Q 1294 -91 989 -36 
Q 684 19 347 128 
L 347 722 
Q 666 556 975 473 
Q 1284 391 1588 391 
Q 1994 391 2212 530 
Q 2431 669 2431 922 
Q 2431 1156 2273 1281 
Q 2116 1406 1581 1522 
L 1381 1569 
Q 847 1681 609 1914 
Q 372 2147 372 2553 
Q 372 3047 722 3315 
Q 1072 3584 1716 3584 
Q 2034 3584 2315 3537 
Q 2597 3491 2834 3397 
z
" id="DejaVuSans-73" transform="scale(0.015625)"/>
       <path d="M 513 4856 
L 1013 4856 
Q 1481 4119 1714 3412 
Q 1947 2706 1947 2009 
Q 1947 1309 1714 600 
Q 1481 -109 1013 -844 
L 513 -844 
Q 928 -128 1133 580 
Q 1338 1288 1338 2009 
Q 1338 2731 1133 3434 
Q 928 4138 513 4856 
z
" id="DejaVuSans-29" transform="scale(0.015625)"/>
      </defs>
      <use xlink:href="#DejaVuSans-54"/>
      <use x="57.958984" xlink:href="#DejaVuSans-69"/>
      <use x="85.742188" xlink:href="#DejaVuSans-65"/>
      <use x="147.265625" xlink:href="#DejaVuSans-6d"/>
      <use x="244.677734" xlink:href="#DejaVuSans-70"/>
      <use x="308.154297" xlink:href="#DejaVuSans-6f"/>
      <use x="369.335938" xlink:href="#DejaVuSans-20"/>
      <use x="401.123047" xlink:href="#DejaVuSans-28"/>
      <use x="440.136719" xlink:href="#DejaVuSans-73"/>
      <use x="492.236328" xlink:href="#DejaVuSans-29"/>
     </g>
    </g>
   </g>
   <g id="matplotlib.axis_2">
    <g id="ytick_1">
     <g id="line2d_11">
      <path clip-path="url(#p30c0714471)" d="M 65.59 250.006364 
L 253.8 250.006364 
" style="fill:none;stroke:#b0b0b0;stroke-linecap:square;stroke-width:0.8;"/>
     </g>
     <g id="line2d_12">
      <defs>
       <path d="M 0 0 
L -3.5 0 
" id="ma1a8b4d67e" style="stroke:#000000;stroke-width:0.8;"/>
      </defs>
      <g>
       <use style="stroke:#000000;stroke-width:0.8;" x="65.59" xlink:href="#ma1a8b4d67e" y="250.006364"/>
      </g>
     </g>
     <g id="text_2">
      <!-- 0 -->
      <g transform="translate(52.2275 253.805582)scale(0.1 -0.1)">
       <defs>
        <path d="M 2034 4250 
Q 1547 4250 1301 3770 
Q 1056 3291 1056 2328 
Q 1056 1369 1301 889 
Q 1547 409 2034 409 
Q 2525 409 2770 889 
Q 3016 1369 3016 2328 
Q 3016 3291 2770 3770 
Q 2525 4250 2034 4250 
z
M 2034 4750 
Q 2819 4750 3233 4129 
Q 3647 3509 3647 2328 
Q 3647 1150 3233 529 
Q 2819 -91 2034 -91 
Q 1250 -91 836 529 
Q 422 1150 422 2328 
Q 422 3509 836 4129 
Q 1250 4750 2034 4750 
z
" id="DejaVuSans-30" transform="scale(0.015625)"/>
       </defs>
       <use xlink:href="#DejaVuSans-30"/>
      </g>
     </g>
    </g>
    <g id="ytick_2">
     <g id="line2d_13">
      <path clip-path="url(#p30c0714471)" d="M 65.59 217.623084 
L 253.8 217.623084 
" style="fill:none;stroke:#b0b0b0;stroke-linecap:square;stroke-width:0.8;"/>
     </g>
     <g id="line2d_14">
      <g>
       <use style="stroke:#000000;stroke-width:0.8;" x="65.59" xlink:href="#ma1a8b4d67e" y="217.623084"/>
      </g>
     </g>
     <g id="text_3">
      <!-- 5 -->
      <g transform="translate(52.2275 221.422303)scale(0.1 -0.1)">
       <defs>
        <path d="M 691 4666 
L 3169 4666 
L 3169 4134 
L 1269 4134 
L 1269 2991 
Q 1406 3038 1543 3061 
Q 1681 3084 1819 3084 
Q 2600 3084 3056 2656 
Q 3513 2228 3513 1497 
Q 3513 744 3044 326 
Q 2575 -91 1722 -91 
Q 1428 -91 1123 -41 
Q 819 9 494 109 
L 494 744 
Q 775 591 1075 516 
Q 1375 441 1709 441 
Q 2250 441 2565 725 
Q 2881 1009 2881 1497 
Q 2881 1984 2565 2268 
Q 2250 2553 1709 2553 
Q 1456 2553 1204 2497 
Q 953 2441 691 2322 
L 691 4666 
z
" id="DejaVuSans-35" transform="scale(0.015625)"/>
       </defs>
       <use xlink:href="#DejaVuSans-35"/>
      </g>
     </g>
    </g>
    <g id="ytick_3">
     <g id="line2d_15">
      <path clip-path="url(#p30c0714471)" d="M 65.59 185.239805 
L 253.8 185.239805 
" style="fill:none;stroke:#b0b0b0;stroke-linecap:square;stroke-width:0.8;"/>
     </g>
     <g id="line2d_16">
      <g>
       <use style="stroke:#000000;stroke-width:0.8;" x="65.59" xlink:href="#ma1a8b4d67e" y="185.239805"/>
      </g>
     </g>
     <g id="text_4">
      <!-- 10 -->
      <g transform="translate(45.865 189.039023)scale(0.1 -0.1)">
       <defs>
        <path d="M 794 531 
L 1825 531 
L 1825 4091 
L 703 3866 
L 703 4441 
L 1819 4666 
L 2450 4666 
L 2450 531 
L 3481 531 
L 3481 0 
L 794 0 
L 794 531 
z
" id="DejaVuSans-31" transform="scale(0.015625)"/>
       </defs>
       <use xlink:href="#DejaVuSans-31"/>
       <use x="63.623047" xlink:href="#DejaVuSans-30"/>
      </g>
     </g>
    </g>
    <g id="ytick_4">
     <g id="line2d_17">
      <path clip-path="url(#p30c0714471)" d="M 65.59 152.856525 
L 253.8 152.856525 
" style="fill:none;stroke:#b0b0b0;stroke-linecap:square;stroke-width:0.8;"/>
     </g>
     <g id="line2d_18">
      <g>
       <use style="stroke:#000000;stroke-width:0.8;" x="65.59" xlink:href="#ma1a8b4d67e" y="152.856525"/>
      </g>
     </g>
     <g id="text_5">
      <!-- 15 -->
      <g transform="translate(45.865 156.655744)scale(0.1 -0.1)">
       <use xlink:href="#DejaVuSans-31"/>
       <use x="63.623047" xlink:href="#DejaVuSans-35"/>
      </g>
     </g>
    </g>
    <g id="ytick_5">
     <g id="line2d_19">
      <path clip-path="url(#p30c0714471)" d="M 65.59 120.473246 
L 253.8 120.473246 
" style="fill:none;stroke:#b0b0b0;stroke-linecap:square;stroke-width:0.8;"/>
     </g>
     <g id="line2d_20">
      <g>
       <use style="stroke:#000000;stroke-width:0.8;" x="65.59" xlink:href="#ma1a8b4d67e" y="120.473246"/>
      </g>
     </g>
     <g id="text_6">
      <!-- 20 -->
      <g transform="translate(45.865 124.272465)scale(0.1 -0.1)">
       <defs>
        <path d="M 1228 531 
L 3431 531 
L 3431 0 
L 469 0 
L 469 531 
Q 828 903 1448 1529 
Q 2069 2156 2228 2338 
Q 2531 2678 2651 2914 
Q 2772 3150 2772 3378 
Q 2772 3750 2511 3984 
Q 2250 4219 1831 4219 
Q 1534 4219 1204 4116 
Q 875 4013 500 3803 
L 500 4441 
Q 881 4594 1212 4672 
Q 1544 4750 1819 4750 
Q 2544 4750 2975 4387 
Q 3406 4025 3406 3419 
Q 3406 3131 3298 2873 
Q 3191 2616 2906 2266 
Q 2828 2175 2409 1742 
Q 1991 1309 1228 531 
z
" id="DejaVuSans-32" transform="scale(0.015625)"/>
       </defs>
       <use xlink:href="#DejaVuSans-32"/>
       <use x="63.623047" xlink:href="#DejaVuSans-30"/>
      </g>
     </g>
    </g>
    <g id="ytick_6">
     <g id="line2d_21">
      <path clip-path="url(#p30c0714471)" d="M 65.59 88.089966 
L 253.8 88.089966 
" style="fill:none;stroke:#b0b0b0;stroke-linecap:square;stroke-width:0.8;"/>
     </g>
     <g id="line2d_22">
      <g>
       <use style="stroke:#000000;stroke-width:0.8;" x="65.59" xlink:href="#ma1a8b4d67e" y="88.089966"/>
      </g>
     </g>
     <g id="text_7">
      <!-- 25 -->
      <g transform="translate(45.865 91.889185)scale(0.1 -0.1)">
       <use xlink:href="#DejaVuSans-32"/>
       <use x="63.623047" xlink:href="#DejaVuSans-35"/>
      </g>
     </g>
    </g>
    <g id="ytick_7">
     <g id="line2d_23">
      <path clip-path="url(#p30c0714471)" d="M 65.59 55.706687 
L 253.8 55.706687 
" style="fill:none;stroke:#b0b0b0;stroke-linecap:square;stroke-width:0.8;"/>
     </g>
     <g id="line2d_24">
      <g>
       <use style="stroke:#000000;stroke-width:0.8;" x="65.59" xlink:href="#ma1a8b4d67e" y="55.706687"/>
      </g>
     </g>
     <g id="text_8">
      <!-- 30 -->
      <g transform="translate(45.865 59.505906)scale(0.1 -0.1)">
       <defs>
        <path d="M 2597 2516 
Q 3050 2419 3304 2112 
Q 3559 1806 3559 1356 
Q 3559 666 3084 287 
Q 2609 -91 1734 -91 
Q 1441 -91 1130 -33 
Q 819 25 488 141 
L 488 750 
Q 750 597 1062 519 
Q 1375 441 1716 441 
Q 2309 441 2620 675 
Q 2931 909 2931 1356 
Q 2931 1769 2642 2001 
Q 2353 2234 1838 2234 
L 1294 2234 
L 1294 2753 
L 1863 2753 
Q 2328 2753 2575 2939 
Q 2822 3125 2822 3475 
Q 2822 3834 2567 4026 
Q 2313 4219 1838 4219 
Q 1578 4219 1281 4162 
Q 984 4106 628 3988 
L 628 4550 
Q 988 4650 1302 4700 
Q 1616 4750 1894 4750 
Q 2613 4750 3031 4423 
Q 3450 4097 3450 3541 
Q 3450 3153 3228 2886 
Q 3006 2619 2597 2516 
z
" id="DejaVuSans-33" transform="scale(0.015625)"/>
       </defs>
       <use xlink:href="#DejaVuSans-33"/>
       <use x="63.623047" xlink:href="#DejaVuSans-30"/>
      </g>
     </g>
    </g>
   </g>
   <g id="line2d_25">
    <path clip-path="url(#p30c0714471)" d="M 74.145 250.006364 
L 134.719891 249.898035 
L 136.645167 249.616366 
L 138.035644 249.207001 
L 139.461774 248.568446 
L 141.280091 247.506108 
L 143.383633 246.35718 
L 144.381924 246.069969 
L 146.235894 245.698386 
L 147.020266 245.192763 
L 148.018557 244.225595 
L 149.088155 242.871849 
L 152.867401 237.879883 
L 153.758732 237.212369 
L 154.543104 236.884023 
L 155.363129 236.789182 
L 156.147501 236.664658 
L 157.217098 236.253162 
L 160.604158 234.734022 
L 161.780716 234.39502 
L 162.172902 233.92317 
L 162.600741 233.046061 
L 163.13554 231.355199 
L 163.812952 228.384917 
L 166.522599 215.512921 
L 167.128705 214.022322 
L 167.627851 213.327482 
L 168.05569 213.077237 
L 168.875715 212.801262 
L 169.48182 212.22187 
L 171.01491 210.262649 
L 172.191468 208.985281 
L 173.225413 208.185195 
L 174.473277 207.501593 
L 176.14898 206.839633 
L 177.432497 206.544714 
L 180.106492 206.090266 
L 183.671818 204.876502 
L 184.777069 204.722753 
L 185.525788 204.377687 
L 186.417119 203.693994 
L 187.451064 202.552163 
L 188.520662 201.056636 
L 192.406867 195.474052 
L 193.155586 194.91618 
L 193.761691 194.697621 
L 194.902595 194.421137 
L 195.508701 193.949497 
L 196.293073 192.982287 
L 197.148751 191.532897 
L 198.432268 188.802393 
L 201.07061 183.035109 
L 201.997594 181.595592 
L 202.781966 180.774566 
L 203.601991 180.234376 
L 204.493323 179.916598 
L 205.598574 179.76988 
L 209.449126 179.470085 
L 211.552668 179.01175 
L 214.511889 178.103606 
L 226.99053 174.140619 
L 234.477715 172.029057 
L 242.107513 170.113073 
L 245.245 169.388892 
L 245.245 169.388892 
" style="fill:none;stroke:#1f77b4;stroke-linecap:square;stroke-opacity:0.7;stroke-width:1.5;"/>
   </g>
   <g id="line2d_26">
    <path clip-path="url(#p30c0714471)" d="M 74.145 250.006364 
L 77.032914 249.901544 
L 77.888592 249.626114 
L 78.672964 249.132244 
L 79.564296 248.283041 
L 80.81216 246.738015 
L 84.127913 242.511898 
L 89.083716 236.960552 
L 94.289093 231.338578 
L 103.630247 221.186309 
L 116.643687 206.724035 
L 119.852481 203.277654 
L 120.850772 202.53466 
L 121.635144 202.205243 
L 122.455169 202.115227 
L 123.096927 201.912545 
L 123.809993 201.438495 
L 124.630018 200.603325 
L 125.735269 199.121997 
L 127.410972 196.883085 
L 128.159691 196.26492 
L 128.765796 196.037081 
L 129.978007 195.745257 
L 130.833685 195.166142 
L 133.757253 192.992949 
L 135.183383 192.37474 
L 136.78778 191.645578 
L 137.714765 190.976353 
L 138.570443 190.103595 
L 139.497428 188.852668 
L 140.495719 187.158669 
L 141.779236 184.537017 
L 143.633206 180.217154 
L 145.629788 175.670762 
L 146.73504 173.648926 
L 147.590718 172.507839 
L 148.303783 171.909078 
L 148.945542 171.67359 
L 149.979486 171.398314 
L 150.585592 170.912374 
L 151.44127 169.846627 
L 152.332602 168.388691 
L 155.612702 162.902429 
L 156.36142 162.24872 
L 156.967526 161.992175 
L 158.322349 161.58576 
L 158.999761 160.981321 
L 159.891093 159.847422 
L 161.994635 156.965512 
L 162.81466 156.489417 
L 163.206846 155.708034 
L 163.705992 154.171852 
L 164.45471 151.033415 
L 166.558253 141.823107 
L 167.200011 140.153068 
L 167.699157 139.418746 
L 168.091343 139.190175 
L 168.661795 138.994047 
L 169.089634 138.522253 
L 169.624433 137.603076 
L 170.373152 135.89633 
L 173.688905 127.726421 
L 174.901116 125.525173 
L 175.93506 124.07819 
L 176.790739 123.255913 
L 177.503804 122.907032 
L 178.644708 122.602925 
L 179.21516 122.101836 
L 179.821266 121.295922 
L 180.783904 119.519104 
L 183.671818 113.721372 
L 184.277924 113.120186 
L 184.777069 112.926878 
L 185.383175 112.753937 
L 185.88232 112.279874 
L 186.488426 111.293799 
L 187.165838 109.714995 
L 188.092822 106.887028 
L 189.625913 101.320141 
L 191.12335 96.151639 
L 192.050334 93.681215 
L 192.7634 92.327698 
L 193.369505 91.589308 
L 193.939957 91.251436 
L 195.116515 90.849929 
L 195.651314 90.325699 
L 196.328726 89.401721 
L 197.398324 87.581093 
L 199.359253 84.296047 
L 200.179278 83.363677 
L 200.85669 82.908843 
L 201.462795 82.775178 
L 202.033248 82.659475 
L 202.639353 82.299252 
L 203.994177 81.200511 
L 206.382945 79.272223 
L 207.951689 78.318986 
L 210.376111 77.150422 
L 216.579778 74.409036 
L 220.32337 73.125538 
L 229.307992 70.308251 
L 237.04475 67.82058 
L 245.13804 64.972433 
L 245.245 64.933636 
L 245.245 64.933636 
" style="fill:none;stroke:#d62728;stroke-linecap:square;stroke-opacity:0.7;stroke-width:1.5;"/>
   </g>
   <g id="patch_3">
    <path d="M 65.59 259.26 
L 65.59 55.68 
" style="fill:none;stroke:#000000;stroke-linecap:square;stroke-linejoin:miter;stroke-width:0.8;"/>
   </g>
   <g id="patch_4">
    <path d="M 253.8 259.26 
L 253.8 55.68 
" style="fill:none;stroke:#000000;stroke-linecap:square;stroke-linejoin:miter;stroke-width:0.8;"/>
   </g>
   <g id="patch_5">
    <path d="M 65.59 259.26 
L 253.8 259.26 
" style="fill:none;stroke:#000000;stroke-linecap:square;stroke-linejoin:miter;stroke-width:0.8;"/>
   </g>
   <g id="patch_6">
    <path d="M 65.59 55.68 
L 253.8 55.68 
" style="fill:none;stroke:#000000;stroke-linecap:square;stroke-linejoin:miter;stroke-width:0.8;"/>
   </g>
   <g id="text_9">
    <!-- x (m) -->
    <g transform="translate(143.710625 49.68)scale(0.12 -0.12)">
     <defs>
      <path d="M 3513 3500 
L 2247 1797 
L 3578 0 
L 2900 0 
L 1881 1375 
L 863 0 
L 184 0 
L 1544 1831 
L 300 3500 
L 978 3500 
L 1906 2253 
L 2834 3500 
L 3513 3500 
z
" id="DejaVuSans-78" transform="scale(0.015625)"/>
     </defs>
     <use xlink:href="#DejaVuSans-78"/>
     <use x="59.179688" xlink:href="#DejaVuSans-20"/>
     <use x="90.966797" xlink:href="#DejaVuSans-28"/>
     <use x="129.980469" xlink:href="#DejaVuSans-6d"/>
     <use x="227.392578" xlink:href="#DejaVuSans-29"/>
    </g>
   </g>
  </g>
  <g id="axes_2">
   <g id="patch_7">
    <path d="M 290.59 259.26 
L 478.8 259.26 
L 478.8 55.68 
L 290.59 55.68 
z
" style="fill:#ffffff;"/>
   </g>
   <g id="matplotlib.axis_3">
    <g id="xtick_6">
     <g id="line2d_27">
      <path clip-path="url(#p01f18236b9)" d="M 299.145 259.26 
L 299.145 55.68 
" style="fill:none;stroke:#b0b0b0;stroke-linecap:square;stroke-width:0.8;"/>
     </g>
     <g id="line2d_28">
      <g>
       <use style="stroke:#000000;stroke-width:0.8;" x="299.145" xlink:href="#m683997d625" y="259.26"/>
      </g>
     </g>
    </g>
    <g id="xtick_7">
     <g id="line2d_29">
      <path clip-path="url(#p01f18236b9)" d="M 341.928913 259.26 
L 341.928913 55.68 
" style="fill:none;stroke:#b0b0b0;stroke-linecap:square;stroke-width:0.8;"/>
     </g>
     <g id="line2d_30">
      <g>
       <use style="stroke:#000000;stroke-width:0.8;" x="341.928913" xlink:href="#m683997d625" y="259.26"/>
      </g>
     </g>
    </g>
    <g id="xtick_8">
     <g id="line2d_31">
      <path clip-path="url(#p01f18236b9)" d="M 384.712827 259.26 
L 384.712827 55.68 
" style="fill:none;stroke:#b0b0b0;stroke-linecap:square;stroke-width:0.8;"/>
     </g>
     <g id="line2d_32">
      <g>
       <use style="stroke:#000000;stroke-width:0.8;" x="384.712827" xlink:href="#m683997d625" y="259.26"/>
      </g>
     </g>
    </g>
    <g id="xtick_9">
     <g id="line2d_33">
      <path clip-path="url(#p01f18236b9)" d="M 427.49674 259.26 
L 427.49674 55.68 
" style="fill:none;stroke:#b0b0b0;stroke-linecap:square;stroke-width:0.8;"/>
     </g>
     <g id="line2d_34">
      <g>
       <use style="stroke:#000000;stroke-width:0.8;" x="427.49674" xlink:href="#m683997d625" y="259.26"/>
      </g>
     </g>
    </g>
    <g id="xtick_10">
     <g id="line2d_35">
      <path clip-path="url(#p01f18236b9)" d="M 470.280653 259.26 
L 470.280653 55.68 
" style="fill:none;stroke:#b0b0b0;stroke-linecap:square;stroke-width:0.8;"/>
     </g>
     <g id="line2d_36">
      <g>
       <use style="stroke:#000000;stroke-width:0.8;" x="470.280653" xlink:href="#m683997d625" y="259.26"/>
      </g>
     </g>
    </g>
    <g id="text_10">
     <!-- Tiempo (s) -->
     <g transform="translate(358.1325 270.858438)scale(0.1 -0.1)">
      <use xlink:href="#DejaVuSans-54"/>
      <use x="57.958984" xlink:href="#DejaVuSans-69"/>
      <use x="85.742188" xlink:href="#DejaVuSans-65"/>
      <use x="147.265625" xlink:href="#DejaVuSans-6d"/>
      <use x="244.677734" xlink:href="#DejaVuSans-70"/>
      <use x="308.154297" xlink:href="#DejaVuSans-6f"/>
      <use x="369.335938" xlink:href="#DejaVuSans-20"/>
      <use x="401.123047" xlink:href="#DejaVuSans-28"/>
      <use x="440.136719" xlink:href="#DejaVuSans-73"/>
      <use x="492.236328" xlink:href="#DejaVuSans-29"/>
     </g>
    </g>
   </g>
   <g id="matplotlib.axis_4">
    <g id="ytick_8">
     <g id="line2d_37">
      <path clip-path="url(#p01f18236b9)" d="M 290.59 250.006364 
L 478.8 250.006364 
" style="fill:none;stroke:#b0b0b0;stroke-linecap:square;stroke-width:0.8;"/>
     </g>
     <g id="line2d_38">
      <g>
       <use style="stroke:#000000;stroke-width:0.8;" x="290.59" xlink:href="#ma1a8b4d67e" y="250.006364"/>
      </g>
     </g>
     <g id="text_11">
      <!-- 0 -->
      <g transform="translate(277.2275 253.805582)scale(0.1 -0.1)">
       <use xlink:href="#DejaVuSans-30"/>
      </g>
     </g>
    </g>
    <g id="ytick_9">
     <g id="line2d_39">
      <path clip-path="url(#p01f18236b9)" d="M 290.59 222.229891 
L 478.8 222.229891 
" style="fill:none;stroke:#b0b0b0;stroke-linecap:square;stroke-width:0.8;"/>
     </g>
     <g id="line2d_40">
      <g>
       <use style="stroke:#000000;stroke-width:0.8;" x="290.59" xlink:href="#ma1a8b4d67e" y="222.229891"/>
      </g>
     </g>
     <g id="text_12">
      <!-- 20 -->
      <g transform="translate(270.865 226.02911)scale(0.1 -0.1)">
       <use xlink:href="#DejaVuSans-32"/>
       <use x="63.623047" xlink:href="#DejaVuSans-30"/>
      </g>
     </g>
    </g>
    <g id="ytick_10">
     <g id="line2d_41">
      <path clip-path="url(#p01f18236b9)" d="M 290.59 194.453418 
L 478.8 194.453418 
" style="fill:none;stroke:#b0b0b0;stroke-linecap:square;stroke-width:0.8;"/>
     </g>
     <g id="line2d_42">
      <g>
       <use style="stroke:#000000;stroke-width:0.8;" x="290.59" xlink:href="#ma1a8b4d67e" y="194.453418"/>
      </g>
     </g>
     <g id="text_13">
      <!-- 40 -->
      <g transform="translate(270.865 198.252637)scale(0.1 -0.1)">
       <defs>
        <path d="M 2419 4116 
L 825 1625 
L 2419 1625 
L 2419 4116 
z
M 2253 4666 
L 3047 4666 
L 3047 1625 
L 3713 1625 
L 3713 1100 
L 3047 1100 
L 3047 0 
L 2419 0 
L 2419 1100 
L 313 1100 
L 313 1709 
L 2253 4666 
z
" id="DejaVuSans-34" transform="scale(0.015625)"/>
       </defs>
       <use xlink:href="#DejaVuSans-34"/>
       <use x="63.623047" xlink:href="#DejaVuSans-30"/>
      </g>
     </g>
    </g>
    <g id="ytick_11">
     <g id="line2d_43">
      <path clip-path="url(#p01f18236b9)" d="M 290.59 166.676945 
L 478.8 166.676945 
" style="fill:none;stroke:#b0b0b0;stroke-linecap:square;stroke-width:0.8;"/>
     </g>
     <g id="line2d_44">
      <g>
       <use style="stroke:#000000;stroke-width:0.8;" x="290.59" xlink:href="#ma1a8b4d67e" y="166.676945"/>
      </g>
     </g>
     <g id="text_14">
      <!-- 60 -->
      <g transform="translate(270.865 170.476164)scale(0.1 -0.1)">
       <defs>
        <path d="M 2113 2584 
Q 1688 2584 1439 2293 
Q 1191 2003 1191 1497 
Q 1191 994 1439 701 
Q 1688 409 2113 409 
Q 2538 409 2786 701 
Q 3034 994 3034 1497 
Q 3034 2003 2786 2293 
Q 2538 2584 2113 2584 
z
M 3366 4563 
L 3366 3988 
Q 3128 4100 2886 4159 
Q 2644 4219 2406 4219 
Q 1781 4219 1451 3797 
Q 1122 3375 1075 2522 
Q 1259 2794 1537 2939 
Q 1816 3084 2150 3084 
Q 2853 3084 3261 2657 
Q 3669 2231 3669 1497 
Q 3669 778 3244 343 
Q 2819 -91 2113 -91 
Q 1303 -91 875 529 
Q 447 1150 447 2328 
Q 447 3434 972 4092 
Q 1497 4750 2381 4750 
Q 2619 4750 2861 4703 
Q 3103 4656 3366 4563 
z
" id="DejaVuSans-36" transform="scale(0.015625)"/>
       </defs>
       <use xlink:href="#DejaVuSans-36"/>
       <use x="63.623047" xlink:href="#DejaVuSans-30"/>
      </g>
     </g>
    </g>
    <g id="ytick_12">
     <g id="line2d_45">
      <path clip-path="url(#p01f18236b9)" d="M 290.59 138.900472 
L 478.8 138.900472 
" style="fill:none;stroke:#b0b0b0;stroke-linecap:square;stroke-width:0.8;"/>
     </g>
     <g id="line2d_46">
      <g>
       <use style="stroke:#000000;stroke-width:0.8;" x="290.59" xlink:href="#ma1a8b4d67e" y="138.900472"/>
      </g>
     </g>
     <g id="text_15">
      <!-- 80 -->
      <g transform="translate(270.865 142.699691)scale(0.1 -0.1)">
       <defs>
        <path d="M 2034 2216 
Q 1584 2216 1326 1975 
Q 1069 1734 1069 1313 
Q 1069 891 1326 650 
Q 1584 409 2034 409 
Q 2484 409 2743 651 
Q 3003 894 3003 1313 
Q 3003 1734 2745 1975 
Q 2488 2216 2034 2216 
z
M 1403 2484 
Q 997 2584 770 2862 
Q 544 3141 544 3541 
Q 544 4100 942 4425 
Q 1341 4750 2034 4750 
Q 2731 4750 3128 4425 
Q 3525 4100 3525 3541 
Q 3525 3141 3298 2862 
Q 3072 2584 2669 2484 
Q 3125 2378 3379 2068 
Q 3634 1759 3634 1313 
Q 3634 634 3220 271 
Q 2806 -91 2034 -91 
Q 1263 -91 848 271 
Q 434 634 434 1313 
Q 434 1759 690 2068 
Q 947 2378 1403 2484 
z
M 1172 3481 
Q 1172 3119 1398 2916 
Q 1625 2713 2034 2713 
Q 2441 2713 2670 2916 
Q 2900 3119 2900 3481 
Q 2900 3844 2670 4047 
Q 2441 4250 2034 4250 
Q 1625 4250 1398 4047 
Q 1172 3844 1172 3481 
z
" id="DejaVuSans-38" transform="scale(0.015625)"/>
       </defs>
       <use xlink:href="#DejaVuSans-38"/>
       <use x="63.623047" xlink:href="#DejaVuSans-30"/>
      </g>
     </g>
    </g>
    <g id="ytick_13">
     <g id="line2d_47">
      <path clip-path="url(#p01f18236b9)" d="M 290.59 111.123999 
L 478.8 111.123999 
" style="fill:none;stroke:#b0b0b0;stroke-linecap:square;stroke-width:0.8;"/>
     </g>
     <g id="line2d_48">
      <g>
       <use style="stroke:#000000;stroke-width:0.8;" x="290.59" xlink:href="#ma1a8b4d67e" y="111.123999"/>
      </g>
     </g>
     <g id="text_16">
      <!-- 100 -->
      <g transform="translate(264.5025 114.923218)scale(0.1 -0.1)">
       <use xlink:href="#DejaVuSans-31"/>
       <use x="63.623047" xlink:href="#DejaVuSans-30"/>
       <use x="127.246094" xlink:href="#DejaVuSans-30"/>
      </g>
     </g>
    </g>
    <g id="ytick_14">
     <g id="line2d_49">
      <path clip-path="url(#p01f18236b9)" d="M 290.59 83.347527 
L 478.8 83.347527 
" style="fill:none;stroke:#b0b0b0;stroke-linecap:square;stroke-width:0.8;"/>
     </g>
     <g id="line2d_50">
      <g>
       <use style="stroke:#000000;stroke-width:0.8;" x="290.59" xlink:href="#ma1a8b4d67e" y="83.347527"/>
      </g>
     </g>
     <g id="text_17">
      <!-- 120 -->
      <g transform="translate(264.5025 87.146745)scale(0.1 -0.1)">
       <use xlink:href="#DejaVuSans-31"/>
       <use x="63.623047" xlink:href="#DejaVuSans-32"/>
       <use x="127.246094" xlink:href="#DejaVuSans-30"/>
      </g>
     </g>
    </g>
   </g>
   <g id="line2d_51">
    <path clip-path="url(#p01f18236b9)" d="M 299.145 250.006364 
L 342.071526 250.006364 
L 344.709868 230.322308 
L 345.601199 225.343182 
L 346.278611 222.670676 
L 346.849063 221.19259 
L 347.348209 220.429195 
L 347.811701 220.096384 
L 349.237832 219.493204 
L 350.450043 218.312957 
L 354.336248 214.054861 
L 355.334539 212.467124 
L 356.618057 209.996065 
L 358.29376 206.27795 
L 363.641749 193.390633 
L 368.561899 181.278728 
L 371.485467 174.710605 
L 373.410743 170.826644 
L 375.585592 166.975097 
L 377.118682 164.653656 
L 378.723079 162.614683 
L 380.184862 161.126855 
L 381.57534 160.053969 
L 382.823204 159.385167 
L 383.999761 159.014577 
L 385.105013 158.899191 
L 386.103304 158.790369 
L 386.887676 158.48118 
L 387.565088 157.96687 
L 388.278153 157.119634 
L 389.169484 155.673172 
L 393.590489 147.860359 
L 396.264483 143.624736 
L 398.0828 140.101106 
L 400.792447 134.167929 
L 404.856919 124.696552 
L 411.060587 109.991699 
L 413.306742 105.145294 
L 415.695511 100.520838 
L 417.371214 97.679936 
L 419.046917 95.232907 
L 420.72262 93.219224 
L 422.041791 91.961288 
L 423.360962 91.007294 
L 424.501866 90.433603 
L 425.64277 90.09965 
L 426.783675 90.004209 
L 427.924579 89.859381 
L 429.422016 89.425267 
L 431.668171 88.512143 
L 435.625683 86.637899 
L 447.462566 80.881384 
L 453.523621 78.253216 
L 459.762941 75.791583 
L 466.251835 73.472968 
L 470.245 72.158543 
L 470.245 72.158543 
" style="fill:none;stroke:#1f77b4;stroke-linecap:square;stroke-opacity:0.7;stroke-width:1.5;"/>
   </g>
   <g id="line2d_52">
    <path clip-path="url(#p01f18236b9)" d="M 299.145 250.006364 
L 303.601658 249.897558 
L 305.990426 249.541497 
L 309.020953 249.139217 
L 312.907159 248.921737 
L 320.180424 248.687409 
L 342.071526 248.387025 
L 344.781174 228.11227 
L 345.636852 223.395525 
L 346.278611 220.998516 
L 346.81341 219.78804 
L 347.241249 219.292145 
L 347.633435 219.156689 
L 348.025621 219.044289 
L 348.524767 218.636824 
L 349.380445 217.568857 
L 350.877882 215.682495 
L 352.125746 214.503028 
L 353.58753 213.079568 
L 354.443208 211.925276 
L 355.370193 210.292214 
L 356.439791 207.950334 
L 358.044187 203.88219 
L 368.276673 176.895402 
L 370.808055 170.194587 
L 373.303783 164.09826 
L 375.514285 159.178839 
L 377.546521 155.192275 
L 379.115265 152.555054 
L 380.684008 150.355197 
L 382.074485 148.794206 
L 383.322349 147.713782 
L 384.498907 146.975349 
L 385.604158 146.53113 
L 386.566796 146.370551 
L 387.386821 146.247667 
L 388.02858 145.906294 
L 388.705992 145.28848 
L 389.632977 144.123606 
L 392.378278 140.543219 
L 393.733102 139.285405 
L 395.230539 137.885079 
L 396.300136 136.558178 
L 397.369734 134.824284 
L 398.653252 132.242726 
L 400.614181 127.696768 
L 407.316994 111.377612 
L 412.451064 98.081307 
L 415.267671 91.625378 
L 417.620787 86.864539 
L 419.653023 83.315066 
L 421.186113 81.061007 
L 422.719203 79.220061 
L 424.038374 77.988215 
L 425.286238 77.131417 
L 426.427142 76.614445 
L 427.532393 76.357993 
L 428.958524 76.287557 
L 430.66988 76.093316 
L 433.129955 75.570438 
L 436.338749 74.653858 
L 449.922641 70.49064 
L 463.328267 66.814968 
L 470.245 64.933636 
L 470.245 64.933636 
" style="fill:none;stroke:#d62728;stroke-linecap:square;stroke-opacity:0.7;stroke-width:1.5;"/>
   </g>
   <g id="patch_8">
    <path d="M 290.59 259.26 
L 290.59 55.68 
" style="fill:none;stroke:#000000;stroke-linecap:square;stroke-linejoin:miter;stroke-width:0.8;"/>
   </g>
   <g id="patch_9">
    <path d="M 478.8 259.26 
L 478.8 55.68 
" style="fill:none;stroke:#000000;stroke-linecap:square;stroke-linejoin:miter;stroke-width:0.8;"/>
   </g>
   <g id="patch_10">
    <path d="M 290.59 259.26 
L 478.8 259.26 
" style="fill:none;stroke:#000000;stroke-linecap:square;stroke-linejoin:miter;stroke-width:0.8;"/>
   </g>
   <g id="patch_11">
    <path d="M 290.59 55.68 
L 478.8 55.68 
" style="fill:none;stroke:#000000;stroke-linecap:square;stroke-linejoin:miter;stroke-width:0.8;"/>
   </g>
   <g id="text_18">
    <!-- y (m) -->
    <g transform="translate(368.710625 49.68)scale(0.12 -0.12)">
     <defs>
      <path d="M 2059 -325 
Q 1816 -950 1584 -1140 
Q 1353 -1331 966 -1331 
L 506 -1331 
L 506 -850 
L 844 -850 
Q 1081 -850 1212 -737 
Q 1344 -625 1503 -206 
L 1606 56 
L 191 3500 
L 800 3500 
L 1894 763 
L 2988 3500 
L 3597 3500 
L 2059 -325 
z
" id="DejaVuSans-79" transform="scale(0.015625)"/>
     </defs>
     <use xlink:href="#DejaVuSans-79"/>
     <use x="59.179688" xlink:href="#DejaVuSans-20"/>
     <use x="90.966797" xlink:href="#DejaVuSans-28"/>
     <use x="129.980469" xlink:href="#DejaVuSans-6d"/>
     <use x="227.392578" xlink:href="#DejaVuSans-29"/>
    </g>
   </g>
  </g>
  <g id="axes_3">
   <g id="patch_12">
    <path d="M 65.59 505.24 
L 253.8 505.24 
L 253.8 301.66 
L 65.59 301.66 
z
" style="fill:#ffffff;"/>
   </g>
   <g id="matplotlib.axis_5">
    <g id="xtick_11">
     <g id="line2d_53">
      <path clip-path="url(#pcb310fcb3c)" d="M 74.145 505.24 
L 74.145 301.66 
" style="fill:none;stroke:#b0b0b0;stroke-linecap:square;stroke-width:0.8;"/>
     </g>
     <g id="line2d_54">
      <g>
       <use style="stroke:#000000;stroke-width:0.8;" x="74.145" xlink:href="#m683997d625" y="505.24"/>
      </g>
     </g>
     <g id="text_19">
      <!-- 0 -->
      <g transform="translate(70.96375 519.838438)scale(0.1 -0.1)">
       <use xlink:href="#DejaVuSans-30"/>
      </g>
     </g>
    </g>
    <g id="xtick_12">
     <g id="line2d_55">
      <path clip-path="url(#pcb310fcb3c)" d="M 116.928913 505.24 
L 116.928913 301.66 
" style="fill:none;stroke:#b0b0b0;stroke-linecap:square;stroke-width:0.8;"/>
     </g>
     <g id="line2d_56">
      <g>
       <use style="stroke:#000000;stroke-width:0.8;" x="116.928913" xlink:href="#m683997d625" y="505.24"/>
      </g>
     </g>
     <g id="text_20">
      <!-- 5 -->
      <g transform="translate(113.747663 519.838438)scale(0.1 -0.1)">
       <use xlink:href="#DejaVuSans-35"/>
      </g>
     </g>
    </g>
    <g id="xtick_13">
     <g id="line2d_57">
      <path clip-path="url(#pcb310fcb3c)" d="M 159.712827 505.24 
L 159.712827 301.66 
" style="fill:none;stroke:#b0b0b0;stroke-linecap:square;stroke-width:0.8;"/>
     </g>
     <g id="line2d_58">
      <g>
       <use style="stroke:#000000;stroke-width:0.8;" x="159.712827" xlink:href="#m683997d625" y="505.24"/>
      </g>
     </g>
     <g id="text_21">
      <!-- 10 -->
      <g transform="translate(153.350327 519.838438)scale(0.1 -0.1)">
       <use xlink:href="#DejaVuSans-31"/>
       <use x="63.623047" xlink:href="#DejaVuSans-30"/>
      </g>
     </g>
    </g>
    <g id="xtick_14">
     <g id="line2d_59">
      <path clip-path="url(#pcb310fcb3c)" d="M 202.49674 505.24 
L 202.49674 301.66 
" style="fill:none;stroke:#b0b0b0;stroke-linecap:square;stroke-width:0.8;"/>
     </g>
     <g id="line2d_60">
      <g>
       <use style="stroke:#000000;stroke-width:0.8;" x="202.49674" xlink:href="#m683997d625" y="505.24"/>
      </g>
     </g>
     <g id="text_22">
      <!-- 15 -->
      <g transform="translate(196.13424 519.838438)scale(0.1 -0.1)">
       <use xlink:href="#DejaVuSans-31"/>
       <use x="63.623047" xlink:href="#DejaVuSans-35"/>
      </g>
     </g>
    </g>
    <g id="xtick_15">
     <g id="line2d_61">
      <path clip-path="url(#pcb310fcb3c)" d="M 245.280653 505.24 
L 245.280653 301.66 
" style="fill:none;stroke:#b0b0b0;stroke-linecap:square;stroke-width:0.8;"/>
     </g>
     <g id="line2d_62">
      <g>
       <use style="stroke:#000000;stroke-width:0.8;" x="245.280653" xlink:href="#m683997d625" y="505.24"/>
      </g>
     </g>
     <g id="text_23">
      <!-- 20 -->
      <g transform="translate(238.918153 519.838438)scale(0.1 -0.1)">
       <use xlink:href="#DejaVuSans-32"/>
       <use x="63.623047" xlink:href="#DejaVuSans-30"/>
      </g>
     </g>
    </g>
    <g id="text_24">
     <!-- Tiempo (s) -->
     <g transform="translate(133.1325 533.516563)scale(0.1 -0.1)">
      <use xlink:href="#DejaVuSans-54"/>
      <use x="57.958984" xlink:href="#DejaVuSans-69"/>
      <use x="85.742188" xlink:href="#DejaVuSans-65"/>
      <use x="147.265625" xlink:href="#DejaVuSans-6d"/>
      <use x="244.677734" xlink:href="#DejaVuSans-70"/>
      <use x="308.154297" xlink:href="#DejaVuSans-6f"/>
      <use x="369.335938" xlink:href="#DejaVuSans-20"/>
      <use x="401.123047" xlink:href="#DejaVuSans-28"/>
      <use x="440.136719" xlink:href="#DejaVuSans-73"/>
      <use x="492.236328" xlink:href="#DejaVuSans-29"/>
     </g>
    </g>
   </g>
   <g id="matplotlib.axis_6">
    <g id="ytick_15">
     <g id="line2d_63">
      <path clip-path="url(#pcb310fcb3c)" d="M 65.59 495.986536 
L 253.8 495.986536 
" style="fill:none;stroke:#b0b0b0;stroke-linecap:square;stroke-width:0.8;"/>
     </g>
     <g id="line2d_64">
      <g>
       <use style="stroke:#000000;stroke-width:0.8;" x="65.59" xlink:href="#ma1a8b4d67e" y="495.986536"/>
      </g>
     </g>
     <g id="text_25">
      <!-- 0 -->
      <g transform="translate(52.2275 499.785754)scale(0.1 -0.1)">
       <use xlink:href="#DejaVuSans-30"/>
      </g>
     </g>
    </g>
    <g id="ytick_16">
     <g id="line2d_65">
      <path clip-path="url(#pcb310fcb3c)" d="M 65.59 470.720178 
L 253.8 470.720178 
" style="fill:none;stroke:#b0b0b0;stroke-linecap:square;stroke-width:0.8;"/>
     </g>
     <g id="line2d_66">
      <g>
       <use style="stroke:#000000;stroke-width:0.8;" x="65.59" xlink:href="#ma1a8b4d67e" y="470.720178"/>
      </g>
     </g>
     <g id="text_26">
      <!-- 25 -->
      <g transform="translate(45.865 474.519397)scale(0.1 -0.1)">
       <use xlink:href="#DejaVuSans-32"/>
       <use x="63.623047" xlink:href="#DejaVuSans-35"/>
      </g>
     </g>
    </g>
    <g id="ytick_17">
     <g id="line2d_67">
      <path clip-path="url(#pcb310fcb3c)" d="M 65.59 445.453821 
L 253.8 445.453821 
" style="fill:none;stroke:#b0b0b0;stroke-linecap:square;stroke-width:0.8;"/>
     </g>
     <g id="line2d_68">
      <g>
       <use style="stroke:#000000;stroke-width:0.8;" x="65.59" xlink:href="#ma1a8b4d67e" y="445.453821"/>
      </g>
     </g>
     <g id="text_27">
      <!-- 50 -->
      <g transform="translate(45.865 449.25304)scale(0.1 -0.1)">
       <use xlink:href="#DejaVuSans-35"/>
       <use x="63.623047" xlink:href="#DejaVuSans-30"/>
      </g>
     </g>
    </g>
    <g id="ytick_18">
     <g id="line2d_69">
      <path clip-path="url(#pcb310fcb3c)" d="M 65.59 420.187463 
L 253.8 420.187463 
" style="fill:none;stroke:#b0b0b0;stroke-linecap:square;stroke-width:0.8;"/>
     </g>
     <g id="line2d_70">
      <g>
       <use style="stroke:#000000;stroke-width:0.8;" x="65.59" xlink:href="#ma1a8b4d67e" y="420.187463"/>
      </g>
     </g>
     <g id="text_28">
      <!-- 75 -->
      <g transform="translate(45.865 423.986682)scale(0.1 -0.1)">
       <defs>
        <path d="M 525 4666 
L 3525 4666 
L 3525 4397 
L 1831 0 
L 1172 0 
L 2766 4134 
L 525 4134 
L 525 4666 
z
" id="DejaVuSans-37" transform="scale(0.015625)"/>
       </defs>
       <use xlink:href="#DejaVuSans-37"/>
       <use x="63.623047" xlink:href="#DejaVuSans-35"/>
      </g>
     </g>
    </g>
    <g id="ytick_19">
     <g id="line2d_71">
      <path clip-path="url(#pcb310fcb3c)" d="M 65.59 394.921106 
L 253.8 394.921106 
" style="fill:none;stroke:#b0b0b0;stroke-linecap:square;stroke-width:0.8;"/>
     </g>
     <g id="line2d_72">
      <g>
       <use style="stroke:#000000;stroke-width:0.8;" x="65.59" xlink:href="#ma1a8b4d67e" y="394.921106"/>
      </g>
     </g>
     <g id="text_29">
      <!-- 100 -->
      <g transform="translate(39.5025 398.720325)scale(0.1 -0.1)">
       <use xlink:href="#DejaVuSans-31"/>
       <use x="63.623047" xlink:href="#DejaVuSans-30"/>
       <use x="127.246094" xlink:href="#DejaVuSans-30"/>
      </g>
     </g>
    </g>
    <g id="ytick_20">
     <g id="line2d_73">
      <path clip-path="url(#pcb310fcb3c)" d="M 65.59 369.654749 
L 253.8 369.654749 
" style="fill:none;stroke:#b0b0b0;stroke-linecap:square;stroke-width:0.8;"/>
     </g>
     <g id="line2d_74">
      <g>
       <use style="stroke:#000000;stroke-width:0.8;" x="65.59" xlink:href="#ma1a8b4d67e" y="369.654749"/>
      </g>
     </g>
     <g id="text_30">
      <!-- 125 -->
      <g transform="translate(39.5025 373.453967)scale(0.1 -0.1)">
       <use xlink:href="#DejaVuSans-31"/>
       <use x="63.623047" xlink:href="#DejaVuSans-32"/>
       <use x="127.246094" xlink:href="#DejaVuSans-35"/>
      </g>
     </g>
    </g>
    <g id="ytick_21">
     <g id="line2d_75">
      <path clip-path="url(#pcb310fcb3c)" d="M 65.59 344.388391 
L 253.8 344.388391 
" style="fill:none;stroke:#b0b0b0;stroke-linecap:square;stroke-width:0.8;"/>
     </g>
     <g id="line2d_76">
      <g>
       <use style="stroke:#000000;stroke-width:0.8;" x="65.59" xlink:href="#ma1a8b4d67e" y="344.388391"/>
      </g>
     </g>
     <g id="text_31">
      <!-- 150 -->
      <g transform="translate(39.5025 348.18761)scale(0.1 -0.1)">
       <use xlink:href="#DejaVuSans-31"/>
       <use x="63.623047" xlink:href="#DejaVuSans-35"/>
       <use x="127.246094" xlink:href="#DejaVuSans-30"/>
      </g>
     </g>
    </g>
    <g id="ytick_22">
     <g id="line2d_77">
      <path clip-path="url(#pcb310fcb3c)" d="M 65.59 319.122034 
L 253.8 319.122034 
" style="fill:none;stroke:#b0b0b0;stroke-linecap:square;stroke-width:0.8;"/>
     </g>
     <g id="line2d_78">
      <g>
       <use style="stroke:#000000;stroke-width:0.8;" x="65.59" xlink:href="#ma1a8b4d67e" y="319.122034"/>
      </g>
     </g>
     <g id="text_32">
      <!-- 175 -->
      <g transform="translate(39.5025 322.921253)scale(0.1 -0.1)">
       <use xlink:href="#DejaVuSans-31"/>
       <use x="63.623047" xlink:href="#DejaVuSans-37"/>
       <use x="127.246094" xlink:href="#DejaVuSans-35"/>
      </g>
     </g>
    </g>
   </g>
   <g id="line2d_79">
    <path clip-path="url(#pcb310fcb3c)" d="M 74.145 495.986364 
L 106.090322 495.801181 
L 117.820245 495.681582 
L 118.854189 495.285937 
L 120.17336 494.478309 
L 121.599491 493.30198 
L 124.202179 490.82048 
L 130.477153 484.189885 
L 137.286925 477.018202 
L 145.380216 468.773332 
L 160.675465 453.709785 
L 161.317223 452.384008 
L 162.137248 450.097906 
L 163.812952 445.266956 
L 164.918203 442.818215 
L 166.20172 440.515188 
L 167.73481 438.253295 
L 169.446167 436.114779 
L 172.369734 432.939347 
L 175.828101 429.508451 
L 192.44252 413.766369 
L 198.895761 407.68191 
L 202.960232 403.904505 
L 203.958524 403.290027 
L 205.063775 402.869821 
L 206.382945 402.613316 
L 208.058649 402.529461 
L 210.304804 402.402288 
L 213.87013 401.952911 
L 222.819099 400.526771 
L 241.430101 397.621158 
L 245.245 397.055966 
L 245.245 397.055966 
" style="fill:none;stroke:#1f77b4;stroke-linecap:square;stroke-opacity:0.7;stroke-width:1.5;"/>
   </g>
   <g id="line2d_80">
    <path clip-path="url(#pcb310fcb3c)" d="M 74.145 495.986364 
L 75.464171 495.864816 
L 76.890301 495.505038 
L 79.136457 494.87663 
L 82.309597 494.386894 
L 83.735727 493.773626 
L 85.411431 492.796998 
L 87.408013 491.365653 
L 89.796782 489.36376 
L 92.791656 486.544462 
L 96.820474 482.422346 
L 103.273714 475.461267 
L 117.891551 459.628653 
L 118.782883 459.05006 
L 119.638561 458.733704 
L 120.529893 458.646067 
L 121.492531 458.480414 
L 122.562129 458.110369 
L 123.56042 457.586026 
L 124.630018 456.783131 
L 125.770922 455.634469 
L 127.018786 454.086128 
L 128.48057 451.96726 
L 130.691072 448.286426 
L 133.329413 443.407086 
L 138.249563 433.643016 
L 142.706221 425.13 
L 145.915015 419.634318 
L 148.731622 415.371892 
L 151.120391 412.223828 
L 152.97436 410.082932 
L 155.113556 407.930767 
L 157.324058 406.021961 
L 160.675465 403.281115 
L 161.210264 402.27637 
L 161.887676 400.486279 
L 162.92162 396.988053 
L 164.846896 390.564151 
L 166.166067 386.930627 
L 167.449584 384.012911 
L 168.911368 381.282228 
L 170.907951 378.125323 
L 172.76192 375.558172 
L 175.008076 372.80588 
L 177.040312 370.591731 
L 180.534331 367.137566 
L 185.811014 361.711894 
L 188.591968 358.524495 
L 192.085988 354.134591 
L 194.831289 350.40383 
L 198.931414 344.422064 
L 204.101137 336.703263 
L 205.206388 335.657212 
L 206.347292 334.885484 
L 207.488196 334.376082 
L 208.664754 334.088452 
L 209.948272 334.005371 
L 211.338749 333.860975 
L 212.907492 333.466817 
L 214.725809 332.770051 
L 216.865004 331.701501 
L 219.467692 330.141594 
L 222.854752 327.835521 
L 227.810555 324.164817 
L 245.245 310.913636 
L 245.245 310.913636 
" style="fill:none;stroke:#d62728;stroke-linecap:square;stroke-opacity:0.7;stroke-width:1.5;"/>
   </g>
   <g id="patch_13">
    <path d="M 65.59 505.24 
L 65.59 301.66 
" style="fill:none;stroke:#000000;stroke-linecap:square;stroke-linejoin:miter;stroke-width:0.8;"/>
   </g>
   <g id="patch_14">
    <path d="M 253.8 505.24 
L 253.8 301.66 
" style="fill:none;stroke:#000000;stroke-linecap:square;stroke-linejoin:miter;stroke-width:0.8;"/>
   </g>
   <g id="patch_15">
    <path d="M 65.59 505.24 
L 253.8 505.24 
" style="fill:none;stroke:#000000;stroke-linecap:square;stroke-linejoin:miter;stroke-width:0.8;"/>
   </g>
   <g id="patch_16">
    <path d="M 65.59 301.66 
L 253.8 301.66 
" style="fill:none;stroke:#000000;stroke-linecap:square;stroke-linejoin:miter;stroke-width:0.8;"/>
   </g>
   <g id="text_33">
    <!-- z (m) -->
    <g transform="translate(144.112812 295.66)scale(0.12 -0.12)">
     <defs>
      <path d="M 353 3500 
L 3084 3500 
L 3084 2975 
L 922 459 
L 3084 459 
L 3084 0 
L 275 0 
L 275 525 
L 2438 3041 
L 353 3041 
L 353 3500 
z
" id="DejaVuSans-7a" transform="scale(0.015625)"/>
     </defs>
     <use xlink:href="#DejaVuSans-7a"/>
     <use x="52.490234" xlink:href="#DejaVuSans-20"/>
     <use x="84.277344" xlink:href="#DejaVuSans-28"/>
     <use x="123.291016" xlink:href="#DejaVuSans-6d"/>
     <use x="220.703125" xlink:href="#DejaVuSans-29"/>
    </g>
   </g>
  </g>
  <g id="axes_4">
   <g id="patch_17">
    <path d="M 290.59 505.24 
L 478.8 505.24 
L 478.8 301.66 
L 290.59 301.66 
z
" style="fill:#ffffff;"/>
   </g>
   <g id="matplotlib.axis_7">
    <g id="xtick_16">
     <g id="line2d_81">
      <path clip-path="url(#pd3feef6c02)" d="M 299.145 505.24 
L 299.145 301.66 
" style="fill:none;stroke:#b0b0b0;stroke-linecap:square;stroke-width:0.8;"/>
     </g>
     <g id="line2d_82">
      <g>
       <use style="stroke:#000000;stroke-width:0.8;" x="299.145" xlink:href="#m683997d625" y="505.24"/>
      </g>
     </g>
     <g id="text_34">
      <!-- 0 -->
      <g transform="translate(295.96375 519.838438)scale(0.1 -0.1)">
       <use xlink:href="#DejaVuSans-30"/>
      </g>
     </g>
    </g>
    <g id="xtick_17">
     <g id="line2d_83">
      <path clip-path="url(#pd3feef6c02)" d="M 341.928913 505.24 
L 341.928913 301.66 
" style="fill:none;stroke:#b0b0b0;stroke-linecap:square;stroke-width:0.8;"/>
     </g>
     <g id="line2d_84">
      <g>
       <use style="stroke:#000000;stroke-width:0.8;" x="341.928913" xlink:href="#m683997d625" y="505.24"/>
      </g>
     </g>
     <g id="text_35">
      <!-- 5 -->
      <g transform="translate(338.747663 519.838438)scale(0.1 -0.1)">
       <use xlink:href="#DejaVuSans-35"/>
      </g>
     </g>
    </g>
    <g id="xtick_18">
     <g id="line2d_85">
      <path clip-path="url(#pd3feef6c02)" d="M 384.712827 505.24 
L 384.712827 301.66 
" style="fill:none;stroke:#b0b0b0;stroke-linecap:square;stroke-width:0.8;"/>
     </g>
     <g id="line2d_86">
      <g>
       <use style="stroke:#000000;stroke-width:0.8;" x="384.712827" xlink:href="#m683997d625" y="505.24"/>
      </g>
     </g>
     <g id="text_36">
      <!-- 10 -->
      <g transform="translate(378.350327 519.838438)scale(0.1 -0.1)">
       <use xlink:href="#DejaVuSans-31"/>
       <use x="63.623047" xlink:href="#DejaVuSans-30"/>
      </g>
     </g>
    </g>
    <g id="xtick_19">
     <g id="line2d_87">
      <path clip-path="url(#pd3feef6c02)" d="M 427.49674 505.24 
L 427.49674 301.66 
" style="fill:none;stroke:#b0b0b0;stroke-linecap:square;stroke-width:0.8;"/>
     </g>
     <g id="line2d_88">
      <g>
       <use style="stroke:#000000;stroke-width:0.8;" x="427.49674" xlink:href="#m683997d625" y="505.24"/>
      </g>
     </g>
     <g id="text_37">
      <!-- 15 -->
      <g transform="translate(421.13424 519.838438)scale(0.1 -0.1)">
       <use xlink:href="#DejaVuSans-31"/>
       <use x="63.623047" xlink:href="#DejaVuSans-35"/>
      </g>
     </g>
    </g>
    <g id="xtick_20">
     <g id="line2d_89">
      <path clip-path="url(#pd3feef6c02)" d="M 470.280653 505.24 
L 470.280653 301.66 
" style="fill:none;stroke:#b0b0b0;stroke-linecap:square;stroke-width:0.8;"/>
     </g>
     <g id="line2d_90">
      <g>
       <use style="stroke:#000000;stroke-width:0.8;" x="470.280653" xlink:href="#m683997d625" y="505.24"/>
      </g>
     </g>
     <g id="text_38">
      <!-- 20 -->
      <g transform="translate(463.918153 519.838438)scale(0.1 -0.1)">
       <use xlink:href="#DejaVuSans-32"/>
       <use x="63.623047" xlink:href="#DejaVuSans-30"/>
      </g>
     </g>
    </g>
    <g id="text_39">
     <!-- Tiempo (s) -->
     <g transform="translate(358.1325 533.516563)scale(0.1 -0.1)">
      <use xlink:href="#DejaVuSans-54"/>
      <use x="57.958984" xlink:href="#DejaVuSans-69"/>
      <use x="85.742188" xlink:href="#DejaVuSans-65"/>
      <use x="147.265625" xlink:href="#DejaVuSans-6d"/>
      <use x="244.677734" xlink:href="#DejaVuSans-70"/>
      <use x="308.154297" xlink:href="#DejaVuSans-6f"/>
      <use x="369.335938" xlink:href="#DejaVuSans-20"/>
      <use x="401.123047" xlink:href="#DejaVuSans-28"/>
      <use x="440.136719" xlink:href="#DejaVuSans-73"/>
      <use x="492.236328" xlink:href="#DejaVuSans-29"/>
     </g>
    </g>
   </g>
   <g id="matplotlib.axis_8">
    <g id="ytick_23">
     <g id="line2d_91">
      <path clip-path="url(#pd3feef6c02)" d="M 290.59 495.986364 
L 478.8 495.986364 
" style="fill:none;stroke:#b0b0b0;stroke-linecap:square;stroke-width:0.8;"/>
     </g>
     <g id="line2d_92">
      <g>
       <use style="stroke:#000000;stroke-width:0.8;" x="290.59" xlink:href="#ma1a8b4d67e" y="495.986364"/>
      </g>
     </g>
     <g id="text_40">
      <!-- 0 -->
      <g transform="translate(277.2275 499.785582)scale(0.1 -0.1)">
       <use xlink:href="#DejaVuSans-30"/>
      </g>
     </g>
    </g>
    <g id="ytick_24">
     <g id="line2d_93">
      <path clip-path="url(#pd3feef6c02)" d="M 290.59 470.898005 
L 478.8 470.898005 
" style="fill:none;stroke:#b0b0b0;stroke-linecap:square;stroke-width:0.8;"/>
     </g>
     <g id="line2d_94">
      <g>
       <use style="stroke:#000000;stroke-width:0.8;" x="290.59" xlink:href="#ma1a8b4d67e" y="470.898005"/>
      </g>
     </g>
     <g id="text_41">
      <!-- 20 -->
      <g transform="translate(270.865 474.697224)scale(0.1 -0.1)">
       <use xlink:href="#DejaVuSans-32"/>
       <use x="63.623047" xlink:href="#DejaVuSans-30"/>
      </g>
     </g>
    </g>
    <g id="ytick_25">
     <g id="line2d_95">
      <path clip-path="url(#pd3feef6c02)" d="M 290.59 445.809646 
L 478.8 445.809646 
" style="fill:none;stroke:#b0b0b0;stroke-linecap:square;stroke-width:0.8;"/>
     </g>
     <g id="line2d_96">
      <g>
       <use style="stroke:#000000;stroke-width:0.8;" x="290.59" xlink:href="#ma1a8b4d67e" y="445.809646"/>
      </g>
     </g>
     <g id="text_42">
      <!-- 40 -->
      <g transform="translate(270.865 449.608865)scale(0.1 -0.1)">
       <use xlink:href="#DejaVuSans-34"/>
       <use x="63.623047" xlink:href="#DejaVuSans-30"/>
      </g>
     </g>
    </g>
    <g id="ytick_26">
     <g id="line2d_97">
      <path clip-path="url(#pd3feef6c02)" d="M 290.59 420.721288 
L 478.8 420.721288 
" style="fill:none;stroke:#b0b0b0;stroke-linecap:square;stroke-width:0.8;"/>
     </g>
     <g id="line2d_98">
      <g>
       <use style="stroke:#000000;stroke-width:0.8;" x="290.59" xlink:href="#ma1a8b4d67e" y="420.721288"/>
      </g>
     </g>
     <g id="text_43">
      <!-- 60 -->
      <g transform="translate(270.865 424.520506)scale(0.1 -0.1)">
       <use xlink:href="#DejaVuSans-36"/>
       <use x="63.623047" xlink:href="#DejaVuSans-30"/>
      </g>
     </g>
    </g>
    <g id="ytick_27">
     <g id="line2d_99">
      <path clip-path="url(#pd3feef6c02)" d="M 290.59 395.632929 
L 478.8 395.632929 
" style="fill:none;stroke:#b0b0b0;stroke-linecap:square;stroke-width:0.8;"/>
     </g>
     <g id="line2d_100">
      <g>
       <use style="stroke:#000000;stroke-width:0.8;" x="290.59" xlink:href="#ma1a8b4d67e" y="395.632929"/>
      </g>
     </g>
     <g id="text_44">
      <!-- 80 -->
      <g transform="translate(270.865 399.432148)scale(0.1 -0.1)">
       <use xlink:href="#DejaVuSans-38"/>
       <use x="63.623047" xlink:href="#DejaVuSans-30"/>
      </g>
     </g>
    </g>
    <g id="ytick_28">
     <g id="line2d_101">
      <path clip-path="url(#pd3feef6c02)" d="M 290.59 370.54457 
L 478.8 370.54457 
" style="fill:none;stroke:#b0b0b0;stroke-linecap:square;stroke-width:0.8;"/>
     </g>
     <g id="line2d_102">
      <g>
       <use style="stroke:#000000;stroke-width:0.8;" x="290.59" xlink:href="#ma1a8b4d67e" y="370.54457"/>
      </g>
     </g>
     <g id="text_45">
      <!-- 100 -->
      <g transform="translate(264.5025 374.343789)scale(0.1 -0.1)">
       <use xlink:href="#DejaVuSans-31"/>
       <use x="63.623047" xlink:href="#DejaVuSans-30"/>
       <use x="127.246094" xlink:href="#DejaVuSans-30"/>
      </g>
     </g>
    </g>
    <g id="ytick_29">
     <g id="line2d_103">
      <path clip-path="url(#pd3feef6c02)" d="M 290.59 345.456212 
L 478.8 345.456212 
" style="fill:none;stroke:#b0b0b0;stroke-linecap:square;stroke-width:0.8;"/>
     </g>
     <g id="line2d_104">
      <g>
       <use style="stroke:#000000;stroke-width:0.8;" x="290.59" xlink:href="#ma1a8b4d67e" y="345.456212"/>
      </g>
     </g>
     <g id="text_46">
      <!-- 120 -->
      <g transform="translate(264.5025 349.25543)scale(0.1 -0.1)">
       <use xlink:href="#DejaVuSans-31"/>
       <use x="63.623047" xlink:href="#DejaVuSans-32"/>
       <use x="127.246094" xlink:href="#DejaVuSans-30"/>
      </g>
     </g>
    </g>
    <g id="ytick_30">
     <g id="line2d_105">
      <path clip-path="url(#pd3feef6c02)" d="M 290.59 320.367853 
L 478.8 320.367853 
" style="fill:none;stroke:#b0b0b0;stroke-linecap:square;stroke-width:0.8;"/>
     </g>
     <g id="line2d_106">
      <g>
       <use style="stroke:#000000;stroke-width:0.8;" x="290.59" xlink:href="#ma1a8b4d67e" y="320.367853"/>
      </g>
     </g>
     <g id="text_47">
      <!-- 140 -->
      <g transform="translate(264.5025 324.167072)scale(0.1 -0.1)">
       <use xlink:href="#DejaVuSans-31"/>
       <use x="63.623047" xlink:href="#DejaVuSans-34"/>
       <use x="127.246094" xlink:href="#DejaVuSans-30"/>
      </g>
     </g>
    </g>
   </g>
   <g id="line2d_107">
    <path clip-path="url(#pd3feef6c02)" d="M 299.145 495.986364 
L 383.072777 495.875326 
L 384.677173 495.809296 
L 385.711118 492.510644 
L 386.138957 491.864213 
L 386.745063 491.392706 
L 386.923329 491.21145 
L 387.743354 488.998642 
L 388.206846 488.415403 
L 388.812952 487.98349 
L 389.597323 487.721711 
L 390.595615 487.621907 
L 392.413931 487.5021 
L 395.515765 487.056499 
L 399.901116 486.234855 
L 403.644708 485.673142 
L 406.28305 485.499729 
L 409.670109 485.329105 
L 412.308451 484.89611 
L 416.729455 483.761527 
L 422.327017 482.450242 
L 424.537519 482.214544 
L 428.281112 482.109212 
L 437.764879 482.096741 
L 470.245 482.074464 
L 470.245 482.074464 
" style="fill:none;stroke:#1f77b4;stroke-linecap:square;stroke-opacity:0.7;stroke-width:1.5;"/>
   </g>
   <g id="line2d_108">
    <path clip-path="url(#pd3feef6c02)" d="M 299.145 495.986364 
L 300.606784 495.87923 
L 301.426809 495.589794 
L 302.139874 495.097757 
L 303.031205 494.176218 
L 303.922537 493.342472 
L 304.742562 492.903304 
L 305.7052 492.650112 
L 308.593114 492.063742 
L 309.484446 491.542456 
L 311.623641 489.908615 
L 317.542083 484.828864 
L 330.19899 473.778382 
L 345.0664 460.516137 
L 347.633435 458.245399 
L 348.417807 458.003521 
L 349.451751 457.947746 
L 350.450043 457.820648 
L 351.056148 457.474698 
L 351.662254 456.858342 
L 352.339666 455.822467 
L 355.01366 451.228138 
L 359.149438 445.466948 
L 364.390468 437.030216 
L 366.351397 434.514034 
L 368.989738 431.512565 
L 371.841999 428.579055 
L 374.230768 426.42155 
L 376.619536 424.562245 
L 379.257878 422.783174 
L 382.038832 421.170319 
L 384.74848 419.64006 
L 385.818078 416.70348 
L 386.17461 416.298886 
L 386.638103 416.19526 
L 386.887676 416.098502 
L 387.672047 413.461444 
L 388.171193 412.460081 
L 388.599032 412.018366 
L 388.991218 411.891315 
L 389.419057 411.786034 
L 390.132122 411.323095 
L 392.877423 409.444434 
L 393.733102 409.174915 
L 394.767046 409.117928 
L 397.227121 408.988704 
L 398.510639 408.617972 
L 400.150689 407.905745 
L 402.57511 406.872076 
L 405.070839 405.755872 
L 406.603929 404.78713 
L 408.243979 403.446962 
L 410.383175 401.369042 
L 413.199782 398.287689 
L 416.052043 394.777739 
L 419.153877 390.473774 
L 425.107971 381.655892 
L 432.880382 369.9297 
L 455.698469 334.028048 
L 470.245 310.913636 
L 470.245 310.913636 
" style="fill:none;stroke:#d62728;stroke-linecap:square;stroke-opacity:0.7;stroke-width:1.5;"/>
   </g>
   <g id="patch_18">
    <path d="M 290.59 505.24 
L 290.59 301.66 
" style="fill:none;stroke:#000000;stroke-linecap:square;stroke-linejoin:miter;stroke-width:0.8;"/>
   </g>
   <g id="patch_19">
    <path d="M 478.8 505.24 
L 478.8 301.66 
" style="fill:none;stroke:#000000;stroke-linecap:square;stroke-linejoin:miter;stroke-width:0.8;"/>
   </g>
   <g id="patch_20">
    <path d="M 290.59 505.24 
L 478.8 505.24 
" style="fill:none;stroke:#000000;stroke-linecap:square;stroke-linejoin:miter;stroke-width:0.8;"/>
   </g>
   <g id="patch_21">
    <path d="M 290.59 301.66 
L 478.8 301.66 
" style="fill:none;stroke:#000000;stroke-linecap:square;stroke-linejoin:miter;stroke-width:0.8;"/>
   </g>
   <g id="text_48">
    <!-- $\psi$ (rad) -->
    <g transform="translate(364.175 295.66)scale(0.12 -0.12)">
     <defs>
      <path d="M 1591 -78 
Q 891 38 616 341 
Q 278 713 425 1472 
L 819 3500 
L 1400 3500 
L 1009 1494 
Q 900 922 1119 684 
Q 1313 478 1691 434 
L 2284 3500 
L 2856 3500 
L 2263 438 
Q 2681 481 2928 688 
Q 3247 950 3353 1497 
L 3741 3500 
L 4322 3500 
L 3928 1475 
Q 3775 688 3300 344 
Q 2872 34 2163 -75 
L 1919 -1331 
L 1347 -1331 
L 1591 -78 
z
" id="DejaVuSans-Oblique-3c8" transform="scale(0.015625)"/>
      <path d="M 2631 2963 
Q 2534 3019 2420 3045 
Q 2306 3072 2169 3072 
Q 1681 3072 1420 2755 
Q 1159 2438 1159 1844 
L 1159 0 
L 581 0 
L 581 3500 
L 1159 3500 
L 1159 2956 
Q 1341 3275 1631 3429 
Q 1922 3584 2338 3584 
Q 2397 3584 2469 3576 
Q 2541 3569 2628 3553 
L 2631 2963 
z
" id="DejaVuSans-72" transform="scale(0.015625)"/>
      <path d="M 2194 1759 
Q 1497 1759 1228 1600 
Q 959 1441 959 1056 
Q 959 750 1161 570 
Q 1363 391 1709 391 
Q 2188 391 2477 730 
Q 2766 1069 2766 1631 
L 2766 1759 
L 2194 1759 
z
M 3341 1997 
L 3341 0 
L 2766 0 
L 2766 531 
Q 2569 213 2275 61 
Q 1981 -91 1556 -91 
Q 1019 -91 701 211 
Q 384 513 384 1019 
Q 384 1609 779 1909 
Q 1175 2209 1959 2209 
L 2766 2209 
L 2766 2266 
Q 2766 2663 2505 2880 
Q 2244 3097 1772 3097 
Q 1472 3097 1187 3025 
Q 903 2953 641 2809 
L 641 3341 
Q 956 3463 1253 3523 
Q 1550 3584 1831 3584 
Q 2591 3584 2966 3190 
Q 3341 2797 3341 1997 
z
" id="DejaVuSans-61" transform="scale(0.015625)"/>
      <path d="M 2906 2969 
L 2906 4863 
L 3481 4863 
L 3481 0 
L 2906 0 
L 2906 525 
Q 2725 213 2448 61 
Q 2172 -91 1784 -91 
Q 1150 -91 751 415 
Q 353 922 353 1747 
Q 353 2572 751 3078 
Q 1150 3584 1784 3584 
Q 2172 3584 2448 3432 
Q 2725 3281 2906 2969 
z
M 947 1747 
Q 947 1113 1208 752 
Q 1469 391 1925 391 
Q 2381 391 2643 752 
Q 2906 1113 2906 1747 
Q 2906 2381 2643 2742 
Q 2381 3103 1925 3103 
Q 1469 3103 1208 2742 
Q 947 2381 947 1747 
z
" id="DejaVuSans-64" transform="scale(0.015625)"/>
     </defs>
     <use transform="translate(0 0.015625)" xlink:href="#DejaVuSans-Oblique-3c8"/>
     <use transform="translate(65.966797 0.015625)" xlink:href="#DejaVuSans-20"/>
     <use transform="translate(97.753906 0.015625)" xlink:href="#DejaVuSans-28"/>
     <use transform="translate(136.767578 0.015625)" xlink:href="#DejaVuSans-72"/>
     <use transform="translate(177.880859 0.015625)" xlink:href="#DejaVuSans-61"/>
     <use transform="translate(239.160156 0.015625)" xlink:href="#DejaVuSans-64"/>
     <use transform="translate(302.636719 0.015625)" xlink:href="#DejaVuSans-29"/>
    </g>
   </g>
  </g>
  <g id="legend_1">
   <g id="patch_22">
    <path d="M 488.398438 304.178125 
L 569 304.178125 
Q 571 304.178125 571 302.178125 
L 571 273.821875 
Q 571 271.821875 569 271.821875 
L 488.398438 271.821875 
Q 486.398438 271.821875 486.398438 273.821875 
L 486.398438 302.178125 
Q 486.398438 304.178125 488.398438 304.178125 
z
" style="fill:#ffffff;opacity:0.8;stroke:#cccccc;stroke-linejoin:miter;"/>
   </g>
   <g id="line2d_109">
    <path d="M 490.398438 279.920313 
L 510.398438 279.920313 
" style="fill:none;stroke:#1f77b4;stroke-linecap:square;stroke-opacity:0.7;stroke-width:1.5;"/>
   </g>
   <g id="line2d_110"/>
   <g id="text_49">
    <!-- DSLPID -->
    <g transform="translate(518.398438 283.420313)scale(0.1 -0.1)">
     <defs>
      <path d="M 1259 4147 
L 1259 519 
L 2022 519 
Q 2988 519 3436 956 
Q 3884 1394 3884 2338 
Q 3884 3275 3436 3711 
Q 2988 4147 2022 4147 
L 1259 4147 
z
M 628 4666 
L 1925 4666 
Q 3281 4666 3915 4102 
Q 4550 3538 4550 2338 
Q 4550 1131 3912 565 
Q 3275 0 1925 0 
L 628 0 
L 628 4666 
z
" id="DejaVuSans-44" transform="scale(0.015625)"/>
      <path d="M 3425 4513 
L 3425 3897 
Q 3066 4069 2747 4153 
Q 2428 4238 2131 4238 
Q 1616 4238 1336 4038 
Q 1056 3838 1056 3469 
Q 1056 3159 1242 3001 
Q 1428 2844 1947 2747 
L 2328 2669 
Q 3034 2534 3370 2195 
Q 3706 1856 3706 1288 
Q 3706 609 3251 259 
Q 2797 -91 1919 -91 
Q 1588 -91 1214 -16 
Q 841 59 441 206 
L 441 856 
Q 825 641 1194 531 
Q 1563 422 1919 422 
Q 2459 422 2753 634 
Q 3047 847 3047 1241 
Q 3047 1584 2836 1778 
Q 2625 1972 2144 2069 
L 1759 2144 
Q 1053 2284 737 2584 
Q 422 2884 422 3419 
Q 422 4038 858 4394 
Q 1294 4750 2059 4750 
Q 2388 4750 2728 4690 
Q 3069 4631 3425 4513 
z
" id="DejaVuSans-53" transform="scale(0.015625)"/>
      <path d="M 628 4666 
L 1259 4666 
L 1259 531 
L 3531 531 
L 3531 0 
L 628 0 
L 628 4666 
z
" id="DejaVuSans-4c" transform="scale(0.015625)"/>
      <path d="M 1259 4147 
L 1259 2394 
L 2053 2394 
Q 2494 2394 2734 2622 
Q 2975 2850 2975 3272 
Q 2975 3691 2734 3919 
Q 2494 4147 2053 4147 
L 1259 4147 
z
M 628 4666 
L 2053 4666 
Q 2838 4666 3239 4311 
Q 3641 3956 3641 3272 
Q 3641 2581 3239 2228 
Q 2838 1875 2053 1875 
L 1259 1875 
L 1259 0 
L 628 0 
L 628 4666 
z
" id="DejaVuSans-50" transform="scale(0.015625)"/>
      <path d="M 628 4666 
L 1259 4666 
L 1259 0 
L 628 0 
L 628 4666 
z
" id="DejaVuSans-49" transform="scale(0.015625)"/>
     </defs>
     <use xlink:href="#DejaVuSans-44"/>
     <use x="77.001953" xlink:href="#DejaVuSans-53"/>
     <use x="140.478516" xlink:href="#DejaVuSans-4c"/>
     <use x="196.191406" xlink:href="#DejaVuSans-50"/>
     <use x="256.494141" xlink:href="#DejaVuSans-49"/>
     <use x="285.986328" xlink:href="#DejaVuSans-44"/>
    </g>
   </g>
   <g id="line2d_111">
    <path d="M 490.398438 294.598438 
L 510.398438 294.598438 
" style="fill:none;stroke:#d62728;stroke-linecap:square;stroke-opacity:0.7;stroke-width:1.5;"/>
   </g>
   <g id="line2d_112"/>
   <g id="text_50">
    <!-- LSTMCNN -->
    <g transform="translate(518.398438 298.098438)scale(0.1 -0.1)">
     <defs>
      <path d="M 628 4666 
L 1569 4666 
L 2759 1491 
L 3956 4666 
L 4897 4666 
L 4897 0 
L 4281 0 
L 4281 4097 
L 3078 897 
L 2444 897 
L 1241 4097 
L 1241 0 
L 628 0 
L 628 4666 
z
" id="DejaVuSans-4d" transform="scale(0.015625)"/>
      <path d="M 4122 4306 
L 4122 3641 
Q 3803 3938 3442 4084 
Q 3081 4231 2675 4231 
Q 1875 4231 1450 3742 
Q 1025 3253 1025 2328 
Q 1025 1406 1450 917 
Q 1875 428 2675 428 
Q 3081 428 3442 575 
Q 3803 722 4122 1019 
L 4122 359 
Q 3791 134 3420 21 
Q 3050 -91 2638 -91 
Q 1578 -91 968 557 
Q 359 1206 359 2328 
Q 359 3453 968 4101 
Q 1578 4750 2638 4750 
Q 3056 4750 3426 4639 
Q 3797 4528 4122 4306 
z
" id="DejaVuSans-43" transform="scale(0.015625)"/>
      <path d="M 628 4666 
L 1478 4666 
L 3547 763 
L 3547 4666 
L 4159 4666 
L 4159 0 
L 3309 0 
L 1241 3903 
L 1241 0 
L 628 0 
L 628 4666 
z
" id="DejaVuSans-4e" transform="scale(0.015625)"/>
     </defs>
     <use xlink:href="#DejaVuSans-4c"/>
     <use x="55.712891" xlink:href="#DejaVuSans-53"/>
     <use x="119.189453" xlink:href="#DejaVuSans-54"/>
     <use x="180.273438" xlink:href="#DejaVuSans-4d"/>
     <use x="266.552734" xlink:href="#DejaVuSans-43"/>
     <use x="336.376953" xlink:href="#DejaVuSans-4e"/>
     <use x="411.181641" xlink:href="#DejaVuSans-4e"/>
    </g>
   </g>
  </g>
 </g>
 <defs>
  <clipPath id="p30c0714471">
   <rect height="203.58" width="188.21" x="65.59" y="55.68"/>
  </clipPath>
  <clipPath id="p01f18236b9">
   <rect height="203.58" width="188.21" x="290.59" y="55.68"/>
  </clipPath>
  <clipPath id="pcb310fcb3c">
   <rect height="203.58" width="188.21" x="65.59" y="301.66"/>
  </clipPath>
  <clipPath id="pd3feef6c02">
   <rect height="203.58" width="188.21" x="290.59" y="301.66"/>
  </clipPath>
 </defs>
</svg>
