<?xml version="1.0" encoding="utf-8" standalone="no"?>
<!DOCTYPE svg PUBLIC "-//W3C//DTD SVG 1.1//EN"
  "http://www.w3.org/Graphics/SVG/1.1/DTD/svg11.dtd">
<svg height="576pt" version="1.1" viewBox="0 0 576 576" width="576pt" xmlns="http://www.w3.org/2000/svg" xmlns:xlink="http://www.w3.org/1999/xlink">
 <metadata>
  <rdf:RDF xmlns:cc="http://creativecommons.org/ns#" xmlns:dc="http://purl.org/dc/elements/1.1/" xmlns:rdf="http://www.w3.org/1999/02/22-rdf-syntax-ns#">
   <cc:Work>
    <dc:type rdf:resource="http://purl.org/dc/dcmitype/StillImage"/>
    <dc:date>2022-02-26T21:51:02.586931</dc:date>
    <dc:format>image/svg+xml</dc:format>
    <dc:creator>
     <cc:Agent>
      <dc:title>Matplotlib v3.4.3, https://matplotlib.org/</dc:title>
     </cc:Agent>
    </dc:creator>
   </cc:Work>
  </rdf:RDF>
 </metadata>
 <defs>
  <style type="text/css">*{stroke-linecap:butt;stroke-linejoin:round;}</style>
 </defs>
 <g id="figure_1">
  <g id="patch_1">
   <path d="M 0 576 
L 576 576 
L 576 0 
L 0 0 
z
" style="fill:#ffffff;"/>
  </g>
  <g id="patch_2">
   <path d="M 10.8 565.2 
L 565.2 565.2 
L 565.2 10.8 
L 10.8 10.8 
z
" style="fill:#ffffff;"/>
  </g>
  <g id="pane3d_1">
   <g id="patch_3">
    <path d="M 52.661023 428.502727 
L 235.742009 275.040614 
L 233.197008 53.720814 
L 41.354653 193.718627 
" style="fill:#f2f2f2;opacity:0.5;stroke:#f2f2f2;stroke-linejoin:miter;"/>
   </g>
  </g>
  <g id="pane3d_2">
   <g id="patch_4">
    <path d="M 235.742009 275.040614 
L 529.521668 360.430763 
L 540.005628 131.487856 
L 233.197008 53.720814 
" style="fill:#e6e6e6;opacity:0.5;stroke:#e6e6e6;stroke-linejoin:miter;"/>
   </g>
  </g>
  <g id="pane3d_3">
   <g id="patch_5">
    <path d="M 52.661023 428.502727 
L 364.08181 530.212756 
L 529.521668 360.430763 
L 235.742009 275.040614 
" style="fill:#ececec;opacity:0.5;stroke:#ececec;stroke-linejoin:miter;"/>
   </g>
  </g>
  <g id="axis3d_1">
   <g id="line2d_1">
    <path d="M 52.661023 428.502727 
L 364.08181 530.212756 
" style="fill:none;stroke:#000000;stroke-linecap:square;stroke-width:0.8;"/>
   </g>
   <g id="text_1">
    <!-- x (m) -->
    <g transform="translate(174.526236 511.624996)rotate(-341.912962)scale(0.1 -0.1)">
     <defs>
      <path d="M 3513 3500 
L 2247 1797 
L 3578 0 
L 2900 0 
L 1881 1375 
L 863 0 
L 184 0 
L 1544 1831 
L 300 3500 
L 978 3500 
L 1906 2253 
L 2834 3500 
L 3513 3500 
z
" id="DejaVuSans-78" transform="scale(0.015625)"/>
      <path id="DejaVuSans-20" transform="scale(0.015625)"/>
      <path d="M 1984 4856 
Q 1566 4138 1362 3434 
Q 1159 2731 1159 2009 
Q 1159 1288 1364 580 
Q 1569 -128 1984 -844 
L 1484 -844 
Q 1016 -109 783 600 
Q 550 1309 550 2009 
Q 550 2706 781 3412 
Q 1013 4119 1484 4856 
L 1984 4856 
z
" id="DejaVuSans-28" transform="scale(0.015625)"/>
      <path d="M 3328 2828 
Q 3544 3216 3844 3400 
Q 4144 3584 4550 3584 
Q 5097 3584 5394 3201 
Q 5691 2819 5691 2113 
L 5691 0 
L 5113 0 
L 5113 2094 
Q 5113 2597 4934 2840 
Q 4756 3084 4391 3084 
Q 3944 3084 3684 2787 
Q 3425 2491 3425 1978 
L 3425 0 
L 2847 0 
L 2847 2094 
Q 2847 2600 2669 2842 
Q 2491 3084 2119 3084 
Q 1678 3084 1418 2786 
Q 1159 2488 1159 1978 
L 1159 0 
L 581 0 
L 581 3500 
L 1159 3500 
L 1159 2956 
Q 1356 3278 1631 3431 
Q 1906 3584 2284 3584 
Q 2666 3584 2933 3390 
Q 3200 3197 3328 2828 
z
" id="DejaVuSans-6d" transform="scale(0.015625)"/>
      <path d="M 513 4856 
L 1013 4856 
Q 1481 4119 1714 3412 
Q 1947 2706 1947 2009 
Q 1947 1309 1714 600 
Q 1481 -109 1013 -844 
L 513 -844 
Q 928 -128 1133 580 
Q 1338 1288 1338 2009 
Q 1338 2731 1133 3434 
Q 928 4138 513 4856 
z
" id="DejaVuSans-29" transform="scale(0.015625)"/>
     </defs>
     <use xlink:href="#DejaVuSans-78"/>
     <use x="59.179688" xlink:href="#DejaVuSans-20"/>
     <use x="90.966797" xlink:href="#DejaVuSans-28"/>
     <use x="129.980469" xlink:href="#DejaVuSans-6d"/>
     <use x="227.392578" xlink:href="#DejaVuSans-29"/>
    </g>
   </g>
   <g id="Line3DCollection_1">
    <path d="M 86.406635 439.524044 
L 267.701561 284.329994 
L 266.511204 62.164992 
" style="fill:none;stroke:#b0b0b0;stroke-width:0.8;"/>
    <path d="M 130.1142 453.798934 
L 309.050303 296.348441 
L 309.635256 73.095682 
" style="fill:none;stroke:#b0b0b0;stroke-width:0.8;"/>
    <path d="M 174.487308 468.291192 
L 350.976227 308.534652 
L 353.38743 84.185583 
" style="fill:none;stroke:#b0b0b0;stroke-width:0.8;"/>
    <path d="M 219.541279 483.005818 
L 393.491501 320.892164 
L 397.78155 95.438198 
" style="fill:none;stroke:#b0b0b0;stroke-width:0.8;"/>
    <path d="M 265.291904 497.947972 
L 436.608641 333.424614 
L 442.831849 106.857136 
" style="fill:none;stroke:#b0b0b0;stroke-width:0.8;"/>
    <path d="M 311.755467 513.122972 
L 480.340519 346.135745 
L 488.552983 118.44611 
" style="fill:none;stroke:#b0b0b0;stroke-width:0.8;"/>
   </g>
   <g id="xtick_1">
    <g id="line2d_2">
     <path d="M 87.985672 438.17234 
L 83.241768 442.233268 
" style="fill:none;stroke:#000000;stroke-linecap:square;stroke-width:0.8;"/>
    </g>
    <g id="text_2">
     <!-- 0.00 -->
     <g transform="translate(67.766453 462.852087)scale(0.1 -0.1)">
      <defs>
       <path d="M 2034 4250 
Q 1547 4250 1301 3770 
Q 1056 3291 1056 2328 
Q 1056 1369 1301 889 
Q 1547 409 2034 409 
Q 2525 409 2770 889 
Q 3016 1369 3016 2328 
Q 3016 3291 2770 3770 
Q 2525 4250 2034 4250 
z
M 2034 4750 
Q 2819 4750 3233 4129 
Q 3647 3509 3647 2328 
Q 3647 1150 3233 529 
Q 2819 -91 2034 -91 
Q 1250 -91 836 529 
Q 422 1150 422 2328 
Q 422 3509 836 4129 
Q 1250 4750 2034 4750 
z
" id="DejaVuSans-30" transform="scale(0.015625)"/>
       <path d="M 684 794 
L 1344 794 
L 1344 0 
L 684 0 
L 684 794 
z
" id="DejaVuSans-2e" transform="scale(0.015625)"/>
      </defs>
      <use xlink:href="#DejaVuSans-30"/>
      <use x="63.623047" xlink:href="#DejaVuSans-2e"/>
      <use x="95.410156" xlink:href="#DejaVuSans-30"/>
      <use x="159.033203" xlink:href="#DejaVuSans-30"/>
     </g>
    </g>
   </g>
   <g id="xtick_2">
    <g id="line2d_3">
     <path d="M 131.673651 452.426733 
L 126.988538 456.549285 
" style="fill:none;stroke:#000000;stroke-linecap:square;stroke-width:0.8;"/>
    </g>
    <g id="text_3">
     <!-- 0.02 -->
     <g transform="translate(111.495818 477.271726)scale(0.1 -0.1)">
      <defs>
       <path d="M 1228 531 
L 3431 531 
L 3431 0 
L 469 0 
L 469 531 
Q 828 903 1448 1529 
Q 2069 2156 2228 2338 
Q 2531 2678 2651 2914 
Q 2772 3150 2772 3378 
Q 2772 3750 2511 3984 
Q 2250 4219 1831 4219 
Q 1534 4219 1204 4116 
Q 875 4013 500 3803 
L 500 4441 
Q 881 4594 1212 4672 
Q 1544 4750 1819 4750 
Q 2544 4750 2975 4387 
Q 3406 4025 3406 3419 
Q 3406 3131 3298 2873 
Q 3191 2616 2906 2266 
Q 2828 2175 2409 1742 
Q 1991 1309 1228 531 
z
" id="DejaVuSans-32" transform="scale(0.015625)"/>
      </defs>
      <use xlink:href="#DejaVuSans-30"/>
      <use x="63.623047" xlink:href="#DejaVuSans-2e"/>
      <use x="95.410156" xlink:href="#DejaVuSans-30"/>
      <use x="159.033203" xlink:href="#DejaVuSans-32"/>
     </g>
    </g>
   </g>
   <g id="xtick_3">
    <g id="line2d_4">
     <path d="M 176.026392 466.898024 
L 171.402419 471.083612 
" style="fill:none;stroke:#000000;stroke-linecap:square;stroke-width:0.8;"/>
    </g>
    <g id="text_4">
     <!-- 0.04 -->
     <g transform="translate(155.892265 491.911333)scale(0.1 -0.1)">
      <defs>
       <path d="M 2419 4116 
L 825 1625 
L 2419 1625 
L 2419 4116 
z
M 2253 4666 
L 3047 4666 
L 3047 1625 
L 3713 1625 
L 3713 1100 
L 3047 1100 
L 3047 0 
L 2419 0 
L 2419 1100 
L 313 1100 
L 313 1709 
L 2253 4666 
z
" id="DejaVuSans-34" transform="scale(0.015625)"/>
      </defs>
      <use xlink:href="#DejaVuSans-30"/>
      <use x="63.623047" xlink:href="#DejaVuSans-2e"/>
      <use x="95.410156" xlink:href="#DejaVuSans-30"/>
      <use x="159.033203" xlink:href="#DejaVuSans-34"/>
     </g>
    </g>
   </g>
   <g id="xtick_4">
    <g id="line2d_5">
     <path d="M 221.059185 481.5912 
L 216.498787 485.841282 
" style="fill:none;stroke:#000000;stroke-linecap:square;stroke-width:0.8;"/>
    </g>
    <g id="text_5">
     <!-- 0.06 -->
     <g transform="translate(200.971177 506.775981)scale(0.1 -0.1)">
      <defs>
       <path d="M 2113 2584 
Q 1688 2584 1439 2293 
Q 1191 2003 1191 1497 
Q 1191 994 1439 701 
Q 1688 409 2113 409 
Q 2538 409 2786 701 
Q 3034 994 3034 1497 
Q 3034 2003 2786 2293 
Q 2538 2584 2113 2584 
z
M 3366 4563 
L 3366 3988 
Q 3128 4100 2886 4159 
Q 2644 4219 2406 4219 
Q 1781 4219 1451 3797 
Q 1122 3375 1075 2522 
Q 1259 2794 1537 2939 
Q 1816 3084 2150 3084 
Q 2853 3084 3261 2657 
Q 3669 2231 3669 1497 
Q 3669 778 3244 343 
Q 2819 -91 2113 -91 
Q 1303 -91 875 529 
Q 447 1150 447 2328 
Q 447 3434 972 4092 
Q 1497 4750 2381 4750 
Q 2619 4750 2861 4703 
Q 3103 4656 3366 4563 
z
" id="DejaVuSans-36" transform="scale(0.015625)"/>
      </defs>
      <use xlink:href="#DejaVuSans-30"/>
      <use x="63.623047" xlink:href="#DejaVuSans-2e"/>
      <use x="95.410156" xlink:href="#DejaVuSans-30"/>
      <use x="159.033203" xlink:href="#DejaVuSans-36"/>
     </g>
    </g>
   </g>
   <g id="xtick_5">
    <g id="line2d_6">
     <path d="M 266.787791 496.511403 
L 262.293495 500.827482 
" style="fill:none;stroke:#000000;stroke-linecap:square;stroke-width:0.8;"/>
    </g>
    <g id="text_6">
     <!-- 0.08 -->
     <g transform="translate(246.748412 521.870899)scale(0.1 -0.1)">
      <defs>
       <path d="M 2034 2216 
Q 1584 2216 1326 1975 
Q 1069 1734 1069 1313 
Q 1069 891 1326 650 
Q 1584 409 2034 409 
Q 2484 409 2743 651 
Q 3003 894 3003 1313 
Q 3003 1734 2745 1975 
Q 2488 2216 2034 2216 
z
M 1403 2484 
Q 997 2584 770 2862 
Q 544 3141 544 3541 
Q 544 4100 942 4425 
Q 1341 4750 2034 4750 
Q 2731 4750 3128 4425 
Q 3525 4100 3525 3541 
Q 3525 3141 3298 2862 
Q 3072 2584 2669 2484 
Q 3125 2378 3379 2068 
Q 3634 1759 3634 1313 
Q 3634 634 3220 271 
Q 2806 -91 2034 -91 
Q 1263 -91 848 271 
Q 434 634 434 1313 
Q 434 1759 690 2068 
Q 947 2378 1403 2484 
z
M 1172 3481 
Q 1172 3119 1398 2916 
Q 1625 2713 2034 2713 
Q 2441 2713 2670 2916 
Q 2900 3119 2900 3481 
Q 2900 3844 2670 4047 
Q 2441 4250 2034 4250 
Q 1625 4250 1398 4047 
Q 1172 3844 1172 3481 
z
" id="DejaVuSans-38" transform="scale(0.015625)"/>
      </defs>
      <use xlink:href="#DejaVuSans-30"/>
      <use x="63.623047" xlink:href="#DejaVuSans-2e"/>
      <use x="95.410156" xlink:href="#DejaVuSans-30"/>
      <use x="159.033203" xlink:href="#DejaVuSans-38"/>
     </g>
    </g>
   </g>
   <g id="xtick_6">
    <g id="line2d_7">
     <path d="M 313.228462 511.663938 
L 308.802893 516.047562 
" style="fill:none;stroke:#000000;stroke-linecap:square;stroke-width:0.8;"/>
    </g>
    <g id="text_7">
     <!-- 0.10 -->
     <g transform="translate(293.240323 537.201479)scale(0.1 -0.1)">
      <defs>
       <path d="M 794 531 
L 1825 531 
L 1825 4091 
L 703 3866 
L 703 4441 
L 1819 4666 
L 2450 4666 
L 2450 531 
L 3481 531 
L 3481 0 
L 794 0 
L 794 531 
z
" id="DejaVuSans-31" transform="scale(0.015625)"/>
      </defs>
      <use xlink:href="#DejaVuSans-30"/>
      <use x="63.623047" xlink:href="#DejaVuSans-2e"/>
      <use x="95.410156" xlink:href="#DejaVuSans-31"/>
      <use x="159.033203" xlink:href="#DejaVuSans-30"/>
     </g>
    </g>
   </g>
  </g>
  <g id="axis3d_2">
   <g id="line2d_8">
    <path d="M 529.521668 360.430763 
L 364.08181 530.212756 
" style="fill:none;stroke:#000000;stroke-linecap:square;stroke-width:0.8;"/>
   </g>
   <g id="text_8">
    <!-- y (m) -->
    <g transform="translate(470.139263 480.978729)rotate(-45.742112)scale(0.1 -0.1)">
     <defs>
      <path d="M 2059 -325 
Q 1816 -950 1584 -1140 
Q 1353 -1331 966 -1331 
L 506 -1331 
L 506 -850 
L 844 -850 
Q 1081 -850 1212 -737 
Q 1344 -625 1503 -206 
L 1606 56 
L 191 3500 
L 800 3500 
L 1894 763 
L 2988 3500 
L 3597 3500 
L 2059 -325 
z
" id="DejaVuSans-79" transform="scale(0.015625)"/>
     </defs>
     <use xlink:href="#DejaVuSans-79"/>
     <use x="59.179688" xlink:href="#DejaVuSans-20"/>
     <use x="90.966797" xlink:href="#DejaVuSans-28"/>
     <use x="129.980469" xlink:href="#DejaVuSans-6d"/>
     <use x="227.392578" xlink:href="#DejaVuSans-29"/>
    </g>
   </g>
   <g id="Line3DCollection_2">
    <path d="M 46.924458 189.654037 
L 57.956895 424.063623 
L 368.887948 525.280476 
" style="fill:none;stroke:#b0b0b0;stroke-width:0.8;"/>
    <path d="M 75.097462 169.094662 
L 84.762166 401.594913 
L 393.195551 500.334896 
" style="fill:none;stroke:#b0b0b0;stroke-width:0.8;"/>
    <path d="M 102.572562 149.044586 
L 110.932188 379.658681 
L 416.896755 476.011629 
" style="fill:none;stroke:#b0b0b0;stroke-width:0.8;"/>
    <path d="M 129.375374 129.485114 
L 136.489279 358.236221 
L 440.013973 452.287677 
" style="fill:none;stroke:#b0b0b0;stroke-width:0.8;"/>
    <path d="M 155.530275 110.398459 
L 161.454723 337.30969 
L 462.568525 429.141158 
" style="fill:none;stroke:#b0b0b0;stroke-width:0.8;"/>
    <path d="M 181.060477 91.76768 
L 185.84883 316.862066 
L 484.580707 406.551244 
" style="fill:none;stroke:#b0b0b0;stroke-width:0.8;"/>
    <path d="M 205.988098 73.576637 
L 209.690991 296.877094 
L 506.069851 384.498097 
" style="fill:none;stroke:#b0b0b0;stroke-width:0.8;"/>
   </g>
   <g id="xtick_7">
    <g id="line2d_9">
     <path d="M 366.267263 524.427369 
L 374.136119 526.988904 
" style="fill:none;stroke:#000000;stroke-linecap:square;stroke-width:0.8;"/>
    </g>
    <g id="text_9">
     <!-- −0.02 -->
     <g transform="translate(366.484604 546.346474)scale(0.1 -0.1)">
      <defs>
       <path d="M 678 2272 
L 4684 2272 
L 4684 1741 
L 678 1741 
L 678 2272 
z
" id="DejaVuSans-2212" transform="scale(0.015625)"/>
      </defs>
      <use xlink:href="#DejaVuSans-2212"/>
      <use x="83.789062" xlink:href="#DejaVuSans-30"/>
      <use x="147.412109" xlink:href="#DejaVuSans-2e"/>
      <use x="179.199219" xlink:href="#DejaVuSans-30"/>
      <use x="242.822266" xlink:href="#DejaVuSans-32"/>
     </g>
    </g>
   </g>
   <g id="xtick_8">
    <g id="line2d_10">
     <path d="M 390.597586 499.503199 
L 398.398137 502.00042 
" style="fill:none;stroke:#000000;stroke-linecap:square;stroke-width:0.8;"/>
    </g>
    <g id="text_10">
     <!-- 0.00 -->
     <g transform="translate(394.825741 521.223635)scale(0.1 -0.1)">
      <use xlink:href="#DejaVuSans-30"/>
      <use x="63.623047" xlink:href="#DejaVuSans-2e"/>
      <use x="95.410156" xlink:href="#DejaVuSans-30"/>
      <use x="159.033203" xlink:href="#DejaVuSans-30"/>
     </g>
    </g>
   </g>
   <g id="xtick_9">
    <g id="line2d_11">
     <path d="M 414.3212 475.200547 
L 422.054383 477.635846 
" style="fill:none;stroke:#000000;stroke-linecap:square;stroke-width:0.8;"/>
    </g>
    <g id="text_11">
     <!-- 0.02 -->
     <g transform="translate(418.374365 496.727709)scale(0.1 -0.1)">
      <use xlink:href="#DejaVuSans-30"/>
      <use x="63.623047" xlink:href="#DejaVuSans-2e"/>
      <use x="95.410156" xlink:href="#DejaVuSans-30"/>
      <use x="159.033203" xlink:href="#DejaVuSans-32"/>
     </g>
    </g>
   </g>
   <g id="xtick_10">
    <g id="line2d_12">
     <path d="M 437.460518 451.496453 
L 445.127265 453.872104 
" style="fill:none;stroke:#000000;stroke-linecap:square;stroke-width:0.8;"/>
    </g>
    <g id="text_12">
     <!-- 0.04 -->
     <g transform="translate(441.3426 472.835518)scale(0.1 -0.1)">
      <use xlink:href="#DejaVuSans-30"/>
      <use x="63.623047" xlink:href="#DejaVuSans-2e"/>
      <use x="95.410156" xlink:href="#DejaVuSans-30"/>
      <use x="159.033203" xlink:href="#DejaVuSans-34"/>
     </g>
    </g>
   </g>
   <g id="xtick_11">
    <g id="line2d_13">
     <path d="M 460.036863 428.369071 
L 467.638098 430.687239 
" style="fill:none;stroke:#000000;stroke-linecap:square;stroke-width:0.8;"/>
    </g>
    <g id="text_13">
     <!-- 0.06 -->
     <g transform="translate(463.751643 449.525016)scale(0.1 -0.1)">
      <use xlink:href="#DejaVuSans-30"/>
      <use x="63.623047" xlink:href="#DejaVuSans-2e"/>
      <use x="95.410156" xlink:href="#DejaVuSans-30"/>
      <use x="159.033203" xlink:href="#DejaVuSans-36"/>
     </g>
    </g>
   </g>
   <g id="xtick_12">
    <g id="line2d_14">
     <path d="M 482.070536 405.797608 
L 489.607173 408.060355 
" style="fill:none;stroke:#000000;stroke-linecap:square;stroke-width:0.8;"/>
    </g>
    <g id="text_14">
     <!-- 0.08 -->
     <g transform="translate(485.621669 426.775213)scale(0.1 -0.1)">
      <use xlink:href="#DejaVuSans-30"/>
      <use x="63.623047" xlink:href="#DejaVuSans-2e"/>
      <use x="95.410156" xlink:href="#DejaVuSans-30"/>
      <use x="159.033203" xlink:href="#DejaVuSans-38"/>
     </g>
    </g>
   </g>
   <g id="xtick_13">
    <g id="line2d_15">
     <path d="M 503.580869 383.762258 
L 511.053813 385.971548 
" style="fill:none;stroke:#000000;stroke-linecap:square;stroke-width:0.8;"/>
    </g>
    <g id="text_15">
     <!-- 0.10 -->
     <g transform="translate(506.971895 404.566121)scale(0.1 -0.1)">
      <use xlink:href="#DejaVuSans-30"/>
      <use x="63.623047" xlink:href="#DejaVuSans-2e"/>
      <use x="95.410156" xlink:href="#DejaVuSans-31"/>
      <use x="159.033203" xlink:href="#DejaVuSans-30"/>
     </g>
    </g>
   </g>
  </g>
  <g id="axis3d_3">
   <g id="line2d_16">
    <path d="M 529.521668 360.430763 
L 540.005628 131.487856 
" style="fill:none;stroke:#000000;stroke-linecap:square;stroke-width:0.8;"/>
   </g>
   <g id="text_16">
    <!-- z (m) -->
    <g transform="translate(577.326905 256.136884)rotate(-87.378092)scale(0.1 -0.1)">
     <defs>
      <path d="M 353 3500 
L 3084 3500 
L 3084 2975 
L 922 459 
L 3084 459 
L 3084 0 
L 275 0 
L 275 525 
L 2438 3041 
L 353 3041 
L 353 3500 
z
" id="DejaVuSans-7a" transform="scale(0.015625)"/>
     </defs>
     <use xlink:href="#DejaVuSans-7a"/>
     <use x="52.490234" xlink:href="#DejaVuSans-20"/>
     <use x="84.277344" xlink:href="#DejaVuSans-28"/>
     <use x="123.291016" xlink:href="#DejaVuSans-6d"/>
     <use x="220.703125" xlink:href="#DejaVuSans-29"/>
    </g>
   </g>
   <g id="Line3DCollection_3">
    <path d="M 529.807292 354.193459 
L 235.672531 268.9986 
L 52.353498 422.116769 
" style="fill:none;stroke:#b0b0b0;stroke-width:0.8;"/>
    <path d="M 531.624374 314.513034 
L 235.230711 230.576847 
L 50.396426 381.476906 
" style="fill:none;stroke:#b0b0b0;stroke-width:0.8;"/>
    <path d="M 533.469858 274.212367 
L 234.782317 191.583313 
L 48.407593 340.177496 
" style="fill:none;stroke:#b0b0b0;stroke-width:0.8;"/>
    <path d="M 535.344417 233.276802 
L 234.327199 152.005138 
L 46.386219 298.202353 
" style="fill:none;stroke:#b0b0b0;stroke-width:0.8;"/>
    <path d="M 537.248742 191.691215 
L 233.865207 111.829075 
L 44.331499 255.534755 
" style="fill:none;stroke:#b0b0b0;stroke-width:0.8;"/>
    <path d="M 539.183547 149.44 
L 233.396182 71.041473 
L 42.2426 212.157426 
" style="fill:none;stroke:#b0b0b0;stroke-width:0.8;"/>
   </g>
   <g id="xtick_14">
    <g id="line2d_17">
     <path d="M 527.33855 353.478399 
L 534.750654 355.625283 
" style="fill:none;stroke:#000000;stroke-linecap:square;stroke-width:0.8;"/>
    </g>
    <g id="text_17">
     <!-- 0.95 -->
     <g transform="translate(536.973476 359.188653)scale(0.1 -0.1)">
      <defs>
       <path d="M 703 97 
L 703 672 
Q 941 559 1184 500 
Q 1428 441 1663 441 
Q 2288 441 2617 861 
Q 2947 1281 2994 2138 
Q 2813 1869 2534 1725 
Q 2256 1581 1919 1581 
Q 1219 1581 811 2004 
Q 403 2428 403 3163 
Q 403 3881 828 4315 
Q 1253 4750 1959 4750 
Q 2769 4750 3195 4129 
Q 3622 3509 3622 2328 
Q 3622 1225 3098 567 
Q 2575 -91 1691 -91 
Q 1453 -91 1209 -44 
Q 966 3 703 97 
z
M 1959 2075 
Q 2384 2075 2632 2365 
Q 2881 2656 2881 3163 
Q 2881 3666 2632 3958 
Q 2384 4250 1959 4250 
Q 1534 4250 1286 3958 
Q 1038 3666 1038 3163 
Q 1038 2656 1286 2365 
Q 1534 2075 1959 2075 
z
" id="DejaVuSans-39" transform="scale(0.015625)"/>
       <path d="M 691 4666 
L 3169 4666 
L 3169 4134 
L 1269 4134 
L 1269 2991 
Q 1406 3038 1543 3061 
Q 1681 3084 1819 3084 
Q 2600 3084 3056 2656 
Q 3513 2228 3513 1497 
Q 3513 744 3044 326 
Q 2575 -91 1722 -91 
Q 1428 -91 1123 -41 
Q 819 9 494 109 
L 494 744 
Q 775 591 1075 516 
Q 1375 441 1709 441 
Q 2250 441 2565 725 
Q 2881 1009 2881 1497 
Q 2881 1984 2565 2268 
Q 2250 2553 1709 2553 
Q 1456 2553 1204 2497 
Q 953 2441 691 2322 
L 691 4666 
z
" id="DejaVuSans-35" transform="scale(0.015625)"/>
      </defs>
      <use xlink:href="#DejaVuSans-30"/>
      <use x="63.623047" xlink:href="#DejaVuSans-2e"/>
      <use x="95.410156" xlink:href="#DejaVuSans-39"/>
      <use x="159.033203" xlink:href="#DejaVuSans-35"/>
     </g>
    </g>
   </g>
   <g id="xtick_15">
    <g id="line2d_18">
     <path d="M 529.135769 313.808282 
L 536.607555 315.924229 
" style="fill:none;stroke:#000000;stroke-linecap:square;stroke-width:0.8;"/>
    </g>
    <g id="text_18">
     <!-- 1.00 -->
     <g transform="translate(538.929615 319.545778)scale(0.1 -0.1)">
      <use xlink:href="#DejaVuSans-31"/>
      <use x="63.623047" xlink:href="#DejaVuSans-2e"/>
      <use x="95.410156" xlink:href="#DejaVuSans-30"/>
      <use x="159.033203" xlink:href="#DejaVuSans-30"/>
     </g>
    </g>
   </g>
   <g id="xtick_16">
    <g id="line2d_19">
     <path d="M 530.961069 273.518335 
L 538.493505 275.602111 
" style="fill:none;stroke:#000000;stroke-linecap:square;stroke-width:0.8;"/>
    </g>
    <g id="text_19">
     <!-- 1.05 -->
     <g transform="translate(540.916286 279.284156)scale(0.1 -0.1)">
      <use xlink:href="#DejaVuSans-31"/>
      <use x="63.623047" xlink:href="#DejaVuSans-2e"/>
      <use x="95.410156" xlink:href="#DejaVuSans-30"/>
      <use x="159.033203" xlink:href="#DejaVuSans-35"/>
     </g>
    </g>
   </g>
   <g id="xtick_17">
    <g id="line2d_20">
     <path d="M 532.815113 232.593915 
L 540.40919 234.64424 
" style="fill:none;stroke:#000000;stroke-linecap:square;stroke-width:0.8;"/>
    </g>
    <g id="text_20">
     <!-- 1.10 -->
     <g transform="translate(542.934208 238.389187)scale(0.1 -0.1)">
      <use xlink:href="#DejaVuSans-31"/>
      <use x="63.623047" xlink:href="#DejaVuSans-2e"/>
      <use x="95.410156" xlink:href="#DejaVuSans-31"/>
      <use x="159.033203" xlink:href="#DejaVuSans-30"/>
     </g>
    </g>
   </g>
   <g id="xtick_18">
    <g id="line2d_21">
     <path d="M 534.698586 191.019916 
L 542.35532 193.035461 
" style="fill:none;stroke:#000000;stroke-linecap:square;stroke-width:0.8;"/>
    </g>
    <g id="text_21">
     <!-- 1.15 -->
     <g transform="translate(544.984125 196.845809)scale(0.1 -0.1)">
      <use xlink:href="#DejaVuSans-31"/>
      <use x="63.623047" xlink:href="#DejaVuSans-2e"/>
      <use x="95.410156" xlink:href="#DejaVuSans-31"/>
      <use x="159.033203" xlink:href="#DejaVuSans-35"/>
     </g>
    </g>
   </g>
   <g id="xtick_19">
    <g id="line2d_22">
     <path d="M 536.612193 148.78075 
L 544.332625 150.760134 
" style="fill:none;stroke:#000000;stroke-linecap:square;stroke-width:0.8;"/>
    </g>
    <g id="text_22">
     <!-- 1.20 -->
     <g transform="translate(547.066805 154.638477)scale(0.1 -0.1)">
      <use xlink:href="#DejaVuSans-31"/>
      <use x="63.623047" xlink:href="#DejaVuSans-2e"/>
      <use x="95.410156" xlink:href="#DejaVuSans-32"/>
      <use x="159.033203" xlink:href="#DejaVuSans-30"/>
     </g>
    </g>
   </g>
  </g>
  <g id="axes_1">
   <g id="line2d_23">
    <path clip-path="url(#p51b4115e7f)" d="M 116.573107 365.67421 
L 116.613037 366.813595 
L 116.523045 361.695624 
L 116.72241 358.541862 
L 117.030549 356.440954 
L 117.548099 354.224798 
L 118.331106 351.92455 
L 119.425582 349.564612 
L 120.867862 347.159725 
L 122.681361 344.732794 
L 124.885516 342.291532 
L 127.494024 339.845997 
L 130.51974 337.40055 
L 133.973711 334.957457 
L 137.86284 332.519669 
L 142.188849 330.088951 
L 146.946919 327.668185 
L 152.127712 325.258787 
L 157.718345 322.86199 
L 165.784424 319.686394 
L 174.512361 316.534716 
L 183.853372 313.409081 
L 193.749154 310.31221 
L 206.798483 306.485813 
L 220.475469 302.714717 
L 237.518388 298.272854 
L 255.011998 293.937756 
L 275.652362 289.039894 
L 301.965491 283.04294 
L 332.779861 276.26293 
L 377.312234 266.725206 
L 423.74663 256.741371 
L 448.305044 251.156656 
L 455.794891 249.327219 
L 456.764033 248.909657 
L 456.729363 248.763533 
L 456.259515 248.585 
L 453.348258 247.645783 
L 452.820309 247.20687 
L 452.687064 246.809262 
L 452.791759 246.432611 
L 453.18284 245.95904 
L 453.980877 245.378225 
L 455.472595 244.612509 
L 457.879698 243.67137 
L 461.293907 242.599677 
L 465.835818 241.42383 
L 471.209866 240.274007 
L 476.35161 239.393597 
L 479.733805 239.011647 
L 480.034388 239.034256 
L 479.712538 239.122417 
L 478.455443 239.219792 
L 478.052183 239.119336 
L 478.058667 239.099679 
L 478.267918 238.974873 
L 479.137484 238.756265 
L 479.32185 238.742236 
L 464.232532 241.017372 
L 464.232532 241.017372 
" style="fill:none;stroke:#1f77b4;stroke-linecap:square;stroke-opacity:0.7;stroke-width:1.5;"/>
   </g>
   <g id="line2d_24">
    <path clip-path="url(#p51b4115e7f)" d="M 116.573107 365.67421 
L 116.973006 374.003053 
L 117.34775 376.836511 
L 117.879383 379.147356 
L 118.593986 381.229523 
L 119.519246 383.233728 
L 120.922097 385.699588 
L 123.447879 389.590795 
L 125.840197 393.391937 
L 126.97217 395.584568 
L 127.616809 397.29435 
L 127.912276 398.675323 
L 127.942322 399.861804 
L 127.748249 400.86663 
L 127.329902 401.795622 
L 126.685521 402.646807 
L 125.731128 403.49635 
L 124.44067 404.331172 
L 122.445538 405.331969 
L 117.647715 407.630619 
L 116.609306 408.419584 
L 116.014561 409.138781 
L 115.674255 409.909579 
L 115.581948 410.644303 
L 115.698934 411.495556 
L 116.053881 412.452505 
L 116.711574 413.579626 
L 117.745838 414.897821 
L 119.144637 416.319784 
L 120.616412 417.51556 
L 121.246165 417.814042 
L 121.285267 417.682092 
L 121.067381 417.178547 
L 119.944773 414.794255 
L 119.438638 413.157132 
L 119.178686 411.623321 
L 119.163225 410.208884 
L 119.363279 409.09694 
L 119.777883 408.094348 
L 120.387052 407.226284 
L 121.155137 406.518097 
L 122.123702 405.945954 
L 123.132214 405.601454 
L 124.082224 405.497408 
L 124.814046 405.613836 
L 125.364178 405.919962 
L 125.67523 406.335702 
L 125.794609 406.855555 
L 125.711623 407.446428 
L 125.374019 408.141317 
L 124.773587 408.825328 
L 123.91277 409.446662 
L 122.808256 409.95867 
L 121.496496 410.322076 
L 120.035748 410.504702 
L 118.504627 410.480559 
L 116.997663 410.229679 
L 115.745216 409.800493 
L 114.656421 409.183308 
L 113.864095 408.493162 
L 113.265411 407.692055 
L 112.8842 406.805867 
L 112.739756 405.864574 
L 112.840898 404.897704 
L 113.178357 403.926688 
L 113.813091 402.851407 
L 114.679906 401.820163 
L 115.974142 400.647709 
L 117.680809 399.42489 
L 119.639014 398.295066 
L 121.654246 397.388211 
L 122.835188 397.045288 
L 121.899027 397.184797 
L 120.223498 397.19318 
L 118.09533 396.9815 
L 116.056332 396.553141 
L 114.389119 395.977773 
L 113.193191 395.348395 
L 112.341586 394.668566 
L 111.810667 393.989212 
L 111.515817 393.246798 
L 111.467022 392.573264 
L 111.64899 391.7542 
L 112.076037 390.908318 
L 112.843726 389.925631 
L 114.025394 388.819273 
L 115.826548 387.480579 
L 118.461359 385.832981 
L 125.536218 381.578928 
L 126.030025 381.049558 
L 126.313104 380.319074 
L 126.679935 378.254034 
L 127.19991 375.887518 
L 127.754555 374.147394 
L 128.570669 372.231222 
L 129.709984 370.162786 
L 131.220864 367.977638 
L 133.141312 365.703194 
L 135.501995 363.356475 
L 138.321618 360.961067 
L 141.612752 358.531344 
L 145.377005 356.089485 
L 149.608649 353.656754 
L 154.298162 351.245581 
L 159.432142 348.86158 
L 164.993989 346.502716 
L 173.04024 343.384792 
L 181.750093 340.299478 
L 191.06027 337.229734 
L 203.43809 333.390504 
L 219.191474 328.748399 
L 249.835944 320.018718 
L 284.318859 310.127729 
L 306.968338 303.413472 
L 326.045457 297.512431 
L 341.566921 292.476529 
L 356.116455 287.514554 
L 367.382365 283.456116 
L 377.789597 279.464676 
L 385.46216 276.313643 
L 392.539063 273.202887 
L 399.019235 270.142287 
L 404.912562 267.143997 
L 410.238678 264.220731 
L 416.140804 260.698078 
L 421.260686 257.35031 
L 425.664355 254.206549 
L 430.101233 250.733619 
L 433.729363 247.59886 
L 437.104614 244.363746 
L 439.730877 241.551508 
L 442.014581 238.807793 
L 444.075471 236.00125 
L 445.856001 233.621921 
L 446.760018 232.7499 
L 447.55297 232.261617 
L 448.425357 231.983241 
L 449.61468 231.87018 
L 451.508517 231.936541 
L 455.039852 232.105251 
L 457.975829 231.968336 
L 461.584894 231.560371 
L 466.184924 230.812047 
L 472.296128 229.569921 
L 485.061857 226.694566 
L 485.900069 226.484151 
L 483.901426 227.070712 
L 483.069951 227.649688 
L 483.01435 227.872971 
L 483.264612 227.957629 
L 484.24226 227.971997 
L 486.596553 227.7376 
L 489.990494 227.350216 
L 489.561021 227.549132 
L 488.014929 228.320818 
L 485.905656 229.674666 
L 485.373032 230.229982 
L 485.096435 230.818864 
L 485.057921 231.417967 
L 485.228868 232.099917 
L 485.613188 232.742047 
L 486.269019 233.368781 
L 487.298494 234.333354 
L 487.225478 234.55349 
L 486.997733 234.539027 
L 485.968022 234.311089 
L 485.866798 234.507773 
L 485.982704 234.853973 
L 486.572673 236.04763 
L 486.539184 236.255678 
L 486.471883 236.182423 
L 486.22179 235.759152 
L 486.176003 235.872432 
L 486.216565 236.739083 
L 486.346212 237.932443 
L 486.595136 238.043823 
L 486.965652 237.92356 
L 487.923307 237.289845 
L 488.470692 236.701946 
L 488.439012 236.586137 
L 488.410438 236.580996 
L 487.974227 236.674971 
L 486.1096 237.296544 
L 484.844341 237.911457 
L 484.628809 238.243265 
L 484.696648 238.455472 
L 484.974724 238.589752 
L 485.628613 238.618181 
L 487.375415 238.409209 
L 489.273291 237.96459 
L 489.356603 237.906442 
L 489.173661 237.885704 
L 482.679412 237.872617 
L 481.188026 237.995717 
L 480.637569 238.225013 
L 480.692943 238.352845 
L 481.102225 238.488344 
L 482.713388 238.69137 
L 487.178783 239.258221 
L 487.945199 239.557055 
L 488.091985 239.78705 
L 487.952983 239.983818 
L 487.477451 240.170726 
L 486.420141 240.321012 
L 484.359081 240.372095 
L 481.70151 240.224189 
L 478.48237 239.822922 
L 474.199992 239.055641 
L 472.293707 238.506012 
L 470.954269 237.901232 
L 470.159344 237.307256 
L 469.81847 236.782862 
L 469.800077 236.356741 
L 470.021334 235.95711 
L 470.55105 235.533546 
L 471.467555 235.130569 
L 472.662826 234.84815 
L 474.276405 234.709821 
L 476.111522 234.799872 
L 477.88239 235.095999 
L 480.179889 235.721971 
L 482.608942 236.625445 
L 484.727118 237.657557 
L 486.245222 238.643533 
L 487.205017 239.502191 
L 487.697173 240.199988 
L 487.830265 240.737088 
L 487.717409 241.125805 
L 487.40134 241.441149 
L 486.797653 241.69406 
L 485.971789 241.801172 
L 484.799272 241.719521 
L 483.256778 241.358398 
L 481.37555 240.664476 
L 479.258709 239.643191 
L 477.267894 238.449592 
L 475.585669 237.205418 
L 474.395139 236.07288 
L 473.914784 235.342566 
L 473.889668 234.980097 
L 474.058486 234.764952 
L 474.476685 234.606979 
L 475.348179 234.553065 
L 476.819746 234.720022 
L 478.558556 235.135903 
L 480.747372 235.89918 
L 482.61767 236.780405 
L 484.030043 237.676688 
L 484.949851 238.515 
L 485.419053 239.251873 
L 485.52618 239.860094 
L 485.375993 240.325245 
L 484.998203 240.721719 
L 484.286858 241.092352 
L 483.165464 241.405462 
L 481.404428 241.642741 
L 479.181335 241.708945 
L 476.475259 241.567509 
L 472.449107 241.122575 
L 471.768122 240.869615 
L 471.69236 240.653871 
L 471.890742 240.455092 
L 472.514961 240.198703 
L 473.938398 239.905059 
L 476.165991 239.674684 
L 478.421265 239.652517 
L 480.403534 239.845784 
L 481.976156 240.215165 
L 483.232584 240.735119 
L 484.117727 241.32984 
L 484.584826 241.889789 
L 484.752191 242.397818 
L 484.698381 242.956044 
L 484.401303 243.515834 
L 483.780578 244.128762 
L 482.609638 244.929629 
L 482.21645 244.998799 
L 482.182183 244.832197 
L 482.385852 244.510719 
L 483.116006 243.86346 
L 484.522763 242.901515 
L 485.779513 242.272337 
L 486.755892 242.024177 
L 487.450247 242.036621 
L 487.768879 242.247311 
L 487.864325 242.566392 
L 487.744674 242.993458 
L 487.32974 243.557056 
L 486.620325 244.142539 
L 485.868173 244.486474 
L 485.096287 244.583422 
L 484.322508 244.463143 
L 483.913348 244.206152 
L 483.883644 243.987101 
L 484.118256 243.91148 
L 484.903751 243.971699 
L 487.516161 244.472796 
L 489.137762 245.001971 
L 489.907343 245.44209 
L 490.061003 245.743559 
L 489.917876 245.930752 
L 489.482281 246.080406 
L 488.650175 246.118063 
L 487.042832 245.934233 
L 483.837702 245.304863 
L 479.569469 244.227099 
L 475.37955 242.968586 
L 474.462006 242.48349 
L 474.103155 242.090593 
L 474.081278 241.766969 
L 474.326016 241.486633 
L 474.891199 241.222379 
L 475.932481 240.986047 
L 477.37336 240.893526 
L 478.980672 241.022268 
L 480.481373 241.352622 
L 482.084587 241.93986 
L 483.739544 242.778362 
L 484.956266 243.636591 
L 485.567933 244.317701 
L 485.773624 244.836482 
L 485.700678 245.160287 
L 485.425663 245.404569 
L 484.889074 245.58009 
L 484.131331 245.590169 
L 483.179897 245.370637 
L 482.068463 244.886364 
L 480.705199 244.05605 
L 479.000641 242.754991 
L 477.228463 241.123332 
L 475.720949 239.440461 
L 474.742546 238.037017 
L 474.38213 237.178988 
L 474.383537 236.664941 
L 474.596619 236.341557 
L 475.074952 236.093998 
L 475.87471 235.974291 
L 477.017177 236.043376 
L 478.468482 236.359155 
L 480.118957 236.930951 
L 481.657291 237.682447 
L 482.928914 238.55078 
L 483.674073 239.305151 
L 484.058347 239.97181 
L 484.15163 240.515635 
L 484.000818 240.992216 
L 483.602227 241.387318 
L 482.858385 241.737874 
L 481.692526 242.006787 
L 480.065088 242.134891 
L 478.004897 242.069085 
L 475.048767 241.728941 
L 472.676604 241.276275 
L 471.317224 240.808319 
L 470.407413 240.282449 
L 469.903515 239.763204 
L 469.717887 239.300012 
L 469.768346 238.844569 
L 470.044442 238.405418 
L 470.621445 237.922325 
L 471.569939 237.434095 
L 472.939175 237.011697 
L 474.557443 236.766698 
L 476.35979 236.741794 
L 478.074546 236.934028 
L 480.059728 237.375032 
L 482.187611 238.058 
L 484.254608 238.956726 
L 485.756854 239.848508 
L 486.815069 240.734273 
L 487.30428 241.390361 
L 487.454689 241.903137 
L 487.371132 242.280869 
L 487.094294 242.592442 
L 486.543865 242.851497 
L 485.774548 242.970392 
L 484.664537 242.90662 
L 483.1818 242.562668 
L 481.350285 241.877433 
L 479.266699 240.848241 
L 477.285606 239.626965 
L 475.588749 238.330091 
L 474.357498 237.120654 
L 473.822818 236.317793 
L 473.753485 235.900893 
L 473.93044 235.596201 
L 474.342544 235.400696 
L 475.204895 235.297739 
L 476.503151 235.384653 
L 478.209253 235.724236 
L 480.202368 236.345682 
L 482.099717 237.157598 
L 483.571289 238.010652 
L 484.571508 238.824963 
L 484.960509 239.282746 
L 484.960509 239.282746 
" style="fill:none;stroke:#d62728;stroke-linecap:square;stroke-opacity:0.7;stroke-width:1.5;"/>
   </g>
   <g id="line2d_25">
    <path clip-path="url(#p51b4115e7f)" d="M 116.573107 365.67421 
L 116.713271 372.652271 
L 116.532411 375.139829 
L 116.215992 376.673407 
L 115.823818 377.590837 
L 115.360645 378.150868 
L 114.827357 378.472183 
L 114.125805 378.635921 
L 113.109023 378.61751 
L 111.589723 378.339747 
L 109.696559 377.754986 
L 108.877125 377.442485 
L 109.476142 377.790421 
L 112.143721 379.448469 
L 115.373986 381.727291 
L 119.196937 384.689728 
L 121.939024 387.059368 
L 122.942225 388.171228 
L 122.985951 388.448115 
L 122.767535 388.467208 
L 122.127506 388.230575 
L 120.96688 387.543215 
L 119.54482 386.451854 
L 118.041459 385.027952 
L 116.747609 383.51507 
L 115.761483 382.041622 
L 115.112656 380.690345 
L 114.781498 379.50831 
L 114.716536 378.515611 
L 114.887562 377.584052 
L 115.235106 376.849064 
L 115.772021 376.184456 
L 116.63119 375.511221 
L 117.720149 374.960522 
L 119.198949 374.491466 
L 120.856043 374.195182 
L 122.825225 374.061077 
L 124.993294 374.142397 
L 126.973181 374.436231 
L 128.603578 374.89856 
L 129.655013 375.413957 
L 130.138504 375.850127 
L 130.286661 376.230278 
L 130.205746 376.541106 
L 129.850045 376.895547 
L 129.071538 377.267495 
L 127.716403 377.614624 
L 125.657334 377.875066 
L 123.137316 377.965979 
L 120.295448 377.858526 
L 117.292817 377.532467 
L 114.300878 376.980249 
L 111.787562 376.308978 
L 109.528768 375.490003 
L 107.841738 374.674416 
L 106.489422 373.788729 
L 105.637621 372.991799 
L 105.098558 372.176395 
L 104.902086 371.49358 
L 104.94147 370.816275 
L 105.216599 370.151648 
L 105.721784 369.506088 
L 106.616448 368.764322 
L 107.800775 368.06602 
L 109.503765 367.31502 
L 111.795368 366.550826 
L 114.683534 365.822166 
L 118.080276 365.186133 
L 121.77132 364.709798 
L 125.391117 364.460739 
L 128.434557 364.469071 
L 130.141224 364.660783 
L 130.601481 364.871437 
L 130.530548 364.999241 
L 130.03233 365.178246 
L 128.536977 365.408505 
L 125.651513 365.599608 
L 121.47686 365.645289 
L 116.637837 365.467834 
L 112.388788 365.105992 
L 108.679676 364.585567 
L 105.665684 363.953979 
L 103.378339 363.272817 
L 101.561781 362.499834 
L 100.423093 361.768902 
L 99.816345 361.117777 
L 99.584925 360.567679 
L 99.607896 360.018293 
L 99.884428 359.475975 
L 100.408331 358.946259 
L 101.347492 358.333817 
L 102.83559 357.659416 
L 104.983838 356.950232 
L 107.850284 356.239535 
L 111.773093 355.505692 
L 116.606311 354.840344 
L 121.821278 354.354705 
L 126.156161 354.167143 
L 128.32954 354.255992 
L 128.78786 354.423667 
L 128.662337 354.527422 
L 127.974861 354.707779 
L 125.882276 354.981829 
L 121.753816 355.272533 
L 115.7242 355.459697 
L 109.599215 355.433288 
L 104.599946 355.203984 
L 101.319561 354.862181 
L 99.267639 354.463471 
L 98.025178 354.022889 
L 97.4893 353.648365 
L 97.315097 353.258973 
L 97.399279 352.630464 
L 97.768896 351.65148 
L 98.501202 350.321691 
L 99.447037 349.010245 
L 100.828233 347.488435 
L 102.766505 345.784024 
L 104.657405 344.401637 
L 106.969349 342.946734 
L 109.73675 341.426797 
L 112.985172 339.847427 
L 118.09524 337.649112 
L 124.111557 335.344822 
L 131.025883 332.934041 
L 140.874872 329.780709 
L 151.959047 326.488149 
L 166.707157 322.37862 
L 182.814296 318.134456 
L 200.041482 313.817073 
L 218.133213 309.510127 
L 236.814979 305.297155 
L 255.807278 301.22409 
L 277.995729 296.690451 
L 299.842203 292.425941 
L 323.945565 287.950749 
L 349.423046 283.474519 
L 377.458555 278.800314 
L 441.98548 268.404156 
L 448.099204 267.722028 
L 452.033866 267.474202 
L 454.858082 267.503244 
L 456.773535 267.748256 
L 457.843394 268.086045 
L 458.512834 268.513514 
L 458.895647 269.014629 
L 459.14333 269.755813 
L 459.572676 271.322527 
L 460.030558 271.958578 
L 460.750023 272.533451 
L 461.888461 273.107347 
L 463.508365 273.629528 
L 465.373552 273.972703 
L 467.979212 274.173677 
L 470.346652 274.141763 
L 472.076369 273.897566 
L 472.801387 273.616018 
L 473.018589 273.333821 
L 472.979086 273.045243 
L 472.692066 272.652289 
L 471.884232 271.973812 
L 470.253484 270.923202 
L 467.058814 269.139169 
L 462.673772 266.986389 
L 459.719841 265.467678 
L 458.961973 264.870203 
L 458.943561 264.675806 
L 459.172457 264.593104 
L 459.961976 264.622262 
L 462.507301 265.011005 
L 471.9539 266.551867 
L 472.107226 266.508757 
L 472.064103 266.446597 
L 471.452692 266.039537 
L 468.177339 264.159641 
L 464.469617 262.233383 
L 460.44066 260.13485 
L 459.963644 259.6714 
L 460.078906 259.572019 
L 460.622807 259.593213 
L 462.507446 259.947643 
L 467.90036 261.235824 
L 472.192326 262.426046 
L 473.050391 262.850133 
L 473.046484 262.858623 
L 472.873888 262.86375 
L 471.808535 262.585151 
L 469.062968 261.618704 
L 462.964481 259.237521 
L 460.705244 258.167482 
L 459.173775 257.220403 
L 458.638078 256.663843 
L 458.661374 256.435384 
L 458.93347 256.332428 
L 459.784895 256.328091 
L 461.797858 256.595063 
L 465.45157 257.328287 
L 469.881986 258.447236 
L 471.534039 259.063409 
L 472.11888 259.464432 
L 472.065137 259.573854 
L 471.706905 259.584509 
L 470.505735 259.351695 
L 467.65246 258.507689 
L 463.129785 256.952597 
L 460.822606 255.960213 
L 459.353952 255.1215 
L 458.783862 254.580948 
L 458.798755 254.386859 
L 459.03972 254.306435 
L 459.80666 254.327152 
L 461.65952 254.632304 
L 465.142035 255.449819 
L 469.339014 256.671793 
L 471.317666 257.464168 
L 472.413107 258.123684 
L 472.708915 258.51149 
L 472.624406 258.715345 
L 472.279266 258.824597 
L 471.487597 258.811542 
L 469.917741 258.524597 
L 467.210596 257.790018 
L 463.943161 256.673454 
L 461.685964 255.666905 
L 459.946033 254.670674 
L 458.904259 253.844161 
L 458.68964 253.454166 
L 458.8045 253.31462 
L 459.176442 253.250265 
L 460.248787 253.351745 
L 462.341545 253.797554 
L 466.014947 254.830209 
L 469.113677 255.921662 
L 472.339945 257.295109 
L 475.235725 258.773375 
L 476.074999 259.395521 
L 476.006308 259.482531 
L 475.593758 259.481907 
L 474.379059 259.229219 
L 472.297558 258.566376 
L 469.793399 257.528091 
L 465.847467 255.654138 
L 460.793615 253.031004 
L 460.705139 252.862644 
L 460.741843 252.842646 
L 461.123806 252.850297 
L 462.376683 253.146401 
L 465.634736 254.192506 
L 477.903849 258.355424 
L 474.954888 257.19548 
L 464.808433 253.185707 
L 462.125819 252.24602 
L 461.819564 252.237839 
L 461.862226 252.294515 
L 462.408592 252.604004 
L 464.544346 253.501903 
L 468.51132 254.92357 
L 473.699944 256.536286 
L 477.524194 257.521701 
L 480.297424 258.025126 
L 481.133668 258.0074 
L 481.164859 257.878932 
L 480.845524 257.627992 
L 479.727037 257.091495 
L 476.524828 255.854834 
L 461.579385 250.294151 
L 459.114164 249.086729 
L 457.94875 248.291453 
L 457.535058 247.757027 
L 457.527984 247.426981 
L 457.76718 247.143732 
L 458.373094 246.868957 
L 459.492839 246.640494 
L 461.509718 246.492045 
L 464.366137 246.512481 
L 468.369752 246.771104 
L 473.355012 247.331816 
L 478.739401 248.17024 
L 483.947015 249.205806 
L 485.661438 249.626319 
L 484.305611 249.175934 
L 480.895392 247.855647 
L 477.232916 246.217756 
L 474.266857 244.675721 
L 472.087289 243.319782 
L 470.704068 242.234344 
L 469.880208 241.326993 
L 469.526905 240.601919 
L 469.517149 240.045424 
L 469.716818 239.634526 
L 470.195749 239.211255 
L 471.057362 238.820762 
L 472.384494 238.518185 
L 474.211183 238.365374 
L 476.492448 238.42284 
L 478.850414 238.703083 
L 481.095872 239.179715 
L 483.047206 239.816619 
L 484.40856 240.491505 
L 485.128556 241.060295 
L 485.465779 241.563905 
L 485.527109 241.985881 
L 485.373587 242.402291 
L 484.994117 242.805994 
L 484.23074 243.263832 
L 482.913249 243.746224 
L 481.152668 244.155001 
L 478.649127 244.508754 
L 475.315474 244.732143 
L 471.597395 244.740065 
L 467.695501 244.50873 
L 464.247542 244.094667 
L 460.977704 243.493387 
L 458.029529 242.730303 
L 455.52988 241.842463 
L 453.796628 240.997822 
L 452.695794 240.246768 
L 451.977928 239.48903 
L 451.682134 238.864343 
L 451.662081 238.25531 
L 451.911712 237.670127 
L 452.418811 237.116285 
L 453.341776 236.502508 
L 454.569817 235.953832 
L 456.323958 235.407646 
L 458.646201 234.92155 
L 461.494957 234.567001 
L 464.392902 234.428314 
L 467.139023 234.504602 
L 469.556121 234.775395 
L 471.492906 235.208818 
L 472.70666 235.697332 
L 473.312956 236.176643 
L 473.459313 236.534787 
L 473.35145 236.895813 
L 472.980753 237.249411 
L 472.187802 237.64685 
L 470.805736 238.044812 
L 468.702848 238.372777 
L 466.176465 238.534734 
L 463.392139 238.506156 
L 460.52262 238.269869 
L 457.735344 237.826057 
L 455.183464 237.197728 
L 453.252657 236.522999 
L 451.691826 235.758971 
L 450.703497 235.054394 
L 450.075407 234.323104 
L 449.844434 233.706049 
L 449.886748 233.092236 
L 450.202604 232.490462 
L 450.7862 231.908743 
L 451.823785 231.247296 
L 453.202144 230.636184 
L 455.191368 230.00001 
L 457.879572 229.390244 
L 461.285119 228.869871 
L 464.912555 228.53738 
L 468.975806 228.394106 
L 472.838243 228.479167 
L 476.272811 228.761684 
L 479.071434 229.191034 
L 481.05609 229.703526 
L 481.973702 230.129815 
L 482.268215 230.484888 
L 482.195737 230.714156 
L 481.819649 230.949104 
L 481.028435 231.150615 
L 479.560512 231.267596 
L 477.513158 231.188369 
L 475.009493 230.855825 
L 472.520297 230.312032 
L 470.319147 229.623502 
L 468.786001 228.931628 
L 467.995659 228.366922 
L 467.670337 227.88632 
L 467.676776 227.497677 
L 467.945152 227.140533 
L 468.573127 226.774324 
L 469.663166 226.436137 
L 471.276992 226.175198 
L 473.401153 226.052153 
L 475.912781 226.139047 
L 478.133668 226.43329 
L 479.908167 226.873986 
L 481.194438 227.391393 
L 482.030084 227.923959 
L 482.547277 228.513512 
L 482.705846 229.050488 
L 482.619044 229.511192 
L 482.319892 229.976561 
L 481.665433 230.531687 
L 480.676102 231.072505 
L 479.093865 231.67052 
L 476.740466 232.289898 
L 473.859578 232.820508 
L 470.095772 233.294269 
L 465.459348 233.647225 
L 460.618861 233.785346 
L 455.883389 233.691686 
L 451.562913 233.377793 
L 448.277346 232.923583 
L 446.005204 232.406469 
L 444.616731 231.891388 
L 443.92059 231.422454 
L 443.706022 231.023887 
L 443.776173 230.705451 
L 444.058489 230.391421 
L 444.700353 230.011747 
L 445.871744 229.586949 
L 447.745144 229.152182 
L 450.46381 228.759508 
L 454.51829 228.424745 
L 459.45455 228.263512 
L 464.448877 228.316665 
L 469.867244 228.592541 
L 474.740628 229.045725 
L 477.334208 229.481344 
L 477.874314 229.732006 
L 477.801593 229.853707 
L 477.281906 229.998316 
L 475.788064 230.144554 
L 472.551261 230.211117 
L 467.969248 230.077643 
L 463.446992 229.741381 
L 460.003998 229.283725 
L 458.565747 228.9073 
L 458.491016 228.802196 
L 458.528787 228.766338 
L 458.961977 228.673759 
L 460.350513 228.645043 
L 463.31985 228.817278 
L 467.584136 229.288124 
L 472.397169 230.046128 
L 476.840668 230.965855 
L 480.518636 231.938836 
L 483.237927 232.86871 
L 484.825419 233.606458 
L 485.659738 234.209382 
L 485.902533 234.610989 
L 485.855178 234.903601 
L 485.592026 235.151953 
L 485.01489 235.384925 
L 483.858119 235.575193 
L 482.128941 235.615922 
L 479.834798 235.449977 
L 477.085594 235.03935 
L 474.125819 234.381058 
L 473.89154 234.318835 
L 473.89154 234.318835 
" style="fill:none;stroke:#9467bd;stroke-linecap:square;stroke-opacity:0.7;stroke-width:1.5;"/>
   </g>
   <g id="line2d_26">
    <path clip-path="url(#p51b4115e7f)" d="M 116.573107 365.67421 
L 117.178707 379.800297 
L 117.51078 383.184652 
L 117.961607 385.59834 
L 118.596199 387.806919 
L 119.318718 389.574529 
L 120.123843 390.993943 
L 120.968664 392.044483 
L 121.81253 392.739473 
L 122.617684 393.122411 
L 123.441958 393.260708 
L 124.252063 393.153651 
L 125.007556 392.813353 
L 125.664625 392.260211 
L 126.181076 391.520294 
L 126.521579 390.627344 
L 126.659217 389.622447 
L 126.574406 388.552735 
L 126.252761 387.468913 
L 125.759062 386.534447 
L 125.06536 385.66406 
L 124.177081 384.891138 
L 122.973484 384.166635 
L 121.606448 383.612292 
L 119.976561 383.205138 
L 118.326894 383.014872 
L 116.618077 383.03657 
L 115.159388 383.268286 
L 114.069767 383.664156 
L 113.457917 384.10953 
L 113.241574 384.527824 
L 113.302382 384.833066 
L 113.56656 385.094908 
L 114.115096 385.310377 
L 115.034729 385.406672 
L 116.244036 385.311704 
L 117.858105 384.949467 
L 119.655 384.298852 
L 121.329878 383.463552 
L 122.964182 382.399939 
L 124.310257 381.2776 
L 125.497468 380.009602 
L 126.479159 378.622685 
L 127.139947 377.336871 
L 127.594869 376.009066 
L 127.828332 374.66527 
L 127.828262 373.331945 
L 127.586389 372.035542 
L 127.101344 370.801292 
L 126.382677 369.649378 
L 125.450726 368.593574 
L 124.332704 367.643322 
L 122.8675 366.694973 
L 121.043993 365.808026 
L 118.901181 365.039003 
L 116.550176 364.431816 
L 113.832656 363.96246 
L 110.830793 363.681621 
L 110.211004 363.549682 
L 110.216498 363.535871 
L 110.451874 363.382378 
L 117.61159 359.851324 
L 120.067763 358.228262 
L 121.963165 356.718259 
L 123.433597 355.274214 
L 124.483307 353.951093 
L 125.162474 352.783607 
L 125.589471 351.628016 
L 125.738378 350.664543 
L 125.678316 349.741056 
L 125.408932 348.868783 
L 124.937677 348.05505 
L 124.150572 347.186091 
L 123.133477 346.410048 
L 121.729643 345.644466 
L 119.907801 344.942663 
L 117.686776 344.357487 
L 115.15878 343.932403 
L 112.301049 343.68502 
L 109.549544 343.669549 
L 107.625169 343.860789 
L 107.206857 343.993869 
L 107.347948 344.022386 
L 108.359305 343.91492 
L 110.972617 343.401999 
L 114.806645 342.422102 
L 118.484029 341.253998 
L 120.997731 340.243564 
L 122.720775 339.336993 
L 123.870055 338.492409 
L 124.511042 337.745885 
L 124.748516 337.119907 
L 124.703418 336.618464 
L 124.432012 336.158394 
L 123.844407 335.681807 
L 122.990079 335.278362 
L 121.7278 334.916945 
L 120.009261 334.646958 
L 117.836117 334.520824 
L 115.286089 334.586126 
L 112.535905 334.878037 
L 110.064605 335.367062 
L 108.250746 335.952523 
L 107.103316 336.557035 
L 106.572484 337.053035 
L 106.407509 337.470211 
L 106.496018 337.799488 
L 106.797354 338.089588 
L 107.409749 338.363571 
L 108.429492 338.574231 
L 109.932065 338.663312 
L 111.948373 338.565704 
L 114.203158 338.245731 
L 115.375194 337.910269 
L 116.574879 337.302571 
L 117.867709 336.344493 
L 123.992966 331.286337 
L 126.738377 329.511803 
L 130.146017 327.593809 
L 134.27304 325.54225 
L 139.14507 323.372782 
L 144.764729 321.093072 
L 152.819178 318.087803 
L 161.968312 314.911355 
L 174.292283 310.886501 
L 187.94889 306.653666 
L 205.34389 301.515968 
L 224.012334 296.243112 
L 243.58753 290.93771 
L 263.683149 285.743419 
L 283.916104 280.763234 
L 306.721166 275.406242 
L 331.321756 269.865672 
L 356.586326 264.390767 
L 381.163004 259.288136 
L 403.548063 254.86367 
L 435.033272 248.718845 
L 440.280547 247.434388 
L 443.754369 246.36677 
L 445.345182 245.682449 
L 446.096322 245.17364 
L 446.367372 244.79587 
L 446.380461 244.434228 
L 446.167681 244.078502 
L 445.631992 243.625796 
L 444.292419 242.835981 
L 441.403401 241.139069 
L 439.549098 239.753403 
L 438.061441 238.344263 
L 436.968714 237.022643 
L 436.099196 235.631844 
L 435.49119 234.217102 
L 435.168997 232.879545 
L 435.140582 231.72717 
L 435.338005 230.975752 
L 435.635418 230.54287 
L 436.051496 230.26906 
L 436.730367 230.138107 
L 438.164726 230.243239 
L 445.089726 231.216658 
L 448.745089 231.9056 
L 451.31726 232.584299 
L 453.550316 233.401993 
L 455.136602 234.209541 
L 456.163422 234.959574 
L 456.833214 235.722484 
L 457.153166 236.445833 
L 457.171587 236.993903 
L 456.985586 237.470302 
L 456.561818 237.958021 
L 455.699871 238.568784 
L 452.521943 240.55957 
L 452.010179 241.246092 
L 452.045641 241.430779 
L 452.497672 241.559989 
L 453.447041 241.989935 
L 454.288139 242.653869 
L 454.394008 243.013991 
L 454.29218 243.633904 
L 453.877483 244.706956 
L 453.349015 245.5092 
L 452.629444 246.133842 
L 451.807817 246.877824 
L 451.73507 247.222662 
L 451.876392 247.463991 
L 452.158457 247.520362 
L 453.793384 247.542599 
L 453.976467 247.778933 
L 453.88127 247.907858 
L 453.22696 248.039377 
L 452.566836 248.271092 
L 452.114423 248.632728 
L 451.850551 249.129973 
L 452.019252 249.245892 
L 453.503233 249.713353 
L 453.48672 249.487098 
L 453.285686 249.331873 
L 452.887239 249.333478 
L 452.389999 249.229348 
L 451.705579 249.12628 
L 451.548342 249.29782 
L 451.55781 249.670254 
L 451.752887 249.939069 
L 452.630134 250.594917 
L 452.393496 250.273978 
L 451.816035 249.393295 
L 451.95284 249.240255 
L 452.700747 248.918712 
L 453.313889 248.883902 
L 453.754079 249.081382 
L 454.017683 249.416903 
L 454.06585 249.837855 
L 453.892713 250.154348 
L 453.497252 250.36995 
L 452.730332 250.506257 
L 452.037277 250.49885 
L 452.044365 250.469682 
L 452.382755 250.091247 
L 453.227665 249.390831 
L 453.948274 249.019537 
L 454.588065 248.916959 
L 454.771797 249.045452 
L 454.763996 249.060687 
L 454.538064 249.152299 
L 453.464844 249.560588 
L 452.855592 250.042856 
L 452.547396 250.262942 
L 452.541592 250.203847 
L 452.718113 250.055673 
L 454.082419 249.586572 
L 454.264417 249.192756 
L 454.164532 249.125316 
L 454.150269 249.127116 
L 453.644464 249.323752 
L 452.902205 249.480166 
L 451.02466 249.726949 
L 450.985759 249.916915 
L 451.173461 250.043353 
L 451.678242 250.063919 
L 453.973466 250.032199 
L 454.685385 250.144597 
L 454.518652 249.993786 
L 453.660878 249.586668 
L 452.538907 249.302907 
L 452.35838 249.234848 
L 452.386359 249.180261 
L 452.664581 249.037834 
L 453.252506 249.012562 
L 453.897198 249.253131 
L 454.413013 249.670559 
L 454.605165 250.051253 
L 454.433167 250.151856 
L 453.552641 250.223858 
L 453.168572 250.098712 
L 452.962758 249.735226 
L 452.852199 249.103605 
L 452.971229 248.828102 
L 453.145904 248.857092 
L 453.474673 249.200731 
L 453.487896 249.629389 
L 453.299798 250.203276 
L 453.010639 250.485911 
L 452.627285 250.546126 
L 452.00977 250.405059 
L 451.503703 250.071295 
L 451.562825 249.903709 
L 452.099415 249.51079 
L 453.112235 248.986158 
L 454.033 248.752482 
L 454.718121 248.803512 
L 455.080751 249.021548 
L 455.155295 249.278321 
L 455.000884 249.460355 
L 454.459473 249.653062 
L 452.660225 249.987892 
L 452.658226 249.977586 
L 452.751289 249.718676 
L 453.147524 249.262111 
L 453.643652 248.998845 
L 454.388074 248.877926 
L 454.846973 248.756904 
L 454.768646 248.654163 
L 454.503696 248.658273 
L 453.823959 248.96388 
L 453.038257 249.286966 
L 452.081925 249.37516 
L 451.368074 249.500216 
L 451.436205 249.614611 
L 451.720493 249.62496 
L 453.51552 249.325493 
L 454.00564 249.454196 
L 453.680039 249.238626 
L 452.99875 249.052467 
L 452.428655 249.135172 
L 452.10057 249.21769 
L 452.354074 249.280994 
L 452.85008 249.715743 
L 453.061933 249.954326 
L 452.839884 249.869909 
L 452.384874 249.701691 
L 451.966437 248.956039 
L 451.990756 248.937504 
L 452.065513 248.973603 
L 452.44523 249.090877 
L 453.061244 249.215689 
L 453.327718 249.533852 
L 453.36883 249.89734 
L 453.219626 250.004327 
L 452.78982 249.929428 
L 451.99593 249.565987 
L 451.998187 249.419195 
L 452.387484 249.022987 
L 452.919219 248.780293 
L 453.383544 248.811586 
L 453.710258 249.02471 
L 453.820168 249.339251 
L 453.668431 249.473311 
L 452.395333 249.895221 
L 452.284075 249.771192 
L 452.251107 249.340536 
L 452.403755 249.067964 
L 452.724403 248.960099 
L 452.724403 248.960099 
" style="fill:none;stroke:#bcbd22;stroke-linecap:square;stroke-opacity:0.7;stroke-width:1.5;"/>
   </g>
   <g id="line2d_27">
    <path clip-path="url(#p51b4115e7f)" d="M 116.573107 365.67421 
L 116.768826 374.384565 
L 116.603623 375.938039 
L 116.305818 376.729106 
L 115.865459 377.230577 
L 115.265429 377.574493 
L 114.233768 377.878036 
L 112.800581 378.051604 
L 110.739118 378.056741 
L 107.671426 377.808479 
L 102.788866 377.150364 
L 82.542759 373.98453 
L 82.342419 373.864244 
L 82.38625 373.824395 
L 82.950458 373.713913 
L 85.531208 373.291339 
L 88.364232 372.526345 
L 98.012311 369.753844 
L 109.811271 366.592697 
L 112.657589 365.552733 
L 115.465087 364.286895 
L 118.281257 362.748223 
L 121.086254 360.950868 
L 122.155895 360.07469 
L 122.25465 359.743602 
L 122.065541 359.487735 
L 121.440702 359.133984 
L 119.85977 358.545571 
L 117.65978 357.966119 
L 115.728785 357.687302 
L 114.210417 357.697003 
L 112.781861 357.938163 
L 111.033394 358.463697 
L 108.795282 359.117215 
L 107.953987 359.246505 
L 108.683326 359.25027 
L 111.235978 359.197385 
L 112.839987 358.937958 
L 114.322666 358.473997 
L 116.290277 357.598947 
L 119.865391 355.969 
L 121.561867 355.468937 
L 122.489488 355.128401 
L 122.589223 354.896286 
L 122.451354 354.59918 
L 121.977467 354.166909 
L 121.161801 353.734464 
L 120.246225 353.503379 
L 119.32002 353.489685 
L 118.038034 353.732137 
L 113.753412 354.721401 
L 111.245902 354.902039 
L 110.880492 355.023673 
L 110.883404 355.038347 
L 111.042234 355.162329 
L 111.573269 355.278107 
L 112.261649 355.204249 
L 113.172948 354.845882 
L 116.132909 353.515479 
L 117.378823 353.233195 
L 120.008608 352.792627 
L 120.107585 352.50826 
L 119.987536 352.141758 
L 119.641169 351.811204 
L 119.17339 351.686976 
L 118.566905 351.792091 
L 115.36001 352.688232 
L 113.613419 352.762691 
L 112.158402 352.84587 
L 112.064182 353.031691 
L 112.212545 353.242205 
L 112.484093 353.295474 
L 112.89538 353.10537 
L 114.269599 352.348716 
L 115.247116 352.105237 
L 116.353437 352.090064 
L 117.749653 352.082584 
L 117.945585 351.870041 
L 117.951137 351.508906 
L 117.756169 351.191016 
L 117.517608 351.170942 
L 116.943429 351.48984 
L 116.187155 351.809839 
L 115.799469 351.728351 
L 115.481013 351.411112 
L 115.196693 350.821229 
L 115.010116 349.952301 
L 115.006758 348.832405 
L 115.185628 347.850276 
L 115.571587 346.768616 
L 116.209714 345.613824 
L 117.144046 344.399947 
L 118.411843 343.143211 
L 120.045849 341.847996 
L 122.070422 340.522729 
L 124.501434 339.177544 
L 127.34998 337.814227 
L 131.807484 335.9641 
L 137.020401 334.069994 
L 142.981555 332.120491 
L 151.462113 329.582686 
L 163.090166 326.355814 
L 178.524531 322.32982 
L 195.773486 318.068689 
L 214.604118 313.640591 
L 231.789911 309.827681 
L 252.773026 305.417454 
L 280.64457 299.816348 
L 321.03191 291.689028 
L 350.739902 285.488432 
L 375.474295 280.091888 
L 395.377528 275.51266 
L 410.989393 271.691238 
L 424.850787 268.051001 
L 435.336458 265.080897 
L 444.548487 262.248002 
L 452.508399 259.546398 
L 458.210387 257.394385 
L 463.096319 255.338224 
L 467.200167 253.385489 
L 470.557355 251.53923 
L 473.204459 249.801584 
L 474.836541 248.493496 
L 476.057947 247.258885 
L 476.888137 246.097818 
L 477.346728 245.010052 
L 477.458692 244.241454 
L 477.381267 243.512605 
L 477.12318 242.822594 
L 476.514074 241.963147 
L 475.624004 241.173776 
L 474.479726 240.455325 
L 472.73869 239.654272 
L 470.714493 238.957744 
L 468.010169 238.25425 
L 464.630911 237.602695 
L 459.753899 236.92228 
L 454.516069 236.394452 
L 451.765282 236.300486 
L 450.198638 236.425746 
L 449.235918 236.697438 
L 448.688758 237.039526 
L 448.334946 237.489632 
L 448.167773 238.034789 
L 448.178175 238.660408 
L 448.426959 239.512059 
L 448.921587 240.373189 
L 449.645654 241.177121 
L 450.585325 241.87442 
L 451.73003 242.447163 
L 453.07473 242.892572 
L 454.95354 243.254657 
L 457.124691 243.43504 
L 460.026256 243.432645 
L 463.811802 243.190321 
L 468.595086 242.650461 
L 474.374738 241.741535 
L 480.986221 240.451027 
L 487.46761 238.954221 
L 492.377211 237.608239 
L 496.707477 236.194121 
L 500.631879 234.686496 
L 503.653045 233.318687 
L 505.046296 232.490429 
L 505.2228 232.215056 
L 505.068972 232.12571 
L 504.452945 232.126777 
L 502.505713 232.437512 
L 485.406593 235.731415 
L 479.279908 236.854725 
L 477.65575 237.372886 
L 476.663139 237.89601 
L 476.282876 238.283249 
L 476.340065 238.409385 
L 476.687075 238.425679 
L 477.577726 238.213536 
L 479.282851 237.571963 
L 481.791149 236.362313 
L 493.860076 230.179522 
L 498.647863 228.152846 
L 505.653551 225.215544 
L 505.741302 224.980721 
L 505.553522 224.853811 
L 504.91502 224.781669 
L 503.50512 224.883358 
L 501.509998 225.26979 
L 499.01968 226.016487 
L 495.450597 227.369409 
L 488.828239 229.873578 
L 485.388864 230.949047 
L 482.057634 231.752299 
L 478.70391 232.322621 
L 475.991916 232.562838 
L 473.954435 232.530714 
L 473.447935 232.396212 
L 473.456671 232.3791 
L 473.721667 232.235444 
L 477.024986 231.007972 
L 480.558425 229.565346 
L 485.96508 227.041377 
L 491.207258 224.667233 
L 493.800618 223.726497 
L 496.5062 222.990974 
L 497.477759 222.9053 
L 497.349277 222.983306 
L 495.941321 223.366769 
L 491.837966 224.543591 
L 489.553823 225.45456 
L 487.204581 226.666798 
L 480.630559 230.243663 
L 478.955823 230.822667 
L 477.937385 230.976697 
L 477.735973 230.882365 
L 477.739172 230.859338 
L 477.934555 230.685455 
L 478.929945 230.267698 
L 486.730852 227.255725 
L 490.900267 225.408229 
L 496.496125 222.635104 
L 500.61255 220.647938 
L 500.976117 220.577752 
L 500.707694 220.734216 
L 499.49882 221.121055 
L 497.15878 221.604073 
L 490.380911 222.644048 
L 486.444811 223.361614 
L 484.203501 223.988076 
L 481.949234 224.858724 
L 479.104928 226.208804 
L 476.074946 227.714542 
L 477.468239 227.170387 
L 480.120476 226.501694 
L 485.87964 225.002942 
L 490.953193 223.467628 
L 494.374813 222.199037 
L 497.653433 220.735537 
L 499.244694 219.901117 
L 497.021801 220.929222 
L 494.9213 221.584009 
L 492.273119 222.177695 
L 487.986096 222.870929 
L 479.986077 224.113381 
L 478.16029 224.658417 
L 476.212764 225.492686 
L 474.822974 226.323934 
L 474.129957 226.959542 
L 474.222096 227.009976 
L 474.841955 226.889389 
L 478.412267 226.072616 
L 485.181077 224.716828 
L 489.620152 223.619878 
L 492.182169 222.766677 
L 494.543077 221.723403 
L 495.782381 220.95895 
L 495.819335 220.882673 
L 495.684484 220.910401 
L 491.449657 222.439662 
L 488.696224 223.088656 
L 484.757098 223.743561 
L 477.570568 224.877291 
L 476.299616 225.343868 
L 475.232028 225.961407 
L 474.701806 226.493693 
L 474.63636 226.832199 
L 474.836843 226.952879 
L 475.329874 226.919746 
L 476.751838 226.549648 
L 480.316792 225.587037 
L 483.357712 225.035915 
L 491.26498 223.648476 
L 493.187961 223.105072 
L 494.492654 222.519758 
L 494.73125 222.249724 
L 494.543812 222.217337 
L 493.907236 222.400083 
L 485.964129 225.378082 
L 483.186529 226.047956 
L 479.425652 226.690541 
L 475.0121 227.2143 
L 472.304063 227.591355 
L 471.536332 227.898758 
L 471.375663 228.132268 
L 471.547369 228.239575 
L 472.117617 228.275595 
L 473.160071 228.129083 
L 474.925587 227.625221 
L 484.362591 224.579456 
L 489.886312 223.336684 
L 495.524078 222.037968 
L 495.875054 221.759422 
L 495.692364 221.68926 
L 494.956735 221.721274 
L 493.541482 222.027112 
L 491.578481 222.715334 
L 483.519792 225.862816 
L 480.574015 226.664293 
L 477.559653 227.235308 
L 474.922675 227.512607 
L 473.064396 227.52047 
L 473.129291 227.499059 
L 475.480677 226.84983 
L 478.386514 225.832897 
L 481.857094 224.340862 
L 489.052296 221.230025 
L 491.546803 220.409376 
L 494.757435 219.607273 
L 496.483425 219.373113 
L 496.54591 219.385045 
L 496.262264 219.466859 
L 492.888346 220.356297 
L 490.78156 221.12533 
L 488.425552 222.248784 
L 481.239972 225.884119 
L 479.019682 226.696969 
L 477.045133 227.194371 
L 475.834422 227.308575 
L 475.578188 227.207317 
L 475.587108 227.187776 
L 475.835563 227.051675 
L 478.01166 226.413938 
L 482.691946 224.88749 
L 486.487324 223.444288 
L 490.802018 221.526777 
L 497.539836 218.504978 
L 498.763437 218.224849 
L 499.017966 218.268238 
L 499.006104 218.303295 
L 498.72116 218.480944 
L 497.668242 218.808486 
L 495.288773 219.257757 
L 487.962079 220.595511 
L 485.79077 221.229288 
L 483.739838 222.04624 
L 480.779968 223.492847 
L 475.95464 225.947539 
L 476.715888 225.724603 
L 478.84001 225.319832 
L 482.93266 224.560695 
L 487.447658 223.492559 
L 490.672608 222.541627 
L 493.281398 221.554348 
L 496.147801 220.215008 
L 498.161392 219.046203 
L 498.275178 218.954287 
L 497.951562 219.072213 
L 495.543253 219.841596 
L 492.792574 220.482984 
L 487.895337 221.322913 
L 481.899725 222.389669 
L 479.782969 222.97047 
L 477.941265 223.707145 
L 476.07222 224.70781 
L 474.479949 225.810536 
L 473.493568 226.752365 
L 473.454404 226.960576 
L 473.475182 226.973249 
L 473.792279 226.980957 
L 475.412649 226.631838 
L 478.666263 226.001851 
L 483.407193 225.075386 
L 488.21735 223.895053 
L 491.485224 222.896531 
L 494.023931 221.891134 
L 496.34771 220.722365 
L 497.844577 219.728668 
L 498.196516 219.288817 
L 498.066234 219.258224 
L 497.379195 219.472797 
L 493.66603 220.707954 
L 490.750492 221.420448 
L 486.49434 222.183534 
L 477.924346 223.647808 
L 476.471101 224.193177 
L 475.189707 224.904852 
L 474.415781 225.570581 
L 474.247505 225.943159 
L 474.386212 226.020612 
L 474.939459 225.941128 
L 484.741841 223.625609 
L 491.680559 222.044157 
L 494.16674 221.261456 
L 496.008659 220.450727 
L 496.360608 220.142088 
L 496.348829 220.131275 
L 496.122458 220.141297 
L 495.286599 220.439551 
L 488.990177 223.057689 
L 486.188972 223.896007 
L 483.196655 224.568327 
L 479.205352 225.224784 
L 474.163911 225.799888 
L 472.446211 226.046696 
L 472.446211 226.046696 
" style="fill:none;stroke:#2ca02c;stroke-linecap:square;stroke-opacity:0.7;stroke-width:1.5;"/>
   </g>
   <g id="line2d_28">
    <path clip-path="url(#p51b4115e7f)" d="M 116.573107 365.67421 
L 116.836992 370.228256 
L 117.13052 371.42283 
L 117.562712 372.262565 
L 118.171993 372.931046 
L 119.07143 373.565164 
L 120.36111 374.201406 
L 122.02536 374.765631 
L 123.547684 375.061713 
L 124.935892 375.113153 
L 126.022222 374.954147 
L 126.878466 374.625475 
L 127.496806 374.166309 
L 127.895725 373.621734 
L 128.131675 372.945949 
L 128.190326 372.139345 
L 128.035586 371.079695 
L 127.592255 369.723474 
L 126.800758 368.034505 
L 125.314361 365.453723 
L 121.528153 359.101806 
L 120.538393 356.917001 
L 119.976272 355.143758 
L 119.671819 353.393697 
L 119.617649 351.860993 
L 119.793135 350.158344 
L 120.200986 348.470931 
L 120.885141 346.603463 
L 122.042373 344.153421 
L 125.346641 337.47763 
L 126.230658 335.012887 
L 126.769461 332.886036 
L 127.104691 330.656394 
L 127.213004 328.325166 
L 127.083925 325.897743 
L 126.721068 323.383321 
L 126.066313 320.502808 
L 125.093871 317.253489 
L 123.389494 312.441768 
L 121.174321 306.124677 
L 120.287996 302.866711 
L 119.789473 300.244822 
L 119.515503 297.662144 
L 119.473911 295.112569 
L 119.655801 292.593404 
L 120.086409 289.879837 
L 120.715517 287.362981 
L 121.657904 284.604596 
L 124.907696 275.873798 
L 125.29649 273.818036 
L 125.430713 271.952444 
L 125.342308 270.071613 
L 125.026783 268.174363 
L 124.49326 266.259261 
L 123.673052 264.109197 
L 122.331917 261.279382 
L 118.240033 253.060784 
L 117.476756 250.850057 
L 116.994028 248.76696 
L 116.809354 246.946959 
L 116.891493 245.547021 
L 117.190189 244.281231 
L 117.739719 242.936654 
L 118.706305 241.214592 
L 119.651755 239.967344 
L 120.535833 239.184687 
L 122.749283 237.44696 
L 122.989343 236.868453 
L 122.984621 236.301271 
L 122.738411 235.608576 
L 122.096185 234.592732 
L 118.981041 230.171445 
L 118.366078 228.780504 
L 118.009454 227.445341 
L 117.886177 226.144758 
L 117.997473 225.050361 
L 118.275868 224.326008 
L 118.794413 223.636758 
L 120.367962 222.109966 
L 120.987316 221.728378 
L 121.445363 221.694211 
L 121.878237 221.841126 
L 121.783145 221.860788 
L 120.885237 221.753691 
L 119.0852 221.336073 
L 117.05103 220.636685 
L 115.258749 219.78816 
L 113.817634 218.866313 
L 112.796883 217.97523 
L 112.027296 217.006298 
L 111.608722 216.144864 
L 111.483112 215.385491 
L 111.613771 214.821832 
L 112.206288 213.748902 
L 112.988697 212.696593 
L 114.195505 211.507461 
L 115.708746 210.384711 
L 117.844039 209.154092 
L 120.704326 207.846187 
L 124.3636 206.483304 
L 128.868492 205.079621 
L 134.241252 203.644554 
L 140.483392 202.18429 
L 149.482176 200.329452 
L 159.747688 198.443668 
L 173.605059 196.133402 
L 194.350634 192.938756 
L 269.304967 181.603921 
L 294.14231 177.543381 
L 315.308255 173.869619 
L 335.520703 170.138978 
L 354.423905 166.402951 
L 369.360728 163.234317 
L 382.973756 160.130919 
L 395.153524 157.126731 
L 405.827273 154.255239 
L 414.958739 151.547215 
L 421.388606 149.435846 
L 426.763003 147.469398 
L 431.111726 145.651463 
L 434.476836 143.97988 
L 436.49706 142.746413 
L 437.956391 141.603571 
L 438.893984 140.551134 
L 439.280653 139.820753 
L 439.417489 139.140578 
L 439.324906 138.511263 
L 439.023955 137.932885 
L 438.53634 137.406323 
L 437.633193 136.777777 
L 436.170872 136.091908 
L 434.065085 135.40232 
L 431.352341 134.78889 
L 428.249165 134.332712 
L 425.180359 134.09525 
L 422.68315 134.12418 
L 421.403539 134.342265 
L 421.09108 134.562677 
L 421.13079 134.737659 
L 421.462743 134.987769 
L 422.456788 135.396225 
L 424.937895 136.116918 
L 429.90843 137.28562 
L 436.470086 138.609785 
L 442.813473 139.657859 
L 448.823671 140.431364 
L 454.730407 140.952766 
L 460.786276 141.255231 
L 467.375935 141.349618 
L 473.611648 141.213263 
L 476.446659 141.011764 
L 476.367226 140.987163 
L 474.889685 140.875608 
L 469.828443 140.703156 
L 467.761649 140.817856 
L 466.860536 141.061936 
L 466.544216 141.348274 
L 466.55779 141.62858 
L 466.818598 141.909743 
L 467.455482 142.224956 
L 468.467271 142.462475 
L 470.544204 142.658859 
L 473.515998 142.929407 
L 475.453047 143.335184 
L 477.235178 143.950251 
L 478.892137 144.741844 
L 479.950137 145.456908 
L 480.212548 145.845805 
L 480.147162 146.079741 
L 479.791031 146.374777 
L 477.256253 147.822796 
L 476.423399 148.018944 
L 475.965478 148.161355 
L 475.967188 148.175168 
L 476.140703 148.404423 
L 477.044276 149.123244 
L 478.52835 150.015537 
L 480.391415 151.053279 
L 480.583217 151.516405 
L 480.595912 152.129943 
L 480.404932 152.682686 
L 480.035372 153.069242 
L 479.388829 153.372498 
L 478.385693 153.819581 
L 478.181578 154.151353 
L 478.172093 154.614961 
L 478.405733 155.229512 
L 478.803772 155.705741 
L 479.372948 156.277109 
L 479.834617 157.240005 
L 480.085577 158.158559 
L 479.992001 158.598762 
L 479.634739 159.556498 
L 479.331227 161.025842 
L 479.071207 161.36714 
L 479.192214 161.822503 
L 479.718596 162.784154 
L 479.887695 163.250484 
L 479.852479 164.170911 
L 479.766712 165.195299 
L 479.486392 165.594681 
L 479.345316 165.956818 
L 479.419766 166.510886 
L 479.680104 167.867985 
L 479.846119 169.198982 
L 479.747882 169.48301 
L 479.824914 170.23236 
L 479.818618 170.85602 
L 479.591231 171.015834 
L 479.47045 171.223685 
L 479.545254 171.696028 
L 479.718454 172.607662 
L 479.805676 173.433772 
L 479.744663 173.896577 
L 479.45548 174.45663 
L 479.702173 175.103239 
L 479.760672 175.459829 
L 479.708749 176.437967 
L 479.525761 176.594355 
L 479.594189 176.961065 
L 479.874244 178.056644 
L 479.835421 178.445535 
L 479.567969 178.678616 
L 479.83381 179.258482 
L 479.89223 179.566362 
L 479.880817 180.067945 
L 479.587143 180.226358 
L 479.59286 180.245547 
L 479.876514 180.782076 
L 479.895851 180.638158 
L 479.978996 181.111322 
L 479.934583 181.304961 
L 479.901491 181.305257 
L 479.609495 181.261924 
L 479.62044 181.359385 
L 479.865042 181.836308 
L 479.996086 181.963533 
L 479.985041 181.817813 
L 479.902199 181.649979 
L 479.994479 182.221327 
L 479.854921 182.180625 
L 479.649186 182.109647 
L 479.647199 182.178084 
L 479.855053 182.594759 
L 480.010329 182.749345 
L 480.010541 182.631122 
L 479.9121 182.381904 
L 480.010401 182.894454 
L 479.955007 182.88149 
L 479.669668 182.729681 
L 479.696471 182.867793 
L 479.988834 183.301471 
L 480.026626 183.298911 
L 480.026863 183.19689 
L 479.922172 182.892344 
L 480.030976 183.356909 
L 479.934848 183.310239 
L 479.685803 183.150511 
L 479.705684 183.260512 
L 479.977063 183.665171 
L 480.034052 183.676581 
L 480.037977 183.574091 
L 479.930484 183.231354 
L 480.046292 183.659761 
L 479.936535 183.594558 
L 479.697077 183.421336 
L 479.728762 183.551483 
L 480.026246 183.924794 
L 480.047031 183.816518 
L 479.937141 183.440343 
L 480.053482 183.843266 
L 479.933685 183.759522 
L 479.704159 183.580648 
L 479.750156 183.73173 
L 480.037195 184.058699 
L 480.04812 184.046214 
L 480.029483 183.820297 
L 479.942326 183.554925 
L 480.069832 183.926925 
L 480.069832 183.926925 
" style="fill:none;stroke:#17becf;stroke-linecap:square;stroke-opacity:0.7;stroke-width:1.5;"/>
   </g>
   <g id="line2d_29">
    <path clip-path="url(#p51b4115e7f)" d="M 116.568249 365.535593 
L 460.453102 242.22669 
L 460.453102 242.22669 
" style="fill:none;stroke:#000000;stroke-dasharray:5.55,2.4;stroke-dashoffset:0;stroke-opacity:0.595;stroke-width:1.5;"/>
   </g>
   <g id="legend_1">
    <g id="patch_6">
     <path d="M 473.09375 122.9375 
L 558.2 122.9375 
Q 560.2 122.9375 560.2 120.9375 
L 560.2 17.8 
Q 560.2 15.8 558.2 15.8 
L 473.09375 15.8 
Q 471.09375 15.8 471.09375 17.8 
L 471.09375 120.9375 
Q 471.09375 122.9375 473.09375 122.9375 
z
" style="fill:#ffffff;opacity:0.8;stroke:#cccccc;stroke-linejoin:miter;"/>
    </g>
    <g id="line2d_30">
     <path d="M 475.09375 23.898438 
L 495.09375 23.898438 
" style="fill:none;stroke:#1f77b4;stroke-linecap:square;stroke-opacity:0.7;stroke-width:1.5;"/>
    </g>
    <g id="line2d_31"/>
    <g id="text_23">
     <!-- DSLPID -->
     <g transform="translate(503.09375 27.398438)scale(0.1 -0.1)">
      <defs>
       <path d="M 1259 4147 
L 1259 519 
L 2022 519 
Q 2988 519 3436 956 
Q 3884 1394 3884 2338 
Q 3884 3275 3436 3711 
Q 2988 4147 2022 4147 
L 1259 4147 
z
M 628 4666 
L 1925 4666 
Q 3281 4666 3915 4102 
Q 4550 3538 4550 2338 
Q 4550 1131 3912 565 
Q 3275 0 1925 0 
L 628 0 
L 628 4666 
z
" id="DejaVuSans-44" transform="scale(0.015625)"/>
       <path d="M 3425 4513 
L 3425 3897 
Q 3066 4069 2747 4153 
Q 2428 4238 2131 4238 
Q 1616 4238 1336 4038 
Q 1056 3838 1056 3469 
Q 1056 3159 1242 3001 
Q 1428 2844 1947 2747 
L 2328 2669 
Q 3034 2534 3370 2195 
Q 3706 1856 3706 1288 
Q 3706 609 3251 259 
Q 2797 -91 1919 -91 
Q 1588 -91 1214 -16 
Q 841 59 441 206 
L 441 856 
Q 825 641 1194 531 
Q 1563 422 1919 422 
Q 2459 422 2753 634 
Q 3047 847 3047 1241 
Q 3047 1584 2836 1778 
Q 2625 1972 2144 2069 
L 1759 2144 
Q 1053 2284 737 2584 
Q 422 2884 422 3419 
Q 422 4038 858 4394 
Q 1294 4750 2059 4750 
Q 2388 4750 2728 4690 
Q 3069 4631 3425 4513 
z
" id="DejaVuSans-53" transform="scale(0.015625)"/>
       <path d="M 628 4666 
L 1259 4666 
L 1259 531 
L 3531 531 
L 3531 0 
L 628 0 
L 628 4666 
z
" id="DejaVuSans-4c" transform="scale(0.015625)"/>
       <path d="M 1259 4147 
L 1259 2394 
L 2053 2394 
Q 2494 2394 2734 2622 
Q 2975 2850 2975 3272 
Q 2975 3691 2734 3919 
Q 2494 4147 2053 4147 
L 1259 4147 
z
M 628 4666 
L 2053 4666 
Q 2838 4666 3239 4311 
Q 3641 3956 3641 3272 
Q 3641 2581 3239 2228 
Q 2838 1875 2053 1875 
L 1259 1875 
L 1259 0 
L 628 0 
L 628 4666 
z
" id="DejaVuSans-50" transform="scale(0.015625)"/>
       <path d="M 628 4666 
L 1259 4666 
L 1259 0 
L 628 0 
L 628 4666 
z
" id="DejaVuSans-49" transform="scale(0.015625)"/>
      </defs>
      <use xlink:href="#DejaVuSans-44"/>
      <use x="77.001953" xlink:href="#DejaVuSans-53"/>
      <use x="140.478516" xlink:href="#DejaVuSans-4c"/>
      <use x="196.191406" xlink:href="#DejaVuSans-50"/>
      <use x="256.494141" xlink:href="#DejaVuSans-49"/>
      <use x="285.986328" xlink:href="#DejaVuSans-44"/>
     </g>
    </g>
    <g id="line2d_32">
     <path d="M 475.09375 38.576563 
L 495.09375 38.576563 
" style="fill:none;stroke:#d62728;stroke-linecap:square;stroke-opacity:0.7;stroke-width:1.5;"/>
    </g>
    <g id="line2d_33"/>
    <g id="text_24">
     <!-- ANN_1 -->
     <g transform="translate(503.09375 42.076563)scale(0.1 -0.1)">
      <defs>
       <path d="M 2188 4044 
L 1331 1722 
L 3047 1722 
L 2188 4044 
z
M 1831 4666 
L 2547 4666 
L 4325 0 
L 3669 0 
L 3244 1197 
L 1141 1197 
L 716 0 
L 50 0 
L 1831 4666 
z
" id="DejaVuSans-41" transform="scale(0.015625)"/>
       <path d="M 628 4666 
L 1478 4666 
L 3547 763 
L 3547 4666 
L 4159 4666 
L 4159 0 
L 3309 0 
L 1241 3903 
L 1241 0 
L 628 0 
L 628 4666 
z
" id="DejaVuSans-4e" transform="scale(0.015625)"/>
       <path d="M 3263 -1063 
L 3263 -1509 
L -63 -1509 
L -63 -1063 
L 3263 -1063 
z
" id="DejaVuSans-5f" transform="scale(0.015625)"/>
      </defs>
      <use xlink:href="#DejaVuSans-41"/>
      <use x="68.408203" xlink:href="#DejaVuSans-4e"/>
      <use x="143.212891" xlink:href="#DejaVuSans-4e"/>
      <use x="218.017578" xlink:href="#DejaVuSans-5f"/>
      <use x="268.017578" xlink:href="#DejaVuSans-31"/>
     </g>
    </g>
    <g id="line2d_34">
     <path d="M 475.09375 53.532813 
L 495.09375 53.532813 
" style="fill:none;stroke:#9467bd;stroke-linecap:square;stroke-opacity:0.7;stroke-width:1.5;"/>
    </g>
    <g id="line2d_35"/>
    <g id="text_25">
     <!-- ANN_2 -->
     <g transform="translate(503.09375 57.032813)scale(0.1 -0.1)">
      <use xlink:href="#DejaVuSans-41"/>
      <use x="68.408203" xlink:href="#DejaVuSans-4e"/>
      <use x="143.212891" xlink:href="#DejaVuSans-4e"/>
      <use x="218.017578" xlink:href="#DejaVuSans-5f"/>
      <use x="268.017578" xlink:href="#DejaVuSans-32"/>
     </g>
    </g>
    <g id="line2d_36">
     <path d="M 475.09375 68.489063 
L 495.09375 68.489063 
" style="fill:none;stroke:#bcbd22;stroke-linecap:square;stroke-opacity:0.7;stroke-width:1.5;"/>
    </g>
    <g id="line2d_37"/>
    <g id="text_26">
     <!-- ANN_3 -->
     <g transform="translate(503.09375 71.989063)scale(0.1 -0.1)">
      <defs>
       <path d="M 2597 2516 
Q 3050 2419 3304 2112 
Q 3559 1806 3559 1356 
Q 3559 666 3084 287 
Q 2609 -91 1734 -91 
Q 1441 -91 1130 -33 
Q 819 25 488 141 
L 488 750 
Q 750 597 1062 519 
Q 1375 441 1716 441 
Q 2309 441 2620 675 
Q 2931 909 2931 1356 
Q 2931 1769 2642 2001 
Q 2353 2234 1838 2234 
L 1294 2234 
L 1294 2753 
L 1863 2753 
Q 2328 2753 2575 2939 
Q 2822 3125 2822 3475 
Q 2822 3834 2567 4026 
Q 2313 4219 1838 4219 
Q 1578 4219 1281 4162 
Q 984 4106 628 3988 
L 628 4550 
Q 988 4650 1302 4700 
Q 1616 4750 1894 4750 
Q 2613 4750 3031 4423 
Q 3450 4097 3450 3541 
Q 3450 3153 3228 2886 
Q 3006 2619 2597 2516 
z
" id="DejaVuSans-33" transform="scale(0.015625)"/>
      </defs>
      <use xlink:href="#DejaVuSans-41"/>
      <use x="68.408203" xlink:href="#DejaVuSans-4e"/>
      <use x="143.212891" xlink:href="#DejaVuSans-4e"/>
      <use x="218.017578" xlink:href="#DejaVuSans-5f"/>
      <use x="268.017578" xlink:href="#DejaVuSans-33"/>
     </g>
    </g>
    <g id="line2d_38">
     <path d="M 475.09375 83.445313 
L 495.09375 83.445313 
" style="fill:none;stroke:#2ca02c;stroke-linecap:square;stroke-opacity:0.7;stroke-width:1.5;"/>
    </g>
    <g id="line2d_39"/>
    <g id="text_27">
     <!-- ANN_4 -->
     <g transform="translate(503.09375 86.945313)scale(0.1 -0.1)">
      <use xlink:href="#DejaVuSans-41"/>
      <use x="68.408203" xlink:href="#DejaVuSans-4e"/>
      <use x="143.212891" xlink:href="#DejaVuSans-4e"/>
      <use x="218.017578" xlink:href="#DejaVuSans-5f"/>
      <use x="268.017578" xlink:href="#DejaVuSans-34"/>
     </g>
    </g>
    <g id="line2d_40">
     <path d="M 475.09375 98.401563 
L 495.09375 98.401563 
" style="fill:none;stroke:#17becf;stroke-linecap:square;stroke-opacity:0.7;stroke-width:1.5;"/>
    </g>
    <g id="line2d_41"/>
    <g id="text_28">
     <!-- ANN_5 -->
     <g transform="translate(503.09375 101.901563)scale(0.1 -0.1)">
      <use xlink:href="#DejaVuSans-41"/>
      <use x="68.408203" xlink:href="#DejaVuSans-4e"/>
      <use x="143.212891" xlink:href="#DejaVuSans-4e"/>
      <use x="218.017578" xlink:href="#DejaVuSans-5f"/>
      <use x="268.017578" xlink:href="#DejaVuSans-35"/>
     </g>
    </g>
    <g id="line2d_42">
     <path d="M 475.09375 113.357813 
L 495.09375 113.357813 
" style="fill:none;stroke:#000000;stroke-dasharray:5.55,2.4;stroke-dashoffset:0;stroke-opacity:0.595;stroke-width:1.5;"/>
    </g>
    <g id="line2d_43"/>
    <g id="text_29">
     <!-- Referencia -->
     <g transform="translate(503.09375 116.857813)scale(0.1 -0.1)">
      <defs>
       <path d="M 2841 2188 
Q 3044 2119 3236 1894 
Q 3428 1669 3622 1275 
L 4263 0 
L 3584 0 
L 2988 1197 
Q 2756 1666 2539 1819 
Q 2322 1972 1947 1972 
L 1259 1972 
L 1259 0 
L 628 0 
L 628 4666 
L 2053 4666 
Q 2853 4666 3247 4331 
Q 3641 3997 3641 3322 
Q 3641 2881 3436 2590 
Q 3231 2300 2841 2188 
z
M 1259 4147 
L 1259 2491 
L 2053 2491 
Q 2509 2491 2742 2702 
Q 2975 2913 2975 3322 
Q 2975 3731 2742 3939 
Q 2509 4147 2053 4147 
L 1259 4147 
z
" id="DejaVuSans-52" transform="scale(0.015625)"/>
       <path d="M 3597 1894 
L 3597 1613 
L 953 1613 
Q 991 1019 1311 708 
Q 1631 397 2203 397 
Q 2534 397 2845 478 
Q 3156 559 3463 722 
L 3463 178 
Q 3153 47 2828 -22 
Q 2503 -91 2169 -91 
Q 1331 -91 842 396 
Q 353 884 353 1716 
Q 353 2575 817 3079 
Q 1281 3584 2069 3584 
Q 2775 3584 3186 3129 
Q 3597 2675 3597 1894 
z
M 3022 2063 
Q 3016 2534 2758 2815 
Q 2500 3097 2075 3097 
Q 1594 3097 1305 2825 
Q 1016 2553 972 2059 
L 3022 2063 
z
" id="DejaVuSans-65" transform="scale(0.015625)"/>
       <path d="M 2375 4863 
L 2375 4384 
L 1825 4384 
Q 1516 4384 1395 4259 
Q 1275 4134 1275 3809 
L 1275 3500 
L 2222 3500 
L 2222 3053 
L 1275 3053 
L 1275 0 
L 697 0 
L 697 3053 
L 147 3053 
L 147 3500 
L 697 3500 
L 697 3744 
Q 697 4328 969 4595 
Q 1241 4863 1831 4863 
L 2375 4863 
z
" id="DejaVuSans-66" transform="scale(0.015625)"/>
       <path d="M 2631 2963 
Q 2534 3019 2420 3045 
Q 2306 3072 2169 3072 
Q 1681 3072 1420 2755 
Q 1159 2438 1159 1844 
L 1159 0 
L 581 0 
L 581 3500 
L 1159 3500 
L 1159 2956 
Q 1341 3275 1631 3429 
Q 1922 3584 2338 3584 
Q 2397 3584 2469 3576 
Q 2541 3569 2628 3553 
L 2631 2963 
z
" id="DejaVuSans-72" transform="scale(0.015625)"/>
       <path d="M 3513 2113 
L 3513 0 
L 2938 0 
L 2938 2094 
Q 2938 2591 2744 2837 
Q 2550 3084 2163 3084 
Q 1697 3084 1428 2787 
Q 1159 2491 1159 1978 
L 1159 0 
L 581 0 
L 581 3500 
L 1159 3500 
L 1159 2956 
Q 1366 3272 1645 3428 
Q 1925 3584 2291 3584 
Q 2894 3584 3203 3211 
Q 3513 2838 3513 2113 
z
" id="DejaVuSans-6e" transform="scale(0.015625)"/>
       <path d="M 3122 3366 
L 3122 2828 
Q 2878 2963 2633 3030 
Q 2388 3097 2138 3097 
Q 1578 3097 1268 2742 
Q 959 2388 959 1747 
Q 959 1106 1268 751 
Q 1578 397 2138 397 
Q 2388 397 2633 464 
Q 2878 531 3122 666 
L 3122 134 
Q 2881 22 2623 -34 
Q 2366 -91 2075 -91 
Q 1284 -91 818 406 
Q 353 903 353 1747 
Q 353 2603 823 3093 
Q 1294 3584 2113 3584 
Q 2378 3584 2631 3529 
Q 2884 3475 3122 3366 
z
" id="DejaVuSans-63" transform="scale(0.015625)"/>
       <path d="M 603 3500 
L 1178 3500 
L 1178 0 
L 603 0 
L 603 3500 
z
M 603 4863 
L 1178 4863 
L 1178 4134 
L 603 4134 
L 603 4863 
z
" id="DejaVuSans-69" transform="scale(0.015625)"/>
       <path d="M 2194 1759 
Q 1497 1759 1228 1600 
Q 959 1441 959 1056 
Q 959 750 1161 570 
Q 1363 391 1709 391 
Q 2188 391 2477 730 
Q 2766 1069 2766 1631 
L 2766 1759 
L 2194 1759 
z
M 3341 1997 
L 3341 0 
L 2766 0 
L 2766 531 
Q 2569 213 2275 61 
Q 1981 -91 1556 -91 
Q 1019 -91 701 211 
Q 384 513 384 1019 
Q 384 1609 779 1909 
Q 1175 2209 1959 2209 
L 2766 2209 
L 2766 2266 
Q 2766 2663 2505 2880 
Q 2244 3097 1772 3097 
Q 1472 3097 1187 3025 
Q 903 2953 641 2809 
L 641 3341 
Q 956 3463 1253 3523 
Q 1550 3584 1831 3584 
Q 2591 3584 2966 3190 
Q 3341 2797 3341 1997 
z
" id="DejaVuSans-61" transform="scale(0.015625)"/>
      </defs>
      <use xlink:href="#DejaVuSans-52"/>
      <use x="64.982422" xlink:href="#DejaVuSans-65"/>
      <use x="126.505859" xlink:href="#DejaVuSans-66"/>
      <use x="161.710938" xlink:href="#DejaVuSans-65"/>
      <use x="223.234375" xlink:href="#DejaVuSans-72"/>
      <use x="262.097656" xlink:href="#DejaVuSans-65"/>
      <use x="323.621094" xlink:href="#DejaVuSans-6e"/>
      <use x="387" xlink:href="#DejaVuSans-63"/>
      <use x="441.980469" xlink:href="#DejaVuSans-69"/>
      <use x="469.763672" xlink:href="#DejaVuSans-61"/>
     </g>
    </g>
   </g>
  </g>
 </g>
 <defs>
  <clipPath id="p51b4115e7f">
   <rect height="554.4" width="554.4" x="10.8" y="10.8"/>
  </clipPath>
 </defs>
</svg>
