<?xml version="1.0" encoding="utf-8" standalone="no"?>
<!DOCTYPE svg PUBLIC "-//W3C//DTD SVG 1.1//EN"
  "http://www.w3.org/Graphics/SVG/1.1/DTD/svg11.dtd">
<svg height="288pt" version="1.1" viewBox="0 0 576 288" width="576pt" xmlns="http://www.w3.org/2000/svg" xmlns:xlink="http://www.w3.org/1999/xlink">
 <metadata>
  <rdf:RDF xmlns:cc="http://creativecommons.org/ns#" xmlns:dc="http://purl.org/dc/elements/1.1/" xmlns:rdf="http://www.w3.org/1999/02/22-rdf-syntax-ns#">
   <cc:Work>
    <dc:type rdf:resource="http://purl.org/dc/dcmitype/StillImage"/>
    <dc:date>2022-02-26T21:51:02.885758</dc:date>
    <dc:format>image/svg+xml</dc:format>
    <dc:creator>
     <cc:Agent>
      <dc:title>Matplotlib v3.4.3, https://matplotlib.org/</dc:title>
     </cc:Agent>
    </dc:creator>
   </cc:Work>
  </rdf:RDF>
 </metadata>
 <defs>
  <style type="text/css">*{stroke-linecap:butt;stroke-linejoin:round;}</style>
 </defs>
 <g id="figure_1">
  <g id="patch_1">
   <path d="M 0 288 
L 576 288 
L 576 0 
L 0 0 
z
" style="fill:#ffffff;"/>
  </g>
  <g id="axes_1">
   <g id="patch_2">
    <path d="M 91.1 231.64 
L 257.895 231.64 
L 257.895 41.28 
L 91.1 41.28 
z
" style="fill:#ffffff;"/>
   </g>
   <g id="matplotlib.axis_1">
    <g id="xtick_1">
     <g id="line2d_1">
      <path clip-path="url(#p046c397f46)" d="M 107.355891 231.64 
L 107.355891 41.28 
" style="fill:none;stroke:#b0b0b0;stroke-linecap:square;stroke-width:0.8;"/>
     </g>
     <g id="line2d_2">
      <defs>
       <path d="M 0 0 
L 0 3.5 
" id="mb6cbeeb1d9" style="stroke:#000000;stroke-width:0.8;"/>
      </defs>
      <g>
       <use style="stroke:#000000;stroke-width:0.8;" x="107.355891" xlink:href="#mb6cbeeb1d9" y="231.64"/>
      </g>
     </g>
     <g id="text_1">
      <!-- 0.00 -->
      <g transform="translate(96.223079 246.238438)scale(0.1 -0.1)">
       <defs>
        <path d="M 2034 4250 
Q 1547 4250 1301 3770 
Q 1056 3291 1056 2328 
Q 1056 1369 1301 889 
Q 1547 409 2034 409 
Q 2525 409 2770 889 
Q 3016 1369 3016 2328 
Q 3016 3291 2770 3770 
Q 2525 4250 2034 4250 
z
M 2034 4750 
Q 2819 4750 3233 4129 
Q 3647 3509 3647 2328 
Q 3647 1150 3233 529 
Q 2819 -91 2034 -91 
Q 1250 -91 836 529 
Q 422 1150 422 2328 
Q 422 3509 836 4129 
Q 1250 4750 2034 4750 
z
" id="DejaVuSans-30" transform="scale(0.015625)"/>
        <path d="M 684 794 
L 1344 794 
L 1344 0 
L 684 0 
L 684 794 
z
" id="DejaVuSans-2e" transform="scale(0.015625)"/>
       </defs>
       <use xlink:href="#DejaVuSans-30"/>
       <use x="63.623047" xlink:href="#DejaVuSans-2e"/>
       <use x="95.410156" xlink:href="#DejaVuSans-30"/>
       <use x="159.033203" xlink:href="#DejaVuSans-30"/>
      </g>
     </g>
    </g>
    <g id="xtick_2">
     <g id="line2d_3">
      <path clip-path="url(#p046c397f46)" d="M 170.395492 231.64 
L 170.395492 41.28 
" style="fill:none;stroke:#b0b0b0;stroke-linecap:square;stroke-width:0.8;"/>
     </g>
     <g id="line2d_4">
      <g>
       <use style="stroke:#000000;stroke-width:0.8;" x="170.395492" xlink:href="#mb6cbeeb1d9" y="231.64"/>
      </g>
     </g>
     <g id="text_2">
      <!-- 0.05 -->
      <g transform="translate(159.262679 246.238438)scale(0.1 -0.1)">
       <defs>
        <path d="M 691 4666 
L 3169 4666 
L 3169 4134 
L 1269 4134 
L 1269 2991 
Q 1406 3038 1543 3061 
Q 1681 3084 1819 3084 
Q 2600 3084 3056 2656 
Q 3513 2228 3513 1497 
Q 3513 744 3044 326 
Q 2575 -91 1722 -91 
Q 1428 -91 1123 -41 
Q 819 9 494 109 
L 494 744 
Q 775 591 1075 516 
Q 1375 441 1709 441 
Q 2250 441 2565 725 
Q 2881 1009 2881 1497 
Q 2881 1984 2565 2268 
Q 2250 2553 1709 2553 
Q 1456 2553 1204 2497 
Q 953 2441 691 2322 
L 691 4666 
z
" id="DejaVuSans-35" transform="scale(0.015625)"/>
       </defs>
       <use xlink:href="#DejaVuSans-30"/>
       <use x="63.623047" xlink:href="#DejaVuSans-2e"/>
       <use x="95.410156" xlink:href="#DejaVuSans-30"/>
       <use x="159.033203" xlink:href="#DejaVuSans-35"/>
      </g>
     </g>
    </g>
    <g id="xtick_3">
     <g id="line2d_5">
      <path clip-path="url(#p046c397f46)" d="M 233.435092 231.64 
L 233.435092 41.28 
" style="fill:none;stroke:#b0b0b0;stroke-linecap:square;stroke-width:0.8;"/>
     </g>
     <g id="line2d_6">
      <g>
       <use style="stroke:#000000;stroke-width:0.8;" x="233.435092" xlink:href="#mb6cbeeb1d9" y="231.64"/>
      </g>
     </g>
     <g id="text_3">
      <!-- 0.10 -->
      <g transform="translate(222.30228 246.238438)scale(0.1 -0.1)">
       <defs>
        <path d="M 794 531 
L 1825 531 
L 1825 4091 
L 703 3866 
L 703 4441 
L 1819 4666 
L 2450 4666 
L 2450 531 
L 3481 531 
L 3481 0 
L 794 0 
L 794 531 
z
" id="DejaVuSans-31" transform="scale(0.015625)"/>
       </defs>
       <use xlink:href="#DejaVuSans-30"/>
       <use x="63.623047" xlink:href="#DejaVuSans-2e"/>
       <use x="95.410156" xlink:href="#DejaVuSans-31"/>
       <use x="159.033203" xlink:href="#DejaVuSans-30"/>
      </g>
     </g>
    </g>
    <g id="text_4">
     <!-- x (m) -->
     <g transform="translate(161.177187 259.916562)scale(0.1 -0.1)">
      <defs>
       <path d="M 3513 3500 
L 2247 1797 
L 3578 0 
L 2900 0 
L 1881 1375 
L 863 0 
L 184 0 
L 1544 1831 
L 300 3500 
L 978 3500 
L 1906 2253 
L 2834 3500 
L 3513 3500 
z
" id="DejaVuSans-78" transform="scale(0.015625)"/>
       <path id="DejaVuSans-20" transform="scale(0.015625)"/>
       <path d="M 1984 4856 
Q 1566 4138 1362 3434 
Q 1159 2731 1159 2009 
Q 1159 1288 1364 580 
Q 1569 -128 1984 -844 
L 1484 -844 
Q 1016 -109 783 600 
Q 550 1309 550 2009 
Q 550 2706 781 3412 
Q 1013 4119 1484 4856 
L 1984 4856 
z
" id="DejaVuSans-28" transform="scale(0.015625)"/>
       <path d="M 3328 2828 
Q 3544 3216 3844 3400 
Q 4144 3584 4550 3584 
Q 5097 3584 5394 3201 
Q 5691 2819 5691 2113 
L 5691 0 
L 5113 0 
L 5113 2094 
Q 5113 2597 4934 2840 
Q 4756 3084 4391 3084 
Q 3944 3084 3684 2787 
Q 3425 2491 3425 1978 
L 3425 0 
L 2847 0 
L 2847 2094 
Q 2847 2600 2669 2842 
Q 2491 3084 2119 3084 
Q 1678 3084 1418 2786 
Q 1159 2488 1159 1978 
L 1159 0 
L 581 0 
L 581 3500 
L 1159 3500 
L 1159 2956 
Q 1356 3278 1631 3431 
Q 1906 3584 2284 3584 
Q 2666 3584 2933 3390 
Q 3200 3197 3328 2828 
z
" id="DejaVuSans-6d" transform="scale(0.015625)"/>
       <path d="M 513 4856 
L 1013 4856 
Q 1481 4119 1714 3412 
Q 1947 2706 1947 2009 
Q 1947 1309 1714 600 
Q 1481 -109 1013 -844 
L 513 -844 
Q 928 -128 1133 580 
Q 1338 1288 1338 2009 
Q 1338 2731 1133 3434 
Q 928 4138 513 4856 
z
" id="DejaVuSans-29" transform="scale(0.015625)"/>
      </defs>
      <use xlink:href="#DejaVuSans-78"/>
      <use x="59.179688" xlink:href="#DejaVuSans-20"/>
      <use x="90.966797" xlink:href="#DejaVuSans-28"/>
      <use x="129.980469" xlink:href="#DejaVuSans-6d"/>
      <use x="227.392578" xlink:href="#DejaVuSans-29"/>
     </g>
    </g>
   </g>
   <g id="matplotlib.axis_2">
    <g id="ytick_1">
     <g id="line2d_7">
      <path clip-path="url(#p046c397f46)" d="M 91.1 230.32616 
L 257.895 230.32616 
" style="fill:none;stroke:#b0b0b0;stroke-linecap:square;stroke-width:0.8;"/>
     </g>
     <g id="line2d_8">
      <defs>
       <path d="M 0 0 
L -3.5 0 
" id="m3fdbd58507" style="stroke:#000000;stroke-width:0.8;"/>
      </defs>
      <g>
       <use style="stroke:#000000;stroke-width:0.8;" x="91.1" xlink:href="#m3fdbd58507" y="230.32616"/>
      </g>
     </g>
     <g id="text_5">
      <!-- −0.02 -->
      <g transform="translate(53.454688 234.125379)scale(0.1 -0.1)">
       <defs>
        <path d="M 678 2272 
L 4684 2272 
L 4684 1741 
L 678 1741 
L 678 2272 
z
" id="DejaVuSans-2212" transform="scale(0.015625)"/>
        <path d="M 1228 531 
L 3431 531 
L 3431 0 
L 469 0 
L 469 531 
Q 828 903 1448 1529 
Q 2069 2156 2228 2338 
Q 2531 2678 2651 2914 
Q 2772 3150 2772 3378 
Q 2772 3750 2511 3984 
Q 2250 4219 1831 4219 
Q 1534 4219 1204 4116 
Q 875 4013 500 3803 
L 500 4441 
Q 881 4594 1212 4672 
Q 1544 4750 1819 4750 
Q 2544 4750 2975 4387 
Q 3406 4025 3406 3419 
Q 3406 3131 3298 2873 
Q 3191 2616 2906 2266 
Q 2828 2175 2409 1742 
Q 1991 1309 1228 531 
z
" id="DejaVuSans-32" transform="scale(0.015625)"/>
       </defs>
       <use xlink:href="#DejaVuSans-2212"/>
       <use x="83.789062" xlink:href="#DejaVuSans-30"/>
       <use x="147.412109" xlink:href="#DejaVuSans-2e"/>
       <use x="179.199219" xlink:href="#DejaVuSans-30"/>
       <use x="242.822266" xlink:href="#DejaVuSans-32"/>
      </g>
     </g>
    </g>
    <g id="ytick_2">
     <g id="line2d_9">
      <path clip-path="url(#p046c397f46)" d="M 91.1 203.214459 
L 257.895 203.214459 
" style="fill:none;stroke:#b0b0b0;stroke-linecap:square;stroke-width:0.8;"/>
     </g>
     <g id="line2d_10">
      <g>
       <use style="stroke:#000000;stroke-width:0.8;" x="91.1" xlink:href="#m3fdbd58507" y="203.214459"/>
      </g>
     </g>
     <g id="text_6">
      <!-- 0.00 -->
      <g transform="translate(61.834375 207.013678)scale(0.1 -0.1)">
       <use xlink:href="#DejaVuSans-30"/>
       <use x="63.623047" xlink:href="#DejaVuSans-2e"/>
       <use x="95.410156" xlink:href="#DejaVuSans-30"/>
       <use x="159.033203" xlink:href="#DejaVuSans-30"/>
      </g>
     </g>
    </g>
    <g id="ytick_3">
     <g id="line2d_11">
      <path clip-path="url(#p046c397f46)" d="M 91.1 176.102758 
L 257.895 176.102758 
" style="fill:none;stroke:#b0b0b0;stroke-linecap:square;stroke-width:0.8;"/>
     </g>
     <g id="line2d_12">
      <g>
       <use style="stroke:#000000;stroke-width:0.8;" x="91.1" xlink:href="#m3fdbd58507" y="176.102758"/>
      </g>
     </g>
     <g id="text_7">
      <!-- 0.02 -->
      <g transform="translate(61.834375 179.901976)scale(0.1 -0.1)">
       <use xlink:href="#DejaVuSans-30"/>
       <use x="63.623047" xlink:href="#DejaVuSans-2e"/>
       <use x="95.410156" xlink:href="#DejaVuSans-30"/>
       <use x="159.033203" xlink:href="#DejaVuSans-32"/>
      </g>
     </g>
    </g>
    <g id="ytick_4">
     <g id="line2d_13">
      <path clip-path="url(#p046c397f46)" d="M 91.1 148.991057 
L 257.895 148.991057 
" style="fill:none;stroke:#b0b0b0;stroke-linecap:square;stroke-width:0.8;"/>
     </g>
     <g id="line2d_14">
      <g>
       <use style="stroke:#000000;stroke-width:0.8;" x="91.1" xlink:href="#m3fdbd58507" y="148.991057"/>
      </g>
     </g>
     <g id="text_8">
      <!-- 0.04 -->
      <g transform="translate(61.834375 152.790275)scale(0.1 -0.1)">
       <defs>
        <path d="M 2419 4116 
L 825 1625 
L 2419 1625 
L 2419 4116 
z
M 2253 4666 
L 3047 4666 
L 3047 1625 
L 3713 1625 
L 3713 1100 
L 3047 1100 
L 3047 0 
L 2419 0 
L 2419 1100 
L 313 1100 
L 313 1709 
L 2253 4666 
z
" id="DejaVuSans-34" transform="scale(0.015625)"/>
       </defs>
       <use xlink:href="#DejaVuSans-30"/>
       <use x="63.623047" xlink:href="#DejaVuSans-2e"/>
       <use x="95.410156" xlink:href="#DejaVuSans-30"/>
       <use x="159.033203" xlink:href="#DejaVuSans-34"/>
      </g>
     </g>
    </g>
    <g id="ytick_5">
     <g id="line2d_15">
      <path clip-path="url(#p046c397f46)" d="M 91.1 121.879356 
L 257.895 121.879356 
" style="fill:none;stroke:#b0b0b0;stroke-linecap:square;stroke-width:0.8;"/>
     </g>
     <g id="line2d_16">
      <g>
       <use style="stroke:#000000;stroke-width:0.8;" x="91.1" xlink:href="#m3fdbd58507" y="121.879356"/>
      </g>
     </g>
     <g id="text_9">
      <!-- 0.06 -->
      <g transform="translate(61.834375 125.678574)scale(0.1 -0.1)">
       <defs>
        <path d="M 2113 2584 
Q 1688 2584 1439 2293 
Q 1191 2003 1191 1497 
Q 1191 994 1439 701 
Q 1688 409 2113 409 
Q 2538 409 2786 701 
Q 3034 994 3034 1497 
Q 3034 2003 2786 2293 
Q 2538 2584 2113 2584 
z
M 3366 4563 
L 3366 3988 
Q 3128 4100 2886 4159 
Q 2644 4219 2406 4219 
Q 1781 4219 1451 3797 
Q 1122 3375 1075 2522 
Q 1259 2794 1537 2939 
Q 1816 3084 2150 3084 
Q 2853 3084 3261 2657 
Q 3669 2231 3669 1497 
Q 3669 778 3244 343 
Q 2819 -91 2113 -91 
Q 1303 -91 875 529 
Q 447 1150 447 2328 
Q 447 3434 972 4092 
Q 1497 4750 2381 4750 
Q 2619 4750 2861 4703 
Q 3103 4656 3366 4563 
z
" id="DejaVuSans-36" transform="scale(0.015625)"/>
       </defs>
       <use xlink:href="#DejaVuSans-30"/>
       <use x="63.623047" xlink:href="#DejaVuSans-2e"/>
       <use x="95.410156" xlink:href="#DejaVuSans-30"/>
       <use x="159.033203" xlink:href="#DejaVuSans-36"/>
      </g>
     </g>
    </g>
    <g id="ytick_6">
     <g id="line2d_17">
      <path clip-path="url(#p046c397f46)" d="M 91.1 94.767654 
L 257.895 94.767654 
" style="fill:none;stroke:#b0b0b0;stroke-linecap:square;stroke-width:0.8;"/>
     </g>
     <g id="line2d_18">
      <g>
       <use style="stroke:#000000;stroke-width:0.8;" x="91.1" xlink:href="#m3fdbd58507" y="94.767654"/>
      </g>
     </g>
     <g id="text_10">
      <!-- 0.08 -->
      <g transform="translate(61.834375 98.566873)scale(0.1 -0.1)">
       <defs>
        <path d="M 2034 2216 
Q 1584 2216 1326 1975 
Q 1069 1734 1069 1313 
Q 1069 891 1326 650 
Q 1584 409 2034 409 
Q 2484 409 2743 651 
Q 3003 894 3003 1313 
Q 3003 1734 2745 1975 
Q 2488 2216 2034 2216 
z
M 1403 2484 
Q 997 2584 770 2862 
Q 544 3141 544 3541 
Q 544 4100 942 4425 
Q 1341 4750 2034 4750 
Q 2731 4750 3128 4425 
Q 3525 4100 3525 3541 
Q 3525 3141 3298 2862 
Q 3072 2584 2669 2484 
Q 3125 2378 3379 2068 
Q 3634 1759 3634 1313 
Q 3634 634 3220 271 
Q 2806 -91 2034 -91 
Q 1263 -91 848 271 
Q 434 634 434 1313 
Q 434 1759 690 2068 
Q 947 2378 1403 2484 
z
M 1172 3481 
Q 1172 3119 1398 2916 
Q 1625 2713 2034 2713 
Q 2441 2713 2670 2916 
Q 2900 3119 2900 3481 
Q 2900 3844 2670 4047 
Q 2441 4250 2034 4250 
Q 1625 4250 1398 4047 
Q 1172 3844 1172 3481 
z
" id="DejaVuSans-38" transform="scale(0.015625)"/>
       </defs>
       <use xlink:href="#DejaVuSans-30"/>
       <use x="63.623047" xlink:href="#DejaVuSans-2e"/>
       <use x="95.410156" xlink:href="#DejaVuSans-30"/>
       <use x="159.033203" xlink:href="#DejaVuSans-38"/>
      </g>
     </g>
    </g>
    <g id="ytick_7">
     <g id="line2d_19">
      <path clip-path="url(#p046c397f46)" d="M 91.1 67.655953 
L 257.895 67.655953 
" style="fill:none;stroke:#b0b0b0;stroke-linecap:square;stroke-width:0.8;"/>
     </g>
     <g id="line2d_20">
      <g>
       <use style="stroke:#000000;stroke-width:0.8;" x="91.1" xlink:href="#m3fdbd58507" y="67.655953"/>
      </g>
     </g>
     <g id="text_11">
      <!-- 0.10 -->
      <g transform="translate(61.834375 71.455172)scale(0.1 -0.1)">
       <use xlink:href="#DejaVuSans-30"/>
       <use x="63.623047" xlink:href="#DejaVuSans-2e"/>
       <use x="95.410156" xlink:href="#DejaVuSans-31"/>
       <use x="159.033203" xlink:href="#DejaVuSans-30"/>
      </g>
     </g>
    </g>
    <g id="text_12">
     <!-- y (m) -->
     <g transform="translate(47.375 149.780313)rotate(-90)scale(0.1 -0.1)">
      <defs>
       <path d="M 2059 -325 
Q 1816 -950 1584 -1140 
Q 1353 -1331 966 -1331 
L 506 -1331 
L 506 -850 
L 844 -850 
Q 1081 -850 1212 -737 
Q 1344 -625 1503 -206 
L 1606 56 
L 191 3500 
L 800 3500 
L 1894 763 
L 2988 3500 
L 3597 3500 
L 2059 -325 
z
" id="DejaVuSans-79" transform="scale(0.015625)"/>
      </defs>
      <use xlink:href="#DejaVuSans-79"/>
      <use x="59.179688" xlink:href="#DejaVuSans-20"/>
      <use x="90.966797" xlink:href="#DejaVuSans-28"/>
      <use x="129.980469" xlink:href="#DejaVuSans-6d"/>
      <use x="227.392578" xlink:href="#DejaVuSans-29"/>
     </g>
    </g>
   </g>
   <g id="line2d_21">
    <path clip-path="url(#p046c397f46)" d="M 107.355891 203.214459 
L 113.048896 196.933576 
L 173.506259 130.498761 
L 197.960892 104.011122 
L 215.020069 85.832914 
L 224.265912 76.250813 
L 227.274514 73.429184 
L 229.725068 71.419196 
L 231.089207 70.540651 
L 232.007742 70.181631 
L 232.497587 70.19477 
L 232.726393 70.391564 
L 232.815258 70.764758 
L 232.698701 71.332735 
L 232.275849 72.115205 
L 231.764357 72.644571 
L 231.486477 72.708684 
L 231.401388 72.529514 
L 231.467993 72.044424 
L 231.853531 71.017294 
L 232.757821 69.284837 
L 234.279607 66.878552 
L 236.197134 64.258391 
L 238.222794 61.855121 
L 239.7964 60.302688 
L 240.580728 59.783845 
L 240.727643 59.837413 
L 240.730205 59.856916 
L 240.627948 60.149698 
L 240.200688 60.67109 
L 240.031142 60.732089 
L 240.022289 60.672346 
L 240.184696 60.32329 
L 240.422718 60.045653 
L 239.679594 60.897263 
L 236.42801 64.420208 
L 234.830718 66.147115 
L 234.830718 66.147115 
" style="fill:none;stroke:#1f77b4;stroke-linecap:square;stroke-opacity:0.7;stroke-width:1.5;"/>
   </g>
   <g id="line2d_22">
    <path clip-path="url(#p046c397f46)" d="M 107.355891 203.214459 
L 108.22086 203.206316 
L 111.310147 203.367147 
L 113.002201 203.655201 
L 113.761247 203.982887 
L 113.990358 204.289561 
L 113.943469 204.59094 
L 113.636486 204.962759 
L 112.795216 205.564167 
L 109.71056 207.592502 
L 109.290448 208.159048 
L 109.19033 208.646783 
L 109.333703 209.12343 
L 109.73029 209.614874 
L 110.509561 210.19448 
L 111.769085 210.827469 
L 113.133564 211.271635 
L 113.705097 211.27099 
L 113.724922 211.112377 
L 113.447839 210.733554 
L 110.314253 207.138769 
L 109.353932 205.587319 
L 108.796534 204.307582 
L 108.538559 203.19445 
L 108.536831 202.222974 
L 108.747756 201.511574 
L 109.089316 201.064608 
L 109.494104 200.866005 
L 109.960464 200.89436 
L 110.459615 201.159227 
L 111.011702 201.708284 
L 111.573249 202.573015 
L 112.077168 203.749315 
L 112.411918 205.081394 
L 112.523318 206.468728 
L 112.400365 207.711205 
L 112.060785 208.835568 
L 111.581049 209.694774 
L 110.976599 210.327254 
L 110.356992 210.658072 
L 109.774766 210.737598 
L 109.137961 210.588903 
L 108.552793 210.211203 
L 108.062744 209.636314 
L 107.678781 208.825035 
L 107.478914 207.884549 
L 107.471074 206.784285 
L 107.686928 205.59805 
L 108.121135 204.447046 
L 108.651699 203.610488 
L 109.199545 203.129248 
L 109.662758 202.982948 
L 110.100719 203.073624 
L 110.483548 203.387905 
L 110.805315 203.960316 
L 110.994906 204.796681 
L 110.980058 205.773368 
L 110.746631 206.8011 
L 110.267255 207.867781 
L 109.611281 208.776288 
L 108.926114 209.379786 
L 108.305246 209.662586 
L 107.810527 209.654981 
L 107.472979 209.427989 
L 107.272261 209.007947 
L 107.220919 208.346462 
L 107.394201 207.339354 
L 107.882356 205.968547 
L 108.756635 204.207118 
L 109.974787 202.241746 
L 111.018024 200.929015 
L 111.545092 200.578389 
L 112.33941 199.929057 
L 115.406375 197.022166 
L 158.294652 155.321636 
L 167.906415 145.507234 
L 177.358666 135.552723 
L 185.379417 126.819536 
L 192.82676 118.387102 
L 198.73074 111.379321 
L 203.966624 104.81173 
L 208.480214 98.76537 
L 212.267528 93.311348 
L 215.770955 87.876747 
L 223.129836 76.149828 
L 224.1215 75.073664 
L 225.008121 74.41212 
L 225.80959 74.090893 
L 226.537781 74.033875 
L 227.307678 74.203901 
L 228.297171 74.680167 
L 230.064156 75.587318 
L 230.979752 75.771242 
L 231.890858 75.722703 
L 232.89798 75.444017 
L 233.981273 74.919381 
L 235.256397 74.04255 
L 236.70323 72.763996 
L 238.419089 70.935867 
L 240.289401 68.612966 
L 242.507979 65.480407 
L 244.247755 63.113972 
L 244.757068 62.750147 
L 244.94821 62.830775 
L 245.025683 63.147797 
L 244.932846 63.863403 
L 244.60388 65.557231 
L 244.634189 65.560949 
L 244.908772 65.452754 
L 245.487448 64.961063 
L 246.125068 64.120979 
L 246.642801 63.061448 
L 246.891807 62.126044 
L 246.67403 62.664034 
L 245.930757 64.604618 
L 245.881018 65.412682 
L 246.058258 66.281926 
L 246.390608 66.90616 
L 246.862305 67.278449 
L 247.953524 67.807165 
L 247.966101 67.769029 
L 247.918604 67.70336 
L 247.540507 67.473808 
L 246.956551 67.218254 
L 247.212838 67.461733 
L 247.677873 67.945653 
L 247.328244 67.422273 
L 247.125592 67.156755 
L 247.39903 67.714568 
L 247.839798 68.629548 
L 247.884228 68.529488 
L 247.98042 67.673027 
L 247.974976 66.336035 
L 247.778674 65.771498 
L 247.593671 65.730808 
L 247.389726 65.985544 
L 247.085177 66.789619 
L 246.729181 68.081177 
L 246.839824 67.99473 
L 247.46257 67.158917 
L 248.016562 66.146336 
L 248.154444 65.497309 
L 248.02592 65.231472 
L 247.783154 65.230997 
L 247.295434 65.495835 
L 244.313446 67.512931 
L 246.548652 66.144177 
L 247.569123 65.722237 
L 247.660093 65.840898 
L 247.496197 66.166939 
L 246.897624 66.81292 
L 245.961576 67.508372 
L 244.813762 68.089826 
L 243.58278 68.465006 
L 242.378256 68.612489 
L 241.16381 68.554077 
L 240.020702 68.287303 
L 239.126304 67.871818 
L 238.427852 67.299454 
L 238.013007 66.676863 
L 237.804965 65.975413 
L 237.803688 65.133507 
L 238.027653 64.283665 
L 238.45875 63.480671 
L 239.084977 62.786274 
L 239.800277 62.311505 
L 240.656643 62.006792 
L 241.621838 61.891622 
L 242.76992 61.987372 
L 243.908324 62.295434 
L 245.076206 62.83801 
L 246.143283 63.590449 
L 246.886256 64.39353 
L 247.197111 65.011357 
L 247.226528 65.48554 
L 247.028588 65.862526 
L 246.621157 66.125812 
L 245.940318 66.273044 
L 244.956713 66.24268 
L 243.682151 65.974283 
L 242.185535 65.424509 
L 240.723155 64.64854 
L 239.550424 63.794319 
L 238.743417 62.968782 
L 238.321617 62.253949 
L 238.236299 61.692151 
L 238.384411 61.288132 
L 238.716359 60.981191 
L 239.283018 60.757067 
L 240.10399 60.669768 
L 241.263842 60.786832 
L 242.567761 61.150628 
L 243.750077 61.712735 
L 244.538786 62.308949 
L 245.039056 62.934936 
L 245.305866 63.63737 
L 245.330474 64.315426 
L 245.127011 65.111643 
L 244.649931 65.98869 
L 243.960033 66.798657 
L 243.031518 67.539345 
L 242.022422 68.054844 
L 241.047879 68.301493 
L 240.302549 68.284576 
L 239.826423 68.076573 
L 239.589702 67.749718 
L 239.538668 67.307315 
L 239.70093 66.702919 
L 240.171533 65.877606 
L 240.995421 64.89933 
L 241.972958 64.069993 
L 242.830337 63.609258 
L 243.580213 63.449826 
L 244.198111 63.534407 
L 244.737224 63.82408 
L 245.223144 64.346365 
L 245.605662 65.082297 
L 245.846217 66.011924 
L 245.862863 66.930283 
L 245.678764 67.494081 
L 245.453807 67.629396 
L 245.285422 67.496853 
L 245.132208 67.074565 
L 245.064502 66.138844 
L 245.180663 63.987658 
L 245.429298 62.511607 
L 245.689599 62.101229 
L 245.888546 62.111903 
L 246.130085 62.376409 
L 246.375441 63.002537 
L 246.457615 63.794353 
L 246.318874 64.57974 
L 245.991195 65.164867 
L 245.589119 65.460052 
L 245.316489 65.423711 
L 245.228365 65.21172 
L 245.339321 64.932847 
L 245.710208 64.662421 
L 246.353141 64.490053 
L 247.16067 64.509536 
L 248.004065 64.750157 
L 248.540365 65.110781 
L 248.640888 65.398586 
L 248.497107 65.681748 
L 248.02478 66.042915 
L 246.94476 66.547557 
L 245.453546 67.002582 
L 243.848329 67.258872 
L 242.374639 67.278476 
L 241.239275 67.084239 
L 240.585958 66.754236 
L 240.322359 66.378123 
L 240.317565 65.983913 
L 240.543459 65.521406 
L 241.070447 64.992893 
L 241.808662 64.575306 
L 242.624215 64.375188 
L 243.452663 64.396893 
L 244.321818 64.627853 
L 245.244845 65.099823 
L 246.120499 65.80279 
L 246.822012 66.660283 
L 247.173453 67.401807 
L 247.210698 67.934942 
L 247.028675 68.217519 
L 246.656685 68.340074 
L 246.032621 68.27691 
L 245.026929 67.923438 
L 243.707462 67.221254 
L 242.051021 66.077587 
L 240.46149 64.702119 
L 239.333237 63.456118 
L 238.711067 62.474999 
L 238.515477 61.791413 
L 238.593613 61.314267 
L 238.885259 60.979481 
L 239.35623 60.792873 
L 240.049906 60.755926 
L 241.038022 60.931618 
L 242.160562 61.347057 
L 243.198875 61.946072 
L 243.980052 62.629071 
L 244.489391 63.348344 
L 244.750651 64.065682 
L 244.807314 64.830942 
L 244.658287 65.61182 
L 244.262358 66.447328 
L 243.64804 67.187211 
L 242.85482 67.770132 
L 241.934317 68.145396 
L 240.950168 68.286229 
L 239.977637 68.1877 
L 239.18072 67.89637 
L 238.524991 67.420924 
L 238.107961 66.858122 
L 237.873008 66.188254 
L 237.824471 65.348771 
L 238.014909 64.371017 
L 238.438549 63.420595 
L 239.005233 62.660044 
L 239.741978 62.059146 
L 240.536547 61.704356 
L 241.439506 61.543404 
L 242.523758 61.597707 
L 243.608209 61.876756 
L 244.731363 62.401535 
L 245.688905 63.079646 
L 246.465488 63.898538 
L 246.857025 64.618503 
L 246.919944 65.183915 
L 246.7451 65.587975 
L 246.366735 65.880032 
L 245.720287 66.059765 
L 244.772284 66.063365 
L 243.53153 65.826575 
L 242.063251 65.301 
L 240.618275 64.535182 
L 239.450643 63.67653 
L 238.638977 62.837498 
L 238.206557 62.105043 
L 238.108673 61.524833 
L 238.244857 61.10425 
L 238.565023 60.781855 
L 239.119004 60.542662 
L 239.927055 60.442608 
L 241.073974 60.550669 
L 242.369001 60.913069 
L 243.54969 61.482703 
L 244.343751 62.092107 
L 244.410782 62.159285 
L 244.410782 62.159285 
" style="fill:none;stroke:#d62728;stroke-linecap:square;stroke-opacity:0.7;stroke-width:1.5;"/>
   </g>
   <g id="line2d_23">
    <path clip-path="url(#p046c397f46)" d="M 107.355891 203.214459 
L 106.853698 203.021194 
L 103.145147 201.207743 
L 101.201918 200.011856 
L 100.194181 199.162064 
L 99.940032 198.71717 
L 100.028716 198.531514 
L 100.339325 198.453956 
L 101.049654 198.534044 
L 102.369298 198.927451 
L 104.44976 199.795159 
L 107.25563 201.215232 
L 109.65835 202.668447 
L 110.842001 203.600779 
L 111.1696 204.088377 
L 111.085917 204.299109 
L 110.758753 204.386954 
L 110.077669 204.310662 
L 108.971643 203.951781 
L 107.575383 203.265401 
L 106.164316 202.327712 
L 105.018129 201.295206 
L 104.288324 200.346365 
L 103.892463 199.459662 
L 103.798651 198.671153 
L 103.941487 198.002758 
L 104.29756 197.390305 
L 104.852346 196.859399 
L 105.677695 196.388907 
L 106.661873 196.079739 
L 107.742091 195.953977 
L 108.852241 196.026033 
L 109.924892 196.300482 
L 110.894396 196.771026 
L 111.69733 197.422938 
L 112.221897 198.138971 
L 112.528769 198.96646 
L 112.59725 199.765881 
L 112.436897 200.74222 
L 112.027501 201.754853 
L 111.38838 202.767032 
L 110.43213 203.85508 
L 109.278365 204.833171 
L 107.993911 205.647069 
L 106.654027 206.254317 
L 105.339441 206.629669 
L 104.131388 206.762899 
L 103.107298 206.654639 
L 102.408742 206.364158 
L 101.994573 205.971406 
L 101.783477 205.462967 
L 101.782891 204.855092 
L 102.035882 204.063093 
L 102.621724 203.086241 
L 103.595791 201.952277 
L 104.968493 200.729079 
L 106.537545 199.62676 
L 108.173549 198.742018 
L 109.607865 198.197459 
L 110.891514 197.940653 
L 111.84522 197.966089 
L 112.484886 198.190343 
L 112.85615 198.535896 
L 113.033732 199.012017 
L 113.008754 199.606715 
L 112.732922 200.411471 
L 112.124567 201.442617 
L 111.121853 202.690524 
L 109.701193 204.106509 
L 107.896078 205.588402 
L 105.97245 206.87308 
L 104.241223 207.766474 
L 102.807366 208.276443 
L 101.6086 208.469159 
L 100.880231 208.392199 
L 100.444953 208.162897 
L 100.217548 207.79316 
L 100.206472 207.296865 
L 100.45595 206.596214 
L 101.048922 205.67216 
L 102.159549 204.41118 
L 103.734712 202.968254 
L 105.840883 201.349407 
L 107.983629 199.975115 
L 109.778178 199.06877 
L 110.999274 198.669597 
L 111.721619 198.623242 
L 112.121846 198.793827 
L 112.272054 199.098258 
L 112.230491 199.536611 
L 111.89844 200.276179 
L 111.096514 201.403611 
L 109.680011 202.959911 
L 107.612529 204.889494 
L 105.047856 206.976365 
L 102.783611 208.542321 
L 101.293918 209.325249 
L 100.412592 209.554682 
L 100.040203 209.460137 
L 99.929745 209.245434 
L 100.014674 208.823753 
L 100.408111 208.135618 
L 101.45888 206.780284 
L 104.147618 203.717495 
L 113.204973 193.856528 
L 143.40167 161.245862 
L 169.86244 132.833818 
L 180.937977 120.595914 
L 191.205535 108.905839 
L 200.396142 98.083675 
L 208.306351 88.433765 
L 215.918618 78.785537 
L 227.032717 64.586922 
L 228.574567 63.02174 
L 229.435356 62.404933 
L 229.996424 62.220565 
L 230.438295 62.293149 
L 230.853529 62.624582 
L 231.35965 63.385515 
L 232.254928 64.751584 
L 232.934298 65.355134 
L 233.766879 65.763493 
L 234.722816 65.975855 
L 235.984246 66.005178 
L 237.451945 65.801971 
L 238.825712 65.393506 
L 239.529663 64.993858 
L 239.63362 64.737969 
L 239.460807 64.524184 
L 238.886108 64.251544 
L 237.437294 63.860719 
L 234.872408 63.418076 
L 232.195385 63.173479 
L 231.048944 63.214494 
L 231.101743 63.244959 
L 231.88574 63.336719 
L 235.96675 63.512197 
L 238.432995 63.718735 
L 238.59572 63.789881 
L 238.177591 63.765036 
L 235.01078 63.156888 
L 232.200904 62.76318 
L 231.32921 62.734776 
L 233.207942 62.958909 
L 237.296753 63.462935 
L 238.681719 63.815341 
L 239.186257 64.124027 
L 239.173312 64.307603 
L 238.861 64.441099 
L 237.966633 64.533242 
L 235.990301 64.47772 
L 233.207003 64.171206 
L 231.349929 63.778855 
L 230.864808 63.505606 
L 230.950307 63.382586 
L 231.459026 63.234836 
L 232.861598 63.093619 
L 235.174436 63.099337 
L 237.182844 63.304363 
L 238.185681 63.604373 
L 238.52107 63.889127 
L 238.459428 64.060916 
L 238.122616 64.210282 
L 237.22569 64.332579 
L 235.436097 64.330242 
L 233.154485 64.101093 
L 231.484822 63.727369 
L 230.876154 63.413007 
L 230.869632 63.250762 
L 231.142297 63.109951 
L 232.001455 62.960918 
L 233.725703 62.905908 
L 235.951468 63.046548 
L 237.587816 63.346103 
L 238.552041 63.736057 
L 238.906952 64.080015 
L 238.912968 64.347459 
L 238.670656 64.57516 
L 238.066375 64.772221 
L 236.996807 64.870426 
L 235.363287 64.788999 
L 233.476373 64.474185 
L 231.831806 63.979826 
L 230.928766 63.497518 
L 230.746938 63.194039 
L 230.873751 63.0297 
L 231.311227 62.886059 
L 232.29361 62.818925 
L 234.212052 62.939147 
L 236.547529 63.301814 
L 238.8777 63.888186 
L 240.64372 64.551848 
L 241.125912 64.919064 
L 241.058319 65.054531 
L 240.670484 65.14796 
L 239.740999 65.11622 
L 238.017792 64.820841 
L 235.077589 64.066634 
L 231.841 63.02148 
L 231.695069 62.908506 
L 231.779668 62.875018 
L 232.469314 62.895526 
L 238.510188 63.522123 
L 241.672926 63.906264 
L 240.252201 63.61067 
L 234.416459 62.524677 
L 232.270512 62.302193 
L 232.07524 62.382618 
L 232.089016 62.422333 
L 232.346021 62.60476 
L 233.385336 63.018417 
L 235.528227 63.622552 
L 238.02518 64.095806 
L 240.375532 64.322274 
L 242.307669 64.300384 
L 243.424429 64.102619 
L 243.496945 63.994297 
L 243.473055 63.966622 
L 243.150827 63.844005 
L 241.87005 63.659984 
L 238.199755 63.410109 
L 232.157581 62.967676 
L 230.371567 62.629283 
L 229.669902 62.313207 
L 229.453427 62.00023 
L 229.53228 61.685675 
L 229.923902 61.292579 
L 230.719108 60.832569 
L 232.125832 60.289685 
L 234.069238 59.781169 
L 236.446166 59.390324 
L 239.041463 59.196649 
L 241.363517 59.239331 
L 243.097029 59.480738 
L 243.912758 59.792566 
L 244.079639 60.045901 
L 243.958876 60.229257 
L 243.511358 60.422925 
L 242.480279 60.577634 
L 240.821625 60.582297 
L 238.779743 60.363986 
L 236.921997 59.951383 
L 235.583237 59.444828 
L 234.774846 58.927545 
L 234.357371 58.405461 
L 234.261039 57.918642 
L 234.391201 57.497456 
L 234.772581 57.049909 
L 235.465998 56.626117 
L 236.386795 56.322896 
L 237.597029 56.163198 
L 238.912673 56.218088 
L 240.238016 56.505896 
L 241.360223 56.97121 
L 242.34427 57.63218 
L 243.048708 58.379911 
L 243.497114 59.151433 
L 243.760991 60.023168 
L 243.818669 60.982906 
L 243.655653 62.014847 
L 243.266999 63.098842 
L 242.553994 64.369483 
L 241.577157 65.632112 
L 240.37353 66.837853 
L 238.991937 67.935559 
L 237.49082 68.876302 
L 235.935498 69.618974 
L 234.396347 70.135784 
L 232.944985 70.415137 
L 231.650203 70.45988 
L 230.57511 70.282381 
L 229.855902 69.959508 
L 229.369306 69.497956 
L 229.147314 69.008108 
L 229.117412 68.349087 
L 229.3256 67.623355 
L 229.831217 66.753221 
L 230.584231 65.888605 
L 231.665846 64.988337 
L 232.918679 64.235734 
L 234.256634 63.696461 
L 235.447024 63.434421 
L 236.577427 63.394978 
L 237.593047 63.583457 
L 238.347239 63.932326 
L 238.942141 64.444362 
L 239.347308 65.106608 
L 239.535154 65.900367 
L 239.485151 66.798162 
L 239.190402 67.762149 
L 238.662121 68.747238 
L 237.808667 69.839164 
L 236.74495 70.830172 
L 235.53726 71.658125 
L 234.25717 72.275632 
L 232.979225 72.657202 
L 231.777066 72.793529 
L 230.721112 72.68476 
L 229.967803 72.395256 
L 229.411134 71.936105 
L 229.109992 71.419596 
L 228.981352 70.80282 
L 229.053081 69.976287 
L 229.358995 69.059984 
L 229.978008 67.940728 
L 230.979332 66.646445 
L 232.244031 65.381251 
L 233.867383 64.087481 
L 235.614134 62.982688 
L 237.373049 62.122112 
L 239.0329 61.540361 
L 240.483335 61.250521 
L 241.620534 61.244418 
L 242.306116 61.456494 
L 242.615934 61.783933 
L 242.651986 62.144623 
L 242.439154 62.598707 
L 241.913553 63.103526 
L 241.140137 63.541405 
L 240.073898 63.897432 
L 238.773469 64.099138 
L 237.481812 64.089397 
L 236.343178 63.864069 
L 235.618117 63.521803 
L 235.178686 63.10721 
L 234.95676 62.604192 
L 234.960008 62.034242 
L 235.181392 61.424353 
L 235.666407 60.729596 
L 236.447867 60.004519 
L 237.413794 59.39687 
L 238.48335 58.976258 
L 239.464017 58.809694 
L 240.394787 58.877805 
L 241.129333 59.145148 
L 241.733528 59.604238 
L 242.124629 60.156095 
L 242.361458 60.839302 
L 242.421181 61.643986 
L 242.284096 62.558699 
L 241.869721 63.720312 
L 241.176635 64.978937 
L 240.080083 66.467382 
L 238.686799 67.976295 
L 237.055191 69.435602 
L 235.057986 70.906814 
L 232.992698 72.137755 
L 230.996582 73.055984 
L 229.371173 73.559733 
L 228.144003 73.722971 
L 227.290857 73.638089 
L 226.752347 73.397079 
L 226.408886 73.006267 
L 226.268553 72.475438 
L 226.331495 71.818912 
L 226.654055 70.919084 
L 227.332292 69.756867 
L 228.444992 68.34297 
L 230.016615 66.72281 
L 231.991443 64.99401 
L 234.401376 63.187922 
L 237.327375 61.299257 
L 239.436035 59.98002 
L 239.27266 59.99682 
L 237.374464 60.631367 
L 234.221188 61.577994 
L 232.000304 62.030909 
L 230.558812 62.12353 
L 229.784309 61.970592 
L 229.545604 61.725581 
L 229.579075 61.427877 
L 229.891653 61.010145 
L 230.666455 60.409162 
L 231.945361 59.708616 
L 233.728367 58.982113 
L 235.929101 58.337688 
L 238.190161 57.921838 
L 240.133212 57.780889 
L 241.753034 57.882084 
L 242.730064 58.140157 
L 243.245933 58.486138 
L 243.389581 58.809078 
L 243.312216 59.157608 
L 242.973884 59.55926 
L 242.313417 59.978333 
L 241.297487 60.361428 
L 239.942171 60.644791 
L 238.335399 60.760854 
L 237.669111 60.745895 
L 237.669111 60.745895 
" style="fill:none;stroke:#9467bd;stroke-linecap:square;stroke-opacity:0.7;stroke-width:1.5;"/>
   </g>
   <g id="line2d_24">
    <path clip-path="url(#p046c397f46)" d="M 107.355891 203.214459 
L 110.780939 208.015033 
L 112.117521 209.315887 
L 113.176379 210.063595 
L 113.95432 210.368144 
L 114.509539 210.359662 
L 114.867865 210.154093 
L 115.120808 209.770996 
L 115.260214 209.155021 
L 115.224577 208.287287 
L 114.951359 207.185982 
L 114.392623 205.92125 
L 113.668688 204.804764 
L 112.79175 203.8562 
L 111.982052 203.276974 
L 111.1382 202.948461 
L 110.383637 202.887987 
L 109.667443 203.04836 
L 109.021666 203.416018 
L 108.476641 203.967837 
L 108.023215 204.757685 
L 107.762343 205.68247 
L 107.716381 206.684875 
L 107.885902 207.705118 
L 108.254918 208.68133 
L 108.800034 209.550067 
L 109.489548 210.24852 
L 110.201273 210.682888 
L 110.965736 210.89728 
L 111.746496 210.87386 
L 112.504379 210.613464 
L 113.199775 210.130011 
L 113.794929 209.447955 
L 114.256274 208.601617 
L 114.580635 207.520261 
L 114.687472 206.354688 
L 114.572755 205.177323 
L 114.246437 204.064679 
L 113.72879 203.094698 
L 113.122392 202.406028 
L 112.410319 201.937743 
L 111.714814 201.72559 
L 110.894034 201.721756 
L 110.066897 201.960619 
L 109.268501 202.424319 
L 108.456612 203.166278 
L 107.766901 204.0939 
L 107.240311 205.145559 
L 106.912734 206.256101 
L 106.807971 207.357885 
L 106.926572 208.382539 
L 107.25273 209.261849 
L 107.704814 209.874065 
L 108.281903 210.272754 
L 108.874491 210.424795 
L 109.515833 210.378641 
L 110.261373 210.094511 
L 110.992951 209.580929 
L 111.739686 208.77575 
L 112.365546 207.776325 
L 112.825317 206.649504 
L 113.086901 205.470833 
L 113.132898 204.321746 
L 112.959371 203.286333 
L 112.622025 202.519374 
L 112.128968 201.959072 
L 111.580427 201.656591 
L 110.951428 201.545294 
L 110.178094 201.648203 
L 109.370018 201.982662 
L 108.476192 202.598614 
L 107.555754 203.520228 
L 106.763499 204.625187 
L 106.159693 205.832455 
L 105.79857 207.056849 
L 105.713413 208.110508 
L 105.862656 209.038856 
L 106.184375 209.713302 
L 106.666097 210.189514 
L 107.208179 210.419298 
L 107.833748 210.454507 
L 108.605475 210.262228 
L 109.501515 209.77809 
L 110.3838 209.044594 
L 111.269556 208.011032 
L 111.993733 206.822026 
L 112.491834 205.574332 
L 112.710796 204.477647 
L 112.689703 203.501083 
L 112.465162 202.789281 
L 112.112472 202.326958 
L 111.633693 202.042796 
L 111.051921 201.942646 
L 110.306812 202.04927 
L 109.412642 202.428321 
L 108.502785 203.052938 
L 107.55083 203.970631 
L 106.720488 205.060356 
L 106.080327 206.244176 
L 105.691584 207.439695 
L 105.58854 208.465007 
L 105.724397 209.365633 
L 106.039301 210.017507 
L 106.458671 210.434885 
L 106.989957 210.675146 
L 107.609633 210.724847 
L 108.379978 210.550818 
L 109.189689 210.144245 
L 110.085175 209.447034 
L 110.928548 208.52255 
L 112.030586 206.932745 
L 115.639733 201.585344 
L 125.594795 187.521179 
L 160.636423 138.141235 
L 170.280611 125.043113 
L 178.825372 113.803007 
L 186.120195 104.56737 
L 192.993196 96.243182 
L 198.579997 89.803153 
L 203.709594 84.207295 
L 208.337803 79.488774 
L 211.881953 76.152748 
L 215.024457 73.466545 
L 217.764292 71.413719 
L 219.745316 70.165723 
L 221.460801 69.312148 
L 222.923053 68.821774 
L 224.146971 68.658948 
L 225.148804 68.785608 
L 225.802195 69.068413 
L 226.449154 69.614757 
L 226.924334 70.338403 
L 227.29302 71.385954 
L 227.470053 72.566167 
L 227.471633 74.022241 
L 227.253514 75.660617 
L 226.803691 77.29416 
L 226.17386 78.699375 
L 225.449833 79.756947 
L 224.964481 80.135332 
L 224.841452 80.038071 
L 224.897112 79.695456 
L 225.31474 78.803678 
L 226.201132 77.466435 
L 227.4762 75.943804 
L 229.1086 74.342103 
L 230.867585 72.935164 
L 232.304946 72.054652 
L 233.099524 71.788091 
L 233.389837 71.88171 
L 233.428661 72.135471 
L 233.220636 72.610584 
L 232.649634 73.309592 
L 231.874204 73.923999 
L 231.55927 73.957743 
L 231.453349 73.740103 
L 231.420878 73.057292 
L 231.589133 71.732696 
L 231.737189 71.371766 
L 231.771112 71.444786 
L 231.778211 72.094291 
L 231.591056 73.346802 
L 231.432523 73.834243 
L 231.790042 73.004286 
L 231.985541 72.267924 
L 231.957433 72.272764 
L 231.64054 72.579631 
L 231.292252 73.112992 
L 231.357503 73.438329 
L 231.59421 73.620604 
L 231.87361 73.554495 
L 232.158012 73.264434 
L 232.105521 73.055153 
L 231.712146 72.673827 
L 231.385445 72.614113 
L 231.078203 72.797067 
L 231.015354 73.043182 
L 231.238243 73.385998 
L 231.741648 73.79523 
L 231.952552 73.777565 
L 231.930005 73.741487 
L 231.224383 73.151698 
L 231.064516 72.637542 
L 231.156693 72.273446 
L 231.430072 72.068504 
L 231.788814 72.077727 
L 232.075695 72.305179 
L 232.235566 72.721098 
L 232.227173 73.31506 
L 232.00474 73.863302 
L 231.778778 73.98203 
L 231.650254 73.818196 
L 231.599156 73.322536 
L 231.740744 72.300251 
L 232.032227 71.328156 
L 232.019038 71.549131 
L 231.755151 73.439325 
L 231.815592 73.522501 
L 231.871269 73.445588 
L 232.074479 72.691442 
L 232.084746 72.073302 
L 231.913003 71.932802 
L 231.706551 72.072223 
L 231.28667 72.718934 
L 230.938117 73.556306 
L 231.08206 73.65523 
L 231.473081 73.586664 
L 232.097321 73.248739 
L 232.59892 72.740895 
L 232.584439 72.680586 
L 232.51594 72.677339 
L 231.411085 72.663143 
L 231.252616 72.526022 
L 231.273446 72.498678 
L 231.545829 72.405638 
L 232.139244 72.417618 
L 232.488494 72.617063 
L 232.65044 72.957316 
L 232.578316 73.278157 
L 232.361679 73.376867 
L 232.0588 73.238966 
L 231.654863 72.798565 
L 231.412293 72.22947 
L 231.441359 71.912802 
L 231.460352 71.913489 
L 231.617435 72.065097 
L 231.952255 72.739008 
L 232.044441 73.345613 
L 231.911109 73.812143 
L 231.651975 74.028238 
L 231.44349 73.962184 
L 231.292262 73.663627 
L 231.275136 73.114987 
L 231.48617 72.4363 
L 231.902096 71.82492 
L 232.259937 71.608075 
L 232.422028 71.717817 
L 232.475106 72.062928 
L 232.333534 72.721473 
L 231.988828 73.344013 
L 231.814262 73.430502 
L 231.795942 73.38844 
L 231.847879 72.997727 
L 232.219519 71.662316 
L 231.949108 72.06007 
L 231.159063 73.5815 
L 231.292258 73.466599 
L 231.938959 72.841577 
L 232.11637 72.467436 
L 232.076484 72.460609 
L 231.396646 72.628036 
L 231.225959 72.79667 
L 231.346259 72.966189 
L 231.983791 73.429102 
L 231.934393 73.450158 
L 231.723922 73.305705 
L 231.116806 72.651848 
L 231.246226 72.560628 
L 231.594342 72.678442 
L 232.030301 73.026646 
L 232.039208 73.296549 
L 231.833996 73.507324 
L 231.570946 73.495578 
L 231.348982 73.26042 
L 231.276267 72.879919 
L 231.425636 72.503005 
L 231.748713 72.251603 
L 231.940802 72.317773 
L 232.040494 72.626087 
L 231.964835 73.162769 
L 231.737226 73.481468 
L 231.583054 73.431925 
L 231.479547 73.104908 
L 231.489039 72.650577 
L 231.489039 72.650577 
" style="fill:none;stroke:#bcbd22;stroke-linecap:square;stroke-opacity:0.7;stroke-width:1.5;"/>
   </g>
   <g id="line2d_25">
    <path clip-path="url(#p046c397f46)" d="M 107.355891 203.214459 
L 108.395015 205.590998 
L 108.751981 207.021152 
L 108.842762 208.278526 
L 108.710445 209.411906 
L 108.33787 210.572002 
L 107.704353 211.750288 
L 106.730956 213.053517 
L 105.184658 214.724969 
L 99.874942 220.223836 
L 98.995846 221.504315 
L 98.699689 222.260601 
L 98.722986 222.685074 
L 98.921126 222.909138 
L 99.319728 222.986238 
L 99.940034 222.836736 
L 100.787652 222.366828 
L 101.879175 221.470598 
L 103.392435 219.91206 
L 105.531879 217.371222 
L 107.432952 214.791011 
L 109.105416 212.1479 
L 110.566721 209.406736 
L 112.24044 205.757182 
L 112.173561 205.592712 
L 112.153746 205.592438 
L 111.875427 205.717967 
L 111.170387 206.321227 
L 110.356624 207.29508 
L 109.597636 208.572855 
L 108.629945 210.728535 
L 107.973471 212.535905 
L 108.131304 212.529445 
L 108.572548 212.227224 
L 109.314427 211.41789 
L 110.123602 210.198824 
L 112.590187 205.751926 
L 112.572858 205.745271 
L 112.40884 205.837812 
L 112.023845 206.348138 
L 111.277617 207.854147 
L 110.393255 209.408355 
L 109.107509 211.422304 
L 109.229868 211.365855 
L 109.559366 210.90828 
L 111.153052 208.290643 
L 111.978828 207.088974 
L 111.701294 207.763932 
L 111.230756 208.769097 
L 110.458866 209.817331 
L 109.599137 211.009892 
L 109.617666 211.032686 
L 109.703378 210.935874 
L 110.706342 209.34994 
L 111.4938 208.347689 
L 111.420706 208.721989 
L 111.178338 209.300961 
L 110.735534 209.94028 
L 110.879659 209.926268 
L 111.66949 209.569842 
L 113.400926 208.565674 
L 115.799743 206.934992 
L 119.026583 204.455486 
L 122.420386 201.587061 
L 126.352927 198.000155 
L 131.566597 192.904928 
L 137.392663 186.878417 
L 144.716303 178.961225 
L 153.664036 168.930893 
L 164.239726 156.710227 
L 175.133235 143.787416 
L 188.069412 128.080154 
L 210.242052 100.694677 
L 232.004452 73.698718 
L 236.511187 67.694889 
L 239.420424 63.460649 
L 240.30566 61.908144 
L 240.261356 61.935995 
L 239.721154 62.69763 
L 238.048777 65.471142 
L 235.886711 69.468831 
L 234.245327 72.949654 
L 233.278589 75.452067 
L 232.708632 77.468831 
L 232.446439 79.211016 
L 232.462723 80.469252 
L 232.684267 81.454451 
L 233.078209 82.148915 
L 233.525138 82.499941 
L 234.049374 82.614218 
L 234.632458 82.483068 
L 235.262428 82.101225 
L 236.051719 81.335405 
L 237.030065 80.039412 
L 238.380577 77.814962 
L 240.356201 74.047758 
L 242.830611 68.821501 
L 245.589458 62.464136 
L 248.028253 56.30069 
L 250.017756 50.678867 
L 250.183874 50.005029 
L 250.074542 50.152173 
L 249.302457 51.750873 
L 247.496306 56.017806 
L 244.272859 64.254282 
L 243.243973 67.37596 
L 242.885305 69.119685 
L 242.925387 69.792139 
L 243.079067 69.81759 
L 243.308068 69.531148 
L 243.727103 68.604509 
L 244.431693 66.395858 
L 247.524083 55.838811 
L 248.842044 52.463965 
L 249.858924 50.397518 
L 250.271904 49.935704 
L 250.313409 50.082155 
L 250.181718 50.789466 
L 249.409881 53.346278 
L 247.360566 59.371638 
L 245.608903 63.856334 
L 244.070464 67.188393 
L 242.710709 69.612064 
L 241.857894 70.741445 
L 241.701977 70.781167 
L 241.686022 70.736589 
L 241.737039 70.320256 
L 242.275767 68.467895 
L 245.797213 57.458598 
L 246.722137 55.479961 
L 247.365883 54.529735 
L 247.606115 54.436574 
L 247.68688 54.651101 
L 247.640045 55.361323 
L 247.257632 57.156646 
L 244.176045 69.147197 
L 243.72004 70.077508 
L 243.684389 70.029908 
L 243.684787 69.972223 
L 243.847191 69.270512 
L 244.934483 65.972817 
L 247.074906 59.305637 
L 248.796414 54.009534 
L 249.08544 53.502311 
L 249.081472 53.627106 
L 248.769044 54.633886 
L 247.693911 57.344026 
L 243.708836 66.931375 
L 242.714641 70.024026 
L 243.151316 68.928873 
L 245.102902 64.783906 
L 247.58531 59.306692 
L 249.078025 55.768785 
L 246.675196 61.200393 
L 242.648866 69.212796 
L 242.081605 71.00759 
L 242.083884 71.04266 
L 242.201288 70.824282 
L 243.961772 67.229501 
L 246.781893 61.56422 
L 248.007276 58.603982 
L 248.195609 58.025261 
L 247.761609 58.969697 
L 246.124652 62.17158 
L 242.400618 69.275022 
L 242.126407 70.36264 
L 242.192301 70.616938 
L 242.218403 70.609277 
L 242.406184 70.378515 
L 243.058999 69.062997 
L 244.695648 65.873929 
L 247.819621 59.914988 
L 248.111372 59.158628 
L 247.263868 60.895169 
L 245.44936 64.346577 
L 243.211831 68.126841 
L 240.987713 71.897826 
L 240.995257 71.93841 
L 241.085234 71.861716 
L 241.488629 71.166605 
L 242.41094 69.056217 
L 244.353414 64.589294 
L 246.090355 61.249086 
L 247.779985 58.428002 
L 248.211555 57.961499 
L 248.22516 57.98131 
L 248.183042 58.278834 
L 247.614599 59.97843 
L 245.97903 64.269243 
L 244.526227 67.502431 
L 243.13191 70.071414 
L 242.070881 71.609792 
L 241.835849 71.781227 
L 241.820016 71.733708 
L 241.926429 71.255715 
L 244.948594 61.702504 
L 246.00849 58.974061 
L 247.037008 56.917261 
L 247.644411 56.101271 
L 247.760215 56.134524 
L 247.768904 56.158583 
L 247.759829 56.580554 
L 247.43385 58.009795 
L 245.389028 65.198907 
L 244.297598 68.413579 
L 243.432981 70.304614 
L 242.925934 70.988017 
L 242.835231 70.955829 
L 242.829043 70.930966 
L 242.875002 70.535 
L 243.372874 68.915328 
L 246.228958 60.139542 
L 247.759772 55.46522 
L 248.321111 54.356526 
L 248.337675 54.43716 
L 248.333241 54.468043 
L 248.051522 55.406971 
L 247.002344 58.074211 
L 244.480159 64.36624 
L 243.098976 68.687405 
L 242.633921 70.06485 
L 243.070444 69.104365 
L 246.201315 62.409487 
L 247.434004 59.159036 
L 248.343553 56.150729 
L 248.444803 55.560897 
L 248.352693 55.661913 
L 247.601577 57.028449 
L 244.178317 63.732184 
L 242.98846 66.480167 
L 242.270283 68.706918 
L 241.882014 70.641223 
L 241.889376 71.464796 
L 241.99854 71.425744 
L 242.32527 70.92549 
L 244.181911 67.398148 
L 246.072005 63.421114 
L 247.370043 60.190977 
L 248.238769 57.463012 
L 248.546228 55.8727 
L 248.51063 55.868726 
L 248.466025 55.919284 
L 248.045214 56.715566 
L 242.512053 68.357049 
L 241.959634 70.12138 
L 241.912056 70.540244 
L 242.031152 70.317486 
L 243.776246 66.321766 
L 246.390627 61.282596 
L 248.347429 57.73017 
L 248.350478 57.81615 
L 248.107944 58.69675 
L 247.245299 61.007553 
L 245.727831 64.404001 
L 243.953618 67.830931 
L 241.805541 71.462589 
L 241.526233 71.911329 
L 241.526233 71.911329 
" style="fill:none;stroke:#2ca02c;stroke-linecap:square;stroke-opacity:0.7;stroke-width:1.5;"/>
   </g>
   <g id="line2d_26">
    <path clip-path="url(#p046c397f46)" d="M 107.355891 203.214459 
L 108.354696 203.369275 
L 110.457522 203.881869 
L 115.157441 205.120656 
L 113.734092 204.931169 
L 111.109667 204.789469 
L 110.364958 204.835372 
L 110.627826 204.897353 
L 112.016454 204.954052 
L 113.636147 204.813163 
L 114.594755 204.536026 
L 114.875086 204.278335 
L 114.81192 204.080815 
L 114.448926 203.871899 
L 113.554369 203.663441 
L 112.014684 203.553403 
L 110.642503 203.564444 
L 110.949307 203.433071 
L 112.321321 202.770651 
L 113.61412 201.950467 
L 113.016257 202.252772 
L 110.15935 203.690686 
L 110.157853 203.687556 
L 110.247592 203.589808 
L 110.92557 203.204937 
L 112.144451 202.757884 
L 112.97691 202.655498 
L 113.364782 202.801407 
L 113.491435 203.062741 
L 113.422361 203.482148 
L 113.076904 204.07409 
L 112.456324 204.688622 
L 111.944083 204.93092 
L 111.869676 204.801831 
L 112.011207 204.399694 
L 112.482625 203.737116 
L 113.043058 203.304443 
L 113.308224 203.31065 
L 113.352761 203.51693 
L 113.191838 203.936787 
L 112.702984 204.557187 
L 111.906932 205.192106 
L 110.963613 205.656079 
L 110.041575 205.860292 
L 109.3335 205.800339 
L 108.885618 205.560487 
L 108.649258 205.20167 
L 108.594476 204.742238 
L 108.768861 204.21618 
L 109.346827 203.341513 
L 110.92656 201.431299 
L 113.909842 198.191287 
L 119.125976 192.878412 
L 130.55968 181.633512 
L 147.49397 164.907697 
L 158.524936 153.690412 
L 168.596528 143.117802 
L 177.356379 133.592256 
L 184.67538 125.333923 
L 191.521203 117.292743 
L 197.774578 109.597776 
L 203.343351 102.364081 
L 207.521547 96.606052 
L 211.122797 91.310237 
L 214.13542 86.51507 
L 216.561011 82.24568 
L 218.413341 78.514209 
L 219.536044 75.816362 
L 220.295781 73.487216 
L 220.715629 71.515359 
L 220.82296 69.883007 
L 220.704914 68.805718 
L 220.424724 67.916624 
L 220.001451 67.200818 
L 219.455273 66.642909 
L 218.631582 66.144333 
L 217.690251 65.840072 
L 216.466987 65.691058 
L 215.00794 65.754514 
L 213.44255 66.053669 
L 211.99202 66.562161 
L 210.996368 67.137625 
L 210.521623 67.628864 
L 210.420475 67.994184 
L 210.564914 68.233899 
L 211.00128 68.413291 
L 211.850034 68.477905 
L 213.420308 68.344444 
L 215.727916 67.9155 
L 218.756768 67.106208 
L 222.069541 65.982035 
L 225.114843 64.728916 
L 227.95838 63.315198 
L 230.451128 61.812449 
L 232.490641 60.322877 
L 234.017705 58.953948 
L 235.008896 57.799372 
L 235.475967 56.936328 
L 235.504039 56.487244 
L 235.334085 56.30235 
L 234.963857 56.251087 
L 234.135063 56.419801 
L 231.57664 57.283637 
L 230.614573 57.572281 
L 230.737682 57.462945 
L 232.020872 56.437505 
L 233.790339 54.958852 
L 234.916881 54.330039 
L 235.806063 54.070712 
L 236.450881 54.091523 
L 236.660999 54.268841 
L 236.501951 54.421144 
L 235.847822 54.655082 
L 234.94497 54.815577 
L 234.596218 54.630465 
L 234.525347 54.375696 
L 234.700486 54.107038 
L 235.193725 53.804972 
L 236.555027 53.211107 
L 236.552125 53.340521 
L 236.365706 53.647774 
L 235.977424 53.861376 
L 235.562254 53.899717 
L 235.576277 53.870764 
L 235.903207 53.465505 
L 236.078335 53.166652 
L 236.286301 53.196129 
L 236.4805 53.437363 
L 236.405301 53.612555 
L 236.381063 53.777023 
L 236.332113 53.838833 
L 236.273533 53.825544 
L 236.076505 53.623241 
L 236.160546 53.448491 
L 236.362029 53.184577 
L 236.3228 53.117872 
L 236.450045 53.545485 
L 236.328394 53.672054 
L 236.534352 53.662462 
L 236.554378 53.65227 
L 236.505389 53.555372 
L 236.410557 53.201956 
L 236.537495 53.23815 
L 236.521285 53.266015 
L 236.537251 53.419122 
L 236.495844 53.430603 
L 236.371895 53.381661 
L 236.568227 53.350677 
L 236.555665 53.319921 
L 236.411574 53.067208 
L 236.51734 53.472603 
L 236.469862 53.521403 
L 236.611787 53.531737 
L 236.729435 53.53557 
L 236.679614 53.430797 
L 236.502986 53.077181 
L 236.509655 53.370878 
L 236.502491 53.382913 
L 236.632314 53.408904 
L 236.785271 53.453618 
L 236.694068 53.3164 
L 236.564939 53.068399 
L 236.551205 53.30936 
L 236.524344 53.315066 
L 236.782904 53.371969 
L 236.800945 53.371546 
L 236.713016 53.239399 
L 236.605205 53.029696 
L 236.618942 53.294929 
L 236.560815 53.310398 
L 236.784608 53.355286 
L 236.827657 53.364109 
L 236.740553 53.224763 
L 236.638208 53.007245 
L 236.639288 53.269826 
L 236.592804 53.281148 
L 236.817325 53.337108 
L 236.846406 53.343779 
L 236.744257 53.190947 
L 236.658587 52.992154 
L 236.71912 53.222324 
L 236.650099 53.247137 
L 236.61581 53.25308 
L 236.854954 53.321464 
L 236.860293 53.320622 
L 236.769552 53.190206 
L 236.674248 52.979047 
L 236.663165 53.230726 
L 236.632008 53.234645 
L 236.870824 53.303021 
L 236.73117 53.110264 
L 236.686231 52.968884 
L 236.75048 53.196688 
L 236.671348 53.220295 
L 236.643677 53.223126 
L 236.878812 53.292833 
L 236.738787 53.102027 
L 236.694661 52.961758 
L 236.759143 53.189446 
L 236.679576 53.212655 
L 236.651491 53.21526 
L 236.884477 53.285911 
L 236.744036 53.096379 
L 236.70014 52.956863 
L 236.764311 53.184774 
L 236.688816 53.207291 
L 236.656226 53.210335 
L 236.888294 53.281434 
L 236.747548 53.092631 
L 236.703544 52.953623 
L 236.792812 53.043657 
" style="fill:none;stroke:#17becf;stroke-linecap:square;stroke-opacity:0.7;stroke-width:1.5;"/>
   </g>
   <g id="line2d_27">
    <path clip-path="url(#p046c397f46)" d="M 107.355891 203.214459 
L 233.435092 67.655953 
L 233.435092 67.655953 
" style="fill:none;stroke:#000000;stroke-dasharray:5.55,2.4;stroke-dashoffset:0;stroke-opacity:0.595;stroke-width:1.5;"/>
   </g>
   <g id="patch_3">
    <path d="M 91.1 231.64 
L 91.1 41.28 
" style="fill:none;stroke:#000000;stroke-linecap:square;stroke-linejoin:miter;stroke-width:0.8;"/>
   </g>
   <g id="patch_4">
    <path d="M 257.895 231.64 
L 257.895 41.28 
" style="fill:none;stroke:#000000;stroke-linecap:square;stroke-linejoin:miter;stroke-width:0.8;"/>
   </g>
   <g id="patch_5">
    <path d="M 91.1 231.64 
L 257.895 231.64 
" style="fill:none;stroke:#000000;stroke-linecap:square;stroke-linejoin:miter;stroke-width:0.8;"/>
   </g>
   <g id="patch_6">
    <path d="M 91.1 41.28 
L 257.895 41.28 
" style="fill:none;stroke:#000000;stroke-linecap:square;stroke-linejoin:miter;stroke-width:0.8;"/>
   </g>
   <g id="text_13">
    <!-- Plano xy -->
    <g transform="translate(149.052812 35.28)scale(0.12 -0.12)">
     <defs>
      <path d="M 1259 4147 
L 1259 2394 
L 2053 2394 
Q 2494 2394 2734 2622 
Q 2975 2850 2975 3272 
Q 2975 3691 2734 3919 
Q 2494 4147 2053 4147 
L 1259 4147 
z
M 628 4666 
L 2053 4666 
Q 2838 4666 3239 4311 
Q 3641 3956 3641 3272 
Q 3641 2581 3239 2228 
Q 2838 1875 2053 1875 
L 1259 1875 
L 1259 0 
L 628 0 
L 628 4666 
z
" id="DejaVuSans-50" transform="scale(0.015625)"/>
      <path d="M 603 4863 
L 1178 4863 
L 1178 0 
L 603 0 
L 603 4863 
z
" id="DejaVuSans-6c" transform="scale(0.015625)"/>
      <path d="M 2194 1759 
Q 1497 1759 1228 1600 
Q 959 1441 959 1056 
Q 959 750 1161 570 
Q 1363 391 1709 391 
Q 2188 391 2477 730 
Q 2766 1069 2766 1631 
L 2766 1759 
L 2194 1759 
z
M 3341 1997 
L 3341 0 
L 2766 0 
L 2766 531 
Q 2569 213 2275 61 
Q 1981 -91 1556 -91 
Q 1019 -91 701 211 
Q 384 513 384 1019 
Q 384 1609 779 1909 
Q 1175 2209 1959 2209 
L 2766 2209 
L 2766 2266 
Q 2766 2663 2505 2880 
Q 2244 3097 1772 3097 
Q 1472 3097 1187 3025 
Q 903 2953 641 2809 
L 641 3341 
Q 956 3463 1253 3523 
Q 1550 3584 1831 3584 
Q 2591 3584 2966 3190 
Q 3341 2797 3341 1997 
z
" id="DejaVuSans-61" transform="scale(0.015625)"/>
      <path d="M 3513 2113 
L 3513 0 
L 2938 0 
L 2938 2094 
Q 2938 2591 2744 2837 
Q 2550 3084 2163 3084 
Q 1697 3084 1428 2787 
Q 1159 2491 1159 1978 
L 1159 0 
L 581 0 
L 581 3500 
L 1159 3500 
L 1159 2956 
Q 1366 3272 1645 3428 
Q 1925 3584 2291 3584 
Q 2894 3584 3203 3211 
Q 3513 2838 3513 2113 
z
" id="DejaVuSans-6e" transform="scale(0.015625)"/>
      <path d="M 1959 3097 
Q 1497 3097 1228 2736 
Q 959 2375 959 1747 
Q 959 1119 1226 758 
Q 1494 397 1959 397 
Q 2419 397 2687 759 
Q 2956 1122 2956 1747 
Q 2956 2369 2687 2733 
Q 2419 3097 1959 3097 
z
M 1959 3584 
Q 2709 3584 3137 3096 
Q 3566 2609 3566 1747 
Q 3566 888 3137 398 
Q 2709 -91 1959 -91 
Q 1206 -91 779 398 
Q 353 888 353 1747 
Q 353 2609 779 3096 
Q 1206 3584 1959 3584 
z
" id="DejaVuSans-6f" transform="scale(0.015625)"/>
     </defs>
     <use xlink:href="#DejaVuSans-50"/>
     <use x="60.302734" xlink:href="#DejaVuSans-6c"/>
     <use x="88.085938" xlink:href="#DejaVuSans-61"/>
     <use x="149.365234" xlink:href="#DejaVuSans-6e"/>
     <use x="212.744141" xlink:href="#DejaVuSans-6f"/>
     <use x="273.925781" xlink:href="#DejaVuSans-20"/>
     <use x="305.712891" xlink:href="#DejaVuSans-78"/>
     <use x="364.892578" xlink:href="#DejaVuSans-79"/>
    </g>
   </g>
  </g>
  <g id="axes_2">
   <g id="patch_7">
    <path d="M 312.005 231.64 
L 478.8 231.64 
L 478.8 41.28 
L 312.005 41.28 
z
" style="fill:#ffffff;"/>
   </g>
   <g id="matplotlib.axis_3">
    <g id="xtick_4">
     <g id="line2d_28">
      <path clip-path="url(#p316e1b812e)" d="M 319.586591 231.64 
L 319.586591 41.28 
" style="fill:none;stroke:#b0b0b0;stroke-linecap:square;stroke-width:0.8;"/>
     </g>
     <g id="line2d_29">
      <g>
       <use style="stroke:#000000;stroke-width:0.8;" x="319.586591" xlink:href="#mb6cbeeb1d9" y="231.64"/>
      </g>
     </g>
     <g id="text_14">
      <!-- 0 -->
      <g transform="translate(316.405341 246.238438)scale(0.1 -0.1)">
       <use xlink:href="#DejaVuSans-30"/>
      </g>
     </g>
    </g>
    <g id="xtick_5">
     <g id="line2d_30">
      <path clip-path="url(#p316e1b812e)" d="M 357.502445 231.64 
L 357.502445 41.28 
" style="fill:none;stroke:#b0b0b0;stroke-linecap:square;stroke-width:0.8;"/>
     </g>
     <g id="line2d_31">
      <g>
       <use style="stroke:#000000;stroke-width:0.8;" x="357.502445" xlink:href="#mb6cbeeb1d9" y="231.64"/>
      </g>
     </g>
     <g id="text_15">
      <!-- 5 -->
      <g transform="translate(354.321195 246.238438)scale(0.1 -0.1)">
       <use xlink:href="#DejaVuSans-35"/>
      </g>
     </g>
    </g>
    <g id="xtick_6">
     <g id="line2d_32">
      <path clip-path="url(#p316e1b812e)" d="M 395.418298 231.64 
L 395.418298 41.28 
" style="fill:none;stroke:#b0b0b0;stroke-linecap:square;stroke-width:0.8;"/>
     </g>
     <g id="line2d_33">
      <g>
       <use style="stroke:#000000;stroke-width:0.8;" x="395.418298" xlink:href="#mb6cbeeb1d9" y="231.64"/>
      </g>
     </g>
     <g id="text_16">
      <!-- 10 -->
      <g transform="translate(389.055798 246.238438)scale(0.1 -0.1)">
       <use xlink:href="#DejaVuSans-31"/>
       <use x="63.623047" xlink:href="#DejaVuSans-30"/>
      </g>
     </g>
    </g>
    <g id="xtick_7">
     <g id="line2d_34">
      <path clip-path="url(#p316e1b812e)" d="M 433.334152 231.64 
L 433.334152 41.28 
" style="fill:none;stroke:#b0b0b0;stroke-linecap:square;stroke-width:0.8;"/>
     </g>
     <g id="line2d_35">
      <g>
       <use style="stroke:#000000;stroke-width:0.8;" x="433.334152" xlink:href="#mb6cbeeb1d9" y="231.64"/>
      </g>
     </g>
     <g id="text_17">
      <!-- 15 -->
      <g transform="translate(426.971652 246.238438)scale(0.1 -0.1)">
       <use xlink:href="#DejaVuSans-31"/>
       <use x="63.623047" xlink:href="#DejaVuSans-35"/>
      </g>
     </g>
    </g>
    <g id="xtick_8">
     <g id="line2d_36">
      <path clip-path="url(#p316e1b812e)" d="M 471.250006 231.64 
L 471.250006 41.28 
" style="fill:none;stroke:#b0b0b0;stroke-linecap:square;stroke-width:0.8;"/>
     </g>
     <g id="line2d_37">
      <g>
       <use style="stroke:#000000;stroke-width:0.8;" x="471.250006" xlink:href="#mb6cbeeb1d9" y="231.64"/>
      </g>
     </g>
     <g id="text_18">
      <!-- 20 -->
      <g transform="translate(464.887506 246.238438)scale(0.1 -0.1)">
       <use xlink:href="#DejaVuSans-32"/>
       <use x="63.623047" xlink:href="#DejaVuSans-30"/>
      </g>
     </g>
    </g>
    <g id="text_19">
     <!-- Tiempo (s) -->
     <g transform="translate(368.84 259.916562)scale(0.1 -0.1)">
      <defs>
       <path d="M -19 4666 
L 3928 4666 
L 3928 4134 
L 2272 4134 
L 2272 0 
L 1638 0 
L 1638 4134 
L -19 4134 
L -19 4666 
z
" id="DejaVuSans-54" transform="scale(0.015625)"/>
       <path d="M 603 3500 
L 1178 3500 
L 1178 0 
L 603 0 
L 603 3500 
z
M 603 4863 
L 1178 4863 
L 1178 4134 
L 603 4134 
L 603 4863 
z
" id="DejaVuSans-69" transform="scale(0.015625)"/>
       <path d="M 3597 1894 
L 3597 1613 
L 953 1613 
Q 991 1019 1311 708 
Q 1631 397 2203 397 
Q 2534 397 2845 478 
Q 3156 559 3463 722 
L 3463 178 
Q 3153 47 2828 -22 
Q 2503 -91 2169 -91 
Q 1331 -91 842 396 
Q 353 884 353 1716 
Q 353 2575 817 3079 
Q 1281 3584 2069 3584 
Q 2775 3584 3186 3129 
Q 3597 2675 3597 1894 
z
M 3022 2063 
Q 3016 2534 2758 2815 
Q 2500 3097 2075 3097 
Q 1594 3097 1305 2825 
Q 1016 2553 972 2059 
L 3022 2063 
z
" id="DejaVuSans-65" transform="scale(0.015625)"/>
       <path d="M 1159 525 
L 1159 -1331 
L 581 -1331 
L 581 3500 
L 1159 3500 
L 1159 2969 
Q 1341 3281 1617 3432 
Q 1894 3584 2278 3584 
Q 2916 3584 3314 3078 
Q 3713 2572 3713 1747 
Q 3713 922 3314 415 
Q 2916 -91 2278 -91 
Q 1894 -91 1617 61 
Q 1341 213 1159 525 
z
M 3116 1747 
Q 3116 2381 2855 2742 
Q 2594 3103 2138 3103 
Q 1681 3103 1420 2742 
Q 1159 2381 1159 1747 
Q 1159 1113 1420 752 
Q 1681 391 2138 391 
Q 2594 391 2855 752 
Q 3116 1113 3116 1747 
z
" id="DejaVuSans-70" transform="scale(0.015625)"/>
       <path d="M 2834 3397 
L 2834 2853 
Q 2591 2978 2328 3040 
Q 2066 3103 1784 3103 
Q 1356 3103 1142 2972 
Q 928 2841 928 2578 
Q 928 2378 1081 2264 
Q 1234 2150 1697 2047 
L 1894 2003 
Q 2506 1872 2764 1633 
Q 3022 1394 3022 966 
Q 3022 478 2636 193 
Q 2250 -91 1575 -91 
Q 1294 -91 989 -36 
Q 684 19 347 128 
L 347 722 
Q 666 556 975 473 
Q 1284 391 1588 391 
Q 1994 391 2212 530 
Q 2431 669 2431 922 
Q 2431 1156 2273 1281 
Q 2116 1406 1581 1522 
L 1381 1569 
Q 847 1681 609 1914 
Q 372 2147 372 2553 
Q 372 3047 722 3315 
Q 1072 3584 1716 3584 
Q 2034 3584 2315 3537 
Q 2597 3491 2834 3397 
z
" id="DejaVuSans-73" transform="scale(0.015625)"/>
      </defs>
      <use xlink:href="#DejaVuSans-54"/>
      <use x="57.958984" xlink:href="#DejaVuSans-69"/>
      <use x="85.742188" xlink:href="#DejaVuSans-65"/>
      <use x="147.265625" xlink:href="#DejaVuSans-6d"/>
      <use x="244.677734" xlink:href="#DejaVuSans-70"/>
      <use x="308.154297" xlink:href="#DejaVuSans-6f"/>
      <use x="369.335938" xlink:href="#DejaVuSans-20"/>
      <use x="401.123047" xlink:href="#DejaVuSans-28"/>
      <use x="440.136719" xlink:href="#DejaVuSans-73"/>
      <use x="492.236328" xlink:href="#DejaVuSans-29"/>
     </g>
    </g>
   </g>
   <g id="matplotlib.axis_4">
    <g id="ytick_8">
     <g id="line2d_38">
      <path clip-path="url(#p316e1b812e)" d="M 312.005 221.467694 
L 478.8 221.467694 
" style="fill:none;stroke:#b0b0b0;stroke-linecap:square;stroke-width:0.8;"/>
     </g>
     <g id="line2d_39">
      <g>
       <use style="stroke:#000000;stroke-width:0.8;" x="312.005" xlink:href="#m3fdbd58507" y="221.467694"/>
      </g>
     </g>
     <g id="text_20">
      <!-- 0.95 -->
      <g transform="translate(282.739375 225.266912)scale(0.1 -0.1)">
       <defs>
        <path d="M 703 97 
L 703 672 
Q 941 559 1184 500 
Q 1428 441 1663 441 
Q 2288 441 2617 861 
Q 2947 1281 2994 2138 
Q 2813 1869 2534 1725 
Q 2256 1581 1919 1581 
Q 1219 1581 811 2004 
Q 403 2428 403 3163 
Q 403 3881 828 4315 
Q 1253 4750 1959 4750 
Q 2769 4750 3195 4129 
Q 3622 3509 3622 2328 
Q 3622 1225 3098 567 
Q 2575 -91 1691 -91 
Q 1453 -91 1209 -44 
Q 966 3 703 97 
z
M 1959 2075 
Q 2384 2075 2632 2365 
Q 2881 2656 2881 3163 
Q 2881 3666 2632 3958 
Q 2384 4250 1959 4250 
Q 1534 4250 1286 3958 
Q 1038 3666 1038 3163 
Q 1038 2656 1286 2365 
Q 1534 2075 1959 2075 
z
" id="DejaVuSans-39" transform="scale(0.015625)"/>
       </defs>
       <use xlink:href="#DejaVuSans-30"/>
       <use x="63.623047" xlink:href="#DejaVuSans-2e"/>
       <use x="95.410156" xlink:href="#DejaVuSans-39"/>
       <use x="159.033203" xlink:href="#DejaVuSans-35"/>
      </g>
     </g>
    </g>
    <g id="ytick_9">
     <g id="line2d_40">
      <path clip-path="url(#p316e1b812e)" d="M 312.005 189.154587 
L 478.8 189.154587 
" style="fill:none;stroke:#b0b0b0;stroke-linecap:square;stroke-width:0.8;"/>
     </g>
     <g id="line2d_41">
      <g>
       <use style="stroke:#000000;stroke-width:0.8;" x="312.005" xlink:href="#m3fdbd58507" y="189.154587"/>
      </g>
     </g>
     <g id="text_21">
      <!-- 1.00 -->
      <g transform="translate(282.739375 192.953805)scale(0.1 -0.1)">
       <use xlink:href="#DejaVuSans-31"/>
       <use x="63.623047" xlink:href="#DejaVuSans-2e"/>
       <use x="95.410156" xlink:href="#DejaVuSans-30"/>
       <use x="159.033203" xlink:href="#DejaVuSans-30"/>
      </g>
     </g>
    </g>
    <g id="ytick_10">
     <g id="line2d_42">
      <path clip-path="url(#p316e1b812e)" d="M 312.005 156.84148 
L 478.8 156.84148 
" style="fill:none;stroke:#b0b0b0;stroke-linecap:square;stroke-width:0.8;"/>
     </g>
     <g id="line2d_43">
      <g>
       <use style="stroke:#000000;stroke-width:0.8;" x="312.005" xlink:href="#m3fdbd58507" y="156.84148"/>
      </g>
     </g>
     <g id="text_22">
      <!-- 1.05 -->
      <g transform="translate(282.739375 160.640699)scale(0.1 -0.1)">
       <use xlink:href="#DejaVuSans-31"/>
       <use x="63.623047" xlink:href="#DejaVuSans-2e"/>
       <use x="95.410156" xlink:href="#DejaVuSans-30"/>
       <use x="159.033203" xlink:href="#DejaVuSans-35"/>
      </g>
     </g>
    </g>
    <g id="ytick_11">
     <g id="line2d_44">
      <path clip-path="url(#p316e1b812e)" d="M 312.005 124.528373 
L 478.8 124.528373 
" style="fill:none;stroke:#b0b0b0;stroke-linecap:square;stroke-width:0.8;"/>
     </g>
     <g id="line2d_45">
      <g>
       <use style="stroke:#000000;stroke-width:0.8;" x="312.005" xlink:href="#m3fdbd58507" y="124.528373"/>
      </g>
     </g>
     <g id="text_23">
      <!-- 1.10 -->
      <g transform="translate(282.739375 128.327592)scale(0.1 -0.1)">
       <use xlink:href="#DejaVuSans-31"/>
       <use x="63.623047" xlink:href="#DejaVuSans-2e"/>
       <use x="95.410156" xlink:href="#DejaVuSans-31"/>
       <use x="159.033203" xlink:href="#DejaVuSans-30"/>
      </g>
     </g>
    </g>
    <g id="ytick_12">
     <g id="line2d_46">
      <path clip-path="url(#p316e1b812e)" d="M 312.005 92.215266 
L 478.8 92.215266 
" style="fill:none;stroke:#b0b0b0;stroke-linecap:square;stroke-width:0.8;"/>
     </g>
     <g id="line2d_47">
      <g>
       <use style="stroke:#000000;stroke-width:0.8;" x="312.005" xlink:href="#m3fdbd58507" y="92.215266"/>
      </g>
     </g>
     <g id="text_24">
      <!-- 1.15 -->
      <g transform="translate(282.739375 96.014485)scale(0.1 -0.1)">
       <use xlink:href="#DejaVuSans-31"/>
       <use x="63.623047" xlink:href="#DejaVuSans-2e"/>
       <use x="95.410156" xlink:href="#DejaVuSans-31"/>
       <use x="159.033203" xlink:href="#DejaVuSans-35"/>
      </g>
     </g>
    </g>
    <g id="ytick_13">
     <g id="line2d_48">
      <path clip-path="url(#p316e1b812e)" d="M 312.005 59.90216 
L 478.8 59.90216 
" style="fill:none;stroke:#b0b0b0;stroke-linecap:square;stroke-width:0.8;"/>
     </g>
     <g id="line2d_49">
      <g>
       <use style="stroke:#000000;stroke-width:0.8;" x="312.005" xlink:href="#m3fdbd58507" y="59.90216"/>
      </g>
     </g>
     <g id="text_25">
      <!-- 1.20 -->
      <g transform="translate(282.739375 63.701378)scale(0.1 -0.1)">
       <use xlink:href="#DejaVuSans-31"/>
       <use x="63.623047" xlink:href="#DejaVuSans-2e"/>
       <use x="95.410156" xlink:href="#DejaVuSans-32"/>
       <use x="159.033203" xlink:href="#DejaVuSans-30"/>
      </g>
     </g>
    </g>
    <g id="text_26">
     <!-- z (m) -->
     <g transform="translate(276.659688 149.445156)rotate(-90)scale(0.1 -0.1)">
      <defs>
       <path d="M 353 3500 
L 3084 3500 
L 3084 2975 
L 922 459 
L 3084 459 
L 3084 0 
L 275 0 
L 275 525 
L 2438 3041 
L 353 3041 
L 353 3500 
z
" id="DejaVuSans-7a" transform="scale(0.015625)"/>
      </defs>
      <use xlink:href="#DejaVuSans-7a"/>
      <use x="52.490234" xlink:href="#DejaVuSans-20"/>
      <use x="84.277344" xlink:href="#DejaVuSans-28"/>
      <use x="123.291016" xlink:href="#DejaVuSans-6d"/>
      <use x="220.703125" xlink:href="#DejaVuSans-29"/>
     </g>
    </g>
   </g>
   <g id="line2d_50">
    <path clip-path="url(#p316e1b812e)" d="M 319.586591 189.264541 
L 319.902556 189.936407 
L 320.218522 190.145253 
L 320.660873 190.143376 
L 322.43028 189.695191 
L 324.326073 189.408036 
L 327.138165 189.229005 
L 332.572771 189.14762 
L 357.72362 188.980402 
L 357.881603 187.728967 
L 358.229165 182.582235 
L 359.808992 156.894743 
L 360.598906 148.419466 
L 361.452013 141.605256 
L 362.305119 136.512899 
L 363.095033 133.080398 
L 363.884947 130.585104 
L 364.706457 128.738622 
L 365.622757 127.227026 
L 366.539056 126.127366 
L 367.486953 125.330291 
L 368.561235 124.721879 
L 369.856694 124.251784 
L 371.468117 123.916053 
L 373.711472 123.695896 
L 377.376671 123.584273 
L 386.792442 123.590659 
L 471.218409 123.931182 
L 471.218409 123.931182 
" style="fill:none;stroke:#1f77b4;stroke-linecap:square;stroke-opacity:0.7;stroke-width:1.5;"/>
   </g>
   <g id="line2d_51">
    <path clip-path="url(#p316e1b812e)" d="M 319.586591 189.264541 
L 321.861542 196.766682 
L 323.978511 203.097575 
L 326.127076 208.88054 
L 327.864886 212.954732 
L 329.318327 215.829698 
L 330.676978 218.03233 
L 332.067226 219.860524 
L 333.362684 221.223501 
L 334.50016 222.110692 
L 335.542846 222.653269 
L 336.553935 222.934189 
L 337.533428 222.976693 
L 338.607711 222.793995 
L 340.187538 222.265986 
L 341.925348 221.497611 
L 343.283999 220.609222 
L 344.674247 219.434151 
L 346.759619 217.330567 
L 350.077257 213.718492 
L 351.499101 211.707204 
L 353.868842 207.847783 
L 356.301776 204.018899 
L 357.850007 201.436353 
L 358.071182 200.489596 
L 358.323955 198.122589 
L 358.766306 191.276827 
L 360.061765 170.543661 
L 361.957557 146.558013 
L 363.537385 129.479972 
L 364.832843 117.530709 
L 365.369984 114.34522 
L 365.812336 112.946016 
L 366.191494 112.422473 
L 366.697039 112.195437 
L 369.256359 111.156929 
L 369.88829 110.894432 
L 371.404924 110.123472 
L 372.036855 110.254399 
L 372.826769 110.326832 
L 374.153824 110.425922 
L 376.01802 111.024465 
L 377.187092 111.190299 
L 378.545743 111.604692 
L 380.062378 111.858085 
L 381.326239 112.36183 
L 383.032453 112.71607 
L 384.075139 113.100388 
L 386.065721 113.474703 
L 386.887231 113.729325 
L 388.846217 114.047842 
L 389.699324 114.319968 
L 391.942678 114.65799 
L 392.606206 114.783861 
L 394.344016 114.929409 
L 395.481491 115.369957 
L 397.788039 115.838911 
L 398.451567 115.877883 
L 399.873411 115.896667 
L 401.706011 116.520522 
L 402.906679 116.799675 
L 403.886172 117.049734 
L 405.086841 116.934431 
L 405.592386 117.018468 
L 407.551371 117.759411 
L 408.594057 118.081477 
L 409.541954 118.365702 
L 410.458254 118.277019 
L 411.184974 118.290258 
L 411.880098 118.632794 
L 412.701608 118.905472 
L 414.502611 119.500007 
L 415.260928 119.750366 
L 416.145632 119.729876 
L 416.935545 119.783954 
L 418.35739 120.070713 
L 419.874024 120.08169 
L 421.390658 120.476862 
L 422.970485 120.657027 
L 423.728802 120.750742 
L 424.645102 120.522689 
L 425.371823 120.421918 
L 425.877367 120.622526 
L 426.85686 120.994923 
L 428.815846 121.60243 
L 429.479373 121.753061 
L 430.458866 121.649882 
L 431.090797 121.682139 
L 431.943904 122.088764 
L 432.733818 122.280981 
L 434.345241 122.670608 
L 435.135155 122.87171 
L 436.177841 122.798318 
L 436.967755 122.836859 
L 438.073634 122.948726 
L 439.906233 122.802794 
L 441.012112 122.94902 
L 443.034291 122.837709 
L 443.697819 122.798483 
L 445.909577 122.332959 
L 446.667894 122.297307 
L 448.53209 122.09793 
L 449.385197 122.048038 
L 450.491076 121.606481 
L 451.059814 121.515606 
L 452.608044 121.57206 
L 453.998292 121.366373 
L 455.48333 121.407827 
L 457.063157 121.250923 
L 457.884667 121.198056 
L 458.927353 120.763089 
L 459.559284 120.623861 
L 460.222812 120.809688 
L 460.981129 120.906718 
L 462.655745 121.090149 
L 463.698431 121.248626 
L 465.752207 121.118437 
L 466.447331 121.150085 
L 468.406317 120.968985 
L 469.543792 121.184121 
L 471.218409 121.213632 
L 471.218409 121.213632 
" style="fill:none;stroke:#d62728;stroke-linecap:square;stroke-opacity:0.7;stroke-width:1.5;"/>
   </g>
   <g id="line2d_52">
    <path clip-path="url(#p316e1b812e)" d="M 319.586591 189.264541 
L 321.450787 195.34024 
L 322.872632 199.384913 
L 323.662545 201.046777 
L 324.547248 202.352061 
L 325.716321 203.698074 
L 326.853796 204.673549 
L 327.896482 205.284983 
L 328.875975 205.608468 
L 329.855468 205.700617 
L 330.866557 205.571472 
L 332.004033 205.193253 
L 333.109912 204.607575 
L 334.184195 203.770238 
L 335.542846 202.399279 
L 338.481325 199.030985 
L 341.767365 195.13145 
L 345.74853 189.593747 
L 347.359954 187.916475 
L 349.160957 185.987175 
L 352.573384 182.077931 
L 353.805649 181.092179 
L 355.227493 180.258684 
L 357.218076 179.067712 
L 357.881603 178.48088 
L 358.102779 177.785785 
L 358.418744 175.914727 
L 359.019079 170.53587 
L 360.914871 153.240959 
L 361.483609 150.013891 
L 361.894364 148.752342 
L 362.241926 148.285783 
L 362.652681 148.122021 
L 363.095033 148.179122 
L 363.568981 148.489444 
L 364.990826 149.59598 
L 365.749143 149.724959 
L 366.50746 149.638088 
L 367.044601 149.393891 
L 371.057362 146.739997 
L 372.163241 145.927781 
L 373.36391 145.098188 
L 375.828441 143.713464 
L 377.029109 143.12046 
L 380.789098 141.183676 
L 382.432118 140.514575 
L 384.233121 139.975535 
L 385.654966 139.436121 
L 386.824038 138.954629 
L 389.193779 138.328744 
L 390.963185 138.110531 
L 392.448223 137.824753 
L 393.680488 137.535512 
L 396.145019 137.273724 
L 397.693249 137.290286 
L 399.146691 137.170735 
L 400.694921 136.874112 
L 403.664996 136.626505 
L 406.698265 136.486971 
L 410.237078 136.17186 
L 414.06026 136.102417 
L 415.418911 135.99114 
L 416.430001 135.783145 
L 418.704952 135.199007 
L 420.600744 134.750058 
L 421.927799 134.237465 
L 423.254854 133.460672 
L 425.182243 132.068497 
L 427.741564 130.220913 
L 429.41618 128.897226 
L 433.966083 125.128348 
L 436.904562 122.965632 
L 440.474971 119.650371 
L 441.991605 118.678757 
L 443.381853 117.717595 
L 445.97277 115.788791 
L 446.857473 115.440302 
L 447.805369 115.316324 
L 449.132424 115.410235 
L 450.680655 115.423409 
L 454.693416 115.258161 
L 458.263826 115.39128 
L 459.306512 115.438817 
L 460.159618 115.743265 
L 461.391884 116.470979 
L 462.876921 117.581788 
L 464.298766 118.556087 
L 465.436241 119.056766 
L 467.205648 119.551806 
L 469.29102 120.17193 
L 471.060426 120.744883 
L 471.218409 120.775491 
L 471.218409 120.775491 
" style="fill:none;stroke:#9467bd;stroke-linecap:square;stroke-opacity:0.7;stroke-width:1.5;"/>
   </g>
   <g id="line2d_53">
    <path clip-path="url(#p316e1b812e)" d="M 319.586591 189.264541 
L 321.040032 193.9213 
L 322.588263 198.1253 
L 323.536159 200.053603 
L 324.547248 201.609319 
L 325.463548 202.650472 
L 326.253462 203.228164 
L 327.011779 203.504033 
L 327.896482 203.580384 
L 328.781185 203.433846 
L 329.665889 203.057927 
L 330.613785 202.398355 
L 331.593278 201.432562 
L 332.699157 200.004765 
L 333.931422 198.029305 
L 335.574443 194.944689 
L 338.007376 189.838231 
L 340.313924 184.511943 
L 343.663158 176.663362 
L 345.242985 173.934458 
L 348.971378 167.56979 
L 349.982467 166.060747 
L 350.677591 165.405364 
L 351.404311 165.037834 
L 352.952542 164.575128 
L 354.943124 163.893488 
L 357.09169 162.891491 
L 357.944796 162.345162 
L 358.165972 161.763706 
L 358.481937 160.141169 
L 359.366641 153.668971 
L 360.47252 146.545664 
L 361.230837 142.856103 
L 363.726964 132.359281 
L 365.117212 123.851598 
L 367.044601 112.319679 
L 367.360567 111.652004 
L 367.550146 111.648043 
L 367.802918 111.96856 
L 368.814008 113.868016 
L 369.951483 116.365476 
L 370.772993 118.009978 
L 371.499714 118.835446 
L 372.763576 120.271455 
L 373.4587 120.929348 
L 374.754158 121.969159 
L 376.112809 123.30933 
L 377.56625 124.304185 
L 378.387761 124.882361 
L 380.694308 125.82049 
L 381.452625 125.984627 
L 382.274136 126.238081 
L 383.69598 126.842267 
L 384.928245 127.036314 
L 386.097318 127.325464 
L 387.361179 127.30883 
L 388.846217 127.60168 
L 389.857306 127.626456 
L 391.310747 127.873415 
L 392.448223 127.799812 
L 393.870068 127.897915 
L 394.817964 127.823939 
L 396.366195 127.945876 
L 397.345688 127.788268 
L 399.273077 127.905311 
L 399.968201 127.898652 
L 401.390045 128.028298 
L 402.432731 127.900107 
L 404.107348 127.984203 
L 404.928858 127.951952 
L 406.666668 128.143462 
L 407.582968 128.081208 
L 408.878426 128.089462 
L 409.984305 127.828131 
L 410.900605 128.03448 
L 411.469343 128.018645 
L 412.575222 127.944459 
L 414.06026 128.107311 
L 415.229332 127.9108 
L 416.651176 127.895351 
L 417.504283 127.806353 
L 419.210496 127.946908 
L 420.126796 127.803788 
L 421.864606 127.821043 
L 422.686116 127.732076 
L 424.360733 127.819417 
L 425.150647 127.776668 
L 426.730474 127.897257 
L 427.67837 127.788361 
L 429.668953 127.931314 
L 430.364077 127.946181 
L 431.596342 128.030996 
L 432.8918 127.776573 
L 434.376838 127.832382 
L 435.261541 127.764596 
L 436.936158 127.887946 
L 437.915651 127.753954 
L 439.274302 127.699754 
L 440.253795 127.48295 
L 441.012112 127.67113 
L 441.644043 127.750096 
L 443.287064 127.691807 
L 444.108574 127.770144 
L 445.688401 127.593823 
L 446.731087 127.682511 
L 447.931756 127.551489 
L 449.543179 127.768034 
L 450.522672 127.673749 
L 452.070903 127.759591 
L 453.018799 127.655431 
L 454.693416 127.737877 
L 455.546523 127.681577 
L 457.031561 127.780492 
L 458.011053 127.632137 
L 459.843653 127.72109 
L 460.633567 127.664875 
L 462.118604 127.765543 
L 463.16129 127.629411 
L 464.709521 127.691335 
L 465.625821 127.601343 
L 467.332034 127.706318 
L 468.216737 127.62172 
L 469.638582 127.647268 
L 470.618075 127.465854 
L 471.218409 127.59428 
L 471.218409 127.59428 
" style="fill:none;stroke:#bcbd22;stroke-linecap:square;stroke-opacity:0.7;stroke-width:1.5;"/>
   </g>
   <g id="line2d_54">
    <path clip-path="url(#p316e1b812e)" d="M 319.586591 189.264541 
L 320.69247 192.714468 
L 321.60877 194.875836 
L 322.177508 195.775183 
L 322.588263 196.055238 
L 322.935825 196.040507 
L 323.34658 195.771519 
L 323.978511 195.033538 
L 325.147583 193.298675 
L 326.379848 191.060715 
L 328.749589 186.566052 
L 331.087733 183.713103 
L 332.130419 182.901142 
L 333.773439 180.937638 
L 334.278984 180.437457 
L 334.942512 179.371999 
L 335.606039 178.437839 
L 336.016794 178.234677 
L 338.354938 177.94433 
L 338.955273 178.032128 
L 339.366028 177.826792 
L 340.566697 177.061446 
L 341.35661 176.886978 
L 341.767365 176.456644 
L 342.841648 175.206277 
L 343.283999 175.150755 
L 344.01072 175.104636 
L 345.179792 174.856509 
L 346.317268 175.075445 
L 346.949199 174.733792 
L 347.48634 174.54612 
L 348.149867 174.676137 
L 348.529026 174.615501 
L 348.939781 174.291996 
L 349.856081 173.459875 
L 350.266836 173.449917 
L 351.088346 173.500958 
L 352.383804 173.270051 
L 353.458087 173.539923 
L 354.184807 173.225116 
L 354.627159 173.162166 
L 355.859424 173.317553 
L 356.522952 172.793368 
L 356.965303 172.579755 
L 357.407655 172.652867 
L 357.850007 172.704628 
L 358.007989 172.434214 
L 358.229165 171.515152 
L 358.576727 168.832092 
L 360.820082 148.274256 
L 361.38882 145.563326 
L 362.842261 139.43199 
L 364.042929 132.630627 
L 367.076198 115.319228 
L 367.550146 113.731571 
L 367.834515 113.407347 
L 368.024094 113.487241 
L 368.276866 113.903205 
L 369.16157 116.107702 
L 370.80459 119.788246 
L 371.436521 120.752713 
L 371.815679 120.986313 
L 372.226434 120.967932 
L 372.795172 120.69397 
L 373.901051 119.863363 
L 374.406596 119.14751 
L 375.954827 116.63541 
L 376.428775 116.581338 
L 377.597847 116.473659 
L 380.030781 115.531447 
L 380.473133 115.074981 
L 381.989767 113.236654 
L 382.748084 113.184487 
L 383.158839 113.003826 
L 383.822366 112.378705 
L 384.422701 111.903855 
L 384.770263 111.903027 
L 386.35009 112.172879 
L 388.81462 111.528054 
L 389.604534 110.766988 
L 390.173272 110.346147 
L 390.520834 110.359133 
L 391.658309 110.587101 
L 392.985364 110.376027 
L 394.12284 110.540143 
L 394.723174 110.398278 
L 396.397791 109.91851 
L 396.903336 109.777115 
L 397.345688 109.363664 
L 398.641146 107.968546 
L 399.020304 108.009617 
L 400.347359 108.305625 
L 401.295256 108.337204 
L 402.559117 108.68011 
L 403.096259 108.588731 
L 404.644489 108.120015 
L 405.434403 108.174223 
L 405.845158 107.923728 
L 407.235406 106.834556 
L 407.740951 107.008189 
L 408.783637 107.437821 
L 409.76313 107.725019 
L 410.837412 108.269487 
L 411.31136 108.299759 
L 412.069677 108.011248 
L 412.638415 107.876361 
L 413.997067 107.929251 
L 414.755384 107.337446 
L 415.260928 107.045089 
L 415.640087 107.106422 
L 417.3463 107.64763 
L 418.009828 107.763516 
L 418.862934 108.318626 
L 419.431672 108.561214 
L 419.90562 108.486027 
L 420.853517 108.269111 
L 421.359061 108.534655 
L 422.022589 108.813396 
L 422.401747 108.713229 
L 423.855189 108.052395 
L 425.592998 108.544848 
L 426.446105 108.624809 
L 427.583581 108.944927 
L 427.962739 108.828796 
L 428.68946 108.281206 
L 429.289794 107.915205 
L 429.668953 107.955003 
L 430.553656 108.11591 
L 431.059201 107.88136 
L 431.943904 107.455027 
L 432.386256 107.594023 
L 433.555328 108.002551 
L 434.534821 107.899182 
L 435.103558 107.958291 
L 436.019858 108.015456 
L 436.46221 107.779225 
L 437.662879 107.035243 
L 438.10523 107.205543 
L 438.92674 107.503708 
L 439.590268 107.382186 
L 440.159006 107.34452 
L 440.727743 107.625476 
L 441.707236 108.030064 
L 442.307571 107.985541 
L 443.445046 107.848347 
L 444.23496 107.922958 
L 444.614118 107.712571 
L 445.340839 106.942769 
L 445.909577 106.458087 
L 446.257139 106.463358 
L 448.089738 106.943328 
L 448.62688 107.054667 
L 449.637969 107.73266 
L 450.238303 107.970544 
L 450.775445 107.8936 
L 451.786534 107.738863 
L 452.702834 107.85874 
L 453.113589 107.637517 
L 454.503837 106.658265 
L 455.072575 106.878452 
L 455.925681 107.181959 
L 457.094754 107.40497 
L 458.485002 108.187207 
L 458.927353 108.150234 
L 460.50718 107.809296 
L 461.170708 107.834206 
L 461.581463 107.568396 
L 462.971711 106.409838 
L 463.414063 106.571299 
L 464.646328 107.135897 
L 465.531031 107.438011 
L 466.510524 107.910527 
L 466.984472 107.946601 
L 467.490017 107.72275 
L 468.564299 107.232075 
L 469.101441 107.408309 
L 469.606985 107.486878 
L 469.986144 107.304331 
L 471.218409 106.371827 
L 471.218409 106.371827 
" style="fill:none;stroke:#2ca02c;stroke-linecap:square;stroke-opacity:0.7;stroke-width:1.5;"/>
   </g>
   <g id="line2d_55">
    <path clip-path="url(#p316e1b812e)" d="M 319.586591 189.264541 
L 320.439698 191.827926 
L 321.198015 193.451593 
L 321.861542 194.384423 
L 322.33549 194.710187 
L 322.777842 194.772872 
L 323.220194 194.620436 
L 323.725738 194.201766 
L 324.326073 193.394602 
L 325.08439 191.970537 
L 326.000689 189.736396 
L 327.043375 186.580118 
L 328.180851 182.400296 
L 329.349923 177.240052 
L 330.803364 169.725113 
L 332.85714 157.863684 
L 335.163687 143.227693 
L 338.512921 121.776809 
L 343.821141 95.261765 
L 345.085003 91.10246 
L 345.622144 89.816753 
L 347.991885 85.341307 
L 349.192553 82.189635 
L 350.86717 77.723113 
L 351.625487 76.837498 
L 352.478594 75.989332 
L 352.920946 75.97095 
L 353.584473 75.907619 
L 354.279597 75.602523 
L 355.037914 75.015831 
L 355.891021 74.053503 
L 356.9969 72.429175 
L 357.628831 71.658371 
L 358.039586 71.221245 
L 358.292358 70.516851 
L 358.703113 68.516964 
L 359.872185 62.668723 
L 361.831171 55.136073 
L 362.779068 52.104469 
L 363.379402 50.859203 
L 363.94814 50.165566 
L 364.358895 49.961982 
L 364.959229 49.954945 
L 367.42376 50.469143 
L 368.340059 51.121077 
L 368.97199 51.398934 
L 370.267449 51.856634 
L 372.289628 52.866176 
L 373.047945 53.228088 
L 373.679875 53.7996 
L 374.627772 54.627199 
L 376.523565 55.82759 
L 377.471461 56.606562 
L 379.39885 57.776279 
L 380.40994 58.606838 
L 381.95817 59.572627 
L 383.348418 60.803157 
L 384.865052 61.720173 
L 386.128914 62.748256 
L 387.677145 63.634431 
L 389.130586 64.842337 
L 390.426044 65.584229 
L 392.005871 66.801466 
L 393.20654 67.422965 
L 395.007543 68.700156 
L 396.018633 69.195928 
L 398.104005 70.575681 
L 398.893918 70.98202 
L 400.663325 72.118319 
L 401.674414 72.531441 
L 403.72819 73.718487 
L 404.5497 74.059527 
L 406.477089 75.126445 
L 407.330196 75.419684 
L 408.214899 76.024717 
L 408.878426 76.331047 
L 410.48985 76.848213 
L 411.690519 77.530424 
L 413.333539 78.051851 
L 414.439418 78.652513 
L 416.430001 79.234794 
L 417.314704 79.662299 
L 419.147303 80.168118 
L 420.063603 80.610537 
L 420.885113 80.680046 
L 421.64343 80.834643 
L 423.507627 81.483918 
L 424.39233 81.616424 
L 425.21384 82.021422 
L 425.877367 82.223158 
L 427.615177 82.456914 
L 428.626267 82.858691 
L 429.574163 82.873752 
L 430.269287 83.019249 
L 431.659535 83.476585 
L 433.176169 83.562407 
L 434.503224 83.971845 
L 435.988262 84.055102 
L 437.28372 84.43783 
L 438.958337 84.487784 
L 440.032619 84.806673 
L 441.991605 84.945386 
L 442.844712 85.159616 
L 443.792608 85.046922 
L 444.487732 85.093373 
L 446.004366 85.401468 
L 447.236632 85.349928 
L 448.942845 85.632843 
L 450.080321 85.544768 
L 451.944517 85.78485 
L 452.82922 85.727879 
L 453.587537 85.945253 
L 454.282661 86.03641 
L 456.115261 85.957367 
L 457.063157 86.153108 
L 458.011053 85.999405 
L 458.706177 86.023856 
L 460.096425 86.253618 
L 461.613059 86.105611 
L 462.940114 86.318407 
L 464.425152 86.191313 
L 465.72061 86.404464 
L 467.363631 86.241095 
L 468.501106 86.440147 
L 470.302109 86.329918 
L 471.218409 86.499642 
L 471.218409 86.499642 
" style="fill:none;stroke:#17becf;stroke-linecap:square;stroke-opacity:0.7;stroke-width:1.5;"/>
   </g>
   <g id="line2d_56">
    <path clip-path="url(#p316e1b812e)" d="M 319.586591 189.154587 
L 357.628831 189.154587 
L 357.755217 124.528373 
L 471.218409 124.528373 
L 471.218409 124.528373 
" style="fill:none;stroke:#000000;stroke-dasharray:5.55,2.4;stroke-dashoffset:0;stroke-opacity:0.595;stroke-width:1.5;"/>
   </g>
   <g id="patch_8">
    <path d="M 312.005 231.64 
L 312.005 41.28 
" style="fill:none;stroke:#000000;stroke-linecap:square;stroke-linejoin:miter;stroke-width:0.8;"/>
   </g>
   <g id="patch_9">
    <path d="M 478.8 231.64 
L 478.8 41.28 
" style="fill:none;stroke:#000000;stroke-linecap:square;stroke-linejoin:miter;stroke-width:0.8;"/>
   </g>
   <g id="patch_10">
    <path d="M 312.005 231.64 
L 478.8 231.64 
" style="fill:none;stroke:#000000;stroke-linecap:square;stroke-linejoin:miter;stroke-width:0.8;"/>
   </g>
   <g id="patch_11">
    <path d="M 312.005 41.28 
L 478.8 41.28 
" style="fill:none;stroke:#000000;stroke-linecap:square;stroke-linejoin:miter;stroke-width:0.8;"/>
   </g>
   <g id="text_27">
    <!-- Plano z -->
    <g transform="translate(373.91125 35.28)scale(0.12 -0.12)">
     <use xlink:href="#DejaVuSans-50"/>
     <use x="60.302734" xlink:href="#DejaVuSans-6c"/>
     <use x="88.085938" xlink:href="#DejaVuSans-61"/>
     <use x="149.365234" xlink:href="#DejaVuSans-6e"/>
     <use x="212.744141" xlink:href="#DejaVuSans-6f"/>
     <use x="273.925781" xlink:href="#DejaVuSans-20"/>
     <use x="305.712891" xlink:href="#DejaVuSans-7a"/>
    </g>
   </g>
  </g>
  <g id="legend_1">
   <g id="patch_12">
    <path d="M 483.89375 197.56875 
L 569 197.56875 
Q 571 197.56875 571 195.56875 
L 571 92.43125 
Q 571 90.43125 569 90.43125 
L 483.89375 90.43125 
Q 481.89375 90.43125 481.89375 92.43125 
L 481.89375 195.56875 
Q 481.89375 197.56875 483.89375 197.56875 
z
" style="fill:#ffffff;opacity:0.8;stroke:#cccccc;stroke-linejoin:miter;"/>
   </g>
   <g id="line2d_57">
    <path d="M 485.89375 98.529688 
L 505.89375 98.529688 
" style="fill:none;stroke:#1f77b4;stroke-linecap:square;stroke-opacity:0.7;stroke-width:1.5;"/>
   </g>
   <g id="line2d_58"/>
   <g id="text_28">
    <!-- DSLPID -->
    <g transform="translate(513.89375 102.029688)scale(0.1 -0.1)">
     <defs>
      <path d="M 1259 4147 
L 1259 519 
L 2022 519 
Q 2988 519 3436 956 
Q 3884 1394 3884 2338 
Q 3884 3275 3436 3711 
Q 2988 4147 2022 4147 
L 1259 4147 
z
M 628 4666 
L 1925 4666 
Q 3281 4666 3915 4102 
Q 4550 3538 4550 2338 
Q 4550 1131 3912 565 
Q 3275 0 1925 0 
L 628 0 
L 628 4666 
z
" id="DejaVuSans-44" transform="scale(0.015625)"/>
      <path d="M 3425 4513 
L 3425 3897 
Q 3066 4069 2747 4153 
Q 2428 4238 2131 4238 
Q 1616 4238 1336 4038 
Q 1056 3838 1056 3469 
Q 1056 3159 1242 3001 
Q 1428 2844 1947 2747 
L 2328 2669 
Q 3034 2534 3370 2195 
Q 3706 1856 3706 1288 
Q 3706 609 3251 259 
Q 2797 -91 1919 -91 
Q 1588 -91 1214 -16 
Q 841 59 441 206 
L 441 856 
Q 825 641 1194 531 
Q 1563 422 1919 422 
Q 2459 422 2753 634 
Q 3047 847 3047 1241 
Q 3047 1584 2836 1778 
Q 2625 1972 2144 2069 
L 1759 2144 
Q 1053 2284 737 2584 
Q 422 2884 422 3419 
Q 422 4038 858 4394 
Q 1294 4750 2059 4750 
Q 2388 4750 2728 4690 
Q 3069 4631 3425 4513 
z
" id="DejaVuSans-53" transform="scale(0.015625)"/>
      <path d="M 628 4666 
L 1259 4666 
L 1259 531 
L 3531 531 
L 3531 0 
L 628 0 
L 628 4666 
z
" id="DejaVuSans-4c" transform="scale(0.015625)"/>
      <path d="M 628 4666 
L 1259 4666 
L 1259 0 
L 628 0 
L 628 4666 
z
" id="DejaVuSans-49" transform="scale(0.015625)"/>
     </defs>
     <use xlink:href="#DejaVuSans-44"/>
     <use x="77.001953" xlink:href="#DejaVuSans-53"/>
     <use x="140.478516" xlink:href="#DejaVuSans-4c"/>
     <use x="196.191406" xlink:href="#DejaVuSans-50"/>
     <use x="256.494141" xlink:href="#DejaVuSans-49"/>
     <use x="285.986328" xlink:href="#DejaVuSans-44"/>
    </g>
   </g>
   <g id="line2d_59">
    <path d="M 485.89375 113.207813 
L 505.89375 113.207813 
" style="fill:none;stroke:#d62728;stroke-linecap:square;stroke-opacity:0.7;stroke-width:1.5;"/>
   </g>
   <g id="line2d_60"/>
   <g id="text_29">
    <!-- ANN_1 -->
    <g transform="translate(513.89375 116.707813)scale(0.1 -0.1)">
     <defs>
      <path d="M 2188 4044 
L 1331 1722 
L 3047 1722 
L 2188 4044 
z
M 1831 4666 
L 2547 4666 
L 4325 0 
L 3669 0 
L 3244 1197 
L 1141 1197 
L 716 0 
L 50 0 
L 1831 4666 
z
" id="DejaVuSans-41" transform="scale(0.015625)"/>
      <path d="M 628 4666 
L 1478 4666 
L 3547 763 
L 3547 4666 
L 4159 4666 
L 4159 0 
L 3309 0 
L 1241 3903 
L 1241 0 
L 628 0 
L 628 4666 
z
" id="DejaVuSans-4e" transform="scale(0.015625)"/>
      <path d="M 3263 -1063 
L 3263 -1509 
L -63 -1509 
L -63 -1063 
L 3263 -1063 
z
" id="DejaVuSans-5f" transform="scale(0.015625)"/>
     </defs>
     <use xlink:href="#DejaVuSans-41"/>
     <use x="68.408203" xlink:href="#DejaVuSans-4e"/>
     <use x="143.212891" xlink:href="#DejaVuSans-4e"/>
     <use x="218.017578" xlink:href="#DejaVuSans-5f"/>
     <use x="268.017578" xlink:href="#DejaVuSans-31"/>
    </g>
   </g>
   <g id="line2d_61">
    <path d="M 485.89375 128.164063 
L 505.89375 128.164063 
" style="fill:none;stroke:#9467bd;stroke-linecap:square;stroke-opacity:0.7;stroke-width:1.5;"/>
   </g>
   <g id="line2d_62"/>
   <g id="text_30">
    <!-- ANN_2 -->
    <g transform="translate(513.89375 131.664063)scale(0.1 -0.1)">
     <use xlink:href="#DejaVuSans-41"/>
     <use x="68.408203" xlink:href="#DejaVuSans-4e"/>
     <use x="143.212891" xlink:href="#DejaVuSans-4e"/>
     <use x="218.017578" xlink:href="#DejaVuSans-5f"/>
     <use x="268.017578" xlink:href="#DejaVuSans-32"/>
    </g>
   </g>
   <g id="line2d_63">
    <path d="M 485.89375 143.120313 
L 505.89375 143.120313 
" style="fill:none;stroke:#bcbd22;stroke-linecap:square;stroke-opacity:0.7;stroke-width:1.5;"/>
   </g>
   <g id="line2d_64"/>
   <g id="text_31">
    <!-- ANN_3 -->
    <g transform="translate(513.89375 146.620313)scale(0.1 -0.1)">
     <defs>
      <path d="M 2597 2516 
Q 3050 2419 3304 2112 
Q 3559 1806 3559 1356 
Q 3559 666 3084 287 
Q 2609 -91 1734 -91 
Q 1441 -91 1130 -33 
Q 819 25 488 141 
L 488 750 
Q 750 597 1062 519 
Q 1375 441 1716 441 
Q 2309 441 2620 675 
Q 2931 909 2931 1356 
Q 2931 1769 2642 2001 
Q 2353 2234 1838 2234 
L 1294 2234 
L 1294 2753 
L 1863 2753 
Q 2328 2753 2575 2939 
Q 2822 3125 2822 3475 
Q 2822 3834 2567 4026 
Q 2313 4219 1838 4219 
Q 1578 4219 1281 4162 
Q 984 4106 628 3988 
L 628 4550 
Q 988 4650 1302 4700 
Q 1616 4750 1894 4750 
Q 2613 4750 3031 4423 
Q 3450 4097 3450 3541 
Q 3450 3153 3228 2886 
Q 3006 2619 2597 2516 
z
" id="DejaVuSans-33" transform="scale(0.015625)"/>
     </defs>
     <use xlink:href="#DejaVuSans-41"/>
     <use x="68.408203" xlink:href="#DejaVuSans-4e"/>
     <use x="143.212891" xlink:href="#DejaVuSans-4e"/>
     <use x="218.017578" xlink:href="#DejaVuSans-5f"/>
     <use x="268.017578" xlink:href="#DejaVuSans-33"/>
    </g>
   </g>
   <g id="line2d_65">
    <path d="M 485.89375 158.076563 
L 505.89375 158.076563 
" style="fill:none;stroke:#2ca02c;stroke-linecap:square;stroke-opacity:0.7;stroke-width:1.5;"/>
   </g>
   <g id="line2d_66"/>
   <g id="text_32">
    <!-- ANN_4 -->
    <g transform="translate(513.89375 161.576563)scale(0.1 -0.1)">
     <use xlink:href="#DejaVuSans-41"/>
     <use x="68.408203" xlink:href="#DejaVuSans-4e"/>
     <use x="143.212891" xlink:href="#DejaVuSans-4e"/>
     <use x="218.017578" xlink:href="#DejaVuSans-5f"/>
     <use x="268.017578" xlink:href="#DejaVuSans-34"/>
    </g>
   </g>
   <g id="line2d_67">
    <path d="M 485.89375 173.032813 
L 505.89375 173.032813 
" style="fill:none;stroke:#17becf;stroke-linecap:square;stroke-opacity:0.7;stroke-width:1.5;"/>
   </g>
   <g id="line2d_68"/>
   <g id="text_33">
    <!-- ANN_5 -->
    <g transform="translate(513.89375 176.532813)scale(0.1 -0.1)">
     <use xlink:href="#DejaVuSans-41"/>
     <use x="68.408203" xlink:href="#DejaVuSans-4e"/>
     <use x="143.212891" xlink:href="#DejaVuSans-4e"/>
     <use x="218.017578" xlink:href="#DejaVuSans-5f"/>
     <use x="268.017578" xlink:href="#DejaVuSans-35"/>
    </g>
   </g>
   <g id="line2d_69">
    <path d="M 485.89375 187.989063 
L 505.89375 187.989063 
" style="fill:none;stroke:#000000;stroke-dasharray:5.55,2.4;stroke-dashoffset:0;stroke-opacity:0.595;stroke-width:1.5;"/>
   </g>
   <g id="line2d_70"/>
   <g id="text_34">
    <!-- Referencia -->
    <g transform="translate(513.89375 191.489063)scale(0.1 -0.1)">
     <defs>
      <path d="M 2841 2188 
Q 3044 2119 3236 1894 
Q 3428 1669 3622 1275 
L 4263 0 
L 3584 0 
L 2988 1197 
Q 2756 1666 2539 1819 
Q 2322 1972 1947 1972 
L 1259 1972 
L 1259 0 
L 628 0 
L 628 4666 
L 2053 4666 
Q 2853 4666 3247 4331 
Q 3641 3997 3641 3322 
Q 3641 2881 3436 2590 
Q 3231 2300 2841 2188 
z
M 1259 4147 
L 1259 2491 
L 2053 2491 
Q 2509 2491 2742 2702 
Q 2975 2913 2975 3322 
Q 2975 3731 2742 3939 
Q 2509 4147 2053 4147 
L 1259 4147 
z
" id="DejaVuSans-52" transform="scale(0.015625)"/>
      <path d="M 2375 4863 
L 2375 4384 
L 1825 4384 
Q 1516 4384 1395 4259 
Q 1275 4134 1275 3809 
L 1275 3500 
L 2222 3500 
L 2222 3053 
L 1275 3053 
L 1275 0 
L 697 0 
L 697 3053 
L 147 3053 
L 147 3500 
L 697 3500 
L 697 3744 
Q 697 4328 969 4595 
Q 1241 4863 1831 4863 
L 2375 4863 
z
" id="DejaVuSans-66" transform="scale(0.015625)"/>
      <path d="M 2631 2963 
Q 2534 3019 2420 3045 
Q 2306 3072 2169 3072 
Q 1681 3072 1420 2755 
Q 1159 2438 1159 1844 
L 1159 0 
L 581 0 
L 581 3500 
L 1159 3500 
L 1159 2956 
Q 1341 3275 1631 3429 
Q 1922 3584 2338 3584 
Q 2397 3584 2469 3576 
Q 2541 3569 2628 3553 
L 2631 2963 
z
" id="DejaVuSans-72" transform="scale(0.015625)"/>
      <path d="M 3122 3366 
L 3122 2828 
Q 2878 2963 2633 3030 
Q 2388 3097 2138 3097 
Q 1578 3097 1268 2742 
Q 959 2388 959 1747 
Q 959 1106 1268 751 
Q 1578 397 2138 397 
Q 2388 397 2633 464 
Q 2878 531 3122 666 
L 3122 134 
Q 2881 22 2623 -34 
Q 2366 -91 2075 -91 
Q 1284 -91 818 406 
Q 353 903 353 1747 
Q 353 2603 823 3093 
Q 1294 3584 2113 3584 
Q 2378 3584 2631 3529 
Q 2884 3475 3122 3366 
z
" id="DejaVuSans-63" transform="scale(0.015625)"/>
     </defs>
     <use xlink:href="#DejaVuSans-52"/>
     <use x="64.982422" xlink:href="#DejaVuSans-65"/>
     <use x="126.505859" xlink:href="#DejaVuSans-66"/>
     <use x="161.710938" xlink:href="#DejaVuSans-65"/>
     <use x="223.234375" xlink:href="#DejaVuSans-72"/>
     <use x="262.097656" xlink:href="#DejaVuSans-65"/>
     <use x="323.621094" xlink:href="#DejaVuSans-6e"/>
     <use x="387" xlink:href="#DejaVuSans-63"/>
     <use x="441.980469" xlink:href="#DejaVuSans-69"/>
     <use x="469.763672" xlink:href="#DejaVuSans-61"/>
    </g>
   </g>
  </g>
 </g>
 <defs>
  <clipPath id="p046c397f46">
   <rect height="190.36" width="166.795" x="91.1" y="41.28"/>
  </clipPath>
  <clipPath id="p316e1b812e">
   <rect height="190.36" width="166.795" x="312.005" y="41.28"/>
  </clipPath>
 </defs>
</svg>
