<?xml version="1.0" encoding="utf-8" standalone="no"?>
<!DOCTYPE svg PUBLIC "-//W3C//DTD SVG 1.1//EN"
  "http://www.w3.org/Graphics/SVG/1.1/DTD/svg11.dtd">
<svg height="576pt" version="1.1" viewBox="0 0 576 576" width="576pt" xmlns="http://www.w3.org/2000/svg" xmlns:xlink="http://www.w3.org/1999/xlink">
 <metadata>
  <rdf:RDF xmlns:cc="http://creativecommons.org/ns#" xmlns:dc="http://purl.org/dc/elements/1.1/" xmlns:rdf="http://www.w3.org/1999/02/22-rdf-syntax-ns#">
   <cc:Work>
    <dc:type rdf:resource="http://purl.org/dc/dcmitype/StillImage"/>
    <dc:date>2022-02-26T21:38:47.788216</dc:date>
    <dc:format>image/svg+xml</dc:format>
    <dc:creator>
     <cc:Agent>
      <dc:title>Matplotlib v3.4.3, https://matplotlib.org/</dc:title>
     </cc:Agent>
    </dc:creator>
   </cc:Work>
  </rdf:RDF>
 </metadata>
 <defs>
  <style type="text/css">*{stroke-linecap:butt;stroke-linejoin:round;}</style>
 </defs>
 <g id="figure_1">
  <g id="patch_1">
   <path d="M 0 576 
L 576 576 
L 576 0 
L 0 0 
z
" style="fill:#ffffff;"/>
  </g>
  <g id="patch_2">
   <path d="M 10.8 565.2 
L 565.2 565.2 
L 565.2 10.8 
L 10.8 10.8 
z
" style="fill:#ffffff;"/>
  </g>
  <g id="pane3d_1">
   <g id="patch_3">
    <path d="M 52.661023 428.502727 
L 235.742009 275.040614 
L 233.197008 53.720814 
L 41.354653 193.718627 
" style="fill:#f2f2f2;opacity:0.5;stroke:#f2f2f2;stroke-linejoin:miter;"/>
   </g>
  </g>
  <g id="pane3d_2">
   <g id="patch_4">
    <path d="M 235.742009 275.040614 
L 529.521668 360.430763 
L 540.005628 131.487856 
L 233.197008 53.720814 
" style="fill:#e6e6e6;opacity:0.5;stroke:#e6e6e6;stroke-linejoin:miter;"/>
   </g>
  </g>
  <g id="pane3d_3">
   <g id="patch_5">
    <path d="M 52.661023 428.502727 
L 364.08181 530.212756 
L 529.521668 360.430763 
L 235.742009 275.040614 
" style="fill:#ececec;opacity:0.5;stroke:#ececec;stroke-linejoin:miter;"/>
   </g>
  </g>
  <g id="axis3d_1">
   <g id="line2d_1">
    <path d="M 52.661023 428.502727 
L 364.08181 530.212756 
" style="fill:none;stroke:#000000;stroke-linecap:square;stroke-width:0.8;"/>
   </g>
   <g id="text_1">
    <!-- x (m) -->
    <g transform="translate(174.526236 511.624996)rotate(-341.912962)scale(0.1 -0.1)">
     <defs>
      <path d="M 3513 3500 
L 2247 1797 
L 3578 0 
L 2900 0 
L 1881 1375 
L 863 0 
L 184 0 
L 1544 1831 
L 300 3500 
L 978 3500 
L 1906 2253 
L 2834 3500 
L 3513 3500 
z
" id="DejaVuSans-78" transform="scale(0.015625)"/>
      <path id="DejaVuSans-20" transform="scale(0.015625)"/>
      <path d="M 1984 4856 
Q 1566 4138 1362 3434 
Q 1159 2731 1159 2009 
Q 1159 1288 1364 580 
Q 1569 -128 1984 -844 
L 1484 -844 
Q 1016 -109 783 600 
Q 550 1309 550 2009 
Q 550 2706 781 3412 
Q 1013 4119 1484 4856 
L 1984 4856 
z
" id="DejaVuSans-28" transform="scale(0.015625)"/>
      <path d="M 3328 2828 
Q 3544 3216 3844 3400 
Q 4144 3584 4550 3584 
Q 5097 3584 5394 3201 
Q 5691 2819 5691 2113 
L 5691 0 
L 5113 0 
L 5113 2094 
Q 5113 2597 4934 2840 
Q 4756 3084 4391 3084 
Q 3944 3084 3684 2787 
Q 3425 2491 3425 1978 
L 3425 0 
L 2847 0 
L 2847 2094 
Q 2847 2600 2669 2842 
Q 2491 3084 2119 3084 
Q 1678 3084 1418 2786 
Q 1159 2488 1159 1978 
L 1159 0 
L 581 0 
L 581 3500 
L 1159 3500 
L 1159 2956 
Q 1356 3278 1631 3431 
Q 1906 3584 2284 3584 
Q 2666 3584 2933 3390 
Q 3200 3197 3328 2828 
z
" id="DejaVuSans-6d" transform="scale(0.015625)"/>
      <path d="M 513 4856 
L 1013 4856 
Q 1481 4119 1714 3412 
Q 1947 2706 1947 2009 
Q 1947 1309 1714 600 
Q 1481 -109 1013 -844 
L 513 -844 
Q 928 -128 1133 580 
Q 1338 1288 1338 2009 
Q 1338 2731 1133 3434 
Q 928 4138 513 4856 
z
" id="DejaVuSans-29" transform="scale(0.015625)"/>
     </defs>
     <use xlink:href="#DejaVuSans-78"/>
     <use x="59.179688" xlink:href="#DejaVuSans-20"/>
     <use x="90.966797" xlink:href="#DejaVuSans-28"/>
     <use x="129.980469" xlink:href="#DejaVuSans-6d"/>
     <use x="227.392578" xlink:href="#DejaVuSans-29"/>
    </g>
   </g>
   <g id="Line3DCollection_1">
    <path d="M 74.919211 435.772251 
L 256.825573 281.168774 
L 255.172508 59.290963 
" style="fill:none;stroke:#b0b0b0;stroke-width:0.8;"/>
    <path d="M 123.80699 451.739 
L 303.08665 294.615043 
L 303.413973 71.518768 
" style="fill:none;stroke:#b0b0b0;stroke-width:0.8;"/>
    <path d="M 173.529847 467.978485 
L 350.072126 308.271866 
L 352.44367 83.946367 
" style="fill:none;stroke:#b0b0b0;stroke-width:0.8;"/>
    <path d="M 224.109363 484.497754 
L 397.799151 322.144228 
L 402.281079 96.578697 
" style="fill:none;stroke:#b0b0b0;stroke-width:0.8;"/>
    <path d="M 275.567869 501.304102 
L 446.285419 336.237271 
L 452.946323 109.42086 
" style="fill:none;stroke:#b0b0b0;stroke-width:0.8;"/>
    <path d="M 327.928478 518.405077 
L 495.549192 350.556305 
L 504.460202 122.478127 
" style="fill:none;stroke:#b0b0b0;stroke-width:0.8;"/>
   </g>
   <g id="xtick_1">
    <g id="line2d_2">
     <path d="M 76.503317 434.425908 
L 71.744197 438.470717 
" style="fill:none;stroke:#000000;stroke-linecap:square;stroke-width:0.8;"/>
    </g>
    <g id="text_2">
     <!-- 0.00 -->
     <g transform="translate(56.273495 459.062316)scale(0.1 -0.1)">
      <defs>
       <path d="M 2034 4250 
Q 1547 4250 1301 3770 
Q 1056 3291 1056 2328 
Q 1056 1369 1301 889 
Q 1547 409 2034 409 
Q 2525 409 2770 889 
Q 3016 1369 3016 2328 
Q 3016 3291 2770 3770 
Q 2525 4250 2034 4250 
z
M 2034 4750 
Q 2819 4750 3233 4129 
Q 3647 3509 3647 2328 
Q 3647 1150 3233 529 
Q 2819 -91 2034 -91 
Q 1250 -91 836 529 
Q 422 1150 422 2328 
Q 422 3509 836 4129 
Q 1250 4750 2034 4750 
z
" id="DejaVuSans-30" transform="scale(0.015625)"/>
       <path d="M 684 794 
L 1344 794 
L 1344 0 
L 684 0 
L 684 794 
z
" id="DejaVuSans-2e" transform="scale(0.015625)"/>
      </defs>
      <use xlink:href="#DejaVuSans-30"/>
      <use x="63.623047" xlink:href="#DejaVuSans-2e"/>
      <use x="95.410156" xlink:href="#DejaVuSans-30"/>
      <use x="159.033203" xlink:href="#DejaVuSans-30"/>
     </g>
    </g>
   </g>
   <g id="xtick_2">
    <g id="line2d_3">
     <path d="M 125.369296 450.369766 
L 120.675612 454.483396 
" style="fill:none;stroke:#000000;stroke-linecap:square;stroke-width:0.8;"/>
    </g>
    <g id="text_3">
     <!-- 0.02 -->
     <g transform="translate(105.185389 475.190879)scale(0.1 -0.1)">
      <defs>
       <path d="M 1228 531 
L 3431 531 
L 3431 0 
L 469 0 
L 469 531 
Q 828 903 1448 1529 
Q 2069 2156 2228 2338 
Q 2531 2678 2651 2914 
Q 2772 3150 2772 3378 
Q 2772 3750 2511 3984 
Q 2250 4219 1831 4219 
Q 1534 4219 1204 4116 
Q 875 4013 500 3803 
L 500 4441 
Q 881 4594 1212 4672 
Q 1544 4750 1819 4750 
Q 2544 4750 2975 4387 
Q 3406 4025 3406 3419 
Q 3406 3131 3298 2873 
Q 3191 2616 2906 2266 
Q 2828 2175 2409 1742 
Q 1991 1309 1228 531 
z
" id="DejaVuSans-32" transform="scale(0.015625)"/>
      </defs>
      <use xlink:href="#DejaVuSans-30"/>
      <use x="63.623047" xlink:href="#DejaVuSans-2e"/>
      <use x="95.410156" xlink:href="#DejaVuSans-30"/>
      <use x="159.033203" xlink:href="#DejaVuSans-32"/>
     </g>
    </g>
   </g>
   <g id="xtick_3">
    <g id="line2d_4">
     <path d="M 175.069375 466.585771 
L 170.444067 470.769994 
" style="fill:none;stroke:#000000;stroke-linecap:square;stroke-width:0.8;"/>
    </g>
    <g id="text_4">
     <!-- 0.04 -->
     <g transform="translate(154.934287 491.595442)scale(0.1 -0.1)">
      <defs>
       <path d="M 2419 4116 
L 825 1625 
L 2419 1625 
L 2419 4116 
z
M 2253 4666 
L 3047 4666 
L 3047 1625 
L 3713 1625 
L 3713 1100 
L 3047 1100 
L 3047 0 
L 2419 0 
L 2419 1100 
L 313 1100 
L 313 1709 
L 2253 4666 
z
" id="DejaVuSans-34" transform="scale(0.015625)"/>
      </defs>
      <use xlink:href="#DejaVuSans-30"/>
      <use x="63.623047" xlink:href="#DejaVuSans-2e"/>
      <use x="95.410156" xlink:href="#DejaVuSans-30"/>
      <use x="159.033203" xlink:href="#DejaVuSans-34"/>
     </g>
    </g>
   </g>
   <g id="xtick_4">
    <g id="line2d_5">
     <path d="M 225.625093 483.080952 
L 221.071226 487.337601 
" style="fill:none;stroke:#000000;stroke-linecap:square;stroke-width:0.8;"/>
    </g>
    <g id="text_5">
     <!-- 0.06 -->
     <g transform="translate(205.54186 508.283151)scale(0.1 -0.1)">
      <defs>
       <path d="M 2113 2584 
Q 1688 2584 1439 2293 
Q 1191 2003 1191 1497 
Q 1191 994 1439 701 
Q 1688 409 2113 409 
Q 2538 409 2786 701 
Q 3034 994 3034 1497 
Q 3034 2003 2786 2293 
Q 2538 2584 2113 2584 
z
M 3366 4563 
L 3366 3988 
Q 3128 4100 2886 4159 
Q 2644 4219 2406 4219 
Q 1781 4219 1451 3797 
Q 1122 3375 1075 2522 
Q 1259 2794 1537 2939 
Q 1816 3084 2150 3084 
Q 2853 3084 3261 2657 
Q 3669 2231 3669 1497 
Q 3669 778 3244 343 
Q 2819 -91 2113 -91 
Q 1303 -91 875 529 
Q 447 1150 447 2328 
Q 447 3434 972 4092 
Q 1497 4750 2381 4750 
Q 2619 4750 2861 4703 
Q 3103 4656 3366 4563 
z
" id="DejaVuSans-36" transform="scale(0.015625)"/>
      </defs>
      <use xlink:href="#DejaVuSans-30"/>
      <use x="63.623047" xlink:href="#DejaVuSans-2e"/>
      <use x="95.410156" xlink:href="#DejaVuSans-30"/>
      <use x="159.033203" xlink:href="#DejaVuSans-36"/>
     </g>
    </g>
   </g>
   <g id="xtick_5">
    <g id="line2d_6">
     <path d="M 277.058738 499.86258 
L 272.579505 504.193552 
" style="fill:none;stroke:#000000;stroke-linecap:square;stroke-width:0.8;"/>
    </g>
    <g id="text_6">
     <!-- 0.08 -->
     <g transform="translate(257.030531 525.261399)scale(0.1 -0.1)">
      <defs>
       <path d="M 2034 2216 
Q 1584 2216 1326 1975 
Q 1069 1734 1069 1313 
Q 1069 891 1326 650 
Q 1584 409 2034 409 
Q 2484 409 2743 651 
Q 3003 894 3003 1313 
Q 3003 1734 2745 1975 
Q 2488 2216 2034 2216 
z
M 1403 2484 
Q 997 2584 770 2862 
Q 544 3141 544 3541 
Q 544 4100 942 4425 
Q 1341 4750 2034 4750 
Q 2731 4750 3128 4425 
Q 3525 4100 3525 3541 
Q 3525 3141 3298 2862 
Q 3072 2584 2669 2484 
Q 3125 2378 3379 2068 
Q 3634 1759 3634 1313 
Q 3634 634 3220 271 
Q 2806 -91 2034 -91 
Q 1263 -91 848 271 
Q 434 634 434 1313 
Q 434 1759 690 2068 
Q 947 2378 1403 2484 
z
M 1172 3481 
Q 1172 3119 1398 2916 
Q 1625 2713 2034 2713 
Q 2441 2713 2670 2916 
Q 2900 3119 2900 3481 
Q 2900 3844 2670 4047 
Q 2441 4250 2034 4250 
Q 1625 4250 1398 4047 
Q 1172 3844 1172 3481 
z
" id="DejaVuSans-38" transform="scale(0.015625)"/>
      </defs>
      <use xlink:href="#DejaVuSans-30"/>
      <use x="63.623047" xlink:href="#DejaVuSans-2e"/>
      <use x="95.410156" xlink:href="#DejaVuSans-30"/>
      <use x="159.033203" xlink:href="#DejaVuSans-38"/>
     </g>
    </g>
   </g>
   <g id="xtick_6">
    <g id="line2d_7">
     <path d="M 329.393379 516.938183 
L 324.992109 521.345441 
" style="fill:none;stroke:#000000;stroke-linecap:square;stroke-width:0.8;"/>
    </g>
    <g id="text_7">
     <!-- 0.10 -->
     <g transform="translate(309.423514 542.537842)scale(0.1 -0.1)">
      <defs>
       <path d="M 794 531 
L 1825 531 
L 1825 4091 
L 703 3866 
L 703 4441 
L 1819 4666 
L 2450 4666 
L 2450 531 
L 3481 531 
L 3481 0 
L 794 0 
L 794 531 
z
" id="DejaVuSans-31" transform="scale(0.015625)"/>
      </defs>
      <use xlink:href="#DejaVuSans-30"/>
      <use x="63.623047" xlink:href="#DejaVuSans-2e"/>
      <use x="95.410156" xlink:href="#DejaVuSans-31"/>
      <use x="159.033203" xlink:href="#DejaVuSans-30"/>
     </g>
    </g>
   </g>
  </g>
  <g id="axis3d_2">
   <g id="line2d_8">
    <path d="M 529.521668 360.430763 
L 364.08181 530.212756 
" style="fill:none;stroke:#000000;stroke-linecap:square;stroke-width:0.8;"/>
   </g>
   <g id="text_8">
    <!-- y (m) -->
    <g transform="translate(470.139263 480.978729)rotate(-45.742112)scale(0.1 -0.1)">
     <defs>
      <path d="M 2059 -325 
Q 1816 -950 1584 -1140 
Q 1353 -1331 966 -1331 
L 506 -1331 
L 506 -850 
L 844 -850 
Q 1081 -850 1212 -737 
Q 1344 -625 1503 -206 
L 1606 56 
L 191 3500 
L 800 3500 
L 1894 763 
L 2988 3500 
L 3597 3500 
L 2059 -325 
z
" id="DejaVuSans-79" transform="scale(0.015625)"/>
     </defs>
     <use xlink:href="#DejaVuSans-79"/>
     <use x="59.179688" xlink:href="#DejaVuSans-20"/>
     <use x="90.966797" xlink:href="#DejaVuSans-28"/>
     <use x="129.980469" xlink:href="#DejaVuSans-6d"/>
     <use x="227.392578" xlink:href="#DejaVuSans-29"/>
    </g>
   </g>
   <g id="Line3DCollection_2">
    <path d="M 63.80411 177.336036 
L 74.013495 410.604662 
L 383.452203 510.333968 
" style="fill:none;stroke:#b0b0b0;stroke-width:0.8;"/>
    <path d="M 95.538143 154.177984 
L 104.229198 385.277261 
L 410.828962 482.238678 
" style="fill:none;stroke:#b0b0b0;stroke-width:0.8;"/>
    <path d="M 126.381479 131.669923 
L 133.633187 360.630254 
L 437.43196 454.937458 
" style="fill:none;stroke:#b0b0b0;stroke-width:0.8;"/>
    <path d="M 156.371098 109.784865 
L 162.257737 336.636589 
L 463.293542 428.397113 
" style="fill:none;stroke:#b0b0b0;stroke-width:0.8;"/>
    <path d="M 185.541961 88.497297 
L 190.133434 313.270626 
L 488.444277 402.586271 
" style="fill:none;stroke:#b0b0b0;stroke-width:0.8;"/>
    <path d="M 213.927148 67.783081 
L 217.289286 290.508053 
L 512.913076 377.475264 
" style="fill:none;stroke:#b0b0b0;stroke-width:0.8;"/>
   </g>
   <g id="xtick_7">
    <g id="line2d_9">
     <path d="M 380.845099 509.493722 
L 388.673124 512.016624 
" style="fill:none;stroke:#000000;stroke-linecap:square;stroke-width:0.8;"/>
    </g>
    <g id="text_9">
     <!-- 0.00 -->
     <g transform="translate(385.145068 531.293737)scale(0.1 -0.1)">
      <use xlink:href="#DejaVuSans-30"/>
      <use x="63.623047" xlink:href="#DejaVuSans-2e"/>
      <use x="95.410156" xlink:href="#DejaVuSans-30"/>
      <use x="159.033203" xlink:href="#DejaVuSans-30"/>
     </g>
    </g>
   </g>
   <g id="xtick_8">
    <g id="line2d_10">
     <path d="M 408.247646 481.422343 
L 415.998148 483.87342 
" style="fill:none;stroke:#000000;stroke-linecap:square;stroke-width:0.8;"/>
    </g>
    <g id="text_10">
     <!-- 0.02 -->
     <g transform="translate(412.34565 502.998944)scale(0.1 -0.1)">
      <use xlink:href="#DejaVuSans-30"/>
      <use x="63.623047" xlink:href="#DejaVuSans-2e"/>
      <use x="95.410156" xlink:href="#DejaVuSans-30"/>
      <use x="159.033203" xlink:href="#DejaVuSans-32"/>
     </g>
    </g>
   </g>
   <g id="xtick_9">
    <g id="line2d_11">
     <path d="M 434.876024 454.144028 
L 442.550227 456.526304 
" style="fill:none;stroke:#000000;stroke-linecap:square;stroke-width:0.8;"/>
    </g>
    <g id="text_11">
     <!-- 0.04 -->
     <g transform="translate(438.777235 475.504082)scale(0.1 -0.1)">
      <use xlink:href="#DejaVuSans-30"/>
      <use x="63.623047" xlink:href="#DejaVuSans-2e"/>
      <use x="95.410156" xlink:href="#DejaVuSans-30"/>
      <use x="159.033203" xlink:href="#DejaVuSans-34"/>
     </g>
    </g>
   </g>
   <g id="xtick_10">
    <g id="line2d_12">
     <path d="M 460.762584 427.625637 
L 468.361702 429.941969 
" style="fill:none;stroke:#000000;stroke-linecap:square;stroke-width:0.8;"/>
    </g>
    <g id="text_12">
     <!-- 0.06 -->
     <g transform="translate(464.47198 448.775702)scale(0.1 -0.1)">
      <use xlink:href="#DejaVuSans-30"/>
      <use x="63.623047" xlink:href="#DejaVuSans-2e"/>
      <use x="95.410156" xlink:href="#DejaVuSans-30"/>
      <use x="159.033203" xlink:href="#DejaVuSans-36"/>
     </g>
    </g>
   </g>
   <g id="xtick_11">
    <g id="line2d_13">
     <path d="M 485.937899 401.835851 
L 493.463131 404.08894 
" style="fill:none;stroke:#000000;stroke-linecap:square;stroke-width:0.8;"/>
    </g>
    <g id="text_13">
     <!-- 0.08 -->
     <g transform="translate(489.460273 422.782192)scale(0.1 -0.1)">
      <use xlink:href="#DejaVuSans-30"/>
      <use x="63.623047" xlink:href="#DejaVuSans-2e"/>
      <use x="95.410156" xlink:href="#DejaVuSans-30"/>
      <use x="159.033203" xlink:href="#DejaVuSans-38"/>
     </g>
    </g>
   </g>
   <g id="xtick_12">
    <g id="line2d_14">
     <path d="M 510.430885 376.745048 
L 517.883416 378.937449 
" style="fill:none;stroke:#000000;stroke-linecap:square;stroke-width:0.8;"/>
    </g>
    <g id="text_14">
     <!-- 0.10 -->
     <g transform="translate(513.770853 397.493658)scale(0.1 -0.1)">
      <use xlink:href="#DejaVuSans-30"/>
      <use x="63.623047" xlink:href="#DejaVuSans-2e"/>
      <use x="95.410156" xlink:href="#DejaVuSans-31"/>
      <use x="159.033203" xlink:href="#DejaVuSans-30"/>
     </g>
    </g>
   </g>
  </g>
  <g id="axis3d_3">
   <g id="line2d_15">
    <path d="M 529.521668 360.430763 
L 540.005628 131.487856 
" style="fill:none;stroke:#000000;stroke-linecap:square;stroke-width:0.8;"/>
   </g>
   <g id="text_15">
    <!-- z (m) -->
    <g transform="translate(577.326905 256.136884)rotate(-87.378092)scale(0.1 -0.1)">
     <defs>
      <path d="M 353 3500 
L 3084 3500 
L 3084 2975 
L 922 459 
L 3084 459 
L 3084 0 
L 275 0 
L 275 525 
L 2438 3041 
L 353 3041 
L 353 3500 
z
" id="DejaVuSans-7a" transform="scale(0.015625)"/>
     </defs>
     <use xlink:href="#DejaVuSans-7a"/>
     <use x="52.490234" xlink:href="#DejaVuSans-20"/>
     <use x="84.277344" xlink:href="#DejaVuSans-28"/>
     <use x="123.291016" xlink:href="#DejaVuSans-6d"/>
     <use x="220.703125" xlink:href="#DejaVuSans-29"/>
    </g>
   </g>
   <g id="Line3DCollection_3">
    <path d="M 529.880364 352.597757 
L 235.654757 267.45297 
L 52.274819 420.482942 
" style="fill:none;stroke:#b0b0b0;stroke-width:0.8;"/>
    <path d="M 531.246281 322.769614 
L 235.322617 238.569208 
L 50.803742 389.935079 
" style="fill:none;stroke:#b0b0b0;stroke-width:0.8;"/>
    <path d="M 532.628212 292.591783 
L 234.986769 209.363004 
L 49.314762 359.015435 
" style="fill:none;stroke:#b0b0b0;stroke-width:0.8;"/>
    <path d="M 534.026439 262.058076 
L 234.647151 179.828929 
L 47.807549 327.717182 
" style="fill:none;stroke:#b0b0b0;stroke-width:0.8;"/>
    <path d="M 535.441252 231.162161 
L 234.303698 149.961429 
L 46.281766 296.033323 
" style="fill:none;stroke:#b0b0b0;stroke-width:0.8;"/>
    <path d="M 536.872949 199.897556 
L 233.956347 119.754827 
L 44.737069 263.956687 
" style="fill:none;stroke:#b0b0b0;stroke-width:0.8;"/>
    <path d="M 538.321834 168.25762 
L 233.605029 89.203314 
L 43.173103 231.479924 
" style="fill:none;stroke:#b0b0b0;stroke-width:0.8;"/>
   </g>
   <g id="xtick_13">
    <g id="line2d_16">
     <path d="M 527.410824 351.883106 
L 534.825327 354.02876 
" style="fill:none;stroke:#000000;stroke-linecap:square;stroke-width:0.8;"/>
    </g>
    <g id="text_16">
     <!-- 0.98 -->
     <g transform="translate(537.052141 357.594444)scale(0.1 -0.1)">
      <defs>
       <path d="M 703 97 
L 703 672 
Q 941 559 1184 500 
Q 1428 441 1663 441 
Q 2288 441 2617 861 
Q 2947 1281 2994 2138 
Q 2813 1869 2534 1725 
Q 2256 1581 1919 1581 
Q 1219 1581 811 2004 
Q 403 2428 403 3163 
Q 403 3881 828 4315 
Q 1253 4750 1959 4750 
Q 2769 4750 3195 4129 
Q 3622 3509 3622 2328 
Q 3622 1225 3098 567 
Q 2575 -91 1691 -91 
Q 1453 -91 1209 -44 
Q 966 3 703 97 
z
M 1959 2075 
Q 2384 2075 2632 2365 
Q 2881 2656 2881 3163 
Q 2881 3666 2632 3958 
Q 2384 4250 1959 4250 
Q 1534 4250 1286 3958 
Q 1038 3666 1038 3163 
Q 1038 2656 1286 2365 
Q 1534 2075 1959 2075 
z
" id="DejaVuSans-39" transform="scale(0.015625)"/>
      </defs>
      <use xlink:href="#DejaVuSans-30"/>
      <use x="63.623047" xlink:href="#DejaVuSans-2e"/>
      <use x="95.410156" xlink:href="#DejaVuSans-39"/>
      <use x="159.033203" xlink:href="#DejaVuSans-38"/>
     </g>
    </g>
   </g>
   <g id="xtick_14">
    <g id="line2d_17">
     <path d="M 528.76181 322.062698 
L 536.221175 324.185142 
" style="fill:none;stroke:#000000;stroke-linecap:square;stroke-width:0.8;"/>
    </g>
    <g id="text_17">
     <!-- 1.00 -->
     <g transform="translate(538.522592 327.794472)scale(0.1 -0.1)">
      <use xlink:href="#DejaVuSans-31"/>
      <use x="63.623047" xlink:href="#DejaVuSans-2e"/>
      <use x="95.410156" xlink:href="#DejaVuSans-30"/>
      <use x="159.033203" xlink:href="#DejaVuSans-30"/>
     </g>
    </g>
   </g>
   <g id="xtick_15">
    <g id="line2d_18">
     <path d="M 530.128629 291.89283 
L 537.633401 293.991372 
" style="fill:none;stroke:#000000;stroke-linecap:square;stroke-width:0.8;"/>
    </g>
    <g id="text_18">
     <!-- 1.02 -->
     <g transform="translate(540.010256 297.645651)scale(0.1 -0.1)">
      <use xlink:href="#DejaVuSans-31"/>
      <use x="63.623047" xlink:href="#DejaVuSans-2e"/>
      <use x="95.410156" xlink:href="#DejaVuSans-30"/>
      <use x="159.033203" xlink:href="#DejaVuSans-32"/>
     </g>
    </g>
   </g>
   <g id="xtick_16">
    <g id="line2d_19">
     <path d="M 531.51156 261.367325 
L 539.062294 263.441251 
" style="fill:none;stroke:#000000;stroke-linecap:square;stroke-width:0.8;"/>
    </g>
    <g id="text_19">
     <!-- 1.04 -->
     <g transform="translate(541.515437 267.14182)scale(0.1 -0.1)">
      <use xlink:href="#DejaVuSans-31"/>
      <use x="63.623047" xlink:href="#DejaVuSans-2e"/>
      <use x="95.410156" xlink:href="#DejaVuSans-30"/>
      <use x="159.033203" xlink:href="#DejaVuSans-34"/>
     </g>
    </g>
   </g>
   <g id="xtick_17">
    <g id="line2d_20">
     <path d="M 532.910888 230.479857 
L 540.508151 232.528433 
" style="fill:none;stroke:#000000;stroke-linecap:square;stroke-width:0.8;"/>
    </g>
    <g id="text_20">
     <!-- 1.06 -->
     <g transform="translate(543.038448 236.27667)scale(0.1 -0.1)">
      <use xlink:href="#DejaVuSans-31"/>
      <use x="63.623047" xlink:href="#DejaVuSans-2e"/>
      <use x="95.410156" xlink:href="#DejaVuSans-30"/>
      <use x="159.033203" xlink:href="#DejaVuSans-36"/>
     </g>
    </g>
   </g>
   <g id="xtick_18">
    <g id="line2d_21">
     <path d="M 534.326909 199.223949 
L 541.971276 201.246421 
" style="fill:none;stroke:#000000;stroke-linecap:square;stroke-width:0.8;"/>
    </g>
    <g id="text_21">
     <!-- 1.08 -->
     <g transform="translate(544.579606 205.043743)scale(0.1 -0.1)">
      <use xlink:href="#DejaVuSans-31"/>
      <use x="63.623047" xlink:href="#DejaVuSans-2e"/>
      <use x="95.410156" xlink:href="#DejaVuSans-30"/>
      <use x="159.033203" xlink:href="#DejaVuSans-38"/>
     </g>
    </g>
   </g>
   <g id="xtick_19">
    <g id="line2d_22">
     <path d="M 535.759922 167.592969 
L 543.45198 169.588561 
" style="fill:none;stroke:#000000;stroke-linecap:square;stroke-width:0.8;"/>
    </g>
    <g id="text_22">
     <!-- 1.10 -->
     <g transform="translate(546.139238 173.436428)scale(0.1 -0.1)">
      <use xlink:href="#DejaVuSans-31"/>
      <use x="63.623047" xlink:href="#DejaVuSans-2e"/>
      <use x="95.410156" xlink:href="#DejaVuSans-31"/>
      <use x="159.033203" xlink:href="#DejaVuSans-30"/>
     </g>
    </g>
   </g>
  </g>
  <g id="axes_1">
   <g id="line2d_23">
    <path clip-path="url(#pbe76091eca)" d="M 94.634967 379.569745 
L 94.719406 381.710171 
L 94.441664 372.096663 
L 94.508381 367.443985 
L 94.724207 363.596456 
L 95.153274 359.527946 
L 95.86104 355.312443 
L 96.518316 352.433177 
L 97.33945 349.526401 
L 98.337458 346.591228 
L 99.520299 343.647171 
L 100.895604 340.700547 
L 102.470018 337.754639 
L 104.247836 334.820051 
L 106.234378 331.896442 
L 108.433706 328.989048 
L 110.849943 326.099488 
L 113.486463 323.228591 
L 116.345346 320.379161 
L 119.427794 317.551403 
L 122.733128 314.747561 
L 126.259502 311.968678 
L 130.004064 309.215277 
L 136.021253 305.134503 
L 142.504991 301.113321 
L 149.437715 297.151486 
L 156.799534 293.247913 
L 164.567364 289.402953 
L 172.714675 285.615543 
L 181.211479 281.88633 
L 190.025455 278.214723 
L 202.212597 273.407854 
L 214.822109 268.702932 
L 227.770729 264.100732 
L 244.303004 258.495492 
L 261.062086 253.060033 
L 281.238933 246.772161 
L 304.527886 239.780208 
L 330.328198 232.276314 
L 363.477821 222.877313 
L 433.566931 203.101999 
L 449.315006 198.395518 
L 460.292635 194.883482 
L 467.694926 192.277624 
L 472.527931 190.349232 
L 475.582603 188.926139 
L 477.754337 187.688738 
L 478.976133 186.78169 
L 479.738539 185.973022 
L 480.111667 185.249877 
L 480.164223 184.600209 
L 479.962594 184.012851 
L 479.473867 183.375937 
L 478.568618 182.616345 
L 475.840273 180.528751 
L 475.590855 180.004306 
L 475.624967 179.55486 
L 475.903723 179.102521 
L 476.543881 178.569045 
L 477.680097 177.950873 
L 479.655366 177.167846 
L 482.695884 176.223583 
L 487.492096 174.990661 
L 495.033996 173.312994 
L 507.921811 170.485229 
L 507.986941 170.401676 
L 507.910937 170.363462 
L 507.273818 170.314113 
L 505.690709 170.215543 
L 505.713633 170.178414 
L 506.052572 170.041132 
L 507.152161 169.863609 
L 507.234668 169.871684 
L 506.689857 169.985551 
L 495.581487 171.707007 
L 489.677915 172.835789 
L 487.021805 173.541995 
L 485.998902 174.011726 
L 485.724746 174.290453 
L 485.724746 174.290453 
" style="fill:none;stroke:#1f77b4;stroke-linecap:square;stroke-opacity:0.7;stroke-width:1.5;"/>
   </g>
   <g id="line2d_24">
    <path clip-path="url(#pbe76091eca)" d="M 94.634967 379.569745 
L 95.838497 407.402273 
L 96.24096 411.381339 
L 96.798885 414.611947 
L 97.470764 417.254382 
L 98.250583 419.463147 
L 99.096485 421.207861 
L 99.966286 422.496095 
L 100.820958 423.367378 
L 101.625316 423.887933 
L 102.453508 424.158916 
L 103.280647 424.18083 
L 104.076023 423.964549 
L 104.805381 423.528047 
L 105.433508 422.891081 
L 105.92801 422.077362 
L 106.261957 421.116134 
L 106.414181 420.041769 
L 106.368457 418.892969 
L 106.112142 417.71105 
L 105.634888 416.536495 
L 104.929433 415.409097 
L 103.997208 414.369626 
L 102.85731 413.448847 
L 101.548012 412.663615 
L 99.934468 411.952749 
L 98.059661 411.379679 
L 96.034226 410.996704 
L 94.056204 410.83521 
L 92.303978 410.907631 
L 91.259214 411.147521 
L 91.163889 411.244389 
L 91.255735 411.273237 
L 91.790864 411.211578 
L 93.035602 410.838416 
L 94.867323 410.043038 
L 96.929341 408.887037 
L 98.979179 407.464938 
L 100.848366 405.886807 
L 102.441719 404.259975 
L 103.89883 402.442138 
L 105.014545 400.716136 
L 105.94612 398.887554 
L 106.665842 396.982965 
L 107.151318 395.031495 
L 107.384704 393.063914 
L 107.373392 391.387773 
L 107.16023 389.741466 
L 106.743126 388.143749 
L 106.12657 386.610361 
L 105.322227 385.15242 
L 104.169445 383.556907 
L 102.816954 382.083392 
L 101.074342 380.556293 
L 99.181915 379.197215 
L 96.712706 377.721743 
L 93.55744 376.129069 
L 88.247176 373.508458 
L 87.408543 372.80918 
L 87.07335 372.243778 
L 87.017271 371.722878 
L 87.178832 371.151904 
L 87.639787 370.403472 
L 88.641771 369.283578 
L 90.787694 367.306749 
L 96.516781 362.126834 
L 98.988165 359.57935 
L 100.80716 357.407606 
L 102.179382 355.441548 
L 103.139027 353.713073 
L 103.835596 351.9941 
L 104.200242 350.545307 
L 104.334635 349.136482 
L 104.23058 347.783105 
L 103.888732 346.496184 
L 103.318405 345.281585 
L 102.535016 344.142597 
L 101.557578 343.082645 
L 100.201188 341.951056 
L 98.650116 340.935788 
L 96.697239 339.91735 
L 94.359739 338.944246 
L 91.460032 337.978386 
L 87.566219 336.937499 
L 83.474961 335.829805 
L 83.009824 335.516678 
L 82.934826 335.25167 
L 83.100402 334.946144 
L 83.692566 334.461254 
L 84.9951 333.722031 
L 87.927737 332.36325 
L 98.640642 327.58542 
L 100.570576 326.404106 
L 101.726419 325.452955 
L 102.404197 324.633864 
L 102.714067 323.958043 
L 102.763145 323.320466 
L 102.551578 322.7307 
L 102.088948 322.194299 
L 101.391735 321.716426 
L 100.309506 321.240191 
L 98.764971 320.812252 
L 96.714054 320.486342 
L 94.172717 320.317439 
L 91.244958 320.35202 
L 88.147224 320.621682 
L 85.633988 321.046765 
L 83.64708 321.602209 
L 82.426184 322.16971 
L 81.895824 322.621496 
L 81.776585 322.985781 
L 81.937837 323.257364 
L 82.341065 323.477278 
L 83.239618 323.670368 
L 84.698978 323.727538 
L 86.784081 323.57156 
L 89.483203 323.124622 
L 91.060335 322.696059 
L 92.128522 322.163255 
L 92.941177 321.555776 
L 94.069399 320.400897 
L 95.653606 318.359277 
L 99.112112 313.768974 
L 100.891351 311.736789 
L 103.023379 309.580131 
L 105.556158 307.312603 
L 108.527612 304.941939 
L 111.963226 302.483055 
L 115.878161 299.945799 
L 120.276256 297.347704 
L 125.156181 294.689171 
L 132.398765 291.050551 
L 140.454948 287.30504 
L 149.285434 283.458652 
L 158.845287 279.51614 
L 171.744515 274.468133 
L 185.596519 269.318797 
L 200.276266 264.107565 
L 218.782229 257.814417 
L 234.760083 252.604675 
L 251.070664 247.507695 
L 267.553149 242.577423 
L 287.334053 236.92286 
L 310.06995 230.699054 
L 338.12608 223.274138 
L 380.170456 212.397273 
L 431.082385 199.233291 
L 441.691234 196.265838 
L 449.254511 193.913533 
L 454.514571 192.026552 
L 458.070075 190.547483 
L 461.074487 189.09731 
L 463.55907 187.687953 
L 465.55694 186.318954 
L 467.103464 184.986158 
L 468.235632 183.686745 
L 468.990942 182.420196 
L 469.406515 181.179667 
L 469.519252 179.956148 
L 469.365683 178.73865 
L 468.981757 177.515153 
L 468.231453 175.96013 
L 467.023164 174.025144 
L 461.982945 166.439493 
L 460.557116 163.814806 
L 459.315588 161.080479 
L 458.319208 158.290767 
L 457.709694 155.965776 
L 457.319892 153.742722 
L 457.15806 151.739772 
L 457.224158 150.063379 
L 457.436991 149.02234 
L 457.786424 148.290713 
L 458.134719 147.952611 
L 458.553888 147.793507 
L 459.219621 147.82453 
L 460.442056 148.194497 
L 467.501397 150.632067 
L 471.657854 152.117106 
L 474.339147 153.267267 
L 476.491542 154.424188 
L 478.371554 155.680759 
L 479.713228 156.814112 
L 480.773568 157.983845 
L 481.536153 159.166534 
L 482.000423 160.310885 
L 482.18158 161.351845 
L 482.107525 162.24634 
L 481.815996 163.013856 
L 481.261668 163.805246 
L 480.329654 164.718182 
L 477.408105 167.365404 
L 476.703693 168.401527 
L 476.200391 169.556128 
L 476.126339 170.16295 
L 476.31689 170.553601 
L 477.763708 172.417292 
L 478.675408 174.059893 
L 478.755924 174.710158 
L 478.624899 175.731942 
L 478.191698 177.329429 
L 477.680468 178.491918 
L 477.148872 179.175968 
L 475.732477 180.747505 
L 475.636683 181.352037 
L 475.771704 181.87852 
L 476.016134 182.066123 
L 476.537139 182.108282 
L 477.426754 182.221138 
L 477.873708 182.534914 
L 478.115889 182.971079 
L 478.114006 183.376241 
L 477.89583 183.521463 
L 476.532338 184.046666 
L 476.085502 184.532056 
L 475.695911 185.332555 
L 475.826438 185.391391 
L 476.206276 185.562979 
L 477.486552 186.389599 
L 477.593129 186.18738 
L 477.490688 185.926486 
L 477.271148 185.940647 
L 476.513017 186.136586 
L 475.438673 185.878055 
L 475.322863 186.156888 
L 475.365456 186.685901 
L 475.550253 186.861348 
L 476.235347 187.205561 
L 476.557657 187.71069 
L 476.558401 187.717932 
L 476.39358 187.405529 
L 475.65372 186.206003 
L 475.813456 186.164309 
L 476.44154 185.850694 
L 477.131352 185.644074 
L 477.556555 185.705062 
L 477.941955 185.989769 
L 478.172548 186.443503 
L 478.186804 186.958841 
L 477.996594 187.277967 
L 477.592332 187.436746 
L 476.772658 187.473172 
L 475.883644 187.584742 
L 476.097449 187.387806 
L 477.195726 186.324737 
L 477.868265 185.934455 
L 478.478917 185.828426 
L 478.844751 185.944328 
L 478.993257 186.196254 
L 478.836227 186.251554 
L 477.789109 186.460855 
L 477.155296 186.87546 
L 476.502222 187.447945 
L 476.464514 187.375809 
L 476.499499 187.064773 
L 476.688156 186.893833 
L 477.148009 186.925736 
L 477.783165 186.939461 
L 478.127741 186.682007 
L 478.401432 186.198892 
L 478.398731 185.975351 
L 478.344107 185.986593 
L 477.870694 186.318113 
L 477.298463 186.579236 
L 476.638008 186.598458 
L 474.839652 186.565592 
L 474.671603 186.776048 
L 474.757418 187.005371 
L 475.035312 187.08962 
L 475.750887 186.970586 
L 477.16262 186.776227 
L 478.151634 186.92939 
L 478.900791 187.2322 
L 478.683939 186.970236 
L 477.95134 186.468902 
L 477.232874 186.200154 
L 476.464153 186.140618 
L 476.256978 186.137432 
L 476.279888 186.061187 
L 476.550261 185.8027 
L 477.064068 185.627276 
L 477.513842 185.689364 
L 478.10278 186.00574 
L 478.598333 186.529948 
L 478.809762 186.95132 
L 478.781216 186.965759 
L 478.386366 186.964359 
L 477.671473 187.10415 
L 477.194897 187.125126 
L 477.009626 186.833657 
L 476.833926 186.084607 
L 476.897569 185.5666 
L 477.048531 185.588403 
L 477.556991 186.205408 
L 477.490882 186.822451 
L 477.213048 187.480685 
L 476.925754 187.671187 
L 476.516121 187.621098 
L 475.821585 187.274546 
L 475.28679 186.827562 
L 475.31109 186.802896 
L 477.253819 185.621926 
L 478.046378 185.382548 
L 478.701913 185.413717 
L 479.193575 185.643417 
L 479.423908 185.983542 
L 479.398464 186.288423 
L 479.136374 186.416725 
L 478.233934 186.503649 
L 477.202174 186.684211 
L 476.602864 186.814227 
L 476.603009 186.738382 
L 476.786802 186.231785 
L 477.239813 185.623274 
L 477.656765 185.399182 
L 478.277116 185.36224 
L 479.090389 185.380406 
L 479.054688 185.18953 
L 478.819099 185.099708 
L 478.401764 185.267924 
L 476.885353 186.019554 
L 475.997753 185.947633 
L 475.240508 185.941843 
L 475.135771 186.130619 
L 475.282673 186.319561 
L 475.537209 186.307222 
L 477.274986 185.776075 
L 477.849012 186.005072 
L 478.135744 186.241503 
L 477.142181 185.625245 
L 476.626471 185.687462 
L 475.975719 185.956658 
L 476.323825 185.899332 
L 476.742724 186.369206 
L 477.054489 186.76503 
L 476.731017 186.55138 
L 476.332471 186.603188 
L 476.04904 186.043239 
L 475.822943 185.491774 
L 476.043989 185.760404 
L 476.294602 185.837999 
L 477.148768 185.84793 
L 477.379093 186.236549 
L 477.416126 186.712889 
L 477.279726 186.846468 
L 476.948353 186.734929 
L 475.813151 186.208559 
L 475.885216 186.109424 
L 476.488118 185.458245 
L 476.983115 185.22692 
L 477.405286 185.295244 
L 477.744018 185.563657 
L 477.934349 186.0196 
L 477.830593 186.153433 
L 476.478791 186.549871 
L 476.245851 186.611417 
L 476.152569 186.304502 
L 476.173585 185.651869 
L 476.342874 185.433925 
L 476.662936 185.438614 
L 477.17211 185.483099 
L 477.57543 185.208027 
L 477.780551 185.104382 
L 477.800336 185.163647 
L 477.741529 185.520535 
L 477.459654 186.009048 
L 477.142995 186.164129 
L 476.570465 186.129267 
L 475.337029 186.004167 
L 475.376648 186.075746 
L 475.417234 186.078997 
L 475.706749 185.944805 
L 476.874551 185.325229 
L 477.467106 185.246827 
L 478.049205 185.396387 
L 478.349253 185.691298 
L 478.368113 185.824448 
L 478.307019 185.827683 
L 476.678431 185.666474 
L 476.202734 185.909369 
L 476.125345 185.909691 
L 476.124775 185.833444 
L 476.303711 185.51555 
L 476.705073 185.258203 
L 477.157189 185.297209 
L 477.656862 185.553507 
L 477.907658 185.586108 
L 477.911985 185.576289 
L 477.853185 185.400154 
L 477.581615 185.269838 
L 477.131162 185.397939 
L 476.382301 185.640993 
L 475.987858 185.451709 
L 475.295538 184.89373 
L 475.775484 185.178336 
L 476.24901 185.157565 
L 477.884734 184.879785 
L 478.252211 185.124196 
L 478.362245 185.433653 
L 478.260503 185.647995 
L 478.001328 185.668825 
L 477.014026 185.384304 
L 475.903115 185.110513 
L 475.418785 185.1819 
L 475.417936 185.188412 
L 475.610824 185.080023 
L 476.288524 184.800133 
L 477.156886 184.703742 
L 477.959022 184.898118 
L 478.602502 185.254512 
L 479.174911 185.830823 
L 479.151019 185.84008 
L 478.453733 185.751416 
L 476.912819 185.668822 
L 476.573368 185.119084 
L 476.357127 184.372797 
L 476.431684 184.320978 
L 476.470539 184.332335 
L 477.341192 184.61304 
L 477.853416 184.672447 
L 478.03036 184.944125 
L 478.075773 185.39108 
L 477.925823 185.824309 
L 477.679731 185.983782 
L 477.239884 185.963406 
L 476.193367 185.632917 
L 475.472475 185.463296 
L 475.596354 185.35738 
L 476.560774 184.654645 
L 477.195255 184.468841 
L 477.787753 184.557713 
L 478.364358 184.85671 
L 478.790871 185.325928 
L 478.890192 185.675703 
L 478.615344 185.719377 
L 477.537809 185.851911 
L 476.657346 186.046055 
L 476.499143 185.697139 
L 476.514091 185.221773 
L 476.674694 185.111671 
L 476.895332 185.236471 
L 477.17746 185.455856 
L 477.198809 185.425042 
L 477.185451 185.392556 
L 476.835877 186.423749 
L 476.822861 186.420147 
L 476.570987 186.206809 
L 476.190996 185.7944 
L 476.314592 185.77786 
L 476.809778 185.155762 
L 476.837049 185.180613 
L 476.901087 185.443598 
L 476.779878 185.902948 
L 476.543474 186.04342 
L 475.882905 186.015136 
L 475.564744 186.109558 
L 475.493147 186.317349 
L 475.626513 186.428904 
L 475.898077 186.228239 
L 476.796097 185.524658 
L 477.256962 185.491571 
L 477.518834 185.656821 
L 477.255306 185.381946 
L 476.733153 185.101175 
L 476.381923 185.157894 
L 476.165248 185.400623 
L 476.120042 185.633016 
L 476.204787 185.588212 
L 476.745401 185.294423 
L 477.095801 185.382531 
L 477.496356 185.686037 
L 477.651083 185.814875 
L 477.548056 185.579608 
L 477.145563 185.224961 
L 476.765306 185.189352 
L 476.191863 185.213591 
L 476.026544 184.765054 
L 476.09322 184.860511 
L 476.618992 185.541608 
L 476.866087 185.406151 
L 476.893568 185.539157 
L 476.836066 185.740307 
L 476.789146 185.713603 
L 476.334746 185.103397 
L 476.001467 184.813699 
L 475.912443 184.918034 
L 475.927011 185.034518 
L 476.012951 184.963905 
L 476.310175 184.831193 
L 476.519493 185.005445 
L 476.749452 185.495919 
L 476.77729 185.936574 
L 476.751466 185.9373 
L 476.42197 185.737872 
L 476.096515 185.62405 
L 476.014656 185.676472 
L 476.052084 185.536027 
L 476.394465 184.565618 
L 476.592647 184.535767 
L 476.815944 184.748514 
L 477.055449 185.116216 
L 476.931553 185.14335 
L 476.6214 185.931898 
L 476.52766 185.85567 
L 476.158023 185.476902 
L 476.140852 185.601995 
L 476.152318 185.650302 
L 476.214998 185.178848 
L 476.269456 184.987481 
L 476.334779 185.08331 
L 476.572487 185.739998 
L 476.50514 185.704771 
L 476.45082 186.193246 
L 476.3724 186.057078 
L 476.175606 185.660849 
L 476.176508 185.890017 
L 476.194519 185.980497 
L 476.242008 185.626434 
L 476.265073 185.673563 
L 476.30759 186.235368 
L 476.250893 186.354551 
L 476.193052 186.322194 
L 475.866675 186.162811 
L 475.851769 186.187209 
L 475.823966 186.490072 
L 475.88071 185.86097 
L 476.001012 185.666641 
L 476.011875 185.668664 
L 476.274428 185.847701 
L 476.57203 185.972453 
L 476.815255 185.774167 
L 477.01701 185.580789 
L 477.047626 185.65129 
L 477.020686 186.055182 
L 476.83233 186.360958 
L 476.572341 186.344014 
L 475.652417 186.156364 
L 475.639608 186.355174 
L 475.752221 186.331021 
L 476.594417 185.743989 
L 476.94307 185.843517 
L 477.189503 186.129152 
L 477.22916 186.236408 
L 477.075127 186.127992 
L 476.592513 185.947606 
L 476.203779 186.091067 
L 475.807508 186.331915 
L 475.783389 186.290728 
L 475.721741 185.904881 
L 475.835844 185.721568 
L 475.849243 185.723205 
L 476.264317 185.920893 
L 476.707039 186.080887 
L 477.026149 185.959655 
L 477.519913 185.572188 
L 477.511465 185.753613 
L 477.296156 186.071728 
L 477.025479 186.135777 
L 476.392012 185.944206 
L 475.441611 185.71046 
L 475.254498 185.867822 
L 475.332849 186.033725 
L 475.592424 185.978546 
L 476.518942 185.745131 
L 477.067652 185.85199 
L 477.586017 186.1793 
L 477.810615 186.544977 
L 477.756461 186.527511 
L 476.595442 186.015754 
L 476.04903 186.042458 
L 475.956667 186.001314 
L 475.953613 185.957124 
L 476.085395 185.590516 
L 476.429941 185.268833 
L 476.771795 185.247952 
L 477.167512 185.464708 
L 477.522864 185.950903 
L 477.507695 185.950219 
L 477.05843 185.953891 
L 476.277812 186.225395 
L 475.994439 185.676167 
L 475.894765 185.122512 
L 476.081304 185.131904 
L 476.585709 185.194555 
L 477.428895 184.897922 
L 477.762356 184.91622 
L 477.928724 185.148952 
L 477.933889 185.556652 
L 477.735866 185.952756 
L 477.428956 186.125397 
L 476.858107 186.144722 
L 475.090102 186.006023 
L 475.378251 185.910422 
L 476.836456 185.115921 
L 477.468295 185.011262 
L 478.200784 185.116405 
L 478.84782 185.416346 
L 479.258104 185.784225 
L 479.147514 185.763071 
L 478.25498 185.637328 
L 477.482719 185.814168 
L 476.686291 186.024893 
L 476.423889 185.796234 
L 476.337867 185.456719 
L 476.446305 185.499019 
L 476.730599 185.904395 
L 476.861588 185.999042 
L 476.888099 185.947486 
L 476.851951 185.817785 
L 476.719149 186.381003 
L 476.683335 186.422751 
L 476.620493 186.33109 
L 476.274244 185.598937 
L 476.432246 185.678924 
L 476.60406 185.470718 
L 476.635258 185.509377 
L 476.696483 185.852572 
L 476.592774 186.354335 
L 476.403755 186.430472 
L 475.919539 186.264791 
L 475.62407 186.261018 
L 475.61553 186.400015 
L 475.621574 186.405266 
L 475.732516 186.357757 
L 476.735385 185.364688 
L 477.035837 185.495527 
L 477.239329 185.71162 
L 476.779474 185.38849 
L 476.522349 185.549764 
L 476.1209 185.951137 
L 476.078608 185.900225 
L 475.998678 185.578181 
L 476.002142 185.576835 
L 476.116854 185.671875 
L 476.353052 185.891207 
L 476.390546 185.837727 
L 476.458238 185.420752 
L 476.46227 185.217756 
L 476.449977 185.577035 
L 476.349031 185.371868 
L 476.176143 185.090738 
L 476.142818 185.190372 
L 476.215679 185.634991 
L 476.212378 185.805486 
L 476.098884 185.547078 
L 475.892559 185.132741 
L 476.137854 185.374808 
L 476.369831 185.159799 
L 476.784388 184.838294 
L 476.973238 185.004658 
L 477.071925 185.387541 
L 477.01852 185.530182 
L 476.961575 185.518406 
L 476.163006 185.288261 
L 475.995844 185.508918 
L 475.966286 185.589084 
L 476.310427 184.991582 
L 476.531059 185.095412 
L 476.727132 185.448984 
L 476.384489 185.102405 
L 476.207873 185.188896 
L 476.016397 185.571261 
L 475.968039 185.324548 
L 476.007256 185.111473 
L 476.071325 185.155645 
L 476.267515 185.52358 
L 476.229548 185.175192 
L 476.173396 185.043669 
L 476.176942 185.400491 
L 476.204206 185.512128 
L 476.246899 185.086505 
L 476.278145 185.011064 
L 476.352121 185.126735 
L 476.429171 185.432447 
L 476.267147 185.069039 
L 476.229737 185.112521 
L 476.060898 185.579454 
L 475.965737 185.444286 
L 475.798031 185.102507 
L 476.100452 185.476068 
L 476.296788 185.392124 
L 476.925708 184.948188 
L 477.020082 185.200408 
L 476.974572 185.353197 
L 476.922788 185.338557 
L 476.110095 185.018564 
L 475.933699 185.232113 
L 475.860642 185.456636 
L 476.104379 185.094282 
L 476.305239 185.148927 
L 476.605684 185.464599 
L 476.73098 185.572437 
L 476.74094 185.470396 
L 476.563538 185.139941 
L 476.389257 185.155629 
L 475.945769 185.344906 
L 475.659479 184.857913 
L 476.082051 185.358187 
L 476.371047 185.372779 
L 477.290693 185.183283 
L 477.393641 185.470343 
L 477.300743 185.685518 
L 477.080114 185.612784 
L 475.936658 185.119219 
L 475.712427 185.254348 
L 475.701853 185.360745 
L 475.801619 185.309921 
L 476.318417 185.073909 
L 476.67541 185.119501 
L 477.06565 185.398859 
L 477.318647 185.855876 
L 477.316567 186.058242 
L 477.271593 186.060038 
L 476.673696 185.828414 
L 476.209138 185.783228 
L 475.974129 185.871991 
L 476.010296 185.701393 
L 476.303984 185.137736 
L 476.620053 184.894897 
L 476.937031 184.931725 
L 477.209619 185.185268 
L 477.329562 185.384003 
L 477.185265 185.342552 
L 476.903194 185.404051 
L 476.511372 185.809214 
L 476.195507 186.060496 
L 476.010705 185.91759 
L 475.744021 185.399398 
L 475.747988 185.232927 
L 475.802299 185.229394 
L 476.781915 185.203736 
L 477.88581 184.761094 
L 478.040521 184.947131 
L 478.031334 185.274532 
L 477.824137 185.616843 
L 477.509237 185.752405 
L 476.819952 185.737391 
L 475.224975 185.668846 
L 475.076628 185.778255 
L 475.076628 185.778255 
" style="fill:none;stroke:#d62728;stroke-linecap:square;stroke-opacity:0.7;stroke-width:1.5;"/>
   </g>
   <g id="line2d_25">
    <path clip-path="url(#pbe76091eca)" d="M 94.624692 379.309284 
L 485.631157 174.735568 
L 485.631157 174.735568 
" style="fill:none;stroke:#000000;stroke-dasharray:5.55,2.4;stroke-dashoffset:0;stroke-opacity:0.595;stroke-width:1.5;"/>
   </g>
   <g id="legend_1">
    <g id="patch_6">
     <path d="M 473.09375 63.1125 
L 558.2 63.1125 
Q 560.2 63.1125 560.2 61.1125 
L 560.2 17.8 
Q 560.2 15.8 558.2 15.8 
L 473.09375 15.8 
Q 471.09375 15.8 471.09375 17.8 
L 471.09375 61.1125 
Q 471.09375 63.1125 473.09375 63.1125 
z
" style="fill:#ffffff;opacity:0.8;stroke:#cccccc;stroke-linejoin:miter;"/>
    </g>
    <g id="line2d_26">
     <path d="M 475.09375 23.898438 
L 495.09375 23.898438 
" style="fill:none;stroke:#1f77b4;stroke-linecap:square;stroke-opacity:0.7;stroke-width:1.5;"/>
    </g>
    <g id="line2d_27"/>
    <g id="text_23">
     <!-- DSLPID -->
     <g transform="translate(503.09375 27.398438)scale(0.1 -0.1)">
      <defs>
       <path d="M 1259 4147 
L 1259 519 
L 2022 519 
Q 2988 519 3436 956 
Q 3884 1394 3884 2338 
Q 3884 3275 3436 3711 
Q 2988 4147 2022 4147 
L 1259 4147 
z
M 628 4666 
L 1925 4666 
Q 3281 4666 3915 4102 
Q 4550 3538 4550 2338 
Q 4550 1131 3912 565 
Q 3275 0 1925 0 
L 628 0 
L 628 4666 
z
" id="DejaVuSans-44" transform="scale(0.015625)"/>
       <path d="M 3425 4513 
L 3425 3897 
Q 3066 4069 2747 4153 
Q 2428 4238 2131 4238 
Q 1616 4238 1336 4038 
Q 1056 3838 1056 3469 
Q 1056 3159 1242 3001 
Q 1428 2844 1947 2747 
L 2328 2669 
Q 3034 2534 3370 2195 
Q 3706 1856 3706 1288 
Q 3706 609 3251 259 
Q 2797 -91 1919 -91 
Q 1588 -91 1214 -16 
Q 841 59 441 206 
L 441 856 
Q 825 641 1194 531 
Q 1563 422 1919 422 
Q 2459 422 2753 634 
Q 3047 847 3047 1241 
Q 3047 1584 2836 1778 
Q 2625 1972 2144 2069 
L 1759 2144 
Q 1053 2284 737 2584 
Q 422 2884 422 3419 
Q 422 4038 858 4394 
Q 1294 4750 2059 4750 
Q 2388 4750 2728 4690 
Q 3069 4631 3425 4513 
z
" id="DejaVuSans-53" transform="scale(0.015625)"/>
       <path d="M 628 4666 
L 1259 4666 
L 1259 531 
L 3531 531 
L 3531 0 
L 628 0 
L 628 4666 
z
" id="DejaVuSans-4c" transform="scale(0.015625)"/>
       <path d="M 1259 4147 
L 1259 2394 
L 2053 2394 
Q 2494 2394 2734 2622 
Q 2975 2850 2975 3272 
Q 2975 3691 2734 3919 
Q 2494 4147 2053 4147 
L 1259 4147 
z
M 628 4666 
L 2053 4666 
Q 2838 4666 3239 4311 
Q 3641 3956 3641 3272 
Q 3641 2581 3239 2228 
Q 2838 1875 2053 1875 
L 1259 1875 
L 1259 0 
L 628 0 
L 628 4666 
z
" id="DejaVuSans-50" transform="scale(0.015625)"/>
       <path d="M 628 4666 
L 1259 4666 
L 1259 0 
L 628 0 
L 628 4666 
z
" id="DejaVuSans-49" transform="scale(0.015625)"/>
      </defs>
      <use xlink:href="#DejaVuSans-44"/>
      <use x="77.001953" xlink:href="#DejaVuSans-53"/>
      <use x="140.478516" xlink:href="#DejaVuSans-4c"/>
      <use x="196.191406" xlink:href="#DejaVuSans-50"/>
      <use x="256.494141" xlink:href="#DejaVuSans-49"/>
      <use x="285.986328" xlink:href="#DejaVuSans-44"/>
     </g>
    </g>
    <g id="line2d_28">
     <path d="M 475.09375 38.576563 
L 495.09375 38.576563 
" style="fill:none;stroke:#d62728;stroke-linecap:square;stroke-opacity:0.7;stroke-width:1.5;"/>
    </g>
    <g id="line2d_29"/>
    <g id="text_24">
     <!-- ANN_3 -->
     <g transform="translate(503.09375 42.076563)scale(0.1 -0.1)">
      <defs>
       <path d="M 2188 4044 
L 1331 1722 
L 3047 1722 
L 2188 4044 
z
M 1831 4666 
L 2547 4666 
L 4325 0 
L 3669 0 
L 3244 1197 
L 1141 1197 
L 716 0 
L 50 0 
L 1831 4666 
z
" id="DejaVuSans-41" transform="scale(0.015625)"/>
       <path d="M 628 4666 
L 1478 4666 
L 3547 763 
L 3547 4666 
L 4159 4666 
L 4159 0 
L 3309 0 
L 1241 3903 
L 1241 0 
L 628 0 
L 628 4666 
z
" id="DejaVuSans-4e" transform="scale(0.015625)"/>
       <path d="M 3263 -1063 
L 3263 -1509 
L -63 -1509 
L -63 -1063 
L 3263 -1063 
z
" id="DejaVuSans-5f" transform="scale(0.015625)"/>
       <path d="M 2597 2516 
Q 3050 2419 3304 2112 
Q 3559 1806 3559 1356 
Q 3559 666 3084 287 
Q 2609 -91 1734 -91 
Q 1441 -91 1130 -33 
Q 819 25 488 141 
L 488 750 
Q 750 597 1062 519 
Q 1375 441 1716 441 
Q 2309 441 2620 675 
Q 2931 909 2931 1356 
Q 2931 1769 2642 2001 
Q 2353 2234 1838 2234 
L 1294 2234 
L 1294 2753 
L 1863 2753 
Q 2328 2753 2575 2939 
Q 2822 3125 2822 3475 
Q 2822 3834 2567 4026 
Q 2313 4219 1838 4219 
Q 1578 4219 1281 4162 
Q 984 4106 628 3988 
L 628 4550 
Q 988 4650 1302 4700 
Q 1616 4750 1894 4750 
Q 2613 4750 3031 4423 
Q 3450 4097 3450 3541 
Q 3450 3153 3228 2886 
Q 3006 2619 2597 2516 
z
" id="DejaVuSans-33" transform="scale(0.015625)"/>
      </defs>
      <use xlink:href="#DejaVuSans-41"/>
      <use x="68.408203" xlink:href="#DejaVuSans-4e"/>
      <use x="143.212891" xlink:href="#DejaVuSans-4e"/>
      <use x="218.017578" xlink:href="#DejaVuSans-5f"/>
      <use x="268.017578" xlink:href="#DejaVuSans-33"/>
     </g>
    </g>
    <g id="line2d_30">
     <path d="M 475.09375 53.532813 
L 495.09375 53.532813 
" style="fill:none;stroke:#000000;stroke-dasharray:5.55,2.4;stroke-dashoffset:0;stroke-opacity:0.595;stroke-width:1.5;"/>
    </g>
    <g id="line2d_31"/>
    <g id="text_25">
     <!-- Referencia -->
     <g transform="translate(503.09375 57.032813)scale(0.1 -0.1)">
      <defs>
       <path d="M 2841 2188 
Q 3044 2119 3236 1894 
Q 3428 1669 3622 1275 
L 4263 0 
L 3584 0 
L 2988 1197 
Q 2756 1666 2539 1819 
Q 2322 1972 1947 1972 
L 1259 1972 
L 1259 0 
L 628 0 
L 628 4666 
L 2053 4666 
Q 2853 4666 3247 4331 
Q 3641 3997 3641 3322 
Q 3641 2881 3436 2590 
Q 3231 2300 2841 2188 
z
M 1259 4147 
L 1259 2491 
L 2053 2491 
Q 2509 2491 2742 2702 
Q 2975 2913 2975 3322 
Q 2975 3731 2742 3939 
Q 2509 4147 2053 4147 
L 1259 4147 
z
" id="DejaVuSans-52" transform="scale(0.015625)"/>
       <path d="M 3597 1894 
L 3597 1613 
L 953 1613 
Q 991 1019 1311 708 
Q 1631 397 2203 397 
Q 2534 397 2845 478 
Q 3156 559 3463 722 
L 3463 178 
Q 3153 47 2828 -22 
Q 2503 -91 2169 -91 
Q 1331 -91 842 396 
Q 353 884 353 1716 
Q 353 2575 817 3079 
Q 1281 3584 2069 3584 
Q 2775 3584 3186 3129 
Q 3597 2675 3597 1894 
z
M 3022 2063 
Q 3016 2534 2758 2815 
Q 2500 3097 2075 3097 
Q 1594 3097 1305 2825 
Q 1016 2553 972 2059 
L 3022 2063 
z
" id="DejaVuSans-65" transform="scale(0.015625)"/>
       <path d="M 2375 4863 
L 2375 4384 
L 1825 4384 
Q 1516 4384 1395 4259 
Q 1275 4134 1275 3809 
L 1275 3500 
L 2222 3500 
L 2222 3053 
L 1275 3053 
L 1275 0 
L 697 0 
L 697 3053 
L 147 3053 
L 147 3500 
L 697 3500 
L 697 3744 
Q 697 4328 969 4595 
Q 1241 4863 1831 4863 
L 2375 4863 
z
" id="DejaVuSans-66" transform="scale(0.015625)"/>
       <path d="M 2631 2963 
Q 2534 3019 2420 3045 
Q 2306 3072 2169 3072 
Q 1681 3072 1420 2755 
Q 1159 2438 1159 1844 
L 1159 0 
L 581 0 
L 581 3500 
L 1159 3500 
L 1159 2956 
Q 1341 3275 1631 3429 
Q 1922 3584 2338 3584 
Q 2397 3584 2469 3576 
Q 2541 3569 2628 3553 
L 2631 2963 
z
" id="DejaVuSans-72" transform="scale(0.015625)"/>
       <path d="M 3513 2113 
L 3513 0 
L 2938 0 
L 2938 2094 
Q 2938 2591 2744 2837 
Q 2550 3084 2163 3084 
Q 1697 3084 1428 2787 
Q 1159 2491 1159 1978 
L 1159 0 
L 581 0 
L 581 3500 
L 1159 3500 
L 1159 2956 
Q 1366 3272 1645 3428 
Q 1925 3584 2291 3584 
Q 2894 3584 3203 3211 
Q 3513 2838 3513 2113 
z
" id="DejaVuSans-6e" transform="scale(0.015625)"/>
       <path d="M 3122 3366 
L 3122 2828 
Q 2878 2963 2633 3030 
Q 2388 3097 2138 3097 
Q 1578 3097 1268 2742 
Q 959 2388 959 1747 
Q 959 1106 1268 751 
Q 1578 397 2138 397 
Q 2388 397 2633 464 
Q 2878 531 3122 666 
L 3122 134 
Q 2881 22 2623 -34 
Q 2366 -91 2075 -91 
Q 1284 -91 818 406 
Q 353 903 353 1747 
Q 353 2603 823 3093 
Q 1294 3584 2113 3584 
Q 2378 3584 2631 3529 
Q 2884 3475 3122 3366 
z
" id="DejaVuSans-63" transform="scale(0.015625)"/>
       <path d="M 603 3500 
L 1178 3500 
L 1178 0 
L 603 0 
L 603 3500 
z
M 603 4863 
L 1178 4863 
L 1178 4134 
L 603 4134 
L 603 4863 
z
" id="DejaVuSans-69" transform="scale(0.015625)"/>
       <path d="M 2194 1759 
Q 1497 1759 1228 1600 
Q 959 1441 959 1056 
Q 959 750 1161 570 
Q 1363 391 1709 391 
Q 2188 391 2477 730 
Q 2766 1069 2766 1631 
L 2766 1759 
L 2194 1759 
z
M 3341 1997 
L 3341 0 
L 2766 0 
L 2766 531 
Q 2569 213 2275 61 
Q 1981 -91 1556 -91 
Q 1019 -91 701 211 
Q 384 513 384 1019 
Q 384 1609 779 1909 
Q 1175 2209 1959 2209 
L 2766 2209 
L 2766 2266 
Q 2766 2663 2505 2880 
Q 2244 3097 1772 3097 
Q 1472 3097 1187 3025 
Q 903 2953 641 2809 
L 641 3341 
Q 956 3463 1253 3523 
Q 1550 3584 1831 3584 
Q 2591 3584 2966 3190 
Q 3341 2797 3341 1997 
z
" id="DejaVuSans-61" transform="scale(0.015625)"/>
      </defs>
      <use xlink:href="#DejaVuSans-52"/>
      <use x="64.982422" xlink:href="#DejaVuSans-65"/>
      <use x="126.505859" xlink:href="#DejaVuSans-66"/>
      <use x="161.710938" xlink:href="#DejaVuSans-65"/>
      <use x="223.234375" xlink:href="#DejaVuSans-72"/>
      <use x="262.097656" xlink:href="#DejaVuSans-65"/>
      <use x="323.621094" xlink:href="#DejaVuSans-6e"/>
      <use x="387" xlink:href="#DejaVuSans-63"/>
      <use x="441.980469" xlink:href="#DejaVuSans-69"/>
      <use x="469.763672" xlink:href="#DejaVuSans-61"/>
     </g>
    </g>
   </g>
  </g>
 </g>
 <defs>
  <clipPath id="pbe76091eca">
   <rect height="554.4" width="554.4" x="10.8" y="10.8"/>
  </clipPath>
 </defs>
</svg>
