<?xml version="1.0" encoding="utf-8" standalone="no"?>
<!DOCTYPE svg PUBLIC "-//W3C//DTD SVG 1.1//EN"
  "http://www.w3.org/Graphics/SVG/1.1/DTD/svg11.dtd">
<svg height="576pt" version="1.1" viewBox="0 0 576 576" width="576pt" xmlns="http://www.w3.org/2000/svg" xmlns:xlink="http://www.w3.org/1999/xlink">
 <metadata>
  <rdf:RDF xmlns:cc="http://creativecommons.org/ns#" xmlns:dc="http://purl.org/dc/elements/1.1/" xmlns:rdf="http://www.w3.org/1999/02/22-rdf-syntax-ns#">
   <cc:Work>
    <dc:type rdf:resource="http://purl.org/dc/dcmitype/StillImage"/>
    <dc:date>2022-02-26T04:13:36.922784</dc:date>
    <dc:format>image/svg+xml</dc:format>
    <dc:creator>
     <cc:Agent>
      <dc:title>Matplotlib v3.4.3, https://matplotlib.org/</dc:title>
     </cc:Agent>
    </dc:creator>
   </cc:Work>
  </rdf:RDF>
 </metadata>
 <defs>
  <style type="text/css">*{stroke-linecap:butt;stroke-linejoin:round;}</style>
 </defs>
 <g id="figure_1">
  <g id="patch_1">
   <path d="M 0 576 
L 576 576 
L 576 0 
L 0 0 
z
" style="fill:#ffffff;"/>
  </g>
  <g id="patch_2">
   <path d="M 23.4 565.2 
L 552.6 565.2 
L 552.6 36 
L 23.4 36 
z
" style="fill:#ffffff;"/>
  </g>
  <g id="pane3d_1">
   <g id="patch_3">
    <path d="M 63.358249 434.71624 
L 238.117372 288.229677 
L 235.688053 76.969868 
L 52.565805 210.604144 
" style="fill:#f2f2f2;opacity:0.5;stroke:#f2f2f2;stroke-linejoin:miter;"/>
   </g>
  </g>
  <g id="pane3d_2">
   <g id="patch_4">
    <path d="M 238.117372 288.229677 
L 518.54341 369.738455 
L 528.550827 151.202044 
L 235.688053 76.969868 
" style="fill:#e6e6e6;opacity:0.5;stroke:#e6e6e6;stroke-linejoin:miter;"/>
   </g>
  </g>
  <g id="pane3d_3">
   <g id="patch_5">
    <path d="M 63.358249 434.71624 
L 360.623546 531.803085 
L 518.54341 369.738455 
L 238.117372 288.229677 
" style="fill:#ececec;opacity:0.5;stroke:#ececec;stroke-linejoin:miter;"/>
   </g>
  </g>
  <g id="axis3d_1">
   <g id="line2d_1">
    <path d="M 63.358249 434.71624 
L 360.623546 531.803085 
" style="fill:none;stroke:#000000;stroke-linecap:square;stroke-width:0.8;"/>
   </g>
   <g id="text_1">
    <!-- x (m) -->
    <g transform="translate(178.329241 515.594496)rotate(-341.912962)scale(0.1 -0.1)">
     <defs>
      <path d="M 3513 3500 
L 2247 1797 
L 3578 0 
L 2900 0 
L 1881 1375 
L 863 0 
L 184 0 
L 1544 1831 
L 300 3500 
L 978 3500 
L 1906 2253 
L 2834 3500 
L 3513 3500 
z
" id="DejaVuSans-78" transform="scale(0.015625)"/>
      <path id="DejaVuSans-20" transform="scale(0.015625)"/>
      <path d="M 1984 4856 
Q 1566 4138 1362 3434 
Q 1159 2731 1159 2009 
Q 1159 1288 1364 580 
Q 1569 -128 1984 -844 
L 1484 -844 
Q 1016 -109 783 600 
Q 550 1309 550 2009 
Q 550 2706 781 3412 
Q 1013 4119 1484 4856 
L 1984 4856 
z
" id="DejaVuSans-28" transform="scale(0.015625)"/>
      <path d="M 3328 2828 
Q 3544 3216 3844 3400 
Q 4144 3584 4550 3584 
Q 5097 3584 5394 3201 
Q 5691 2819 5691 2113 
L 5691 0 
L 5113 0 
L 5113 2094 
Q 5113 2597 4934 2840 
Q 4756 3084 4391 3084 
Q 3944 3084 3684 2787 
Q 3425 2491 3425 1978 
L 3425 0 
L 2847 0 
L 2847 2094 
Q 2847 2600 2669 2842 
Q 2491 3084 2119 3084 
Q 1678 3084 1418 2786 
Q 1159 2488 1159 1978 
L 1159 0 
L 581 0 
L 581 3500 
L 1159 3500 
L 1159 2956 
Q 1356 3278 1631 3431 
Q 1906 3584 2284 3584 
Q 2666 3584 2933 3390 
Q 3200 3197 3328 2828 
z
" id="DejaVuSans-6d" transform="scale(0.015625)"/>
      <path d="M 513 4856 
L 1013 4856 
Q 1481 4119 1714 3412 
Q 1947 2706 1947 2009 
Q 1947 1309 1714 600 
Q 1481 -109 1013 -844 
L 513 -844 
Q 928 -128 1133 580 
Q 1338 1288 1338 2009 
Q 1338 2731 1133 3434 
Q 928 4138 513 4856 
z
" id="DejaVuSans-29" transform="scale(0.015625)"/>
     </defs>
     <use xlink:href="#DejaVuSans-78"/>
     <use x="59.179688" xlink:href="#DejaVuSans-20"/>
     <use x="90.966797" xlink:href="#DejaVuSans-28"/>
     <use x="129.980469" xlink:href="#DejaVuSans-6d"/>
     <use x="227.392578" xlink:href="#DejaVuSans-29"/>
    </g>
   </g>
   <g id="Line3DCollection_1">
    <path d="M 77.621151 439.374503 
L 251.628987 292.15697 
L 249.770573 80.539377 
" style="fill:none;stroke:#b0b0b0;stroke-width:0.8;"/>
    <path d="M 112.538388 450.778473 
L 284.682789 301.764406 
L 284.233066 89.274614 
" style="fill:none;stroke:#b0b0b0;stroke-width:0.8;"/>
    <path d="M 147.90152 462.328071 
L 318.123713 311.484362 
L 319.116623 98.116579 
" style="fill:none;stroke:#b0b0b0;stroke-width:0.8;"/>
    <path d="M 183.71914 474.026106 
L 351.9586 321.318828 
L 354.429009 107.067239 
" style="fill:none;stroke:#b0b0b0;stroke-width:0.8;"/>
    <path d="M 220.000068 485.875457 
L 386.194451 331.269838 
L 390.178181 116.128612 
" style="fill:none;stroke:#b0b0b0;stroke-width:0.8;"/>
    <path d="M 256.753352 497.879079 
L 420.838438 341.339477 
L 426.372293 125.302765 
" style="fill:none;stroke:#b0b0b0;stroke-width:0.8;"/>
    <path d="M 293.988276 510.040006 
L 455.897902 351.529879 
L 463.019703 134.591815 
" style="fill:none;stroke:#b0b0b0;stroke-width:0.8;"/>
    <path d="M 331.714371 522.361348 
L 491.380362 361.84323 
L 500.128982 143.997935 
" style="fill:none;stroke:#b0b0b0;stroke-width:0.8;"/>
   </g>
   <g id="xtick_1">
    <g id="line2d_2">
     <path d="M 79.136317 438.092612 
L 74.58432 441.943782 
" style="fill:none;stroke:#000000;stroke-linecap:square;stroke-width:0.8;"/>
    </g>
    <g id="text_2">
     <!-- −0.030 -->
     <g transform="translate(51.600222 462.641722)scale(0.1 -0.1)">
      <defs>
       <path d="M 678 2272 
L 4684 2272 
L 4684 1741 
L 678 1741 
L 678 2272 
z
" id="DejaVuSans-2212" transform="scale(0.015625)"/>
       <path d="M 2034 4250 
Q 1547 4250 1301 3770 
Q 1056 3291 1056 2328 
Q 1056 1369 1301 889 
Q 1547 409 2034 409 
Q 2525 409 2770 889 
Q 3016 1369 3016 2328 
Q 3016 3291 2770 3770 
Q 2525 4250 2034 4250 
z
M 2034 4750 
Q 2819 4750 3233 4129 
Q 3647 3509 3647 2328 
Q 3647 1150 3233 529 
Q 2819 -91 2034 -91 
Q 1250 -91 836 529 
Q 422 1150 422 2328 
Q 422 3509 836 4129 
Q 1250 4750 2034 4750 
z
" id="DejaVuSans-30" transform="scale(0.015625)"/>
       <path d="M 684 794 
L 1344 794 
L 1344 0 
L 684 0 
L 684 794 
z
" id="DejaVuSans-2e" transform="scale(0.015625)"/>
       <path d="M 2597 2516 
Q 3050 2419 3304 2112 
Q 3559 1806 3559 1356 
Q 3559 666 3084 287 
Q 2609 -91 1734 -91 
Q 1441 -91 1130 -33 
Q 819 25 488 141 
L 488 750 
Q 750 597 1062 519 
Q 1375 441 1716 441 
Q 2309 441 2620 675 
Q 2931 909 2931 1356 
Q 2931 1769 2642 2001 
Q 2353 2234 1838 2234 
L 1294 2234 
L 1294 2753 
L 1863 2753 
Q 2328 2753 2575 2939 
Q 2822 3125 2822 3475 
Q 2822 3834 2567 4026 
Q 2313 4219 1838 4219 
Q 1578 4219 1281 4162 
Q 984 4106 628 3988 
L 628 4550 
Q 988 4650 1302 4700 
Q 1616 4750 1894 4750 
Q 2613 4750 3031 4423 
Q 3450 4097 3450 3541 
Q 3450 3153 3228 2886 
Q 3006 2619 2597 2516 
z
" id="DejaVuSans-33" transform="scale(0.015625)"/>
      </defs>
      <use xlink:href="#DejaVuSans-2212"/>
      <use x="83.789062" xlink:href="#DejaVuSans-30"/>
      <use x="147.412109" xlink:href="#DejaVuSans-2e"/>
      <use x="179.199219" xlink:href="#DejaVuSans-30"/>
      <use x="242.822266" xlink:href="#DejaVuSans-33"/>
      <use x="306.445312" xlink:href="#DejaVuSans-30"/>
     </g>
    </g>
   </g>
   <g id="xtick_2">
    <g id="line2d_3">
     <path d="M 114.038102 449.48027 
L 109.53249 453.380481 
" style="fill:none;stroke:#000000;stroke-linecap:square;stroke-width:0.8;"/>
    </g>
    <g id="text_3">
     <!-- −0.025 -->
     <g transform="translate(86.535197 474.166687)scale(0.1 -0.1)">
      <defs>
       <path d="M 1228 531 
L 3431 531 
L 3431 0 
L 469 0 
L 469 531 
Q 828 903 1448 1529 
Q 2069 2156 2228 2338 
Q 2531 2678 2651 2914 
Q 2772 3150 2772 3378 
Q 2772 3750 2511 3984 
Q 2250 4219 1831 4219 
Q 1534 4219 1204 4116 
Q 875 4013 500 3803 
L 500 4441 
Q 881 4594 1212 4672 
Q 1544 4750 1819 4750 
Q 2544 4750 2975 4387 
Q 3406 4025 3406 3419 
Q 3406 3131 3298 2873 
Q 3191 2616 2906 2266 
Q 2828 2175 2409 1742 
Q 1991 1309 1228 531 
z
" id="DejaVuSans-32" transform="scale(0.015625)"/>
       <path d="M 691 4666 
L 3169 4666 
L 3169 4134 
L 1269 4134 
L 1269 2991 
Q 1406 3038 1543 3061 
Q 1681 3084 1819 3084 
Q 2600 3084 3056 2656 
Q 3513 2228 3513 1497 
Q 3513 744 3044 326 
Q 2575 -91 1722 -91 
Q 1428 -91 1123 -41 
Q 819 9 494 109 
L 494 744 
Q 775 591 1075 516 
Q 1375 441 1709 441 
Q 2250 441 2565 725 
Q 2881 1009 2881 1497 
Q 2881 1984 2565 2268 
Q 2250 2553 1709 2553 
Q 1456 2553 1204 2497 
Q 953 2441 691 2322 
L 691 4666 
z
" id="DejaVuSans-35" transform="scale(0.015625)"/>
      </defs>
      <use xlink:href="#DejaVuSans-2212"/>
      <use x="83.789062" xlink:href="#DejaVuSans-30"/>
      <use x="147.412109" xlink:href="#DejaVuSans-2e"/>
      <use x="179.199219" xlink:href="#DejaVuSans-30"/>
      <use x="242.822266" xlink:href="#DejaVuSans-32"/>
      <use x="306.445312" xlink:href="#DejaVuSans-35"/>
     </g>
    </g>
   </g>
   <g id="xtick_3">
    <g id="line2d_4">
     <path d="M 149.38526 461.013244 
L 144.927595 464.963437 
" style="fill:none;stroke:#000000;stroke-linecap:square;stroke-width:0.8;"/>
    </g>
    <g id="text_4">
     <!-- −0.020 -->
     <g transform="translate(121.917134 485.839103)scale(0.1 -0.1)">
      <use xlink:href="#DejaVuSans-2212"/>
      <use x="83.789062" xlink:href="#DejaVuSans-30"/>
      <use x="147.412109" xlink:href="#DejaVuSans-2e"/>
      <use x="179.199219" xlink:href="#DejaVuSans-30"/>
      <use x="242.822266" xlink:href="#DejaVuSans-32"/>
      <use x="306.445312" xlink:href="#DejaVuSans-30"/>
     </g>
    </g>
   </g>
   <g id="xtick_4">
    <g id="line2d_5">
     <path d="M 185.186372 472.694332 
L 180.778263 476.695476 
" style="fill:none;stroke:#000000;stroke-linecap:square;stroke-width:0.8;"/>
    </g>
    <g id="text_5">
     <!-- −0.015 -->
     <g transform="translate(157.754666 497.66182)scale(0.1 -0.1)">
      <defs>
       <path d="M 794 531 
L 1825 531 
L 1825 4091 
L 703 3866 
L 703 4441 
L 1819 4666 
L 2450 4666 
L 2450 531 
L 3481 531 
L 3481 0 
L 794 0 
L 794 531 
z
" id="DejaVuSans-31" transform="scale(0.015625)"/>
      </defs>
      <use xlink:href="#DejaVuSans-2212"/>
      <use x="83.789062" xlink:href="#DejaVuSans-30"/>
      <use x="147.412109" xlink:href="#DejaVuSans-2e"/>
      <use x="179.199219" xlink:href="#DejaVuSans-30"/>
      <use x="242.822266" xlink:href="#DejaVuSans-31"/>
      <use x="306.445312" xlink:href="#DejaVuSans-35"/>
     </g>
    </g>
   </g>
   <g id="xtick_5">
    <g id="line2d_6">
     <path d="M 221.450239 484.526407 
L 217.093346 488.579493 
" style="fill:none;stroke:#000000;stroke-linecap:square;stroke-width:0.8;"/>
    </g>
    <g id="text_6">
     <!-- −0.010 -->
     <g transform="translate(194.056651 509.637758)scale(0.1 -0.1)">
      <use xlink:href="#DejaVuSans-2212"/>
      <use x="83.789062" xlink:href="#DejaVuSans-30"/>
      <use x="147.412109" xlink:href="#DejaVuSans-2e"/>
      <use x="179.199219" xlink:href="#DejaVuSans-30"/>
      <use x="242.822266" xlink:href="#DejaVuSans-31"/>
      <use x="306.445312" xlink:href="#DejaVuSans-30"/>
     </g>
    </g>
   </g>
   <g id="xtick_6">
    <g id="line2d_7">
     <path d="M 258.185892 496.512415 
L 253.881928 500.61846 
" style="fill:none;stroke:#000000;stroke-linecap:square;stroke-width:0.8;"/>
    </g>
    <g id="text_7">
     <!-- −0.005 -->
     <g transform="translate(230.832174 521.769916)scale(0.1 -0.1)">
      <use xlink:href="#DejaVuSans-2212"/>
      <use x="83.789062" xlink:href="#DejaVuSans-30"/>
      <use x="147.412109" xlink:href="#DejaVuSans-2e"/>
      <use x="179.199219" xlink:href="#DejaVuSans-30"/>
      <use x="242.822266" xlink:href="#DejaVuSans-30"/>
      <use x="306.445312" xlink:href="#DejaVuSans-35"/>
     </g>
    </g>
   </g>
   <g id="xtick_7">
    <g id="line2d_8">
     <path d="M 295.402598 508.655379 
L 291.153328 512.81543 
" style="fill:none;stroke:#000000;stroke-linecap:square;stroke-width:0.8;"/>
    </g>
    <g id="text_8">
     <!-- 0.000 -->
     <g transform="translate(272.280408 534.06137)scale(0.1 -0.1)">
      <use xlink:href="#DejaVuSans-30"/>
      <use x="63.623047" xlink:href="#DejaVuSans-2e"/>
      <use x="95.410156" xlink:href="#DejaVuSans-30"/>
      <use x="159.033203" xlink:href="#DejaVuSans-30"/>
      <use x="222.65625" xlink:href="#DejaVuSans-30"/>
     </g>
    </g>
   </g>
   <g id="xtick_8">
    <g id="line2d_9">
     <path d="M 333.109868 520.958404 
L 328.917116 525.173532 
" style="fill:none;stroke:#000000;stroke-linecap:square;stroke-width:0.8;"/>
    </g>
    <g id="text_9">
     <!-- 0.005 -->
     <g transform="translate(310.031237 546.515279)scale(0.1 -0.1)">
      <use xlink:href="#DejaVuSans-30"/>
      <use x="63.623047" xlink:href="#DejaVuSans-2e"/>
      <use x="95.410156" xlink:href="#DejaVuSans-30"/>
      <use x="159.033203" xlink:href="#DejaVuSans-30"/>
      <use x="222.65625" xlink:href="#DejaVuSans-35"/>
     </g>
    </g>
   </g>
  </g>
  <g id="axis3d_2">
   <g id="line2d_10">
    <path d="M 518.54341 369.738455 
L 360.623546 531.803085 
" style="fill:none;stroke:#000000;stroke-linecap:square;stroke-width:0.8;"/>
   </g>
   <g id="text_10">
    <!-- y (m) -->
    <g transform="translate(462.753334 486.601399)rotate(-45.742112)scale(0.1 -0.1)">
     <defs>
      <path d="M 2059 -325 
Q 1816 -950 1584 -1140 
Q 1353 -1331 966 -1331 
L 506 -1331 
L 506 -850 
L 844 -850 
Q 1081 -850 1212 -737 
Q 1344 -625 1503 -206 
L 1606 56 
L 191 3500 
L 800 3500 
L 1894 763 
L 2988 3500 
L 3597 3500 
L 2059 -325 
z
" id="DejaVuSans-79" transform="scale(0.015625)"/>
     </defs>
     <use xlink:href="#DejaVuSans-79"/>
     <use x="59.179688" xlink:href="#DejaVuSans-20"/>
     <use x="90.966797" xlink:href="#DejaVuSans-28"/>
     <use x="129.980469" xlink:href="#DejaVuSans-6d"/>
     <use x="227.392578" xlink:href="#DejaVuSans-29"/>
    </g>
   </g>
   <g id="Line3DCollection_2">
    <path d="M 57.17947 207.237301 
L 67.744942 431.039227 
L 364.604648 527.717495 
" style="fill:none;stroke:#b0b0b0;stroke-width:0.8;"/>
    <path d="M 84.453803 187.333736 
L 93.69462 409.287692 
L 388.136962 503.567552 
" style="fill:none;stroke:#b0b0b0;stroke-width:0.8;"/>
    <path d="M 111.043242 167.929975 
L 119.020904 388.058699 
L 411.074177 480.028326 
" style="fill:none;stroke:#b0b0b0;stroke-width:0.8;"/>
    <path d="M 136.973263 149.007426 
L 143.74599 367.333642 
L 433.438588 457.076939 
" style="fill:none;stroke:#b0b0b0;stroke-width:0.8;"/>
    <path d="M 162.268098 130.548408 
L 167.891034 347.094787 
L 455.251385 434.691644 
" style="fill:none;stroke:#b0b0b0;stroke-width:0.8;"/>
    <path d="M 186.950803 112.536094 
L 191.476212 327.325223 
L 476.532727 412.851751 
" style="fill:none;stroke:#b0b0b0;stroke-width:0.8;"/>
    <path d="M 211.043332 94.954463 
L 214.520772 308.008816 
L 497.301805 391.537568 
" style="fill:none;stroke:#b0b0b0;stroke-width:0.8;"/>
   </g>
   <g id="xtick_9">
    <g id="line2d_11">
     <path d="M 362.102522 526.902628 
L 369.615396 529.349345 
" style="fill:none;stroke:#000000;stroke-linecap:square;stroke-width:0.8;"/>
    </g>
    <g id="text_11">
     <!-- −0.030 -->
     <g transform="translate(359.024316 548.788315)scale(0.1 -0.1)">
      <use xlink:href="#DejaVuSans-2212"/>
      <use x="83.789062" xlink:href="#DejaVuSans-30"/>
      <use x="147.412109" xlink:href="#DejaVuSans-2e"/>
      <use x="179.199219" xlink:href="#DejaVuSans-30"/>
      <use x="242.822266" xlink:href="#DejaVuSans-33"/>
      <use x="306.445312" xlink:href="#DejaVuSans-30"/>
     </g>
    </g>
   </g>
   <g id="xtick_10">
    <g id="line2d_12">
     <path d="M 385.656826 502.773418 
L 393.103589 505.157857 
" style="fill:none;stroke:#000000;stroke-linecap:square;stroke-width:0.8;"/>
    </g>
    <g id="text_12">
     <!-- −0.025 -->
     <g transform="translate(382.398097 524.458587)scale(0.1 -0.1)">
      <use xlink:href="#DejaVuSans-2212"/>
      <use x="83.789062" xlink:href="#DejaVuSans-30"/>
      <use x="147.412109" xlink:href="#DejaVuSans-2e"/>
      <use x="179.199219" xlink:href="#DejaVuSans-30"/>
      <use x="242.822266" xlink:href="#DejaVuSans-32"/>
      <use x="306.445312" xlink:href="#DejaVuSans-35"/>
     </g>
    </g>
   </g>
   <g id="xtick_11">
    <g id="line2d_13">
     <path d="M 408.615727 479.254143 
L 415.997298 481.578652 
" style="fill:none;stroke:#000000;stroke-linecap:square;stroke-width:0.8;"/>
    </g>
    <g id="text_13">
     <!-- −0.020 -->
     <g transform="translate(405.180616 500.744304)scale(0.1 -0.1)">
      <use xlink:href="#DejaVuSans-2212"/>
      <use x="83.789062" xlink:href="#DejaVuSans-30"/>
      <use x="147.412109" xlink:href="#DejaVuSans-2e"/>
      <use x="179.199219" xlink:href="#DejaVuSans-30"/>
      <use x="242.822266" xlink:href="#DejaVuSans-32"/>
      <use x="306.445312" xlink:href="#DejaVuSans-30"/>
     </g>
    </g>
   </g>
   <g id="xtick_12">
    <g id="line2d_14">
     <path d="M 431.00152 456.321965 
L 438.318813 458.588775 
" style="fill:none;stroke:#000000;stroke-linecap:square;stroke-width:0.8;"/>
    </g>
    <g id="text_14">
     <!-- −0.015 -->
     <g transform="translate(427.394027 477.622404)scale(0.1 -0.1)">
      <use xlink:href="#DejaVuSans-2212"/>
      <use x="83.789062" xlink:href="#DejaVuSans-30"/>
      <use x="147.412109" xlink:href="#DejaVuSans-2e"/>
      <use x="179.199219" xlink:href="#DejaVuSans-30"/>
      <use x="242.822266" xlink:href="#DejaVuSans-31"/>
      <use x="306.445312" xlink:href="#DejaVuSans-35"/>
     </g>
    </g>
   </g>
   <g id="xtick_13">
    <g id="line2d_15">
     <path d="M 452.835399 433.955172 
L 460.089319 436.166405 
" style="fill:none;stroke:#000000;stroke-linecap:square;stroke-width:0.8;"/>
    </g>
    <g id="text_15">
     <!-- −0.010 -->
     <g transform="translate(449.059392 455.070965)scale(0.1 -0.1)">
      <use xlink:href="#DejaVuSans-2212"/>
      <use x="83.789062" xlink:href="#DejaVuSans-30"/>
      <use x="147.412109" xlink:href="#DejaVuSans-2e"/>
      <use x="179.199219" xlink:href="#DejaVuSans-30"/>
      <use x="242.822266" xlink:href="#DejaVuSans-31"/>
      <use x="306.445312" xlink:href="#DejaVuSans-30"/>
     </g>
    </g>
   </g>
   <g id="xtick_14">
    <g id="line2d_16">
     <path d="M 474.137526 412.13311 
L 481.32897 414.290785 
" style="fill:none;stroke:#000000;stroke-linecap:square;stroke-width:0.8;"/>
    </g>
    <g id="text_16">
     <!-- −0.005 -->
     <g transform="translate(470.196745 433.069132)scale(0.1 -0.1)">
      <use xlink:href="#DejaVuSans-2212"/>
      <use x="83.789062" xlink:href="#DejaVuSans-30"/>
      <use x="147.412109" xlink:href="#DejaVuSans-2e"/>
      <use x="179.199219" xlink:href="#DejaVuSans-30"/>
      <use x="242.822266" xlink:href="#DejaVuSans-30"/>
      <use x="306.445312" xlink:href="#DejaVuSans-35"/>
     </g>
    </g>
   </g>
   <g id="xtick_15">
    <g id="line2d_17">
     <path d="M 494.927093 390.836117 
L 502.05695 392.942157 
" style="fill:none;stroke:#000000;stroke-linecap:square;stroke-width:0.8;"/>
    </g>
    <g id="text_17">
     <!-- 0.000 -->
     <g transform="translate(495.015 411.597056)scale(0.1 -0.1)">
      <use xlink:href="#DejaVuSans-30"/>
      <use x="63.623047" xlink:href="#DejaVuSans-2e"/>
      <use x="95.410156" xlink:href="#DejaVuSans-30"/>
      <use x="159.033203" xlink:href="#DejaVuSans-30"/>
      <use x="222.65625" xlink:href="#DejaVuSans-30"/>
     </g>
    </g>
   </g>
  </g>
  <g id="axis3d_3">
   <g id="line2d_18">
    <path d="M 518.54341 369.738455 
L 528.550827 151.202044 
" style="fill:none;stroke:#000000;stroke-linecap:square;stroke-width:0.8;"/>
   </g>
   <g id="text_18">
    <!-- z (m) -->
    <g transform="translate(566.10943 270.534657)rotate(-87.378092)scale(0.1 -0.1)">
     <defs>
      <path d="M 353 3500 
L 3084 3500 
L 3084 2975 
L 922 459 
L 3084 459 
L 3084 0 
L 275 0 
L 275 525 
L 2438 3041 
L 353 3041 
L 353 3500 
z
" id="DejaVuSans-7a" transform="scale(0.015625)"/>
     </defs>
     <use xlink:href="#DejaVuSans-7a"/>
     <use x="52.490234" xlink:href="#DejaVuSans-20"/>
     <use x="84.277344" xlink:href="#DejaVuSans-28"/>
     <use x="123.291016" xlink:href="#DejaVuSans-6d"/>
     <use x="220.703125" xlink:href="#DejaVuSans-29"/>
    </g>
   </g>
   <g id="Line3DCollection_3">
    <path d="M 519.699377 344.495084 
L 237.836235 263.781232 
L 62.113461 408.867397 
" style="fill:none;stroke:#b0b0b0;stroke-width:0.8;"/>
    <path d="M 521.465622 305.924808 
L 237.406939 226.44859 
L 60.210566 369.352561 
" style="fill:none;stroke:#b0b0b0;stroke-width:0.8;"/>
    <path d="M 523.259873 266.742952 
L 236.971164 188.552478 
L 58.27634 329.187087 
" style="fill:none;stroke:#b0b0b0;stroke-width:0.8;"/>
    <path d="M 525.082802 226.934852 
L 236.528762 150.080041 
L 56.31 288.354773 
" style="fill:none;stroke:#b0b0b0;stroke-width:0.8;"/>
    <path d="M 526.935101 186.485373 
L 236.07958 111.018033 
L 54.310741 246.838872 
" style="fill:none;stroke:#b0b0b0;stroke-width:0.8;"/>
   </g>
   <g id="xtick_16">
    <g id="line2d_19">
     <path d="M 517.333197 343.817509 
L 524.437396 345.851855 
" style="fill:none;stroke:#000000;stroke-linecap:square;stroke-width:0.8;"/>
    </g>
    <g id="text_19">
     <!-- 0.95 -->
     <g transform="translate(526.935118 349.509469)scale(0.1 -0.1)">
      <defs>
       <path d="M 703 97 
L 703 672 
Q 941 559 1184 500 
Q 1428 441 1663 441 
Q 2288 441 2617 861 
Q 2947 1281 2994 2138 
Q 2813 1869 2534 1725 
Q 2256 1581 1919 1581 
Q 1219 1581 811 2004 
Q 403 2428 403 3163 
Q 403 3881 828 4315 
Q 1253 4750 1959 4750 
Q 2769 4750 3195 4129 
Q 3622 3509 3622 2328 
Q 3622 1225 3098 567 
Q 2575 -91 1691 -91 
Q 1453 -91 1209 -44 
Q 966 3 703 97 
z
M 1959 2075 
Q 2384 2075 2632 2365 
Q 2881 2656 2881 3163 
Q 2881 3666 2632 3958 
Q 2384 4250 1959 4250 
Q 1534 4250 1286 3958 
Q 1038 3666 1038 3163 
Q 1038 2656 1286 2365 
Q 1534 2075 1959 2075 
z
" id="DejaVuSans-39" transform="scale(0.015625)"/>
      </defs>
      <use xlink:href="#DejaVuSans-30"/>
      <use x="63.623047" xlink:href="#DejaVuSans-2e"/>
      <use x="95.410156" xlink:href="#DejaVuSans-39"/>
      <use x="159.033203" xlink:href="#DejaVuSans-35"/>
     </g>
    </g>
   </g>
   <g id="xtick_17">
    <g id="line2d_20">
     <path d="M 519.080129 305.257376 
L 526.242357 307.261282 
" style="fill:none;stroke:#000000;stroke-linecap:square;stroke-width:0.8;"/>
    </g>
    <g id="text_20">
     <!-- 1.00 -->
     <g transform="translate(528.842923 310.977897)scale(0.1 -0.1)">
      <use xlink:href="#DejaVuSans-31"/>
      <use x="63.623047" xlink:href="#DejaVuSans-2e"/>
      <use x="95.410156" xlink:href="#DejaVuSans-30"/>
      <use x="159.033203" xlink:href="#DejaVuSans-30"/>
     </g>
    </g>
   </g>
   <g id="xtick_18">
    <g id="line2d_21">
     <path d="M 520.85475 266.08607 
L 528.075962 268.05831 
" style="fill:none;stroke:#000000;stroke-linecap:square;stroke-width:0.8;"/>
    </g>
    <g id="text_21">
     <!-- 1.05 -->
     <g transform="translate(530.780932 271.836301)scale(0.1 -0.1)">
      <use xlink:href="#DejaVuSans-31"/>
      <use x="63.623047" xlink:href="#DejaVuSans-2e"/>
      <use x="95.410156" xlink:href="#DejaVuSans-30"/>
      <use x="159.033203" xlink:href="#DejaVuSans-35"/>
     </g>
    </g>
   </g>
   <g id="xtick_19">
    <g id="line2d_22">
     <path d="M 522.657722 226.288945 
L 529.938897 228.228247 
" style="fill:none;stroke:#000000;stroke-linecap:square;stroke-width:0.8;"/>
    </g>
    <g id="text_22">
     <!-- 1.10 -->
     <g transform="translate(532.749868 232.070077)scale(0.1 -0.1)">
      <use xlink:href="#DejaVuSans-31"/>
      <use x="63.623047" xlink:href="#DejaVuSans-2e"/>
      <use x="95.410156" xlink:href="#DejaVuSans-31"/>
      <use x="159.033203" xlink:href="#DejaVuSans-30"/>
     </g>
    </g>
   </g>
   <g id="xtick_20">
    <g id="line2d_23">
     <path d="M 524.489732 185.850882 
L 531.831872 187.755923 
" style="fill:none;stroke:#000000;stroke-linecap:square;stroke-width:0.8;"/>
    </g>
    <g id="text_23">
     <!-- 1.15 -->
     <g transform="translate(534.750478 191.664153)scale(0.1 -0.1)">
      <use xlink:href="#DejaVuSans-31"/>
      <use x="63.623047" xlink:href="#DejaVuSans-2e"/>
      <use x="95.410156" xlink:href="#DejaVuSans-31"/>
      <use x="159.033203" xlink:href="#DejaVuSans-35"/>
     </g>
    </g>
   </g>
  </g>
  <g id="axes_1">
   <g id="line2d_24">
    <path clip-path="url(#peda17a4b27)" d="M 435.918185 309.111794 
L 435.922565 308.958138 
L 435.562343 318.156855 
L 435.135484 322.189398 
L 434.509015 325.414732 
L 433.875796 327.645897 
L 433.025427 329.927485 
L 431.928779 332.258366 
L 430.562944 334.638722 
L 428.905277 337.058132 
L 426.944517 339.519388 
L 424.666657 342.015725 
L 422.062204 344.54477 
L 419.121356 347.105153 
L 415.83128 349.692595 
L 412.181983 352.307017 
L 408.162518 354.946267 
L 403.765017 357.610261 
L 398.985664 360.299261 
L 393.823838 363.012502 
L 385.371397 367.127394 
L 376.084814 371.292277 
L 365.987122 375.50165 
L 355.100736 379.749473 
L 351.242993 381.084829 
L 347.243842 382.335463 
L 343.105526 383.501015 
L 338.831205 384.580983 
L 329.912175 386.51727 
L 320.587805 388.245602 
L 310.907073 389.758471 
L 300.956803 391.119503 
L 290.807809 392.34359 
L 275.35579 393.951913 
L 259.817241 395.349846 
L 239.238597 396.94931 
L 214.156075 398.593897 
L 190.283278 399.905547 
L 168.180941 400.88869 
L 148.345354 401.522233 
L 134.351725 401.76587 
L 122.17724 401.763852 
L 114.31686 401.592233 
L 107.5988 401.267559 
L 102.060569 400.784623 
L 97.724033 400.141441 
L 95.505259 399.623284 
L 93.823728 399.034003 
L 92.677026 398.374115 
L 92.061824 397.643894 
L 91.952101 397.252606 
L 91.973361 396.844021 
L 92.124808 396.418269 
L 92.815209 395.515244 
L 94.01541 394.544669 
L 95.7157 393.508006 
L 97.904855 392.40664 
L 102.075521 390.638212 
L 107.264871 388.736628 
L 113.41598 386.710723 
L 123.008981 383.831376 
L 134.053936 380.768907 
L 149.658048 376.720175 
L 166.949871 372.474033 
L 189.445294 367.192943 
L 217.358124 360.89009 
L 250.368093 353.671012 
L 291.49392 344.907079 
L 348.76098 332.950895 
L 435.197525 314.930686 
L 453.663041 310.850733 
L 461.73058 308.869037 
L 464.811546 307.913282 
L 465.411044 307.562401 
L 465.336521 307.43247 
L 464.78117 307.343872 
L 463.090799 307.370405 
L 459.021507 307.697382 
L 450.427676 308.641915 
L 424.000547 311.651144 
L 422.624738 311.620996 
L 422.614713 311.561784 
L 422.639793 311.53766 
L 423.076886 311.348899 
L 425.037906 310.82626 
L 430.337727 309.682799 
L 442.559387 307.307661 
L 458.532888 304.300079 
L 455.933293 304.675654 
L 446.489683 306.248572 
L 443.239437 306.877593 
L 443.239437 306.877593 
" style="fill:none;stroke:#1f77b4;stroke-linecap:square;stroke-opacity:0.7;stroke-width:1.5;"/>
   </g>
   <g id="line2d_25">
    <path clip-path="url(#peda17a4b27)" d="M 435.918185 309.111794 
L 435.923379 312.515945 
L 436.147302 313.548551 
L 436.54759 314.362582 
L 437.23616 315.196819 
L 438.172145 315.989176 
L 439.676643 316.95781 
L 442.188524 318.289206 
L 447.593015 320.857952 
L 455.83677 324.54356 
L 461.066494 326.64157 
L 465.023818 328.003519 
L 468.306938 328.913371 
L 470.849629 329.400735 
L 472.672915 329.535583 
L 473.86448 329.407456 
L 474.550403 329.109519 
L 474.869329 328.728131 
L 474.949884 328.227249 
L 474.78809 327.609847 
L 474.274646 326.721444 
L 473.247293 325.494735 
L 471.545904 323.867793 
L 469.045935 321.796699 
L 464.988732 318.746396 
L 453.771722 310.485358 
L 451.524407 308.517922 
L 450.030189 306.914822 
L 449.157646 305.641344 
L 448.730114 304.654394 
L 448.573216 303.735496 
L 448.683129 302.883213 
L 449.05542 302.093194 
L 449.682089 301.359454 
L 450.549135 300.675147 
L 451.879305 299.907528 
L 453.779979 299.064232 
L 457.012026 297.9003 
L 465.951437 294.817766 
L 468.857778 293.559575 
L 471.20255 292.321341 
L 473.003271 291.146214 
L 474.564554 289.859331 
L 475.655016 288.698933 
L 476.534063 287.457902 
L 477.186785 286.137068 
L 477.602239 284.738587 
L 477.77373 283.265866 
L 477.699041 281.723474 
L 477.380581 280.117035 
L 476.825463 278.453109 
L 475.863864 276.390953 
L 474.60775 274.270739 
L 472.821281 271.744065 
L 470.448871 268.817566 
L 466.848861 264.7938 
L 460.802028 258.092819 
L 458.986644 255.763738 
L 457.725454 253.842592 
L 456.774554 251.993186 
L 456.232605 250.5049 
L 455.925375 249.061003 
L 455.857707 247.657044 
L 456.030366 246.287441 
L 456.436483 244.94591 
L 457.061024 243.630433 
L 458.071024 242.090747 
L 459.331714 240.607077 
L 460.807406 239.196775 
L 462.750087 237.634548 
L 465.807967 235.500117 
L 474.331622 229.768011 
L 476.252921 228.144085 
L 477.59327 226.719242 
L 478.445796 225.496668 
L 478.926665 224.478232 
L 479.186557 223.460775 
L 479.218017 222.444543 
L 479.017664 221.429474 
L 478.586351 220.415255 
L 477.929257 219.401346 
L 476.856442 218.184071 
L 475.244886 216.761359 
L 472.995613 215.129134 
L 469.727191 213.07409 
L 460.032904 207.189248 
L 457.768616 205.470107 
L 456.184417 203.968268 
L 455.173422 202.707304 
L 454.502602 201.500022 
L 454.205388 200.557103 
L 454.14306 199.684867 
L 454.31127 198.877921 
L 454.703793 198.121395 
L 455.310596 197.404153 
L 456.301939 196.581041 
L 457.781484 195.65373 
L 460.096161 194.503126 
L 462.420842 193.574722 
L 464.86936 192.846129 
L 467.32205 192.372166 
L 470.502217 192.013958 
L 476.444635 191.558512 
L 476.115547 191.466781 
L 470.214275 190.385866 
L 467.598568 189.633599 
L 465.546762 188.843181 
L 463.924309 188.008089 
L 462.747836 187.175756 
L 461.975361 186.389473 
L 461.459078 185.548914 
L 461.218808 184.680389 
L 461.230135 183.961378 
L 461.485372 183.140838 
L 461.982701 182.400559 
L 462.696061 181.73793 
L 463.93282 180.931945 
L 466.02636 179.889152 
L 469.191722 178.573794 
L 471.185256 177.968044 
L 472.566485 177.77886 
L 473.796589 177.833698 
L 474.658743 178.060874 
L 474.89458 178.311018 
L 474.775845 178.527868 
L 474.295309 178.800824 
L 473.115551 179.159067 
L 471.062326 179.518267 
L 468.273206 179.770521 
L 464.851406 179.847925 
L 461.362619 179.717382 
L 457.64452 179.359849 
L 454.293264 178.831984 
L 451.044461 178.098776 
L 448.400969 177.290968 
L 446.046071 176.336709 
L 444.328462 175.414399 
L 442.94577 174.41756 
L 442.083817 173.55294 
L 441.508566 172.680879 
L 441.230597 171.822083 
L 441.221131 171.156839 
L 441.394485 170.519601 
L 441.854884 169.771326 
L 442.567918 169.082566 
L 443.727266 168.332497 
L 445.444969 167.546781 
L 447.478343 166.865456 
L 449.732965 166.341878 
L 451.766367 166.072023 
L 453.829655 165.995201 
L 456.201002 166.139442 
L 458.767542 166.526262 
L 461.072722 167.071766 
L 463.007522 167.746892 
L 464.317796 168.423333 
L 465.109489 169.049631 
L 465.51171 169.592384 
L 465.664734 170.143246 
L 465.558566 170.691048 
L 465.187564 171.224358 
L 464.55075 171.731805 
L 463.441607 172.290981 
L 461.972139 172.778689 
L 459.839219 173.235223 
L 457.314598 173.549035 
L 454.052878 173.709971 
L 450.53003 173.64297 
L 446.915032 173.340636 
L 443.393481 172.806809 
L 440.541504 172.161459 
L 438.040383 171.367058 
L 436.271322 170.583815 
L 435.117956 169.869146 
L 434.296036 169.10692 
L 433.896144 168.469437 
L 433.734339 167.814395 
L 433.812012 167.153896 
L 434.124818 166.504029 
L 434.663737 165.886807 
L 435.416209 165.329145 
L 436.36636 164.861868 
L 437.80494 164.427491 
L 439.485658 164.152949 
L 442.16658 163.981773 
L 445.571207 164.013568 
L 450.088319 164.284769 
L 454.110573 164.731774 
L 457.40999 165.30604 
L 459.591195 165.882169 
L 461.159467 166.496556 
L 462.466433 167.248433 
L 463.484739 168.130221 
L 464.075629 168.913401 
L 464.457151 169.742504 
L 464.623575 170.590924 
L 464.574139 171.439026 
L 464.312289 172.273063 
L 463.844629 173.083099 
L 462.985649 174.050926 
L 461.845932 174.960878 
L 460.153514 175.968528 
L 458.169401 176.876465 
L 455.582213 177.79761 
L 452.408776 178.653538 
L 449.162876 179.301663 
L 445.616009 179.78234 
L 442.716322 179.97379 
L 440.194564 179.93692 
L 438.404051 179.721548 
L 437.095311 179.346772 
L 436.419768 178.918088 
L 436.203548 178.509691 
L 436.263887 178.176322 
L 436.61326 177.793349 
L 437.217823 177.491964 
L 438.364007 177.226251 
L 443.130961 176.411238 
L 444.542976 175.878132 
L 445.363951 175.352076 
L 445.781856 174.849257 
L 445.879422 174.417745 
L 445.738425 174.22083 
L 445.413969 174.230429 
L 441.456835 175.014899 
L 436.528045 175.693621 
L 436.28397 175.960433 
L 436.305683 176.307798 
L 436.598557 176.798746 
L 437.111242 177.209442 
L 437.458608 177.254957 
L 437.601689 177.040895 
L 437.937305 176.372836 
L 438.364403 176.075245 
L 439.048569 175.873333 
L 440.14121 175.809452 
L 442.54509 175.744156 
L 442.637696 175.588061 
L 442.455446 175.363444 
L 441.606419 174.80243 
L 441.174051 174.487763 
L 441.31442 174.494264 
L 441.892375 174.515372 
L 442.029181 174.337872 
L 441.957384 173.994731 
L 441.474439 173.165583 
L 441.028505 172.25494 
L 441.01123 171.751109 
L 441.205908 171.446239 
L 441.64957 171.207102 
L 442.32213 171.128077 
L 443.411338 171.270017 
L 444.257129 171.357898 
L 444.251997 171.333946 
L 444.034559 171.140312 
L 443.301744 170.53168 
L 443.320431 170.513755 
L 443.554178 170.514009 
L 444.935047 170.697906 
L 444.935471 170.677706 
L 444.799658 170.4425 
L 444.061977 169.765033 
L 443.032114 168.742551 
L 442.924086 168.360868 
L 443.084113 168.189991 
L 443.457551 168.168645 
L 444.185089 168.360917 
L 443.924854 168.150922 
L 442.981676 167.3768 
L 443.029826 167.227859 
L 443.375936 167.201695 
L 444.198673 167.404197 
L 445.299128 167.703131 
L 445.254103 167.639021 
L 444.968805 167.502622 
L 444.800662 167.958045 
L 444.530998 169.505627 
L 444.046273 174.096441 
L 443.317799 183.883944 
L 442.084909 201.27474 
L 441.528153 206.423797 
L 440.744923 211.65572 
L 440.053664 215.189209 
L 439.193041 218.750907 
L 438.136914 222.346525 
L 436.856979 225.975598 
L 435.326801 229.64114 
L 433.521743 233.347416 
L 431.418349 237.09801 
L 428.994529 240.895319 
L 426.232519 244.744567 
L 423.114828 248.647445 
L 419.625668 252.604093 
L 415.752218 256.614894 
L 411.483314 260.678825 
L 406.719534 264.684344 
L 401.424499 268.593589 
L 395.594603 272.398405 
L 389.224674 276.077149 
L 382.3331 279.624919 
L 374.95117 283.041128 
L 367.115637 286.319917 
L 358.872609 289.45708 
L 350.280621 292.456662 
L 341.397116 295.309924 
L 332.29273 298.033476 
L 323.034831 300.628238 
L 309.003974 304.288335 
L 294.989601 307.694646 
L 276.634497 311.905647 
L 250.459494 317.596697 
L 187.446024 331.070028 
L 173.210453 334.413529 
L 164.461262 336.70263 
L 159.61411 338.191615 
L 157.263157 339.10203 
L 156.018521 339.830058 
L 155.799023 340.212974 
L 155.870684 340.373113 
L 156.372122 340.630844 
L 157.343887 340.805224 
L 159.662158 340.910432 
L 162.979397 340.831234 
L 168.885275 340.447998 
L 178.500937 339.547459 
L 192.998731 337.905997 
L 210.25707 335.728421 
L 233.122609 332.62959 
L 265.393831 328.008716 
L 310.257672 321.324319 
L 363.166909 313.216614 
L 429.618642 303.020437 
L 449.250719 300.244064 
L 455.640686 299.506028 
L 455.862678 299.524115 
L 455.659713 299.603943 
L 453.669842 300.005798 
L 446.148512 301.251597 
L 433.024238 303.204316 
L 420.423605 304.876369 
L 410.603179 305.969937 
L 404.030522 306.508217 
L 399.626424 306.671468 
L 397.025435 306.558253 
L 395.749259 306.278788 
L 395.38438 306.03033 
L 395.322829 305.722213 
L 395.563893 305.355862 
L 396.350081 304.78007 
L 398.057844 303.928121 
L 401.108158 302.730402 
L 405.904134 301.127397 
L 412.746024 299.083863 
L 423.874197 296.027922 
L 462.573219 285.634615 
L 468.534604 283.736208 
L 472.829956 282.165984 
L 475.753091 280.899821 
L 478.025451 279.673795 
L 479.349121 278.72305 
L 480.220301 277.799187 
L 480.574017 277.123268 
L 480.672058 276.460879 
L 480.51805 275.810483 
L 480.117821 275.170691 
L 479.478912 274.539612 
L 478.27162 273.709507 
L 476.68106 272.889613 
L 474.197192 271.874876 
L 470.572691 270.66513 
L 465.611299 269.25343 
L 456.727397 267.001675 
L 443.178547 263.559258 
L 436.965602 261.732263 
L 432.862131 260.309483 
L 429.922825 259.089288 
L 427.489725 257.838433 
L 425.936853 256.815896 
L 424.747512 255.773924 
L 423.92803 254.712944 
L 423.558051 253.90531 
L 423.398239 253.087915 
L 423.447856 252.261196 
L 423.704644 251.425725 
L 424.164395 250.581865 
L 425.081942 249.444865 
L 426.328682 248.298597 
L 427.880252 247.152559 
L 430.208214 245.740796 
L 432.917029 244.380877 
L 436.589265 242.832281 
L 441.318079 241.11637 
L 447.817004 239.024105 
L 470.096458 232.075356 
L 473.100025 230.853763 
L 475.019813 229.865689 
L 476.120208 229.080696 
L 476.659407 228.475519 
L 476.888925 227.888441 
L 476.856411 227.458638 
L 476.648879 227.036701 
L 476.102915 226.48451 
L 475.255995 225.941758 
L 473.791038 225.272408 
L 471.477014 224.475271 
L 467.561682 223.406998 
L 460.990623 221.889721 
L 448.297471 218.99003 
L 443.263721 217.620162 
L 439.383959 216.338933 
L 436.610233 215.181077 
L 434.764847 214.176167 
L 433.619749 213.346934 
L 432.778981 212.496268 
L 432.245984 211.626672 
L 432.02084 210.744966 
L 432.051986 210.084638 
L 432.353207 209.22518 
L 432.93896 208.406213 
L 433.790237 207.638819 
L 435.194796 206.737417 
L 437.319161 205.714107 
L 440.296892 204.578033 
L 444.701271 203.17835 
L 451.087642 201.396681 
L 455.865216 200.273032 
L 459.374128 199.663951 
L 463.83786 199.133988 
L 470.981443 198.35629 
L 471.053941 198.262492 
L 471.006533 198.213403 
L 470.530377 198.053365 
L 468.651797 197.723422 
L 449.577821 194.777145 
L 443.963063 193.594069 
L 439.954531 192.529086 
L 437.42362 191.655478 
L 435.774546 190.887226 
L 434.811753 190.24046 
L 434.239122 189.591549 
L 434.062854 189.073586 
L 434.134004 188.561135 
L 434.447815 188.062162 
L 434.997229 187.588559 
L 435.997678 187.05364 
L 437.315165 186.600498 
L 439.254226 186.165215 
L 442.316276 185.716666 
L 447.978954 185.15761 
L 454.578763 184.710488 
L 457.724214 184.710272 
L 460.111531 184.91689 
L 462.556498 185.366949 
L 464.31583 185.891669 
L 464.968484 186.270875 
L 464.948573 186.415836 
L 464.584326 186.514062 
L 463.580347 186.502951 
L 461.640836 186.243849 
L 458.924619 185.657354 
L 456.011323 184.815916 
L 453.555389 183.891906 
L 451.74652 182.977892 
L 450.580772 182.149642 
L 449.949716 181.449295 
L 449.71333 180.887582 
L 449.732243 180.458148 
L 449.939969 180.083461 
L 450.321799 179.79409 
L 450.981575 179.597906 
L 451.822058 179.595492 
L 453.149045 179.869291 
L 455.387762 180.618428 
L 458.343443 181.841912 
L 460.286086 182.851371 
L 461.364559 183.649618 
L 461.792978 184.212446 
L 461.753515 184.47316 
L 461.491046 184.59598 
L 460.816025 184.603193 
L 459.479122 184.350878 
L 457.259203 183.670697 
L 454.577081 182.617133 
L 451.730845 181.263441 
L 449.48764 179.976376 
L 447.760084 178.750792 
L 446.586113 177.646079 
L 445.990898 176.824595 
L 445.676059 176.019297 
L 445.64192 175.368878 
L 445.819581 174.751121 
L 446.207233 174.185009 
L 446.798265 173.692081 
L 447.581039 173.294653 
L 448.749919 172.967929 
L 450.385622 172.789886 
L 452.827485 172.787968 
L 457.076543 173.043083 
L 461.307902 173.498993 
L 463.695127 173.955952 
L 465.247319 174.472291 
L 466.472398 175.115219 
L 467.326434 175.802007 
L 467.734923 176.376321 
L 467.83277 176.830148 
L 467.701506 177.252966 
L 467.335987 177.63706 
L 466.585456 178.036027 
L 465.497794 178.355326 
L 463.818165 178.60978 
L 461.399982 178.718191 
L 458.528555 178.603905 
L 455.318078 178.243869 
L 451.911743 177.624432 
L 448.899516 176.869644 
L 445.982433 175.928904 
L 443.282822 174.823635 
L 441.233131 173.767384 
L 439.503238 172.633657 
L 438.35377 171.646498 
L 437.506002 170.635018 
L 437.063335 169.817707 
L 436.840328 169.000935 
L 436.841244 168.19148 
L 437.065261 167.396467 
L 437.506757 166.627648 
L 438.156401 165.902149 
L 439.002196 165.239842 
L 440.028938 164.665889 
L 441.537085 164.116962 
L 443.251806 163.793875 
L 445.121918 163.696393 
L 447.498348 163.827542 
L 449.939271 164.17577 
L 452.764888 164.79274 
L 455.449456 165.582327 
L 457.869238 166.522755 
L 459.641868 167.43669 
L 460.852949 168.265536 
L 461.783659 169.158803 
L 462.306696 169.928351 
L 462.620787 170.745722 
L 462.718669 171.59585 
L 462.597528 172.453852 
L 462.260047 173.299223 
L 461.71376 174.12021 
L 460.755972 175.098623 
L 459.52405 176.011346 
L 457.74272 177.007889 
L 455.706065 177.884122 
L 453.113426 178.735395 
L 450.399446 179.374791 
L 447.667576 179.782157 
L 445.010515 179.953569 
L 442.513942 179.883982 
L 440.260043 179.576794 
L 438.589383 179.135537 
L 437.227008 178.549025 
L 436.370166 177.969795 
L 435.797364 177.333327 
L 435.559815 176.800826 
L 435.525907 176.259529 
L 435.690904 175.724515 
L 436.146159 175.099334 
L 436.8207 174.565237 
L 437.830697 174.07536 
L 439.569658 173.551155 
L 443.224951 172.517781 
L 444.62691 171.896057 
L 445.337267 171.368278 
L 445.460159 171.162705 
L 444.322149 172.409696 
L 443.39632 172.87151 
L 442.140809 173.210607 
L 440.467795 173.398799 
L 437.867238 173.423575 
L 436.893097 173.509962 
L 436.961576 173.623579 
L 437.387014 173.838657 
L 438.086542 173.968475 
L 438.646419 173.874157 
L 438.920564 173.622767 
L 439.03056 173.18543 
L 439.19722 172.321946 
L 439.464609 172.039771 
L 439.929363 171.856439 
L 440.751912 171.801308 
L 443.040807 171.902957 
L 442.994112 171.805615 
L 442.556698 171.482971 
L 441.304202 170.579787 
L 441.41722 170.515882 
L 442.471981 170.33374 
L 442.494235 170.045327 
L 442.265387 169.456724 
L 441.799351 168.277647 
L 441.848995 167.872026 
L 442.078965 167.596696 
L 442.556993 167.394643 
L 443.26009 167.365751 
L 444.221308 167.572493 
L 445.207057 167.941459 
L 444.019084 167.537329 
L 444.019084 167.537329 
" style="fill:none;stroke:#d62728;stroke-linecap:square;stroke-opacity:0.7;stroke-width:1.5;"/>
   </g>
   <g id="line2d_26">
    <path clip-path="url(#peda17a4b27)" d="M 435.92196 308.979358 
L 435.92196 308.979358 
" style="fill:none;stroke:#000000;stroke-dasharray:5.55,2.4;stroke-dashoffset:0;stroke-opacity:0.595;stroke-width:1.5;"/>
   </g>
   <g id="legend_1">
    <g id="patch_6">
     <path d="M 460.49375 88.034375 
L 545.6 88.034375 
Q 547.6 88.034375 547.6 86.034375 
L 547.6 43 
Q 547.6 41 545.6 41 
L 460.49375 41 
Q 458.49375 41 458.49375 43 
L 458.49375 86.034375 
Q 458.49375 88.034375 460.49375 88.034375 
z
" style="fill:#ffffff;opacity:0.8;stroke:#cccccc;stroke-linejoin:miter;"/>
    </g>
    <g id="line2d_27">
     <path d="M 462.49375 49.098437 
L 482.49375 49.098437 
" style="fill:none;stroke:#1f77b4;stroke-linecap:square;stroke-opacity:0.7;stroke-width:1.5;"/>
    </g>
    <g id="line2d_28"/>
    <g id="text_24">
     <!-- DSLPID -->
     <g transform="translate(490.49375 52.598437)scale(0.1 -0.1)">
      <defs>
       <path d="M 1259 4147 
L 1259 519 
L 2022 519 
Q 2988 519 3436 956 
Q 3884 1394 3884 2338 
Q 3884 3275 3436 3711 
Q 2988 4147 2022 4147 
L 1259 4147 
z
M 628 4666 
L 1925 4666 
Q 3281 4666 3915 4102 
Q 4550 3538 4550 2338 
Q 4550 1131 3912 565 
Q 3275 0 1925 0 
L 628 0 
L 628 4666 
z
" id="DejaVuSans-44" transform="scale(0.015625)"/>
       <path d="M 3425 4513 
L 3425 3897 
Q 3066 4069 2747 4153 
Q 2428 4238 2131 4238 
Q 1616 4238 1336 4038 
Q 1056 3838 1056 3469 
Q 1056 3159 1242 3001 
Q 1428 2844 1947 2747 
L 2328 2669 
Q 3034 2534 3370 2195 
Q 3706 1856 3706 1288 
Q 3706 609 3251 259 
Q 2797 -91 1919 -91 
Q 1588 -91 1214 -16 
Q 841 59 441 206 
L 441 856 
Q 825 641 1194 531 
Q 1563 422 1919 422 
Q 2459 422 2753 634 
Q 3047 847 3047 1241 
Q 3047 1584 2836 1778 
Q 2625 1972 2144 2069 
L 1759 2144 
Q 1053 2284 737 2584 
Q 422 2884 422 3419 
Q 422 4038 858 4394 
Q 1294 4750 2059 4750 
Q 2388 4750 2728 4690 
Q 3069 4631 3425 4513 
z
" id="DejaVuSans-53" transform="scale(0.015625)"/>
       <path d="M 628 4666 
L 1259 4666 
L 1259 531 
L 3531 531 
L 3531 0 
L 628 0 
L 628 4666 
z
" id="DejaVuSans-4c" transform="scale(0.015625)"/>
       <path d="M 1259 4147 
L 1259 2394 
L 2053 2394 
Q 2494 2394 2734 2622 
Q 2975 2850 2975 3272 
Q 2975 3691 2734 3919 
Q 2494 4147 2053 4147 
L 1259 4147 
z
M 628 4666 
L 2053 4666 
Q 2838 4666 3239 4311 
Q 3641 3956 3641 3272 
Q 3641 2581 3239 2228 
Q 2838 1875 2053 1875 
L 1259 1875 
L 1259 0 
L 628 0 
L 628 4666 
z
" id="DejaVuSans-50" transform="scale(0.015625)"/>
       <path d="M 628 4666 
L 1259 4666 
L 1259 0 
L 628 0 
L 628 4666 
z
" id="DejaVuSans-49" transform="scale(0.015625)"/>
      </defs>
      <use xlink:href="#DejaVuSans-44"/>
      <use x="77.001953" xlink:href="#DejaVuSans-53"/>
      <use x="140.478516" xlink:href="#DejaVuSans-4c"/>
      <use x="196.191406" xlink:href="#DejaVuSans-50"/>
      <use x="256.494141" xlink:href="#DejaVuSans-49"/>
      <use x="285.986328" xlink:href="#DejaVuSans-44"/>
     </g>
    </g>
    <g id="line2d_29">
     <path d="M 462.49375 63.776562 
L 482.49375 63.776562 
" style="fill:none;stroke:#d62728;stroke-linecap:square;stroke-opacity:0.7;stroke-width:1.5;"/>
    </g>
    <g id="line2d_30"/>
    <g id="text_25">
     <!-- ANN -->
     <g transform="translate(490.49375 67.276562)scale(0.1 -0.1)">
      <defs>
       <path d="M 2188 4044 
L 1331 1722 
L 3047 1722 
L 2188 4044 
z
M 1831 4666 
L 2547 4666 
L 4325 0 
L 3669 0 
L 3244 1197 
L 1141 1197 
L 716 0 
L 50 0 
L 1831 4666 
z
" id="DejaVuSans-41" transform="scale(0.015625)"/>
       <path d="M 628 4666 
L 1478 4666 
L 3547 763 
L 3547 4666 
L 4159 4666 
L 4159 0 
L 3309 0 
L 1241 3903 
L 1241 0 
L 628 0 
L 628 4666 
z
" id="DejaVuSans-4e" transform="scale(0.015625)"/>
      </defs>
      <use xlink:href="#DejaVuSans-41"/>
      <use x="68.408203" xlink:href="#DejaVuSans-4e"/>
      <use x="143.212891" xlink:href="#DejaVuSans-4e"/>
     </g>
    </g>
    <g id="line2d_31">
     <path d="M 462.49375 78.454687 
L 482.49375 78.454687 
" style="fill:none;stroke:#000000;stroke-dasharray:5.55,2.4;stroke-dashoffset:0;stroke-opacity:0.595;stroke-width:1.5;"/>
    </g>
    <g id="line2d_32"/>
    <g id="text_26">
     <!-- Referencia -->
     <g transform="translate(490.49375 81.954687)scale(0.1 -0.1)">
      <defs>
       <path d="M 2841 2188 
Q 3044 2119 3236 1894 
Q 3428 1669 3622 1275 
L 4263 0 
L 3584 0 
L 2988 1197 
Q 2756 1666 2539 1819 
Q 2322 1972 1947 1972 
L 1259 1972 
L 1259 0 
L 628 0 
L 628 4666 
L 2053 4666 
Q 2853 4666 3247 4331 
Q 3641 3997 3641 3322 
Q 3641 2881 3436 2590 
Q 3231 2300 2841 2188 
z
M 1259 4147 
L 1259 2491 
L 2053 2491 
Q 2509 2491 2742 2702 
Q 2975 2913 2975 3322 
Q 2975 3731 2742 3939 
Q 2509 4147 2053 4147 
L 1259 4147 
z
" id="DejaVuSans-52" transform="scale(0.015625)"/>
       <path d="M 3597 1894 
L 3597 1613 
L 953 1613 
Q 991 1019 1311 708 
Q 1631 397 2203 397 
Q 2534 397 2845 478 
Q 3156 559 3463 722 
L 3463 178 
Q 3153 47 2828 -22 
Q 2503 -91 2169 -91 
Q 1331 -91 842 396 
Q 353 884 353 1716 
Q 353 2575 817 3079 
Q 1281 3584 2069 3584 
Q 2775 3584 3186 3129 
Q 3597 2675 3597 1894 
z
M 3022 2063 
Q 3016 2534 2758 2815 
Q 2500 3097 2075 3097 
Q 1594 3097 1305 2825 
Q 1016 2553 972 2059 
L 3022 2063 
z
" id="DejaVuSans-65" transform="scale(0.015625)"/>
       <path d="M 2375 4863 
L 2375 4384 
L 1825 4384 
Q 1516 4384 1395 4259 
Q 1275 4134 1275 3809 
L 1275 3500 
L 2222 3500 
L 2222 3053 
L 1275 3053 
L 1275 0 
L 697 0 
L 697 3053 
L 147 3053 
L 147 3500 
L 697 3500 
L 697 3744 
Q 697 4328 969 4595 
Q 1241 4863 1831 4863 
L 2375 4863 
z
" id="DejaVuSans-66" transform="scale(0.015625)"/>
       <path d="M 2631 2963 
Q 2534 3019 2420 3045 
Q 2306 3072 2169 3072 
Q 1681 3072 1420 2755 
Q 1159 2438 1159 1844 
L 1159 0 
L 581 0 
L 581 3500 
L 1159 3500 
L 1159 2956 
Q 1341 3275 1631 3429 
Q 1922 3584 2338 3584 
Q 2397 3584 2469 3576 
Q 2541 3569 2628 3553 
L 2631 2963 
z
" id="DejaVuSans-72" transform="scale(0.015625)"/>
       <path d="M 3513 2113 
L 3513 0 
L 2938 0 
L 2938 2094 
Q 2938 2591 2744 2837 
Q 2550 3084 2163 3084 
Q 1697 3084 1428 2787 
Q 1159 2491 1159 1978 
L 1159 0 
L 581 0 
L 581 3500 
L 1159 3500 
L 1159 2956 
Q 1366 3272 1645 3428 
Q 1925 3584 2291 3584 
Q 2894 3584 3203 3211 
Q 3513 2838 3513 2113 
z
" id="DejaVuSans-6e" transform="scale(0.015625)"/>
       <path d="M 3122 3366 
L 3122 2828 
Q 2878 2963 2633 3030 
Q 2388 3097 2138 3097 
Q 1578 3097 1268 2742 
Q 959 2388 959 1747 
Q 959 1106 1268 751 
Q 1578 397 2138 397 
Q 2388 397 2633 464 
Q 2878 531 3122 666 
L 3122 134 
Q 2881 22 2623 -34 
Q 2366 -91 2075 -91 
Q 1284 -91 818 406 
Q 353 903 353 1747 
Q 353 2603 823 3093 
Q 1294 3584 2113 3584 
Q 2378 3584 2631 3529 
Q 2884 3475 3122 3366 
z
" id="DejaVuSans-63" transform="scale(0.015625)"/>
       <path d="M 603 3500 
L 1178 3500 
L 1178 0 
L 603 0 
L 603 3500 
z
M 603 4863 
L 1178 4863 
L 1178 4134 
L 603 4134 
L 603 4863 
z
" id="DejaVuSans-69" transform="scale(0.015625)"/>
       <path d="M 2194 1759 
Q 1497 1759 1228 1600 
Q 959 1441 959 1056 
Q 959 750 1161 570 
Q 1363 391 1709 391 
Q 2188 391 2477 730 
Q 2766 1069 2766 1631 
L 2766 1759 
L 2194 1759 
z
M 3341 1997 
L 3341 0 
L 2766 0 
L 2766 531 
Q 2569 213 2275 61 
Q 1981 -91 1556 -91 
Q 1019 -91 701 211 
Q 384 513 384 1019 
Q 384 1609 779 1909 
Q 1175 2209 1959 2209 
L 2766 2209 
L 2766 2266 
Q 2766 2663 2505 2880 
Q 2244 3097 1772 3097 
Q 1472 3097 1187 3025 
Q 903 2953 641 2809 
L 641 3341 
Q 956 3463 1253 3523 
Q 1550 3584 1831 3584 
Q 2591 3584 2966 3190 
Q 3341 2797 3341 1997 
z
" id="DejaVuSans-61" transform="scale(0.015625)"/>
      </defs>
      <use xlink:href="#DejaVuSans-52"/>
      <use x="64.982422" xlink:href="#DejaVuSans-65"/>
      <use x="126.505859" xlink:href="#DejaVuSans-66"/>
      <use x="161.710938" xlink:href="#DejaVuSans-65"/>
      <use x="223.234375" xlink:href="#DejaVuSans-72"/>
      <use x="262.097656" xlink:href="#DejaVuSans-65"/>
      <use x="323.621094" xlink:href="#DejaVuSans-6e"/>
      <use x="387" xlink:href="#DejaVuSans-63"/>
      <use x="441.980469" xlink:href="#DejaVuSans-69"/>
      <use x="469.763672" xlink:href="#DejaVuSans-61"/>
     </g>
    </g>
   </g>
  </g>
  <g id="text_27">
   <!-- Vista 3D -->
   <g transform="translate(254.48625 23.6775)scale(0.16 -0.16)">
    <defs>
     <path d="M 1831 0 
L 50 4666 
L 709 4666 
L 2188 738 
L 3669 4666 
L 4325 4666 
L 2547 0 
L 1831 0 
z
" id="DejaVuSans-56" transform="scale(0.015625)"/>
     <path d="M 2834 3397 
L 2834 2853 
Q 2591 2978 2328 3040 
Q 2066 3103 1784 3103 
Q 1356 3103 1142 2972 
Q 928 2841 928 2578 
Q 928 2378 1081 2264 
Q 1234 2150 1697 2047 
L 1894 2003 
Q 2506 1872 2764 1633 
Q 3022 1394 3022 966 
Q 3022 478 2636 193 
Q 2250 -91 1575 -91 
Q 1294 -91 989 -36 
Q 684 19 347 128 
L 347 722 
Q 666 556 975 473 
Q 1284 391 1588 391 
Q 1994 391 2212 530 
Q 2431 669 2431 922 
Q 2431 1156 2273 1281 
Q 2116 1406 1581 1522 
L 1381 1569 
Q 847 1681 609 1914 
Q 372 2147 372 2553 
Q 372 3047 722 3315 
Q 1072 3584 1716 3584 
Q 2034 3584 2315 3537 
Q 2597 3491 2834 3397 
z
" id="DejaVuSans-73" transform="scale(0.015625)"/>
     <path d="M 1172 4494 
L 1172 3500 
L 2356 3500 
L 2356 3053 
L 1172 3053 
L 1172 1153 
Q 1172 725 1289 603 
Q 1406 481 1766 481 
L 2356 481 
L 2356 0 
L 1766 0 
Q 1100 0 847 248 
Q 594 497 594 1153 
L 594 3053 
L 172 3053 
L 172 3500 
L 594 3500 
L 594 4494 
L 1172 4494 
z
" id="DejaVuSans-74" transform="scale(0.015625)"/>
    </defs>
    <use xlink:href="#DejaVuSans-56"/>
    <use x="66.158203" xlink:href="#DejaVuSans-69"/>
    <use x="93.941406" xlink:href="#DejaVuSans-73"/>
    <use x="146.041016" xlink:href="#DejaVuSans-74"/>
    <use x="185.25" xlink:href="#DejaVuSans-61"/>
    <use x="246.529297" xlink:href="#DejaVuSans-20"/>
    <use x="278.316406" xlink:href="#DejaVuSans-33"/>
    <use x="341.939453" xlink:href="#DejaVuSans-44"/>
   </g>
  </g>
 </g>
 <defs>
  <clipPath id="peda17a4b27">
   <rect height="529.2" width="529.2" x="23.4" y="36"/>
  </clipPath>
 </defs>
</svg>
