<?xml version="1.0" encoding="utf-8" standalone="no"?>
<!DOCTYPE svg PUBLIC "-//W3C//DTD SVG 1.1//EN"
  "http://www.w3.org/Graphics/SVG/1.1/DTD/svg11.dtd">
<svg height="576pt" version="1.1" viewBox="0 0 576 576" width="576pt" xmlns="http://www.w3.org/2000/svg" xmlns:xlink="http://www.w3.org/1999/xlink">
 <metadata>
  <rdf:RDF xmlns:cc="http://creativecommons.org/ns#" xmlns:dc="http://purl.org/dc/elements/1.1/" xmlns:rdf="http://www.w3.org/1999/02/22-rdf-syntax-ns#">
   <cc:Work>
    <dc:type rdf:resource="http://purl.org/dc/dcmitype/StillImage"/>
    <dc:date>2022-02-26T04:13:36.328304</dc:date>
    <dc:format>image/svg+xml</dc:format>
    <dc:creator>
     <cc:Agent>
      <dc:title>Matplotlib v3.4.3, https://matplotlib.org/</dc:title>
     </cc:Agent>
    </dc:creator>
   </cc:Work>
  </rdf:RDF>
 </metadata>
 <defs>
  <style type="text/css">*{stroke-linecap:butt;stroke-linejoin:round;}</style>
 </defs>
 <g id="figure_1">
  <g id="patch_1">
   <path d="M 0 576 
L 576 576 
L 576 0 
L 0 0 
z
" style="fill:#ffffff;"/>
  </g>
  <g id="axes_1">
   <g id="patch_2">
    <path d="M 65.59 271.86 
L 256.95 271.86 
L 256.95 80.88 
L 65.59 80.88 
z
" style="fill:#ffffff;"/>
   </g>
   <g id="matplotlib.axis_1">
    <g id="xtick_1">
     <g id="line2d_1">
      <path clip-path="url(#pd2174345d6)" d="M 74.288182 271.86 
L 74.288182 80.88 
" style="fill:none;stroke:#b0b0b0;stroke-linecap:square;stroke-width:0.8;"/>
     </g>
     <g id="line2d_2">
      <defs>
       <path d="M 0 0 
L 0 3.5 
" id="mc013cc6531" style="stroke:#000000;stroke-width:0.8;"/>
      </defs>
      <g>
       <use style="stroke:#000000;stroke-width:0.8;" x="74.288182" xlink:href="#mc013cc6531" y="271.86"/>
      </g>
     </g>
    </g>
    <g id="xtick_2">
     <g id="line2d_3">
      <path clip-path="url(#pd2174345d6)" d="M 117.788153 271.86 
L 117.788153 80.88 
" style="fill:none;stroke:#b0b0b0;stroke-linecap:square;stroke-width:0.8;"/>
     </g>
     <g id="line2d_4">
      <g>
       <use style="stroke:#000000;stroke-width:0.8;" x="117.788153" xlink:href="#mc013cc6531" y="271.86"/>
      </g>
     </g>
    </g>
    <g id="xtick_3">
     <g id="line2d_5">
      <path clip-path="url(#pd2174345d6)" d="M 161.288125 271.86 
L 161.288125 80.88 
" style="fill:none;stroke:#b0b0b0;stroke-linecap:square;stroke-width:0.8;"/>
     </g>
     <g id="line2d_6">
      <g>
       <use style="stroke:#000000;stroke-width:0.8;" x="161.288125" xlink:href="#mc013cc6531" y="271.86"/>
      </g>
     </g>
    </g>
    <g id="xtick_4">
     <g id="line2d_7">
      <path clip-path="url(#pd2174345d6)" d="M 204.788097 271.86 
L 204.788097 80.88 
" style="fill:none;stroke:#b0b0b0;stroke-linecap:square;stroke-width:0.8;"/>
     </g>
     <g id="line2d_8">
      <g>
       <use style="stroke:#000000;stroke-width:0.8;" x="204.788097" xlink:href="#mc013cc6531" y="271.86"/>
      </g>
     </g>
    </g>
    <g id="xtick_5">
     <g id="line2d_9">
      <path clip-path="url(#pd2174345d6)" d="M 248.288068 271.86 
L 248.288068 80.88 
" style="fill:none;stroke:#b0b0b0;stroke-linecap:square;stroke-width:0.8;"/>
     </g>
     <g id="line2d_10">
      <g>
       <use style="stroke:#000000;stroke-width:0.8;" x="248.288068" xlink:href="#mc013cc6531" y="271.86"/>
      </g>
     </g>
    </g>
    <g id="text_1">
     <!-- Tiempo (s) -->
     <g transform="translate(134.7075 283.458437)scale(0.1 -0.1)">
      <defs>
       <path d="M -19 4666 
L 3928 4666 
L 3928 4134 
L 2272 4134 
L 2272 0 
L 1638 0 
L 1638 4134 
L -19 4134 
L -19 4666 
z
" id="DejaVuSans-54" transform="scale(0.015625)"/>
       <path d="M 603 3500 
L 1178 3500 
L 1178 0 
L 603 0 
L 603 3500 
z
M 603 4863 
L 1178 4863 
L 1178 4134 
L 603 4134 
L 603 4863 
z
" id="DejaVuSans-69" transform="scale(0.015625)"/>
       <path d="M 3597 1894 
L 3597 1613 
L 953 1613 
Q 991 1019 1311 708 
Q 1631 397 2203 397 
Q 2534 397 2845 478 
Q 3156 559 3463 722 
L 3463 178 
Q 3153 47 2828 -22 
Q 2503 -91 2169 -91 
Q 1331 -91 842 396 
Q 353 884 353 1716 
Q 353 2575 817 3079 
Q 1281 3584 2069 3584 
Q 2775 3584 3186 3129 
Q 3597 2675 3597 1894 
z
M 3022 2063 
Q 3016 2534 2758 2815 
Q 2500 3097 2075 3097 
Q 1594 3097 1305 2825 
Q 1016 2553 972 2059 
L 3022 2063 
z
" id="DejaVuSans-65" transform="scale(0.015625)"/>
       <path d="M 3328 2828 
Q 3544 3216 3844 3400 
Q 4144 3584 4550 3584 
Q 5097 3584 5394 3201 
Q 5691 2819 5691 2113 
L 5691 0 
L 5113 0 
L 5113 2094 
Q 5113 2597 4934 2840 
Q 4756 3084 4391 3084 
Q 3944 3084 3684 2787 
Q 3425 2491 3425 1978 
L 3425 0 
L 2847 0 
L 2847 2094 
Q 2847 2600 2669 2842 
Q 2491 3084 2119 3084 
Q 1678 3084 1418 2786 
Q 1159 2488 1159 1978 
L 1159 0 
L 581 0 
L 581 3500 
L 1159 3500 
L 1159 2956 
Q 1356 3278 1631 3431 
Q 1906 3584 2284 3584 
Q 2666 3584 2933 3390 
Q 3200 3197 3328 2828 
z
" id="DejaVuSans-6d" transform="scale(0.015625)"/>
       <path d="M 1159 525 
L 1159 -1331 
L 581 -1331 
L 581 3500 
L 1159 3500 
L 1159 2969 
Q 1341 3281 1617 3432 
Q 1894 3584 2278 3584 
Q 2916 3584 3314 3078 
Q 3713 2572 3713 1747 
Q 3713 922 3314 415 
Q 2916 -91 2278 -91 
Q 1894 -91 1617 61 
Q 1341 213 1159 525 
z
M 3116 1747 
Q 3116 2381 2855 2742 
Q 2594 3103 2138 3103 
Q 1681 3103 1420 2742 
Q 1159 2381 1159 1747 
Q 1159 1113 1420 752 
Q 1681 391 2138 391 
Q 2594 391 2855 752 
Q 3116 1113 3116 1747 
z
" id="DejaVuSans-70" transform="scale(0.015625)"/>
       <path d="M 1959 3097 
Q 1497 3097 1228 2736 
Q 959 2375 959 1747 
Q 959 1119 1226 758 
Q 1494 397 1959 397 
Q 2419 397 2687 759 
Q 2956 1122 2956 1747 
Q 2956 2369 2687 2733 
Q 2419 3097 1959 3097 
z
M 1959 3584 
Q 2709 3584 3137 3096 
Q 3566 2609 3566 1747 
Q 3566 888 3137 398 
Q 2709 -91 1959 -91 
Q 1206 -91 779 398 
Q 353 888 353 1747 
Q 353 2609 779 3096 
Q 1206 3584 1959 3584 
z
" id="DejaVuSans-6f" transform="scale(0.015625)"/>
       <path id="DejaVuSans-20" transform="scale(0.015625)"/>
       <path d="M 1984 4856 
Q 1566 4138 1362 3434 
Q 1159 2731 1159 2009 
Q 1159 1288 1364 580 
Q 1569 -128 1984 -844 
L 1484 -844 
Q 1016 -109 783 600 
Q 550 1309 550 2009 
Q 550 2706 781 3412 
Q 1013 4119 1484 4856 
L 1984 4856 
z
" id="DejaVuSans-28" transform="scale(0.015625)"/>
       <path d="M 2834 3397 
L 2834 2853 
Q 2591 2978 2328 3040 
Q 2066 3103 1784 3103 
Q 1356 3103 1142 2972 
Q 928 2841 928 2578 
Q 928 2378 1081 2264 
Q 1234 2150 1697 2047 
L 1894 2003 
Q 2506 1872 2764 1633 
Q 3022 1394 3022 966 
Q 3022 478 2636 193 
Q 2250 -91 1575 -91 
Q 1294 -91 989 -36 
Q 684 19 347 128 
L 347 722 
Q 666 556 975 473 
Q 1284 391 1588 391 
Q 1994 391 2212 530 
Q 2431 669 2431 922 
Q 2431 1156 2273 1281 
Q 2116 1406 1581 1522 
L 1381 1569 
Q 847 1681 609 1914 
Q 372 2147 372 2553 
Q 372 3047 722 3315 
Q 1072 3584 1716 3584 
Q 2034 3584 2315 3537 
Q 2597 3491 2834 3397 
z
" id="DejaVuSans-73" transform="scale(0.015625)"/>
       <path d="M 513 4856 
L 1013 4856 
Q 1481 4119 1714 3412 
Q 1947 2706 1947 2009 
Q 1947 1309 1714 600 
Q 1481 -109 1013 -844 
L 513 -844 
Q 928 -128 1133 580 
Q 1338 1288 1338 2009 
Q 1338 2731 1133 3434 
Q 928 4138 513 4856 
z
" id="DejaVuSans-29" transform="scale(0.015625)"/>
      </defs>
      <use xlink:href="#DejaVuSans-54"/>
      <use x="57.958984" xlink:href="#DejaVuSans-69"/>
      <use x="85.742188" xlink:href="#DejaVuSans-65"/>
      <use x="147.265625" xlink:href="#DejaVuSans-6d"/>
      <use x="244.677734" xlink:href="#DejaVuSans-70"/>
      <use x="308.154297" xlink:href="#DejaVuSans-6f"/>
      <use x="369.335938" xlink:href="#DejaVuSans-20"/>
      <use x="401.123047" xlink:href="#DejaVuSans-28"/>
      <use x="440.136719" xlink:href="#DejaVuSans-73"/>
      <use x="492.236328" xlink:href="#DejaVuSans-29"/>
     </g>
    </g>
   </g>
   <g id="matplotlib.axis_2">
    <g id="ytick_1">
     <g id="line2d_11">
      <path clip-path="url(#pd2174345d6)" d="M 65.59 263.179091 
L 256.95 263.179091 
" style="fill:none;stroke:#b0b0b0;stroke-linecap:square;stroke-width:0.8;"/>
     </g>
     <g id="line2d_12">
      <defs>
       <path d="M 0 0 
L -3.5 0 
" id="m374a8a0ecc" style="stroke:#000000;stroke-width:0.8;"/>
      </defs>
      <g>
       <use style="stroke:#000000;stroke-width:0.8;" x="65.59" xlink:href="#m374a8a0ecc" y="263.179091"/>
      </g>
     </g>
     <g id="text_2">
      <!-- 0 -->
      <g transform="translate(52.2275 266.97831)scale(0.1 -0.1)">
       <defs>
        <path d="M 2034 4250 
Q 1547 4250 1301 3770 
Q 1056 3291 1056 2328 
Q 1056 1369 1301 889 
Q 1547 409 2034 409 
Q 2525 409 2770 889 
Q 3016 1369 3016 2328 
Q 3016 3291 2770 3770 
Q 2525 4250 2034 4250 
z
M 2034 4750 
Q 2819 4750 3233 4129 
Q 3647 3509 3647 2328 
Q 3647 1150 3233 529 
Q 2819 -91 2034 -91 
Q 1250 -91 836 529 
Q 422 1150 422 2328 
Q 422 3509 836 4129 
Q 1250 4750 2034 4750 
z
" id="DejaVuSans-30" transform="scale(0.015625)"/>
       </defs>
       <use xlink:href="#DejaVuSans-30"/>
      </g>
     </g>
    </g>
    <g id="ytick_2">
     <g id="line2d_13">
      <path clip-path="url(#pd2174345d6)" d="M 65.59 236.463526 
L 256.95 236.463526 
" style="fill:none;stroke:#b0b0b0;stroke-linecap:square;stroke-width:0.8;"/>
     </g>
     <g id="line2d_14">
      <g>
       <use style="stroke:#000000;stroke-width:0.8;" x="65.59" xlink:href="#m374a8a0ecc" y="236.463526"/>
      </g>
     </g>
     <g id="text_3">
      <!-- 2 -->
      <g transform="translate(52.2275 240.262745)scale(0.1 -0.1)">
       <defs>
        <path d="M 1228 531 
L 3431 531 
L 3431 0 
L 469 0 
L 469 531 
Q 828 903 1448 1529 
Q 2069 2156 2228 2338 
Q 2531 2678 2651 2914 
Q 2772 3150 2772 3378 
Q 2772 3750 2511 3984 
Q 2250 4219 1831 4219 
Q 1534 4219 1204 4116 
Q 875 4013 500 3803 
L 500 4441 
Q 881 4594 1212 4672 
Q 1544 4750 1819 4750 
Q 2544 4750 2975 4387 
Q 3406 4025 3406 3419 
Q 3406 3131 3298 2873 
Q 3191 2616 2906 2266 
Q 2828 2175 2409 1742 
Q 1991 1309 1228 531 
z
" id="DejaVuSans-32" transform="scale(0.015625)"/>
       </defs>
       <use xlink:href="#DejaVuSans-32"/>
      </g>
     </g>
    </g>
    <g id="ytick_3">
     <g id="line2d_15">
      <path clip-path="url(#pd2174345d6)" d="M 65.59 209.747961 
L 256.95 209.747961 
" style="fill:none;stroke:#b0b0b0;stroke-linecap:square;stroke-width:0.8;"/>
     </g>
     <g id="line2d_16">
      <g>
       <use style="stroke:#000000;stroke-width:0.8;" x="65.59" xlink:href="#m374a8a0ecc" y="209.747961"/>
      </g>
     </g>
     <g id="text_4">
      <!-- 4 -->
      <g transform="translate(52.2275 213.54718)scale(0.1 -0.1)">
       <defs>
        <path d="M 2419 4116 
L 825 1625 
L 2419 1625 
L 2419 4116 
z
M 2253 4666 
L 3047 4666 
L 3047 1625 
L 3713 1625 
L 3713 1100 
L 3047 1100 
L 3047 0 
L 2419 0 
L 2419 1100 
L 313 1100 
L 313 1709 
L 2253 4666 
z
" id="DejaVuSans-34" transform="scale(0.015625)"/>
       </defs>
       <use xlink:href="#DejaVuSans-34"/>
      </g>
     </g>
    </g>
    <g id="ytick_4">
     <g id="line2d_17">
      <path clip-path="url(#pd2174345d6)" d="M 65.59 183.032396 
L 256.95 183.032396 
" style="fill:none;stroke:#b0b0b0;stroke-linecap:square;stroke-width:0.8;"/>
     </g>
     <g id="line2d_18">
      <g>
       <use style="stroke:#000000;stroke-width:0.8;" x="65.59" xlink:href="#m374a8a0ecc" y="183.032396"/>
      </g>
     </g>
     <g id="text_5">
      <!-- 6 -->
      <g transform="translate(52.2275 186.831614)scale(0.1 -0.1)">
       <defs>
        <path d="M 2113 2584 
Q 1688 2584 1439 2293 
Q 1191 2003 1191 1497 
Q 1191 994 1439 701 
Q 1688 409 2113 409 
Q 2538 409 2786 701 
Q 3034 994 3034 1497 
Q 3034 2003 2786 2293 
Q 2538 2584 2113 2584 
z
M 3366 4563 
L 3366 3988 
Q 3128 4100 2886 4159 
Q 2644 4219 2406 4219 
Q 1781 4219 1451 3797 
Q 1122 3375 1075 2522 
Q 1259 2794 1537 2939 
Q 1816 3084 2150 3084 
Q 2853 3084 3261 2657 
Q 3669 2231 3669 1497 
Q 3669 778 3244 343 
Q 2819 -91 2113 -91 
Q 1303 -91 875 529 
Q 447 1150 447 2328 
Q 447 3434 972 4092 
Q 1497 4750 2381 4750 
Q 2619 4750 2861 4703 
Q 3103 4656 3366 4563 
z
" id="DejaVuSans-36" transform="scale(0.015625)"/>
       </defs>
       <use xlink:href="#DejaVuSans-36"/>
      </g>
     </g>
    </g>
    <g id="ytick_5">
     <g id="line2d_19">
      <path clip-path="url(#pd2174345d6)" d="M 65.59 156.316831 
L 256.95 156.316831 
" style="fill:none;stroke:#b0b0b0;stroke-linecap:square;stroke-width:0.8;"/>
     </g>
     <g id="line2d_20">
      <g>
       <use style="stroke:#000000;stroke-width:0.8;" x="65.59" xlink:href="#m374a8a0ecc" y="156.316831"/>
      </g>
     </g>
     <g id="text_6">
      <!-- 8 -->
      <g transform="translate(52.2275 160.116049)scale(0.1 -0.1)">
       <defs>
        <path d="M 2034 2216 
Q 1584 2216 1326 1975 
Q 1069 1734 1069 1313 
Q 1069 891 1326 650 
Q 1584 409 2034 409 
Q 2484 409 2743 651 
Q 3003 894 3003 1313 
Q 3003 1734 2745 1975 
Q 2488 2216 2034 2216 
z
M 1403 2484 
Q 997 2584 770 2862 
Q 544 3141 544 3541 
Q 544 4100 942 4425 
Q 1341 4750 2034 4750 
Q 2731 4750 3128 4425 
Q 3525 4100 3525 3541 
Q 3525 3141 3298 2862 
Q 3072 2584 2669 2484 
Q 3125 2378 3379 2068 
Q 3634 1759 3634 1313 
Q 3634 634 3220 271 
Q 2806 -91 2034 -91 
Q 1263 -91 848 271 
Q 434 634 434 1313 
Q 434 1759 690 2068 
Q 947 2378 1403 2484 
z
M 1172 3481 
Q 1172 3119 1398 2916 
Q 1625 2713 2034 2713 
Q 2441 2713 2670 2916 
Q 2900 3119 2900 3481 
Q 2900 3844 2670 4047 
Q 2441 4250 2034 4250 
Q 1625 4250 1398 4047 
Q 1172 3844 1172 3481 
z
" id="DejaVuSans-38" transform="scale(0.015625)"/>
       </defs>
       <use xlink:href="#DejaVuSans-38"/>
      </g>
     </g>
    </g>
    <g id="ytick_6">
     <g id="line2d_21">
      <path clip-path="url(#pd2174345d6)" d="M 65.59 129.601266 
L 256.95 129.601266 
" style="fill:none;stroke:#b0b0b0;stroke-linecap:square;stroke-width:0.8;"/>
     </g>
     <g id="line2d_22">
      <g>
       <use style="stroke:#000000;stroke-width:0.8;" x="65.59" xlink:href="#m374a8a0ecc" y="129.601266"/>
      </g>
     </g>
     <g id="text_7">
      <!-- 10 -->
      <g transform="translate(45.865 133.400484)scale(0.1 -0.1)">
       <defs>
        <path d="M 794 531 
L 1825 531 
L 1825 4091 
L 703 3866 
L 703 4441 
L 1819 4666 
L 2450 4666 
L 2450 531 
L 3481 531 
L 3481 0 
L 794 0 
L 794 531 
z
" id="DejaVuSans-31" transform="scale(0.015625)"/>
       </defs>
       <use xlink:href="#DejaVuSans-31"/>
       <use x="63.623047" xlink:href="#DejaVuSans-30"/>
      </g>
     </g>
    </g>
    <g id="ytick_7">
     <g id="line2d_23">
      <path clip-path="url(#pd2174345d6)" d="M 65.59 102.8857 
L 256.95 102.8857 
" style="fill:none;stroke:#b0b0b0;stroke-linecap:square;stroke-width:0.8;"/>
     </g>
     <g id="line2d_24">
      <g>
       <use style="stroke:#000000;stroke-width:0.8;" x="65.59" xlink:href="#m374a8a0ecc" y="102.8857"/>
      </g>
     </g>
     <g id="text_8">
      <!-- 12 -->
      <g transform="translate(45.865 106.684919)scale(0.1 -0.1)">
       <use xlink:href="#DejaVuSans-31"/>
       <use x="63.623047" xlink:href="#DejaVuSans-32"/>
      </g>
     </g>
    </g>
   </g>
   <g id="line2d_25">
    <path clip-path="url(#pd2174345d6)" d="M 74.288182 263.179091 
L 162.665624 263.081384 
L 163.064374 262.808566 
L 163.426874 262.279016 
L 163.825623 261.249111 
L 164.260623 259.404285 
L 164.768123 256.178093 
L 165.456872 250.169093 
L 167.015621 233.726244 
L 167.958121 225.357175 
L 168.64687 221.070177 
L 169.22687 218.754022 
L 169.698119 217.661302 
L 170.096869 217.198591 
L 170.459369 217.070021 
L 170.858119 216.972169 
L 171.438118 216.555947 
L 173.033117 215.277491 
L 173.685617 215.092282 
L 174.809366 214.888322 
L 177.093115 214.159433 
L 178.108114 214.011603 
L 178.978113 213.616446 
L 180.283113 212.740064 
L 182.856861 210.990564 
L 185.394359 209.634702 
L 188.439357 207.908828 
L 193.550604 204.97551 
L 200.329349 201.44469 
L 206.020596 198.741055 
L 212.001842 196.139112 
L 218.273088 193.65628 
L 224.798084 191.314677 
L 231.613079 189.107063 
L 238.754324 187.028823 
L 246.294319 185.068428 
L 248.251818 184.595531 
L 248.251818 184.595531 
" style="fill:none;stroke:#1f77b4;stroke-linecap:square;stroke-opacity:0.7;stroke-width:1.5;"/>
   </g>
   <g id="line2d_26">
    <path clip-path="url(#pd2174345d6)" d="M 74.288182 263.179091 
L 76.97068 263.068466 
L 77.76818 262.79171 
L 78.456929 262.308976 
L 79.145679 261.547308 
L 79.943178 260.302925 
L 80.958177 258.250531 
L 83.495676 252.915752 
L 84.365675 251.690042 
L 85.344425 250.703789 
L 86.939424 249.138666 
L 87.809423 247.898223 
L 88.788172 246.078023 
L 92.01442 239.681231 
L 92.95692 238.515825 
L 95.965668 235.155362 
L 97.161917 233.180829 
L 99.735665 228.803177 
L 100.750665 227.60524 
L 102.019414 226.494279 
L 103.433163 225.191219 
L 104.411912 223.956902 
L 105.571911 222.09975 
L 108.689409 216.895789 
L 112.713157 211.047783 
L 115.431905 206.591829 
L 116.338154 205.591787 
L 117.171904 204.999344 
L 118.223153 204.553559 
L 119.564402 203.961288 
L 120.434402 203.310369 
L 121.413151 202.271104 
L 124.059399 199.254226 
L 124.820649 198.824197 
L 125.654398 198.626063 
L 127.394397 198.311151 
L 128.119397 197.899021 
L 128.916896 197.169987 
L 130.149395 195.677524 
L 131.381895 194.306076 
L 132.215644 193.697213 
L 133.013143 193.378503 
L 134.209393 193.182135 
L 137.109391 192.911833 
L 138.30564 192.69018 
L 139.356889 192.27088 
L 142.873137 190.370403 
L 144.613136 189.542619 
L 147.621884 188.166527 
L 155.089379 185.032728 
L 158.859377 183.466735 
L 160.925625 182.643609 
L 162.774374 181.899893 
L 163.426874 181.445977 
L 163.861873 180.846855 
L 164.260623 179.866815 
L 164.695623 178.125176 
L 165.239372 174.898362 
L 166.000622 168.820995 
L 168.103121 151.111353 
L 168.75562 147.709589 
L 169.29937 145.954587 
L 169.734369 145.185575 
L 170.133119 144.885124 
L 171.184369 144.451867 
L 172.525618 143.54705 
L 173.214367 143.446038 
L 173.758117 143.207164 
L 174.628116 142.532552 
L 175.570616 141.88574 
L 176.114365 141.775263 
L 176.585615 141.637735 
L 177.093115 141.227945 
L 177.673114 140.445696 
L 178.506864 138.892304 
L 180.138113 135.793416 
L 180.826862 134.987432 
L 181.406862 134.63659 
L 181.986861 134.543731 
L 182.893111 134.415836 
L 184.63311 133.993356 
L 185.249359 133.436367 
L 186.010609 132.419299 
L 188.765607 128.384539 
L 189.454357 127.939843 
L 190.179356 127.742172 
L 191.955605 127.376824 
L 192.644355 126.932752 
L 193.405604 126.161033 
L 194.420603 124.776596 
L 196.196852 122.334189 
L 196.958102 121.671929 
L 197.646851 121.34882 
L 198.516851 121.209505 
L 199.82185 121.005209 
L 200.546849 120.639395 
L 201.308099 119.9901 
L 202.323098 118.792743 
L 204.208097 116.527775 
L 205.186846 115.738099 
L 208.050594 113.699279 
L 209.246844 112.332534 
L 211.385592 109.840017 
L 212.364342 109.076612 
L 213.596841 108.430478 
L 214.82934 107.717728 
L 215.699339 106.949734 
L 216.678089 105.763711 
L 219.723087 101.785272 
L 220.448086 101.343886 
L 221.173086 101.163878 
L 223.493084 100.818756 
L 224.254334 100.317268 
L 225.233083 99.367871 
L 226.791832 97.856956 
L 227.589332 97.392888 
L 228.350581 97.203914 
L 233.135578 96.639482 
L 234.440577 96.195103 
L 235.745576 95.481054 
L 239.370574 93.473546 
L 243.430571 91.605767 
L 248.251818 89.560909 
L 248.251818 89.560909 
" style="fill:none;stroke:#d62728;stroke-linecap:square;stroke-opacity:0.7;stroke-width:1.5;"/>
   </g>
   <g id="patch_3">
    <path d="M 65.59 271.86 
L 65.59 80.88 
" style="fill:none;stroke:#000000;stroke-linecap:square;stroke-linejoin:miter;stroke-width:0.8;"/>
   </g>
   <g id="patch_4">
    <path d="M 256.95 271.86 
L 256.95 80.88 
" style="fill:none;stroke:#000000;stroke-linecap:square;stroke-linejoin:miter;stroke-width:0.8;"/>
   </g>
   <g id="patch_5">
    <path d="M 65.59 271.86 
L 256.95 271.86 
" style="fill:none;stroke:#000000;stroke-linecap:square;stroke-linejoin:miter;stroke-width:0.8;"/>
   </g>
   <g id="patch_6">
    <path d="M 65.59 80.88 
L 256.95 80.88 
" style="fill:none;stroke:#000000;stroke-linecap:square;stroke-linejoin:miter;stroke-width:0.8;"/>
   </g>
   <g id="text_9">
    <!-- x (m) -->
    <g transform="translate(145.285625 74.88)scale(0.12 -0.12)">
     <defs>
      <path d="M 3513 3500 
L 2247 1797 
L 3578 0 
L 2900 0 
L 1881 1375 
L 863 0 
L 184 0 
L 1544 1831 
L 300 3500 
L 978 3500 
L 1906 2253 
L 2834 3500 
L 3513 3500 
z
" id="DejaVuSans-78" transform="scale(0.015625)"/>
     </defs>
     <use xlink:href="#DejaVuSans-78"/>
     <use x="59.179688" xlink:href="#DejaVuSans-20"/>
     <use x="90.966797" xlink:href="#DejaVuSans-28"/>
     <use x="129.980469" xlink:href="#DejaVuSans-6d"/>
     <use x="227.392578" xlink:href="#DejaVuSans-29"/>
    </g>
   </g>
  </g>
  <g id="axes_2">
   <g id="patch_7">
    <path d="M 287.44 271.86 
L 478.8 271.86 
L 478.8 80.88 
L 287.44 80.88 
z
" style="fill:#ffffff;"/>
   </g>
   <g id="matplotlib.axis_3">
    <g id="xtick_6">
     <g id="line2d_27">
      <path clip-path="url(#pdb3d755ca2)" d="M 296.138182 271.86 
L 296.138182 80.88 
" style="fill:none;stroke:#b0b0b0;stroke-linecap:square;stroke-width:0.8;"/>
     </g>
     <g id="line2d_28">
      <g>
       <use style="stroke:#000000;stroke-width:0.8;" x="296.138182" xlink:href="#mc013cc6531" y="271.86"/>
      </g>
     </g>
    </g>
    <g id="xtick_7">
     <g id="line2d_29">
      <path clip-path="url(#pdb3d755ca2)" d="M 339.638153 271.86 
L 339.638153 80.88 
" style="fill:none;stroke:#b0b0b0;stroke-linecap:square;stroke-width:0.8;"/>
     </g>
     <g id="line2d_30">
      <g>
       <use style="stroke:#000000;stroke-width:0.8;" x="339.638153" xlink:href="#mc013cc6531" y="271.86"/>
      </g>
     </g>
    </g>
    <g id="xtick_8">
     <g id="line2d_31">
      <path clip-path="url(#pdb3d755ca2)" d="M 383.138125 271.86 
L 383.138125 80.88 
" style="fill:none;stroke:#b0b0b0;stroke-linecap:square;stroke-width:0.8;"/>
     </g>
     <g id="line2d_32">
      <g>
       <use style="stroke:#000000;stroke-width:0.8;" x="383.138125" xlink:href="#mc013cc6531" y="271.86"/>
      </g>
     </g>
    </g>
    <g id="xtick_9">
     <g id="line2d_33">
      <path clip-path="url(#pdb3d755ca2)" d="M 426.638097 271.86 
L 426.638097 80.88 
" style="fill:none;stroke:#b0b0b0;stroke-linecap:square;stroke-width:0.8;"/>
     </g>
     <g id="line2d_34">
      <g>
       <use style="stroke:#000000;stroke-width:0.8;" x="426.638097" xlink:href="#mc013cc6531" y="271.86"/>
      </g>
     </g>
    </g>
    <g id="xtick_10">
     <g id="line2d_35">
      <path clip-path="url(#pdb3d755ca2)" d="M 470.138068 271.86 
L 470.138068 80.88 
" style="fill:none;stroke:#b0b0b0;stroke-linecap:square;stroke-width:0.8;"/>
     </g>
     <g id="line2d_36">
      <g>
       <use style="stroke:#000000;stroke-width:0.8;" x="470.138068" xlink:href="#mc013cc6531" y="271.86"/>
      </g>
     </g>
    </g>
    <g id="text_10">
     <!-- Tiempo (s) -->
     <g transform="translate(356.5575 283.458437)scale(0.1 -0.1)">
      <use xlink:href="#DejaVuSans-54"/>
      <use x="57.958984" xlink:href="#DejaVuSans-69"/>
      <use x="85.742188" xlink:href="#DejaVuSans-65"/>
      <use x="147.265625" xlink:href="#DejaVuSans-6d"/>
      <use x="244.677734" xlink:href="#DejaVuSans-70"/>
      <use x="308.154297" xlink:href="#DejaVuSans-6f"/>
      <use x="369.335938" xlink:href="#DejaVuSans-20"/>
      <use x="401.123047" xlink:href="#DejaVuSans-28"/>
      <use x="440.136719" xlink:href="#DejaVuSans-73"/>
      <use x="492.236328" xlink:href="#DejaVuSans-29"/>
     </g>
    </g>
   </g>
   <g id="matplotlib.axis_4">
    <g id="ytick_8">
     <g id="line2d_37">
      <path clip-path="url(#pdb3d755ca2)" d="M 287.44 263.179091 
L 478.8 263.179091 
" style="fill:none;stroke:#b0b0b0;stroke-linecap:square;stroke-width:0.8;"/>
     </g>
     <g id="line2d_38">
      <g>
       <use style="stroke:#000000;stroke-width:0.8;" x="287.44" xlink:href="#m374a8a0ecc" y="263.179091"/>
      </g>
     </g>
     <g id="text_11">
      <!-- 0 -->
      <g transform="translate(274.0775 266.97831)scale(0.1 -0.1)">
       <use xlink:href="#DejaVuSans-30"/>
      </g>
     </g>
    </g>
    <g id="ytick_9">
     <g id="line2d_39">
      <path clip-path="url(#pdb3d755ca2)" d="M 287.44 222.327845 
L 478.8 222.327845 
" style="fill:none;stroke:#b0b0b0;stroke-linecap:square;stroke-width:0.8;"/>
     </g>
     <g id="line2d_40">
      <g>
       <use style="stroke:#000000;stroke-width:0.8;" x="287.44" xlink:href="#m374a8a0ecc" y="222.327845"/>
      </g>
     </g>
     <g id="text_12">
      <!-- 2 -->
      <g transform="translate(274.0775 226.127064)scale(0.1 -0.1)">
       <use xlink:href="#DejaVuSans-32"/>
      </g>
     </g>
    </g>
    <g id="ytick_10">
     <g id="line2d_41">
      <path clip-path="url(#pdb3d755ca2)" d="M 287.44 181.476599 
L 478.8 181.476599 
" style="fill:none;stroke:#b0b0b0;stroke-linecap:square;stroke-width:0.8;"/>
     </g>
     <g id="line2d_42">
      <g>
       <use style="stroke:#000000;stroke-width:0.8;" x="287.44" xlink:href="#m374a8a0ecc" y="181.476599"/>
      </g>
     </g>
     <g id="text_13">
      <!-- 4 -->
      <g transform="translate(274.0775 185.275818)scale(0.1 -0.1)">
       <use xlink:href="#DejaVuSans-34"/>
      </g>
     </g>
    </g>
    <g id="ytick_11">
     <g id="line2d_43">
      <path clip-path="url(#pdb3d755ca2)" d="M 287.44 140.625354 
L 478.8 140.625354 
" style="fill:none;stroke:#b0b0b0;stroke-linecap:square;stroke-width:0.8;"/>
     </g>
     <g id="line2d_44">
      <g>
       <use style="stroke:#000000;stroke-width:0.8;" x="287.44" xlink:href="#m374a8a0ecc" y="140.625354"/>
      </g>
     </g>
     <g id="text_14">
      <!-- 6 -->
      <g transform="translate(274.0775 144.424572)scale(0.1 -0.1)">
       <use xlink:href="#DejaVuSans-36"/>
      </g>
     </g>
    </g>
    <g id="ytick_12">
     <g id="line2d_45">
      <path clip-path="url(#pdb3d755ca2)" d="M 287.44 99.774108 
L 478.8 99.774108 
" style="fill:none;stroke:#b0b0b0;stroke-linecap:square;stroke-width:0.8;"/>
     </g>
     <g id="line2d_46">
      <g>
       <use style="stroke:#000000;stroke-width:0.8;" x="287.44" xlink:href="#m374a8a0ecc" y="99.774108"/>
      </g>
     </g>
     <g id="text_15">
      <!-- 8 -->
      <g transform="translate(274.0775 103.573327)scale(0.1 -0.1)">
       <use xlink:href="#DejaVuSans-38"/>
      </g>
     </g>
    </g>
   </g>
   <g id="line2d_47">
    <path clip-path="url(#pdb3d755ca2)" d="M 296.138182 263.179091 
L 384.443124 263.069739 
L 384.805624 262.765426 
L 385.131874 262.185168 
L 385.494373 261.052502 
L 385.893123 259.019274 
L 386.364373 255.302303 
L 386.944373 248.7794 
L 387.814372 236.031325 
L 389.554371 210.049633 
L 390.27937 202.573061 
L 390.85937 198.599267 
L 391.36687 196.50349 
L 391.765619 195.633827 
L 392.091869 195.338432 
L 392.816869 194.979092 
L 393.433118 194.164274 
L 394.629367 192.566412 
L 395.209367 192.157567 
L 395.716867 192.051937 
L 396.260616 191.939288 
L 397.021866 191.529351 
L 398.471865 190.727952 
L 399.160615 190.627909 
L 399.776864 190.491439 
L 400.465614 190.104653 
L 401.371863 189.31177 
L 405.72186 185.106799 
L 410.108107 181.580205 
L 414.929354 177.49586 
L 420.7656 172.992817 
L 425.514347 169.590267 
L 430.734344 166.123235 
L 435.95434 162.923314 
L 441.355587 159.870984 
L 446.938083 156.971531 
L 452.73808 154.211184 
L 458.755576 151.595761 
L 464.990572 149.129145 
L 470.101818 147.276087 
L 470.101818 147.276087 
" style="fill:none;stroke:#1f77b4;stroke-linecap:square;stroke-opacity:0.7;stroke-width:1.5;"/>
   </g>
   <g id="line2d_48">
    <path clip-path="url(#pdb3d755ca2)" d="M 296.138182 263.179091 
L 299.799429 263.06808 
L 300.814429 262.787378 
L 301.793178 262.271193 
L 303.170677 261.2559 
L 305.816925 259.30086 
L 311.798172 255.456867 
L 312.994421 255.124763 
L 315.640669 254.72434 
L 317.380668 254.584601 
L 318.323167 254.379346 
L 319.446917 253.877195 
L 321.223165 253.071813 
L 322.129415 252.932332 
L 323.325664 252.800871 
L 325.138163 252.559274 
L 326.225662 252.440187 
L 329.92316 251.596469 
L 331.155659 250.771398 
L 332.460658 249.980641 
L 333.366907 249.704911 
L 334.526907 249.620558 
L 335.795656 249.48765 
L 336.593155 249.164291 
L 337.390655 248.583702 
L 338.478154 247.473836 
L 339.928153 246.039688 
L 340.653153 245.625486 
L 341.341902 245.476852 
L 342.719401 245.294656 
L 343.915651 245.161934 
L 344.6044 244.982531 
L 345.29315 244.56314 
L 346.126899 243.762636 
L 348.736897 241.014441 
L 349.425647 240.7226 
L 350.186897 240.646005 
L 351.963145 240.500979 
L 352.688145 240.177608 
L 353.485644 239.559627 
L 354.863143 238.137101 
L 355.841893 237.291743 
L 356.494392 237.00368 
L 357.944391 236.576399 
L 358.778141 235.88273 
L 360.26439 234.289042 
L 365.556886 228.218392 
L 367.840635 224.798702 
L 374.474381 214.53595 
L 385.023124 197.721181 
L 385.421873 197.436273 
L 385.748123 197.304884 
L 386.001873 196.890666 
L 386.328123 195.834002 
L 386.726873 193.66545 
L 387.270622 189.241601 
L 388.031872 180.942038 
L 389.916871 159.681813 
L 390.56937 154.975341 
L 391.11312 152.51871 
L 391.548119 151.416882 
L 391.946869 150.946039 
L 392.309369 150.842073 
L 392.744369 150.719131 
L 393.868118 150.306047 
L 394.266868 150.168516 
L 394.665617 149.784854 
L 395.136867 148.994867 
L 395.753117 147.474018 
L 397.058116 143.428716 
L 397.964365 141.041735 
L 398.616865 139.904373 
L 399.160615 139.366 
L 399.668114 139.161015 
L 402.314362 138.656562 
L 402.894362 138.302565 
L 403.583112 137.587355 
L 406.12061 134.631902 
L 406.70061 134.437341 
L 407.606859 134.24548 
L 408.585608 133.679975 
L 409.528108 133.219712 
L 411.159357 132.668933 
L 411.956856 131.877798 
L 413.696855 130.067156 
L 414.385605 129.696038 
L 415.074354 129.577375 
L 415.980604 129.464488 
L 417.611852 129.224027 
L 418.336852 129.07307 
L 419.098101 128.678968 
L 420.113101 127.866088 
L 421.74435 126.561271 
L 422.614349 126.180645 
L 423.629349 125.998964 
L 425.514347 125.690779 
L 429.574345 124.695555 
L 430.915594 124.347103 
L 432.111843 123.791851 
L 434.105592 122.555063 
L 435.664341 121.714861 
L 436.78809 121.361443 
L 438.165589 121.197851 
L 439.434338 120.975094 
L 440.304338 120.588833 
L 441.246837 119.910537 
L 443.458086 118.197546 
L 444.146835 117.997807 
L 445.343084 117.770771 
L 447.300583 117.106527 
L 447.916833 117.005428 
L 448.605582 116.656301 
L 449.765581 115.75399 
L 450.744331 115.108701 
L 451.39683 114.939452 
L 452.08558 114.809976 
L 452.70183 114.431298 
L 453.499329 113.644391 
L 454.913078 111.854372 
L 457.631826 108.487943 
L 459.698075 105.832113 
L 461.728074 102.782798 
L 470.101818 89.560909 
L 470.101818 89.560909 
" style="fill:none;stroke:#d62728;stroke-linecap:square;stroke-opacity:0.7;stroke-width:1.5;"/>
   </g>
   <g id="patch_8">
    <path d="M 287.44 271.86 
L 287.44 80.88 
" style="fill:none;stroke:#000000;stroke-linecap:square;stroke-linejoin:miter;stroke-width:0.8;"/>
   </g>
   <g id="patch_9">
    <path d="M 478.8 271.86 
L 478.8 80.88 
" style="fill:none;stroke:#000000;stroke-linecap:square;stroke-linejoin:miter;stroke-width:0.8;"/>
   </g>
   <g id="patch_10">
    <path d="M 287.44 271.86 
L 478.8 271.86 
" style="fill:none;stroke:#000000;stroke-linecap:square;stroke-linejoin:miter;stroke-width:0.8;"/>
   </g>
   <g id="patch_11">
    <path d="M 287.44 80.88 
L 478.8 80.88 
" style="fill:none;stroke:#000000;stroke-linecap:square;stroke-linejoin:miter;stroke-width:0.8;"/>
   </g>
   <g id="text_16">
    <!-- y (m) -->
    <g transform="translate(367.135625 74.88)scale(0.12 -0.12)">
     <defs>
      <path d="M 2059 -325 
Q 1816 -950 1584 -1140 
Q 1353 -1331 966 -1331 
L 506 -1331 
L 506 -850 
L 844 -850 
Q 1081 -850 1212 -737 
Q 1344 -625 1503 -206 
L 1606 56 
L 191 3500 
L 800 3500 
L 1894 763 
L 2988 3500 
L 3597 3500 
L 2059 -325 
z
" id="DejaVuSans-79" transform="scale(0.015625)"/>
     </defs>
     <use xlink:href="#DejaVuSans-79"/>
     <use x="59.179688" xlink:href="#DejaVuSans-20"/>
     <use x="90.966797" xlink:href="#DejaVuSans-28"/>
     <use x="129.980469" xlink:href="#DejaVuSans-6d"/>
     <use x="227.392578" xlink:href="#DejaVuSans-29"/>
    </g>
   </g>
  </g>
  <g id="axes_3">
   <g id="patch_12">
    <path d="M 65.59 505.24 
L 256.95 505.24 
L 256.95 314.26 
L 65.59 314.26 
z
" style="fill:#ffffff;"/>
   </g>
   <g id="matplotlib.axis_5">
    <g id="xtick_11">
     <g id="line2d_49">
      <path clip-path="url(#p5ed5ed337e)" d="M 74.288182 505.24 
L 74.288182 314.26 
" style="fill:none;stroke:#b0b0b0;stroke-linecap:square;stroke-width:0.8;"/>
     </g>
     <g id="line2d_50">
      <g>
       <use style="stroke:#000000;stroke-width:0.8;" x="74.288182" xlink:href="#mc013cc6531" y="505.24"/>
      </g>
     </g>
     <g id="text_17">
      <!-- 0 -->
      <g transform="translate(71.106932 519.838438)scale(0.1 -0.1)">
       <use xlink:href="#DejaVuSans-30"/>
      </g>
     </g>
    </g>
    <g id="xtick_12">
     <g id="line2d_51">
      <path clip-path="url(#p5ed5ed337e)" d="M 117.788153 505.24 
L 117.788153 314.26 
" style="fill:none;stroke:#b0b0b0;stroke-linecap:square;stroke-width:0.8;"/>
     </g>
     <g id="line2d_52">
      <g>
       <use style="stroke:#000000;stroke-width:0.8;" x="117.788153" xlink:href="#mc013cc6531" y="505.24"/>
      </g>
     </g>
     <g id="text_18">
      <!-- 5 -->
      <g transform="translate(114.606903 519.838438)scale(0.1 -0.1)">
       <defs>
        <path d="M 691 4666 
L 3169 4666 
L 3169 4134 
L 1269 4134 
L 1269 2991 
Q 1406 3038 1543 3061 
Q 1681 3084 1819 3084 
Q 2600 3084 3056 2656 
Q 3513 2228 3513 1497 
Q 3513 744 3044 326 
Q 2575 -91 1722 -91 
Q 1428 -91 1123 -41 
Q 819 9 494 109 
L 494 744 
Q 775 591 1075 516 
Q 1375 441 1709 441 
Q 2250 441 2565 725 
Q 2881 1009 2881 1497 
Q 2881 1984 2565 2268 
Q 2250 2553 1709 2553 
Q 1456 2553 1204 2497 
Q 953 2441 691 2322 
L 691 4666 
z
" id="DejaVuSans-35" transform="scale(0.015625)"/>
       </defs>
       <use xlink:href="#DejaVuSans-35"/>
      </g>
     </g>
    </g>
    <g id="xtick_13">
     <g id="line2d_53">
      <path clip-path="url(#p5ed5ed337e)" d="M 161.288125 505.24 
L 161.288125 314.26 
" style="fill:none;stroke:#b0b0b0;stroke-linecap:square;stroke-width:0.8;"/>
     </g>
     <g id="line2d_54">
      <g>
       <use style="stroke:#000000;stroke-width:0.8;" x="161.288125" xlink:href="#mc013cc6531" y="505.24"/>
      </g>
     </g>
     <g id="text_19">
      <!-- 10 -->
      <g transform="translate(154.925625 519.838438)scale(0.1 -0.1)">
       <use xlink:href="#DejaVuSans-31"/>
       <use x="63.623047" xlink:href="#DejaVuSans-30"/>
      </g>
     </g>
    </g>
    <g id="xtick_14">
     <g id="line2d_55">
      <path clip-path="url(#p5ed5ed337e)" d="M 204.788097 505.24 
L 204.788097 314.26 
" style="fill:none;stroke:#b0b0b0;stroke-linecap:square;stroke-width:0.8;"/>
     </g>
     <g id="line2d_56">
      <g>
       <use style="stroke:#000000;stroke-width:0.8;" x="204.788097" xlink:href="#mc013cc6531" y="505.24"/>
      </g>
     </g>
     <g id="text_20">
      <!-- 15 -->
      <g transform="translate(198.425597 519.838438)scale(0.1 -0.1)">
       <use xlink:href="#DejaVuSans-31"/>
       <use x="63.623047" xlink:href="#DejaVuSans-35"/>
      </g>
     </g>
    </g>
    <g id="xtick_15">
     <g id="line2d_57">
      <path clip-path="url(#p5ed5ed337e)" d="M 248.288068 505.24 
L 248.288068 314.26 
" style="fill:none;stroke:#b0b0b0;stroke-linecap:square;stroke-width:0.8;"/>
     </g>
     <g id="line2d_58">
      <g>
       <use style="stroke:#000000;stroke-width:0.8;" x="248.288068" xlink:href="#mc013cc6531" y="505.24"/>
      </g>
     </g>
     <g id="text_21">
      <!-- 20 -->
      <g transform="translate(241.925568 519.838438)scale(0.1 -0.1)">
       <use xlink:href="#DejaVuSans-32"/>
       <use x="63.623047" xlink:href="#DejaVuSans-30"/>
      </g>
     </g>
    </g>
    <g id="text_22">
     <!-- Tiempo (s) -->
     <g transform="translate(134.7075 533.516562)scale(0.1 -0.1)">
      <use xlink:href="#DejaVuSans-54"/>
      <use x="57.958984" xlink:href="#DejaVuSans-69"/>
      <use x="85.742188" xlink:href="#DejaVuSans-65"/>
      <use x="147.265625" xlink:href="#DejaVuSans-6d"/>
      <use x="244.677734" xlink:href="#DejaVuSans-70"/>
      <use x="308.154297" xlink:href="#DejaVuSans-6f"/>
      <use x="369.335938" xlink:href="#DejaVuSans-20"/>
      <use x="401.123047" xlink:href="#DejaVuSans-28"/>
      <use x="440.136719" xlink:href="#DejaVuSans-73"/>
      <use x="492.236328" xlink:href="#DejaVuSans-29"/>
     </g>
    </g>
   </g>
   <g id="matplotlib.axis_6">
    <g id="ytick_13">
     <g id="line2d_59">
      <path clip-path="url(#p5ed5ed337e)" d="M 65.59 496.559139 
L 256.95 496.559139 
" style="fill:none;stroke:#b0b0b0;stroke-linecap:square;stroke-width:0.8;"/>
     </g>
     <g id="line2d_60">
      <g>
       <use style="stroke:#000000;stroke-width:0.8;" x="65.59" xlink:href="#m374a8a0ecc" y="496.559139"/>
      </g>
     </g>
     <g id="text_23">
      <!-- 0 -->
      <g transform="translate(52.2275 500.358357)scale(0.1 -0.1)">
       <use xlink:href="#DejaVuSans-30"/>
      </g>
     </g>
    </g>
    <g id="ytick_14">
     <g id="line2d_61">
      <path clip-path="url(#p5ed5ed337e)" d="M 65.59 468.568341 
L 256.95 468.568341 
" style="fill:none;stroke:#b0b0b0;stroke-linecap:square;stroke-width:0.8;"/>
     </g>
     <g id="line2d_62">
      <g>
       <use style="stroke:#000000;stroke-width:0.8;" x="65.59" xlink:href="#m374a8a0ecc" y="468.568341"/>
      </g>
     </g>
     <g id="text_24">
      <!-- 100 -->
      <g transform="translate(39.5025 472.367559)scale(0.1 -0.1)">
       <use xlink:href="#DejaVuSans-31"/>
       <use x="63.623047" xlink:href="#DejaVuSans-30"/>
       <use x="127.246094" xlink:href="#DejaVuSans-30"/>
      </g>
     </g>
    </g>
    <g id="ytick_15">
     <g id="line2d_63">
      <path clip-path="url(#p5ed5ed337e)" d="M 65.59 440.577543 
L 256.95 440.577543 
" style="fill:none;stroke:#b0b0b0;stroke-linecap:square;stroke-width:0.8;"/>
     </g>
     <g id="line2d_64">
      <g>
       <use style="stroke:#000000;stroke-width:0.8;" x="65.59" xlink:href="#m374a8a0ecc" y="440.577543"/>
      </g>
     </g>
     <g id="text_25">
      <!-- 200 -->
      <g transform="translate(39.5025 444.376761)scale(0.1 -0.1)">
       <use xlink:href="#DejaVuSans-32"/>
       <use x="63.623047" xlink:href="#DejaVuSans-30"/>
       <use x="127.246094" xlink:href="#DejaVuSans-30"/>
      </g>
     </g>
    </g>
    <g id="ytick_16">
     <g id="line2d_65">
      <path clip-path="url(#p5ed5ed337e)" d="M 65.59 412.586745 
L 256.95 412.586745 
" style="fill:none;stroke:#b0b0b0;stroke-linecap:square;stroke-width:0.8;"/>
     </g>
     <g id="line2d_66">
      <g>
       <use style="stroke:#000000;stroke-width:0.8;" x="65.59" xlink:href="#m374a8a0ecc" y="412.586745"/>
      </g>
     </g>
     <g id="text_26">
      <!-- 300 -->
      <g transform="translate(39.5025 416.385963)scale(0.1 -0.1)">
       <defs>
        <path d="M 2597 2516 
Q 3050 2419 3304 2112 
Q 3559 1806 3559 1356 
Q 3559 666 3084 287 
Q 2609 -91 1734 -91 
Q 1441 -91 1130 -33 
Q 819 25 488 141 
L 488 750 
Q 750 597 1062 519 
Q 1375 441 1716 441 
Q 2309 441 2620 675 
Q 2931 909 2931 1356 
Q 2931 1769 2642 2001 
Q 2353 2234 1838 2234 
L 1294 2234 
L 1294 2753 
L 1863 2753 
Q 2328 2753 2575 2939 
Q 2822 3125 2822 3475 
Q 2822 3834 2567 4026 
Q 2313 4219 1838 4219 
Q 1578 4219 1281 4162 
Q 984 4106 628 3988 
L 628 4550 
Q 988 4650 1302 4700 
Q 1616 4750 1894 4750 
Q 2613 4750 3031 4423 
Q 3450 4097 3450 3541 
Q 3450 3153 3228 2886 
Q 3006 2619 2597 2516 
z
" id="DejaVuSans-33" transform="scale(0.015625)"/>
       </defs>
       <use xlink:href="#DejaVuSans-33"/>
       <use x="63.623047" xlink:href="#DejaVuSans-30"/>
       <use x="127.246094" xlink:href="#DejaVuSans-30"/>
      </g>
     </g>
    </g>
    <g id="ytick_17">
     <g id="line2d_67">
      <path clip-path="url(#p5ed5ed337e)" d="M 65.59 384.595947 
L 256.95 384.595947 
" style="fill:none;stroke:#b0b0b0;stroke-linecap:square;stroke-width:0.8;"/>
     </g>
     <g id="line2d_68">
      <g>
       <use style="stroke:#000000;stroke-width:0.8;" x="65.59" xlink:href="#m374a8a0ecc" y="384.595947"/>
      </g>
     </g>
     <g id="text_27">
      <!-- 400 -->
      <g transform="translate(39.5025 388.395165)scale(0.1 -0.1)">
       <use xlink:href="#DejaVuSans-34"/>
       <use x="63.623047" xlink:href="#DejaVuSans-30"/>
       <use x="127.246094" xlink:href="#DejaVuSans-30"/>
      </g>
     </g>
    </g>
    <g id="ytick_18">
     <g id="line2d_69">
      <path clip-path="url(#p5ed5ed337e)" d="M 65.59 356.605149 
L 256.95 356.605149 
" style="fill:none;stroke:#b0b0b0;stroke-linecap:square;stroke-width:0.8;"/>
     </g>
     <g id="line2d_70">
      <g>
       <use style="stroke:#000000;stroke-width:0.8;" x="65.59" xlink:href="#m374a8a0ecc" y="356.605149"/>
      </g>
     </g>
     <g id="text_28">
      <!-- 500 -->
      <g transform="translate(39.5025 360.404368)scale(0.1 -0.1)">
       <use xlink:href="#DejaVuSans-35"/>
       <use x="63.623047" xlink:href="#DejaVuSans-30"/>
       <use x="127.246094" xlink:href="#DejaVuSans-30"/>
      </g>
     </g>
    </g>
    <g id="ytick_19">
     <g id="line2d_71">
      <path clip-path="url(#p5ed5ed337e)" d="M 65.59 328.614351 
L 256.95 328.614351 
" style="fill:none;stroke:#b0b0b0;stroke-linecap:square;stroke-width:0.8;"/>
     </g>
     <g id="line2d_72">
      <g>
       <use style="stroke:#000000;stroke-width:0.8;" x="65.59" xlink:href="#m374a8a0ecc" y="328.614351"/>
      </g>
     </g>
     <g id="text_29">
      <!-- 600 -->
      <g transform="translate(39.5025 332.41357)scale(0.1 -0.1)">
       <use xlink:href="#DejaVuSans-36"/>
       <use x="63.623047" xlink:href="#DejaVuSans-30"/>
       <use x="127.246094" xlink:href="#DejaVuSans-30"/>
      </g>
     </g>
    </g>
   </g>
   <g id="line2d_73">
    <path clip-path="url(#p5ed5ed337e)" d="M 74.288182 496.559091 
L 141.205638 496.501199 
L 162.375624 496.391835 
L 163.281874 496.055588 
L 166.689371 494.482763 
L 168.42937 494.127285 
L 170.749369 493.896032 
L 174.374366 493.785008 
L 248.251818 493.017251 
L 248.251818 493.017251 
" style="fill:none;stroke:#1f77b4;stroke-linecap:square;stroke-opacity:0.7;stroke-width:1.5;"/>
   </g>
   <g id="line2d_74">
    <path clip-path="url(#p5ed5ed337e)" d="M 74.288182 496.559091 
L 77.18818 496.441943 
L 82.263177 496.221616 
L 84.728175 496.081965 
L 86.866924 495.739998 
L 88.860672 495.192348 
L 90.781921 494.433632 
L 92.66692 493.452559 
L 94.588169 492.197036 
L 96.726917 490.516278 
L 99.083166 488.383869 
L 101.475664 485.915209 
L 104.484412 482.451458 
L 108.580659 477.391623 
L 112.713157 471.884511 
L 119.455652 462.581436 
L 134.209393 441.978137 
L 137.76189 437.498764 
L 143.453137 430.736246 
L 153.05938 419.288698 
L 162.991874 407.390217 
L 163.789373 406.987651 
L 164.768123 406.780557 
L 166.979371 406.593407 
L 172.163118 406.23398 
L 174.736866 405.797903 
L 177.056865 405.180668 
L 179.195613 404.382223 
L 181.261862 403.375164 
L 183.291861 402.13569 
L 185.575609 400.460492 
L 188.040608 398.383223 
L 190.396856 396.108084 
L 193.296854 392.961631 
L 198.081851 387.429063 
L 202.468098 381.955301 
L 210.334343 371.861312 
L 215.37309 365.122979 
L 230.960579 344.018416 
L 235.673076 338.244311 
L 247.998068 323.25568 
L 248.251818 322.940909 
L 248.251818 322.940909 
" style="fill:none;stroke:#d62728;stroke-linecap:square;stroke-opacity:0.7;stroke-width:1.5;"/>
   </g>
   <g id="patch_13">
    <path d="M 65.59 505.24 
L 65.59 314.26 
" style="fill:none;stroke:#000000;stroke-linecap:square;stroke-linejoin:miter;stroke-width:0.8;"/>
   </g>
   <g id="patch_14">
    <path d="M 256.95 505.24 
L 256.95 314.26 
" style="fill:none;stroke:#000000;stroke-linecap:square;stroke-linejoin:miter;stroke-width:0.8;"/>
   </g>
   <g id="patch_15">
    <path d="M 65.59 505.24 
L 256.95 505.24 
" style="fill:none;stroke:#000000;stroke-linecap:square;stroke-linejoin:miter;stroke-width:0.8;"/>
   </g>
   <g id="patch_16">
    <path d="M 65.59 314.26 
L 256.95 314.26 
" style="fill:none;stroke:#000000;stroke-linecap:square;stroke-linejoin:miter;stroke-width:0.8;"/>
   </g>
   <g id="text_30">
    <!-- z (m) -->
    <g transform="translate(145.687812 308.26)scale(0.12 -0.12)">
     <defs>
      <path d="M 353 3500 
L 3084 3500 
L 3084 2975 
L 922 459 
L 3084 459 
L 3084 0 
L 275 0 
L 275 525 
L 2438 3041 
L 353 3041 
L 353 3500 
z
" id="DejaVuSans-7a" transform="scale(0.015625)"/>
     </defs>
     <use xlink:href="#DejaVuSans-7a"/>
     <use x="52.490234" xlink:href="#DejaVuSans-20"/>
     <use x="84.277344" xlink:href="#DejaVuSans-28"/>
     <use x="123.291016" xlink:href="#DejaVuSans-6d"/>
     <use x="220.703125" xlink:href="#DejaVuSans-29"/>
    </g>
   </g>
  </g>
  <g id="axes_4">
   <g id="patch_17">
    <path d="M 287.44 505.24 
L 478.8 505.24 
L 478.8 314.26 
L 287.44 314.26 
z
" style="fill:#ffffff;"/>
   </g>
   <g id="matplotlib.axis_7">
    <g id="xtick_16">
     <g id="line2d_75">
      <path clip-path="url(#p5d0534571c)" d="M 296.138182 505.24 
L 296.138182 314.26 
" style="fill:none;stroke:#b0b0b0;stroke-linecap:square;stroke-width:0.8;"/>
     </g>
     <g id="line2d_76">
      <g>
       <use style="stroke:#000000;stroke-width:0.8;" x="296.138182" xlink:href="#mc013cc6531" y="505.24"/>
      </g>
     </g>
     <g id="text_31">
      <!-- 0 -->
      <g transform="translate(292.956932 519.838438)scale(0.1 -0.1)">
       <use xlink:href="#DejaVuSans-30"/>
      </g>
     </g>
    </g>
    <g id="xtick_17">
     <g id="line2d_77">
      <path clip-path="url(#p5d0534571c)" d="M 339.638153 505.24 
L 339.638153 314.26 
" style="fill:none;stroke:#b0b0b0;stroke-linecap:square;stroke-width:0.8;"/>
     </g>
     <g id="line2d_78">
      <g>
       <use style="stroke:#000000;stroke-width:0.8;" x="339.638153" xlink:href="#mc013cc6531" y="505.24"/>
      </g>
     </g>
     <g id="text_32">
      <!-- 5 -->
      <g transform="translate(336.456903 519.838438)scale(0.1 -0.1)">
       <use xlink:href="#DejaVuSans-35"/>
      </g>
     </g>
    </g>
    <g id="xtick_18">
     <g id="line2d_79">
      <path clip-path="url(#p5d0534571c)" d="M 383.138125 505.24 
L 383.138125 314.26 
" style="fill:none;stroke:#b0b0b0;stroke-linecap:square;stroke-width:0.8;"/>
     </g>
     <g id="line2d_80">
      <g>
       <use style="stroke:#000000;stroke-width:0.8;" x="383.138125" xlink:href="#mc013cc6531" y="505.24"/>
      </g>
     </g>
     <g id="text_33">
      <!-- 10 -->
      <g transform="translate(376.775625 519.838438)scale(0.1 -0.1)">
       <use xlink:href="#DejaVuSans-31"/>
       <use x="63.623047" xlink:href="#DejaVuSans-30"/>
      </g>
     </g>
    </g>
    <g id="xtick_19">
     <g id="line2d_81">
      <path clip-path="url(#p5d0534571c)" d="M 426.638097 505.24 
L 426.638097 314.26 
" style="fill:none;stroke:#b0b0b0;stroke-linecap:square;stroke-width:0.8;"/>
     </g>
     <g id="line2d_82">
      <g>
       <use style="stroke:#000000;stroke-width:0.8;" x="426.638097" xlink:href="#mc013cc6531" y="505.24"/>
      </g>
     </g>
     <g id="text_34">
      <!-- 15 -->
      <g transform="translate(420.275597 519.838438)scale(0.1 -0.1)">
       <use xlink:href="#DejaVuSans-31"/>
       <use x="63.623047" xlink:href="#DejaVuSans-35"/>
      </g>
     </g>
    </g>
    <g id="xtick_20">
     <g id="line2d_83">
      <path clip-path="url(#p5d0534571c)" d="M 470.138068 505.24 
L 470.138068 314.26 
" style="fill:none;stroke:#b0b0b0;stroke-linecap:square;stroke-width:0.8;"/>
     </g>
     <g id="line2d_84">
      <g>
       <use style="stroke:#000000;stroke-width:0.8;" x="470.138068" xlink:href="#mc013cc6531" y="505.24"/>
      </g>
     </g>
     <g id="text_35">
      <!-- 20 -->
      <g transform="translate(463.775568 519.838438)scale(0.1 -0.1)">
       <use xlink:href="#DejaVuSans-32"/>
       <use x="63.623047" xlink:href="#DejaVuSans-30"/>
      </g>
     </g>
    </g>
    <g id="text_36">
     <!-- Tiempo (s) -->
     <g transform="translate(356.5575 533.516562)scale(0.1 -0.1)">
      <use xlink:href="#DejaVuSans-54"/>
      <use x="57.958984" xlink:href="#DejaVuSans-69"/>
      <use x="85.742188" xlink:href="#DejaVuSans-65"/>
      <use x="147.265625" xlink:href="#DejaVuSans-6d"/>
      <use x="244.677734" xlink:href="#DejaVuSans-70"/>
      <use x="308.154297" xlink:href="#DejaVuSans-6f"/>
      <use x="369.335938" xlink:href="#DejaVuSans-20"/>
      <use x="401.123047" xlink:href="#DejaVuSans-28"/>
      <use x="440.136719" xlink:href="#DejaVuSans-73"/>
      <use x="492.236328" xlink:href="#DejaVuSans-29"/>
     </g>
    </g>
   </g>
   <g id="matplotlib.axis_8">
    <g id="ytick_20">
     <g id="line2d_85">
      <path clip-path="url(#p5d0534571c)" d="M 287.44 496.559091 
L 478.8 496.559091 
" style="fill:none;stroke:#b0b0b0;stroke-linecap:square;stroke-width:0.8;"/>
     </g>
     <g id="line2d_86">
      <g>
       <use style="stroke:#000000;stroke-width:0.8;" x="287.44" xlink:href="#m374a8a0ecc" y="496.559091"/>
      </g>
     </g>
     <g id="text_37">
      <!-- 0 -->
      <g transform="translate(274.0775 500.35831)scale(0.1 -0.1)">
       <use xlink:href="#DejaVuSans-30"/>
      </g>
     </g>
    </g>
    <g id="ytick_21">
     <g id="line2d_87">
      <path clip-path="url(#p5d0534571c)" d="M 287.44 457.674696 
L 478.8 457.674696 
" style="fill:none;stroke:#b0b0b0;stroke-linecap:square;stroke-width:0.8;"/>
     </g>
     <g id="line2d_88">
      <g>
       <use style="stroke:#000000;stroke-width:0.8;" x="287.44" xlink:href="#m374a8a0ecc" y="457.674696"/>
      </g>
     </g>
     <g id="text_38">
      <!-- 20 -->
      <g transform="translate(267.715 461.473915)scale(0.1 -0.1)">
       <use xlink:href="#DejaVuSans-32"/>
       <use x="63.623047" xlink:href="#DejaVuSans-30"/>
      </g>
     </g>
    </g>
    <g id="ytick_22">
     <g id="line2d_89">
      <path clip-path="url(#p5d0534571c)" d="M 287.44 418.790301 
L 478.8 418.790301 
" style="fill:none;stroke:#b0b0b0;stroke-linecap:square;stroke-width:0.8;"/>
     </g>
     <g id="line2d_90">
      <g>
       <use style="stroke:#000000;stroke-width:0.8;" x="287.44" xlink:href="#m374a8a0ecc" y="418.790301"/>
      </g>
     </g>
     <g id="text_39">
      <!-- 40 -->
      <g transform="translate(267.715 422.58952)scale(0.1 -0.1)">
       <use xlink:href="#DejaVuSans-34"/>
       <use x="63.623047" xlink:href="#DejaVuSans-30"/>
      </g>
     </g>
    </g>
    <g id="ytick_23">
     <g id="line2d_91">
      <path clip-path="url(#p5d0534571c)" d="M 287.44 379.905906 
L 478.8 379.905906 
" style="fill:none;stroke:#b0b0b0;stroke-linecap:square;stroke-width:0.8;"/>
     </g>
     <g id="line2d_92">
      <g>
       <use style="stroke:#000000;stroke-width:0.8;" x="287.44" xlink:href="#m374a8a0ecc" y="379.905906"/>
      </g>
     </g>
     <g id="text_40">
      <!-- 60 -->
      <g transform="translate(267.715 383.705125)scale(0.1 -0.1)">
       <use xlink:href="#DejaVuSans-36"/>
       <use x="63.623047" xlink:href="#DejaVuSans-30"/>
      </g>
     </g>
    </g>
    <g id="ytick_24">
     <g id="line2d_93">
      <path clip-path="url(#p5d0534571c)" d="M 287.44 341.021511 
L 478.8 341.021511 
" style="fill:none;stroke:#b0b0b0;stroke-linecap:square;stroke-width:0.8;"/>
     </g>
     <g id="line2d_94">
      <g>
       <use style="stroke:#000000;stroke-width:0.8;" x="287.44" xlink:href="#m374a8a0ecc" y="341.021511"/>
      </g>
     </g>
     <g id="text_41">
      <!-- 80 -->
      <g transform="translate(267.715 344.82073)scale(0.1 -0.1)">
       <use xlink:href="#DejaVuSans-38"/>
       <use x="63.623047" xlink:href="#DejaVuSans-30"/>
      </g>
     </g>
    </g>
   </g>
   <g id="line2d_95">
    <path clip-path="url(#p5d0534571c)" d="M 296.138182 496.559091 
L 383.101875 496.559091 
L 384.116874 491.656097 
L 384.515624 490.69847 
L 385.023124 490.06221 
L 385.385624 489.641858 
L 386.219373 486.113613 
L 386.690623 485.14548 
L 387.306872 484.387521 
L 387.995622 483.915043 
L 388.865621 483.597161 
L 390.06187 483.419608 
L 393.723118 483.219188 
L 399.994364 483.174926 
L 470.101818 483.077032 
L 470.101818 483.077032 
" style="fill:none;stroke:#1f77b4;stroke-linecap:square;stroke-opacity:0.7;stroke-width:1.5;"/>
   </g>
   <g id="line2d_96">
    <path clip-path="url(#p5d0534571c)" d="M 296.138182 496.559091 
L 297.914431 496.451891 
L 298.92943 496.156832 
L 299.799429 495.671878 
L 302.155678 494.160484 
L 304.294426 493.301847 
L 305.816925 492.562866 
L 308.245674 491.247404 
L 309.260673 491.071586 
L 312.776921 490.925281 
L 313.86442 490.745907 
L 314.91567 490.333981 
L 315.894419 490.016162 
L 317.706918 489.652473 
L 318.685667 489.08758 
L 320.063166 488.005149 
L 322.926914 485.688269 
L 324.050664 485.104562 
L 325.065663 484.816842 
L 327.131912 484.411261 
L 328.038161 483.83484 
L 330.358159 481.983064 
L 331.953158 480.693733 
L 332.641908 480.452947 
L 334.381907 480.041003 
L 335.215656 479.444673 
L 336.230656 478.419096 
L 337.571905 476.716548 
L 342.900651 469.614436 
L 344.1694 468.363013 
L 345.1119 467.720975 
L 345.909399 467.432556 
L 347.504398 467.030626 
L 348.338148 466.368931 
L 348.918147 466.025987 
L 349.788147 465.708034 
L 350.295646 465.110898 
L 351.600646 463.361512 
L 351.963145 463.240145 
L 352.978145 462.64795 
L 353.304394 462.454009 
L 353.739394 461.894939 
L 354.609394 460.720108 
L 355.261893 460.324659 
L 356.059393 459.441546 
L 356.421892 459.261903 
L 356.748142 458.707715 
L 357.835642 456.57752 
L 358.343141 456.26691 
L 359.285641 455.229586 
L 359.57564 455.111482 
L 359.90189 454.662492 
L 360.989389 452.84241 
L 361.315639 452.692104 
L 361.678139 452.155891 
L 362.366889 451.13056 
L 363.055638 450.570831 
L 364.179387 448.730872 
L 364.396887 448.648677 
L 364.723137 448.226501 
L 365.556886 447.018546 
L 366.028136 446.730839 
L 366.390636 445.994885 
L 367.260635 444.087264 
L 367.550635 443.964003 
L 367.804385 443.750457 
L 368.239385 442.995782 
L 368.819384 442.097823 
L 369.544384 441.471197 
L 370.559383 439.701634 
L 370.958133 439.476443 
L 371.356883 438.781537 
L 372.009382 437.686789 
L 372.734382 437.002699 
L 373.966881 434.503561 
L 374.256881 434.363408 
L 374.619381 433.802089 
L 375.38063 432.585429 
L 375.99688 432.116494 
L 377.193129 430.217726 
L 377.410629 430.087848 
L 377.736879 429.59064 
L 378.570628 428.195245 
L 379.150628 427.749878 
L 379.585627 426.740197 
L 380.238127 425.333912 
L 380.528127 425.175663 
L 380.745627 425.043691 
L 381.108126 424.491968 
L 381.833126 423.340925 
L 382.485625 422.801993 
L 383.029375 421.499917 
L 383.138125 421.039738 
L 384.008124 415.20532 
L 384.551874 412.78293 
L 384.986874 411.755665 
L 385.458123 410.823799 
L 386.545623 406.774558 
L 387.669372 403.449222 
L 388.756871 400.884873 
L 389.735621 399.126822 
L 390.75062 397.761516 
L 391.946869 396.538066 
L 393.288118 395.472544 
L 394.846867 394.553917 
L 398.870615 392.51361 
L 399.921864 392.345485 
L 400.791863 391.923008 
L 401.843113 391.153763 
L 403.329362 389.758049 
L 406.77311 386.434772 
L 407.969359 385.609333 
L 408.875608 385.233818 
L 409.673108 385.136239 
L 410.398107 384.99053 
L 411.086857 384.618555 
L 412.101856 383.7494 
L 412.790606 383.312528 
L 413.370605 383.224866 
L 413.878105 383.041112 
L 414.458105 382.570223 
L 415.110604 381.732361 
L 416.524353 379.826896 
L 417.321853 379.130536 
L 418.010602 378.800674 
L 418.808102 378.69891 
L 419.388101 378.460101 
L 420.040601 377.932881 
L 421.0556 377.102738 
L 421.5631 377.002033 
L 422.03435 376.854456 
L 422.541849 376.45042 
L 423.158099 375.639899 
L 424.136848 374.295766 
L 424.571848 374.080427 
L 425.333097 373.830082 
L 426.021847 373.159244 
L 426.674347 372.64 
L 427.181846 372.499866 
L 427.761846 372.379735 
L 428.305595 372.012776 
L 428.921845 371.311679 
L 431.314344 368.287575 
L 432.365593 367.362004 
L 433.199342 366.904732 
L 433.924342 366.750549 
L 434.685591 366.626273 
L 435.338091 366.269484 
L 436.64309 365.470283 
L 437.766839 365.144348 
L 438.383089 364.587549 
L 439.108088 363.601839 
L 439.978088 362.030351 
L 441.573087 359.048635 
L 442.225586 358.334529 
L 442.805586 358.011137 
L 444.074335 357.556855 
L 444.799335 357.143727 
L 445.234334 357.002796 
L 445.633084 356.565741 
L 446.176834 355.584524 
L 446.865583 354.39982 
L 447.155583 354.274298 
L 447.409333 354.136593 
L 447.916833 353.494571 
L 448.388082 353.060321 
L 448.931832 352.790701 
L 449.475582 351.993327 
L 449.946831 351.455355 
L 450.526831 351.080172 
L 451.54183 349.79459 
L 451.75933 349.699663 
L 452.04933 349.262946 
L 452.52058 348.031891 
L 453.136829 346.541164 
L 453.426829 346.292019 
L 453.716829 346.167762 
L 454.115579 345.638842 
L 454.695578 344.934181 
L 455.275578 344.558592 
L 455.710578 343.670209 
L 456.363077 342.393515 
L 456.653077 342.258302 
L 456.906827 342.075249 
L 457.305577 341.421681 
L 457.958076 340.416866 
L 458.646826 339.835671 
L 459.879325 337.61433 
L 460.096825 337.513866 
L 460.423075 337.052894 
L 461.293074 335.684742 
L 461.800574 335.340114 
L 462.199323 334.496437 
L 462.888073 333.047545 
L 463.178073 332.889578 
L 463.395573 332.756877 
L 463.758072 332.183963 
L 464.555572 330.850258 
L 465.171821 330.372402 
L 466.368071 328.402218 
L 466.58557 328.285608 
L 466.91182 327.795258 
L 467.81807 326.291877 
L 468.289319 325.976581 
L 468.688069 325.112561 
L 469.449319 323.420269 
L 469.739318 323.264801 
L 469.956818 323.128389 
L 470.101818 322.940909 
L 470.101818 322.940909 
" style="fill:none;stroke:#d62728;stroke-linecap:square;stroke-opacity:0.7;stroke-width:1.5;"/>
   </g>
   <g id="patch_18">
    <path d="M 287.44 505.24 
L 287.44 314.26 
" style="fill:none;stroke:#000000;stroke-linecap:square;stroke-linejoin:miter;stroke-width:0.8;"/>
   </g>
   <g id="patch_19">
    <path d="M 478.8 505.24 
L 478.8 314.26 
" style="fill:none;stroke:#000000;stroke-linecap:square;stroke-linejoin:miter;stroke-width:0.8;"/>
   </g>
   <g id="patch_20">
    <path d="M 287.44 505.24 
L 478.8 505.24 
" style="fill:none;stroke:#000000;stroke-linecap:square;stroke-linejoin:miter;stroke-width:0.8;"/>
   </g>
   <g id="patch_21">
    <path d="M 287.44 314.26 
L 478.8 314.26 
" style="fill:none;stroke:#000000;stroke-linecap:square;stroke-linejoin:miter;stroke-width:0.8;"/>
   </g>
   <g id="text_42">
    <!-- $\psi$ (rad) -->
    <g transform="translate(362.6 308.26)scale(0.12 -0.12)">
     <defs>
      <path d="M 1591 -78 
Q 891 38 616 341 
Q 278 713 425 1472 
L 819 3500 
L 1400 3500 
L 1009 1494 
Q 900 922 1119 684 
Q 1313 478 1691 434 
L 2284 3500 
L 2856 3500 
L 2263 438 
Q 2681 481 2928 688 
Q 3247 950 3353 1497 
L 3741 3500 
L 4322 3500 
L 3928 1475 
Q 3775 688 3300 344 
Q 2872 34 2163 -75 
L 1919 -1331 
L 1347 -1331 
L 1591 -78 
z
" id="DejaVuSans-Oblique-3c8" transform="scale(0.015625)"/>
      <path d="M 2631 2963 
Q 2534 3019 2420 3045 
Q 2306 3072 2169 3072 
Q 1681 3072 1420 2755 
Q 1159 2438 1159 1844 
L 1159 0 
L 581 0 
L 581 3500 
L 1159 3500 
L 1159 2956 
Q 1341 3275 1631 3429 
Q 1922 3584 2338 3584 
Q 2397 3584 2469 3576 
Q 2541 3569 2628 3553 
L 2631 2963 
z
" id="DejaVuSans-72" transform="scale(0.015625)"/>
      <path d="M 2194 1759 
Q 1497 1759 1228 1600 
Q 959 1441 959 1056 
Q 959 750 1161 570 
Q 1363 391 1709 391 
Q 2188 391 2477 730 
Q 2766 1069 2766 1631 
L 2766 1759 
L 2194 1759 
z
M 3341 1997 
L 3341 0 
L 2766 0 
L 2766 531 
Q 2569 213 2275 61 
Q 1981 -91 1556 -91 
Q 1019 -91 701 211 
Q 384 513 384 1019 
Q 384 1609 779 1909 
Q 1175 2209 1959 2209 
L 2766 2209 
L 2766 2266 
Q 2766 2663 2505 2880 
Q 2244 3097 1772 3097 
Q 1472 3097 1187 3025 
Q 903 2953 641 2809 
L 641 3341 
Q 956 3463 1253 3523 
Q 1550 3584 1831 3584 
Q 2591 3584 2966 3190 
Q 3341 2797 3341 1997 
z
" id="DejaVuSans-61" transform="scale(0.015625)"/>
      <path d="M 2906 2969 
L 2906 4863 
L 3481 4863 
L 3481 0 
L 2906 0 
L 2906 525 
Q 2725 213 2448 61 
Q 2172 -91 1784 -91 
Q 1150 -91 751 415 
Q 353 922 353 1747 
Q 353 2572 751 3078 
Q 1150 3584 1784 3584 
Q 2172 3584 2448 3432 
Q 2725 3281 2906 2969 
z
M 947 1747 
Q 947 1113 1208 752 
Q 1469 391 1925 391 
Q 2381 391 2643 752 
Q 2906 1113 2906 1747 
Q 2906 2381 2643 2742 
Q 2381 3103 1925 3103 
Q 1469 3103 1208 2742 
Q 947 2381 947 1747 
z
" id="DejaVuSans-64" transform="scale(0.015625)"/>
     </defs>
     <use transform="translate(0 0.015625)" xlink:href="#DejaVuSans-Oblique-3c8"/>
     <use transform="translate(65.966797 0.015625)" xlink:href="#DejaVuSans-20"/>
     <use transform="translate(97.753906 0.015625)" xlink:href="#DejaVuSans-28"/>
     <use transform="translate(136.767578 0.015625)" xlink:href="#DejaVuSans-72"/>
     <use transform="translate(177.880859 0.015625)" xlink:href="#DejaVuSans-61"/>
     <use transform="translate(239.160156 0.015625)" xlink:href="#DejaVuSans-64"/>
     <use transform="translate(302.636719 0.015625)" xlink:href="#DejaVuSans-29"/>
    </g>
   </g>
  </g>
  <g id="text_43">
   <!-- Error acumulado -->
   <g transform="translate(221.62875 23.6775)scale(0.16 -0.16)">
    <defs>
     <path d="M 628 4666 
L 3578 4666 
L 3578 4134 
L 1259 4134 
L 1259 2753 
L 3481 2753 
L 3481 2222 
L 1259 2222 
L 1259 531 
L 3634 531 
L 3634 0 
L 628 0 
L 628 4666 
z
" id="DejaVuSans-45" transform="scale(0.015625)"/>
     <path d="M 3122 3366 
L 3122 2828 
Q 2878 2963 2633 3030 
Q 2388 3097 2138 3097 
Q 1578 3097 1268 2742 
Q 959 2388 959 1747 
Q 959 1106 1268 751 
Q 1578 397 2138 397 
Q 2388 397 2633 464 
Q 2878 531 3122 666 
L 3122 134 
Q 2881 22 2623 -34 
Q 2366 -91 2075 -91 
Q 1284 -91 818 406 
Q 353 903 353 1747 
Q 353 2603 823 3093 
Q 1294 3584 2113 3584 
Q 2378 3584 2631 3529 
Q 2884 3475 3122 3366 
z
" id="DejaVuSans-63" transform="scale(0.015625)"/>
     <path d="M 544 1381 
L 544 3500 
L 1119 3500 
L 1119 1403 
Q 1119 906 1312 657 
Q 1506 409 1894 409 
Q 2359 409 2629 706 
Q 2900 1003 2900 1516 
L 2900 3500 
L 3475 3500 
L 3475 0 
L 2900 0 
L 2900 538 
Q 2691 219 2414 64 
Q 2138 -91 1772 -91 
Q 1169 -91 856 284 
Q 544 659 544 1381 
z
M 1991 3584 
L 1991 3584 
z
" id="DejaVuSans-75" transform="scale(0.015625)"/>
     <path d="M 603 4863 
L 1178 4863 
L 1178 0 
L 603 0 
L 603 4863 
z
" id="DejaVuSans-6c" transform="scale(0.015625)"/>
    </defs>
    <use xlink:href="#DejaVuSans-45"/>
    <use x="63.183594" xlink:href="#DejaVuSans-72"/>
    <use x="102.546875" xlink:href="#DejaVuSans-72"/>
    <use x="141.410156" xlink:href="#DejaVuSans-6f"/>
    <use x="202.591797" xlink:href="#DejaVuSans-72"/>
    <use x="243.705078" xlink:href="#DejaVuSans-20"/>
    <use x="275.492188" xlink:href="#DejaVuSans-61"/>
    <use x="336.771484" xlink:href="#DejaVuSans-63"/>
    <use x="391.751953" xlink:href="#DejaVuSans-75"/>
    <use x="455.130859" xlink:href="#DejaVuSans-6d"/>
    <use x="552.542969" xlink:href="#DejaVuSans-75"/>
    <use x="615.921875" xlink:href="#DejaVuSans-6c"/>
    <use x="643.705078" xlink:href="#DejaVuSans-61"/>
    <use x="704.984375" xlink:href="#DejaVuSans-64"/>
    <use x="768.460938" xlink:href="#DejaVuSans-6f"/>
   </g>
  </g>
  <g id="legend_1">
   <g id="patch_22">
    <path d="M 500.7 304.178125 
L 569 304.178125 
Q 571 304.178125 571 302.178125 
L 571 273.821875 
Q 571 271.821875 569 271.821875 
L 500.7 271.821875 
Q 498.7 271.821875 498.7 273.821875 
L 498.7 302.178125 
Q 498.7 304.178125 500.7 304.178125 
z
" style="fill:#ffffff;opacity:0.8;stroke:#cccccc;stroke-linejoin:miter;"/>
   </g>
   <g id="line2d_97">
    <path d="M 502.7 279.920313 
L 522.7 279.920313 
" style="fill:none;stroke:#1f77b4;stroke-linecap:square;stroke-opacity:0.7;stroke-width:1.5;"/>
   </g>
   <g id="line2d_98"/>
   <g id="text_44">
    <!-- DSLPID -->
    <g transform="translate(530.7 283.420313)scale(0.1 -0.1)">
     <defs>
      <path d="M 1259 4147 
L 1259 519 
L 2022 519 
Q 2988 519 3436 956 
Q 3884 1394 3884 2338 
Q 3884 3275 3436 3711 
Q 2988 4147 2022 4147 
L 1259 4147 
z
M 628 4666 
L 1925 4666 
Q 3281 4666 3915 4102 
Q 4550 3538 4550 2338 
Q 4550 1131 3912 565 
Q 3275 0 1925 0 
L 628 0 
L 628 4666 
z
" id="DejaVuSans-44" transform="scale(0.015625)"/>
      <path d="M 3425 4513 
L 3425 3897 
Q 3066 4069 2747 4153 
Q 2428 4238 2131 4238 
Q 1616 4238 1336 4038 
Q 1056 3838 1056 3469 
Q 1056 3159 1242 3001 
Q 1428 2844 1947 2747 
L 2328 2669 
Q 3034 2534 3370 2195 
Q 3706 1856 3706 1288 
Q 3706 609 3251 259 
Q 2797 -91 1919 -91 
Q 1588 -91 1214 -16 
Q 841 59 441 206 
L 441 856 
Q 825 641 1194 531 
Q 1563 422 1919 422 
Q 2459 422 2753 634 
Q 3047 847 3047 1241 
Q 3047 1584 2836 1778 
Q 2625 1972 2144 2069 
L 1759 2144 
Q 1053 2284 737 2584 
Q 422 2884 422 3419 
Q 422 4038 858 4394 
Q 1294 4750 2059 4750 
Q 2388 4750 2728 4690 
Q 3069 4631 3425 4513 
z
" id="DejaVuSans-53" transform="scale(0.015625)"/>
      <path d="M 628 4666 
L 1259 4666 
L 1259 531 
L 3531 531 
L 3531 0 
L 628 0 
L 628 4666 
z
" id="DejaVuSans-4c" transform="scale(0.015625)"/>
      <path d="M 1259 4147 
L 1259 2394 
L 2053 2394 
Q 2494 2394 2734 2622 
Q 2975 2850 2975 3272 
Q 2975 3691 2734 3919 
Q 2494 4147 2053 4147 
L 1259 4147 
z
M 628 4666 
L 2053 4666 
Q 2838 4666 3239 4311 
Q 3641 3956 3641 3272 
Q 3641 2581 3239 2228 
Q 2838 1875 2053 1875 
L 1259 1875 
L 1259 0 
L 628 0 
L 628 4666 
z
" id="DejaVuSans-50" transform="scale(0.015625)"/>
      <path d="M 628 4666 
L 1259 4666 
L 1259 0 
L 628 0 
L 628 4666 
z
" id="DejaVuSans-49" transform="scale(0.015625)"/>
     </defs>
     <use xlink:href="#DejaVuSans-44"/>
     <use x="77.001953" xlink:href="#DejaVuSans-53"/>
     <use x="140.478516" xlink:href="#DejaVuSans-4c"/>
     <use x="196.191406" xlink:href="#DejaVuSans-50"/>
     <use x="256.494141" xlink:href="#DejaVuSans-49"/>
     <use x="285.986328" xlink:href="#DejaVuSans-44"/>
    </g>
   </g>
   <g id="line2d_99">
    <path d="M 502.7 294.598438 
L 522.7 294.598438 
" style="fill:none;stroke:#d62728;stroke-linecap:square;stroke-opacity:0.7;stroke-width:1.5;"/>
   </g>
   <g id="line2d_100"/>
   <g id="text_45">
    <!-- ANN -->
    <g transform="translate(530.7 298.098438)scale(0.1 -0.1)">
     <defs>
      <path d="M 2188 4044 
L 1331 1722 
L 3047 1722 
L 2188 4044 
z
M 1831 4666 
L 2547 4666 
L 4325 0 
L 3669 0 
L 3244 1197 
L 1141 1197 
L 716 0 
L 50 0 
L 1831 4666 
z
" id="DejaVuSans-41" transform="scale(0.015625)"/>
      <path d="M 628 4666 
L 1478 4666 
L 3547 763 
L 3547 4666 
L 4159 4666 
L 4159 0 
L 3309 0 
L 1241 3903 
L 1241 0 
L 628 0 
L 628 4666 
z
" id="DejaVuSans-4e" transform="scale(0.015625)"/>
     </defs>
     <use xlink:href="#DejaVuSans-41"/>
     <use x="68.408203" xlink:href="#DejaVuSans-4e"/>
     <use x="143.212891" xlink:href="#DejaVuSans-4e"/>
    </g>
   </g>
  </g>
 </g>
 <defs>
  <clipPath id="pd2174345d6">
   <rect height="190.98" width="191.36" x="65.59" y="80.88"/>
  </clipPath>
  <clipPath id="pdb3d755ca2">
   <rect height="190.98" width="191.36" x="287.44" y="80.88"/>
  </clipPath>
  <clipPath id="p5ed5ed337e">
   <rect height="190.98" width="191.36" x="65.59" y="314.26"/>
  </clipPath>
  <clipPath id="p5d0534571c">
   <rect height="190.98" width="191.36" x="287.44" y="314.26"/>
  </clipPath>
 </defs>
</svg>
