<?xml version="1.0" encoding="utf-8" standalone="no"?>
<!DOCTYPE svg PUBLIC "-//W3C//DTD SVG 1.1//EN"
  "http://www.w3.org/Graphics/SVG/1.1/DTD/svg11.dtd">
<svg height="288pt" version="1.1" viewBox="0 0 576 288" width="576pt" xmlns="http://www.w3.org/2000/svg" xmlns:xlink="http://www.w3.org/1999/xlink">
 <metadata>
  <rdf:RDF xmlns:cc="http://creativecommons.org/ns#" xmlns:dc="http://purl.org/dc/elements/1.1/" xmlns:rdf="http://www.w3.org/1999/02/22-rdf-syntax-ns#">
   <cc:Work>
    <dc:type rdf:resource="http://purl.org/dc/dcmitype/StillImage"/>
    <dc:date>2022-02-26T04:13:37.186876</dc:date>
    <dc:format>image/svg+xml</dc:format>
    <dc:creator>
     <cc:Agent>
      <dc:title>Matplotlib v3.4.3, https://matplotlib.org/</dc:title>
     </cc:Agent>
    </dc:creator>
   </cc:Work>
  </rdf:RDF>
 </metadata>
 <defs>
  <style type="text/css">*{stroke-linecap:butt;stroke-linejoin:round;}</style>
 </defs>
 <g id="figure_1">
  <g id="patch_1">
   <path d="M 0 288 
L 576 288 
L 576 0 
L 0 0 
z
" style="fill:#ffffff;"/>
  </g>
  <g id="axes_1">
   <g id="patch_2">
    <path d="M 97.49 231.64 
L 261.09 231.64 
L 261.09 66.48 
L 97.49 66.48 
z
" style="fill:#ffffff;"/>
   </g>
   <g id="matplotlib.axis_1">
    <g id="xtick_1">
     <g id="line2d_1">
      <path clip-path="url(#pc030ef7bb6)" d="M 102.678781 231.64 
L 102.678781 66.48 
" style="fill:none;stroke:#b0b0b0;stroke-linecap:square;stroke-width:0.8;"/>
     </g>
     <g id="line2d_2">
      <defs>
       <path d="M 0 0 
L 0 3.5 
" id="m6d02c957bf" style="stroke:#000000;stroke-width:0.8;"/>
      </defs>
      <g>
       <use style="stroke:#000000;stroke-width:0.8;" x="102.678781" xlink:href="#m6d02c957bf" y="231.64"/>
      </g>
     </g>
     <g id="text_1">
      <!-- −0.03 -->
      <g transform="translate(87.356125 246.238438)scale(0.1 -0.1)">
       <defs>
        <path d="M 678 2272 
L 4684 2272 
L 4684 1741 
L 678 1741 
L 678 2272 
z
" id="DejaVuSans-2212" transform="scale(0.015625)"/>
        <path d="M 2034 4250 
Q 1547 4250 1301 3770 
Q 1056 3291 1056 2328 
Q 1056 1369 1301 889 
Q 1547 409 2034 409 
Q 2525 409 2770 889 
Q 3016 1369 3016 2328 
Q 3016 3291 2770 3770 
Q 2525 4250 2034 4250 
z
M 2034 4750 
Q 2819 4750 3233 4129 
Q 3647 3509 3647 2328 
Q 3647 1150 3233 529 
Q 2819 -91 2034 -91 
Q 1250 -91 836 529 
Q 422 1150 422 2328 
Q 422 3509 836 4129 
Q 1250 4750 2034 4750 
z
" id="DejaVuSans-30" transform="scale(0.015625)"/>
        <path d="M 684 794 
L 1344 794 
L 1344 0 
L 684 0 
L 684 794 
z
" id="DejaVuSans-2e" transform="scale(0.015625)"/>
        <path d="M 2597 2516 
Q 3050 2419 3304 2112 
Q 3559 1806 3559 1356 
Q 3559 666 3084 287 
Q 2609 -91 1734 -91 
Q 1441 -91 1130 -33 
Q 819 25 488 141 
L 488 750 
Q 750 597 1062 519 
Q 1375 441 1716 441 
Q 2309 441 2620 675 
Q 2931 909 2931 1356 
Q 2931 1769 2642 2001 
Q 2353 2234 1838 2234 
L 1294 2234 
L 1294 2753 
L 1863 2753 
Q 2328 2753 2575 2939 
Q 2822 3125 2822 3475 
Q 2822 3834 2567 4026 
Q 2313 4219 1838 4219 
Q 1578 4219 1281 4162 
Q 984 4106 628 3988 
L 628 4550 
Q 988 4650 1302 4700 
Q 1616 4750 1894 4750 
Q 2613 4750 3031 4423 
Q 3450 4097 3450 3541 
Q 3450 3153 3228 2886 
Q 3006 2619 2597 2516 
z
" id="DejaVuSans-33" transform="scale(0.015625)"/>
       </defs>
       <use xlink:href="#DejaVuSans-2212"/>
       <use x="83.789062" xlink:href="#DejaVuSans-30"/>
       <use x="147.412109" xlink:href="#DejaVuSans-2e"/>
       <use x="179.199219" xlink:href="#DejaVuSans-30"/>
       <use x="242.822266" xlink:href="#DejaVuSans-33"/>
      </g>
     </g>
    </g>
    <g id="xtick_2">
     <g id="line2d_3">
      <path clip-path="url(#pc030ef7bb6)" d="M 144.398469 231.64 
L 144.398469 66.48 
" style="fill:none;stroke:#b0b0b0;stroke-linecap:square;stroke-width:0.8;"/>
     </g>
     <g id="line2d_4">
      <g>
       <use style="stroke:#000000;stroke-width:0.8;" x="144.398469" xlink:href="#m6d02c957bf" y="231.64"/>
      </g>
     </g>
     <g id="text_2">
      <!-- −0.02 -->
      <g transform="translate(129.075813 246.238438)scale(0.1 -0.1)">
       <defs>
        <path d="M 1228 531 
L 3431 531 
L 3431 0 
L 469 0 
L 469 531 
Q 828 903 1448 1529 
Q 2069 2156 2228 2338 
Q 2531 2678 2651 2914 
Q 2772 3150 2772 3378 
Q 2772 3750 2511 3984 
Q 2250 4219 1831 4219 
Q 1534 4219 1204 4116 
Q 875 4013 500 3803 
L 500 4441 
Q 881 4594 1212 4672 
Q 1544 4750 1819 4750 
Q 2544 4750 2975 4387 
Q 3406 4025 3406 3419 
Q 3406 3131 3298 2873 
Q 3191 2616 2906 2266 
Q 2828 2175 2409 1742 
Q 1991 1309 1228 531 
z
" id="DejaVuSans-32" transform="scale(0.015625)"/>
       </defs>
       <use xlink:href="#DejaVuSans-2212"/>
       <use x="83.789062" xlink:href="#DejaVuSans-30"/>
       <use x="147.412109" xlink:href="#DejaVuSans-2e"/>
       <use x="179.199219" xlink:href="#DejaVuSans-30"/>
       <use x="242.822266" xlink:href="#DejaVuSans-32"/>
      </g>
     </g>
    </g>
    <g id="xtick_3">
     <g id="line2d_5">
      <path clip-path="url(#pc030ef7bb6)" d="M 186.118158 231.64 
L 186.118158 66.48 
" style="fill:none;stroke:#b0b0b0;stroke-linecap:square;stroke-width:0.8;"/>
     </g>
     <g id="line2d_6">
      <g>
       <use style="stroke:#000000;stroke-width:0.8;" x="186.118158" xlink:href="#m6d02c957bf" y="231.64"/>
      </g>
     </g>
     <g id="text_3">
      <!-- −0.01 -->
      <g transform="translate(170.795502 246.238438)scale(0.1 -0.1)">
       <defs>
        <path d="M 794 531 
L 1825 531 
L 1825 4091 
L 703 3866 
L 703 4441 
L 1819 4666 
L 2450 4666 
L 2450 531 
L 3481 531 
L 3481 0 
L 794 0 
L 794 531 
z
" id="DejaVuSans-31" transform="scale(0.015625)"/>
       </defs>
       <use xlink:href="#DejaVuSans-2212"/>
       <use x="83.789062" xlink:href="#DejaVuSans-30"/>
       <use x="147.412109" xlink:href="#DejaVuSans-2e"/>
       <use x="179.199219" xlink:href="#DejaVuSans-30"/>
       <use x="242.822266" xlink:href="#DejaVuSans-31"/>
      </g>
     </g>
    </g>
    <g id="xtick_4">
     <g id="line2d_7">
      <path clip-path="url(#pc030ef7bb6)" d="M 227.837846 231.64 
L 227.837846 66.48 
" style="fill:none;stroke:#b0b0b0;stroke-linecap:square;stroke-width:0.8;"/>
     </g>
     <g id="line2d_8">
      <g>
       <use style="stroke:#000000;stroke-width:0.8;" x="227.837846" xlink:href="#m6d02c957bf" y="231.64"/>
      </g>
     </g>
     <g id="text_4">
      <!-- 0.00 -->
      <g transform="translate(216.705034 246.238438)scale(0.1 -0.1)">
       <use xlink:href="#DejaVuSans-30"/>
       <use x="63.623047" xlink:href="#DejaVuSans-2e"/>
       <use x="95.410156" xlink:href="#DejaVuSans-30"/>
       <use x="159.033203" xlink:href="#DejaVuSans-30"/>
      </g>
     </g>
    </g>
    <g id="text_5">
     <!-- x (m) -->
     <g transform="translate(165.969687 259.916562)scale(0.1 -0.1)">
      <defs>
       <path d="M 3513 3500 
L 2247 1797 
L 3578 0 
L 2900 0 
L 1881 1375 
L 863 0 
L 184 0 
L 1544 1831 
L 300 3500 
L 978 3500 
L 1906 2253 
L 2834 3500 
L 3513 3500 
z
" id="DejaVuSans-78" transform="scale(0.015625)"/>
       <path id="DejaVuSans-20" transform="scale(0.015625)"/>
       <path d="M 1984 4856 
Q 1566 4138 1362 3434 
Q 1159 2731 1159 2009 
Q 1159 1288 1364 580 
Q 1569 -128 1984 -844 
L 1484 -844 
Q 1016 -109 783 600 
Q 550 1309 550 2009 
Q 550 2706 781 3412 
Q 1013 4119 1484 4856 
L 1984 4856 
z
" id="DejaVuSans-28" transform="scale(0.015625)"/>
       <path d="M 3328 2828 
Q 3544 3216 3844 3400 
Q 4144 3584 4550 3584 
Q 5097 3584 5394 3201 
Q 5691 2819 5691 2113 
L 5691 0 
L 5113 0 
L 5113 2094 
Q 5113 2597 4934 2840 
Q 4756 3084 4391 3084 
Q 3944 3084 3684 2787 
Q 3425 2491 3425 1978 
L 3425 0 
L 2847 0 
L 2847 2094 
Q 2847 2600 2669 2842 
Q 2491 3084 2119 3084 
Q 1678 3084 1418 2786 
Q 1159 2488 1159 1978 
L 1159 0 
L 581 0 
L 581 3500 
L 1159 3500 
L 1159 2956 
Q 1356 3278 1631 3431 
Q 1906 3584 2284 3584 
Q 2666 3584 2933 3390 
Q 3200 3197 3328 2828 
z
" id="DejaVuSans-6d" transform="scale(0.015625)"/>
       <path d="M 513 4856 
L 1013 4856 
Q 1481 4119 1714 3412 
Q 1947 2706 1947 2009 
Q 1947 1309 1714 600 
Q 1481 -109 1013 -844 
L 513 -844 
Q 928 -128 1133 580 
Q 1338 1288 1338 2009 
Q 1338 2731 1133 3434 
Q 928 4138 513 4856 
z
" id="DejaVuSans-29" transform="scale(0.015625)"/>
      </defs>
      <use xlink:href="#DejaVuSans-78"/>
      <use x="59.179688" xlink:href="#DejaVuSans-20"/>
      <use x="90.966797" xlink:href="#DejaVuSans-28"/>
      <use x="129.980469" xlink:href="#DejaVuSans-6d"/>
      <use x="227.392578" xlink:href="#DejaVuSans-29"/>
     </g>
    </g>
   </g>
   <g id="matplotlib.axis_2">
    <g id="ytick_1">
     <g id="line2d_9">
      <path clip-path="url(#pc030ef7bb6)" d="M 97.49 231.107058 
L 261.09 231.107058 
" style="fill:none;stroke:#b0b0b0;stroke-linecap:square;stroke-width:0.8;"/>
     </g>
     <g id="line2d_10">
      <defs>
       <path d="M 0 0 
L -3.5 0 
" id="mc2db194104" style="stroke:#000000;stroke-width:0.8;"/>
      </defs>
      <g>
       <use style="stroke:#000000;stroke-width:0.8;" x="97.49" xlink:href="#mc2db194104" y="231.107058"/>
      </g>
     </g>
     <g id="text_6">
      <!-- −0.030 -->
      <g transform="translate(53.482188 234.906277)scale(0.1 -0.1)">
       <use xlink:href="#DejaVuSans-2212"/>
       <use x="83.789062" xlink:href="#DejaVuSans-30"/>
       <use x="147.412109" xlink:href="#DejaVuSans-2e"/>
       <use x="179.199219" xlink:href="#DejaVuSans-30"/>
       <use x="242.822266" xlink:href="#DejaVuSans-33"/>
       <use x="306.445312" xlink:href="#DejaVuSans-30"/>
      </g>
     </g>
    </g>
    <g id="ytick_2">
     <g id="line2d_11">
      <path clip-path="url(#pc030ef7bb6)" d="M 97.49 207.261794 
L 261.09 207.261794 
" style="fill:none;stroke:#b0b0b0;stroke-linecap:square;stroke-width:0.8;"/>
     </g>
     <g id="line2d_12">
      <g>
       <use style="stroke:#000000;stroke-width:0.8;" x="97.49" xlink:href="#mc2db194104" y="207.261794"/>
      </g>
     </g>
     <g id="text_7">
      <!-- −0.025 -->
      <g transform="translate(53.482188 211.061013)scale(0.1 -0.1)">
       <defs>
        <path d="M 691 4666 
L 3169 4666 
L 3169 4134 
L 1269 4134 
L 1269 2991 
Q 1406 3038 1543 3061 
Q 1681 3084 1819 3084 
Q 2600 3084 3056 2656 
Q 3513 2228 3513 1497 
Q 3513 744 3044 326 
Q 2575 -91 1722 -91 
Q 1428 -91 1123 -41 
Q 819 9 494 109 
L 494 744 
Q 775 591 1075 516 
Q 1375 441 1709 441 
Q 2250 441 2565 725 
Q 2881 1009 2881 1497 
Q 2881 1984 2565 2268 
Q 2250 2553 1709 2553 
Q 1456 2553 1204 2497 
Q 953 2441 691 2322 
L 691 4666 
z
" id="DejaVuSans-35" transform="scale(0.015625)"/>
       </defs>
       <use xlink:href="#DejaVuSans-2212"/>
       <use x="83.789062" xlink:href="#DejaVuSans-30"/>
       <use x="147.412109" xlink:href="#DejaVuSans-2e"/>
       <use x="179.199219" xlink:href="#DejaVuSans-30"/>
       <use x="242.822266" xlink:href="#DejaVuSans-32"/>
       <use x="306.445312" xlink:href="#DejaVuSans-35"/>
      </g>
     </g>
    </g>
    <g id="ytick_3">
     <g id="line2d_13">
      <path clip-path="url(#pc030ef7bb6)" d="M 97.49 183.416531 
L 261.09 183.416531 
" style="fill:none;stroke:#b0b0b0;stroke-linecap:square;stroke-width:0.8;"/>
     </g>
     <g id="line2d_14">
      <g>
       <use style="stroke:#000000;stroke-width:0.8;" x="97.49" xlink:href="#mc2db194104" y="183.416531"/>
      </g>
     </g>
     <g id="text_8">
      <!-- −0.020 -->
      <g transform="translate(53.482188 187.21575)scale(0.1 -0.1)">
       <use xlink:href="#DejaVuSans-2212"/>
       <use x="83.789062" xlink:href="#DejaVuSans-30"/>
       <use x="147.412109" xlink:href="#DejaVuSans-2e"/>
       <use x="179.199219" xlink:href="#DejaVuSans-30"/>
       <use x="242.822266" xlink:href="#DejaVuSans-32"/>
       <use x="306.445312" xlink:href="#DejaVuSans-30"/>
      </g>
     </g>
    </g>
    <g id="ytick_4">
     <g id="line2d_15">
      <path clip-path="url(#pc030ef7bb6)" d="M 97.49 159.571268 
L 261.09 159.571268 
" style="fill:none;stroke:#b0b0b0;stroke-linecap:square;stroke-width:0.8;"/>
     </g>
     <g id="line2d_16">
      <g>
       <use style="stroke:#000000;stroke-width:0.8;" x="97.49" xlink:href="#mc2db194104" y="159.571268"/>
      </g>
     </g>
     <g id="text_9">
      <!-- −0.015 -->
      <g transform="translate(53.482188 163.370486)scale(0.1 -0.1)">
       <use xlink:href="#DejaVuSans-2212"/>
       <use x="83.789062" xlink:href="#DejaVuSans-30"/>
       <use x="147.412109" xlink:href="#DejaVuSans-2e"/>
       <use x="179.199219" xlink:href="#DejaVuSans-30"/>
       <use x="242.822266" xlink:href="#DejaVuSans-31"/>
       <use x="306.445312" xlink:href="#DejaVuSans-35"/>
      </g>
     </g>
    </g>
    <g id="ytick_5">
     <g id="line2d_17">
      <path clip-path="url(#pc030ef7bb6)" d="M 97.49 135.726004 
L 261.09 135.726004 
" style="fill:none;stroke:#b0b0b0;stroke-linecap:square;stroke-width:0.8;"/>
     </g>
     <g id="line2d_18">
      <g>
       <use style="stroke:#000000;stroke-width:0.8;" x="97.49" xlink:href="#mc2db194104" y="135.726004"/>
      </g>
     </g>
     <g id="text_10">
      <!-- −0.010 -->
      <g transform="translate(53.482188 139.525223)scale(0.1 -0.1)">
       <use xlink:href="#DejaVuSans-2212"/>
       <use x="83.789062" xlink:href="#DejaVuSans-30"/>
       <use x="147.412109" xlink:href="#DejaVuSans-2e"/>
       <use x="179.199219" xlink:href="#DejaVuSans-30"/>
       <use x="242.822266" xlink:href="#DejaVuSans-31"/>
       <use x="306.445312" xlink:href="#DejaVuSans-30"/>
      </g>
     </g>
    </g>
    <g id="ytick_6">
     <g id="line2d_19">
      <path clip-path="url(#pc030ef7bb6)" d="M 97.49 111.880741 
L 261.09 111.880741 
" style="fill:none;stroke:#b0b0b0;stroke-linecap:square;stroke-width:0.8;"/>
     </g>
     <g id="line2d_20">
      <g>
       <use style="stroke:#000000;stroke-width:0.8;" x="97.49" xlink:href="#mc2db194104" y="111.880741"/>
      </g>
     </g>
     <g id="text_11">
      <!-- −0.005 -->
      <g transform="translate(53.482188 115.67996)scale(0.1 -0.1)">
       <use xlink:href="#DejaVuSans-2212"/>
       <use x="83.789062" xlink:href="#DejaVuSans-30"/>
       <use x="147.412109" xlink:href="#DejaVuSans-2e"/>
       <use x="179.199219" xlink:href="#DejaVuSans-30"/>
       <use x="242.822266" xlink:href="#DejaVuSans-30"/>
       <use x="306.445312" xlink:href="#DejaVuSans-35"/>
      </g>
     </g>
    </g>
    <g id="ytick_7">
     <g id="line2d_21">
      <path clip-path="url(#pc030ef7bb6)" d="M 97.49 88.035477 
L 261.09 88.035477 
" style="fill:none;stroke:#b0b0b0;stroke-linecap:square;stroke-width:0.8;"/>
     </g>
     <g id="line2d_22">
      <g>
       <use style="stroke:#000000;stroke-width:0.8;" x="97.49" xlink:href="#mc2db194104" y="88.035477"/>
      </g>
     </g>
     <g id="text_12">
      <!-- 0.000 -->
      <g transform="translate(61.861875 91.834696)scale(0.1 -0.1)">
       <use xlink:href="#DejaVuSans-30"/>
       <use x="63.623047" xlink:href="#DejaVuSans-2e"/>
       <use x="95.410156" xlink:href="#DejaVuSans-30"/>
       <use x="159.033203" xlink:href="#DejaVuSans-30"/>
       <use x="222.65625" xlink:href="#DejaVuSans-30"/>
      </g>
     </g>
    </g>
    <g id="text_13">
     <!-- y (m) -->
     <g transform="translate(47.4025 162.380313)rotate(-90)scale(0.1 -0.1)">
      <defs>
       <path d="M 2059 -325 
Q 1816 -950 1584 -1140 
Q 1353 -1331 966 -1331 
L 506 -1331 
L 506 -850 
L 844 -850 
Q 1081 -850 1212 -737 
Q 1344 -625 1503 -206 
L 1606 56 
L 191 3500 
L 800 3500 
L 1894 763 
L 2988 3500 
L 3597 3500 
L 2059 -325 
z
" id="DejaVuSans-79" transform="scale(0.015625)"/>
      </defs>
      <use xlink:href="#DejaVuSans-79"/>
      <use x="59.179688" xlink:href="#DejaVuSans-20"/>
      <use x="90.966797" xlink:href="#DejaVuSans-28"/>
      <use x="129.980469" xlink:href="#DejaVuSans-6d"/>
      <use x="227.392578" xlink:href="#DejaVuSans-29"/>
     </g>
    </g>
   </g>
   <g id="line2d_23">
    <path clip-path="url(#pc030ef7bb6)" d="M 227.837846 88.035477 
L 205.285421 113.657538 
L 189.600694 130.995515 
L 129.95676 196.48475 
L 104.926364 224.132727 
L 106.593819 222.169121 
L 119.498481 207.499451 
L 155.859453 166.501335 
L 194.208806 123.569906 
L 221.128653 93.746192 
L 234.359952 79.379178 
L 238.19693 75.464696 
L 238.459251 75.302704 
L 238.412721 75.419038 
L 237.670981 76.433317 
L 234.530159 80.247895 
L 226.667438 89.404143 
L 223.006072 93.56453 
L 234.594887 80.468586 
L 236.154832 78.79912 
L 234.808743 80.396926 
L 231.380252 84.157275 
L 230.532815 85.085043 
L 230.532815 85.085043 
" style="fill:none;stroke:#1f77b4;stroke-linecap:square;stroke-opacity:0.7;stroke-width:1.5;"/>
   </g>
   <g id="line2d_24">
    <path clip-path="url(#pc030ef7bb6)" d="M 227.837846 88.035477 
L 229.101628 88.209335 
L 232.463713 88.861865 
L 236.196226 89.821099 
L 241.623419 91.487786 
L 248.653561 93.608989 
L 252.628493 94.571043 
L 253.653225 94.741627 
L 250.476271 94.246299 
L 245.89419 93.807246 
L 241.34819 93.58833 
L 238.181796 93.638612 
L 237.794867 93.737975 
L 237.843675 93.784711 
L 238.389471 93.915842 
L 240.20639 94.096486 
L 243.062248 94.158713 
L 246.098506 94.000873 
L 248.619251 93.659843 
L 250.57848 93.18175 
L 251.791292 92.684853 
L 252.478068 92.18507 
L 252.71891 91.778276 
L 252.712753 91.427531 
L 252.457228 91.027221 
L 251.848925 90.596341 
L 250.795656 90.164707 
L 249.2422 89.772057 
L 247.00906 89.441538 
L 244.218362 89.251272 
L 240.889054 89.246447 
L 238.713264 89.266752 
L 238.784161 89.209354 
L 239.910155 88.72743 
L 242.235376 87.617369 
L 244.935037 86.070218 
L 247.879587 84.126897 
L 248.543658 83.584314 
L 248.341726 83.658799 
L 246.568034 84.65219 
L 238.768978 89.050243 
L 237.199853 89.729341 
L 237.108624 89.686488 
L 237.129845 89.632512 
L 237.456462 89.315763 
L 238.526344 88.606246 
L 240.293123 87.694291 
L 242.541285 86.786649 
L 244.509722 86.227643 
L 245.891067 86.051702 
L 246.829822 86.13087 
L 247.475028 86.3874 
L 247.870451 86.756964 
L 248.096307 87.253744 
L 248.144909 87.955342 
L 247.948604 88.870024 
L 247.464648 89.96597 
L 246.690424 91.165825 
L 245.676795 92.348706 
L 244.546688 93.352538 
L 243.575632 93.953026 
L 243.020203 94.074119 
L 242.814833 93.918657 
L 242.778266 93.565811 
L 242.979536 92.80826 
L 243.539984 91.644104 
L 244.436749 90.314267 
L 245.477457 89.181281 
L 246.40211 88.482042 
L 247.051932 88.232931 
L 247.440502 88.296583 
L 247.64453 88.565109 
L 247.688501 89.028612 
L 247.517463 89.763244 
L 247.023536 90.799457 
L 246.191911 91.998031 
L 245.026534 93.271633 
L 243.557706 94.522143 
L 242.02365 95.543565 
L 240.351232 96.392162 
L 238.616808 97.004107 
L 237.094344 97.307011 
L 235.659835 97.35507 
L 234.530668 97.1756 
L 233.565809 96.786206 
L 232.899722 96.288987 
L 232.400612 95.651512 
L 232.075564 94.89282 
L 231.915948 93.889526 
L 231.987936 92.804049 
L 232.282657 91.685879 
L 232.783733 90.58474 
L 233.574924 89.405516 
L 234.547927 88.36265 
L 235.644409 87.496857 
L 236.808645 86.842214 
L 237.988062 86.427079 
L 239.128421 86.270497 
L 240.050257 86.351732 
L 240.861965 86.634061 
L 241.527765 87.107986 
L 242.015376 87.75769 
L 242.297724 88.561463 
L 242.354463 89.49241 
L 242.173284 90.519398 
L 241.750964 91.608088 
L 241.09406 92.722028 
L 240.077891 93.977936 
L 238.818251 95.162173 
L 237.372088 96.221423 
L 235.810629 97.107018 
L 234.216716 97.777068 
L 232.681371 98.198227 
L 231.299639 98.347031 
L 230.290845 98.243538 
L 229.621161 97.97978 
L 229.160882 97.558264 
L 228.947932 97.092914 
L 228.898366 96.409796 
L 229.065802 95.608289 
L 229.516174 94.555388 
L 230.329599 93.255352 
L 231.410754 91.930181 
L 232.707073 90.659743 
L 234.15947 89.522239 
L 235.693722 88.589243 
L 237.226216 87.920041 
L 238.497022 87.584865 
L 239.645456 87.498294 
L 240.624722 87.660821 
L 241.295824 87.990061 
L 241.784012 88.478425 
L 242.070008 89.101271 
L 242.143566 89.826443 
L 242.003384 90.62082 
L 241.582615 91.596551 
L 240.914116 92.586091 
L 239.89905 93.682948 
L 238.520173 94.811486 
L 236.988826 95.771732 
L 235.400787 96.512341 
L 234.011673 96.943055 
L 232.699696 97.117293 
L 231.659321 97.030446 
L 230.881389 96.766634 
L 230.238439 96.325181 
L 229.758043 95.711667 
L 229.456967 94.941721 
L 229.310874 93.873921 
L 229.334285 92.088946 
L 229.440198 87.591215 
L 229.256859 85.597477 
L 228.871077 83.782212 
L 228.268658 82.064377 
L 227.481194 80.498224 
L 226.746701 79.482461 
L 226.100752 78.962582 
L 225.3634 78.674221 
L 224.431505 78.582965 
L 223.048366 78.710129 
L 221.554075 79.049046 
L 221.470714 79.164087 
L 221.51156 79.195374 
L 221.743445 79.178014 
L 221.910328 78.974115 
L 221.907513 78.615938 
L 221.622347 77.101561 
L 221.852707 76.681941 
L 222.527911 76.037065 
L 223.096643 75.37317 
L 223.055644 75.181107 
L 222.772409 75.108696 
L 222.302219 75.209873 
L 222.313363 75.347116 
L 222.633529 75.562755 
L 222.903533 75.594106 
L 222.875806 75.543174 
L 222.446257 75.328499 
L 221.994697 75.007241 
L 222.097914 74.872678 
L 222.714876 74.673176 
L 223.465364 74.341359 
L 223.467834 74.292816 
L 223.385351 74.271566 
L 222.956122 74.352556 
L 223.036715 74.442707 
L 223.666781 74.67952 
L 224.061101 74.733259 
L 223.177185 74.66348 
L 222.836924 74.6365 
L 223.384889 74.565909 
L 223.459263 74.450495 
L 223.426538 74.417127 
L 223.072247 74.317583 
L 222.653975 74.249592 
L 223.78563 74.326017 
L 223.993978 74.285241 
L 223.221089 74.258626 
L 222.757838 74.334512 
L 222.367471 74.736135 
L 220.957496 76.660738 
L 214.999141 84.916817 
L 210.401263 90.897685 
L 204.054477 98.74695 
L 196.009427 108.305387 
L 185.043919 120.914175 
L 128.253249 185.503902 
L 124.349127 190.305535 
L 123.329952 191.820332 
L 123.2446 192.176699 
L 123.403091 192.186069 
L 123.955994 191.863208 
L 125.26189 190.81918 
L 128.372101 188.002419 
L 134.483849 182.121675 
L 145.952848 170.755323 
L 166.692764 149.849568 
L 207.375213 108.789887 
L 217.615767 98.770931 
L 224.289398 92.544494 
L 228.957547 88.466963 
L 232.082494 85.978037 
L 234.416494 84.383089 
L 235.781348 83.70171 
L 236.512449 83.555579 
L 236.860968 83.665453 
L 237.04676 83.953144 
L 237.078166 84.408721 
L 236.895251 85.259144 
L 236.336966 86.675539 
L 235.24554 88.821134 
L 233.217623 92.272535 
L 229.731398 97.684768 
L 224.011246 106.077259 
L 219.09265 113.373424 
L 218.313856 114.866164 
L 218.362159 115.083316 
L 218.613999 115.007238 
L 219.341541 114.494955 
L 221.431717 112.683181 
L 251.350872 85.456731 
L 251.236102 85.429938 
L 250.60452 85.701334 
L 248.365032 87.001157 
L 230.540771 97.743337 
L 227.418944 99.312589 
L 226.068611 99.781903 
L 225.724858 99.741085 
L 225.69086 99.580076 
L 225.926132 99.142823 
L 226.738943 98.216196 
L 228.862512 96.1922 
L 233.169017 92.430472 
L 238.088298 88.406567 
L 242.118635 85.380512 
L 244.856746 83.579765 
L 246.36312 82.824111 
L 246.906033 82.754447 
L 246.993586 82.916808 
L 246.839506 83.31405 
L 246.202819 84.165487 
L 244.76311 85.681676 
L 242.251141 88.000154 
L 238.627581 91.048718 
L 234.337827 94.379493 
L 230.420511 97.155135 
L 229.066523 97.903338 
L 228.994728 97.867822 
L 229.003982 97.813562 
L 229.263898 97.440717 
L 230.441997 96.219121 
L 233.088172 93.796285 
L 236.402532 91.056017 
L 239.550099 88.7408 
L 242.097279 87.137484 
L 243.823142 86.300776 
L 244.631751 86.121745 
L 244.789773 86.254123 
L 244.693027 86.51066 
L 244.228928 87.04001 
L 242.992177 88.064609 
L 240.758443 89.593476 
L 237.475955 91.544756 
L 233.54063 93.608861 
L 230.042508 95.197223 
L 228.742362 95.606912 
L 228.649773 95.557578 
L 228.659939 95.511992 
L 228.902564 95.238594 
L 230.008238 94.393589 
L 232.500385 92.768272 
L 235.386796 91.138466 
L 237.897624 89.962378 
L 239.934015 89.233769 
L 241.389943 88.926001 
L 242.25938 88.935465 
L 242.612308 89.130621 
L 242.59294 89.366168 
L 242.269945 89.682036 
L 241.466449 90.087831 
L 240.187694 90.474183 
L 238.541613 90.735517 
L 236.910851 90.775805 
L 235.571007 90.606992 
L 234.72422 90.302424 
L 234.477401 90.011708 
L 234.56144 89.815864 
L 234.952295 89.596861 
L 235.781678 89.417905 
L 236.995405 89.39515 
L 238.368797 89.586022 
L 239.827761 90.014645 
L 240.962802 90.564549 
L 241.698998 91.140915 
L 242.049043 91.676019 
L 242.084814 92.085247 
L 241.894995 92.459801 
L 241.417057 92.823813 
L 240.586364 93.141617 
L 239.25654 93.38671 
L 237.440661 93.472922 
L 235.632436 93.344193 
L 234.254081 93.042645 
L 233.555467 92.70179 
L 233.286263 92.367494 
L 233.277211 92.033067 
L 233.522423 91.604968 
L 234.100952 91.072889 
L 235.179486 90.385963 
L 236.71699 89.671962 
L 238.494116 89.10338 
L 240.177867 88.800057 
L 241.617164 88.754721 
L 242.746147 88.914123 
L 243.65179 89.259957 
L 244.225141 89.715681 
L 244.52071 90.217276 
L 244.604347 90.799382 
L 244.461561 91.442793 
L 244.083236 92.124819 
L 243.359811 92.918541 
L 242.335456 93.686223 
L 241.035287 94.380207 
L 239.500933 94.950003 
L 237.79042 95.348017 
L 235.977805 95.536699 
L 234.150583 95.491815 
L 232.615021 95.252707 
L 231.207802 94.828854 
L 229.994009 94.229759 
L 229.153428 93.589026 
L 228.530163 92.845556 
L 228.14408 92.016841 
L 228.002444 91.123221 
L 228.101515 90.186211 
L 228.429293 89.227599 
L 229.072729 88.114069 
L 229.951835 87.049357 
L 231.012581 86.085362 
L 232.202089 85.270962 
L 233.47071 84.648396 
L 234.76648 84.254389 
L 236.03345 84.116499 
L 237.052278 84.214893 
L 237.96983 84.515617 
L 238.749183 85.00909 
L 239.356658 85.673737 
L 239.764789 86.481945 
L 239.956657 87.401201 
L 239.927472 88.394045 
L 239.685469 89.42346 
L 239.161404 90.624003 
L 238.414834 91.767206 
L 237.484979 92.792382 
L 236.411206 93.651141 
L 235.234218 94.313696 
L 233.99425 94.760065 
L 232.72874 94.972069 
L 231.475097 94.933396 
L 230.444415 94.692126 
L 229.491586 94.25785 
L 228.654394 93.640971 
L 227.969696 92.860491 
L 227.467652 91.94039 
L 227.152305 90.906114 
L 226.962253 89.390911 
L 226.9422 86.921606 
L 226.944157 82.246237 
L 226.722483 80.401274 
L 226.311824 78.820963 
L 225.748503 77.532321 
L 225.332911 76.998449 
L 225.049141 76.979761 
L 224.032829 77.298001 
L 222.219129 77.756103 
L 221.141869 77.884922 
L 221.233951 77.829539 
L 221.576171 77.52297 
L 221.741889 77.092513 
L 221.687878 76.62934 
L 221.401042 75.418994 
L 221.683898 75.202683 
L 222.628404 74.877349 
L 223.006294 74.719676 
L 222.189735 75.09092 
L 222.20728 75.121004 
L 222.492678 75.298354 
L 222.890511 75.322347 
L 222.912585 75.196847 
L 222.903031 75.183669 
L 222.564242 74.943282 
L 222.200679 74.605986 
L 222.336385 74.476195 
L 223.04645 74.28724 
L 223.803643 73.999151 
L 223.793759 73.990355 
L 223.516514 74.030185 
L 223.220111 74.184938 
L 223.220111 74.184938 
" style="fill:none;stroke:#d62728;stroke-linecap:square;stroke-opacity:0.7;stroke-width:1.5;"/>
   </g>
   <g id="line2d_25">
    <path clip-path="url(#pc030ef7bb6)" d="M 227.837846 88.035477 
L 227.837846 88.035477 
" style="fill:none;stroke:#000000;stroke-dasharray:5.55,2.4;stroke-dashoffset:0;stroke-opacity:0.595;stroke-width:1.5;"/>
   </g>
   <g id="patch_3">
    <path d="M 97.49 231.64 
L 97.49 66.48 
" style="fill:none;stroke:#000000;stroke-linecap:square;stroke-linejoin:miter;stroke-width:0.8;"/>
   </g>
   <g id="patch_4">
    <path d="M 261.09 231.64 
L 261.09 66.48 
" style="fill:none;stroke:#000000;stroke-linecap:square;stroke-linejoin:miter;stroke-width:0.8;"/>
   </g>
   <g id="patch_5">
    <path d="M 97.49 231.64 
L 261.09 231.64 
" style="fill:none;stroke:#000000;stroke-linecap:square;stroke-linejoin:miter;stroke-width:0.8;"/>
   </g>
   <g id="patch_6">
    <path d="M 97.49 66.48 
L 261.09 66.48 
" style="fill:none;stroke:#000000;stroke-linecap:square;stroke-linejoin:miter;stroke-width:0.8;"/>
   </g>
   <g id="text_14">
    <!-- Plano xy -->
    <g transform="translate(153.845312 60.48)scale(0.12 -0.12)">
     <defs>
      <path d="M 1259 4147 
L 1259 2394 
L 2053 2394 
Q 2494 2394 2734 2622 
Q 2975 2850 2975 3272 
Q 2975 3691 2734 3919 
Q 2494 4147 2053 4147 
L 1259 4147 
z
M 628 4666 
L 2053 4666 
Q 2838 4666 3239 4311 
Q 3641 3956 3641 3272 
Q 3641 2581 3239 2228 
Q 2838 1875 2053 1875 
L 1259 1875 
L 1259 0 
L 628 0 
L 628 4666 
z
" id="DejaVuSans-50" transform="scale(0.015625)"/>
      <path d="M 603 4863 
L 1178 4863 
L 1178 0 
L 603 0 
L 603 4863 
z
" id="DejaVuSans-6c" transform="scale(0.015625)"/>
      <path d="M 2194 1759 
Q 1497 1759 1228 1600 
Q 959 1441 959 1056 
Q 959 750 1161 570 
Q 1363 391 1709 391 
Q 2188 391 2477 730 
Q 2766 1069 2766 1631 
L 2766 1759 
L 2194 1759 
z
M 3341 1997 
L 3341 0 
L 2766 0 
L 2766 531 
Q 2569 213 2275 61 
Q 1981 -91 1556 -91 
Q 1019 -91 701 211 
Q 384 513 384 1019 
Q 384 1609 779 1909 
Q 1175 2209 1959 2209 
L 2766 2209 
L 2766 2266 
Q 2766 2663 2505 2880 
Q 2244 3097 1772 3097 
Q 1472 3097 1187 3025 
Q 903 2953 641 2809 
L 641 3341 
Q 956 3463 1253 3523 
Q 1550 3584 1831 3584 
Q 2591 3584 2966 3190 
Q 3341 2797 3341 1997 
z
" id="DejaVuSans-61" transform="scale(0.015625)"/>
      <path d="M 3513 2113 
L 3513 0 
L 2938 0 
L 2938 2094 
Q 2938 2591 2744 2837 
Q 2550 3084 2163 3084 
Q 1697 3084 1428 2787 
Q 1159 2491 1159 1978 
L 1159 0 
L 581 0 
L 581 3500 
L 1159 3500 
L 1159 2956 
Q 1366 3272 1645 3428 
Q 1925 3584 2291 3584 
Q 2894 3584 3203 3211 
Q 3513 2838 3513 2113 
z
" id="DejaVuSans-6e" transform="scale(0.015625)"/>
      <path d="M 1959 3097 
Q 1497 3097 1228 2736 
Q 959 2375 959 1747 
Q 959 1119 1226 758 
Q 1494 397 1959 397 
Q 2419 397 2687 759 
Q 2956 1122 2956 1747 
Q 2956 2369 2687 2733 
Q 2419 3097 1959 3097 
z
M 1959 3584 
Q 2709 3584 3137 3096 
Q 3566 2609 3566 1747 
Q 3566 888 3137 398 
Q 2709 -91 1959 -91 
Q 1206 -91 779 398 
Q 353 888 353 1747 
Q 353 2609 779 3096 
Q 1206 3584 1959 3584 
z
" id="DejaVuSans-6f" transform="scale(0.015625)"/>
     </defs>
     <use xlink:href="#DejaVuSans-50"/>
     <use x="60.302734" xlink:href="#DejaVuSans-6c"/>
     <use x="88.085938" xlink:href="#DejaVuSans-61"/>
     <use x="149.365234" xlink:href="#DejaVuSans-6e"/>
     <use x="212.744141" xlink:href="#DejaVuSans-6f"/>
     <use x="273.925781" xlink:href="#DejaVuSans-20"/>
     <use x="305.712891" xlink:href="#DejaVuSans-78"/>
     <use x="364.892578" xlink:href="#DejaVuSans-79"/>
    </g>
   </g>
  </g>
  <g id="axes_2">
   <g id="patch_7">
    <path d="M 315.2 231.64 
L 478.8 231.64 
L 478.8 66.48 
L 315.2 66.48 
z
" style="fill:#ffffff;"/>
   </g>
   <g id="matplotlib.axis_3">
    <g id="xtick_5">
     <g id="line2d_26">
      <path clip-path="url(#pffd6e1a9ff)" d="M 322.636364 231.64 
L 322.636364 66.48 
" style="fill:none;stroke:#b0b0b0;stroke-linecap:square;stroke-width:0.8;"/>
     </g>
     <g id="line2d_27">
      <g>
       <use style="stroke:#000000;stroke-width:0.8;" x="322.636364" xlink:href="#m6d02c957bf" y="231.64"/>
      </g>
     </g>
     <g id="text_15">
      <!-- 0 -->
      <g transform="translate(319.455114 246.238438)scale(0.1 -0.1)">
       <use xlink:href="#DejaVuSans-30"/>
      </g>
     </g>
    </g>
    <g id="xtick_6">
     <g id="line2d_28">
      <path clip-path="url(#pffd6e1a9ff)" d="M 359.82593 231.64 
L 359.82593 66.48 
" style="fill:none;stroke:#b0b0b0;stroke-linecap:square;stroke-width:0.8;"/>
     </g>
     <g id="line2d_29">
      <g>
       <use style="stroke:#000000;stroke-width:0.8;" x="359.82593" xlink:href="#m6d02c957bf" y="231.64"/>
      </g>
     </g>
     <g id="text_16">
      <!-- 5 -->
      <g transform="translate(356.64468 246.238438)scale(0.1 -0.1)">
       <use xlink:href="#DejaVuSans-35"/>
      </g>
     </g>
    </g>
    <g id="xtick_7">
     <g id="line2d_30">
      <path clip-path="url(#pffd6e1a9ff)" d="M 397.015496 231.64 
L 397.015496 66.48 
" style="fill:none;stroke:#b0b0b0;stroke-linecap:square;stroke-width:0.8;"/>
     </g>
     <g id="line2d_31">
      <g>
       <use style="stroke:#000000;stroke-width:0.8;" x="397.015496" xlink:href="#m6d02c957bf" y="231.64"/>
      </g>
     </g>
     <g id="text_17">
      <!-- 10 -->
      <g transform="translate(390.652996 246.238438)scale(0.1 -0.1)">
       <use xlink:href="#DejaVuSans-31"/>
       <use x="63.623047" xlink:href="#DejaVuSans-30"/>
      </g>
     </g>
    </g>
    <g id="xtick_8">
     <g id="line2d_32">
      <path clip-path="url(#pffd6e1a9ff)" d="M 434.205062 231.64 
L 434.205062 66.48 
" style="fill:none;stroke:#b0b0b0;stroke-linecap:square;stroke-width:0.8;"/>
     </g>
     <g id="line2d_33">
      <g>
       <use style="stroke:#000000;stroke-width:0.8;" x="434.205062" xlink:href="#m6d02c957bf" y="231.64"/>
      </g>
     </g>
     <g id="text_18">
      <!-- 15 -->
      <g transform="translate(427.842562 246.238438)scale(0.1 -0.1)">
       <use xlink:href="#DejaVuSans-31"/>
       <use x="63.623047" xlink:href="#DejaVuSans-35"/>
      </g>
     </g>
    </g>
    <g id="xtick_9">
     <g id="line2d_34">
      <path clip-path="url(#pffd6e1a9ff)" d="M 471.394628 231.64 
L 471.394628 66.48 
" style="fill:none;stroke:#b0b0b0;stroke-linecap:square;stroke-width:0.8;"/>
     </g>
     <g id="line2d_35">
      <g>
       <use style="stroke:#000000;stroke-width:0.8;" x="471.394628" xlink:href="#m6d02c957bf" y="231.64"/>
      </g>
     </g>
     <g id="text_19">
      <!-- 20 -->
      <g transform="translate(465.032128 246.238438)scale(0.1 -0.1)">
       <use xlink:href="#DejaVuSans-32"/>
       <use x="63.623047" xlink:href="#DejaVuSans-30"/>
      </g>
     </g>
    </g>
    <g id="text_20">
     <!-- Tiempo (s) -->
     <g transform="translate(370.4375 259.916562)scale(0.1 -0.1)">
      <defs>
       <path d="M -19 4666 
L 3928 4666 
L 3928 4134 
L 2272 4134 
L 2272 0 
L 1638 0 
L 1638 4134 
L -19 4134 
L -19 4666 
z
" id="DejaVuSans-54" transform="scale(0.015625)"/>
       <path d="M 603 3500 
L 1178 3500 
L 1178 0 
L 603 0 
L 603 3500 
z
M 603 4863 
L 1178 4863 
L 1178 4134 
L 603 4134 
L 603 4863 
z
" id="DejaVuSans-69" transform="scale(0.015625)"/>
       <path d="M 3597 1894 
L 3597 1613 
L 953 1613 
Q 991 1019 1311 708 
Q 1631 397 2203 397 
Q 2534 397 2845 478 
Q 3156 559 3463 722 
L 3463 178 
Q 3153 47 2828 -22 
Q 2503 -91 2169 -91 
Q 1331 -91 842 396 
Q 353 884 353 1716 
Q 353 2575 817 3079 
Q 1281 3584 2069 3584 
Q 2775 3584 3186 3129 
Q 3597 2675 3597 1894 
z
M 3022 2063 
Q 3016 2534 2758 2815 
Q 2500 3097 2075 3097 
Q 1594 3097 1305 2825 
Q 1016 2553 972 2059 
L 3022 2063 
z
" id="DejaVuSans-65" transform="scale(0.015625)"/>
       <path d="M 1159 525 
L 1159 -1331 
L 581 -1331 
L 581 3500 
L 1159 3500 
L 1159 2969 
Q 1341 3281 1617 3432 
Q 1894 3584 2278 3584 
Q 2916 3584 3314 3078 
Q 3713 2572 3713 1747 
Q 3713 922 3314 415 
Q 2916 -91 2278 -91 
Q 1894 -91 1617 61 
Q 1341 213 1159 525 
z
M 3116 1747 
Q 3116 2381 2855 2742 
Q 2594 3103 2138 3103 
Q 1681 3103 1420 2742 
Q 1159 2381 1159 1747 
Q 1159 1113 1420 752 
Q 1681 391 2138 391 
Q 2594 391 2855 752 
Q 3116 1113 3116 1747 
z
" id="DejaVuSans-70" transform="scale(0.015625)"/>
       <path d="M 2834 3397 
L 2834 2853 
Q 2591 2978 2328 3040 
Q 2066 3103 1784 3103 
Q 1356 3103 1142 2972 
Q 928 2841 928 2578 
Q 928 2378 1081 2264 
Q 1234 2150 1697 2047 
L 1894 2003 
Q 2506 1872 2764 1633 
Q 3022 1394 3022 966 
Q 3022 478 2636 193 
Q 2250 -91 1575 -91 
Q 1294 -91 989 -36 
Q 684 19 347 128 
L 347 722 
Q 666 556 975 473 
Q 1284 391 1588 391 
Q 1994 391 2212 530 
Q 2431 669 2431 922 
Q 2431 1156 2273 1281 
Q 2116 1406 1581 1522 
L 1381 1569 
Q 847 1681 609 1914 
Q 372 2147 372 2553 
Q 372 3047 722 3315 
Q 1072 3584 1716 3584 
Q 2034 3584 2315 3537 
Q 2597 3491 2834 3397 
z
" id="DejaVuSans-73" transform="scale(0.015625)"/>
      </defs>
      <use xlink:href="#DejaVuSans-54"/>
      <use x="57.958984" xlink:href="#DejaVuSans-69"/>
      <use x="85.742188" xlink:href="#DejaVuSans-65"/>
      <use x="147.265625" xlink:href="#DejaVuSans-6d"/>
      <use x="244.677734" xlink:href="#DejaVuSans-70"/>
      <use x="308.154297" xlink:href="#DejaVuSans-6f"/>
      <use x="369.335938" xlink:href="#DejaVuSans-20"/>
      <use x="401.123047" xlink:href="#DejaVuSans-28"/>
      <use x="440.136719" xlink:href="#DejaVuSans-73"/>
      <use x="492.236328" xlink:href="#DejaVuSans-29"/>
     </g>
    </g>
   </g>
   <g id="matplotlib.axis_4">
    <g id="ytick_8">
     <g id="line2d_36">
      <path clip-path="url(#pffd6e1a9ff)" d="M 315.2 208.482507 
L 478.8 208.482507 
" style="fill:none;stroke:#b0b0b0;stroke-linecap:square;stroke-width:0.8;"/>
     </g>
     <g id="line2d_37">
      <g>
       <use style="stroke:#000000;stroke-width:0.8;" x="315.2" xlink:href="#mc2db194104" y="208.482507"/>
      </g>
     </g>
     <g id="text_21">
      <!-- 0.95 -->
      <g transform="translate(285.934375 212.281725)scale(0.1 -0.1)">
       <defs>
        <path d="M 703 97 
L 703 672 
Q 941 559 1184 500 
Q 1428 441 1663 441 
Q 2288 441 2617 861 
Q 2947 1281 2994 2138 
Q 2813 1869 2534 1725 
Q 2256 1581 1919 1581 
Q 1219 1581 811 2004 
Q 403 2428 403 3163 
Q 403 3881 828 4315 
Q 1253 4750 1959 4750 
Q 2769 4750 3195 4129 
Q 3622 3509 3622 2328 
Q 3622 1225 3098 567 
Q 2575 -91 1691 -91 
Q 1453 -91 1209 -44 
Q 966 3 703 97 
z
M 1959 2075 
Q 2384 2075 2632 2365 
Q 2881 2656 2881 3163 
Q 2881 3666 2632 3958 
Q 2384 4250 1959 4250 
Q 1534 4250 1286 3958 
Q 1038 3666 1038 3163 
Q 1038 2656 1286 2365 
Q 1534 2075 1959 2075 
z
" id="DejaVuSans-39" transform="scale(0.015625)"/>
       </defs>
       <use xlink:href="#DejaVuSans-30"/>
       <use x="63.623047" xlink:href="#DejaVuSans-2e"/>
       <use x="95.410156" xlink:href="#DejaVuSans-39"/>
       <use x="159.033203" xlink:href="#DejaVuSans-35"/>
      </g>
     </g>
    </g>
    <g id="ytick_9">
     <g id="line2d_38">
      <path clip-path="url(#pffd6e1a9ff)" d="M 315.2 180.161002 
L 478.8 180.161002 
" style="fill:none;stroke:#b0b0b0;stroke-linecap:square;stroke-width:0.8;"/>
     </g>
     <g id="line2d_39">
      <g>
       <use style="stroke:#000000;stroke-width:0.8;" x="315.2" xlink:href="#mc2db194104" y="180.161002"/>
      </g>
     </g>
     <g id="text_22">
      <!-- 1.00 -->
      <g transform="translate(285.934375 183.960221)scale(0.1 -0.1)">
       <use xlink:href="#DejaVuSans-31"/>
       <use x="63.623047" xlink:href="#DejaVuSans-2e"/>
       <use x="95.410156" xlink:href="#DejaVuSans-30"/>
       <use x="159.033203" xlink:href="#DejaVuSans-30"/>
      </g>
     </g>
    </g>
    <g id="ytick_10">
     <g id="line2d_40">
      <path clip-path="url(#pffd6e1a9ff)" d="M 315.2 151.839498 
L 478.8 151.839498 
" style="fill:none;stroke:#b0b0b0;stroke-linecap:square;stroke-width:0.8;"/>
     </g>
     <g id="line2d_41">
      <g>
       <use style="stroke:#000000;stroke-width:0.8;" x="315.2" xlink:href="#mc2db194104" y="151.839498"/>
      </g>
     </g>
     <g id="text_23">
      <!-- 1.05 -->
      <g transform="translate(285.934375 155.638717)scale(0.1 -0.1)">
       <use xlink:href="#DejaVuSans-31"/>
       <use x="63.623047" xlink:href="#DejaVuSans-2e"/>
       <use x="95.410156" xlink:href="#DejaVuSans-30"/>
       <use x="159.033203" xlink:href="#DejaVuSans-35"/>
      </g>
     </g>
    </g>
    <g id="ytick_11">
     <g id="line2d_42">
      <path clip-path="url(#pffd6e1a9ff)" d="M 315.2 123.517994 
L 478.8 123.517994 
" style="fill:none;stroke:#b0b0b0;stroke-linecap:square;stroke-width:0.8;"/>
     </g>
     <g id="line2d_43">
      <g>
       <use style="stroke:#000000;stroke-width:0.8;" x="315.2" xlink:href="#mc2db194104" y="123.517994"/>
      </g>
     </g>
     <g id="text_24">
      <!-- 1.10 -->
      <g transform="translate(285.934375 127.317213)scale(0.1 -0.1)">
       <use xlink:href="#DejaVuSans-31"/>
       <use x="63.623047" xlink:href="#DejaVuSans-2e"/>
       <use x="95.410156" xlink:href="#DejaVuSans-31"/>
       <use x="159.033203" xlink:href="#DejaVuSans-30"/>
      </g>
     </g>
    </g>
    <g id="ytick_12">
     <g id="line2d_44">
      <path clip-path="url(#pffd6e1a9ff)" d="M 315.2 95.196489 
L 478.8 95.196489 
" style="fill:none;stroke:#b0b0b0;stroke-linecap:square;stroke-width:0.8;"/>
     </g>
     <g id="line2d_45">
      <g>
       <use style="stroke:#000000;stroke-width:0.8;" x="315.2" xlink:href="#mc2db194104" y="95.196489"/>
      </g>
     </g>
     <g id="text_25">
      <!-- 1.15 -->
      <g transform="translate(285.934375 98.995708)scale(0.1 -0.1)">
       <use xlink:href="#DejaVuSans-31"/>
       <use x="63.623047" xlink:href="#DejaVuSans-2e"/>
       <use x="95.410156" xlink:href="#DejaVuSans-31"/>
       <use x="159.033203" xlink:href="#DejaVuSans-35"/>
      </g>
     </g>
    </g>
    <g id="ytick_13">
     <g id="line2d_46">
      <path clip-path="url(#pffd6e1a9ff)" d="M 315.2 66.874985 
L 478.8 66.874985 
" style="fill:none;stroke:#b0b0b0;stroke-linecap:square;stroke-width:0.8;"/>
     </g>
     <g id="line2d_47">
      <g>
       <use style="stroke:#000000;stroke-width:0.8;" x="315.2" xlink:href="#mc2db194104" y="66.874985"/>
      </g>
     </g>
     <g id="text_26">
      <!-- 1.20 -->
      <g transform="translate(285.934375 70.674204)scale(0.1 -0.1)">
       <use xlink:href="#DejaVuSans-31"/>
       <use x="63.623047" xlink:href="#DejaVuSans-2e"/>
       <use x="95.410156" xlink:href="#DejaVuSans-32"/>
       <use x="159.033203" xlink:href="#DejaVuSans-30"/>
      </g>
     </g>
    </g>
    <g id="text_27">
     <!-- z (m) -->
     <g transform="translate(279.854688 162.045156)rotate(-90)scale(0.1 -0.1)">
      <defs>
       <path d="M 353 3500 
L 3084 3500 
L 3084 2975 
L 922 459 
L 3084 459 
L 3084 0 
L 275 0 
L 275 525 
L 2438 3041 
L 353 3041 
L 353 3500 
z
" id="DejaVuSans-7a" transform="scale(0.015625)"/>
      </defs>
      <use xlink:href="#DejaVuSans-7a"/>
      <use x="52.490234" xlink:href="#DejaVuSans-20"/>
      <use x="84.277344" xlink:href="#DejaVuSans-28"/>
      <use x="123.291016" xlink:href="#DejaVuSans-6d"/>
      <use x="220.703125" xlink:href="#DejaVuSans-29"/>
     </g>
    </g>
   </g>
   <g id="line2d_48">
    <path clip-path="url(#pffd6e1a9ff)" d="M 322.636364 180.257374 
L 322.946277 180.846245 
L 323.287181 181.035893 
L 323.783042 181.011032 
L 327.718938 180.346145 
L 331.004016 180.200757 
L 338.534903 180.147814 
L 397.015496 180.149194 
L 397.10847 180.481225 
L 397.294417 182.574758 
L 397.666313 190.505879 
L 399.091913 223.029472 
L 399.277861 224.132727 
L 399.339844 224.071206 
L 399.4948 223.325677 
L 399.804713 220.304895 
L 401.602209 200.459636 
L 402.376991 195.029546 
L 403.213757 190.71443 
L 404.050522 187.52297 
L 404.856296 185.272011 
L 405.66207 183.647105 
L 406.529826 182.394789 
L 407.459565 181.438875 
L 408.482279 180.708644 
L 409.628957 180.172746 
L 411.023566 179.776858 
L 412.852053 179.498667 
L 415.579287 179.331059 
L 420.785827 179.272857 
L 447.531323 179.382446 
L 471.363636 179.477513 
L 471.363636 179.477513 
" style="fill:none;stroke:#1f77b4;stroke-linecap:square;stroke-opacity:0.7;stroke-width:1.5;"/>
   </g>
   <g id="line2d_49">
    <path clip-path="url(#pffd6e1a9ff)" d="M 322.636364 180.257374 
L 323.50412 182.574144 
L 324.247911 183.975276 
L 324.898729 184.771885 
L 325.39459 185.050142 
L 325.859459 185.072098 
L 326.35532 184.860854 
L 326.913164 184.35615 
L 327.594972 183.401569 
L 328.431738 181.808612 
L 329.423459 179.399281 
L 330.508155 176.159221 
L 331.654833 172.017115 
L 332.925477 166.534001 
L 334.722973 157.659497 
L 336.954347 145.498596 
L 339.495634 130.326589 
L 340.766277 123.148249 
L 342.377825 115.86504 
L 346.809582 96.642781 
L 348.111216 93.198054 
L 349.009964 91.88966 
L 350.001686 90.180772 
L 351.117373 87.777915 
L 352.449999 84.349825 
L 353.162799 82.715903 
L 353.689651 82.089664 
L 354.991286 80.955568 
L 356.540851 80.699113 
L 357.315634 80.198545 
L 358.18339 79.349547 
L 359.268086 77.939486 
L 359.949895 77.178965 
L 360.445756 76.96679 
L 361.530451 76.837997 
L 363.265965 77.527289 
L 363.916782 77.413743 
L 364.598591 77.067213 
L 365.342382 76.432874 
L 366.210138 75.384768 
L 367.325825 73.987273 
L 367.573756 74.09243 
L 368.007634 74.606383 
L 368.906382 75.656992 
L 369.371252 76.279099 
L 369.960086 77.587529 
L 371.137756 80.081388 
L 372.098486 81.654152 
L 372.90426 82.550305 
L 373.61706 83.311624 
L 373.988956 84.20371 
L 375.352573 87.761615 
L 376.654208 90.268155 
L 377.552956 91.64054 
L 378.327739 92.409651 
L 380.311182 93.891614 
L 380.962 93.988257 
L 382.046695 94.11493 
L 382.821478 94.245297 
L 383.379321 94.098632 
L 385.765652 92.967119 
L 386.571426 92.205884 
L 387.346208 91.565042 
L 387.749095 91.560373 
L 388.585861 91.628619 
L 389.236678 91.389941 
L 390.383356 90.929203 
L 391.251113 90.644867 
L 391.963913 90.099029 
L 392.924643 89.374812 
L 393.32753 89.389007 
L 394.133304 89.473695 
L 394.815113 89.246516 
L 395.775843 88.913446 
L 397.077478 88.956218 
L 397.201443 89.679286 
L 397.387391 92.309316 
L 397.697304 100.532496 
L 398.441096 128.496305 
L 399.432817 162.56001 
L 399.804713 168.486165 
L 400.176609 171.237871 
L 400.703461 173.285596 
L 401.6332 176.089414 
L 402.129061 176.938289 
L 402.500957 177.186418 
L 402.81087 177.151752 
L 403.213757 176.848869 
L 403.833583 176.047832 
L 404.763322 174.437182 
L 405.848018 172.088662 
L 407.056678 168.905104 
L 408.389305 164.74269 
L 409.814905 159.577421 
L 411.426452 152.808015 
L 413.50287 143.062932 
L 415.672261 131.607711 
L 416.632992 126.961962 
L 420.971774 109.073598 
L 422.645305 101.712433 
L 423.451079 99.617216 
L 424.163879 98.151119 
L 424.690731 97.665587 
L 425.558488 96.842359 
L 426.426244 95.691913 
L 427.355983 94.059623 
L 428.409688 91.737019 
L 429.711322 88.84921 
L 430.393131 88.162007 
L 431.198905 87.528604 
L 431.601792 87.585079 
L 432.345583 87.692243 
L 432.996401 87.54688 
L 433.802175 87.113067 
L 434.607949 86.461282 
L 436.002557 85.192837 
L 437.800053 85.259746 
L 438.481862 85.015359 
L 439.194662 84.519503 
L 440.000436 83.673638 
L 440.930175 82.347209 
L 442.417757 80.119374 
L 442.913618 80.031504 
L 443.65741 79.841894 
L 444.153271 79.778724 
L 445.857792 80.094364 
L 446.570592 79.868321 
L 447.314384 79.391403 
L 448.120158 78.605975 
L 449.421792 77.225007 
L 449.669723 77.436342 
L 450.227566 78.344501 
L 451.095323 79.621207 
L 451.839114 80.784797 
L 453.078766 82.539219 
L 453.88454 83.385728 
L 454.783288 83.971496 
L 455.186175 84.322497 
L 455.52708 84.984963 
L 456.95268 88.141515 
L 458.16134 89.970368 
L 459.09108 91.117727 
L 459.741897 91.586136 
L 461.291462 92.289281 
L 461.94228 92.445976 
L 462.531114 92.346065 
L 463.925723 92.014944 
L 464.638523 91.949019 
L 465.258349 91.634554 
L 466.807915 90.724804 
L 467.520715 90.405709 
L 468.264506 89.768966 
L 469.132262 89.067441 
L 469.504158 89.086766 
L 470.557862 89.33401 
L 471.332645 89.144746 
L 471.363636 89.135244 
L 471.363636 89.135244 
" style="fill:none;stroke:#d62728;stroke-linecap:square;stroke-opacity:0.7;stroke-width:1.5;"/>
   </g>
   <g id="line2d_50">
    <path clip-path="url(#pffd6e1a9ff)" d="M 322.636364 180.161002 
L 471.363636 180.161002 
L 471.363636 180.161002 
" style="fill:none;stroke:#000000;stroke-dasharray:5.55,2.4;stroke-dashoffset:0;stroke-opacity:0.595;stroke-width:1.5;"/>
   </g>
   <g id="patch_8">
    <path d="M 315.2 231.64 
L 315.2 66.48 
" style="fill:none;stroke:#000000;stroke-linecap:square;stroke-linejoin:miter;stroke-width:0.8;"/>
   </g>
   <g id="patch_9">
    <path d="M 478.8 231.64 
L 478.8 66.48 
" style="fill:none;stroke:#000000;stroke-linecap:square;stroke-linejoin:miter;stroke-width:0.8;"/>
   </g>
   <g id="patch_10">
    <path d="M 315.2 231.64 
L 478.8 231.64 
" style="fill:none;stroke:#000000;stroke-linecap:square;stroke-linejoin:miter;stroke-width:0.8;"/>
   </g>
   <g id="patch_11">
    <path d="M 315.2 66.48 
L 478.8 66.48 
" style="fill:none;stroke:#000000;stroke-linecap:square;stroke-linejoin:miter;stroke-width:0.8;"/>
   </g>
   <g id="text_28">
    <!-- Plano z -->
    <g transform="translate(375.50875 60.48)scale(0.12 -0.12)">
     <use xlink:href="#DejaVuSans-50"/>
     <use x="60.302734" xlink:href="#DejaVuSans-6c"/>
     <use x="88.085938" xlink:href="#DejaVuSans-61"/>
     <use x="149.365234" xlink:href="#DejaVuSans-6e"/>
     <use x="212.744141" xlink:href="#DejaVuSans-6f"/>
     <use x="273.925781" xlink:href="#DejaVuSans-20"/>
     <use x="305.712891" xlink:href="#DejaVuSans-7a"/>
    </g>
   </g>
  </g>
  <g id="text_29">
   <!-- Vista planos -->
   <g transform="translate(239.4 17.9175)scale(0.16 -0.16)">
    <defs>
     <path d="M 1831 0 
L 50 4666 
L 709 4666 
L 2188 738 
L 3669 4666 
L 4325 4666 
L 2547 0 
L 1831 0 
z
" id="DejaVuSans-56" transform="scale(0.015625)"/>
     <path d="M 1172 4494 
L 1172 3500 
L 2356 3500 
L 2356 3053 
L 1172 3053 
L 1172 1153 
Q 1172 725 1289 603 
Q 1406 481 1766 481 
L 2356 481 
L 2356 0 
L 1766 0 
Q 1100 0 847 248 
Q 594 497 594 1153 
L 594 3053 
L 172 3053 
L 172 3500 
L 594 3500 
L 594 4494 
L 1172 4494 
z
" id="DejaVuSans-74" transform="scale(0.015625)"/>
    </defs>
    <use xlink:href="#DejaVuSans-56"/>
    <use x="66.158203" xlink:href="#DejaVuSans-69"/>
    <use x="93.941406" xlink:href="#DejaVuSans-73"/>
    <use x="146.041016" xlink:href="#DejaVuSans-74"/>
    <use x="185.25" xlink:href="#DejaVuSans-61"/>
    <use x="246.529297" xlink:href="#DejaVuSans-20"/>
    <use x="278.316406" xlink:href="#DejaVuSans-70"/>
    <use x="341.792969" xlink:href="#DejaVuSans-6c"/>
    <use x="369.576172" xlink:href="#DejaVuSans-61"/>
    <use x="430.855469" xlink:href="#DejaVuSans-6e"/>
    <use x="494.234375" xlink:href="#DejaVuSans-6f"/>
    <use x="555.416016" xlink:href="#DejaVuSans-73"/>
   </g>
  </g>
  <g id="legend_1">
   <g id="patch_12">
    <path d="M 483.89375 167.517188 
L 569 167.517188 
Q 571 167.517188 571 165.517188 
L 571 122.482812 
Q 571 120.482812 569 120.482812 
L 483.89375 120.482812 
Q 481.89375 120.482812 481.89375 122.482812 
L 481.89375 165.517188 
Q 481.89375 167.517188 483.89375 167.517188 
z
" style="fill:#ffffff;opacity:0.8;stroke:#cccccc;stroke-linejoin:miter;"/>
   </g>
   <g id="line2d_51">
    <path d="M 485.89375 128.58125 
L 505.89375 128.58125 
" style="fill:none;stroke:#1f77b4;stroke-linecap:square;stroke-opacity:0.7;stroke-width:1.5;"/>
   </g>
   <g id="line2d_52"/>
   <g id="text_30">
    <!-- DSLPID -->
    <g transform="translate(513.89375 132.08125)scale(0.1 -0.1)">
     <defs>
      <path d="M 1259 4147 
L 1259 519 
L 2022 519 
Q 2988 519 3436 956 
Q 3884 1394 3884 2338 
Q 3884 3275 3436 3711 
Q 2988 4147 2022 4147 
L 1259 4147 
z
M 628 4666 
L 1925 4666 
Q 3281 4666 3915 4102 
Q 4550 3538 4550 2338 
Q 4550 1131 3912 565 
Q 3275 0 1925 0 
L 628 0 
L 628 4666 
z
" id="DejaVuSans-44" transform="scale(0.015625)"/>
      <path d="M 3425 4513 
L 3425 3897 
Q 3066 4069 2747 4153 
Q 2428 4238 2131 4238 
Q 1616 4238 1336 4038 
Q 1056 3838 1056 3469 
Q 1056 3159 1242 3001 
Q 1428 2844 1947 2747 
L 2328 2669 
Q 3034 2534 3370 2195 
Q 3706 1856 3706 1288 
Q 3706 609 3251 259 
Q 2797 -91 1919 -91 
Q 1588 -91 1214 -16 
Q 841 59 441 206 
L 441 856 
Q 825 641 1194 531 
Q 1563 422 1919 422 
Q 2459 422 2753 634 
Q 3047 847 3047 1241 
Q 3047 1584 2836 1778 
Q 2625 1972 2144 2069 
L 1759 2144 
Q 1053 2284 737 2584 
Q 422 2884 422 3419 
Q 422 4038 858 4394 
Q 1294 4750 2059 4750 
Q 2388 4750 2728 4690 
Q 3069 4631 3425 4513 
z
" id="DejaVuSans-53" transform="scale(0.015625)"/>
      <path d="M 628 4666 
L 1259 4666 
L 1259 531 
L 3531 531 
L 3531 0 
L 628 0 
L 628 4666 
z
" id="DejaVuSans-4c" transform="scale(0.015625)"/>
      <path d="M 628 4666 
L 1259 4666 
L 1259 0 
L 628 0 
L 628 4666 
z
" id="DejaVuSans-49" transform="scale(0.015625)"/>
     </defs>
     <use xlink:href="#DejaVuSans-44"/>
     <use x="77.001953" xlink:href="#DejaVuSans-53"/>
     <use x="140.478516" xlink:href="#DejaVuSans-4c"/>
     <use x="196.191406" xlink:href="#DejaVuSans-50"/>
     <use x="256.494141" xlink:href="#DejaVuSans-49"/>
     <use x="285.986328" xlink:href="#DejaVuSans-44"/>
    </g>
   </g>
   <g id="line2d_53">
    <path d="M 485.89375 143.259375 
L 505.89375 143.259375 
" style="fill:none;stroke:#d62728;stroke-linecap:square;stroke-opacity:0.7;stroke-width:1.5;"/>
   </g>
   <g id="line2d_54"/>
   <g id="text_31">
    <!-- ANN -->
    <g transform="translate(513.89375 146.759375)scale(0.1 -0.1)">
     <defs>
      <path d="M 2188 4044 
L 1331 1722 
L 3047 1722 
L 2188 4044 
z
M 1831 4666 
L 2547 4666 
L 4325 0 
L 3669 0 
L 3244 1197 
L 1141 1197 
L 716 0 
L 50 0 
L 1831 4666 
z
" id="DejaVuSans-41" transform="scale(0.015625)"/>
      <path d="M 628 4666 
L 1478 4666 
L 3547 763 
L 3547 4666 
L 4159 4666 
L 4159 0 
L 3309 0 
L 1241 3903 
L 1241 0 
L 628 0 
L 628 4666 
z
" id="DejaVuSans-4e" transform="scale(0.015625)"/>
     </defs>
     <use xlink:href="#DejaVuSans-41"/>
     <use x="68.408203" xlink:href="#DejaVuSans-4e"/>
     <use x="143.212891" xlink:href="#DejaVuSans-4e"/>
    </g>
   </g>
   <g id="line2d_55">
    <path d="M 485.89375 157.9375 
L 505.89375 157.9375 
" style="fill:none;stroke:#000000;stroke-dasharray:5.55,2.4;stroke-dashoffset:0;stroke-opacity:0.595;stroke-width:1.5;"/>
   </g>
   <g id="line2d_56"/>
   <g id="text_32">
    <!-- Referencia -->
    <g transform="translate(513.89375 161.4375)scale(0.1 -0.1)">
     <defs>
      <path d="M 2841 2188 
Q 3044 2119 3236 1894 
Q 3428 1669 3622 1275 
L 4263 0 
L 3584 0 
L 2988 1197 
Q 2756 1666 2539 1819 
Q 2322 1972 1947 1972 
L 1259 1972 
L 1259 0 
L 628 0 
L 628 4666 
L 2053 4666 
Q 2853 4666 3247 4331 
Q 3641 3997 3641 3322 
Q 3641 2881 3436 2590 
Q 3231 2300 2841 2188 
z
M 1259 4147 
L 1259 2491 
L 2053 2491 
Q 2509 2491 2742 2702 
Q 2975 2913 2975 3322 
Q 2975 3731 2742 3939 
Q 2509 4147 2053 4147 
L 1259 4147 
z
" id="DejaVuSans-52" transform="scale(0.015625)"/>
      <path d="M 2375 4863 
L 2375 4384 
L 1825 4384 
Q 1516 4384 1395 4259 
Q 1275 4134 1275 3809 
L 1275 3500 
L 2222 3500 
L 2222 3053 
L 1275 3053 
L 1275 0 
L 697 0 
L 697 3053 
L 147 3053 
L 147 3500 
L 697 3500 
L 697 3744 
Q 697 4328 969 4595 
Q 1241 4863 1831 4863 
L 2375 4863 
z
" id="DejaVuSans-66" transform="scale(0.015625)"/>
      <path d="M 2631 2963 
Q 2534 3019 2420 3045 
Q 2306 3072 2169 3072 
Q 1681 3072 1420 2755 
Q 1159 2438 1159 1844 
L 1159 0 
L 581 0 
L 581 3500 
L 1159 3500 
L 1159 2956 
Q 1341 3275 1631 3429 
Q 1922 3584 2338 3584 
Q 2397 3584 2469 3576 
Q 2541 3569 2628 3553 
L 2631 2963 
z
" id="DejaVuSans-72" transform="scale(0.015625)"/>
      <path d="M 3122 3366 
L 3122 2828 
Q 2878 2963 2633 3030 
Q 2388 3097 2138 3097 
Q 1578 3097 1268 2742 
Q 959 2388 959 1747 
Q 959 1106 1268 751 
Q 1578 397 2138 397 
Q 2388 397 2633 464 
Q 2878 531 3122 666 
L 3122 134 
Q 2881 22 2623 -34 
Q 2366 -91 2075 -91 
Q 1284 -91 818 406 
Q 353 903 353 1747 
Q 353 2603 823 3093 
Q 1294 3584 2113 3584 
Q 2378 3584 2631 3529 
Q 2884 3475 3122 3366 
z
" id="DejaVuSans-63" transform="scale(0.015625)"/>
     </defs>
     <use xlink:href="#DejaVuSans-52"/>
     <use x="64.982422" xlink:href="#DejaVuSans-65"/>
     <use x="126.505859" xlink:href="#DejaVuSans-66"/>
     <use x="161.710938" xlink:href="#DejaVuSans-65"/>
     <use x="223.234375" xlink:href="#DejaVuSans-72"/>
     <use x="262.097656" xlink:href="#DejaVuSans-65"/>
     <use x="323.621094" xlink:href="#DejaVuSans-6e"/>
     <use x="387" xlink:href="#DejaVuSans-63"/>
     <use x="441.980469" xlink:href="#DejaVuSans-69"/>
     <use x="469.763672" xlink:href="#DejaVuSans-61"/>
    </g>
   </g>
  </g>
 </g>
 <defs>
  <clipPath id="pc030ef7bb6">
   <rect height="165.16" width="163.6" x="97.49" y="66.48"/>
  </clipPath>
  <clipPath id="pffd6e1a9ff">
   <rect height="165.16" width="163.6" x="315.2" y="66.48"/>
  </clipPath>
 </defs>
</svg>
