<?xml version="1.0" encoding="utf-8" standalone="no"?>
<!DOCTYPE svg PUBLIC "-//W3C//DTD SVG 1.1//EN"
  "http://www.w3.org/Graphics/SVG/1.1/DTD/svg11.dtd">
<svg height="576pt" version="1.1" viewBox="0 0 576 576" width="576pt" xmlns="http://www.w3.org/2000/svg" xmlns:xlink="http://www.w3.org/1999/xlink">
 <metadata>
  <rdf:RDF xmlns:cc="http://creativecommons.org/ns#" xmlns:dc="http://purl.org/dc/elements/1.1/" xmlns:rdf="http://www.w3.org/1999/02/22-rdf-syntax-ns#">
   <cc:Work>
    <dc:type rdf:resource="http://purl.org/dc/dcmitype/StillImage"/>
    <dc:date>2022-02-26T03:58:25.642286</dc:date>
    <dc:format>image/svg+xml</dc:format>
    <dc:creator>
     <cc:Agent>
      <dc:title>Matplotlib v3.4.3, https://matplotlib.org/</dc:title>
     </cc:Agent>
    </dc:creator>
   </cc:Work>
  </rdf:RDF>
 </metadata>
 <defs>
  <style type="text/css">*{stroke-linecap:butt;stroke-linejoin:round;}</style>
 </defs>
 <g id="figure_1">
  <g id="patch_1">
   <path d="M 0 576 
L 576 576 
L 576 0 
L 0 0 
z
" style="fill:#ffffff;"/>
  </g>
  <g id="patch_2">
   <path d="M 23.4 565.2 
L 552.6 565.2 
L 552.6 36 
L 23.4 36 
z
" style="fill:#ffffff;"/>
  </g>
  <g id="pane3d_1">
   <g id="patch_3">
    <path d="M 63.358249 434.71624 
L 238.117372 288.229677 
L 235.688053 76.969868 
L 52.565805 210.604144 
" style="fill:#f2f2f2;opacity:0.5;stroke:#f2f2f2;stroke-linejoin:miter;"/>
   </g>
  </g>
  <g id="pane3d_2">
   <g id="patch_4">
    <path d="M 238.117372 288.229677 
L 518.54341 369.738455 
L 528.550827 151.202044 
L 235.688053 76.969868 
" style="fill:#e6e6e6;opacity:0.5;stroke:#e6e6e6;stroke-linejoin:miter;"/>
   </g>
  </g>
  <g id="pane3d_3">
   <g id="patch_5">
    <path d="M 63.358249 434.71624 
L 360.623546 531.803085 
L 518.54341 369.738455 
L 238.117372 288.229677 
" style="fill:#ececec;opacity:0.5;stroke:#ececec;stroke-linejoin:miter;"/>
   </g>
  </g>
  <g id="axis3d_1">
   <g id="line2d_1">
    <path d="M 63.358249 434.71624 
L 360.623546 531.803085 
" style="fill:none;stroke:#000000;stroke-linecap:square;stroke-width:0.8;"/>
   </g>
   <g id="text_1">
    <!-- x (m) -->
    <g transform="translate(178.329241 515.594496)rotate(-341.912962)scale(0.1 -0.1)">
     <defs>
      <path d="M 3513 3500 
L 2247 1797 
L 3578 0 
L 2900 0 
L 1881 1375 
L 863 0 
L 184 0 
L 1544 1831 
L 300 3500 
L 978 3500 
L 1906 2253 
L 2834 3500 
L 3513 3500 
z
" id="DejaVuSans-78" transform="scale(0.015625)"/>
      <path id="DejaVuSans-20" transform="scale(0.015625)"/>
      <path d="M 1984 4856 
Q 1566 4138 1362 3434 
Q 1159 2731 1159 2009 
Q 1159 1288 1364 580 
Q 1569 -128 1984 -844 
L 1484 -844 
Q 1016 -109 783 600 
Q 550 1309 550 2009 
Q 550 2706 781 3412 
Q 1013 4119 1484 4856 
L 1984 4856 
z
" id="DejaVuSans-28" transform="scale(0.015625)"/>
      <path d="M 3328 2828 
Q 3544 3216 3844 3400 
Q 4144 3584 4550 3584 
Q 5097 3584 5394 3201 
Q 5691 2819 5691 2113 
L 5691 0 
L 5113 0 
L 5113 2094 
Q 5113 2597 4934 2840 
Q 4756 3084 4391 3084 
Q 3944 3084 3684 2787 
Q 3425 2491 3425 1978 
L 3425 0 
L 2847 0 
L 2847 2094 
Q 2847 2600 2669 2842 
Q 2491 3084 2119 3084 
Q 1678 3084 1418 2786 
Q 1159 2488 1159 1978 
L 1159 0 
L 581 0 
L 581 3500 
L 1159 3500 
L 1159 2956 
Q 1356 3278 1631 3431 
Q 1906 3584 2284 3584 
Q 2666 3584 2933 3390 
Q 3200 3197 3328 2828 
z
" id="DejaVuSans-6d" transform="scale(0.015625)"/>
      <path d="M 513 4856 
L 1013 4856 
Q 1481 4119 1714 3412 
Q 1947 2706 1947 2009 
Q 1947 1309 1714 600 
Q 1481 -109 1013 -844 
L 513 -844 
Q 928 -128 1133 580 
Q 1338 1288 1338 2009 
Q 1338 2731 1133 3434 
Q 928 4138 513 4856 
z
" id="DejaVuSans-29" transform="scale(0.015625)"/>
     </defs>
     <use xlink:href="#DejaVuSans-78"/>
     <use x="59.179688" xlink:href="#DejaVuSans-20"/>
     <use x="90.966797" xlink:href="#DejaVuSans-28"/>
     <use x="129.980469" xlink:href="#DejaVuSans-6d"/>
     <use x="227.392578" xlink:href="#DejaVuSans-29"/>
    </g>
   </g>
   <g id="Line3DCollection_1">
    <path d="M 81.362196 440.596328 
L 255.172026 293.186792 
L 253.46379 81.475499 
" style="fill:none;stroke:#b0b0b0;stroke-width:0.8;"/>
    <path d="M 128.586931 456.019927 
L 299.863352 306.176796 
L 300.066339 93.287887 
" style="fill:none;stroke:#b0b0b0;stroke-width:0.8;"/>
    <path d="M 176.62857 471.710326 
L 345.263398 319.372797 
L 347.440014 105.295733 
" style="fill:none;stroke:#b0b0b0;stroke-width:0.8;"/>
    <path d="M 225.508495 487.674509 
L 391.389155 332.779733 
L 395.604115 117.503928 
" style="fill:none;stroke:#b0b0b0;stroke-width:0.8;"/>
    <path d="M 275.24884 503.919706 
L 438.258165 346.402704 
L 444.578591 129.91753 
" style="fill:none;stroke:#b0b0b0;stroke-width:0.8;"/>
    <path d="M 325.872524 520.453401 
L 485.888538 360.246973 
L 494.384068 142.541767 
" style="fill:none;stroke:#b0b0b0;stroke-width:0.8;"/>
   </g>
   <g id="xtick_1">
    <g id="line2d_2">
     <path d="M 82.875722 439.312694 
L 78.328649 443.169104 
" style="fill:none;stroke:#000000;stroke-linecap:square;stroke-width:0.8;"/>
    </g>
    <g id="text_2">
     <!-- 0.00 -->
     <g transform="translate(62.714222 463.876497)scale(0.1 -0.1)">
      <defs>
       <path d="M 2034 4250 
Q 1547 4250 1301 3770 
Q 1056 3291 1056 2328 
Q 1056 1369 1301 889 
Q 1547 409 2034 409 
Q 2525 409 2770 889 
Q 3016 1369 3016 2328 
Q 3016 3291 2770 3770 
Q 2525 4250 2034 4250 
z
M 2034 4750 
Q 2819 4750 3233 4129 
Q 3647 3509 3647 2328 
Q 3647 1150 3233 529 
Q 2819 -91 2034 -91 
Q 1250 -91 836 529 
Q 422 1150 422 2328 
Q 422 3509 836 4129 
Q 1250 4750 2034 4750 
z
" id="DejaVuSans-30" transform="scale(0.015625)"/>
       <path d="M 684 794 
L 1344 794 
L 1344 0 
L 684 0 
L 684 794 
z
" id="DejaVuSans-2e" transform="scale(0.015625)"/>
      </defs>
      <use xlink:href="#DejaVuSans-30"/>
      <use x="63.623047" xlink:href="#DejaVuSans-2e"/>
      <use x="95.410156" xlink:href="#DejaVuSans-30"/>
      <use x="159.033203" xlink:href="#DejaVuSans-30"/>
     </g>
    </g>
   </g>
   <g id="xtick_2">
    <g id="line2d_3">
     <path d="M 130.079435 454.714192 
L 125.595463 458.637047 
" style="fill:none;stroke:#000000;stroke-linecap:square;stroke-width:0.8;"/>
    </g>
    <g id="text_3">
     <!-- 0.02 -->
     <g transform="translate(109.963263 479.463844)scale(0.1 -0.1)">
      <defs>
       <path d="M 1228 531 
L 3431 531 
L 3431 0 
L 469 0 
L 469 531 
Q 828 903 1448 1529 
Q 2069 2156 2228 2338 
Q 2531 2678 2651 2914 
Q 2772 3150 2772 3378 
Q 2772 3750 2511 3984 
Q 2250 4219 1831 4219 
Q 1534 4219 1204 4116 
Q 875 4013 500 3803 
L 500 4441 
Q 881 4594 1212 4672 
Q 1544 4750 1819 4750 
Q 2544 4750 2975 4387 
Q 3406 4025 3406 3419 
Q 3406 3131 3298 2873 
Q 3191 2616 2906 2266 
Q 2828 2175 2409 1742 
Q 1991 1309 1228 531 
z
" id="DejaVuSans-32" transform="scale(0.015625)"/>
      </defs>
      <use xlink:href="#DejaVuSans-30"/>
      <use x="63.623047" xlink:href="#DejaVuSans-2e"/>
      <use x="95.410156" xlink:href="#DejaVuSans-30"/>
      <use x="159.033203" xlink:href="#DejaVuSans-32"/>
     </g>
    </g>
   </g>
   <g id="xtick_3">
    <g id="line2d_4">
     <path d="M 178.099097 470.381915 
L 173.681099 474.372947 
" style="fill:none;stroke:#000000;stroke-linecap:square;stroke-width:0.8;"/>
    </g>
    <g id="text_4">
     <!-- 0.04 -->
     <g transform="translate(158.03118 495.321335)scale(0.1 -0.1)">
      <defs>
       <path d="M 2419 4116 
L 825 1625 
L 2419 1625 
L 2419 4116 
z
M 2253 4666 
L 3047 4666 
L 3047 1625 
L 3713 1625 
L 3713 1100 
L 3047 1100 
L 3047 0 
L 2419 0 
L 2419 1100 
L 313 1100 
L 313 1709 
L 2253 4666 
z
" id="DejaVuSans-34" transform="scale(0.015625)"/>
      </defs>
      <use xlink:href="#DejaVuSans-30"/>
      <use x="63.623047" xlink:href="#DejaVuSans-2e"/>
      <use x="95.410156" xlink:href="#DejaVuSans-30"/>
      <use x="159.033203" xlink:href="#DejaVuSans-34"/>
     </g>
    </g>
   </g>
   <g id="xtick_4">
    <g id="line2d_5">
     <path d="M 226.956046 486.322826 
L 222.607019 490.383828 
" style="fill:none;stroke:#000000;stroke-linecap:square;stroke-width:0.8;"/>
    </g>
    <g id="text_5">
     <!-- 0.06 -->
     <g transform="translate(206.939446 511.456056)scale(0.1 -0.1)">
      <defs>
       <path d="M 2113 2584 
Q 1688 2584 1439 2293 
Q 1191 2003 1191 1497 
Q 1191 994 1439 701 
Q 1688 409 2113 409 
Q 2538 409 2786 701 
Q 3034 994 3034 1497 
Q 3034 2003 2786 2293 
Q 2538 2584 2113 2584 
z
M 3366 4563 
L 3366 3988 
Q 3128 4100 2886 4159 
Q 2644 4219 2406 4219 
Q 1781 4219 1451 3797 
Q 1122 3375 1075 2522 
Q 1259 2794 1537 2939 
Q 1816 3084 2150 3084 
Q 2853 3084 3261 2657 
Q 3669 2231 3669 1497 
Q 3669 778 3244 343 
Q 2819 -91 2113 -91 
Q 1303 -91 875 529 
Q 447 1150 447 2328 
Q 447 3434 972 4092 
Q 1497 4750 2381 4750 
Q 2619 4750 2861 4703 
Q 3103 4656 3366 4563 
z
" id="DejaVuSans-36" transform="scale(0.015625)"/>
      </defs>
      <use xlink:href="#DejaVuSans-30"/>
      <use x="63.623047" xlink:href="#DejaVuSans-2e"/>
      <use x="95.410156" xlink:href="#DejaVuSans-30"/>
      <use x="159.033203" xlink:href="#DejaVuSans-36"/>
     </g>
    </g>
   </g>
   <g id="xtick_5">
    <g id="line2d_6">
     <path d="M 276.672376 502.544134 
L 272.395444 506.676961 
" style="fill:none;stroke:#000000;stroke-linecap:square;stroke-width:0.8;"/>
    </g>
    <g id="text_6">
     <!-- 0.08 -->
     <g transform="translate(256.710295 527.87534)scale(0.1 -0.1)">
      <defs>
       <path d="M 2034 2216 
Q 1584 2216 1326 1975 
Q 1069 1734 1069 1313 
Q 1069 891 1326 650 
Q 1584 409 2034 409 
Q 2484 409 2743 651 
Q 3003 894 3003 1313 
Q 3003 1734 2745 1975 
Q 2488 2216 2034 2216 
z
M 1403 2484 
Q 997 2584 770 2862 
Q 544 3141 544 3541 
Q 544 4100 942 4425 
Q 1341 4750 2034 4750 
Q 2731 4750 3128 4425 
Q 3525 4100 3525 3541 
Q 3525 3141 3298 2862 
Q 3072 2584 2669 2484 
Q 3125 2378 3379 2068 
Q 3634 1759 3634 1313 
Q 3634 634 3220 271 
Q 2806 -91 2034 -91 
Q 1263 -91 848 271 
Q 434 634 434 1313 
Q 434 1759 690 2068 
Q 947 2378 1403 2484 
z
M 1172 3481 
Q 1172 3119 1398 2916 
Q 1625 2713 2034 2713 
Q 2441 2713 2670 2916 
Q 2900 3119 2900 3481 
Q 2900 3844 2670 4047 
Q 2441 4250 2034 4250 
Q 1625 4250 1398 4047 
Q 1172 3844 1172 3481 
z
" id="DejaVuSans-38" transform="scale(0.015625)"/>
      </defs>
      <use xlink:href="#DejaVuSans-30"/>
      <use x="63.623047" xlink:href="#DejaVuSans-2e"/>
      <use x="95.410156" xlink:href="#DejaVuSans-30"/>
      <use x="159.033203" xlink:href="#DejaVuSans-38"/>
     </g>
    </g>
   </g>
   <g id="xtick_6">
    <g id="line2d_7">
     <path d="M 327.27096 519.053301 
L 323.069384 523.259877 
" style="fill:none;stroke:#000000;stroke-linecap:square;stroke-width:0.8;"/>
    </g>
    <g id="text_7">
     <!-- 0.10 -->
     <g transform="translate(307.366747 544.586783)scale(0.1 -0.1)">
      <defs>
       <path d="M 794 531 
L 1825 531 
L 1825 4091 
L 703 3866 
L 703 4441 
L 1819 4666 
L 2450 4666 
L 2450 531 
L 3481 531 
L 3481 0 
L 794 0 
L 794 531 
z
" id="DejaVuSans-31" transform="scale(0.015625)"/>
      </defs>
      <use xlink:href="#DejaVuSans-30"/>
      <use x="63.623047" xlink:href="#DejaVuSans-2e"/>
      <use x="95.410156" xlink:href="#DejaVuSans-31"/>
      <use x="159.033203" xlink:href="#DejaVuSans-30"/>
     </g>
    </g>
   </g>
  </g>
  <g id="axis3d_2">
   <g id="line2d_8">
    <path d="M 518.54341 369.738455 
L 360.623546 531.803085 
" style="fill:none;stroke:#000000;stroke-linecap:square;stroke-width:0.8;"/>
   </g>
   <g id="text_8">
    <!-- y (m) -->
    <g transform="translate(462.753334 486.601399)rotate(-45.742112)scale(0.1 -0.1)">
     <defs>
      <path d="M 2059 -325 
Q 1816 -950 1584 -1140 
Q 1353 -1331 966 -1331 
L 506 -1331 
L 506 -850 
L 844 -850 
Q 1081 -850 1212 -737 
Q 1344 -625 1503 -206 
L 1606 56 
L 191 3500 
L 800 3500 
L 1894 763 
L 2988 3500 
L 3597 3500 
L 2059 -325 
z
" id="DejaVuSans-79" transform="scale(0.015625)"/>
     </defs>
     <use xlink:href="#DejaVuSans-79"/>
     <use x="59.179688" xlink:href="#DejaVuSans-20"/>
     <use x="90.966797" xlink:href="#DejaVuSans-28"/>
     <use x="129.980469" xlink:href="#DejaVuSans-6d"/>
     <use x="227.392578" xlink:href="#DejaVuSans-29"/>
    </g>
   </g>
   <g id="Line3DCollection_2">
    <path d="M 68.22003 199.180404 
L 78.245756 422.237237 
L 374.130973 517.941142 
" style="fill:none;stroke:#b0b0b0;stroke-width:0.8;"/>
    <path d="M 98.313809 177.219335 
L 106.892713 398.224789 
L 400.093724 491.296972 
" style="fill:none;stroke:#b0b0b0;stroke-width:0.8;"/>
    <path d="M 127.570607 155.869056 
L 134.777191 374.851466 
L 425.329333 465.399029 
" style="fill:none;stroke:#b0b0b0;stroke-width:0.8;"/>
    <path d="M 156.024862 135.104437 
L 161.929233 352.092087 
L 449.867926 440.216396 
" style="fill:none;stroke:#b0b0b0;stroke-width:0.8;"/>
    <path d="M 183.709149 114.901705 
L 188.377322 329.922774 
L 473.737987 415.719841 
" style="fill:none;stroke:#b0b0b0;stroke-width:0.8;"/>
    <path d="M 210.654305 95.238357 
L 214.148484 308.320875 
L 496.96647 391.881704 
" style="fill:none;stroke:#b0b0b0;stroke-width:0.8;"/>
   </g>
   <g id="xtick_7">
    <g id="line2d_9">
     <path d="M 371.637717 517.1347 
L 379.123923 519.556109 
" style="fill:none;stroke:#000000;stroke-linecap:square;stroke-width:0.8;"/>
    </g>
    <g id="text_9">
     <!-- 0.00 -->
     <g transform="translate(375.857579 538.939159)scale(0.1 -0.1)">
      <use xlink:href="#DejaVuSans-30"/>
      <use x="63.623047" xlink:href="#DejaVuSans-2e"/>
      <use x="95.410156" xlink:href="#DejaVuSans-30"/>
      <use x="159.033203" xlink:href="#DejaVuSans-30"/>
     </g>
    </g>
   </g>
   <g id="xtick_8">
    <g id="line2d_10">
     <path d="M 397.624862 490.51327 
L 405.037734 492.866373 
" style="fill:none;stroke:#000000;stroke-linecap:square;stroke-width:0.8;"/>
    </g>
    <g id="text_10">
     <!-- 0.02 -->
     <g transform="translate(401.645334 512.096731)scale(0.1 -0.1)">
      <use xlink:href="#DejaVuSans-30"/>
      <use x="63.623047" xlink:href="#DejaVuSans-2e"/>
      <use x="95.410156" xlink:href="#DejaVuSans-30"/>
      <use x="159.033203" xlink:href="#DejaVuSans-32"/>
     </g>
    </g>
   </g>
   <g id="xtick_9">
    <g id="line2d_11">
     <path d="M 422.884485 464.637118 
L 430.225167 466.924765 
" style="fill:none;stroke:#000000;stroke-linecap:square;stroke-width:0.8;"/>
    </g>
    <g id="text_11">
     <!-- 0.04 -->
     <g transform="translate(426.710638 486.006302)scale(0.1 -0.1)">
      <use xlink:href="#DejaVuSans-30"/>
      <use x="63.623047" xlink:href="#DejaVuSans-2e"/>
      <use x="95.410156" xlink:href="#DejaVuSans-30"/>
      <use x="159.033203" xlink:href="#DejaVuSans-34"/>
     </g>
    </g>
   </g>
   <g id="xtick_10">
    <g id="line2d_12">
     <path d="M 447.446717 439.475379 
L 454.71634 441.700264 
" style="fill:none;stroke:#000000;stroke-linecap:square;stroke-width:0.8;"/>
    </g>
    <g id="text_12">
     <!-- 0.06 -->
     <g transform="translate(451.083429 460.636707)scale(0.1 -0.1)">
      <use xlink:href="#DejaVuSans-30"/>
      <use x="63.623047" xlink:href="#DejaVuSans-2e"/>
      <use x="95.410156" xlink:href="#DejaVuSans-30"/>
      <use x="159.033203" xlink:href="#DejaVuSans-36"/>
     </g>
    </g>
   </g>
   <g id="xtick_11">
    <g id="line2d_13">
     <path d="M 471.340044 414.998871 
L 478.539729 417.163542 
" style="fill:none;stroke:#000000;stroke-linecap:square;stroke-width:0.8;"/>
    </g>
    <g id="text_13">
     <!-- 0.08 -->
     <g transform="translate(474.792017 435.958481)scale(0.1 -0.1)">
      <use xlink:href="#DejaVuSans-30"/>
      <use x="63.623047" xlink:href="#DejaVuSans-2e"/>
      <use x="95.410156" xlink:href="#DejaVuSans-30"/>
      <use x="159.033203" xlink:href="#DejaVuSans-38"/>
     </g>
    </g>
   </g>
   <g id="xtick_12">
    <g id="line2d_14">
     <path d="M 494.591425 391.179978 
L 501.722281 393.286847 
" style="fill:none;stroke:#000000;stroke-linecap:square;stroke-width:0.8;"/>
    </g>
    <g id="text_14">
     <!-- 0.10 -->
     <g transform="translate(497.863187 411.943741)scale(0.1 -0.1)">
      <use xlink:href="#DejaVuSans-30"/>
      <use x="63.623047" xlink:href="#DejaVuSans-2e"/>
      <use x="95.410156" xlink:href="#DejaVuSans-31"/>
      <use x="159.033203" xlink:href="#DejaVuSans-30"/>
     </g>
    </g>
   </g>
  </g>
  <g id="axis3d_3">
   <g id="line2d_15">
    <path d="M 518.54341 369.738455 
L 528.550827 151.202044 
" style="fill:none;stroke:#000000;stroke-linecap:square;stroke-width:0.8;"/>
   </g>
   <g id="text_15">
    <!-- z (m) -->
    <g transform="translate(566.10943 270.534657)rotate(-87.378092)scale(0.1 -0.1)">
     <defs>
      <path d="M 353 3500 
L 3084 3500 
L 3084 2975 
L 922 459 
L 3084 459 
L 3084 0 
L 275 0 
L 275 525 
L 2438 3041 
L 353 3041 
L 353 3500 
z
" id="DejaVuSans-7a" transform="scale(0.015625)"/>
     </defs>
     <use xlink:href="#DejaVuSans-7a"/>
     <use x="52.490234" xlink:href="#DejaVuSans-20"/>
     <use x="84.277344" xlink:href="#DejaVuSans-28"/>
     <use x="123.291016" xlink:href="#DejaVuSans-6d"/>
     <use x="220.703125" xlink:href="#DejaVuSans-29"/>
    </g>
   </g>
   <g id="Line3DCollection_3">
    <path d="M 519.093316 357.729913 
L 237.983615 276.597801 
L 62.766151 422.420923 
" style="fill:none;stroke:#b0b0b0;stroke-width:0.8;"/>
    <path d="M 520.128803 335.117528 
L 237.731831 254.702019 
L 61.650916 399.262353 
" style="fill:none;stroke:#b0b0b0;stroke-width:0.8;"/>
    <path d="M 521.17391 312.295056 
L 237.477819 232.612511 
L 60.524926 375.880432 
" style="fill:none;stroke:#b0b0b0;stroke-width:0.8;"/>
    <path d="M 522.228773 289.259556 
L 237.22155 210.326697 
L 59.388023 352.271913 
" style="fill:none;stroke:#b0b0b0;stroke-width:0.8;"/>
    <path d="M 523.293528 266.008031 
L 236.962994 187.841948 
L 58.240049 328.433485 
" style="fill:none;stroke:#b0b0b0;stroke-width:0.8;"/>
    <path d="M 524.368315 242.537429 
L 236.702119 165.155587 
L 57.08084 304.361775 
" style="fill:none;stroke:#b0b0b0;stroke-width:0.8;"/>
    <path d="M 525.453276 218.844638 
L 236.438894 142.264891 
L 55.910232 280.05334 
" style="fill:none;stroke:#b0b0b0;stroke-width:0.8;"/>
    <path d="M 526.548558 194.926488 
L 236.173288 119.167087 
L 54.728056 255.504671 
" style="fill:none;stroke:#b0b0b0;stroke-width:0.8;"/>
    <path d="M 527.654307 170.779749 
L 235.905267 95.859352 
L 53.534138 230.71219 
" style="fill:none;stroke:#b0b0b0;stroke-width:0.8;"/>
   </g>
   <g id="xtick_13">
    <g id="line2d_16">
     <path d="M 516.73376 357.048913 
L 523.818055 359.093537 
" style="fill:none;stroke:#000000;stroke-linecap:square;stroke-width:0.8;"/>
    </g>
    <g id="text_16">
     <!-- 1.000 -->
     <g transform="translate(523.099222 362.731229)scale(0.1 -0.1)">
      <use xlink:href="#DejaVuSans-31"/>
      <use x="63.623047" xlink:href="#DejaVuSans-2e"/>
      <use x="95.410156" xlink:href="#DejaVuSans-30"/>
      <use x="159.033203" xlink:href="#DejaVuSans-30"/>
      <use x="222.65625" xlink:href="#DejaVuSans-30"/>
     </g>
    </g>
   </g>
   <g id="xtick_14">
    <g id="line2d_17">
     <path d="M 517.757928 334.442396 
L 524.876232 336.469408 
" style="fill:none;stroke:#000000;stroke-linecap:square;stroke-width:0.8;"/>
    </g>
    <g id="text_17">
     <!-- 1.025 -->
     <g transform="translate(524.217715 340.141238)scale(0.1 -0.1)">
      <defs>
       <path d="M 691 4666 
L 3169 4666 
L 3169 4134 
L 1269 4134 
L 1269 2991 
Q 1406 3038 1543 3061 
Q 1681 3084 1819 3084 
Q 2600 3084 3056 2656 
Q 3513 2228 3513 1497 
Q 3513 744 3044 326 
Q 2575 -91 1722 -91 
Q 1428 -91 1123 -41 
Q 819 9 494 109 
L 494 744 
Q 775 591 1075 516 
Q 1375 441 1709 441 
Q 2250 441 2565 725 
Q 2881 1009 2881 1497 
Q 2881 1984 2565 2268 
Q 2250 2553 1709 2553 
Q 1456 2553 1204 2497 
Q 953 2441 691 2322 
L 691 4666 
z
" id="DejaVuSans-35" transform="scale(0.015625)"/>
      </defs>
      <use xlink:href="#DejaVuSans-31"/>
      <use x="63.623047" xlink:href="#DejaVuSans-2e"/>
      <use x="95.410156" xlink:href="#DejaVuSans-30"/>
      <use x="159.033203" xlink:href="#DejaVuSans-32"/>
      <use x="222.65625" xlink:href="#DejaVuSans-35"/>
     </g>
    </g>
   </g>
   <g id="xtick_15">
    <g id="line2d_18">
     <path d="M 518.791607 311.625931 
L 525.944249 313.634915 
" style="fill:none;stroke:#000000;stroke-linecap:square;stroke-width:0.8;"/>
    </g>
    <g id="text_18">
     <!-- 1.050 -->
     <g transform="translate(525.346584 317.341689)scale(0.1 -0.1)">
      <use xlink:href="#DejaVuSans-31"/>
      <use x="63.623047" xlink:href="#DejaVuSans-2e"/>
      <use x="95.410156" xlink:href="#DejaVuSans-30"/>
      <use x="159.033203" xlink:href="#DejaVuSans-35"/>
      <use x="222.65625" xlink:href="#DejaVuSans-30"/>
     </g>
    </g>
   </g>
   <g id="xtick_16">
    <g id="line2d_19">
     <path d="M 519.834931 288.59658 
L 527.022243 290.587109 
" style="fill:none;stroke:#000000;stroke-linecap:square;stroke-width:0.8;"/>
    </g>
    <g id="text_19">
     <!-- 1.075 -->
     <g transform="translate(526.485974 294.329653)scale(0.1 -0.1)">
      <defs>
       <path d="M 525 4666 
L 3525 4666 
L 3525 4397 
L 1831 0 
L 1172 0 
L 2766 4134 
L 525 4134 
L 525 4666 
z
" id="DejaVuSans-37" transform="scale(0.015625)"/>
      </defs>
      <use xlink:href="#DejaVuSans-31"/>
      <use x="63.623047" xlink:href="#DejaVuSans-2e"/>
      <use x="95.410156" xlink:href="#DejaVuSans-30"/>
      <use x="159.033203" xlink:href="#DejaVuSans-37"/>
      <use x="222.65625" xlink:href="#DejaVuSans-35"/>
     </g>
    </g>
   </g>
   <g id="xtick_17">
    <g id="line2d_20">
     <path d="M 520.888035 265.35135 
L 528.110355 267.322989 
" style="fill:none;stroke:#000000;stroke-linecap:square;stroke-width:0.8;"/>
    </g>
    <g id="text_20">
     <!-- 1.100 -->
     <g transform="translate(527.636032 271.102144)scale(0.1 -0.1)">
      <use xlink:href="#DejaVuSans-31"/>
      <use x="63.623047" xlink:href="#DejaVuSans-2e"/>
      <use x="95.410156" xlink:href="#DejaVuSans-31"/>
      <use x="159.033203" xlink:href="#DejaVuSans-30"/>
      <use x="222.65625" xlink:href="#DejaVuSans-30"/>
     </g>
    </g>
   </g>
   <g id="xtick_18">
    <g id="line2d_21">
     <path d="M 521.951058 241.88719 
L 529.208727 243.839494 
" style="fill:none;stroke:#000000;stroke-linecap:square;stroke-width:0.8;"/>
    </g>
    <g id="text_21">
     <!-- 1.125 -->
     <g transform="translate(528.79691 247.656124)scale(0.1 -0.1)">
      <use xlink:href="#DejaVuSans-31"/>
      <use x="63.623047" xlink:href="#DejaVuSans-2e"/>
      <use x="95.410156" xlink:href="#DejaVuSans-31"/>
      <use x="159.033203" xlink:href="#DejaVuSans-32"/>
      <use x="222.65625" xlink:href="#DejaVuSans-35"/>
     </g>
    </g>
   </g>
   <g id="xtick_19">
    <g id="line2d_22">
     <path d="M 523.02414 218.200993 
L 530.317505 220.133506 
" style="fill:none;stroke:#000000;stroke-linecap:square;stroke-width:0.8;"/>
    </g>
    <g id="text_22">
     <!-- 1.150 -->
     <g transform="translate(529.96876 223.988493)scale(0.1 -0.1)">
      <use xlink:href="#DejaVuSans-31"/>
      <use x="63.623047" xlink:href="#DejaVuSans-2e"/>
      <use x="95.410156" xlink:href="#DejaVuSans-31"/>
      <use x="159.033203" xlink:href="#DejaVuSans-35"/>
      <use x="222.65625" xlink:href="#DejaVuSans-30"/>
     </g>
    </g>
   </g>
   <g id="xtick_20">
    <g id="line2d_23">
     <path d="M 524.107424 194.289592 
L 531.436839 196.201849 
" style="fill:none;stroke:#000000;stroke-linecap:square;stroke-width:0.8;"/>
    </g>
    <g id="text_23">
     <!-- 1.175 -->
     <g transform="translate(531.151739 200.096095)scale(0.1 -0.1)">
      <use xlink:href="#DejaVuSans-31"/>
      <use x="63.623047" xlink:href="#DejaVuSans-2e"/>
      <use x="95.410156" xlink:href="#DejaVuSans-31"/>
      <use x="159.033203" xlink:href="#DejaVuSans-37"/>
      <use x="222.65625" xlink:href="#DejaVuSans-35"/>
     </g>
    </g>
   </g>
   <g id="xtick_21">
    <g id="line2d_24">
     <path d="M 525.201058 170.149761 
L 532.566879 172.041285 
" style="fill:none;stroke:#000000;stroke-linecap:square;stroke-width:0.8;"/>
    </g>
    <g id="text_24">
     <!-- 1.200 -->
     <g transform="translate(532.346006 175.975712)scale(0.1 -0.1)">
      <use xlink:href="#DejaVuSans-31"/>
      <use x="63.623047" xlink:href="#DejaVuSans-2e"/>
      <use x="95.410156" xlink:href="#DejaVuSans-32"/>
      <use x="159.033203" xlink:href="#DejaVuSans-30"/>
      <use x="222.65625" xlink:href="#DejaVuSans-30"/>
     </g>
    </g>
   </g>
  </g>
  <g id="axes_1">
   <g id="line2d_25">
    <path clip-path="url(#pf69c2cef17)" d="M 95.672544 415.925713 
L 95.725638 417.211852 
L 95.584052 411.434178 
L 95.707229 408.632188 
L 96.089555 405.502443 
L 96.632183 403.0014 
L 97.462251 400.406125 
L 98.629954 397.744366 
L 100.174909 395.032935 
L 101.427221 393.211825 
L 103.65615 390.464813 
L 106.319046 387.712818 
L 109.430946 384.959686 
L 113.004263 382.210694 
L 117.048304 379.468434 
L 121.567152 376.735037 
L 126.557618 374.014001 
L 132.011161 371.30707 
L 137.914696 368.615964 
L 144.252921 365.941006 
L 151.008256 363.283061 
L 160.62968 359.765991 
L 170.901414 356.281814 
L 181.757523 352.833791 
L 196.037908 348.579049 
L 210.967823 344.391675 
L 226.39373 340.279818 
L 245.33655 335.459789 
L 267.683695 330.019071 
L 293.03882 324.082136 
L 323.624234 317.156924 
L 365.283285 307.979992 
L 427.901816 294.20847 
L 442.802715 290.708964 
L 452.270289 288.267476 
L 457.413713 286.732591 
L 460.324147 285.658879 
L 461.807158 284.904637 
L 462.433951 284.371281 
L 462.589082 283.992628 
L 462.478708 283.66325 
L 462.081843 283.319922 
L 461.271378 282.938009 
L 458.30997 281.742318 
L 458.165165 281.425263 
L 458.270012 281.126584 
L 458.679508 280.745293 
L 459.659078 280.200236 
L 461.138768 279.632723 
L 464.033456 278.797362 
L 468.153986 277.85219 
L 474.149738 276.704317 
L 482.144268 275.409042 
L 488.836444 274.468895 
L 487.312384 274.531873 
L 486.644741 274.479547 
L 486.714647 274.433443 
L 487.451283 274.277839 
L 488.108424 274.201327 
L 480.545102 275.234242 
L 471.735698 276.591836 
L 471.735698 276.591836 
" style="fill:none;stroke:#1f77b4;stroke-linecap:square;stroke-opacity:0.7;stroke-width:1.5;"/>
   </g>
   <g id="line2d_26">
    <path clip-path="url(#pf69c2cef17)" d="M 95.672544 415.925713 
L 95.982156 420.966932 
L 96.292723 422.327141 
L 96.744537 423.281041 
L 97.315001 423.975911 
L 98.156872 424.643229 
L 99.389478 425.328612 
L 101.020443 425.96643 
L 102.640388 426.36766 
L 104.147573 426.509933 
L 105.35953 426.418015 
L 106.349562 426.139111 
L 107.100591 425.712285 
L 107.622821 425.183996 
L 107.98228 424.510589 
L 108.159389 423.690384 
L 108.141347 422.725082 
L 107.882093 421.471643 
L 107.305683 419.883959 
L 106.256239 417.737219 
L 104.409462 414.544436 
L 101.244622 409.097725 
L 100.082224 406.635054 
L 99.374383 404.627937 
L 98.972266 402.861729 
L 98.790896 401.116964 
L 98.826035 399.394292 
L 99.069368 397.687088 
L 99.568395 395.778396 
L 100.354613 393.658651 
L 101.740581 390.645508 
L 104.433824 384.918906 
L 105.446277 382.183101 
L 106.097967 379.824904 
L 106.545126 377.35274 
L 106.745586 375.058825 
L 106.74668 372.676743 
L 106.544397 370.211873 
L 106.081193 367.349868 
L 105.301867 364.076629 
L 104.185759 360.390916 
L 102.161527 354.602808 
L 100.190836 348.819375 
L 99.259291 345.458294 
L 98.646813 342.476899 
L 98.273792 339.538834 
L 98.151071 336.638293 
L 98.274441 333.768694 
L 98.617917 330.962443 
L 99.148496 328.306324 
L 99.912549 325.595369 
L 101.072867 322.332376 
L 103.391661 315.993648 
L 103.985779 313.672722 
L 104.315538 311.566914 
L 104.419631 309.444117 
L 104.280684 307.303507 
L 103.895372 305.143673 
L 103.275208 302.963014 
L 102.343319 300.514385 
L 100.966802 297.540755 
L 96.553785 288.44179 
L 95.678315 285.918185 
L 95.147214 283.754073 
L 94.879586 281.811285 
L 94.87319 280.142679 
L 95.111318 278.661011 
L 95.565101 277.270214 
L 96.352426 275.591448 
L 97.404058 273.867684 
L 98.256886 272.868902 
L 99.288206 272.033337 
L 100.874414 270.80942 
L 101.310201 270.179539 
L 101.474267 269.565298 
L 101.408864 268.897904 
L 101.078423 268.082497 
L 100.314388 266.888649 
L 97.235078 262.432261 
L 96.499072 260.876615 
L 96.031031 259.370135 
L 95.808961 257.858616 
L 95.847685 256.522433 
L 96.088898 255.611573 
L 96.54417 254.853087 
L 97.533662 253.783135 
L 98.912541 252.527488 
L 99.410639 252.369051 
L 99.954113 252.460424 
L 100.110725 252.541685 
L 99.89121 252.552051 
L 98.523635 252.319509 
L 96.43567 251.736814 
L 94.411892 250.946503 
L 92.601748 250.00389 
L 91.183109 249.02481 
L 90.094295 248.006864 
L 89.353538 247.020497 
L 88.898196 246.050694 
L 88.761992 245.284848 
L 88.876403 244.644979 
L 89.376438 243.659681 
L 90.214633 242.400469 
L 91.388297 241.117406 
L 92.882022 239.887405 
L 94.419601 238.872615 
L 96.372309 237.803312 
L 98.782689 236.691838 
L 102.76376 235.158783 
L 107.666224 233.582846 
L 113.514238 231.974739 
L 120.309358 230.341509 
L 128.033678 228.687651 
L 138.941359 226.594354 
L 151.149074 224.467307 
L 170.186957 221.414856 
L 206.98651 215.834823 
L 246.940011 209.714715 
L 274.085904 205.34401 
L 297.501492 201.36017 
L 320.119012 197.281084 
L 338.550786 193.754455 
L 355.858128 190.236473 
L 371.85071 186.761777 
L 386.377537 183.366218 
L 399.327136 180.087222 
L 408.860914 177.470118 
L 417.228768 174.978625 
L 424.429115 172.631223 
L 430.477461 170.442206 
L 435.403962 168.417046 
L 438.566215 166.913587 
L 441.066614 165.512204 
L 442.939283 164.211405 
L 444.223986 163.009717 
L 444.828635 162.173598 
L 445.148255 161.393103 
L 445.204239 160.667789 
L 445.019107 159.998834 
L 444.615926 159.386321 
L 444.018403 158.831047 
L 442.959798 158.166726 
L 441.296051 157.4427 
L 438.950342 156.719803 
L 435.978562 156.086337 
L 432.631429 155.625928 
L 429.377009 155.403712 
L 426.989355 155.447619 
L 425.705284 155.651306 
L 425.288557 155.881428 
L 425.279177 156.065944 
L 425.573618 156.331185 
L 426.378579 156.698641 
L 428.505606 157.369104 
L 432.546502 158.384709 
L 439.083083 159.810434 
L 445.686111 161.030086 
L 452.142613 161.998846 
L 458.012562 162.663928 
L 464.297271 163.133081 
L 470.61017 163.378644 
L 477.69195 163.423048 
L 484.331146 163.231182 
L 485.375206 163.136759 
L 485.059969 163.093555 
L 481.147104 162.89993 
L 477.444492 162.856603 
L 475.678065 163.02603 
L 474.875191 163.303833 
L 474.594133 163.595672 
L 474.587786 163.87038 
L 474.832971 164.193387 
L 475.396674 164.527194 
L 476.313844 164.805394 
L 477.880474 165.024433 
L 483.283706 165.645326 
L 485.013763 166.140752 
L 486.962068 166.94689 
L 488.507319 167.813019 
L 489.270938 168.441169 
L 489.412686 168.777627 
L 489.294259 169.035634 
L 488.815041 169.401146 
L 485.909887 171.07706 
L 484.775831 171.430227 
L 484.802816 171.491089 
L 485.183825 171.904581 
L 486.209021 172.705607 
L 487.676933 173.592537 
L 489.479946 174.601548 
L 489.715334 175.046579 
L 489.792865 175.671927 
L 489.669924 176.320183 
L 489.385947 176.788757 
L 488.897451 177.143894 
L 487.824601 177.562308 
L 487.308537 177.903486 
L 487.130388 178.26679 
L 487.1349 178.801692 
L 487.376515 179.456068 
L 487.785608 179.984504 
L 488.393926 180.632107 
L 488.869447 181.658697 
L 489.176897 182.723967 
L 489.112472 183.217019 
L 488.666601 184.560802 
L 488.421002 185.975954 
L 488.071145 186.551297 
L 488.274517 187.171933 
L 488.907198 188.7901 
L 488.892625 190.019797 
L 488.785344 190.833547 
L 488.47851 191.275182 
L 488.336379 191.669748 
L 488.404047 192.260328 
L 488.672819 193.8045 
L 488.822001 195.420247 
L 488.742463 195.758842 
L 488.841323 196.665055 
L 488.818169 197.254559 
L 488.582191 197.429405 
L 488.439263 197.65585 
L 488.487514 198.115843 
L 488.692315 199.352505 
L 488.625443 200.808731 
L 488.389691 201.081976 
L 488.433106 201.476213 
L 488.757917 202.258674 
L 488.854308 202.421775 
L 488.725287 202.424458 
L 488.782077 202.966089 
L 488.768629 203.550108 
L 488.483038 204.000605 
L 488.743995 204.683539 
L 488.929109 205.010232 
L 488.771091 204.972787 
L 488.85836 205.67731 
L 488.762653 205.907343 
L 488.482905 206.078796 
L 488.660684 206.585173 
L 488.84069 207.181292 
L 488.82934 207.743055 
L 488.510391 207.922546 
L 488.516506 207.944308 
L 488.798048 208.512109 
L 488.944622 208.664481 
L 488.904882 208.473382 
L 488.840232 208.396339 
L 488.860532 208.627774 
L 488.887849 209.149346 
L 488.863122 209.152117 
L 488.526269 209.122247 
L 488.544432 209.230799 
L 488.803928 209.750119 
L 488.946626 209.891731 
L 488.941377 209.75632 
L 488.840846 209.548069 
L 488.943504 210.191294 
L 488.811463 210.160792 
L 488.565957 210.066362 
L 488.559368 210.11786 
L 488.712341 210.494135 
L 488.957123 210.786305 
L 488.966205 210.707799 
L 488.846943 210.38137 
L 488.952193 210.960568 
L 488.893014 210.944078 
L 488.584331 210.772053 
L 488.600487 210.89316 
L 488.874252 211.36229 
L 488.964641 211.419966 
L 488.973811 211.311658 
L 488.854585 210.962577 
L 488.971584 211.486993 
L 488.889003 211.447849 
L 488.59925 211.25094 
L 488.620259 211.375821 
L 488.895252 211.811839 
L 488.97353 211.846233 
L 488.984818 211.755059 
L 488.86194 211.348271 
L 488.98622 211.831857 
L 488.879417 211.764973 
L 488.609811 211.55913 
L 488.630384 211.673923 
L 488.903483 212.089163 
L 488.980826 212.115215 
L 488.992523 212.030758 
L 488.867319 211.586467 
L 488.992898 212.040645 
L 488.875578 211.953924 
L 488.616508 211.740427 
L 488.643334 211.863718 
L 488.937565 212.26996 
L 488.990008 212.262376 
L 488.997996 212.178911 
L 488.872233 211.71686 
L 489.009359 212.137491 
" style="fill:none;stroke:#d62728;stroke-linecap:square;stroke-opacity:0.7;stroke-width:1.5;"/>
   </g>
   <g id="line2d_27">
    <path clip-path="url(#pf69c2cef17)" d="M 95.666084 415.769235 
L 467.632465 277.92056 
L 467.632465 277.92056 
" style="fill:none;stroke:#000000;stroke-dasharray:5.55,2.4;stroke-dashoffset:0;stroke-opacity:0.595;stroke-width:1.5;"/>
   </g>
   <g id="legend_1">
    <g id="patch_6">
     <path d="M 460.49375 88.034375 
L 545.6 88.034375 
Q 547.6 88.034375 547.6 86.034375 
L 547.6 43 
Q 547.6 41 545.6 41 
L 460.49375 41 
Q 458.49375 41 458.49375 43 
L 458.49375 86.034375 
Q 458.49375 88.034375 460.49375 88.034375 
z
" style="fill:#ffffff;opacity:0.8;stroke:#cccccc;stroke-linejoin:miter;"/>
    </g>
    <g id="line2d_28">
     <path d="M 462.49375 49.098437 
L 482.49375 49.098437 
" style="fill:none;stroke:#1f77b4;stroke-linecap:square;stroke-opacity:0.7;stroke-width:1.5;"/>
    </g>
    <g id="line2d_29"/>
    <g id="text_25">
     <!-- DSLPID -->
     <g transform="translate(490.49375 52.598437)scale(0.1 -0.1)">
      <defs>
       <path d="M 1259 4147 
L 1259 519 
L 2022 519 
Q 2988 519 3436 956 
Q 3884 1394 3884 2338 
Q 3884 3275 3436 3711 
Q 2988 4147 2022 4147 
L 1259 4147 
z
M 628 4666 
L 1925 4666 
Q 3281 4666 3915 4102 
Q 4550 3538 4550 2338 
Q 4550 1131 3912 565 
Q 3275 0 1925 0 
L 628 0 
L 628 4666 
z
" id="DejaVuSans-44" transform="scale(0.015625)"/>
       <path d="M 3425 4513 
L 3425 3897 
Q 3066 4069 2747 4153 
Q 2428 4238 2131 4238 
Q 1616 4238 1336 4038 
Q 1056 3838 1056 3469 
Q 1056 3159 1242 3001 
Q 1428 2844 1947 2747 
L 2328 2669 
Q 3034 2534 3370 2195 
Q 3706 1856 3706 1288 
Q 3706 609 3251 259 
Q 2797 -91 1919 -91 
Q 1588 -91 1214 -16 
Q 841 59 441 206 
L 441 856 
Q 825 641 1194 531 
Q 1563 422 1919 422 
Q 2459 422 2753 634 
Q 3047 847 3047 1241 
Q 3047 1584 2836 1778 
Q 2625 1972 2144 2069 
L 1759 2144 
Q 1053 2284 737 2584 
Q 422 2884 422 3419 
Q 422 4038 858 4394 
Q 1294 4750 2059 4750 
Q 2388 4750 2728 4690 
Q 3069 4631 3425 4513 
z
" id="DejaVuSans-53" transform="scale(0.015625)"/>
       <path d="M 628 4666 
L 1259 4666 
L 1259 531 
L 3531 531 
L 3531 0 
L 628 0 
L 628 4666 
z
" id="DejaVuSans-4c" transform="scale(0.015625)"/>
       <path d="M 1259 4147 
L 1259 2394 
L 2053 2394 
Q 2494 2394 2734 2622 
Q 2975 2850 2975 3272 
Q 2975 3691 2734 3919 
Q 2494 4147 2053 4147 
L 1259 4147 
z
M 628 4666 
L 2053 4666 
Q 2838 4666 3239 4311 
Q 3641 3956 3641 3272 
Q 3641 2581 3239 2228 
Q 2838 1875 2053 1875 
L 1259 1875 
L 1259 0 
L 628 0 
L 628 4666 
z
" id="DejaVuSans-50" transform="scale(0.015625)"/>
       <path d="M 628 4666 
L 1259 4666 
L 1259 0 
L 628 0 
L 628 4666 
z
" id="DejaVuSans-49" transform="scale(0.015625)"/>
      </defs>
      <use xlink:href="#DejaVuSans-44"/>
      <use x="77.001953" xlink:href="#DejaVuSans-53"/>
      <use x="140.478516" xlink:href="#DejaVuSans-4c"/>
      <use x="196.191406" xlink:href="#DejaVuSans-50"/>
      <use x="256.494141" xlink:href="#DejaVuSans-49"/>
      <use x="285.986328" xlink:href="#DejaVuSans-44"/>
     </g>
    </g>
    <g id="line2d_30">
     <path d="M 462.49375 63.776562 
L 482.49375 63.776562 
" style="fill:none;stroke:#d62728;stroke-linecap:square;stroke-opacity:0.7;stroke-width:1.5;"/>
    </g>
    <g id="line2d_31"/>
    <g id="text_26">
     <!-- ANN -->
     <g transform="translate(490.49375 67.276562)scale(0.1 -0.1)">
      <defs>
       <path d="M 2188 4044 
L 1331 1722 
L 3047 1722 
L 2188 4044 
z
M 1831 4666 
L 2547 4666 
L 4325 0 
L 3669 0 
L 3244 1197 
L 1141 1197 
L 716 0 
L 50 0 
L 1831 4666 
z
" id="DejaVuSans-41" transform="scale(0.015625)"/>
       <path d="M 628 4666 
L 1478 4666 
L 3547 763 
L 3547 4666 
L 4159 4666 
L 4159 0 
L 3309 0 
L 1241 3903 
L 1241 0 
L 628 0 
L 628 4666 
z
" id="DejaVuSans-4e" transform="scale(0.015625)"/>
      </defs>
      <use xlink:href="#DejaVuSans-41"/>
      <use x="68.408203" xlink:href="#DejaVuSans-4e"/>
      <use x="143.212891" xlink:href="#DejaVuSans-4e"/>
     </g>
    </g>
    <g id="line2d_32">
     <path d="M 462.49375 78.454687 
L 482.49375 78.454687 
" style="fill:none;stroke:#000000;stroke-dasharray:5.55,2.4;stroke-dashoffset:0;stroke-opacity:0.595;stroke-width:1.5;"/>
    </g>
    <g id="line2d_33"/>
    <g id="text_27">
     <!-- Referencia -->
     <g transform="translate(490.49375 81.954687)scale(0.1 -0.1)">
      <defs>
       <path d="M 2841 2188 
Q 3044 2119 3236 1894 
Q 3428 1669 3622 1275 
L 4263 0 
L 3584 0 
L 2988 1197 
Q 2756 1666 2539 1819 
Q 2322 1972 1947 1972 
L 1259 1972 
L 1259 0 
L 628 0 
L 628 4666 
L 2053 4666 
Q 2853 4666 3247 4331 
Q 3641 3997 3641 3322 
Q 3641 2881 3436 2590 
Q 3231 2300 2841 2188 
z
M 1259 4147 
L 1259 2491 
L 2053 2491 
Q 2509 2491 2742 2702 
Q 2975 2913 2975 3322 
Q 2975 3731 2742 3939 
Q 2509 4147 2053 4147 
L 1259 4147 
z
" id="DejaVuSans-52" transform="scale(0.015625)"/>
       <path d="M 3597 1894 
L 3597 1613 
L 953 1613 
Q 991 1019 1311 708 
Q 1631 397 2203 397 
Q 2534 397 2845 478 
Q 3156 559 3463 722 
L 3463 178 
Q 3153 47 2828 -22 
Q 2503 -91 2169 -91 
Q 1331 -91 842 396 
Q 353 884 353 1716 
Q 353 2575 817 3079 
Q 1281 3584 2069 3584 
Q 2775 3584 3186 3129 
Q 3597 2675 3597 1894 
z
M 3022 2063 
Q 3016 2534 2758 2815 
Q 2500 3097 2075 3097 
Q 1594 3097 1305 2825 
Q 1016 2553 972 2059 
L 3022 2063 
z
" id="DejaVuSans-65" transform="scale(0.015625)"/>
       <path d="M 2375 4863 
L 2375 4384 
L 1825 4384 
Q 1516 4384 1395 4259 
Q 1275 4134 1275 3809 
L 1275 3500 
L 2222 3500 
L 2222 3053 
L 1275 3053 
L 1275 0 
L 697 0 
L 697 3053 
L 147 3053 
L 147 3500 
L 697 3500 
L 697 3744 
Q 697 4328 969 4595 
Q 1241 4863 1831 4863 
L 2375 4863 
z
" id="DejaVuSans-66" transform="scale(0.015625)"/>
       <path d="M 2631 2963 
Q 2534 3019 2420 3045 
Q 2306 3072 2169 3072 
Q 1681 3072 1420 2755 
Q 1159 2438 1159 1844 
L 1159 0 
L 581 0 
L 581 3500 
L 1159 3500 
L 1159 2956 
Q 1341 3275 1631 3429 
Q 1922 3584 2338 3584 
Q 2397 3584 2469 3576 
Q 2541 3569 2628 3553 
L 2631 2963 
z
" id="DejaVuSans-72" transform="scale(0.015625)"/>
       <path d="M 3513 2113 
L 3513 0 
L 2938 0 
L 2938 2094 
Q 2938 2591 2744 2837 
Q 2550 3084 2163 3084 
Q 1697 3084 1428 2787 
Q 1159 2491 1159 1978 
L 1159 0 
L 581 0 
L 581 3500 
L 1159 3500 
L 1159 2956 
Q 1366 3272 1645 3428 
Q 1925 3584 2291 3584 
Q 2894 3584 3203 3211 
Q 3513 2838 3513 2113 
z
" id="DejaVuSans-6e" transform="scale(0.015625)"/>
       <path d="M 3122 3366 
L 3122 2828 
Q 2878 2963 2633 3030 
Q 2388 3097 2138 3097 
Q 1578 3097 1268 2742 
Q 959 2388 959 1747 
Q 959 1106 1268 751 
Q 1578 397 2138 397 
Q 2388 397 2633 464 
Q 2878 531 3122 666 
L 3122 134 
Q 2881 22 2623 -34 
Q 2366 -91 2075 -91 
Q 1284 -91 818 406 
Q 353 903 353 1747 
Q 353 2603 823 3093 
Q 1294 3584 2113 3584 
Q 2378 3584 2631 3529 
Q 2884 3475 3122 3366 
z
" id="DejaVuSans-63" transform="scale(0.015625)"/>
       <path d="M 603 3500 
L 1178 3500 
L 1178 0 
L 603 0 
L 603 3500 
z
M 603 4863 
L 1178 4863 
L 1178 4134 
L 603 4134 
L 603 4863 
z
" id="DejaVuSans-69" transform="scale(0.015625)"/>
       <path d="M 2194 1759 
Q 1497 1759 1228 1600 
Q 959 1441 959 1056 
Q 959 750 1161 570 
Q 1363 391 1709 391 
Q 2188 391 2477 730 
Q 2766 1069 2766 1631 
L 2766 1759 
L 2194 1759 
z
M 3341 1997 
L 3341 0 
L 2766 0 
L 2766 531 
Q 2569 213 2275 61 
Q 1981 -91 1556 -91 
Q 1019 -91 701 211 
Q 384 513 384 1019 
Q 384 1609 779 1909 
Q 1175 2209 1959 2209 
L 2766 2209 
L 2766 2266 
Q 2766 2663 2505 2880 
Q 2244 3097 1772 3097 
Q 1472 3097 1187 3025 
Q 903 2953 641 2809 
L 641 3341 
Q 956 3463 1253 3523 
Q 1550 3584 1831 3584 
Q 2591 3584 2966 3190 
Q 3341 2797 3341 1997 
z
" id="DejaVuSans-61" transform="scale(0.015625)"/>
      </defs>
      <use xlink:href="#DejaVuSans-52"/>
      <use x="64.982422" xlink:href="#DejaVuSans-65"/>
      <use x="126.505859" xlink:href="#DejaVuSans-66"/>
      <use x="161.710938" xlink:href="#DejaVuSans-65"/>
      <use x="223.234375" xlink:href="#DejaVuSans-72"/>
      <use x="262.097656" xlink:href="#DejaVuSans-65"/>
      <use x="323.621094" xlink:href="#DejaVuSans-6e"/>
      <use x="387" xlink:href="#DejaVuSans-63"/>
      <use x="441.980469" xlink:href="#DejaVuSans-69"/>
      <use x="469.763672" xlink:href="#DejaVuSans-61"/>
     </g>
    </g>
   </g>
  </g>
  <g id="text_28">
   <!-- Vista 3D -->
   <g transform="translate(254.48625 23.6775)scale(0.16 -0.16)">
    <defs>
     <path d="M 1831 0 
L 50 4666 
L 709 4666 
L 2188 738 
L 3669 4666 
L 4325 4666 
L 2547 0 
L 1831 0 
z
" id="DejaVuSans-56" transform="scale(0.015625)"/>
     <path d="M 2834 3397 
L 2834 2853 
Q 2591 2978 2328 3040 
Q 2066 3103 1784 3103 
Q 1356 3103 1142 2972 
Q 928 2841 928 2578 
Q 928 2378 1081 2264 
Q 1234 2150 1697 2047 
L 1894 2003 
Q 2506 1872 2764 1633 
Q 3022 1394 3022 966 
Q 3022 478 2636 193 
Q 2250 -91 1575 -91 
Q 1294 -91 989 -36 
Q 684 19 347 128 
L 347 722 
Q 666 556 975 473 
Q 1284 391 1588 391 
Q 1994 391 2212 530 
Q 2431 669 2431 922 
Q 2431 1156 2273 1281 
Q 2116 1406 1581 1522 
L 1381 1569 
Q 847 1681 609 1914 
Q 372 2147 372 2553 
Q 372 3047 722 3315 
Q 1072 3584 1716 3584 
Q 2034 3584 2315 3537 
Q 2597 3491 2834 3397 
z
" id="DejaVuSans-73" transform="scale(0.015625)"/>
     <path d="M 1172 4494 
L 1172 3500 
L 2356 3500 
L 2356 3053 
L 1172 3053 
L 1172 1153 
Q 1172 725 1289 603 
Q 1406 481 1766 481 
L 2356 481 
L 2356 0 
L 1766 0 
Q 1100 0 847 248 
Q 594 497 594 1153 
L 594 3053 
L 172 3053 
L 172 3500 
L 594 3500 
L 594 4494 
L 1172 4494 
z
" id="DejaVuSans-74" transform="scale(0.015625)"/>
     <path d="M 2597 2516 
Q 3050 2419 3304 2112 
Q 3559 1806 3559 1356 
Q 3559 666 3084 287 
Q 2609 -91 1734 -91 
Q 1441 -91 1130 -33 
Q 819 25 488 141 
L 488 750 
Q 750 597 1062 519 
Q 1375 441 1716 441 
Q 2309 441 2620 675 
Q 2931 909 2931 1356 
Q 2931 1769 2642 2001 
Q 2353 2234 1838 2234 
L 1294 2234 
L 1294 2753 
L 1863 2753 
Q 2328 2753 2575 2939 
Q 2822 3125 2822 3475 
Q 2822 3834 2567 4026 
Q 2313 4219 1838 4219 
Q 1578 4219 1281 4162 
Q 984 4106 628 3988 
L 628 4550 
Q 988 4650 1302 4700 
Q 1616 4750 1894 4750 
Q 2613 4750 3031 4423 
Q 3450 4097 3450 3541 
Q 3450 3153 3228 2886 
Q 3006 2619 2597 2516 
z
" id="DejaVuSans-33" transform="scale(0.015625)"/>
    </defs>
    <use xlink:href="#DejaVuSans-56"/>
    <use x="66.158203" xlink:href="#DejaVuSans-69"/>
    <use x="93.941406" xlink:href="#DejaVuSans-73"/>
    <use x="146.041016" xlink:href="#DejaVuSans-74"/>
    <use x="185.25" xlink:href="#DejaVuSans-61"/>
    <use x="246.529297" xlink:href="#DejaVuSans-20"/>
    <use x="278.316406" xlink:href="#DejaVuSans-33"/>
    <use x="341.939453" xlink:href="#DejaVuSans-44"/>
   </g>
  </g>
 </g>
 <defs>
  <clipPath id="pf69c2cef17">
   <rect height="529.2" width="529.2" x="23.4" y="36"/>
  </clipPath>
 </defs>
</svg>
