<?xml version="1.0" encoding="utf-8" standalone="no"?>
<!DOCTYPE svg PUBLIC "-//W3C//DTD SVG 1.1//EN"
  "http://www.w3.org/Graphics/SVG/1.1/DTD/svg11.dtd">
<svg height="576pt" version="1.1" viewBox="0 0 576 576" width="576pt" xmlns="http://www.w3.org/2000/svg" xmlns:xlink="http://www.w3.org/1999/xlink">
 <metadata>
  <rdf:RDF xmlns:cc="http://creativecommons.org/ns#" xmlns:dc="http://purl.org/dc/elements/1.1/" xmlns:rdf="http://www.w3.org/1999/02/22-rdf-syntax-ns#">
   <cc:Work>
    <dc:type rdf:resource="http://purl.org/dc/dcmitype/StillImage"/>
    <dc:date>2022-02-26T04:08:46.789908</dc:date>
    <dc:format>image/svg+xml</dc:format>
    <dc:creator>
     <cc:Agent>
      <dc:title>Matplotlib v3.4.3, https://matplotlib.org/</dc:title>
     </cc:Agent>
    </dc:creator>
   </cc:Work>
  </rdf:RDF>
 </metadata>
 <defs>
  <style type="text/css">*{stroke-linecap:butt;stroke-linejoin:round;}</style>
 </defs>
 <g id="figure_1">
  <g id="patch_1">
   <path d="M 0 576 
L 576 576 
L 576 0 
L 0 0 
z
" style="fill:#ffffff;"/>
  </g>
  <g id="patch_2">
   <path d="M 23.4 565.2 
L 552.6 565.2 
L 552.6 36 
L 23.4 36 
z
" style="fill:#ffffff;"/>
  </g>
  <g id="pane3d_1">
   <g id="patch_3">
    <path d="M 63.358249 434.71624 
L 238.117372 288.229677 
L 235.688053 76.969868 
L 52.565805 210.604144 
" style="fill:#f2f2f2;opacity:0.5;stroke:#f2f2f2;stroke-linejoin:miter;"/>
   </g>
  </g>
  <g id="pane3d_2">
   <g id="patch_4">
    <path d="M 238.117372 288.229677 
L 518.54341 369.738455 
L 528.550827 151.202044 
L 235.688053 76.969868 
" style="fill:#e6e6e6;opacity:0.5;stroke:#e6e6e6;stroke-linejoin:miter;"/>
   </g>
  </g>
  <g id="pane3d_3">
   <g id="patch_5">
    <path d="M 63.358249 434.71624 
L 360.623546 531.803085 
L 518.54341 369.738455 
L 238.117372 288.229677 
" style="fill:#ececec;opacity:0.5;stroke:#ececec;stroke-linejoin:miter;"/>
   </g>
  </g>
  <g id="axis3d_1">
   <g id="line2d_1">
    <path d="M 63.358249 434.71624 
L 360.623546 531.803085 
" style="fill:none;stroke:#000000;stroke-linecap:square;stroke-width:0.8;"/>
   </g>
   <g id="text_1">
    <!-- x (m) -->
    <g transform="translate(178.329241 515.594496)rotate(-341.912962)scale(0.1 -0.1)">
     <defs>
      <path d="M 3513 3500 
L 2247 1797 
L 3578 0 
L 2900 0 
L 1881 1375 
L 863 0 
L 184 0 
L 1544 1831 
L 300 3500 
L 978 3500 
L 1906 2253 
L 2834 3500 
L 3513 3500 
z
" id="DejaVuSans-78" transform="scale(0.015625)"/>
      <path id="DejaVuSans-20" transform="scale(0.015625)"/>
      <path d="M 1984 4856 
Q 1566 4138 1362 3434 
Q 1159 2731 1159 2009 
Q 1159 1288 1364 580 
Q 1569 -128 1984 -844 
L 1484 -844 
Q 1016 -109 783 600 
Q 550 1309 550 2009 
Q 550 2706 781 3412 
Q 1013 4119 1484 4856 
L 1984 4856 
z
" id="DejaVuSans-28" transform="scale(0.015625)"/>
      <path d="M 3328 2828 
Q 3544 3216 3844 3400 
Q 4144 3584 4550 3584 
Q 5097 3584 5394 3201 
Q 5691 2819 5691 2113 
L 5691 0 
L 5113 0 
L 5113 2094 
Q 5113 2597 4934 2840 
Q 4756 3084 4391 3084 
Q 3944 3084 3684 2787 
Q 3425 2491 3425 1978 
L 3425 0 
L 2847 0 
L 2847 2094 
Q 2847 2600 2669 2842 
Q 2491 3084 2119 3084 
Q 1678 3084 1418 2786 
Q 1159 2488 1159 1978 
L 1159 0 
L 581 0 
L 581 3500 
L 1159 3500 
L 1159 2956 
Q 1356 3278 1631 3431 
Q 1906 3584 2284 3584 
Q 2666 3584 2933 3390 
Q 3200 3197 3328 2828 
z
" id="DejaVuSans-6d" transform="scale(0.015625)"/>
      <path d="M 513 4856 
L 1013 4856 
Q 1481 4119 1714 3412 
Q 1947 2706 1947 2009 
Q 1947 1309 1714 600 
Q 1481 -109 1013 -844 
L 513 -844 
Q 928 -128 1133 580 
Q 1338 1288 1338 2009 
Q 1338 2731 1133 3434 
Q 928 4138 513 4856 
z
" id="DejaVuSans-29" transform="scale(0.015625)"/>
     </defs>
     <use xlink:href="#DejaVuSans-78"/>
     <use x="59.179688" xlink:href="#DejaVuSans-20"/>
     <use x="90.966797" xlink:href="#DejaVuSans-28"/>
     <use x="129.980469" xlink:href="#DejaVuSans-6d"/>
     <use x="227.392578" xlink:href="#DejaVuSans-29"/>
    </g>
   </g>
   <g id="Line3DCollection_1">
    <path d="M 117.332063 452.344087 
L 289.217959 303.0826 
L 288.962852 90.473477 
" style="fill:none;stroke:#b0b0b0;stroke-width:0.8;"/>
    <path d="M 168.273846 468.981673 
L 337.372719 317.079288 
L 339.203988 103.20814 
" style="fill:none;stroke:#b0b0b0;stroke-width:0.8;"/>
    <path d="M 220.160609 485.92789 
L 386.345861 331.313847 
L 390.336325 116.168697 
" style="fill:none;stroke:#b0b0b0;stroke-width:0.8;"/>
    <path d="M 273.018893 503.191405 
L 436.158426 345.792393 
L 442.383788 129.361212 
" style="fill:none;stroke:#b0b0b0;stroke-width:0.8;"/>
    <path d="M 326.87624 520.781215 
L 486.832182 360.521253 
L 495.371166 142.791967 
" style="fill:none;stroke:#b0b0b0;stroke-width:0.8;"/>
   </g>
   <g id="xtick_1">
    <g id="line2d_2">
     <path d="M 118.82963 451.043637 
L 114.330461 454.950604 
" style="fill:none;stroke:#000000;stroke-linecap:square;stroke-width:0.8;"/>
    </g>
    <g id="text_2">
     <!-- −0.04 -->
     <g transform="translate(94.512621 475.748933)scale(0.1 -0.1)">
      <defs>
       <path d="M 678 2272 
L 4684 2272 
L 4684 1741 
L 678 1741 
L 678 2272 
z
" id="DejaVuSans-2212" transform="scale(0.015625)"/>
       <path d="M 2034 4250 
Q 1547 4250 1301 3770 
Q 1056 3291 1056 2328 
Q 1056 1369 1301 889 
Q 1547 409 2034 409 
Q 2525 409 2770 889 
Q 3016 1369 3016 2328 
Q 3016 3291 2770 3770 
Q 2525 4250 2034 4250 
z
M 2034 4750 
Q 2819 4750 3233 4129 
Q 3647 3509 3647 2328 
Q 3647 1150 3233 529 
Q 2819 -91 2034 -91 
Q 1250 -91 836 529 
Q 422 1150 422 2328 
Q 422 3509 836 4129 
Q 1250 4750 2034 4750 
z
" id="DejaVuSans-30" transform="scale(0.015625)"/>
       <path d="M 684 794 
L 1344 794 
L 1344 0 
L 684 0 
L 684 794 
z
" id="DejaVuSans-2e" transform="scale(0.015625)"/>
       <path d="M 2419 4116 
L 825 1625 
L 2419 1625 
L 2419 4116 
z
M 2253 4666 
L 3047 4666 
L 3047 1625 
L 3713 1625 
L 3713 1100 
L 3047 1100 
L 3047 0 
L 2419 0 
L 2419 1100 
L 313 1100 
L 313 1709 
L 2253 4666 
z
" id="DejaVuSans-34" transform="scale(0.015625)"/>
      </defs>
      <use xlink:href="#DejaVuSans-2212"/>
      <use x="83.789062" xlink:href="#DejaVuSans-30"/>
      <use x="147.412109" xlink:href="#DejaVuSans-2e"/>
      <use x="179.199219" xlink:href="#DejaVuSans-30"/>
      <use x="242.822266" xlink:href="#DejaVuSans-34"/>
     </g>
    </g>
   </g>
   <g id="xtick_2">
    <g id="line2d_3">
     <path d="M 169.748237 467.65722 
L 165.318637 471.636353 
" style="fill:none;stroke:#000000;stroke-linecap:square;stroke-width:0.8;"/>
    </g>
    <g id="text_3">
     <!-- −0.03 -->
     <g transform="translate(145.481929 492.563587)scale(0.1 -0.1)">
      <defs>
       <path d="M 2597 2516 
Q 3050 2419 3304 2112 
Q 3559 1806 3559 1356 
Q 3559 666 3084 287 
Q 2609 -91 1734 -91 
Q 1441 -91 1130 -33 
Q 819 25 488 141 
L 488 750 
Q 750 597 1062 519 
Q 1375 441 1716 441 
Q 2309 441 2620 675 
Q 2931 909 2931 1356 
Q 2931 1769 2642 2001 
Q 2353 2234 1838 2234 
L 1294 2234 
L 1294 2753 
L 1863 2753 
Q 2328 2753 2575 2939 
Q 2822 3125 2822 3475 
Q 2822 3834 2567 4026 
Q 2313 4219 1838 4219 
Q 1578 4219 1281 4162 
Q 984 4106 628 3988 
L 628 4550 
Q 988 4650 1302 4700 
Q 1616 4750 1894 4750 
Q 2613 4750 3031 4423 
Q 3450 4097 3450 3541 
Q 3450 3153 3228 2886 
Q 3006 2619 2597 2516 
z
" id="DejaVuSans-33" transform="scale(0.015625)"/>
      </defs>
      <use xlink:href="#DejaVuSans-2212"/>
      <use x="83.789062" xlink:href="#DejaVuSans-30"/>
      <use x="147.412109" xlink:href="#DejaVuSans-2e"/>
      <use x="179.199219" xlink:href="#DejaVuSans-30"/>
      <use x="242.822266" xlink:href="#DejaVuSans-33"/>
     </g>
    </g>
   </g>
   <g id="xtick_3">
    <g id="line2d_4">
     <path d="M 221.610704 484.578763 
L 217.25404 488.632079 
" style="fill:none;stroke:#000000;stroke-linecap:square;stroke-width:0.8;"/>
    </g>
    <g id="text_4">
     <!-- −0.02 -->
     <g transform="translate(197.398537 509.690752)scale(0.1 -0.1)">
      <defs>
       <path d="M 1228 531 
L 3431 531 
L 3431 0 
L 469 0 
L 469 531 
Q 828 903 1448 1529 
Q 2069 2156 2228 2338 
Q 2531 2678 2651 2914 
Q 2772 3150 2772 3378 
Q 2772 3750 2511 3984 
Q 2250 4219 1831 4219 
Q 1534 4219 1204 4116 
Q 875 4013 500 3803 
L 500 4441 
Q 881 4594 1212 4672 
Q 1544 4750 1819 4750 
Q 2544 4750 2975 4387 
Q 3406 4025 3406 3419 
Q 3406 3131 3298 2873 
Q 3191 2616 2906 2266 
Q 2828 2175 2409 1742 
Q 1991 1309 1228 531 
z
" id="DejaVuSans-32" transform="scale(0.015625)"/>
      </defs>
      <use xlink:href="#DejaVuSans-2212"/>
      <use x="83.789062" xlink:href="#DejaVuSans-30"/>
      <use x="147.412109" xlink:href="#DejaVuSans-2e"/>
      <use x="179.199219" xlink:href="#DejaVuSans-30"/>
      <use x="242.822266" xlink:href="#DejaVuSans-32"/>
     </g>
    </g>
   </g>
   <g id="xtick_4">
    <g id="line2d_5">
     <path d="M 274.443519 501.816908 
L 270.163314 505.946502 
" style="fill:none;stroke:#000000;stroke-linecap:square;stroke-width:0.8;"/>
    </g>
    <g id="text_5">
     <!-- −0.01 -->
     <g transform="translate(250.2891 527.139223)scale(0.1 -0.1)">
      <defs>
       <path d="M 794 531 
L 1825 531 
L 1825 4091 
L 703 3866 
L 703 4441 
L 1819 4666 
L 2450 4666 
L 2450 531 
L 3481 531 
L 3481 0 
L 794 0 
L 794 531 
z
" id="DejaVuSans-31" transform="scale(0.015625)"/>
      </defs>
      <use xlink:href="#DejaVuSans-2212"/>
      <use x="83.789062" xlink:href="#DejaVuSans-30"/>
      <use x="147.412109" xlink:href="#DejaVuSans-2e"/>
      <use x="179.199219" xlink:href="#DejaVuSans-30"/>
      <use x="242.822266" xlink:href="#DejaVuSans-31"/>
     </g>
    </g>
   </g>
   <g id="xtick_5">
    <g id="line2d_6">
     <path d="M 328.274171 519.380626 
L 324.07411 523.58867 
" style="fill:none;stroke:#000000;stroke-linecap:square;stroke-width:0.8;"/>
    </g>
    <g id="text_6">
     <!-- 0.00 -->
     <g transform="translate(308.37113 544.918127)scale(0.1 -0.1)">
      <use xlink:href="#DejaVuSans-30"/>
      <use x="63.623047" xlink:href="#DejaVuSans-2e"/>
      <use x="95.410156" xlink:href="#DejaVuSans-30"/>
      <use x="159.033203" xlink:href="#DejaVuSans-30"/>
     </g>
    </g>
   </g>
  </g>
  <g id="axis3d_2">
   <g id="line2d_7">
    <path d="M 518.54341 369.738455 
L 360.623546 531.803085 
" style="fill:none;stroke:#000000;stroke-linecap:square;stroke-width:0.8;"/>
   </g>
   <g id="text_7">
    <!-- y (m) -->
    <g transform="translate(462.753334 486.601399)rotate(-45.742112)scale(0.1 -0.1)">
     <defs>
      <path d="M 2059 -325 
Q 1816 -950 1584 -1140 
Q 1353 -1331 966 -1331 
L 506 -1331 
L 506 -850 
L 844 -850 
Q 1081 -850 1212 -737 
Q 1344 -625 1503 -206 
L 1606 56 
L 191 3500 
L 800 3500 
L 1894 763 
L 2988 3500 
L 3597 3500 
L 2059 -325 
z
" id="DejaVuSans-79" transform="scale(0.015625)"/>
     </defs>
     <use xlink:href="#DejaVuSans-79"/>
     <use x="59.179688" xlink:href="#DejaVuSans-20"/>
     <use x="90.966797" xlink:href="#DejaVuSans-28"/>
     <use x="129.980469" xlink:href="#DejaVuSans-6d"/>
     <use x="227.392578" xlink:href="#DejaVuSans-29"/>
    </g>
   </g>
   <g id="Line3DCollection_2">
    <path d="M 66.194143 200.658804 
L 76.318549 423.852659 
L 372.382993 519.735 
" style="fill:none;stroke:#b0b0b0;stroke-width:0.8;"/>
    <path d="M 88.105911 184.668593 
L 97.171579 406.373236 
L 391.287674 500.334146 
" style="fill:none;stroke:#b0b0b0;stroke-width:0.8;"/>
    <path d="M 109.572686 169.003119 
L 117.619479 389.233401 
L 409.805719 481.330077 
" style="fill:none;stroke:#b0b0b0;stroke-width:0.8;"/>
    <path d="M 130.607885 153.652589 
L 137.673941 372.423353 
L 427.948869 462.710741 
" style="fill:none;stroke:#b0b0b0;stroke-width:0.8;"/>
    <path d="M 151.224395 138.607599 
L 157.346214 355.933664 
L 445.728395 444.464574 
" style="fill:none;stroke:#b0b0b0;stroke-width:0.8;"/>
    <path d="M 171.434593 123.859117 
L 176.647118 339.755264 
L 463.155119 426.580468 
" style="fill:none;stroke:#b0b0b0;stroke-width:0.8;"/>
    <path d="M 191.250373 109.398463 
L 195.587071 323.879419 
L 480.23944 409.047752 
" style="fill:none;stroke:#b0b0b0;stroke-width:0.8;"/>
    <path d="M 210.68317 95.217293 
L 214.176106 308.297722 
L 496.991351 391.85617 
" style="fill:none;stroke:#b0b0b0;stroke-width:0.8;"/>
    <path d="M 229.74398 81.307582 
L 232.423885 293.002071 
L 513.42046 374.995863 
" style="fill:none;stroke:#b0b0b0;stroke-width:0.8;"/>
   </g>
   <g id="xtick_6">
    <g id="line2d_8">
     <path d="M 369.888107 518.927015 
L 377.379215 521.353058 
" style="fill:none;stroke:#000000;stroke-linecap:square;stroke-width:0.8;"/>
    </g>
    <g id="text_8">
     <!-- −0.030 -->
     <g transform="translate(366.75028 540.746373)scale(0.1 -0.1)">
      <use xlink:href="#DejaVuSans-2212"/>
      <use x="83.789062" xlink:href="#DejaVuSans-30"/>
      <use x="147.412109" xlink:href="#DejaVuSans-2e"/>
      <use x="179.199219" xlink:href="#DejaVuSans-30"/>
      <use x="242.822266" xlink:href="#DejaVuSans-33"/>
      <use x="306.445312" xlink:href="#DejaVuSans-30"/>
     </g>
    </g>
   </g>
   <g id="xtick_7">
    <g id="line2d_9">
     <path d="M 388.810502 499.542767 
L 396.248354 501.918929 
" style="fill:none;stroke:#000000;stroke-linecap:square;stroke-width:0.8;"/>
    </g>
    <g id="text_9">
     <!-- −0.025 -->
     <g transform="translate(385.52757 521.201124)scale(0.1 -0.1)">
      <defs>
       <path d="M 691 4666 
L 3169 4666 
L 3169 4134 
L 1269 4134 
L 1269 2991 
Q 1406 3038 1543 3061 
Q 1681 3084 1819 3084 
Q 2600 3084 3056 2656 
Q 3513 2228 3513 1497 
Q 3513 744 3044 326 
Q 2575 -91 1722 -91 
Q 1428 -91 1123 -41 
Q 819 9 494 109 
L 494 744 
Q 775 591 1075 516 
Q 1375 441 1709 441 
Q 2250 441 2565 725 
Q 2881 1009 2881 1497 
Q 2881 1984 2565 2268 
Q 2250 2553 1709 2553 
Q 1456 2553 1204 2497 
Q 953 2441 691 2322 
L 691 4666 
z
" id="DejaVuSans-35" transform="scale(0.015625)"/>
      </defs>
      <use xlink:href="#DejaVuSans-2212"/>
      <use x="83.789062" xlink:href="#DejaVuSans-30"/>
      <use x="147.412109" xlink:href="#DejaVuSans-2e"/>
      <use x="179.199219" xlink:href="#DejaVuSans-30"/>
      <use x="242.822266" xlink:href="#DejaVuSans-32"/>
      <use x="306.445312" xlink:href="#DejaVuSans-35"/>
     </g>
    </g>
   </g>
   <g id="xtick_8">
    <g id="line2d_10">
     <path d="M 407.346063 480.554797 
L 414.731259 482.8826 
" style="fill:none;stroke:#000000;stroke-linecap:square;stroke-width:0.8;"/>
    </g>
    <g id="text_10">
     <!-- −0.020 -->
     <g transform="translate(403.920717 502.055731)scale(0.1 -0.1)">
      <use xlink:href="#DejaVuSans-2212"/>
      <use x="83.789062" xlink:href="#DejaVuSans-30"/>
      <use x="147.412109" xlink:href="#DejaVuSans-2e"/>
      <use x="179.199219" xlink:href="#DejaVuSans-30"/>
      <use x="242.822266" xlink:href="#DejaVuSans-32"/>
      <use x="306.445312" xlink:href="#DejaVuSans-30"/>
     </g>
    </g>
   </g>
   <g id="xtick_9">
    <g id="line2d_11">
     <path d="M 425.506531 461.951074 
L 432.839667 464.23198 
" style="fill:none;stroke:#000000;stroke-linecap:square;stroke-width:0.8;"/>
    </g>
    <g id="text_11">
     <!-- −0.015 -->
     <g transform="translate(421.941389 483.298046)scale(0.1 -0.1)">
      <use xlink:href="#DejaVuSans-2212"/>
      <use x="83.789062" xlink:href="#DejaVuSans-30"/>
      <use x="147.412109" xlink:href="#DejaVuSans-2e"/>
      <use x="179.199219" xlink:href="#DejaVuSans-30"/>
      <use x="242.822266" xlink:href="#DejaVuSans-31"/>
      <use x="306.445312" xlink:href="#DejaVuSans-35"/>
     </g>
    </g>
   </g>
   <g id="xtick_10">
    <g id="line2d_12">
     <path d="M 443.303177 443.720053 
L 450.584847 445.955464 
" style="fill:none;stroke:#000000;stroke-linecap:square;stroke-width:0.8;"/>
    </g>
    <g id="text_12">
     <!-- −0.010 -->
     <g transform="translate(439.600787 464.91641)scale(0.1 -0.1)">
      <use xlink:href="#DejaVuSans-2212"/>
      <use x="83.789062" xlink:href="#DejaVuSans-30"/>
      <use x="147.412109" xlink:href="#DejaVuSans-2e"/>
      <use x="179.199219" xlink:href="#DejaVuSans-30"/>
      <use x="242.822266" xlink:href="#DejaVuSans-31"/>
      <use x="306.445312" xlink:href="#DejaVuSans-30"/>
     </g>
    </g>
   </g>
   <g id="xtick_11">
    <g id="line2d_13">
     <path d="M 460.746827 425.850644 
L 467.977619 428.041909 
" style="fill:none;stroke:#000000;stroke-linecap:square;stroke-width:0.8;"/>
    </g>
    <g id="text_13">
     <!-- −0.005 -->
     <g transform="translate(456.909667 446.899628)scale(0.1 -0.1)">
      <use xlink:href="#DejaVuSans-2212"/>
      <use x="83.789062" xlink:href="#DejaVuSans-30"/>
      <use x="147.412109" xlink:href="#DejaVuSans-2e"/>
      <use x="179.199219" xlink:href="#DejaVuSans-30"/>
      <use x="242.822266" xlink:href="#DejaVuSans-30"/>
      <use x="306.445312" xlink:href="#DejaVuSans-35"/>
     </g>
    </g>
   </g>
   <g id="xtick_12">
    <g id="line2d_14">
     <path d="M 477.84788 408.332194 
L 485.028377 410.480608 
" style="fill:none;stroke:#000000;stroke-linecap:square;stroke-width:0.8;"/>
    </g>
    <g id="text_14">
     <!-- 0.000 -->
     <g transform="translate(478.068207 429.236943)scale(0.1 -0.1)">
      <use xlink:href="#DejaVuSans-30"/>
      <use x="63.623047" xlink:href="#DejaVuSans-2e"/>
      <use x="95.410156" xlink:href="#DejaVuSans-30"/>
      <use x="159.033203" xlink:href="#DejaVuSans-30"/>
      <use x="222.65625" xlink:href="#DejaVuSans-30"/>
     </g>
    </g>
   </g>
   <g id="xtick_13">
    <g id="line2d_15">
     <path d="M 494.616331 391.154465 
L 501.747112 393.261272 
" style="fill:none;stroke:#000000;stroke-linecap:square;stroke-width:0.8;"/>
    </g>
    <g id="text_15">
     <!-- 0.005 -->
     <g transform="translate(494.706649 411.918017)scale(0.1 -0.1)">
      <use xlink:href="#DejaVuSans-30"/>
      <use x="63.623047" xlink:href="#DejaVuSans-2e"/>
      <use x="95.410156" xlink:href="#DejaVuSans-30"/>
      <use x="159.033203" xlink:href="#DejaVuSans-30"/>
      <use x="222.65625" xlink:href="#DejaVuSans-35"/>
     </g>
    </g>
   </g>
   <g id="xtick_14">
    <g id="line2d_16">
     <path d="M 511.061789 374.307611 
L 518.143428 376.374008 
" style="fill:none;stroke:#000000;stroke-linecap:square;stroke-width:0.8;"/>
    </g>
    <g id="text_16">
     <!-- 0.010 -->
     <g transform="translate(511.024388 394.932913)scale(0.1 -0.1)">
      <use xlink:href="#DejaVuSans-30"/>
      <use x="63.623047" xlink:href="#DejaVuSans-2e"/>
      <use x="95.410156" xlink:href="#DejaVuSans-30"/>
      <use x="159.033203" xlink:href="#DejaVuSans-31"/>
      <use x="222.65625" xlink:href="#DejaVuSans-30"/>
     </g>
    </g>
   </g>
  </g>
  <g id="axis3d_3">
   <g id="line2d_17">
    <path d="M 518.54341 369.738455 
L 528.550827 151.202044 
" style="fill:none;stroke:#000000;stroke-linecap:square;stroke-width:0.8;"/>
   </g>
   <g id="text_17">
    <!-- z (m) -->
    <g transform="translate(566.10943 270.534657)rotate(-87.378092)scale(0.1 -0.1)">
     <defs>
      <path d="M 353 3500 
L 3084 3500 
L 3084 2975 
L 922 459 
L 3084 459 
L 3084 0 
L 275 0 
L 275 525 
L 2438 3041 
L 353 3041 
L 353 3500 
z
" id="DejaVuSans-7a" transform="scale(0.015625)"/>
     </defs>
     <use xlink:href="#DejaVuSans-7a"/>
     <use x="52.490234" xlink:href="#DejaVuSans-20"/>
     <use x="84.277344" xlink:href="#DejaVuSans-28"/>
     <use x="123.291016" xlink:href="#DejaVuSans-6d"/>
     <use x="220.703125" xlink:href="#DejaVuSans-29"/>
    </g>
   </g>
   <g id="Line3DCollection_3">
    <path d="M 518.903073 361.884336 
L 238.029886 280.621608 
L 62.971003 426.674814 
" style="fill:none;stroke:#b0b0b0;stroke-width:0.8;"/>
    <path d="M 519.950819 339.004251 
L 237.775101 258.464888 
L 61.842635 403.243532 
" style="fill:none;stroke:#b0b0b0;stroke-width:0.8;"/>
    <path d="M 521.008423 315.908881 
L 237.518033 236.109626 
L 60.703247 379.583392 
" style="fill:none;stroke:#b0b0b0;stroke-width:0.8;"/>
    <path d="M 522.076025 292.595173 
L 237.258652 213.553143 
L 59.552675 355.691024 
" style="fill:none;stroke:#b0b0b0;stroke-width:0.8;"/>
    <path d="M 523.153768 269.060014 
L 236.996925 190.792708 
L 58.390755 331.562993 
" style="fill:none;stroke:#b0b0b0;stroke-width:0.8;"/>
    <path d="M 524.241798 245.300236 
L 236.732821 167.825544 
L 57.217317 307.195793 
" style="fill:none;stroke:#b0b0b0;stroke-width:0.8;"/>
    <path d="M 525.340261 221.312607 
L 236.466307 144.648821 
L 56.032189 282.585852 
" style="fill:none;stroke:#b0b0b0;stroke-width:0.8;"/>
    <path d="M 526.449309 197.093833 
L 236.19735 121.259657 
L 54.835197 257.729524 
" style="fill:none;stroke:#b0b0b0;stroke-width:0.8;"/>
    <path d="M 527.569095 172.640558 
L 235.925917 97.655119 
L 53.62616 232.623091 
" style="fill:none;stroke:#b0b0b0;stroke-width:0.8;"/>
   </g>
   <g id="xtick_15">
    <g id="line2d_18">
     <path d="M 516.545596 361.202266 
L 523.623644 363.250099 
" style="fill:none;stroke:#000000;stroke-linecap:square;stroke-width:0.8;"/>
    </g>
    <g id="text_18">
     <!-- 0.825 -->
     <g transform="translate(522.893727 366.881571)scale(0.1 -0.1)">
      <defs>
       <path d="M 2034 2216 
Q 1584 2216 1326 1975 
Q 1069 1734 1069 1313 
Q 1069 891 1326 650 
Q 1584 409 2034 409 
Q 2484 409 2743 651 
Q 3003 894 3003 1313 
Q 3003 1734 2745 1975 
Q 2488 2216 2034 2216 
z
M 1403 2484 
Q 997 2584 770 2862 
Q 544 3141 544 3541 
Q 544 4100 942 4425 
Q 1341 4750 2034 4750 
Q 2731 4750 3128 4425 
Q 3525 4100 3525 3541 
Q 3525 3141 3298 2862 
Q 3072 2584 2669 2484 
Q 3125 2378 3379 2068 
Q 3634 1759 3634 1313 
Q 3634 634 3220 271 
Q 2806 -91 2034 -91 
Q 1263 -91 848 271 
Q 434 634 434 1313 
Q 434 1759 690 2068 
Q 947 2378 1403 2484 
z
M 1172 3481 
Q 1172 3119 1398 2916 
Q 1625 2713 2034 2713 
Q 2441 2713 2670 2916 
Q 2900 3119 2900 3481 
Q 2900 3844 2670 4047 
Q 2441 4250 2034 4250 
Q 1625 4250 1398 4047 
Q 1172 3844 1172 3481 
z
" id="DejaVuSans-38" transform="scale(0.015625)"/>
      </defs>
      <use xlink:href="#DejaVuSans-30"/>
      <use x="63.623047" xlink:href="#DejaVuSans-2e"/>
      <use x="95.410156" xlink:href="#DejaVuSans-38"/>
      <use x="159.033203" xlink:href="#DejaVuSans-32"/>
      <use x="222.65625" xlink:href="#DejaVuSans-35"/>
     </g>
    </g>
   </g>
   <g id="xtick_16">
    <g id="line2d_19">
     <path d="M 517.581889 338.328105 
L 524.694347 340.358162 
" style="fill:none;stroke:#000000;stroke-linecap:square;stroke-width:0.8;"/>
    </g>
    <g id="text_19">
     <!-- 0.850 -->
     <g transform="translate(524.025464 344.02409)scale(0.1 -0.1)">
      <use xlink:href="#DejaVuSans-30"/>
      <use x="63.623047" xlink:href="#DejaVuSans-2e"/>
      <use x="95.410156" xlink:href="#DejaVuSans-38"/>
      <use x="159.033203" xlink:href="#DejaVuSans-35"/>
      <use x="222.65625" xlink:href="#DejaVuSans-30"/>
     </g>
    </g>
   </g>
   <g id="xtick_17">
    <g id="line2d_20">
     <path d="M 518.627929 315.2388 
L 525.775134 317.250655 
" style="fill:none;stroke:#000000;stroke-linecap:square;stroke-width:0.8;"/>
    </g>
    <g id="text_20">
     <!-- 0.875 -->
     <g transform="translate(525.167834 320.951863)scale(0.1 -0.1)">
      <defs>
       <path d="M 525 4666 
L 3525 4666 
L 3525 4397 
L 1831 0 
L 1172 0 
L 2766 4134 
L 525 4134 
L 525 4666 
z
" id="DejaVuSans-37" transform="scale(0.015625)"/>
      </defs>
      <use xlink:href="#DejaVuSans-30"/>
      <use x="63.623047" xlink:href="#DejaVuSans-2e"/>
      <use x="95.410156" xlink:href="#DejaVuSans-38"/>
      <use x="159.033203" xlink:href="#DejaVuSans-37"/>
      <use x="222.65625" xlink:href="#DejaVuSans-35"/>
     </g>
    </g>
   </g>
   <g id="xtick_18">
    <g id="line2d_21">
     <path d="M 519.683855 291.931302 
L 526.866146 293.924519 
" style="fill:none;stroke:#000000;stroke-linecap:square;stroke-width:0.8;"/>
    </g>
    <g id="text_21">
     <!-- 0.900 -->
     <g transform="translate(526.320987 297.661851)scale(0.1 -0.1)">
      <defs>
       <path d="M 703 97 
L 703 672 
Q 941 559 1184 500 
Q 1428 441 1663 441 
Q 2288 441 2617 861 
Q 2947 1281 2994 2138 
Q 2813 1869 2534 1725 
Q 2256 1581 1919 1581 
Q 1219 1581 811 2004 
Q 403 2428 403 3163 
Q 403 3881 828 4315 
Q 1253 4750 1959 4750 
Q 2769 4750 3195 4129 
Q 3622 3509 3622 2328 
Q 3622 1225 3098 567 
Q 2575 -91 1691 -91 
Q 1453 -91 1209 -44 
Q 966 3 703 97 
z
M 1959 2075 
Q 2384 2075 2632 2365 
Q 2881 2656 2881 3163 
Q 2881 3666 2632 3958 
Q 2384 4250 1959 4250 
Q 1534 4250 1286 3958 
Q 1038 3666 1038 3163 
Q 1038 2656 1286 2365 
Q 1534 2075 1959 2075 
z
" id="DejaVuSans-39" transform="scale(0.015625)"/>
      </defs>
      <use xlink:href="#DejaVuSans-30"/>
      <use x="63.623047" xlink:href="#DejaVuSans-2e"/>
      <use x="95.410156" xlink:href="#DejaVuSans-39"/>
      <use x="159.033203" xlink:href="#DejaVuSans-30"/>
      <use x="222.65625" xlink:href="#DejaVuSans-30"/>
     </g>
    </g>
   </g>
   <g id="xtick_19">
    <g id="line2d_22">
     <path d="M 520.749806 268.402502 
L 527.967529 270.376635 
" style="fill:none;stroke:#000000;stroke-linecap:square;stroke-width:0.8;"/>
    </g>
    <g id="text_22">
     <!-- 0.925 -->
     <g transform="translate(527.485077 274.150956)scale(0.1 -0.1)">
      <use xlink:href="#DejaVuSans-30"/>
      <use x="63.623047" xlink:href="#DejaVuSans-2e"/>
      <use x="95.410156" xlink:href="#DejaVuSans-39"/>
      <use x="159.033203" xlink:href="#DejaVuSans-32"/>
      <use x="222.65625" xlink:href="#DejaVuSans-35"/>
     </g>
    </g>
   </g>
   <g id="xtick_20">
    <g id="line2d_23">
     <path d="M 521.825926 244.649234 
L 529.079433 246.603828 
" style="fill:none;stroke:#000000;stroke-linecap:square;stroke-width:0.8;"/>
    </g>
    <g id="text_23">
     <!-- 0.950 -->
     <g transform="translate(528.66026 250.41602)scale(0.1 -0.1)">
      <use xlink:href="#DejaVuSans-30"/>
      <use x="63.623047" xlink:href="#DejaVuSans-2e"/>
      <use x="95.410156" xlink:href="#DejaVuSans-39"/>
      <use x="159.033203" xlink:href="#DejaVuSans-35"/>
      <use x="222.65625" xlink:href="#DejaVuSans-30"/>
     </g>
    </g>
   </g>
   <g id="xtick_21">
    <g id="line2d_24">
     <path d="M 522.912362 220.668271 
L 530.202009 222.602858 
" style="fill:none;stroke:#000000;stroke-linecap:square;stroke-width:0.8;"/>
    </g>
    <g id="text_24">
     <!-- 0.975 -->
     <g transform="translate(529.846695 226.453825)scale(0.1 -0.1)">
      <use xlink:href="#DejaVuSans-30"/>
      <use x="63.623047" xlink:href="#DejaVuSans-2e"/>
      <use x="95.410156" xlink:href="#DejaVuSans-39"/>
      <use x="159.033203" xlink:href="#DejaVuSans-37"/>
      <use x="222.65625" xlink:href="#DejaVuSans-35"/>
     </g>
    </g>
   </g>
   <g id="xtick_22">
    <g id="line2d_25">
     <path d="M 524.009263 196.456322 
L 531.33541 198.370426 
" style="fill:none;stroke:#000000;stroke-linecap:square;stroke-width:0.8;"/>
    </g>
    <g id="text_25">
     <!-- 1.000 -->
     <g transform="translate(531.044544 202.261092)scale(0.1 -0.1)">
      <use xlink:href="#DejaVuSans-31"/>
      <use x="63.623047" xlink:href="#DejaVuSans-2e"/>
      <use x="95.410156" xlink:href="#DejaVuSans-30"/>
      <use x="159.033203" xlink:href="#DejaVuSans-30"/>
      <use x="222.65625" xlink:href="#DejaVuSans-30"/>
     </g>
    </g>
   </g>
   <g id="xtick_23">
    <g id="line2d_26">
     <path d="M 525.11678 172.010034 
L 532.479795 173.903166 
" style="fill:none;stroke:#000000;stroke-linecap:square;stroke-width:0.8;"/>
    </g>
    <g id="text_26">
     <!-- 1.025 -->
     <g transform="translate(532.253974 177.834477)scale(0.1 -0.1)">
      <use xlink:href="#DejaVuSans-31"/>
      <use x="63.623047" xlink:href="#DejaVuSans-2e"/>
      <use x="95.410156" xlink:href="#DejaVuSans-30"/>
      <use x="159.033203" xlink:href="#DejaVuSans-32"/>
      <use x="222.65625" xlink:href="#DejaVuSans-35"/>
     </g>
    </g>
   </g>
  </g>
  <g id="axes_1">
   <g id="line2d_27">
    <path clip-path="url(#p02d3d0f2a6)" d="M 453.520657 224.927912 
L 453.526789 224.733418 
L 453.083924 236.365419 
L 452.681691 241.444348 
L 452.139481 245.487616 
L 451.283356 249.682775 
L 450.491451 252.538065 
L 449.499713 255.441032 
L 448.288754 258.37679 
L 446.846782 261.342138 
L 445.164783 264.335471 
L 443.232886 267.347014 
L 441.044887 270.377161 
L 438.591582 273.42092 
L 435.864558 276.476709 
L 432.856167 279.543878 
L 429.558625 282.61988 
L 425.967824 285.705552 
L 422.081955 288.79985 
L 417.902332 291.90252 
L 413.432319 295.013064 
L 408.676813 298.129991 
L 401.02031 302.814522 
L 392.751816 307.505811 
L 389.862769 309.070242 
L 386.865226 310.520762 
L 383.760189 311.857222 
L 380.549364 313.079324 
L 377.235164 314.186624 
L 370.325052 316.100443 
L 363.106131 317.731276 
L 355.616036 319.072008 
L 347.920663 320.206983 
L 340.074239 321.158356 
L 328.13174 322.284473 
L 316.125371 323.137825 
L 304.178615 323.774851 
L 288.514461 324.343228 
L 273.342126 324.662888 
L 258.87865 324.773598 
L 245.34589 324.685679 
L 232.937166 324.39862 
L 221.796399 323.91493 
L 212.035311 323.232173 
L 205.6803 322.584672 
L 200.196571 321.815294 
L 195.615957 320.920437 
L 193.074889 320.252972 
L 190.948206 319.528591 
L 189.23734 318.747269 
L 187.941693 317.909413 
L 187.059434 317.015523 
L 186.588033 316.065767 
L 186.523853 315.060749 
L 186.86239 314.001149 
L 187.598444 312.887335 
L 188.725153 311.720661 
L 190.234612 310.501998 
L 192.11726 309.233024 
L 195.61703 307.239217 
L 199.89098 305.142856 
L 204.894539 302.950916 
L 210.580299 300.671368 
L 219.137423 297.508857 
L 228.696978 294.224293 
L 241.857218 289.980646 
L 256.116196 285.62557 
L 274.306377 280.315884 
L 296.458826 274.102043 
L 322.185715 267.118477 
L 356.69332 257.998977 
L 456.890744 231.718545 
L 467.281407 228.699133 
L 472.609938 226.959245 
L 475.308429 225.878179 
L 476.231915 225.330876 
L 476.431098 225.013903 
L 476.29466 224.840285 
L 475.768015 224.686434 
L 474.332788 224.601837 
L 471.456378 224.710682 
L 465.804889 225.196924 
L 452.670505 226.633498 
L 445.413983 227.318617 
L 443.414321 227.329049 
L 443.160472 227.195743 
L 443.313487 227.044149 
L 444.091471 226.712311 
L 446.545149 225.977459 
L 452.237266 224.551803 
L 464.441299 221.766687 
L 471.123514 220.202538 
L 470.906905 220.210185 
L 468.074115 220.663165 
L 465.854133 221.008001 
L 467.379991 220.667507 
L 467.86956 220.570269 
L 461.757539 221.919874 
L 459.229437 222.526232 
L 459.229437 222.526232 
" style="fill:none;stroke:#1f77b4;stroke-linecap:square;stroke-opacity:0.7;stroke-width:1.5;"/>
   </g>
   <g id="line2d_28">
    <path clip-path="url(#p02d3d0f2a6)" d="M 453.520657 224.927912 
L 453.262328 229.966393 
L 452.966826 231.67813 
L 452.517011 233.046836 
L 451.879473 234.23524 
L 451.200107 235.411253 
L 448.624966 240.161906 
L 446.652533 243.321854 
L 444.512137 246.319302 
L 442.374902 248.951791 
L 439.894996 251.655761 
L 437.062598 254.384743 
L 433.876954 257.0918 
L 430.345013 259.740262 
L 426.481107 262.302122 
L 422.307447 264.756029 
L 417.852345 267.084763 
L 413.147379 269.273935 
L 408.226236 271.312771 
L 403.125104 273.193406 
L 397.883088 274.909662 
L 392.542132 276.455745 
L 386.065803 278.078649 
L 379.595161 279.439862 
L 373.21871 280.531755 
L 367.027467 281.348172 
L 361.1125 281.885189 
L 355.563758 282.14221 
L 350.46842 282.123042 
L 346.628168 281.90238 
L 343.204129 281.504156 
L 340.236416 280.939672 
L 337.759521 280.223741 
L 336.149982 279.552835 
L 334.882645 278.802377 
L 333.965098 277.978036 
L 333.509459 277.314213 
L 333.25428 276.612824 
L 333.199349 275.87606 
L 333.343353 275.106255 
L 333.684049 274.304849 
L 334.438265 273.1917 
L 335.525476 272.031952 
L 336.932108 270.83013 
L 339.113528 269.277582 
L 341.727422 267.683703 
L 345.369872 265.739452 
L 350.208172 263.441024 
L 357.13786 260.44532 
L 370.463834 255.02355 
L 380.329644 250.89098 
L 386.418082 248.112591 
L 391.250044 245.671487 
L 394.944919 243.575307 
L 398.177891 241.478804 
L 400.495656 239.733689 
L 402.459171 237.992189 
L 404.063968 236.255789 
L 405.311603 234.525604 
L 406.05709 233.146636 
L 406.584154 231.772925 
L 406.900226 230.405302 
L 407.01416 229.045016 
L 406.936133 227.694653 
L 406.5861 226.026592 
L 405.978492 224.389114 
L 405.13988 222.793733 
L 404.098528 221.254071 
L 402.622877 219.499016 
L 400.949802 217.864652 
L 398.817137 216.134229 
L 396.565795 214.614874 
L 394.273279 213.319165 
L 391.699317 212.114537 
L 388.991881 211.105392 
L 386.624006 210.448597 
L 384.724789 210.126847 
L 383.516457 210.105906 
L 382.874443 210.279131 
L 382.650774 210.559666 
L 382.70056 210.878802 
L 383.044718 211.355933 
L 383.831094 212.030696 
L 385.420163 213.066995 
L 388.158097 214.557243 
L 391.634659 216.207595 
L 395.679957 217.872143 
L 410.971333 223.932764 
L 413.751545 225.355165 
L 415.690322 226.591768 
L 416.897927 227.633084 
L 417.532689 228.481594 
L 417.764894 229.149654 
L 417.721326 229.776221 
L 417.401069 230.356154 
L 416.807629 230.884938 
L 415.948882 231.358651 
L 414.585274 231.849448 
L 412.570711 232.307628 
L 410.153178 232.634025 
L 406.982968 232.834364 
L 403.488081 232.841372 
L 399.322957 232.615756 
L 395.08324 232.153293 
L 390.937037 231.475879 
L 387.036237 230.611086 
L 383.515957 229.591559 
L 381.117518 228.690889 
L 379.067442 227.674997 
L 377.613046 226.699878 
L 376.62469 225.809027 
L 375.843403 224.845612 
L 375.268993 223.810164 
L 374.897989 222.704695 
L 374.724105 221.532164 
L 374.738583 220.296098 
L 374.988728 218.734723 
L 375.470318 217.095733 
L 376.287566 215.096545 
L 377.664388 212.408264 
L 379.873992 208.661912 
L 383.898067 201.872335 
L 385.356823 198.971309 
L 386.39319 196.446955 
L 387.052431 194.303255 
L 387.451453 192.237944 
L 387.572772 190.540693 
L 387.484641 188.91807 
L 387.187266 187.374936 
L 386.685968 185.91408 
L 385.990784 184.536041 
L 384.954229 183.030555 
L 383.703576 181.628795 
L 382.058841 180.140203 
L 380.00863 178.584846 
L 376.623399 176.342561 
L 369.11581 171.705516 
L 367.751993 171.074526 
L 367.607404 171.108097 
L 367.614589 171.155887 
L 367.864851 171.466222 
L 368.97683 172.392129 
L 372.360354 174.833544 
L 391.000123 188.012589 
L 397.890747 193.255723 
L 401.190647 196.01708 
L 403.391529 198.127615 
L 404.919338 199.89212 
L 405.892025 201.335087 
L 406.445364 202.483784 
L 406.753586 203.579782 
L 406.810255 204.620055 
L 406.612706 205.60268 
L 406.162084 206.527247 
L 405.463542 207.394642 
L 404.526099 208.206656 
L 403.10331 209.111267 
L 401.380524 209.943609 
L 399.033057 210.828118 
L 395.975569 211.731101 
L 392.173746 212.617123 
L 387.21706 213.524831 
L 381.283358 214.369965 
L 374.491495 215.112288 
L 367.804888 215.632672 
L 365.001555 215.683741 
L 363.983632 215.528587 
L 363.58763 215.296678 
L 363.497843 215.020436 
L 363.622228 214.664785 
L 364.142405 214.028505 
L 365.36034 212.967372 
L 368.515801 210.604938 
L 373.403123 206.892216 
L 376.224763 204.489661 
L 378.616017 202.175292 
L 380.513232 200.037733 
L 381.932383 198.136087 
L 383.081143 196.231951 
L 383.824729 194.616432 
L 384.329413 193.03131 
L 384.585653 191.489459 
L 384.589565 190.002225 
L 384.342707 188.579229 
L 383.852019 187.228125 
L 383.129697 185.954367 
L 382.192559 184.761024 
L 380.855466 183.470973 
L 379.292662 182.288001 
L 377.285848 181.060815 
L 374.829474 179.834828 
L 372.260412 178.786564 
L 369.681753 177.954375 
L 367.196686 177.387047 
L 365.146629 177.136683 
L 363.314443 177.143602 
L 361.936991 177.372821 
L 360.951821 177.740324 
L 360.166981 178.267098 
L 359.597796 178.951318 
L 359.29599 179.639778 
L 359.145745 180.605504 
L 359.227817 181.721228 
L 359.539651 182.983979 
L 360.186533 184.633278 
L 361.284941 186.730551 
L 362.745435 189.02892 
L 364.786795 191.818282 
L 367.494792 195.108817 
L 370.595267 198.5145 
L 373.657592 201.580028 
L 376.917563 204.512366 
L 380.304167 207.222765 
L 383.728004 209.684819 
L 387.810569 212.337877 
L 391.922105 214.753097 
L 395.733574 216.752698 
L 398.860039 218.159635 
L 400.799837 218.822819 
L 401.458514 218.876062 
L 401.445149 218.756437 
L 401.091917 218.47654 
L 399.913742 217.864923 
L 397.741721 216.992425 
L 395.196028 216.185818 
L 392.609926 215.597173 
L 390.421237 215.317479 
L 388.316457 215.25983 
L 386.050138 215.419628 
L 383.96582 215.795393 
L 382.599506 216.245675 
L 382.225726 216.525829 
L 382.232401 216.535796 
L 382.435598 216.55219 
L 383.170177 216.33927 
L 384.258254 215.8063 
L 385.489727 214.949023 
L 386.465799 214.015421 
L 387.203803 213.034269 
L 387.743828 211.954121 
L 388.024437 210.943019 
L 388.091112 209.912767 
L 387.947704 209.017294 
L 387.587165 208.146922 
L 386.98234 207.31917 
L 386.115592 206.549577 
L 384.981055 205.850276 
L 383.360636 205.145495 
L 381.41577 204.542542 
L 378.597129 203.921141 
L 374.489935 203.278156 
L 366.171374 202.035084 
L 363.720033 201.422763 
L 362.101104 200.819283 
L 360.955724 200.192063 
L 360.060123 199.450133 
L 359.516781 198.738746 
L 359.164311 197.940196 
L 359.00562 197.053457 
L 359.041044 196.079518 
L 359.337321 194.801318 
L 359.90579 193.414343 
L 360.74042 191.932336 
L 362.03925 190.105061 
L 363.669153 188.202618 
L 365.603677 186.26129 
L 368.144761 184.043126 
L 370.976413 181.874576 
L 374.019982 179.80483 
L 377.587915 177.655989 
L 381.184232 175.761931 
L 384.304716 174.346444 
L 387.268631 173.237633 
L 389.670915 172.564633 
L 391.546749 172.246011 
L 393.222755 172.197713 
L 394.449253 172.381006 
L 395.508435 172.778247 
L 396.228642 173.255098 
L 396.831375 173.876492 
L 397.313361 174.643157 
L 397.742254 175.803526 
L 397.975307 177.182808 
L 398.011168 178.770844 
L 397.850574 180.553577 
L 397.403418 182.925751 
L 396.69086 185.527312 
L 395.552471 188.825568 
L 393.900698 192.888441 
L 391.426114 198.293554 
L 386.984698 207.299491 
L 383.77697 213.990381 
L 381.93629 218.329647 
L 380.788089 221.532084 
L 379.879448 224.71283 
L 379.325876 227.36901 
L 378.970957 230.046247 
L 378.824717 232.749047 
L 378.893518 235.481186 
L 379.17937 238.245138 
L 379.680936 241.037001 
L 380.395542 243.841202 
L 381.319328 246.63477 
L 382.445918 249.390641 
L 383.19766 251.287124 
L 383.964098 253.970001 
L 385.018748 258.527797 
L 386.371547 265.415292 
L 387.400853 271.56311 
L 388.052626 276.440348 
L 388.505559 281.480993 
L 388.651263 284.928983 
L 388.635459 288.428622 
L 388.434278 291.988018 
L 388.022054 295.598912 
L 387.37949 299.262373 
L 386.489577 302.978018 
L 385.333342 306.733816 
L 383.900001 310.531864 
L 382.174195 314.360487 
L 380.14539 318.215408 
L 377.803824 322.093516 
L 375.136838 325.985826 
L 372.137324 329.893286 
L 368.794365 333.808915 
L 365.101368 337.732111 
L 361.054021 341.663543 
L 356.647832 345.600636 
L 351.882366 349.544777 
L 346.75662 353.493195 
L 341.272163 357.444763 
L 338.396367 359.421622 
L 335.388603 361.322859 
L 332.249502 363.148431 
L 328.980249 364.898179 
L 325.582584 366.571829 
L 318.426764 369.717683 
L 310.850589 372.667335 
L 302.884457 375.415242 
L 294.589778 378.010993 
L 286.017396 380.465614 
L 277.220319 382.782813 
L 263.741664 386.05057 
L 250.093685 389.057969 
L 236.462364 391.811077 
L 222.999062 394.306842 
L 209.824257 396.535861 
L 197.029362 398.507201 
L 184.700265 400.213361 
L 172.922076 401.65242 
L 161.78127 402.815723 
L 151.357149 403.692902 
L 141.703332 404.289266 
L 132.858255 404.603538 
L 124.843397 404.642286 
L 117.678854 404.408165 
L 111.386436 403.899935 
L 107.685104 403.411027 
L 104.384899 402.800487 
L 101.485166 402.073959 
L 98.984917 401.233178 
L 96.880702 400.280003 
L 95.164744 399.220474 
L 93.830948 398.055526 
L 92.870415 396.791763 
L 92.275956 395.432005 
L 92.040277 393.979262 
L 92.154079 392.440791 
L 92.609974 390.817668 
L 93.39591 389.119003 
L 94.500676 387.349271 
L 95.912294 385.512366 
L 97.616512 383.615551 
L 99.600381 381.661851 
L 103.069727 378.638119 
L 107.091511 375.514375 
L 111.620122 372.307602 
L 116.611267 369.030274 
L 123.907348 364.575335 
L 131.836554 360.053164 
L 140.289793 355.49582 
L 149.159726 350.932814 
L 160.67352 345.264065 
L 174.852441 338.581079 
L 189.115477 332.106445 
L 207.749926 323.91712 
L 229.618494 314.573523 
L 254.467764 304.210427 
L 275.751564 295.570216 
L 289.304453 290.287922 
L 298.20204 287.03266 
L 303.782439 285.203674 
L 307.444767 284.232943 
L 309.521761 283.909107 
L 310.730418 283.937935 
L 311.84508 284.216555 
L 313.298057 284.57809 
L 314.912746 284.727968 
L 317.893733 284.735203 
L 323.67682 284.486654 
L 344.573621 283.479659 
L 355.816808 283.208863 
L 365.832393 283.183994 
L 374.953136 283.374126 
L 382.887448 283.745326 
L 390.310018 284.31626 
L 396.292616 284.988453 
L 401.55007 285.806709 
L 405.46675 286.632196 
L 408.686566 287.547947 
L 410.864071 288.394323 
L 412.259177 289.135357 
L 413.272308 289.902001 
L 413.908474 290.687266 
L 414.152727 291.323911 
L 414.169803 291.963753 
L 413.969241 292.602661 
L 413.562355 293.236361 
L 412.783323 294.014511 
L 411.489175 294.916457 
L 409.853672 295.769994 
L 407.591352 296.686481 
L 404.657164 297.605494 
L 401.491351 298.362207 
L 398.238046 298.931814 
L 395.034419 299.292577 
L 392.003276 299.42979 
L 389.249502 299.335631 
L 387.135285 299.062562 
L 385.343708 298.616636 
L 384.09067 298.103785 
L 383.115147 297.478482 
L 382.427396 296.75021 
L 382.077835 296.072467 
L 381.931656 295.33789 
L 381.986182 294.554535 
L 382.309161 293.56227 
L 382.900744 292.5271 
L 383.907108 291.284645 
L 385.220037 290.026511 
L 387.039901 288.598952 
L 389.404121 287.046498 
L 392.281957 285.442036 
L 395.536518 283.891899 
L 398.888876 282.532439 
L 402.2857 281.393255 
L 404.488636 280.864981 
L 404.677363 280.887071 
L 404.608979 280.949765 
L 403.885942 281.242876 
L 401.649405 281.892379 
L 397.978369 282.720125 
L 393.783654 283.431076 
L 389.932962 283.868215 
L 386.436949 284.047663 
L 383.448152 283.978595 
L 381.007392 283.708192 
L 379.086282 283.294372 
L 377.428655 282.713293 
L 376.207043 282.068375 
L 375.204017 281.297742 
L 374.419782 280.402347 
L 373.850252 279.382807 
L 373.486135 278.235891 
L 373.312373 276.954492 
L 373.319545 275.318989 
L 373.575938 273.02102 
L 374.328427 268.82352 
L 375.215091 263.598341 
L 375.550503 260.343978 
L 375.619937 257.397522 
L 375.453972 254.764233 
L 375.063878 252.153361 
L 374.386885 249.28222 
L 373.398045 246.159683 
L 371.896305 242.228171 
L 368.729256 234.132035 
L 367.697767 230.757679 
L 367.059879 227.923388 
L 366.694887 225.359226 
L 366.56753 223.078546 
L 366.65818 220.808684 
L 366.941684 218.844633 
L 367.435783 216.915935 
L 368.154154 215.038038 
L 369.102372 213.224622 
L 370.276105 211.485668 
L 371.661729 209.830446 
L 373.238715 208.267624 
L 375.242929 206.603898 
L 377.422253 205.079907 
L 380.022505 203.5366 
L 382.994707 202.044455 
L 385.920837 200.828238 
L 388.396676 200.033222 
L 390.388776 199.63242 
L 391.714564 199.562935 
L 392.870804 199.715242 
L 393.690974 200.02187 
L 394.370831 200.496418 
L 394.902571 201.139091 
L 395.279832 201.945553 
L 395.497753 202.907126 
L 395.544901 204.247888 
L 395.358417 205.770107 
L 394.8553 207.753633 
L 394.065883 209.935428 
L 392.853497 212.623839 
L 390.970476 216.189107 
L 387.544726 222.061861 
L 384.929376 226.705395 
L 383.612749 229.505075 
L 382.834391 231.628239 
L 382.264373 233.82107 
L 381.92472 236.11078 
L 381.832095 238.510464 
L 381.994954 241.033427 
L 382.416658 243.681085 
L 383.09908 246.429593 
L 384.041471 249.2455 
L 385.239194 252.085855 
L 386.683546 254.895444 
L 388.361061 257.631719 
L 390.255669 260.251507 
L 392.347252 262.715466 
L 394.608151 264.997548 
L 397.000719 267.093723 
L 399.89702 269.311293 
L 403.242734 271.558559 
L 407.277544 273.968316 
L 414.878122 278.405569 
L 415.931571 279.315623 
L 416.313817 279.871401 
L 416.370192 280.334779 
L 416.174336 280.628408 
L 415.761862 280.843259 
L 414.942534 280.985792 
L 413.791857 280.966598 
L 411.990104 280.698286 
L 409.754074 280.133419 
L 407.114596 279.255146 
L 403.574666 277.83921 
L 399.01496 275.761882 
L 390.801752 271.718537 
L 362.596073 257.555576 
L 358.601139 255.257271 
L 355.7131 253.365242 
L 353.7354 251.823486 
L 352.463654 250.585437 
L 351.588858 249.427505 
L 351.163143 248.529406 
L 351.0105 247.698851 
L 351.126534 246.942671 
L 351.505302 246.267278 
L 352.139433 245.67841 
L 353.020208 245.181392 
L 354.388225 244.713695 
L 356.075433 244.395457 
L 358.056456 244.23622 
L 360.700926 244.258686 
L 363.658033 244.501159 
L 367.353281 245.023807 
L 371.81184 245.884697 
L 376.466576 247.001363 
L 381.706435 248.493132 
L 387.330048 250.316607 
L 392.088895 252.07953 
L 395.895028 253.730533 
L 398.76069 255.227762 
L 400.776474 256.543457 
L 402.085659 257.662278 
L 402.855173 258.580499 
L 403.316933 259.478981 
L 403.458566 260.179128 
L 403.395343 260.858957 
L 403.127392 261.515328 
L 402.656896 262.144821 
L 401.790555 262.888312 
L 400.627404 263.576505 
L 398.865641 264.317853 
L 396.741921 264.954683 
L 393.867751 265.55061 
L 390.644017 265.974439 
L 387.159895 266.215378 
L 383.509743 266.267886 
L 379.257354 266.092229 
L 375.570678 265.730442 
L 372.00878 265.172007 
L 368.654351 264.414607 
L 366.001881 263.605958 
L 363.599427 262.649569 
L 361.482232 261.546725 
L 359.956456 260.519743 
L 358.660952 259.403046 
L 357.604827 258.204388 
L 356.794568 256.924945 
L 356.233598 255.564012 
L 355.921774 254.121966 
L 355.855475 252.600736 
L 356.028055 251.003589 
L 356.430169 249.334913 
L 357.198905 247.245416 
L 358.256704 245.069801 
L 359.818451 242.435073 
L 361.972398 239.3143 
L 364.761506 235.688935 
L 370.240254 229.036186 
L 374.660432 223.542025 
L 377.436718 219.754225 
L 379.582414 216.433647 
L 381.147477 213.59141 
L 382.22509 211.227709 
L 383.040956 208.959965 
L 383.586307 206.821706 
L 383.858967 204.848636 
L 383.860955 203.073308 
L 383.659476 201.76395 
L 383.277825 200.621989 
L 382.72126 199.656007 
L 381.995909 198.870645 
L 381.108767 198.266813 
L 380.067848 197.842848 
L 378.882542 197.594977 
L 377.285483 197.522444 
L 375.520109 197.68475 
L 373.614247 198.069857 
L 371.255233 198.782453 
L 368.802269 199.755513 
L 366.313934 200.962543 
L 363.852074 202.376045 
L 361.480302 203.968186 
L 359.262145 205.710145 
L 357.259309 207.573079 
L 355.758716 209.243231 
L 354.493886 210.96158 
L 353.495002 212.70927 
L 352.884665 214.173273 
L 352.490249 215.629534 
L 352.322946 217.059373 
L 352.391702 218.440308 
L 352.702344 219.756331 
L 353.257277 220.998931 
L 354.055835 222.16103 
L 355.094222 223.236639 
L 356.365219 224.221598 
L 357.858222 225.113676 
L 359.923679 226.060104 
L 362.261099 226.870673 
L 364.837267 227.545732 
L 368.093253 228.164298 
L 371.552218 228.604672 
L 375.651495 228.896763 
L 379.781415 228.975581 
L 384.290162 228.830951 
L 388.45603 228.469044 
L 392.089711 227.924794 
L 394.745586 227.318659 
L 396.77274 226.628323 
L 397.984822 225.981123 
L 398.588062 225.41405 
L 398.779662 224.944763 
L 398.69087 224.488034 
L 398.327978 224.051195 
L 397.54382 223.561209 
L 396.399612 223.116539 
L 394.646677 222.670249 
L 391.811617 222.217356 
L 390.371119 222.049867 
L 390.371119 222.049867 
" style="fill:none;stroke:#d62728;stroke-linecap:square;stroke-opacity:0.7;stroke-width:1.5;"/>
   </g>
   <g id="line2d_29">
    <path clip-path="url(#p02d3d0f2a6)" d="M 453.525942 224.760279 
L 453.525942 224.760279 
" style="fill:none;stroke:#000000;stroke-dasharray:5.55,2.4;stroke-dashoffset:0;stroke-opacity:0.595;stroke-width:1.5;"/>
   </g>
   <g id="legend_1">
    <g id="patch_6">
     <path d="M 460.49375 88.034375 
L 545.6 88.034375 
Q 547.6 88.034375 547.6 86.034375 
L 547.6 43 
Q 547.6 41 545.6 41 
L 460.49375 41 
Q 458.49375 41 458.49375 43 
L 458.49375 86.034375 
Q 458.49375 88.034375 460.49375 88.034375 
z
" style="fill:#ffffff;opacity:0.8;stroke:#cccccc;stroke-linejoin:miter;"/>
    </g>
    <g id="line2d_30">
     <path d="M 462.49375 49.098437 
L 482.49375 49.098437 
" style="fill:none;stroke:#1f77b4;stroke-linecap:square;stroke-opacity:0.7;stroke-width:1.5;"/>
    </g>
    <g id="line2d_31"/>
    <g id="text_27">
     <!-- DSLPID -->
     <g transform="translate(490.49375 52.598437)scale(0.1 -0.1)">
      <defs>
       <path d="M 1259 4147 
L 1259 519 
L 2022 519 
Q 2988 519 3436 956 
Q 3884 1394 3884 2338 
Q 3884 3275 3436 3711 
Q 2988 4147 2022 4147 
L 1259 4147 
z
M 628 4666 
L 1925 4666 
Q 3281 4666 3915 4102 
Q 4550 3538 4550 2338 
Q 4550 1131 3912 565 
Q 3275 0 1925 0 
L 628 0 
L 628 4666 
z
" id="DejaVuSans-44" transform="scale(0.015625)"/>
       <path d="M 3425 4513 
L 3425 3897 
Q 3066 4069 2747 4153 
Q 2428 4238 2131 4238 
Q 1616 4238 1336 4038 
Q 1056 3838 1056 3469 
Q 1056 3159 1242 3001 
Q 1428 2844 1947 2747 
L 2328 2669 
Q 3034 2534 3370 2195 
Q 3706 1856 3706 1288 
Q 3706 609 3251 259 
Q 2797 -91 1919 -91 
Q 1588 -91 1214 -16 
Q 841 59 441 206 
L 441 856 
Q 825 641 1194 531 
Q 1563 422 1919 422 
Q 2459 422 2753 634 
Q 3047 847 3047 1241 
Q 3047 1584 2836 1778 
Q 2625 1972 2144 2069 
L 1759 2144 
Q 1053 2284 737 2584 
Q 422 2884 422 3419 
Q 422 4038 858 4394 
Q 1294 4750 2059 4750 
Q 2388 4750 2728 4690 
Q 3069 4631 3425 4513 
z
" id="DejaVuSans-53" transform="scale(0.015625)"/>
       <path d="M 628 4666 
L 1259 4666 
L 1259 531 
L 3531 531 
L 3531 0 
L 628 0 
L 628 4666 
z
" id="DejaVuSans-4c" transform="scale(0.015625)"/>
       <path d="M 1259 4147 
L 1259 2394 
L 2053 2394 
Q 2494 2394 2734 2622 
Q 2975 2850 2975 3272 
Q 2975 3691 2734 3919 
Q 2494 4147 2053 4147 
L 1259 4147 
z
M 628 4666 
L 2053 4666 
Q 2838 4666 3239 4311 
Q 3641 3956 3641 3272 
Q 3641 2581 3239 2228 
Q 2838 1875 2053 1875 
L 1259 1875 
L 1259 0 
L 628 0 
L 628 4666 
z
" id="DejaVuSans-50" transform="scale(0.015625)"/>
       <path d="M 628 4666 
L 1259 4666 
L 1259 0 
L 628 0 
L 628 4666 
z
" id="DejaVuSans-49" transform="scale(0.015625)"/>
      </defs>
      <use xlink:href="#DejaVuSans-44"/>
      <use x="77.001953" xlink:href="#DejaVuSans-53"/>
      <use x="140.478516" xlink:href="#DejaVuSans-4c"/>
      <use x="196.191406" xlink:href="#DejaVuSans-50"/>
      <use x="256.494141" xlink:href="#DejaVuSans-49"/>
      <use x="285.986328" xlink:href="#DejaVuSans-44"/>
     </g>
    </g>
    <g id="line2d_32">
     <path d="M 462.49375 63.776562 
L 482.49375 63.776562 
" style="fill:none;stroke:#d62728;stroke-linecap:square;stroke-opacity:0.7;stroke-width:1.5;"/>
    </g>
    <g id="line2d_33"/>
    <g id="text_28">
     <!-- CLSTM -->
     <g transform="translate(490.49375 67.276562)scale(0.1 -0.1)">
      <defs>
       <path d="M 4122 4306 
L 4122 3641 
Q 3803 3938 3442 4084 
Q 3081 4231 2675 4231 
Q 1875 4231 1450 3742 
Q 1025 3253 1025 2328 
Q 1025 1406 1450 917 
Q 1875 428 2675 428 
Q 3081 428 3442 575 
Q 3803 722 4122 1019 
L 4122 359 
Q 3791 134 3420 21 
Q 3050 -91 2638 -91 
Q 1578 -91 968 557 
Q 359 1206 359 2328 
Q 359 3453 968 4101 
Q 1578 4750 2638 4750 
Q 3056 4750 3426 4639 
Q 3797 4528 4122 4306 
z
" id="DejaVuSans-43" transform="scale(0.015625)"/>
       <path d="M -19 4666 
L 3928 4666 
L 3928 4134 
L 2272 4134 
L 2272 0 
L 1638 0 
L 1638 4134 
L -19 4134 
L -19 4666 
z
" id="DejaVuSans-54" transform="scale(0.015625)"/>
       <path d="M 628 4666 
L 1569 4666 
L 2759 1491 
L 3956 4666 
L 4897 4666 
L 4897 0 
L 4281 0 
L 4281 4097 
L 3078 897 
L 2444 897 
L 1241 4097 
L 1241 0 
L 628 0 
L 628 4666 
z
" id="DejaVuSans-4d" transform="scale(0.015625)"/>
      </defs>
      <use xlink:href="#DejaVuSans-43"/>
      <use x="69.824219" xlink:href="#DejaVuSans-4c"/>
      <use x="125.537109" xlink:href="#DejaVuSans-53"/>
      <use x="189.013672" xlink:href="#DejaVuSans-54"/>
      <use x="250.097656" xlink:href="#DejaVuSans-4d"/>
     </g>
    </g>
    <g id="line2d_34">
     <path d="M 462.49375 78.454687 
L 482.49375 78.454687 
" style="fill:none;stroke:#000000;stroke-dasharray:5.55,2.4;stroke-dashoffset:0;stroke-opacity:0.595;stroke-width:1.5;"/>
    </g>
    <g id="line2d_35"/>
    <g id="text_29">
     <!-- Referencia -->
     <g transform="translate(490.49375 81.954687)scale(0.1 -0.1)">
      <defs>
       <path d="M 2841 2188 
Q 3044 2119 3236 1894 
Q 3428 1669 3622 1275 
L 4263 0 
L 3584 0 
L 2988 1197 
Q 2756 1666 2539 1819 
Q 2322 1972 1947 1972 
L 1259 1972 
L 1259 0 
L 628 0 
L 628 4666 
L 2053 4666 
Q 2853 4666 3247 4331 
Q 3641 3997 3641 3322 
Q 3641 2881 3436 2590 
Q 3231 2300 2841 2188 
z
M 1259 4147 
L 1259 2491 
L 2053 2491 
Q 2509 2491 2742 2702 
Q 2975 2913 2975 3322 
Q 2975 3731 2742 3939 
Q 2509 4147 2053 4147 
L 1259 4147 
z
" id="DejaVuSans-52" transform="scale(0.015625)"/>
       <path d="M 3597 1894 
L 3597 1613 
L 953 1613 
Q 991 1019 1311 708 
Q 1631 397 2203 397 
Q 2534 397 2845 478 
Q 3156 559 3463 722 
L 3463 178 
Q 3153 47 2828 -22 
Q 2503 -91 2169 -91 
Q 1331 -91 842 396 
Q 353 884 353 1716 
Q 353 2575 817 3079 
Q 1281 3584 2069 3584 
Q 2775 3584 3186 3129 
Q 3597 2675 3597 1894 
z
M 3022 2063 
Q 3016 2534 2758 2815 
Q 2500 3097 2075 3097 
Q 1594 3097 1305 2825 
Q 1016 2553 972 2059 
L 3022 2063 
z
" id="DejaVuSans-65" transform="scale(0.015625)"/>
       <path d="M 2375 4863 
L 2375 4384 
L 1825 4384 
Q 1516 4384 1395 4259 
Q 1275 4134 1275 3809 
L 1275 3500 
L 2222 3500 
L 2222 3053 
L 1275 3053 
L 1275 0 
L 697 0 
L 697 3053 
L 147 3053 
L 147 3500 
L 697 3500 
L 697 3744 
Q 697 4328 969 4595 
Q 1241 4863 1831 4863 
L 2375 4863 
z
" id="DejaVuSans-66" transform="scale(0.015625)"/>
       <path d="M 2631 2963 
Q 2534 3019 2420 3045 
Q 2306 3072 2169 3072 
Q 1681 3072 1420 2755 
Q 1159 2438 1159 1844 
L 1159 0 
L 581 0 
L 581 3500 
L 1159 3500 
L 1159 2956 
Q 1341 3275 1631 3429 
Q 1922 3584 2338 3584 
Q 2397 3584 2469 3576 
Q 2541 3569 2628 3553 
L 2631 2963 
z
" id="DejaVuSans-72" transform="scale(0.015625)"/>
       <path d="M 3513 2113 
L 3513 0 
L 2938 0 
L 2938 2094 
Q 2938 2591 2744 2837 
Q 2550 3084 2163 3084 
Q 1697 3084 1428 2787 
Q 1159 2491 1159 1978 
L 1159 0 
L 581 0 
L 581 3500 
L 1159 3500 
L 1159 2956 
Q 1366 3272 1645 3428 
Q 1925 3584 2291 3584 
Q 2894 3584 3203 3211 
Q 3513 2838 3513 2113 
z
" id="DejaVuSans-6e" transform="scale(0.015625)"/>
       <path d="M 3122 3366 
L 3122 2828 
Q 2878 2963 2633 3030 
Q 2388 3097 2138 3097 
Q 1578 3097 1268 2742 
Q 959 2388 959 1747 
Q 959 1106 1268 751 
Q 1578 397 2138 397 
Q 2388 397 2633 464 
Q 2878 531 3122 666 
L 3122 134 
Q 2881 22 2623 -34 
Q 2366 -91 2075 -91 
Q 1284 -91 818 406 
Q 353 903 353 1747 
Q 353 2603 823 3093 
Q 1294 3584 2113 3584 
Q 2378 3584 2631 3529 
Q 2884 3475 3122 3366 
z
" id="DejaVuSans-63" transform="scale(0.015625)"/>
       <path d="M 603 3500 
L 1178 3500 
L 1178 0 
L 603 0 
L 603 3500 
z
M 603 4863 
L 1178 4863 
L 1178 4134 
L 603 4134 
L 603 4863 
z
" id="DejaVuSans-69" transform="scale(0.015625)"/>
       <path d="M 2194 1759 
Q 1497 1759 1228 1600 
Q 959 1441 959 1056 
Q 959 750 1161 570 
Q 1363 391 1709 391 
Q 2188 391 2477 730 
Q 2766 1069 2766 1631 
L 2766 1759 
L 2194 1759 
z
M 3341 1997 
L 3341 0 
L 2766 0 
L 2766 531 
Q 2569 213 2275 61 
Q 1981 -91 1556 -91 
Q 1019 -91 701 211 
Q 384 513 384 1019 
Q 384 1609 779 1909 
Q 1175 2209 1959 2209 
L 2766 2209 
L 2766 2266 
Q 2766 2663 2505 2880 
Q 2244 3097 1772 3097 
Q 1472 3097 1187 3025 
Q 903 2953 641 2809 
L 641 3341 
Q 956 3463 1253 3523 
Q 1550 3584 1831 3584 
Q 2591 3584 2966 3190 
Q 3341 2797 3341 1997 
z
" id="DejaVuSans-61" transform="scale(0.015625)"/>
      </defs>
      <use xlink:href="#DejaVuSans-52"/>
      <use x="64.982422" xlink:href="#DejaVuSans-65"/>
      <use x="126.505859" xlink:href="#DejaVuSans-66"/>
      <use x="161.710938" xlink:href="#DejaVuSans-65"/>
      <use x="223.234375" xlink:href="#DejaVuSans-72"/>
      <use x="262.097656" xlink:href="#DejaVuSans-65"/>
      <use x="323.621094" xlink:href="#DejaVuSans-6e"/>
      <use x="387" xlink:href="#DejaVuSans-63"/>
      <use x="441.980469" xlink:href="#DejaVuSans-69"/>
      <use x="469.763672" xlink:href="#DejaVuSans-61"/>
     </g>
    </g>
   </g>
  </g>
  <g id="text_30">
   <!-- Vista 3D -->
   <g transform="translate(254.48625 23.6775)scale(0.16 -0.16)">
    <defs>
     <path d="M 1831 0 
L 50 4666 
L 709 4666 
L 2188 738 
L 3669 4666 
L 4325 4666 
L 2547 0 
L 1831 0 
z
" id="DejaVuSans-56" transform="scale(0.015625)"/>
     <path d="M 2834 3397 
L 2834 2853 
Q 2591 2978 2328 3040 
Q 2066 3103 1784 3103 
Q 1356 3103 1142 2972 
Q 928 2841 928 2578 
Q 928 2378 1081 2264 
Q 1234 2150 1697 2047 
L 1894 2003 
Q 2506 1872 2764 1633 
Q 3022 1394 3022 966 
Q 3022 478 2636 193 
Q 2250 -91 1575 -91 
Q 1294 -91 989 -36 
Q 684 19 347 128 
L 347 722 
Q 666 556 975 473 
Q 1284 391 1588 391 
Q 1994 391 2212 530 
Q 2431 669 2431 922 
Q 2431 1156 2273 1281 
Q 2116 1406 1581 1522 
L 1381 1569 
Q 847 1681 609 1914 
Q 372 2147 372 2553 
Q 372 3047 722 3315 
Q 1072 3584 1716 3584 
Q 2034 3584 2315 3537 
Q 2597 3491 2834 3397 
z
" id="DejaVuSans-73" transform="scale(0.015625)"/>
     <path d="M 1172 4494 
L 1172 3500 
L 2356 3500 
L 2356 3053 
L 1172 3053 
L 1172 1153 
Q 1172 725 1289 603 
Q 1406 481 1766 481 
L 2356 481 
L 2356 0 
L 1766 0 
Q 1100 0 847 248 
Q 594 497 594 1153 
L 594 3053 
L 172 3053 
L 172 3500 
L 594 3500 
L 594 4494 
L 1172 4494 
z
" id="DejaVuSans-74" transform="scale(0.015625)"/>
    </defs>
    <use xlink:href="#DejaVuSans-56"/>
    <use x="66.158203" xlink:href="#DejaVuSans-69"/>
    <use x="93.941406" xlink:href="#DejaVuSans-73"/>
    <use x="146.041016" xlink:href="#DejaVuSans-74"/>
    <use x="185.25" xlink:href="#DejaVuSans-61"/>
    <use x="246.529297" xlink:href="#DejaVuSans-20"/>
    <use x="278.316406" xlink:href="#DejaVuSans-33"/>
    <use x="341.939453" xlink:href="#DejaVuSans-44"/>
   </g>
  </g>
 </g>
 <defs>
  <clipPath id="p02d3d0f2a6">
   <rect height="529.2" width="529.2" x="23.4" y="36"/>
  </clipPath>
 </defs>
</svg>
