<?xml version="1.0" encoding="utf-8" standalone="no"?>
<!DOCTYPE svg PUBLIC "-//W3C//DTD SVG 1.1//EN"
  "http://www.w3.org/Graphics/SVG/1.1/DTD/svg11.dtd">
<svg height="576pt" version="1.1" viewBox="0 0 576 576" width="576pt" xmlns="http://www.w3.org/2000/svg" xmlns:xlink="http://www.w3.org/1999/xlink">
 <metadata>
  <rdf:RDF xmlns:cc="http://creativecommons.org/ns#" xmlns:dc="http://purl.org/dc/elements/1.1/" xmlns:rdf="http://www.w3.org/1999/02/22-rdf-syntax-ns#">
   <cc:Work>
    <dc:type rdf:resource="http://purl.org/dc/dcmitype/StillImage"/>
    <dc:date>2022-02-28T02:48:12.252710</dc:date>
    <dc:format>image/svg+xml</dc:format>
    <dc:creator>
     <cc:Agent>
      <dc:title>Matplotlib v3.4.3, https://matplotlib.org/</dc:title>
     </cc:Agent>
    </dc:creator>
   </cc:Work>
  </rdf:RDF>
 </metadata>
 <defs>
  <style type="text/css">*{stroke-linecap:butt;stroke-linejoin:round;}</style>
 </defs>
 <g id="figure_1">
  <g id="patch_1">
   <path d="M 0 576 
L 576 576 
L 576 0 
L 0 0 
z
" style="fill:#ffffff;"/>
  </g>
  <g id="axes_1">
   <g id="patch_2">
    <path d="M 81.74 251.44 
L 255.51 251.44 
L 255.51 39.6 
L 81.74 39.6 
z
" style="fill:#ffffff;"/>
   </g>
   <g id="matplotlib.axis_1">
    <g id="xtick_1">
     <g id="line2d_1">
      <path clip-path="url(#p50934b59cc)" d="M 89.638636 251.44 
L 89.638636 39.6 
" style="fill:none;stroke:#b0b0b0;stroke-linecap:square;stroke-width:0.8;"/>
     </g>
     <g id="line2d_2">
      <defs>
       <path d="M 0 0 
L 0 3.5 
" id="m260edf9fcf" style="stroke:#000000;stroke-width:0.8;"/>
      </defs>
      <g>
       <use style="stroke:#000000;stroke-width:0.8;" x="89.638636" xlink:href="#m260edf9fcf" y="251.44"/>
      </g>
     </g>
     <g id="text_1">
      <!-- 0 -->
      <g transform="translate(86.457386 266.038438)scale(0.1 -0.1)">
       <defs>
        <path d="M 2034 4250 
Q 1547 4250 1301 3770 
Q 1056 3291 1056 2328 
Q 1056 1369 1301 889 
Q 1547 409 2034 409 
Q 2525 409 2770 889 
Q 3016 1369 3016 2328 
Q 3016 3291 2770 3770 
Q 2525 4250 2034 4250 
z
M 2034 4750 
Q 2819 4750 3233 4129 
Q 3647 3509 3647 2328 
Q 3647 1150 3233 529 
Q 2819 -91 2034 -91 
Q 1250 -91 836 529 
Q 422 1150 422 2328 
Q 422 3509 836 4129 
Q 1250 4750 2034 4750 
z
" id="DejaVuSans-30" transform="scale(0.015625)"/>
       </defs>
       <use xlink:href="#DejaVuSans-30"/>
      </g>
     </g>
    </g>
    <g id="xtick_2">
     <g id="line2d_3">
      <path clip-path="url(#p50934b59cc)" d="M 142.303527 251.44 
L 142.303527 39.6 
" style="fill:none;stroke:#b0b0b0;stroke-linecap:square;stroke-width:0.8;"/>
     </g>
     <g id="line2d_4">
      <g>
       <use style="stroke:#000000;stroke-width:0.8;" x="142.303527" xlink:href="#m260edf9fcf" y="251.44"/>
      </g>
     </g>
     <g id="text_2">
      <!-- 10 -->
      <g transform="translate(135.941027 266.038438)scale(0.1 -0.1)">
       <defs>
        <path d="M 794 531 
L 1825 531 
L 1825 4091 
L 703 3866 
L 703 4441 
L 1819 4666 
L 2450 4666 
L 2450 531 
L 3481 531 
L 3481 0 
L 794 0 
L 794 531 
z
" id="DejaVuSans-31" transform="scale(0.015625)"/>
       </defs>
       <use xlink:href="#DejaVuSans-31"/>
       <use x="63.623047" xlink:href="#DejaVuSans-30"/>
      </g>
     </g>
    </g>
    <g id="xtick_3">
     <g id="line2d_5">
      <path clip-path="url(#p50934b59cc)" d="M 194.968417 251.44 
L 194.968417 39.6 
" style="fill:none;stroke:#b0b0b0;stroke-linecap:square;stroke-width:0.8;"/>
     </g>
     <g id="line2d_6">
      <g>
       <use style="stroke:#000000;stroke-width:0.8;" x="194.968417" xlink:href="#m260edf9fcf" y="251.44"/>
      </g>
     </g>
     <g id="text_3">
      <!-- 20 -->
      <g transform="translate(188.605917 266.038438)scale(0.1 -0.1)">
       <defs>
        <path d="M 1228 531 
L 3431 531 
L 3431 0 
L 469 0 
L 469 531 
Q 828 903 1448 1529 
Q 2069 2156 2228 2338 
Q 2531 2678 2651 2914 
Q 2772 3150 2772 3378 
Q 2772 3750 2511 3984 
Q 2250 4219 1831 4219 
Q 1534 4219 1204 4116 
Q 875 4013 500 3803 
L 500 4441 
Q 881 4594 1212 4672 
Q 1544 4750 1819 4750 
Q 2544 4750 2975 4387 
Q 3406 4025 3406 3419 
Q 3406 3131 3298 2873 
Q 3191 2616 2906 2266 
Q 2828 2175 2409 1742 
Q 1991 1309 1228 531 
z
" id="DejaVuSans-32" transform="scale(0.015625)"/>
       </defs>
       <use xlink:href="#DejaVuSans-32"/>
       <use x="63.623047" xlink:href="#DejaVuSans-30"/>
      </g>
     </g>
    </g>
    <g id="xtick_4">
     <g id="line2d_7">
      <path clip-path="url(#p50934b59cc)" d="M 247.633307 251.44 
L 247.633307 39.6 
" style="fill:none;stroke:#b0b0b0;stroke-linecap:square;stroke-width:0.8;"/>
     </g>
     <g id="line2d_8">
      <g>
       <use style="stroke:#000000;stroke-width:0.8;" x="247.633307" xlink:href="#m260edf9fcf" y="251.44"/>
      </g>
     </g>
     <g id="text_4">
      <!-- 30 -->
      <g transform="translate(241.270807 266.038438)scale(0.1 -0.1)">
       <defs>
        <path d="M 2597 2516 
Q 3050 2419 3304 2112 
Q 3559 1806 3559 1356 
Q 3559 666 3084 287 
Q 2609 -91 1734 -91 
Q 1441 -91 1130 -33 
Q 819 25 488 141 
L 488 750 
Q 750 597 1062 519 
Q 1375 441 1716 441 
Q 2309 441 2620 675 
Q 2931 909 2931 1356 
Q 2931 1769 2642 2001 
Q 2353 2234 1838 2234 
L 1294 2234 
L 1294 2753 
L 1863 2753 
Q 2328 2753 2575 2939 
Q 2822 3125 2822 3475 
Q 2822 3834 2567 4026 
Q 2313 4219 1838 4219 
Q 1578 4219 1281 4162 
Q 984 4106 628 3988 
L 628 4550 
Q 988 4650 1302 4700 
Q 1616 4750 1894 4750 
Q 2613 4750 3031 4423 
Q 3450 4097 3450 3541 
Q 3450 3153 3228 2886 
Q 3006 2619 2597 2516 
z
" id="DejaVuSans-33" transform="scale(0.015625)"/>
       </defs>
       <use xlink:href="#DejaVuSans-33"/>
       <use x="63.623047" xlink:href="#DejaVuSans-30"/>
      </g>
     </g>
    </g>
    <g id="text_5">
     <!-- Tiempo (s) -->
     <g transform="translate(142.0625 279.716563)scale(0.1 -0.1)">
      <defs>
       <path d="M -19 4666 
L 3928 4666 
L 3928 4134 
L 2272 4134 
L 2272 0 
L 1638 0 
L 1638 4134 
L -19 4134 
L -19 4666 
z
" id="DejaVuSans-54" transform="scale(0.015625)"/>
       <path d="M 603 3500 
L 1178 3500 
L 1178 0 
L 603 0 
L 603 3500 
z
M 603 4863 
L 1178 4863 
L 1178 4134 
L 603 4134 
L 603 4863 
z
" id="DejaVuSans-69" transform="scale(0.015625)"/>
       <path d="M 3597 1894 
L 3597 1613 
L 953 1613 
Q 991 1019 1311 708 
Q 1631 397 2203 397 
Q 2534 397 2845 478 
Q 3156 559 3463 722 
L 3463 178 
Q 3153 47 2828 -22 
Q 2503 -91 2169 -91 
Q 1331 -91 842 396 
Q 353 884 353 1716 
Q 353 2575 817 3079 
Q 1281 3584 2069 3584 
Q 2775 3584 3186 3129 
Q 3597 2675 3597 1894 
z
M 3022 2063 
Q 3016 2534 2758 2815 
Q 2500 3097 2075 3097 
Q 1594 3097 1305 2825 
Q 1016 2553 972 2059 
L 3022 2063 
z
" id="DejaVuSans-65" transform="scale(0.015625)"/>
       <path d="M 3328 2828 
Q 3544 3216 3844 3400 
Q 4144 3584 4550 3584 
Q 5097 3584 5394 3201 
Q 5691 2819 5691 2113 
L 5691 0 
L 5113 0 
L 5113 2094 
Q 5113 2597 4934 2840 
Q 4756 3084 4391 3084 
Q 3944 3084 3684 2787 
Q 3425 2491 3425 1978 
L 3425 0 
L 2847 0 
L 2847 2094 
Q 2847 2600 2669 2842 
Q 2491 3084 2119 3084 
Q 1678 3084 1418 2786 
Q 1159 2488 1159 1978 
L 1159 0 
L 581 0 
L 581 3500 
L 1159 3500 
L 1159 2956 
Q 1356 3278 1631 3431 
Q 1906 3584 2284 3584 
Q 2666 3584 2933 3390 
Q 3200 3197 3328 2828 
z
" id="DejaVuSans-6d" transform="scale(0.015625)"/>
       <path d="M 1159 525 
L 1159 -1331 
L 581 -1331 
L 581 3500 
L 1159 3500 
L 1159 2969 
Q 1341 3281 1617 3432 
Q 1894 3584 2278 3584 
Q 2916 3584 3314 3078 
Q 3713 2572 3713 1747 
Q 3713 922 3314 415 
Q 2916 -91 2278 -91 
Q 1894 -91 1617 61 
Q 1341 213 1159 525 
z
M 3116 1747 
Q 3116 2381 2855 2742 
Q 2594 3103 2138 3103 
Q 1681 3103 1420 2742 
Q 1159 2381 1159 1747 
Q 1159 1113 1420 752 
Q 1681 391 2138 391 
Q 2594 391 2855 752 
Q 3116 1113 3116 1747 
z
" id="DejaVuSans-70" transform="scale(0.015625)"/>
       <path d="M 1959 3097 
Q 1497 3097 1228 2736 
Q 959 2375 959 1747 
Q 959 1119 1226 758 
Q 1494 397 1959 397 
Q 2419 397 2687 759 
Q 2956 1122 2956 1747 
Q 2956 2369 2687 2733 
Q 2419 3097 1959 3097 
z
M 1959 3584 
Q 2709 3584 3137 3096 
Q 3566 2609 3566 1747 
Q 3566 888 3137 398 
Q 2709 -91 1959 -91 
Q 1206 -91 779 398 
Q 353 888 353 1747 
Q 353 2609 779 3096 
Q 1206 3584 1959 3584 
z
" id="DejaVuSans-6f" transform="scale(0.015625)"/>
       <path id="DejaVuSans-20" transform="scale(0.015625)"/>
       <path d="M 1984 4856 
Q 1566 4138 1362 3434 
Q 1159 2731 1159 2009 
Q 1159 1288 1364 580 
Q 1569 -128 1984 -844 
L 1484 -844 
Q 1016 -109 783 600 
Q 550 1309 550 2009 
Q 550 2706 781 3412 
Q 1013 4119 1484 4856 
L 1984 4856 
z
" id="DejaVuSans-28" transform="scale(0.015625)"/>
       <path d="M 2834 3397 
L 2834 2853 
Q 2591 2978 2328 3040 
Q 2066 3103 1784 3103 
Q 1356 3103 1142 2972 
Q 928 2841 928 2578 
Q 928 2378 1081 2264 
Q 1234 2150 1697 2047 
L 1894 2003 
Q 2506 1872 2764 1633 
Q 3022 1394 3022 966 
Q 3022 478 2636 193 
Q 2250 -91 1575 -91 
Q 1294 -91 989 -36 
Q 684 19 347 128 
L 347 722 
Q 666 556 975 473 
Q 1284 391 1588 391 
Q 1994 391 2212 530 
Q 2431 669 2431 922 
Q 2431 1156 2273 1281 
Q 2116 1406 1581 1522 
L 1381 1569 
Q 847 1681 609 1914 
Q 372 2147 372 2553 
Q 372 3047 722 3315 
Q 1072 3584 1716 3584 
Q 2034 3584 2315 3537 
Q 2597 3491 2834 3397 
z
" id="DejaVuSans-73" transform="scale(0.015625)"/>
       <path d="M 513 4856 
L 1013 4856 
Q 1481 4119 1714 3412 
Q 1947 2706 1947 2009 
Q 1947 1309 1714 600 
Q 1481 -109 1013 -844 
L 513 -844 
Q 928 -128 1133 580 
Q 1338 1288 1338 2009 
Q 1338 2731 1133 3434 
Q 928 4138 513 4856 
z
" id="DejaVuSans-29" transform="scale(0.015625)"/>
      </defs>
      <use xlink:href="#DejaVuSans-54"/>
      <use x="57.958984" xlink:href="#DejaVuSans-69"/>
      <use x="85.742188" xlink:href="#DejaVuSans-65"/>
      <use x="147.265625" xlink:href="#DejaVuSans-6d"/>
      <use x="244.677734" xlink:href="#DejaVuSans-70"/>
      <use x="308.154297" xlink:href="#DejaVuSans-6f"/>
      <use x="369.335938" xlink:href="#DejaVuSans-20"/>
      <use x="401.123047" xlink:href="#DejaVuSans-28"/>
      <use x="440.136719" xlink:href="#DejaVuSans-73"/>
      <use x="492.236328" xlink:href="#DejaVuSans-29"/>
     </g>
    </g>
   </g>
   <g id="matplotlib.axis_2">
    <g id="ytick_1">
     <g id="line2d_9">
      <path clip-path="url(#p50934b59cc)" d="M 81.74 240.84364 
L 255.51 240.84364 
" style="fill:none;stroke:#b0b0b0;stroke-linecap:square;stroke-width:0.8;"/>
     </g>
     <g id="line2d_10">
      <defs>
       <path d="M 0 0 
L -3.5 0 
" id="m853d740e69" style="stroke:#000000;stroke-width:0.8;"/>
      </defs>
      <g>
       <use style="stroke:#000000;stroke-width:0.8;" x="81.74" xlink:href="#m853d740e69" y="240.84364"/>
      </g>
     </g>
     <g id="text_6">
      <!-- −50 -->
      <g transform="translate(53.635313 244.642859)scale(0.1 -0.1)">
       <defs>
        <path d="M 678 2272 
L 4684 2272 
L 4684 1741 
L 678 1741 
L 678 2272 
z
" id="DejaVuSans-2212" transform="scale(0.015625)"/>
        <path d="M 691 4666 
L 3169 4666 
L 3169 4134 
L 1269 4134 
L 1269 2991 
Q 1406 3038 1543 3061 
Q 1681 3084 1819 3084 
Q 2600 3084 3056 2656 
Q 3513 2228 3513 1497 
Q 3513 744 3044 326 
Q 2575 -91 1722 -91 
Q 1428 -91 1123 -41 
Q 819 9 494 109 
L 494 744 
Q 775 591 1075 516 
Q 1375 441 1709 441 
Q 2250 441 2565 725 
Q 2881 1009 2881 1497 
Q 2881 1984 2565 2268 
Q 2250 2553 1709 2553 
Q 1456 2553 1204 2497 
Q 953 2441 691 2322 
L 691 4666 
z
" id="DejaVuSans-35" transform="scale(0.015625)"/>
       </defs>
       <use xlink:href="#DejaVuSans-2212"/>
       <use x="83.789062" xlink:href="#DejaVuSans-35"/>
       <use x="147.412109" xlink:href="#DejaVuSans-30"/>
      </g>
     </g>
    </g>
    <g id="ytick_2">
     <g id="line2d_11">
      <path clip-path="url(#p50934b59cc)" d="M 81.74 202.79993 
L 255.51 202.79993 
" style="fill:none;stroke:#b0b0b0;stroke-linecap:square;stroke-width:0.8;"/>
     </g>
     <g id="line2d_12">
      <g>
       <use style="stroke:#000000;stroke-width:0.8;" x="81.74" xlink:href="#m853d740e69" y="202.79993"/>
      </g>
     </g>
     <g id="text_7">
      <!-- −40 -->
      <g transform="translate(53.635313 206.599149)scale(0.1 -0.1)">
       <defs>
        <path d="M 2419 4116 
L 825 1625 
L 2419 1625 
L 2419 4116 
z
M 2253 4666 
L 3047 4666 
L 3047 1625 
L 3713 1625 
L 3713 1100 
L 3047 1100 
L 3047 0 
L 2419 0 
L 2419 1100 
L 313 1100 
L 313 1709 
L 2253 4666 
z
" id="DejaVuSans-34" transform="scale(0.015625)"/>
       </defs>
       <use xlink:href="#DejaVuSans-2212"/>
       <use x="83.789062" xlink:href="#DejaVuSans-34"/>
       <use x="147.412109" xlink:href="#DejaVuSans-30"/>
      </g>
     </g>
    </g>
    <g id="ytick_3">
     <g id="line2d_13">
      <path clip-path="url(#p50934b59cc)" d="M 81.74 164.75622 
L 255.51 164.75622 
" style="fill:none;stroke:#b0b0b0;stroke-linecap:square;stroke-width:0.8;"/>
     </g>
     <g id="line2d_14">
      <g>
       <use style="stroke:#000000;stroke-width:0.8;" x="81.74" xlink:href="#m853d740e69" y="164.75622"/>
      </g>
     </g>
     <g id="text_8">
      <!-- −30 -->
      <g transform="translate(53.635313 168.555438)scale(0.1 -0.1)">
       <use xlink:href="#DejaVuSans-2212"/>
       <use x="83.789062" xlink:href="#DejaVuSans-33"/>
       <use x="147.412109" xlink:href="#DejaVuSans-30"/>
      </g>
     </g>
    </g>
    <g id="ytick_4">
     <g id="line2d_15">
      <path clip-path="url(#p50934b59cc)" d="M 81.74 126.712509 
L 255.51 126.712509 
" style="fill:none;stroke:#b0b0b0;stroke-linecap:square;stroke-width:0.8;"/>
     </g>
     <g id="line2d_16">
      <g>
       <use style="stroke:#000000;stroke-width:0.8;" x="81.74" xlink:href="#m853d740e69" y="126.712509"/>
      </g>
     </g>
     <g id="text_9">
      <!-- −20 -->
      <g transform="translate(53.635313 130.511728)scale(0.1 -0.1)">
       <use xlink:href="#DejaVuSans-2212"/>
       <use x="83.789062" xlink:href="#DejaVuSans-32"/>
       <use x="147.412109" xlink:href="#DejaVuSans-30"/>
      </g>
     </g>
    </g>
    <g id="ytick_5">
     <g id="line2d_17">
      <path clip-path="url(#p50934b59cc)" d="M 81.74 88.668799 
L 255.51 88.668799 
" style="fill:none;stroke:#b0b0b0;stroke-linecap:square;stroke-width:0.8;"/>
     </g>
     <g id="line2d_18">
      <g>
       <use style="stroke:#000000;stroke-width:0.8;" x="81.74" xlink:href="#m853d740e69" y="88.668799"/>
      </g>
     </g>
     <g id="text_10">
      <!-- −10 -->
      <g transform="translate(53.635313 92.468018)scale(0.1 -0.1)">
       <use xlink:href="#DejaVuSans-2212"/>
       <use x="83.789062" xlink:href="#DejaVuSans-31"/>
       <use x="147.412109" xlink:href="#DejaVuSans-30"/>
      </g>
     </g>
    </g>
    <g id="ytick_6">
     <g id="line2d_19">
      <path clip-path="url(#p50934b59cc)" d="M 81.74 50.625089 
L 255.51 50.625089 
" style="fill:none;stroke:#b0b0b0;stroke-linecap:square;stroke-width:0.8;"/>
     </g>
     <g id="line2d_20">
      <g>
       <use style="stroke:#000000;stroke-width:0.8;" x="81.74" xlink:href="#m853d740e69" y="50.625089"/>
      </g>
     </g>
     <g id="text_11">
      <!-- 0 -->
      <g transform="translate(68.3775 54.424308)scale(0.1 -0.1)">
       <use xlink:href="#DejaVuSans-30"/>
      </g>
     </g>
    </g>
    <g id="text_12">
     <!-- x (m) -->
     <g transform="translate(47.555625 158.840313)rotate(-90)scale(0.1 -0.1)">
      <defs>
       <path d="M 3513 3500 
L 2247 1797 
L 3578 0 
L 2900 0 
L 1881 1375 
L 863 0 
L 184 0 
L 1544 1831 
L 300 3500 
L 978 3500 
L 1906 2253 
L 2834 3500 
L 3513 3500 
z
" id="DejaVuSans-78" transform="scale(0.015625)"/>
      </defs>
      <use xlink:href="#DejaVuSans-78"/>
      <use x="59.179688" xlink:href="#DejaVuSans-20"/>
      <use x="90.966797" xlink:href="#DejaVuSans-28"/>
      <use x="129.980469" xlink:href="#DejaVuSans-6d"/>
      <use x="227.392578" xlink:href="#DejaVuSans-29"/>
     </g>
    </g>
   </g>
   <g id="line2d_21">
    <path clip-path="url(#p50934b59cc)" d="M 89.638636 50.625089 
L 247.611364 50.625089 
L 247.611364 50.625089 
" style="fill:none;stroke:#1f77b4;stroke-linecap:square;stroke-opacity:0.7;stroke-width:1.5;"/>
   </g>
   <g id="line2d_22">
    <path clip-path="url(#p50934b59cc)" d="M 89.638636 50.625089 
L 188.933898 50.735004 
L 191.764636 50.808046 
L 194.92453 50.569371 
L 197.996648 50.561606 
L 200.607949 50.505601 
L 204.799197 50.571913 
L 206.971623 50.572159 
L 210.855659 50.793626 
L 211.645632 50.489741 
L 214.125271 49.361367 
L 215.200512 49.229523 
L 216.231866 49.324891 
L 217.065727 49.603849 
L 217.680151 50.032285 
L 218.250687 50.73021 
L 218.952886 51.981531 
L 220.335339 55.002915 
L 221.235031 57.445969 
L 222.003061 60.220434 
L 223.36357 66.192327 
L 224.351037 71.355083 
L 225.49211 78.639827 
L 226.896507 89.280948 
L 228.761722 104.482746 
L 237.473372 178.990648 
L 241.971832 214.557845 
L 243.507891 224.004695 
L 244.62702 229.426389 
L 246.448347 237.242265 
L 247.611364 241.810909 
L 247.611364 241.810909 
" style="fill:none;stroke:#d62728;stroke-linecap:square;stroke-opacity:0.7;stroke-width:1.5;"/>
   </g>
   <g id="line2d_23">
    <path clip-path="url(#p50934b59cc)" d="M 89.638636 50.625089 
L 247.611364 50.625089 
L 247.611364 50.625089 
" style="fill:none;stroke:#000000;stroke-dasharray:5.55,2.4;stroke-dashoffset:0;stroke-opacity:0.595;stroke-width:1.5;"/>
   </g>
   <g id="patch_3">
    <path d="M 81.74 251.44 
L 81.74 39.6 
" style="fill:none;stroke:#000000;stroke-linecap:square;stroke-linejoin:miter;stroke-width:0.8;"/>
   </g>
   <g id="patch_4">
    <path d="M 255.51 251.44 
L 255.51 39.6 
" style="fill:none;stroke:#000000;stroke-linecap:square;stroke-linejoin:miter;stroke-width:0.8;"/>
   </g>
   <g id="patch_5">
    <path d="M 81.74 251.44 
L 255.51 251.44 
" style="fill:none;stroke:#000000;stroke-linecap:square;stroke-linejoin:miter;stroke-width:0.8;"/>
   </g>
   <g id="patch_6">
    <path d="M 81.74 39.6 
L 255.51 39.6 
" style="fill:none;stroke:#000000;stroke-linecap:square;stroke-linejoin:miter;stroke-width:0.8;"/>
   </g>
  </g>
  <g id="axes_2">
   <g id="patch_7">
    <path d="M 305.03 251.44 
L 478.8 251.44 
L 478.8 39.6 
L 305.03 39.6 
z
" style="fill:#ffffff;"/>
   </g>
   <g id="matplotlib.axis_3">
    <g id="xtick_5">
     <g id="line2d_24">
      <path clip-path="url(#p1909448076)" d="M 312.928636 251.44 
L 312.928636 39.6 
" style="fill:none;stroke:#b0b0b0;stroke-linecap:square;stroke-width:0.8;"/>
     </g>
     <g id="line2d_25">
      <g>
       <use style="stroke:#000000;stroke-width:0.8;" x="312.928636" xlink:href="#m260edf9fcf" y="251.44"/>
      </g>
     </g>
     <g id="text_13">
      <!-- 0 -->
      <g transform="translate(309.747386 266.038438)scale(0.1 -0.1)">
       <use xlink:href="#DejaVuSans-30"/>
      </g>
     </g>
    </g>
    <g id="xtick_6">
     <g id="line2d_26">
      <path clip-path="url(#p1909448076)" d="M 365.593527 251.44 
L 365.593527 39.6 
" style="fill:none;stroke:#b0b0b0;stroke-linecap:square;stroke-width:0.8;"/>
     </g>
     <g id="line2d_27">
      <g>
       <use style="stroke:#000000;stroke-width:0.8;" x="365.593527" xlink:href="#m260edf9fcf" y="251.44"/>
      </g>
     </g>
     <g id="text_14">
      <!-- 10 -->
      <g transform="translate(359.231027 266.038438)scale(0.1 -0.1)">
       <use xlink:href="#DejaVuSans-31"/>
       <use x="63.623047" xlink:href="#DejaVuSans-30"/>
      </g>
     </g>
    </g>
    <g id="xtick_7">
     <g id="line2d_28">
      <path clip-path="url(#p1909448076)" d="M 418.258417 251.44 
L 418.258417 39.6 
" style="fill:none;stroke:#b0b0b0;stroke-linecap:square;stroke-width:0.8;"/>
     </g>
     <g id="line2d_29">
      <g>
       <use style="stroke:#000000;stroke-width:0.8;" x="418.258417" xlink:href="#m260edf9fcf" y="251.44"/>
      </g>
     </g>
     <g id="text_15">
      <!-- 20 -->
      <g transform="translate(411.895917 266.038438)scale(0.1 -0.1)">
       <use xlink:href="#DejaVuSans-32"/>
       <use x="63.623047" xlink:href="#DejaVuSans-30"/>
      </g>
     </g>
    </g>
    <g id="xtick_8">
     <g id="line2d_30">
      <path clip-path="url(#p1909448076)" d="M 470.923307 251.44 
L 470.923307 39.6 
" style="fill:none;stroke:#b0b0b0;stroke-linecap:square;stroke-width:0.8;"/>
     </g>
     <g id="line2d_31">
      <g>
       <use style="stroke:#000000;stroke-width:0.8;" x="470.923307" xlink:href="#m260edf9fcf" y="251.44"/>
      </g>
     </g>
     <g id="text_16">
      <!-- 30 -->
      <g transform="translate(464.560807 266.038438)scale(0.1 -0.1)">
       <use xlink:href="#DejaVuSans-33"/>
       <use x="63.623047" xlink:href="#DejaVuSans-30"/>
      </g>
     </g>
    </g>
    <g id="text_17">
     <!-- Tiempo (s) -->
     <g transform="translate(365.3525 279.716563)scale(0.1 -0.1)">
      <use xlink:href="#DejaVuSans-54"/>
      <use x="57.958984" xlink:href="#DejaVuSans-69"/>
      <use x="85.742188" xlink:href="#DejaVuSans-65"/>
      <use x="147.265625" xlink:href="#DejaVuSans-6d"/>
      <use x="244.677734" xlink:href="#DejaVuSans-70"/>
      <use x="308.154297" xlink:href="#DejaVuSans-6f"/>
      <use x="369.335938" xlink:href="#DejaVuSans-20"/>
      <use x="401.123047" xlink:href="#DejaVuSans-28"/>
      <use x="440.136719" xlink:href="#DejaVuSans-73"/>
      <use x="492.236328" xlink:href="#DejaVuSans-29"/>
     </g>
    </g>
   </g>
   <g id="matplotlib.axis_4">
    <g id="ytick_7">
     <g id="line2d_32">
      <path clip-path="url(#p1909448076)" d="M 305.03 239.905471 
L 478.8 239.905471 
" style="fill:none;stroke:#b0b0b0;stroke-linecap:square;stroke-width:0.8;"/>
     </g>
     <g id="line2d_33">
      <g>
       <use style="stroke:#000000;stroke-width:0.8;" x="305.03" xlink:href="#m853d740e69" y="239.905471"/>
      </g>
     </g>
     <g id="text_18">
      <!-- 0 -->
      <g transform="translate(291.6675 243.70469)scale(0.1 -0.1)">
       <use xlink:href="#DejaVuSans-30"/>
      </g>
     </g>
    </g>
    <g id="ytick_8">
     <g id="line2d_34">
      <path clip-path="url(#p1909448076)" d="M 305.03 194.354774 
L 478.8 194.354774 
" style="fill:none;stroke:#b0b0b0;stroke-linecap:square;stroke-width:0.8;"/>
     </g>
     <g id="line2d_35">
      <g>
       <use style="stroke:#000000;stroke-width:0.8;" x="305.03" xlink:href="#m853d740e69" y="194.354774"/>
      </g>
     </g>
     <g id="text_19">
      <!-- 2 -->
      <g transform="translate(291.6675 198.153993)scale(0.1 -0.1)">
       <use xlink:href="#DejaVuSans-32"/>
      </g>
     </g>
    </g>
    <g id="ytick_9">
     <g id="line2d_36">
      <path clip-path="url(#p1909448076)" d="M 305.03 148.804077 
L 478.8 148.804077 
" style="fill:none;stroke:#b0b0b0;stroke-linecap:square;stroke-width:0.8;"/>
     </g>
     <g id="line2d_37">
      <g>
       <use style="stroke:#000000;stroke-width:0.8;" x="305.03" xlink:href="#m853d740e69" y="148.804077"/>
      </g>
     </g>
     <g id="text_20">
      <!-- 4 -->
      <g transform="translate(291.6675 152.603296)scale(0.1 -0.1)">
       <use xlink:href="#DejaVuSans-34"/>
      </g>
     </g>
    </g>
    <g id="ytick_10">
     <g id="line2d_38">
      <path clip-path="url(#p1909448076)" d="M 305.03 103.253381 
L 478.8 103.253381 
" style="fill:none;stroke:#b0b0b0;stroke-linecap:square;stroke-width:0.8;"/>
     </g>
     <g id="line2d_39">
      <g>
       <use style="stroke:#000000;stroke-width:0.8;" x="305.03" xlink:href="#m853d740e69" y="103.253381"/>
      </g>
     </g>
     <g id="text_21">
      <!-- 6 -->
      <g transform="translate(291.6675 107.052599)scale(0.1 -0.1)">
       <defs>
        <path d="M 2113 2584 
Q 1688 2584 1439 2293 
Q 1191 2003 1191 1497 
Q 1191 994 1439 701 
Q 1688 409 2113 409 
Q 2538 409 2786 701 
Q 3034 994 3034 1497 
Q 3034 2003 2786 2293 
Q 2538 2584 2113 2584 
z
M 3366 4563 
L 3366 3988 
Q 3128 4100 2886 4159 
Q 2644 4219 2406 4219 
Q 1781 4219 1451 3797 
Q 1122 3375 1075 2522 
Q 1259 2794 1537 2939 
Q 1816 3084 2150 3084 
Q 2853 3084 3261 2657 
Q 3669 2231 3669 1497 
Q 3669 778 3244 343 
Q 2819 -91 2113 -91 
Q 1303 -91 875 529 
Q 447 1150 447 2328 
Q 447 3434 972 4092 
Q 1497 4750 2381 4750 
Q 2619 4750 2861 4703 
Q 3103 4656 3366 4563 
z
" id="DejaVuSans-36" transform="scale(0.015625)"/>
       </defs>
       <use xlink:href="#DejaVuSans-36"/>
      </g>
     </g>
    </g>
    <g id="ytick_11">
     <g id="line2d_40">
      <path clip-path="url(#p1909448076)" d="M 305.03 57.702684 
L 478.8 57.702684 
" style="fill:none;stroke:#b0b0b0;stroke-linecap:square;stroke-width:0.8;"/>
     </g>
     <g id="line2d_41">
      <g>
       <use style="stroke:#000000;stroke-width:0.8;" x="305.03" xlink:href="#m853d740e69" y="57.702684"/>
      </g>
     </g>
     <g id="text_22">
      <!-- 8 -->
      <g transform="translate(291.6675 61.501903)scale(0.1 -0.1)">
       <defs>
        <path d="M 2034 2216 
Q 1584 2216 1326 1975 
Q 1069 1734 1069 1313 
Q 1069 891 1326 650 
Q 1584 409 2034 409 
Q 2484 409 2743 651 
Q 3003 894 3003 1313 
Q 3003 1734 2745 1975 
Q 2488 2216 2034 2216 
z
M 1403 2484 
Q 997 2584 770 2862 
Q 544 3141 544 3541 
Q 544 4100 942 4425 
Q 1341 4750 2034 4750 
Q 2731 4750 3128 4425 
Q 3525 4100 3525 3541 
Q 3525 3141 3298 2862 
Q 3072 2584 2669 2484 
Q 3125 2378 3379 2068 
Q 3634 1759 3634 1313 
Q 3634 634 3220 271 
Q 2806 -91 2034 -91 
Q 1263 -91 848 271 
Q 434 634 434 1313 
Q 434 1759 690 2068 
Q 947 2378 1403 2484 
z
M 1172 3481 
Q 1172 3119 1398 2916 
Q 1625 2713 2034 2713 
Q 2441 2713 2670 2916 
Q 2900 3119 2900 3481 
Q 2900 3844 2670 4047 
Q 2441 4250 2034 4250 
Q 1625 4250 1398 4047 
Q 1172 3844 1172 3481 
z
" id="DejaVuSans-38" transform="scale(0.015625)"/>
       </defs>
       <use xlink:href="#DejaVuSans-38"/>
      </g>
     </g>
    </g>
    <g id="text_23">
     <!-- y (m) -->
     <g transform="translate(285.587813 158.840313)rotate(-90)scale(0.1 -0.1)">
      <defs>
       <path d="M 2059 -325 
Q 1816 -950 1584 -1140 
Q 1353 -1331 966 -1331 
L 506 -1331 
L 506 -850 
L 844 -850 
Q 1081 -850 1212 -737 
Q 1344 -625 1503 -206 
L 1606 56 
L 191 3500 
L 800 3500 
L 1894 763 
L 2988 3500 
L 3597 3500 
L 2059 -325 
z
" id="DejaVuSans-79" transform="scale(0.015625)"/>
      </defs>
      <use xlink:href="#DejaVuSans-79"/>
      <use x="59.179688" xlink:href="#DejaVuSans-20"/>
      <use x="90.966797" xlink:href="#DejaVuSans-28"/>
      <use x="129.980469" xlink:href="#DejaVuSans-6d"/>
      <use x="227.392578" xlink:href="#DejaVuSans-29"/>
     </g>
    </g>
   </g>
   <g id="line2d_42">
    <path clip-path="url(#p1909448076)" d="M 312.928636 239.905471 
L 470.901364 239.905471 
L 470.901364 239.905471 
" style="fill:none;stroke:#1f77b4;stroke-linecap:square;stroke-opacity:0.7;stroke-width:1.5;"/>
   </g>
   <g id="line2d_43">
    <path clip-path="url(#p1909448076)" d="M 312.928636 239.905471 
L 395.76612 239.795354 
L 398.662689 239.594603 
L 401.186215 239.738314 
L 404.675264 239.866333 
L 407.02324 240.042105 
L 410.33674 240.328887 
L 412.465279 240.2662 
L 414.857143 240.051618 
L 415.84461 239.856572 
L 417.183176 239.604708 
L 418.390079 239.65998 
L 420.474731 239.743404 
L 424.644035 239.791639 
L 425.850939 240.148548 
L 427.606435 240.678648 
L 428.418352 240.668428 
L 429.339988 240.418044 
L 430.810216 240.000956 
L 431.446583 240.07375 
L 432.082951 240.378027 
L 432.982643 241.094546 
L 433.926222 241.771355 
L 434.255377 241.783056 
L 434.518702 241.56378 
L 434.825914 240.981184 
L 435.177013 239.800599 
L 435.637831 237.358075 
L 436.713072 230.021447 
L 437.546933 225.093876 
L 438.139413 222.764858 
L 438.556343 221.862482 
L 438.841612 221.652192 
L 439.061049 221.738781 
L 439.324373 222.141707 
L 439.653529 223.109732 
L 440.092403 225.172426 
L 440.772658 229.661099 
L 441.804012 236.41603 
L 442.220942 237.80554 
L 442.572041 238.317573 
L 442.879253 238.420728 
L 443.208409 238.268921 
L 444.020326 237.789539 
L 444.305594 237.950778 
L 444.700581 238.494847 
L 445.161398 239.037105 
L 445.358892 238.976303 
L 445.556385 238.623264 
L 445.81971 237.632726 
L 446.23664 235.006334 
L 447.224107 228.667098 
L 449.572083 215.662321 
L 451.459242 201.329557 
L 452.315046 195.001225 
L 453.148907 187.342757 
L 454.663022 172.456746 
L 455.672433 163.984017 
L 458.634833 136.116446 
L 459.6223 128.643583 
L 461.377796 114.524465 
L 462.2336 109.423213 
L 466.095692 89.556089 
L 466.775947 83.937458 
L 468.728937 67.03106 
L 470.901364 49.229091 
L 470.901364 49.229091 
" style="fill:none;stroke:#d62728;stroke-linecap:square;stroke-opacity:0.7;stroke-width:1.5;"/>
   </g>
   <g id="line2d_44">
    <path clip-path="url(#p1909448076)" d="M 312.928636 239.905471 
L 470.901364 239.905471 
L 470.901364 239.905471 
" style="fill:none;stroke:#000000;stroke-dasharray:5.55,2.4;stroke-dashoffset:0;stroke-opacity:0.595;stroke-width:1.5;"/>
   </g>
   <g id="patch_8">
    <path d="M 305.03 251.44 
L 305.03 39.6 
" style="fill:none;stroke:#000000;stroke-linecap:square;stroke-linejoin:miter;stroke-width:0.8;"/>
   </g>
   <g id="patch_9">
    <path d="M 478.8 251.44 
L 478.8 39.6 
" style="fill:none;stroke:#000000;stroke-linecap:square;stroke-linejoin:miter;stroke-width:0.8;"/>
   </g>
   <g id="patch_10">
    <path d="M 305.03 251.44 
L 478.8 251.44 
" style="fill:none;stroke:#000000;stroke-linecap:square;stroke-linejoin:miter;stroke-width:0.8;"/>
   </g>
   <g id="patch_11">
    <path d="M 305.03 39.6 
L 478.8 39.6 
" style="fill:none;stroke:#000000;stroke-linecap:square;stroke-linejoin:miter;stroke-width:0.8;"/>
   </g>
  </g>
  <g id="axes_3">
   <g id="patch_12">
    <path d="M 81.74 505.24 
L 255.51 505.24 
L 255.51 293.4 
L 81.74 293.4 
z
" style="fill:#ffffff;"/>
   </g>
   <g id="matplotlib.axis_5">
    <g id="xtick_9">
     <g id="line2d_45">
      <path clip-path="url(#p9fd89100c6)" d="M 89.638636 505.24 
L 89.638636 293.4 
" style="fill:none;stroke:#b0b0b0;stroke-linecap:square;stroke-width:0.8;"/>
     </g>
     <g id="line2d_46">
      <g>
       <use style="stroke:#000000;stroke-width:0.8;" x="89.638636" xlink:href="#m260edf9fcf" y="505.24"/>
      </g>
     </g>
     <g id="text_24">
      <!-- 0 -->
      <g transform="translate(86.457386 519.838437)scale(0.1 -0.1)">
       <use xlink:href="#DejaVuSans-30"/>
      </g>
     </g>
    </g>
    <g id="xtick_10">
     <g id="line2d_47">
      <path clip-path="url(#p9fd89100c6)" d="M 142.303527 505.24 
L 142.303527 293.4 
" style="fill:none;stroke:#b0b0b0;stroke-linecap:square;stroke-width:0.8;"/>
     </g>
     <g id="line2d_48">
      <g>
       <use style="stroke:#000000;stroke-width:0.8;" x="142.303527" xlink:href="#m260edf9fcf" y="505.24"/>
      </g>
     </g>
     <g id="text_25">
      <!-- 10 -->
      <g transform="translate(135.941027 519.838437)scale(0.1 -0.1)">
       <use xlink:href="#DejaVuSans-31"/>
       <use x="63.623047" xlink:href="#DejaVuSans-30"/>
      </g>
     </g>
    </g>
    <g id="xtick_11">
     <g id="line2d_49">
      <path clip-path="url(#p9fd89100c6)" d="M 194.968417 505.24 
L 194.968417 293.4 
" style="fill:none;stroke:#b0b0b0;stroke-linecap:square;stroke-width:0.8;"/>
     </g>
     <g id="line2d_50">
      <g>
       <use style="stroke:#000000;stroke-width:0.8;" x="194.968417" xlink:href="#m260edf9fcf" y="505.24"/>
      </g>
     </g>
     <g id="text_26">
      <!-- 20 -->
      <g transform="translate(188.605917 519.838437)scale(0.1 -0.1)">
       <use xlink:href="#DejaVuSans-32"/>
       <use x="63.623047" xlink:href="#DejaVuSans-30"/>
      </g>
     </g>
    </g>
    <g id="xtick_12">
     <g id="line2d_51">
      <path clip-path="url(#p9fd89100c6)" d="M 247.633307 505.24 
L 247.633307 293.4 
" style="fill:none;stroke:#b0b0b0;stroke-linecap:square;stroke-width:0.8;"/>
     </g>
     <g id="line2d_52">
      <g>
       <use style="stroke:#000000;stroke-width:0.8;" x="247.633307" xlink:href="#m260edf9fcf" y="505.24"/>
      </g>
     </g>
     <g id="text_27">
      <!-- 30 -->
      <g transform="translate(241.270807 519.838437)scale(0.1 -0.1)">
       <use xlink:href="#DejaVuSans-33"/>
       <use x="63.623047" xlink:href="#DejaVuSans-30"/>
      </g>
     </g>
    </g>
    <g id="text_28">
     <!-- Tiempo (s) -->
     <g transform="translate(142.0625 533.516562)scale(0.1 -0.1)">
      <use xlink:href="#DejaVuSans-54"/>
      <use x="57.958984" xlink:href="#DejaVuSans-69"/>
      <use x="85.742188" xlink:href="#DejaVuSans-65"/>
      <use x="147.265625" xlink:href="#DejaVuSans-6d"/>
      <use x="244.677734" xlink:href="#DejaVuSans-70"/>
      <use x="308.154297" xlink:href="#DejaVuSans-6f"/>
      <use x="369.335938" xlink:href="#DejaVuSans-20"/>
      <use x="401.123047" xlink:href="#DejaVuSans-28"/>
      <use x="440.136719" xlink:href="#DejaVuSans-73"/>
      <use x="492.236328" xlink:href="#DejaVuSans-29"/>
     </g>
    </g>
   </g>
   <g id="matplotlib.axis_6">
    <g id="ytick_12">
     <g id="line2d_53">
      <path clip-path="url(#p9fd89100c6)" d="M 81.74 495.792903 
L 255.51 495.792903 
" style="fill:none;stroke:#b0b0b0;stroke-linecap:square;stroke-width:0.8;"/>
     </g>
     <g id="line2d_54">
      <g>
       <use style="stroke:#000000;stroke-width:0.8;" x="81.74" xlink:href="#m853d740e69" y="495.792903"/>
      </g>
     </g>
     <g id="text_29">
      <!-- 0 -->
      <g transform="translate(68.3775 499.592121)scale(0.1 -0.1)">
       <use xlink:href="#DejaVuSans-30"/>
      </g>
     </g>
    </g>
    <g id="ytick_13">
     <g id="line2d_55">
      <path clip-path="url(#p9fd89100c6)" d="M 81.74 471.683324 
L 255.51 471.683324 
" style="fill:none;stroke:#b0b0b0;stroke-linecap:square;stroke-width:0.8;"/>
     </g>
     <g id="line2d_56">
      <g>
       <use style="stroke:#000000;stroke-width:0.8;" x="81.74" xlink:href="#m853d740e69" y="471.683324"/>
      </g>
     </g>
     <g id="text_30">
      <!-- 1 -->
      <g transform="translate(68.3775 475.482542)scale(0.1 -0.1)">
       <use xlink:href="#DejaVuSans-31"/>
      </g>
     </g>
    </g>
    <g id="ytick_14">
     <g id="line2d_57">
      <path clip-path="url(#p9fd89100c6)" d="M 81.74 447.573745 
L 255.51 447.573745 
" style="fill:none;stroke:#b0b0b0;stroke-linecap:square;stroke-width:0.8;"/>
     </g>
     <g id="line2d_58">
      <g>
       <use style="stroke:#000000;stroke-width:0.8;" x="81.74" xlink:href="#m853d740e69" y="447.573745"/>
      </g>
     </g>
     <g id="text_31">
      <!-- 2 -->
      <g transform="translate(68.3775 451.372964)scale(0.1 -0.1)">
       <use xlink:href="#DejaVuSans-32"/>
      </g>
     </g>
    </g>
    <g id="ytick_15">
     <g id="line2d_59">
      <path clip-path="url(#p9fd89100c6)" d="M 81.74 423.464166 
L 255.51 423.464166 
" style="fill:none;stroke:#b0b0b0;stroke-linecap:square;stroke-width:0.8;"/>
     </g>
     <g id="line2d_60">
      <g>
       <use style="stroke:#000000;stroke-width:0.8;" x="81.74" xlink:href="#m853d740e69" y="423.464166"/>
      </g>
     </g>
     <g id="text_32">
      <!-- 3 -->
      <g transform="translate(68.3775 427.263385)scale(0.1 -0.1)">
       <use xlink:href="#DejaVuSans-33"/>
      </g>
     </g>
    </g>
    <g id="ytick_16">
     <g id="line2d_61">
      <path clip-path="url(#p9fd89100c6)" d="M 81.74 399.354587 
L 255.51 399.354587 
" style="fill:none;stroke:#b0b0b0;stroke-linecap:square;stroke-width:0.8;"/>
     </g>
     <g id="line2d_62">
      <g>
       <use style="stroke:#000000;stroke-width:0.8;" x="81.74" xlink:href="#m853d740e69" y="399.354587"/>
      </g>
     </g>
     <g id="text_33">
      <!-- 4 -->
      <g transform="translate(68.3775 403.153806)scale(0.1 -0.1)">
       <use xlink:href="#DejaVuSans-34"/>
      </g>
     </g>
    </g>
    <g id="ytick_17">
     <g id="line2d_63">
      <path clip-path="url(#p9fd89100c6)" d="M 81.74 375.245008 
L 255.51 375.245008 
" style="fill:none;stroke:#b0b0b0;stroke-linecap:square;stroke-width:0.8;"/>
     </g>
     <g id="line2d_64">
      <g>
       <use style="stroke:#000000;stroke-width:0.8;" x="81.74" xlink:href="#m853d740e69" y="375.245008"/>
      </g>
     </g>
     <g id="text_34">
      <!-- 5 -->
      <g transform="translate(68.3775 379.044227)scale(0.1 -0.1)">
       <use xlink:href="#DejaVuSans-35"/>
      </g>
     </g>
    </g>
    <g id="ytick_18">
     <g id="line2d_65">
      <path clip-path="url(#p9fd89100c6)" d="M 81.74 351.135429 
L 255.51 351.135429 
" style="fill:none;stroke:#b0b0b0;stroke-linecap:square;stroke-width:0.8;"/>
     </g>
     <g id="line2d_66">
      <g>
       <use style="stroke:#000000;stroke-width:0.8;" x="81.74" xlink:href="#m853d740e69" y="351.135429"/>
      </g>
     </g>
     <g id="text_35">
      <!-- 6 -->
      <g transform="translate(68.3775 354.934648)scale(0.1 -0.1)">
       <use xlink:href="#DejaVuSans-36"/>
      </g>
     </g>
    </g>
    <g id="ytick_19">
     <g id="line2d_67">
      <path clip-path="url(#p9fd89100c6)" d="M 81.74 327.02585 
L 255.51 327.02585 
" style="fill:none;stroke:#b0b0b0;stroke-linecap:square;stroke-width:0.8;"/>
     </g>
     <g id="line2d_68">
      <g>
       <use style="stroke:#000000;stroke-width:0.8;" x="81.74" xlink:href="#m853d740e69" y="327.02585"/>
      </g>
     </g>
     <g id="text_36">
      <!-- 7 -->
      <g transform="translate(68.3775 330.825069)scale(0.1 -0.1)">
       <defs>
        <path d="M 525 4666 
L 3525 4666 
L 3525 4397 
L 1831 0 
L 1172 0 
L 2766 4134 
L 525 4134 
L 525 4666 
z
" id="DejaVuSans-37" transform="scale(0.015625)"/>
       </defs>
       <use xlink:href="#DejaVuSans-37"/>
      </g>
     </g>
    </g>
    <g id="ytick_20">
     <g id="line2d_69">
      <path clip-path="url(#p9fd89100c6)" d="M 81.74 302.916271 
L 255.51 302.916271 
" style="fill:none;stroke:#b0b0b0;stroke-linecap:square;stroke-width:0.8;"/>
     </g>
     <g id="line2d_70">
      <g>
       <use style="stroke:#000000;stroke-width:0.8;" x="81.74" xlink:href="#m853d740e69" y="302.916271"/>
      </g>
     </g>
     <g id="text_37">
      <!-- 8 -->
      <g transform="translate(68.3775 306.71549)scale(0.1 -0.1)">
       <use xlink:href="#DejaVuSans-38"/>
      </g>
     </g>
    </g>
    <g id="text_38">
     <!-- z (m) -->
     <g transform="translate(62.297813 412.305156)rotate(-90)scale(0.1 -0.1)">
      <defs>
       <path d="M 353 3500 
L 3084 3500 
L 3084 2975 
L 922 459 
L 3084 459 
L 3084 0 
L 275 0 
L 275 525 
L 2438 3041 
L 353 3041 
L 353 3500 
z
" id="DejaVuSans-7a" transform="scale(0.015625)"/>
      </defs>
      <use xlink:href="#DejaVuSans-7a"/>
      <use x="52.490234" xlink:href="#DejaVuSans-20"/>
      <use x="84.277344" xlink:href="#DejaVuSans-28"/>
      <use x="123.291016" xlink:href="#DejaVuSans-6d"/>
      <use x="220.703125" xlink:href="#DejaVuSans-29"/>
     </g>
    </g>
   </g>
   <g id="line2d_71">
    <path clip-path="url(#p9fd89100c6)" d="M 89.638636 471.687426 
L 90.472497 471.718697 
L 101.773505 471.680897 
L 132.450803 471.570301 
L 132.977452 471.217555 
L 133.635763 470.482673 
L 134.535455 469.105382 
L 135.80819 466.710119 
L 137.870898 462.294114 
L 143.68598 449.096926 
L 206.554693 305.622042 
L 207.300779 304.740925 
L 208.112696 304.11701 
L 209.078219 303.662518 
L 210.307066 303.345816 
L 212.062563 303.144456 
L 215.178569 303.045058 
L 225.974871 303.033856 
L 247.611364 303.054342 
L 247.611364 303.054342 
" style="fill:none;stroke:#1f77b4;stroke-linecap:square;stroke-opacity:0.7;stroke-width:1.5;"/>
   </g>
   <g id="line2d_72">
    <path clip-path="url(#p9fd89100c6)" d="M 89.638636 471.687426 
L 91.745232 471.971856 
L 92.557149 471.811692 
L 95.146506 471.287785 
L 97.735863 471.002612 
L 101.729617 470.799611 
L 108.510222 470.714873 
L 133.109115 470.512373 
L 133.767426 470.058273 
L 135.237654 468.671335 
L 136.137346 467.573371 
L 138.002561 464.730122 
L 139.999438 461.406987 
L 142.632682 456.509663 
L 145.88035 449.982741 
L 150.576303 439.999082 
L 158.344375 422.871469 
L 165.059148 408.265775 
L 168.043492 402.25678 
L 169.68927 399.406263 
L 170.983948 397.596781 
L 172.125021 396.362713 
L 173.024713 395.694362 
L 173.792742 395.39569 
L 174.626603 395.321697 
L 175.745732 395.465912 
L 177.413454 395.925923 
L 180.266135 396.972611 
L 182.54828 398.025375 
L 184.589045 399.21705 
L 186.585922 400.646342 
L 188.473081 402.017944 
L 188.64863 401.683686 
L 188.911955 400.57046 
L 189.263054 397.949614 
L 189.767759 392.15117 
L 190.908832 378.929654 
L 191.830467 370.934711 
L 192.686272 365.352588 
L 193.476245 361.577342 
L 194.134556 359.43042 
L 194.727036 358.229591 
L 195.495066 357.222441 
L 196.504476 356.252913 
L 197.579718 355.526161 
L 198.764678 355.003302 
L 200.059356 354.673722 
L 201.310148 354.584898 
L 202.538995 354.718388 
L 203.767842 355.078348 
L 205.018634 355.68033 
L 206.225537 356.505091 
L 207.454385 357.626498 
L 208.72712 359.097914 
L 209.955967 360.857282 
L 210.855659 362.130109 
L 211.009265 361.965398 
L 211.228702 361.315473 
L 211.535914 359.596267 
L 211.952844 355.80787 
L 212.940311 343.632011 
L 214.05944 331.512982 
L 214.65192 327.173889 
L 215.090794 325.384064 
L 215.398006 324.904824 
L 215.595499 324.936872 
L 215.814936 325.27537 
L 216.122148 326.242781 
L 216.582966 328.548903 
L 217.943475 335.856769 
L 218.162912 336.061885 
L 218.316518 335.951933 
L 218.535955 335.446377 
L 218.887055 333.919244 
L 220.488945 326.134095 
L 221.059481 324.214885 
L 221.34475 323.867623 
L 221.520299 323.956723 
L 221.717793 324.368274 
L 222.025004 325.652939 
L 222.595541 329.320969 
L 223.12219 332.064256 
L 223.626895 333.519133 
L 224.351037 335.615504 
L 225.90904 341.163249 
L 227.115944 347.272399 
L 227.730368 349.943427 
L 228.322848 353.775894 
L 229.617526 363.93913 
L 230.978036 374.514521 
L 231.658291 380.497135 
L 233.062688 395.934919 
L 236.398131 433.067817 
L 238.373064 456.383944 
L 240.150504 478.215787 
L 241.598789 495.369682 
L 241.730451 495.610909 
L 241.752395 495.606199 
L 241.906001 495.38695 
L 242.871524 493.778471 
L 243.112904 493.77017 
L 243.354285 493.996909 
L 243.902878 494.994008 
L 244.188146 495.342379 
L 244.890344 495.41861 
L 247.062771 495.300477 
L 247.611364 495.361597 
L 247.611364 495.361597 
" style="fill:none;stroke:#d62728;stroke-linecap:square;stroke-opacity:0.7;stroke-width:1.5;"/>
   </g>
   <g id="line2d_73">
    <path clip-path="url(#p9fd89100c6)" d="M 89.638636 471.683324 
L 131.858323 471.683324 
L 132.011929 471.181041 
L 132.07776 471.181041 
L 132.231366 470.678758 
L 132.297198 470.678758 
L 132.450803 470.176475 
L 132.516635 470.176475 
L 132.670241 469.674192 
L 132.736072 469.674192 
L 132.889678 469.171909 
L 132.955509 469.171909 
L 133.109115 468.669626 
L 133.174946 468.669626 
L 133.328552 468.167343 
L 133.394383 468.167343 
L 133.547989 467.665061 
L 133.61382 467.665061 
L 133.767426 467.162778 
L 133.833257 467.162778 
L 133.986863 466.660495 
L 134.052694 466.660495 
L 134.2063 466.158212 
L 134.272131 466.158212 
L 134.425737 465.655929 
L 134.491568 465.655929 
L 134.645174 465.153646 
L 134.711005 465.153646 
L 134.864611 464.651363 
L 134.930442 464.651363 
L 135.084048 464.14908 
L 135.149879 464.14908 
L 135.303485 463.646797 
L 135.369316 463.646797 
L 135.522922 463.144514 
L 135.588753 463.144514 
L 135.742359 462.642232 
L 135.80819 462.642232 
L 135.961796 462.139949 
L 136.027627 462.139949 
L 136.181233 461.637666 
L 136.247064 461.637666 
L 136.40067 461.135383 
L 136.466501 461.135383 
L 136.620107 460.6331 
L 136.685938 460.6331 
L 136.839544 460.130817 
L 136.905375 460.130817 
L 137.058981 459.628534 
L 137.124812 459.628534 
L 137.278418 459.126251 
L 137.34425 459.126251 
L 137.497855 458.623968 
L 137.563687 458.623968 
L 137.717292 458.121686 
L 137.783124 458.121686 
L 137.93673 457.619403 
L 138.002561 457.619403 
L 138.156167 457.11712 
L 138.221998 457.11712 
L 138.375604 456.614837 
L 138.441435 456.614837 
L 138.595041 456.112554 
L 138.660872 456.112554 
L 138.814478 455.610271 
L 138.880309 455.610271 
L 139.033915 455.107988 
L 139.099746 455.107988 
L 139.253352 454.605705 
L 139.319183 454.605705 
L 139.472789 454.103422 
L 139.53862 454.103422 
L 139.692226 453.601139 
L 139.758057 453.601139 
L 139.911663 453.098857 
L 139.977494 453.098857 
L 140.1311 452.596574 
L 140.196931 452.596574 
L 140.350537 452.094291 
L 140.416368 452.094291 
L 140.569974 451.592008 
L 140.635805 451.592008 
L 140.789411 451.089725 
L 140.855242 451.089725 
L 141.008848 450.587442 
L 141.074679 450.587442 
L 141.228285 450.085159 
L 141.294116 450.085159 
L 141.447722 449.582876 
L 141.513553 449.582876 
L 141.667159 449.080593 
L 141.73299 449.080593 
L 141.886596 448.578311 
L 141.952427 448.578311 
L 142.106033 448.076028 
L 142.171864 448.076028 
L 142.32547 447.573745 
L 142.391302 447.573745 
L 142.544907 447.071462 
L 142.610739 447.071462 
L 142.764344 446.569179 
L 142.830176 446.569179 
L 142.983782 446.066896 
L 143.049613 446.066896 
L 143.203219 445.564613 
L 143.26905 445.564613 
L 143.422656 445.06233 
L 143.488487 445.06233 
L 143.642093 444.560047 
L 143.707924 444.560047 
L 143.86153 444.057764 
L 143.927361 444.057764 
L 144.080967 443.555482 
L 144.146798 443.555482 
L 144.300404 443.053199 
L 144.366235 443.053199 
L 144.519841 442.550916 
L 144.585672 442.550916 
L 144.739278 442.048633 
L 144.805109 442.048633 
L 144.958715 441.54635 
L 145.024546 441.54635 
L 145.178152 441.044067 
L 145.243983 441.044067 
L 145.397589 440.541784 
L 145.46342 440.541784 
L 145.617026 440.039501 
L 145.682857 440.039501 
L 145.836463 439.537218 
L 145.902294 439.537218 
L 146.0559 439.034936 
L 146.121731 439.034936 
L 146.275337 438.532653 
L 146.341168 438.532653 
L 146.494774 438.03037 
L 146.560605 438.03037 
L 146.714211 437.528087 
L 146.780042 437.528087 
L 146.933648 437.025804 
L 146.999479 437.025804 
L 147.153085 436.523521 
L 147.218916 436.523521 
L 147.372522 436.021238 
L 147.438353 436.021238 
L 147.591959 435.518955 
L 147.657791 435.518955 
L 147.811396 435.016672 
L 147.877228 435.016672 
L 148.030834 434.514389 
L 148.096665 434.514389 
L 148.250271 434.012107 
L 148.316102 434.012107 
L 148.469708 433.509824 
L 148.535539 433.509824 
L 148.689145 433.007541 
L 148.754976 433.007541 
L 148.908582 432.505258 
L 148.974413 432.505258 
L 149.128019 432.002975 
L 149.19385 432.002975 
L 149.347456 431.500692 
L 149.413287 431.500692 
L 149.566893 430.998409 
L 149.632724 430.998409 
L 149.78633 430.496126 
L 149.852161 430.496126 
L 150.005767 429.993843 
L 150.071598 429.993843 
L 150.225204 429.491561 
L 150.291035 429.491561 
L 150.444641 428.989278 
L 150.510472 428.989278 
L 150.664078 428.486995 
L 150.729909 428.486995 
L 150.883515 427.984712 
L 150.949346 427.984712 
L 151.102952 427.482429 
L 151.168783 427.482429 
L 151.322389 426.980146 
L 151.38822 426.980146 
L 151.541826 426.477863 
L 151.607657 426.477863 
L 151.761263 425.97558 
L 151.827094 425.97558 
L 151.9807 425.473297 
L 152.046531 425.473297 
L 152.200137 424.971014 
L 152.265968 424.971014 
L 152.419574 424.468732 
L 152.485405 424.468732 
L 152.639011 423.966449 
L 152.704843 423.966449 
L 152.858448 423.464166 
L 152.92428 423.464166 
L 153.077886 422.961883 
L 153.143717 422.961883 
L 153.297323 422.4596 
L 153.363154 422.4596 
L 153.51676 421.957317 
L 153.582591 421.957317 
L 153.736197 421.455034 
L 153.802028 421.455034 
L 153.955634 420.952751 
L 154.021465 420.952751 
L 154.175071 420.450468 
L 154.240902 420.450468 
L 154.394508 419.948186 
L 154.460339 419.948186 
L 154.613945 419.445903 
L 154.679776 419.445903 
L 154.833382 418.94362 
L 154.899213 418.94362 
L 155.052819 418.441337 
L 155.11865 418.441337 
L 155.272256 417.939054 
L 155.338087 417.939054 
L 155.491693 417.436771 
L 155.557524 417.436771 
L 155.71113 416.934488 
L 155.776961 416.934488 
L 155.930567 416.432205 
L 155.996398 416.432205 
L 156.150004 415.929922 
L 156.215835 415.929922 
L 156.369441 415.427639 
L 156.435272 415.427639 
L 156.588878 414.925357 
L 156.654709 414.925357 
L 156.808315 414.423074 
L 156.874146 414.423074 
L 157.027752 413.920791 
L 157.093583 413.920791 
L 157.247189 413.418508 
L 157.31302 413.418508 
L 157.466626 412.916225 
L 157.532457 412.916225 
L 157.686063 412.413942 
L 157.751895 412.413942 
L 157.9055 411.911659 
L 157.971332 411.911659 
L 158.124937 411.409376 
L 158.190769 411.409376 
L 158.344375 410.907093 
L 158.410206 410.907093 
L 158.563812 410.404811 
L 158.629643 410.404811 
L 158.783249 409.902528 
L 158.84908 409.902528 
L 159.002686 409.400245 
L 159.068517 409.400245 
L 159.222123 408.897962 
L 159.287954 408.897962 
L 159.44156 408.395679 
L 159.507391 408.395679 
L 159.660997 407.893396 
L 159.726828 407.893396 
L 159.880434 407.391113 
L 159.946265 407.391113 
L 160.099871 406.88883 
L 160.165702 406.88883 
L 160.319308 406.386547 
L 160.385139 406.386547 
L 160.538745 405.884265 
L 160.604576 405.884265 
L 160.758182 405.381982 
L 160.824013 405.381982 
L 160.977619 404.879699 
L 161.04345 404.879699 
L 161.197056 404.377416 
L 161.262887 404.377416 
L 161.416493 403.875133 
L 161.482324 403.875133 
L 161.63593 403.37285 
L 161.701761 403.37285 
L 161.855367 402.870567 
L 161.921198 402.870567 
L 162.074804 402.368284 
L 162.140635 402.368284 
L 162.294241 401.866001 
L 162.360072 401.866001 
L 162.513678 401.363718 
L 162.579509 401.363718 
L 162.733115 400.861436 
L 162.798947 400.861436 
L 162.952552 400.359153 
L 163.018384 400.359153 
L 163.171989 399.85687 
L 163.237821 399.85687 
L 163.391427 399.354587 
L 163.457258 399.354587 
L 163.610864 398.852304 
L 163.676695 398.852304 
L 163.830301 398.350021 
L 163.896132 398.350021 
L 164.049738 397.847738 
L 164.115569 397.847738 
L 164.269175 397.345455 
L 164.335006 397.345455 
L 164.488612 396.843172 
L 164.554443 396.843172 
L 164.708049 396.34089 
L 164.77388 396.34089 
L 164.927486 395.838607 
L 164.993317 395.838607 
L 165.146923 395.336324 
L 165.212754 395.336324 
L 165.36636 394.834041 
L 165.432191 394.834041 
L 165.585797 394.331758 
L 165.651628 394.331758 
L 165.805234 393.829475 
L 165.871065 393.829475 
L 166.024671 393.327192 
L 166.090502 393.327192 
L 166.244108 392.824909 
L 166.309939 392.824909 
L 166.463545 392.322626 
L 166.529376 392.322626 
L 166.682982 391.820343 
L 166.748813 391.820343 
L 166.902419 391.318061 
L 166.96825 391.318061 
L 167.121856 390.815778 
L 167.187687 390.815778 
L 167.341293 390.313495 
L 167.407124 390.313495 
L 167.56073 389.811212 
L 167.626561 389.811212 
L 167.780167 389.308929 
L 167.845998 389.308929 
L 167.999604 388.806646 
L 168.065436 388.806646 
L 168.219041 388.304363 
L 168.284873 388.304363 
L 168.438479 387.80208 
L 168.50431 387.80208 
L 168.657916 387.299797 
L 168.723747 387.299797 
L 168.877353 386.797515 
L 168.943184 386.797515 
L 169.09679 386.295232 
L 169.162621 386.295232 
L 169.316227 385.792949 
L 169.382058 385.792949 
L 169.535664 385.290666 
L 169.601495 385.290666 
L 169.755101 384.788383 
L 169.820932 384.788383 
L 169.974538 384.2861 
L 170.040369 384.2861 
L 170.193975 383.783817 
L 170.259806 383.783817 
L 170.413412 383.281534 
L 170.479243 383.281534 
L 170.632849 382.779251 
L 170.69868 382.779251 
L 170.852286 382.276968 
L 170.918117 382.276968 
L 171.071723 381.774686 
L 171.137554 381.774686 
L 171.29116 381.272403 
L 171.356991 381.272403 
L 171.510597 380.77012 
L 171.576428 380.77012 
L 171.730034 380.267837 
L 171.795865 380.267837 
L 171.949471 379.765554 
L 172.015302 379.765554 
L 172.168908 379.263271 
L 172.234739 379.263271 
L 172.388345 378.760988 
L 172.454176 378.760988 
L 172.607782 378.258705 
L 172.673613 378.258705 
L 172.827219 377.756422 
L 172.89305 377.756422 
L 173.046656 377.25414 
L 173.112488 377.25414 
L 173.266093 376.751857 
L 173.331925 376.751857 
L 173.485531 376.249574 
L 173.551362 376.249574 
L 173.704968 375.747291 
L 173.770799 375.747291 
L 173.924405 375.245008 
L 173.990236 375.245008 
L 174.143842 374.742725 
L 174.209673 374.742725 
L 174.363279 374.240442 
L 174.42911 374.240442 
L 174.582716 373.738159 
L 174.648547 373.738159 
L 174.802153 373.235876 
L 174.867984 373.235876 
L 175.02159 372.733593 
L 175.087421 372.733593 
L 175.241027 372.231311 
L 175.306858 372.231311 
L 175.460464 371.729028 
L 175.526295 371.729028 
L 175.679901 371.226745 
L 175.745732 371.226745 
L 175.899338 370.724462 
L 175.965169 370.724462 
L 176.118775 370.222179 
L 176.184606 370.222179 
L 176.338212 369.719896 
L 176.404043 369.719896 
L 176.557649 369.217613 
L 176.62348 369.217613 
L 176.777086 368.71533 
L 176.842917 368.71533 
L 176.996523 368.213047 
L 177.062354 368.213047 
L 177.21596 367.710765 
L 177.281791 367.710765 
L 177.435397 367.208482 
L 177.501228 367.208482 
L 177.654834 366.706199 
L 177.720665 366.706199 
L 177.874271 366.203916 
L 177.940102 366.203916 
L 178.093708 365.701633 
L 178.15954 365.701633 
L 178.313145 365.19935 
L 178.378977 365.19935 
L 178.532582 364.697067 
L 178.598414 364.697067 
L 178.75202 364.194784 
L 178.817851 364.194784 
L 178.971457 363.692501 
L 179.037288 363.692501 
L 179.190894 363.190218 
L 179.256725 363.190218 
L 179.410331 362.687936 
L 179.476162 362.687936 
L 179.629768 362.185653 
L 179.695599 362.185653 
L 179.849205 361.68337 
L 179.915036 361.68337 
L 180.068642 361.181087 
L 180.134473 361.181087 
L 180.288079 360.678804 
L 180.35391 360.678804 
L 180.507516 360.176521 
L 180.573347 360.176521 
L 180.726953 359.674238 
L 180.792784 359.674238 
L 180.94639 359.171955 
L 181.012221 359.171955 
L 181.165827 358.669672 
L 181.231658 358.669672 
L 181.385264 358.16739 
L 181.451095 358.16739 
L 181.604701 357.665107 
L 181.670532 357.665107 
L 181.824138 357.162824 
L 181.889969 357.162824 
L 182.043575 356.660541 
L 182.109406 356.660541 
L 182.263012 356.158258 
L 182.328843 356.158258 
L 182.482449 355.655975 
L 182.54828 355.655975 
L 182.701886 355.153692 
L 182.767717 355.153692 
L 182.921323 354.651409 
L 182.987154 354.651409 
L 183.14076 354.149126 
L 183.206592 354.149126 
L 183.360197 353.646843 
L 183.426029 353.646843 
L 183.579634 353.144561 
L 183.645466 353.144561 
L 183.799072 352.642278 
L 183.864903 352.642278 
L 184.018509 352.139995 
L 184.08434 352.139995 
L 184.237946 351.637712 
L 184.303777 351.637712 
L 184.457383 351.135429 
L 184.523214 351.135429 
L 184.67682 350.633146 
L 184.742651 350.633146 
L 184.896257 350.130863 
L 184.962088 350.130863 
L 185.115694 349.62858 
L 185.181525 349.62858 
L 185.335131 349.126297 
L 185.400962 349.126297 
L 185.554568 348.624015 
L 185.620399 348.624015 
L 185.774005 348.121732 
L 185.839836 348.121732 
L 185.993442 347.619449 
L 186.059273 347.619449 
L 186.212879 347.117166 
L 186.27871 347.117166 
L 186.432316 346.614883 
L 186.498147 346.614883 
L 186.651753 346.1126 
L 186.717584 346.1126 
L 186.87119 345.610317 
L 186.937021 345.610317 
L 187.090627 345.108034 
L 187.156458 345.108034 
L 187.310064 344.605751 
L 187.375895 344.605751 
L 187.529501 344.103468 
L 187.595332 344.103468 
L 187.748938 343.601186 
L 187.814769 343.601186 
L 187.968375 343.098903 
L 188.034206 343.098903 
L 188.187812 342.59662 
L 188.253643 342.59662 
L 188.407249 342.094337 
L 188.473081 342.094337 
L 188.626686 341.592054 
L 188.692518 341.592054 
L 188.846124 341.089771 
L 188.911955 341.089771 
L 189.065561 340.587488 
L 189.131392 340.587488 
L 189.284998 340.085205 
L 189.350829 340.085205 
L 189.504435 339.582922 
L 189.570266 339.582922 
L 189.723872 339.08064 
L 189.789703 339.08064 
L 189.943309 338.578357 
L 190.00914 338.578357 
L 190.162746 338.076074 
L 190.228577 338.076074 
L 190.382183 337.573791 
L 190.448014 337.573791 
L 190.60162 337.071508 
L 190.667451 337.071508 
L 190.821057 336.569225 
L 190.886888 336.569225 
L 191.040494 336.066942 
L 191.106325 336.066942 
L 191.259931 335.564659 
L 191.325762 335.564659 
L 191.479368 335.062376 
L 191.545199 335.062376 
L 191.698805 334.560093 
L 191.764636 334.560093 
L 191.918242 334.057811 
L 191.984073 334.057811 
L 192.137679 333.555528 
L 192.20351 333.555528 
L 192.357116 333.053245 
L 192.422947 333.053245 
L 192.576553 332.550962 
L 192.642384 332.550962 
L 192.79599 332.048679 
L 192.861821 332.048679 
L 193.015427 331.546396 
L 193.081258 331.546396 
L 193.234864 331.044113 
L 193.300695 331.044113 
L 193.454301 330.54183 
L 193.520133 330.54183 
L 193.673738 330.039547 
L 193.73957 330.039547 
L 193.893176 329.537265 
L 193.959007 329.537265 
L 194.112613 329.034982 
L 194.178444 329.034982 
L 194.33205 328.532699 
L 194.397881 328.532699 
L 194.551487 328.030416 
L 194.617318 328.030416 
L 194.770924 327.528133 
L 194.836755 327.528133 
L 194.990361 327.02585 
L 195.056192 327.02585 
L 195.209798 326.523567 
L 195.275629 326.523567 
L 195.429235 326.021284 
L 195.495066 326.021284 
L 195.648672 325.519001 
L 195.714503 325.519001 
L 195.868109 325.016718 
L 195.93394 325.016718 
L 196.087546 324.514436 
L 196.153377 324.514436 
L 196.306983 324.012153 
L 196.372814 324.012153 
L 196.52642 323.50987 
L 196.592251 323.50987 
L 196.745857 323.007587 
L 196.811688 323.007587 
L 196.965294 322.505304 
L 197.031125 322.505304 
L 197.184731 322.003021 
L 197.250562 322.003021 
L 197.404168 321.500738 
L 197.469999 321.500738 
L 197.623605 320.998455 
L 197.689436 320.998455 
L 197.843042 320.496172 
L 197.908873 320.496172 
L 198.062479 319.99389 
L 198.12831 319.99389 
L 198.281916 319.491607 
L 198.347747 319.491607 
L 198.501353 318.989324 
L 198.567185 318.989324 
L 198.72079 318.487041 
L 198.786622 318.487041 
L 198.940227 317.984758 
L 199.006059 317.984758 
L 199.159665 317.482475 
L 199.225496 317.482475 
L 199.379102 316.980192 
L 199.444933 316.980192 
L 199.598539 316.477909 
L 199.66437 316.477909 
L 199.817976 315.975626 
L 199.883807 315.975626 
L 200.037413 315.473343 
L 200.103244 315.473343 
L 200.25685 314.971061 
L 200.322681 314.971061 
L 200.476287 314.468778 
L 200.542118 314.468778 
L 200.695724 313.966495 
L 200.761555 313.966495 
L 200.915161 313.464212 
L 200.980992 313.464212 
L 201.134598 312.961929 
L 201.200429 312.961929 
L 201.354035 312.459646 
L 201.419866 312.459646 
L 201.573472 311.957363 
L 201.639303 311.957363 
L 201.792909 311.45508 
L 201.85874 311.45508 
L 202.012346 310.952797 
L 202.078177 310.952797 
L 202.231783 310.450515 
L 202.297614 310.450515 
L 202.45122 309.948232 
L 202.517051 309.948232 
L 202.670657 309.445949 
L 202.736488 309.445949 
L 202.890094 308.943666 
L 202.955925 308.943666 
L 203.109531 308.441383 
L 203.175362 308.441383 
L 203.328968 307.9391 
L 203.394799 307.9391 
L 203.548405 307.436817 
L 203.614237 307.436817 
L 203.767842 306.934534 
L 203.833674 306.934534 
L 203.987279 306.432251 
L 204.053111 306.432251 
L 204.206717 305.929968 
L 204.272548 305.929968 
L 204.426154 305.427686 
L 204.491985 305.427686 
L 204.645591 304.925403 
L 204.711422 304.925403 
L 204.865028 304.42312 
L 204.930859 304.42312 
L 205.084465 303.920837 
L 205.150296 303.920837 
L 205.303902 303.418554 
L 205.369733 303.418554 
L 205.501395 303.167413 
L 247.611364 303.167413 
L 247.611364 303.167413 
" style="fill:none;stroke:#000000;stroke-dasharray:5.55,2.4;stroke-dashoffset:0;stroke-opacity:0.595;stroke-width:1.5;"/>
   </g>
   <g id="patch_13">
    <path d="M 81.74 505.24 
L 81.74 293.4 
" style="fill:none;stroke:#000000;stroke-linecap:square;stroke-linejoin:miter;stroke-width:0.8;"/>
   </g>
   <g id="patch_14">
    <path d="M 255.51 505.24 
L 255.51 293.4 
" style="fill:none;stroke:#000000;stroke-linecap:square;stroke-linejoin:miter;stroke-width:0.8;"/>
   </g>
   <g id="patch_15">
    <path d="M 81.74 505.24 
L 255.51 505.24 
" style="fill:none;stroke:#000000;stroke-linecap:square;stroke-linejoin:miter;stroke-width:0.8;"/>
   </g>
   <g id="patch_16">
    <path d="M 81.74 293.4 
L 255.51 293.4 
" style="fill:none;stroke:#000000;stroke-linecap:square;stroke-linejoin:miter;stroke-width:0.8;"/>
   </g>
  </g>
  <g id="axes_4">
   <g id="patch_17">
    <path d="M 305.03 505.24 
L 478.8 505.24 
L 478.8 293.4 
L 305.03 293.4 
z
" style="fill:#ffffff;"/>
   </g>
   <g id="matplotlib.axis_7">
    <g id="xtick_13">
     <g id="line2d_74">
      <path clip-path="url(#p33aee89349)" d="M 312.928636 505.24 
L 312.928636 293.4 
" style="fill:none;stroke:#b0b0b0;stroke-linecap:square;stroke-width:0.8;"/>
     </g>
     <g id="line2d_75">
      <g>
       <use style="stroke:#000000;stroke-width:0.8;" x="312.928636" xlink:href="#m260edf9fcf" y="505.24"/>
      </g>
     </g>
     <g id="text_39">
      <!-- 0 -->
      <g transform="translate(309.747386 519.838437)scale(0.1 -0.1)">
       <use xlink:href="#DejaVuSans-30"/>
      </g>
     </g>
    </g>
    <g id="xtick_14">
     <g id="line2d_76">
      <path clip-path="url(#p33aee89349)" d="M 365.593527 505.24 
L 365.593527 293.4 
" style="fill:none;stroke:#b0b0b0;stroke-linecap:square;stroke-width:0.8;"/>
     </g>
     <g id="line2d_77">
      <g>
       <use style="stroke:#000000;stroke-width:0.8;" x="365.593527" xlink:href="#m260edf9fcf" y="505.24"/>
      </g>
     </g>
     <g id="text_40">
      <!-- 10 -->
      <g transform="translate(359.231027 519.838437)scale(0.1 -0.1)">
       <use xlink:href="#DejaVuSans-31"/>
       <use x="63.623047" xlink:href="#DejaVuSans-30"/>
      </g>
     </g>
    </g>
    <g id="xtick_15">
     <g id="line2d_78">
      <path clip-path="url(#p33aee89349)" d="M 418.258417 505.24 
L 418.258417 293.4 
" style="fill:none;stroke:#b0b0b0;stroke-linecap:square;stroke-width:0.8;"/>
     </g>
     <g id="line2d_79">
      <g>
       <use style="stroke:#000000;stroke-width:0.8;" x="418.258417" xlink:href="#m260edf9fcf" y="505.24"/>
      </g>
     </g>
     <g id="text_41">
      <!-- 20 -->
      <g transform="translate(411.895917 519.838437)scale(0.1 -0.1)">
       <use xlink:href="#DejaVuSans-32"/>
       <use x="63.623047" xlink:href="#DejaVuSans-30"/>
      </g>
     </g>
    </g>
    <g id="xtick_16">
     <g id="line2d_80">
      <path clip-path="url(#p33aee89349)" d="M 470.923307 505.24 
L 470.923307 293.4 
" style="fill:none;stroke:#b0b0b0;stroke-linecap:square;stroke-width:0.8;"/>
     </g>
     <g id="line2d_81">
      <g>
       <use style="stroke:#000000;stroke-width:0.8;" x="470.923307" xlink:href="#m260edf9fcf" y="505.24"/>
      </g>
     </g>
     <g id="text_42">
      <!-- 30 -->
      <g transform="translate(464.560807 519.838437)scale(0.1 -0.1)">
       <use xlink:href="#DejaVuSans-33"/>
       <use x="63.623047" xlink:href="#DejaVuSans-30"/>
      </g>
     </g>
    </g>
    <g id="text_43">
     <!-- Tiempo (s) -->
     <g transform="translate(365.3525 533.516562)scale(0.1 -0.1)">
      <use xlink:href="#DejaVuSans-54"/>
      <use x="57.958984" xlink:href="#DejaVuSans-69"/>
      <use x="85.742188" xlink:href="#DejaVuSans-65"/>
      <use x="147.265625" xlink:href="#DejaVuSans-6d"/>
      <use x="244.677734" xlink:href="#DejaVuSans-70"/>
      <use x="308.154297" xlink:href="#DejaVuSans-6f"/>
      <use x="369.335938" xlink:href="#DejaVuSans-20"/>
      <use x="401.123047" xlink:href="#DejaVuSans-28"/>
      <use x="440.136719" xlink:href="#DejaVuSans-73"/>
      <use x="492.236328" xlink:href="#DejaVuSans-29"/>
     </g>
    </g>
   </g>
   <g id="matplotlib.axis_8">
    <g id="ytick_21">
     <g id="line2d_82">
      <path clip-path="url(#p33aee89349)" d="M 305.03 491.457667 
L 478.8 491.457667 
" style="fill:none;stroke:#b0b0b0;stroke-linecap:square;stroke-width:0.8;"/>
     </g>
     <g id="line2d_83">
      <g>
       <use style="stroke:#000000;stroke-width:0.8;" x="305.03" xlink:href="#m853d740e69" y="491.457667"/>
      </g>
     </g>
     <g id="text_44">
      <!-- −3 -->
      <g transform="translate(283.287813 495.256886)scale(0.1 -0.1)">
       <use xlink:href="#DejaVuSans-2212"/>
       <use x="83.789062" xlink:href="#DejaVuSans-33"/>
      </g>
     </g>
    </g>
    <g id="ytick_22">
     <g id="line2d_84">
      <path clip-path="url(#p33aee89349)" d="M 305.03 460.749931 
L 478.8 460.749931 
" style="fill:none;stroke:#b0b0b0;stroke-linecap:square;stroke-width:0.8;"/>
     </g>
     <g id="line2d_85">
      <g>
       <use style="stroke:#000000;stroke-width:0.8;" x="305.03" xlink:href="#m853d740e69" y="460.749931"/>
      </g>
     </g>
     <g id="text_45">
      <!-- −2 -->
      <g transform="translate(283.287813 464.54915)scale(0.1 -0.1)">
       <use xlink:href="#DejaVuSans-2212"/>
       <use x="83.789062" xlink:href="#DejaVuSans-32"/>
      </g>
     </g>
    </g>
    <g id="ytick_23">
     <g id="line2d_86">
      <path clip-path="url(#p33aee89349)" d="M 305.03 430.042195 
L 478.8 430.042195 
" style="fill:none;stroke:#b0b0b0;stroke-linecap:square;stroke-width:0.8;"/>
     </g>
     <g id="line2d_87">
      <g>
       <use style="stroke:#000000;stroke-width:0.8;" x="305.03" xlink:href="#m853d740e69" y="430.042195"/>
      </g>
     </g>
     <g id="text_46">
      <!-- −1 -->
      <g transform="translate(283.287813 433.841414)scale(0.1 -0.1)">
       <use xlink:href="#DejaVuSans-2212"/>
       <use x="83.789062" xlink:href="#DejaVuSans-31"/>
      </g>
     </g>
    </g>
    <g id="ytick_24">
     <g id="line2d_88">
      <path clip-path="url(#p33aee89349)" d="M 305.03 399.334459 
L 478.8 399.334459 
" style="fill:none;stroke:#b0b0b0;stroke-linecap:square;stroke-width:0.8;"/>
     </g>
     <g id="line2d_89">
      <g>
       <use style="stroke:#000000;stroke-width:0.8;" x="305.03" xlink:href="#m853d740e69" y="399.334459"/>
      </g>
     </g>
     <g id="text_47">
      <!-- 0 -->
      <g transform="translate(291.6675 403.133678)scale(0.1 -0.1)">
       <use xlink:href="#DejaVuSans-30"/>
      </g>
     </g>
    </g>
    <g id="ytick_25">
     <g id="line2d_90">
      <path clip-path="url(#p33aee89349)" d="M 305.03 368.626723 
L 478.8 368.626723 
" style="fill:none;stroke:#b0b0b0;stroke-linecap:square;stroke-width:0.8;"/>
     </g>
     <g id="line2d_91">
      <g>
       <use style="stroke:#000000;stroke-width:0.8;" x="305.03" xlink:href="#m853d740e69" y="368.626723"/>
      </g>
     </g>
     <g id="text_48">
      <!-- 1 -->
      <g transform="translate(291.6675 372.425942)scale(0.1 -0.1)">
       <use xlink:href="#DejaVuSans-31"/>
      </g>
     </g>
    </g>
    <g id="ytick_26">
     <g id="line2d_92">
      <path clip-path="url(#p33aee89349)" d="M 305.03 337.918987 
L 478.8 337.918987 
" style="fill:none;stroke:#b0b0b0;stroke-linecap:square;stroke-width:0.8;"/>
     </g>
     <g id="line2d_93">
      <g>
       <use style="stroke:#000000;stroke-width:0.8;" x="305.03" xlink:href="#m853d740e69" y="337.918987"/>
      </g>
     </g>
     <g id="text_49">
      <!-- 2 -->
      <g transform="translate(291.6675 341.718206)scale(0.1 -0.1)">
       <use xlink:href="#DejaVuSans-32"/>
      </g>
     </g>
    </g>
    <g id="ytick_27">
     <g id="line2d_94">
      <path clip-path="url(#p33aee89349)" d="M 305.03 307.211251 
L 478.8 307.211251 
" style="fill:none;stroke:#b0b0b0;stroke-linecap:square;stroke-width:0.8;"/>
     </g>
     <g id="line2d_95">
      <g>
       <use style="stroke:#000000;stroke-width:0.8;" x="305.03" xlink:href="#m853d740e69" y="307.211251"/>
      </g>
     </g>
     <g id="text_50">
      <!-- 3 -->
      <g transform="translate(291.6675 311.01047)scale(0.1 -0.1)">
       <use xlink:href="#DejaVuSans-33"/>
      </g>
     </g>
    </g>
    <g id="text_51">
     <!-- $\psi$ (rad) -->
     <g transform="translate(277.187813 416.42)rotate(-90)scale(0.1 -0.1)">
      <defs>
       <path d="M 1591 -78 
Q 891 38 616 341 
Q 278 713 425 1472 
L 819 3500 
L 1400 3500 
L 1009 1494 
Q 900 922 1119 684 
Q 1313 478 1691 434 
L 2284 3500 
L 2856 3500 
L 2263 438 
Q 2681 481 2928 688 
Q 3247 950 3353 1497 
L 3741 3500 
L 4322 3500 
L 3928 1475 
Q 3775 688 3300 344 
Q 2872 34 2163 -75 
L 1919 -1331 
L 1347 -1331 
L 1591 -78 
z
" id="DejaVuSans-Oblique-3c8" transform="scale(0.015625)"/>
       <path d="M 2631 2963 
Q 2534 3019 2420 3045 
Q 2306 3072 2169 3072 
Q 1681 3072 1420 2755 
Q 1159 2438 1159 1844 
L 1159 0 
L 581 0 
L 581 3500 
L 1159 3500 
L 1159 2956 
Q 1341 3275 1631 3429 
Q 1922 3584 2338 3584 
Q 2397 3584 2469 3576 
Q 2541 3569 2628 3553 
L 2631 2963 
z
" id="DejaVuSans-72" transform="scale(0.015625)"/>
       <path d="M 2194 1759 
Q 1497 1759 1228 1600 
Q 959 1441 959 1056 
Q 959 750 1161 570 
Q 1363 391 1709 391 
Q 2188 391 2477 730 
Q 2766 1069 2766 1631 
L 2766 1759 
L 2194 1759 
z
M 3341 1997 
L 3341 0 
L 2766 0 
L 2766 531 
Q 2569 213 2275 61 
Q 1981 -91 1556 -91 
Q 1019 -91 701 211 
Q 384 513 384 1019 
Q 384 1609 779 1909 
Q 1175 2209 1959 2209 
L 2766 2209 
L 2766 2266 
Q 2766 2663 2505 2880 
Q 2244 3097 1772 3097 
Q 1472 3097 1187 3025 
Q 903 2953 641 2809 
L 641 3341 
Q 956 3463 1253 3523 
Q 1550 3584 1831 3584 
Q 2591 3584 2966 3190 
Q 3341 2797 3341 1997 
z
" id="DejaVuSans-61" transform="scale(0.015625)"/>
       <path d="M 2906 2969 
L 2906 4863 
L 3481 4863 
L 3481 0 
L 2906 0 
L 2906 525 
Q 2725 213 2448 61 
Q 2172 -91 1784 -91 
Q 1150 -91 751 415 
Q 353 922 353 1747 
Q 353 2572 751 3078 
Q 1150 3584 1784 3584 
Q 2172 3584 2448 3432 
Q 2725 3281 2906 2969 
z
M 947 1747 
Q 947 1113 1208 752 
Q 1469 391 1925 391 
Q 2381 391 2643 752 
Q 2906 1113 2906 1747 
Q 2906 2381 2643 2742 
Q 2381 3103 1925 3103 
Q 1469 3103 1208 2742 
Q 947 2381 947 1747 
z
" id="DejaVuSans-64" transform="scale(0.015625)"/>
      </defs>
      <use transform="translate(0 0.015625)" xlink:href="#DejaVuSans-Oblique-3c8"/>
      <use transform="translate(65.966797 0.015625)" xlink:href="#DejaVuSans-20"/>
      <use transform="translate(97.753906 0.015625)" xlink:href="#DejaVuSans-28"/>
      <use transform="translate(136.767578 0.015625)" xlink:href="#DejaVuSans-72"/>
      <use transform="translate(177.880859 0.015625)" xlink:href="#DejaVuSans-61"/>
      <use transform="translate(239.160156 0.015625)" xlink:href="#DejaVuSans-64"/>
      <use transform="translate(302.636719 0.015625)" xlink:href="#DejaVuSans-29"/>
     </g>
    </g>
   </g>
   <g id="line2d_96">
    <path clip-path="url(#p33aee89349)" d="M 312.928636 399.334459 
L 470.901364 399.334459 
L 470.901364 399.334459 
" style="fill:none;stroke:#1f77b4;stroke-linecap:square;stroke-opacity:0.7;stroke-width:1.5;"/>
   </g>
   <g id="line2d_97">
    <path clip-path="url(#p33aee89349)" d="M 312.928636 399.334459 
L 313.630835 399.446673 
L 314.354977 399.792617 
L 315.298556 400.304986 
L 315.583825 400.163766 
L 316.417685 399.641033 
L 317.185715 399.437413 
L 317.953745 399.46731 
L 318.787605 399.73192 
L 319.599522 399.970362 
L 328.442835 400.087947 
L 356.223565 400.219657 
L 356.816045 400.187756 
L 357.781568 400.082727 
L 358.571541 400.284522 
L 359.164021 400.354753 
L 360.700081 400.154718 
L 363.311381 400.615288 
L 368.446208 400.891289 
L 377.838114 401.183462 
L 386.900864 401.530707 
L 391.223773 401.952024 
L 392.408733 402.308551 
L 393.681468 402.942914 
L 395.129753 403.919824 
L 396.204994 404.915802 
L 397.258292 406.216605 
L 398.90407 408.666743 
L 405.926055 419.775279 
L 407.549889 422.918898 
L 409.085949 426.39425 
L 412.596941 434.654478 
L 412.860266 434.914435 
L 412.991928 434.730938 
L 413.211365 433.906499 
L 413.540521 431.657485 
L 414.001338 426.794281 
L 414.593818 417.822036 
L 415.647116 401.686225 
L 416.129878 397.326782 
L 416.502921 395.589367 
L 416.766245 395.147467 
L 416.941795 395.176194 
L 417.161232 395.517006 
L 417.753712 397.074634 
L 418.785066 400.409894 
L 420.057801 405.309282 
L 423.349356 418.522973 
L 424.402654 421.504672 
L 425.609558 424.245736 
L 427.145617 427.176414 
L 428.550014 429.429581 
L 429.405819 430.419025 
L 430.108017 430.903551 
L 431.095484 431.271687 
L 432.061007 431.726988 
L 433.377629 432.402887 
L 433.772616 432.312473 
L 434.189546 431.968198 
L 434.957576 431.015123 
L 435.352563 430.155235 
L 436.99834 425.083406 
L 437.437215 422.179386 
L 439.061049 410.237284 
L 439.390204 409.605979 
L 439.741304 409.014311 
L 439.960741 408.092982 
L 440.31184 405.381128 
L 440.992095 397.802291 
L 441.518744 393.395739 
L 441.91373 391.655973 
L 442.08928 391.510118 
L 442.220942 391.671142 
L 442.440379 392.357767 
L 442.791478 394.27808 
L 443.186465 397.699354 
L 443.515621 402.546822 
L 443.86672 411.51982 
L 444.305594 429.588441 
L 445.688047 495.093719 
L 445.709991 303.289267 
L 445.81971 308.815439 
L 446.456077 334.756482 
L 447.289938 366.460503 
L 447.728812 395.452 
L 448.277405 428.44215 
L 449.220984 475.598712 
L 449.440421 495.348554 
L 449.462365 304.44432 
L 449.572083 314.06994 
L 449.96707 337.596728 
L 450.822874 377.147918 
L 451.590904 444.257244 
L 452.600314 482.094294 
L 452.797808 495.544357 
L 452.819751 304.2164 
L 452.92947 312.32148 
L 453.456119 342.674412 
L 454.268036 381.712812 
L 454.663022 424.244953 
L 455.014122 447.247817 
L 455.628545 469.286972 
L 456.155194 491.747497 
L 456.221025 495.194694 
L 456.242969 303.42749 
L 456.352688 309.445324 
L 457.186548 349.834143 
L 457.888747 381.881084 
L 458.459283 424.743444 
L 458.963988 452.34305 
L 459.907568 494.856112 
L 459.929511 303.029091 
L 460.03923 308.650386 
L 461.180303 361.628738 
L 461.794726 394.454466 
L 462.782193 449.091337 
L 463.747716 495.569553 
L 463.76966 303.741567 
L 463.879378 309.266729 
L 464.866845 353.39727 
L 465.766537 379.06838 
L 467.609808 440.996152 
L 469.211698 495.610909 
L 469.233642 303.457294 
L 469.343361 307.431783 
L 470.308884 347.003951 
L 470.901364 373.954201 
L 470.901364 373.954201 
" style="fill:none;stroke:#d62728;stroke-linecap:square;stroke-opacity:0.7;stroke-width:1.5;"/>
   </g>
   <g id="line2d_98">
    <path clip-path="url(#p33aee89349)" d="M 312.928636 399.334459 
L 470.901364 399.334459 
L 470.901364 399.334459 
" style="fill:none;stroke:#000000;stroke-dasharray:5.55,2.4;stroke-dashoffset:0;stroke-opacity:0.595;stroke-width:1.5;"/>
   </g>
   <g id="patch_18">
    <path d="M 305.03 505.24 
L 305.03 293.4 
" style="fill:none;stroke:#000000;stroke-linecap:square;stroke-linejoin:miter;stroke-width:0.8;"/>
   </g>
   <g id="patch_19">
    <path d="M 478.8 505.24 
L 478.8 293.4 
" style="fill:none;stroke:#000000;stroke-linecap:square;stroke-linejoin:miter;stroke-width:0.8;"/>
   </g>
   <g id="patch_20">
    <path d="M 305.03 505.24 
L 478.8 505.24 
" style="fill:none;stroke:#000000;stroke-linecap:square;stroke-linejoin:miter;stroke-width:0.8;"/>
   </g>
   <g id="patch_21">
    <path d="M 305.03 293.4 
L 478.8 293.4 
" style="fill:none;stroke:#000000;stroke-linecap:square;stroke-linejoin:miter;stroke-width:0.8;"/>
   </g>
  </g>
  <g id="legend_1">
   <g id="patch_22">
    <path d="M 483.89375 311.517187 
L 569 311.517187 
Q 571 311.517187 571 309.517187 
L 571 266.482812 
Q 571 264.482812 569 264.482812 
L 483.89375 264.482812 
Q 481.89375 264.482812 481.89375 266.482812 
L 481.89375 309.517187 
Q 481.89375 311.517187 483.89375 311.517187 
z
" style="fill:#ffffff;opacity:0.8;stroke:#cccccc;stroke-linejoin:miter;"/>
   </g>
   <g id="line2d_99">
    <path d="M 485.89375 272.58125 
L 505.89375 272.58125 
" style="fill:none;stroke:#1f77b4;stroke-linecap:square;stroke-opacity:0.7;stroke-width:1.5;"/>
   </g>
   <g id="line2d_100"/>
   <g id="text_52">
    <!-- DSLPID -->
    <g transform="translate(513.89375 276.08125)scale(0.1 -0.1)">
     <defs>
      <path d="M 1259 4147 
L 1259 519 
L 2022 519 
Q 2988 519 3436 956 
Q 3884 1394 3884 2338 
Q 3884 3275 3436 3711 
Q 2988 4147 2022 4147 
L 1259 4147 
z
M 628 4666 
L 1925 4666 
Q 3281 4666 3915 4102 
Q 4550 3538 4550 2338 
Q 4550 1131 3912 565 
Q 3275 0 1925 0 
L 628 0 
L 628 4666 
z
" id="DejaVuSans-44" transform="scale(0.015625)"/>
      <path d="M 3425 4513 
L 3425 3897 
Q 3066 4069 2747 4153 
Q 2428 4238 2131 4238 
Q 1616 4238 1336 4038 
Q 1056 3838 1056 3469 
Q 1056 3159 1242 3001 
Q 1428 2844 1947 2747 
L 2328 2669 
Q 3034 2534 3370 2195 
Q 3706 1856 3706 1288 
Q 3706 609 3251 259 
Q 2797 -91 1919 -91 
Q 1588 -91 1214 -16 
Q 841 59 441 206 
L 441 856 
Q 825 641 1194 531 
Q 1563 422 1919 422 
Q 2459 422 2753 634 
Q 3047 847 3047 1241 
Q 3047 1584 2836 1778 
Q 2625 1972 2144 2069 
L 1759 2144 
Q 1053 2284 737 2584 
Q 422 2884 422 3419 
Q 422 4038 858 4394 
Q 1294 4750 2059 4750 
Q 2388 4750 2728 4690 
Q 3069 4631 3425 4513 
z
" id="DejaVuSans-53" transform="scale(0.015625)"/>
      <path d="M 628 4666 
L 1259 4666 
L 1259 531 
L 3531 531 
L 3531 0 
L 628 0 
L 628 4666 
z
" id="DejaVuSans-4c" transform="scale(0.015625)"/>
      <path d="M 1259 4147 
L 1259 2394 
L 2053 2394 
Q 2494 2394 2734 2622 
Q 2975 2850 2975 3272 
Q 2975 3691 2734 3919 
Q 2494 4147 2053 4147 
L 1259 4147 
z
M 628 4666 
L 2053 4666 
Q 2838 4666 3239 4311 
Q 3641 3956 3641 3272 
Q 3641 2581 3239 2228 
Q 2838 1875 2053 1875 
L 1259 1875 
L 1259 0 
L 628 0 
L 628 4666 
z
" id="DejaVuSans-50" transform="scale(0.015625)"/>
      <path d="M 628 4666 
L 1259 4666 
L 1259 0 
L 628 0 
L 628 4666 
z
" id="DejaVuSans-49" transform="scale(0.015625)"/>
     </defs>
     <use xlink:href="#DejaVuSans-44"/>
     <use x="77.001953" xlink:href="#DejaVuSans-53"/>
     <use x="140.478516" xlink:href="#DejaVuSans-4c"/>
     <use x="196.191406" xlink:href="#DejaVuSans-50"/>
     <use x="256.494141" xlink:href="#DejaVuSans-49"/>
     <use x="285.986328" xlink:href="#DejaVuSans-44"/>
    </g>
   </g>
   <g id="line2d_101">
    <path d="M 485.89375 287.259375 
L 505.89375 287.259375 
" style="fill:none;stroke:#d62728;stroke-linecap:square;stroke-opacity:0.7;stroke-width:1.5;"/>
   </g>
   <g id="line2d_102"/>
   <g id="text_53">
    <!-- LSTMCNN -->
    <g transform="translate(513.89375 290.759375)scale(0.1 -0.1)">
     <defs>
      <path d="M 628 4666 
L 1569 4666 
L 2759 1491 
L 3956 4666 
L 4897 4666 
L 4897 0 
L 4281 0 
L 4281 4097 
L 3078 897 
L 2444 897 
L 1241 4097 
L 1241 0 
L 628 0 
L 628 4666 
z
" id="DejaVuSans-4d" transform="scale(0.015625)"/>
      <path d="M 4122 4306 
L 4122 3641 
Q 3803 3938 3442 4084 
Q 3081 4231 2675 4231 
Q 1875 4231 1450 3742 
Q 1025 3253 1025 2328 
Q 1025 1406 1450 917 
Q 1875 428 2675 428 
Q 3081 428 3442 575 
Q 3803 722 4122 1019 
L 4122 359 
Q 3791 134 3420 21 
Q 3050 -91 2638 -91 
Q 1578 -91 968 557 
Q 359 1206 359 2328 
Q 359 3453 968 4101 
Q 1578 4750 2638 4750 
Q 3056 4750 3426 4639 
Q 3797 4528 4122 4306 
z
" id="DejaVuSans-43" transform="scale(0.015625)"/>
      <path d="M 628 4666 
L 1478 4666 
L 3547 763 
L 3547 4666 
L 4159 4666 
L 4159 0 
L 3309 0 
L 1241 3903 
L 1241 0 
L 628 0 
L 628 4666 
z
" id="DejaVuSans-4e" transform="scale(0.015625)"/>
     </defs>
     <use xlink:href="#DejaVuSans-4c"/>
     <use x="55.712891" xlink:href="#DejaVuSans-53"/>
     <use x="119.189453" xlink:href="#DejaVuSans-54"/>
     <use x="180.273438" xlink:href="#DejaVuSans-4d"/>
     <use x="266.552734" xlink:href="#DejaVuSans-43"/>
     <use x="336.376953" xlink:href="#DejaVuSans-4e"/>
     <use x="411.181641" xlink:href="#DejaVuSans-4e"/>
    </g>
   </g>
   <g id="line2d_103">
    <path d="M 485.89375 301.9375 
L 505.89375 301.9375 
" style="fill:none;stroke:#000000;stroke-dasharray:5.55,2.4;stroke-dashoffset:0;stroke-opacity:0.595;stroke-width:1.5;"/>
   </g>
   <g id="line2d_104"/>
   <g id="text_54">
    <!-- Referencia -->
    <g transform="translate(513.89375 305.4375)scale(0.1 -0.1)">
     <defs>
      <path d="M 2841 2188 
Q 3044 2119 3236 1894 
Q 3428 1669 3622 1275 
L 4263 0 
L 3584 0 
L 2988 1197 
Q 2756 1666 2539 1819 
Q 2322 1972 1947 1972 
L 1259 1972 
L 1259 0 
L 628 0 
L 628 4666 
L 2053 4666 
Q 2853 4666 3247 4331 
Q 3641 3997 3641 3322 
Q 3641 2881 3436 2590 
Q 3231 2300 2841 2188 
z
M 1259 4147 
L 1259 2491 
L 2053 2491 
Q 2509 2491 2742 2702 
Q 2975 2913 2975 3322 
Q 2975 3731 2742 3939 
Q 2509 4147 2053 4147 
L 1259 4147 
z
" id="DejaVuSans-52" transform="scale(0.015625)"/>
      <path d="M 2375 4863 
L 2375 4384 
L 1825 4384 
Q 1516 4384 1395 4259 
Q 1275 4134 1275 3809 
L 1275 3500 
L 2222 3500 
L 2222 3053 
L 1275 3053 
L 1275 0 
L 697 0 
L 697 3053 
L 147 3053 
L 147 3500 
L 697 3500 
L 697 3744 
Q 697 4328 969 4595 
Q 1241 4863 1831 4863 
L 2375 4863 
z
" id="DejaVuSans-66" transform="scale(0.015625)"/>
      <path d="M 3513 2113 
L 3513 0 
L 2938 0 
L 2938 2094 
Q 2938 2591 2744 2837 
Q 2550 3084 2163 3084 
Q 1697 3084 1428 2787 
Q 1159 2491 1159 1978 
L 1159 0 
L 581 0 
L 581 3500 
L 1159 3500 
L 1159 2956 
Q 1366 3272 1645 3428 
Q 1925 3584 2291 3584 
Q 2894 3584 3203 3211 
Q 3513 2838 3513 2113 
z
" id="DejaVuSans-6e" transform="scale(0.015625)"/>
      <path d="M 3122 3366 
L 3122 2828 
Q 2878 2963 2633 3030 
Q 2388 3097 2138 3097 
Q 1578 3097 1268 2742 
Q 959 2388 959 1747 
Q 959 1106 1268 751 
Q 1578 397 2138 397 
Q 2388 397 2633 464 
Q 2878 531 3122 666 
L 3122 134 
Q 2881 22 2623 -34 
Q 2366 -91 2075 -91 
Q 1284 -91 818 406 
Q 353 903 353 1747 
Q 353 2603 823 3093 
Q 1294 3584 2113 3584 
Q 2378 3584 2631 3529 
Q 2884 3475 3122 3366 
z
" id="DejaVuSans-63" transform="scale(0.015625)"/>
     </defs>
     <use xlink:href="#DejaVuSans-52"/>
     <use x="64.982422" xlink:href="#DejaVuSans-65"/>
     <use x="126.505859" xlink:href="#DejaVuSans-66"/>
     <use x="161.710938" xlink:href="#DejaVuSans-65"/>
     <use x="223.234375" xlink:href="#DejaVuSans-72"/>
     <use x="262.097656" xlink:href="#DejaVuSans-65"/>
     <use x="323.621094" xlink:href="#DejaVuSans-6e"/>
     <use x="387" xlink:href="#DejaVuSans-63"/>
     <use x="441.980469" xlink:href="#DejaVuSans-69"/>
     <use x="469.763672" xlink:href="#DejaVuSans-61"/>
    </g>
   </g>
  </g>
 </g>
 <defs>
  <clipPath id="p50934b59cc">
   <rect height="211.84" width="173.77" x="81.74" y="39.6"/>
  </clipPath>
  <clipPath id="p1909448076">
   <rect height="211.84" width="173.77" x="305.03" y="39.6"/>
  </clipPath>
  <clipPath id="p9fd89100c6">
   <rect height="211.84" width="173.77" x="81.74" y="293.4"/>
  </clipPath>
  <clipPath id="p33aee89349">
   <rect height="211.84" width="173.77" x="305.03" y="293.4"/>
  </clipPath>
 </defs>
</svg>
