<?xml version="1.0" encoding="utf-8" standalone="no"?>
<!DOCTYPE svg PUBLIC "-//W3C//DTD SVG 1.1//EN"
  "http://www.w3.org/Graphics/SVG/1.1/DTD/svg11.dtd">
<svg height="288pt" version="1.1" viewBox="0 0 576 288" width="576pt" xmlns="http://www.w3.org/2000/svg" xmlns:xlink="http://www.w3.org/1999/xlink">
 <metadata>
  <rdf:RDF xmlns:cc="http://creativecommons.org/ns#" xmlns:dc="http://purl.org/dc/elements/1.1/" xmlns:rdf="http://www.w3.org/1999/02/22-rdf-syntax-ns#">
   <cc:Work>
    <dc:type rdf:resource="http://purl.org/dc/dcmitype/StillImage"/>
    <dc:date>2022-02-28T02:48:11.985425</dc:date>
    <dc:format>image/svg+xml</dc:format>
    <dc:creator>
     <cc:Agent>
      <dc:title>Matplotlib v3.4.3, https://matplotlib.org/</dc:title>
     </cc:Agent>
    </dc:creator>
   </cc:Work>
  </rdf:RDF>
 </metadata>
 <defs>
  <style type="text/css">*{stroke-linecap:butt;stroke-linejoin:round;}</style>
 </defs>
 <g id="figure_1">
  <g id="patch_1">
   <path d="M 0 288 
L 576 288 
L 576 0 
L 0 0 
z
" style="fill:#ffffff;"/>
  </g>
  <g id="axes_1">
   <g id="patch_2">
    <path d="M 67.07 231.64 
L 253.8 231.64 
L 253.8 41.28 
L 67.07 41.28 
z
" style="fill:#ffffff;"/>
   </g>
   <g id="matplotlib.axis_1">
    <g id="xtick_1">
     <g id="line2d_1">
      <path clip-path="url(#p4c4ac045d1)" d="M 76.410343 231.64 
L 76.410343 41.28 
" style="fill:none;stroke:#b0b0b0;stroke-linecap:square;stroke-width:0.8;"/>
     </g>
     <g id="line2d_2">
      <defs>
       <path d="M 0 0 
L 0 3.5 
" id="m781169c58a" style="stroke:#000000;stroke-width:0.8;"/>
      </defs>
      <g>
       <use style="stroke:#000000;stroke-width:0.8;" x="76.410343" xlink:href="#m781169c58a" y="231.64"/>
      </g>
     </g>
     <g id="text_1">
      <!-- −50 -->
      <g transform="translate(65.857999 246.238438)scale(0.1 -0.1)">
       <defs>
        <path d="M 678 2272 
L 4684 2272 
L 4684 1741 
L 678 1741 
L 678 2272 
z
" id="DejaVuSans-2212" transform="scale(0.015625)"/>
        <path d="M 691 4666 
L 3169 4666 
L 3169 4134 
L 1269 4134 
L 1269 2991 
Q 1406 3038 1543 3061 
Q 1681 3084 1819 3084 
Q 2600 3084 3056 2656 
Q 3513 2228 3513 1497 
Q 3513 744 3044 326 
Q 2575 -91 1722 -91 
Q 1428 -91 1123 -41 
Q 819 9 494 109 
L 494 744 
Q 775 591 1075 516 
Q 1375 441 1709 441 
Q 2250 441 2565 725 
Q 2881 1009 2881 1497 
Q 2881 1984 2565 2268 
Q 2250 2553 1709 2553 
Q 1456 2553 1204 2497 
Q 953 2441 691 2322 
L 691 4666 
z
" id="DejaVuSans-35" transform="scale(0.015625)"/>
        <path d="M 2034 4250 
Q 1547 4250 1301 3770 
Q 1056 3291 1056 2328 
Q 1056 1369 1301 889 
Q 1547 409 2034 409 
Q 2525 409 2770 889 
Q 3016 1369 3016 2328 
Q 3016 3291 2770 3770 
Q 2525 4250 2034 4250 
z
M 2034 4750 
Q 2819 4750 3233 4129 
Q 3647 3509 3647 2328 
Q 3647 1150 3233 529 
Q 2819 -91 2034 -91 
Q 1250 -91 836 529 
Q 422 1150 422 2328 
Q 422 3509 836 4129 
Q 1250 4750 2034 4750 
z
" id="DejaVuSans-30" transform="scale(0.015625)"/>
       </defs>
       <use xlink:href="#DejaVuSans-2212"/>
       <use x="83.789062" xlink:href="#DejaVuSans-35"/>
       <use x="147.412109" xlink:href="#DejaVuSans-30"/>
      </g>
     </g>
    </g>
    <g id="xtick_2">
     <g id="line2d_3">
      <path clip-path="url(#p4c4ac045d1)" d="M 109.944624 231.64 
L 109.944624 41.28 
" style="fill:none;stroke:#b0b0b0;stroke-linecap:square;stroke-width:0.8;"/>
     </g>
     <g id="line2d_4">
      <g>
       <use style="stroke:#000000;stroke-width:0.8;" x="109.944624" xlink:href="#m781169c58a" y="231.64"/>
      </g>
     </g>
     <g id="text_2">
      <!-- −40 -->
      <g transform="translate(99.39228 246.238438)scale(0.1 -0.1)">
       <defs>
        <path d="M 2419 4116 
L 825 1625 
L 2419 1625 
L 2419 4116 
z
M 2253 4666 
L 3047 4666 
L 3047 1625 
L 3713 1625 
L 3713 1100 
L 3047 1100 
L 3047 0 
L 2419 0 
L 2419 1100 
L 313 1100 
L 313 1709 
L 2253 4666 
z
" id="DejaVuSans-34" transform="scale(0.015625)"/>
       </defs>
       <use xlink:href="#DejaVuSans-2212"/>
       <use x="83.789062" xlink:href="#DejaVuSans-34"/>
       <use x="147.412109" xlink:href="#DejaVuSans-30"/>
      </g>
     </g>
    </g>
    <g id="xtick_3">
     <g id="line2d_5">
      <path clip-path="url(#p4c4ac045d1)" d="M 143.478904 231.64 
L 143.478904 41.28 
" style="fill:none;stroke:#b0b0b0;stroke-linecap:square;stroke-width:0.8;"/>
     </g>
     <g id="line2d_6">
      <g>
       <use style="stroke:#000000;stroke-width:0.8;" x="143.478904" xlink:href="#m781169c58a" y="231.64"/>
      </g>
     </g>
     <g id="text_3">
      <!-- −30 -->
      <g transform="translate(132.926561 246.238438)scale(0.1 -0.1)">
       <defs>
        <path d="M 2597 2516 
Q 3050 2419 3304 2112 
Q 3559 1806 3559 1356 
Q 3559 666 3084 287 
Q 2609 -91 1734 -91 
Q 1441 -91 1130 -33 
Q 819 25 488 141 
L 488 750 
Q 750 597 1062 519 
Q 1375 441 1716 441 
Q 2309 441 2620 675 
Q 2931 909 2931 1356 
Q 2931 1769 2642 2001 
Q 2353 2234 1838 2234 
L 1294 2234 
L 1294 2753 
L 1863 2753 
Q 2328 2753 2575 2939 
Q 2822 3125 2822 3475 
Q 2822 3834 2567 4026 
Q 2313 4219 1838 4219 
Q 1578 4219 1281 4162 
Q 984 4106 628 3988 
L 628 4550 
Q 988 4650 1302 4700 
Q 1616 4750 1894 4750 
Q 2613 4750 3031 4423 
Q 3450 4097 3450 3541 
Q 3450 3153 3228 2886 
Q 3006 2619 2597 2516 
z
" id="DejaVuSans-33" transform="scale(0.015625)"/>
       </defs>
       <use xlink:href="#DejaVuSans-2212"/>
       <use x="83.789062" xlink:href="#DejaVuSans-33"/>
       <use x="147.412109" xlink:href="#DejaVuSans-30"/>
      </g>
     </g>
    </g>
    <g id="xtick_4">
     <g id="line2d_7">
      <path clip-path="url(#p4c4ac045d1)" d="M 177.013185 231.64 
L 177.013185 41.28 
" style="fill:none;stroke:#b0b0b0;stroke-linecap:square;stroke-width:0.8;"/>
     </g>
     <g id="line2d_8">
      <g>
       <use style="stroke:#000000;stroke-width:0.8;" x="177.013185" xlink:href="#m781169c58a" y="231.64"/>
      </g>
     </g>
     <g id="text_4">
      <!-- −20 -->
      <g transform="translate(166.460841 246.238438)scale(0.1 -0.1)">
       <defs>
        <path d="M 1228 531 
L 3431 531 
L 3431 0 
L 469 0 
L 469 531 
Q 828 903 1448 1529 
Q 2069 2156 2228 2338 
Q 2531 2678 2651 2914 
Q 2772 3150 2772 3378 
Q 2772 3750 2511 3984 
Q 2250 4219 1831 4219 
Q 1534 4219 1204 4116 
Q 875 4013 500 3803 
L 500 4441 
Q 881 4594 1212 4672 
Q 1544 4750 1819 4750 
Q 2544 4750 2975 4387 
Q 3406 4025 3406 3419 
Q 3406 3131 3298 2873 
Q 3191 2616 2906 2266 
Q 2828 2175 2409 1742 
Q 1991 1309 1228 531 
z
" id="DejaVuSans-32" transform="scale(0.015625)"/>
       </defs>
       <use xlink:href="#DejaVuSans-2212"/>
       <use x="83.789062" xlink:href="#DejaVuSans-32"/>
       <use x="147.412109" xlink:href="#DejaVuSans-30"/>
      </g>
     </g>
    </g>
    <g id="xtick_5">
     <g id="line2d_9">
      <path clip-path="url(#p4c4ac045d1)" d="M 210.547466 231.64 
L 210.547466 41.28 
" style="fill:none;stroke:#b0b0b0;stroke-linecap:square;stroke-width:0.8;"/>
     </g>
     <g id="line2d_10">
      <g>
       <use style="stroke:#000000;stroke-width:0.8;" x="210.547466" xlink:href="#m781169c58a" y="231.64"/>
      </g>
     </g>
     <g id="text_5">
      <!-- −10 -->
      <g transform="translate(199.995122 246.238438)scale(0.1 -0.1)">
       <defs>
        <path d="M 794 531 
L 1825 531 
L 1825 4091 
L 703 3866 
L 703 4441 
L 1819 4666 
L 2450 4666 
L 2450 531 
L 3481 531 
L 3481 0 
L 794 0 
L 794 531 
z
" id="DejaVuSans-31" transform="scale(0.015625)"/>
       </defs>
       <use xlink:href="#DejaVuSans-2212"/>
       <use x="83.789062" xlink:href="#DejaVuSans-31"/>
       <use x="147.412109" xlink:href="#DejaVuSans-30"/>
      </g>
     </g>
    </g>
    <g id="xtick_6">
     <g id="line2d_11">
      <path clip-path="url(#p4c4ac045d1)" d="M 244.081746 231.64 
L 244.081746 41.28 
" style="fill:none;stroke:#b0b0b0;stroke-linecap:square;stroke-width:0.8;"/>
     </g>
     <g id="line2d_12">
      <g>
       <use style="stroke:#000000;stroke-width:0.8;" x="244.081746" xlink:href="#m781169c58a" y="231.64"/>
      </g>
     </g>
     <g id="text_6">
      <!-- 0 -->
      <g transform="translate(240.900496 246.238438)scale(0.1 -0.1)">
       <use xlink:href="#DejaVuSans-30"/>
      </g>
     </g>
    </g>
    <g id="text_7">
     <!-- x (m) -->
     <g transform="translate(147.114687 259.916562)scale(0.1 -0.1)">
      <defs>
       <path d="M 3513 3500 
L 2247 1797 
L 3578 0 
L 2900 0 
L 1881 1375 
L 863 0 
L 184 0 
L 1544 1831 
L 300 3500 
L 978 3500 
L 1906 2253 
L 2834 3500 
L 3513 3500 
z
" id="DejaVuSans-78" transform="scale(0.015625)"/>
       <path id="DejaVuSans-20" transform="scale(0.015625)"/>
       <path d="M 1984 4856 
Q 1566 4138 1362 3434 
Q 1159 2731 1159 2009 
Q 1159 1288 1364 580 
Q 1569 -128 1984 -844 
L 1484 -844 
Q 1016 -109 783 600 
Q 550 1309 550 2009 
Q 550 2706 781 3412 
Q 1013 4119 1484 4856 
L 1984 4856 
z
" id="DejaVuSans-28" transform="scale(0.015625)"/>
       <path d="M 3328 2828 
Q 3544 3216 3844 3400 
Q 4144 3584 4550 3584 
Q 5097 3584 5394 3201 
Q 5691 2819 5691 2113 
L 5691 0 
L 5113 0 
L 5113 2094 
Q 5113 2597 4934 2840 
Q 4756 3084 4391 3084 
Q 3944 3084 3684 2787 
Q 3425 2491 3425 1978 
L 3425 0 
L 2847 0 
L 2847 2094 
Q 2847 2600 2669 2842 
Q 2491 3084 2119 3084 
Q 1678 3084 1418 2786 
Q 1159 2488 1159 1978 
L 1159 0 
L 581 0 
L 581 3500 
L 1159 3500 
L 1159 2956 
Q 1356 3278 1631 3431 
Q 1906 3584 2284 3584 
Q 2666 3584 2933 3390 
Q 3200 3197 3328 2828 
z
" id="DejaVuSans-6d" transform="scale(0.015625)"/>
       <path d="M 513 4856 
L 1013 4856 
Q 1481 4119 1714 3412 
Q 1947 2706 1947 2009 
Q 1947 1309 1714 600 
Q 1481 -109 1013 -844 
L 513 -844 
Q 928 -128 1133 580 
Q 1338 1288 1338 2009 
Q 1338 2731 1133 3434 
Q 928 4138 513 4856 
z
" id="DejaVuSans-29" transform="scale(0.015625)"/>
      </defs>
      <use xlink:href="#DejaVuSans-78"/>
      <use x="59.179688" xlink:href="#DejaVuSans-20"/>
      <use x="90.966797" xlink:href="#DejaVuSans-28"/>
      <use x="129.980469" xlink:href="#DejaVuSans-6d"/>
      <use x="227.392578" xlink:href="#DejaVuSans-29"/>
     </g>
    </g>
   </g>
   <g id="matplotlib.axis_2">
    <g id="ytick_1">
     <g id="line2d_13">
      <path clip-path="url(#p4c4ac045d1)" d="M 67.07 221.275041 
L 253.8 221.275041 
" style="fill:none;stroke:#b0b0b0;stroke-linecap:square;stroke-width:0.8;"/>
     </g>
     <g id="line2d_14">
      <defs>
       <path d="M 0 0 
L -3.5 0 
" id="m6152e3da00" style="stroke:#000000;stroke-width:0.8;"/>
      </defs>
      <g>
       <use style="stroke:#000000;stroke-width:0.8;" x="67.07" xlink:href="#m6152e3da00" y="221.275041"/>
      </g>
     </g>
     <g id="text_8">
      <!-- 0 -->
      <g transform="translate(53.7075 225.07426)scale(0.1 -0.1)">
       <use xlink:href="#DejaVuSans-30"/>
      </g>
     </g>
    </g>
    <g id="ytick_2">
     <g id="line2d_15">
      <path clip-path="url(#p4c4ac045d1)" d="M 67.07 180.343061 
L 253.8 180.343061 
" style="fill:none;stroke:#b0b0b0;stroke-linecap:square;stroke-width:0.8;"/>
     </g>
     <g id="line2d_16">
      <g>
       <use style="stroke:#000000;stroke-width:0.8;" x="67.07" xlink:href="#m6152e3da00" y="180.343061"/>
      </g>
     </g>
     <g id="text_9">
      <!-- 2 -->
      <g transform="translate(53.7075 184.14228)scale(0.1 -0.1)">
       <use xlink:href="#DejaVuSans-32"/>
      </g>
     </g>
    </g>
    <g id="ytick_3">
     <g id="line2d_17">
      <path clip-path="url(#p4c4ac045d1)" d="M 67.07 139.411081 
L 253.8 139.411081 
" style="fill:none;stroke:#b0b0b0;stroke-linecap:square;stroke-width:0.8;"/>
     </g>
     <g id="line2d_18">
      <g>
       <use style="stroke:#000000;stroke-width:0.8;" x="67.07" xlink:href="#m6152e3da00" y="139.411081"/>
      </g>
     </g>
     <g id="text_10">
      <!-- 4 -->
      <g transform="translate(53.7075 143.2103)scale(0.1 -0.1)">
       <use xlink:href="#DejaVuSans-34"/>
      </g>
     </g>
    </g>
    <g id="ytick_4">
     <g id="line2d_19">
      <path clip-path="url(#p4c4ac045d1)" d="M 67.07 98.479101 
L 253.8 98.479101 
" style="fill:none;stroke:#b0b0b0;stroke-linecap:square;stroke-width:0.8;"/>
     </g>
     <g id="line2d_20">
      <g>
       <use style="stroke:#000000;stroke-width:0.8;" x="67.07" xlink:href="#m6152e3da00" y="98.479101"/>
      </g>
     </g>
     <g id="text_11">
      <!-- 6 -->
      <g transform="translate(53.7075 102.27832)scale(0.1 -0.1)">
       <defs>
        <path d="M 2113 2584 
Q 1688 2584 1439 2293 
Q 1191 2003 1191 1497 
Q 1191 994 1439 701 
Q 1688 409 2113 409 
Q 2538 409 2786 701 
Q 3034 994 3034 1497 
Q 3034 2003 2786 2293 
Q 2538 2584 2113 2584 
z
M 3366 4563 
L 3366 3988 
Q 3128 4100 2886 4159 
Q 2644 4219 2406 4219 
Q 1781 4219 1451 3797 
Q 1122 3375 1075 2522 
Q 1259 2794 1537 2939 
Q 1816 3084 2150 3084 
Q 2853 3084 3261 2657 
Q 3669 2231 3669 1497 
Q 3669 778 3244 343 
Q 2819 -91 2113 -91 
Q 1303 -91 875 529 
Q 447 1150 447 2328 
Q 447 3434 972 4092 
Q 1497 4750 2381 4750 
Q 2619 4750 2861 4703 
Q 3103 4656 3366 4563 
z
" id="DejaVuSans-36" transform="scale(0.015625)"/>
       </defs>
       <use xlink:href="#DejaVuSans-36"/>
      </g>
     </g>
    </g>
    <g id="ytick_5">
     <g id="line2d_21">
      <path clip-path="url(#p4c4ac045d1)" d="M 67.07 57.547121 
L 253.8 57.547121 
" style="fill:none;stroke:#b0b0b0;stroke-linecap:square;stroke-width:0.8;"/>
     </g>
     <g id="line2d_22">
      <g>
       <use style="stroke:#000000;stroke-width:0.8;" x="67.07" xlink:href="#m6152e3da00" y="57.547121"/>
      </g>
     </g>
     <g id="text_12">
      <!-- 8 -->
      <g transform="translate(53.7075 61.34634)scale(0.1 -0.1)">
       <defs>
        <path d="M 2034 2216 
Q 1584 2216 1326 1975 
Q 1069 1734 1069 1313 
Q 1069 891 1326 650 
Q 1584 409 2034 409 
Q 2484 409 2743 651 
Q 3003 894 3003 1313 
Q 3003 1734 2745 1975 
Q 2488 2216 2034 2216 
z
M 1403 2484 
Q 997 2584 770 2862 
Q 544 3141 544 3541 
Q 544 4100 942 4425 
Q 1341 4750 2034 4750 
Q 2731 4750 3128 4425 
Q 3525 4100 3525 3541 
Q 3525 3141 3298 2862 
Q 3072 2584 2669 2484 
Q 3125 2378 3379 2068 
Q 3634 1759 3634 1313 
Q 3634 634 3220 271 
Q 2806 -91 2034 -91 
Q 1263 -91 848 271 
Q 434 634 434 1313 
Q 434 1759 690 2068 
Q 947 2378 1403 2484 
z
M 1172 3481 
Q 1172 3119 1398 2916 
Q 1625 2713 2034 2713 
Q 2441 2713 2670 2916 
Q 2900 3119 2900 3481 
Q 2900 3844 2670 4047 
Q 2441 4250 2034 4250 
Q 1625 4250 1398 4047 
Q 1172 3844 1172 3481 
z
" id="DejaVuSans-38" transform="scale(0.015625)"/>
       </defs>
       <use xlink:href="#DejaVuSans-38"/>
      </g>
     </g>
    </g>
    <g id="text_13">
     <!-- y (m) -->
     <g transform="translate(47.627813 149.780313)rotate(-90)scale(0.1 -0.1)">
      <defs>
       <path d="M 2059 -325 
Q 1816 -950 1584 -1140 
Q 1353 -1331 966 -1331 
L 506 -1331 
L 506 -850 
L 844 -850 
Q 1081 -850 1212 -737 
Q 1344 -625 1503 -206 
L 1606 56 
L 191 3500 
L 800 3500 
L 1894 763 
L 2988 3500 
L 3597 3500 
L 2059 -325 
z
" id="DejaVuSans-79" transform="scale(0.015625)"/>
      </defs>
      <use xlink:href="#DejaVuSans-79"/>
      <use x="59.179688" xlink:href="#DejaVuSans-20"/>
      <use x="90.966797" xlink:href="#DejaVuSans-28"/>
      <use x="129.980469" xlink:href="#DejaVuSans-6d"/>
      <use x="227.392578" xlink:href="#DejaVuSans-29"/>
     </g>
    </g>
   </g>
   <g id="line2d_23">
    <path clip-path="url(#p4c4ac045d1)" d="M 244.081746 221.275041 
L 244.081746 221.275041 
" style="fill:none;stroke:#1f77b4;stroke-linecap:square;stroke-opacity:0.7;stroke-width:1.5;"/>
   </g>
   <g id="line2d_24">
    <path clip-path="url(#p4c4ac045d1)" d="M 244.081746 221.275041 
L 244.106159 221.364595 
L 244.141466 221.057867 
L 244.156611 220.994571 
L 244.025806 221.662529 
L 243.951324 221.560591 
L 243.961112 221.326171 
L 244.138039 221.000193 
L 244.130786 221.256178 
L 244.097573 221.931571 
L 244.124654 221.990247 
L 244.162252 221.685099 
L 244.061406 221.357956 
L 244.037074 221.369157 
L 243.936407 221.604444 
L 243.844021 222.428848 
L 243.924171 222.987267 
L 243.948028 222.975572 
L 244.059909 222.681553 
L 244.291546 221.343076 
L 244.633228 217.855252 
L 245.088203 210.831355 
L 245.303664 204.871416 
L 245.258974 205.312474 
L 244.547459 213.809817 
L 244.074127 216.528319 
L 243.580818 218.228358 
L 243.115358 219.147185 
L 242.611265 219.670938 
L 242.085877 219.910829 
L 241.501862 219.917299 
L 240.677127 219.658526 
L 239.650234 219.378193 
L 238.982814 219.424945 
L 238.129943 219.734385 
L 236.311263 220.465458 
L 235.623764 220.484633 
L 234.986023 220.29952 
L 234.329497 219.886433 
L 233.575562 219.134172 
L 232.6394 217.837435 
L 229.146626 212.593711 
L 227.648437 210.967653 
L 222.986745 206.47012 
L 220.975746 204.754036 
L 218.84097 203.250124 
L 216.275848 201.421649 
L 214.644644 199.950657 
L 212.995391 198.151848 
L 207.31962 191.624822 
L 205.340668 189.903283 
L 196.440419 182.641863 
L 192.541172 178.946152 
L 189.789145 176.047981 
L 187.211131 172.986956 
L 179.549726 163.520011 
L 177.237576 161.267764 
L 170.628051 155.10167 
L 167.903136 152.080034 
L 162.86283 146.063865 
L 151.424276 132.409594 
L 149.187016 130.231183 
L 146.280944 127.74065 
L 142.177148 124.203914 
L 139.386905 121.463312 
L 128.276417 110.141322 
L 125.022846 107.293596 
L 122.403114 105.27606 
L 119.777144 103.536778 
L 110.514337 97.720606 
L 102.392258 91.992068 
L 97.926868 89.090547 
L 96.305848 87.70879 
L 94.84997 86.170678 
L 93.331661 84.217191 
L 91.782296 81.83821 
L 89.951824 78.588434 
L 83.040572 65.448968 
L 79.273769 57.957261 
L 76.077393 51.101093 
L 75.557727 49.932727 
L 75.557727 49.932727 
" style="fill:none;stroke:#d62728;stroke-linecap:square;stroke-opacity:0.7;stroke-width:1.5;"/>
   </g>
   <g id="line2d_25">
    <path clip-path="url(#p4c4ac045d1)" d="M 244.081746 221.275041 
L 244.081746 221.275041 
" style="fill:none;stroke:#000000;stroke-dasharray:5.55,2.4;stroke-dashoffset:0;stroke-opacity:0.595;stroke-width:1.5;"/>
   </g>
   <g id="patch_3">
    <path d="M 67.07 231.64 
L 67.07 41.28 
" style="fill:none;stroke:#000000;stroke-linecap:square;stroke-linejoin:miter;stroke-width:0.8;"/>
   </g>
   <g id="patch_4">
    <path d="M 253.8 231.64 
L 253.8 41.28 
" style="fill:none;stroke:#000000;stroke-linecap:square;stroke-linejoin:miter;stroke-width:0.8;"/>
   </g>
   <g id="patch_5">
    <path d="M 67.07 231.64 
L 253.8 231.64 
" style="fill:none;stroke:#000000;stroke-linecap:square;stroke-linejoin:miter;stroke-width:0.8;"/>
   </g>
   <g id="patch_6">
    <path d="M 67.07 41.28 
L 253.8 41.28 
" style="fill:none;stroke:#000000;stroke-linecap:square;stroke-linejoin:miter;stroke-width:0.8;"/>
   </g>
   <g id="text_14">
    <!-- Plano xy -->
    <g transform="translate(134.990312 35.28)scale(0.12 -0.12)">
     <defs>
      <path d="M 1259 4147 
L 1259 2394 
L 2053 2394 
Q 2494 2394 2734 2622 
Q 2975 2850 2975 3272 
Q 2975 3691 2734 3919 
Q 2494 4147 2053 4147 
L 1259 4147 
z
M 628 4666 
L 2053 4666 
Q 2838 4666 3239 4311 
Q 3641 3956 3641 3272 
Q 3641 2581 3239 2228 
Q 2838 1875 2053 1875 
L 1259 1875 
L 1259 0 
L 628 0 
L 628 4666 
z
" id="DejaVuSans-50" transform="scale(0.015625)"/>
      <path d="M 603 4863 
L 1178 4863 
L 1178 0 
L 603 0 
L 603 4863 
z
" id="DejaVuSans-6c" transform="scale(0.015625)"/>
      <path d="M 2194 1759 
Q 1497 1759 1228 1600 
Q 959 1441 959 1056 
Q 959 750 1161 570 
Q 1363 391 1709 391 
Q 2188 391 2477 730 
Q 2766 1069 2766 1631 
L 2766 1759 
L 2194 1759 
z
M 3341 1997 
L 3341 0 
L 2766 0 
L 2766 531 
Q 2569 213 2275 61 
Q 1981 -91 1556 -91 
Q 1019 -91 701 211 
Q 384 513 384 1019 
Q 384 1609 779 1909 
Q 1175 2209 1959 2209 
L 2766 2209 
L 2766 2266 
Q 2766 2663 2505 2880 
Q 2244 3097 1772 3097 
Q 1472 3097 1187 3025 
Q 903 2953 641 2809 
L 641 3341 
Q 956 3463 1253 3523 
Q 1550 3584 1831 3584 
Q 2591 3584 2966 3190 
Q 3341 2797 3341 1997 
z
" id="DejaVuSans-61" transform="scale(0.015625)"/>
      <path d="M 3513 2113 
L 3513 0 
L 2938 0 
L 2938 2094 
Q 2938 2591 2744 2837 
Q 2550 3084 2163 3084 
Q 1697 3084 1428 2787 
Q 1159 2491 1159 1978 
L 1159 0 
L 581 0 
L 581 3500 
L 1159 3500 
L 1159 2956 
Q 1366 3272 1645 3428 
Q 1925 3584 2291 3584 
Q 2894 3584 3203 3211 
Q 3513 2838 3513 2113 
z
" id="DejaVuSans-6e" transform="scale(0.015625)"/>
      <path d="M 1959 3097 
Q 1497 3097 1228 2736 
Q 959 2375 959 1747 
Q 959 1119 1226 758 
Q 1494 397 1959 397 
Q 2419 397 2687 759 
Q 2956 1122 2956 1747 
Q 2956 2369 2687 2733 
Q 2419 3097 1959 3097 
z
M 1959 3584 
Q 2709 3584 3137 3096 
Q 3566 2609 3566 1747 
Q 3566 888 3137 398 
Q 2709 -91 1959 -91 
Q 1206 -91 779 398 
Q 353 888 353 1747 
Q 353 2609 779 3096 
Q 1206 3584 1959 3584 
z
" id="DejaVuSans-6f" transform="scale(0.015625)"/>
     </defs>
     <use xlink:href="#DejaVuSans-50"/>
     <use x="60.302734" xlink:href="#DejaVuSans-6c"/>
     <use x="88.085938" xlink:href="#DejaVuSans-61"/>
     <use x="149.365234" xlink:href="#DejaVuSans-6e"/>
     <use x="212.744141" xlink:href="#DejaVuSans-6f"/>
     <use x="273.925781" xlink:href="#DejaVuSans-20"/>
     <use x="305.712891" xlink:href="#DejaVuSans-78"/>
     <use x="364.892578" xlink:href="#DejaVuSans-79"/>
    </g>
   </g>
  </g>
  <g id="axes_2">
   <g id="patch_7">
    <path d="M 292.07 231.64 
L 478.8 231.64 
L 478.8 41.28 
L 292.07 41.28 
z
" style="fill:#ffffff;"/>
   </g>
   <g id="matplotlib.axis_3">
    <g id="xtick_7">
     <g id="line2d_26">
      <path clip-path="url(#p6a9a4d8791)" d="M 300.557727 231.64 
L 300.557727 41.28 
" style="fill:none;stroke:#b0b0b0;stroke-linecap:square;stroke-width:0.8;"/>
     </g>
     <g id="line2d_27">
      <g>
       <use style="stroke:#000000;stroke-width:0.8;" x="300.557727" xlink:href="#m781169c58a" y="231.64"/>
      </g>
     </g>
     <g id="text_15">
      <!-- 0 -->
      <g transform="translate(297.376477 246.238438)scale(0.1 -0.1)">
       <use xlink:href="#DejaVuSans-30"/>
      </g>
     </g>
    </g>
    <g id="xtick_8">
     <g id="line2d_28">
      <path clip-path="url(#p6a9a4d8791)" d="M 357.150436 231.64 
L 357.150436 41.28 
" style="fill:none;stroke:#b0b0b0;stroke-linecap:square;stroke-width:0.8;"/>
     </g>
     <g id="line2d_29">
      <g>
       <use style="stroke:#000000;stroke-width:0.8;" x="357.150436" xlink:href="#m781169c58a" y="231.64"/>
      </g>
     </g>
     <g id="text_16">
      <!-- 10 -->
      <g transform="translate(350.787936 246.238438)scale(0.1 -0.1)">
       <use xlink:href="#DejaVuSans-31"/>
       <use x="63.623047" xlink:href="#DejaVuSans-30"/>
      </g>
     </g>
    </g>
    <g id="xtick_9">
     <g id="line2d_30">
      <path clip-path="url(#p6a9a4d8791)" d="M 413.743144 231.64 
L 413.743144 41.28 
" style="fill:none;stroke:#b0b0b0;stroke-linecap:square;stroke-width:0.8;"/>
     </g>
     <g id="line2d_31">
      <g>
       <use style="stroke:#000000;stroke-width:0.8;" x="413.743144" xlink:href="#m781169c58a" y="231.64"/>
      </g>
     </g>
     <g id="text_17">
      <!-- 20 -->
      <g transform="translate(407.380644 246.238438)scale(0.1 -0.1)">
       <use xlink:href="#DejaVuSans-32"/>
       <use x="63.623047" xlink:href="#DejaVuSans-30"/>
      </g>
     </g>
    </g>
    <g id="xtick_10">
     <g id="line2d_32">
      <path clip-path="url(#p6a9a4d8791)" d="M 470.335853 231.64 
L 470.335853 41.28 
" style="fill:none;stroke:#b0b0b0;stroke-linecap:square;stroke-width:0.8;"/>
     </g>
     <g id="line2d_33">
      <g>
       <use style="stroke:#000000;stroke-width:0.8;" x="470.335853" xlink:href="#m781169c58a" y="231.64"/>
      </g>
     </g>
     <g id="text_18">
      <!-- 30 -->
      <g transform="translate(463.973353 246.238438)scale(0.1 -0.1)">
       <use xlink:href="#DejaVuSans-33"/>
       <use x="63.623047" xlink:href="#DejaVuSans-30"/>
      </g>
     </g>
    </g>
    <g id="text_19">
     <!-- Tiempo (s) -->
     <g transform="translate(358.8725 259.916562)scale(0.1 -0.1)">
      <defs>
       <path d="M -19 4666 
L 3928 4666 
L 3928 4134 
L 2272 4134 
L 2272 0 
L 1638 0 
L 1638 4134 
L -19 4134 
L -19 4666 
z
" id="DejaVuSans-54" transform="scale(0.015625)"/>
       <path d="M 603 3500 
L 1178 3500 
L 1178 0 
L 603 0 
L 603 3500 
z
M 603 4863 
L 1178 4863 
L 1178 4134 
L 603 4134 
L 603 4863 
z
" id="DejaVuSans-69" transform="scale(0.015625)"/>
       <path d="M 3597 1894 
L 3597 1613 
L 953 1613 
Q 991 1019 1311 708 
Q 1631 397 2203 397 
Q 2534 397 2845 478 
Q 3156 559 3463 722 
L 3463 178 
Q 3153 47 2828 -22 
Q 2503 -91 2169 -91 
Q 1331 -91 842 396 
Q 353 884 353 1716 
Q 353 2575 817 3079 
Q 1281 3584 2069 3584 
Q 2775 3584 3186 3129 
Q 3597 2675 3597 1894 
z
M 3022 2063 
Q 3016 2534 2758 2815 
Q 2500 3097 2075 3097 
Q 1594 3097 1305 2825 
Q 1016 2553 972 2059 
L 3022 2063 
z
" id="DejaVuSans-65" transform="scale(0.015625)"/>
       <path d="M 1159 525 
L 1159 -1331 
L 581 -1331 
L 581 3500 
L 1159 3500 
L 1159 2969 
Q 1341 3281 1617 3432 
Q 1894 3584 2278 3584 
Q 2916 3584 3314 3078 
Q 3713 2572 3713 1747 
Q 3713 922 3314 415 
Q 2916 -91 2278 -91 
Q 1894 -91 1617 61 
Q 1341 213 1159 525 
z
M 3116 1747 
Q 3116 2381 2855 2742 
Q 2594 3103 2138 3103 
Q 1681 3103 1420 2742 
Q 1159 2381 1159 1747 
Q 1159 1113 1420 752 
Q 1681 391 2138 391 
Q 2594 391 2855 752 
Q 3116 1113 3116 1747 
z
" id="DejaVuSans-70" transform="scale(0.015625)"/>
       <path d="M 2834 3397 
L 2834 2853 
Q 2591 2978 2328 3040 
Q 2066 3103 1784 3103 
Q 1356 3103 1142 2972 
Q 928 2841 928 2578 
Q 928 2378 1081 2264 
Q 1234 2150 1697 2047 
L 1894 2003 
Q 2506 1872 2764 1633 
Q 3022 1394 3022 966 
Q 3022 478 2636 193 
Q 2250 -91 1575 -91 
Q 1294 -91 989 -36 
Q 684 19 347 128 
L 347 722 
Q 666 556 975 473 
Q 1284 391 1588 391 
Q 1994 391 2212 530 
Q 2431 669 2431 922 
Q 2431 1156 2273 1281 
Q 2116 1406 1581 1522 
L 1381 1569 
Q 847 1681 609 1914 
Q 372 2147 372 2553 
Q 372 3047 722 3315 
Q 1072 3584 1716 3584 
Q 2034 3584 2315 3537 
Q 2597 3491 2834 3397 
z
" id="DejaVuSans-73" transform="scale(0.015625)"/>
      </defs>
      <use xlink:href="#DejaVuSans-54"/>
      <use x="57.958984" xlink:href="#DejaVuSans-69"/>
      <use x="85.742188" xlink:href="#DejaVuSans-65"/>
      <use x="147.265625" xlink:href="#DejaVuSans-6d"/>
      <use x="244.677734" xlink:href="#DejaVuSans-70"/>
      <use x="308.154297" xlink:href="#DejaVuSans-6f"/>
      <use x="369.335938" xlink:href="#DejaVuSans-20"/>
      <use x="401.123047" xlink:href="#DejaVuSans-28"/>
      <use x="440.136719" xlink:href="#DejaVuSans-73"/>
      <use x="492.236328" xlink:href="#DejaVuSans-29"/>
     </g>
    </g>
   </g>
   <g id="matplotlib.axis_4">
    <g id="ytick_6">
     <g id="line2d_34">
      <path clip-path="url(#p6a9a4d8791)" d="M 292.07 223.150813 
L 478.8 223.150813 
" style="fill:none;stroke:#b0b0b0;stroke-linecap:square;stroke-width:0.8;"/>
     </g>
     <g id="line2d_35">
      <g>
       <use style="stroke:#000000;stroke-width:0.8;" x="292.07" xlink:href="#m6152e3da00" y="223.150813"/>
      </g>
     </g>
     <g id="text_20">
      <!-- 0 -->
      <g transform="translate(278.7075 226.950031)scale(0.1 -0.1)">
       <use xlink:href="#DejaVuSans-30"/>
      </g>
     </g>
    </g>
    <g id="ytick_7">
     <g id="line2d_36">
      <path clip-path="url(#p6a9a4d8791)" d="M 292.07 201.485879 
L 478.8 201.485879 
" style="fill:none;stroke:#b0b0b0;stroke-linecap:square;stroke-width:0.8;"/>
     </g>
     <g id="line2d_37">
      <g>
       <use style="stroke:#000000;stroke-width:0.8;" x="292.07" xlink:href="#m6152e3da00" y="201.485879"/>
      </g>
     </g>
     <g id="text_21">
      <!-- 1 -->
      <g transform="translate(278.7075 205.285098)scale(0.1 -0.1)">
       <use xlink:href="#DejaVuSans-31"/>
      </g>
     </g>
    </g>
    <g id="ytick_8">
     <g id="line2d_38">
      <path clip-path="url(#p6a9a4d8791)" d="M 292.07 179.820946 
L 478.8 179.820946 
" style="fill:none;stroke:#b0b0b0;stroke-linecap:square;stroke-width:0.8;"/>
     </g>
     <g id="line2d_39">
      <g>
       <use style="stroke:#000000;stroke-width:0.8;" x="292.07" xlink:href="#m6152e3da00" y="179.820946"/>
      </g>
     </g>
     <g id="text_22">
      <!-- 2 -->
      <g transform="translate(278.7075 183.620165)scale(0.1 -0.1)">
       <use xlink:href="#DejaVuSans-32"/>
      </g>
     </g>
    </g>
    <g id="ytick_9">
     <g id="line2d_40">
      <path clip-path="url(#p6a9a4d8791)" d="M 292.07 158.156013 
L 478.8 158.156013 
" style="fill:none;stroke:#b0b0b0;stroke-linecap:square;stroke-width:0.8;"/>
     </g>
     <g id="line2d_41">
      <g>
       <use style="stroke:#000000;stroke-width:0.8;" x="292.07" xlink:href="#m6152e3da00" y="158.156013"/>
      </g>
     </g>
     <g id="text_23">
      <!-- 3 -->
      <g transform="translate(278.7075 161.955232)scale(0.1 -0.1)">
       <use xlink:href="#DejaVuSans-33"/>
      </g>
     </g>
    </g>
    <g id="ytick_10">
     <g id="line2d_42">
      <path clip-path="url(#p6a9a4d8791)" d="M 292.07 136.49108 
L 478.8 136.49108 
" style="fill:none;stroke:#b0b0b0;stroke-linecap:square;stroke-width:0.8;"/>
     </g>
     <g id="line2d_43">
      <g>
       <use style="stroke:#000000;stroke-width:0.8;" x="292.07" xlink:href="#m6152e3da00" y="136.49108"/>
      </g>
     </g>
     <g id="text_24">
      <!-- 4 -->
      <g transform="translate(278.7075 140.290299)scale(0.1 -0.1)">
       <use xlink:href="#DejaVuSans-34"/>
      </g>
     </g>
    </g>
    <g id="ytick_11">
     <g id="line2d_44">
      <path clip-path="url(#p6a9a4d8791)" d="M 292.07 114.826147 
L 478.8 114.826147 
" style="fill:none;stroke:#b0b0b0;stroke-linecap:square;stroke-width:0.8;"/>
     </g>
     <g id="line2d_45">
      <g>
       <use style="stroke:#000000;stroke-width:0.8;" x="292.07" xlink:href="#m6152e3da00" y="114.826147"/>
      </g>
     </g>
     <g id="text_25">
      <!-- 5 -->
      <g transform="translate(278.7075 118.625365)scale(0.1 -0.1)">
       <use xlink:href="#DejaVuSans-35"/>
      </g>
     </g>
    </g>
    <g id="ytick_12">
     <g id="line2d_46">
      <path clip-path="url(#p6a9a4d8791)" d="M 292.07 93.161213 
L 478.8 93.161213 
" style="fill:none;stroke:#b0b0b0;stroke-linecap:square;stroke-width:0.8;"/>
     </g>
     <g id="line2d_47">
      <g>
       <use style="stroke:#000000;stroke-width:0.8;" x="292.07" xlink:href="#m6152e3da00" y="93.161213"/>
      </g>
     </g>
     <g id="text_26">
      <!-- 6 -->
      <g transform="translate(278.7075 96.960432)scale(0.1 -0.1)">
       <use xlink:href="#DejaVuSans-36"/>
      </g>
     </g>
    </g>
    <g id="ytick_13">
     <g id="line2d_48">
      <path clip-path="url(#p6a9a4d8791)" d="M 292.07 71.49628 
L 478.8 71.49628 
" style="fill:none;stroke:#b0b0b0;stroke-linecap:square;stroke-width:0.8;"/>
     </g>
     <g id="line2d_49">
      <g>
       <use style="stroke:#000000;stroke-width:0.8;" x="292.07" xlink:href="#m6152e3da00" y="71.49628"/>
      </g>
     </g>
     <g id="text_27">
      <!-- 7 -->
      <g transform="translate(278.7075 75.295499)scale(0.1 -0.1)">
       <defs>
        <path d="M 525 4666 
L 3525 4666 
L 3525 4397 
L 1831 0 
L 1172 0 
L 2766 4134 
L 525 4134 
L 525 4666 
z
" id="DejaVuSans-37" transform="scale(0.015625)"/>
       </defs>
       <use xlink:href="#DejaVuSans-37"/>
      </g>
     </g>
    </g>
    <g id="ytick_14">
     <g id="line2d_50">
      <path clip-path="url(#p6a9a4d8791)" d="M 292.07 49.831347 
L 478.8 49.831347 
" style="fill:none;stroke:#b0b0b0;stroke-linecap:square;stroke-width:0.8;"/>
     </g>
     <g id="line2d_51">
      <g>
       <use style="stroke:#000000;stroke-width:0.8;" x="292.07" xlink:href="#m6152e3da00" y="49.831347"/>
      </g>
     </g>
     <g id="text_28">
      <!-- 8 -->
      <g transform="translate(278.7075 53.630566)scale(0.1 -0.1)">
       <use xlink:href="#DejaVuSans-38"/>
      </g>
     </g>
    </g>
    <g id="text_29">
     <!-- z (m) -->
     <g transform="translate(272.627812 149.445156)rotate(-90)scale(0.1 -0.1)">
      <defs>
       <path d="M 353 3500 
L 3084 3500 
L 3084 2975 
L 922 459 
L 3084 459 
L 3084 0 
L 275 0 
L 275 525 
L 2438 3041 
L 353 3041 
L 353 3500 
z
" id="DejaVuSans-7a" transform="scale(0.015625)"/>
      </defs>
      <use xlink:href="#DejaVuSans-7a"/>
      <use x="52.490234" xlink:href="#DejaVuSans-20"/>
      <use x="84.277344" xlink:href="#DejaVuSans-28"/>
      <use x="123.291016" xlink:href="#DejaVuSans-6d"/>
      <use x="220.703125" xlink:href="#DejaVuSans-29"/>
     </g>
    </g>
   </g>
   <g id="line2d_52">
    <path clip-path="url(#p6a9a4d8791)" d="M 300.557727 201.489565 
L 301.524519 201.516859 
L 313.57405 201.483699 
L 346.586464 201.375489 
L 347.175971 201.031645 
L 347.90696 200.327847 
L 348.897333 199.033302 
L 350.31215 196.776871 
L 352.599439 192.653596 
L 359.272662 179.972236 
L 426.122799 52.349423 
L 426.924529 51.528487 
L 427.820581 50.934617 
L 428.881694 50.508984 
L 430.249351 50.213818 
L 432.253676 50.028673 
L 436.026523 49.942459 
L 452.344088 49.941426 
L 470.312273 49.955418 
L 470.312273 49.955418 
" style="fill:none;stroke:#1f77b4;stroke-linecap:square;stroke-opacity:0.7;stroke-width:1.5;"/>
   </g>
   <g id="line2d_53">
    <path clip-path="url(#p6a9a4d8791)" d="M 300.557727 201.489565 
L 302.892177 201.740775 
L 303.97687 201.543911 
L 306.853666 201.083888 
L 309.895524 200.834908 
L 314.682324 200.66817 
L 324.279504 200.609004 
L 347.152391 200.478977 
L 347.836219 200.12254 
L 349.180296 199.09426 
L 350.31215 198.037045 
L 351.632647 196.394171 
L 354.29722 192.805905 
L 356.891053 188.835444 
L 360.215874 183.326597 
L 364.837612 175.188213 
L 371.675898 162.651229 
L 381.46172 144.747452 
L 384.692221 139.284765 
L 386.460743 136.692437 
L 387.85198 135.034844 
L 389.101736 133.875512 
L 390.092108 133.235873 
L 390.940999 132.942897 
L 391.86063 132.866618 
L 393.110386 133.000826 
L 395.02039 133.448907 
L 398.274471 134.465012 
L 400.750402 135.453943 
L 402.99053 136.589311 
L 405.207078 137.966759 
L 406.739797 138.901863 
L 406.928439 138.637575 
L 407.187822 137.796173 
L 407.541527 135.758344 
L 408.013133 131.519272 
L 409.475111 117.36602 
L 410.418323 110.658411 
L 411.290794 105.936791 
L 412.116104 102.62298 
L 412.799933 100.717866 
L 413.41302 99.63234 
L 414.19117 98.743909 
L 415.275864 97.841321 
L 416.431298 97.162164 
L 417.728214 96.664714 
L 419.166612 96.347222 
L 420.58143 96.26132 
L 421.972667 96.397164 
L 423.363905 96.759161 
L 424.755142 97.350832 
L 426.099219 98.163866 
L 427.443296 99.244288 
L 428.834533 100.652966 
L 430.084289 102.222182 
L 430.791698 103.044815 
L 430.95676 102.927373 
L 431.168983 102.460751 
L 431.475526 101.165708 
L 431.876391 98.395498 
L 432.489479 92.289669 
L 433.904297 78.412897 
L 434.658866 72.852547 
L 435.177633 70.526617 
L 435.554918 69.703667 
L 435.814301 69.577103 
L 436.026523 69.736235 
L 436.309487 70.297258 
L 436.710352 71.68503 
L 437.394181 75.043666 
L 438.243071 79.010844 
L 438.549615 79.572064 
L 438.738257 79.596465 
L 438.9269 79.378615 
L 439.209863 78.627373 
L 439.75221 76.325896 
L 441.001966 71.289322 
L 441.709375 69.107884 
L 442.039499 68.672747 
L 442.228141 68.696954 
L 442.440364 68.999865 
L 442.723327 69.866201 
L 443.171353 72.090072 
L 443.949503 75.872293 
L 444.444689 77.134254 
L 445.31716 79.214967 
L 446.96778 84.091845 
L 448.311857 89.762669 
L 448.948525 92.090077 
L 449.561613 95.391822 
L 450.90569 104.16733 
L 452.414829 114.02054 
L 453.145818 119.346397 
L 454.395573 130.84738 
L 458.687187 171.148091 
L 463.922013 222.966861 
L 464.087075 222.921864 
L 464.605841 222.051008 
L 465.101027 221.40957 
L 465.407571 221.314673 
L 465.666955 221.460195 
L 465.997079 221.946934 
L 466.704488 222.761414 
L 467.435477 222.810335 
L 469.817087 222.71099 
L 470.312273 222.76324 
L 470.312273 222.76324 
" style="fill:none;stroke:#d62728;stroke-linecap:square;stroke-opacity:0.7;stroke-width:1.5;"/>
   </g>
   <g id="line2d_54">
    <path clip-path="url(#p6a9a4d8791)" d="M 300.557727 201.485879 
L 345.926215 201.485879 
L 346.067697 201.034527 
L 346.162018 201.034527 
L 346.3035 200.583174 
L 346.397821 200.583174 
L 346.539303 200.131821 
L 346.633624 200.131821 
L 346.775106 199.680468 
L 346.869427 199.680468 
L 347.010909 199.229116 
L 347.10523 199.229116 
L 347.246712 198.777763 
L 347.341033 198.777763 
L 347.482515 198.32641 
L 347.576836 198.32641 
L 347.718318 197.875057 
L 347.812639 197.875057 
L 347.954121 197.423704 
L 348.048442 197.423704 
L 348.189924 196.972352 
L 348.284245 196.972352 
L 348.425727 196.520999 
L 348.520048 196.520999 
L 348.66153 196.069646 
L 348.755851 196.069646 
L 348.897333 195.618293 
L 348.991654 195.618293 
L 349.133135 195.166941 
L 349.227457 195.166941 
L 349.368938 194.715588 
L 349.46326 194.715588 
L 349.604741 194.264235 
L 349.699063 194.264235 
L 349.840544 193.812882 
L 349.934866 193.812882 
L 350.076347 193.361529 
L 350.170668 193.361529 
L 350.31215 192.910177 
L 350.406471 192.910177 
L 350.547953 192.458824 
L 350.642274 192.458824 
L 350.783756 192.007471 
L 350.878077 192.007471 
L 351.019559 191.556118 
L 351.11388 191.556118 
L 351.255362 191.104766 
L 351.349683 191.104766 
L 351.491165 190.653413 
L 351.585486 190.653413 
L 351.726968 190.20206 
L 351.821289 190.20206 
L 351.962771 189.750707 
L 352.057092 189.750707 
L 352.198574 189.299355 
L 352.292895 189.299355 
L 352.434377 188.848002 
L 352.528698 188.848002 
L 352.67018 188.396649 
L 352.764501 188.396649 
L 352.905983 187.945296 
L 353.000304 187.945296 
L 353.141786 187.493943 
L 353.236107 187.493943 
L 353.377589 187.042591 
L 353.47191 187.042591 
L 353.613392 186.591238 
L 353.707713 186.591238 
L 353.849195 186.139885 
L 353.943516 186.139885 
L 354.084997 185.688532 
L 354.179319 185.688532 
L 354.3208 185.23718 
L 354.415122 185.23718 
L 354.556603 184.785827 
L 354.650925 184.785827 
L 354.792406 184.334474 
L 354.886728 184.334474 
L 355.028209 183.883121 
L 355.12253 183.883121 
L 355.264012 183.431768 
L 355.358333 183.431768 
L 355.499815 182.980416 
L 355.594136 182.980416 
L 355.735618 182.529063 
L 355.829939 182.529063 
L 355.971421 182.07771 
L 356.065742 182.07771 
L 356.207224 181.626357 
L 356.301545 181.626357 
L 356.443027 181.175005 
L 356.537348 181.175005 
L 356.67883 180.723652 
L 356.773151 180.723652 
L 356.914633 180.272299 
L 357.008954 180.272299 
L 357.150436 179.820946 
L 357.244757 179.820946 
L 357.386239 179.369593 
L 357.48056 179.369593 
L 357.622042 178.918241 
L 357.716363 178.918241 
L 357.857845 178.466888 
L 357.952166 178.466888 
L 358.093648 178.015535 
L 358.187969 178.015535 
L 358.329451 177.564182 
L 358.423772 177.564182 
L 358.565254 177.11283 
L 358.659575 177.11283 
L 358.801057 176.661477 
L 358.895378 176.661477 
L 359.036859 176.210124 
L 359.131181 176.210124 
L 359.272662 175.758771 
L 359.366984 175.758771 
L 359.508465 175.307418 
L 359.602787 175.307418 
L 359.744268 174.856066 
L 359.83859 174.856066 
L 359.980071 174.404713 
L 360.074392 174.404713 
L 360.215874 173.95336 
L 360.310195 173.95336 
L 360.451677 173.502007 
L 360.545998 173.502007 
L 360.68748 173.050655 
L 360.781801 173.050655 
L 360.923283 172.599302 
L 361.017604 172.599302 
L 361.159086 172.147949 
L 361.253407 172.147949 
L 361.394889 171.696596 
L 361.48921 171.696596 
L 361.630692 171.245244 
L 361.725013 171.245244 
L 361.866495 170.793891 
L 361.960816 170.793891 
L 362.102298 170.342538 
L 362.196619 170.342538 
L 362.338101 169.891185 
L 362.432422 169.891185 
L 362.573904 169.439832 
L 362.668225 169.439832 
L 362.809707 168.98848 
L 362.904028 168.98848 
L 363.04551 168.537127 
L 363.139831 168.537127 
L 363.281313 168.085774 
L 363.375634 168.085774 
L 363.517116 167.634421 
L 363.611437 167.634421 
L 363.752919 167.183069 
L 363.84724 167.183069 
L 363.988721 166.731716 
L 364.083043 166.731716 
L 364.224524 166.280363 
L 364.318846 166.280363 
L 364.460327 165.82901 
L 364.554649 165.82901 
L 364.69613 165.377657 
L 364.790452 165.377657 
L 364.931933 164.926305 
L 365.026254 164.926305 
L 365.167736 164.474952 
L 365.262057 164.474952 
L 365.403539 164.023599 
L 365.49786 164.023599 
L 365.639342 163.572246 
L 365.733663 163.572246 
L 365.875145 163.120894 
L 365.969466 163.120894 
L 366.110948 162.669541 
L 366.205269 162.669541 
L 366.346751 162.218188 
L 366.441072 162.218188 
L 366.582554 161.766835 
L 366.676875 161.766835 
L 366.818357 161.315482 
L 366.912678 161.315482 
L 367.05416 160.86413 
L 367.148481 160.86413 
L 367.289963 160.412777 
L 367.384284 160.412777 
L 367.525766 159.961424 
L 367.620087 159.961424 
L 367.761569 159.510071 
L 367.85589 159.510071 
L 367.997372 159.058719 
L 368.091693 159.058719 
L 368.233175 158.607366 
L 368.327496 158.607366 
L 368.468978 158.156013 
L 368.563299 158.156013 
L 368.704781 157.70466 
L 368.799102 157.70466 
L 368.940583 157.253307 
L 369.034905 157.253307 
L 369.176386 156.801955 
L 369.270708 156.801955 
L 369.412189 156.350602 
L 369.506511 156.350602 
L 369.647992 155.899249 
L 369.742314 155.899249 
L 369.883795 155.447896 
L 369.978116 155.447896 
L 370.119598 154.996544 
L 370.213919 154.996544 
L 370.355401 154.545191 
L 370.449722 154.545191 
L 370.591204 154.093838 
L 370.685525 154.093838 
L 370.827007 153.642485 
L 370.921328 153.642485 
L 371.06281 153.191133 
L 371.157131 153.191133 
L 371.298613 152.73978 
L 371.392934 152.73978 
L 371.534416 152.288427 
L 371.628737 152.288427 
L 371.770219 151.837074 
L 371.86454 151.837074 
L 372.006022 151.385721 
L 372.100343 151.385721 
L 372.241825 150.934369 
L 372.336146 150.934369 
L 372.477628 150.483016 
L 372.571949 150.483016 
L 372.713431 150.031663 
L 372.807752 150.031663 
L 372.949234 149.58031 
L 373.043555 149.58031 
L 373.185037 149.128958 
L 373.279358 149.128958 
L 373.42084 148.677605 
L 373.515161 148.677605 
L 373.656643 148.226252 
L 373.750964 148.226252 
L 373.892445 147.774899 
L 373.986767 147.774899 
L 374.128248 147.323546 
L 374.22257 147.323546 
L 374.364051 146.872194 
L 374.458373 146.872194 
L 374.599854 146.420841 
L 374.694176 146.420841 
L 374.835657 145.969488 
L 374.929978 145.969488 
L 375.07146 145.518135 
L 375.165781 145.518135 
L 375.307263 145.066783 
L 375.401584 145.066783 
L 375.543066 144.61543 
L 375.637387 144.61543 
L 375.778869 144.164077 
L 375.87319 144.164077 
L 376.014672 143.712724 
L 376.108993 143.712724 
L 376.250475 143.261371 
L 376.344796 143.261371 
L 376.486278 142.810019 
L 376.580599 142.810019 
L 376.722081 142.358666 
L 376.816402 142.358666 
L 376.957884 141.907313 
L 377.052205 141.907313 
L 377.193687 141.45596 
L 377.288008 141.45596 
L 377.42949 141.004608 
L 377.523811 141.004608 
L 377.665293 140.553255 
L 377.759614 140.553255 
L 377.901096 140.101902 
L 377.995417 140.101902 
L 378.136899 139.650549 
L 378.23122 139.650549 
L 378.372702 139.199197 
L 378.467023 139.199197 
L 378.608505 138.747844 
L 378.702826 138.747844 
L 378.844307 138.296491 
L 378.938629 138.296491 
L 379.08011 137.845138 
L 379.174432 137.845138 
L 379.315913 137.393785 
L 379.410235 137.393785 
L 379.551716 136.942433 
L 379.646038 136.942433 
L 379.787519 136.49108 
L 379.88184 136.49108 
L 380.023322 136.039727 
L 380.117643 136.039727 
L 380.259125 135.588374 
L 380.353446 135.588374 
L 380.494928 135.137022 
L 380.589249 135.137022 
L 380.730731 134.685669 
L 380.825052 134.685669 
L 380.966534 134.234316 
L 381.060855 134.234316 
L 381.202337 133.782963 
L 381.296658 133.782963 
L 381.43814 133.33161 
L 381.532461 133.33161 
L 381.673943 132.880258 
L 381.768264 132.880258 
L 381.909746 132.428905 
L 382.004067 132.428905 
L 382.145549 131.977552 
L 382.23987 131.977552 
L 382.381352 131.526199 
L 382.475673 131.526199 
L 382.617155 131.074847 
L 382.711476 131.074847 
L 382.852958 130.623494 
L 382.947279 130.623494 
L 383.088761 130.172141 
L 383.183082 130.172141 
L 383.324564 129.720788 
L 383.418885 129.720788 
L 383.560367 129.269435 
L 383.654688 129.269435 
L 383.796169 128.818083 
L 383.890491 128.818083 
L 384.031972 128.36673 
L 384.126294 128.36673 
L 384.267775 127.915377 
L 384.362097 127.915377 
L 384.503578 127.464024 
L 384.5979 127.464024 
L 384.739381 127.012672 
L 384.833702 127.012672 
L 384.975184 126.561319 
L 385.069505 126.561319 
L 385.210987 126.109966 
L 385.305308 126.109966 
L 385.44679 125.658613 
L 385.541111 125.658613 
L 385.682593 125.20726 
L 385.776914 125.20726 
L 385.918396 124.755908 
L 386.012717 124.755908 
L 386.154199 124.304555 
L 386.24852 124.304555 
L 386.390002 123.853202 
L 386.484323 123.853202 
L 386.625805 123.401849 
L 386.720126 123.401849 
L 386.861608 122.950497 
L 386.955929 122.950497 
L 387.097411 122.499144 
L 387.191732 122.499144 
L 387.333214 122.047791 
L 387.427535 122.047791 
L 387.569017 121.596438 
L 387.663338 121.596438 
L 387.80482 121.145086 
L 387.899141 121.145086 
L 388.040623 120.693733 
L 388.134944 120.693733 
L 388.276426 120.24238 
L 388.370747 120.24238 
L 388.512229 119.791027 
L 388.60655 119.791027 
L 388.748031 119.339674 
L 388.842353 119.339674 
L 388.983834 118.888322 
L 389.078156 118.888322 
L 389.219637 118.436969 
L 389.313959 118.436969 
L 389.45544 117.985616 
L 389.549762 117.985616 
L 389.691243 117.534263 
L 389.785564 117.534263 
L 389.927046 117.082911 
L 390.021367 117.082911 
L 390.162849 116.631558 
L 390.25717 116.631558 
L 390.398652 116.180205 
L 390.492973 116.180205 
L 390.634455 115.728852 
L 390.728776 115.728852 
L 390.870258 115.277499 
L 390.964579 115.277499 
L 391.106061 114.826147 
L 391.200382 114.826147 
L 391.341864 114.374794 
L 391.436185 114.374794 
L 391.577667 113.923441 
L 391.671988 113.923441 
L 391.81347 113.472088 
L 391.907791 113.472088 
L 392.049273 113.020736 
L 392.143594 113.020736 
L 392.285076 112.569383 
L 392.379397 112.569383 
L 392.520879 112.11803 
L 392.6152 112.11803 
L 392.756682 111.666677 
L 392.851003 111.666677 
L 392.992485 111.215324 
L 393.086806 111.215324 
L 393.228288 110.763972 
L 393.322609 110.763972 
L 393.464091 110.312619 
L 393.558412 110.312619 
L 393.699893 109.861266 
L 393.794215 109.861266 
L 393.935696 109.409913 
L 394.030018 109.409913 
L 394.171499 108.958561 
L 394.265821 108.958561 
L 394.407302 108.507208 
L 394.501624 108.507208 
L 394.643105 108.055855 
L 394.737426 108.055855 
L 394.878908 107.604502 
L 394.973229 107.604502 
L 395.114711 107.153149 
L 395.209032 107.153149 
L 395.350514 106.701797 
L 395.444835 106.701797 
L 395.586317 106.250444 
L 395.680638 106.250444 
L 395.82212 105.799091 
L 395.916441 105.799091 
L 396.057923 105.347738 
L 396.152244 105.347738 
L 396.293726 104.896386 
L 396.388047 104.896386 
L 396.529529 104.445033 
L 396.62385 104.445033 
L 396.765332 103.99368 
L 396.859653 103.99368 
L 397.001135 103.542327 
L 397.095456 103.542327 
L 397.236938 103.090975 
L 397.331259 103.090975 
L 397.472741 102.639622 
L 397.567062 102.639622 
L 397.708544 102.188269 
L 397.802865 102.188269 
L 397.944347 101.736916 
L 398.038668 101.736916 
L 398.18015 101.285563 
L 398.274471 101.285563 
L 398.415953 100.834211 
L 398.510274 100.834211 
L 398.651755 100.382858 
L 398.746077 100.382858 
L 398.887558 99.931505 
L 398.98188 99.931505 
L 399.123361 99.480152 
L 399.217683 99.480152 
L 399.359164 99.0288 
L 399.453486 99.0288 
L 399.594967 98.577447 
L 399.689288 98.577447 
L 399.83077 98.126094 
L 399.925091 98.126094 
L 400.066573 97.674741 
L 400.160894 97.674741 
L 400.302376 97.223388 
L 400.396697 97.223388 
L 400.538179 96.772036 
L 400.6325 96.772036 
L 400.773982 96.320683 
L 400.868303 96.320683 
L 401.009785 95.86933 
L 401.104106 95.86933 
L 401.245588 95.417977 
L 401.339909 95.417977 
L 401.481391 94.966625 
L 401.575712 94.966625 
L 401.717194 94.515272 
L 401.811515 94.515272 
L 401.952997 94.063919 
L 402.047318 94.063919 
L 402.1888 93.612566 
L 402.283121 93.612566 
L 402.424603 93.161213 
L 402.518924 93.161213 
L 402.660406 92.709861 
L 402.754727 92.709861 
L 402.896209 92.258508 
L 402.99053 92.258508 
L 403.132012 91.807155 
L 403.226333 91.807155 
L 403.367815 91.355802 
L 403.462136 91.355802 
L 403.603617 90.90445 
L 403.697939 90.90445 
L 403.83942 90.453097 
L 403.933742 90.453097 
L 404.075223 90.001744 
L 404.169545 90.001744 
L 404.311026 89.550391 
L 404.405348 89.550391 
L 404.546829 89.099038 
L 404.64115 89.099038 
L 404.782632 88.647686 
L 404.876953 88.647686 
L 405.018435 88.196333 
L 405.112756 88.196333 
L 405.254238 87.74498 
L 405.348559 87.74498 
L 405.490041 87.293627 
L 405.584362 87.293627 
L 405.725844 86.842275 
L 405.820165 86.842275 
L 405.961647 86.390922 
L 406.055968 86.390922 
L 406.19745 85.939569 
L 406.291771 85.939569 
L 406.433253 85.488216 
L 406.527574 85.488216 
L 406.669056 85.036864 
L 406.763377 85.036864 
L 406.904859 84.585511 
L 406.99918 84.585511 
L 407.140662 84.134158 
L 407.234983 84.134158 
L 407.376465 83.682805 
L 407.470786 83.682805 
L 407.612268 83.231452 
L 407.706589 83.231452 
L 407.848071 82.7801 
L 407.942392 82.7801 
L 408.083874 82.328747 
L 408.178195 82.328747 
L 408.319677 81.877394 
L 408.413998 81.877394 
L 408.555479 81.426041 
L 408.649801 81.426041 
L 408.791282 80.974689 
L 408.885604 80.974689 
L 409.027085 80.523336 
L 409.121407 80.523336 
L 409.262888 80.071983 
L 409.35721 80.071983 
L 409.498691 79.62063 
L 409.593012 79.62063 
L 409.734494 79.169277 
L 409.828815 79.169277 
L 409.970297 78.717925 
L 410.064618 78.717925 
L 410.2061 78.266572 
L 410.300421 78.266572 
L 410.441903 77.815219 
L 410.536224 77.815219 
L 410.677706 77.363866 
L 410.772027 77.363866 
L 410.913509 76.912514 
L 411.00783 76.912514 
L 411.149312 76.461161 
L 411.243633 76.461161 
L 411.385115 76.009808 
L 411.479436 76.009808 
L 411.620918 75.558455 
L 411.715239 75.558455 
L 411.856721 75.107102 
L 411.951042 75.107102 
L 412.092524 74.65575 
L 412.186845 74.65575 
L 412.328327 74.204397 
L 412.422648 74.204397 
L 412.56413 73.753044 
L 412.658451 73.753044 
L 412.799933 73.301691 
L 412.894254 73.301691 
L 413.035736 72.850339 
L 413.130057 72.850339 
L 413.271539 72.398986 
L 413.36586 72.398986 
L 413.507341 71.947633 
L 413.601663 71.947633 
L 413.743144 71.49628 
L 413.837466 71.49628 
L 413.978947 71.044928 
L 414.073269 71.044928 
L 414.21475 70.593575 
L 414.309072 70.593575 
L 414.450553 70.142222 
L 414.544874 70.142222 
L 414.686356 69.690869 
L 414.780677 69.690869 
L 414.922159 69.239516 
L 415.01648 69.239516 
L 415.157962 68.788164 
L 415.252283 68.788164 
L 415.393765 68.336811 
L 415.488086 68.336811 
L 415.629568 67.885458 
L 415.723889 67.885458 
L 415.865371 67.434105 
L 415.959692 67.434105 
L 416.101174 66.982753 
L 416.195495 66.982753 
L 416.336977 66.5314 
L 416.431298 66.5314 
L 416.57278 66.080047 
L 416.667101 66.080047 
L 416.808583 65.628694 
L 416.902904 65.628694 
L 417.044386 65.177341 
L 417.138707 65.177341 
L 417.280189 64.725989 
L 417.37451 64.725989 
L 417.515992 64.274636 
L 417.610313 64.274636 
L 417.751795 63.823283 
L 417.846116 63.823283 
L 417.987598 63.37193 
L 418.081919 63.37193 
L 418.223401 62.920578 
L 418.317722 62.920578 
L 418.459203 62.469225 
L 418.553525 62.469225 
L 418.695006 62.017872 
L 418.789328 62.017872 
L 418.930809 61.566519 
L 419.025131 61.566519 
L 419.166612 61.115166 
L 419.260934 61.115166 
L 419.402415 60.663814 
L 419.496736 60.663814 
L 419.638218 60.212461 
L 419.732539 60.212461 
L 419.874021 59.761108 
L 419.968342 59.761108 
L 420.109824 59.309755 
L 420.204145 59.309755 
L 420.345627 58.858403 
L 420.439948 58.858403 
L 420.58143 58.40705 
L 420.675751 58.40705 
L 420.817233 57.955697 
L 420.911554 57.955697 
L 421.053036 57.504344 
L 421.147357 57.504344 
L 421.288839 57.052991 
L 421.38316 57.052991 
L 421.524642 56.601639 
L 421.618963 56.601639 
L 421.760445 56.150286 
L 421.854766 56.150286 
L 421.996248 55.698933 
L 422.090569 55.698933 
L 422.232051 55.24758 
L 422.326372 55.24758 
L 422.467854 54.796228 
L 422.562175 54.796228 
L 422.703657 54.344875 
L 422.797978 54.344875 
L 422.93946 53.893522 
L 423.033781 53.893522 
L 423.175263 53.442169 
L 423.269584 53.442169 
L 423.411065 52.990817 
L 423.505387 52.990817 
L 423.646868 52.539464 
L 423.74119 52.539464 
L 423.882671 52.088111 
L 423.976993 52.088111 
L 424.118474 51.636758 
L 424.212796 51.636758 
L 424.354277 51.185405 
L 424.448598 51.185405 
L 424.59008 50.734053 
L 424.684401 50.734053 
L 424.825883 50.2827 
L 424.920204 50.2827 
L 425.038106 50.057023 
L 470.312273 50.057023 
L 470.312273 50.057023 
" style="fill:none;stroke:#000000;stroke-dasharray:5.55,2.4;stroke-dashoffset:0;stroke-opacity:0.595;stroke-width:1.5;"/>
   </g>
   <g id="patch_8">
    <path d="M 292.07 231.64 
L 292.07 41.28 
" style="fill:none;stroke:#000000;stroke-linecap:square;stroke-linejoin:miter;stroke-width:0.8;"/>
   </g>
   <g id="patch_9">
    <path d="M 478.8 231.64 
L 478.8 41.28 
" style="fill:none;stroke:#000000;stroke-linecap:square;stroke-linejoin:miter;stroke-width:0.8;"/>
   </g>
   <g id="patch_10">
    <path d="M 292.07 231.64 
L 478.8 231.64 
" style="fill:none;stroke:#000000;stroke-linecap:square;stroke-linejoin:miter;stroke-width:0.8;"/>
   </g>
   <g id="patch_11">
    <path d="M 292.07 41.28 
L 478.8 41.28 
" style="fill:none;stroke:#000000;stroke-linecap:square;stroke-linejoin:miter;stroke-width:0.8;"/>
   </g>
   <g id="text_30">
    <!-- Plano z -->
    <g transform="translate(363.94375 35.28)scale(0.12 -0.12)">
     <use xlink:href="#DejaVuSans-50"/>
     <use x="60.302734" xlink:href="#DejaVuSans-6c"/>
     <use x="88.085938" xlink:href="#DejaVuSans-61"/>
     <use x="149.365234" xlink:href="#DejaVuSans-6e"/>
     <use x="212.744141" xlink:href="#DejaVuSans-6f"/>
     <use x="273.925781" xlink:href="#DejaVuSans-20"/>
     <use x="305.712891" xlink:href="#DejaVuSans-7a"/>
    </g>
   </g>
  </g>
  <g id="legend_1">
   <g id="patch_12">
    <path d="M 483.89375 167.517188 
L 569 167.517188 
Q 571 167.517188 571 165.517188 
L 571 122.482812 
Q 571 120.482812 569 120.482812 
L 483.89375 120.482812 
Q 481.89375 120.482812 481.89375 122.482812 
L 481.89375 165.517188 
Q 481.89375 167.517188 483.89375 167.517188 
z
" style="fill:#ffffff;opacity:0.8;stroke:#cccccc;stroke-linejoin:miter;"/>
   </g>
   <g id="line2d_55">
    <path d="M 485.89375 128.58125 
L 505.89375 128.58125 
" style="fill:none;stroke:#1f77b4;stroke-linecap:square;stroke-opacity:0.7;stroke-width:1.5;"/>
   </g>
   <g id="line2d_56"/>
   <g id="text_31">
    <!-- DSLPID -->
    <g transform="translate(513.89375 132.08125)scale(0.1 -0.1)">
     <defs>
      <path d="M 1259 4147 
L 1259 519 
L 2022 519 
Q 2988 519 3436 956 
Q 3884 1394 3884 2338 
Q 3884 3275 3436 3711 
Q 2988 4147 2022 4147 
L 1259 4147 
z
M 628 4666 
L 1925 4666 
Q 3281 4666 3915 4102 
Q 4550 3538 4550 2338 
Q 4550 1131 3912 565 
Q 3275 0 1925 0 
L 628 0 
L 628 4666 
z
" id="DejaVuSans-44" transform="scale(0.015625)"/>
      <path d="M 3425 4513 
L 3425 3897 
Q 3066 4069 2747 4153 
Q 2428 4238 2131 4238 
Q 1616 4238 1336 4038 
Q 1056 3838 1056 3469 
Q 1056 3159 1242 3001 
Q 1428 2844 1947 2747 
L 2328 2669 
Q 3034 2534 3370 2195 
Q 3706 1856 3706 1288 
Q 3706 609 3251 259 
Q 2797 -91 1919 -91 
Q 1588 -91 1214 -16 
Q 841 59 441 206 
L 441 856 
Q 825 641 1194 531 
Q 1563 422 1919 422 
Q 2459 422 2753 634 
Q 3047 847 3047 1241 
Q 3047 1584 2836 1778 
Q 2625 1972 2144 2069 
L 1759 2144 
Q 1053 2284 737 2584 
Q 422 2884 422 3419 
Q 422 4038 858 4394 
Q 1294 4750 2059 4750 
Q 2388 4750 2728 4690 
Q 3069 4631 3425 4513 
z
" id="DejaVuSans-53" transform="scale(0.015625)"/>
      <path d="M 628 4666 
L 1259 4666 
L 1259 531 
L 3531 531 
L 3531 0 
L 628 0 
L 628 4666 
z
" id="DejaVuSans-4c" transform="scale(0.015625)"/>
      <path d="M 628 4666 
L 1259 4666 
L 1259 0 
L 628 0 
L 628 4666 
z
" id="DejaVuSans-49" transform="scale(0.015625)"/>
     </defs>
     <use xlink:href="#DejaVuSans-44"/>
     <use x="77.001953" xlink:href="#DejaVuSans-53"/>
     <use x="140.478516" xlink:href="#DejaVuSans-4c"/>
     <use x="196.191406" xlink:href="#DejaVuSans-50"/>
     <use x="256.494141" xlink:href="#DejaVuSans-49"/>
     <use x="285.986328" xlink:href="#DejaVuSans-44"/>
    </g>
   </g>
   <g id="line2d_57">
    <path d="M 485.89375 143.259375 
L 505.89375 143.259375 
" style="fill:none;stroke:#d62728;stroke-linecap:square;stroke-opacity:0.7;stroke-width:1.5;"/>
   </g>
   <g id="line2d_58"/>
   <g id="text_32">
    <!-- LSTMCNN -->
    <g transform="translate(513.89375 146.759375)scale(0.1 -0.1)">
     <defs>
      <path d="M 628 4666 
L 1569 4666 
L 2759 1491 
L 3956 4666 
L 4897 4666 
L 4897 0 
L 4281 0 
L 4281 4097 
L 3078 897 
L 2444 897 
L 1241 4097 
L 1241 0 
L 628 0 
L 628 4666 
z
" id="DejaVuSans-4d" transform="scale(0.015625)"/>
      <path d="M 4122 4306 
L 4122 3641 
Q 3803 3938 3442 4084 
Q 3081 4231 2675 4231 
Q 1875 4231 1450 3742 
Q 1025 3253 1025 2328 
Q 1025 1406 1450 917 
Q 1875 428 2675 428 
Q 3081 428 3442 575 
Q 3803 722 4122 1019 
L 4122 359 
Q 3791 134 3420 21 
Q 3050 -91 2638 -91 
Q 1578 -91 968 557 
Q 359 1206 359 2328 
Q 359 3453 968 4101 
Q 1578 4750 2638 4750 
Q 3056 4750 3426 4639 
Q 3797 4528 4122 4306 
z
" id="DejaVuSans-43" transform="scale(0.015625)"/>
      <path d="M 628 4666 
L 1478 4666 
L 3547 763 
L 3547 4666 
L 4159 4666 
L 4159 0 
L 3309 0 
L 1241 3903 
L 1241 0 
L 628 0 
L 628 4666 
z
" id="DejaVuSans-4e" transform="scale(0.015625)"/>
     </defs>
     <use xlink:href="#DejaVuSans-4c"/>
     <use x="55.712891" xlink:href="#DejaVuSans-53"/>
     <use x="119.189453" xlink:href="#DejaVuSans-54"/>
     <use x="180.273438" xlink:href="#DejaVuSans-4d"/>
     <use x="266.552734" xlink:href="#DejaVuSans-43"/>
     <use x="336.376953" xlink:href="#DejaVuSans-4e"/>
     <use x="411.181641" xlink:href="#DejaVuSans-4e"/>
    </g>
   </g>
   <g id="line2d_59">
    <path d="M 485.89375 157.9375 
L 505.89375 157.9375 
" style="fill:none;stroke:#000000;stroke-dasharray:5.55,2.4;stroke-dashoffset:0;stroke-opacity:0.595;stroke-width:1.5;"/>
   </g>
   <g id="line2d_60"/>
   <g id="text_33">
    <!-- Referencia -->
    <g transform="translate(513.89375 161.4375)scale(0.1 -0.1)">
     <defs>
      <path d="M 2841 2188 
Q 3044 2119 3236 1894 
Q 3428 1669 3622 1275 
L 4263 0 
L 3584 0 
L 2988 1197 
Q 2756 1666 2539 1819 
Q 2322 1972 1947 1972 
L 1259 1972 
L 1259 0 
L 628 0 
L 628 4666 
L 2053 4666 
Q 2853 4666 3247 4331 
Q 3641 3997 3641 3322 
Q 3641 2881 3436 2590 
Q 3231 2300 2841 2188 
z
M 1259 4147 
L 1259 2491 
L 2053 2491 
Q 2509 2491 2742 2702 
Q 2975 2913 2975 3322 
Q 2975 3731 2742 3939 
Q 2509 4147 2053 4147 
L 1259 4147 
z
" id="DejaVuSans-52" transform="scale(0.015625)"/>
      <path d="M 2375 4863 
L 2375 4384 
L 1825 4384 
Q 1516 4384 1395 4259 
Q 1275 4134 1275 3809 
L 1275 3500 
L 2222 3500 
L 2222 3053 
L 1275 3053 
L 1275 0 
L 697 0 
L 697 3053 
L 147 3053 
L 147 3500 
L 697 3500 
L 697 3744 
Q 697 4328 969 4595 
Q 1241 4863 1831 4863 
L 2375 4863 
z
" id="DejaVuSans-66" transform="scale(0.015625)"/>
      <path d="M 2631 2963 
Q 2534 3019 2420 3045 
Q 2306 3072 2169 3072 
Q 1681 3072 1420 2755 
Q 1159 2438 1159 1844 
L 1159 0 
L 581 0 
L 581 3500 
L 1159 3500 
L 1159 2956 
Q 1341 3275 1631 3429 
Q 1922 3584 2338 3584 
Q 2397 3584 2469 3576 
Q 2541 3569 2628 3553 
L 2631 2963 
z
" id="DejaVuSans-72" transform="scale(0.015625)"/>
      <path d="M 3122 3366 
L 3122 2828 
Q 2878 2963 2633 3030 
Q 2388 3097 2138 3097 
Q 1578 3097 1268 2742 
Q 959 2388 959 1747 
Q 959 1106 1268 751 
Q 1578 397 2138 397 
Q 2388 397 2633 464 
Q 2878 531 3122 666 
L 3122 134 
Q 2881 22 2623 -34 
Q 2366 -91 2075 -91 
Q 1284 -91 818 406 
Q 353 903 353 1747 
Q 353 2603 823 3093 
Q 1294 3584 2113 3584 
Q 2378 3584 2631 3529 
Q 2884 3475 3122 3366 
z
" id="DejaVuSans-63" transform="scale(0.015625)"/>
     </defs>
     <use xlink:href="#DejaVuSans-52"/>
     <use x="64.982422" xlink:href="#DejaVuSans-65"/>
     <use x="126.505859" xlink:href="#DejaVuSans-66"/>
     <use x="161.710938" xlink:href="#DejaVuSans-65"/>
     <use x="223.234375" xlink:href="#DejaVuSans-72"/>
     <use x="262.097656" xlink:href="#DejaVuSans-65"/>
     <use x="323.621094" xlink:href="#DejaVuSans-6e"/>
     <use x="387" xlink:href="#DejaVuSans-63"/>
     <use x="441.980469" xlink:href="#DejaVuSans-69"/>
     <use x="469.763672" xlink:href="#DejaVuSans-61"/>
    </g>
   </g>
  </g>
 </g>
 <defs>
  <clipPath id="p4c4ac045d1">
   <rect height="190.36" width="186.73" x="67.07" y="41.28"/>
  </clipPath>
  <clipPath id="p6a9a4d8791">
   <rect height="190.36" width="186.73" x="292.07" y="41.28"/>
  </clipPath>
 </defs>
</svg>
