<?xml version="1.0" encoding="utf-8" standalone="no"?>
<!DOCTYPE svg PUBLIC "-//W3C//DTD SVG 1.1//EN"
  "http://www.w3.org/Graphics/SVG/1.1/DTD/svg11.dtd">
<svg height="576pt" version="1.1" viewBox="0 0 576 576" width="576pt" xmlns="http://www.w3.org/2000/svg" xmlns:xlink="http://www.w3.org/1999/xlink">
 <metadata>
  <rdf:RDF xmlns:cc="http://creativecommons.org/ns#" xmlns:dc="http://purl.org/dc/elements/1.1/" xmlns:rdf="http://www.w3.org/1999/02/22-rdf-syntax-ns#">
   <cc:Work>
    <dc:type rdf:resource="http://purl.org/dc/dcmitype/StillImage"/>
    <dc:date>2022-02-27T17:31:00.444732</dc:date>
    <dc:format>image/svg+xml</dc:format>
    <dc:creator>
     <cc:Agent>
      <dc:title>Matplotlib v3.4.3, https://matplotlib.org/</dc:title>
     </cc:Agent>
    </dc:creator>
   </cc:Work>
  </rdf:RDF>
 </metadata>
 <defs>
  <style type="text/css">*{stroke-linecap:butt;stroke-linejoin:round;}</style>
 </defs>
 <g id="figure_1">
  <g id="patch_1">
   <path d="M 0 576 
L 576 576 
L 576 0 
L 0 0 
z
" style="fill:#ffffff;"/>
  </g>
  <g id="axes_1">
   <g id="patch_2">
    <path d="M 78.19 259.26 
L 256.95 259.26 
L 256.95 55.68 
L 78.19 55.68 
z
" style="fill:#ffffff;"/>
   </g>
   <g id="matplotlib.axis_1">
    <g id="xtick_1">
     <g id="line2d_1">
      <path clip-path="url(#p1b8f0c9259)" d="M 86.315455 259.26 
L 86.315455 55.68 
" style="fill:none;stroke:#b0b0b0;stroke-linecap:square;stroke-width:0.8;"/>
     </g>
     <g id="line2d_2">
      <defs>
       <path d="M 0 0 
L 0 3.5 
" id="m0178b6c547" style="stroke:#000000;stroke-width:0.8;"/>
      </defs>
      <g>
       <use style="stroke:#000000;stroke-width:0.8;" x="86.315455" xlink:href="#m0178b6c547" y="259.26"/>
      </g>
     </g>
    </g>
    <g id="xtick_2">
     <g id="line2d_3">
      <path clip-path="url(#p1b8f0c9259)" d="M 126.951193 259.26 
L 126.951193 55.68 
" style="fill:none;stroke:#b0b0b0;stroke-linecap:square;stroke-width:0.8;"/>
     </g>
     <g id="line2d_4">
      <g>
       <use style="stroke:#000000;stroke-width:0.8;" x="126.951193" xlink:href="#m0178b6c547" y="259.26"/>
      </g>
     </g>
    </g>
    <g id="xtick_3">
     <g id="line2d_5">
      <path clip-path="url(#p1b8f0c9259)" d="M 167.586932 259.26 
L 167.586932 55.68 
" style="fill:none;stroke:#b0b0b0;stroke-linecap:square;stroke-width:0.8;"/>
     </g>
     <g id="line2d_6">
      <g>
       <use style="stroke:#000000;stroke-width:0.8;" x="167.586932" xlink:href="#m0178b6c547" y="259.26"/>
      </g>
     </g>
    </g>
    <g id="xtick_4">
     <g id="line2d_7">
      <path clip-path="url(#p1b8f0c9259)" d="M 208.22267 259.26 
L 208.22267 55.68 
" style="fill:none;stroke:#b0b0b0;stroke-linecap:square;stroke-width:0.8;"/>
     </g>
     <g id="line2d_8">
      <g>
       <use style="stroke:#000000;stroke-width:0.8;" x="208.22267" xlink:href="#m0178b6c547" y="259.26"/>
      </g>
     </g>
    </g>
    <g id="xtick_5">
     <g id="line2d_9">
      <path clip-path="url(#p1b8f0c9259)" d="M 248.858409 259.26 
L 248.858409 55.68 
" style="fill:none;stroke:#b0b0b0;stroke-linecap:square;stroke-width:0.8;"/>
     </g>
     <g id="line2d_10">
      <g>
       <use style="stroke:#000000;stroke-width:0.8;" x="248.858409" xlink:href="#m0178b6c547" y="259.26"/>
      </g>
     </g>
    </g>
    <g id="text_1">
     <!-- Tiempo (s) -->
     <g transform="translate(141.0075 270.858438)scale(0.1 -0.1)">
      <defs>
       <path d="M -19 4666 
L 3928 4666 
L 3928 4134 
L 2272 4134 
L 2272 0 
L 1638 0 
L 1638 4134 
L -19 4134 
L -19 4666 
z
" id="DejaVuSans-54" transform="scale(0.015625)"/>
       <path d="M 603 3500 
L 1178 3500 
L 1178 0 
L 603 0 
L 603 3500 
z
M 603 4863 
L 1178 4863 
L 1178 4134 
L 603 4134 
L 603 4863 
z
" id="DejaVuSans-69" transform="scale(0.015625)"/>
       <path d="M 3597 1894 
L 3597 1613 
L 953 1613 
Q 991 1019 1311 708 
Q 1631 397 2203 397 
Q 2534 397 2845 478 
Q 3156 559 3463 722 
L 3463 178 
Q 3153 47 2828 -22 
Q 2503 -91 2169 -91 
Q 1331 -91 842 396 
Q 353 884 353 1716 
Q 353 2575 817 3079 
Q 1281 3584 2069 3584 
Q 2775 3584 3186 3129 
Q 3597 2675 3597 1894 
z
M 3022 2063 
Q 3016 2534 2758 2815 
Q 2500 3097 2075 3097 
Q 1594 3097 1305 2825 
Q 1016 2553 972 2059 
L 3022 2063 
z
" id="DejaVuSans-65" transform="scale(0.015625)"/>
       <path d="M 3328 2828 
Q 3544 3216 3844 3400 
Q 4144 3584 4550 3584 
Q 5097 3584 5394 3201 
Q 5691 2819 5691 2113 
L 5691 0 
L 5113 0 
L 5113 2094 
Q 5113 2597 4934 2840 
Q 4756 3084 4391 3084 
Q 3944 3084 3684 2787 
Q 3425 2491 3425 1978 
L 3425 0 
L 2847 0 
L 2847 2094 
Q 2847 2600 2669 2842 
Q 2491 3084 2119 3084 
Q 1678 3084 1418 2786 
Q 1159 2488 1159 1978 
L 1159 0 
L 581 0 
L 581 3500 
L 1159 3500 
L 1159 2956 
Q 1356 3278 1631 3431 
Q 1906 3584 2284 3584 
Q 2666 3584 2933 3390 
Q 3200 3197 3328 2828 
z
" id="DejaVuSans-6d" transform="scale(0.015625)"/>
       <path d="M 1159 525 
L 1159 -1331 
L 581 -1331 
L 581 3500 
L 1159 3500 
L 1159 2969 
Q 1341 3281 1617 3432 
Q 1894 3584 2278 3584 
Q 2916 3584 3314 3078 
Q 3713 2572 3713 1747 
Q 3713 922 3314 415 
Q 2916 -91 2278 -91 
Q 1894 -91 1617 61 
Q 1341 213 1159 525 
z
M 3116 1747 
Q 3116 2381 2855 2742 
Q 2594 3103 2138 3103 
Q 1681 3103 1420 2742 
Q 1159 2381 1159 1747 
Q 1159 1113 1420 752 
Q 1681 391 2138 391 
Q 2594 391 2855 752 
Q 3116 1113 3116 1747 
z
" id="DejaVuSans-70" transform="scale(0.015625)"/>
       <path d="M 1959 3097 
Q 1497 3097 1228 2736 
Q 959 2375 959 1747 
Q 959 1119 1226 758 
Q 1494 397 1959 397 
Q 2419 397 2687 759 
Q 2956 1122 2956 1747 
Q 2956 2369 2687 2733 
Q 2419 3097 1959 3097 
z
M 1959 3584 
Q 2709 3584 3137 3096 
Q 3566 2609 3566 1747 
Q 3566 888 3137 398 
Q 2709 -91 1959 -91 
Q 1206 -91 779 398 
Q 353 888 353 1747 
Q 353 2609 779 3096 
Q 1206 3584 1959 3584 
z
" id="DejaVuSans-6f" transform="scale(0.015625)"/>
       <path id="DejaVuSans-20" transform="scale(0.015625)"/>
       <path d="M 1984 4856 
Q 1566 4138 1362 3434 
Q 1159 2731 1159 2009 
Q 1159 1288 1364 580 
Q 1569 -128 1984 -844 
L 1484 -844 
Q 1016 -109 783 600 
Q 550 1309 550 2009 
Q 550 2706 781 3412 
Q 1013 4119 1484 4856 
L 1984 4856 
z
" id="DejaVuSans-28" transform="scale(0.015625)"/>
       <path d="M 2834 3397 
L 2834 2853 
Q 2591 2978 2328 3040 
Q 2066 3103 1784 3103 
Q 1356 3103 1142 2972 
Q 928 2841 928 2578 
Q 928 2378 1081 2264 
Q 1234 2150 1697 2047 
L 1894 2003 
Q 2506 1872 2764 1633 
Q 3022 1394 3022 966 
Q 3022 478 2636 193 
Q 2250 -91 1575 -91 
Q 1294 -91 989 -36 
Q 684 19 347 128 
L 347 722 
Q 666 556 975 473 
Q 1284 391 1588 391 
Q 1994 391 2212 530 
Q 2431 669 2431 922 
Q 2431 1156 2273 1281 
Q 2116 1406 1581 1522 
L 1381 1569 
Q 847 1681 609 1914 
Q 372 2147 372 2553 
Q 372 3047 722 3315 
Q 1072 3584 1716 3584 
Q 2034 3584 2315 3537 
Q 2597 3491 2834 3397 
z
" id="DejaVuSans-73" transform="scale(0.015625)"/>
       <path d="M 513 4856 
L 1013 4856 
Q 1481 4119 1714 3412 
Q 1947 2706 1947 2009 
Q 1947 1309 1714 600 
Q 1481 -109 1013 -844 
L 513 -844 
Q 928 -128 1133 580 
Q 1338 1288 1338 2009 
Q 1338 2731 1133 3434 
Q 928 4138 513 4856 
z
" id="DejaVuSans-29" transform="scale(0.015625)"/>
      </defs>
      <use xlink:href="#DejaVuSans-54"/>
      <use x="57.958984" xlink:href="#DejaVuSans-69"/>
      <use x="85.742188" xlink:href="#DejaVuSans-65"/>
      <use x="147.265625" xlink:href="#DejaVuSans-6d"/>
      <use x="244.677734" xlink:href="#DejaVuSans-70"/>
      <use x="308.154297" xlink:href="#DejaVuSans-6f"/>
      <use x="369.335938" xlink:href="#DejaVuSans-20"/>
      <use x="401.123047" xlink:href="#DejaVuSans-28"/>
      <use x="440.136719" xlink:href="#DejaVuSans-73"/>
      <use x="492.236328" xlink:href="#DejaVuSans-29"/>
     </g>
    </g>
   </g>
   <g id="matplotlib.axis_2">
    <g id="ytick_1">
     <g id="line2d_11">
      <path clip-path="url(#p1b8f0c9259)" d="M 78.19 250.006364 
L 256.95 250.006364 
" style="fill:none;stroke:#b0b0b0;stroke-linecap:square;stroke-width:0.8;"/>
     </g>
     <g id="line2d_12">
      <defs>
       <path d="M 0 0 
L -3.5 0 
" id="mb2e5eac414" style="stroke:#000000;stroke-width:0.8;"/>
      </defs>
      <g>
       <use style="stroke:#000000;stroke-width:0.8;" x="78.19" xlink:href="#mb2e5eac414" y="250.006364"/>
      </g>
     </g>
     <g id="text_2">
      <!-- 0 -->
      <g transform="translate(64.8275 253.805582)scale(0.1 -0.1)">
       <defs>
        <path d="M 2034 4250 
Q 1547 4250 1301 3770 
Q 1056 3291 1056 2328 
Q 1056 1369 1301 889 
Q 1547 409 2034 409 
Q 2525 409 2770 889 
Q 3016 1369 3016 2328 
Q 3016 3291 2770 3770 
Q 2525 4250 2034 4250 
z
M 2034 4750 
Q 2819 4750 3233 4129 
Q 3647 3509 3647 2328 
Q 3647 1150 3233 529 
Q 2819 -91 2034 -91 
Q 1250 -91 836 529 
Q 422 1150 422 2328 
Q 422 3509 836 4129 
Q 1250 4750 2034 4750 
z
" id="DejaVuSans-30" transform="scale(0.015625)"/>
       </defs>
       <use xlink:href="#DejaVuSans-30"/>
      </g>
     </g>
    </g>
    <g id="ytick_2">
     <g id="line2d_13">
      <path clip-path="url(#p1b8f0c9259)" d="M 78.19 225.348657 
L 256.95 225.348657 
" style="fill:none;stroke:#b0b0b0;stroke-linecap:square;stroke-width:0.8;"/>
     </g>
     <g id="line2d_14">
      <g>
       <use style="stroke:#000000;stroke-width:0.8;" x="78.19" xlink:href="#mb2e5eac414" y="225.348657"/>
      </g>
     </g>
     <g id="text_3">
      <!-- 2500 -->
      <g transform="translate(45.74 229.147876)scale(0.1 -0.1)">
       <defs>
        <path d="M 1228 531 
L 3431 531 
L 3431 0 
L 469 0 
L 469 531 
Q 828 903 1448 1529 
Q 2069 2156 2228 2338 
Q 2531 2678 2651 2914 
Q 2772 3150 2772 3378 
Q 2772 3750 2511 3984 
Q 2250 4219 1831 4219 
Q 1534 4219 1204 4116 
Q 875 4013 500 3803 
L 500 4441 
Q 881 4594 1212 4672 
Q 1544 4750 1819 4750 
Q 2544 4750 2975 4387 
Q 3406 4025 3406 3419 
Q 3406 3131 3298 2873 
Q 3191 2616 2906 2266 
Q 2828 2175 2409 1742 
Q 1991 1309 1228 531 
z
" id="DejaVuSans-32" transform="scale(0.015625)"/>
        <path d="M 691 4666 
L 3169 4666 
L 3169 4134 
L 1269 4134 
L 1269 2991 
Q 1406 3038 1543 3061 
Q 1681 3084 1819 3084 
Q 2600 3084 3056 2656 
Q 3513 2228 3513 1497 
Q 3513 744 3044 326 
Q 2575 -91 1722 -91 
Q 1428 -91 1123 -41 
Q 819 9 494 109 
L 494 744 
Q 775 591 1075 516 
Q 1375 441 1709 441 
Q 2250 441 2565 725 
Q 2881 1009 2881 1497 
Q 2881 1984 2565 2268 
Q 2250 2553 1709 2553 
Q 1456 2553 1204 2497 
Q 953 2441 691 2322 
L 691 4666 
z
" id="DejaVuSans-35" transform="scale(0.015625)"/>
       </defs>
       <use xlink:href="#DejaVuSans-32"/>
       <use x="63.623047" xlink:href="#DejaVuSans-35"/>
       <use x="127.246094" xlink:href="#DejaVuSans-30"/>
       <use x="190.869141" xlink:href="#DejaVuSans-30"/>
      </g>
     </g>
    </g>
    <g id="ytick_3">
     <g id="line2d_15">
      <path clip-path="url(#p1b8f0c9259)" d="M 78.19 200.690951 
L 256.95 200.690951 
" style="fill:none;stroke:#b0b0b0;stroke-linecap:square;stroke-width:0.8;"/>
     </g>
     <g id="line2d_16">
      <g>
       <use style="stroke:#000000;stroke-width:0.8;" x="78.19" xlink:href="#mb2e5eac414" y="200.690951"/>
      </g>
     </g>
     <g id="text_4">
      <!-- 5000 -->
      <g transform="translate(45.74 204.49017)scale(0.1 -0.1)">
       <use xlink:href="#DejaVuSans-35"/>
       <use x="63.623047" xlink:href="#DejaVuSans-30"/>
       <use x="127.246094" xlink:href="#DejaVuSans-30"/>
       <use x="190.869141" xlink:href="#DejaVuSans-30"/>
      </g>
     </g>
    </g>
    <g id="ytick_4">
     <g id="line2d_17">
      <path clip-path="url(#p1b8f0c9259)" d="M 78.19 176.033244 
L 256.95 176.033244 
" style="fill:none;stroke:#b0b0b0;stroke-linecap:square;stroke-width:0.8;"/>
     </g>
     <g id="line2d_18">
      <g>
       <use style="stroke:#000000;stroke-width:0.8;" x="78.19" xlink:href="#mb2e5eac414" y="176.033244"/>
      </g>
     </g>
     <g id="text_5">
      <!-- 7500 -->
      <g transform="translate(45.74 179.832463)scale(0.1 -0.1)">
       <defs>
        <path d="M 525 4666 
L 3525 4666 
L 3525 4397 
L 1831 0 
L 1172 0 
L 2766 4134 
L 525 4134 
L 525 4666 
z
" id="DejaVuSans-37" transform="scale(0.015625)"/>
       </defs>
       <use xlink:href="#DejaVuSans-37"/>
       <use x="63.623047" xlink:href="#DejaVuSans-35"/>
       <use x="127.246094" xlink:href="#DejaVuSans-30"/>
       <use x="190.869141" xlink:href="#DejaVuSans-30"/>
      </g>
     </g>
    </g>
    <g id="ytick_5">
     <g id="line2d_19">
      <path clip-path="url(#p1b8f0c9259)" d="M 78.19 151.375538 
L 256.95 151.375538 
" style="fill:none;stroke:#b0b0b0;stroke-linecap:square;stroke-width:0.8;"/>
     </g>
     <g id="line2d_20">
      <g>
       <use style="stroke:#000000;stroke-width:0.8;" x="78.19" xlink:href="#mb2e5eac414" y="151.375538"/>
      </g>
     </g>
     <g id="text_6">
      <!-- 10000 -->
      <g transform="translate(39.3775 155.174757)scale(0.1 -0.1)">
       <defs>
        <path d="M 794 531 
L 1825 531 
L 1825 4091 
L 703 3866 
L 703 4441 
L 1819 4666 
L 2450 4666 
L 2450 531 
L 3481 531 
L 3481 0 
L 794 0 
L 794 531 
z
" id="DejaVuSans-31" transform="scale(0.015625)"/>
       </defs>
       <use xlink:href="#DejaVuSans-31"/>
       <use x="63.623047" xlink:href="#DejaVuSans-30"/>
       <use x="127.246094" xlink:href="#DejaVuSans-30"/>
       <use x="190.869141" xlink:href="#DejaVuSans-30"/>
       <use x="254.492188" xlink:href="#DejaVuSans-30"/>
      </g>
     </g>
    </g>
    <g id="ytick_6">
     <g id="line2d_21">
      <path clip-path="url(#p1b8f0c9259)" d="M 78.19 126.717832 
L 256.95 126.717832 
" style="fill:none;stroke:#b0b0b0;stroke-linecap:square;stroke-width:0.8;"/>
     </g>
     <g id="line2d_22">
      <g>
       <use style="stroke:#000000;stroke-width:0.8;" x="78.19" xlink:href="#mb2e5eac414" y="126.717832"/>
      </g>
     </g>
     <g id="text_7">
      <!-- 12500 -->
      <g transform="translate(39.3775 130.51705)scale(0.1 -0.1)">
       <use xlink:href="#DejaVuSans-31"/>
       <use x="63.623047" xlink:href="#DejaVuSans-32"/>
       <use x="127.246094" xlink:href="#DejaVuSans-35"/>
       <use x="190.869141" xlink:href="#DejaVuSans-30"/>
       <use x="254.492188" xlink:href="#DejaVuSans-30"/>
      </g>
     </g>
    </g>
    <g id="ytick_7">
     <g id="line2d_23">
      <path clip-path="url(#p1b8f0c9259)" d="M 78.19 102.060125 
L 256.95 102.060125 
" style="fill:none;stroke:#b0b0b0;stroke-linecap:square;stroke-width:0.8;"/>
     </g>
     <g id="line2d_24">
      <g>
       <use style="stroke:#000000;stroke-width:0.8;" x="78.19" xlink:href="#mb2e5eac414" y="102.060125"/>
      </g>
     </g>
     <g id="text_8">
      <!-- 15000 -->
      <g transform="translate(39.3775 105.859344)scale(0.1 -0.1)">
       <use xlink:href="#DejaVuSans-31"/>
       <use x="63.623047" xlink:href="#DejaVuSans-35"/>
       <use x="127.246094" xlink:href="#DejaVuSans-30"/>
       <use x="190.869141" xlink:href="#DejaVuSans-30"/>
       <use x="254.492188" xlink:href="#DejaVuSans-30"/>
      </g>
     </g>
    </g>
    <g id="ytick_8">
     <g id="line2d_25">
      <path clip-path="url(#p1b8f0c9259)" d="M 78.19 77.402419 
L 256.95 77.402419 
" style="fill:none;stroke:#b0b0b0;stroke-linecap:square;stroke-width:0.8;"/>
     </g>
     <g id="line2d_26">
      <g>
       <use style="stroke:#000000;stroke-width:0.8;" x="78.19" xlink:href="#mb2e5eac414" y="77.402419"/>
      </g>
     </g>
     <g id="text_9">
      <!-- 17500 -->
      <g transform="translate(39.3775 81.201638)scale(0.1 -0.1)">
       <use xlink:href="#DejaVuSans-31"/>
       <use x="63.623047" xlink:href="#DejaVuSans-37"/>
       <use x="127.246094" xlink:href="#DejaVuSans-35"/>
       <use x="190.869141" xlink:href="#DejaVuSans-30"/>
       <use x="254.492188" xlink:href="#DejaVuSans-30"/>
      </g>
     </g>
    </g>
   </g>
   <g id="line2d_27">
    <path clip-path="url(#p1b8f0c9259)" d="M 86.315455 250.006364 
L 133.283596 249.89527 
L 238.902653 249.800594 
L 248.824545 249.79712 
L 248.824545 249.79712 
" style="fill:none;stroke:#1f77b4;stroke-linecap:square;stroke-opacity:0.7;stroke-width:1.5;"/>
   </g>
   <g id="line2d_28">
    <path clip-path="url(#p1b8f0c9259)" d="M 86.315455 250.006364 
L 130.371368 249.895674 
L 138.3292 249.864982 
L 243.846667 249.709072 
L 248.824545 249.70062 
L 248.824545 249.70062 
" style="fill:none;stroke:#d62728;stroke-linecap:square;stroke-opacity:0.7;stroke-width:1.5;"/>
   </g>
   <g id="line2d_29">
    <path clip-path="url(#p1b8f0c9259)" d="M 86.315455 250.006364 
L 93.325119 249.897816 
L 95.28918 249.635212 
L 96.779157 249.214462 
L 98.032092 248.632105 
L 99.217302 247.830163 
L 100.673415 246.558051 
L 102.332708 244.785714 
L 104.364495 242.271592 
L 110.595308 234.354825 
L 115.099103 229.010476 
L 119.704486 223.484854 
L 133.012691 207.336248 
L 248.824545 64.933636 
L 248.824545 64.933636 
" style="fill:none;stroke:#9467bd;stroke-linecap:square;stroke-opacity:0.7;stroke-width:1.5;"/>
   </g>
   <g id="line2d_30">
    <path clip-path="url(#p1b8f0c9259)" d="M 86.315455 250.006364 
L 130.100463 249.895838 
L 136.771497 249.863187 
L 247.402295 249.732975 
L 248.824545 249.730574 
L 248.824545 249.730574 
" style="fill:none;stroke:#bcbd22;stroke-linecap:square;stroke-opacity:0.7;stroke-width:1.5;"/>
   </g>
   <g id="line2d_31">
    <path clip-path="url(#p1b8f0c9259)" d="M 86.315455 250.006364 
L 129.287748 249.895917 
L 135.450835 249.845644 
L 248.824545 249.805131 
L 248.824545 249.805131 
" style="fill:none;stroke:#2ca02c;stroke-linecap:square;stroke-opacity:0.7;stroke-width:1.5;"/>
   </g>
   <g id="line2d_32">
    <path clip-path="url(#p1b8f0c9259)" d="M 86.315455 250.006364 
L 129.931147 249.895537 
L 136.737633 249.858283 
L 243.745078 249.723451 
L 248.824545 249.715171 
L 248.824545 249.715171 
" style="fill:none;stroke:#17becf;stroke-linecap:square;stroke-opacity:0.7;stroke-width:1.5;"/>
   </g>
   <g id="patch_3">
    <path d="M 78.19 259.26 
L 78.19 55.68 
" style="fill:none;stroke:#000000;stroke-linecap:square;stroke-linejoin:miter;stroke-width:0.8;"/>
   </g>
   <g id="patch_4">
    <path d="M 256.95 259.26 
L 256.95 55.68 
" style="fill:none;stroke:#000000;stroke-linecap:square;stroke-linejoin:miter;stroke-width:0.8;"/>
   </g>
   <g id="patch_5">
    <path d="M 78.19 259.26 
L 256.95 259.26 
" style="fill:none;stroke:#000000;stroke-linecap:square;stroke-linejoin:miter;stroke-width:0.8;"/>
   </g>
   <g id="patch_6">
    <path d="M 78.19 55.68 
L 256.95 55.68 
" style="fill:none;stroke:#000000;stroke-linecap:square;stroke-linejoin:miter;stroke-width:0.8;"/>
   </g>
   <g id="text_10">
    <!-- x (m) -->
    <g transform="translate(151.585625 49.68)scale(0.12 -0.12)">
     <defs>
      <path d="M 3513 3500 
L 2247 1797 
L 3578 0 
L 2900 0 
L 1881 1375 
L 863 0 
L 184 0 
L 1544 1831 
L 300 3500 
L 978 3500 
L 1906 2253 
L 2834 3500 
L 3513 3500 
z
" id="DejaVuSans-78" transform="scale(0.015625)"/>
     </defs>
     <use xlink:href="#DejaVuSans-78"/>
     <use x="59.179688" xlink:href="#DejaVuSans-20"/>
     <use x="90.966797" xlink:href="#DejaVuSans-28"/>
     <use x="129.980469" xlink:href="#DejaVuSans-6d"/>
     <use x="227.392578" xlink:href="#DejaVuSans-29"/>
    </g>
   </g>
  </g>
  <g id="axes_2">
   <g id="patch_7">
    <path d="M 300.04 259.26 
L 478.8 259.26 
L 478.8 55.68 
L 300.04 55.68 
z
" style="fill:#ffffff;"/>
   </g>
   <g id="matplotlib.axis_3">
    <g id="xtick_6">
     <g id="line2d_33">
      <path clip-path="url(#p5acd7ecb61)" d="M 308.165455 259.26 
L 308.165455 55.68 
" style="fill:none;stroke:#b0b0b0;stroke-linecap:square;stroke-width:0.8;"/>
     </g>
     <g id="line2d_34">
      <g>
       <use style="stroke:#000000;stroke-width:0.8;" x="308.165455" xlink:href="#m0178b6c547" y="259.26"/>
      </g>
     </g>
    </g>
    <g id="xtick_7">
     <g id="line2d_35">
      <path clip-path="url(#p5acd7ecb61)" d="M 348.801193 259.26 
L 348.801193 55.68 
" style="fill:none;stroke:#b0b0b0;stroke-linecap:square;stroke-width:0.8;"/>
     </g>
     <g id="line2d_36">
      <g>
       <use style="stroke:#000000;stroke-width:0.8;" x="348.801193" xlink:href="#m0178b6c547" y="259.26"/>
      </g>
     </g>
    </g>
    <g id="xtick_8">
     <g id="line2d_37">
      <path clip-path="url(#p5acd7ecb61)" d="M 389.436932 259.26 
L 389.436932 55.68 
" style="fill:none;stroke:#b0b0b0;stroke-linecap:square;stroke-width:0.8;"/>
     </g>
     <g id="line2d_38">
      <g>
       <use style="stroke:#000000;stroke-width:0.8;" x="389.436932" xlink:href="#m0178b6c547" y="259.26"/>
      </g>
     </g>
    </g>
    <g id="xtick_9">
     <g id="line2d_39">
      <path clip-path="url(#p5acd7ecb61)" d="M 430.07267 259.26 
L 430.07267 55.68 
" style="fill:none;stroke:#b0b0b0;stroke-linecap:square;stroke-width:0.8;"/>
     </g>
     <g id="line2d_40">
      <g>
       <use style="stroke:#000000;stroke-width:0.8;" x="430.07267" xlink:href="#m0178b6c547" y="259.26"/>
      </g>
     </g>
    </g>
    <g id="xtick_10">
     <g id="line2d_41">
      <path clip-path="url(#p5acd7ecb61)" d="M 470.708409 259.26 
L 470.708409 55.68 
" style="fill:none;stroke:#b0b0b0;stroke-linecap:square;stroke-width:0.8;"/>
     </g>
     <g id="line2d_42">
      <g>
       <use style="stroke:#000000;stroke-width:0.8;" x="470.708409" xlink:href="#m0178b6c547" y="259.26"/>
      </g>
     </g>
    </g>
    <g id="text_11">
     <!-- Tiempo (s) -->
     <g transform="translate(362.8575 270.858438)scale(0.1 -0.1)">
      <use xlink:href="#DejaVuSans-54"/>
      <use x="57.958984" xlink:href="#DejaVuSans-69"/>
      <use x="85.742188" xlink:href="#DejaVuSans-65"/>
      <use x="147.265625" xlink:href="#DejaVuSans-6d"/>
      <use x="244.677734" xlink:href="#DejaVuSans-70"/>
      <use x="308.154297" xlink:href="#DejaVuSans-6f"/>
      <use x="369.335938" xlink:href="#DejaVuSans-20"/>
      <use x="401.123047" xlink:href="#DejaVuSans-28"/>
      <use x="440.136719" xlink:href="#DejaVuSans-73"/>
      <use x="492.236328" xlink:href="#DejaVuSans-29"/>
     </g>
    </g>
   </g>
   <g id="matplotlib.axis_4">
    <g id="ytick_9">
     <g id="line2d_43">
      <path clip-path="url(#p5acd7ecb61)" d="M 300.04 250.006364 
L 478.8 250.006364 
" style="fill:none;stroke:#b0b0b0;stroke-linecap:square;stroke-width:0.8;"/>
     </g>
     <g id="line2d_44">
      <g>
       <use style="stroke:#000000;stroke-width:0.8;" x="300.04" xlink:href="#mb2e5eac414" y="250.006364"/>
      </g>
     </g>
     <g id="text_12">
      <!-- 0 -->
      <g transform="translate(286.6775 253.805582)scale(0.1 -0.1)">
       <use xlink:href="#DejaVuSans-30"/>
      </g>
     </g>
    </g>
    <g id="ytick_10">
     <g id="line2d_45">
      <path clip-path="url(#p5acd7ecb61)" d="M 300.04 215.468833 
L 478.8 215.468833 
" style="fill:none;stroke:#b0b0b0;stroke-linecap:square;stroke-width:0.8;"/>
     </g>
     <g id="line2d_46">
      <g>
       <use style="stroke:#000000;stroke-width:0.8;" x="300.04" xlink:href="#mb2e5eac414" y="215.468833"/>
      </g>
     </g>
     <g id="text_13">
      <!-- 200 -->
      <g transform="translate(273.9525 219.268052)scale(0.1 -0.1)">
       <use xlink:href="#DejaVuSans-32"/>
       <use x="63.623047" xlink:href="#DejaVuSans-30"/>
       <use x="127.246094" xlink:href="#DejaVuSans-30"/>
      </g>
     </g>
    </g>
    <g id="ytick_11">
     <g id="line2d_47">
      <path clip-path="url(#p5acd7ecb61)" d="M 300.04 180.931302 
L 478.8 180.931302 
" style="fill:none;stroke:#b0b0b0;stroke-linecap:square;stroke-width:0.8;"/>
     </g>
     <g id="line2d_48">
      <g>
       <use style="stroke:#000000;stroke-width:0.8;" x="300.04" xlink:href="#mb2e5eac414" y="180.931302"/>
      </g>
     </g>
     <g id="text_14">
      <!-- 400 -->
      <g transform="translate(273.9525 184.730521)scale(0.1 -0.1)">
       <defs>
        <path d="M 2419 4116 
L 825 1625 
L 2419 1625 
L 2419 4116 
z
M 2253 4666 
L 3047 4666 
L 3047 1625 
L 3713 1625 
L 3713 1100 
L 3047 1100 
L 3047 0 
L 2419 0 
L 2419 1100 
L 313 1100 
L 313 1709 
L 2253 4666 
z
" id="DejaVuSans-34" transform="scale(0.015625)"/>
       </defs>
       <use xlink:href="#DejaVuSans-34"/>
       <use x="63.623047" xlink:href="#DejaVuSans-30"/>
       <use x="127.246094" xlink:href="#DejaVuSans-30"/>
      </g>
     </g>
    </g>
    <g id="ytick_12">
     <g id="line2d_49">
      <path clip-path="url(#p5acd7ecb61)" d="M 300.04 146.393771 
L 478.8 146.393771 
" style="fill:none;stroke:#b0b0b0;stroke-linecap:square;stroke-width:0.8;"/>
     </g>
     <g id="line2d_50">
      <g>
       <use style="stroke:#000000;stroke-width:0.8;" x="300.04" xlink:href="#mb2e5eac414" y="146.393771"/>
      </g>
     </g>
     <g id="text_15">
      <!-- 600 -->
      <g transform="translate(273.9525 150.19299)scale(0.1 -0.1)">
       <defs>
        <path d="M 2113 2584 
Q 1688 2584 1439 2293 
Q 1191 2003 1191 1497 
Q 1191 994 1439 701 
Q 1688 409 2113 409 
Q 2538 409 2786 701 
Q 3034 994 3034 1497 
Q 3034 2003 2786 2293 
Q 2538 2584 2113 2584 
z
M 3366 4563 
L 3366 3988 
Q 3128 4100 2886 4159 
Q 2644 4219 2406 4219 
Q 1781 4219 1451 3797 
Q 1122 3375 1075 2522 
Q 1259 2794 1537 2939 
Q 1816 3084 2150 3084 
Q 2853 3084 3261 2657 
Q 3669 2231 3669 1497 
Q 3669 778 3244 343 
Q 2819 -91 2113 -91 
Q 1303 -91 875 529 
Q 447 1150 447 2328 
Q 447 3434 972 4092 
Q 1497 4750 2381 4750 
Q 2619 4750 2861 4703 
Q 3103 4656 3366 4563 
z
" id="DejaVuSans-36" transform="scale(0.015625)"/>
       </defs>
       <use xlink:href="#DejaVuSans-36"/>
       <use x="63.623047" xlink:href="#DejaVuSans-30"/>
       <use x="127.246094" xlink:href="#DejaVuSans-30"/>
      </g>
     </g>
    </g>
    <g id="ytick_13">
     <g id="line2d_51">
      <path clip-path="url(#p5acd7ecb61)" d="M 300.04 111.856241 
L 478.8 111.856241 
" style="fill:none;stroke:#b0b0b0;stroke-linecap:square;stroke-width:0.8;"/>
     </g>
     <g id="line2d_52">
      <g>
       <use style="stroke:#000000;stroke-width:0.8;" x="300.04" xlink:href="#mb2e5eac414" y="111.856241"/>
      </g>
     </g>
     <g id="text_16">
      <!-- 800 -->
      <g transform="translate(273.9525 115.655459)scale(0.1 -0.1)">
       <defs>
        <path d="M 2034 2216 
Q 1584 2216 1326 1975 
Q 1069 1734 1069 1313 
Q 1069 891 1326 650 
Q 1584 409 2034 409 
Q 2484 409 2743 651 
Q 3003 894 3003 1313 
Q 3003 1734 2745 1975 
Q 2488 2216 2034 2216 
z
M 1403 2484 
Q 997 2584 770 2862 
Q 544 3141 544 3541 
Q 544 4100 942 4425 
Q 1341 4750 2034 4750 
Q 2731 4750 3128 4425 
Q 3525 4100 3525 3541 
Q 3525 3141 3298 2862 
Q 3072 2584 2669 2484 
Q 3125 2378 3379 2068 
Q 3634 1759 3634 1313 
Q 3634 634 3220 271 
Q 2806 -91 2034 -91 
Q 1263 -91 848 271 
Q 434 634 434 1313 
Q 434 1759 690 2068 
Q 947 2378 1403 2484 
z
M 1172 3481 
Q 1172 3119 1398 2916 
Q 1625 2713 2034 2713 
Q 2441 2713 2670 2916 
Q 2900 3119 2900 3481 
Q 2900 3844 2670 4047 
Q 2441 4250 2034 4250 
Q 1625 4250 1398 4047 
Q 1172 3844 1172 3481 
z
" id="DejaVuSans-38" transform="scale(0.015625)"/>
       </defs>
       <use xlink:href="#DejaVuSans-38"/>
       <use x="63.623047" xlink:href="#DejaVuSans-30"/>
       <use x="127.246094" xlink:href="#DejaVuSans-30"/>
      </g>
     </g>
    </g>
    <g id="ytick_14">
     <g id="line2d_53">
      <path clip-path="url(#p5acd7ecb61)" d="M 300.04 77.31871 
L 478.8 77.31871 
" style="fill:none;stroke:#b0b0b0;stroke-linecap:square;stroke-width:0.8;"/>
     </g>
     <g id="line2d_54">
      <g>
       <use style="stroke:#000000;stroke-width:0.8;" x="300.04" xlink:href="#mb2e5eac414" y="77.31871"/>
      </g>
     </g>
     <g id="text_17">
      <!-- 1000 -->
      <g transform="translate(267.59 81.117929)scale(0.1 -0.1)">
       <use xlink:href="#DejaVuSans-31"/>
       <use x="63.623047" xlink:href="#DejaVuSans-30"/>
       <use x="127.246094" xlink:href="#DejaVuSans-30"/>
       <use x="190.869141" xlink:href="#DejaVuSans-30"/>
      </g>
     </g>
    </g>
   </g>
   <g id="line2d_55">
    <path clip-path="url(#p5acd7ecb61)" d="M 308.165455 250.006364 
L 349.139824 249.902751 
L 351.882737 248.627143 
L 353.237261 248.262169 
L 354.727238 248.099368 
L 358.249002 248.037186 
L 378.973229 247.533188 
L 403.693303 247.012708 
L 434.170107 246.603464 
L 470.674545 246.319584 
L 470.674545 246.319584 
" style="fill:none;stroke:#1f77b4;stroke-linecap:square;stroke-opacity:0.7;stroke-width:1.5;"/>
   </g>
   <g id="line2d_56">
    <path clip-path="url(#p5acd7ecb61)" d="M 308.165455 250.006364 
L 323.945666 249.895373 
L 349.072098 249.655146 
L 351.510242 248.542257 
L 352.864767 248.177585 
L 354.354744 248.020129 
L 358.486044 247.940724 
L 371.48948 247.614562 
L 375.993275 247.541834 
L 396.209555 246.932751 
L 415.51153 246.47309 
L 419.473515 246.34757 
L 423.367773 246.268229 
L 427.262031 246.124803 
L 430.986974 246.052058 
L 436.168031 245.89428 
L 445.480388 245.636344 
L 451.677338 245.492815 
L 455.639322 245.416009 
L 459.567444 245.263477 
L 463.326249 245.19873 
L 468.033222 245.052651 
L 470.674545 244.996393 
L 470.674545 244.996393 
" style="fill:none;stroke:#d62728;stroke-linecap:square;stroke-opacity:0.7;stroke-width:1.5;"/>
   </g>
   <g id="line2d_57">
    <path clip-path="url(#p5acd7ecb61)" d="M 308.165455 250.006364 
L 312.56766 249.898558 
L 313.820595 249.636362 
L 314.768762 249.217869 
L 315.61534 248.593244 
L 316.394192 247.731828 
L 317.173043 246.517784 
L 317.951895 244.871364 
L 318.76461 242.606791 
L 319.611188 239.566795 
L 320.525492 235.418602 
L 321.880016 227.985434 
L 325.672685 206.641639 
L 326.654716 202.613322 
L 327.501293 200.047688 
L 328.212419 198.565853 
L 328.855818 197.700813 
L 329.465354 197.242048 
L 330.142616 197.016139 
L 332.208266 196.565171 
L 332.783939 196.071374 
L 333.427339 195.185583 
L 334.20619 193.691624 
L 337.050692 187.701188 
L 337.964996 186.635566 
L 339.048616 185.296814 
L 340.199962 183.348383 
L 341.452897 181.431106 
L 346.058281 174.981278 
L 349.30914 170.657977 
L 364.615268 157.281465 
L 428.481104 101.671315 
L 470.674545 64.933636 
L 470.674545 64.933636 
" style="fill:none;stroke:#9467bd;stroke-linecap:square;stroke-opacity:0.7;stroke-width:1.5;"/>
   </g>
   <g id="line2d_58">
    <path clip-path="url(#p5acd7ecb61)" d="M 308.165455 250.006364 
L 320.796397 249.895564 
L 327.128799 249.786175 
L 332.072814 249.64891 
L 349.072098 249.240131 
L 351.544105 248.11276 
L 352.89863 247.75805 
L 354.354744 247.616599 
L 358.316728 247.588068 
L 365.563435 247.455898 
L 375.688507 246.973929 
L 380.260027 246.790142 
L 391.231677 246.308164 
L 400.239265 245.905429 
L 405.488048 245.677147 
L 409.179128 245.54712 
L 412.565439 245.34677 
L 416.087203 245.194481 
L 419.913735 244.989553 
L 423.537089 244.860324 
L 427.092716 244.664094 
L 430.682206 244.526166 
L 434.102381 244.333894 
L 437.725734 244.167751 
L 441.653856 243.957111 
L 445.378798 243.825116 
L 449.20533 243.608769 
L 453.709125 243.452873 
L 470.674545 242.612301 
L 470.674545 242.612301 
" style="fill:none;stroke:#bcbd22;stroke-linecap:square;stroke-opacity:0.7;stroke-width:1.5;"/>
   </g>
   <g id="line2d_59">
    <path clip-path="url(#p5acd7ecb61)" d="M 308.165455 250.006364 
L 318.76461 249.895514 
L 349.004372 249.39729 
L 351.713421 248.057532 
L 352.966356 247.706057 
L 354.388607 247.550184 
L 358.452181 247.472041 
L 365.529572 247.395796 
L 400.848801 246.983813 
L 421.505302 246.747526 
L 432.849446 246.585147 
L 447.173543 246.407797 
L 457.738835 246.259109 
L 470.674545 246.105687 
L 470.674545 246.105687 
" style="fill:none;stroke:#2ca02c;stroke-linecap:square;stroke-opacity:0.7;stroke-width:1.5;"/>
   </g>
   <g id="line2d_60">
    <path clip-path="url(#p5acd7ecb61)" d="M 308.165455 250.006364 
L 313.244922 249.896941 
L 324.352024 249.141195 
L 348.970509 246.831933 
L 351.81501 245.244975 
L 353.101809 244.806381 
L 354.52406 244.567429 
L 357.368561 244.388219 
L 377.957335 242.98454 
L 397.970437 241.431285 
L 417.67877 239.905015 
L 470.674545 235.844405 
L 470.674545 235.844405 
" style="fill:none;stroke:#17becf;stroke-linecap:square;stroke-opacity:0.7;stroke-width:1.5;"/>
   </g>
   <g id="patch_8">
    <path d="M 300.04 259.26 
L 300.04 55.68 
" style="fill:none;stroke:#000000;stroke-linecap:square;stroke-linejoin:miter;stroke-width:0.8;"/>
   </g>
   <g id="patch_9">
    <path d="M 478.8 259.26 
L 478.8 55.68 
" style="fill:none;stroke:#000000;stroke-linecap:square;stroke-linejoin:miter;stroke-width:0.8;"/>
   </g>
   <g id="patch_10">
    <path d="M 300.04 259.26 
L 478.8 259.26 
" style="fill:none;stroke:#000000;stroke-linecap:square;stroke-linejoin:miter;stroke-width:0.8;"/>
   </g>
   <g id="patch_11">
    <path d="M 300.04 55.68 
L 478.8 55.68 
" style="fill:none;stroke:#000000;stroke-linecap:square;stroke-linejoin:miter;stroke-width:0.8;"/>
   </g>
   <g id="text_18">
    <!-- y (m) -->
    <g transform="translate(373.435625 49.68)scale(0.12 -0.12)">
     <defs>
      <path d="M 2059 -325 
Q 1816 -950 1584 -1140 
Q 1353 -1331 966 -1331 
L 506 -1331 
L 506 -850 
L 844 -850 
Q 1081 -850 1212 -737 
Q 1344 -625 1503 -206 
L 1606 56 
L 191 3500 
L 800 3500 
L 1894 763 
L 2988 3500 
L 3597 3500 
L 2059 -325 
z
" id="DejaVuSans-79" transform="scale(0.015625)"/>
     </defs>
     <use xlink:href="#DejaVuSans-79"/>
     <use x="59.179688" xlink:href="#DejaVuSans-20"/>
     <use x="90.966797" xlink:href="#DejaVuSans-28"/>
     <use x="129.980469" xlink:href="#DejaVuSans-6d"/>
     <use x="227.392578" xlink:href="#DejaVuSans-29"/>
    </g>
   </g>
  </g>
  <g id="axes_3">
   <g id="patch_12">
    <path d="M 78.19 505.24 
L 256.95 505.24 
L 256.95 301.66 
L 78.19 301.66 
z
" style="fill:#ffffff;"/>
   </g>
   <g id="matplotlib.axis_5">
    <g id="xtick_11">
     <g id="line2d_61">
      <path clip-path="url(#p54ccd3af13)" d="M 86.315455 505.24 
L 86.315455 301.66 
" style="fill:none;stroke:#b0b0b0;stroke-linecap:square;stroke-width:0.8;"/>
     </g>
     <g id="line2d_62">
      <g>
       <use style="stroke:#000000;stroke-width:0.8;" x="86.315455" xlink:href="#m0178b6c547" y="505.24"/>
      </g>
     </g>
     <g id="text_19">
      <!-- 0 -->
      <g transform="translate(83.134205 519.838438)scale(0.1 -0.1)">
       <use xlink:href="#DejaVuSans-30"/>
      </g>
     </g>
    </g>
    <g id="xtick_12">
     <g id="line2d_63">
      <path clip-path="url(#p54ccd3af13)" d="M 126.951193 505.24 
L 126.951193 301.66 
" style="fill:none;stroke:#b0b0b0;stroke-linecap:square;stroke-width:0.8;"/>
     </g>
     <g id="line2d_64">
      <g>
       <use style="stroke:#000000;stroke-width:0.8;" x="126.951193" xlink:href="#m0178b6c547" y="505.24"/>
      </g>
     </g>
     <g id="text_20">
      <!-- 5 -->
      <g transform="translate(123.769943 519.838438)scale(0.1 -0.1)">
       <use xlink:href="#DejaVuSans-35"/>
      </g>
     </g>
    </g>
    <g id="xtick_13">
     <g id="line2d_65">
      <path clip-path="url(#p54ccd3af13)" d="M 167.586932 505.24 
L 167.586932 301.66 
" style="fill:none;stroke:#b0b0b0;stroke-linecap:square;stroke-width:0.8;"/>
     </g>
     <g id="line2d_66">
      <g>
       <use style="stroke:#000000;stroke-width:0.8;" x="167.586932" xlink:href="#m0178b6c547" y="505.24"/>
      </g>
     </g>
     <g id="text_21">
      <!-- 10 -->
      <g transform="translate(161.224432 519.838438)scale(0.1 -0.1)">
       <use xlink:href="#DejaVuSans-31"/>
       <use x="63.623047" xlink:href="#DejaVuSans-30"/>
      </g>
     </g>
    </g>
    <g id="xtick_14">
     <g id="line2d_67">
      <path clip-path="url(#p54ccd3af13)" d="M 208.22267 505.24 
L 208.22267 301.66 
" style="fill:none;stroke:#b0b0b0;stroke-linecap:square;stroke-width:0.8;"/>
     </g>
     <g id="line2d_68">
      <g>
       <use style="stroke:#000000;stroke-width:0.8;" x="208.22267" xlink:href="#m0178b6c547" y="505.24"/>
      </g>
     </g>
     <g id="text_22">
      <!-- 15 -->
      <g transform="translate(201.86017 519.838438)scale(0.1 -0.1)">
       <use xlink:href="#DejaVuSans-31"/>
       <use x="63.623047" xlink:href="#DejaVuSans-35"/>
      </g>
     </g>
    </g>
    <g id="xtick_15">
     <g id="line2d_69">
      <path clip-path="url(#p54ccd3af13)" d="M 248.858409 505.24 
L 248.858409 301.66 
" style="fill:none;stroke:#b0b0b0;stroke-linecap:square;stroke-width:0.8;"/>
     </g>
     <g id="line2d_70">
      <g>
       <use style="stroke:#000000;stroke-width:0.8;" x="248.858409" xlink:href="#m0178b6c547" y="505.24"/>
      </g>
     </g>
     <g id="text_23">
      <!-- 20 -->
      <g transform="translate(242.495909 519.838438)scale(0.1 -0.1)">
       <use xlink:href="#DejaVuSans-32"/>
       <use x="63.623047" xlink:href="#DejaVuSans-30"/>
      </g>
     </g>
    </g>
    <g id="text_24">
     <!-- Tiempo (s) -->
     <g transform="translate(141.0075 533.516563)scale(0.1 -0.1)">
      <use xlink:href="#DejaVuSans-54"/>
      <use x="57.958984" xlink:href="#DejaVuSans-69"/>
      <use x="85.742188" xlink:href="#DejaVuSans-65"/>
      <use x="147.265625" xlink:href="#DejaVuSans-6d"/>
      <use x="244.677734" xlink:href="#DejaVuSans-70"/>
      <use x="308.154297" xlink:href="#DejaVuSans-6f"/>
      <use x="369.335938" xlink:href="#DejaVuSans-20"/>
      <use x="401.123047" xlink:href="#DejaVuSans-28"/>
      <use x="440.136719" xlink:href="#DejaVuSans-73"/>
      <use x="492.236328" xlink:href="#DejaVuSans-29"/>
     </g>
    </g>
   </g>
   <g id="matplotlib.axis_6">
    <g id="ytick_15">
     <g id="line2d_71">
      <path clip-path="url(#p54ccd3af13)" d="M 78.19 495.98637 
L 256.95 495.98637 
" style="fill:none;stroke:#b0b0b0;stroke-linecap:square;stroke-width:0.8;"/>
     </g>
     <g id="line2d_72">
      <g>
       <use style="stroke:#000000;stroke-width:0.8;" x="78.19" xlink:href="#mb2e5eac414" y="495.98637"/>
      </g>
     </g>
     <g id="text_25">
      <!-- 0 -->
      <g transform="translate(64.8275 499.785589)scale(0.1 -0.1)">
       <use xlink:href="#DejaVuSans-30"/>
      </g>
     </g>
    </g>
    <g id="ytick_16">
     <g id="line2d_73">
      <path clip-path="url(#p54ccd3af13)" d="M 78.19 457.133195 
L 256.95 457.133195 
" style="fill:none;stroke:#b0b0b0;stroke-linecap:square;stroke-width:0.8;"/>
     </g>
     <g id="line2d_74">
      <g>
       <use style="stroke:#000000;stroke-width:0.8;" x="78.19" xlink:href="#mb2e5eac414" y="457.133195"/>
      </g>
     </g>
     <g id="text_26">
      <!-- 1000 -->
      <g transform="translate(45.74 460.932414)scale(0.1 -0.1)">
       <use xlink:href="#DejaVuSans-31"/>
       <use x="63.623047" xlink:href="#DejaVuSans-30"/>
       <use x="127.246094" xlink:href="#DejaVuSans-30"/>
       <use x="190.869141" xlink:href="#DejaVuSans-30"/>
      </g>
     </g>
    </g>
    <g id="ytick_17">
     <g id="line2d_75">
      <path clip-path="url(#p54ccd3af13)" d="M 78.19 418.280019 
L 256.95 418.280019 
" style="fill:none;stroke:#b0b0b0;stroke-linecap:square;stroke-width:0.8;"/>
     </g>
     <g id="line2d_76">
      <g>
       <use style="stroke:#000000;stroke-width:0.8;" x="78.19" xlink:href="#mb2e5eac414" y="418.280019"/>
      </g>
     </g>
     <g id="text_27">
      <!-- 2000 -->
      <g transform="translate(45.74 422.079238)scale(0.1 -0.1)">
       <use xlink:href="#DejaVuSans-32"/>
       <use x="63.623047" xlink:href="#DejaVuSans-30"/>
       <use x="127.246094" xlink:href="#DejaVuSans-30"/>
       <use x="190.869141" xlink:href="#DejaVuSans-30"/>
      </g>
     </g>
    </g>
    <g id="ytick_18">
     <g id="line2d_77">
      <path clip-path="url(#p54ccd3af13)" d="M 78.19 379.426844 
L 256.95 379.426844 
" style="fill:none;stroke:#b0b0b0;stroke-linecap:square;stroke-width:0.8;"/>
     </g>
     <g id="line2d_78">
      <g>
       <use style="stroke:#000000;stroke-width:0.8;" x="78.19" xlink:href="#mb2e5eac414" y="379.426844"/>
      </g>
     </g>
     <g id="text_28">
      <!-- 3000 -->
      <g transform="translate(45.74 383.226063)scale(0.1 -0.1)">
       <defs>
        <path d="M 2597 2516 
Q 3050 2419 3304 2112 
Q 3559 1806 3559 1356 
Q 3559 666 3084 287 
Q 2609 -91 1734 -91 
Q 1441 -91 1130 -33 
Q 819 25 488 141 
L 488 750 
Q 750 597 1062 519 
Q 1375 441 1716 441 
Q 2309 441 2620 675 
Q 2931 909 2931 1356 
Q 2931 1769 2642 2001 
Q 2353 2234 1838 2234 
L 1294 2234 
L 1294 2753 
L 1863 2753 
Q 2328 2753 2575 2939 
Q 2822 3125 2822 3475 
Q 2822 3834 2567 4026 
Q 2313 4219 1838 4219 
Q 1578 4219 1281 4162 
Q 984 4106 628 3988 
L 628 4550 
Q 988 4650 1302 4700 
Q 1616 4750 1894 4750 
Q 2613 4750 3031 4423 
Q 3450 4097 3450 3541 
Q 3450 3153 3228 2886 
Q 3006 2619 2597 2516 
z
" id="DejaVuSans-33" transform="scale(0.015625)"/>
       </defs>
       <use xlink:href="#DejaVuSans-33"/>
       <use x="63.623047" xlink:href="#DejaVuSans-30"/>
       <use x="127.246094" xlink:href="#DejaVuSans-30"/>
       <use x="190.869141" xlink:href="#DejaVuSans-30"/>
      </g>
     </g>
    </g>
    <g id="ytick_19">
     <g id="line2d_79">
      <path clip-path="url(#p54ccd3af13)" d="M 78.19 340.573669 
L 256.95 340.573669 
" style="fill:none;stroke:#b0b0b0;stroke-linecap:square;stroke-width:0.8;"/>
     </g>
     <g id="line2d_80">
      <g>
       <use style="stroke:#000000;stroke-width:0.8;" x="78.19" xlink:href="#mb2e5eac414" y="340.573669"/>
      </g>
     </g>
     <g id="text_29">
      <!-- 4000 -->
      <g transform="translate(45.74 344.372887)scale(0.1 -0.1)">
       <use xlink:href="#DejaVuSans-34"/>
       <use x="63.623047" xlink:href="#DejaVuSans-30"/>
       <use x="127.246094" xlink:href="#DejaVuSans-30"/>
       <use x="190.869141" xlink:href="#DejaVuSans-30"/>
      </g>
     </g>
    </g>
    <g id="ytick_20">
     <g id="line2d_81">
      <path clip-path="url(#p54ccd3af13)" d="M 78.19 301.720493 
L 256.95 301.720493 
" style="fill:none;stroke:#b0b0b0;stroke-linecap:square;stroke-width:0.8;"/>
     </g>
     <g id="line2d_82">
      <g>
       <use style="stroke:#000000;stroke-width:0.8;" x="78.19" xlink:href="#mb2e5eac414" y="301.720493"/>
      </g>
     </g>
     <g id="text_30">
      <!-- 5000 -->
      <g transform="translate(45.74 305.519712)scale(0.1 -0.1)">
       <use xlink:href="#DejaVuSans-35"/>
       <use x="63.623047" xlink:href="#DejaVuSans-30"/>
       <use x="127.246094" xlink:href="#DejaVuSans-30"/>
       <use x="190.869141" xlink:href="#DejaVuSans-30"/>
      </g>
     </g>
    </g>
   </g>
   <g id="line2d_83">
    <path clip-path="url(#p54ccd3af13)" d="M 86.315455 495.986364 
L 128.237991 495.859817 
L 131.421124 495.694075 
L 137.753527 495.631996 
L 248.824545 495.481629 
L 248.824545 495.481629 
" style="fill:none;stroke:#1f77b4;stroke-linecap:square;stroke-opacity:0.7;stroke-width:1.5;"/>
   </g>
   <g id="line2d_84">
    <path clip-path="url(#p54ccd3af13)" d="M 86.315455 495.986364 
L 94.408739 495.872331 
L 99.183438 495.555625 
L 106.091514 494.847292 
L 127.086646 492.575744 
L 141.47847 492.15253 
L 149.029944 491.565192 
L 192.6795 487.854868 
L 237.24336 484.411579 
L 248.824545 483.480905 
L 248.824545 483.480905 
" style="fill:none;stroke:#d62728;stroke-linecap:square;stroke-opacity:0.7;stroke-width:1.5;"/>
   </g>
   <g id="line2d_85">
    <path clip-path="url(#p54ccd3af13)" d="M 86.315455 495.986364 
L 91.733553 495.873863 
L 94.442602 495.626977 
L 95.966442 495.280124 
L 97.117788 494.795095 
L 98.065956 494.158079 
L 98.98026 493.261829 
L 102.061803 490.090577 
L 109.74873 481.833148 
L 120.551064 470.038661 
L 128.102539 461.402833 
L 248.824545 310.913636 
L 248.824545 310.913636 
" style="fill:none;stroke:#9467bd;stroke-linecap:square;stroke-opacity:0.7;stroke-width:1.5;"/>
   </g>
   <g id="line2d_86">
    <path clip-path="url(#p54ccd3af13)" d="M 86.315455 495.986364 
L 92.072184 495.873769 
L 97.35483 495.542453 
L 102.434297 495.002986 
L 107.276723 494.26726 
L 111.882107 493.344131 
L 116.352038 492.223025 
L 120.788106 490.881444 
L 125.2919 489.285674 
L 127.831634 488.205448 
L 130.676136 486.901296 
L 134.63812 485.337516 
L 149.842659 479.650573 
L 155.599389 477.093225 
L 161.491571 474.230675 
L 167.654658 470.986057 
L 174.393418 467.17953 
L 182.080345 462.573566 
L 191.866785 456.430173 
L 223.833566 436.176871 
L 233.145923 430.66078 
L 241.781017 425.803206 
L 248.824545 422.025085 
L 248.824545 422.025085 
" style="fill:none;stroke:#bcbd22;stroke-linecap:square;stroke-opacity:0.7;stroke-width:1.5;"/>
   </g>
   <g id="line2d_87">
    <path clip-path="url(#p54ccd3af13)" d="M 86.315455 495.986364 
L 95.153728 495.872098 
L 103.179286 495.485649 
L 117.266342 494.628129 
L 128.475033 493.985219 
L 144.797055 493.527438 
L 156.987776 492.857072 
L 176.222026 491.600685 
L 200.366427 490.186095 
L 211.168761 489.515459 
L 248.824545 487.380231 
L 248.824545 487.380231 
" style="fill:none;stroke:#2ca02c;stroke-linecap:square;stroke-opacity:0.7;stroke-width:1.5;"/>
   </g>
   <g id="line2d_88">
    <path clip-path="url(#p54ccd3af13)" d="M 86.315455 495.986364 
L 95.119865 495.87225 
L 102.468161 495.488407 
L 115.50546 494.488445 
L 130.202052 493.419614 
L 136.839223 493.142302 
L 143.54412 492.644853 
L 157.766628 491.248022 
L 170.228255 489.885277 
L 193.76312 487.29957 
L 208.290396 485.778721 
L 248.824545 481.110693 
L 248.824545 481.110693 
" style="fill:none;stroke:#17becf;stroke-linecap:square;stroke-opacity:0.7;stroke-width:1.5;"/>
   </g>
   <g id="patch_13">
    <path d="M 78.19 505.24 
L 78.19 301.66 
" style="fill:none;stroke:#000000;stroke-linecap:square;stroke-linejoin:miter;stroke-width:0.8;"/>
   </g>
   <g id="patch_14">
    <path d="M 256.95 505.24 
L 256.95 301.66 
" style="fill:none;stroke:#000000;stroke-linecap:square;stroke-linejoin:miter;stroke-width:0.8;"/>
   </g>
   <g id="patch_15">
    <path d="M 78.19 505.24 
L 256.95 505.24 
" style="fill:none;stroke:#000000;stroke-linecap:square;stroke-linejoin:miter;stroke-width:0.8;"/>
   </g>
   <g id="patch_16">
    <path d="M 78.19 301.66 
L 256.95 301.66 
" style="fill:none;stroke:#000000;stroke-linecap:square;stroke-linejoin:miter;stroke-width:0.8;"/>
   </g>
   <g id="text_31">
    <!-- z (m) -->
    <g transform="translate(151.987812 295.66)scale(0.12 -0.12)">
     <defs>
      <path d="M 353 3500 
L 3084 3500 
L 3084 2975 
L 922 459 
L 3084 459 
L 3084 0 
L 275 0 
L 275 525 
L 2438 3041 
L 353 3041 
L 353 3500 
z
" id="DejaVuSans-7a" transform="scale(0.015625)"/>
     </defs>
     <use xlink:href="#DejaVuSans-7a"/>
     <use x="52.490234" xlink:href="#DejaVuSans-20"/>
     <use x="84.277344" xlink:href="#DejaVuSans-28"/>
     <use x="123.291016" xlink:href="#DejaVuSans-6d"/>
     <use x="220.703125" xlink:href="#DejaVuSans-29"/>
    </g>
   </g>
  </g>
  <g id="axes_4">
   <g id="patch_17">
    <path d="M 300.04 505.24 
L 478.8 505.24 
L 478.8 301.66 
L 300.04 301.66 
z
" style="fill:#ffffff;"/>
   </g>
   <g id="matplotlib.axis_7">
    <g id="xtick_16">
     <g id="line2d_89">
      <path clip-path="url(#pf9c1c3749b)" d="M 308.165455 505.24 
L 308.165455 301.66 
" style="fill:none;stroke:#b0b0b0;stroke-linecap:square;stroke-width:0.8;"/>
     </g>
     <g id="line2d_90">
      <g>
       <use style="stroke:#000000;stroke-width:0.8;" x="308.165455" xlink:href="#m0178b6c547" y="505.24"/>
      </g>
     </g>
     <g id="text_32">
      <!-- 0 -->
      <g transform="translate(304.984205 519.838438)scale(0.1 -0.1)">
       <use xlink:href="#DejaVuSans-30"/>
      </g>
     </g>
    </g>
    <g id="xtick_17">
     <g id="line2d_91">
      <path clip-path="url(#pf9c1c3749b)" d="M 348.801193 505.24 
L 348.801193 301.66 
" style="fill:none;stroke:#b0b0b0;stroke-linecap:square;stroke-width:0.8;"/>
     </g>
     <g id="line2d_92">
      <g>
       <use style="stroke:#000000;stroke-width:0.8;" x="348.801193" xlink:href="#m0178b6c547" y="505.24"/>
      </g>
     </g>
     <g id="text_33">
      <!-- 5 -->
      <g transform="translate(345.619943 519.838438)scale(0.1 -0.1)">
       <use xlink:href="#DejaVuSans-35"/>
      </g>
     </g>
    </g>
    <g id="xtick_18">
     <g id="line2d_93">
      <path clip-path="url(#pf9c1c3749b)" d="M 389.436932 505.24 
L 389.436932 301.66 
" style="fill:none;stroke:#b0b0b0;stroke-linecap:square;stroke-width:0.8;"/>
     </g>
     <g id="line2d_94">
      <g>
       <use style="stroke:#000000;stroke-width:0.8;" x="389.436932" xlink:href="#m0178b6c547" y="505.24"/>
      </g>
     </g>
     <g id="text_34">
      <!-- 10 -->
      <g transform="translate(383.074432 519.838438)scale(0.1 -0.1)">
       <use xlink:href="#DejaVuSans-31"/>
       <use x="63.623047" xlink:href="#DejaVuSans-30"/>
      </g>
     </g>
    </g>
    <g id="xtick_19">
     <g id="line2d_95">
      <path clip-path="url(#pf9c1c3749b)" d="M 430.07267 505.24 
L 430.07267 301.66 
" style="fill:none;stroke:#b0b0b0;stroke-linecap:square;stroke-width:0.8;"/>
     </g>
     <g id="line2d_96">
      <g>
       <use style="stroke:#000000;stroke-width:0.8;" x="430.07267" xlink:href="#m0178b6c547" y="505.24"/>
      </g>
     </g>
     <g id="text_35">
      <!-- 15 -->
      <g transform="translate(423.71017 519.838438)scale(0.1 -0.1)">
       <use xlink:href="#DejaVuSans-31"/>
       <use x="63.623047" xlink:href="#DejaVuSans-35"/>
      </g>
     </g>
    </g>
    <g id="xtick_20">
     <g id="line2d_97">
      <path clip-path="url(#pf9c1c3749b)" d="M 470.708409 505.24 
L 470.708409 301.66 
" style="fill:none;stroke:#b0b0b0;stroke-linecap:square;stroke-width:0.8;"/>
     </g>
     <g id="line2d_98">
      <g>
       <use style="stroke:#000000;stroke-width:0.8;" x="470.708409" xlink:href="#m0178b6c547" y="505.24"/>
      </g>
     </g>
     <g id="text_36">
      <!-- 20 -->
      <g transform="translate(464.345909 519.838438)scale(0.1 -0.1)">
       <use xlink:href="#DejaVuSans-32"/>
       <use x="63.623047" xlink:href="#DejaVuSans-30"/>
      </g>
     </g>
    </g>
    <g id="text_37">
     <!-- Tiempo (s) -->
     <g transform="translate(362.8575 533.516563)scale(0.1 -0.1)">
      <use xlink:href="#DejaVuSans-54"/>
      <use x="57.958984" xlink:href="#DejaVuSans-69"/>
      <use x="85.742188" xlink:href="#DejaVuSans-65"/>
      <use x="147.265625" xlink:href="#DejaVuSans-6d"/>
      <use x="244.677734" xlink:href="#DejaVuSans-70"/>
      <use x="308.154297" xlink:href="#DejaVuSans-6f"/>
      <use x="369.335938" xlink:href="#DejaVuSans-20"/>
      <use x="401.123047" xlink:href="#DejaVuSans-28"/>
      <use x="440.136719" xlink:href="#DejaVuSans-73"/>
      <use x="492.236328" xlink:href="#DejaVuSans-29"/>
     </g>
    </g>
   </g>
   <g id="matplotlib.axis_8">
    <g id="ytick_21">
     <g id="line2d_99">
      <path clip-path="url(#pf9c1c3749b)" d="M 300.04 495.986364 
L 478.8 495.986364 
" style="fill:none;stroke:#b0b0b0;stroke-linecap:square;stroke-width:0.8;"/>
     </g>
     <g id="line2d_100">
      <g>
       <use style="stroke:#000000;stroke-width:0.8;" x="300.04" xlink:href="#mb2e5eac414" y="495.986364"/>
      </g>
     </g>
     <g id="text_38">
      <!-- 0 -->
      <g transform="translate(286.6775 499.785582)scale(0.1 -0.1)">
       <use xlink:href="#DejaVuSans-30"/>
      </g>
     </g>
    </g>
    <g id="ytick_22">
     <g id="line2d_101">
      <path clip-path="url(#pf9c1c3749b)" d="M 300.04 464.948177 
L 478.8 464.948177 
" style="fill:none;stroke:#b0b0b0;stroke-linecap:square;stroke-width:0.8;"/>
     </g>
     <g id="line2d_102">
      <g>
       <use style="stroke:#000000;stroke-width:0.8;" x="300.04" xlink:href="#mb2e5eac414" y="464.948177"/>
      </g>
     </g>
     <g id="text_39">
      <!-- 500 -->
      <g transform="translate(273.9525 468.747396)scale(0.1 -0.1)">
       <use xlink:href="#DejaVuSans-35"/>
       <use x="63.623047" xlink:href="#DejaVuSans-30"/>
       <use x="127.246094" xlink:href="#DejaVuSans-30"/>
      </g>
     </g>
    </g>
    <g id="ytick_23">
     <g id="line2d_103">
      <path clip-path="url(#pf9c1c3749b)" d="M 300.04 433.90999 
L 478.8 433.90999 
" style="fill:none;stroke:#b0b0b0;stroke-linecap:square;stroke-width:0.8;"/>
     </g>
     <g id="line2d_104">
      <g>
       <use style="stroke:#000000;stroke-width:0.8;" x="300.04" xlink:href="#mb2e5eac414" y="433.90999"/>
      </g>
     </g>
     <g id="text_40">
      <!-- 1000 -->
      <g transform="translate(267.59 437.709209)scale(0.1 -0.1)">
       <use xlink:href="#DejaVuSans-31"/>
       <use x="63.623047" xlink:href="#DejaVuSans-30"/>
       <use x="127.246094" xlink:href="#DejaVuSans-30"/>
       <use x="190.869141" xlink:href="#DejaVuSans-30"/>
      </g>
     </g>
    </g>
    <g id="ytick_24">
     <g id="line2d_105">
      <path clip-path="url(#pf9c1c3749b)" d="M 300.04 402.871803 
L 478.8 402.871803 
" style="fill:none;stroke:#b0b0b0;stroke-linecap:square;stroke-width:0.8;"/>
     </g>
     <g id="line2d_106">
      <g>
       <use style="stroke:#000000;stroke-width:0.8;" x="300.04" xlink:href="#mb2e5eac414" y="402.871803"/>
      </g>
     </g>
     <g id="text_41">
      <!-- 1500 -->
      <g transform="translate(267.59 406.671022)scale(0.1 -0.1)">
       <use xlink:href="#DejaVuSans-31"/>
       <use x="63.623047" xlink:href="#DejaVuSans-35"/>
       <use x="127.246094" xlink:href="#DejaVuSans-30"/>
       <use x="190.869141" xlink:href="#DejaVuSans-30"/>
      </g>
     </g>
    </g>
    <g id="ytick_25">
     <g id="line2d_107">
      <path clip-path="url(#pf9c1c3749b)" d="M 300.04 371.833616 
L 478.8 371.833616 
" style="fill:none;stroke:#b0b0b0;stroke-linecap:square;stroke-width:0.8;"/>
     </g>
     <g id="line2d_108">
      <g>
       <use style="stroke:#000000;stroke-width:0.8;" x="300.04" xlink:href="#mb2e5eac414" y="371.833616"/>
      </g>
     </g>
     <g id="text_42">
      <!-- 2000 -->
      <g transform="translate(267.59 375.632835)scale(0.1 -0.1)">
       <use xlink:href="#DejaVuSans-32"/>
       <use x="63.623047" xlink:href="#DejaVuSans-30"/>
       <use x="127.246094" xlink:href="#DejaVuSans-30"/>
       <use x="190.869141" xlink:href="#DejaVuSans-30"/>
      </g>
     </g>
    </g>
    <g id="ytick_26">
     <g id="line2d_109">
      <path clip-path="url(#pf9c1c3749b)" d="M 300.04 340.795429 
L 478.8 340.795429 
" style="fill:none;stroke:#b0b0b0;stroke-linecap:square;stroke-width:0.8;"/>
     </g>
     <g id="line2d_110">
      <g>
       <use style="stroke:#000000;stroke-width:0.8;" x="300.04" xlink:href="#mb2e5eac414" y="340.795429"/>
      </g>
     </g>
     <g id="text_43">
      <!-- 2500 -->
      <g transform="translate(267.59 344.594648)scale(0.1 -0.1)">
       <use xlink:href="#DejaVuSans-32"/>
       <use x="63.623047" xlink:href="#DejaVuSans-35"/>
       <use x="127.246094" xlink:href="#DejaVuSans-30"/>
       <use x="190.869141" xlink:href="#DejaVuSans-30"/>
      </g>
     </g>
    </g>
    <g id="ytick_27">
     <g id="line2d_111">
      <path clip-path="url(#pf9c1c3749b)" d="M 300.04 309.757242 
L 478.8 309.757242 
" style="fill:none;stroke:#b0b0b0;stroke-linecap:square;stroke-width:0.8;"/>
     </g>
     <g id="line2d_112">
      <g>
       <use style="stroke:#000000;stroke-width:0.8;" x="300.04" xlink:href="#mb2e5eac414" y="309.757242"/>
      </g>
     </g>
     <g id="text_44">
      <!-- 3000 -->
      <g transform="translate(267.59 313.556461)scale(0.1 -0.1)">
       <use xlink:href="#DejaVuSans-33"/>
       <use x="63.623047" xlink:href="#DejaVuSans-30"/>
       <use x="127.246094" xlink:href="#DejaVuSans-30"/>
       <use x="190.869141" xlink:href="#DejaVuSans-30"/>
      </g>
     </g>
    </g>
   </g>
   <g id="line2d_113">
    <path clip-path="url(#pf9c1c3749b)" d="M 308.165455 495.986364 
L 349.647771 495.876381 
L 351.544105 495.79133 
L 361.296683 495.764806 
L 470.674545 495.745639 
L 470.674545 495.745639 
" style="fill:none;stroke:#1f77b4;stroke-linecap:square;stroke-opacity:0.7;stroke-width:1.5;"/>
   </g>
   <g id="line2d_114">
    <path clip-path="url(#pf9c1c3749b)" d="M 308.165455 495.986364 
L 325.672685 495.875319 
L 349.173687 495.69599 
L 350.426623 495.578938 
L 376.467358 494.950452 
L 397.46249 494.569489 
L 402.609683 494.496133 
L 412.971797 494.338424 
L 418.593074 494.244888 
L 428.98905 494.089388 
L 434.711917 493.994934 
L 445.243346 493.834673 
L 450.72917 493.748523 
L 461.362189 493.585219 
L 466.780287 493.500803 
L 470.674545 493.486316 
L 470.674545 493.486316 
" style="fill:none;stroke:#d62728;stroke-linecap:square;stroke-opacity:0.7;stroke-width:1.5;"/>
   </g>
   <g id="line2d_115">
    <path clip-path="url(#pf9c1c3749b)" d="M 308.165455 495.986364 
L 311.958123 495.878058 
L 313.820595 495.600717 
L 315.242846 495.167328 
L 316.394192 494.589272 
L 317.410085 493.827243 
L 318.324389 492.853984 
L 319.170967 491.622924 
L 320.017545 489.989281 
L 320.694807 488.270127 
L 321.033438 487.29272 
L 321.304343 487.12735 
L 321.575248 485.926918 
L 321.981606 484.54266 
L 322.726594 482.603005 
L 323.33613 480.211306 
L 323.844077 479.890326 
L 324.182708 478.935705 
L 325.063149 476.243314 
L 325.435643 475.596728 
L 326.146769 473.398721 
L 326.4854 473.017252 
L 326.993347 472.159853 
L 327.501293 470.006195 
L 328.00924 467.833516 
L 328.381734 466.968404 
L 328.517187 466.875374 
L 329.025134 465.992729 
L 329.262175 465.272968 
L 329.871712 462.669319 
L 330.244206 461.691364 
L 330.515111 461.602706 
L 330.819879 461.423879 
L 331.056921 461.008519 
L 331.395552 459.740402 
L 332.445308 455.675354 
L 332.987118 454.895741 
L 333.156434 454.787193 
L 333.461202 454.148864 
L 333.969148 452.555328 
L 334.409369 450.356477 
L 335.120494 446.854194 
L 335.425262 446.242524 
L 335.899346 445.829135 
L 336.27184 445.588082 
L 336.610471 444.757273 
L 337.186144 442.666226 
L 337.795681 439.423571 
L 338.371354 436.815729 
L 338.845437 435.72891 
L 339.251795 435.220531 
L 339.624289 435.090364 
L 340.132236 434.968739 
L 340.538593 434.633324 
L 341.283581 433.554272 
L 342.231749 432.399094 
L 345.685786 428.602975 
L 351.37479 422.354916 
L 355.878584 417.339502 
L 360.314652 412.740473 
L 364.479815 408.726784 
L 376.873716 397.30843 
L 470.674545 310.913636 
L 470.674545 310.913636 
" style="fill:none;stroke:#9467bd;stroke-linecap:square;stroke-opacity:0.7;stroke-width:1.5;"/>
   </g>
   <g id="line2d_116">
    <path clip-path="url(#pf9c1c3749b)" d="M 308.165455 495.986364 
L 314.159226 495.876647 
L 321.710701 495.592094 
L 328.415598 495.343874 
L 342.536517 494.266145 
L 351.002296 493.51879 
L 356.691299 493.347587 
L 359.061717 493.24925 
L 364.276637 493.05463 
L 367.35818 492.868981 
L 374.164667 492.608154 
L 377.550978 492.359652 
L 385.000863 492.280798 
L 388.217859 492.134027 
L 392.450749 491.658976 
L 397.46249 491.288715 
L 404.20125 490.766548 
L 408.705044 490.147527 
L 413.818375 489.434726 
L 420.82804 488.759898 
L 426.821811 488.101033 
L 441.721582 486.253659 
L 448.561931 485.546939 
L 461.666957 483.998386 
L 469.794104 483.230642 
L 470.674545 483.118951 
L 470.674545 483.118951 
" style="fill:none;stroke:#bcbd22;stroke-linecap:square;stroke-opacity:0.7;stroke-width:1.5;"/>
   </g>
   <g id="line2d_117">
    <path clip-path="url(#pf9c1c3749b)" d="M 308.165455 495.986364 
L 316.936001 495.875359 
L 326.654716 495.631895 
L 340.267688 495.458132 
L 355.573816 495.054604 
L 362.515755 494.90414 
L 374.029214 494.53339 
L 385.170179 494.31826 
L 390.588277 494.185063 
L 400.882665 494.066182 
L 409.890253 493.860986 
L 418.593074 493.749396 
L 428.311788 493.532372 
L 436.405073 493.353979 
L 445.141756 493.152871 
L 454.217071 492.92761 
L 462.344219 492.764969 
L 470.674545 492.549733 
L 470.674545 492.549733 
" style="fill:none;stroke:#2ca02c;stroke-linecap:square;stroke-opacity:0.7;stroke-width:1.5;"/>
   </g>
   <g id="line2d_118">
    <path clip-path="url(#pf9c1c3749b)" d="M 308.165455 495.986364 
L 325.842001 495.875305 
L 349.376866 495.53907 
L 350.595938 495.440217 
L 358.993991 495.306605 
L 362.78666 495.266201 
L 378.126651 495.127671 
L 397.564079 494.854921 
L 406.673257 494.730267 
L 411.617272 494.598237 
L 417.983538 494.493347 
L 434.170107 494.319139 
L 470.674545 493.851851 
L 470.674545 493.851851 
" style="fill:none;stroke:#17becf;stroke-linecap:square;stroke-opacity:0.7;stroke-width:1.5;"/>
   </g>
   <g id="patch_18">
    <path d="M 300.04 505.24 
L 300.04 301.66 
" style="fill:none;stroke:#000000;stroke-linecap:square;stroke-linejoin:miter;stroke-width:0.8;"/>
   </g>
   <g id="patch_19">
    <path d="M 478.8 505.24 
L 478.8 301.66 
" style="fill:none;stroke:#000000;stroke-linecap:square;stroke-linejoin:miter;stroke-width:0.8;"/>
   </g>
   <g id="patch_20">
    <path d="M 300.04 505.24 
L 478.8 505.24 
" style="fill:none;stroke:#000000;stroke-linecap:square;stroke-linejoin:miter;stroke-width:0.8;"/>
   </g>
   <g id="patch_21">
    <path d="M 300.04 301.66 
L 478.8 301.66 
" style="fill:none;stroke:#000000;stroke-linecap:square;stroke-linejoin:miter;stroke-width:0.8;"/>
   </g>
   <g id="text_45">
    <!-- $\psi$ (rad) -->
    <g transform="translate(368.9 295.66)scale(0.12 -0.12)">
     <defs>
      <path d="M 1591 -78 
Q 891 38 616 341 
Q 278 713 425 1472 
L 819 3500 
L 1400 3500 
L 1009 1494 
Q 900 922 1119 684 
Q 1313 478 1691 434 
L 2284 3500 
L 2856 3500 
L 2263 438 
Q 2681 481 2928 688 
Q 3247 950 3353 1497 
L 3741 3500 
L 4322 3500 
L 3928 1475 
Q 3775 688 3300 344 
Q 2872 34 2163 -75 
L 1919 -1331 
L 1347 -1331 
L 1591 -78 
z
" id="DejaVuSans-Oblique-3c8" transform="scale(0.015625)"/>
      <path d="M 2631 2963 
Q 2534 3019 2420 3045 
Q 2306 3072 2169 3072 
Q 1681 3072 1420 2755 
Q 1159 2438 1159 1844 
L 1159 0 
L 581 0 
L 581 3500 
L 1159 3500 
L 1159 2956 
Q 1341 3275 1631 3429 
Q 1922 3584 2338 3584 
Q 2397 3584 2469 3576 
Q 2541 3569 2628 3553 
L 2631 2963 
z
" id="DejaVuSans-72" transform="scale(0.015625)"/>
      <path d="M 2194 1759 
Q 1497 1759 1228 1600 
Q 959 1441 959 1056 
Q 959 750 1161 570 
Q 1363 391 1709 391 
Q 2188 391 2477 730 
Q 2766 1069 2766 1631 
L 2766 1759 
L 2194 1759 
z
M 3341 1997 
L 3341 0 
L 2766 0 
L 2766 531 
Q 2569 213 2275 61 
Q 1981 -91 1556 -91 
Q 1019 -91 701 211 
Q 384 513 384 1019 
Q 384 1609 779 1909 
Q 1175 2209 1959 2209 
L 2766 2209 
L 2766 2266 
Q 2766 2663 2505 2880 
Q 2244 3097 1772 3097 
Q 1472 3097 1187 3025 
Q 903 2953 641 2809 
L 641 3341 
Q 956 3463 1253 3523 
Q 1550 3584 1831 3584 
Q 2591 3584 2966 3190 
Q 3341 2797 3341 1997 
z
" id="DejaVuSans-61" transform="scale(0.015625)"/>
      <path d="M 2906 2969 
L 2906 4863 
L 3481 4863 
L 3481 0 
L 2906 0 
L 2906 525 
Q 2725 213 2448 61 
Q 2172 -91 1784 -91 
Q 1150 -91 751 415 
Q 353 922 353 1747 
Q 353 2572 751 3078 
Q 1150 3584 1784 3584 
Q 2172 3584 2448 3432 
Q 2725 3281 2906 2969 
z
M 947 1747 
Q 947 1113 1208 752 
Q 1469 391 1925 391 
Q 2381 391 2643 752 
Q 2906 1113 2906 1747 
Q 2906 2381 2643 2742 
Q 2381 3103 1925 3103 
Q 1469 3103 1208 2742 
Q 947 2381 947 1747 
z
" id="DejaVuSans-64" transform="scale(0.015625)"/>
     </defs>
     <use transform="translate(0 0.015625)" xlink:href="#DejaVuSans-Oblique-3c8"/>
     <use transform="translate(65.966797 0.015625)" xlink:href="#DejaVuSans-20"/>
     <use transform="translate(97.753906 0.015625)" xlink:href="#DejaVuSans-28"/>
     <use transform="translate(136.767578 0.015625)" xlink:href="#DejaVuSans-72"/>
     <use transform="translate(177.880859 0.015625)" xlink:href="#DejaVuSans-61"/>
     <use transform="translate(239.160156 0.015625)" xlink:href="#DejaVuSans-64"/>
     <use transform="translate(302.636719 0.015625)" xlink:href="#DejaVuSans-29"/>
    </g>
   </g>
  </g>
  <g id="legend_1">
   <g id="patch_22">
    <path d="M 498.98125 334.229688 
L 569 334.229688 
Q 571 334.229688 571 332.229688 
L 571 243.770313 
Q 571 241.770313 569 241.770313 
L 498.98125 241.770313 
Q 496.98125 241.770313 496.98125 243.770313 
L 496.98125 332.229688 
Q 496.98125 334.229688 498.98125 334.229688 
z
" style="fill:#ffffff;opacity:0.8;stroke:#cccccc;stroke-linejoin:miter;"/>
   </g>
   <g id="line2d_119">
    <path d="M 500.98125 249.86875 
L 520.98125 249.86875 
" style="fill:none;stroke:#1f77b4;stroke-linecap:square;stroke-opacity:0.7;stroke-width:1.5;"/>
   </g>
   <g id="line2d_120"/>
   <g id="text_46">
    <!-- DSLPID -->
    <g transform="translate(528.98125 253.36875)scale(0.1 -0.1)">
     <defs>
      <path d="M 1259 4147 
L 1259 519 
L 2022 519 
Q 2988 519 3436 956 
Q 3884 1394 3884 2338 
Q 3884 3275 3436 3711 
Q 2988 4147 2022 4147 
L 1259 4147 
z
M 628 4666 
L 1925 4666 
Q 3281 4666 3915 4102 
Q 4550 3538 4550 2338 
Q 4550 1131 3912 565 
Q 3275 0 1925 0 
L 628 0 
L 628 4666 
z
" id="DejaVuSans-44" transform="scale(0.015625)"/>
      <path d="M 3425 4513 
L 3425 3897 
Q 3066 4069 2747 4153 
Q 2428 4238 2131 4238 
Q 1616 4238 1336 4038 
Q 1056 3838 1056 3469 
Q 1056 3159 1242 3001 
Q 1428 2844 1947 2747 
L 2328 2669 
Q 3034 2534 3370 2195 
Q 3706 1856 3706 1288 
Q 3706 609 3251 259 
Q 2797 -91 1919 -91 
Q 1588 -91 1214 -16 
Q 841 59 441 206 
L 441 856 
Q 825 641 1194 531 
Q 1563 422 1919 422 
Q 2459 422 2753 634 
Q 3047 847 3047 1241 
Q 3047 1584 2836 1778 
Q 2625 1972 2144 2069 
L 1759 2144 
Q 1053 2284 737 2584 
Q 422 2884 422 3419 
Q 422 4038 858 4394 
Q 1294 4750 2059 4750 
Q 2388 4750 2728 4690 
Q 3069 4631 3425 4513 
z
" id="DejaVuSans-53" transform="scale(0.015625)"/>
      <path d="M 628 4666 
L 1259 4666 
L 1259 531 
L 3531 531 
L 3531 0 
L 628 0 
L 628 4666 
z
" id="DejaVuSans-4c" transform="scale(0.015625)"/>
      <path d="M 1259 4147 
L 1259 2394 
L 2053 2394 
Q 2494 2394 2734 2622 
Q 2975 2850 2975 3272 
Q 2975 3691 2734 3919 
Q 2494 4147 2053 4147 
L 1259 4147 
z
M 628 4666 
L 2053 4666 
Q 2838 4666 3239 4311 
Q 3641 3956 3641 3272 
Q 3641 2581 3239 2228 
Q 2838 1875 2053 1875 
L 1259 1875 
L 1259 0 
L 628 0 
L 628 4666 
z
" id="DejaVuSans-50" transform="scale(0.015625)"/>
      <path d="M 628 4666 
L 1259 4666 
L 1259 0 
L 628 0 
L 628 4666 
z
" id="DejaVuSans-49" transform="scale(0.015625)"/>
     </defs>
     <use xlink:href="#DejaVuSans-44"/>
     <use x="77.001953" xlink:href="#DejaVuSans-53"/>
     <use x="140.478516" xlink:href="#DejaVuSans-4c"/>
     <use x="196.191406" xlink:href="#DejaVuSans-50"/>
     <use x="256.494141" xlink:href="#DejaVuSans-49"/>
     <use x="285.986328" xlink:href="#DejaVuSans-44"/>
    </g>
   </g>
   <g id="line2d_121">
    <path d="M 500.98125 264.546875 
L 520.98125 264.546875 
" style="fill:none;stroke:#d62728;stroke-linecap:square;stroke-opacity:0.7;stroke-width:1.5;"/>
   </g>
   <g id="line2d_122"/>
   <g id="text_47">
    <!-- LSTM_1 -->
    <g transform="translate(528.98125 268.046875)scale(0.1 -0.1)">
     <defs>
      <path d="M 628 4666 
L 1569 4666 
L 2759 1491 
L 3956 4666 
L 4897 4666 
L 4897 0 
L 4281 0 
L 4281 4097 
L 3078 897 
L 2444 897 
L 1241 4097 
L 1241 0 
L 628 0 
L 628 4666 
z
" id="DejaVuSans-4d" transform="scale(0.015625)"/>
      <path d="M 3263 -1063 
L 3263 -1509 
L -63 -1509 
L -63 -1063 
L 3263 -1063 
z
" id="DejaVuSans-5f" transform="scale(0.015625)"/>
     </defs>
     <use xlink:href="#DejaVuSans-4c"/>
     <use x="55.712891" xlink:href="#DejaVuSans-53"/>
     <use x="119.189453" xlink:href="#DejaVuSans-54"/>
     <use x="180.273438" xlink:href="#DejaVuSans-4d"/>
     <use x="266.552734" xlink:href="#DejaVuSans-5f"/>
     <use x="316.552734" xlink:href="#DejaVuSans-31"/>
    </g>
   </g>
   <g id="line2d_123">
    <path d="M 500.98125 279.503125 
L 520.98125 279.503125 
" style="fill:none;stroke:#9467bd;stroke-linecap:square;stroke-opacity:0.7;stroke-width:1.5;"/>
   </g>
   <g id="line2d_124"/>
   <g id="text_48">
    <!-- LSTM_2 -->
    <g transform="translate(528.98125 283.003125)scale(0.1 -0.1)">
     <use xlink:href="#DejaVuSans-4c"/>
     <use x="55.712891" xlink:href="#DejaVuSans-53"/>
     <use x="119.189453" xlink:href="#DejaVuSans-54"/>
     <use x="180.273438" xlink:href="#DejaVuSans-4d"/>
     <use x="266.552734" xlink:href="#DejaVuSans-5f"/>
     <use x="316.552734" xlink:href="#DejaVuSans-32"/>
    </g>
   </g>
   <g id="line2d_125">
    <path d="M 500.98125 294.459375 
L 520.98125 294.459375 
" style="fill:none;stroke:#bcbd22;stroke-linecap:square;stroke-opacity:0.7;stroke-width:1.5;"/>
   </g>
   <g id="line2d_126"/>
   <g id="text_49">
    <!-- LSTM_3 -->
    <g transform="translate(528.98125 297.959375)scale(0.1 -0.1)">
     <use xlink:href="#DejaVuSans-4c"/>
     <use x="55.712891" xlink:href="#DejaVuSans-53"/>
     <use x="119.189453" xlink:href="#DejaVuSans-54"/>
     <use x="180.273438" xlink:href="#DejaVuSans-4d"/>
     <use x="266.552734" xlink:href="#DejaVuSans-5f"/>
     <use x="316.552734" xlink:href="#DejaVuSans-33"/>
    </g>
   </g>
   <g id="line2d_127">
    <path d="M 500.98125 309.415625 
L 520.98125 309.415625 
" style="fill:none;stroke:#2ca02c;stroke-linecap:square;stroke-opacity:0.7;stroke-width:1.5;"/>
   </g>
   <g id="line2d_128"/>
   <g id="text_50">
    <!-- LSTM_4 -->
    <g transform="translate(528.98125 312.915625)scale(0.1 -0.1)">
     <use xlink:href="#DejaVuSans-4c"/>
     <use x="55.712891" xlink:href="#DejaVuSans-53"/>
     <use x="119.189453" xlink:href="#DejaVuSans-54"/>
     <use x="180.273438" xlink:href="#DejaVuSans-4d"/>
     <use x="266.552734" xlink:href="#DejaVuSans-5f"/>
     <use x="316.552734" xlink:href="#DejaVuSans-34"/>
    </g>
   </g>
   <g id="line2d_129">
    <path d="M 500.98125 324.371875 
L 520.98125 324.371875 
" style="fill:none;stroke:#17becf;stroke-linecap:square;stroke-opacity:0.7;stroke-width:1.5;"/>
   </g>
   <g id="line2d_130"/>
   <g id="text_51">
    <!-- LSTM_5 -->
    <g transform="translate(528.98125 327.871875)scale(0.1 -0.1)">
     <use xlink:href="#DejaVuSans-4c"/>
     <use x="55.712891" xlink:href="#DejaVuSans-53"/>
     <use x="119.189453" xlink:href="#DejaVuSans-54"/>
     <use x="180.273438" xlink:href="#DejaVuSans-4d"/>
     <use x="266.552734" xlink:href="#DejaVuSans-5f"/>
     <use x="316.552734" xlink:href="#DejaVuSans-35"/>
    </g>
   </g>
  </g>
 </g>
 <defs>
  <clipPath id="p1b8f0c9259">
   <rect height="203.58" width="178.76" x="78.19" y="55.68"/>
  </clipPath>
  <clipPath id="p5acd7ecb61">
   <rect height="203.58" width="178.76" x="300.04" y="55.68"/>
  </clipPath>
  <clipPath id="p54ccd3af13">
   <rect height="203.58" width="178.76" x="78.19" y="301.66"/>
  </clipPath>
  <clipPath id="pf9c1c3749b">
   <rect height="203.58" width="178.76" x="300.04" y="301.66"/>
  </clipPath>
 </defs>
</svg>
