<?xml version="1.0" encoding="utf-8" standalone="no"?>
<!DOCTYPE svg PUBLIC "-//W3C//DTD SVG 1.1//EN"
  "http://www.w3.org/Graphics/SVG/1.1/DTD/svg11.dtd">
<svg height="576pt" version="1.1" viewBox="0 0 576 576" width="576pt" xmlns="http://www.w3.org/2000/svg" xmlns:xlink="http://www.w3.org/1999/xlink">
 <metadata>
  <rdf:RDF xmlns:cc="http://creativecommons.org/ns#" xmlns:dc="http://purl.org/dc/elements/1.1/" xmlns:rdf="http://www.w3.org/1999/02/22-rdf-syntax-ns#">
   <cc:Work>
    <dc:type rdf:resource="http://purl.org/dc/dcmitype/StillImage"/>
    <dc:date>2022-02-27T22:12:30.054469</dc:date>
    <dc:format>image/svg+xml</dc:format>
    <dc:creator>
     <cc:Agent>
      <dc:title>Matplotlib v3.4.3, https://matplotlib.org/</dc:title>
     </cc:Agent>
    </dc:creator>
   </cc:Work>
  </rdf:RDF>
 </metadata>
 <defs>
  <style type="text/css">*{stroke-linecap:butt;stroke-linejoin:round;}</style>
 </defs>
 <g id="figure_1">
  <g id="patch_1">
   <path d="M 0 576 
L 576 576 
L 576 0 
L 0 0 
z
" style="fill:#ffffff;"/>
  </g>
  <g id="axes_1">
   <g id="patch_2">
    <path d="M 78.19 259.98 
L 253.8 259.98 
L 253.8 55.68 
L 78.19 55.68 
z
" style="fill:#ffffff;"/>
   </g>
   <g id="matplotlib.axis_1">
    <g id="xtick_1">
     <g id="line2d_1">
      <path clip-path="url(#p64c7251cb7)" d="M 86.172273 259.98 
L 86.172273 55.68 
" style="fill:none;stroke:#b0b0b0;stroke-linecap:square;stroke-width:0.8;"/>
     </g>
     <g id="line2d_2">
      <defs>
       <path d="M 0 0 
L 0 3.5 
" id="mb5965bb9a5" style="stroke:#000000;stroke-width:0.8;"/>
      </defs>
      <g>
       <use style="stroke:#000000;stroke-width:0.8;" x="86.172273" xlink:href="#mb5965bb9a5" y="259.98"/>
      </g>
     </g>
    </g>
    <g id="xtick_2">
     <g id="line2d_3">
      <path clip-path="url(#p64c7251cb7)" d="M 126.091953 259.98 
L 126.091953 55.68 
" style="fill:none;stroke:#b0b0b0;stroke-linecap:square;stroke-width:0.8;"/>
     </g>
     <g id="line2d_4">
      <g>
       <use style="stroke:#000000;stroke-width:0.8;" x="126.091953" xlink:href="#mb5965bb9a5" y="259.98"/>
      </g>
     </g>
    </g>
    <g id="xtick_3">
     <g id="line2d_5">
      <path clip-path="url(#p64c7251cb7)" d="M 166.011633 259.98 
L 166.011633 55.68 
" style="fill:none;stroke:#b0b0b0;stroke-linecap:square;stroke-width:0.8;"/>
     </g>
     <g id="line2d_6">
      <g>
       <use style="stroke:#000000;stroke-width:0.8;" x="166.011633" xlink:href="#mb5965bb9a5" y="259.98"/>
      </g>
     </g>
    </g>
    <g id="xtick_4">
     <g id="line2d_7">
      <path clip-path="url(#p64c7251cb7)" d="M 205.931313 259.98 
L 205.931313 55.68 
" style="fill:none;stroke:#b0b0b0;stroke-linecap:square;stroke-width:0.8;"/>
     </g>
     <g id="line2d_8">
      <g>
       <use style="stroke:#000000;stroke-width:0.8;" x="205.931313" xlink:href="#mb5965bb9a5" y="259.98"/>
      </g>
     </g>
    </g>
    <g id="xtick_5">
     <g id="line2d_9">
      <path clip-path="url(#p64c7251cb7)" d="M 245.850994 259.98 
L 245.850994 55.68 
" style="fill:none;stroke:#b0b0b0;stroke-linecap:square;stroke-width:0.8;"/>
     </g>
     <g id="line2d_10">
      <g>
       <use style="stroke:#000000;stroke-width:0.8;" x="245.850994" xlink:href="#mb5965bb9a5" y="259.98"/>
      </g>
     </g>
    </g>
    <g id="text_1">
     <!-- Tiempo (s) -->
     <g transform="translate(139.4325 271.578438)scale(0.1 -0.1)">
      <defs>
       <path d="M -19 4666 
L 3928 4666 
L 3928 4134 
L 2272 4134 
L 2272 0 
L 1638 0 
L 1638 4134 
L -19 4134 
L -19 4666 
z
" id="DejaVuSans-54" transform="scale(0.015625)"/>
       <path d="M 603 3500 
L 1178 3500 
L 1178 0 
L 603 0 
L 603 3500 
z
M 603 4863 
L 1178 4863 
L 1178 4134 
L 603 4134 
L 603 4863 
z
" id="DejaVuSans-69" transform="scale(0.015625)"/>
       <path d="M 3597 1894 
L 3597 1613 
L 953 1613 
Q 991 1019 1311 708 
Q 1631 397 2203 397 
Q 2534 397 2845 478 
Q 3156 559 3463 722 
L 3463 178 
Q 3153 47 2828 -22 
Q 2503 -91 2169 -91 
Q 1331 -91 842 396 
Q 353 884 353 1716 
Q 353 2575 817 3079 
Q 1281 3584 2069 3584 
Q 2775 3584 3186 3129 
Q 3597 2675 3597 1894 
z
M 3022 2063 
Q 3016 2534 2758 2815 
Q 2500 3097 2075 3097 
Q 1594 3097 1305 2825 
Q 1016 2553 972 2059 
L 3022 2063 
z
" id="DejaVuSans-65" transform="scale(0.015625)"/>
       <path d="M 3328 2828 
Q 3544 3216 3844 3400 
Q 4144 3584 4550 3584 
Q 5097 3584 5394 3201 
Q 5691 2819 5691 2113 
L 5691 0 
L 5113 0 
L 5113 2094 
Q 5113 2597 4934 2840 
Q 4756 3084 4391 3084 
Q 3944 3084 3684 2787 
Q 3425 2491 3425 1978 
L 3425 0 
L 2847 0 
L 2847 2094 
Q 2847 2600 2669 2842 
Q 2491 3084 2119 3084 
Q 1678 3084 1418 2786 
Q 1159 2488 1159 1978 
L 1159 0 
L 581 0 
L 581 3500 
L 1159 3500 
L 1159 2956 
Q 1356 3278 1631 3431 
Q 1906 3584 2284 3584 
Q 2666 3584 2933 3390 
Q 3200 3197 3328 2828 
z
" id="DejaVuSans-6d" transform="scale(0.015625)"/>
       <path d="M 1159 525 
L 1159 -1331 
L 581 -1331 
L 581 3500 
L 1159 3500 
L 1159 2969 
Q 1341 3281 1617 3432 
Q 1894 3584 2278 3584 
Q 2916 3584 3314 3078 
Q 3713 2572 3713 1747 
Q 3713 922 3314 415 
Q 2916 -91 2278 -91 
Q 1894 -91 1617 61 
Q 1341 213 1159 525 
z
M 3116 1747 
Q 3116 2381 2855 2742 
Q 2594 3103 2138 3103 
Q 1681 3103 1420 2742 
Q 1159 2381 1159 1747 
Q 1159 1113 1420 752 
Q 1681 391 2138 391 
Q 2594 391 2855 752 
Q 3116 1113 3116 1747 
z
" id="DejaVuSans-70" transform="scale(0.015625)"/>
       <path d="M 1959 3097 
Q 1497 3097 1228 2736 
Q 959 2375 959 1747 
Q 959 1119 1226 758 
Q 1494 397 1959 397 
Q 2419 397 2687 759 
Q 2956 1122 2956 1747 
Q 2956 2369 2687 2733 
Q 2419 3097 1959 3097 
z
M 1959 3584 
Q 2709 3584 3137 3096 
Q 3566 2609 3566 1747 
Q 3566 888 3137 398 
Q 2709 -91 1959 -91 
Q 1206 -91 779 398 
Q 353 888 353 1747 
Q 353 2609 779 3096 
Q 1206 3584 1959 3584 
z
" id="DejaVuSans-6f" transform="scale(0.015625)"/>
       <path id="DejaVuSans-20" transform="scale(0.015625)"/>
       <path d="M 1984 4856 
Q 1566 4138 1362 3434 
Q 1159 2731 1159 2009 
Q 1159 1288 1364 580 
Q 1569 -128 1984 -844 
L 1484 -844 
Q 1016 -109 783 600 
Q 550 1309 550 2009 
Q 550 2706 781 3412 
Q 1013 4119 1484 4856 
L 1984 4856 
z
" id="DejaVuSans-28" transform="scale(0.015625)"/>
       <path d="M 2834 3397 
L 2834 2853 
Q 2591 2978 2328 3040 
Q 2066 3103 1784 3103 
Q 1356 3103 1142 2972 
Q 928 2841 928 2578 
Q 928 2378 1081 2264 
Q 1234 2150 1697 2047 
L 1894 2003 
Q 2506 1872 2764 1633 
Q 3022 1394 3022 966 
Q 3022 478 2636 193 
Q 2250 -91 1575 -91 
Q 1294 -91 989 -36 
Q 684 19 347 128 
L 347 722 
Q 666 556 975 473 
Q 1284 391 1588 391 
Q 1994 391 2212 530 
Q 2431 669 2431 922 
Q 2431 1156 2273 1281 
Q 2116 1406 1581 1522 
L 1381 1569 
Q 847 1681 609 1914 
Q 372 2147 372 2553 
Q 372 3047 722 3315 
Q 1072 3584 1716 3584 
Q 2034 3584 2315 3537 
Q 2597 3491 2834 3397 
z
" id="DejaVuSans-73" transform="scale(0.015625)"/>
       <path d="M 513 4856 
L 1013 4856 
Q 1481 4119 1714 3412 
Q 1947 2706 1947 2009 
Q 1947 1309 1714 600 
Q 1481 -109 1013 -844 
L 513 -844 
Q 928 -128 1133 580 
Q 1338 1288 1338 2009 
Q 1338 2731 1133 3434 
Q 928 4138 513 4856 
z
" id="DejaVuSans-29" transform="scale(0.015625)"/>
      </defs>
      <use xlink:href="#DejaVuSans-54"/>
      <use x="57.958984" xlink:href="#DejaVuSans-69"/>
      <use x="85.742188" xlink:href="#DejaVuSans-65"/>
      <use x="147.265625" xlink:href="#DejaVuSans-6d"/>
      <use x="244.677734" xlink:href="#DejaVuSans-70"/>
      <use x="308.154297" xlink:href="#DejaVuSans-6f"/>
      <use x="369.335938" xlink:href="#DejaVuSans-20"/>
      <use x="401.123047" xlink:href="#DejaVuSans-28"/>
      <use x="440.136719" xlink:href="#DejaVuSans-73"/>
      <use x="492.236328" xlink:href="#DejaVuSans-29"/>
     </g>
    </g>
   </g>
   <g id="matplotlib.axis_2">
    <g id="ytick_1">
     <g id="line2d_11">
      <path clip-path="url(#p64c7251cb7)" d="M 78.19 250.693636 
L 253.8 250.693636 
" style="fill:none;stroke:#b0b0b0;stroke-linecap:square;stroke-width:0.8;"/>
     </g>
     <g id="line2d_12">
      <defs>
       <path d="M 0 0 
L -3.5 0 
" id="m0a86416db9" style="stroke:#000000;stroke-width:0.8;"/>
      </defs>
      <g>
       <use style="stroke:#000000;stroke-width:0.8;" x="78.19" xlink:href="#m0a86416db9" y="250.693636"/>
      </g>
     </g>
     <g id="text_2">
      <!-- 0 -->
      <g transform="translate(64.8275 254.492855)scale(0.1 -0.1)">
       <defs>
        <path d="M 2034 4250 
Q 1547 4250 1301 3770 
Q 1056 3291 1056 2328 
Q 1056 1369 1301 889 
Q 1547 409 2034 409 
Q 2525 409 2770 889 
Q 3016 1369 3016 2328 
Q 3016 3291 2770 3770 
Q 2525 4250 2034 4250 
z
M 2034 4750 
Q 2819 4750 3233 4129 
Q 3647 3509 3647 2328 
Q 3647 1150 3233 529 
Q 2819 -91 2034 -91 
Q 1250 -91 836 529 
Q 422 1150 422 2328 
Q 422 3509 836 4129 
Q 1250 4750 2034 4750 
z
" id="DejaVuSans-30" transform="scale(0.015625)"/>
       </defs>
       <use xlink:href="#DejaVuSans-30"/>
      </g>
     </g>
    </g>
    <g id="ytick_2">
     <g id="line2d_13">
      <path clip-path="url(#p64c7251cb7)" d="M 78.19 225.54493 
L 253.8 225.54493 
" style="fill:none;stroke:#b0b0b0;stroke-linecap:square;stroke-width:0.8;"/>
     </g>
     <g id="line2d_14">
      <g>
       <use style="stroke:#000000;stroke-width:0.8;" x="78.19" xlink:href="#m0a86416db9" y="225.54493"/>
      </g>
     </g>
     <g id="text_3">
      <!-- 2500 -->
      <g transform="translate(45.74 229.344149)scale(0.1 -0.1)">
       <defs>
        <path d="M 1228 531 
L 3431 531 
L 3431 0 
L 469 0 
L 469 531 
Q 828 903 1448 1529 
Q 2069 2156 2228 2338 
Q 2531 2678 2651 2914 
Q 2772 3150 2772 3378 
Q 2772 3750 2511 3984 
Q 2250 4219 1831 4219 
Q 1534 4219 1204 4116 
Q 875 4013 500 3803 
L 500 4441 
Q 881 4594 1212 4672 
Q 1544 4750 1819 4750 
Q 2544 4750 2975 4387 
Q 3406 4025 3406 3419 
Q 3406 3131 3298 2873 
Q 3191 2616 2906 2266 
Q 2828 2175 2409 1742 
Q 1991 1309 1228 531 
z
" id="DejaVuSans-32" transform="scale(0.015625)"/>
        <path d="M 691 4666 
L 3169 4666 
L 3169 4134 
L 1269 4134 
L 1269 2991 
Q 1406 3038 1543 3061 
Q 1681 3084 1819 3084 
Q 2600 3084 3056 2656 
Q 3513 2228 3513 1497 
Q 3513 744 3044 326 
Q 2575 -91 1722 -91 
Q 1428 -91 1123 -41 
Q 819 9 494 109 
L 494 744 
Q 775 591 1075 516 
Q 1375 441 1709 441 
Q 2250 441 2565 725 
Q 2881 1009 2881 1497 
Q 2881 1984 2565 2268 
Q 2250 2553 1709 2553 
Q 1456 2553 1204 2497 
Q 953 2441 691 2322 
L 691 4666 
z
" id="DejaVuSans-35" transform="scale(0.015625)"/>
       </defs>
       <use xlink:href="#DejaVuSans-32"/>
       <use x="63.623047" xlink:href="#DejaVuSans-35"/>
       <use x="127.246094" xlink:href="#DejaVuSans-30"/>
       <use x="190.869141" xlink:href="#DejaVuSans-30"/>
      </g>
     </g>
    </g>
    <g id="ytick_3">
     <g id="line2d_15">
      <path clip-path="url(#p64c7251cb7)" d="M 78.19 200.396223 
L 253.8 200.396223 
" style="fill:none;stroke:#b0b0b0;stroke-linecap:square;stroke-width:0.8;"/>
     </g>
     <g id="line2d_16">
      <g>
       <use style="stroke:#000000;stroke-width:0.8;" x="78.19" xlink:href="#m0a86416db9" y="200.396223"/>
      </g>
     </g>
     <g id="text_4">
      <!-- 5000 -->
      <g transform="translate(45.74 204.195442)scale(0.1 -0.1)">
       <use xlink:href="#DejaVuSans-35"/>
       <use x="63.623047" xlink:href="#DejaVuSans-30"/>
       <use x="127.246094" xlink:href="#DejaVuSans-30"/>
       <use x="190.869141" xlink:href="#DejaVuSans-30"/>
      </g>
     </g>
    </g>
    <g id="ytick_4">
     <g id="line2d_17">
      <path clip-path="url(#p64c7251cb7)" d="M 78.19 175.247517 
L 253.8 175.247517 
" style="fill:none;stroke:#b0b0b0;stroke-linecap:square;stroke-width:0.8;"/>
     </g>
     <g id="line2d_18">
      <g>
       <use style="stroke:#000000;stroke-width:0.8;" x="78.19" xlink:href="#m0a86416db9" y="175.247517"/>
      </g>
     </g>
     <g id="text_5">
      <!-- 7500 -->
      <g transform="translate(45.74 179.046735)scale(0.1 -0.1)">
       <defs>
        <path d="M 525 4666 
L 3525 4666 
L 3525 4397 
L 1831 0 
L 1172 0 
L 2766 4134 
L 525 4134 
L 525 4666 
z
" id="DejaVuSans-37" transform="scale(0.015625)"/>
       </defs>
       <use xlink:href="#DejaVuSans-37"/>
       <use x="63.623047" xlink:href="#DejaVuSans-35"/>
       <use x="127.246094" xlink:href="#DejaVuSans-30"/>
       <use x="190.869141" xlink:href="#DejaVuSans-30"/>
      </g>
     </g>
    </g>
    <g id="ytick_5">
     <g id="line2d_19">
      <path clip-path="url(#p64c7251cb7)" d="M 78.19 150.09881 
L 253.8 150.09881 
" style="fill:none;stroke:#b0b0b0;stroke-linecap:square;stroke-width:0.8;"/>
     </g>
     <g id="line2d_20">
      <g>
       <use style="stroke:#000000;stroke-width:0.8;" x="78.19" xlink:href="#m0a86416db9" y="150.09881"/>
      </g>
     </g>
     <g id="text_6">
      <!-- 10000 -->
      <g transform="translate(39.3775 153.898029)scale(0.1 -0.1)">
       <defs>
        <path d="M 794 531 
L 1825 531 
L 1825 4091 
L 703 3866 
L 703 4441 
L 1819 4666 
L 2450 4666 
L 2450 531 
L 3481 531 
L 3481 0 
L 794 0 
L 794 531 
z
" id="DejaVuSans-31" transform="scale(0.015625)"/>
       </defs>
       <use xlink:href="#DejaVuSans-31"/>
       <use x="63.623047" xlink:href="#DejaVuSans-30"/>
       <use x="127.246094" xlink:href="#DejaVuSans-30"/>
       <use x="190.869141" xlink:href="#DejaVuSans-30"/>
       <use x="254.492188" xlink:href="#DejaVuSans-30"/>
      </g>
     </g>
    </g>
    <g id="ytick_6">
     <g id="line2d_21">
      <path clip-path="url(#p64c7251cb7)" d="M 78.19 124.950103 
L 253.8 124.950103 
" style="fill:none;stroke:#b0b0b0;stroke-linecap:square;stroke-width:0.8;"/>
     </g>
     <g id="line2d_22">
      <g>
       <use style="stroke:#000000;stroke-width:0.8;" x="78.19" xlink:href="#m0a86416db9" y="124.950103"/>
      </g>
     </g>
     <g id="text_7">
      <!-- 12500 -->
      <g transform="translate(39.3775 128.749322)scale(0.1 -0.1)">
       <use xlink:href="#DejaVuSans-31"/>
       <use x="63.623047" xlink:href="#DejaVuSans-32"/>
       <use x="127.246094" xlink:href="#DejaVuSans-35"/>
       <use x="190.869141" xlink:href="#DejaVuSans-30"/>
       <use x="254.492188" xlink:href="#DejaVuSans-30"/>
      </g>
     </g>
    </g>
    <g id="ytick_7">
     <g id="line2d_23">
      <path clip-path="url(#p64c7251cb7)" d="M 78.19 99.801397 
L 253.8 99.801397 
" style="fill:none;stroke:#b0b0b0;stroke-linecap:square;stroke-width:0.8;"/>
     </g>
     <g id="line2d_24">
      <g>
       <use style="stroke:#000000;stroke-width:0.8;" x="78.19" xlink:href="#m0a86416db9" y="99.801397"/>
      </g>
     </g>
     <g id="text_8">
      <!-- 15000 -->
      <g transform="translate(39.3775 103.600616)scale(0.1 -0.1)">
       <use xlink:href="#DejaVuSans-31"/>
       <use x="63.623047" xlink:href="#DejaVuSans-35"/>
       <use x="127.246094" xlink:href="#DejaVuSans-30"/>
       <use x="190.869141" xlink:href="#DejaVuSans-30"/>
       <use x="254.492188" xlink:href="#DejaVuSans-30"/>
      </g>
     </g>
    </g>
    <g id="ytick_8">
     <g id="line2d_25">
      <path clip-path="url(#p64c7251cb7)" d="M 78.19 74.65269 
L 253.8 74.65269 
" style="fill:none;stroke:#b0b0b0;stroke-linecap:square;stroke-width:0.8;"/>
     </g>
     <g id="line2d_26">
      <g>
       <use style="stroke:#000000;stroke-width:0.8;" x="78.19" xlink:href="#m0a86416db9" y="74.65269"/>
      </g>
     </g>
     <g id="text_9">
      <!-- 17500 -->
      <g transform="translate(39.3775 78.451909)scale(0.1 -0.1)">
       <use xlink:href="#DejaVuSans-31"/>
       <use x="63.623047" xlink:href="#DejaVuSans-37"/>
       <use x="127.246094" xlink:href="#DejaVuSans-35"/>
       <use x="190.869141" xlink:href="#DejaVuSans-30"/>
       <use x="254.492188" xlink:href="#DejaVuSans-30"/>
      </g>
     </g>
    </g>
   </g>
   <g id="line2d_27">
    <path clip-path="url(#p64c7251cb7)" d="M 86.172273 250.693636 
L 86.305338 99.581501 
L 86.338605 99.581501 
L 86.47167 101.489877 
L 86.504937 101.489877 
L 86.638002 102.761391 
L 86.671269 102.761391 
L 86.804334 103.604947 
L 86.837601 103.604947 
L 86.970666 104.162605 
L 87.003933 104.162605 
L 87.136998 104.530052 
L 87.170265 104.530052 
L 87.30333 104.77132 
L 87.336597 104.77132 
L 87.469662 104.929064 
L 87.669261 105.03162 
L 87.802326 105.097767 
L 126.258285 105.148724 
L 126.391351 64.966364 
L 126.424617 64.966364 
L 126.557683 85.575953 
L 126.590949 85.575953 
L 126.724015 100.14996 
L 126.757281 100.14996 
L 126.890347 110.138088 
L 126.923613 110.138088 
L 127.056679 113.317515 
L 127.089945 113.317515 
L 127.223011 97.914727 
L 127.256277 97.914727 
L 127.389343 89.57328 
L 127.422609 89.57328 
L 127.555675 92.160311 
L 127.588941 92.160311 
L 127.722007 97.378962 
L 127.755273 97.378962 
L 127.888339 100.626511 
L 127.921605 100.626511 
L 128.054671 101.21121 
L 128.087937 101.21121 
L 128.221003 100.58275 
L 128.254269 100.58275 
L 128.387335 100.057407 
L 128.919597 100.028485 
L 129.052663 103.344039 
L 129.085929 103.344039 
L 129.218995 105.766036 
L 129.252261 105.766036 
L 129.385327 104.768251 
L 129.418593 104.768251 
L 129.551659 108.701219 
L 129.584925 108.701219 
L 129.717991 110.948329 
L 129.751257 110.948329 
L 129.884323 109.567035 
L 129.917589 109.567035 
L 130.050655 108.578119 
L 130.083921 108.578119 
L 130.216987 109.888008 
L 130.250253 109.888008 
L 130.383319 110.982762 
L 130.416585 110.982762 
L 130.549651 110.44729 
L 130.582917 110.44729 
L 130.715983 110.077026 
L 130.749249 110.077026 
L 130.882315 110.93038 
L 130.915581 110.93038 
L 131.048647 111.583316 
L 131.081913 111.583316 
L 131.214979 111.077791 
L 131.248245 111.077791 
L 131.381311 110.435746 
L 131.580909 110.509478 
L 131.713975 110.633232 
L 131.747241 110.633232 
L 131.880307 110.105865 
L 131.913573 110.105865 
L 132.046639 115.050322 
L 132.079905 115.050322 
L 132.212971 108.450701 
L 132.246237 108.450701 
L 132.379303 104.701167 
L 132.412569 104.701167 
L 132.545635 103.996344 
L 132.578901 103.996344 
L 132.711967 107.264208 
L 132.911565 107.321792 
L 133.044631 107.537991 
L 133.077897 107.537991 
L 133.210963 108.127483 
L 133.244229 108.127483 
L 133.377295 106.117568 
L 133.410561 106.117568 
L 133.543627 103.633669 
L 133.576893 103.633669 
L 133.709959 104.620341 
L 133.743225 104.620341 
L 133.876291 107.107176 
L 133.909557 107.107176 
L 134.042623 104.474398 
L 134.075889 104.474398 
L 134.208955 107.50634 
L 134.242221 107.50634 
L 134.375287 106.628882 
L 134.408553 106.628882 
L 134.541619 101.537159 
L 134.574885 101.537159 
L 134.707951 102.15979 
L 134.741217 102.15979 
L 134.874283 104.936297 
L 134.907549 104.936297 
L 135.040615 104.794843 
L 135.073881 104.794843 
L 135.206947 103.29596 
L 135.240213 103.29596 
L 135.373279 103.421327 
L 135.406545 103.421327 
L 135.539611 104.434295 
L 135.739209 104.420879 
L 135.872275 103.831949 
L 135.905541 103.831949 
L 136.038607 103.962012 
L 136.071873 103.962012 
L 136.204939 104.580981 
L 136.238205 104.580981 
L 136.371271 104.734073 
L 136.404537 104.734073 
L 136.537603 104.494148 
L 136.737201 104.547345 
L 136.870267 104.92402 
L 136.903533 104.92402 
L 137.036599 105.130417 
L 137.402529 105.108054 
L 137.535595 105.3233 
L 137.568861 105.3233 
L 137.701927 105.492953 
L 138.067857 105.525573 
L 138.200923 105.634008 
L 138.400521 105.738609 
L 138.633386 105.752909 
L 140.063841 105.677744 
L 140.263439 105.590676 
L 140.729169 105.486496 
L 140.862235 105.432477 
L 141.228165 105.334815 
L 141.394497 105.284687 
L 141.560829 105.237673 
L 141.760427 105.158209 
L 142.392489 105.064692 
L 142.625354 105.02488 
L 145.386465 105.124096 
L 145.752395 105.16344 
L 245.817727 105.148724 
L 245.817727 105.148724 
" style="fill:none;stroke:#1f77b4;stroke-linecap:square;stroke-opacity:0.7;stroke-width:1.5;"/>
   </g>
   <g id="line2d_28">
    <path clip-path="url(#p64c7251cb7)" d="M 86.172273 250.693636 
L 86.305338 104.609583 
L 87.835593 104.657475 
L 87.968658 104.837215 
L 88.001925 104.837215 
L 88.13499 104.959761 
L 88.334589 104.900818 
L 88.467654 103.916572 
L 88.500921 103.916572 
L 88.633986 103.38957 
L 88.667253 103.38957 
L 88.800318 102.994513 
L 88.833585 102.994513 
L 88.96665 102.592038 
L 88.999917 102.592038 
L 89.132982 101.96282 
L 89.166249 101.96282 
L 89.299314 101.494159 
L 89.332581 101.494159 
L 89.465646 101.76614 
L 89.498913 101.76614 
L 89.631978 102.705662 
L 89.665245 102.705662 
L 89.79831 103.907136 
L 89.831577 103.907136 
L 89.964642 104.804988 
L 89.997909 104.804988 
L 90.130974 105.125223 
L 90.164241 105.125223 
L 90.297306 104.841423 
L 90.330573 104.841423 
L 90.463638 104.519455 
L 90.496905 104.519455 
L 90.62997 104.904846 
L 90.663237 104.904846 
L 90.796302 105.476916 
L 90.995901 105.394822 
L 91.128966 104.942242 
L 91.162233 104.942242 
L 91.295298 104.817878 
L 91.328565 104.817878 
L 91.46163 105.079544 
L 91.494897 105.079544 
L 91.627962 105.267466 
L 91.661229 105.267466 
L 91.794294 105.155071 
L 91.827561 105.155071 
L 91.960626 104.993 
L 92.160225 105.057243 
L 92.29329 105.238619 
L 92.659221 105.171079 
L 92.792286 105.111911 
L 92.991885 105.189807 
L 93.12495 105.276138 
L 93.324549 105.249116 
L 93.457614 105.164967 
L 95.154201 105.257932 
L 95.287266 105.442615 
L 95.320533 105.442615 
L 95.453598 105.682183 
L 95.486865 105.682183 
L 95.61993 105.913764 
L 95.653197 105.913764 
L 95.786262 106.10238 
L 96.152193 106.144432 
L 96.285258 105.892842 
L 96.318525 105.892842 
L 96.45159 105.539093 
L 96.484857 105.539093 
L 96.617922 105.223176 
L 96.651189 105.223176 
L 96.784254 105.053566 
L 97.150185 105.101717 
L 97.28325 105.200434 
L 97.482849 105.306706 
L 97.615914 105.417945 
L 97.815513 105.511828 
L 97.981845 105.552715 
L 98.281242 105.459999 
L 98.480841 105.386736 
L 98.613906 105.320619 
L 105.466785 105.209946 
L 110.057548 105.175873 
L 126.258285 105.146855 
L 126.391351 80.901039 
L 126.424617 80.901039 
L 126.557683 97.479267 
L 126.590949 97.479267 
L 126.724015 101.949635 
L 126.757281 101.949635 
L 126.890347 107.831902 
L 126.923613 107.831902 
L 127.056679 113.587067 
L 127.089945 113.587067 
L 127.223011 118.506688 
L 127.256277 118.506688 
L 127.389343 118.31042 
L 127.422609 118.31042 
L 127.555675 107.945266 
L 127.588941 107.945266 
L 127.722007 102.058378 
L 127.755273 102.058378 
L 127.888339 98.832426 
L 127.921605 98.832426 
L 128.054671 95.878032 
L 128.087937 95.878032 
L 128.221003 94.296482 
L 128.254269 94.296482 
L 128.387335 92.622561 
L 128.420601 92.622561 
L 128.553667 90.44592 
L 128.586933 90.44592 
L 128.719999 89.651045 
L 128.919597 89.734121 
L 129.052663 89.834903 
L 129.252261 89.886696 
L 129.385327 90.270805 
L 129.418593 90.270805 
L 129.551659 92.185937 
L 129.584925 92.185937 
L 129.717991 94.293979 
L 129.751257 94.293979 
L 129.884323 94.907434 
L 129.917589 94.907434 
L 130.050655 96.425109 
L 130.083921 96.425109 
L 130.216987 101.825805 
L 130.250253 101.825805 
L 130.383319 108.450183 
L 130.416585 108.450183 
L 130.549651 113.588415 
L 130.582917 113.588415 
L 130.715983 116.944363 
L 130.749249 116.944363 
L 130.882315 118.052659 
L 131.081913 117.996589 
L 131.214979 117.392588 
L 131.248245 117.392588 
L 131.381311 116.147821 
L 131.414577 116.147821 
L 131.547643 114.215218 
L 131.580909 114.215218 
L 131.713975 112.810025 
L 131.913573 112.862734 
L 132.046639 113.258987 
L 132.079905 113.258987 
L 132.212971 112.796237 
L 132.246237 112.796237 
L 132.379303 111.263561 
L 132.412569 111.263561 
L 132.545635 108.862829 
L 132.578901 108.862829 
L 132.711967 106.581065 
L 132.745233 106.581065 
L 132.878299 104.960795 
L 132.911565 104.960795 
L 133.044631 103.832505 
L 133.244229 103.850804 
L 133.377295 104.748248 
L 133.410561 104.748248 
L 133.543627 103.963999 
L 133.576893 103.963999 
L 133.709959 103.186701 
L 133.743225 103.186701 
L 133.876291 102.637562 
L 133.909557 102.637562 
L 134.042623 101.401432 
L 134.075889 101.401432 
L 134.208955 101.242609 
L 134.242221 101.242609 
L 134.375287 100.361942 
L 134.408553 100.361942 
L 134.541619 98.678495 
L 134.574885 98.678495 
L 134.707951 98.324736 
L 134.741217 98.324736 
L 134.874283 99.941812 
L 134.907549 99.941812 
L 135.040615 101.134641 
L 135.240213 101.199691 
L 135.373279 100.831161 
L 135.406545 100.831161 
L 135.539611 100.525864 
L 135.572877 100.525864 
L 135.705943 100.391476 
L 135.905541 100.379332 
L 136.038607 100.548895 
L 136.071873 100.548895 
L 136.204939 101.034696 
L 136.238205 101.034696 
L 136.371271 102.108292 
L 136.404537 102.108292 
L 136.537603 103.438146 
L 136.570869 103.438146 
L 136.703935 104.249046 
L 137.069865 104.353654 
L 137.202931 104.672408 
L 137.236197 104.672408 
L 137.369263 105.278348 
L 137.402529 105.278348 
L 137.535595 105.788553 
L 137.568861 105.788553 
L 137.701927 105.954327 
L 137.735193 105.954327 
L 137.868259 106.087029 
L 137.901525 106.087029 
L 138.034591 106.668827 
L 138.067857 106.668827 
L 138.200923 107.631997 
L 138.234189 107.631997 
L 138.367255 108.589409 
L 138.400521 108.589409 
L 138.533587 109.156583 
L 138.733185 109.073832 
L 138.866251 108.331294 
L 138.899517 108.331294 
L 139.032583 107.309813 
L 139.065849 107.309813 
L 139.198915 107.1392 
L 139.398513 107.187687 
L 139.531579 106.97937 
L 139.564845 106.97937 
L 139.697911 106.787113 
L 140.063841 106.711167 
L 140.196907 106.594523 
L 140.230173 106.594523 
L 140.363239 106.414162 
L 140.396505 106.414162 
L 140.529571 106.21557 
L 140.562837 106.21557 
L 140.695903 106.023484 
L 140.729169 106.023484 
L 140.862235 105.763436 
L 140.895501 105.763436 
L 141.028567 105.444131 
L 141.061833 105.444131 
L 141.194899 105.141807 
L 141.228165 105.141807 
L 141.361231 104.969051 
L 141.560829 104.888364 
L 141.693895 104.800025 
L 141.727161 104.800025 
L 141.860227 104.674891 
L 141.893493 104.674891 
L 142.026559 104.557701 
L 142.226157 104.461629 
L 142.359223 104.397787 
L 142.725153 104.287203 
L 142.924751 104.23348 
L 143.889477 104.291814 
L 144.022543 104.464077 
L 144.055809 104.464077 
L 144.188875 104.736553 
L 144.222141 104.736553 
L 144.355207 105.140425 
L 144.388473 105.140425 
L 144.521539 105.702792 
L 144.554805 105.702792 
L 144.687871 106.343453 
L 144.721137 106.343453 
L 144.854203 106.830542 
L 145.053801 106.869969 
L 145.186867 106.251038 
L 145.220133 106.251038 
L 145.353199 105.159823 
L 145.386465 105.159823 
L 145.519531 104.383391 
L 145.719129 104.472455 
L 145.852195 104.763797 
L 146.384457 104.82329 
L 146.517523 104.916898 
L 146.883453 105.023723 
L 147.116318 105.084114 
L 148.713105 105.187183 
L 148.912703 105.28203 
L 149.212101 105.342873 
L 149.345167 105.398042 
L 150.376425 105.362786 
L 150.509491 105.285204 
L 150.709089 105.209844 
L 150.842155 105.148135 
L 245.817727 105.148737 
L 245.817727 105.148737 
" style="fill:none;stroke:#d62728;stroke-linecap:square;stroke-opacity:0.7;stroke-width:1.5;"/>
   </g>
   <g id="patch_3">
    <path d="M 78.19 259.98 
L 78.19 55.68 
" style="fill:none;stroke:#000000;stroke-linecap:square;stroke-linejoin:miter;stroke-width:0.8;"/>
   </g>
   <g id="patch_4">
    <path d="M 253.8 259.98 
L 253.8 55.68 
" style="fill:none;stroke:#000000;stroke-linecap:square;stroke-linejoin:miter;stroke-width:0.8;"/>
   </g>
   <g id="patch_5">
    <path d="M 78.19 259.98 
L 253.8 259.98 
" style="fill:none;stroke:#000000;stroke-linecap:square;stroke-linejoin:miter;stroke-width:0.8;"/>
   </g>
   <g id="patch_6">
    <path d="M 78.19 55.68 
L 253.8 55.68 
" style="fill:none;stroke:#000000;stroke-linecap:square;stroke-linejoin:miter;stroke-width:0.8;"/>
   </g>
   <g id="text_10">
    <!-- RPM0 (rpm) -->
    <g transform="translate(130.505 49.68)scale(0.12 -0.12)">
     <defs>
      <path d="M 2841 2188 
Q 3044 2119 3236 1894 
Q 3428 1669 3622 1275 
L 4263 0 
L 3584 0 
L 2988 1197 
Q 2756 1666 2539 1819 
Q 2322 1972 1947 1972 
L 1259 1972 
L 1259 0 
L 628 0 
L 628 4666 
L 2053 4666 
Q 2853 4666 3247 4331 
Q 3641 3997 3641 3322 
Q 3641 2881 3436 2590 
Q 3231 2300 2841 2188 
z
M 1259 4147 
L 1259 2491 
L 2053 2491 
Q 2509 2491 2742 2702 
Q 2975 2913 2975 3322 
Q 2975 3731 2742 3939 
Q 2509 4147 2053 4147 
L 1259 4147 
z
" id="DejaVuSans-52" transform="scale(0.015625)"/>
      <path d="M 1259 4147 
L 1259 2394 
L 2053 2394 
Q 2494 2394 2734 2622 
Q 2975 2850 2975 3272 
Q 2975 3691 2734 3919 
Q 2494 4147 2053 4147 
L 1259 4147 
z
M 628 4666 
L 2053 4666 
Q 2838 4666 3239 4311 
Q 3641 3956 3641 3272 
Q 3641 2581 3239 2228 
Q 2838 1875 2053 1875 
L 1259 1875 
L 1259 0 
L 628 0 
L 628 4666 
z
" id="DejaVuSans-50" transform="scale(0.015625)"/>
      <path d="M 628 4666 
L 1569 4666 
L 2759 1491 
L 3956 4666 
L 4897 4666 
L 4897 0 
L 4281 0 
L 4281 4097 
L 3078 897 
L 2444 897 
L 1241 4097 
L 1241 0 
L 628 0 
L 628 4666 
z
" id="DejaVuSans-4d" transform="scale(0.015625)"/>
      <path d="M 2631 2963 
Q 2534 3019 2420 3045 
Q 2306 3072 2169 3072 
Q 1681 3072 1420 2755 
Q 1159 2438 1159 1844 
L 1159 0 
L 581 0 
L 581 3500 
L 1159 3500 
L 1159 2956 
Q 1341 3275 1631 3429 
Q 1922 3584 2338 3584 
Q 2397 3584 2469 3576 
Q 2541 3569 2628 3553 
L 2631 2963 
z
" id="DejaVuSans-72" transform="scale(0.015625)"/>
     </defs>
     <use xlink:href="#DejaVuSans-52"/>
     <use x="69.482422" xlink:href="#DejaVuSans-50"/>
     <use x="129.785156" xlink:href="#DejaVuSans-4d"/>
     <use x="216.064453" xlink:href="#DejaVuSans-30"/>
     <use x="279.6875" xlink:href="#DejaVuSans-20"/>
     <use x="311.474609" xlink:href="#DejaVuSans-28"/>
     <use x="350.488281" xlink:href="#DejaVuSans-72"/>
     <use x="391.601562" xlink:href="#DejaVuSans-70"/>
     <use x="455.078125" xlink:href="#DejaVuSans-6d"/>
     <use x="552.490234" xlink:href="#DejaVuSans-29"/>
    </g>
   </g>
  </g>
  <g id="axes_2">
   <g id="patch_7">
    <path d="M 303.19 259.98 
L 478.8 259.98 
L 478.8 55.68 
L 303.19 55.68 
z
" style="fill:#ffffff;"/>
   </g>
   <g id="matplotlib.axis_3">
    <g id="xtick_6">
     <g id="line2d_29">
      <path clip-path="url(#pf2e747dd45)" d="M 311.172273 259.98 
L 311.172273 55.68 
" style="fill:none;stroke:#b0b0b0;stroke-linecap:square;stroke-width:0.8;"/>
     </g>
     <g id="line2d_30">
      <g>
       <use style="stroke:#000000;stroke-width:0.8;" x="311.172273" xlink:href="#mb5965bb9a5" y="259.98"/>
      </g>
     </g>
    </g>
    <g id="xtick_7">
     <g id="line2d_31">
      <path clip-path="url(#pf2e747dd45)" d="M 351.091953 259.98 
L 351.091953 55.68 
" style="fill:none;stroke:#b0b0b0;stroke-linecap:square;stroke-width:0.8;"/>
     </g>
     <g id="line2d_32">
      <g>
       <use style="stroke:#000000;stroke-width:0.8;" x="351.091953" xlink:href="#mb5965bb9a5" y="259.98"/>
      </g>
     </g>
    </g>
    <g id="xtick_8">
     <g id="line2d_33">
      <path clip-path="url(#pf2e747dd45)" d="M 391.011633 259.98 
L 391.011633 55.68 
" style="fill:none;stroke:#b0b0b0;stroke-linecap:square;stroke-width:0.8;"/>
     </g>
     <g id="line2d_34">
      <g>
       <use style="stroke:#000000;stroke-width:0.8;" x="391.011633" xlink:href="#mb5965bb9a5" y="259.98"/>
      </g>
     </g>
    </g>
    <g id="xtick_9">
     <g id="line2d_35">
      <path clip-path="url(#pf2e747dd45)" d="M 430.931313 259.98 
L 430.931313 55.68 
" style="fill:none;stroke:#b0b0b0;stroke-linecap:square;stroke-width:0.8;"/>
     </g>
     <g id="line2d_36">
      <g>
       <use style="stroke:#000000;stroke-width:0.8;" x="430.931313" xlink:href="#mb5965bb9a5" y="259.98"/>
      </g>
     </g>
    </g>
    <g id="xtick_10">
     <g id="line2d_37">
      <path clip-path="url(#pf2e747dd45)" d="M 470.850994 259.98 
L 470.850994 55.68 
" style="fill:none;stroke:#b0b0b0;stroke-linecap:square;stroke-width:0.8;"/>
     </g>
     <g id="line2d_38">
      <g>
       <use style="stroke:#000000;stroke-width:0.8;" x="470.850994" xlink:href="#mb5965bb9a5" y="259.98"/>
      </g>
     </g>
    </g>
    <g id="text_11">
     <!-- Tiempo (s) -->
     <g transform="translate(364.4325 271.578438)scale(0.1 -0.1)">
      <use xlink:href="#DejaVuSans-54"/>
      <use x="57.958984" xlink:href="#DejaVuSans-69"/>
      <use x="85.742188" xlink:href="#DejaVuSans-65"/>
      <use x="147.265625" xlink:href="#DejaVuSans-6d"/>
      <use x="244.677734" xlink:href="#DejaVuSans-70"/>
      <use x="308.154297" xlink:href="#DejaVuSans-6f"/>
      <use x="369.335938" xlink:href="#DejaVuSans-20"/>
      <use x="401.123047" xlink:href="#DejaVuSans-28"/>
      <use x="440.136719" xlink:href="#DejaVuSans-73"/>
      <use x="492.236328" xlink:href="#DejaVuSans-29"/>
     </g>
    </g>
   </g>
   <g id="matplotlib.axis_4">
    <g id="ytick_9">
     <g id="line2d_39">
      <path clip-path="url(#pf2e747dd45)" d="M 303.19 250.693636 
L 478.8 250.693636 
" style="fill:none;stroke:#b0b0b0;stroke-linecap:square;stroke-width:0.8;"/>
     </g>
     <g id="line2d_40">
      <g>
       <use style="stroke:#000000;stroke-width:0.8;" x="303.19" xlink:href="#m0a86416db9" y="250.693636"/>
      </g>
     </g>
     <g id="text_12">
      <!-- 0 -->
      <g transform="translate(289.8275 254.492855)scale(0.1 -0.1)">
       <use xlink:href="#DejaVuSans-30"/>
      </g>
     </g>
    </g>
    <g id="ytick_10">
     <g id="line2d_41">
      <path clip-path="url(#pf2e747dd45)" d="M 303.19 206.557987 
L 478.8 206.557987 
" style="fill:none;stroke:#b0b0b0;stroke-linecap:square;stroke-width:0.8;"/>
     </g>
     <g id="line2d_42">
      <g>
       <use style="stroke:#000000;stroke-width:0.8;" x="303.19" xlink:href="#m0a86416db9" y="206.557987"/>
      </g>
     </g>
     <g id="text_13">
      <!-- 5000 -->
      <g transform="translate(270.74 210.357205)scale(0.1 -0.1)">
       <use xlink:href="#DejaVuSans-35"/>
       <use x="63.623047" xlink:href="#DejaVuSans-30"/>
       <use x="127.246094" xlink:href="#DejaVuSans-30"/>
       <use x="190.869141" xlink:href="#DejaVuSans-30"/>
      </g>
     </g>
    </g>
    <g id="ytick_11">
     <g id="line2d_43">
      <path clip-path="url(#pf2e747dd45)" d="M 303.19 162.422337 
L 478.8 162.422337 
" style="fill:none;stroke:#b0b0b0;stroke-linecap:square;stroke-width:0.8;"/>
     </g>
     <g id="line2d_44">
      <g>
       <use style="stroke:#000000;stroke-width:0.8;" x="303.19" xlink:href="#m0a86416db9" y="162.422337"/>
      </g>
     </g>
     <g id="text_14">
      <!-- 10000 -->
      <g transform="translate(264.3775 166.221555)scale(0.1 -0.1)">
       <use xlink:href="#DejaVuSans-31"/>
       <use x="63.623047" xlink:href="#DejaVuSans-30"/>
       <use x="127.246094" xlink:href="#DejaVuSans-30"/>
       <use x="190.869141" xlink:href="#DejaVuSans-30"/>
       <use x="254.492188" xlink:href="#DejaVuSans-30"/>
      </g>
     </g>
    </g>
    <g id="ytick_12">
     <g id="line2d_45">
      <path clip-path="url(#pf2e747dd45)" d="M 303.19 118.286687 
L 478.8 118.286687 
" style="fill:none;stroke:#b0b0b0;stroke-linecap:square;stroke-width:0.8;"/>
     </g>
     <g id="line2d_46">
      <g>
       <use style="stroke:#000000;stroke-width:0.8;" x="303.19" xlink:href="#m0a86416db9" y="118.286687"/>
      </g>
     </g>
     <g id="text_15">
      <!-- 15000 -->
      <g transform="translate(264.3775 122.085906)scale(0.1 -0.1)">
       <use xlink:href="#DejaVuSans-31"/>
       <use x="63.623047" xlink:href="#DejaVuSans-35"/>
       <use x="127.246094" xlink:href="#DejaVuSans-30"/>
       <use x="190.869141" xlink:href="#DejaVuSans-30"/>
       <use x="254.492188" xlink:href="#DejaVuSans-30"/>
      </g>
     </g>
    </g>
    <g id="ytick_13">
     <g id="line2d_47">
      <path clip-path="url(#pf2e747dd45)" d="M 303.19 74.151037 
L 478.8 74.151037 
" style="fill:none;stroke:#b0b0b0;stroke-linecap:square;stroke-width:0.8;"/>
     </g>
     <g id="line2d_48">
      <g>
       <use style="stroke:#000000;stroke-width:0.8;" x="303.19" xlink:href="#m0a86416db9" y="74.151037"/>
      </g>
     </g>
     <g id="text_16">
      <!-- 20000 -->
      <g transform="translate(264.3775 77.950256)scale(0.1 -0.1)">
       <use xlink:href="#DejaVuSans-32"/>
       <use x="63.623047" xlink:href="#DejaVuSans-30"/>
       <use x="127.246094" xlink:href="#DejaVuSans-30"/>
       <use x="190.869141" xlink:href="#DejaVuSans-30"/>
       <use x="254.492188" xlink:href="#DejaVuSans-30"/>
      </g>
     </g>
    </g>
   </g>
   <g id="line2d_49">
    <path clip-path="url(#pf2e747dd45)" d="M 311.172273 250.693636 
L 311.305338 118.09373 
L 311.338605 118.09373 
L 311.47167 119.768317 
L 311.504937 119.768317 
L 311.638002 120.884062 
L 311.671269 120.884062 
L 311.804334 121.624277 
L 311.837601 121.624277 
L 311.970666 122.113618 
L 312.003933 122.113618 
L 312.136998 122.436051 
L 312.170265 122.436051 
L 312.30333 122.647761 
L 312.336597 122.647761 
L 312.469662 122.786181 
L 312.669261 122.876173 
L 312.802326 122.934216 
L 351.258285 122.978932 
L 351.391351 64.966364 
L 351.424617 64.966364 
L 351.557683 83.051143 
L 351.590949 83.051143 
L 351.724015 95.839739 
L 351.757281 95.839739 
L 351.890347 104.604255 
L 351.923613 104.604255 
L 352.056679 113.478272 
L 352.089945 113.478272 
L 352.223011 122.514739 
L 352.256277 122.514739 
L 352.389343 131.517954 
L 352.422609 131.517954 
L 352.555675 132.705746 
L 352.588941 132.705746 
L 352.722007 130.530986 
L 352.755273 130.530986 
L 352.888339 129.190126 
L 352.921605 129.190126 
L 353.054671 129.561237 
L 353.087937 129.561237 
L 353.221003 130.517388 
L 353.254269 130.517388 
L 353.387335 130.987228 
L 353.420601 130.987228 
L 353.553667 130.74396 
L 353.586933 130.74396 
L 353.719999 130.065258 
L 353.753265 130.065258 
L 353.886331 129.216013 
L 353.919597 129.216013 
L 354.052663 131.232503 
L 354.085929 131.232503 
L 354.218995 132.586423 
L 354.252261 132.586423 
L 354.385327 130.157533 
L 354.418593 130.157533 
L 354.551659 123.287623 
L 354.584925 123.287623 
L 354.717991 122.556896 
L 354.751257 122.556896 
L 354.884323 126.081537 
L 354.917589 126.081537 
L 355.050655 126.412421 
L 355.083921 126.412421 
L 355.216987 123.677804 
L 355.250253 123.677804 
L 355.383319 123.00643 
L 355.416585 123.00643 
L 355.549651 124.744525 
L 355.582917 124.744525 
L 355.715983 125.159794 
L 355.749249 125.159794 
L 355.882315 123.6534 
L 355.915581 123.6534 
L 356.048647 122.9173 
L 356.081913 122.9173 
L 356.214979 123.743428 
L 356.248245 123.743428 
L 356.381311 124.281403 
L 356.414577 124.281403 
L 356.547643 123.684148 
L 356.580909 123.684148 
L 356.713975 123.109748 
L 356.747241 123.109748 
L 356.880307 123.340625 
L 356.913573 123.340625 
L 357.046639 108.914708 
L 357.079905 108.914708 
L 357.212971 123.249404 
L 357.246237 123.249404 
L 357.379303 132.952348 
L 357.412569 132.952348 
L 357.545635 133.436727 
L 357.578901 133.436727 
L 357.711967 128.481102 
L 357.745233 128.481102 
L 357.878299 121.157605 
L 357.911565 121.157605 
L 358.044631 120.066491 
L 358.077897 120.066491 
L 358.210963 124.063483 
L 358.244229 124.063483 
L 358.377295 126.41684 
L 358.410561 126.41684 
L 358.543627 124.451759 
L 358.576893 124.451759 
L 358.709959 121.525268 
L 358.909557 121.454958 
L 359.042623 132.023454 
L 359.075889 132.023454 
L 359.208955 114.241475 
L 359.242221 114.241475 
L 359.375287 115.046281 
L 359.408553 115.046281 
L 359.541619 126.448934 
L 359.574885 126.448934 
L 359.707951 129.371429 
L 359.741217 129.371429 
L 359.874283 122.554784 
L 359.907549 122.554784 
L 360.040615 119.690573 
L 360.073881 119.690573 
L 360.206947 123.718194 
L 360.240213 123.718194 
L 360.373279 126.017466 
L 360.406545 126.017466 
L 360.539611 123.627532 
L 360.572877 123.627532 
L 360.705943 121.898885 
L 360.739209 121.898885 
L 360.872275 123.390643 
L 360.905541 123.390643 
L 361.038607 124.730199 
L 361.071873 124.730199 
L 361.204939 123.832405 
L 361.238205 123.832405 
L 361.371271 122.794768 
L 361.404537 122.794768 
L 361.537603 123.294942 
L 361.570869 123.294942 
L 361.703935 124.050879 
L 361.737201 124.050879 
L 361.870267 123.752613 
L 361.903533 123.752613 
L 362.036599 123.150899 
L 362.236197 123.250471 
L 362.369263 123.637545 
L 362.568861 123.562561 
L 362.701927 123.233789 
L 362.901525 123.201286 
L 363.034591 123.379326 
L 363.234189 123.372657 
L 363.367255 123.198963 
L 364.065849 123.124947 
L 364.198915 123.070505 
L 366.061833 122.965545 
L 366.494296 122.961241 
L 470.817727 122.978931 
L 470.817727 122.978931 
" style="fill:none;stroke:#1f77b4;stroke-linecap:square;stroke-opacity:0.7;stroke-width:1.5;"/>
   </g>
   <g id="line2d_50">
    <path clip-path="url(#pf2e747dd45)" d="M 311.172273 250.693636 
L 311.305338 122.934346 
L 312.835593 122.921951 
L 312.968658 122.678631 
L 313.001925 122.678631 
L 313.13499 121.935078 
L 313.168257 121.935078 
L 313.301322 124.198851 
L 313.334589 124.198851 
L 313.467654 124.98544 
L 313.500921 124.98544 
L 313.633986 123.59955 
L 313.667253 123.59955 
L 313.800318 121.020016 
L 313.833585 121.020016 
L 313.96665 119.432979 
L 313.999917 119.432979 
L 314.132982 119.637548 
L 314.166249 119.637548 
L 314.299314 119.86057 
L 314.332581 119.86057 
L 314.465646 118.873609 
L 314.498913 118.873609 
L 314.631978 117.711618 
L 314.831577 117.783873 
L 314.964642 119.116134 
L 314.997909 119.116134 
L 315.130974 120.718875 
L 315.164241 120.718875 
L 315.297306 122.165934 
L 315.330573 122.165934 
L 315.463638 123.04857 
L 315.496905 123.04857 
L 315.62997 123.229528 
L 315.663237 123.229528 
L 315.796302 123.391629 
L 315.995901 123.473121 
L 316.128966 123.231978 
L 316.162233 123.231978 
L 316.295298 122.979259 
L 316.328565 122.979259 
L 316.46163 123.092803 
L 316.494897 123.092803 
L 316.627962 123.378087 
L 316.827561 123.431571 
L 316.960626 123.251409 
L 317.326557 123.335247 
L 317.459622 123.509987 
L 317.659221 123.49356 
L 317.792286 123.374976 
L 318.158217 123.48345 
L 318.291282 123.563872 
L 318.490881 123.51391 
L 318.623946 123.434059 
L 320.154201 123.39675 
L 320.287266 123.26334 
L 320.320533 123.26334 
L 320.453598 123.146032 
L 320.653197 123.042975 
L 320.786262 122.932225 
L 321.318525 123.030082 
L 321.45159 123.199317 
L 322.316517 123.14803 
L 322.449582 123.071134 
L 351.258285 122.977139 
L 351.391351 96.725699 
L 351.424617 96.725699 
L 351.557683 103.607455 
L 351.590949 103.607455 
L 351.724015 110.615263 
L 351.757281 110.615263 
L 351.890347 115.667537 
L 351.923613 115.667537 
L 352.056679 117.735402 
L 352.089945 117.735402 
L 352.223011 118.333042 
L 352.256277 118.333042 
L 352.389343 115.893937 
L 352.422609 115.893937 
L 352.555675 112.868802 
L 352.588941 112.868802 
L 352.722007 116.391373 
L 352.755273 116.391373 
L 352.888339 118.758824 
L 352.921605 118.758824 
L 353.054671 121.425443 
L 353.087937 121.425443 
L 353.221003 122.627806 
L 353.254269 122.627806 
L 353.387335 124.083956 
L 353.420601 124.083956 
L 353.553667 126.581944 
L 353.586933 126.581944 
L 353.719999 128.091416 
L 353.753265 128.091416 
L 353.886331 128.51137 
L 354.085929 128.479565 
L 354.218995 127.872667 
L 354.252261 127.872667 
L 354.385327 126.33131 
L 354.418593 126.33131 
L 354.551659 123.435832 
L 354.584925 123.435832 
L 354.717991 121.062834 
L 354.751257 121.062834 
L 354.884323 119.974449 
L 354.917589 119.974449 
L 355.050655 121.035402 
L 355.083921 121.035402 
L 355.216987 123.973501 
L 355.416585 123.936131 
L 355.549651 118.236504 
L 355.582917 118.236504 
L 355.715983 116.144848 
L 355.915581 116.054089 
L 356.048647 116.732036 
L 356.081913 116.732036 
L 356.214979 118.148468 
L 356.248245 118.148468 
L 356.381311 120.042434 
L 356.414577 120.042434 
L 356.547643 122.243047 
L 356.580909 122.243047 
L 356.713975 124.225413 
L 356.747241 124.225413 
L 356.880307 125.09349 
L 356.913573 125.09349 
L 357.046639 125.695727 
L 357.079905 125.695727 
L 357.212971 126.907286 
L 357.246237 126.907286 
L 357.379303 129.023443 
L 357.412569 129.023443 
L 357.545635 131.632546 
L 357.578901 131.632546 
L 357.711967 133.37908 
L 357.745233 133.37908 
L 357.878299 132.975024 
L 357.911565 132.975024 
L 358.044631 131.179623 
L 358.077897 131.179623 
L 358.210963 128.045827 
L 358.244229 128.045827 
L 358.377295 122.450684 
L 358.410561 122.450684 
L 358.543627 117.165904 
L 358.576893 117.165904 
L 358.709959 112.896754 
L 358.743225 112.896754 
L 358.876291 111.934607 
L 358.909557 111.934607 
L 359.042623 113.424712 
L 359.075889 113.424712 
L 359.208955 114.240037 
L 359.242221 114.240037 
L 359.375287 115.783049 
L 359.408553 115.783049 
L 359.541619 119.032295 
L 359.574885 119.032295 
L 359.707951 122.292698 
L 359.741217 122.292698 
L 359.874283 123.72754 
L 359.907549 123.72754 
L 360.040615 123.959989 
L 360.240213 123.878454 
L 360.373279 123.739098 
L 360.905541 123.840074 
L 361.171672 123.920509 
L 361.238205 123.920509 
L 361.371271 124.104318 
L 361.404537 124.104318 
L 361.537603 123.849195 
L 361.570869 123.849195 
L 361.703935 123.129299 
L 361.737201 123.129299 
L 361.870267 122.674096 
L 362.069865 122.606338 
L 362.202931 122.806401 
L 362.236197 122.806401 
L 362.369263 122.985378 
L 362.735193 122.93322 
L 362.868259 122.771741 
L 362.901525 122.771741 
L 363.034591 122.637433 
L 363.067857 122.637433 
L 363.200923 122.455666 
L 363.234189 122.455666 
L 363.367255 122.188337 
L 363.400521 122.188337 
L 363.533587 122.076954 
L 363.566853 122.076954 
L 363.699919 122.328132 
L 363.733185 122.328132 
L 363.866251 123.102223 
L 363.899517 123.102223 
L 364.032583 123.977522 
L 364.065849 123.977522 
L 364.198915 124.097137 
L 364.232181 124.097137 
L 364.365247 123.918641 
L 365.562837 123.825474 
L 365.795702 123.752972 
L 366.228165 123.672981 
L 366.427763 123.568559 
L 367.059825 123.466955 
L 367.259423 123.361508 
L 367.725153 123.297345 
L 367.858219 123.246707 
L 368.390481 123.138336 
L 369.055809 122.873229 
L 369.188875 122.645227 
L 369.222141 122.645227 
L 369.355207 122.3044 
L 369.388473 122.3044 
L 369.521539 121.897412 
L 369.554805 121.897412 
L 369.687871 121.520672 
L 369.721137 121.520672 
L 369.854203 121.283837 
L 370.053801 121.287124 
L 370.186867 121.648526 
L 370.220133 121.648526 
L 370.353199 122.420915 
L 370.386465 122.420915 
L 370.519531 123.046533 
L 371.550789 123.130527 
L 371.717121 123.161985 
L 373.713105 123.254306 
L 373.912703 123.148842 
L 374.212101 123.0879 
L 374.345167 123.020581 
L 374.544765 122.951352 
L 374.677831 122.897841 
L 380.532717 123.004987 
L 381.231312 123.033595 
L 470.817727 122.978943 
L 470.817727 122.978943 
" style="fill:none;stroke:#d62728;stroke-linecap:square;stroke-opacity:0.7;stroke-width:1.5;"/>
   </g>
   <g id="patch_8">
    <path d="M 303.19 259.98 
L 303.19 55.68 
" style="fill:none;stroke:#000000;stroke-linecap:square;stroke-linejoin:miter;stroke-width:0.8;"/>
   </g>
   <g id="patch_9">
    <path d="M 478.8 259.98 
L 478.8 55.68 
" style="fill:none;stroke:#000000;stroke-linecap:square;stroke-linejoin:miter;stroke-width:0.8;"/>
   </g>
   <g id="patch_10">
    <path d="M 303.19 259.98 
L 478.8 259.98 
" style="fill:none;stroke:#000000;stroke-linecap:square;stroke-linejoin:miter;stroke-width:0.8;"/>
   </g>
   <g id="patch_11">
    <path d="M 303.19 55.68 
L 478.8 55.68 
" style="fill:none;stroke:#000000;stroke-linecap:square;stroke-linejoin:miter;stroke-width:0.8;"/>
   </g>
   <g id="text_17">
    <!-- RPM1 (rpm) -->
    <g transform="translate(355.505 49.68)scale(0.12 -0.12)">
     <use xlink:href="#DejaVuSans-52"/>
     <use x="69.482422" xlink:href="#DejaVuSans-50"/>
     <use x="129.785156" xlink:href="#DejaVuSans-4d"/>
     <use x="216.064453" xlink:href="#DejaVuSans-31"/>
     <use x="279.6875" xlink:href="#DejaVuSans-20"/>
     <use x="311.474609" xlink:href="#DejaVuSans-28"/>
     <use x="350.488281" xlink:href="#DejaVuSans-72"/>
     <use x="391.601562" xlink:href="#DejaVuSans-70"/>
     <use x="455.078125" xlink:href="#DejaVuSans-6d"/>
     <use x="552.490234" xlink:href="#DejaVuSans-29"/>
    </g>
   </g>
  </g>
  <g id="axes_3">
   <g id="patch_12">
    <path d="M 78.19 505.24 
L 253.8 505.24 
L 253.8 300.94 
L 78.19 300.94 
z
" style="fill:#ffffff;"/>
   </g>
   <g id="matplotlib.axis_5">
    <g id="xtick_11">
     <g id="line2d_51">
      <path clip-path="url(#p97e75e8bbf)" d="M 86.172273 505.24 
L 86.172273 300.94 
" style="fill:none;stroke:#b0b0b0;stroke-linecap:square;stroke-width:0.8;"/>
     </g>
     <g id="line2d_52">
      <g>
       <use style="stroke:#000000;stroke-width:0.8;" x="86.172273" xlink:href="#mb5965bb9a5" y="505.24"/>
      </g>
     </g>
     <g id="text_18">
      <!-- 0 -->
      <g transform="translate(82.991023 519.838438)scale(0.1 -0.1)">
       <use xlink:href="#DejaVuSans-30"/>
      </g>
     </g>
    </g>
    <g id="xtick_12">
     <g id="line2d_53">
      <path clip-path="url(#p97e75e8bbf)" d="M 126.091953 505.24 
L 126.091953 300.94 
" style="fill:none;stroke:#b0b0b0;stroke-linecap:square;stroke-width:0.8;"/>
     </g>
     <g id="line2d_54">
      <g>
       <use style="stroke:#000000;stroke-width:0.8;" x="126.091953" xlink:href="#mb5965bb9a5" y="505.24"/>
      </g>
     </g>
     <g id="text_19">
      <!-- 5 -->
      <g transform="translate(122.910703 519.838438)scale(0.1 -0.1)">
       <use xlink:href="#DejaVuSans-35"/>
      </g>
     </g>
    </g>
    <g id="xtick_13">
     <g id="line2d_55">
      <path clip-path="url(#p97e75e8bbf)" d="M 166.011633 505.24 
L 166.011633 300.94 
" style="fill:none;stroke:#b0b0b0;stroke-linecap:square;stroke-width:0.8;"/>
     </g>
     <g id="line2d_56">
      <g>
       <use style="stroke:#000000;stroke-width:0.8;" x="166.011633" xlink:href="#mb5965bb9a5" y="505.24"/>
      </g>
     </g>
     <g id="text_20">
      <!-- 10 -->
      <g transform="translate(159.649133 519.838438)scale(0.1 -0.1)">
       <use xlink:href="#DejaVuSans-31"/>
       <use x="63.623047" xlink:href="#DejaVuSans-30"/>
      </g>
     </g>
    </g>
    <g id="xtick_14">
     <g id="line2d_57">
      <path clip-path="url(#p97e75e8bbf)" d="M 205.931313 505.24 
L 205.931313 300.94 
" style="fill:none;stroke:#b0b0b0;stroke-linecap:square;stroke-width:0.8;"/>
     </g>
     <g id="line2d_58">
      <g>
       <use style="stroke:#000000;stroke-width:0.8;" x="205.931313" xlink:href="#mb5965bb9a5" y="505.24"/>
      </g>
     </g>
     <g id="text_21">
      <!-- 15 -->
      <g transform="translate(199.568813 519.838438)scale(0.1 -0.1)">
       <use xlink:href="#DejaVuSans-31"/>
       <use x="63.623047" xlink:href="#DejaVuSans-35"/>
      </g>
     </g>
    </g>
    <g id="xtick_15">
     <g id="line2d_59">
      <path clip-path="url(#p97e75e8bbf)" d="M 245.850994 505.24 
L 245.850994 300.94 
" style="fill:none;stroke:#b0b0b0;stroke-linecap:square;stroke-width:0.8;"/>
     </g>
     <g id="line2d_60">
      <g>
       <use style="stroke:#000000;stroke-width:0.8;" x="245.850994" xlink:href="#mb5965bb9a5" y="505.24"/>
      </g>
     </g>
     <g id="text_22">
      <!-- 20 -->
      <g transform="translate(239.488494 519.838438)scale(0.1 -0.1)">
       <use xlink:href="#DejaVuSans-32"/>
       <use x="63.623047" xlink:href="#DejaVuSans-30"/>
      </g>
     </g>
    </g>
    <g id="text_23">
     <!-- Tiempo (s) -->
     <g transform="translate(139.4325 533.516562)scale(0.1 -0.1)">
      <use xlink:href="#DejaVuSans-54"/>
      <use x="57.958984" xlink:href="#DejaVuSans-69"/>
      <use x="85.742188" xlink:href="#DejaVuSans-65"/>
      <use x="147.265625" xlink:href="#DejaVuSans-6d"/>
      <use x="244.677734" xlink:href="#DejaVuSans-70"/>
      <use x="308.154297" xlink:href="#DejaVuSans-6f"/>
      <use x="369.335938" xlink:href="#DejaVuSans-20"/>
      <use x="401.123047" xlink:href="#DejaVuSans-28"/>
      <use x="440.136719" xlink:href="#DejaVuSans-73"/>
      <use x="492.236328" xlink:href="#DejaVuSans-29"/>
     </g>
    </g>
   </g>
   <g id="matplotlib.axis_6">
    <g id="ytick_14">
     <g id="line2d_61">
      <path clip-path="url(#p97e75e8bbf)" d="M 78.19 495.953636 
L 253.8 495.953636 
" style="fill:none;stroke:#b0b0b0;stroke-linecap:square;stroke-width:0.8;"/>
     </g>
     <g id="line2d_62">
      <g>
       <use style="stroke:#000000;stroke-width:0.8;" x="78.19" xlink:href="#m0a86416db9" y="495.953636"/>
      </g>
     </g>
     <g id="text_24">
      <!-- 0 -->
      <g transform="translate(64.8275 499.752855)scale(0.1 -0.1)">
       <use xlink:href="#DejaVuSans-30"/>
      </g>
     </g>
    </g>
    <g id="ytick_15">
     <g id="line2d_63">
      <path clip-path="url(#p97e75e8bbf)" d="M 78.19 472.946295 
L 253.8 472.946295 
" style="fill:none;stroke:#b0b0b0;stroke-linecap:square;stroke-width:0.8;"/>
     </g>
     <g id="line2d_64">
      <g>
       <use style="stroke:#000000;stroke-width:0.8;" x="78.19" xlink:href="#m0a86416db9" y="472.946295"/>
      </g>
     </g>
     <g id="text_25">
      <!-- 2500 -->
      <g transform="translate(45.74 476.745513)scale(0.1 -0.1)">
       <use xlink:href="#DejaVuSans-32"/>
       <use x="63.623047" xlink:href="#DejaVuSans-35"/>
       <use x="127.246094" xlink:href="#DejaVuSans-30"/>
       <use x="190.869141" xlink:href="#DejaVuSans-30"/>
      </g>
     </g>
    </g>
    <g id="ytick_16">
     <g id="line2d_65">
      <path clip-path="url(#p97e75e8bbf)" d="M 78.19 449.938953 
L 253.8 449.938953 
" style="fill:none;stroke:#b0b0b0;stroke-linecap:square;stroke-width:0.8;"/>
     </g>
     <g id="line2d_66">
      <g>
       <use style="stroke:#000000;stroke-width:0.8;" x="78.19" xlink:href="#m0a86416db9" y="449.938953"/>
      </g>
     </g>
     <g id="text_26">
      <!-- 5000 -->
      <g transform="translate(45.74 453.738172)scale(0.1 -0.1)">
       <use xlink:href="#DejaVuSans-35"/>
       <use x="63.623047" xlink:href="#DejaVuSans-30"/>
       <use x="127.246094" xlink:href="#DejaVuSans-30"/>
       <use x="190.869141" xlink:href="#DejaVuSans-30"/>
      </g>
     </g>
    </g>
    <g id="ytick_17">
     <g id="line2d_67">
      <path clip-path="url(#p97e75e8bbf)" d="M 78.19 426.931611 
L 253.8 426.931611 
" style="fill:none;stroke:#b0b0b0;stroke-linecap:square;stroke-width:0.8;"/>
     </g>
     <g id="line2d_68">
      <g>
       <use style="stroke:#000000;stroke-width:0.8;" x="78.19" xlink:href="#m0a86416db9" y="426.931611"/>
      </g>
     </g>
     <g id="text_27">
      <!-- 7500 -->
      <g transform="translate(45.74 430.73083)scale(0.1 -0.1)">
       <use xlink:href="#DejaVuSans-37"/>
       <use x="63.623047" xlink:href="#DejaVuSans-35"/>
       <use x="127.246094" xlink:href="#DejaVuSans-30"/>
       <use x="190.869141" xlink:href="#DejaVuSans-30"/>
      </g>
     </g>
    </g>
    <g id="ytick_18">
     <g id="line2d_69">
      <path clip-path="url(#p97e75e8bbf)" d="M 78.19 403.924269 
L 253.8 403.924269 
" style="fill:none;stroke:#b0b0b0;stroke-linecap:square;stroke-width:0.8;"/>
     </g>
     <g id="line2d_70">
      <g>
       <use style="stroke:#000000;stroke-width:0.8;" x="78.19" xlink:href="#m0a86416db9" y="403.924269"/>
      </g>
     </g>
     <g id="text_28">
      <!-- 10000 -->
      <g transform="translate(39.3775 407.723488)scale(0.1 -0.1)">
       <use xlink:href="#DejaVuSans-31"/>
       <use x="63.623047" xlink:href="#DejaVuSans-30"/>
       <use x="127.246094" xlink:href="#DejaVuSans-30"/>
       <use x="190.869141" xlink:href="#DejaVuSans-30"/>
       <use x="254.492188" xlink:href="#DejaVuSans-30"/>
      </g>
     </g>
    </g>
    <g id="ytick_19">
     <g id="line2d_71">
      <path clip-path="url(#p97e75e8bbf)" d="M 78.19 380.916928 
L 253.8 380.916928 
" style="fill:none;stroke:#b0b0b0;stroke-linecap:square;stroke-width:0.8;"/>
     </g>
     <g id="line2d_72">
      <g>
       <use style="stroke:#000000;stroke-width:0.8;" x="78.19" xlink:href="#m0a86416db9" y="380.916928"/>
      </g>
     </g>
     <g id="text_29">
      <!-- 12500 -->
      <g transform="translate(39.3775 384.716146)scale(0.1 -0.1)">
       <use xlink:href="#DejaVuSans-31"/>
       <use x="63.623047" xlink:href="#DejaVuSans-32"/>
       <use x="127.246094" xlink:href="#DejaVuSans-35"/>
       <use x="190.869141" xlink:href="#DejaVuSans-30"/>
       <use x="254.492188" xlink:href="#DejaVuSans-30"/>
      </g>
     </g>
    </g>
    <g id="ytick_20">
     <g id="line2d_73">
      <path clip-path="url(#p97e75e8bbf)" d="M 78.19 357.909586 
L 253.8 357.909586 
" style="fill:none;stroke:#b0b0b0;stroke-linecap:square;stroke-width:0.8;"/>
     </g>
     <g id="line2d_74">
      <g>
       <use style="stroke:#000000;stroke-width:0.8;" x="78.19" xlink:href="#m0a86416db9" y="357.909586"/>
      </g>
     </g>
     <g id="text_30">
      <!-- 15000 -->
      <g transform="translate(39.3775 361.708805)scale(0.1 -0.1)">
       <use xlink:href="#DejaVuSans-31"/>
       <use x="63.623047" xlink:href="#DejaVuSans-35"/>
       <use x="127.246094" xlink:href="#DejaVuSans-30"/>
       <use x="190.869141" xlink:href="#DejaVuSans-30"/>
       <use x="254.492188" xlink:href="#DejaVuSans-30"/>
      </g>
     </g>
    </g>
    <g id="ytick_21">
     <g id="line2d_75">
      <path clip-path="url(#p97e75e8bbf)" d="M 78.19 334.902244 
L 253.8 334.902244 
" style="fill:none;stroke:#b0b0b0;stroke-linecap:square;stroke-width:0.8;"/>
     </g>
     <g id="line2d_76">
      <g>
       <use style="stroke:#000000;stroke-width:0.8;" x="78.19" xlink:href="#m0a86416db9" y="334.902244"/>
      </g>
     </g>
     <g id="text_31">
      <!-- 17500 -->
      <g transform="translate(39.3775 338.701463)scale(0.1 -0.1)">
       <use xlink:href="#DejaVuSans-31"/>
       <use x="63.623047" xlink:href="#DejaVuSans-37"/>
       <use x="127.246094" xlink:href="#DejaVuSans-35"/>
       <use x="190.869141" xlink:href="#DejaVuSans-30"/>
       <use x="254.492188" xlink:href="#DejaVuSans-30"/>
      </g>
     </g>
    </g>
    <g id="ytick_22">
     <g id="line2d_77">
      <path clip-path="url(#p97e75e8bbf)" d="M 78.19 311.894903 
L 253.8 311.894903 
" style="fill:none;stroke:#b0b0b0;stroke-linecap:square;stroke-width:0.8;"/>
     </g>
     <g id="line2d_78">
      <g>
       <use style="stroke:#000000;stroke-width:0.8;" x="78.19" xlink:href="#m0a86416db9" y="311.894903"/>
      </g>
     </g>
     <g id="text_32">
      <!-- 20000 -->
      <g transform="translate(39.3775 315.694121)scale(0.1 -0.1)">
       <use xlink:href="#DejaVuSans-32"/>
       <use x="63.623047" xlink:href="#DejaVuSans-30"/>
       <use x="127.246094" xlink:href="#DejaVuSans-30"/>
       <use x="190.869141" xlink:href="#DejaVuSans-30"/>
       <use x="254.492188" xlink:href="#DejaVuSans-30"/>
      </g>
     </g>
    </g>
   </g>
   <g id="line2d_79">
    <path clip-path="url(#p97e75e8bbf)" d="M 86.172273 495.953636 
L 86.305338 357.708414 
L 86.338605 357.708414 
L 86.47167 359.454295 
L 86.504937 359.454295 
L 86.638002 360.617542 
L 86.671269 360.617542 
L 86.804334 361.389271 
L 86.837601 361.389271 
L 86.970666 361.899445 
L 87.003933 361.899445 
L 87.136998 362.235605 
L 87.170265 362.235605 
L 87.30333 362.456329 
L 87.336597 362.456329 
L 87.469662 362.600642 
L 87.669261 362.694465 
L 87.802326 362.75498 
L 126.258285 362.801599 
L 126.391351 310.226364 
L 126.424617 310.226364 
L 126.557683 329.081086 
L 126.590949 329.081086 
L 126.724015 342.414143 
L 126.757281 342.414143 
L 126.890347 351.551801 
L 126.923613 351.551801 
L 127.056679 354.460506 
L 127.089945 354.460506 
L 127.223011 352.816739 
L 127.256277 352.816739 
L 127.389343 363.796998 
L 127.422609 363.796998 
L 127.555675 366.73345 
L 127.588941 366.73345 
L 127.722007 371.507744 
L 127.755273 371.507744 
L 127.888339 374.47877 
L 127.921605 374.47877 
L 128.054671 375.013683 
L 128.087937 375.013683 
L 128.221003 374.438735 
L 128.254269 374.438735 
L 128.387335 373.958123 
L 128.919597 373.931664 
L 129.052663 370.773916 
L 129.085929 370.773916 
L 129.218995 368.214156 
L 129.252261 368.214156 
L 129.385327 368.394034 
L 129.418593 368.394034 
L 129.551659 364.011053 
L 129.584925 364.011053 
L 129.717991 362.229435 
L 129.751257 362.229435 
L 129.884323 363.955157 
L 129.917589 363.955157 
L 130.050655 364.218562 
L 130.083921 364.218562 
L 130.216987 361.976836 
L 130.250253 361.976836 
L 130.383319 360.430206 
L 130.416585 360.430206 
L 130.549651 360.851519 
L 130.582917 360.851519 
L 130.715983 361.387071 
L 130.749249 361.387071 
L 130.882315 360.875565 
L 130.915581 360.875565 
L 131.048647 360.203055 
L 131.248245 360.230252 
L 131.381311 360.564519 
L 131.747241 360.572811 
L 131.880307 360.745335 
L 131.913573 360.745335 
L 132.046639 371.860094 
L 132.079905 371.860094 
L 132.212971 358.879871 
L 132.246237 358.879871 
L 132.379303 354.067186 
L 132.412569 354.067186 
L 132.545635 357.76253 
L 132.578901 357.76253 
L 132.711967 361.503969 
L 132.745233 361.503969 
L 132.878299 364.939273 
L 132.911565 364.939273 
L 133.044631 364.129965 
L 133.077897 364.129965 
L 133.210963 361.48124 
L 133.244229 361.48124 
L 133.377295 361.752674 
L 133.410561 361.752674 
L 133.543627 364.318284 
L 133.576893 364.318284 
L 133.709959 365.046496 
L 133.743225 365.046496 
L 133.876291 363.591881 
L 133.909557 363.591881 
L 134.042623 362.18469 
L 134.075889 362.18469 
L 134.208955 364.958468 
L 134.242221 364.958468 
L 134.375287 364.834354 
L 134.408553 364.834354 
L 134.541619 366.473599 
L 134.574885 366.473599 
L 134.707951 364.614472 
L 134.741217 364.614472 
L 134.874283 362.697277 
L 134.907549 362.697277 
L 135.040615 363.950024 
L 135.073881 363.950024 
L 135.206947 365.92312 
L 135.240213 365.92312 
L 135.373279 365.473017 
L 135.406545 365.473017 
L 135.539611 363.922613 
L 135.739209 363.842483 
L 135.872275 364.772452 
L 136.071873 364.821903 
L 136.204939 364.036676 
L 136.238205 364.036676 
L 136.371271 363.709412 
L 136.404537 363.709412 
L 136.537603 363.983917 
L 136.737201 364.006651 
L 136.870267 363.59447 
L 136.903533 363.59447 
L 137.036599 363.30723 
L 137.402529 363.307311 
L 137.535595 363.081609 
L 137.568861 363.081609 
L 137.701927 362.880847 
L 138.067857 362.804277 
L 138.200923 362.689458 
L 138.234189 362.689458 
L 138.367255 362.575198 
L 138.899517 362.481861 
L 139.065849 362.436655 
L 139.498312 362.446295 
L 140.230173 362.531362 
L 140.463038 362.593983 
L 140.895501 362.674929 
L 141.095099 362.747965 
L 141.727161 362.853845 
L 141.960026 362.91044 
L 146.051793 362.800801 
L 146.484256 362.77341 
L 245.817727 362.801598 
L 245.817727 362.801598 
" style="fill:none;stroke:#1f77b4;stroke-linecap:square;stroke-opacity:0.7;stroke-width:1.5;"/>
   </g>
   <g id="line2d_80">
    <path clip-path="url(#p97e75e8bbf)" d="M 86.172273 495.953636 
L 86.305338 362.264758 
L 87.835593 362.23292 
L 87.968658 362.072654 
L 88.001925 362.072654 
L 88.13499 361.747244 
L 88.168257 361.747244 
L 88.301322 363.094571 
L 88.500921 363.034008 
L 88.633986 362.466986 
L 88.667253 362.466986 
L 88.800318 361.29052 
L 88.833585 361.29052 
L 88.96665 359.909894 
L 88.999917 359.909894 
L 89.132982 359.239438 
L 89.166249 359.239438 
L 89.299314 359.394017 
L 89.332581 359.394017 
L 89.465646 359.968381 
L 89.498913 359.968381 
L 89.631978 360.670136 
L 89.665245 360.670136 
L 89.79831 361.38029 
L 89.831577 361.38029 
L 89.964642 362.147565 
L 89.997909 362.147565 
L 90.130974 362.801785 
L 90.330573 362.912112 
L 90.463638 362.595021 
L 90.496905 362.595021 
L 90.62997 362.426402 
L 90.829569 362.485906 
L 90.962634 362.621678 
L 90.995901 362.621678 
L 91.128966 362.787178 
L 91.328565 362.77932 
L 91.46163 362.59029 
L 91.827561 362.700601 
L 91.960626 362.881778 
L 92.160225 362.839488 
L 92.29329 362.709482 
L 92.492889 362.734898 
L 92.625954 362.884213 
L 95.154201 362.965678 
L 95.287266 363.102392 
L 95.320533 363.102392 
L 95.453598 363.278713 
L 95.486865 363.278713 
L 95.61993 363.494029 
L 95.653197 363.494029 
L 95.786262 363.694961 
L 96.152193 363.706773 
L 96.285258 363.447935 
L 96.318525 363.447935 
L 96.45159 363.122777 
L 96.484857 363.122777 
L 96.617922 362.854923 
L 96.651189 362.854923 
L 96.784254 362.710513 
L 97.316517 362.799312 
L 97.449582 362.937736 
L 97.482849 362.937736 
L 97.615914 363.048854 
L 98.480841 363.016263 
L 98.613906 362.937052 
L 110.955741 362.826042 
L 116.145299 362.810519 
L 126.258285 362.800031 
L 126.391351 333.843137 
L 126.424617 333.843137 
L 126.557683 341.071065 
L 126.590949 341.071065 
L 126.724015 347.090791 
L 126.757281 347.090791 
L 126.890347 348.989396 
L 126.923613 348.989396 
L 127.056679 351.444838 
L 127.089945 351.444838 
L 127.223011 355.295985 
L 127.256277 355.295985 
L 127.389343 363.833735 
L 127.422609 363.833735 
L 127.555675 374.281552 
L 127.588941 374.281552 
L 127.722007 376.063434 
L 127.755273 376.063434 
L 127.888339 373.260365 
L 127.921605 373.260365 
L 128.054671 370.134284 
L 128.087937 370.134284 
L 128.221003 368.717515 
L 128.254269 368.717515 
L 128.387335 366.966671 
L 128.420601 366.966671 
L 128.553667 364.815847 
L 128.586933 364.815847 
L 128.719999 364.279077 
L 128.753265 364.279077 
L 128.886331 364.409606 
L 129.085929 364.430877 
L 129.218995 364.200461 
L 129.252261 364.200461 
L 129.385327 364.334597 
L 129.418593 364.334597 
L 129.551659 366.126513 
L 129.584925 366.126513 
L 129.717991 367.901445 
L 129.917589 367.950356 
L 130.050655 365.344736 
L 130.083921 365.344736 
L 130.216987 361.085947 
L 130.250253 361.085947 
L 130.383319 357.46793 
L 130.416585 357.46793 
L 130.549651 356.202464 
L 130.582917 356.202464 
L 130.715983 358.294716 
L 130.749249 358.294716 
L 130.882315 360.169701 
L 130.915581 360.169701 
L 131.048647 360.340826 
L 131.081913 360.340826 
L 131.214979 359.861053 
L 131.248245 359.861053 
L 131.381311 359.022108 
L 131.414577 359.022108 
L 131.547643 357.69391 
L 131.580909 357.69391 
L 131.713975 356.697437 
L 131.913573 356.766108 
L 132.046639 357.337209 
L 132.246237 357.307492 
L 132.379303 356.363369 
L 132.412569 356.363369 
L 132.545635 354.363024 
L 132.578901 354.363024 
L 132.711967 352.318888 
L 132.745233 352.318888 
L 132.878299 351.064943 
L 132.911565 351.064943 
L 133.044631 350.520392 
L 133.077897 350.520392 
L 133.210963 351.533008 
L 133.244229 351.533008 
L 133.377295 355.104977 
L 133.410561 355.104977 
L 133.543627 358.926914 
L 133.576893 358.926914 
L 133.709959 363.114875 
L 133.743225 363.114875 
L 133.876291 366.757811 
L 133.909557 366.757811 
L 134.042623 368.338874 
L 134.075889 368.338874 
L 134.208955 367.589785 
L 134.242221 367.589785 
L 134.375287 366.50311 
L 134.408553 366.50311 
L 134.541619 365.558995 
L 134.574885 365.558995 
L 134.707951 365.245037 
L 134.741217 365.245037 
L 134.874283 365.800647 
L 134.907549 365.800647 
L 135.040615 366.060117 
L 135.240213 366.113866 
L 135.373279 366.305343 
L 135.406545 366.305343 
L 135.539611 366.546884 
L 135.572877 366.546884 
L 135.705943 366.786078 
L 136.071873 366.800664 
L 136.204939 366.398366 
L 136.238205 366.398366 
L 136.371271 365.309455 
L 136.404537 365.309455 
L 136.537603 363.968885 
L 136.570869 363.968885 
L 136.703935 363.07068 
L 136.737201 363.07068 
L 136.870267 362.933577 
L 137.069865 363.006288 
L 137.202931 362.755329 
L 137.236197 362.755329 
L 137.369263 362.207555 
L 137.402529 362.207555 
L 137.535595 361.836759 
L 137.735193 361.947517 
L 137.868259 362.242655 
L 137.901525 362.242655 
L 138.034591 362.457533 
L 138.067857 362.457533 
L 138.200923 362.771639 
L 138.234189 362.771639 
L 138.367255 363.214999 
L 138.400521 363.214999 
L 138.533587 363.701662 
L 138.733185 363.79918 
L 138.866251 363.047991 
L 138.899517 363.047991 
L 139.032583 361.891687 
L 139.065849 361.891687 
L 139.198915 361.525096 
L 139.232181 361.525096 
L 139.365247 361.644262 
L 140.230173 361.743858 
L 140.363239 361.864695 
L 140.396505 361.864695 
L 140.529571 361.977917 
L 140.729169 362.072834 
L 140.862235 362.199821 
L 140.895501 362.199821 
L 141.028567 362.373299 
L 141.061833 362.373299 
L 141.194899 362.550267 
L 141.394497 362.639527 
L 141.594095 362.762423 
L 141.727161 362.762423 
L 141.860227 362.888076 
L 141.893493 362.888076 
L 142.026559 363.003371 
L 142.392489 363.102905 
L 142.592087 363.138052 
L 144.055809 363.205628 
L 144.188875 363.404588 
L 144.222141 363.404588 
L 144.355207 363.738445 
L 144.388473 363.738445 
L 144.521539 364.205383 
L 144.554805 364.205383 
L 144.687871 364.692503 
L 144.721137 364.692503 
L 144.854203 365.027968 
L 145.053801 364.98613 
L 145.186867 364.360541 
L 145.220133 364.360541 
L 145.353199 363.208019 
L 145.386465 363.208019 
L 145.519531 362.379368 
L 148.879437 362.46288 
L 149.012503 362.551525 
L 149.212101 362.63758 
L 149.345167 362.728482 
L 149.544765 362.822711 
L 149.677831 362.902118 
L 155.200053 362.79345 
L 155.59925 362.766648 
L 245.817727 362.801608 
L 245.817727 362.801608 
" style="fill:none;stroke:#d62728;stroke-linecap:square;stroke-opacity:0.7;stroke-width:1.5;"/>
   </g>
   <g id="patch_13">
    <path d="M 78.19 505.24 
L 78.19 300.94 
" style="fill:none;stroke:#000000;stroke-linecap:square;stroke-linejoin:miter;stroke-width:0.8;"/>
   </g>
   <g id="patch_14">
    <path d="M 253.8 505.24 
L 253.8 300.94 
" style="fill:none;stroke:#000000;stroke-linecap:square;stroke-linejoin:miter;stroke-width:0.8;"/>
   </g>
   <g id="patch_15">
    <path d="M 78.19 505.24 
L 253.8 505.24 
" style="fill:none;stroke:#000000;stroke-linecap:square;stroke-linejoin:miter;stroke-width:0.8;"/>
   </g>
   <g id="patch_16">
    <path d="M 78.19 300.94 
L 253.8 300.94 
" style="fill:none;stroke:#000000;stroke-linecap:square;stroke-linejoin:miter;stroke-width:0.8;"/>
   </g>
   <g id="text_33">
    <!-- RPM2 (rpm) -->
    <g transform="translate(130.505 294.94)scale(0.12 -0.12)">
     <use xlink:href="#DejaVuSans-52"/>
     <use x="69.482422" xlink:href="#DejaVuSans-50"/>
     <use x="129.785156" xlink:href="#DejaVuSans-4d"/>
     <use x="216.064453" xlink:href="#DejaVuSans-32"/>
     <use x="279.6875" xlink:href="#DejaVuSans-20"/>
     <use x="311.474609" xlink:href="#DejaVuSans-28"/>
     <use x="350.488281" xlink:href="#DejaVuSans-72"/>
     <use x="391.601562" xlink:href="#DejaVuSans-70"/>
     <use x="455.078125" xlink:href="#DejaVuSans-6d"/>
     <use x="552.490234" xlink:href="#DejaVuSans-29"/>
    </g>
   </g>
  </g>
  <g id="axes_4">
   <g id="patch_17">
    <path d="M 303.19 505.24 
L 478.8 505.24 
L 478.8 300.94 
L 303.19 300.94 
z
" style="fill:#ffffff;"/>
   </g>
   <g id="matplotlib.axis_7">
    <g id="xtick_16">
     <g id="line2d_81">
      <path clip-path="url(#pfa10d20510)" d="M 311.172273 505.24 
L 311.172273 300.94 
" style="fill:none;stroke:#b0b0b0;stroke-linecap:square;stroke-width:0.8;"/>
     </g>
     <g id="line2d_82">
      <g>
       <use style="stroke:#000000;stroke-width:0.8;" x="311.172273" xlink:href="#mb5965bb9a5" y="505.24"/>
      </g>
     </g>
     <g id="text_34">
      <!-- 0 -->
      <g transform="translate(307.991023 519.838438)scale(0.1 -0.1)">
       <use xlink:href="#DejaVuSans-30"/>
      </g>
     </g>
    </g>
    <g id="xtick_17">
     <g id="line2d_83">
      <path clip-path="url(#pfa10d20510)" d="M 351.091953 505.24 
L 351.091953 300.94 
" style="fill:none;stroke:#b0b0b0;stroke-linecap:square;stroke-width:0.8;"/>
     </g>
     <g id="line2d_84">
      <g>
       <use style="stroke:#000000;stroke-width:0.8;" x="351.091953" xlink:href="#mb5965bb9a5" y="505.24"/>
      </g>
     </g>
     <g id="text_35">
      <!-- 5 -->
      <g transform="translate(347.910703 519.838438)scale(0.1 -0.1)">
       <use xlink:href="#DejaVuSans-35"/>
      </g>
     </g>
    </g>
    <g id="xtick_18">
     <g id="line2d_85">
      <path clip-path="url(#pfa10d20510)" d="M 391.011633 505.24 
L 391.011633 300.94 
" style="fill:none;stroke:#b0b0b0;stroke-linecap:square;stroke-width:0.8;"/>
     </g>
     <g id="line2d_86">
      <g>
       <use style="stroke:#000000;stroke-width:0.8;" x="391.011633" xlink:href="#mb5965bb9a5" y="505.24"/>
      </g>
     </g>
     <g id="text_36">
      <!-- 10 -->
      <g transform="translate(384.649133 519.838438)scale(0.1 -0.1)">
       <use xlink:href="#DejaVuSans-31"/>
       <use x="63.623047" xlink:href="#DejaVuSans-30"/>
      </g>
     </g>
    </g>
    <g id="xtick_19">
     <g id="line2d_87">
      <path clip-path="url(#pfa10d20510)" d="M 430.931313 505.24 
L 430.931313 300.94 
" style="fill:none;stroke:#b0b0b0;stroke-linecap:square;stroke-width:0.8;"/>
     </g>
     <g id="line2d_88">
      <g>
       <use style="stroke:#000000;stroke-width:0.8;" x="430.931313" xlink:href="#mb5965bb9a5" y="505.24"/>
      </g>
     </g>
     <g id="text_37">
      <!-- 15 -->
      <g transform="translate(424.568813 519.838438)scale(0.1 -0.1)">
       <use xlink:href="#DejaVuSans-31"/>
       <use x="63.623047" xlink:href="#DejaVuSans-35"/>
      </g>
     </g>
    </g>
    <g id="xtick_20">
     <g id="line2d_89">
      <path clip-path="url(#pfa10d20510)" d="M 470.850994 505.24 
L 470.850994 300.94 
" style="fill:none;stroke:#b0b0b0;stroke-linecap:square;stroke-width:0.8;"/>
     </g>
     <g id="line2d_90">
      <g>
       <use style="stroke:#000000;stroke-width:0.8;" x="470.850994" xlink:href="#mb5965bb9a5" y="505.24"/>
      </g>
     </g>
     <g id="text_38">
      <!-- 20 -->
      <g transform="translate(464.488494 519.838438)scale(0.1 -0.1)">
       <use xlink:href="#DejaVuSans-32"/>
       <use x="63.623047" xlink:href="#DejaVuSans-30"/>
      </g>
     </g>
    </g>
    <g id="text_39">
     <!-- Tiempo (s) -->
     <g transform="translate(364.4325 533.516562)scale(0.1 -0.1)">
      <use xlink:href="#DejaVuSans-54"/>
      <use x="57.958984" xlink:href="#DejaVuSans-69"/>
      <use x="85.742188" xlink:href="#DejaVuSans-65"/>
      <use x="147.265625" xlink:href="#DejaVuSans-6d"/>
      <use x="244.677734" xlink:href="#DejaVuSans-70"/>
      <use x="308.154297" xlink:href="#DejaVuSans-6f"/>
      <use x="369.335938" xlink:href="#DejaVuSans-20"/>
      <use x="401.123047" xlink:href="#DejaVuSans-28"/>
      <use x="440.136719" xlink:href="#DejaVuSans-73"/>
      <use x="492.236328" xlink:href="#DejaVuSans-29"/>
     </g>
    </g>
   </g>
   <g id="matplotlib.axis_8">
    <g id="ytick_23">
     <g id="line2d_91">
      <path clip-path="url(#pfa10d20510)" d="M 303.19 495.953636 
L 478.8 495.953636 
" style="fill:none;stroke:#b0b0b0;stroke-linecap:square;stroke-width:0.8;"/>
     </g>
     <g id="line2d_92">
      <g>
       <use style="stroke:#000000;stroke-width:0.8;" x="303.19" xlink:href="#m0a86416db9" y="495.953636"/>
      </g>
     </g>
     <g id="text_40">
      <!-- 0 -->
      <g transform="translate(289.8275 499.752855)scale(0.1 -0.1)">
       <use xlink:href="#DejaVuSans-30"/>
      </g>
     </g>
    </g>
    <g id="ytick_24">
     <g id="line2d_93">
      <path clip-path="url(#pfa10d20510)" d="M 303.19 451.817987 
L 478.8 451.817987 
" style="fill:none;stroke:#b0b0b0;stroke-linecap:square;stroke-width:0.8;"/>
     </g>
     <g id="line2d_94">
      <g>
       <use style="stroke:#000000;stroke-width:0.8;" x="303.19" xlink:href="#m0a86416db9" y="451.817987"/>
      </g>
     </g>
     <g id="text_41">
      <!-- 5000 -->
      <g transform="translate(270.74 455.617205)scale(0.1 -0.1)">
       <use xlink:href="#DejaVuSans-35"/>
       <use x="63.623047" xlink:href="#DejaVuSans-30"/>
       <use x="127.246094" xlink:href="#DejaVuSans-30"/>
       <use x="190.869141" xlink:href="#DejaVuSans-30"/>
      </g>
     </g>
    </g>
    <g id="ytick_25">
     <g id="line2d_95">
      <path clip-path="url(#pfa10d20510)" d="M 303.19 407.682337 
L 478.8 407.682337 
" style="fill:none;stroke:#b0b0b0;stroke-linecap:square;stroke-width:0.8;"/>
     </g>
     <g id="line2d_96">
      <g>
       <use style="stroke:#000000;stroke-width:0.8;" x="303.19" xlink:href="#m0a86416db9" y="407.682337"/>
      </g>
     </g>
     <g id="text_42">
      <!-- 10000 -->
      <g transform="translate(264.3775 411.481555)scale(0.1 -0.1)">
       <use xlink:href="#DejaVuSans-31"/>
       <use x="63.623047" xlink:href="#DejaVuSans-30"/>
       <use x="127.246094" xlink:href="#DejaVuSans-30"/>
       <use x="190.869141" xlink:href="#DejaVuSans-30"/>
       <use x="254.492188" xlink:href="#DejaVuSans-30"/>
      </g>
     </g>
    </g>
    <g id="ytick_26">
     <g id="line2d_97">
      <path clip-path="url(#pfa10d20510)" d="M 303.19 363.546687 
L 478.8 363.546687 
" style="fill:none;stroke:#b0b0b0;stroke-linecap:square;stroke-width:0.8;"/>
     </g>
     <g id="line2d_98">
      <g>
       <use style="stroke:#000000;stroke-width:0.8;" x="303.19" xlink:href="#m0a86416db9" y="363.546687"/>
      </g>
     </g>
     <g id="text_43">
      <!-- 15000 -->
      <g transform="translate(264.3775 367.345906)scale(0.1 -0.1)">
       <use xlink:href="#DejaVuSans-31"/>
       <use x="63.623047" xlink:href="#DejaVuSans-35"/>
       <use x="127.246094" xlink:href="#DejaVuSans-30"/>
       <use x="190.869141" xlink:href="#DejaVuSans-30"/>
       <use x="254.492188" xlink:href="#DejaVuSans-30"/>
      </g>
     </g>
    </g>
    <g id="ytick_27">
     <g id="line2d_99">
      <path clip-path="url(#pfa10d20510)" d="M 303.19 319.411037 
L 478.8 319.411037 
" style="fill:none;stroke:#b0b0b0;stroke-linecap:square;stroke-width:0.8;"/>
     </g>
     <g id="line2d_100">
      <g>
       <use style="stroke:#000000;stroke-width:0.8;" x="303.19" xlink:href="#m0a86416db9" y="319.411037"/>
      </g>
     </g>
     <g id="text_44">
      <!-- 20000 -->
      <g transform="translate(264.3775 323.210256)scale(0.1 -0.1)">
       <use xlink:href="#DejaVuSans-32"/>
       <use x="63.623047" xlink:href="#DejaVuSans-30"/>
       <use x="127.246094" xlink:href="#DejaVuSans-30"/>
       <use x="190.869141" xlink:href="#DejaVuSans-30"/>
       <use x="254.492188" xlink:href="#DejaVuSans-30"/>
      </g>
     </g>
    </g>
   </g>
   <g id="line2d_101">
    <path clip-path="url(#pfa10d20510)" d="M 311.172273 495.953636 
L 311.305338 363.35373 
L 311.338605 363.35373 
L 311.47167 365.028317 
L 311.504937 365.028317 
L 311.638002 366.144062 
L 311.671269 366.144062 
L 311.804334 366.884277 
L 311.837601 366.884277 
L 311.970666 367.373618 
L 312.003933 367.373618 
L 312.136998 367.696051 
L 312.170265 367.696051 
L 312.30333 367.907761 
L 312.336597 367.907761 
L 312.469662 368.046181 
L 312.669261 368.136173 
L 312.802326 368.194216 
L 351.258285 368.238932 
L 351.391351 310.226364 
L 351.424617 310.226364 
L 351.557683 328.311143 
L 351.590949 328.311143 
L 351.724015 341.099739 
L 351.757281 341.099739 
L 351.890347 349.864255 
L 351.923613 349.864255 
L 352.056679 358.738272 
L 352.089945 358.738272 
L 352.223011 379.713941 
L 352.256277 379.713941 
L 352.389343 377.324392 
L 352.422609 377.324392 
L 352.555675 377.965746 
L 352.588941 377.965746 
L 352.722007 375.790986 
L 352.755273 375.790986 
L 352.888339 374.450126 
L 352.921605 374.450126 
L 353.054671 374.821237 
L 353.087937 374.821237 
L 353.221003 375.777388 
L 353.254269 375.777388 
L 353.387335 376.247228 
L 353.420601 376.247228 
L 353.553667 376.00396 
L 353.586933 376.00396 
L 353.719999 375.325258 
L 353.753265 375.325258 
L 353.886331 374.476013 
L 353.919597 374.476013 
L 354.052663 370.554327 
L 354.085929 370.554327 
L 354.218995 367.327729 
L 354.252261 367.327729 
L 354.385327 368.429145 
L 354.418593 368.429145 
L 354.551659 374.197138 
L 354.584925 374.197138 
L 354.717991 373.172595 
L 354.751257 373.172595 
L 354.884323 368.21792 
L 354.917589 368.21792 
L 355.050655 367.767805 
L 355.083921 367.767805 
L 355.216987 370.906495 
L 355.250253 370.906495 
L 355.383319 371.667974 
L 355.416585 371.667974 
L 355.549651 369.765367 
L 355.582917 369.765367 
L 355.715983 368.996091 
L 355.749249 368.996091 
L 355.882315 370.090637 
L 355.915581 370.090637 
L 356.048647 370.766458 
L 356.081913 370.766458 
L 356.214979 370.247778 
L 356.248245 370.247778 
L 356.381311 369.806821 
L 356.414577 369.806821 
L 356.547643 370.078313 
L 356.580909 370.078313 
L 356.713975 370.36193 
L 356.747241 370.36193 
L 356.880307 370.157049 
L 356.913573 370.157049 
L 357.046639 369.343248 
L 357.079905 369.343248 
L 357.212971 373.352522 
L 357.246237 373.352522 
L 357.379303 371.028817 
L 357.412569 371.028817 
L 357.545635 367.350276 
L 357.578901 367.350276 
L 357.711967 365.510497 
L 357.745233 365.510497 
L 357.878299 369.042808 
L 357.911565 369.042808 
L 358.044631 370.331784 
L 358.077897 370.331784 
L 358.210963 368.083668 
L 358.244229 368.083668 
L 358.377295 366.986936 
L 358.410561 366.986936 
L 358.543627 368.472486 
L 358.576893 368.472486 
L 358.709959 369.701622 
L 358.743225 369.701622 
L 358.876291 368.936512 
L 358.909557 368.936512 
L 359.042623 362.114914 
L 359.075889 362.114914 
L 359.208955 374.670015 
L 359.242221 374.670015 
L 359.375287 374.823903 
L 359.408553 374.823903 
L 359.541619 366.31702 
L 359.574885 366.31702 
L 359.707951 364.557162 
L 359.741217 364.557162 
L 359.874283 370.821893 
L 359.907549 370.821893 
L 360.040615 372.547424 
L 360.073881 372.547424 
L 360.206947 367.912172 
L 360.240213 367.912172 
L 360.373279 365.879289 
L 360.406545 365.879289 
L 360.539611 368.85151 
L 360.572877 368.85151 
L 360.705943 370.609642 
L 360.739209 370.609642 
L 360.872275 368.683367 
L 360.905541 368.683367 
L 361.038607 367.110652 
L 361.071873 367.110652 
L 361.204939 368.153016 
L 361.238205 368.153016 
L 361.371271 369.289778 
L 361.404537 369.289778 
L 361.537603 368.653942 
L 361.570869 368.653942 
L 361.703935 367.74568 
L 361.737201 367.74568 
L 361.870267 368.028389 
L 361.903533 368.028389 
L 362.036599 368.644395 
L 362.069865 368.644395 
L 362.202931 368.491939 
L 362.236197 368.491939 
L 362.369263 368.0309 
L 362.568861 368.069233 
L 362.701927 368.383029 
L 362.901525 368.392192 
L 363.034591 368.183692 
L 363.234189 368.164331 
L 363.367255 368.319322 
L 381.697041 368.250536 
L 381.830107 368.148599 
L 381.863373 368.148599 
L 381.996439 368.323785 
L 382.196037 368.31466 
L 382.329103 368.191854 
L 470.817727 368.238931 
L 470.817727 368.238931 
" style="fill:none;stroke:#1f77b4;stroke-linecap:square;stroke-opacity:0.7;stroke-width:1.5;"/>
   </g>
   <g id="line2d_102">
    <path clip-path="url(#pfa10d20510)" d="M 311.172273 495.953636 
L 311.305338 368.390296 
L 312.835593 368.362018 
L 312.968658 368.69577 
L 313.001925 368.69577 
L 313.13499 369.612027 
L 313.168257 369.612027 
L 313.301322 368.884033 
L 313.334589 368.884033 
L 313.467654 366.083716 
L 313.500921 366.083716 
L 313.633986 365.579626 
L 313.667253 365.579626 
L 313.800318 366.562363 
L 313.833585 366.562363 
L 313.96665 366.685751 
L 313.999917 366.685751 
L 314.132982 364.852155 
L 314.166249 364.852155 
L 314.299314 363.070427 
L 314.498913 362.965926 
L 314.631978 363.736178 
L 314.665245 363.736178 
L 314.79831 363.964991 
L 314.997909 363.860488 
L 315.130974 364.801242 
L 315.164241 364.801242 
L 315.297306 367.203575 
L 315.330573 367.203575 
L 315.463638 369.278869 
L 315.496905 369.278869 
L 315.62997 369.423397 
L 315.663237 369.423397 
L 315.796302 368.751954 
L 315.829569 368.751954 
L 315.962634 368.558612 
L 315.995901 368.558612 
L 316.128966 368.93521 
L 316.162233 368.93521 
L 316.295298 369.212151 
L 316.328565 369.212151 
L 316.46163 369.020924 
L 316.494897 369.020924 
L 316.627962 368.694854 
L 316.827561 368.681296 
L 316.960626 368.940372 
L 316.993893 368.940372 
L 317.126958 369.07622 
L 317.160225 369.07622 
L 317.29329 368.925182 
L 317.326557 368.925182 
L 317.459622 368.733902 
L 317.659221 368.76006 
L 317.792286 368.916324 
L 317.991885 368.944337 
L 318.12495 368.80139 
L 318.158217 368.80139 
L 318.291282 368.685441 
L 318.490881 368.721184 
L 318.623946 368.800045 
L 318.823545 368.769528 
L 318.95661 368.654965 
L 319.821537 368.558316 
L 320.021135 368.495277 
L 320.320533 368.412346 
L 320.453598 368.264096 
L 320.486865 368.264096 
L 320.61993 368.108687 
L 321.318525 368.209735 
L 321.45159 368.373333 
L 321.484857 368.373333 
L 321.617922 368.495811 
L 322.150185 368.438207 
L 322.28325 368.361021 
L 322.815513 368.255178 
L 323.015111 368.258612 
L 323.314509 368.313793 
L 323.447574 368.370326 
L 336.621069 368.259477 
L 345.370132 368.239944 
L 351.258285 368.237209 
L 351.391351 342.235786 
L 351.424617 342.235786 
L 351.557683 351.097145 
L 351.590949 351.097145 
L 351.724015 354.037436 
L 351.757281 354.037436 
L 351.890347 355.919898 
L 351.923613 355.919898 
L 352.056679 358.075072 
L 352.089945 358.075072 
L 352.223011 359.076681 
L 352.256277 359.076681 
L 352.389343 362.553017 
L 352.422609 362.553017 
L 352.555675 365.258997 
L 352.588941 365.258997 
L 352.722007 363.196454 
L 352.755273 363.196454 
L 352.888339 364.908811 
L 352.921605 364.908811 
L 353.054671 367.800055 
L 353.087937 367.800055 
L 353.221003 369.699836 
L 353.254269 369.699836 
L 353.387335 371.65018 
L 353.420601 371.65018 
L 353.553667 374.395494 
L 353.586933 374.395494 
L 353.719999 376.092359 
L 353.753265 376.092359 
L 353.886331 376.837908 
L 353.919597 376.837908 
L 354.052663 377.011842 
L 354.085929 377.011842 
L 354.218995 376.417744 
L 354.252261 376.417744 
L 354.385327 374.744269 
L 354.418593 374.744269 
L 354.551659 371.555856 
L 354.584925 371.555856 
L 354.717991 368.08412 
L 354.751257 368.08412 
L 354.884323 365.365125 
L 354.917589 365.365125 
L 355.050655 361.924358 
L 355.083921 361.924358 
L 355.216987 357.578357 
L 355.250253 357.578357 
L 355.383319 356.442222 
L 355.416585 356.442222 
L 355.549651 362.359917 
L 355.582917 362.359917 
L 355.715983 363.82128 
L 355.749249 363.82128 
L 355.882315 363.480312 
L 355.915581 363.480312 
L 356.048647 364.107716 
L 356.081913 364.107716 
L 356.214979 365.324275 
L 356.248245 365.324275 
L 356.381311 367.047128 
L 356.414577 367.047128 
L 356.547643 369.021402 
L 356.580909 369.021402 
L 356.713975 370.700181 
L 356.747241 370.700181 
L 356.880307 371.43251 
L 356.913573 371.43251 
L 357.046639 372.040457 
L 357.079905 372.040457 
L 357.212971 373.029194 
L 357.246237 373.029194 
L 357.379303 374.456634 
L 357.412569 374.456634 
L 357.545635 376.140294 
L 357.578901 376.140294 
L 357.711967 377.086819 
L 357.745233 377.086819 
L 357.878299 376.526892 
L 357.911565 376.526892 
L 358.044631 375.048261 
L 358.077897 375.048261 
L 358.210963 372.551868 
L 358.244229 372.551868 
L 358.377295 369.135555 
L 358.410561 369.135555 
L 358.543627 367.435207 
L 358.576893 367.435207 
L 358.709959 364.582908 
L 358.743225 364.582908 
L 358.876291 359.195106 
L 358.909557 359.195106 
L 359.042623 355.407763 
L 359.075889 355.407763 
L 359.208955 356.308311 
L 359.242221 356.308311 
L 359.375287 359.633827 
L 359.408553 359.633827 
L 359.541619 363.50003 
L 359.574885 363.50003 
L 359.707951 366.350294 
L 359.741217 366.350294 
L 359.874283 367.301318 
L 359.907549 367.301318 
L 360.040615 367.456884 
L 360.073881 367.456884 
L 360.206947 367.837629 
L 360.240213 367.837629 
L 360.373279 368.300352 
L 360.406545 368.300352 
L 360.539611 368.518805 
L 360.905541 368.603197 
L 361.038607 368.658106 
L 361.071873 368.658106 
L 361.204939 368.495922 
L 361.238205 368.495922 
L 361.371271 367.966219 
L 361.570869 367.921089 
L 361.703935 368.671404 
L 361.737201 368.671404 
L 361.870267 369.222323 
L 362.069865 369.19167 
L 362.202931 368.851453 
L 362.236197 368.851453 
L 362.369263 368.639073 
L 362.568861 368.687234 
L 362.701927 368.837906 
L 362.901525 368.806802 
L 363.034591 368.470996 
L 363.067857 368.470996 
L 363.200923 368.039947 
L 363.234189 368.039947 
L 363.367255 367.712519 
L 363.566853 367.614236 
L 363.699919 367.894708 
L 363.733185 367.894708 
L 363.866251 368.660087 
L 363.899517 368.660087 
L 364.032583 369.42464 
L 364.232181 369.331555 
L 364.365247 368.97616 
L 364.398513 368.97616 
L 364.531579 368.860387 
L 365.729169 368.799387 
L 365.862235 368.694633 
L 366.061833 368.598881 
L 366.194899 368.490155 
L 368.723145 368.443833 
L 368.856211 368.367269 
L 368.889477 368.367269 
L 369.022543 368.23681 
L 369.055809 368.23681 
L 369.188875 368.04878 
L 369.222141 368.04878 
L 369.355207 367.794145 
L 369.388473 367.794145 
L 369.521539 367.451863 
L 369.554805 367.451863 
L 369.687871 367.028695 
L 369.721137 367.028695 
L 369.854203 366.734178 
L 370.053801 366.776164 
L 370.186867 367.275738 
L 370.220133 367.275738 
L 370.353199 368.068106 
L 370.386465 368.068106 
L 370.519531 368.633626 
L 370.719129 368.552348 
L 370.852195 368.391615 
L 371.051793 368.427818 
L 371.184859 368.513587 
L 371.550789 368.416292 
L 371.717121 368.396047 
L 371.916719 368.448096 
L 373.713105 368.354377 
L 373.912703 368.245271 
L 374.378433 368.141422 
L 374.578032 368.052567 
L 375.542757 368.152902 
L 375.709089 368.20027 
L 375.908688 368.258542 
L 470.817727 368.238943 
L 470.817727 368.238943 
" style="fill:none;stroke:#d62728;stroke-linecap:square;stroke-opacity:0.7;stroke-width:1.5;"/>
   </g>
   <g id="patch_18">
    <path d="M 303.19 505.24 
L 303.19 300.94 
" style="fill:none;stroke:#000000;stroke-linecap:square;stroke-linejoin:miter;stroke-width:0.8;"/>
   </g>
   <g id="patch_19">
    <path d="M 478.8 505.24 
L 478.8 300.94 
" style="fill:none;stroke:#000000;stroke-linecap:square;stroke-linejoin:miter;stroke-width:0.8;"/>
   </g>
   <g id="patch_20">
    <path d="M 303.19 505.24 
L 478.8 505.24 
" style="fill:none;stroke:#000000;stroke-linecap:square;stroke-linejoin:miter;stroke-width:0.8;"/>
   </g>
   <g id="patch_21">
    <path d="M 303.19 300.94 
L 478.8 300.94 
" style="fill:none;stroke:#000000;stroke-linecap:square;stroke-linejoin:miter;stroke-width:0.8;"/>
   </g>
   <g id="text_45">
    <!-- RPM3 (rpm) -->
    <g transform="translate(355.505 294.94)scale(0.12 -0.12)">
     <defs>
      <path d="M 2597 2516 
Q 3050 2419 3304 2112 
Q 3559 1806 3559 1356 
Q 3559 666 3084 287 
Q 2609 -91 1734 -91 
Q 1441 -91 1130 -33 
Q 819 25 488 141 
L 488 750 
Q 750 597 1062 519 
Q 1375 441 1716 441 
Q 2309 441 2620 675 
Q 2931 909 2931 1356 
Q 2931 1769 2642 2001 
Q 2353 2234 1838 2234 
L 1294 2234 
L 1294 2753 
L 1863 2753 
Q 2328 2753 2575 2939 
Q 2822 3125 2822 3475 
Q 2822 3834 2567 4026 
Q 2313 4219 1838 4219 
Q 1578 4219 1281 4162 
Q 984 4106 628 3988 
L 628 4550 
Q 988 4650 1302 4700 
Q 1616 4750 1894 4750 
Q 2613 4750 3031 4423 
Q 3450 4097 3450 3541 
Q 3450 3153 3228 2886 
Q 3006 2619 2597 2516 
z
" id="DejaVuSans-33" transform="scale(0.015625)"/>
     </defs>
     <use xlink:href="#DejaVuSans-52"/>
     <use x="69.482422" xlink:href="#DejaVuSans-50"/>
     <use x="129.785156" xlink:href="#DejaVuSans-4d"/>
     <use x="216.064453" xlink:href="#DejaVuSans-33"/>
     <use x="279.6875" xlink:href="#DejaVuSans-20"/>
     <use x="311.474609" xlink:href="#DejaVuSans-28"/>
     <use x="350.488281" xlink:href="#DejaVuSans-72"/>
     <use x="391.601562" xlink:href="#DejaVuSans-70"/>
     <use x="455.078125" xlink:href="#DejaVuSans-6d"/>
     <use x="552.490234" xlink:href="#DejaVuSans-29"/>
    </g>
   </g>
  </g>
  <g id="legend_1">
   <g id="patch_22">
    <path d="M 488.398438 304.178125 
L 569 304.178125 
Q 571 304.178125 571 302.178125 
L 571 273.821875 
Q 571 271.821875 569 271.821875 
L 488.398438 271.821875 
Q 486.398438 271.821875 486.398438 273.821875 
L 486.398438 302.178125 
Q 486.398438 304.178125 488.398438 304.178125 
z
" style="fill:#ffffff;opacity:0.8;stroke:#cccccc;stroke-linejoin:miter;"/>
   </g>
   <g id="line2d_103">
    <path d="M 490.398438 279.920313 
L 510.398438 279.920313 
" style="fill:none;stroke:#1f77b4;stroke-linecap:square;stroke-opacity:0.7;stroke-width:1.5;"/>
   </g>
   <g id="line2d_104"/>
   <g id="text_46">
    <!-- DSLPID -->
    <g transform="translate(518.398438 283.420313)scale(0.1 -0.1)">
     <defs>
      <path d="M 1259 4147 
L 1259 519 
L 2022 519 
Q 2988 519 3436 956 
Q 3884 1394 3884 2338 
Q 3884 3275 3436 3711 
Q 2988 4147 2022 4147 
L 1259 4147 
z
M 628 4666 
L 1925 4666 
Q 3281 4666 3915 4102 
Q 4550 3538 4550 2338 
Q 4550 1131 3912 565 
Q 3275 0 1925 0 
L 628 0 
L 628 4666 
z
" id="DejaVuSans-44" transform="scale(0.015625)"/>
      <path d="M 3425 4513 
L 3425 3897 
Q 3066 4069 2747 4153 
Q 2428 4238 2131 4238 
Q 1616 4238 1336 4038 
Q 1056 3838 1056 3469 
Q 1056 3159 1242 3001 
Q 1428 2844 1947 2747 
L 2328 2669 
Q 3034 2534 3370 2195 
Q 3706 1856 3706 1288 
Q 3706 609 3251 259 
Q 2797 -91 1919 -91 
Q 1588 -91 1214 -16 
Q 841 59 441 206 
L 441 856 
Q 825 641 1194 531 
Q 1563 422 1919 422 
Q 2459 422 2753 634 
Q 3047 847 3047 1241 
Q 3047 1584 2836 1778 
Q 2625 1972 2144 2069 
L 1759 2144 
Q 1053 2284 737 2584 
Q 422 2884 422 3419 
Q 422 4038 858 4394 
Q 1294 4750 2059 4750 
Q 2388 4750 2728 4690 
Q 3069 4631 3425 4513 
z
" id="DejaVuSans-53" transform="scale(0.015625)"/>
      <path d="M 628 4666 
L 1259 4666 
L 1259 531 
L 3531 531 
L 3531 0 
L 628 0 
L 628 4666 
z
" id="DejaVuSans-4c" transform="scale(0.015625)"/>
      <path d="M 628 4666 
L 1259 4666 
L 1259 0 
L 628 0 
L 628 4666 
z
" id="DejaVuSans-49" transform="scale(0.015625)"/>
     </defs>
     <use xlink:href="#DejaVuSans-44"/>
     <use x="77.001953" xlink:href="#DejaVuSans-53"/>
     <use x="140.478516" xlink:href="#DejaVuSans-4c"/>
     <use x="196.191406" xlink:href="#DejaVuSans-50"/>
     <use x="256.494141" xlink:href="#DejaVuSans-49"/>
     <use x="285.986328" xlink:href="#DejaVuSans-44"/>
    </g>
   </g>
   <g id="line2d_105">
    <path d="M 490.398438 294.598438 
L 510.398438 294.598438 
" style="fill:none;stroke:#d62728;stroke-linecap:square;stroke-opacity:0.7;stroke-width:1.5;"/>
   </g>
   <g id="line2d_106"/>
   <g id="text_47">
    <!-- LSTMCNN -->
    <g transform="translate(518.398438 298.098438)scale(0.1 -0.1)">
     <defs>
      <path d="M 4122 4306 
L 4122 3641 
Q 3803 3938 3442 4084 
Q 3081 4231 2675 4231 
Q 1875 4231 1450 3742 
Q 1025 3253 1025 2328 
Q 1025 1406 1450 917 
Q 1875 428 2675 428 
Q 3081 428 3442 575 
Q 3803 722 4122 1019 
L 4122 359 
Q 3791 134 3420 21 
Q 3050 -91 2638 -91 
Q 1578 -91 968 557 
Q 359 1206 359 2328 
Q 359 3453 968 4101 
Q 1578 4750 2638 4750 
Q 3056 4750 3426 4639 
Q 3797 4528 4122 4306 
z
" id="DejaVuSans-43" transform="scale(0.015625)"/>
      <path d="M 628 4666 
L 1478 4666 
L 3547 763 
L 3547 4666 
L 4159 4666 
L 4159 0 
L 3309 0 
L 1241 3903 
L 1241 0 
L 628 0 
L 628 4666 
z
" id="DejaVuSans-4e" transform="scale(0.015625)"/>
     </defs>
     <use xlink:href="#DejaVuSans-4c"/>
     <use x="55.712891" xlink:href="#DejaVuSans-53"/>
     <use x="119.189453" xlink:href="#DejaVuSans-54"/>
     <use x="180.273438" xlink:href="#DejaVuSans-4d"/>
     <use x="266.552734" xlink:href="#DejaVuSans-43"/>
     <use x="336.376953" xlink:href="#DejaVuSans-4e"/>
     <use x="411.181641" xlink:href="#DejaVuSans-4e"/>
    </g>
   </g>
  </g>
 </g>
 <defs>
  <clipPath id="p64c7251cb7">
   <rect height="204.3" width="175.61" x="78.19" y="55.68"/>
  </clipPath>
  <clipPath id="pf2e747dd45">
   <rect height="204.3" width="175.61" x="303.19" y="55.68"/>
  </clipPath>
  <clipPath id="p97e75e8bbf">
   <rect height="204.3" width="175.61" x="78.19" y="300.94"/>
  </clipPath>
  <clipPath id="pfa10d20510">
   <rect height="204.3" width="175.61" x="303.19" y="300.94"/>
  </clipPath>
 </defs>
</svg>
