<?xml version="1.0" encoding="utf-8" standalone="no"?>
<!DOCTYPE svg PUBLIC "-//W3C//DTD SVG 1.1//EN"
  "http://www.w3.org/Graphics/SVG/1.1/DTD/svg11.dtd">
<svg height="576pt" version="1.1" viewBox="0 0 576 576" width="576pt" xmlns="http://www.w3.org/2000/svg" xmlns:xlink="http://www.w3.org/1999/xlink">
 <metadata>
  <rdf:RDF xmlns:cc="http://creativecommons.org/ns#" xmlns:dc="http://purl.org/dc/elements/1.1/" xmlns:rdf="http://www.w3.org/1999/02/22-rdf-syntax-ns#">
   <cc:Work>
    <dc:type rdf:resource="http://purl.org/dc/dcmitype/StillImage"/>
    <dc:date>2022-02-27T20:52:22.599865</dc:date>
    <dc:format>image/svg+xml</dc:format>
    <dc:creator>
     <cc:Agent>
      <dc:title>Matplotlib v3.4.3, https://matplotlib.org/</dc:title>
     </cc:Agent>
    </dc:creator>
   </cc:Work>
  </rdf:RDF>
 </metadata>
 <defs>
  <style type="text/css">*{stroke-linecap:butt;stroke-linejoin:round;}</style>
 </defs>
 <g id="figure_1">
  <g id="patch_1">
   <path d="M 0 576 
L 576 576 
L 576 0 
L 0 0 
z
" style="fill:#ffffff;"/>
  </g>
  <g id="axes_1">
   <g id="patch_2">
    <path d="M 65.59 259.26 
L 253.8 259.26 
L 253.8 55.68 
L 65.59 55.68 
z
" style="fill:#ffffff;"/>
   </g>
   <g id="matplotlib.axis_1">
    <g id="xtick_1">
     <g id="line2d_1">
      <path clip-path="url(#p9a28db05e1)" d="M 74.145 259.26 
L 74.145 55.68 
" style="fill:none;stroke:#b0b0b0;stroke-linecap:square;stroke-width:0.8;"/>
     </g>
     <g id="line2d_2">
      <defs>
       <path d="M 0 0 
L 0 3.5 
" id="ma0fb4e7426" style="stroke:#000000;stroke-width:0.8;"/>
      </defs>
      <g>
       <use style="stroke:#000000;stroke-width:0.8;" x="74.145" xlink:href="#ma0fb4e7426" y="259.26"/>
      </g>
     </g>
    </g>
    <g id="xtick_2">
     <g id="line2d_3">
      <path clip-path="url(#p9a28db05e1)" d="M 116.928913 259.26 
L 116.928913 55.68 
" style="fill:none;stroke:#b0b0b0;stroke-linecap:square;stroke-width:0.8;"/>
     </g>
     <g id="line2d_4">
      <g>
       <use style="stroke:#000000;stroke-width:0.8;" x="116.928913" xlink:href="#ma0fb4e7426" y="259.26"/>
      </g>
     </g>
    </g>
    <g id="xtick_3">
     <g id="line2d_5">
      <path clip-path="url(#p9a28db05e1)" d="M 159.712827 259.26 
L 159.712827 55.68 
" style="fill:none;stroke:#b0b0b0;stroke-linecap:square;stroke-width:0.8;"/>
     </g>
     <g id="line2d_6">
      <g>
       <use style="stroke:#000000;stroke-width:0.8;" x="159.712827" xlink:href="#ma0fb4e7426" y="259.26"/>
      </g>
     </g>
    </g>
    <g id="xtick_4">
     <g id="line2d_7">
      <path clip-path="url(#p9a28db05e1)" d="M 202.49674 259.26 
L 202.49674 55.68 
" style="fill:none;stroke:#b0b0b0;stroke-linecap:square;stroke-width:0.8;"/>
     </g>
     <g id="line2d_8">
      <g>
       <use style="stroke:#000000;stroke-width:0.8;" x="202.49674" xlink:href="#ma0fb4e7426" y="259.26"/>
      </g>
     </g>
    </g>
    <g id="xtick_5">
     <g id="line2d_9">
      <path clip-path="url(#p9a28db05e1)" d="M 245.280653 259.26 
L 245.280653 55.68 
" style="fill:none;stroke:#b0b0b0;stroke-linecap:square;stroke-width:0.8;"/>
     </g>
     <g id="line2d_10">
      <g>
       <use style="stroke:#000000;stroke-width:0.8;" x="245.280653" xlink:href="#ma0fb4e7426" y="259.26"/>
      </g>
     </g>
    </g>
    <g id="text_1">
     <!-- Tiempo (s) -->
     <g transform="translate(133.1325 270.858438)scale(0.1 -0.1)">
      <defs>
       <path d="M -19 4666 
L 3928 4666 
L 3928 4134 
L 2272 4134 
L 2272 0 
L 1638 0 
L 1638 4134 
L -19 4134 
L -19 4666 
z
" id="DejaVuSans-54" transform="scale(0.015625)"/>
       <path d="M 603 3500 
L 1178 3500 
L 1178 0 
L 603 0 
L 603 3500 
z
M 603 4863 
L 1178 4863 
L 1178 4134 
L 603 4134 
L 603 4863 
z
" id="DejaVuSans-69" transform="scale(0.015625)"/>
       <path d="M 3597 1894 
L 3597 1613 
L 953 1613 
Q 991 1019 1311 708 
Q 1631 397 2203 397 
Q 2534 397 2845 478 
Q 3156 559 3463 722 
L 3463 178 
Q 3153 47 2828 -22 
Q 2503 -91 2169 -91 
Q 1331 -91 842 396 
Q 353 884 353 1716 
Q 353 2575 817 3079 
Q 1281 3584 2069 3584 
Q 2775 3584 3186 3129 
Q 3597 2675 3597 1894 
z
M 3022 2063 
Q 3016 2534 2758 2815 
Q 2500 3097 2075 3097 
Q 1594 3097 1305 2825 
Q 1016 2553 972 2059 
L 3022 2063 
z
" id="DejaVuSans-65" transform="scale(0.015625)"/>
       <path d="M 3328 2828 
Q 3544 3216 3844 3400 
Q 4144 3584 4550 3584 
Q 5097 3584 5394 3201 
Q 5691 2819 5691 2113 
L 5691 0 
L 5113 0 
L 5113 2094 
Q 5113 2597 4934 2840 
Q 4756 3084 4391 3084 
Q 3944 3084 3684 2787 
Q 3425 2491 3425 1978 
L 3425 0 
L 2847 0 
L 2847 2094 
Q 2847 2600 2669 2842 
Q 2491 3084 2119 3084 
Q 1678 3084 1418 2786 
Q 1159 2488 1159 1978 
L 1159 0 
L 581 0 
L 581 3500 
L 1159 3500 
L 1159 2956 
Q 1356 3278 1631 3431 
Q 1906 3584 2284 3584 
Q 2666 3584 2933 3390 
Q 3200 3197 3328 2828 
z
" id="DejaVuSans-6d" transform="scale(0.015625)"/>
       <path d="M 1159 525 
L 1159 -1331 
L 581 -1331 
L 581 3500 
L 1159 3500 
L 1159 2969 
Q 1341 3281 1617 3432 
Q 1894 3584 2278 3584 
Q 2916 3584 3314 3078 
Q 3713 2572 3713 1747 
Q 3713 922 3314 415 
Q 2916 -91 2278 -91 
Q 1894 -91 1617 61 
Q 1341 213 1159 525 
z
M 3116 1747 
Q 3116 2381 2855 2742 
Q 2594 3103 2138 3103 
Q 1681 3103 1420 2742 
Q 1159 2381 1159 1747 
Q 1159 1113 1420 752 
Q 1681 391 2138 391 
Q 2594 391 2855 752 
Q 3116 1113 3116 1747 
z
" id="DejaVuSans-70" transform="scale(0.015625)"/>
       <path d="M 1959 3097 
Q 1497 3097 1228 2736 
Q 959 2375 959 1747 
Q 959 1119 1226 758 
Q 1494 397 1959 397 
Q 2419 397 2687 759 
Q 2956 1122 2956 1747 
Q 2956 2369 2687 2733 
Q 2419 3097 1959 3097 
z
M 1959 3584 
Q 2709 3584 3137 3096 
Q 3566 2609 3566 1747 
Q 3566 888 3137 398 
Q 2709 -91 1959 -91 
Q 1206 -91 779 398 
Q 353 888 353 1747 
Q 353 2609 779 3096 
Q 1206 3584 1959 3584 
z
" id="DejaVuSans-6f" transform="scale(0.015625)"/>
       <path id="DejaVuSans-20" transform="scale(0.015625)"/>
       <path d="M 1984 4856 
Q 1566 4138 1362 3434 
Q 1159 2731 1159 2009 
Q 1159 1288 1364 580 
Q 1569 -128 1984 -844 
L 1484 -844 
Q 1016 -109 783 600 
Q 550 1309 550 2009 
Q 550 2706 781 3412 
Q 1013 4119 1484 4856 
L 1984 4856 
z
" id="DejaVuSans-28" transform="scale(0.015625)"/>
       <path d="M 2834 3397 
L 2834 2853 
Q 2591 2978 2328 3040 
Q 2066 3103 1784 3103 
Q 1356 3103 1142 2972 
Q 928 2841 928 2578 
Q 928 2378 1081 2264 
Q 1234 2150 1697 2047 
L 1894 2003 
Q 2506 1872 2764 1633 
Q 3022 1394 3022 966 
Q 3022 478 2636 193 
Q 2250 -91 1575 -91 
Q 1294 -91 989 -36 
Q 684 19 347 128 
L 347 722 
Q 666 556 975 473 
Q 1284 391 1588 391 
Q 1994 391 2212 530 
Q 2431 669 2431 922 
Q 2431 1156 2273 1281 
Q 2116 1406 1581 1522 
L 1381 1569 
Q 847 1681 609 1914 
Q 372 2147 372 2553 
Q 372 3047 722 3315 
Q 1072 3584 1716 3584 
Q 2034 3584 2315 3537 
Q 2597 3491 2834 3397 
z
" id="DejaVuSans-73" transform="scale(0.015625)"/>
       <path d="M 513 4856 
L 1013 4856 
Q 1481 4119 1714 3412 
Q 1947 2706 1947 2009 
Q 1947 1309 1714 600 
Q 1481 -109 1013 -844 
L 513 -844 
Q 928 -128 1133 580 
Q 1338 1288 1338 2009 
Q 1338 2731 1133 3434 
Q 928 4138 513 4856 
z
" id="DejaVuSans-29" transform="scale(0.015625)"/>
      </defs>
      <use xlink:href="#DejaVuSans-54"/>
      <use x="57.958984" xlink:href="#DejaVuSans-69"/>
      <use x="85.742188" xlink:href="#DejaVuSans-65"/>
      <use x="147.265625" xlink:href="#DejaVuSans-6d"/>
      <use x="244.677734" xlink:href="#DejaVuSans-70"/>
      <use x="308.154297" xlink:href="#DejaVuSans-6f"/>
      <use x="369.335938" xlink:href="#DejaVuSans-20"/>
      <use x="401.123047" xlink:href="#DejaVuSans-28"/>
      <use x="440.136719" xlink:href="#DejaVuSans-73"/>
      <use x="492.236328" xlink:href="#DejaVuSans-29"/>
     </g>
    </g>
   </g>
   <g id="matplotlib.axis_2">
    <g id="ytick_1">
     <g id="line2d_11">
      <path clip-path="url(#p9a28db05e1)" d="M 65.59 250.006364 
L 253.8 250.006364 
" style="fill:none;stroke:#b0b0b0;stroke-linecap:square;stroke-width:0.8;"/>
     </g>
     <g id="line2d_12">
      <defs>
       <path d="M 0 0 
L -3.5 0 
" id="mbbd4961f31" style="stroke:#000000;stroke-width:0.8;"/>
      </defs>
      <g>
       <use style="stroke:#000000;stroke-width:0.8;" x="65.59" xlink:href="#mbbd4961f31" y="250.006364"/>
      </g>
     </g>
     <g id="text_2">
      <!-- 0 -->
      <g transform="translate(52.2275 253.805582)scale(0.1 -0.1)">
       <defs>
        <path d="M 2034 4250 
Q 1547 4250 1301 3770 
Q 1056 3291 1056 2328 
Q 1056 1369 1301 889 
Q 1547 409 2034 409 
Q 2525 409 2770 889 
Q 3016 1369 3016 2328 
Q 3016 3291 2770 3770 
Q 2525 4250 2034 4250 
z
M 2034 4750 
Q 2819 4750 3233 4129 
Q 3647 3509 3647 2328 
Q 3647 1150 3233 529 
Q 2819 -91 2034 -91 
Q 1250 -91 836 529 
Q 422 1150 422 2328 
Q 422 3509 836 4129 
Q 1250 4750 2034 4750 
z
" id="DejaVuSans-30" transform="scale(0.015625)"/>
       </defs>
       <use xlink:href="#DejaVuSans-30"/>
      </g>
     </g>
    </g>
    <g id="ytick_2">
     <g id="line2d_13">
      <path clip-path="url(#p9a28db05e1)" d="M 65.59 208.597944 
L 253.8 208.597944 
" style="fill:none;stroke:#b0b0b0;stroke-linecap:square;stroke-width:0.8;"/>
     </g>
     <g id="line2d_14">
      <g>
       <use style="stroke:#000000;stroke-width:0.8;" x="65.59" xlink:href="#mbbd4961f31" y="208.597944"/>
      </g>
     </g>
     <g id="text_3">
      <!-- 10 -->
      <g transform="translate(45.865 212.397163)scale(0.1 -0.1)">
       <defs>
        <path d="M 794 531 
L 1825 531 
L 1825 4091 
L 703 3866 
L 703 4441 
L 1819 4666 
L 2450 4666 
L 2450 531 
L 3481 531 
L 3481 0 
L 794 0 
L 794 531 
z
" id="DejaVuSans-31" transform="scale(0.015625)"/>
       </defs>
       <use xlink:href="#DejaVuSans-31"/>
       <use x="63.623047" xlink:href="#DejaVuSans-30"/>
      </g>
     </g>
    </g>
    <g id="ytick_3">
     <g id="line2d_15">
      <path clip-path="url(#p9a28db05e1)" d="M 65.59 167.189525 
L 253.8 167.189525 
" style="fill:none;stroke:#b0b0b0;stroke-linecap:square;stroke-width:0.8;"/>
     </g>
     <g id="line2d_16">
      <g>
       <use style="stroke:#000000;stroke-width:0.8;" x="65.59" xlink:href="#mbbd4961f31" y="167.189525"/>
      </g>
     </g>
     <g id="text_4">
      <!-- 20 -->
      <g transform="translate(45.865 170.988744)scale(0.1 -0.1)">
       <defs>
        <path d="M 1228 531 
L 3431 531 
L 3431 0 
L 469 0 
L 469 531 
Q 828 903 1448 1529 
Q 2069 2156 2228 2338 
Q 2531 2678 2651 2914 
Q 2772 3150 2772 3378 
Q 2772 3750 2511 3984 
Q 2250 4219 1831 4219 
Q 1534 4219 1204 4116 
Q 875 4013 500 3803 
L 500 4441 
Q 881 4594 1212 4672 
Q 1544 4750 1819 4750 
Q 2544 4750 2975 4387 
Q 3406 4025 3406 3419 
Q 3406 3131 3298 2873 
Q 3191 2616 2906 2266 
Q 2828 2175 2409 1742 
Q 1991 1309 1228 531 
z
" id="DejaVuSans-32" transform="scale(0.015625)"/>
       </defs>
       <use xlink:href="#DejaVuSans-32"/>
       <use x="63.623047" xlink:href="#DejaVuSans-30"/>
      </g>
     </g>
    </g>
    <g id="ytick_4">
     <g id="line2d_17">
      <path clip-path="url(#p9a28db05e1)" d="M 65.59 125.781106 
L 253.8 125.781106 
" style="fill:none;stroke:#b0b0b0;stroke-linecap:square;stroke-width:0.8;"/>
     </g>
     <g id="line2d_18">
      <g>
       <use style="stroke:#000000;stroke-width:0.8;" x="65.59" xlink:href="#mbbd4961f31" y="125.781106"/>
      </g>
     </g>
     <g id="text_5">
      <!-- 30 -->
      <g transform="translate(45.865 129.580325)scale(0.1 -0.1)">
       <defs>
        <path d="M 2597 2516 
Q 3050 2419 3304 2112 
Q 3559 1806 3559 1356 
Q 3559 666 3084 287 
Q 2609 -91 1734 -91 
Q 1441 -91 1130 -33 
Q 819 25 488 141 
L 488 750 
Q 750 597 1062 519 
Q 1375 441 1716 441 
Q 2309 441 2620 675 
Q 2931 909 2931 1356 
Q 2931 1769 2642 2001 
Q 2353 2234 1838 2234 
L 1294 2234 
L 1294 2753 
L 1863 2753 
Q 2328 2753 2575 2939 
Q 2822 3125 2822 3475 
Q 2822 3834 2567 4026 
Q 2313 4219 1838 4219 
Q 1578 4219 1281 4162 
Q 984 4106 628 3988 
L 628 4550 
Q 988 4650 1302 4700 
Q 1616 4750 1894 4750 
Q 2613 4750 3031 4423 
Q 3450 4097 3450 3541 
Q 3450 3153 3228 2886 
Q 3006 2619 2597 2516 
z
" id="DejaVuSans-33" transform="scale(0.015625)"/>
       </defs>
       <use xlink:href="#DejaVuSans-33"/>
       <use x="63.623047" xlink:href="#DejaVuSans-30"/>
      </g>
     </g>
    </g>
    <g id="ytick_5">
     <g id="line2d_19">
      <path clip-path="url(#p9a28db05e1)" d="M 65.59 84.372686 
L 253.8 84.372686 
" style="fill:none;stroke:#b0b0b0;stroke-linecap:square;stroke-width:0.8;"/>
     </g>
     <g id="line2d_20">
      <g>
       <use style="stroke:#000000;stroke-width:0.8;" x="65.59" xlink:href="#mbbd4961f31" y="84.372686"/>
      </g>
     </g>
     <g id="text_6">
      <!-- 40 -->
      <g transform="translate(45.865 88.171905)scale(0.1 -0.1)">
       <defs>
        <path d="M 2419 4116 
L 825 1625 
L 2419 1625 
L 2419 4116 
z
M 2253 4666 
L 3047 4666 
L 3047 1625 
L 3713 1625 
L 3713 1100 
L 3047 1100 
L 3047 0 
L 2419 0 
L 2419 1100 
L 313 1100 
L 313 1709 
L 2253 4666 
z
" id="DejaVuSans-34" transform="scale(0.015625)"/>
       </defs>
       <use xlink:href="#DejaVuSans-34"/>
       <use x="63.623047" xlink:href="#DejaVuSans-30"/>
      </g>
     </g>
    </g>
   </g>
   <g id="line2d_21">
    <path clip-path="url(#p9a28db05e1)" d="M 74.145 250.006364 
L 117.071526 250.006364 
L 119.567255 222.274711 
L 120.529893 214.108803 
L 121.278611 209.46091 
L 121.956023 206.543755 
L 122.562129 204.837205 
L 123.132581 203.846655 
L 123.703033 203.285814 
L 124.309138 202.996537 
L 125.164817 202.861328 
L 127.517932 202.5871 
L 129.193635 202.382434 
L 130.191926 202.266554 
L 131.190218 201.920808 
L 132.438082 201.236312 
L 150.585592 190.021512 
L 155.969234 187.112368 
L 161.673756 184.284405 
L 167.520891 181.635349 
L 173.617598 179.118866 
L 179.963879 176.741936 
L 186.595385 174.497413 
L 193.547771 172.381029 
L 200.85669 170.390543 
L 208.557794 168.5251 
L 216.722391 166.777715 
L 225.421787 165.145487 
L 234.727288 163.628374 
L 244.745854 162.223597 
L 245.245 162.159192 
L 245.245 162.159192 
" style="fill:none;stroke:#1f77b4;stroke-linecap:square;stroke-opacity:0.7;stroke-width:1.5;"/>
   </g>
   <g id="line2d_22">
    <path clip-path="url(#p9a28db05e1)" d="M 74.145 250.006364 
L 78.280778 249.899333 
L 79.599949 249.629993 
L 80.776507 249.157623 
L 82.060024 248.385749 
L 85.340124 246.267726 
L 86.409722 245.939594 
L 87.621933 245.814454 
L 89.654169 245.624612 
L 90.688113 245.263957 
L 91.864671 244.59358 
L 94.360399 243.092843 
L 95.35869 242.79689 
L 96.463941 242.714541 
L 99.030976 242.569608 
L 100.064921 242.262834 
L 101.455398 241.582807 
L 103.095448 240.82989 
L 104.093739 240.61606 
L 108.90693 240.051646 
L 110.154794 239.506183 
L 111.937457 238.746591 
L 112.935748 238.578484 
L 114.896677 238.373884 
L 116.394114 238.254613 
L 117.071526 238.151406 
L 119.495948 211.812976 
L 120.529893 202.906335 
L 121.349918 197.626623 
L 122.062983 194.364995 
L 122.704742 192.364204 
L 123.3465 191.064614 
L 123.988259 190.257735 
L 124.736977 189.675887 
L 127.981424 187.524977 
L 129.371901 186.577461 
L 130.263233 186.232082 
L 131.225871 186.103488 
L 134.541624 185.865869 
L 152.154335 182.968747 
L 155.220516 182.50051 
L 160.639811 181.505167 
L 163.13554 181.031092 
L 165.595615 180.6089 
L 169.874006 179.998725 
L 177.432497 178.914671 
L 181.390009 178.312419 
L 185.062295 177.62807 
L 188.698928 177.174822 
L 191.444229 176.737281 
L 195.900887 176.22574 
L 200.571464 175.485503 
L 203.245458 175.009862 
L 205.56292 174.667416 
L 209.734352 174.156151 
L 222.997365 172.09963 
L 226.598344 171.482982 
L 230.128017 170.903386 
L 234.156836 170.1775 
L 237.401283 169.653718 
L 240.610076 169.127295 
L 244.638895 168.499779 
L 245.245 168.390353 
L 245.245 168.390353 
" style="fill:none;stroke:#d62728;stroke-linecap:square;stroke-opacity:0.7;stroke-width:1.5;"/>
   </g>
   <g id="line2d_23">
    <path clip-path="url(#p9a28db05e1)" d="M 74.145 250.006364 
L 77.246834 249.899166 
L 78.352085 249.599554 
L 81.311305 248.624401 
L 84.912285 248.067273 
L 86.160149 247.443346 
L 88.584571 245.903247 
L 96.749168 240.760315 
L 98.781403 239.757223 
L 103.951126 237.473259 
L 107.017307 235.509601 
L 110.689593 233.215106 
L 112.864442 232.141052 
L 115.074944 231.296088 
L 117.071526 230.661608 
L 119.709868 200.39409 
L 120.601199 192.793284 
L 121.314264 188.404017 
L 121.956023 185.718484 
L 122.526475 184.197889 
L 123.061274 183.353226 
L 123.596073 182.911588 
L 124.202179 182.713345 
L 126.769213 182.20227 
L 129.193635 181.142947 
L 130.762379 180.830638 
L 132.438082 179.980799 
L 133.543333 179.5852 
L 134.505971 179.480759 
L 135.646875 179.36535 
L 138.071297 179.053681 
L 139.247855 178.914363 
L 141.101824 178.423205 
L 143.526246 177.833767 
L 144.916723 177.729231 
L 146.342854 177.600613 
L 148.767275 177.105818 
L 155.398782 175.76785 
L 157.395365 175.556724 
L 159.891093 175.365981 
L 162.172902 175.134983 
L 163.563379 175.021957 
L 166.379986 174.480739 
L 169.767046 173.997815 
L 172.65496 173.781414 
L 178.359482 173.405643 
L 180.391718 173.166622 
L 182.210034 173.019962 
L 184.491843 172.528273 
L 188.021516 171.804028 
L 190.338978 171.580874 
L 197.148751 171.059682 
L 198.788801 170.900756 
L 200.393198 170.777175 
L 202.568046 170.329332 
L 205.955106 169.661924 
L 208.272568 169.460966 
L 214.939728 169.00854 
L 216.686738 168.842571 
L 218.291135 168.7206 
L 220.501637 168.274098 
L 223.71043 167.664225 
L 225.885279 167.498594 
L 232.552439 167.137305 
L 234.727288 166.88405 
L 236.581258 166.739507 
L 238.970026 166.244232 
L 241.85794 165.716098 
L 244.104096 165.555219 
L 245.245 165.522335 
L 245.245 165.522335 
" style="fill:none;stroke:#bcbd22;stroke-linecap:square;stroke-opacity:0.7;stroke-width:1.5;"/>
   </g>
   <g id="line2d_24">
    <path clip-path="url(#p9a28db05e1)" d="M 74.145 250.006364 
L 77.31814 249.897687 
L 78.316432 249.61066 
L 79.27907 249.097519 
L 80.526934 248.15671 
L 84.912285 244.64452 
L 93.647334 238.509349 
L 104.343312 231.079076 
L 117.071526 222.026403 
L 119.638561 195.245754 
L 120.601199 187.560885 
L 121.385571 182.910018 
L 122.098636 179.92683 
L 122.740395 178.125334 
L 123.3465 177.036457 
L 123.952606 176.383967 
L 124.630018 175.989141 
L 125.592656 175.72089 
L 128.516223 175.24297 
L 129.728434 175.100865 
L 130.619766 174.73697 
L 131.618057 174.072797 
L 132.937228 172.899732 
L 146.235894 160.150662 
L 162.565088 144.544922 
L 245.245 64.933636 
L 245.245 64.933636 
" style="fill:none;stroke:#2ca02c;stroke-linecap:square;stroke-opacity:0.7;stroke-width:1.5;"/>
   </g>
   <g id="line2d_25">
    <path clip-path="url(#p9a28db05e1)" d="M 74.145 250.006364 
L 77.53206 249.896012 
L 78.459045 249.624503 
L 79.207763 249.169473 
L 79.956482 248.441386 
L 80.776507 247.314536 
L 81.810451 245.483111 
L 84.840978 239.854228 
L 85.83927 238.601165 
L 86.944521 237.580306 
L 90.367234 234.684572 
L 91.864671 232.938224 
L 96.107409 227.78649 
L 98.603137 224.957752 
L 100.100574 222.857135 
L 102.418036 219.144692 
L 106.161628 213.253647 
L 108.942583 208.676272 
L 112.507909 202.786776 
L 114.575798 199.868543 
L 117.071526 196.374556 
L 119.745521 162.593419 
L 120.672506 153.764876 
L 121.456877 148.238049 
L 122.169943 144.690682 
L 122.847355 142.36721 
L 123.596073 140.574762 
L 124.915244 138.137401 
L 126.483987 135.038682 
L 128.052731 132.028879 
L 128.872756 130.904922 
L 129.550168 130.313623 
L 130.191926 130.036374 
L 132.545042 129.398741 
L 136.823433 127.236922 
L 138.142604 126.254916 
L 141.280091 123.764873 
L 142.171422 123.44639 
L 143.098407 123.3656 
L 144.203658 123.197381 
L 146.3072 122.829121 
L 147.305492 122.71148 
L 148.232477 122.365852 
L 149.409034 121.669781 
L 155.719661 117.537739 
L 158.643229 115.653911 
L 161.28157 113.962088 
L 162.422474 113.521923 
L 163.527726 113.342361 
L 168.519182 112.929823 
L 170.016619 112.397972 
L 173.510639 111.092293 
L 177.040312 110.141289 
L 180.85521 109.295492 
L 185.597094 108.271839 
L 187.771943 107.542837 
L 189.982445 106.557683 
L 192.620787 105.128587 
L 195.080862 103.550421 
L 198.967067 100.972838 
L 200.107971 100.559976 
L 201.248876 100.381694 
L 203.815911 100.118298 
L 206.739478 99.404142 
L 210.69699 98.540814 
L 217.934602 97.169586 
L 219.503345 96.883608 
L 221.499928 96.622954 
L 222.605179 96.157167 
L 224.138269 95.243957 
L 228.416661 92.600078 
L 230.876736 91.042745 
L 234.406409 88.664694 
L 235.333393 88.392103 
L 238.363921 87.806314 
L 239.861358 87.437403 
L 242.214473 87.037006 
L 245.245 85.957357 
L 245.245 85.957357 
" style="fill:none;stroke:#17becf;stroke-linecap:square;stroke-opacity:0.7;stroke-width:1.5;"/>
   </g>
   <g id="patch_3">
    <path d="M 65.59 259.26 
L 65.59 55.68 
" style="fill:none;stroke:#000000;stroke-linecap:square;stroke-linejoin:miter;stroke-width:0.8;"/>
   </g>
   <g id="patch_4">
    <path d="M 253.8 259.26 
L 253.8 55.68 
" style="fill:none;stroke:#000000;stroke-linecap:square;stroke-linejoin:miter;stroke-width:0.8;"/>
   </g>
   <g id="patch_5">
    <path d="M 65.59 259.26 
L 253.8 259.26 
" style="fill:none;stroke:#000000;stroke-linecap:square;stroke-linejoin:miter;stroke-width:0.8;"/>
   </g>
   <g id="patch_6">
    <path d="M 65.59 55.68 
L 253.8 55.68 
" style="fill:none;stroke:#000000;stroke-linecap:square;stroke-linejoin:miter;stroke-width:0.8;"/>
   </g>
   <g id="text_7">
    <!-- x (m) -->
    <g transform="translate(143.710625 49.68)scale(0.12 -0.12)">
     <defs>
      <path d="M 3513 3500 
L 2247 1797 
L 3578 0 
L 2900 0 
L 1881 1375 
L 863 0 
L 184 0 
L 1544 1831 
L 300 3500 
L 978 3500 
L 1906 2253 
L 2834 3500 
L 3513 3500 
z
" id="DejaVuSans-78" transform="scale(0.015625)"/>
     </defs>
     <use xlink:href="#DejaVuSans-78"/>
     <use x="59.179688" xlink:href="#DejaVuSans-20"/>
     <use x="90.966797" xlink:href="#DejaVuSans-28"/>
     <use x="129.980469" xlink:href="#DejaVuSans-6d"/>
     <use x="227.392578" xlink:href="#DejaVuSans-29"/>
    </g>
   </g>
  </g>
  <g id="axes_2">
   <g id="patch_7">
    <path d="M 290.59 259.26 
L 478.8 259.26 
L 478.8 55.68 
L 290.59 55.68 
z
" style="fill:#ffffff;"/>
   </g>
   <g id="matplotlib.axis_3">
    <g id="xtick_6">
     <g id="line2d_26">
      <path clip-path="url(#pcd011c8467)" d="M 299.145 259.26 
L 299.145 55.68 
" style="fill:none;stroke:#b0b0b0;stroke-linecap:square;stroke-width:0.8;"/>
     </g>
     <g id="line2d_27">
      <g>
       <use style="stroke:#000000;stroke-width:0.8;" x="299.145" xlink:href="#ma0fb4e7426" y="259.26"/>
      </g>
     </g>
    </g>
    <g id="xtick_7">
     <g id="line2d_28">
      <path clip-path="url(#pcd011c8467)" d="M 341.928913 259.26 
L 341.928913 55.68 
" style="fill:none;stroke:#b0b0b0;stroke-linecap:square;stroke-width:0.8;"/>
     </g>
     <g id="line2d_29">
      <g>
       <use style="stroke:#000000;stroke-width:0.8;" x="341.928913" xlink:href="#ma0fb4e7426" y="259.26"/>
      </g>
     </g>
    </g>
    <g id="xtick_8">
     <g id="line2d_30">
      <path clip-path="url(#pcd011c8467)" d="M 384.712827 259.26 
L 384.712827 55.68 
" style="fill:none;stroke:#b0b0b0;stroke-linecap:square;stroke-width:0.8;"/>
     </g>
     <g id="line2d_31">
      <g>
       <use style="stroke:#000000;stroke-width:0.8;" x="384.712827" xlink:href="#ma0fb4e7426" y="259.26"/>
      </g>
     </g>
    </g>
    <g id="xtick_9">
     <g id="line2d_32">
      <path clip-path="url(#pcd011c8467)" d="M 427.49674 259.26 
L 427.49674 55.68 
" style="fill:none;stroke:#b0b0b0;stroke-linecap:square;stroke-width:0.8;"/>
     </g>
     <g id="line2d_33">
      <g>
       <use style="stroke:#000000;stroke-width:0.8;" x="427.49674" xlink:href="#ma0fb4e7426" y="259.26"/>
      </g>
     </g>
    </g>
    <g id="xtick_10">
     <g id="line2d_34">
      <path clip-path="url(#pcd011c8467)" d="M 470.280653 259.26 
L 470.280653 55.68 
" style="fill:none;stroke:#b0b0b0;stroke-linecap:square;stroke-width:0.8;"/>
     </g>
     <g id="line2d_35">
      <g>
       <use style="stroke:#000000;stroke-width:0.8;" x="470.280653" xlink:href="#ma0fb4e7426" y="259.26"/>
      </g>
     </g>
    </g>
    <g id="text_8">
     <!-- Tiempo (s) -->
     <g transform="translate(358.1325 270.858438)scale(0.1 -0.1)">
      <use xlink:href="#DejaVuSans-54"/>
      <use x="57.958984" xlink:href="#DejaVuSans-69"/>
      <use x="85.742188" xlink:href="#DejaVuSans-65"/>
      <use x="147.265625" xlink:href="#DejaVuSans-6d"/>
      <use x="244.677734" xlink:href="#DejaVuSans-70"/>
      <use x="308.154297" xlink:href="#DejaVuSans-6f"/>
      <use x="369.335938" xlink:href="#DejaVuSans-20"/>
      <use x="401.123047" xlink:href="#DejaVuSans-28"/>
      <use x="440.136719" xlink:href="#DejaVuSans-73"/>
      <use x="492.236328" xlink:href="#DejaVuSans-29"/>
     </g>
    </g>
   </g>
   <g id="matplotlib.axis_4">
    <g id="ytick_6">
     <g id="line2d_36">
      <path clip-path="url(#pcd011c8467)" d="M 290.59 250.006364 
L 478.8 250.006364 
" style="fill:none;stroke:#b0b0b0;stroke-linecap:square;stroke-width:0.8;"/>
     </g>
     <g id="line2d_37">
      <g>
       <use style="stroke:#000000;stroke-width:0.8;" x="290.59" xlink:href="#mbbd4961f31" y="250.006364"/>
      </g>
     </g>
     <g id="text_9">
      <!-- 0 -->
      <g transform="translate(277.2275 253.805582)scale(0.1 -0.1)">
       <use xlink:href="#DejaVuSans-30"/>
      </g>
     </g>
    </g>
    <g id="ytick_7">
     <g id="line2d_38">
      <path clip-path="url(#pcd011c8467)" d="M 290.59 216.341269 
L 478.8 216.341269 
" style="fill:none;stroke:#b0b0b0;stroke-linecap:square;stroke-width:0.8;"/>
     </g>
     <g id="line2d_39">
      <g>
       <use style="stroke:#000000;stroke-width:0.8;" x="290.59" xlink:href="#mbbd4961f31" y="216.341269"/>
      </g>
     </g>
     <g id="text_10">
      <!-- 5 -->
      <g transform="translate(277.2275 220.140488)scale(0.1 -0.1)">
       <defs>
        <path d="M 691 4666 
L 3169 4666 
L 3169 4134 
L 1269 4134 
L 1269 2991 
Q 1406 3038 1543 3061 
Q 1681 3084 1819 3084 
Q 2600 3084 3056 2656 
Q 3513 2228 3513 1497 
Q 3513 744 3044 326 
Q 2575 -91 1722 -91 
Q 1428 -91 1123 -41 
Q 819 9 494 109 
L 494 744 
Q 775 591 1075 516 
Q 1375 441 1709 441 
Q 2250 441 2565 725 
Q 2881 1009 2881 1497 
Q 2881 1984 2565 2268 
Q 2250 2553 1709 2553 
Q 1456 2553 1204 2497 
Q 953 2441 691 2322 
L 691 4666 
z
" id="DejaVuSans-35" transform="scale(0.015625)"/>
       </defs>
       <use xlink:href="#DejaVuSans-35"/>
      </g>
     </g>
    </g>
    <g id="ytick_8">
     <g id="line2d_40">
      <path clip-path="url(#pcd011c8467)" d="M 290.59 182.676175 
L 478.8 182.676175 
" style="fill:none;stroke:#b0b0b0;stroke-linecap:square;stroke-width:0.8;"/>
     </g>
     <g id="line2d_41">
      <g>
       <use style="stroke:#000000;stroke-width:0.8;" x="290.59" xlink:href="#mbbd4961f31" y="182.676175"/>
      </g>
     </g>
     <g id="text_11">
      <!-- 10 -->
      <g transform="translate(270.865 186.475394)scale(0.1 -0.1)">
       <use xlink:href="#DejaVuSans-31"/>
       <use x="63.623047" xlink:href="#DejaVuSans-30"/>
      </g>
     </g>
    </g>
    <g id="ytick_9">
     <g id="line2d_42">
      <path clip-path="url(#pcd011c8467)" d="M 290.59 149.011081 
L 478.8 149.011081 
" style="fill:none;stroke:#b0b0b0;stroke-linecap:square;stroke-width:0.8;"/>
     </g>
     <g id="line2d_43">
      <g>
       <use style="stroke:#000000;stroke-width:0.8;" x="290.59" xlink:href="#mbbd4961f31" y="149.011081"/>
      </g>
     </g>
     <g id="text_12">
      <!-- 15 -->
      <g transform="translate(270.865 152.810299)scale(0.1 -0.1)">
       <use xlink:href="#DejaVuSans-31"/>
       <use x="63.623047" xlink:href="#DejaVuSans-35"/>
      </g>
     </g>
    </g>
    <g id="ytick_10">
     <g id="line2d_44">
      <path clip-path="url(#pcd011c8467)" d="M 290.59 115.345986 
L 478.8 115.345986 
" style="fill:none;stroke:#b0b0b0;stroke-linecap:square;stroke-width:0.8;"/>
     </g>
     <g id="line2d_45">
      <g>
       <use style="stroke:#000000;stroke-width:0.8;" x="290.59" xlink:href="#mbbd4961f31" y="115.345986"/>
      </g>
     </g>
     <g id="text_13">
      <!-- 20 -->
      <g transform="translate(270.865 119.145205)scale(0.1 -0.1)">
       <use xlink:href="#DejaVuSans-32"/>
       <use x="63.623047" xlink:href="#DejaVuSans-30"/>
      </g>
     </g>
    </g>
    <g id="ytick_11">
     <g id="line2d_46">
      <path clip-path="url(#pcd011c8467)" d="M 290.59 81.680892 
L 478.8 81.680892 
" style="fill:none;stroke:#b0b0b0;stroke-linecap:square;stroke-width:0.8;"/>
     </g>
     <g id="line2d_47">
      <g>
       <use style="stroke:#000000;stroke-width:0.8;" x="290.59" xlink:href="#mbbd4961f31" y="81.680892"/>
      </g>
     </g>
     <g id="text_14">
      <!-- 25 -->
      <g transform="translate(270.865 85.480111)scale(0.1 -0.1)">
       <use xlink:href="#DejaVuSans-32"/>
       <use x="63.623047" xlink:href="#DejaVuSans-35"/>
      </g>
     </g>
    </g>
   </g>
   <g id="line2d_48">
    <path clip-path="url(#pcd011c8467)" d="M 299.145 250.006364 
L 342.071526 250.006364 
L 344.567255 204.967518 
L 345.494239 192.229098 
L 346.242958 184.702825 
L 346.884717 180.222468 
L 347.490822 177.448885 
L 348.025621 175.938542 
L 348.524767 175.111186 
L 349.059566 174.632419 
L 349.808284 174.297743 
L 351.127455 173.719178 
L 352.660545 172.687277 
L 353.623183 172.197685 
L 354.336248 172.079665 
L 355.01366 171.957934 
L 355.726725 171.593852 
L 356.618057 170.868905 
L 358.079841 169.339332 
L 360.896448 166.410781 
L 365.495719 161.791225 
L 370.451522 156.70244 
L 375.728205 151.681031 
L 380.291822 147.635675 
L 385.105013 143.666419 
L 389.953856 139.957361 
L 394.909659 136.445357 
L 400.008076 133.105058 
L 405.249105 129.937534 
L 410.632747 126.942938 
L 416.194656 124.102592 
L 421.970484 121.402871 
L 427.960232 118.848797 
L 434.199553 116.430643 
L 440.7241 114.141763 
L 447.569526 111.978316 
L 454.735831 109.948077 
L 462.294323 108.039274 
L 470.245 106.260361 
L 470.245 106.260361 
" style="fill:none;stroke:#1f77b4;stroke-linecap:square;stroke-opacity:0.7;stroke-width:1.5;"/>
   </g>
   <g id="line2d_49">
    <path clip-path="url(#pcd011c8467)" d="M 299.145 250.006364 
L 302.603366 249.898146 
L 303.637311 249.633242 
L 304.564296 249.166063 
L 305.562587 248.401827 
L 307.487863 246.544455 
L 308.521808 245.74975 
L 309.341833 245.384805 
L 310.197511 245.255272 
L 312.550626 245.079809 
L 313.334998 244.727692 
L 314.155023 244.105868 
L 315.402887 242.831436 
L 316.722058 241.586056 
L 317.506429 241.135884 
L 318.219495 240.968045 
L 319.895198 240.734166 
L 321.071756 240.618166 
L 321.820474 240.415616 
L 322.569193 239.973877 
L 323.531831 239.123878 
L 325.3858 237.444708 
L 326.170172 237.064224 
L 326.883237 236.957762 
L 327.774569 236.845909 
L 329.521578 236.57649 
L 330.270297 236.416708 
L 331.019015 236.017055 
L 331.910347 235.270258 
L 334.192156 233.231791 
L 334.940874 232.914734 
L 335.725246 232.830067 
L 336.86615 232.674118 
L 339.290572 232.149908 
L 340.110597 231.531599 
L 341.465421 230.166709 
L 342.071526 229.579519 
L 344.353335 186.581517 
L 345.315973 172.45853 
L 346.064692 164.557331 
L 346.670797 160.237301 
L 347.205596 157.795864 
L 347.704742 156.447942 
L 348.168234 155.788678 
L 348.631726 155.498577 
L 349.380445 155.351946 
L 350.09351 155.12653 
L 350.663962 154.694472 
L 351.305721 153.906863 
L 352.339666 152.216618 
L 353.872756 149.761172 
L 354.764087 148.74591 
L 355.691072 148.02989 
L 358.61464 146.041756 
L 361.752126 143.498058 
L 363.392176 142.590447 
L 365.424412 141.413064 
L 366.886196 140.274949 
L 369.98803 137.78091 
L 374.80122 134.346072 
L 378.580466 131.369809 
L 383.429309 127.778756 
L 388.099886 123.985614 
L 392.556544 120.860052 
L 394.731393 119.088259 
L 396.157523 118.245691 
L 398.474985 116.920882 
L 400.257648 115.57175 
L 402.860337 113.593214 
L 407.637874 110.331171 
L 410.811014 107.833373 
L 423.467921 99.05615 
L 425.214931 97.782444 
L 429.635936 94.326085 
L 432.345583 92.650225 
L 436.695281 89.490389 
L 439.797115 87.605761 
L 441.758044 86.046176 
L 444.503345 83.925666 
L 451.420078 78.9747 
L 456.161962 75.356293 
L 460.048167 72.54464 
L 463.542187 69.878074 
L 467.143166 67.357286 
L 470.245 64.933636 
L 470.245 64.933636 
" style="fill:none;stroke:#d62728;stroke-linecap:square;stroke-opacity:0.7;stroke-width:1.5;"/>
   </g>
   <g id="line2d_50">
    <path clip-path="url(#pcd011c8467)" d="M 299.145 250.006364 
L 302.852939 249.897076 
L 306.097386 249.369622 
L 306.881758 248.856363 
L 307.844396 247.930735 
L 309.769672 246.010281 
L 310.554044 245.578314 
L 311.267109 245.432519 
L 312.657586 245.256885 
L 314.796782 244.751911 
L 315.509847 244.136075 
L 316.436832 243.004144 
L 318.219495 240.789795 
L 319.003866 240.199766 
L 319.681278 239.957187 
L 323.567484 239.174 
L 324.280549 238.563072 
L 325.314494 237.335109 
L 326.704971 235.754067 
L 327.489343 235.192725 
L 328.202408 234.950285 
L 330.555523 234.674814 
L 331.375548 234.555391 
L 332.017307 234.226434 
L 332.730372 233.600501 
L 333.728663 232.387021 
L 335.297407 230.501923 
L 336.081778 229.909713 
L 336.75919 229.659419 
L 340.894969 228.784748 
L 341.643687 228.15024 
L 342.071526 227.687215 
L 344.424642 182.665392 
L 345.315973 169.854607 
L 346.029038 162.519791 
L 346.635144 158.302742 
L 347.205596 155.771722 
L 347.704742 154.442124 
L 348.203887 153.69645 
L 348.738686 153.299303 
L 349.594364 153.002762 
L 350.450043 152.621843 
L 351.270068 151.98746 
L 353.623183 149.989649 
L 354.300595 149.781474 
L 355.691072 149.50251 
L 358.079841 148.612209 
L 359.006825 148.464325 
L 359.82685 148.056068 
L 361.966046 146.867279 
L 362.714765 146.78022 
L 363.392176 146.621891 
L 364.176548 146.201779 
L 365.567025 145.137345 
L 366.672277 144.423556 
L 367.420995 144.189142 
L 369.096698 143.844111 
L 370.736748 143.294006 
L 372.234185 142.988839 
L 373.089864 142.445217 
L 375.835165 140.481182 
L 376.512577 140.372622 
L 377.189989 140.258668 
L 378.045667 139.87248 
L 379.757023 139.054938 
L 380.541395 138.965048 
L 381.25446 138.799982 
L 382.074485 138.36232 
L 383.643229 137.185478 
L 384.677173 136.576522 
L 385.461545 136.371695 
L 386.923329 136.128142 
L 388.599032 135.699336 
L 389.739936 135.519511 
L 390.559961 135.092282 
L 391.665213 134.231956 
L 393.305263 132.979089 
L 394.125288 132.639845 
L 394.909659 132.558497 
L 395.836644 132.394219 
L 397.583654 132.046251 
L 398.403679 131.935216 
L 399.188051 131.596441 
L 400.150689 130.919236 
L 402.68207 128.995688 
L 403.537748 128.705308 
L 404.500387 128.636576 
L 407.067421 128.365277 
L 407.887446 127.996602 
L 408.850084 127.308667 
L 411.631039 125.156185 
L 412.451064 124.897026 
L 413.805888 124.788408 
L 416.622495 124.304548 
L 417.513827 123.747804 
L 418.868651 122.594458 
L 420.366088 121.397861 
L 421.293073 120.932384 
L 422.220057 120.71385 
L 425.036665 120.25804 
L 425.96365 119.732983 
L 427.140207 118.775412 
L 429.13679 117.129869 
L 430.028121 116.710514 
L 430.848146 116.567173 
L 433.771714 116.329989 
L 434.591739 116.019678 
L 435.518724 115.416678 
L 436.944854 114.17353 
L 438.442291 112.965142 
L 439.404929 112.465895 
L 440.438874 112.191428 
L 442.756336 111.694057 
L 443.718974 111.175767 
L 444.859878 110.278509 
L 447.2843 108.282147 
L 448.175631 107.884758 
L 449.066963 107.734705 
L 451.883571 107.485503 
L 452.774902 107.054759 
L 453.808847 106.28187 
L 456.981987 103.695248 
L 457.980278 103.284953 
L 459.691635 102.891823 
L 460.796886 102.500227 
L 461.795177 101.902227 
L 463.043041 100.861662 
L 465.146584 99.087905 
L 466.073568 98.620141 
L 466.9649 98.415875 
L 468.533643 98.351236 
L 469.603241 98.172205 
L 470.245 97.920617 
L 470.245 97.920617 
" style="fill:none;stroke:#bcbd22;stroke-linecap:square;stroke-opacity:0.7;stroke-width:1.5;"/>
   </g>
   <g id="line2d_51">
    <path clip-path="url(#pcd011c8467)" d="M 299.145 250.006364 
L 302.31814 249.896592 
L 303.280778 249.62366 
L 304.243416 249.108675 
L 305.526934 248.135375 
L 307.737436 246.459074 
L 308.9853 245.817207 
L 310.447084 245.330157 
L 313.869797 244.525646 
L 317.07859 243.897812 
L 319.681278 243.643845 
L 342.071526 242.155806 
L 344.674214 194.832967 
L 345.565546 182.636536 
L 346.278611 175.635537 
L 346.884717 171.666363 
L 347.419516 169.53376 
L 347.847355 168.605635 
L 348.239541 168.238701 
L 349.309138 167.701925 
L 350.663962 166.558148 
L 351.198761 166.439173 
L 351.697907 166.310276 
L 352.268359 165.910053 
L 353.124037 164.985255 
L 354.443208 163.581794 
L 355.084967 163.215761 
L 355.691072 163.130692 
L 356.225871 162.946183 
L 356.831976 162.494203 
L 357.652001 161.573847 
L 360.753835 157.771852 
L 361.752126 157.054906 
L 363.071297 156.4065 
L 365.032227 155.430587 
L 366.38705 154.4729 
L 368.740166 152.460397 
L 370.986321 150.679445 
L 378.901345 144.79691 
L 470.245 73.481948 
L 470.245 73.481948 
" style="fill:none;stroke:#2ca02c;stroke-linecap:square;stroke-opacity:0.7;stroke-width:1.5;"/>
   </g>
   <g id="line2d_52">
    <path clip-path="url(#pcd011c8467)" d="M 299.145 250.006364 
L 302.817286 249.898136 
L 303.886884 249.635029 
L 304.778215 249.1948 
L 305.633894 248.525774 
L 306.596532 247.474181 
L 308.058315 245.483708 
L 309.662712 243.404507 
L 310.767963 242.333887 
L 312.015827 241.451455 
L 314.618515 239.698939 
L 317.649043 237.411694 
L 318.469068 237.142876 
L 320.287384 236.7334 
L 321.321328 236.077377 
L 323.531831 234.609054 
L 324.423162 234.321835 
L 325.457107 234.246123 
L 326.811931 234.02145 
L 328.380674 233.823386 
L 329.699845 233.697537 
L 333.265171 233.112223 
L 334.299115 232.844382 
L 337.579215 231.789002 
L 338.363587 231.679261 
L 339.183612 231.33473 
L 340.181904 230.653017 
L 342.071526 229.152148 
L 344.923787 179.163085 
L 345.815119 167.718401 
L 346.563837 160.759854 
L 347.205596 156.669523 
L 347.811701 154.158173 
L 348.382154 152.708575 
L 348.952606 151.851675 
L 349.630018 151.243938 
L 352.018786 149.368469 
L 353.088384 148.591945 
L 353.765796 148.361727 
L 354.978007 148.091336 
L 355.940645 147.48513 
L 357.188509 146.742802 
L 357.865921 146.603651 
L 358.472026 146.495094 
L 359.113785 146.134091 
L 359.898157 145.403454 
L 361.217328 143.792268 
L 362.607805 142.211367 
L 363.570443 141.443578 
L 364.604387 140.906574 
L 366.636623 139.926762 
L 367.492302 139.192652 
L 368.419286 138.084932 
L 369.88107 135.919675 
L 371.485467 133.660912 
L 372.519411 132.586802 
L 373.482049 131.90766 
L 374.658607 131.371805 
L 376.476923 130.551533 
L 377.510868 129.805727 
L 378.687426 128.664422 
L 382.680591 124.531839 
L 386.780716 121.011064 
L 390.453002 117.251723 
L 391.379986 116.732573 
L 392.235665 116.498682 
L 394.160941 116.34071 
L 397.405388 115.819849 
L 398.938478 115.067355 
L 400.614181 114.316387 
L 401.790739 114.041989 
L 403.252522 113.955757 
L 405.106492 113.815255 
L 406.28305 113.488536 
L 407.637874 112.865406 
L 411.024933 111.192846 
L 412.771943 110.703212 
L 414.4833 110.163081 
L 415.624204 109.559697 
L 416.836415 108.651223 
L 418.476465 107.105306 
L 422.220057 103.508244 
L 425.286238 100.945929 
L 426.605408 100.119614 
L 427.71066 99.686235 
L 428.851564 99.486903 
L 432.737769 99.064483 
L 433.807367 98.552126 
L 435.162191 97.632254 
L 437.194427 96.256197 
L 438.085758 95.927584 
L 439.012743 95.84327 
L 439.904075 95.63043 
L 442.04327 95.010039 
L 442.863295 94.88778 
L 443.576361 94.534203 
L 444.432039 93.842327 
L 445.965129 92.241939 
L 447.426913 90.857593 
L 448.532164 90.116095 
L 449.851335 89.516858 
L 452.560982 88.34615 
L 457.267213 85.950931 
L 458.835956 85.61499 
L 460.582966 85.204214 
L 461.616911 84.714693 
L 462.757815 83.910159 
L 465.610076 81.760338 
L 466.501408 81.435639 
L 467.392739 81.351143 
L 468.355377 81.199296 
L 469.817161 80.705854 
L 470.245 80.544644 
L 470.245 80.544644 
" style="fill:none;stroke:#17becf;stroke-linecap:square;stroke-opacity:0.7;stroke-width:1.5;"/>
   </g>
   <g id="patch_8">
    <path d="M 290.59 259.26 
L 290.59 55.68 
" style="fill:none;stroke:#000000;stroke-linecap:square;stroke-linejoin:miter;stroke-width:0.8;"/>
   </g>
   <g id="patch_9">
    <path d="M 478.8 259.26 
L 478.8 55.68 
" style="fill:none;stroke:#000000;stroke-linecap:square;stroke-linejoin:miter;stroke-width:0.8;"/>
   </g>
   <g id="patch_10">
    <path d="M 290.59 259.26 
L 478.8 259.26 
" style="fill:none;stroke:#000000;stroke-linecap:square;stroke-linejoin:miter;stroke-width:0.8;"/>
   </g>
   <g id="patch_11">
    <path d="M 290.59 55.68 
L 478.8 55.68 
" style="fill:none;stroke:#000000;stroke-linecap:square;stroke-linejoin:miter;stroke-width:0.8;"/>
   </g>
   <g id="text_15">
    <!-- y (m) -->
    <g transform="translate(368.710625 49.68)scale(0.12 -0.12)">
     <defs>
      <path d="M 2059 -325 
Q 1816 -950 1584 -1140 
Q 1353 -1331 966 -1331 
L 506 -1331 
L 506 -850 
L 844 -850 
Q 1081 -850 1212 -737 
Q 1344 -625 1503 -206 
L 1606 56 
L 191 3500 
L 800 3500 
L 1894 763 
L 2988 3500 
L 3597 3500 
L 2059 -325 
z
" id="DejaVuSans-79" transform="scale(0.015625)"/>
     </defs>
     <use xlink:href="#DejaVuSans-79"/>
     <use x="59.179688" xlink:href="#DejaVuSans-20"/>
     <use x="90.966797" xlink:href="#DejaVuSans-28"/>
     <use x="129.980469" xlink:href="#DejaVuSans-6d"/>
     <use x="227.392578" xlink:href="#DejaVuSans-29"/>
    </g>
   </g>
  </g>
  <g id="axes_3">
   <g id="patch_12">
    <path d="M 65.59 505.24 
L 253.8 505.24 
L 253.8 301.66 
L 65.59 301.66 
z
" style="fill:#ffffff;"/>
   </g>
   <g id="matplotlib.axis_5">
    <g id="xtick_11">
     <g id="line2d_53">
      <path clip-path="url(#pd01321f475)" d="M 74.145 505.24 
L 74.145 301.66 
" style="fill:none;stroke:#b0b0b0;stroke-linecap:square;stroke-width:0.8;"/>
     </g>
     <g id="line2d_54">
      <g>
       <use style="stroke:#000000;stroke-width:0.8;" x="74.145" xlink:href="#ma0fb4e7426" y="505.24"/>
      </g>
     </g>
     <g id="text_16">
      <!-- 0 -->
      <g transform="translate(70.96375 519.838438)scale(0.1 -0.1)">
       <use xlink:href="#DejaVuSans-30"/>
      </g>
     </g>
    </g>
    <g id="xtick_12">
     <g id="line2d_55">
      <path clip-path="url(#pd01321f475)" d="M 116.928913 505.24 
L 116.928913 301.66 
" style="fill:none;stroke:#b0b0b0;stroke-linecap:square;stroke-width:0.8;"/>
     </g>
     <g id="line2d_56">
      <g>
       <use style="stroke:#000000;stroke-width:0.8;" x="116.928913" xlink:href="#ma0fb4e7426" y="505.24"/>
      </g>
     </g>
     <g id="text_17">
      <!-- 5 -->
      <g transform="translate(113.747663 519.838438)scale(0.1 -0.1)">
       <use xlink:href="#DejaVuSans-35"/>
      </g>
     </g>
    </g>
    <g id="xtick_13">
     <g id="line2d_57">
      <path clip-path="url(#pd01321f475)" d="M 159.712827 505.24 
L 159.712827 301.66 
" style="fill:none;stroke:#b0b0b0;stroke-linecap:square;stroke-width:0.8;"/>
     </g>
     <g id="line2d_58">
      <g>
       <use style="stroke:#000000;stroke-width:0.8;" x="159.712827" xlink:href="#ma0fb4e7426" y="505.24"/>
      </g>
     </g>
     <g id="text_18">
      <!-- 10 -->
      <g transform="translate(153.350327 519.838438)scale(0.1 -0.1)">
       <use xlink:href="#DejaVuSans-31"/>
       <use x="63.623047" xlink:href="#DejaVuSans-30"/>
      </g>
     </g>
    </g>
    <g id="xtick_14">
     <g id="line2d_59">
      <path clip-path="url(#pd01321f475)" d="M 202.49674 505.24 
L 202.49674 301.66 
" style="fill:none;stroke:#b0b0b0;stroke-linecap:square;stroke-width:0.8;"/>
     </g>
     <g id="line2d_60">
      <g>
       <use style="stroke:#000000;stroke-width:0.8;" x="202.49674" xlink:href="#ma0fb4e7426" y="505.24"/>
      </g>
     </g>
     <g id="text_19">
      <!-- 15 -->
      <g transform="translate(196.13424 519.838438)scale(0.1 -0.1)">
       <use xlink:href="#DejaVuSans-31"/>
       <use x="63.623047" xlink:href="#DejaVuSans-35"/>
      </g>
     </g>
    </g>
    <g id="xtick_15">
     <g id="line2d_61">
      <path clip-path="url(#pd01321f475)" d="M 245.280653 505.24 
L 245.280653 301.66 
" style="fill:none;stroke:#b0b0b0;stroke-linecap:square;stroke-width:0.8;"/>
     </g>
     <g id="line2d_62">
      <g>
       <use style="stroke:#000000;stroke-width:0.8;" x="245.280653" xlink:href="#ma0fb4e7426" y="505.24"/>
      </g>
     </g>
     <g id="text_20">
      <!-- 20 -->
      <g transform="translate(238.918153 519.838438)scale(0.1 -0.1)">
       <use xlink:href="#DejaVuSans-32"/>
       <use x="63.623047" xlink:href="#DejaVuSans-30"/>
      </g>
     </g>
    </g>
    <g id="text_21">
     <!-- Tiempo (s) -->
     <g transform="translate(133.1325 533.516563)scale(0.1 -0.1)">
      <use xlink:href="#DejaVuSans-54"/>
      <use x="57.958984" xlink:href="#DejaVuSans-69"/>
      <use x="85.742188" xlink:href="#DejaVuSans-65"/>
      <use x="147.265625" xlink:href="#DejaVuSans-6d"/>
      <use x="244.677734" xlink:href="#DejaVuSans-70"/>
      <use x="308.154297" xlink:href="#DejaVuSans-6f"/>
      <use x="369.335938" xlink:href="#DejaVuSans-20"/>
      <use x="401.123047" xlink:href="#DejaVuSans-28"/>
      <use x="440.136719" xlink:href="#DejaVuSans-73"/>
      <use x="492.236328" xlink:href="#DejaVuSans-29"/>
     </g>
    </g>
   </g>
   <g id="matplotlib.axis_6">
    <g id="ytick_12">
     <g id="line2d_63">
      <path clip-path="url(#pd01321f475)" d="M 65.59 495.986506 
L 253.8 495.986506 
" style="fill:none;stroke:#b0b0b0;stroke-linecap:square;stroke-width:0.8;"/>
     </g>
     <g id="line2d_64">
      <g>
       <use style="stroke:#000000;stroke-width:0.8;" x="65.59" xlink:href="#mbbd4961f31" y="495.986506"/>
      </g>
     </g>
     <g id="text_22">
      <!-- 0 -->
      <g transform="translate(52.2275 499.785725)scale(0.1 -0.1)">
       <use xlink:href="#DejaVuSans-30"/>
      </g>
     </g>
    </g>
    <g id="ytick_13">
     <g id="line2d_65">
      <path clip-path="url(#pd01321f475)" d="M 65.59 454.210114 
L 253.8 454.210114 
" style="fill:none;stroke:#b0b0b0;stroke-linecap:square;stroke-width:0.8;"/>
     </g>
     <g id="line2d_66">
      <g>
       <use style="stroke:#000000;stroke-width:0.8;" x="65.59" xlink:href="#mbbd4961f31" y="454.210114"/>
      </g>
     </g>
     <g id="text_23">
      <!-- 50 -->
      <g transform="translate(45.865 458.009333)scale(0.1 -0.1)">
       <use xlink:href="#DejaVuSans-35"/>
       <use x="63.623047" xlink:href="#DejaVuSans-30"/>
      </g>
     </g>
    </g>
    <g id="ytick_14">
     <g id="line2d_67">
      <path clip-path="url(#pd01321f475)" d="M 65.59 412.433723 
L 253.8 412.433723 
" style="fill:none;stroke:#b0b0b0;stroke-linecap:square;stroke-width:0.8;"/>
     </g>
     <g id="line2d_68">
      <g>
       <use style="stroke:#000000;stroke-width:0.8;" x="65.59" xlink:href="#mbbd4961f31" y="412.433723"/>
      </g>
     </g>
     <g id="text_24">
      <!-- 100 -->
      <g transform="translate(39.5025 416.232942)scale(0.1 -0.1)">
       <use xlink:href="#DejaVuSans-31"/>
       <use x="63.623047" xlink:href="#DejaVuSans-30"/>
       <use x="127.246094" xlink:href="#DejaVuSans-30"/>
      </g>
     </g>
    </g>
    <g id="ytick_15">
     <g id="line2d_69">
      <path clip-path="url(#pd01321f475)" d="M 65.59 370.657332 
L 253.8 370.657332 
" style="fill:none;stroke:#b0b0b0;stroke-linecap:square;stroke-width:0.8;"/>
     </g>
     <g id="line2d_70">
      <g>
       <use style="stroke:#000000;stroke-width:0.8;" x="65.59" xlink:href="#mbbd4961f31" y="370.657332"/>
      </g>
     </g>
     <g id="text_25">
      <!-- 150 -->
      <g transform="translate(39.5025 374.456551)scale(0.1 -0.1)">
       <use xlink:href="#DejaVuSans-31"/>
       <use x="63.623047" xlink:href="#DejaVuSans-35"/>
       <use x="127.246094" xlink:href="#DejaVuSans-30"/>
      </g>
     </g>
    </g>
    <g id="ytick_16">
     <g id="line2d_71">
      <path clip-path="url(#pd01321f475)" d="M 65.59 328.880941 
L 253.8 328.880941 
" style="fill:none;stroke:#b0b0b0;stroke-linecap:square;stroke-width:0.8;"/>
     </g>
     <g id="line2d_72">
      <g>
       <use style="stroke:#000000;stroke-width:0.8;" x="65.59" xlink:href="#mbbd4961f31" y="328.880941"/>
      </g>
     </g>
     <g id="text_26">
      <!-- 200 -->
      <g transform="translate(39.5025 332.680159)scale(0.1 -0.1)">
       <use xlink:href="#DejaVuSans-32"/>
       <use x="63.623047" xlink:href="#DejaVuSans-30"/>
       <use x="127.246094" xlink:href="#DejaVuSans-30"/>
      </g>
     </g>
    </g>
   </g>
   <g id="line2d_73">
    <path clip-path="url(#pd01321f475)" d="M 74.145 495.986364 
L 108.835623 495.831553 
L 117.10718 495.742999 
L 118.283737 493.265 
L 119.210722 491.844968 
L 120.17336 490.776894 
L 121.207305 489.960877 
L 122.348209 489.348196 
L 123.66738 488.900062 
L 125.343083 488.578808 
L 127.553585 488.392037 
L 131.332831 488.335704 
L 139.140895 488.114534 
L 187.914556 486.559055 
L 229.842791 485.478188 
L 245.245 485.132172 
L 245.245 485.132172 
" style="fill:none;stroke:#1f77b4;stroke-linecap:square;stroke-opacity:0.7;stroke-width:1.5;"/>
   </g>
   <g id="line2d_74">
    <path clip-path="url(#pd01321f475)" d="M 74.145 495.986364 
L 75.606784 495.863925 
L 77.175527 495.503352 
L 78.993844 494.843847 
L 81.418265 493.709677 
L 88.90545 490.040437 
L 91.044646 489.31467 
L 92.969922 488.891776 
L 94.788238 488.716977 
L 97.533539 488.519253 
L 99.209243 488.123435 
L 100.956252 487.476774 
L 102.988488 486.478168 
L 105.163337 485.161843 
L 107.338186 483.585595 
L 109.976527 481.369014 
L 115.324517 476.547257 
L 117.356752 474.497329 
L 118.889843 472.572187 
L 120.102054 471.417771 
L 121.421224 470.469229 
L 122.883008 469.685664 
L 124.166525 469.236834 
L 125.236123 469.091299 
L 126.555294 468.947855 
L 127.624892 468.577225 
L 130.940645 467.243302 
L 132.937228 466.765655 
L 135.504262 466.370139 
L 138.21391 466.163641 
L 148.446396 465.663131 
L 157.110139 464.698487 
L 216.722391 457.423598 
L 245.245 454.139825 
L 245.245 454.139825 
" style="fill:none;stroke:#d62728;stroke-linecap:square;stroke-opacity:0.7;stroke-width:1.5;"/>
   </g>
   <g id="line2d_75">
    <path clip-path="url(#pd01321f475)" d="M 74.145 495.986364 
L 75.606784 495.865107 
L 77.21118 495.504708 
L 79.06515 495.094159 
L 80.954773 494.830598 
L 82.095677 494.354724 
L 83.414848 493.553954 
L 85.019245 492.300867 
L 86.980174 490.470665 
L 89.832435 487.470211 
L 95.643916 481.315808 
L 98.282258 478.521625 
L 100.171881 476.095882 
L 103.309368 471.652762 
L 107.837332 465.287282 
L 110.511326 461.935408 
L 113.61316 458.439369 
L 115.502783 456.139744 
L 117.677632 453.472935 
L 118.497657 452.968178 
L 119.495948 452.6379 
L 121.492531 451.996101 
L 122.811701 451.646381 
L 125.699616 451.131333 
L 126.983133 450.500506 
L 128.58753 449.446866 
L 130.584112 447.852376 
L 133.472026 445.229478 
L 138.998282 440.17562 
L 141.529663 437.898502 
L 143.205367 436.019304 
L 145.308909 433.30263 
L 148.517703 428.743508 
L 153.152627 422.207624 
L 155.684008 419.04147 
L 160.461545 413.265177 
L 163.777298 408.614845 
L 168.305263 402.323174 
L 171.300136 398.576239 
L 173.902825 395.660037 
L 177.753377 391.448372 
L 180.284758 388.175805 
L 188.021516 377.939597 
L 190.80247 374.758041 
L 193.832997 371.661397 
L 195.793927 369.488634 
L 198.254002 366.39334 
L 206.347292 355.943564 
L 209.092593 352.903062 
L 214.832768 346.776271 
L 218.077215 342.611166 
L 222.569526 336.899797 
L 225.67136 333.346714 
L 228.381008 330.572409 
L 231.482841 327.414961 
L 233.835956 324.595376 
L 242.927538 313.350762 
L 245.245 310.913636 
L 245.245 310.913636 
" style="fill:none;stroke:#bcbd22;stroke-linecap:square;stroke-opacity:0.7;stroke-width:1.5;"/>
   </g>
   <g id="line2d_76">
    <path clip-path="url(#pd01321f475)" d="M 74.145 495.986364 
L 75.606784 495.864498 
L 77.21118 495.49846 
L 79.06515 495.076492 
L 82.55917 494.589071 
L 84.163566 493.970327 
L 86.053189 492.99296 
L 88.299345 491.575146 
L 91.044646 489.568536 
L 94.609972 486.671134 
L 99.815348 482.128395 
L 114.040999 469.278923 
L 117.356752 466.143503 
L 118.568963 464.60531 
L 119.638561 463.604059 
L 120.708159 462.893329 
L 121.884717 462.382027 
L 123.132581 462.087189 
L 124.594364 461.984969 
L 126.377028 461.873911 
L 128.230997 461.535344 
L 130.156273 460.957486 
L 132.402429 460.037767 
L 135.361649 458.564682 
L 139.461774 456.259109 
L 145.986321 452.296468 
L 158.358003 444.810155 
L 172.65496 436.490912 
L 209.484779 415.063348 
L 245.245 394.232516 
L 245.245 394.232516 
" style="fill:none;stroke:#2ca02c;stroke-linecap:square;stroke-opacity:0.7;stroke-width:1.5;"/>
   </g>
   <g id="line2d_77">
    <path clip-path="url(#pd01321f475)" d="M 74.145 495.986364 
L 75.57113 495.867081 
L 76.925954 495.541711 
L 77.781633 495.109432 
L 78.601658 494.4384 
L 79.564296 493.350142 
L 81.061733 491.264733 
L 83.022662 488.609075 
L 84.234873 487.334214 
L 85.375777 486.449394 
L 86.409722 485.915034 
L 87.408013 485.64351 
L 90.295927 485.108556 
L 92.328163 484.511202 
L 95.002158 483.990828 
L 96.107409 483.359985 
L 97.747459 482.129463 
L 99.815348 480.633866 
L 101.170172 479.943725 
L 102.418036 479.550389 
L 103.630247 479.400461 
L 105.092031 479.260571 
L 106.268588 478.892263 
L 107.445146 478.286674 
L 108.69301 477.382582 
L 110.475673 475.758811 
L 112.008763 474.478465 
L 113.007055 473.92631 
L 113.898386 473.686043 
L 116.180195 473.283716 
L 117.10718 472.835267 
L 118.604617 469.019323 
L 119.781174 466.644984 
L 123.45346 459.753478 
L 126.305721 453.00579 
L 128.052731 449.259623 
L 129.514514 446.641306 
L 130.833685 444.712573 
L 132.045896 443.31261 
L 133.151147 442.354254 
L 134.185092 441.737973 
L 135.14773 441.410426 
L 136.146021 441.303866 
L 137.500845 441.189608 
L 140.388759 440.879465 
L 142.634915 440.769795 
L 147.020266 440.413872 
L 148.731622 439.939746 
L 150.336019 439.266872 
L 151.904762 438.37039 
L 153.473506 437.21648 
L 155.042249 435.786556 
L 156.646646 434.023269 
L 158.500616 431.632051 
L 161.245917 428.095885 
L 162.92162 426.346815 
L 164.632977 424.880056 
L 166.41564 423.64549 
L 168.305263 422.609804 
L 170.408805 421.71596 
L 173.011493 420.863387 
L 181.853502 418.173111 
L 184.028351 417.152564 
L 185.98928 415.98984 
L 187.84325 414.635232 
L 189.661566 413.030127 
L 191.479882 411.120499 
L 193.298199 408.88149 
L 195.223475 406.146949 
L 198.004429 402.187052 
L 199.3236 400.727649 
L 200.64277 399.5995 
L 202.104554 398.650237 
L 204.02983 397.685392 
L 206.810785 396.550195 
L 214.440582 393.570359 
L 216.722391 392.349127 
L 218.754627 391.010349 
L 220.679903 389.473951 
L 222.533873 387.708503 
L 224.352189 385.669501 
L 226.170505 383.291838 
L 227.988822 380.545218 
L 232.980278 372.676703 
L 234.299449 371.271579 
L 235.975152 369.832891 
L 238.399574 368.061106 
L 241.501408 366.089491 
L 245.245 363.817613 
L 245.245 363.817613 
" style="fill:none;stroke:#17becf;stroke-linecap:square;stroke-opacity:0.7;stroke-width:1.5;"/>
   </g>
   <g id="patch_13">
    <path d="M 65.59 505.24 
L 65.59 301.66 
" style="fill:none;stroke:#000000;stroke-linecap:square;stroke-linejoin:miter;stroke-width:0.8;"/>
   </g>
   <g id="patch_14">
    <path d="M 253.8 505.24 
L 253.8 301.66 
" style="fill:none;stroke:#000000;stroke-linecap:square;stroke-linejoin:miter;stroke-width:0.8;"/>
   </g>
   <g id="patch_15">
    <path d="M 65.59 505.24 
L 253.8 505.24 
" style="fill:none;stroke:#000000;stroke-linecap:square;stroke-linejoin:miter;stroke-width:0.8;"/>
   </g>
   <g id="patch_16">
    <path d="M 65.59 301.66 
L 253.8 301.66 
" style="fill:none;stroke:#000000;stroke-linecap:square;stroke-linejoin:miter;stroke-width:0.8;"/>
   </g>
   <g id="text_27">
    <!-- z (m) -->
    <g transform="translate(144.112812 295.66)scale(0.12 -0.12)">
     <defs>
      <path d="M 353 3500 
L 3084 3500 
L 3084 2975 
L 922 459 
L 3084 459 
L 3084 0 
L 275 0 
L 275 525 
L 2438 3041 
L 353 3041 
L 353 3500 
z
" id="DejaVuSans-7a" transform="scale(0.015625)"/>
     </defs>
     <use xlink:href="#DejaVuSans-7a"/>
     <use x="52.490234" xlink:href="#DejaVuSans-20"/>
     <use x="84.277344" xlink:href="#DejaVuSans-28"/>
     <use x="123.291016" xlink:href="#DejaVuSans-6d"/>
     <use x="220.703125" xlink:href="#DejaVuSans-29"/>
    </g>
   </g>
  </g>
  <g id="axes_4">
   <g id="patch_17">
    <path d="M 290.59 505.24 
L 478.8 505.24 
L 478.8 301.66 
L 290.59 301.66 
z
" style="fill:#ffffff;"/>
   </g>
   <g id="matplotlib.axis_7">
    <g id="xtick_16">
     <g id="line2d_78">
      <path clip-path="url(#p0a6b706075)" d="M 299.145 505.24 
L 299.145 301.66 
" style="fill:none;stroke:#b0b0b0;stroke-linecap:square;stroke-width:0.8;"/>
     </g>
     <g id="line2d_79">
      <g>
       <use style="stroke:#000000;stroke-width:0.8;" x="299.145" xlink:href="#ma0fb4e7426" y="505.24"/>
      </g>
     </g>
     <g id="text_28">
      <!-- 0 -->
      <g transform="translate(295.96375 519.838438)scale(0.1 -0.1)">
       <use xlink:href="#DejaVuSans-30"/>
      </g>
     </g>
    </g>
    <g id="xtick_17">
     <g id="line2d_80">
      <path clip-path="url(#p0a6b706075)" d="M 341.928913 505.24 
L 341.928913 301.66 
" style="fill:none;stroke:#b0b0b0;stroke-linecap:square;stroke-width:0.8;"/>
     </g>
     <g id="line2d_81">
      <g>
       <use style="stroke:#000000;stroke-width:0.8;" x="341.928913" xlink:href="#ma0fb4e7426" y="505.24"/>
      </g>
     </g>
     <g id="text_29">
      <!-- 5 -->
      <g transform="translate(338.747663 519.838438)scale(0.1 -0.1)">
       <use xlink:href="#DejaVuSans-35"/>
      </g>
     </g>
    </g>
    <g id="xtick_18">
     <g id="line2d_82">
      <path clip-path="url(#p0a6b706075)" d="M 384.712827 505.24 
L 384.712827 301.66 
" style="fill:none;stroke:#b0b0b0;stroke-linecap:square;stroke-width:0.8;"/>
     </g>
     <g id="line2d_83">
      <g>
       <use style="stroke:#000000;stroke-width:0.8;" x="384.712827" xlink:href="#ma0fb4e7426" y="505.24"/>
      </g>
     </g>
     <g id="text_30">
      <!-- 10 -->
      <g transform="translate(378.350327 519.838438)scale(0.1 -0.1)">
       <use xlink:href="#DejaVuSans-31"/>
       <use x="63.623047" xlink:href="#DejaVuSans-30"/>
      </g>
     </g>
    </g>
    <g id="xtick_19">
     <g id="line2d_84">
      <path clip-path="url(#p0a6b706075)" d="M 427.49674 505.24 
L 427.49674 301.66 
" style="fill:none;stroke:#b0b0b0;stroke-linecap:square;stroke-width:0.8;"/>
     </g>
     <g id="line2d_85">
      <g>
       <use style="stroke:#000000;stroke-width:0.8;" x="427.49674" xlink:href="#ma0fb4e7426" y="505.24"/>
      </g>
     </g>
     <g id="text_31">
      <!-- 15 -->
      <g transform="translate(421.13424 519.838438)scale(0.1 -0.1)">
       <use xlink:href="#DejaVuSans-31"/>
       <use x="63.623047" xlink:href="#DejaVuSans-35"/>
      </g>
     </g>
    </g>
    <g id="xtick_20">
     <g id="line2d_86">
      <path clip-path="url(#p0a6b706075)" d="M 470.280653 505.24 
L 470.280653 301.66 
" style="fill:none;stroke:#b0b0b0;stroke-linecap:square;stroke-width:0.8;"/>
     </g>
     <g id="line2d_87">
      <g>
       <use style="stroke:#000000;stroke-width:0.8;" x="470.280653" xlink:href="#ma0fb4e7426" y="505.24"/>
      </g>
     </g>
     <g id="text_32">
      <!-- 20 -->
      <g transform="translate(463.918153 519.838438)scale(0.1 -0.1)">
       <use xlink:href="#DejaVuSans-32"/>
       <use x="63.623047" xlink:href="#DejaVuSans-30"/>
      </g>
     </g>
    </g>
    <g id="text_33">
     <!-- Tiempo (s) -->
     <g transform="translate(358.1325 533.516563)scale(0.1 -0.1)">
      <use xlink:href="#DejaVuSans-54"/>
      <use x="57.958984" xlink:href="#DejaVuSans-69"/>
      <use x="85.742188" xlink:href="#DejaVuSans-65"/>
      <use x="147.265625" xlink:href="#DejaVuSans-6d"/>
      <use x="244.677734" xlink:href="#DejaVuSans-70"/>
      <use x="308.154297" xlink:href="#DejaVuSans-6f"/>
      <use x="369.335938" xlink:href="#DejaVuSans-20"/>
      <use x="401.123047" xlink:href="#DejaVuSans-28"/>
      <use x="440.136719" xlink:href="#DejaVuSans-73"/>
      <use x="492.236328" xlink:href="#DejaVuSans-29"/>
     </g>
    </g>
   </g>
   <g id="matplotlib.axis_8">
    <g id="ytick_17">
     <g id="line2d_88">
      <path clip-path="url(#p0a6b706075)" d="M 290.59 495.986364 
L 478.8 495.986364 
" style="fill:none;stroke:#b0b0b0;stroke-linecap:square;stroke-width:0.8;"/>
     </g>
     <g id="line2d_89">
      <g>
       <use style="stroke:#000000;stroke-width:0.8;" x="290.59" xlink:href="#mbbd4961f31" y="495.986364"/>
      </g>
     </g>
     <g id="text_34">
      <!-- 0 -->
      <g transform="translate(277.2275 499.785582)scale(0.1 -0.1)">
       <use xlink:href="#DejaVuSans-30"/>
      </g>
     </g>
    </g>
    <g id="ytick_18">
     <g id="line2d_90">
      <path clip-path="url(#p0a6b706075)" d="M 290.59 469.861157 
L 478.8 469.861157 
" style="fill:none;stroke:#b0b0b0;stroke-linecap:square;stroke-width:0.8;"/>
     </g>
     <g id="line2d_91">
      <g>
       <use style="stroke:#000000;stroke-width:0.8;" x="290.59" xlink:href="#mbbd4961f31" y="469.861157"/>
      </g>
     </g>
     <g id="text_35">
      <!-- 20 -->
      <g transform="translate(270.865 473.660376)scale(0.1 -0.1)">
       <use xlink:href="#DejaVuSans-32"/>
       <use x="63.623047" xlink:href="#DejaVuSans-30"/>
      </g>
     </g>
    </g>
    <g id="ytick_19">
     <g id="line2d_92">
      <path clip-path="url(#p0a6b706075)" d="M 290.59 443.73595 
L 478.8 443.73595 
" style="fill:none;stroke:#b0b0b0;stroke-linecap:square;stroke-width:0.8;"/>
     </g>
     <g id="line2d_93">
      <g>
       <use style="stroke:#000000;stroke-width:0.8;" x="290.59" xlink:href="#mbbd4961f31" y="443.73595"/>
      </g>
     </g>
     <g id="text_36">
      <!-- 40 -->
      <g transform="translate(270.865 447.535169)scale(0.1 -0.1)">
       <use xlink:href="#DejaVuSans-34"/>
       <use x="63.623047" xlink:href="#DejaVuSans-30"/>
      </g>
     </g>
    </g>
    <g id="ytick_20">
     <g id="line2d_94">
      <path clip-path="url(#p0a6b706075)" d="M 290.59 417.610744 
L 478.8 417.610744 
" style="fill:none;stroke:#b0b0b0;stroke-linecap:square;stroke-width:0.8;"/>
     </g>
     <g id="line2d_95">
      <g>
       <use style="stroke:#000000;stroke-width:0.8;" x="290.59" xlink:href="#mbbd4961f31" y="417.610744"/>
      </g>
     </g>
     <g id="text_37">
      <!-- 60 -->
      <g transform="translate(270.865 421.409963)scale(0.1 -0.1)">
       <defs>
        <path d="M 2113 2584 
Q 1688 2584 1439 2293 
Q 1191 2003 1191 1497 
Q 1191 994 1439 701 
Q 1688 409 2113 409 
Q 2538 409 2786 701 
Q 3034 994 3034 1497 
Q 3034 2003 2786 2293 
Q 2538 2584 2113 2584 
z
M 3366 4563 
L 3366 3988 
Q 3128 4100 2886 4159 
Q 2644 4219 2406 4219 
Q 1781 4219 1451 3797 
Q 1122 3375 1075 2522 
Q 1259 2794 1537 2939 
Q 1816 3084 2150 3084 
Q 2853 3084 3261 2657 
Q 3669 2231 3669 1497 
Q 3669 778 3244 343 
Q 2819 -91 2113 -91 
Q 1303 -91 875 529 
Q 447 1150 447 2328 
Q 447 3434 972 4092 
Q 1497 4750 2381 4750 
Q 2619 4750 2861 4703 
Q 3103 4656 3366 4563 
z
" id="DejaVuSans-36" transform="scale(0.015625)"/>
       </defs>
       <use xlink:href="#DejaVuSans-36"/>
       <use x="63.623047" xlink:href="#DejaVuSans-30"/>
      </g>
     </g>
    </g>
    <g id="ytick_21">
     <g id="line2d_96">
      <path clip-path="url(#p0a6b706075)" d="M 290.59 391.485537 
L 478.8 391.485537 
" style="fill:none;stroke:#b0b0b0;stroke-linecap:square;stroke-width:0.8;"/>
     </g>
     <g id="line2d_97">
      <g>
       <use style="stroke:#000000;stroke-width:0.8;" x="290.59" xlink:href="#mbbd4961f31" y="391.485537"/>
      </g>
     </g>
     <g id="text_38">
      <!-- 80 -->
      <g transform="translate(270.865 395.284756)scale(0.1 -0.1)">
       <defs>
        <path d="M 2034 2216 
Q 1584 2216 1326 1975 
Q 1069 1734 1069 1313 
Q 1069 891 1326 650 
Q 1584 409 2034 409 
Q 2484 409 2743 651 
Q 3003 894 3003 1313 
Q 3003 1734 2745 1975 
Q 2488 2216 2034 2216 
z
M 1403 2484 
Q 997 2584 770 2862 
Q 544 3141 544 3541 
Q 544 4100 942 4425 
Q 1341 4750 2034 4750 
Q 2731 4750 3128 4425 
Q 3525 4100 3525 3541 
Q 3525 3141 3298 2862 
Q 3072 2584 2669 2484 
Q 3125 2378 3379 2068 
Q 3634 1759 3634 1313 
Q 3634 634 3220 271 
Q 2806 -91 2034 -91 
Q 1263 -91 848 271 
Q 434 634 434 1313 
Q 434 1759 690 2068 
Q 947 2378 1403 2484 
z
M 1172 3481 
Q 1172 3119 1398 2916 
Q 1625 2713 2034 2713 
Q 2441 2713 2670 2916 
Q 2900 3119 2900 3481 
Q 2900 3844 2670 4047 
Q 2441 4250 2034 4250 
Q 1625 4250 1398 4047 
Q 1172 3844 1172 3481 
z
" id="DejaVuSans-38" transform="scale(0.015625)"/>
       </defs>
       <use xlink:href="#DejaVuSans-38"/>
       <use x="63.623047" xlink:href="#DejaVuSans-30"/>
      </g>
     </g>
    </g>
    <g id="ytick_22">
     <g id="line2d_98">
      <path clip-path="url(#p0a6b706075)" d="M 290.59 365.360331 
L 478.8 365.360331 
" style="fill:none;stroke:#b0b0b0;stroke-linecap:square;stroke-width:0.8;"/>
     </g>
     <g id="line2d_99">
      <g>
       <use style="stroke:#000000;stroke-width:0.8;" x="290.59" xlink:href="#mbbd4961f31" y="365.360331"/>
      </g>
     </g>
     <g id="text_39">
      <!-- 100 -->
      <g transform="translate(264.5025 369.15955)scale(0.1 -0.1)">
       <use xlink:href="#DejaVuSans-31"/>
       <use x="63.623047" xlink:href="#DejaVuSans-30"/>
       <use x="127.246094" xlink:href="#DejaVuSans-30"/>
      </g>
     </g>
    </g>
    <g id="ytick_23">
     <g id="line2d_100">
      <path clip-path="url(#p0a6b706075)" d="M 290.59 339.235124 
L 478.8 339.235124 
" style="fill:none;stroke:#b0b0b0;stroke-linecap:square;stroke-width:0.8;"/>
     </g>
     <g id="line2d_101">
      <g>
       <use style="stroke:#000000;stroke-width:0.8;" x="290.59" xlink:href="#mbbd4961f31" y="339.235124"/>
      </g>
     </g>
     <g id="text_40">
      <!-- 120 -->
      <g transform="translate(264.5025 343.034343)scale(0.1 -0.1)">
       <use xlink:href="#DejaVuSans-31"/>
       <use x="63.623047" xlink:href="#DejaVuSans-32"/>
       <use x="127.246094" xlink:href="#DejaVuSans-30"/>
      </g>
     </g>
    </g>
    <g id="ytick_24">
     <g id="line2d_102">
      <path clip-path="url(#p0a6b706075)" d="M 290.59 313.109918 
L 478.8 313.109918 
" style="fill:none;stroke:#b0b0b0;stroke-linecap:square;stroke-width:0.8;"/>
     </g>
     <g id="line2d_103">
      <g>
       <use style="stroke:#000000;stroke-width:0.8;" x="290.59" xlink:href="#mbbd4961f31" y="313.109918"/>
      </g>
     </g>
     <g id="text_41">
      <!-- 140 -->
      <g transform="translate(264.5025 316.909136)scale(0.1 -0.1)">
       <use xlink:href="#DejaVuSans-31"/>
       <use x="63.623047" xlink:href="#DejaVuSans-34"/>
       <use x="127.246094" xlink:href="#DejaVuSans-30"/>
      </g>
     </g>
    </g>
   </g>
   <g id="line2d_104">
    <path clip-path="url(#p0a6b706075)" d="M 299.145 495.986364 
L 342.071526 495.986364 
L 342.784592 493.748539 
L 343.283737 492.925338 
L 343.925496 492.298901 
L 344.638561 491.938818 
L 345.601199 491.726855 
L 349.095219 491.361243 
L 364.925267 491.291461 
L 470.245 490.920847 
L 470.245 490.920847 
" style="fill:none;stroke:#1f77b4;stroke-linecap:square;stroke-opacity:0.7;stroke-width:1.5;"/>
   </g>
   <g id="line2d_105">
    <path clip-path="url(#p0a6b706075)" d="M 299.145 495.986364 
L 302.53206 495.875571 
L 304.421683 495.5819 
L 306.168692 495.08217 
L 307.808742 494.379407 
L 309.377486 493.458522 
L 311.017536 492.225036 
L 315.188967 488.987024 
L 317.684696 487.360708 
L 320.964796 485.520106 
L 325.207534 483.365234 
L 328.487634 481.949696 
L 335.511326 479.215276 
L 342.10718 476.930435 
L 343.390697 473.043853 
L 343.782883 472.497562 
L 344.781174 471.780352 
L 345.315973 471.354279 
L 346.70645 470.972191 
L 347.419516 470.799229 
L 347.954314 470.368283 
L 348.881299 469.551938 
L 349.237832 469.419388 
L 349.665671 468.910463 
L 350.271776 468.23958 
L 350.949188 467.840636 
L 351.876173 466.866315 
L 352.232706 466.726059 
L 352.696198 466.162814 
L 353.230997 465.59588 
L 353.979716 465.129273 
L 354.728434 464.371751 
L 355.298886 464.097356 
L 356.083258 463.470594 
L 356.404137 463.350015 
L 356.831976 462.846119 
L 357.473735 462.106386 
L 358.29376 461.559532 
L 358.899866 460.9617 
L 359.470318 460.664856 
L 360.646875 459.412094 
L 360.932101 459.280093 
L 362.037353 458.528302 
L 362.358232 458.236718 
L 363.392176 457.063573 
L 363.748709 456.93496 
L 365.567025 455.370484 
L 366.101824 454.804685 
L 366.81489 454.389912 
L 367.456648 453.84068 
L 367.920141 453.631867 
L 368.45494 452.910816 
L 368.954085 452.370672 
L 369.77411 451.861882 
L 370.308909 451.459345 
L 370.701095 451.307891 
L 371.128934 450.780898 
L 371.770693 450.043466 
L 372.519411 449.577415 
L 373.16117 448.96252 
L 373.695969 448.700408 
L 374.979486 447.411588 
L 375.336019 447.161719 
L 376.049084 446.622957 
L 376.369964 446.5125 
L 376.762149 446.059045 
L 377.510868 445.166128 
L 378.259586 444.716354 
L 378.865692 444.209888 
L 379.293531 444.03358 
L 379.757023 443.426355 
L 380.363129 442.714808 
L 381.25446 442.146801 
L 381.717953 441.830099 
L 382.110139 441.680592 
L 382.573631 441.121334 
L 383.144083 440.505481 
L 383.857148 440.061282 
L 384.64152 439.242347 
L 385.105013 439.021642 
L 385.639811 438.286175 
L 386.138957 437.746106 
L 386.958982 437.250326 
L 387.458128 436.878421 
L 387.92162 436.676138 
L 388.456419 435.983485 
L 388.955565 435.489717 
L 389.632977 435.12421 
L 390.239082 434.641617 
L 390.738228 434.418573 
L 391.950439 433.339909 
L 392.271318 433.091403 
L 393.233956 432.1692 
L 393.519182 432.049338 
L 393.911368 431.58102 
L 394.624433 430.733631 
L 395.444458 430.230037 
L 395.943604 429.844776 
L 396.44275 429.615816 
L 397.120161 428.740759 
L 397.512347 428.447518 
L 397.904533 428.28552 
L 398.474985 427.596695 
L 398.902825 427.250183 
L 399.330664 427.066393 
L 399.829809 426.404427 
L 400.364608 425.791636 
L 401.3629 425.133136 
L 401.755085 424.902549 
L 402.111618 424.764219 
L 402.539457 424.240829 
L 403.181216 423.489837 
L 404.036894 422.94649 
L 404.53604 422.55859 
L 404.999532 422.355623 
L 405.498678 421.685227 
L 406.033477 421.07386 
L 406.996115 420.452447 
L 407.423954 420.208186 
L 407.744833 420.089447 
L 408.172672 419.590919 
L 408.814431 418.856157 
L 409.598803 418.342859 
L 410.276215 417.666178 
L 410.77536 417.421667 
L 411.345813 416.619073 
L 411.809305 416.126628 
L 412.62933 415.635483 
L 413.128476 415.277886 
L 413.556315 415.101138 
L 414.019807 414.509098 
L 414.590259 413.864983 
L 415.517244 413.28385 
L 415.945083 413.018976 
L 416.337269 412.865501 
L 416.836415 412.273959 
L 417.371214 411.762215 
L 417.941666 411.46113 
L 418.904304 410.508039 
L 419.18953 410.395255 
L 419.581716 409.922991 
L 420.330434 409.003904 
L 421.186113 408.487885 
L 421.649605 408.183386 
L 422.041791 408.031173 
L 422.46963 407.505126 
L 423.111389 406.769313 
L 423.860107 406.301301 
L 424.501866 405.682492 
L 425.072318 405.380414 
L 426.213223 404.160111 
L 426.498449 404.041093 
L 428.209805 402.605527 
L 428.851564 401.81564 
L 429.921162 401.105532 
L 430.277694 400.950458 
L 430.56292 400.835804 
L 430.99076 400.343152 
L 431.632518 399.622866 
L 432.345583 399.184721 
L 433.094302 398.392088 
L 433.629101 398.117848 
L 434.876965 396.819862 
L 435.197844 396.624649 
L 436.053523 395.984045 
L 436.338749 395.862923 
L 436.766588 395.364054 
L 437.408347 394.660079 
L 438.157065 394.220472 
L 438.727517 393.746557 
L 439.226663 393.522497 
L 439.832768 392.733347 
L 440.260607 392.35272 
L 440.795406 392.085095 
L 441.758044 391.191701 
L 442.04327 391.069316 
L 442.435456 390.591652 
L 443.148522 389.70687 
L 444.146813 389.045462 
L 444.538999 388.815962 
L 444.895531 388.676565 
L 445.32337 388.152707 
L 445.965129 387.404441 
L 446.856461 386.832325 
L 447.319953 386.500215 
L 447.747792 386.32294 
L 448.211285 385.719693 
L 448.81739 385.021442 
L 449.637415 384.512517 
L 450.172214 384.106187 
L 450.600053 383.927487 
L 451.099199 383.290653 
L 451.633998 382.719705 
L 452.347063 382.284036 
L 453.060128 381.595188 
L 453.523621 381.379956 
L 454.022766 380.687599 
L 454.557565 380.056705 
L 455.698469 379.29637 
L 456.055002 379.184047 
L 456.340228 379.015744 
L 456.839374 378.363928 
L 457.374173 377.764178 
L 458.265504 377.195349 
L 458.728997 376.864031 
L 459.156836 376.688465 
L 459.620328 376.094725 
L 460.19078 375.4407 
L 461.046459 374.881047 
L 461.581258 374.438839 
L 462.04475 374.231076 
L 462.543896 373.549155 
L 463.078695 372.922208 
L 464.183946 372.183326 
L 464.540478 372.050896 
L 464.825704 371.911352 
L 465.253543 371.394211 
L 465.895302 370.678567 
L 466.572714 370.280655 
L 467.321433 369.538556 
L 467.784925 369.327625 
L 468.284071 368.642034 
L 468.81887 368.015416 
L 469.888467 367.301559 
L 470.245 367.137288 
L 470.245 367.137288 
" style="fill:none;stroke:#d62728;stroke-linecap:square;stroke-opacity:0.7;stroke-width:1.5;"/>
   </g>
   <g id="line2d_106">
    <path clip-path="url(#p0a6b706075)" d="M 299.145 495.986364 
L 303.566004 495.875639 
L 304.849522 495.5508 
L 306.275652 494.948716 
L 307.773089 494.072138 
L 309.413139 492.849514 
L 312.907159 490.118433 
L 314.261983 489.428397 
L 315.65246 488.967504 
L 317.29251 488.669728 
L 320.394344 488.37926 
L 327.097157 487.778917 
L 328.6659 487.289745 
L 330.19899 486.575017 
L 332.15992 485.390416 
L 338.577507 481.338953 
L 339.932331 480.888774 
L 341.287155 480.680162 
L 342.10718 480.520617 
L 342.891551 478.056142 
L 343.248084 477.541118 
L 343.568963 477.444288 
L 343.925496 477.241156 
L 344.888134 476.572694 
L 345.743812 476.534497 
L 348.66738 476.418845 
L 350.521349 476.144428 
L 352.268359 475.673078 
L 353.658836 475.069197 
L 355.084967 474.198995 
L 356.65371 472.97241 
L 361.181674 469.243652 
L 364.105242 467.193044 
L 365.780945 466.268763 
L 367.242729 465.713513 
L 368.847125 465.348423 
L 371.592427 465.007948 
L 373.874235 464.625544 
L 375.442979 464.135032 
L 376.869109 463.448801 
L 378.29524 462.510655 
L 379.899636 461.173833 
L 382.074485 459.368809 
L 383.286696 458.672202 
L 384.427601 458.271628 
L 385.604158 458.094763 
L 389.062524 457.7801 
L 391.09476 457.653308 
L 392.485238 457.515862 
L 393.804408 457.157061 
L 395.194885 456.541267 
L 396.692322 455.629899 
L 398.439332 454.285067 
L 400.578528 452.65973 
L 401.862045 451.975777 
L 403.145563 451.548233 
L 404.53604 451.322348 
L 406.461316 451.261355 
L 410.026642 451.12589 
L 411.524079 450.806497 
L 413.021516 450.255185 
L 414.590259 449.436095 
L 416.337269 448.259293 
L 419.474756 446.073597 
L 420.900887 445.408503 
L 422.46963 444.924065 
L 424.680132 444.503653 
L 427.817619 443.886974 
L 429.493323 443.307724 
L 431.275986 442.443757 
L 433.236915 441.237915 
L 438.406638 437.882296 
L 440.082341 437.23064 
L 442.36415 436.607343 
L 445.64425 435.69228 
L 447.462566 434.929478 
L 449.601762 433.771312 
L 452.240103 432.07883 
L 455.199324 430.214583 
L 456.803721 429.48377 
L 458.65769 428.892852 
L 464.219599 427.296888 
L 466.002262 426.423331 
L 468.212764 425.074051 
L 470.245 423.670046 
L 470.245 423.670046 
" style="fill:none;stroke:#bcbd22;stroke-linecap:square;stroke-opacity:0.7;stroke-width:1.5;"/>
   </g>
   <g id="line2d_107">
    <path clip-path="url(#p0a6b706075)" d="M 299.145 495.986364 
L 300.57113 495.882576 
L 301.391155 495.592265 
L 302.104221 495.092742 
L 302.959899 494.184559 
L 303.886884 493.259778 
L 304.671255 492.805274 
L 305.59824 492.531976 
L 308.735727 491.831384 
L 309.662712 491.226657 
L 312.015827 489.314147 
L 321.036102 481.223139 
L 334.869568 468.556495 
L 342.10718 461.730396 
L 343.283737 456.846602 
L 343.74723 455.811948 
L 344.282029 455.216086 
L 344.852481 454.512757 
L 345.779466 453.262192 
L 346.171651 453.116077 
L 347.562129 452.872466 
L 348.631726 452.350684 
L 349.701324 451.579769 
L 350.735269 450.557843 
L 352.090093 448.874926 
L 355.762379 444.163524 
L 358.151147 441.700904 
L 360.575569 439.077816 
L 378.616119 418.13595 
L 418.512118 371.429763 
L 470.245 310.913636 
L 470.245 310.913636 
" style="fill:none;stroke:#2ca02c;stroke-linecap:square;stroke-opacity:0.7;stroke-width:1.5;"/>
   </g>
   <g id="line2d_108">
    <path clip-path="url(#p0a6b706075)" d="M 299.145 495.986364 
L 303.423391 495.879348 
L 305.277361 495.542702 
L 307.594823 494.880151 
L 310.304471 493.872868 
L 317.007284 490.995842 
L 319.859545 489.578168 
L 323.068338 487.712472 
L 329.592885 483.624856 
L 332.979945 481.610918 
L 335.44002 480.424704 
L 339.718411 478.669401 
L 342.10718 477.630021 
L 342.962858 474.634388 
L 343.497657 473.610317 
L 344.032456 473.04731 
L 344.674214 472.720831 
L 346.100345 472.05737 
L 347.062983 471.333034 
L 348.096927 470.260088 
L 349.451751 468.512893 
L 352.268359 464.717359 
L 352.838811 464.462854 
L 353.58753 464.408295 
L 355.01366 464.262426 
L 356.083258 463.883335 
L 357.259816 463.217403 
L 358.543333 462.222838 
L 359.898157 460.883825 
L 361.146021 459.685581 
L 361.859086 459.33164 
L 362.536498 459.241218 
L 363.356523 459.087913 
L 366.957503 458.203379 
L 373.695969 456.865332 
L 376.833456 456.118463 
L 379.186571 455.322559 
L 381.432727 454.327286 
L 383.607576 453.114665 
L 386.067651 451.768199 
L 388.313806 450.794883 
L 390.559961 450.062673 
L 392.84177 449.554299 
L 395.587071 449.189108 
L 399.61589 448.887676 
L 408.386592 448.342207 
L 411.167546 447.837085 
L 413.556315 447.184268 
L 415.552897 446.409419 
L 417.44252 445.434122 
L 419.29649 444.221863 
L 421.007846 443.103613 
L 421.720912 442.961312 
L 422.46963 442.842705 
L 423.182695 442.481345 
L 425.999303 440.728819 
L 427.033248 440.474446 
L 429.635936 440.02346 
L 430.812493 439.408758 
L 431.739478 439.013208 
L 432.559503 438.921286 
L 433.343875 438.768804 
L 434.128247 438.390259 
L 434.983925 437.721868 
L 435.91091 436.699239 
L 436.980507 435.156877 
L 437.800532 434.084577 
L 438.335331 433.771168 
L 439.369276 433.530253 
L 440.866713 433.046853 
L 442.720682 432.210339 
L 444.824225 431.014181 
L 447.07038 429.474615 
L 449.673068 427.403224 
L 454.771485 423.262806 
L 455.555856 423.052033 
L 456.981987 422.796199 
L 459.834248 421.73636 
L 462.04475 421.40527 
L 463.114348 420.910184 
L 464.255252 420.128859 
L 465.467463 419.017516 
L 466.75098 417.528768 
L 468.177111 415.512012 
L 469.567588 413.577113 
L 470.245 413.024916 
L 470.245 413.024916 
" style="fill:none;stroke:#17becf;stroke-linecap:square;stroke-opacity:0.7;stroke-width:1.5;"/>
   </g>
   <g id="patch_18">
    <path d="M 290.59 505.24 
L 290.59 301.66 
" style="fill:none;stroke:#000000;stroke-linecap:square;stroke-linejoin:miter;stroke-width:0.8;"/>
   </g>
   <g id="patch_19">
    <path d="M 478.8 505.24 
L 478.8 301.66 
" style="fill:none;stroke:#000000;stroke-linecap:square;stroke-linejoin:miter;stroke-width:0.8;"/>
   </g>
   <g id="patch_20">
    <path d="M 290.59 505.24 
L 478.8 505.24 
" style="fill:none;stroke:#000000;stroke-linecap:square;stroke-linejoin:miter;stroke-width:0.8;"/>
   </g>
   <g id="patch_21">
    <path d="M 290.59 301.66 
L 478.8 301.66 
" style="fill:none;stroke:#000000;stroke-linecap:square;stroke-linejoin:miter;stroke-width:0.8;"/>
   </g>
   <g id="text_42">
    <!-- $\psi$ (rad) -->
    <g transform="translate(364.175 295.66)scale(0.12 -0.12)">
     <defs>
      <path d="M 1591 -78 
Q 891 38 616 341 
Q 278 713 425 1472 
L 819 3500 
L 1400 3500 
L 1009 1494 
Q 900 922 1119 684 
Q 1313 478 1691 434 
L 2284 3500 
L 2856 3500 
L 2263 438 
Q 2681 481 2928 688 
Q 3247 950 3353 1497 
L 3741 3500 
L 4322 3500 
L 3928 1475 
Q 3775 688 3300 344 
Q 2872 34 2163 -75 
L 1919 -1331 
L 1347 -1331 
L 1591 -78 
z
" id="DejaVuSans-Oblique-3c8" transform="scale(0.015625)"/>
      <path d="M 2631 2963 
Q 2534 3019 2420 3045 
Q 2306 3072 2169 3072 
Q 1681 3072 1420 2755 
Q 1159 2438 1159 1844 
L 1159 0 
L 581 0 
L 581 3500 
L 1159 3500 
L 1159 2956 
Q 1341 3275 1631 3429 
Q 1922 3584 2338 3584 
Q 2397 3584 2469 3576 
Q 2541 3569 2628 3553 
L 2631 2963 
z
" id="DejaVuSans-72" transform="scale(0.015625)"/>
      <path d="M 2194 1759 
Q 1497 1759 1228 1600 
Q 959 1441 959 1056 
Q 959 750 1161 570 
Q 1363 391 1709 391 
Q 2188 391 2477 730 
Q 2766 1069 2766 1631 
L 2766 1759 
L 2194 1759 
z
M 3341 1997 
L 3341 0 
L 2766 0 
L 2766 531 
Q 2569 213 2275 61 
Q 1981 -91 1556 -91 
Q 1019 -91 701 211 
Q 384 513 384 1019 
Q 384 1609 779 1909 
Q 1175 2209 1959 2209 
L 2766 2209 
L 2766 2266 
Q 2766 2663 2505 2880 
Q 2244 3097 1772 3097 
Q 1472 3097 1187 3025 
Q 903 2953 641 2809 
L 641 3341 
Q 956 3463 1253 3523 
Q 1550 3584 1831 3584 
Q 2591 3584 2966 3190 
Q 3341 2797 3341 1997 
z
" id="DejaVuSans-61" transform="scale(0.015625)"/>
      <path d="M 2906 2969 
L 2906 4863 
L 3481 4863 
L 3481 0 
L 2906 0 
L 2906 525 
Q 2725 213 2448 61 
Q 2172 -91 1784 -91 
Q 1150 -91 751 415 
Q 353 922 353 1747 
Q 353 2572 751 3078 
Q 1150 3584 1784 3584 
Q 2172 3584 2448 3432 
Q 2725 3281 2906 2969 
z
M 947 1747 
Q 947 1113 1208 752 
Q 1469 391 1925 391 
Q 2381 391 2643 752 
Q 2906 1113 2906 1747 
Q 2906 2381 2643 2742 
Q 2381 3103 1925 3103 
Q 1469 3103 1208 2742 
Q 947 2381 947 1747 
z
" id="DejaVuSans-64" transform="scale(0.015625)"/>
     </defs>
     <use transform="translate(0 0.015625)" xlink:href="#DejaVuSans-Oblique-3c8"/>
     <use transform="translate(65.966797 0.015625)" xlink:href="#DejaVuSans-20"/>
     <use transform="translate(97.753906 0.015625)" xlink:href="#DejaVuSans-28"/>
     <use transform="translate(136.767578 0.015625)" xlink:href="#DejaVuSans-72"/>
     <use transform="translate(177.880859 0.015625)" xlink:href="#DejaVuSans-61"/>
     <use transform="translate(239.160156 0.015625)" xlink:href="#DejaVuSans-64"/>
     <use transform="translate(302.636719 0.015625)" xlink:href="#DejaVuSans-29"/>
    </g>
   </g>
  </g>
  <g id="legend_1">
   <g id="patch_22">
    <path d="M 488.398438 326.195312 
L 569 326.195312 
Q 571 326.195312 571 324.195312 
L 571 251.804688 
Q 571 249.804688 569 249.804688 
L 488.398438 249.804688 
Q 486.398438 249.804688 486.398438 251.804688 
L 486.398438 324.195312 
Q 486.398438 326.195312 488.398438 326.195312 
z
" style="fill:#ffffff;opacity:0.8;stroke:#cccccc;stroke-linejoin:miter;"/>
   </g>
   <g id="line2d_109">
    <path d="M 490.398438 257.903125 
L 510.398438 257.903125 
" style="fill:none;stroke:#1f77b4;stroke-linecap:square;stroke-opacity:0.7;stroke-width:1.5;"/>
   </g>
   <g id="line2d_110"/>
   <g id="text_43">
    <!-- DSLPID -->
    <g transform="translate(518.398438 261.403125)scale(0.1 -0.1)">
     <defs>
      <path d="M 1259 4147 
L 1259 519 
L 2022 519 
Q 2988 519 3436 956 
Q 3884 1394 3884 2338 
Q 3884 3275 3436 3711 
Q 2988 4147 2022 4147 
L 1259 4147 
z
M 628 4666 
L 1925 4666 
Q 3281 4666 3915 4102 
Q 4550 3538 4550 2338 
Q 4550 1131 3912 565 
Q 3275 0 1925 0 
L 628 0 
L 628 4666 
z
" id="DejaVuSans-44" transform="scale(0.015625)"/>
      <path d="M 3425 4513 
L 3425 3897 
Q 3066 4069 2747 4153 
Q 2428 4238 2131 4238 
Q 1616 4238 1336 4038 
Q 1056 3838 1056 3469 
Q 1056 3159 1242 3001 
Q 1428 2844 1947 2747 
L 2328 2669 
Q 3034 2534 3370 2195 
Q 3706 1856 3706 1288 
Q 3706 609 3251 259 
Q 2797 -91 1919 -91 
Q 1588 -91 1214 -16 
Q 841 59 441 206 
L 441 856 
Q 825 641 1194 531 
Q 1563 422 1919 422 
Q 2459 422 2753 634 
Q 3047 847 3047 1241 
Q 3047 1584 2836 1778 
Q 2625 1972 2144 2069 
L 1759 2144 
Q 1053 2284 737 2584 
Q 422 2884 422 3419 
Q 422 4038 858 4394 
Q 1294 4750 2059 4750 
Q 2388 4750 2728 4690 
Q 3069 4631 3425 4513 
z
" id="DejaVuSans-53" transform="scale(0.015625)"/>
      <path d="M 628 4666 
L 1259 4666 
L 1259 531 
L 3531 531 
L 3531 0 
L 628 0 
L 628 4666 
z
" id="DejaVuSans-4c" transform="scale(0.015625)"/>
      <path d="M 1259 4147 
L 1259 2394 
L 2053 2394 
Q 2494 2394 2734 2622 
Q 2975 2850 2975 3272 
Q 2975 3691 2734 3919 
Q 2494 4147 2053 4147 
L 1259 4147 
z
M 628 4666 
L 2053 4666 
Q 2838 4666 3239 4311 
Q 3641 3956 3641 3272 
Q 3641 2581 3239 2228 
Q 2838 1875 2053 1875 
L 1259 1875 
L 1259 0 
L 628 0 
L 628 4666 
z
" id="DejaVuSans-50" transform="scale(0.015625)"/>
      <path d="M 628 4666 
L 1259 4666 
L 1259 0 
L 628 0 
L 628 4666 
z
" id="DejaVuSans-49" transform="scale(0.015625)"/>
     </defs>
     <use xlink:href="#DejaVuSans-44"/>
     <use x="77.001953" xlink:href="#DejaVuSans-53"/>
     <use x="140.478516" xlink:href="#DejaVuSans-4c"/>
     <use x="196.191406" xlink:href="#DejaVuSans-50"/>
     <use x="256.494141" xlink:href="#DejaVuSans-49"/>
     <use x="285.986328" xlink:href="#DejaVuSans-44"/>
    </g>
   </g>
   <g id="line2d_111">
    <path d="M 490.398438 272.58125 
L 510.398438 272.58125 
" style="fill:none;stroke:#d62728;stroke-linecap:square;stroke-opacity:0.7;stroke-width:1.5;"/>
   </g>
   <g id="line2d_112"/>
   <g id="text_44">
    <!-- ANN -->
    <g transform="translate(518.398438 276.08125)scale(0.1 -0.1)">
     <defs>
      <path d="M 2188 4044 
L 1331 1722 
L 3047 1722 
L 2188 4044 
z
M 1831 4666 
L 2547 4666 
L 4325 0 
L 3669 0 
L 3244 1197 
L 1141 1197 
L 716 0 
L 50 0 
L 1831 4666 
z
" id="DejaVuSans-41" transform="scale(0.015625)"/>
      <path d="M 628 4666 
L 1478 4666 
L 3547 763 
L 3547 4666 
L 4159 4666 
L 4159 0 
L 3309 0 
L 1241 3903 
L 1241 0 
L 628 0 
L 628 4666 
z
" id="DejaVuSans-4e" transform="scale(0.015625)"/>
     </defs>
     <use xlink:href="#DejaVuSans-41"/>
     <use x="68.408203" xlink:href="#DejaVuSans-4e"/>
     <use x="143.212891" xlink:href="#DejaVuSans-4e"/>
    </g>
   </g>
   <g id="line2d_113">
    <path d="M 490.398438 287.259375 
L 510.398438 287.259375 
" style="fill:none;stroke:#bcbd22;stroke-linecap:square;stroke-opacity:0.7;stroke-width:1.5;"/>
   </g>
   <g id="line2d_114"/>
   <g id="text_45">
    <!-- LSTM -->
    <g transform="translate(518.398438 290.759375)scale(0.1 -0.1)">
     <defs>
      <path d="M 628 4666 
L 1569 4666 
L 2759 1491 
L 3956 4666 
L 4897 4666 
L 4897 0 
L 4281 0 
L 4281 4097 
L 3078 897 
L 2444 897 
L 1241 4097 
L 1241 0 
L 628 0 
L 628 4666 
z
" id="DejaVuSans-4d" transform="scale(0.015625)"/>
     </defs>
     <use xlink:href="#DejaVuSans-4c"/>
     <use x="55.712891" xlink:href="#DejaVuSans-53"/>
     <use x="119.189453" xlink:href="#DejaVuSans-54"/>
     <use x="180.273438" xlink:href="#DejaVuSans-4d"/>
    </g>
   </g>
   <g id="line2d_115">
    <path d="M 490.398438 301.9375 
L 510.398438 301.9375 
" style="fill:none;stroke:#2ca02c;stroke-linecap:square;stroke-opacity:0.7;stroke-width:1.5;"/>
   </g>
   <g id="line2d_116"/>
   <g id="text_46">
    <!-- LSTMCNN -->
    <g transform="translate(518.398438 305.4375)scale(0.1 -0.1)">
     <defs>
      <path d="M 4122 4306 
L 4122 3641 
Q 3803 3938 3442 4084 
Q 3081 4231 2675 4231 
Q 1875 4231 1450 3742 
Q 1025 3253 1025 2328 
Q 1025 1406 1450 917 
Q 1875 428 2675 428 
Q 3081 428 3442 575 
Q 3803 722 4122 1019 
L 4122 359 
Q 3791 134 3420 21 
Q 3050 -91 2638 -91 
Q 1578 -91 968 557 
Q 359 1206 359 2328 
Q 359 3453 968 4101 
Q 1578 4750 2638 4750 
Q 3056 4750 3426 4639 
Q 3797 4528 4122 4306 
z
" id="DejaVuSans-43" transform="scale(0.015625)"/>
     </defs>
     <use xlink:href="#DejaVuSans-4c"/>
     <use x="55.712891" xlink:href="#DejaVuSans-53"/>
     <use x="119.189453" xlink:href="#DejaVuSans-54"/>
     <use x="180.273438" xlink:href="#DejaVuSans-4d"/>
     <use x="266.552734" xlink:href="#DejaVuSans-43"/>
     <use x="336.376953" xlink:href="#DejaVuSans-4e"/>
     <use x="411.181641" xlink:href="#DejaVuSans-4e"/>
    </g>
   </g>
   <g id="line2d_117">
    <path d="M 490.398438 316.615625 
L 510.398438 316.615625 
" style="fill:none;stroke:#17becf;stroke-linecap:square;stroke-opacity:0.7;stroke-width:1.5;"/>
   </g>
   <g id="line2d_118"/>
   <g id="text_47">
    <!-- CLSTM -->
    <g transform="translate(518.398438 320.115625)scale(0.1 -0.1)">
     <use xlink:href="#DejaVuSans-43"/>
     <use x="69.824219" xlink:href="#DejaVuSans-4c"/>
     <use x="125.537109" xlink:href="#DejaVuSans-53"/>
     <use x="189.013672" xlink:href="#DejaVuSans-54"/>
     <use x="250.097656" xlink:href="#DejaVuSans-4d"/>
    </g>
   </g>
  </g>
 </g>
 <defs>
  <clipPath id="p9a28db05e1">
   <rect height="203.58" width="188.21" x="65.59" y="55.68"/>
  </clipPath>
  <clipPath id="pcd011c8467">
   <rect height="203.58" width="188.21" x="290.59" y="55.68"/>
  </clipPath>
  <clipPath id="pd01321f475">
   <rect height="203.58" width="188.21" x="65.59" y="301.66"/>
  </clipPath>
  <clipPath id="p0a6b706075">
   <rect height="203.58" width="188.21" x="290.59" y="301.66"/>
  </clipPath>
 </defs>
</svg>
