<?xml version="1.0" encoding="utf-8" standalone="no"?>
<!DOCTYPE svg PUBLIC "-//W3C//DTD SVG 1.1//EN"
  "http://www.w3.org/Graphics/SVG/1.1/DTD/svg11.dtd">
<svg height="576pt" version="1.1" viewBox="0 0 576 576" width="576pt" xmlns="http://www.w3.org/2000/svg" xmlns:xlink="http://www.w3.org/1999/xlink">
 <metadata>
  <rdf:RDF xmlns:cc="http://creativecommons.org/ns#" xmlns:dc="http://purl.org/dc/elements/1.1/" xmlns:rdf="http://www.w3.org/1999/02/22-rdf-syntax-ns#">
   <cc:Work>
    <dc:type rdf:resource="http://purl.org/dc/dcmitype/StillImage"/>
    <dc:date>2022-02-28T14:42:04.833229</dc:date>
    <dc:format>image/svg+xml</dc:format>
    <dc:creator>
     <cc:Agent>
      <dc:title>Matplotlib v3.4.3, https://matplotlib.org/</dc:title>
     </cc:Agent>
    </dc:creator>
   </cc:Work>
  </rdf:RDF>
 </metadata>
 <defs>
  <style type="text/css">*{stroke-linecap:butt;stroke-linejoin:round;}</style>
 </defs>
 <g id="figure_1">
  <g id="patch_1">
   <path d="M 0 576 
L 576 576 
L 576 0 
L 0 0 
z
" style="fill:#ffffff;"/>
  </g>
  <g id="patch_2">
   <path d="M 10.8 565.2 
L 565.2 565.2 
L 565.2 10.8 
L 10.8 10.8 
z
" style="fill:#ffffff;"/>
  </g>
  <g id="pane3d_1">
   <g id="patch_3">
    <path d="M 52.661023 428.502727 
L 235.742009 275.040614 
L 233.197008 53.720814 
L 41.354653 193.718627 
" style="fill:#f2f2f2;opacity:0.5;stroke:#f2f2f2;stroke-linejoin:miter;"/>
   </g>
  </g>
  <g id="pane3d_2">
   <g id="patch_4">
    <path d="M 235.742009 275.040614 
L 529.521668 360.430763 
L 540.005628 131.487856 
L 233.197008 53.720814 
" style="fill:#e6e6e6;opacity:0.5;stroke:#e6e6e6;stroke-linejoin:miter;"/>
   </g>
  </g>
  <g id="pane3d_3">
   <g id="patch_5">
    <path d="M 52.661023 428.502727 
L 364.08181 530.212756 
L 529.521668 360.430763 
L 235.742009 275.040614 
" style="fill:#ececec;opacity:0.5;stroke:#ececec;stroke-linejoin:miter;"/>
   </g>
  </g>
  <g id="axis3d_1">
   <g id="line2d_1">
    <path d="M 52.661023 428.502727 
L 364.08181 530.212756 
" style="fill:none;stroke:#000000;stroke-linecap:square;stroke-width:0.8;"/>
   </g>
   <g id="text_1">
    <!-- x (m) -->
    <g transform="translate(174.526236 511.624996)rotate(-341.912962)scale(0.1 -0.1)">
     <defs>
      <path d="M 3513 3500 
L 2247 1797 
L 3578 0 
L 2900 0 
L 1881 1375 
L 863 0 
L 184 0 
L 1544 1831 
L 300 3500 
L 978 3500 
L 1906 2253 
L 2834 3500 
L 3513 3500 
z
" id="DejaVuSans-78" transform="scale(0.015625)"/>
      <path id="DejaVuSans-20" transform="scale(0.015625)"/>
      <path d="M 1984 4856 
Q 1566 4138 1362 3434 
Q 1159 2731 1159 2009 
Q 1159 1288 1364 580 
Q 1569 -128 1984 -844 
L 1484 -844 
Q 1016 -109 783 600 
Q 550 1309 550 2009 
Q 550 2706 781 3412 
Q 1013 4119 1484 4856 
L 1984 4856 
z
" id="DejaVuSans-28" transform="scale(0.015625)"/>
      <path d="M 3328 2828 
Q 3544 3216 3844 3400 
Q 4144 3584 4550 3584 
Q 5097 3584 5394 3201 
Q 5691 2819 5691 2113 
L 5691 0 
L 5113 0 
L 5113 2094 
Q 5113 2597 4934 2840 
Q 4756 3084 4391 3084 
Q 3944 3084 3684 2787 
Q 3425 2491 3425 1978 
L 3425 0 
L 2847 0 
L 2847 2094 
Q 2847 2600 2669 2842 
Q 2491 3084 2119 3084 
Q 1678 3084 1418 2786 
Q 1159 2488 1159 1978 
L 1159 0 
L 581 0 
L 581 3500 
L 1159 3500 
L 1159 2956 
Q 1356 3278 1631 3431 
Q 1906 3584 2284 3584 
Q 2666 3584 2933 3390 
Q 3200 3197 3328 2828 
z
" id="DejaVuSans-6d" transform="scale(0.015625)"/>
      <path d="M 513 4856 
L 1013 4856 
Q 1481 4119 1714 3412 
Q 1947 2706 1947 2009 
Q 1947 1309 1714 600 
Q 1481 -109 1013 -844 
L 513 -844 
Q 928 -128 1133 580 
Q 1338 1288 1338 2009 
Q 1338 2731 1133 3434 
Q 928 4138 513 4856 
z
" id="DejaVuSans-29" transform="scale(0.015625)"/>
     </defs>
     <use xlink:href="#DejaVuSans-78"/>
     <use x="59.179688" xlink:href="#DejaVuSans-20"/>
     <use x="90.966797" xlink:href="#DejaVuSans-28"/>
     <use x="129.980469" xlink:href="#DejaVuSans-6d"/>
     <use x="227.392578" xlink:href="#DejaVuSans-29"/>
    </g>
   </g>
   <g id="Line3DCollection_1">
    <path d="M 71.522042 434.662736 
L 253.608544 280.233711 
L 251.818954 58.440935 
" style="fill:none;stroke:#b0b0b0;stroke-width:0.8;"/>
    <path d="M 115.10172 448.895859 
L 294.853807 292.22208 
L 294.826346 69.342055 
" style="fill:none;stroke:#b0b0b0;stroke-width:0.8;"/>
    <path d="M 159.344759 463.345635 
L 336.674724 304.37777 
L 338.460008 80.401916 
" style="fill:none;stroke:#b0b0b0;stroke-width:0.8;"/>
    <path d="M 204.26642 478.017049 
L 379.083433 316.704307 
L 382.733719 91.624012 
" style="fill:none;stroke:#b0b0b0;stroke-width:0.8;"/>
    <path d="M 249.882438 492.915241 
L 422.092413 329.20532 
L 427.661667 103.011937 
" style="fill:none;stroke:#b0b0b0;stroke-width:0.8;"/>
    <path d="M 296.209037 508.045508 
L 465.7145 341.884538 
L 473.258462 114.569395 
" style="fill:none;stroke:#b0b0b0;stroke-width:0.8;"/>
    <path d="M 343.262951 523.413316 
L 509.962898 354.745801 
L 519.539151 126.300201 
" style="fill:none;stroke:#b0b0b0;stroke-width:0.8;"/>
   </g>
   <g id="xtick_1">
    <g id="line2d_2">
     <path d="M 73.107641 433.317977 
L 68.34404 437.358025 
" style="fill:none;stroke:#000000;stroke-linecap:square;stroke-width:0.8;"/>
    </g>
    <g id="text_2">
     <!-- −0.6 -->
     <g transform="translate(51.866112 457.941574)scale(0.1 -0.1)">
      <defs>
       <path d="M 678 2272 
L 4684 2272 
L 4684 1741 
L 678 1741 
L 678 2272 
z
" id="DejaVuSans-2212" transform="scale(0.015625)"/>
       <path d="M 2034 4250 
Q 1547 4250 1301 3770 
Q 1056 3291 1056 2328 
Q 1056 1369 1301 889 
Q 1547 409 2034 409 
Q 2525 409 2770 889 
Q 3016 1369 3016 2328 
Q 3016 3291 2770 3770 
Q 2525 4250 2034 4250 
z
M 2034 4750 
Q 2819 4750 3233 4129 
Q 3647 3509 3647 2328 
Q 3647 1150 3233 529 
Q 2819 -91 2034 -91 
Q 1250 -91 836 529 
Q 422 1150 422 2328 
Q 422 3509 836 4129 
Q 1250 4750 2034 4750 
z
" id="DejaVuSans-30" transform="scale(0.015625)"/>
       <path d="M 684 794 
L 1344 794 
L 1344 0 
L 684 0 
L 684 794 
z
" id="DejaVuSans-2e" transform="scale(0.015625)"/>
       <path d="M 2113 2584 
Q 1688 2584 1439 2293 
Q 1191 2003 1191 1497 
Q 1191 994 1439 701 
Q 1688 409 2113 409 
Q 2538 409 2786 701 
Q 3034 994 3034 1497 
Q 3034 2003 2786 2293 
Q 2538 2584 2113 2584 
z
M 3366 4563 
L 3366 3988 
Q 3128 4100 2886 4159 
Q 2644 4219 2406 4219 
Q 1781 4219 1451 3797 
Q 1122 3375 1075 2522 
Q 1259 2794 1537 2939 
Q 1816 3084 2150 3084 
Q 2853 3084 3261 2657 
Q 3669 2231 3669 1497 
Q 3669 778 3244 343 
Q 2819 -91 2113 -91 
Q 1303 -91 875 529 
Q 447 1150 447 2328 
Q 447 3434 972 4092 
Q 1497 4750 2381 4750 
Q 2619 4750 2861 4703 
Q 3103 4656 3366 4563 
z
" id="DejaVuSans-36" transform="scale(0.015625)"/>
      </defs>
      <use xlink:href="#DejaVuSans-2212"/>
      <use x="83.789062" xlink:href="#DejaVuSans-30"/>
      <use x="147.412109" xlink:href="#DejaVuSans-2e"/>
      <use x="179.199219" xlink:href="#DejaVuSans-36"/>
     </g>
    </g>
   </g>
   <g id="xtick_2">
    <g id="line2d_3">
     <path d="M 116.667952 447.530715 
L 111.962486 451.632048 
" style="fill:none;stroke:#000000;stroke-linecap:square;stroke-width:0.8;"/>
    </g>
    <g id="text_3">
     <!-- −0.4 -->
     <g transform="translate(95.467124 472.318889)scale(0.1 -0.1)">
      <defs>
       <path d="M 2419 4116 
L 825 1625 
L 2419 1625 
L 2419 4116 
z
M 2253 4666 
L 3047 4666 
L 3047 1625 
L 3713 1625 
L 3713 1100 
L 3047 1100 
L 3047 0 
L 2419 0 
L 2419 1100 
L 313 1100 
L 313 1709 
L 2253 4666 
z
" id="DejaVuSans-34" transform="scale(0.015625)"/>
      </defs>
      <use xlink:href="#DejaVuSans-2212"/>
      <use x="83.789062" xlink:href="#DejaVuSans-30"/>
      <use x="147.412109" xlink:href="#DejaVuSans-2e"/>
      <use x="179.199219" xlink:href="#DejaVuSans-34"/>
     </g>
    </g>
   </g>
   <g id="xtick_3">
    <g id="line2d_4">
     <path d="M 160.890848 461.95964 
L 156.245845 466.123663 
" style="fill:none;stroke:#000000;stroke-linecap:square;stroke-width:0.8;"/>
    </g>
    <g id="text_4">
     <!-- −0.2 -->
     <g transform="translate(139.73302 486.915447)scale(0.1 -0.1)">
      <defs>
       <path d="M 1228 531 
L 3431 531 
L 3431 0 
L 469 0 
L 469 531 
Q 828 903 1448 1529 
Q 2069 2156 2228 2338 
Q 2531 2678 2651 2914 
Q 2772 3150 2772 3378 
Q 2772 3750 2511 3984 
Q 2250 4219 1831 4219 
Q 1534 4219 1204 4116 
Q 875 4013 500 3803 
L 500 4441 
Q 881 4594 1212 4672 
Q 1544 4750 1819 4750 
Q 2544 4750 2975 4387 
Q 3406 4025 3406 3419 
Q 3406 3131 3298 2873 
Q 3191 2616 2906 2266 
Q 2828 2175 2409 1742 
Q 1991 1309 1228 531 
z
" id="DejaVuSans-32" transform="scale(0.015625)"/>
      </defs>
      <use xlink:href="#DejaVuSans-2212"/>
      <use x="83.789062" xlink:href="#DejaVuSans-30"/>
      <use x="147.412109" xlink:href="#DejaVuSans-2e"/>
      <use x="179.199219" xlink:href="#DejaVuSans-32"/>
     </g>
    </g>
   </g>
   <g id="xtick_4">
    <g id="line2d_5">
     <path d="M 205.791562 476.609721 
L 201.20944 480.837883 
" style="fill:none;stroke:#000000;stroke-linecap:square;stroke-width:0.8;"/>
    </g>
    <g id="text_5">
     <!-- 0.0 -->
     <g transform="translate(188.868971 501.736303)scale(0.1 -0.1)">
      <use xlink:href="#DejaVuSans-30"/>
      <use x="63.623047" xlink:href="#DejaVuSans-2e"/>
      <use x="95.410156" xlink:href="#DejaVuSans-30"/>
     </g>
    </g>
   </g>
   <g id="xtick_5">
    <g id="line2d_6">
     <path d="M 251.385798 491.486084 
L 246.869065 495.779877 
" style="fill:none;stroke:#000000;stroke-linecap:square;stroke-width:0.8;"/>
    </g>
    <g id="text_6">
     <!-- 0.2 -->
     <g transform="translate(234.511088 516.786666)scale(0.1 -0.1)">
      <use xlink:href="#DejaVuSans-30"/>
      <use x="63.623047" xlink:href="#DejaVuSans-2e"/>
      <use x="95.410156" xlink:href="#DejaVuSans-32"/>
     </g>
    </g>
   </g>
   <g id="xtick_6">
    <g id="line2d_7">
     <path d="M 297.689751 506.59401 
L 293.241008 510.954975 
" style="fill:none;stroke:#000000;stroke-linecap:square;stroke-width:0.8;"/>
    </g>
    <g id="text_7">
     <!-- 0.4 -->
     <g transform="translate(280.865509 532.07191)scale(0.1 -0.1)">
      <use xlink:href="#DejaVuSans-30"/>
      <use x="63.623047" xlink:href="#DejaVuSans-2e"/>
      <use x="95.410156" xlink:href="#DejaVuSans-34"/>
     </g>
    </g>
   </g>
   <g id="xtick_7">
    <g id="line2d_8">
     <path d="M 344.720119 521.938949 
L 340.342068 526.368675 
" style="fill:none;stroke:#000000;stroke-linecap:square;stroke-width:0.8;"/>
    </g>
    <g id="text_8">
     <!-- 0.6 -->
     <g transform="translate(327.949039 547.597575)scale(0.1 -0.1)">
      <use xlink:href="#DejaVuSans-30"/>
      <use x="63.623047" xlink:href="#DejaVuSans-2e"/>
      <use x="95.410156" xlink:href="#DejaVuSans-36"/>
     </g>
    </g>
   </g>
  </g>
  <g id="axis3d_2">
   <g id="line2d_9">
    <path d="M 529.521668 360.430763 
L 364.08181 530.212756 
" style="fill:none;stroke:#000000;stroke-linecap:square;stroke-width:0.8;"/>
   </g>
   <g id="text_9">
    <!-- y (m) -->
    <g transform="translate(470.139263 480.978729)rotate(-45.742112)scale(0.1 -0.1)">
     <defs>
      <path d="M 2059 -325 
Q 1816 -950 1584 -1140 
Q 1353 -1331 966 -1331 
L 506 -1331 
L 506 -850 
L 844 -850 
Q 1081 -850 1212 -737 
Q 1344 -625 1503 -206 
L 1606 56 
L 191 3500 
L 800 3500 
L 1894 763 
L 2988 3500 
L 3597 3500 
L 2059 -325 
z
" id="DejaVuSans-79" transform="scale(0.015625)"/>
     </defs>
     <use xlink:href="#DejaVuSans-79"/>
     <use x="59.179688" xlink:href="#DejaVuSans-20"/>
     <use x="90.966797" xlink:href="#DejaVuSans-28"/>
     <use x="129.980469" xlink:href="#DejaVuSans-6d"/>
     <use x="227.392578" xlink:href="#DejaVuSans-29"/>
    </g>
   </g>
   <g id="Line3DCollection_2">
    <path d="M 65.34947 176.208302 
L 75.484039 409.372023 
L 384.785505 508.965671 
" style="fill:none;stroke:#b0b0b0;stroke-width:0.8;"/>
    <path d="M 96.6594 153.359742 
L 105.297502 384.381787 
L 411.796162 481.246093 
" style="fill:none;stroke:#b0b0b0;stroke-width:0.8;"/>
    <path d="M 127.101525 131.144466 
L 134.32006 360.054503 
L 438.052951 454.300168 
" style="fill:none;stroke:#b0b0b0;stroke-width:0.8;"/>
    <path d="M 156.71143 109.536505 
L 162.582773 336.364137 
L 463.586999 428.095953 
" style="fill:none;stroke:#b0b0b0;stroke-width:0.8;"/>
    <path d="M 185.522783 88.511292 
L 190.115097 313.285997 
L 488.427743 402.603239 
" style="fill:none;stroke:#b0b0b0;stroke-width:0.8;"/>
    <path d="M 213.567457 68.045567 
L 216.944982 290.796656 
L 512.60304 377.793437 
" style="fill:none;stroke:#b0b0b0;stroke-width:0.8;"/>
   </g>
   <g id="xtick_8">
    <g id="line2d_10">
     <path d="M 382.17965 508.126598 
L 390.003923 510.645978 
" style="fill:none;stroke:#000000;stroke-linecap:square;stroke-width:0.8;"/>
    </g>
    <g id="text_10">
     <!-- −0.004 -->
     <g transform="translate(379.098702 529.915719)scale(0.1 -0.1)">
      <use xlink:href="#DejaVuSans-2212"/>
      <use x="83.789062" xlink:href="#DejaVuSans-30"/>
      <use x="147.412109" xlink:href="#DejaVuSans-2e"/>
      <use x="179.199219" xlink:href="#DejaVuSans-30"/>
      <use x="242.822266" xlink:href="#DejaVuSans-30"/>
      <use x="306.445312" xlink:href="#DejaVuSans-34"/>
     </g>
    </g>
   </g>
   <g id="xtick_9">
    <g id="line2d_11">
     <path d="M 409.215762 480.430597 
L 416.963507 482.879155 
" style="fill:none;stroke:#000000;stroke-linecap:square;stroke-width:0.8;"/>
    </g>
    <g id="text_11">
     <!-- −0.002 -->
     <g transform="translate(405.935527 501.999315)scale(0.1 -0.1)">
      <use xlink:href="#DejaVuSans-2212"/>
      <use x="83.789062" xlink:href="#DejaVuSans-30"/>
      <use x="147.412109" xlink:href="#DejaVuSans-2e"/>
      <use x="179.199219" xlink:href="#DejaVuSans-30"/>
      <use x="242.822266" xlink:href="#DejaVuSans-30"/>
      <use x="306.445312" xlink:href="#DejaVuSans-32"/>
     </g>
    </g>
   </g>
   <g id="xtick_10">
    <g id="line2d_12">
     <path d="M 435.497612 453.507269 
L 443.170023 455.887951 
" style="fill:none;stroke:#000000;stroke-linecap:square;stroke-width:0.8;"/>
    </g>
    <g id="text_12">
     <!-- 0.000 -->
     <g transform="translate(436.212972 474.862275)scale(0.1 -0.1)">
      <use xlink:href="#DejaVuSans-30"/>
      <use x="63.623047" xlink:href="#DejaVuSans-2e"/>
      <use x="95.410156" xlink:href="#DejaVuSans-30"/>
      <use x="159.033203" xlink:href="#DejaVuSans-30"/>
      <use x="222.65625" xlink:href="#DejaVuSans-30"/>
     </g>
    </g>
   </g>
   <g id="xtick_11">
    <g id="line2d_13">
     <path d="M 461.056327 427.324724 
L 468.654587 429.640314 
" style="fill:none;stroke:#000000;stroke-linecap:square;stroke-width:0.8;"/>
    </g>
    <g id="text_13">
     <!-- 0.002 -->
     <g transform="translate(461.582293 448.472409)scale(0.1 -0.1)">
      <use xlink:href="#DejaVuSans-30"/>
      <use x="63.623047" xlink:href="#DejaVuSans-2e"/>
      <use x="95.410156" xlink:href="#DejaVuSans-30"/>
      <use x="159.033203" xlink:href="#DejaVuSans-30"/>
      <use x="222.65625" xlink:href="#DejaVuSans-32"/>
     </g>
    </g>
   </g>
   <g id="xtick_12">
    <g id="line2d_14">
     <path d="M 485.921349 401.852805 
L 493.44663 404.105935 
" style="fill:none;stroke:#000000;stroke-linecap:square;stroke-width:0.8;"/>
    </g>
    <g id="text_14">
     <!-- 0.004 -->
     <g transform="translate(486.262596 422.79928)scale(0.1 -0.1)">
      <use xlink:href="#DejaVuSans-30"/>
      <use x="63.623047" xlink:href="#DejaVuSans-2e"/>
      <use x="95.410156" xlink:href="#DejaVuSans-30"/>
      <use x="159.033203" xlink:href="#DejaVuSans-30"/>
      <use x="222.65625" xlink:href="#DejaVuSans-34"/>
     </g>
    </g>
   </g>
   <g id="xtick_13">
    <g id="line2d_15">
     <path d="M 510.120541 377.062966 
L 517.573999 379.256131 
" style="fill:none;stroke:#000000;stroke-linecap:square;stroke-width:0.8;"/>
    </g>
    <g id="text_15">
     <!-- 0.006 -->
     <g transform="translate(510.281574 397.814078)scale(0.1 -0.1)">
      <use xlink:href="#DejaVuSans-30"/>
      <use x="63.623047" xlink:href="#DejaVuSans-2e"/>
      <use x="95.410156" xlink:href="#DejaVuSans-30"/>
      <use x="159.033203" xlink:href="#DejaVuSans-30"/>
      <use x="222.65625" xlink:href="#DejaVuSans-36"/>
     </g>
    </g>
   </g>
  </g>
  <g id="axis3d_3">
   <g id="line2d_16">
    <path d="M 529.521668 360.430763 
L 540.005628 131.487856 
" style="fill:none;stroke:#000000;stroke-linecap:square;stroke-width:0.8;"/>
   </g>
   <g id="text_16">
    <!-- z (m) -->
    <g transform="translate(577.326905 256.136884)rotate(-87.378092)scale(0.1 -0.1)">
     <defs>
      <path d="M 353 3500 
L 3084 3500 
L 3084 2975 
L 922 459 
L 3084 459 
L 3084 0 
L 275 0 
L 275 525 
L 2438 3041 
L 353 3041 
L 353 3500 
z
" id="DejaVuSans-7a" transform="scale(0.015625)"/>
     </defs>
     <use xlink:href="#DejaVuSans-7a"/>
     <use x="52.490234" xlink:href="#DejaVuSans-20"/>
     <use x="84.277344" xlink:href="#DejaVuSans-28"/>
     <use x="123.291016" xlink:href="#DejaVuSans-6d"/>
     <use x="220.703125" xlink:href="#DejaVuSans-29"/>
    </g>
   </g>
   <g id="Line3DCollection_3">
    <path d="M 530.074756 348.35274 
L 235.607477 263.341383 
L 52.065501 416.136316 
" style="fill:none;stroke:#b0b0b0;stroke-width:0.8;"/>
    <path d="M 531.73369 312.125857 
L 235.204142 228.266288 
L 50.278652 379.031252 
" style="fill:none;stroke:#b0b0b0;stroke-width:0.8;"/>
    <path d="M 533.416254 275.382942 
L 234.795336 192.715512 
L 48.465378 341.377426 
" style="fill:none;stroke:#b0b0b0;stroke-width:0.8;"/>
    <path d="M 535.122958 238.112891 
L 234.380949 156.679311 
L 46.625086 303.162576 
" style="fill:none;stroke:#b0b0b0;stroke-width:0.8;"/>
    <path d="M 536.854324 200.304278 
L 233.960864 120.147674 
L 44.757169 264.374068 
" style="fill:none;stroke:#b0b0b0;stroke-width:0.8;"/>
    <path d="M 538.610891 161.945345 
L 233.534964 83.110315 
L 42.861 224.998888 
" style="fill:none;stroke:#b0b0b0;stroke-width:0.8;"/>
   </g>
   <g id="xtick_14">
    <g id="line2d_17">
     <path d="M 527.603091 347.639182 
L 535.023978 349.781558 
" style="fill:none;stroke:#000000;stroke-linecap:square;stroke-width:0.8;"/>
    </g>
    <g id="text_17">
     <!-- 1.0 -->
     <g transform="translate(540.442661 353.353406)scale(0.1 -0.1)">
      <defs>
       <path d="M 794 531 
L 1825 531 
L 1825 4091 
L 703 3866 
L 703 4441 
L 1819 4666 
L 2450 4666 
L 2450 531 
L 3481 531 
L 3481 0 
L 794 0 
L 794 531 
z
" id="DejaVuSans-31" transform="scale(0.015625)"/>
      </defs>
      <use xlink:href="#DejaVuSans-31"/>
      <use x="63.623047" xlink:href="#DejaVuSans-2e"/>
      <use x="95.410156" xlink:href="#DejaVuSans-30"/>
     </g>
    </g>
   </g>
   <g id="xtick_15">
    <g id="line2d_18">
     <path d="M 529.24389 311.421733 
L 536.719267 313.535795 
" style="fill:none;stroke:#000000;stroke-linecap:square;stroke-width:0.8;"/>
    </g>
    <g id="text_18">
     <!-- 1.1 -->
     <g transform="translate(542.228545 317.160888)scale(0.1 -0.1)">
      <use xlink:href="#DejaVuSans-31"/>
      <use x="63.623047" xlink:href="#DejaVuSans-2e"/>
      <use x="95.410156" xlink:href="#DejaVuSans-31"/>
     </g>
    </g>
   </g>
   <g id="xtick_16">
    <g id="line2d_19">
     <path d="M 530.908051 274.688595 
L 538.438725 276.773316 
" style="fill:none;stroke:#000000;stroke-linecap:square;stroke-width:0.8;"/>
    </g>
    <g id="text_19">
     <!-- 1.2 -->
     <g transform="translate(544.039831 280.453584)scale(0.1 -0.1)">
      <use xlink:href="#DejaVuSans-31"/>
      <use x="63.623047" xlink:href="#DejaVuSans-2e"/>
      <use x="95.410156" xlink:href="#DejaVuSans-32"/>
     </g>
    </g>
   </g>
   <g id="xtick_17">
    <g id="line2d_20">
     <path d="M 532.596079 237.428674 
L 540.182872 239.482992 
" style="fill:none;stroke:#000000;stroke-linecap:square;stroke-width:0.8;"/>
    </g>
    <g id="text_20">
     <!-- 1.3 -->
     <g transform="translate(545.877065 243.220432)scale(0.1 -0.1)">
      <defs>
       <path d="M 2597 2516 
Q 3050 2419 3304 2112 
Q 3559 1806 3559 1356 
Q 3559 666 3084 287 
Q 2609 -91 1734 -91 
Q 1441 -91 1130 -33 
Q 819 25 488 141 
L 488 750 
Q 750 597 1062 519 
Q 1375 441 1716 441 
Q 2309 441 2620 675 
Q 2931 909 2931 1356 
Q 2931 1769 2642 2001 
Q 2353 2234 1838 2234 
L 1294 2234 
L 1294 2753 
L 1863 2753 
Q 2328 2753 2575 2939 
Q 2822 3125 2822 3475 
Q 2822 3834 2567 4026 
Q 2313 4219 1838 4219 
Q 1578 4219 1281 4162 
Q 984 4106 628 3988 
L 628 4550 
Q 988 4650 1302 4700 
Q 1616 4750 1894 4750 
Q 2613 4750 3031 4423 
Q 3450 4097 3450 3541 
Q 3450 3153 3228 2886 
Q 3006 2619 2597 2516 
z
" id="DejaVuSans-33" transform="scale(0.015625)"/>
      </defs>
      <use xlink:href="#DejaVuSans-31"/>
      <use x="63.623047" xlink:href="#DejaVuSans-2e"/>
      <use x="95.410156" xlink:href="#DejaVuSans-33"/>
     </g>
    </g>
   </g>
   <g id="xtick_18">
    <g id="line2d_21">
     <path d="M 534.308488 199.630558 
L 541.952242 201.653372 
" style="fill:none;stroke:#000000;stroke-linecap:square;stroke-width:0.8;"/>
    </g>
    <g id="text_21">
     <!-- 1.4 -->
     <g transform="translate(547.740807 205.450051)scale(0.1 -0.1)">
      <use xlink:href="#DejaVuSans-31"/>
      <use x="63.623047" xlink:href="#DejaVuSans-2e"/>
      <use x="95.410156" xlink:href="#DejaVuSans-34"/>
     </g>
    </g>
   </g>
   <g id="xtick_19">
    <g id="line2d_22">
     <path d="M 536.045812 161.2825 
L 543.747387 163.272673 
" style="fill:none;stroke:#000000;stroke-linecap:square;stroke-width:0.8;"/>
    </g>
    <g id="text_22">
     <!-- 1.5 -->
     <g transform="translate(549.631637 167.130728)scale(0.1 -0.1)">
      <defs>
       <path d="M 691 4666 
L 3169 4666 
L 3169 4134 
L 1269 4134 
L 1269 2991 
Q 1406 3038 1543 3061 
Q 1681 3084 1819 3084 
Q 2600 3084 3056 2656 
Q 3513 2228 3513 1497 
Q 3513 744 3044 326 
Q 2575 -91 1722 -91 
Q 1428 -91 1123 -41 
Q 819 9 494 109 
L 494 744 
Q 775 591 1075 516 
Q 1375 441 1709 441 
Q 2250 441 2565 725 
Q 2881 1009 2881 1497 
Q 2881 1984 2565 2268 
Q 2250 2553 1709 2553 
Q 1456 2553 1204 2497 
Q 953 2441 691 2322 
L 691 4666 
z
" id="DejaVuSans-35" transform="scale(0.015625)"/>
      </defs>
      <use xlink:href="#DejaVuSans-31"/>
      <use x="63.623047" xlink:href="#DejaVuSans-2e"/>
      <use x="95.410156" xlink:href="#DejaVuSans-35"/>
     </g>
    </g>
   </g>
  </g>
  <g id="axes_1">
   <g id="line2d_23">
    <path clip-path="url(#p403515eb4b)" d="M 304.849595 210.557069 
L 304.748146 212.361271 
L 304.450162 213.267581 
L 303.827269 214.371437 
L 302.586771 216.041793 
L 299.892225 219.218284 
L 296.391669 223.194241 
L 296.633808 223.200152 
L 297.863994 222.814867 
L 299.791117 222.29247 
L 301.122374 222.158564 
L 302.178367 222.24849 
L 303.19279 222.550152 
L 304.143892 223.083581 
L 305.015025 223.860392 
L 305.795628 224.883777 
L 306.485001 226.146784 
L 307.237063 228.030833 
L 308.169161 231.124782 
L 310.190232 238.147452 
L 311.169724 240.659811 
L 312.127139 242.577723 
L 313.276631 244.367647 
L 314.648552 245.990731 
L 315.837905 247.078722 
L 317.172561 248.043947 
L 318.656972 248.877825 
L 320.29341 249.573953 
L 322.08225 250.12766 
L 324.021897 250.536111 
L 326.835711 250.854192 
L 329.894898 250.918341 
L 333.176416 250.740684 
L 336.650554 250.339951 
L 341.20954 249.563156 
L 345.933036 248.536341 
L 352.649761 246.813915 
L 362.88773 243.892923 
L 371.97419 241.357669 
L 376.84471 240.223975 
L 379.801575 239.725746 
L 382.283786 239.527311 
L 383.911748 239.602404 
L 385.214162 239.895638 
L 385.975943 240.262147 
L 386.553983 240.755523 
L 386.949949 241.375841 
L 387.166323 242.122441 
L 387.20633 242.994066 
L 386.992167 244.347313 
L 386.482979 245.912997 
L 385.693334 247.681984 
L 384.340164 250.159447 
L 382.239935 253.477465 
L 379.253134 257.72948 
L 374.817615 263.59212 
L 367.907361 272.277052 
L 357.279538 285.618809 
L 354.070674 290.017922 
L 352.727706 292.169546 
L 352.256633 293.289883 
L 352.314191 293.65226 
L 352.501706 293.69589 
L 352.92435 293.554051 
L 353.910842 292.923011 
L 355.554667 291.580411 
L 358.350975 288.964756 
L 361.782972 285.449343 
L 366.160763 280.633442 
L 370.93079 275.028839 
L 375.388408 269.458253 
L 379.852507 263.52398 
L 383.716331 258.046196 
L 387.39091 252.464424 
L 390.796438 246.856902 
L 393.499157 241.986241 
L 395.900276 237.194725 
L 397.966503 232.519721 
L 399.452155 228.627836 
L 400.663821 224.856127 
L 401.595998 221.213075 
L 402.246632 217.704175 
L 402.617385 214.331817 
L 402.712801 211.096217 
L 402.585798 208.504397 
L 402.274367 206.007921 
L 401.781853 203.607141 
L 401.111827 201.302399 
L 400.268029 199.094 
L 399.254629 196.981721 
L 398.076475 194.96451 
L 396.452209 192.667339 
L 394.605093 190.503337 
L 392.540805 188.471865 
L 390.264151 186.572725 
L 387.778568 184.806619 
L 385.085538 183.175842 
L 382.185258 181.683766 
L 379.077494 180.333967 
L 375.761517 179.130238 
L 372.235841 178.076805 
L 368.498625 177.178155 
L 364.548213 176.438603 
L 360.383021 175.862187 
L 356.001695 175.452515 
L 350.616951 175.188255 
L 344.939513 175.155938 
L 338.971608 175.357079 
L 332.718014 175.791218 
L 326.187101 176.454866 
L 318.398007 177.486594 
L 310.284194 178.795735 
L 300.81147 180.570491 
L 289.937702 182.862194 
L 276.568918 185.942064 
L 255.287929 191.130774 
L 236.957689 195.515706 
L 226.866049 197.718316 
L 219.329239 199.161768 
L 213.221427 200.124629 
L 208.411633 200.681397 
L 204.048558 200.951724 
L 200.789082 200.933216 
L 197.89942 200.673679 
L 195.86946 200.281772 
L 194.101097 199.718511 
L 192.602921 198.978244 
L 191.6607 198.304304 
L 190.876287 197.527251 
L 190.250976 196.646479 
L 189.785321 195.66196 
L 189.479139 194.574235 
L 189.331519 193.384414 
L 189.378418 191.642119 
L 189.698359 189.726814 
L 190.283236 187.645699 
L 191.122769 185.407624 
L 192.511324 182.405273 
L 194.250196 179.197376 
L 196.75367 175.113842 
L 199.652795 170.822753 
L 203.443779 165.627368 
L 208.171931 159.554102 
L 213.773959 152.723075 
L 221.247227 143.977688 
L 238.131915 124.383432 
L 239.961672 121.871311 
L 240.468039 120.881949 
L 240.457513 120.549979 
L 240.239406 120.499311 
L 239.723963 120.690462 
L 238.598835 121.396742 
L 236.597434 122.956476 
L 233.918866 125.344162 
L 231.134208 128.143022 
L 229.097394 130.477986 
L 227.624297 132.463156 
L 226.690795 134.046267 
L 226.199312 135.240537 
L 226.006514 136.291692 
L 226.088005 137.013388 
L 226.393447 137.6176 
L 226.93368 138.095503 
L 227.716991 138.440162 
L 228.748898 138.646667 
L 230.392161 138.706476 
L 232.427325 138.545029 
L 235.378818 138.062932 
L 239.501845 137.115964 
L 245.056548 135.56047 
L 252.273454 133.277752 
L 262.276767 129.861464 
L 304.554499 115.134535 
L 314.221347 112.115089 
L 322.564948 109.734651 
L 329.594649 107.943188 
L 336.319541 106.460677 
L 341.811515 105.456425 
L 347.030568 104.713052 
L 351.962583 104.239894 
L 356.601145 104.040149 
L 360.241385 104.082001 
L 363.677462 104.311668 
L 366.91201 104.726143 
L 369.951151 105.319546 
L 372.804446 106.083038 
L 375.483183 107.006214 
L 377.999037 108.078271 
L 380.820822 109.544937 
L 383.452655 111.185451 
L 386.326257 113.280436 
L 389.414576 115.855632 
L 393.083119 119.251601 
L 404.623018 130.226795 
L 409.854083 134.729841 
L 418.268924 141.891529 
L 420.930082 144.461117 
L 423.052709 146.812272 
L 424.679486 148.934332 
L 426.097088 151.179109 
L 427.098578 153.158956 
L 427.920595 155.25045 
L 428.5496 157.464144 
L 428.973916 159.80916 
L 429.183979 162.292917 
L 429.17233 164.921145 
L 428.933583 167.697866 
L 428.464482 170.625303 
L 427.764149 173.703639 
L 426.621362 177.593536 
L 425.157333 181.68859 
L 423.38684 185.974676 
L 420.96091 191.191107 
L 418.185835 196.603754 
L 414.650015 202.971102 
L 410.306636 210.273802 
L 405.176083 218.42266 
L 398.856365 228.008753 
L 390.249257 240.617322 
L 378.630384 257.62156 
L 375.816223 262.112796 
L 374.623478 264.383267 
L 374.423304 265.153635 
L 374.566231 265.269804 
L 374.899747 265.117111 
L 375.658144 264.475175 
L 377.067984 262.970759 
L 379.314609 260.217215 
L 381.941516 256.629291 
L 384.481928 252.799708 
L 387.013915 248.565471 
L 389.176862 244.507297 
L 390.941901 240.764683 
L 392.516358 236.93635 
L 393.873136 233.052395 
L 394.996571 229.135337 
L 395.879398 225.201572 
L 396.520685 221.261193 
L 396.926032 217.317013 
L 397.10749 213.365761 
L 397.080389 209.402676 
L 396.813535 204.933455 
L 396.362441 200.970347 
L 395.696345 197.043967 
L 394.798853 193.183113 
L 393.807134 189.883192 
L 392.603276 186.681623 
L 391.386318 184.035328 
L 389.982592 181.497702 
L 388.375416 179.087053 
L 386.868149 177.18862 
L 385.197486 175.401962 
L 383.35359 173.737491 
L 381.326964 172.205231 
L 379.108667 170.814644 
L 376.690543 169.574442 
L 374.065333 168.49251 
L 371.226691 167.575887 
L 368.169278 166.830701 
L 364.889085 166.261842 
L 361.383771 165.872601 
L 357.652433 165.66488 
L 353.695177 165.639615 
L 348.650167 165.849912 
L 343.28726 166.319841 
L 337.615731 167.043409 
L 331.647912 168.012165 
L 324.331692 169.437344 
L 316.664853 171.157434 
L 307.526523 173.444195 
L 296.856824 176.357837 
L 283.437708 180.274787 
L 260.036209 187.404269 
L 242.204597 192.746972 
L 231.048057 195.870477 
L 222.727657 197.986344 
L 215.992867 199.484186 
L 210.692159 200.457904 
L 205.883637 201.104986 
L 202.289836 201.368195 
L 199.101115 201.359845 
L 196.858273 201.146222 
L 194.901208 200.740578 
L 193.239166 200.13681 
L 192.190712 199.551141 
L 191.314594 198.850131 
L 190.612257 198.033122 
L 190.08434 197.100064 
L 189.730669 196.05155 
L 189.550274 194.888757 
L 189.541395 193.613473 
L 189.791847 191.742325 
L 190.33444 189.682784 
L 191.158644 187.443921 
L 192.565202 184.409778 
L 194.361889 181.137084 
L 196.514199 177.654071 
L 199.511795 173.241029 
L 203.487922 167.845263 
L 208.509267 161.47554 
L 214.528321 154.238615 
L 222.001035 145.617018 
L 242.878445 121.774589 
L 244.463403 119.542783 
L 244.894185 118.584103 
L 244.838845 118.331625 
L 244.576113 118.285208 
L 243.974782 118.503204 
L 242.675944 119.285199 
L 240.651572 120.776948 
L 237.566076 123.349255 
L 234.229606 126.434578 
L 231.352374 129.39549 
L 229.142249 131.988542 
L 227.636992 134.106577 
L 226.758497 135.738891 
L 226.365049 136.932785 
L 226.294238 137.761611 
L 226.454714 138.466743 
L 226.857334 139.0394 
L 227.510263 139.472774 
L 228.41877 139.762191 
L 229.585248 139.905124 
L 231.40556 139.877046 
L 233.623315 139.62158 
L 236.795867 139.022587 
L 241.171452 137.939607 
L 246.996256 136.237893 
L 254.483647 133.809791 
L 265.740973 129.90511 
L 298.554684 118.391587 
L 309.358461 114.896744 
L 317.806423 112.371771 
L 325.971017 110.166847 
L 332.816264 108.547883 
L 339.338747 107.249181 
L 344.646895 106.408376 
L 349.676489 105.830933 
L 354.418095 105.522492 
L 358.869006 105.483294 
L 362.356484 105.654618 
L 365.644384 106.008868 
L 368.737287 106.541448 
L 371.643415 107.244709 
L 374.373603 108.108733 
L 376.93955 109.122763 
L 379.81902 110.521804 
L 382.504062 112.098349 
L 385.025828 113.824491 
L 387.807016 115.986487 
L 391.203478 118.931546 
L 396.654346 124.027988 
L 402.50394 129.394463 
L 407.389291 133.558779 
L 419.907016 143.979792 
L 422.145266 146.242501 
L 423.885357 148.278387 
L 425.428384 150.428226 
L 426.542961 152.322792 
L 427.485253 154.323824 
L 428.240942 156.442434 
L 428.797306 158.688547 
L 429.143655 161.070503 
L 429.271492 163.594897 
L 429.174467 166.266573 
L 428.848341 169.088599 
L 428.291092 172.062139 
L 427.503199 175.186197 
L 426.258156 179.128668 
L 424.69728 183.271713 
L 422.837606 187.599146 
L 420.320148 192.852826 
L 417.470018 198.28815 
L 413.871601 204.660726 
L 409.489757 211.940675 
L 404.358568 220.026642 
L 397.583627 230.247581 
L 387.440752 245.068386 
L 379.457126 256.84045 
L 376.589171 261.413309 
L 375.338843 263.767537 
L 375.091292 264.605936 
L 375.203478 264.76643 
L 375.505958 264.658837 
L 376.220613 264.081038 
L 377.574124 262.660159 
L 379.75429 260.007885 
L 382.320433 256.518151 
L 384.811345 252.774906 
L 387.298823 248.6247 
L 389.424858 244.640796 
L 391.158107 240.964149 
L 392.700406 237.20276 
L 394.023657 233.386889 
L 395.111899 229.538643 
L 395.958143 225.673908 
L 396.561861 221.802544 
L 396.92865 217.927522 
L 397.070635 214.045129 
L 397.004128 210.149139 
L 396.696619 205.749159 
L 396.21686 201.838084 
L 395.5315 197.952565 
L 394.625638 194.120351 
L 393.63707 190.834502 
L 392.447273 187.635907 
L 391.251521 184.983034 
L 389.877847 182.430205 
L 388.309755 179.995683 
L 386.529742 177.698259 
L 384.871786 175.90198 
L 383.044365 174.224541 
L 381.037734 172.676201 
L 378.842668 171.266679 
L 376.450688 170.004976 
L 373.854193 168.899277 
L 371.046496 167.956934 
L 368.021882 167.184401 
L 364.775928 166.586932 
L 361.305904 166.168166 
L 357.610575 165.930293 
L 353.689719 165.874543 
L 348.688363 166.048267 
L 343.368447 166.482165 
L 337.738681 167.170707 
L 331.810882 168.105861 
L 324.538404 169.494271 
L 316.9113 171.180903 
L 307.812481 173.434156 
L 297.178483 176.317083 
L 283.788881 180.207632 
L 262.843348 186.573837 
L 242.544873 192.676713 
L 231.357562 195.820019 
L 223.004473 197.95767 
L 216.235593 199.478565 
L 210.901833 200.474801 
L 206.057011 201.146724 
L 202.430803 201.432151 
L 199.208061 201.447123 
L 196.937061 201.252785 
L 194.95116 200.866855 
L 193.259777 200.283097 
L 192.189114 199.712531 
L 191.290716 199.026628 
L 190.566132 198.224639 
L 190.016094 197.306465 
L 189.640533 196.272599 
L 189.438572 195.124157 
L 189.408544 193.862857 
L 189.63161 192.009644 
L 190.147943 189.967089 
L 190.947223 187.744102 
L 192.016846 185.351328 
L 193.711341 182.140456 
L 195.771743 178.710909 
L 198.67405 174.349941 
L 201.977293 169.775808 
L 206.234076 164.25269 
L 211.469742 157.821548 
L 218.270551 149.839615 
L 227.535399 139.343153 
L 240.285684 124.914583 
L 243.403064 121.048688 
L 244.570629 119.299838 
L 244.84927 118.567819 
L 244.763429 118.346462 
L 244.471965 118.329855 
L 243.837716 118.582927 
L 242.499524 119.409087 
L 240.152814 121.172826 
L 237.005661 123.845066 
L 233.674119 126.980537 
L 230.858275 129.943963 
L 228.746025 132.506762 
L 227.524272 134.293343 
L 226.693274 135.902683 
L 226.343763 137.074063 
L 226.310519 137.882977 
L 226.51037 138.566744 
L 226.953777 139.116865 
L 227.648447 139.526869 
L 228.59916 139.792459 
L 229.807859 139.911425 
L 231.680418 139.853614 
L 233.949367 139.569004 
L 237.181318 138.936272 
L 241.622132 137.816552 
L 247.514414 136.077588 
L 255.067675 133.614344 
L 266.39334 129.676096 
L 297.093435 118.885654 
L 298.181577 118.519959 
L 298.181577 118.519959 
" style="fill:none;stroke:#d62728;stroke-linecap:square;stroke-opacity:0.7;stroke-width:1.5;"/>
   </g>
   <g id="line2d_24">
    <path clip-path="url(#p403515eb4b)" d="M 304.849714 210.48997 
L 422.773879 243.103197 
L 191.38355 179.109653 
L 304.849714 210.48997 
" style="fill:none;stroke:#000000;stroke-dasharray:5.55,2.4;stroke-dashoffset:0;stroke-opacity:0.595;stroke-width:1.5;"/>
   </g>
   <g id="line2d_25">
    <path clip-path="url(#p403515eb4b)" d="M 260.253734 386.975302 
L 260.226487 387.468286 
L 260.158542 387.441497 
L 258.582204 386.735524 
L 255.221006 385.528729 
L 248.488058 383.379338 
L 155.136962 354.489907 
L 155.335976 354.548491 
L 173.346651 360.122719 
L 273.223467 390.921875 
L 279.915077 393.088225 
L 281.581647 393.857614 
L 283.246879 394.952048 
L 284.356462 395.906281 
L 286.572468 398.240101 
L 289.327941 401.176729 
L 290.970104 402.610906 
L 292.603865 403.787188 
L 294.769443 405.013544 
L 296.920744 405.957954 
L 299.589682 406.869859 
L 302.761999 407.710292 
L 307.453432 408.686453 
L 316.056573 410.191003 
L 329.733333 412.627311 
L 341.416041 414.95427 
L 354.373625 417.772699 
L 369.620225 421.092734 
L 369.697365 421.064951 
L 369.604191 420.982608 
L 368.763541 420.626238 
L 365.16491 419.390522 
L 353.725226 415.743348 
L 317.633594 404.531171 
L 282.452298 393.756328 
L 280.795099 393.53531 
L 279.690792 393.572487 
L 278.587286 393.773632 
L 274.720302 394.808161 
L 273.055854 394.983288 
L 270.829735 394.906059 
L 268.597575 394.566995 
L 265.801555 393.89412 
L 262.441595 392.852606 
L 257.400737 391.033278 
L 247.362505 387.110001 
L 230.984782 380.762658 
L 216.41737 375.375494 
L 200.125085 369.595629 
L 180.621701 362.924333 
L 155.463925 354.506835 
L 159.204347 355.601334 
L 189.31677 364.855855 
L 280.030844 392.907554 
L 281.696138 393.688456 
L 282.805656 394.397574 
L 284.468895 395.781228 
L 286.682747 398.112845 
L 288.885728 400.419075 
L 290.528264 401.878371 
L 292.162167 403.066341 
L 293.787823 404.033693 
L 295.94286 405.06483 
L 298.616379 406.050737 
L 301.794271 406.950922 
L 305.976977 407.883547 
L 313.124472 409.2027 
L 330.191641 412.30991 
L 341.774117 414.674446 
L 355.153949 417.641672 
L 369.330671 420.777726 
L 369.439947 420.747564 
L 369.355633 420.676729 
L 368.533712 420.329967 
L 364.802783 419.055702 
L 352.670687 415.200116 
L 313.136266 402.935512 
L 282.414053 393.551635 
L 280.757743 393.328573 
L 279.654265 393.381825 
L 278.000158 393.737369 
L 274.687533 394.699965 
L 273.024398 394.911526 
L 271.35665 394.912283 
L 269.12725 394.662599 
L 266.333711 394.056479 
L 262.975613 393.056204 
L 258.495518 391.468906 
L 250.673796 388.419884 
L 230.956767 380.689297 
L 216.886182 375.446622 
L 200.983347 369.76569 
L 182.358931 363.355648 
L 155.28237 354.26858 
L 159.577228 355.529479 
L 193.148941 365.852555 
L 278.508248 392.231054 
L 280.139152 392.961044 
L 281.769971 394.009371 
L 283.400541 395.446189 
L 289.356849 401.512002 
L 290.970564 402.680002 
L 293.114451 403.899398 
L 295.249276 404.842896 
L 297.904164 405.757247 
L 301.068148 406.60484 
L 305.762391 407.598068 
L 314.910014 409.233221 
L 328.247672 411.671061 
L 340.121475 414.084119 
L 353.329577 417.006834 
L 369.291739 420.549976 
L 369.324118 420.525984 
L 369.243404 420.457019 
L 368.434485 420.115798 
L 364.737817 418.854218 
L 352.665579 415.020299 
L 323.322146 405.911546 
L 323.322146 405.911546 
" style="fill:none;stroke:#1f77b4;stroke-linecap:square;stroke-opacity:0.7;stroke-width:1.5;"/>
   </g>
   <g id="line2d_26">
    <path clip-path="url(#p403515eb4b)" d="M 259.773454 386.765348 
L 152.411477 353.672006 
L 372.145518 421.403004 
L 262.65353 387.653105 
" style="fill:none;stroke:#000000;stroke-dasharray:5.55,2.4;stroke-dashoffset:0;stroke-opacity:0.595;stroke-width:1.5;"/>
   </g>
  </g>
  <g id="legend_1">
   <g id="patch_6">
    <path d="M 472.53125 319.134375 
L 569 319.134375 
Q 571 319.134375 571 317.134375 
L 571 258.865625 
Q 571 256.865625 569 256.865625 
L 472.53125 256.865625 
Q 470.53125 256.865625 470.53125 258.865625 
L 470.53125 317.134375 
Q 470.53125 319.134375 472.53125 319.134375 
z
" style="fill:#ffffff;opacity:0.8;stroke:#cccccc;stroke-linejoin:miter;"/>
   </g>
   <g id="line2d_27">
    <path d="M 474.53125 264.964062 
L 494.53125 264.964062 
" style="fill:none;stroke:#d62728;stroke-linecap:square;stroke-opacity:0.7;stroke-width:1.5;"/>
   </g>
   <g id="line2d_28"/>
   <g id="text_23">
    <!-- LSTMCNN -->
    <g transform="translate(502.53125 268.464062)scale(0.1 -0.1)">
     <defs>
      <path d="M 628 4666 
L 1259 4666 
L 1259 531 
L 3531 531 
L 3531 0 
L 628 0 
L 628 4666 
z
" id="DejaVuSans-4c" transform="scale(0.015625)"/>
      <path d="M 3425 4513 
L 3425 3897 
Q 3066 4069 2747 4153 
Q 2428 4238 2131 4238 
Q 1616 4238 1336 4038 
Q 1056 3838 1056 3469 
Q 1056 3159 1242 3001 
Q 1428 2844 1947 2747 
L 2328 2669 
Q 3034 2534 3370 2195 
Q 3706 1856 3706 1288 
Q 3706 609 3251 259 
Q 2797 -91 1919 -91 
Q 1588 -91 1214 -16 
Q 841 59 441 206 
L 441 856 
Q 825 641 1194 531 
Q 1563 422 1919 422 
Q 2459 422 2753 634 
Q 3047 847 3047 1241 
Q 3047 1584 2836 1778 
Q 2625 1972 2144 2069 
L 1759 2144 
Q 1053 2284 737 2584 
Q 422 2884 422 3419 
Q 422 4038 858 4394 
Q 1294 4750 2059 4750 
Q 2388 4750 2728 4690 
Q 3069 4631 3425 4513 
z
" id="DejaVuSans-53" transform="scale(0.015625)"/>
      <path d="M -19 4666 
L 3928 4666 
L 3928 4134 
L 2272 4134 
L 2272 0 
L 1638 0 
L 1638 4134 
L -19 4134 
L -19 4666 
z
" id="DejaVuSans-54" transform="scale(0.015625)"/>
      <path d="M 628 4666 
L 1569 4666 
L 2759 1491 
L 3956 4666 
L 4897 4666 
L 4897 0 
L 4281 0 
L 4281 4097 
L 3078 897 
L 2444 897 
L 1241 4097 
L 1241 0 
L 628 0 
L 628 4666 
z
" id="DejaVuSans-4d" transform="scale(0.015625)"/>
      <path d="M 4122 4306 
L 4122 3641 
Q 3803 3938 3442 4084 
Q 3081 4231 2675 4231 
Q 1875 4231 1450 3742 
Q 1025 3253 1025 2328 
Q 1025 1406 1450 917 
Q 1875 428 2675 428 
Q 3081 428 3442 575 
Q 3803 722 4122 1019 
L 4122 359 
Q 3791 134 3420 21 
Q 3050 -91 2638 -91 
Q 1578 -91 968 557 
Q 359 1206 359 2328 
Q 359 3453 968 4101 
Q 1578 4750 2638 4750 
Q 3056 4750 3426 4639 
Q 3797 4528 4122 4306 
z
" id="DejaVuSans-43" transform="scale(0.015625)"/>
      <path d="M 628 4666 
L 1478 4666 
L 3547 763 
L 3547 4666 
L 4159 4666 
L 4159 0 
L 3309 0 
L 1241 3903 
L 1241 0 
L 628 0 
L 628 4666 
z
" id="DejaVuSans-4e" transform="scale(0.015625)"/>
     </defs>
     <use xlink:href="#DejaVuSans-4c"/>
     <use x="55.712891" xlink:href="#DejaVuSans-53"/>
     <use x="119.189453" xlink:href="#DejaVuSans-54"/>
     <use x="180.273438" xlink:href="#DejaVuSans-4d"/>
     <use x="266.552734" xlink:href="#DejaVuSans-43"/>
     <use x="336.376953" xlink:href="#DejaVuSans-4e"/>
     <use x="411.181641" xlink:href="#DejaVuSans-4e"/>
    </g>
   </g>
   <g id="line2d_29">
    <path d="M 474.53125 279.642187 
L 494.53125 279.642187 
" style="fill:none;stroke:#000000;stroke-dasharray:5.55,2.4;stroke-dashoffset:0;stroke-opacity:0.595;stroke-width:1.5;"/>
   </g>
   <g id="line2d_30"/>
   <g id="text_24">
    <!-- Referencia_0 -->
    <g transform="translate(502.53125 283.142187)scale(0.1 -0.1)">
     <defs>
      <path d="M 2841 2188 
Q 3044 2119 3236 1894 
Q 3428 1669 3622 1275 
L 4263 0 
L 3584 0 
L 2988 1197 
Q 2756 1666 2539 1819 
Q 2322 1972 1947 1972 
L 1259 1972 
L 1259 0 
L 628 0 
L 628 4666 
L 2053 4666 
Q 2853 4666 3247 4331 
Q 3641 3997 3641 3322 
Q 3641 2881 3436 2590 
Q 3231 2300 2841 2188 
z
M 1259 4147 
L 1259 2491 
L 2053 2491 
Q 2509 2491 2742 2702 
Q 2975 2913 2975 3322 
Q 2975 3731 2742 3939 
Q 2509 4147 2053 4147 
L 1259 4147 
z
" id="DejaVuSans-52" transform="scale(0.015625)"/>
      <path d="M 3597 1894 
L 3597 1613 
L 953 1613 
Q 991 1019 1311 708 
Q 1631 397 2203 397 
Q 2534 397 2845 478 
Q 3156 559 3463 722 
L 3463 178 
Q 3153 47 2828 -22 
Q 2503 -91 2169 -91 
Q 1331 -91 842 396 
Q 353 884 353 1716 
Q 353 2575 817 3079 
Q 1281 3584 2069 3584 
Q 2775 3584 3186 3129 
Q 3597 2675 3597 1894 
z
M 3022 2063 
Q 3016 2534 2758 2815 
Q 2500 3097 2075 3097 
Q 1594 3097 1305 2825 
Q 1016 2553 972 2059 
L 3022 2063 
z
" id="DejaVuSans-65" transform="scale(0.015625)"/>
      <path d="M 2375 4863 
L 2375 4384 
L 1825 4384 
Q 1516 4384 1395 4259 
Q 1275 4134 1275 3809 
L 1275 3500 
L 2222 3500 
L 2222 3053 
L 1275 3053 
L 1275 0 
L 697 0 
L 697 3053 
L 147 3053 
L 147 3500 
L 697 3500 
L 697 3744 
Q 697 4328 969 4595 
Q 1241 4863 1831 4863 
L 2375 4863 
z
" id="DejaVuSans-66" transform="scale(0.015625)"/>
      <path d="M 2631 2963 
Q 2534 3019 2420 3045 
Q 2306 3072 2169 3072 
Q 1681 3072 1420 2755 
Q 1159 2438 1159 1844 
L 1159 0 
L 581 0 
L 581 3500 
L 1159 3500 
L 1159 2956 
Q 1341 3275 1631 3429 
Q 1922 3584 2338 3584 
Q 2397 3584 2469 3576 
Q 2541 3569 2628 3553 
L 2631 2963 
z
" id="DejaVuSans-72" transform="scale(0.015625)"/>
      <path d="M 3513 2113 
L 3513 0 
L 2938 0 
L 2938 2094 
Q 2938 2591 2744 2837 
Q 2550 3084 2163 3084 
Q 1697 3084 1428 2787 
Q 1159 2491 1159 1978 
L 1159 0 
L 581 0 
L 581 3500 
L 1159 3500 
L 1159 2956 
Q 1366 3272 1645 3428 
Q 1925 3584 2291 3584 
Q 2894 3584 3203 3211 
Q 3513 2838 3513 2113 
z
" id="DejaVuSans-6e" transform="scale(0.015625)"/>
      <path d="M 3122 3366 
L 3122 2828 
Q 2878 2963 2633 3030 
Q 2388 3097 2138 3097 
Q 1578 3097 1268 2742 
Q 959 2388 959 1747 
Q 959 1106 1268 751 
Q 1578 397 2138 397 
Q 2388 397 2633 464 
Q 2878 531 3122 666 
L 3122 134 
Q 2881 22 2623 -34 
Q 2366 -91 2075 -91 
Q 1284 -91 818 406 
Q 353 903 353 1747 
Q 353 2603 823 3093 
Q 1294 3584 2113 3584 
Q 2378 3584 2631 3529 
Q 2884 3475 3122 3366 
z
" id="DejaVuSans-63" transform="scale(0.015625)"/>
      <path d="M 603 3500 
L 1178 3500 
L 1178 0 
L 603 0 
L 603 3500 
z
M 603 4863 
L 1178 4863 
L 1178 4134 
L 603 4134 
L 603 4863 
z
" id="DejaVuSans-69" transform="scale(0.015625)"/>
      <path d="M 2194 1759 
Q 1497 1759 1228 1600 
Q 959 1441 959 1056 
Q 959 750 1161 570 
Q 1363 391 1709 391 
Q 2188 391 2477 730 
Q 2766 1069 2766 1631 
L 2766 1759 
L 2194 1759 
z
M 3341 1997 
L 3341 0 
L 2766 0 
L 2766 531 
Q 2569 213 2275 61 
Q 1981 -91 1556 -91 
Q 1019 -91 701 211 
Q 384 513 384 1019 
Q 384 1609 779 1909 
Q 1175 2209 1959 2209 
L 2766 2209 
L 2766 2266 
Q 2766 2663 2505 2880 
Q 2244 3097 1772 3097 
Q 1472 3097 1187 3025 
Q 903 2953 641 2809 
L 641 3341 
Q 956 3463 1253 3523 
Q 1550 3584 1831 3584 
Q 2591 3584 2966 3190 
Q 3341 2797 3341 1997 
z
" id="DejaVuSans-61" transform="scale(0.015625)"/>
      <path d="M 3263 -1063 
L 3263 -1509 
L -63 -1509 
L -63 -1063 
L 3263 -1063 
z
" id="DejaVuSans-5f" transform="scale(0.015625)"/>
     </defs>
     <use xlink:href="#DejaVuSans-52"/>
     <use x="64.982422" xlink:href="#DejaVuSans-65"/>
     <use x="126.505859" xlink:href="#DejaVuSans-66"/>
     <use x="161.710938" xlink:href="#DejaVuSans-65"/>
     <use x="223.234375" xlink:href="#DejaVuSans-72"/>
     <use x="262.097656" xlink:href="#DejaVuSans-65"/>
     <use x="323.621094" xlink:href="#DejaVuSans-6e"/>
     <use x="387" xlink:href="#DejaVuSans-63"/>
     <use x="441.980469" xlink:href="#DejaVuSans-69"/>
     <use x="469.763672" xlink:href="#DejaVuSans-61"/>
     <use x="531.042969" xlink:href="#DejaVuSans-5f"/>
     <use x="581.042969" xlink:href="#DejaVuSans-30"/>
    </g>
   </g>
   <g id="line2d_31">
    <path d="M 474.53125 294.598437 
L 494.53125 294.598437 
" style="fill:none;stroke:#1f77b4;stroke-linecap:square;stroke-opacity:0.7;stroke-width:1.5;"/>
   </g>
   <g id="line2d_32"/>
   <g id="text_25">
    <!-- DSLPID -->
    <g transform="translate(502.53125 298.098437)scale(0.1 -0.1)">
     <defs>
      <path d="M 1259 4147 
L 1259 519 
L 2022 519 
Q 2988 519 3436 956 
Q 3884 1394 3884 2338 
Q 3884 3275 3436 3711 
Q 2988 4147 2022 4147 
L 1259 4147 
z
M 628 4666 
L 1925 4666 
Q 3281 4666 3915 4102 
Q 4550 3538 4550 2338 
Q 4550 1131 3912 565 
Q 3275 0 1925 0 
L 628 0 
L 628 4666 
z
" id="DejaVuSans-44" transform="scale(0.015625)"/>
      <path d="M 1259 4147 
L 1259 2394 
L 2053 2394 
Q 2494 2394 2734 2622 
Q 2975 2850 2975 3272 
Q 2975 3691 2734 3919 
Q 2494 4147 2053 4147 
L 1259 4147 
z
M 628 4666 
L 2053 4666 
Q 2838 4666 3239 4311 
Q 3641 3956 3641 3272 
Q 3641 2581 3239 2228 
Q 2838 1875 2053 1875 
L 1259 1875 
L 1259 0 
L 628 0 
L 628 4666 
z
" id="DejaVuSans-50" transform="scale(0.015625)"/>
      <path d="M 628 4666 
L 1259 4666 
L 1259 0 
L 628 0 
L 628 4666 
z
" id="DejaVuSans-49" transform="scale(0.015625)"/>
     </defs>
     <use xlink:href="#DejaVuSans-44"/>
     <use x="77.001953" xlink:href="#DejaVuSans-53"/>
     <use x="140.478516" xlink:href="#DejaVuSans-4c"/>
     <use x="196.191406" xlink:href="#DejaVuSans-50"/>
     <use x="256.494141" xlink:href="#DejaVuSans-49"/>
     <use x="285.986328" xlink:href="#DejaVuSans-44"/>
    </g>
   </g>
   <g id="line2d_33">
    <path d="M 474.53125 309.276562 
L 494.53125 309.276562 
" style="fill:none;stroke:#000000;stroke-dasharray:5.55,2.4;stroke-dashoffset:0;stroke-opacity:0.595;stroke-width:1.5;"/>
   </g>
   <g id="line2d_34"/>
   <g id="text_26">
    <!-- Referencia_1 -->
    <g transform="translate(502.53125 312.776562)scale(0.1 -0.1)">
     <use xlink:href="#DejaVuSans-52"/>
     <use x="64.982422" xlink:href="#DejaVuSans-65"/>
     <use x="126.505859" xlink:href="#DejaVuSans-66"/>
     <use x="161.710938" xlink:href="#DejaVuSans-65"/>
     <use x="223.234375" xlink:href="#DejaVuSans-72"/>
     <use x="262.097656" xlink:href="#DejaVuSans-65"/>
     <use x="323.621094" xlink:href="#DejaVuSans-6e"/>
     <use x="387" xlink:href="#DejaVuSans-63"/>
     <use x="441.980469" xlink:href="#DejaVuSans-69"/>
     <use x="469.763672" xlink:href="#DejaVuSans-61"/>
     <use x="531.042969" xlink:href="#DejaVuSans-5f"/>
     <use x="581.042969" xlink:href="#DejaVuSans-31"/>
    </g>
   </g>
  </g>
 </g>
 <defs>
  <clipPath id="p403515eb4b">
   <rect height="554.4" width="554.4" x="10.8" y="10.8"/>
  </clipPath>
 </defs>
</svg>
